<?xml version="1.0" encoding="utf-8"?>
<!-- Generator: Adobe Illustrator 16.0.0, SVG Export Plug-In . SVG Version: 6.00 Build 0)  -->
<!DOCTYPE svg PUBLIC "-//W3C//DTD SVG 1.1//EN" "http://www.w3.org/Graphics/SVG/1.1/DTD/svg11.dtd">
<svg version="1.1" id="Layer_1" xmlns="http://www.w3.org/2000/svg" xmlns:xlink="http://www.w3.org/1999/xlink" x="0px" y="0px"
	 width="336.5px" height="239.271px" viewBox="0 0 336.5 239.271" style="enable-background:new 0 0 336.5 239.271;"
	 xml:space="preserve">
<rect y="140.37" style="fill:#E6E6E6;" width="336.5" height="98.9"/>
<rect x="39.73" style="fill:#E6E6E6;" width="70.859" height="42.48"/>
<rect x="218.2" y="0.99" style="fill:#E6E6E6;" width="70.859" height="42.48"/>
<rect x="107.14" y="80.67" width="54.36" height="26.58"/>
<rect x="107.14" y="80.431" width="54.6" height="0.48"/>
<rect x="161.26" y="80.67" width="0.48" height="26.82"/>
<rect x="106.9" y="107.011" width="54.6" height="0.479"/>
<rect x="106.9" y="80.431" width="0.48" height="26.82"/>
<rect x="104.8" y="78.931" style="fill:#FFFFFF;" width="54.36" height="26.58"/>
<rect x="104.8" y="78.69" width="54.6" height="0.48"/>
<rect x="158.92" y="78.931" width="0.48" height="26.82"/>
<rect x="104.56" y="105.271" width="54.6" height="0.48"/>
<rect x="104.56" y="78.69" width="0.48" height="26.82"/>
<text transform="matrix(1 0 0 1 107.1401 86.0107)"><tspan x="0" y="0" style="font-family:'ProductusOSGiBookc'; font-size:7.98;">S</tspan><tspan x="3.679" y="0" style="font-family:'ProductusOSGiBookc'; font-size:7.98;">A</tspan><tspan x="7.756" y="0" style="font-family:'ProductusOSGiBookc'; font-size:7.98;">X</tspan><tspan x="11.619" y="0" style="font-family:'ProductusOSGiBookc'; font-size:7.98;">P</tspan><tspan x="14.747" y="0" style="font-family:'ProductusOSGiBookc'; font-size:7.98;">arser</tspan></text>
<text transform="matrix(1 0 0 1 107.1401 94.5308)"><tspan x="0" y="0" style="font-family:'ProductusOSGiBookc'; font-size:7.98;">F</tspan><tspan x="3" y="0" style="font-family:'ProductusOSGiBookc'; font-size:7.98;">a</tspan><tspan x="6.296" y="0" style="font-family:'ProductusOSGiBookc'; font-size:7.98;">c</tspan><tspan x="9.36" y="0" style="font-family:'ProductusOSGiBookc'; font-size:7.98;">t</tspan><tspan x="11.698" y="0" style="font-family:'ProductusOSGiBookc'; font-size:7.98;">o</tspan><tspan x="15.473" y="0" style="font-family:'ProductusOSGiBookc'; font-size:7.98;">ry</tspan></text>
<rect x="178.06" y="80.67" width="54.301" height="26.58"/>
<rect x="178.06" y="80.431" width="54.54" height="0.48"/>
<rect x="232.12" y="80.67" width="0.479" height="26.82"/>
<rect x="177.82" y="107.011" width="54.54" height="0.479"/>
<rect x="177.82" y="80.431" width="0.479" height="26.82"/>
<rect x="175.66" y="78.931" style="fill:#FFFFFF;" width="54.359" height="26.58"/>
<rect x="175.66" y="78.69" width="54.6" height="0.48"/>
<rect x="229.78" y="78.931" width="0.479" height="26.82"/>
<rect x="175.42" y="105.271" width="54.6" height="0.48"/>
<rect x="175.42" y="78.69" width="0.48" height="26.82"/>
<text transform="matrix(1 0 0 1 178.0596 86.0107)"><tspan x="0" y="0" style="font-family:'ProductusOSGiBookc'; font-size:7.98;">Docu</tspan><tspan x="15.401" y="0" style="font-family:'ProductusOSGiBookc'; font-size:7.98;">m</tspan><tspan x="21.106" y="0" style="font-family:'ProductusOSGiBookc'; font-size:7.98;">en</tspan><tspan x="28.24" y="0" style="font-family:'ProductusOSGiBookc'; font-size:7.98;">t</tspan></text>
<text transform="matrix(1 0 0 1 178.0596 94.5308)"><tspan x="0" y="0" style="font-family:'ProductusOSGiBookc'; font-size:7.98;">Bu</tspan><tspan x="7.182" y="0" style="font-family:'ProductusOSGiBookc'; font-size:7.98;">i</tspan><tspan x="8.689" y="0" style="font-family:'ProductusOSGiBookc'; font-size:7.98;">l</tspan><tspan x="10.246" y="0" style="font-family:'ProductusOSGiBookc'; font-size:7.98;">de</tspan><tspan x="17.396" y="0" style="font-family:'ProductusOSGiBookc'; font-size:7.98;">r</tspan></text>
<text transform="matrix(1 0 0 1 178.0596 103.0508)"><tspan x="0" y="0" style="font-family:'ProductusOSGiBookc'; font-size:7.98;">F</tspan><tspan x="3" y="0" style="font-family:'ProductusOSGiBookc'; font-size:7.98;">a</tspan><tspan x="6.296" y="0" style="font-family:'ProductusOSGiBookc'; font-size:7.98;">c</tspan><tspan x="9.36" y="0" style="font-family:'ProductusOSGiBookc'; font-size:7.98;">t</tspan><tspan x="11.698" y="0" style="font-family:'ProductusOSGiBookc'; font-size:7.98;">o</tspan><tspan x="15.473" y="0" style="font-family:'ProductusOSGiBookc'; font-size:7.98;">ry</tspan></text>
<rect x="142.6" y="151.59" width="54.36" height="26.58"/>
<rect x="142.6" y="151.351" width="54.6" height="0.48"/>
<rect x="196.72" y="151.59" width="0.48" height="26.82"/>
<rect x="142.36" y="177.931" width="54.6" height="0.48"/>
<rect x="142.36" y="151.351" width="0.48" height="26.82"/>
<rect x="140.26" y="149.791" style="fill:#FFFFFF;" width="54.3" height="26.58"/>
<rect x="140.26" y="149.551" width="54.54" height="0.479"/>
<rect x="194.32" y="149.791" width="0.479" height="26.82"/>
<rect x="140.02" y="176.13" width="54.54" height="0.48"/>
<rect x="140.02" y="149.551" width="0.48" height="26.82"/>
<text transform="matrix(1 0 0 1 142.6001 156.9307)"><tspan x="0" y="0" style="font-family:'ProductusSemibold'; font-size:7.98;">X</tspan><tspan x="4.756" y="0" style="font-family:'ProductusSemibold'; font-size:7.98;">M</tspan><tspan x="11.475" y="0" style="font-family:'ProductusSemibold'; font-size:7.98;">L</tspan><tspan x="15.13" y="0" style="font-family:'ProductusSemibold'; font-size:7.98;">P</tspan><tspan x="19.144" y="0" style="font-family:'ProductusSemibold'; font-size:7.98;">arse</tspan><tspan x="33.547" y="0" style="font-family:'ProductusSemibold'; font-size:7.98;">r</tspan></text>
<text transform="matrix(1 0 0 1 142.6001 165.3906)"><tspan x="0" y="0" style="font-family:'ProductusSemibold'; font-size:7.98;">A</tspan><tspan x="4.796" y="0" style="font-family:'ProductusSemibold'; font-size:7.98;">c</tspan><tspan x="8.451" y="0" style="font-family:'ProductusSemibold'; font-size:7.98;">t</tspan><tspan x="11.626" y="0" style="font-family:'ProductusSemibold'; font-size:7.98;">i</tspan><tspan x="13.781" y="0" style="font-family:'ProductusSemibold'; font-size:7.98;">v</tspan><tspan x="17.795" y="0" style="font-family:'ProductusSemibold'; font-size:7.98;">a</tspan><tspan x="21.753" y="0" style="font-family:'ProductusSemibold'; font-size:7.98;">t</tspan><tspan x="24.873" y="0" style="font-family:'ProductusSemibold'; font-size:7.98;">o</tspan><tspan x="29.246" y="0" style="font-family:'ProductusSemibold'; font-size:7.98;">r</tspan></text>
<polyline style="fill-rule:evenodd;clip-rule:evenodd;" points="161.5,93.09 147.34,107.25 161.5,107.25 "/>
<polyline points="161.68,93.271 147.52,107.431 147.34,107.49 146.74,107.49 161.32,92.911 "/>
<rect x="147.34" y="107.011" width="14.4" height="0.479"/>
<polyline points="161.26,107.25 161.26,93.09 161.32,92.911 161.74,92.49 161.74,107.25 "/>
<polyline style="fill-rule:evenodd;clip-rule:evenodd;" points="232.36,93.09 218.2,107.25 232.36,107.25 "/>
<polyline points="232.54,93.271 218.38,107.431 218.2,107.49 217.6,107.49 232.18,92.911 "/>
<rect x="218.2" y="107.011" width="14.399" height="0.479"/>
<polyline points="232.12,107.25 232.12,93.09 232.18,92.911 232.6,92.49 232.6,107.25 "/>
<rect x="50.5" y="9.811" width="54.3" height="26.58"/>
<rect x="50.5" y="9.57" width="54.54" height="0.48"/>
<rect x="104.56" y="9.811" width="0.48" height="26.82"/>
<rect x="50.26" y="36.15" width="54.54" height="0.48"/>
<rect x="50.26" y="9.57" width="0.48" height="26.82"/>
<rect x="48.1" y="8.07" style="fill:#FFFFFF;" width="54.36" height="26.58"/>
<rect x="48.1" y="7.831" width="54.6" height="0.48"/>
<rect x="102.22" y="8.07" width="0.48" height="26.82"/>
<rect x="47.86" y="34.411" width="54.6" height="0.48"/>
<rect x="47.86" y="7.831" width="0.48" height="26.82"/>
<text transform="matrix(1 0 0 1.0522 50.5 15.1504)"><tspan x="0" y="0" style="font-family:'ProductusOSGiBookc'; font-size:7.5841;">SAX</tspan><tspan x="11.004" y="0" style="font-family:'ProductusOSGiBookc'; font-size:7.5841;">P</tspan><tspan x="14.008" y="0" style="font-family:'ProductusOSGiBookc'; font-size:7.5841;">a</tspan><tspan x="17.117" y="0" style="font-family:'ProductusOSGiBookc'; font-size:7.5841;">rser</tspan></text>
<text transform="matrix(1 0 0 1.0522 50.5 23.6709)" style="font-family:'ProductusOSGiBookc'; font-size:7.5841;">user</text>
<rect x="227.62" y="9.811" width="54.36" height="26.58"/>
<rect x="227.62" y="9.57" width="54.6" height="0.48"/>
<rect x="281.74" y="9.811" width="0.479" height="26.82"/>
<rect x="227.38" y="36.15" width="54.601" height="0.48"/>
<rect x="227.38" y="9.57" width="0.48" height="26.82"/>
<rect x="225.28" y="8.07" style="fill:#FFFFFF;" width="54.359" height="26.58"/>
<rect x="225.28" y="7.831" width="54.6" height="0.48"/>
<rect x="279.4" y="8.07" width="0.479" height="26.82"/>
<rect x="225.04" y="34.411" width="54.6" height="0.48"/>
<rect x="225.04" y="7.831" width="0.479" height="26.82"/>
<text transform="matrix(1 0 0 1.0522 227.6201 15.1504)"><tspan x="0" y="0" style="font-family:'ProductusOSGiBookc'; font-size:7.5841;">D</tspan><tspan x="4.672" y="0" style="font-family:'ProductusOSGiBookc'; font-size:7.5841;">o</tspan><tspan x="8.214" y="0" style="font-family:'ProductusOSGiBookc'; font-size:7.5841;">c</tspan><tspan x="11.141" y="0" style="font-family:'ProductusOSGiBookc'; font-size:7.5841;">u</tspan><tspan x="14.562" y="0" style="font-family:'ProductusOSGiBookc'; font-size:7.5841;">men</tspan><tspan x="26.81" y="0" style="font-family:'ProductusOSGiBookc'; font-size:7.5841;">t</tspan></text>
<text transform="matrix(1 0 0 1.0522 227.6201 23.6709)"><tspan x="0" y="0" style="font-family:'ProductusOSGiBookc'; font-size:7.5841;">B</tspan><tspan x="3.345" y="0" style="font-family:'ProductusOSGiBookc'; font-size:7.5841;">u</tspan><tspan x="6.765" y="0" style="font-family:'ProductusOSGiBookc'; font-size:7.5841;">ilder</tspan><tspan x="18.565" y="0" style="font-family:'ProductusOSGiBookc'; font-size:7.5841;"> </tspan><tspan x="20.067" y="0" style="font-family:'ProductusOSGiBookc'; font-size:7.5841;">user</tspan></text>
<rect x="132.94" y="107.011" width="0.48" height="21.78"/>
<rect x="133.18" y="128.311" width="21.48" height="0.48"/>
<rect x="154.18" y="128.551" width="0.48" height="21.479"/>
<rect x="142.6" y="208.291" width="54.36" height="26.52"/>
<rect x="142.6" y="208.05" width="54.6" height="0.48"/>
<rect x="196.72" y="208.291" width="0.48" height="26.76"/>
<rect x="142.36" y="234.57" width="54.6" height="0.48"/>
<rect x="142.36" y="208.05" width="0.48" height="26.76"/>
<rect x="140.26" y="206.491" style="fill:#FFFFFF;" width="54.3" height="26.58"/>
<rect x="140.26" y="206.25" width="54.54" height="0.48"/>
<rect x="194.32" y="206.491" width="0.479" height="26.82"/>
<rect x="140.02" y="232.831" width="54.54" height="0.48"/>
<rect x="140.02" y="206.25" width="0.48" height="26.82"/>
<text transform="matrix(1 0 0 1.0522 142.6001 213.5703)"><tspan x="0" y="0" style="font-family:'ProductusOSGiBookc'; font-size:7.5841;">S</tspan><tspan x="3.481" y="0" style="font-family:'ProductusOSGiBookc'; font-size:7.5841;">u</tspan><tspan x="6.955" y="0" style="font-family:'ProductusOSGiBookc'; font-size:7.5841;">b</tspan><tspan x="10.436" y="0" style="font-family:'ProductusOSGiBookc'; font-size:7.5841;">c</tspan><tspan x="13.317" y="0" style="font-family:'ProductusOSGiBookc'; font-size:7.5841;">l</tspan><tspan x="14.812" y="0" style="font-family:'ProductusOSGiBookc'; font-size:7.5841;">a</tspan><tspan x="17.875" y="0" style="font-family:'ProductusOSGiBookc'; font-size:7.5841;">s</tspan><tspan x="20.575" y="0" style="font-family:'ProductusOSGiBookc'; font-size:7.5841;">s </tspan><tspan x="24.724" y="0" style="font-family:'ProductusOSGiBookc'; font-size:7.5841;">i</tspan><tspan x="26.218" y="0" style="font-family:'ProductusOSGiBookc'; font-size:7.5841;">m</tspan><tspan x="31.618" y="0" style="font-family:'ProductusOSGiBookc'; font-size:7.5841;">p</tspan><tspan x="35.098" y="0" style="font-family:'ProductusOSGiBookc'; font-size:7.5841;">l</tspan><tspan x="36.592" y="0" style="font-family:'ProductusOSGiBookc'; font-size:7.5841;">.</tspan></text>
<polyline points="303.22,118.771 299.92,118.771 300.1,118.11 302.74,108.931 303.22,107.25 303.7,108.931 306.34,118.11 
	306.52,118.771 305.86,118.771 305.38,118.411 302.74,109.23 303.7,108.931 303.7,109.23 301.06,118.411 300.1,118.11 
	300.58,117.75 303.22,117.75 "/>
<rect x="303.22" y="117.75" width="2.641" height="1.02"/>
<polyline style="fill-rule:evenodd;clip-rule:evenodd;" points="303.22,118.291 300.58,118.291 303.22,109.11 305.86,118.291 "/>
<rect x="302.98" y="118.59" width="0.479" height="88.14"/>
<rect x="7.96" y="80.67" width="54.3" height="26.58"/>
<rect x="7.96" y="80.431" width="54.54" height="0.48"/>
<rect x="62.02" y="80.67" width="0.48" height="26.82"/>
<rect x="7.72" y="107.011" width="54.54" height="0.479"/>
<rect x="7.72" y="80.431" width="0.48" height="26.82"/>
<rect x="5.62" y="78.931" style="fill:#FFFFFF;" width="54.3" height="26.58"/>
<rect x="5.62" y="78.69" width="54.54" height="0.48"/>
<rect x="59.68" y="78.931" width="0.48" height="26.82"/>
<rect x="5.38" y="105.271" width="54.54" height="0.48"/>
<rect x="5.38" y="78.69" width="0.48" height="26.82"/>
<text transform="matrix(1 0 0 1 7.96 86.0107)"><tspan x="0" y="0" style="font-family:'ProductusOSGiBookc'; font-size:7.98;">S</tspan><tspan x="3.703" y="0" style="font-family:'ProductusOSGiBookc'; font-size:7.98;">A</tspan><tspan x="7.725" y="0" style="font-family:'ProductusOSGiBookc'; font-size:7.98;">X</tspan><tspan x="11.611" y="0" style="font-family:'ProductusOSGiBookc'; font-size:7.98;">P</tspan><tspan x="14.739" y="0" style="font-family:'ProductusOSGiBookc'; font-size:7.98;">ar</tspan><tspan x="20.285" y="0" style="font-family:'ProductusOSGiBookc'; font-size:7.98;">s</tspan><tspan x="23.046" y="0" style="font-family:'ProductusOSGiBookc'; font-size:7.98;">e</tspan><tspan x="26.525" y="0" style="font-family:'ProductusOSGiBookc'; font-size:7.98;">r</tspan></text>
<rect x="277.24" y="80.67" width="54.359" height="26.58"/>
<rect x="277.24" y="80.431" width="54.6" height="0.48"/>
<rect x="331.36" y="80.67" width="0.479" height="26.82"/>
<rect x="277" y="107.011" width="54.6" height="0.479"/>
<rect x="277" y="80.431" width="0.48" height="26.82"/>
<rect x="274.9" y="78.931" style="fill:#FFFFFF;" width="54.3" height="26.58"/>
<rect x="274.9" y="78.69" width="54.54" height="0.48"/>
<rect x="328.96" y="78.931" width="0.48" height="26.82"/>
<rect x="274.66" y="105.271" width="54.54" height="0.48"/>
<rect x="274.66" y="78.69" width="0.479" height="26.82"/>
<text transform="matrix(1 0 0 1 277.2402 86.0107)"><tspan x="0" y="0" style="font-family:'ProductusOSGiBookc'; font-size:7.98;">D</tspan><tspan x="4.907" y="0" style="font-family:'ProductusOSGiBookc'; font-size:7.98;">o</tspan><tspan x="8.635" y="0" style="font-family:'ProductusOSGiBookc'; font-size:7.98;">cumen</tspan><tspan x="28.225" y="0" style="font-family:'ProductusOSGiBookc'; font-size:7.98;">t</tspan></text>
<text transform="matrix(1 0 0 1 277.2402 94.5308)"><tspan x="0" y="0" style="font-family:'ProductusOSGiBookc'; font-size:7.98;">B</tspan><tspan x="3.487" y="0" style="font-family:'ProductusOSGiBookc'; font-size:7.98;">uilde</tspan><tspan x="17.372" y="0" style="font-family:'ProductusOSGiBookc'; font-size:7.98;">r</tspan></text>
<rect x="232.12" y="92.851" width="43.02" height="0.48"/>
<rect x="62.02" y="92.851" width="43.02" height="0.48"/>
<rect x="182.5" y="128.311" width="0.48" height="21.72"/>
<rect x="182.74" y="128.311" width="21.54" height="0.48"/>
<rect x="203.8" y="107.011" width="0.48" height="21.54"/>
<rect x="277.24" y="208.291" width="54.359" height="26.52"/>
<rect x="277.24" y="208.05" width="54.6" height="0.48"/>
<rect x="331.36" y="208.291" width="0.479" height="26.76"/>
<rect x="277" y="234.57" width="54.6" height="0.48"/>
<rect x="277" y="208.05" width="0.48" height="26.76"/>
<rect x="274.9" y="206.491" style="fill:#FFFFFF;" width="54.3" height="26.58"/>
<rect x="274.9" y="206.25" width="54.54" height="0.48"/>
<rect x="328.96" y="206.491" width="0.48" height="26.82"/>
<rect x="274.66" y="232.831" width="54.54" height="0.48"/>
<rect x="274.66" y="206.25" width="0.479" height="26.82"/>
<text transform="matrix(1 0 0 1.0522 277.2402 213.5703)"><tspan x="0" y="0" style="font-family:'ProductusOSGiBookc'; font-size:7.5841;">D</tspan><tspan x="4.642" y="0" style="font-family:'ProductusOSGiBookc'; font-size:7.5841;">o</tspan><tspan x="8.236" y="0" style="font-family:'ProductusOSGiBookc'; font-size:7.5841;">c</tspan><tspan x="11.133" y="0" style="font-family:'ProductusOSGiBookc'; font-size:7.5841;">u</tspan><tspan x="14.606" y="0" style="font-family:'ProductusOSGiBookc'; font-size:7.5841;">m</tspan><tspan x="20.06" y="0" style="font-family:'ProductusOSGiBookc'; font-size:7.5841;">e</tspan><tspan x="23.358" y="0" style="font-family:'ProductusOSGiBookc'; font-size:7.5841;">n</tspan><tspan x="26.832" y="0" style="font-family:'ProductusOSGiBookc'; font-size:7.5841;">t</tspan><tspan x="28.993" y="0" style="font-family:'ProductusOSGiBookc'; font-size:7.5841;"> </tspan><tspan x="30.018" y="0" style="font-family:'ProductusOSGiBookc'; font-size:7.5841;">B</tspan><tspan x="33.369" y="0" style="font-family:'ProductusOSGiBookc'; font-size:7.5841;">u</tspan><tspan x="36.79" y="0" style="font-family:'ProductusOSGiBookc'; font-size:7.5841;">i</tspan><tspan x="38.284" y="0" style="font-family:'ProductusOSGiBookc'; font-size:7.5841;">lder</tspan><tspan x="48.567" y="0" style="font-family:'ProductusOSGiBookc'; font-size:7.5841;"> </tspan></text>
<text transform="matrix(1 0 0 1.0522 277.2402 222.0908)" style="font-family:'ProductusOSGiBookc'; font-size:7.5841;">impl.</text>
<rect x="7.96" y="208.291" width="54.3" height="26.52"/>
<rect x="7.96" y="208.05" width="54.54" height="0.48"/>
<rect x="62.02" y="208.291" width="0.48" height="26.76"/>
<rect x="7.72" y="234.57" width="54.54" height="0.48"/>
<rect x="7.72" y="208.05" width="0.48" height="26.76"/>
<rect x="5.62" y="206.491" style="fill:#FFFFFF;" width="54.3" height="26.58"/>
<rect x="5.62" y="206.25" width="54.54" height="0.48"/>
<rect x="59.68" y="206.491" width="0.48" height="26.82"/>
<rect x="5.38" y="232.831" width="54.54" height="0.48"/>
<rect x="5.38" y="206.25" width="0.48" height="26.82"/>
<text transform="matrix(1 0 0 1.0522 7.96 213.5703)"><tspan x="0" y="0" style="font-family:'ProductusOSGiBookc'; font-size:7.5841;">S</tspan><tspan x="3.534" y="0" style="font-family:'ProductusOSGiBookc'; font-size:7.5841;">A</tspan><tspan x="7.372" y="0" style="font-family:'ProductusOSGiBookc'; font-size:7.5841;">X</tspan><tspan x="11.035" y="0" style="font-family:'ProductusOSGiBookc'; font-size:7.5841;">P</tspan><tspan x="13.978" y="0" style="font-family:'ProductusOSGiBookc'; font-size:7.5841;">a</tspan><tspan x="17.094" y="0" style="font-family:'ProductusOSGiBookc'; font-size:7.5841;">r</tspan><tspan x="19.195" y="0" style="font-family:'ProductusOSGiBookc'; font-size:7.5841;">s</tspan><tspan x="21.895" y="0" style="font-family:'ProductusOSGiBookc'; font-size:7.5841;">e</tspan><tspan x="25.194" y="0" style="font-family:'ProductusOSGiBookc'; font-size:7.5841;">r</tspan><tspan x="27.295" y="0" style="font-family:'ProductusOSGiBookc'; font-size:7.5841;"> i</tspan><tspan x="30.237" y="0" style="font-family:'ProductusOSGiBookc'; font-size:7.5841;">m</tspan><tspan x="35.69" y="0" style="font-family:'ProductusOSGiBookc'; font-size:7.5841;">p</tspan><tspan x="39.171" y="0" style="font-family:'ProductusOSGiBookc'; font-size:7.5841;">l</tspan><tspan x="40.612" y="0" style="font-family:'ProductusOSGiBookc'; font-size:7.5841;">.</tspan></text>
<polyline points="33.94,118.771 30.64,118.771 30.82,118.11 33.46,108.931 33.94,107.25 34.42,108.931 37.06,118.11 37.24,118.771 
	36.58,118.771 36.1,118.411 33.46,109.23 34.42,108.931 34.42,109.23 31.78,118.411 30.82,118.11 31.3,117.75 33.94,117.75 "/>
<rect x="33.94" y="117.75" width="2.64" height="1.02"/>
<polyline style="fill-rule:evenodd;clip-rule:evenodd;" points="33.94,118.291 31.3,118.291 33.94,109.11 36.58,118.291 "/>
<rect x="33.7" y="118.59" width="0.48" height="88.14"/>
<polyline points="168.58,189.63 165.28,189.63 165.46,188.971 168.1,179.791 168.58,178.11 169.06,179.791 171.7,188.971 
	171.88,189.63 171.22,189.63 170.74,189.271 168.1,180.09 169.06,179.791 169.06,180.09 166.42,189.271 165.46,188.971 
	165.94,188.61 168.58,188.61 "/>
<rect x="168.58" y="188.61" width="2.64" height="1.02"/>
<polyline style="fill-rule:evenodd;clip-rule:evenodd;" points="168.58,189.15 165.94,189.15 168.58,179.971 171.22,189.15 "/>
<rect x="168.34" y="189.451" width="0.48" height="17.28"/>
<rect x="62.02" y="36.15" width="0.48" height="14.64"/>
<rect x="33.7" y="50.311" width="28.56" height="0.48"/>
<rect x="33.7" y="50.551" width="0.48" height="28.62"/>
<rect x="267.58" y="36.15" width="0.479" height="14.64"/>
<rect x="267.82" y="50.311" width="35.64" height="0.48"/>
<rect x="302.98" y="50.551" width="0.479" height="28.62"/>
<text transform="matrix(1 0 0 1 267.8203 56.0107)"><tspan x="0" y="0" style="font-family:'ProductusBook'; font-size:7.98;">parses</tspan><tspan x="18.506" y="0" style="font-family:'ProductusBook'; font-size:7.98;"> </tspan><tspan x="20.069" y="0" style="font-family:'ProductusBook'; font-size:7.98;">wi</tspan><tspan x="26.82" y="0" style="font-family:'ProductusBook'; font-size:7.98;">t</tspan><tspan x="29.166" y="0" style="font-family:'ProductusBook'; font-size:7.98;">h</tspan></text>
<rect x="203.8" y="50.311" width="0.48" height="28.86"/>
<rect x="204.04" y="50.311" width="35.64" height="0.48"/>
<rect x="239.2" y="36.15" width="0.479" height="14.4"/>
<rect x="90.4" y="36.15" width="0.48" height="14.64"/>
<rect x="90.64" y="50.311" width="42.78" height="0.48"/>
<rect x="132.94" y="50.551" width="0.48" height="28.62"/>
<text transform="matrix(1 0 0 1 36.52 56.0107)"><tspan x="0" y="0" style="font-family:'ProductusBook'; font-size:7.98;">p</tspan><tspan x="3.679" y="0" style="font-family:'ProductusBook'; font-size:7.98;">a</tspan><tspan x="7.038" y="0" style="font-family:'ProductusBook'; font-size:7.98;">rs</tspan><tspan x="12.089" y="0" style="font-family:'ProductusBook'; font-size:7.98;">e</tspan><tspan x="15.625" y="0" style="font-family:'ProductusBook'; font-size:7.98;">s</tspan><tspan x="18.441" y="0" style="font-family:'ProductusBook'; font-size:7.98;"> </tspan><tspan x="20.062" y="0" style="font-family:'ProductusBook'; font-size:7.98;">wi</tspan><tspan x="26.749" y="0" style="font-family:'ProductusBook'; font-size:7.98;">t</tspan><tspan x="29.143" y="0" style="font-family:'ProductusBook'; font-size:7.98;">h</tspan></text>
<rect x="196.72" y="163.71" width="0.24" height="0.48"/>
<rect x="196.96" y="163.71" width="49.8" height="0.48"/>
<text transform="matrix(1 0 0 1 111.8799 134.6704)"><tspan x="0" y="0" style="font-family:'ProductusBook'; font-size:7.98;">r</tspan><tspan x="2.282" y="0" style="font-family:'ProductusBook'; font-size:7.98;">e</tspan><tspan x="5.77" y="0" style="font-family:'ProductusBook'; font-size:7.98;">g</tspan><tspan x="9.265" y="0" style="font-family:'ProductusBook'; font-size:7.98;">i</tspan><tspan x="10.829" y="0" style="font-family:'ProductusBook'; font-size:7.98;">ste</tspan><tspan x="19.575" y="0" style="font-family:'ProductusBook'; font-size:7.98;">r</tspan><tspan x="21.801" y="0" style="font-family:'ProductusBook'; font-size:7.98;">ed</tspan><tspan x="29.031" y="0" style="font-family:'ProductusBook'; font-size:7.98;"> </tspan><tspan x="30.595" y="0" style="font-family:'ProductusBook'; font-size:7.98;">b</tspan><tspan x="34.202" y="0" style="font-family:'ProductusBook'; font-size:7.98;">y</tspan></text>
<text transform="matrix(1 0 0 1 187.7207 134.4902)"><tspan x="0" y="0" style="font-family:'ProductusBook'; font-size:7.98;">registere</tspan><tspan x="25.352" y="0" style="font-family:'ProductusBook'; font-size:7.98;">d</tspan><tspan x="29.015" y="0" style="font-family:'ProductusBook'; font-size:7.98;"> </tspan><tspan x="30.627" y="0" style="font-family:'ProductusBook'; font-size:7.98;">b</tspan><tspan x="34.233" y="0" style="font-family:'ProductusBook'; font-size:7.98;">y</tspan></text>
<text transform="matrix(1 0 0 1 237.3398 90.5698)"><tspan x="0" y="0" style="font-family:'ProductusBook'; font-size:7.98;">i</tspan><tspan x="1.564" y="0" style="font-family:'ProductusBook'; font-size:7.98;">n</tspan><tspan x="5.283" y="0" style="font-family:'ProductusBook'; font-size:7.98;">stantiat</tspan><tspan x="27.1" y="0" style="font-family:'ProductusBook'; font-size:7.98;">e</tspan><tspan x="30.635" y="0" style="font-family:'ProductusBook'; font-size:7.98;">s</tspan></text>
<text transform="matrix(1 0 0 1 69.3999 90.5698)"><tspan x="0" y="0" style="font-family:'ProductusBook'; font-size:7.98;">i</tspan><tspan x="1.564" y="0" style="font-family:'ProductusBook'; font-size:7.98;">n</tspan><tspan x="5.283" y="0" style="font-family:'ProductusBook'; font-size:7.98;">st</tspan><tspan x="10.478" y="0" style="font-family:'ProductusBook'; font-size:7.98;">a</tspan><tspan x="13.837" y="0" style="font-family:'ProductusBook'; font-size:7.98;">n</tspan><tspan x="17.5" y="0" style="font-family:'ProductusBook'; font-size:7.98;">t.</tspan><tspan x="21.474" y="0" style="font-family:'ProductusBook'; font-size:7.98;"> </tspan><tspan x="23.094" y="0" style="font-family:'ProductusBook'; font-size:7.98;">b</tspan><tspan x="26.701" y="0" style="font-family:'ProductusBook'; font-size:7.98;">y</tspan></text>
<text transform="matrix(1 0 0 1 201.8799 161.6104)"><tspan x="0" y="0" style="font-family:'ProductusBook'; font-size:7.98;">reads</tspan><tspan x="15.633" y="0" style="font-family:'ProductusBook'; font-size:7.98;"> </tspan><tspan x="17.244" y="0" style="font-family:'ProductusBook'; font-size:7.98;">bundle</tspan><tspan x="37.114" y="0" style="font-family:'ProductusBook'; font-size:7.98;"> </tspan><tspan x="38.679" y="0" style="font-family:'ProductusBook'; font-size:7.98;">ME</tspan><tspan x="47.983" y="0" style="font-family:'ProductusBook'; font-size:7.98;">T</tspan><tspan x="51.406" y="0" style="font-family:'ProductusBook'; font-size:7.98;">A</tspan><tspan x="55.492" y="0" style="font-family:'ProductusBook'; font-size:7.98;">-</tspan><tspan x="58.213" y="0" style="font-family:'ProductusBook'; font-size:7.98;">I</tspan><tspan x="59.777" y="0" style="font-family:'ProductusBook'; font-size:7.98;">N</tspan><tspan x="64.493" y="0" style="font-family:'ProductusBook'; font-size:7.98;">F</tspan></text>
<text transform="matrix(1 0 0 1 48.0996 154.5303)"><tspan x="0" y="0" style="font-family:'ProductusBook'; font-size:7.98;">P</tspan><tspan x="3.184" y="0" style="font-family:'ProductusBook'; font-size:7.98;">a</tspan><tspan x="6.488" y="0" style="font-family:'ProductusBook'; font-size:7.98;">rse</tspan><tspan x="15.122" y="0" style="font-family:'ProductusBook'; font-size:7.98;">r</tspan><tspan x="17.348" y="0" style="font-family:'ProductusBook'; font-size:7.98;"> </tspan><tspan x="18.968" y="0" style="font-family:'ProductusBook'; font-size:7.98;">Im</tspan><tspan x="26.341" y="0" style="font-family:'ProductusBook'; font-size:7.98;">p</tspan><tspan x="30.004" y="0" style="font-family:'ProductusBook'; font-size:7.98;">l</tspan><tspan x="31.568" y="0" style="font-family:'ProductusBook'; font-size:7.98;">eme</tspan><tspan x="44.376" y="0" style="font-family:'ProductusBook'; font-size:7.98;">n</tspan><tspan x="48.039" y="0" style="font-family:'ProductusBook'; font-size:7.98;">t</tspan><tspan x="50.433" y="0" style="font-family:'ProductusBook'; font-size:7.98;">a</tspan><tspan x="53.736" y="0" style="font-family:'ProductusBook'; font-size:7.98;">t</tspan><tspan x="56.13" y="0" style="font-family:'ProductusBook'; font-size:7.98;">i</tspan><tspan x="57.694" y="0" style="font-family:'ProductusBook'; font-size:7.98;">o</tspan><tspan x="61.493" y="0" style="font-family:'ProductusBook'; font-size:7.98;">n</tspan></text>
<text transform="matrix(1 0 0 1 48.0996 164.25)"><tspan x="0" y="0" style="font-family:'ProductusBook'; font-size:7.98;">B</tspan><tspan x="3.551" y="0" style="font-family:'ProductusBook'; font-size:7.98;">u</tspan><tspan x="7.27" y="0" style="font-family:'ProductusBook'; font-size:7.98;">n</tspan><tspan x="10.933" y="0" style="font-family:'ProductusBook'; font-size:7.98;">d</tspan><tspan x="14.651" y="0" style="font-family:'ProductusBook'; font-size:7.98;">l</tspan><tspan x="16.199" y="0" style="font-family:'ProductusBook'; font-size:7.98;">e</tspan></text>
<text transform="matrix(1 0 0 1 211.1201 56.0103)"><tspan x="0" y="0" style="font-family:'ProductusBook'; font-size:7.98;">g</tspan><tspan x="3.367" y="0" style="font-family:'ProductusBook'; font-size:7.98;">e</tspan><tspan x="6.854" y="0" style="font-family:'ProductusBook'; font-size:7.98;">t</tspan><tspan x="9.249" y="0" style="font-family:'ProductusBook'; font-size:7.98;">s</tspan></text>
<text transform="matrix(1 0 0 1 97.7202 56.0103)"><tspan x="0" y="0" style="font-family:'ProductusBook'; font-size:7.98;">g</tspan><tspan x="3.368" y="0" style="font-family:'ProductusBook'; font-size:7.98;">e</tspan><tspan x="6.854" y="0" style="font-family:'ProductusBook'; font-size:7.98;">t</tspan><tspan x="9.249" y="0" style="font-family:'ProductusBook'; font-size:7.98;">s</tspan></text>
<g>
	<text transform="matrix(1 0 0 1 313.3125 76.5898)" style="font-family:'ProductusBook'; font-size:7.98;">*</text>
	<text transform="matrix(1 0 0 1 311.7529 76.5898)" style="font-family:'ProductusBook'; font-size:7.98;">.</text>
	<text transform="matrix(1 0 0 1 310.1436 76.5898)" style="font-family:'ProductusBook'; font-size:7.98;">.</text>
	<text transform="matrix(1 0 0 1 306.2207 76.5898)" style="font-family:'ProductusBook'; font-size:7.98;">0</text>
	<text transform="matrix(1 0 0 1 213.2812 76.5898)" style="font-family:'ProductusBook'; font-size:7.98;">*</text>
	<text transform="matrix(1 0 0 1 211.6719 76.5898)" style="font-family:'ProductusBook'; font-size:7.98;">.</text>
	<text transform="matrix(1 0 0 1 210.0635 76.5898)" style="font-family:'ProductusBook'; font-size:7.98;">.</text>
	<text transform="matrix(1 0 0 1 206.1406 76.5898)" style="font-family:'ProductusBook'; font-size:7.98;">0</text>
</g>
<text transform="matrix(1 0 0 1 269.2607 42.3896)"><tspan x="0" y="0" style="font-family:'ProductusBook'; font-size:7.98;">0..</tspan><tspan x="7.126" y="0" style="font-family:'ProductusBook'; font-size:7.98;">*</tspan></text>
<text transform="matrix(1 0 0 1 228.8809 42.3896)"><tspan x="0" y="0" style="font-family:'ProductusBook'; font-size:7.98;">0..</tspan><tspan x="7.126" y="0" style="font-family:'ProductusBook'; font-size:7.98;">*</tspan></text>
<g>
	<text transform="matrix(1 0 0 1 143.3955 76.5898)" style="font-family:'ProductusBook'; font-size:7.98;">*</text>
	<text transform="matrix(1 0 0 1 141.7842 76.5898)" style="font-family:'ProductusBook'; font-size:7.98;">.</text>
	<text transform="matrix(1 0 0 1 140.1733 76.5898)" style="font-family:'ProductusBook'; font-size:7.98;">.</text>
	<text transform="matrix(1 0 0 1 136.2476 76.5898)" style="font-family:'ProductusBook'; font-size:7.98;">0</text>
	<text transform="matrix(1 0 0 1 43.3076 76.5898)" style="font-family:'ProductusBook'; font-size:7.98;">*</text>
	<text transform="matrix(1 0 0 1 41.6968 76.5898)" style="font-family:'ProductusBook'; font-size:7.98;">.</text>
	<text transform="matrix(1 0 0 1 40.0854 76.5898)" style="font-family:'ProductusBook'; font-size:7.98;">.</text>
	<text transform="matrix(1 0 0 1 36.1602 76.5898)" style="font-family:'ProductusBook'; font-size:7.98;">0</text>
</g>
<text transform="matrix(1 0 0 1 92.0801 42.3896)"><tspan x="0" y="0" style="font-family:'ProductusBook'; font-size:7.98;">0..</tspan><tspan x="7.126" y="0" style="font-family:'ProductusBook'; font-size:7.98;">*</tspan></text>
<text transform="matrix(1 0 0 1 50.2603 42.3896)"><tspan x="0" y="0" style="font-family:'ProductusBook'; font-size:7.98;">0</tspan><tspan x="3.942" y="0" style="font-family:'ProductusBook'; font-size:7.98;">.</tspan><tspan x="5.506" y="0" style="font-family:'ProductusBook'; font-size:7.98;">.</tspan><tspan x="7.134" y="0" style="font-family:'ProductusBook'; font-size:7.98;">*</tspan></text>
<text transform="matrix(1 0 0 1 121.9604 111.9897)"><tspan x="0" y="0" style="font-family:'ProductusBook'; font-size:7.98;">0,</tspan><tspan x="5.522" y="0" style="font-family:'ProductusBook'; font-size:7.98; letter-spacing:76;">1</tspan><tspan x="85.442" y="0" style="font-family:'ProductusBook'; font-size:7.98;">0</tspan><tspan x="89.344" y="0" style="font-family:'ProductusBook'; font-size:7.98;">,</tspan><tspan x="90.948" y="0" style="font-family:'ProductusBook'; font-size:7.98;">1</tspan></text>
<text transform="matrix(1 0 0 1 184.1807 147.4497)" style="font-family:'ProductusBook'; font-size:7.98;">0,1</text>
<text transform="matrix(1 0 0 1 143.7998 147.9302)" style="font-family:'ProductusBook'; font-size:7.98;">0,1</text>
<g>
	<text transform="matrix(1 0 0 1 267.9521 99.0903)" style="font-family:'ProductusBook'; font-size:7.98;">*</text>
	<text transform="matrix(1 0 0 1 266.3916 99.0903)" style="font-family:'ProductusBook'; font-size:7.98;">.</text>
	<text transform="matrix(1 0 0 1 264.7773 99.0903)" style="font-family:'ProductusBook'; font-size:7.98;">.</text>
	<text transform="matrix(1 0 0 1 260.8779 99.0903)" style="font-family:'ProductusBook'; font-size:7.98;">0</text>
	<text transform="matrix(1 0 0 1 100.2578 99.0903)" style="font-family:'ProductusBook'; font-size:7.98;">1</text>
	<text transform="matrix(1 0 0 1 71.0376 99.0903)" style="font-family:'ProductusBook'; font-size:7.98;">*</text>
	<text transform="matrix(1 0 0 1 69.4233 99.0903)" style="font-family:'ProductusBook'; font-size:7.98;">.</text>
	<text transform="matrix(1 0 0 1 67.8091 99.0903)" style="font-family:'ProductusBook'; font-size:7.98;">.</text>
	<text transform="matrix(1 0 0 1 63.8804 99.0903)" style="font-family:'ProductusBook'; font-size:7.98;">0</text>
</g>
<text transform="matrix(1 0 0 1 233.9209 99.0903)" style="font-family:'ProductusBook'; font-size:7.98;">1</text>
</svg>
