<?xml version="1.0" encoding="utf-8"?>
<!-- Generator: Adobe Illustrator 16.0.0, SVG Export Plug-In . SVG Version: 6.00 Build 0)  -->
<!DOCTYPE svg PUBLIC "-//W3C//DTD SVG 1.1//EN" "http://www.w3.org/Graphics/SVG/1.1/DTD/svg11.dtd">
<svg version="1.1" id="Layer_1" xmlns="http://www.w3.org/2000/svg" xmlns:xlink="http://www.w3.org/1999/xlink" x="0px" y="0px"
	 width="284.52px" height="50.64px" viewBox="0 0 284.52 50.64" style="enable-background:new 0 0 284.52 50.64;"
	 xml:space="preserve">
<polyline style="fill-rule:evenodd;clip-rule:evenodd;fill:#B2B2B2;" points="3.3,0.48 2.76,0.54 2.22,0.72 1.74,0.96 1.32,1.32 
	0.96,1.74 0.72,2.22 0.54,2.76 0.48,3.3 0.48,47.28 0.54,47.82 0.72,48.36 0.96,48.84 1.32,49.26 1.74,49.62 2.22,49.86 2.76,50.04 
	3.3,50.1 61.44,50.1 61.98,50.04 62.52,49.86 63,49.62 63.42,49.26 63.78,48.84 64.02,48.36 64.2,47.82 64.26,47.28 64.26,3.3 
	64.2,2.76 64.02,2.22 63.78,1.74 63.42,1.32 63,0.96 62.52,0.72 61.98,0.54 61.44,0.48 3.3,0.48 "/>
<polyline style="fill:#8080FF;" points="3.36,0.72 2.82,0.78 2.88,0.78 2.34,0.96 1.86,1.2 1.92,1.14 1.5,1.5 1.14,1.92 1.2,1.86 
	0.96,2.34 0.78,2.88 0.78,2.82 0.72,3.36 0.72,3.3 0.72,47.28 0.78,47.82 0.78,47.76 0.96,48.3 0.96,48.24 1.2,48.72 1.14,48.72 
	1.5,49.14 1.5,49.08 1.92,49.44 1.86,49.44 2.34,49.68 2.34,49.62 2.88,49.8 2.82,49.8 3.36,49.86 3.3,49.86 61.44,49.86 
	61.98,49.8 61.92,49.8 62.46,49.62 62.4,49.68 62.88,49.44 63.3,49.08 63.24,49.14 63.6,48.72 63.84,48.24 63.78,48.3 63.96,47.76 
	63.96,47.82 64.02,47.28 64.02,3.3 64.02,3.36 63.96,2.82 63.96,2.88 63.78,2.34 63.84,2.34 63.6,1.86 63.6,1.92 63.24,1.5 
	63.3,1.5 62.88,1.14 62.88,1.2 62.4,0.96 62.46,0.96 61.92,0.78 61.98,0.78 61.44,0.72 3.3,0.72 3.3,0.24 61.5,0.24 62.04,0.3 
	62.1,0.3 62.64,0.48 62.64,0.54 63.12,0.78 63.18,0.78 63.6,1.14 63.6,1.2 63.96,1.62 64.02,1.62 64.26,2.1 64.26,2.16 64.44,2.7 
	64.44,2.76 64.5,3.3 64.5,47.34 64.44,47.88 64.44,47.94 64.26,48.48 64.02,48.96 63.96,49.021 63.6,49.44 63.18,49.8 63.12,49.86 
	62.64,50.1 62.1,50.28 62.04,50.28 61.5,50.34 3.3,50.34 2.76,50.28 2.7,50.28 2.16,50.1 2.1,50.1 1.62,49.86 1.62,49.8 1.2,49.44 
	1.14,49.44 0.78,49.021 0.78,48.96 0.54,48.48 0.48,48.48 0.3,47.94 0.3,47.88 0.24,47.34 0.24,3.3 0.3,2.76 0.3,2.7 0.48,2.16 
	0.54,2.1 0.78,1.62 1.14,1.2 1.2,1.14 1.62,0.78 2.1,0.54 2.16,0.48 2.7,0.3 2.76,0.3 3.3,0.24 "/>
<polyline style="fill:#8080FF;" points="3.3,0.72 3.36,0.72 3.3,0.24 "/>
<text transform="matrix(1 0 0 1 25.4399 26.7603)"><tspan x="0" y="0" style="font-family:'ProductusSemibold'; font-size:7.98;">R</tspan><tspan x="4.317" y="0" style="font-family:'ProductusSemibold'; font-size:7.98;">oo</tspan><tspan x="12.951" y="0" style="font-family:'ProductusSemibold'; font-size:7.98;">t</tspan></text>
<polyline points="3.36,1.14 2.82,1.2 2.94,1.14 2.4,1.32 2.46,1.32 1.98,1.561 2.04,1.5 1.8,1.68 1.86,1.62 1.5,1.98 1.56,1.92 
	1.38,2.16 1.44,2.1 1.2,2.58 1.2,2.521 1.02,3.061 1.08,2.94 1.02,3.48 1.02,3.42 1.02,47.28 1.02,47.22 1.08,47.76 1.02,47.7 
	1.2,48.24 1.2,48.12 1.44,48.6 1.38,48.54 1.56,48.78 1.5,48.72 1.86,49.08 1.8,49.021 2.04,49.2 1.98,49.2 2.46,49.44 2.4,49.38 
	2.94,49.561 2.82,49.561 3.36,49.62 3.3,49.62 61.44,49.62 61.38,49.62 61.92,49.561 61.86,49.561 62.4,49.38 62.28,49.44 
	62.76,49.2 62.7,49.2 62.94,49.021 62.88,49.08 63.24,48.72 63.18,48.78 63.36,48.54 63.36,48.6 63.6,48.12 63.54,48.24 63.72,47.7 
	63.72,47.76 63.78,47.22 63.78,47.28 63.78,25.32 64.8,25.32 64.8,47.34 64.74,47.88 64.68,48 64.5,48.54 64.5,48.6 64.26,49.08 
	64.2,49.14 64.02,49.38 63.54,49.86 63.3,50.04 63.24,50.1 63,50.22 62.76,50.34 62.7,50.34 62.16,50.521 62.04,50.58 61.5,50.64 
	3.24,50.64 2.7,50.58 2.64,50.521 2.1,50.34 1.98,50.34 1.74,50.22 1.5,50.1 1.44,50.04 1.2,49.86 0.72,49.38 0.54,49.14 
	0.54,49.08 0.3,48.6 0.24,48.54 0.06,48 0.06,47.88 0,47.34 0,3.36 0.06,2.82 0.06,2.76 0.24,2.22 0.54,1.62 0.54,1.561 0.72,1.32 
	1.2,0.84 1.44,0.66 1.5,0.66 1.74,0.54 1.98,0.42 2.1,0.36 2.64,0.18 2.7,0.18 3.24,0.12 "/>
<polyline points="63.78,25.32 63.78,3.42 63.78,3.48 63.72,2.94 63.72,3.061 63.54,2.521 63.6,2.58 63.36,2.1 63.36,2.16 
	63.18,1.92 63.24,1.98 62.88,1.62 62.94,1.68 62.7,1.5 62.76,1.561 62.28,1.32 62.4,1.32 61.86,1.14 61.92,1.2 61.38,1.14 
	61.44,1.14 3.3,1.14 3.36,1.14 3.24,0.12 61.5,0.12 62.04,0.18 62.16,0.18 62.7,0.36 62.76,0.42 63,0.54 63.24,0.66 63.3,0.66 
	63.54,0.84 64.02,1.32 64.2,1.561 64.26,1.62 64.5,2.1 64.5,2.22 64.68,2.76 64.74,2.82 64.8,3.36 64.8,25.32 "/>
<polyline style="fill-rule:evenodd;clip-rule:evenodd;fill:#B2B2B2;" points="223.02,0.48 222.419,0.54 221.88,0.72 221.4,0.96 
	220.98,1.32 220.68,1.74 220.38,2.22 220.26,2.76 220.2,3.3 220.2,25.98 220.26,26.58 220.38,27.12 220.68,27.6 220.98,28.021 
	221.4,28.32 221.88,28.62 222.419,28.8 223.02,28.86 281.1,28.86 281.7,28.8 282.24,28.62 282.72,28.32 283.14,28.021 283.5,27.6 
	283.74,27.12 283.919,26.58 283.98,25.98 283.98,3.3 283.919,2.76 283.74,2.22 283.5,1.74 283.14,1.32 282.72,0.96 282.24,0.72 
	281.7,0.54 281.1,0.48 223.02,0.48 "/>
<polyline style="fill:#8080FF;" points="223.08,0.72 222.48,0.78 222.54,0.78 222,0.96 221.52,1.2 221.58,1.14 221.16,1.5 
	221.22,1.5 220.919,1.92 220.919,1.86 220.62,2.34 220.62,2.28 220.5,2.82 220.44,3.36 220.44,3.3 220.44,25.98 220.5,26.58 
	220.5,26.521 220.62,27.061 220.62,27 220.919,27.48 221.22,27.9 221.16,27.84 221.58,28.14 221.52,28.14 222,28.44 222,28.38 
	222.54,28.561 222.48,28.561 223.08,28.62 223.02,28.62 281.1,28.62 281.7,28.561 281.64,28.561 282.18,28.38 282.12,28.44 
	282.6,28.14 283.02,27.84 282.959,27.9 283.32,27.48 283.56,27 283.5,27.061 283.68,26.521 283.68,26.58 283.74,25.98 283.74,3.3 
	283.74,3.36 283.68,2.82 283.68,2.88 283.5,2.34 283.56,2.34 283.32,1.86 283.32,1.92 282.959,1.5 283.02,1.5 282.6,1.14 282.6,1.2 
	282.12,0.96 282.18,0.96 281.64,0.78 281.7,0.78 281.1,0.72 223.02,0.72 223.02,0.24 281.16,0.24 281.76,0.3 281.82,0.3 
	282.36,0.48 282.36,0.54 282.84,0.78 282.9,0.78 283.32,1.14 283.32,1.2 283.68,1.62 283.74,1.62 283.98,2.1 283.98,2.16 
	284.16,2.7 284.16,2.76 284.22,3.3 284.22,26.04 284.16,26.64 284.16,26.7 283.98,27.24 283.74,27.72 283.68,27.78 283.32,28.2 
	283.32,28.26 282.9,28.561 282.84,28.561 282.36,28.86 281.82,29.04 281.76,29.04 281.16,29.1 223.02,29.1 222.419,29.04 
	222.36,29.04 221.82,28.86 221.76,28.86 221.28,28.561 220.86,28.26 220.8,28.2 220.5,27.78 220.5,27.72 220.2,27.24 220.14,27.18 
	220.02,26.64 219.959,26.04 219.959,3.3 220.02,2.76 220.02,2.7 220.14,2.16 220.2,2.1 220.5,1.62 220.8,1.2 220.86,1.14 
	221.28,0.78 221.76,0.54 221.82,0.48 222.36,0.3 222.419,0.3 223.02,0.24 "/>
<polyline style="fill:#8080FF;" points="223.02,0.72 223.08,0.72 223.02,0.24 "/>
<text transform="matrix(1 0 0 1 248.3403 16.0801)"><tspan x="0" y="0" style="font-family:'ProductusSemibold'; font-size:7.98;">S</tspan><tspan x="4.253" y="0" style="font-family:'ProductusSemibold'; font-size:7.98;">2</tspan></text>
<polyline points="223.08,1.14 222.48,1.2 222.6,1.14 222.06,1.32 222.12,1.32 221.64,1.561 221.76,1.44 221.58,1.62 221.52,1.68 
	221.28,1.86 221.34,1.8 221.16,1.98 221.28,1.86 221.16,2.1 221.1,2.16 220.919,2.4 220.98,2.34 220.86,2.58 220.919,2.46 220.8,3 
	220.8,2.94 220.74,3.48 220.74,3.42 220.74,25.98 220.74,25.92 220.8,26.521 220.8,26.46 220.919,27 220.86,26.88 220.98,27.12 
	220.919,27.061 221.1,27.3 221.1,27.36 221.22,27.54 221.22,27.48 221.4,27.72 221.28,27.6 221.52,27.78 221.7,27.9 221.94,28.08 
	221.88,28.08 222.12,28.2 222.06,28.14 222.6,28.32 222.48,28.32 223.08,28.38 223.02,28.38 281.1,28.38 281.04,28.38 281.64,28.32 
	281.58,28.32 282.12,28.14 282,28.2 282.24,28.08 282.18,28.08 282.419,27.9 282.48,27.9 282.66,27.78 282.6,27.78 282.84,27.6 
	282.72,27.72 282.9,27.48 282.959,27.42 283.14,27.24 283.08,27.36 283.32,26.88 283.26,27 283.44,26.46 283.44,26.521 283.5,25.92 
	283.5,25.98 283.5,14.7 284.52,14.7 284.52,26.04 284.459,26.64 284.4,26.76 284.22,27.3 284.22,27.36 283.98,27.84 283.68,28.14 
	283.74,28.08 283.56,28.32 283.44,28.44 283.2,28.62 283.02,28.74 282.78,28.92 282.72,28.98 282.48,29.1 282.419,29.1 
	281.88,29.28 281.76,29.34 281.16,29.4 222.959,29.4 222.36,29.34 222.3,29.28 221.76,29.1 221.64,29.1 221.4,28.98 221.34,28.92 
	221.1,28.74 221.16,28.74 220.98,28.62 220.919,28.62 220.68,28.44 220.56,28.32 220.38,28.08 220.26,27.9 220.08,27.66 
	220.08,27.6 219.9,27.24 219.78,26.7 219.78,26.64 219.72,26.04 219.72,3.36 219.78,2.82 219.78,2.76 219.9,2.22 220.08,1.86 
	220.08,1.8 220.26,1.561 220.26,1.62 220.44,1.26 220.68,1.021 220.919,0.84 220.86,0.9 221.04,0.72 221.16,0.66 221.4,0.54 
	221.64,0.42 221.76,0.36 222.3,0.18 222.36,0.18 222.959,0.12 "/>
<polyline points="283.5,14.7 283.5,3.42 283.5,3.48 283.44,2.94 283.44,3.061 283.26,2.521 283.32,2.58 283.08,2.1 283.08,2.16 
	282.9,1.92 282.959,1.98 282.78,1.8 282.84,1.86 282.6,1.68 282.36,1.44 282.48,1.561 282,1.32 282.12,1.32 281.58,1.14 281.64,1.2 
	281.04,1.14 281.1,1.14 223.02,1.14 223.08,1.14 222.959,0.12 281.16,0.12 281.76,0.18 281.88,0.18 282.419,0.36 282.48,0.42 
	282.72,0.54 282.959,0.66 283.08,0.72 283.26,0.9 283.2,0.84 283.44,1.021 283.74,1.32 283.919,1.561 283.98,1.62 284.22,2.1 
	284.22,2.22 284.4,2.76 284.459,2.82 284.52,3.36 284.52,14.7 "/>
<rect x="214.98" y="14.4" width="4.68" height="0.48"/>
<polyline points="215.34,11.94 215.1,12.36 219.54,14.88 219.78,14.88 220.2,14.64 219.78,14.46 "/>
<polyline points="219.78,14.88 219.54,14.46 215.1,17.04 215.34,17.46 "/>
<rect x="156.419" y="14.4" width="0.961" height="0.48"/>
<rect x="161.28" y="14.4" width="1.98" height="0.48"/>
<rect x="167.16" y="14.4" width="1.92" height="0.48"/>
<rect x="172.98" y="14.4" width="1.979" height="0.48"/>
<rect x="178.86" y="14.4" width="1.92" height="0.48"/>
<rect x="184.68" y="14.4" width="1.979" height="0.48"/>
<rect x="190.56" y="14.4" width="1.979" height="0.48"/>
<rect x="196.44" y="14.4" width="1.92" height="0.48"/>
<rect x="202.26" y="14.4" width="1.979" height="0.48"/>
<rect x="208.14" y="14.4" width="1.92" height="0.48"/>
<rect x="213.959" y="14.4" width="1.021" height="0.48"/>
<polyline style="fill-rule:evenodd;clip-rule:evenodd;fill:#FFFFFF;" points="130.86,0.48 130.32,0.54 129.78,0.72 129.3,0.96 
	128.88,1.32 128.52,1.74 128.28,2.22 128.1,2.76 128.04,3.3 128.04,25.98 128.1,26.58 128.28,27.12 128.52,27.6 128.88,28.021 
	129.3,28.32 129.78,28.62 130.32,28.8 130.86,28.86 153.54,28.86 154.14,28.8 154.68,28.62 155.16,28.32 155.58,28.021 155.88,27.6 
	156.18,27.12 156.36,26.58 156.419,25.98 156.419,3.3 156.36,2.76 156.18,2.22 155.88,1.74 155.58,1.32 155.16,0.96 154.68,0.72 
	154.14,0.54 153.54,0.48 130.86,0.48 "/>
<polyline style="fill:#8080FF;" points="130.919,0.72 130.38,0.78 130.44,0.78 129.9,0.96 129.419,1.2 129.48,1.14 129.06,1.5 
	128.7,1.92 128.76,1.86 128.52,2.34 128.34,2.88 128.34,2.82 128.28,3.36 128.28,3.3 128.28,25.98 128.34,26.58 128.34,26.521 
	128.52,27.061 128.52,27 128.76,27.48 128.7,27.48 129.06,27.9 129.06,27.84 129.48,28.14 129.419,28.14 129.9,28.44 129.9,28.38 
	130.44,28.561 130.38,28.561 130.919,28.62 130.86,28.62 153.54,28.62 154.14,28.561 154.08,28.561 154.62,28.38 154.56,28.44 
	155.04,28.14 155.459,27.84 155.4,27.9 155.7,27.48 156,27 155.94,27.061 156.12,26.521 156.12,26.58 156.18,25.98 156.18,3.3 
	156.18,3.36 156.12,2.82 156.12,2.88 155.94,2.34 156,2.34 155.7,1.86 155.7,1.92 155.4,1.5 155.459,1.5 155.04,1.14 155.04,1.2 
	154.56,0.96 154.62,0.96 154.08,0.78 154.14,0.78 153.54,0.72 130.86,0.72 130.86,0.24 153.6,0.24 154.2,0.3 154.26,0.3 154.8,0.48 
	154.8,0.54 155.28,0.78 155.34,0.78 155.76,1.14 155.82,1.2 156.12,1.62 156.419,2.1 156.419,2.16 156.6,2.7 156.6,2.76 156.66,3.3 
	156.66,26.04 156.6,26.64 156.6,26.7 156.419,27.24 156.12,27.72 156.12,27.78 155.82,28.2 155.76,28.26 155.34,28.561 
	155.28,28.561 154.8,28.86 154.26,29.04 154.2,29.04 153.6,29.1 130.86,29.1 130.32,29.04 130.26,29.04 129.72,28.86 129.66,28.86 
	129.18,28.561 128.76,28.26 128.7,28.2 128.34,27.78 128.34,27.72 128.1,27.24 128.04,27.24 127.86,26.7 127.86,26.64 127.8,26.04 
	127.8,3.3 127.86,2.76 127.86,2.7 128.04,2.16 128.1,2.1 128.34,1.62 128.7,1.2 128.76,1.14 129.18,0.78 129.66,0.54 129.72,0.48 
	130.26,0.3 130.32,0.3 130.86,0.24 "/>
<polyline style="fill:#8080FF;" points="130.86,0.72 130.919,0.72 130.86,0.24 "/>
<polyline style="fill-rule:evenodd;clip-rule:evenodd;fill:#B2B2B2;" points="130.89,0.69 130.35,0.75 129.81,0.93 129.331,1.17 
	128.911,1.53 128.55,1.95 128.31,2.43 128.13,2.97 128.07,3.51 128.07,26.19 128.13,26.79 128.31,27.33 128.55,27.81 128.911,28.23 
	129.331,28.53 129.81,28.83 130.35,29.01 130.89,29.07 153.57,29.07 154.17,29.01 154.71,28.83 155.19,28.53 155.61,28.23 
	155.911,27.81 156.21,27.33 156.39,26.79 156.45,26.19 156.45,3.51 156.39,2.97 156.21,2.43 155.911,1.95 155.61,1.53 155.19,1.17 
	154.71,0.93 154.17,0.75 153.57,0.69 130.89,0.69 "/>
<polyline style="fill:#8080FF;" points="130.919,0.72 130.38,0.78 130.44,0.78 129.9,0.96 129.419,1.2 129.48,1.14 129.06,1.5 
	128.7,1.92 128.76,1.86 128.52,2.34 128.34,2.88 128.34,2.82 128.28,3.36 128.28,3.3 128.28,25.98 128.34,26.58 128.34,26.521 
	128.52,27.061 128.52,27 128.76,27.48 128.7,27.48 129.06,27.9 129.06,27.84 129.48,28.14 129.419,28.14 129.9,28.44 129.9,28.38 
	130.44,28.561 130.38,28.561 130.919,28.62 130.86,28.62 153.54,28.62 154.14,28.561 154.08,28.561 154.62,28.38 154.56,28.44 
	155.04,28.14 155.459,27.84 155.4,27.9 155.7,27.48 156,27 155.94,27.061 156.12,26.521 156.12,26.58 156.18,25.98 156.18,3.3 
	156.18,3.36 156.12,2.82 156.12,2.88 155.94,2.34 156,2.34 155.7,1.86 155.7,1.92 155.4,1.5 155.459,1.5 155.04,1.14 155.04,1.2 
	154.56,0.96 154.62,0.96 154.08,0.78 154.14,0.78 153.54,0.72 130.86,0.72 130.86,0.24 153.6,0.24 154.2,0.3 154.26,0.3 154.8,0.48 
	154.8,0.54 155.28,0.78 155.34,0.78 155.76,1.14 155.82,1.2 156.12,1.62 156.419,2.1 156.419,2.16 156.6,2.7 156.6,2.76 156.66,3.3 
	156.66,26.04 156.6,26.64 156.6,26.7 156.419,27.24 156.12,27.72 156.12,27.78 155.82,28.2 155.76,28.26 155.34,28.561 
	155.28,28.561 154.8,28.86 154.26,29.04 154.2,29.04 153.6,29.1 130.86,29.1 130.32,29.04 130.26,29.04 129.72,28.86 129.66,28.86 
	129.18,28.561 128.76,28.26 128.7,28.2 128.34,27.78 128.34,27.72 128.1,27.24 128.04,27.24 127.86,26.7 127.86,26.64 127.8,26.04 
	127.8,3.3 127.86,2.76 127.86,2.7 128.04,2.16 128.1,2.1 128.34,1.62 128.7,1.2 128.76,1.14 129.18,0.78 129.66,0.54 129.72,0.48 
	130.26,0.3 130.32,0.3 130.86,0.24 "/>
<polyline style="fill:#8080FF;" points="130.86,0.72 130.919,0.72 130.86,0.24 "/>
<text transform="matrix(1 0 0 1 138.2397 16.3203)"><tspan x="0" y="0" style="font-family:'ProductusSemibold'; font-size:7.98;">S</tspan><tspan x="4.253" y="0" style="font-family:'ProductusSemibold'; font-size:7.98;">1</tspan></text>
<polyline points="130.919,1.021 130.38,1.08 130.5,1.021 129.959,1.2 130.02,1.2 129.54,1.44 129.6,1.38 129.36,1.561 129.419,1.5 
	129.06,1.86 129.12,1.8 128.94,2.04 129,1.98 128.76,2.46 128.76,2.4 128.58,2.94 128.64,2.82 128.58,3.36 128.58,3.3 128.58,25.98 
	128.58,25.92 128.64,26.521 128.58,26.46 128.76,27 128.76,26.88 129,27.36 128.88,27.24 129.06,27.42 129.12,27.48 129.3,27.72 
	129.24,27.66 129.419,27.84 129.3,27.78 129.54,27.9 129.6,27.9 129.84,28.08 129.78,28.08 130.02,28.2 129.959,28.14 130.5,28.32 
	130.38,28.32 130.919,28.38 130.86,28.38 153.54,28.38 153.48,28.38 154.08,28.32 154.02,28.32 154.56,28.14 154.44,28.2 
	154.68,28.08 154.62,28.08 154.86,27.9 154.919,27.9 155.1,27.78 155.04,27.78 155.28,27.6 155.16,27.72 155.34,27.48 155.34,27.54 
	155.459,27.36 155.459,27.3 155.64,27.061 155.64,27.12 155.76,26.88 155.7,27 155.88,26.46 155.88,26.521 155.94,25.92 
	155.94,25.98 155.94,14.64 156.959,14.64 156.959,26.04 156.9,26.64 156.84,26.76 156.66,27.3 156.66,27.36 156.54,27.6 
	156.48,27.66 156.3,27.9 156.18,28.08 156,28.32 155.88,28.44 155.64,28.62 155.459,28.74 155.22,28.92 155.16,28.98 154.919,29.1 
	154.86,29.1 154.32,29.28 154.2,29.34 153.6,29.4 130.8,29.4 130.26,29.34 130.2,29.28 129.66,29.1 129.54,29.1 129.3,28.98 
	129.24,28.92 129,28.74 129.06,28.8 128.82,28.68 128.459,28.32 128.28,28.08 128.34,28.14 128.16,27.96 127.86,27.36 127.8,27.3 
	127.62,26.76 127.62,26.64 127.56,26.04 127.56,3.24 127.62,2.7 127.62,2.64 127.8,2.1 128.1,1.5 128.1,1.44 128.28,1.2 128.7,0.78 
	128.76,0.72 129,0.54 129.06,0.54 129.3,0.42 129.66,0.24 130.2,0.061 130.26,0.061 130.8,0 "/>
<polyline points="155.94,14.64 155.94,3.3 155.94,3.36 155.88,2.82 155.88,2.94 155.7,2.4 155.76,2.46 155.64,2.22 155.64,2.28 
	155.459,2.04 155.459,1.98 155.34,1.74 155.4,1.86 155.22,1.68 155.28,1.74 155.04,1.561 154.98,1.5 154.8,1.32 154.919,1.44 
	154.44,1.2 154.56,1.2 154.02,1.021 154.08,1.08 153.48,1.021 153.54,1.021 130.86,1.021 130.919,1.021 130.8,0 153.6,0 
	154.2,0.061 154.32,0.061 154.86,0.24 154.919,0.3 155.16,0.42 155.4,0.54 155.52,0.6 155.7,0.78 155.64,0.72 155.88,0.9 
	156.24,1.26 156.36,1.5 156.3,1.44 156.48,1.68 156.54,1.74 156.66,1.98 156.66,2.1 156.84,2.64 156.9,2.7 156.959,3.24 
	156.959,14.64 "/>
<rect x="122.82" y="14.4" width="4.74" height="0.48"/>
<polyline points="123.24,11.94 123,12.36 127.44,14.88 127.68,14.88 128.1,14.64 127.68,14.46 "/>
<polyline points="127.68,14.88 127.44,14.46 123,17.04 123.24,17.46 "/>
<rect x="64.26" y="14.4" width="1.02" height="0.48"/>
<rect x="69.18" y="14.4" width="1.92" height="0.48"/>
<rect x="75" y="14.4" width="1.98" height="0.48"/>
<rect x="80.88" y="14.4" width="1.92" height="0.48"/>
<rect x="86.7" y="14.4" width="1.98" height="0.48"/>
<rect x="92.58" y="14.4" width="1.92" height="0.48"/>
<rect x="98.46" y="14.4" width="1.92" height="0.48"/>
<rect x="104.28" y="14.4" width="1.98" height="0.48"/>
<rect x="110.16" y="14.4" width="1.92" height="0.48"/>
<rect x="115.98" y="14.4" width="1.98" height="0.48"/>
<rect x="121.86" y="14.4" width="0.96" height="0.48"/>
<rect x="227.28" y="7.561" style="fill:#808080;" width="14.16" height="14.16"/>
<text transform="matrix(1 0 0 1 232.1401 17.04)" style="fill:#FFFFFF; font-family:'ProductusOSGiMonoc'; font-size:7.98;">A</text>
<text transform="matrix(1 0 0 1 232.1401 17.04)" style="fill:none;stroke:#FFFFFF;stroke-width:0.12;stroke-miterlimit:10; font-family:'ProductusOSGiMonoc'; font-size:7.98;">A</text>
<rect x="262.68" y="7.561" style="fill:#808080;" width="14.16" height="14.16"/>
<text transform="matrix(1 0 0 1 267.6001 17.04)" style="fill:#FFFFFF; font-family:'ProductusOSGiMonoc'; font-size:7.98;">B</text>
<text transform="matrix(1 0 0 1 267.6001 17.04)" style="fill:none;stroke:#FFFFFF;stroke-width:0.12;stroke-miterlimit:10; font-family:'ProductusOSGiMonoc'; font-size:7.98;">B</text>
<rect x="7.56" y="28.86" style="fill:#808080;" width="14.16" height="14.16"/>
<text transform="matrix(1 0 0 1 12.48 38.3403)" style="fill:#FFFFFF; font-family:'ProductusOSGiMonoc'; font-size:7.98;">C</text>
<text transform="matrix(1 0 0 1 12.48 38.3403)" style="fill:none;stroke:#FFFFFF;stroke-width:0.12;stroke-miterlimit:10; font-family:'ProductusOSGiMonoc'; font-size:7.98;">C</text>
<rect x="43.02" y="28.86" style="fill:#808080;" width="14.16" height="14.16"/>
<text transform="matrix(1 0 0 1 47.8799 38.3403)" style="fill:#FFFFFF; font-family:'ProductusOSGiMonoc'; font-size:7.98;">D</text>
<text transform="matrix(1 0 0 1 47.8799 38.3403)" style="fill:none;stroke:#FFFFFF;stroke-width:0.12;stroke-miterlimit:10; font-family:'ProductusOSGiMonoc'; font-size:7.98;">D</text>
<rect x="7.56" y="7.561" style="fill:#808080;" width="14.16" height="14.16"/>
<text transform="matrix(1 0 0 1 12.48 17.04)" style="fill:#FFFFFF; font-family:'ProductusOSGiMonoc'; font-size:7.98;">0</text>
<text transform="matrix(1 0 0 1 12.48 17.04)" style="fill:none;stroke:#FFFFFF;stroke-width:0.12;stroke-miterlimit:10; font-family:'ProductusOSGiMonoc'; font-size:7.98;">0</text>
<rect x="43.02" y="7.561" style="fill:#808080;" width="14.16" height="14.16"/>
<text transform="matrix(1 0 0 1 45.6597 17.04)" style="fill:#FFFFFF; font-family:'ProductusOSGiMonoc'; font-size:7.98;">S</text>
<text transform="matrix(1 0 0 1 45.6597 17.04)" style="fill:none;stroke:#FFFFFF;stroke-width:0.12;stroke-miterlimit:10; font-family:'ProductusOSGiMonoc'; font-size:7.98;">S</text>
<text transform="matrix(1 0 0 1 50.04 17.04)" style="fill:#FFFFFF; font-family:'ProductusOSGiMonoc'; font-size:7.98;">I</text>
<text transform="matrix(1 0 0 1 50.04 17.04)" style="fill:none;stroke:#FFFFFF;stroke-width:0.12;stroke-miterlimit:10; font-family:'ProductusOSGiMonoc'; font-size:7.98;">I</text>
</svg>
