<?xml version="1.0" encoding="utf-8"?>
<!-- Generator: Adobe Illustrator 16.0.0, SVG Export Plug-In . SVG Version: 6.00 Build 0)  -->
<!DOCTYPE svg PUBLIC "-//W3C//DTD SVG 1.1//EN" "http://www.w3.org/Graphics/SVG/1.1/DTD/svg11.dtd">
<svg version="1.1" id="Layer_1" xmlns="http://www.w3.org/2000/svg" xmlns:xlink="http://www.w3.org/1999/xlink" x="0px" y="0px"
	 width="412.02px" height="156.9px" viewBox="0 0 412.02 156.9" style="enable-background:new 0 0 412.02 156.9;"
	 xml:space="preserve">
<polyline style="fill-rule:evenodd;clip-rule:evenodd;fill:#B2B2B2;" points="265.5,78.42 264.96,78.479 264.42,78.66 263.939,78.9 
	263.52,79.26 263.16,79.68 262.92,80.16 262.74,80.7 262.68,81.24 262.68,153.54 262.74,154.08 262.92,154.62 263.16,155.1 
	263.52,155.52 263.939,155.88 264.42,156.18 264.96,156.3 265.5,156.36 288.18,156.36 288.78,156.3 289.32,156.18 289.8,155.88 
	290.22,155.52 290.52,155.1 290.82,154.62 290.939,154.08 291,153.54 291,81.24 290.939,80.7 290.82,80.16 290.52,79.68 
	290.22,79.26 289.8,78.9 289.32,78.66 288.78,78.479 288.18,78.42 265.5,78.42 "/>
<polyline style="fill:#8080FF;" points="265.56,78.66 265.02,78.72 265.08,78.72 264.54,78.9 264.06,79.14 264.12,79.08 
	263.7,79.44 263.34,79.86 263.399,79.8 263.16,80.28 262.979,80.82 262.979,80.76 262.92,81.3 262.92,81.24 262.92,153.54 
	262.979,154.08 262.979,154.02 263.16,154.56 263.16,154.5 263.399,154.979 263.34,154.979 263.7,155.4 263.7,155.34 264.12,155.7 
	264.06,155.7 264.54,156 264.479,155.94 265.02,156.06 265.56,156.12 265.5,156.12 288.18,156.12 288.78,156.06 288.72,156.06 
	289.26,155.94 289.2,156 289.68,155.7 290.1,155.34 290.04,155.4 290.34,154.979 290.64,154.5 290.58,154.56 290.7,154.02 
	290.7,154.08 290.76,153.54 290.76,81.24 290.76,81.3 290.7,80.76 290.58,80.22 290.64,80.28 290.34,79.8 290.34,79.86 
	290.04,79.44 290.1,79.44 289.68,79.08 289.68,79.14 289.2,78.9 289.26,78.9 288.72,78.72 288.78,78.72 288.18,78.66 265.5,78.66 
	265.5,78.18 288.24,78.18 288.84,78.24 288.899,78.24 289.439,78.42 289.439,78.479 289.92,78.72 289.979,78.72 290.399,79.08 
	290.46,79.14 290.76,79.56 291.06,80.04 291.06,80.1 291.18,80.64 291.18,80.7 291.24,81.24 291.24,153.6 291.18,154.14 
	291.06,154.68 291.06,154.74 290.76,155.22 290.76,155.28 290.46,155.7 290.399,155.7 289.979,156.06 289.92,156.12 289.439,156.42 
	289.38,156.42 288.84,156.54 288.24,156.6 265.5,156.6 264.96,156.54 264.899,156.54 264.359,156.42 264.3,156.42 263.82,156.12 
	263.82,156.06 263.399,155.7 263.34,155.7 262.979,155.28 262.979,155.22 262.74,154.74 262.68,154.74 262.5,154.2 262.5,154.14 
	262.439,153.6 262.439,81.24 262.5,80.7 262.5,80.64 262.68,80.1 262.74,80.04 262.979,79.56 263.34,79.14 263.399,79.08 
	263.82,78.72 264.3,78.479 264.359,78.42 264.899,78.24 264.96,78.24 265.5,78.18 "/>
<polyline style="fill:#8080FF;" points="265.5,78.66 265.56,78.66 265.5,78.18 "/>
<polyline style="fill-rule:evenodd;clip-rule:evenodd;fill:#B2B2B2;" points="116.7,35.88 116.1,35.94 115.56,36.12 115.08,36.36 
	114.66,36.72 114.36,37.14 114.06,37.62 113.94,38.16 113.88,38.76 113.88,61.38 113.94,61.979 114.06,62.52 114.36,63 
	114.66,63.42 115.08,63.78 115.56,64.02 116.1,64.2 116.7,64.26 288.18,64.26 288.78,64.2 289.32,64.02 289.8,63.78 290.22,63.42 
	290.52,63 290.82,62.52 290.939,61.979 291,61.38 291,38.76 290.939,38.16 290.82,37.62 290.52,37.14 290.22,36.72 289.8,36.36 
	289.32,36.12 288.78,35.94 288.18,35.88 116.7,35.88 "/>
<polyline style="fill:#8080FF;" points="116.76,36.12 116.16,36.18 116.22,36.18 115.68,36.36 115.2,36.6 115.26,36.54 114.84,36.9 
	114.9,36.9 114.6,37.32 114.6,37.26 114.3,37.74 114.3,37.68 114.18,38.22 114.12,38.82 114.12,38.76 114.12,61.38 114.18,61.979 
	114.18,61.92 114.3,62.46 114.3,62.4 114.6,62.88 114.9,63.3 114.84,63.24 115.26,63.6 115.2,63.6 115.68,63.84 115.68,63.78 
	116.22,63.96 116.16,63.96 116.76,64.02 116.7,64.02 288.18,64.02 288.78,63.96 288.72,63.96 289.26,63.78 289.2,63.84 289.68,63.6 
	290.1,63.24 290.04,63.3 290.34,62.88 290.64,62.4 290.58,62.46 290.7,61.92 290.7,61.979 290.76,61.38 290.76,38.76 290.76,38.82 
	290.7,38.22 290.58,37.68 290.64,37.74 290.34,37.26 290.34,37.32 290.04,36.9 290.1,36.9 289.68,36.54 289.68,36.6 289.2,36.36 
	289.26,36.36 288.72,36.18 288.78,36.18 288.18,36.12 116.7,36.12 116.7,35.64 288.24,35.64 288.84,35.7 288.899,35.7 
	289.439,35.88 289.439,35.94 289.92,36.18 289.979,36.18 290.399,36.54 290.46,36.6 290.76,37.02 291.06,37.5 291.06,37.56 
	291.18,38.1 291.18,38.16 291.24,38.76 291.24,61.44 291.18,62.04 291.06,62.58 291.06,62.64 290.76,63.12 290.76,63.18 
	290.46,63.6 290.399,63.6 289.979,63.96 289.92,64.02 289.439,64.26 288.899,64.44 288.84,64.44 288.24,64.5 116.7,64.5 
	116.1,64.44 116.04,64.44 115.5,64.26 115.44,64.26 114.96,64.02 114.96,63.96 114.54,63.6 114.48,63.6 114.18,63.18 114.18,63.12 
	113.88,62.64 113.82,62.58 113.7,62.04 113.64,61.44 113.64,38.76 113.7,38.16 113.7,38.1 113.82,37.56 113.88,37.5 114.18,37.02 
	114.48,36.6 114.54,36.54 114.96,36.18 115.44,35.94 115.5,35.88 116.04,35.7 116.1,35.7 116.7,35.64 "/>
<polyline style="fill:#8080FF;" points="116.7,36.12 116.76,36.12 116.7,35.64 "/>
<polyline points="116.76,1.02 116.16,1.08 116.22,1.08 115.68,1.2 115.8,1.14 115.56,1.26 115.62,1.2 115.38,1.38 115.2,1.5 
	115.26,1.44 114.84,1.86 114.96,1.74 114.84,1.979 114.54,2.28 114.66,2.1 114.54,2.4 114.54,2.34 114.42,2.82 114.48,2.76 
	114.42,3.36 114.42,3.3 114.42,61.38 114.42,61.32 114.48,61.92 114.48,61.86 114.6,62.4 114.54,62.28 114.66,62.52 114.6,62.46 
	114.78,62.7 114.84,62.76 114.96,63 114.84,62.88 115.02,63.06 114.96,63 115.2,63.18 115.44,63.42 115.32,63.36 115.8,63.6 
	115.74,63.54 116.28,63.72 116.16,63.72 116.76,63.78 116.7,63.78 288.18,63.78 288.12,63.78 288.72,63.72 288.66,63.72 
	289.2,63.54 289.08,63.6 289.56,63.36 289.439,63.42 289.68,63.18 289.92,63 289.859,63.06 290.04,62.88 289.979,63 290.1,62.76 
	290.1,62.7 290.28,62.46 290.28,62.52 290.399,62.28 290.34,62.4 290.46,61.86 290.46,61.92 290.52,61.32 290.52,61.38 
	290.52,32.34 291.54,32.34 291.54,61.44 291.479,62.04 291.479,62.1 291.359,62.64 291.18,63 291.12,63.06 290.939,63.3 291,63.24 
	290.88,63.479 290.52,63.84 290.28,64.02 290.34,63.96 290.04,64.26 289.56,64.5 289.5,64.5 288.96,64.68 288.84,64.74 288.24,64.8 
	116.64,64.8 116.04,64.74 115.98,64.68 115.44,64.5 115.32,64.5 114.84,64.26 114.54,63.96 114.6,64.02 114.36,63.84 114.12,63.6 
	113.94,63.24 113.94,63.3 113.76,63.06 113.76,63 113.58,62.64 113.46,62.1 113.46,62.04 113.4,61.44 113.4,3.24 113.46,2.64 
	113.46,2.58 113.58,2.1 113.58,2.04 113.7,1.74 113.82,1.56 114,1.38 113.94,1.5 114.12,1.14 114.54,0.72 114.66,0.66 114.84,0.54 
	114.78,0.54 115.02,0.36 115.08,0.36 115.44,0.18 115.98,0.06 116.04,0.06 116.64,0 "/>
<polyline points="290.52,32.34 290.52,3.3 290.52,3.36 290.46,2.76 290.46,2.82 290.34,2.34 290.34,2.4 290.22,2.1 290.34,2.28 
	290.16,2.1 289.979,1.74 290.04,1.86 289.62,1.44 289.74,1.5 289.56,1.38 289.5,1.38 289.26,1.2 289.32,1.26 289.08,1.14 289.2,1.2 
	288.66,1.08 288.72,1.08 288.12,1.02 288.18,1.02 116.7,1.02 116.76,1.02 116.64,0 288.24,0 288.84,0.06 288.899,0.06 289.439,0.18 
	289.8,0.36 289.859,0.36 290.1,0.54 290.28,0.66 290.34,0.72 290.88,1.26 291,1.5 290.88,1.38 291.06,1.56 291.18,1.74 291.3,2.04 
	291.3,2.1 291.42,2.58 291.479,2.64 291.54,3.24 291.54,32.34 "/>
<rect x="163.44" y="42.96" style="fill:#808080;" width="14.22" height="14.22"/>
<polyline style="fill-rule:evenodd;clip-rule:evenodd;fill:#B2B2B2;" points="74.16,0.479 73.62,0.54 73.08,0.66 72.6,0.96 
	72.18,1.32 71.82,1.74 71.58,2.22 71.4,2.7 71.34,3.3 71.34,96.84 71.4,97.44 71.58,97.92 71.82,98.4 72.18,98.82 72.6,99.18 
	73.08,99.479 73.62,99.6 74.16,99.66 96.84,99.66 97.44,99.6 97.92,99.479 98.46,99.18 98.88,98.82 99.18,98.4 99.48,97.92 
	99.6,97.44 99.66,96.84 99.66,3.3 99.6,2.7 99.48,2.22 99.18,1.74 98.88,1.32 98.46,0.96 97.92,0.66 97.44,0.54 96.84,0.479 
	74.16,0.479 "/>
<polyline style="fill:#8080FF;" points="74.22,0.72 73.68,0.78 73.14,0.9 73.2,0.9 72.72,1.2 72.78,1.14 72.36,1.5 72,1.92 
	72.06,1.86 71.82,2.34 71.64,2.82 71.64,2.76 71.58,3.36 71.58,3.3 71.58,96.84 71.64,97.44 71.64,97.38 71.82,97.86 71.82,97.8 
	72.06,98.28 72,98.28 72.36,98.7 72.36,98.64 72.78,99 72.72,99 73.2,99.3 73.14,99.24 73.68,99.36 74.22,99.42 74.16,99.42 
	96.84,99.42 97.44,99.36 97.38,99.36 97.86,99.24 97.8,99.3 98.34,99 98.76,98.64 98.7,98.7 99,98.28 99.3,97.8 99.24,97.86 
	99.36,97.38 99.36,97.44 99.42,96.84 99.42,3.3 99.42,3.36 99.36,2.76 99.24,2.28 99.3,2.34 99,1.86 99,1.92 98.7,1.5 98.76,1.5 
	98.34,1.14 98.34,1.2 97.8,0.9 97.86,0.9 97.38,0.78 97.44,0.78 96.84,0.72 74.16,0.72 74.16,0.24 96.9,0.24 97.5,0.3 97.98,0.42 
	98.04,0.479 98.58,0.78 98.64,0.78 99.06,1.14 99.12,1.2 99.42,1.62 99.72,2.1 99.72,2.16 99.84,2.64 99.84,2.7 99.9,3.3 99.9,96.9 
	99.84,97.5 99.72,97.979 99.72,98.04 99.42,98.52 99.42,98.58 99.12,99 99.06,99 98.64,99.36 98.58,99.42 98.04,99.72 97.98,99.72 
	97.5,99.84 96.9,99.9 74.16,99.9 73.62,99.84 73.56,99.84 73.02,99.72 72.96,99.72 72.48,99.42 72.48,99.36 72.06,99 72,99 
	71.64,98.58 71.64,98.52 71.4,98.04 71.22,97.56 71.16,97.5 71.1,96.9 71.1,3.3 71.16,2.7 71.22,2.64 71.4,2.16 71.4,2.1 
	71.64,1.62 72,1.2 72.06,1.14 72.48,0.78 72.96,0.479 73.02,0.42 73.56,0.3 73.62,0.3 74.16,0.24 "/>
<polyline style="fill:#8080FF;" points="74.16,0.72 74.22,0.72 74.16,0.24 "/>
<polyline points="3.36,1.02 2.76,1.08 2.82,1.02 2.34,1.14 2.4,1.14 2.1,1.26 2.28,1.14 1.98,1.44 1.74,1.56 1.92,1.38 1.74,1.62 
	1.5,1.86 1.56,1.8 1.38,2.04 1.32,2.1 1.14,2.28 1.26,2.1 1.14,2.4 1.14,2.34 1.02,2.82 1.08,2.76 1.02,3.36 1.02,3.3 1.02,96.84 
	1.02,96.78 1.08,97.38 1.02,97.32 1.14,97.8 1.14,97.74 1.26,98.04 1.14,97.86 1.38,98.1 1.56,98.34 1.5,98.28 1.68,98.46 
	1.74,98.52 1.92,98.76 1.74,98.64 2.1,98.82 2.28,99 2.1,98.88 2.4,99 2.34,99 2.82,99.12 2.76,99.12 3.36,99.18 3.3,99.18 
	96.84,99.18 96.78,99.18 97.38,99.12 97.32,99.12 97.8,99 97.74,99 98.04,98.88 97.92,98.94 98.16,98.76 98.22,98.76 98.4,98.64 
	98.28,98.7 98.7,98.28 98.64,98.4 98.82,98.04 99,97.86 98.88,98.04 99,97.74 99,97.8 99.12,97.32 99.12,97.38 99.18,96.78 
	99.18,96.84 99.18,50.04 100.2,50.04 100.2,96.9 100.14,97.5 100.08,97.56 99.96,98.04 99.96,98.1 99.84,98.4 99.72,98.58 
	99.54,98.76 99.66,98.64 99.54,98.88 98.94,99.479 98.76,99.6 98.52,99.78 98.4,99.84 98.1,99.96 98.04,99.96 97.56,100.08 
	97.5,100.14 96.9,100.2 3.24,100.2 2.64,100.14 2.58,100.08 2.1,99.96 2.04,99.96 1.74,99.84 1.56,99.72 1.38,99.54 1.5,99.66 
	1.26,99.54 1.08,99.36 0.9,99.12 0.96,99.18 0.72,98.94 0.54,98.7 0.6,98.76 0.42,98.58 0.3,98.4 0.18,98.1 0.18,98.04 0.06,97.56 
	0.06,97.5 0,96.9 0,3.24 0.06,2.64 0.06,2.58 0.18,2.1 0.18,2.04 0.3,1.74 0.42,1.56 0.6,1.38 0.54,1.44 0.72,1.2 0.96,0.96 
	0.9,1.02 1.08,0.78 1.26,0.66 1.5,0.54 1.38,0.6 1.56,0.42 1.74,0.3 2.04,0.18 2.1,0.18 2.58,0.06 2.64,0.06 3.24,0 "/>
<polyline points="99.18,50.04 99.18,3.3 99.18,3.36 99.12,2.76 99.12,2.82 99,2.34 99,2.4 98.88,2.1 99,2.28 98.82,2.1 98.64,1.74 
	98.7,1.86 98.28,1.44 98.4,1.5 98.22,1.38 98.16,1.38 97.92,1.2 98.04,1.26 97.74,1.14 97.8,1.14 97.32,1.02 97.38,1.08 96.78,1.02 
	96.84,1.02 3.3,1.02 3.36,1.02 3.24,0 96.9,0 97.5,0.06 97.56,0.06 98.04,0.18 98.1,0.18 98.4,0.3 98.52,0.36 98.76,0.54 
	98.94,0.66 99,0.72 99.54,1.26 99.66,1.5 99.54,1.38 99.72,1.56 99.84,1.74 99.96,2.04 99.96,2.1 100.08,2.58 100.14,2.64 
	100.2,3.24 100.2,50.04 "/>
<rect x="184.74" y="42.96" style="fill:#808080;" width="14.16" height="14.22"/>
<text transform="matrix(1 0 0 1 261.4795 50.6396)"><tspan x="0" y="0" style="font-family:'ProductusSemibold'; font-size:7.98;">R</tspan><tspan x="4.253" y="0" style="font-family:'ProductusSemibold'; font-size:7.98;">o</tspan><tspan x="8.57" y="0" style="font-family:'ProductusSemibold'; font-size:7.98;">o</tspan><tspan x="12.943" y="0" style="font-family:'ProductusSemibold'; font-size:7.98;">t</tspan></text>
<polyline style="fill-rule:evenodd;clip-rule:evenodd;fill:#FFFFFF;" points="184.74,14.64 198.9,14.64 191.82,28.8 "/>
<polyline points="184.74,14.4 199.32,14.4 192.06,28.92 191.88,29.34 191.64,28.92 191.64,28.68 198.72,14.52 199.14,14.76 
	198.9,14.88 184.74,14.88 "/>
<polyline points="191.64,28.92 184.38,14.4 184.74,14.4 184.98,14.52 192.06,28.68 "/>
<rect x="191.58" y="28.56" width="0.48" height="14.64"/>
<text transform="matrix(1 0 0 1 145.6797 12)"><tspan x="0" y="0" style="font-family:'ProductusSemibold'; font-size:7.98;">R</tspan><tspan x="4.437" y="0" style="font-family:'ProductusSemibold'; font-size:7.98;">,</tspan><tspan x="6.655" y="0" style="font-family:'ProductusSemibold'; font-size:7.98;">S1</tspan><tspan x="14.627" y="0" style="font-family:'ProductusSemibold'; font-size:7.98;">.</tspan><tspan x="16.662" y="0" style="font-family:'ProductusSemibold'; font-size:7.98;">U</tspan><tspan x="21.761" y="0" style="font-family:'ProductusSemibold'; font-size:7.98;">1</tspan><tspan x="25.535" y="0" style="font-family:'ProductusSemibold'; font-size:7.98;">,</tspan><tspan x="27.634" y="0" style="font-family:'ProductusSemibold'; font-size:7.98;">U</tspan><tspan x="32.789" y="0" style="font-family:'ProductusSemibold'; font-size:7.98;">2</tspan><tspan x="36.867" y="0" style="font-family:'ProductusSemibold'; font-size:7.98;">,</tspan><tspan x="39.141" y="0" style="font-family:'ProductusSemibold'; font-size:7.98;">S</tspan><tspan x="43.394" y="0" style="font-family:'ProductusSemibold'; font-size:7.98;">2</tspan><tspan x="47.528" y="0" style="font-family:'ProductusSemibold'; font-size:7.98;">,</tspan><tspan x="49.562" y="0" style="font-family:'ProductusSemibold'; font-size:7.98;">U</tspan><tspan x="54.718" y="0" style="font-family:'ProductusSemibold'; font-size:7.98;">3</tspan><tspan x="58.731" y="0" style="font-family:'ProductusSemibold'; font-size:7.98;">,</tspan><tspan x="60.767" y="0" style="font-family:'ProductusSemibold'; font-size:7.98;">U</tspan><tspan x="65.865" y="0" style="font-family:'ProductusSemibold'; font-size:7.98;">4,</tspan><tspan x="72.576" y="0" style="font-family:'ProductusSemibold'; font-size:7.98;">S</tspan><tspan x="76.83" y="0" style="font-family:'ProductusSemibold'; font-size:7.98;">3</tspan><tspan x="80.844" y="0" style="font-family:'ProductusSemibold'; font-size:7.98;">,</tspan><tspan x="82.878" y="0" style="font-family:'ProductusSemibold'; font-size:7.98;">U</tspan><tspan x="88.033" y="0" style="font-family:'ProductusSemibold'; font-size:7.98;">5</tspan></text>
<polyline style="fill-rule:evenodd;clip-rule:evenodd;fill:#B2B2B2;" points="31.62,7.56 31.08,7.62 30.54,7.8 30.06,8.04 
	29.64,8.4 29.28,8.82 29.04,9.3 28.86,9.84 28.8,10.38 28.8,33.06 28.86,33.66 29.04,34.14 29.28,34.62 29.64,35.04 30.06,35.4 
	30.54,35.7 31.08,35.82 31.62,35.88 54.3,35.88 54.9,35.82 55.44,35.7 55.92,35.4 56.34,35.04 56.7,34.62 56.94,34.14 57.12,33.66 
	57.18,33.06 57.18,10.38 57.12,9.84 56.94,9.3 56.7,8.82 56.34,8.4 55.92,8.04 55.44,7.8 54.9,7.62 54.3,7.56 31.62,7.56 "/>
<polyline style="fill:#8080FF;" points="31.68,7.8 31.14,7.86 31.2,7.86 30.66,8.04 30.18,8.28 30.24,8.22 29.82,8.58 29.46,9 
	29.52,8.94 29.28,9.42 29.1,9.96 29.1,9.9 29.04,10.44 29.04,10.38 29.04,33.06 29.1,33.66 29.1,33.6 29.28,34.08 29.28,34.02 
	29.52,34.5 29.46,34.5 29.82,34.92 29.82,34.86 30.24,35.22 30.18,35.22 30.66,35.52 30.6,35.46 31.14,35.58 31.68,35.64 
	31.62,35.64 54.3,35.64 54.9,35.58 54.84,35.58 55.38,35.46 55.32,35.52 55.8,35.22 56.22,34.86 56.16,34.92 56.52,34.5 
	56.76,34.02 56.76,34.08 56.94,33.6 56.88,33.66 56.94,33.06 56.94,10.38 56.94,10.44 56.88,9.9 56.88,9.96 56.7,9.42 56.76,9.42 
	56.52,8.94 56.52,9 56.16,8.58 56.22,8.58 55.8,8.22 55.8,8.28 55.32,8.04 55.38,8.04 54.84,7.86 54.9,7.86 54.3,7.8 31.62,7.8 
	31.62,7.32 54.36,7.32 54.96,7.38 55.02,7.38 55.56,7.56 55.56,7.62 56.04,7.86 56.1,7.86 56.52,8.22 56.52,8.28 56.88,8.7 
	56.94,8.7 57.18,9.18 57.18,9.24 57.36,9.78 57.36,9.84 57.42,10.38 57.42,33.12 57.36,33.72 57.36,33.78 57.18,34.26 56.94,34.74 
	56.88,34.8 56.52,35.22 56.1,35.58 56.04,35.64 55.56,35.94 55.5,35.94 54.96,36.06 54.36,36.12 31.62,36.12 31.08,36.06 
	31.02,36.06 30.48,35.94 30.42,35.94 29.94,35.64 29.94,35.58 29.52,35.22 29.46,35.22 29.1,34.8 29.1,34.74 28.86,34.26 
	28.68,33.78 28.62,33.72 28.56,33.12 28.56,10.38 28.62,9.84 28.62,9.78 28.8,9.24 28.86,9.18 29.1,8.7 29.46,8.28 29.52,8.22 
	29.94,7.86 30.42,7.62 30.48,7.56 31.02,7.38 31.08,7.38 31.62,7.32 "/>
<polyline style="fill:#8080FF;" points="31.62,7.8 31.68,7.8 31.62,7.32 "/>
<rect x="78.42" y="71.34" style="fill:#808080;" width="14.16" height="14.16"/>
<text transform="matrix(1 0 0 1 83.2197 80.8198)" style="fill:#FFFFFF; font-family:'ProductusSemibold'; font-size:7.98;">C</text>
<text transform="matrix(1 0 0 1 81.8999 45.3599)"><tspan x="0" y="0" style="font-family:'ProductusSemibold'; font-size:7.98;">S</tspan><tspan x="3.894" y="0" style="font-family:'ProductusSemibold'; font-size:7.98;">1</tspan></text>
<text transform="matrix(1 0 0 1 38.9395 24.1196)"><tspan x="0" y="0" style="font-family:'ProductusSemibold'; font-size:7.98;">U</tspan><tspan x="4.796" y="0" style="font-family:'ProductusSemibold'; font-size:7.98;">1</tspan></text>
<polyline style="fill-rule:evenodd;clip-rule:evenodd;fill:#B2B2B2;" points="308.04,0.479 307.439,0.54 306.96,0.66 306.479,0.96 
	306.06,1.32 305.7,1.74 305.399,2.22 305.28,2.7 305.22,3.3 305.22,153.54 305.28,154.08 305.399,154.62 305.7,155.1 306.06,155.52 
	306.479,155.88 306.96,156.18 307.439,156.3 308.04,156.36 330.72,156.36 331.26,156.3 331.8,156.18 332.28,155.88 332.7,155.52 
	333.06,155.1 333.3,154.62 333.479,154.08 333.54,153.54 333.54,3.3 333.479,2.7 333.3,2.22 333.06,1.74 332.7,1.32 332.28,0.96 
	331.8,0.66 331.26,0.54 330.72,0.479 308.04,0.479 "/>
<polyline style="fill:#8080FF;" points="308.1,0.72 307.5,0.78 307.02,0.9 307.08,0.9 306.6,1.2 306.66,1.14 306.24,1.5 
	305.88,1.92 305.939,1.86 305.64,2.34 305.64,2.28 305.52,2.76 305.46,3.36 305.46,3.3 305.46,153.54 305.52,154.08 305.52,154.02 
	305.64,154.56 305.64,154.5 305.939,154.979 305.88,154.979 306.24,155.4 306.24,155.34 306.66,155.7 306.6,155.7 307.08,156 
	307.02,155.94 307.5,156.06 308.1,156.12 308.04,156.12 330.72,156.12 331.26,156.06 331.2,156.06 331.74,155.94 331.68,156 
	332.16,155.7 332.58,155.34 332.52,155.4 332.88,154.979 333.12,154.5 333.06,154.56 333.24,154.02 333.24,154.08 333.3,153.54 
	333.3,3.3 333.3,3.36 333.24,2.76 333.3,2.82 333.12,2.34 332.88,1.86 332.88,1.92 332.52,1.5 332.58,1.5 332.16,1.14 332.16,1.2 
	331.68,0.9 331.74,0.9 331.2,0.78 331.26,0.78 330.72,0.72 308.04,0.72 308.04,0.24 330.78,0.24 331.32,0.3 331.859,0.42 
	331.92,0.479 332.399,0.78 332.46,0.78 332.88,1.14 332.88,1.2 333.24,1.62 333.3,1.62 333.54,2.1 333.54,2.16 333.72,2.64 
	333.72,2.7 333.78,3.3 333.78,153.6 333.72,154.14 333.72,154.2 333.54,154.74 333.3,155.22 333.24,155.28 332.88,155.7 
	332.46,156.06 332.399,156.12 331.92,156.42 331.859,156.42 331.32,156.54 330.78,156.6 308.04,156.6 307.439,156.54 307.38,156.54 
	306.899,156.42 306.84,156.42 306.359,156.12 306.359,156.06 305.939,155.7 305.88,155.7 305.52,155.28 305.52,155.22 
	305.22,154.74 305.16,154.68 305.04,154.14 304.979,153.6 304.979,3.3 305.04,2.7 305.04,2.64 305.16,2.16 305.22,2.1 305.52,1.62 
	305.88,1.2 305.939,1.14 306.359,0.78 306.84,0.479 306.899,0.42 307.38,0.3 307.439,0.3 308.04,0.24 "/>
<polyline style="fill:#8080FF;" points="308.04,0.72 308.1,0.72 308.04,0.24 "/>
<polyline points="308.1,1.02 307.5,1.08 307.56,1.02 307.08,1.14 307.14,1.14 306.84,1.26 307.02,1.14 306.72,1.44 306.479,1.56 
	306.66,1.38 306.479,1.62 306.359,1.74 306.12,1.92 306.3,1.74 306.18,1.979 305.88,2.28 306,2.1 305.88,2.4 305.88,2.34 
	305.76,2.82 305.82,2.76 305.76,3.36 305.76,3.3 305.76,153.54 305.76,153.479 305.82,154.02 305.82,153.96 305.939,154.5 
	305.88,154.38 306,154.62 305.939,154.56 306.12,154.8 306.18,154.86 306.3,155.1 306.12,154.92 306.359,155.1 306.6,155.34 
	306.54,155.28 306.78,155.46 307.02,155.7 306.84,155.58 307.14,155.7 307.08,155.7 307.56,155.82 307.5,155.82 308.1,155.88 
	308.04,155.88 408.66,155.88 408.6,155.88 409.2,155.82 409.14,155.82 409.68,155.7 409.56,155.76 409.8,155.64 409.74,155.64 
	409.979,155.46 409.92,155.52 410.16,155.28 410.399,155.1 410.34,155.16 410.52,154.979 410.46,155.1 410.58,154.86 410.58,154.8 
	410.76,154.56 410.76,154.62 410.88,154.38 410.82,154.5 410.939,153.96 410.939,154.02 411,153.479 411,153.54 411,78.42 
	412.02,78.42 412.02,153.6 411.96,154.14 411.96,154.2 411.84,154.74 411.66,155.1 411.6,155.16 411.42,155.4 411.479,155.34 
	411.359,155.58 411.06,155.88 411,155.94 410.76,156.12 410.82,156.06 410.58,156.3 410.34,156.479 410.28,156.54 409.92,156.72 
	409.38,156.84 409.32,156.84 408.72,156.9 307.979,156.9 307.38,156.84 307.32,156.78 306.84,156.66 306.78,156.66 306.479,156.54 
	306.3,156.42 306.12,156.24 306.18,156.3 305.939,156.12 305.7,155.88 305.76,155.94 305.52,155.76 305.399,155.58 305.28,155.34 
	305.28,155.4 305.1,155.16 305.1,155.1 304.92,154.74 304.8,154.2 304.8,154.14 304.74,153.6 304.74,3.24 304.8,2.64 304.8,2.58 
	304.92,2.1 304.92,2.04 305.04,1.74 305.16,1.56 305.34,1.38 305.28,1.5 305.399,1.26 305.52,1.08 305.76,0.9 305.64,1.02 
	305.82,0.78 306,0.66 306.24,0.54 306.12,0.6 306.3,0.42 306.479,0.3 306.78,0.18 306.84,0.18 307.32,0.06 307.38,0.06 307.979,0 
	"/>
<polyline points="411,78.42 411,3.3 411,3.36 410.939,2.76 410.939,2.82 410.82,2.34 410.82,2.4 410.7,2.1 410.82,2.28 410.64,2.1 
	410.46,1.74 410.52,1.86 410.1,1.44 410.22,1.5 410.04,1.38 409.979,1.38 409.74,1.2 409.8,1.26 409.56,1.14 409.68,1.2 
	409.14,1.08 409.2,1.08 408.6,1.02 408.66,1.02 308.04,1.02 308.1,1.02 307.979,0 408.72,0 409.32,0.06 409.38,0.06 409.92,0.18 
	410.28,0.36 410.34,0.36 410.58,0.54 410.76,0.66 410.82,0.72 411.359,1.26 411.479,1.5 411.359,1.38 411.54,1.56 411.66,1.74 
	411.78,2.04 411.78,2.1 411.899,2.58 411.96,2.64 412.02,3.24 412.02,78.42 "/>
<rect x="312.3" y="92.58" style="fill:#808080;" width="14.16" height="14.16"/>
<rect x="312.3" y="50.04" style="fill:#808080;" width="14.16" height="14.22"/>
<text transform="matrix(1 0 0 1 317.6396 59.5796)" style="fill:#FFFFFF; font-family:'ProductusSemibold'; font-size:7.98;">E</text>
<text transform="matrix(1 0 0 1 317.6992 102.0596)" style="fill:#FFFFFF; font-family:'ProductusSemibold'; font-size:7.98;">F</text>
<text transform="matrix(1 0 0 1 315.5996 24.1196)"><tspan x="0" y="0" style="font-family:'ProductusSemibold'; font-size:7.98;">S</tspan><tspan x="3.847" y="0" style="font-family:'ProductusSemibold'; font-size:7.98;">2</tspan></text>
<rect x="300" y="49.8" width="4.68" height="0.48"/>
<polyline points="300.359,47.34 300.12,47.76 304.56,50.28 304.8,50.28 305.22,50.04 304.8,49.86 "/>
<polyline points="304.8,50.28 304.56,49.86 300.12,52.44 300.359,52.86 "/>
<rect x="291" y="49.8" width="1.02" height="0.48"/>
<rect x="294.84" y="49.8" width="1.38" height="0.48"/>
<rect x="298.979" y="49.8" width="1.021" height="0.48"/>
<polyline style="fill-rule:evenodd;clip-rule:evenodd;fill:#B2B2B2;" points="31.62,64.26 31.08,64.32 30.54,64.44 30.06,64.74 
	29.64,65.1 29.28,65.52 29.04,66 28.86,66.479 28.8,67.08 28.8,89.76 28.86,90.3 29.04,90.84 29.28,91.32 29.64,91.74 30.06,92.1 
	30.54,92.34 31.08,92.52 31.62,92.58 54.3,92.58 54.9,92.52 55.44,92.34 55.92,92.1 56.34,91.74 56.7,91.32 56.94,90.84 57.12,90.3 
	57.18,89.76 57.18,67.08 57.12,66.479 56.94,66 56.7,65.52 56.34,65.1 55.92,64.74 55.44,64.44 54.9,64.32 54.3,64.26 31.62,64.26 
	"/>
<polyline style="fill:#8080FF;" points="31.68,64.5 31.14,64.56 30.6,64.68 30.66,64.68 30.18,64.979 30.24,64.92 29.82,65.28 
	29.46,65.7 29.52,65.64 29.28,66.12 29.1,66.6 29.1,66.54 29.04,67.14 29.04,67.08 29.04,89.76 29.1,90.3 29.1,90.24 29.28,90.78 
	29.28,90.72 29.52,91.2 29.46,91.2 29.82,91.62 29.82,91.56 30.24,91.92 30.18,91.92 30.66,92.16 30.66,92.1 31.2,92.28 
	31.14,92.28 31.68,92.34 31.62,92.34 54.3,92.34 54.9,92.28 54.84,92.28 55.38,92.1 55.32,92.16 55.8,91.92 56.22,91.56 
	56.16,91.62 56.52,91.2 56.76,90.72 56.7,90.78 56.88,90.24 56.88,90.3 56.94,89.76 56.94,67.08 56.94,67.14 56.88,66.54 
	56.94,66.6 56.76,66.12 56.52,65.64 56.52,65.7 56.16,65.28 56.22,65.28 55.8,64.92 55.8,64.979 55.32,64.68 55.38,64.68 
	54.84,64.56 54.9,64.56 54.3,64.5 31.62,64.5 31.62,64.02 54.36,64.02 54.96,64.08 55.5,64.2 55.56,64.26 56.04,64.56 56.1,64.56 
	56.52,64.92 56.52,64.979 56.88,65.4 56.94,65.4 57.18,65.88 57.18,65.94 57.36,66.42 57.36,66.479 57.42,67.08 57.42,89.82 
	57.36,90.36 57.36,90.42 57.18,90.96 56.94,91.44 56.88,91.5 56.52,91.92 56.1,92.28 56.04,92.34 55.56,92.58 55.02,92.76 
	54.96,92.76 54.36,92.82 31.62,92.82 31.08,92.76 31.02,92.76 30.48,92.58 30.42,92.58 29.94,92.34 29.94,92.28 29.52,91.92 
	29.46,91.92 29.1,91.5 29.1,91.44 28.86,90.96 28.8,90.96 28.62,90.42 28.62,90.36 28.56,89.82 28.56,67.08 28.62,66.479 
	28.68,66.42 28.86,65.94 28.86,65.88 29.1,65.4 29.46,64.979 29.52,64.92 29.94,64.56 30.42,64.26 30.48,64.2 31.02,64.08 
	31.08,64.08 31.62,64.02 "/>
<polyline style="fill:#8080FF;" points="31.62,64.5 31.68,64.5 31.62,64.02 "/>
<text transform="matrix(1 0 0 1 38.7598 80.8198)" style="font-family:'ProductusSemibold'; font-size:7.98;">U2</text>
<rect x="57.66" y="21.479" width="4.68" height="0.48"/>
<polyline points="61.98,24.479 62.22,24.06 57.78,21.479 57.54,21.479 57.12,21.72 57.54,21.9 "/>
<polyline points="57.54,21.479 57.78,21.9 62.22,19.32 61.98,18.9 "/>
<rect x="70.32" y="21.479" width="1.02" height="0.48"/>
<rect x="66.12" y="21.479" width="1.44" height="0.48"/>
<rect x="62.34" y="21.479" width="1.02" height="0.48"/>
<rect x="57.66" y="78.18" width="4.68" height="0.48"/>
<polyline points="61.98,81.18 62.22,80.76 57.78,78.18 57.54,78.18 57.12,78.42 57.54,78.6 "/>
<polyline points="57.54,78.18 57.78,78.6 62.22,76.02 61.98,75.6 "/>
<rect x="70.32" y="78.18" width="1.02" height="0.48"/>
<rect x="66.12" y="78.18" width="1.44" height="0.48"/>
<rect x="62.34" y="78.18" width="1.02" height="0.48"/>
<polyline style="fill-rule:evenodd;clip-rule:evenodd;fill:#FFFFFF;" points="14.64,42.96 14.64,57.18 28.8,50.04 "/>
<polyline points="14.88,42.96 14.88,57.18 14.76,57.42 14.52,57 28.68,49.86 28.92,49.86 29.28,50.04 28.92,50.28 14.76,57.42 
	14.4,57.6 14.4,42.96 "/>
<polyline points="28.68,50.28 14.52,43.2 14.4,42.96 14.4,42.6 28.92,49.86 "/>
<rect x="28.56" y="49.8" width="1.26" height="0.48"/>
<rect x="33.72" y="49.8" width="1.98" height="0.48"/>
<rect x="39.66" y="49.8" width="1.92" height="0.48"/>
<rect x="45.54" y="49.8" width="1.98" height="0.48"/>
<rect x="51.48" y="49.8" width="1.92" height="0.48"/>
<rect x="57.36" y="49.8" width="1.98" height="0.48"/>
<rect x="63.24" y="49.8" width="1.98" height="0.48"/>
<rect x="69.18" y="49.8" width="1.92" height="0.48"/>
<rect x="75.06" y="49.8" width="1.98" height="0.48"/>
<rect x="81" y="49.8" width="1.92" height="0.48"/>
<rect x="86.88" y="49.8" width="1.98" height="0.48"/>
<rect x="92.76" y="49.8" width="1.98" height="0.48"/>
<rect x="98.7" y="49.8" width="1.2" height="0.48"/>
<text transform="matrix(1 0 0 1 2.3398 41.46)"><tspan x="0" y="0" style="font-family:'ProductusSemibold'; font-size:7.98;">S1</tspan><tspan x="7.988" y="0" style="font-family:'ProductusSemibold'; font-size:7.98;">,</tspan><tspan x="10.022" y="0" style="font-family:'ProductusSemibold'; font-size:7.98;">U</tspan><tspan x="15.178" y="0" style="font-family:'ProductusSemibold'; font-size:7.98;">1</tspan><tspan x="18.904" y="0" style="font-family:'ProductusSemibold'; font-size:7.98;">,</tspan><tspan x="21.003" y="0" style="font-family:'ProductusSemibold'; font-size:7.98;">U</tspan><tspan x="26.15" y="0" style="font-family:'ProductusSemibold'; font-size:7.98;">2</tspan></text>
<rect x="78.42" y="14.64" style="fill:#808080;" width="14.16" height="14.16"/>
<text transform="matrix(1 0 0 1 83.5801 24.1196)" style="fill:#FFFFFF; font-family:'ProductusSemibold'; font-size:7.98;">B</text>
<polyline style="fill-rule:evenodd;clip-rule:evenodd;fill:#B2B2B2;" points="350.58,7.56 349.979,7.62 349.439,7.8 348.96,8.04 
	348.54,8.4 348.18,8.82 347.939,9.3 347.76,9.84 347.7,10.38 347.7,33.06 347.76,33.66 347.939,34.14 348.18,34.62 348.54,35.04 
	348.96,35.4 349.439,35.7 349.979,35.82 350.58,35.88 373.26,35.88 373.8,35.82 374.34,35.7 374.82,35.4 375.24,35.04 375.6,34.62 
	375.84,34.14 376.02,33.66 376.08,33.06 376.08,10.38 376.02,9.84 375.84,9.3 375.6,8.82 375.24,8.4 374.82,8.04 374.34,7.8 
	373.8,7.62 373.26,7.56 350.58,7.56 "/>
<polyline style="fill:#8080FF;" points="350.64,7.8 350.04,7.86 350.1,7.86 349.56,8.04 349.08,8.28 349.14,8.22 348.72,8.58 
	348.359,9 348.42,8.94 348.18,9.42 348,9.96 348,9.9 347.939,10.44 347.939,10.38 347.939,33.06 348,33.66 348,33.6 348.18,34.08 
	348.18,34.02 348.42,34.5 348.359,34.5 348.72,34.92 348.72,34.86 349.14,35.22 349.08,35.22 349.56,35.52 349.5,35.46 
	350.04,35.58 350.64,35.64 350.58,35.64 373.26,35.64 373.8,35.58 373.74,35.58 374.28,35.46 374.22,35.52 374.7,35.22 
	375.12,34.86 375.06,34.92 375.42,34.5 375.66,34.02 375.66,34.08 375.84,33.6 375.78,33.66 375.84,33.06 375.84,10.38 
	375.84,10.44 375.78,9.9 375.78,9.96 375.6,9.42 375.66,9.42 375.42,8.94 375.42,9 375.06,8.58 375.12,8.58 374.7,8.22 374.7,8.28 
	374.22,8.04 374.28,8.04 373.74,7.86 373.8,7.86 373.26,7.8 350.58,7.8 350.58,7.32 373.32,7.32 373.859,7.38 373.92,7.38 
	374.46,7.56 374.46,7.62 374.939,7.86 375,7.86 375.42,8.22 375.42,8.28 375.78,8.7 375.84,8.7 376.08,9.18 376.08,9.24 
	376.26,9.78 376.26,9.84 376.32,10.38 376.32,33.12 376.26,33.72 376.26,33.78 376.08,34.26 375.84,34.74 375.78,34.8 375.42,35.22 
	375,35.58 374.939,35.64 374.46,35.94 374.399,35.94 373.859,36.06 373.32,36.12 350.58,36.12 349.979,36.06 349.92,36.06 
	349.38,35.94 349.32,35.94 348.84,35.64 348.84,35.58 348.42,35.22 348.359,35.22 348,34.8 348,34.74 347.76,34.26 347.58,33.78 
	347.52,33.72 347.46,33.12 347.46,10.38 347.52,9.84 347.52,9.78 347.7,9.24 347.76,9.18 348,8.7 348.359,8.28 348.42,8.22 
	348.84,7.86 349.32,7.62 349.38,7.56 349.92,7.38 349.979,7.38 350.58,7.32 "/>
<polyline style="fill:#8080FF;" points="350.58,7.8 350.64,7.8 350.58,7.32 "/>
<text transform="matrix(1 0 0 1 357.7197 24.1196)" style="font-family:'ProductusSemibold'; font-size:7.98;">U3</text>
<polyline style="fill-rule:evenodd;clip-rule:evenodd;fill:#B2B2B2;" points="350.58,120.96 349.979,121.02 349.439,121.14 
	348.96,121.44 348.54,121.74 348.18,122.16 347.939,122.7 347.76,123.18 347.7,123.78 347.7,146.46 347.76,147 347.939,147.54 
	348.18,148.02 348.54,148.44 348.96,148.8 349.439,149.04 349.979,149.22 350.58,149.28 373.26,149.28 373.8,149.22 374.34,149.04 
	374.82,148.8 375.24,148.44 375.6,148.02 375.84,147.54 376.02,147 376.08,146.46 376.08,123.78 376.02,123.18 375.84,122.7 
	375.6,122.16 375.24,121.74 374.82,121.44 374.34,121.14 373.8,121.02 373.26,120.96 350.58,120.96 "/>
<polyline style="fill:#8080FF;" points="350.64,121.2 350.04,121.26 349.5,121.38 349.56,121.38 349.08,121.68 349.14,121.68 
	348.72,121.979 348.72,121.92 348.359,122.34 348.42,122.28 348.18,122.82 348,123.3 348,123.24 347.939,123.84 347.939,123.78 
	347.939,146.46 348,147 348,146.94 348.18,147.479 348.18,147.42 348.42,147.9 348.359,147.9 348.72,148.32 348.72,148.26 
	349.14,148.62 349.08,148.62 349.56,148.86 349.56,148.8 350.1,148.979 350.04,148.979 350.64,149.04 350.58,149.04 373.26,149.04 
	373.8,148.979 373.74,148.979 374.28,148.8 374.22,148.86 374.7,148.62 375.12,148.26 375.06,148.32 375.42,147.9 375.66,147.42 
	375.6,147.479 375.78,146.94 375.78,147 375.84,146.46 375.84,123.78 375.84,123.84 375.78,123.24 375.84,123.3 375.66,122.82 
	375.42,122.28 375.42,122.34 375.06,121.92 375.12,121.979 374.7,121.68 374.22,121.38 374.28,121.38 373.74,121.26 373.8,121.26 
	373.26,121.2 350.58,121.2 350.58,120.72 373.32,120.72 373.859,120.78 374.399,120.9 374.46,120.96 374.939,121.26 375,121.26 
	375.42,121.56 375.42,121.62 375.78,122.04 375.84,122.1 376.08,122.64 376.26,123.12 376.26,123.18 376.32,123.78 376.32,146.52 
	376.26,147.06 376.26,147.12 376.08,147.66 375.84,148.14 375.78,148.2 375.42,148.62 375,148.979 374.939,149.04 374.46,149.28 
	373.92,149.46 373.859,149.46 373.32,149.52 350.58,149.52 349.979,149.46 349.92,149.46 349.38,149.28 349.32,149.28 
	348.84,149.04 348.84,148.979 348.42,148.62 348.359,148.62 348,148.2 348,148.14 347.76,147.66 347.7,147.66 347.52,147.12 
	347.52,147.06 347.46,146.52 347.46,123.78 347.52,123.18 347.58,123.12 347.76,122.64 348,122.1 348,122.04 348.359,121.62 
	348.42,121.56 348.84,121.26 349.32,120.96 349.38,120.9 349.92,120.78 349.979,120.78 350.58,120.72 "/>
<polyline style="fill:#8080FF;" points="350.58,121.2 350.64,121.2 350.58,120.72 "/>
<text transform="matrix(1 0 0 1 357.54 137.5195)" style="font-family:'ProductusSemibold'; font-size:7.98;">U4</text>
<rect x="342.54" y="21.479" width="4.68" height="0.48"/>
<polyline points="342.899,18.96 342.66,19.38 347.1,21.96 347.34,21.96 347.76,21.72 347.34,21.54 "/>
<polyline points="347.34,21.96 347.1,21.54 342.66,24.12 342.899,24.54 "/>
<rect x="333.54" y="21.479" width="1.02" height="0.48"/>
<rect x="337.32" y="21.479" width="1.439" height="0.48"/>
<rect x="341.52" y="21.479" width="1.021" height="0.48"/>
<rect x="342.54" y="134.88" width="4.68" height="0.48"/>
<polyline points="342.899,132.36 342.66,132.78 347.1,135.36 347.34,135.36 347.76,135.12 347.34,134.94 "/>
<polyline points="347.34,135.36 347.1,134.94 342.66,137.52 342.899,137.94 "/>
<rect x="333.54" y="134.88" width="1.02" height="0.48"/>
<rect x="337.32" y="134.88" width="1.439" height="0.48"/>
<rect x="341.52" y="134.88" width="1.021" height="0.48"/>
<rect x="304.979" y="78.18" width="0.24" height="0.48"/>
<rect x="305.22" y="78.18" width="0.96" height="0.48"/>
<rect x="310.14" y="78.18" width="0.24" height="0.48"/>
<rect x="310.38" y="78.18" width="1.74" height="0.48"/>
<rect x="316.02" y="78.18" width="1.98" height="0.48"/>
<rect x="321.96" y="78.18" width="1.92" height="0.48"/>
<rect x="327.84" y="78.18" width="1.98" height="0.48"/>
<rect x="333.78" y="78.18" width="1.92" height="0.48"/>
<rect x="339.66" y="78.18" width="1.979" height="0.48"/>
<rect x="345.54" y="78.18" width="1.979" height="0.48"/>
<rect x="351.479" y="78.18" width="1.92" height="0.48"/>
<rect x="357.359" y="78.18" width="1.98" height="0.48"/>
<rect x="363.3" y="78.18" width="1.92" height="0.48"/>
<rect x="369.18" y="78.18" width="1.98" height="0.48"/>
<rect x="375.06" y="78.18" width="1.261" height="0.48"/>
<polyline style="fill-rule:evenodd;clip-rule:evenodd;fill:#FFFFFF;" points="390.24,71.34 390.24,85.5 376.08,78.42 "/>
<polyline points="390.479,71.34 390.479,85.92 375.96,78.66 375.479,78.479 375.96,78.24 376.2,78.24 390.359,85.32 390.12,85.74 
	390,85.5 390,71.34 "/>
<polyline points="375.96,78.24 390.479,70.979 390.479,71.34 390.359,71.58 376.2,78.66 "/>
<text transform="matrix(1 0 0 1 364.0195 70.5)"><tspan x="0" y="0" style="font-family:'ProductusSemibold'; font-size:7.98;">S2</tspan><tspan x="8.395" y="0" style="font-family:'ProductusSemibold'; font-size:7.98;">,</tspan><tspan x="10.493" y="0" style="font-family:'ProductusSemibold'; font-size:7.98;">U</tspan><tspan x="15.648" y="0" style="font-family:'ProductusSemibold'; font-size:7.98;">3</tspan><tspan x="19.662" y="0" style="font-family:'ProductusSemibold'; font-size:7.98;">,</tspan><tspan x="21.697" y="0" style="font-family:'ProductusSemibold'; font-size:7.98;">U</tspan><tspan x="26.844" y="0" style="font-family:'ProductusSemibold'; font-size:7.98;">4</tspan><tspan x="31.233" y="0" style="font-family:'ProductusSemibold'; font-size:7.98;">,S</tspan><tspan x="37.729" y="0" style="font-family:'ProductusSemibold'; font-size:7.98;">3</tspan></text>
<polyline points="201.78,78.96 201.24,79.02 201.36,78.96 200.82,79.14 200.88,79.14 200.4,79.38 200.46,79.32 200.22,79.5 
	200.28,79.44 199.92,79.8 199.98,79.74 199.8,79.979 199.86,79.92 199.62,80.4 199.62,80.34 199.44,80.88 199.5,80.76 199.44,81.3 
	199.44,81.24 199.44,153.54 199.44,153.479 199.5,154.02 199.44,153.96 199.62,154.5 199.62,154.38 199.86,154.86 199.8,154.8 
	199.98,155.04 199.92,154.979 200.28,155.34 200.22,155.28 200.7,155.64 200.64,155.64 200.88,155.76 200.76,155.7 201.3,155.82 
	201.24,155.82 201.78,155.88 201.72,155.88 288.18,155.88 288.12,155.88 288.72,155.82 288.66,155.82 289.2,155.7 289.08,155.76 
	289.32,155.64 289.26,155.64 289.5,155.46 289.439,155.52 289.68,155.28 289.92,155.1 289.859,155.16 290.04,154.979 289.979,155.1 
	290.1,154.86 290.1,154.8 290.28,154.56 290.28,154.62 290.399,154.38 290.34,154.5 290.46,153.96 290.46,154.02 290.52,153.479 
	290.52,153.54 290.52,117.42 291.54,117.42 291.54,153.6 291.479,154.14 291.479,154.2 291.359,154.74 291.18,155.1 291.12,155.16 
	290.939,155.4 291,155.34 290.88,155.58 290.58,155.88 290.52,155.94 290.28,156.12 290.34,156.06 290.1,156.3 289.859,156.479 
	289.8,156.54 289.439,156.72 288.899,156.84 288.84,156.84 288.24,156.9 201.66,156.9 201.12,156.84 201.06,156.84 200.52,156.72 
	200.16,156.54 200.1,156.479 199.62,156.12 199.2,155.7 199.14,155.64 198.96,155.4 198.96,155.34 198.72,154.86 198.66,154.8 
	198.48,154.26 198.48,154.14 198.42,153.6 198.42,81.18 198.48,80.64 198.48,80.58 198.66,80.04 198.96,79.44 198.96,79.38 
	199.14,79.14 199.2,79.08 199.38,78.9 199.62,78.66 199.86,78.479 199.92,78.479 200.52,78.18 201.06,78 201.12,78 201.66,77.94 "/>
<polyline points="290.52,117.42 290.52,81.24 290.52,81.3 290.46,80.76 290.46,80.82 290.34,80.28 290.399,80.4 290.28,80.16 
	290.28,80.22 290.1,79.979 290.1,79.92 289.979,79.68 290.04,79.8 289.859,79.62 289.92,79.68 289.68,79.5 289.439,79.26 
	289.56,79.38 289.08,79.14 289.2,79.14 288.66,78.96 288.72,79.02 288.12,78.96 288.18,78.96 201.72,78.96 201.78,78.96 
	201.66,77.94 288.24,77.94 288.84,78 288.96,78 289.5,78.18 289.56,78.24 290.16,78.54 290.34,78.72 290.28,78.66 290.52,78.84 
	290.58,78.9 290.88,79.2 291,79.44 290.939,79.38 291.12,79.62 291.18,79.68 291.359,80.04 291.479,80.58 291.479,80.64 
	291.54,81.18 291.54,117.42 "/>
<polyline style="fill-rule:evenodd;clip-rule:evenodd;fill:#B2B2B2;" points="223.02,120.96 222.42,121.02 221.88,121.14 
	221.399,121.44 220.979,121.74 220.62,122.16 220.38,122.7 220.2,123.18 220.14,123.78 220.14,146.46 220.2,147 220.38,147.54 
	220.62,148.02 220.979,148.44 221.399,148.8 221.88,149.04 222.42,149.22 223.02,149.28 245.7,149.28 246.24,149.22 246.78,149.04 
	247.26,148.8 247.68,148.44 248.04,148.02 248.28,147.54 248.46,147 248.52,146.46 248.52,123.78 248.46,123.18 248.28,122.7 
	248.04,122.16 247.68,121.74 247.26,121.44 246.78,121.14 246.24,121.02 245.7,120.96 223.02,120.96 "/>
<polyline style="fill:#8080FF;" points="223.08,121.2 222.479,121.26 221.939,121.38 222,121.38 221.52,121.68 221.58,121.68 
	221.16,121.979 221.16,121.92 220.8,122.34 220.859,122.28 220.62,122.82 220.439,123.3 220.439,123.24 220.38,123.84 
	220.38,123.78 220.38,146.46 220.439,147 220.439,146.94 220.62,147.479 220.62,147.42 220.859,147.9 220.8,147.9 221.16,148.32 
	221.16,148.26 221.58,148.62 221.52,148.62 222,148.86 222,148.8 222.54,148.979 222.479,148.979 223.08,149.04 223.02,149.04 
	245.7,149.04 246.24,148.979 246.18,148.979 246.72,148.8 246.66,148.86 247.14,148.62 247.56,148.26 247.5,148.32 247.859,147.9 
	248.1,147.42 248.04,147.479 248.22,146.94 248.22,147 248.28,146.46 248.28,123.78 248.28,123.84 248.22,123.24 248.28,123.3 
	248.1,122.82 247.859,122.28 247.859,122.34 247.5,121.92 247.56,121.979 247.14,121.68 246.66,121.38 246.72,121.38 246.18,121.26 
	246.24,121.26 245.7,121.2 223.02,121.2 223.02,120.72 245.76,120.72 246.3,120.78 246.84,120.9 246.899,120.96 247.38,121.26 
	247.439,121.26 247.859,121.56 247.859,121.62 248.22,122.04 248.28,122.1 248.52,122.64 248.7,123.12 248.7,123.18 248.76,123.78 
	248.76,146.52 248.7,147.06 248.7,147.12 248.52,147.66 248.28,148.14 248.22,148.2 247.859,148.62 247.439,148.979 247.38,149.04 
	246.899,149.28 246.359,149.46 246.3,149.46 245.76,149.52 223.02,149.52 222.42,149.46 222.359,149.46 221.82,149.28 
	221.76,149.28 221.28,149.04 221.28,148.979 220.859,148.62 220.8,148.62 220.439,148.2 220.439,148.14 220.2,147.66 220.14,147.66 
	219.96,147.12 219.96,147.06 219.899,146.52 219.899,123.78 219.96,123.18 220.02,123.12 220.2,122.64 220.439,122.1 
	220.439,122.04 220.8,121.62 220.859,121.56 221.28,121.26 221.76,120.96 221.82,120.9 222.359,120.78 222.42,120.78 223.02,120.72 
	"/>
<polyline style="fill:#8080FF;" points="223.02,121.2 223.08,121.2 223.02,120.72 "/>
<text transform="matrix(1 0 0 1 230.0996 137.5195)" style="font-family:'ProductusSemibold'; font-size:7.98;">U5</text>
<rect x="291.54" y="113.64" width="4.68" height="0.48"/>
<polyline points="295.859,116.58 296.1,116.16 291.66,113.64 291.42,113.64 291,113.88 291.42,114.06 "/>
<polyline points="291.42,113.64 291.66,114.06 296.1,111.479 295.859,111.06 "/>
<rect x="304.2" y="113.64" width="1.02" height="0.48"/>
<rect x="300" y="113.64" width="1.38" height="0.48"/>
<rect x="296.22" y="113.64" width="1.021" height="0.48"/>
<text transform="matrix(1 0 0 1 273.1201 94.9795)"><tspan x="0" y="0" style="font-family:'ProductusSemibold'; font-size:7.98;">S</tspan><tspan x="3.895" y="0" style="font-family:'ProductusSemibold'; font-size:7.98;">3</tspan></text>
<rect x="269.76" y="128.04" style="fill:#808080;" width="14.16" height="14.16"/>
<text transform="matrix(1 0 0 1 274.3799 137.5195)" style="fill:#FFFFFF; font-family:'ProductusSemibold'; font-size:7.98;">G</text>
<polyline style="fill-rule:evenodd;clip-rule:evenodd;fill:#FFFFFF;" points="205.979,106.74 205.979,120.96 220.14,113.88 "/>
<polyline points="206.22,106.74 206.22,120.96 206.1,121.2 205.859,120.78 220.02,113.7 220.26,113.7 220.74,113.94 220.26,114.12 
	206.1,121.2 205.74,121.38 205.74,106.74 "/>
<polyline points="220.02,114.12 205.859,106.979 205.74,106.74 205.74,106.38 206.1,106.56 220.26,113.7 "/>
<rect x="219.899" y="113.64" width="1.261" height="0.48"/>
<rect x="225.12" y="113.64" width="1.92" height="0.48"/>
<rect x="231" y="113.64" width="1.979" height="0.48"/>
<rect x="236.88" y="113.64" width="1.979" height="0.48"/>
<rect x="242.82" y="113.64" width="1.92" height="0.48"/>
<rect x="248.7" y="113.64" width="1.979" height="0.48"/>
<rect x="254.64" y="113.64" width="1.92" height="0.48"/>
<rect x="260.52" y="113.64" width="0.24" height="0.48"/>
<rect x="260.76" y="113.64" width="1.74" height="0.48"/>
<rect x="266.399" y="113.64" width="0.24" height="0.48"/>
<rect x="266.64" y="113.64" width="1.74" height="0.48"/>
<rect x="272.34" y="113.64" width="0.24" height="0.48"/>
<rect x="272.58" y="113.64" width="1.68" height="0.48"/>
<rect x="278.22" y="113.64" width="0.24" height="0.48"/>
<rect x="278.46" y="113.64" width="1.74" height="0.48"/>
<rect x="284.16" y="113.64" width="0.239" height="0.48"/>
<rect x="284.399" y="113.64" width="1.681" height="0.48"/>
<rect x="290.04" y="113.64" width="0.24" height="0.48"/>
<rect x="290.28" y="113.64" width="0.96" height="0.48"/>
<text transform="matrix(1 0 0 1 188.9399 52.5)"><tspan x="0" y="0" style="fill:#FFFFFF; font-family:'ProductusSemibold'; font-size:7.98;">S</tspan><tspan x="3.846" y="0" style="fill:#FFFFFF; font-family:'ProductusSemibold'; font-size:7.98;">I</tspan></text>
<text transform="matrix(1 0 0 1 168.5996 52.5)" style="fill:#FFFFFF; font-family:'ProductusSemibold'; font-size:7.98;">0</text>
<text transform="matrix(1 0 0 1 205.6201 104.3999)"><tspan x="0" y="0" style="font-family:'ProductusSemibold'; font-size:7.98;">S</tspan><tspan x="4.317" y="0" style="font-family:'ProductusSemibold'; font-size:7.98;">3</tspan><tspan x="8.275" y="0" style="font-family:'ProductusSemibold'; font-size:7.98;">,</tspan><tspan x="10.374" y="0" style="font-family:'ProductusSemibold'; font-size:7.98;">U</tspan><tspan x="15.528" y="0" style="font-family:'ProductusSemibold'; font-size:7.98;">5</tspan></text>
<rect x="100.2" y="49.8" width="4.68" height="0.48"/>
<polyline points="104.52,52.8 104.76,52.38 100.32,49.8 100.08,49.8 99.78,49.979 100.08,50.22 "/>
<polyline points="100.08,49.8 100.32,50.22 104.76,47.7 104.52,47.28 "/>
<rect x="112.86" y="49.8" width="1.02" height="0.48"/>
<rect x="108.66" y="49.8" width="1.38" height="0.48"/>
<rect x="104.88" y="49.8" width="1.02" height="0.48"/>
<rect x="249" y="134.88" width="4.68" height="0.48"/>
<polyline points="253.32,137.88 253.56,137.46 249.12,134.88 248.88,134.88 248.46,135.12 248.88,135.3 "/>
<polyline points="248.88,134.88 249.12,135.3 253.56,132.72 253.32,132.3 "/>
<rect x="261.66" y="134.88" width="1.02" height="0.48"/>
<rect x="257.52" y="134.88" width="1.38" height="0.48"/>
<rect x="253.68" y="134.88" width="1.021" height="0.48"/>
</svg>
