<?xml version="1.0" encoding="utf-8"?>
<!-- Generator: Adobe Illustrator 16.0.1, SVG Export Plug-In . SVG Version: 6.00 Build 0)  -->
<!DOCTYPE svg PUBLIC "-//W3C//DTD SVG 1.1//EN" "http://www.w3.org/Graphics/SVG/1.1/DTD/svg11.dtd">
<svg version="1.1" id="Layer_1" xmlns="http://www.w3.org/2000/svg" xmlns:xlink="http://www.w3.org/1999/xlink" x="0px" y="0px"
	 width="71.879px" height="64.8px" viewBox="0 0 71.879 64.8" enable-background="new 0 0 71.879 64.8" xml:space="preserve">
<polyline fill="#B2B2B2" points="3.3,28.8 2.76,28.86 2.22,29.04 1.74,29.28 1.32,29.64 0.96,30.06 0.72,30.54 0.54,31.08 
	0.479,31.62 0.479,61.38 0.54,61.98 0.72,62.52 0.96,63 1.32,63.419 1.74,63.781 2.22,64.02 2.76,64.201 3.3,64.259 68.52,64.259 
	69.06,64.201 69.6,64.02 70.081,63.781 70.5,63.419 70.859,63 71.161,62.52 71.28,61.98 71.34,61.38 71.34,31.62 71.28,31.08 
	71.161,30.54 70.859,30.06 70.5,29.64 70.081,29.28 69.6,29.04 69.06,28.86 68.52,28.8 3.3,28.8 "/>
<polyline fill="#8080FF" points="3.359,29.04 2.82,29.1 2.88,29.1 2.34,29.28 1.859,29.52 1.92,29.46 1.5,29.82 1.14,30.24 
	1.2,30.18 0.96,30.66 0.78,31.2 0.78,31.14 0.72,31.68 0.72,31.62 0.72,61.38 0.78,61.98 0.78,61.919 0.96,62.46 0.96,62.4 
	1.2,62.88 1.14,62.88 1.5,63.3 1.5,63.24 1.92,63.6 1.859,63.6 2.34,63.839 2.34,63.781 2.88,63.96 2.82,63.96 3.359,64.02 
	3.3,64.02 68.52,64.02 69.06,63.96 69,63.96 69.54,63.781 69.479,63.839 69.959,63.6 70.379,63.24 70.32,63.3 70.68,62.88 
	70.979,62.4 70.92,62.46 71.04,61.919 71.04,61.98 71.1,61.38 71.1,31.62 71.1,31.68 71.04,31.14 70.92,30.6 70.979,30.66 
	70.68,30.18 70.68,30.24 70.32,29.82 70.379,29.82 69.959,29.46 69.959,29.52 69.479,29.28 69.54,29.28 69,29.1 69.06,29.1 
	68.52,29.04 3.3,29.04 3.3,28.56 68.581,28.56 69.12,28.62 69.18,28.62 69.72,28.8 69.72,28.86 70.2,29.1 70.26,29.1 70.68,29.46 
	70.68,29.52 71.04,29.94 71.1,29.94 71.399,30.42 71.399,30.48 71.52,31.02 71.52,31.08 71.581,31.62 71.581,61.44 71.52,62.041 
	71.399,62.58 71.399,62.64 71.1,63.121 71.04,63.18 70.68,63.6 70.26,63.96 70.2,64.02 69.72,64.259 69.18,64.44 69.12,64.44 
	68.581,64.5 3.3,64.5 2.76,64.44 2.7,64.44 2.16,64.259 2.1,64.259 1.62,64.02 1.62,63.96 1.2,63.6 1.14,63.6 0.78,63.18 
	0.78,63.121 0.54,62.64 0.479,62.64 0.3,62.1 0.3,62.041 0.24,61.44 0.24,31.62 0.3,31.08 0.3,31.02 0.479,30.48 0.54,30.42 
	0.78,29.94 1.14,29.52 1.2,29.46 1.62,29.1 2.1,28.86 2.16,28.8 2.7,28.62 2.76,28.62 3.3,28.56 "/>
<polyline fill="#8080FF" points="3.3,29.04 3.359,29.04 3.3,28.56 "/>
<polyline points="3.359,1.02 2.82,1.08 2.88,1.08 2.34,1.2 2.46,1.14 2.22,1.26 2.28,1.2 2.04,1.38 1.979,1.44 1.74,1.56 1.92,1.38 
	1.74,1.62 1.5,1.86 1.56,1.8 1.38,2.04 1.26,2.22 1.32,2.1 1.2,2.4 1.02,2.88 1.08,2.76 1.02,3.36 1.02,3.3 1.02,61.38 1.02,61.32 
	1.08,61.919 1.02,61.86 1.2,62.4 1.2,62.281 1.439,62.759 1.38,62.701 1.56,62.94 1.5,62.88 1.859,63.24 1.8,63.18 2.04,63.36 
	1.979,63.36 2.46,63.6 2.399,63.541 2.939,63.72 2.82,63.72 3.359,63.781 3.3,63.781 68.52,63.781 68.459,63.781 69,63.72 
	68.939,63.72 69.479,63.541 69.359,63.6 69.84,63.36 69.78,63.36 70.02,63.18 69.959,63.24 70.32,62.88 70.26,62.94 70.62,62.46 
	70.62,62.52 70.741,62.281 70.68,62.4 70.799,61.86 70.799,61.919 70.859,61.32 70.859,61.38 70.859,32.34 71.879,32.34 
	71.879,61.44 71.82,62.041 71.82,62.1 71.7,62.64 71.52,63 71.459,63.06 71.1,63.541 70.62,64.02 70.379,64.201 70.32,64.259 
	69.84,64.5 69.78,64.5 69.241,64.68 69.12,64.74 68.581,64.8 3.24,64.8 2.7,64.74 2.64,64.68 2.1,64.5 1.979,64.5 1.5,64.259 
	1.439,64.201 1.2,64.02 1.14,63.96 0.72,63.541 0.54,63.3 0.54,63.24 0.3,62.759 0.24,62.701 0.06,62.16 0.06,62.041 0,61.44 
	0,3.24 0.06,2.64 0.06,2.52 0.24,2.04 0.359,1.74 0.42,1.68 0.54,1.5 0.54,1.44 0.72,1.2 0.78,1.14 0.96,0.96 0.899,1.02 1.08,0.78 
	1.26,0.66 1.5,0.54 1.439,0.54 1.68,0.36 1.74,0.36 2.1,0.18 2.64,0.06 2.7,0.06 3.24,0 "/>
<polyline points="70.859,32.34 70.859,3.3 70.859,3.36 70.799,2.76 70.799,2.82 70.68,2.34 70.68,2.4 70.56,2.1 70.68,2.28 
	70.439,2.04 70.26,1.8 70.32,1.86 70.081,1.62 69.899,1.38 70.081,1.56 69.84,1.44 69.78,1.38 69.54,1.2 69.6,1.26 69.359,1.14 
	69.479,1.2 68.939,1.08 69,1.08 68.459,1.02 68.52,1.02 3.3,1.02 3.359,1.02 3.24,0 68.581,0 69.12,0.06 69.18,0.06 69.72,0.18 
	70.081,0.36 70.14,0.36 70.379,0.54 70.32,0.54 70.56,0.66 70.741,0.78 70.92,1.02 70.859,0.96 71.04,1.14 71.1,1.2 71.28,1.44 
	71.22,1.38 71.399,1.56 71.52,1.74 71.64,2.04 71.64,2.1 71.76,2.58 71.82,2.64 71.879,3.24 71.879,32.34 "/>
<text transform="matrix(1 0 0 1 28.5996 58.3794)" font-family="'ProductusSemibold'" font-size="7.98">Root</text>
<polyline fill="#FFFFFF" points="28.859,7.56 43.02,7.56 35.939,21.72 "/>
<polyline points="28.859,7.32 43.439,7.32 36.18,21.84 36,22.26 35.76,21.84 35.76,21.6 42.84,7.44 43.26,7.68 43.02,7.8 
	28.859,7.8 "/>
<polyline points="35.76,21.84 28.5,7.32 28.859,7.32 29.1,7.44 36.18,21.6 "/>
<rect x="35.7" y="21.48" width="0.479" height="14.641"/>
<text transform="matrix(1 0 0 1 33.8994 14.1597)" font-family="'ProductusSemibold'" font-size="7.98">R</text>
<rect x="7.56" y="35.88" fill="#808080" width="14.16" height="14.16"/>
<text transform="matrix(1 0 0 1 12.4795 45.3599)" fill="#FFFFFF" font-family="'ProductusOSGiMonoc'" font-size="7.98">0</text>
<text transform="matrix(1 0 0 1 12.4795 45.3599)" fill="none" stroke="#FFFFFF" stroke-width="0.12" stroke-miterlimit="10" font-family="'ProductusOSGiMonoc'" font-size="7.98">0</text>
<rect x="28.859" y="35.88" fill="#808080" width="14.16" height="14.16"/>
<text transform="matrix(1 0 0 1 31.5 45.3599)" fill="#FFFFFF" font-family="'ProductusOSGiMonoc'" font-size="7.98">S</text>
<text transform="matrix(1 0 0 1 31.5 45.3599)" fill="none" stroke="#FFFFFF" stroke-width="0.12" stroke-miterlimit="10" font-family="'ProductusOSGiMonoc'" font-size="7.98">S</text>
<text transform="matrix(1 0 0 1 35.9395 45.3599)" fill="#FFFFFF" font-family="'ProductusOSGiMonoc'" font-size="7.98">I</text>
<text transform="matrix(1 0 0 1 35.9395 45.3599)" fill="none" stroke="#FFFFFF" stroke-width="0.12" stroke-miterlimit="10" font-family="'ProductusOSGiMonoc'" font-size="7.98">I</text>
<rect x="50.1" y="35.88" fill="#808080" width="14.16" height="14.16"/>
<text transform="matrix(1 0 0 1 54.9595 45.3599)" fill="#FFFFFF" font-family="'ProductusOSGiMonoc'" font-size="7.98">A</text>
<text transform="matrix(1 0 0 1 54.9595 45.3599)" fill="none" stroke="#FFFFFF" stroke-width="0.12" stroke-miterlimit="10" font-family="'ProductusOSGiMonoc'" font-size="7.98">A</text>
</svg>
