<?xml version="1.0" encoding="utf-8"?>
<!-- Generator: Adobe Illustrator 16.0.0, SVG Export Plug-In . SVG Version: 6.00 Build 0)  -->
<!DOCTYPE svg PUBLIC "-//W3C//DTD SVG 1.1//EN" "http://www.w3.org/Graphics/SVG/1.1/DTD/svg11.dtd">
<svg version="1.1" id="Layer_1" xmlns="http://www.w3.org/2000/svg" xmlns:xlink="http://www.w3.org/1999/xlink" x="0px" y="0px"
	 width="263.605px" height="78.96px" viewBox="0 0 263.605 78.96" style="enable-background:new 0 0 263.605 78.96;"
	 xml:space="preserve">
<polyline style="fill:#B2B2B2;" points="3.3,0.48 2.76,0.48 2.22,0.66 1.74,0.96 1.32,1.26 0.96,1.68 0.72,2.16 0.54,2.7 0.48,3.3 
	0.48,11.76 0.54,12.36 0.72,12.9 0.96,13.38 1.32,13.8 1.74,14.16 2.22,14.4 2.76,14.58 3.3,14.64 167.7,14.64 168.299,14.58 
	168.839,14.4 169.32,14.16 169.74,13.8 170.04,13.38 170.339,12.9 170.52,12.36 170.58,11.76 170.58,3.3 170.52,2.7 170.339,2.16 
	170.04,1.68 169.74,1.26 169.32,0.96 168.839,0.66 168.299,0.48 3.3,0.48 "/>
<polyline style="fill:#8080FF;" points="3.3,0.72 2.76,0.72 2.88,0.72 2.34,0.9 1.86,1.2 1.92,1.2 1.5,1.5 1.5,1.44 1.14,1.86 
	1.2,1.8 0.96,2.28 0.78,2.82 0.78,2.76 0.72,3.36 0.72,3.3 0.72,11.76 0.78,12.36 0.78,12.3 0.96,12.84 0.96,12.78 1.2,13.26 
	1.14,13.26 1.5,13.68 1.5,13.62 1.92,13.98 1.86,13.98 2.34,14.22 2.34,14.16 2.88,14.34 2.82,14.34 3.36,14.4 3.3,14.4 167.7,14.4 
	168.299,14.34 168.24,14.34 168.78,14.16 168.72,14.22 169.2,13.98 169.62,13.62 169.56,13.68 169.86,13.26 170.16,12.78 
	170.1,12.84 170.28,12.3 170.28,12.36 170.339,11.76 170.339,3.3 170.339,3.36 170.28,2.76 170.28,2.82 170.1,2.28 170.16,2.28 
	169.86,1.8 169.86,1.86 169.56,1.44 169.62,1.5 169.2,1.2 168.72,0.9 168.78,0.9 168.24,0.72 168.299,0.72 3.3,0.72 3.3,0.24 
	168.419,0.24 168.959,0.42 168.959,0.48 169.44,0.78 169.5,0.78 169.919,1.08 169.98,1.14 170.28,1.56 170.58,2.04 170.58,2.1 
	170.76,2.64 170.76,2.7 170.82,3.3 170.82,11.82 170.76,12.42 170.76,12.48 170.58,13.02 170.28,13.5 170.28,13.56 169.98,13.98 
	169.919,13.98 169.5,14.34 169.44,14.4 168.959,14.64 168.419,14.82 168.36,14.82 167.76,14.88 3.3,14.88 2.76,14.82 2.7,14.82 
	2.16,14.64 2.1,14.64 1.62,14.4 1.62,14.34 1.2,13.98 1.14,13.98 0.78,13.56 0.78,13.5 0.54,13.02 0.48,13.02 0.3,12.48 0.3,12.42 
	0.24,11.82 0.24,3.3 0.3,2.7 0.3,2.64 0.48,2.1 0.54,2.04 0.78,1.56 1.14,1.14 1.2,1.08 1.62,0.78 2.1,0.48 2.16,0.42 2.7,0.24 
	3.3,0.24 "/>
<line style="fill:none;" x1="3.3" y1="0.72" x2="3.3" y2="0.24"/>
<text transform="matrix(1 0 0 1 78.1804 11.3394)" style="font-family:'ProductusSemibold'; font-size:7.98;"> </text>
<text transform="matrix(1 0 0 1 80.1594 11.3394)" style="font-family:'ProductusSemibold'; font-size:7.98;">R</text>
<text transform="matrix(1 0 0 1 84.4124 11.3394)" style="font-family:'ProductusSemibold'; font-size:7.98;">o</text>
<text transform="matrix(1 0 0 1 88.7854 11.3394)" style="font-family:'ProductusSemibold'; font-size:7.98;">o</text>
<text transform="matrix(1 0 0 1 93.1023 11.3394)" style="font-family:'ProductusSemibold'; font-size:7.98;">t</text>
<text transform="matrix(1 0 0 1 232.8596 7.8599)" style="font-family:'ProductusBook'; font-size:7.98;">subsyste</text>
<text transform="matrix(1 0 0 1 257.8538 7.8599)" style="font-family:'ProductusBook'; font-size:7.98;">m</text>
<polyline style="fill:#B2B2B2;" points="216.9,4.02 216.72,4.08 216.6,4.26 216.6,10.8 216.72,10.98 216.9,11.1 223.44,11.1 
	223.62,10.98 223.68,10.8 223.68,4.26 223.62,4.08 223.44,4.02 216.9,4.02 "/>
<polyline style="fill:#8080FF;" points="217.02,4.26 216.839,4.32 216.959,4.2 216.839,4.38 216.839,4.26 216.839,10.8 
	216.839,10.68 216.959,10.86 216.839,10.8 217.02,10.92 216.9,10.86 223.44,10.86 223.32,10.92 223.5,10.8 223.379,10.92 
	223.44,10.74 223.44,10.8 223.44,4.26 223.44,4.38 223.379,4.2 223.56,4.32 223.379,4.26 223.44,4.26 216.9,4.26 216.9,3.78 
	223.56,3.78 223.74,3.84 223.86,4.02 223.919,4.2 223.919,10.92 223.86,11.1 223.74,11.22 223.56,11.34 216.78,11.34 216.6,11.22 
	216.54,11.1 216.419,10.92 216.36,10.8 216.36,4.26 216.419,4.14 216.54,3.96 216.66,3.84 216.839,3.78 "/>
<polyline style="fill:#8080FF;" points="216.9,4.26 217.02,4.26 216.839,3.78 216.9,3.78 "/>
<polyline points="3.3,1.02 2.76,1.02 2.94,0.96 2.4,1.14 2.46,1.14 2.22,1.26 2.28,1.2 2.04,1.38 1.98,1.44 1.74,1.56 1.86,1.44 
	1.68,1.62 1.74,1.56 1.56,1.8 1.32,2.04 1.44,1.92 1.2,2.4 1.2,2.34 1.02,2.88 1.08,2.76 1.02,3.36 1.02,3.3 1.02,47.22 1.02,47.16 
	1.08,47.759 1.02,47.64 1.2,48.121 1.32,48.419 1.26,48.36 1.38,48.541 1.38,48.48 1.56,48.72 1.5,48.66 1.74,48.9 1.92,49.14 
	1.74,49.02 1.98,49.14 2.04,49.14 2.28,49.32 2.22,49.32 2.46,49.44 2.34,49.38 2.88,49.5 2.82,49.5 3.36,49.56 3.3,49.56 
	167.7,49.56 167.64,49.56 168.24,49.5 168.18,49.5 168.72,49.38 168.6,49.44 168.839,49.32 168.78,49.32 169.02,49.14 169.08,49.14 
	169.26,49.02 169.14,49.08 169.56,48.66 169.5,48.781 169.68,48.419 169.86,48.24 169.74,48.419 169.86,48.121 170.04,47.64 
	170.04,47.759 170.1,47.16 170.1,47.22 170.1,25.26 171.12,25.26 171.12,47.281 171.06,47.88 171,48 170.82,48.48 170.7,48.781 
	170.58,48.96 170.4,49.14 170.52,49.02 170.4,49.259 169.799,49.86 169.62,49.98 169.379,50.16 169.32,50.22 168.959,50.4 
	168.419,50.52 168.36,50.52 167.76,50.58 3.24,50.58 2.7,50.52 2.64,50.52 2.1,50.4 1.74,50.22 1.68,50.16 1.44,49.98 1.5,50.041 
	1.26,49.919 1.08,49.74 0.9,49.5 0.96,49.56 0.72,49.32 0.54,49.08 0.42,48.9 0.36,48.781 0.24,48.48 0.06,48 0.06,47.88 0,47.281 
	0,3.24 0.06,2.64 0.06,2.58 0.24,2.04 0.6,1.32 0.78,1.14 0.72,1.2 0.9,0.96 1.14,0.72 1.5,0.54 1.44,0.54 1.68,0.36 1.74,0.36 
	2.1,0.18 2.64,0 3.3,0 "/>
<polyline points="170.1,25.26 170.1,3.3 170.1,3.36 170.04,2.76 170.04,2.88 169.86,2.34 169.919,2.4 169.799,2.16 169.799,2.22 
	169.62,1.98 169.5,1.8 169.32,1.56 169.44,1.68 169.2,1.5 169.26,1.5 169.08,1.38 169.02,1.38 168.78,1.2 168.839,1.26 168.6,1.14 
	168.72,1.14 168.18,0.96 168.299,1.02 3.3,1.02 3.3,0 168.48,0 169.02,0.18 169.08,0.24 169.32,0.36 169.379,0.36 169.62,0.54 
	169.799,0.66 170.04,0.84 170.16,0.96 170.339,1.2 170.339,1.26 170.459,1.44 170.459,1.38 170.64,1.62 170.7,1.68 170.82,1.92 
	170.82,2.04 171,2.58 171.06,2.64 171.12,3.24 171.12,25.26 "/>
<rect x="64.02" y="59.041" width="0.48" height="4.68"/>
<polyline points="67.02,59.4 66.6,59.16 64.02,63.6 64.02,63.839 64.26,64.259 64.44,63.839 "/>
<polyline points="64.02,63.839 64.44,63.6 61.86,59.16 61.44,59.4 "/>
<rect x="64.02" y="35.88" width="0.48" height="1.02"/>
<rect x="64.02" y="40.74" width="0.48" height="1.92"/>
<rect x="64.02" y="46.5" width="0.48" height="1.92"/>
<rect x="64.02" y="52.259" width="0.48" height="1.921"/>
<rect x="64.02" y="58.02" width="0.48" height="1.021"/>
<polyline style="fill:#B2B2B2;" points="116.7,28.8 116.1,28.86 115.56,29.04 115.08,29.28 114.66,29.64 114.36,30.06 114.06,30.54 
	113.94,31.08 113.879,31.62 113.879,40.14 113.94,40.68 114.06,41.22 114.36,41.701 114.66,42.121 115.08,42.48 115.56,42.72 
	116.1,42.9 116.7,42.96 125.22,42.96 125.76,42.9 126.299,42.72 126.78,42.48 127.2,42.121 127.56,41.701 127.799,41.22 
	127.98,40.68 128.04,40.14 128.04,31.62 127.98,31.08 127.799,30.54 127.56,30.06 127.2,29.64 126.78,29.28 126.299,29.04 
	125.76,28.86 125.22,28.8 116.7,28.8 "/>
<polyline style="fill:#8080FF;" points="116.76,29.04 116.16,29.1 116.22,29.1 115.68,29.28 115.2,29.52 115.26,29.46 
	114.839,29.82 114.9,29.82 114.6,30.24 114.6,30.18 114.299,30.66 114.299,30.6 114.18,31.14 114.12,31.68 114.12,31.62 
	114.12,40.14 114.18,40.68 114.18,40.621 114.299,41.16 114.299,41.1 114.6,41.58 114.9,42 114.839,41.94 115.26,42.3 115.2,42.3 
	115.68,42.541 115.68,42.48 116.22,42.66 116.16,42.66 116.76,42.72 116.7,42.72 125.22,42.72 125.76,42.66 125.7,42.66 
	126.24,42.48 126.18,42.541 126.66,42.3 127.08,41.94 127.02,42 127.379,41.58 127.62,41.1 127.56,41.16 127.74,40.621 
	127.74,40.68 127.799,40.14 127.799,31.62 127.799,31.68 127.74,31.14 127.74,31.2 127.56,30.66 127.62,30.66 127.379,30.18 
	127.379,30.24 127.02,29.82 127.08,29.82 126.66,29.46 126.66,29.52 126.18,29.28 126.24,29.28 125.7,29.1 125.76,29.1 
	125.22,29.04 116.7,29.04 116.7,28.56 125.28,28.56 125.82,28.62 125.879,28.62 126.419,28.8 126.419,28.86 126.9,29.1 
	126.959,29.1 127.379,29.46 127.379,29.52 127.74,29.94 127.799,29.94 128.04,30.42 128.04,30.48 128.22,31.02 128.22,31.08 
	128.28,31.62 128.28,40.201 128.22,40.74 128.22,40.8 128.04,41.339 127.799,41.82 127.74,41.88 127.379,42.3 126.959,42.66 
	126.9,42.72 126.419,42.96 125.879,43.14 125.82,43.14 125.28,43.201 116.7,43.201 116.1,43.14 116.04,43.14 115.5,42.96 
	115.44,42.96 114.959,42.72 114.959,42.66 114.54,42.3 114.48,42.3 114.18,41.88 114.18,41.82 113.879,41.339 113.82,41.281 
	113.7,40.74 113.64,40.201 113.64,31.62 113.7,31.08 113.7,31.02 113.82,30.48 113.879,30.42 114.18,29.94 114.48,29.52 
	114.54,29.46 114.959,29.1 115.44,28.86 115.5,28.8 116.04,28.62 116.1,28.62 116.7,28.56 "/>
<polyline style="fill:#8080FF;" points="116.7,29.04 116.76,29.04 116.7,28.56 "/>
<rect x="120.72" y="23.58" width="0.479" height="4.74"/>
<polyline points="123.72,24 123.299,23.76 120.72,28.2 120.72,28.44 120.959,28.86 121.14,28.44 "/>
<polyline points="120.72,28.44 121.14,28.2 118.56,23.76 118.14,24 "/>
<rect x="120.72" y="14.64" width="0.479" height="0.96"/>
<rect x="120.72" y="18.42" width="0.479" height="1.38"/>
<rect x="120.72" y="22.62" width="0.479" height="0.96"/>
<text transform="matrix(1 0 0 1 117.1199 38.2798)" style="font-family:'ProductusSemibold'; font-size:7.98;">S</text>
<text transform="matrix(1 0 0 1 120.967 38.2798)" style="font-family:'ProductusSemibold'; font-size:7.98;">2</text>
<polyline style="fill:#B2B2B2;" points="17.46,64.259 16.92,64.259 16.38,64.44 15.9,64.74 15.48,65.041 15.12,65.46 14.88,65.94 
	14.7,66.48 14.64,67.08 14.64,75.601 14.7,76.141 14.88,76.681 15.12,77.16 15.48,77.58 15.9,77.94 16.38,78.181 16.92,78.36 
	17.46,78.419 25.98,78.419 26.58,78.36 27.06,78.181 27.54,77.94 27.96,77.58 28.32,77.16 28.62,76.681 28.74,76.141 28.8,75.601 
	28.8,67.08 28.74,66.48 28.62,65.94 28.32,65.46 27.96,65.041 27.54,64.74 27.06,64.44 26.58,64.259 17.46,64.259 "/>
<polyline style="fill:#8080FF;" points="17.46,64.5 16.92,64.5 17.04,64.5 16.5,64.68 16.02,64.98 16.08,64.98 15.66,65.281 
	15.66,65.22 15.3,65.64 15.36,65.58 15.12,66.06 14.94,66.6 14.94,66.541 14.88,67.14 14.88,67.08 14.88,75.601 14.94,76.141 
	14.94,76.08 15.12,76.621 15.12,76.561 15.36,77.041 15.3,77.041 15.66,77.46 15.66,77.4 16.08,77.759 16.02,77.759 16.5,78 
	16.5,77.94 17.04,78.121 16.98,78.121 17.52,78.181 17.46,78.181 25.98,78.181 26.58,78.121 26.52,78.181 27,78 26.94,78 
	27.42,77.759 27.84,77.4 27.78,77.46 28.14,77.041 28.44,76.561 28.38,76.621 28.5,76.08 28.5,76.141 28.56,75.601 28.56,67.08 
	28.56,67.14 28.5,66.541 28.38,66 28.44,66.06 28.14,65.58 28.14,65.64 27.78,65.22 27.84,65.281 27.42,64.98 26.94,64.68 27,64.68 
	26.52,64.5 26.58,64.5 17.46,64.5 17.46,64.02 26.58,64.02 26.7,64.08 27.18,64.259 27.66,64.56 27.72,64.56 28.14,64.86 
	28.14,64.919 28.5,65.339 28.56,65.339 28.86,65.82 28.86,65.88 28.98,66.419 28.98,66.48 29.04,67.08 29.04,75.66 28.98,76.201 
	28.86,76.74 28.86,76.8 28.56,77.281 28.5,77.339 28.14,77.759 27.72,78.121 27.66,78.181 27.18,78.419 26.7,78.601 26.64,78.601 
	26.04,78.66 17.46,78.66 16.92,78.601 16.86,78.601 16.32,78.419 16.26,78.419 15.78,78.181 15.78,78.121 15.36,77.759 15.3,77.759 
	14.94,77.339 14.94,77.281 14.7,76.8 14.64,76.8 14.46,76.259 14.46,76.201 14.4,75.66 14.4,67.08 14.46,66.48 14.46,66.419 
	14.64,65.88 14.7,65.82 14.94,65.339 15.3,64.919 15.36,64.86 15.78,64.56 16.26,64.259 16.32,64.201 16.86,64.02 17.46,64.02 "/>
<line style="fill:none;" x1="17.46" y1="64.5" x2="17.46" y2="64.02"/>
<text transform="matrix(1 0 0 1 18.0002 73.7397)" style="font-family:'ProductusSemibold'; font-size:7.98;">S</text>
<text transform="matrix(1 0 0 1 21.8943 73.7397)" style="font-family:'ProductusSemibold'; font-size:7.98;">3</text>
<polyline style="fill:#B2B2B2;" points="60,64.259 59.4,64.259 58.92,64.44 58.44,64.74 58.02,65.041 57.66,65.46 57.36,65.94 
	57.24,66.48 57.18,67.08 57.18,75.601 57.24,76.141 57.36,76.681 57.66,77.16 58.02,77.58 58.44,77.94 58.92,78.181 59.4,78.36 
	60,78.419 68.52,78.419 69.06,78.36 69.6,78.181 70.08,77.94 70.5,77.58 70.86,77.16 71.1,76.681 71.28,76.141 71.34,75.601 
	71.34,67.08 71.28,66.48 71.1,65.94 70.86,65.46 70.5,65.041 70.08,64.74 69.6,64.44 69.06,64.259 60,64.259 "/>
<polyline style="fill:#8080FF;" points="60,64.5 59.4,64.5 59.52,64.5 59.04,64.68 58.56,64.98 58.62,64.98 58.2,65.281 58.2,65.22 
	57.84,65.64 57.9,65.58 57.6,66.06 57.6,66 57.48,66.541 57.42,67.14 57.42,67.08 57.42,75.601 57.48,76.141 57.48,76.08 
	57.6,76.621 57.6,76.561 57.9,77.041 57.84,77.041 58.2,77.46 58.2,77.4 58.62,77.759 58.56,77.759 59.04,78 59.52,78.181 
	59.46,78.121 60.06,78.181 60,78.181 68.52,78.181 69.06,78.121 69,78.121 69.54,77.94 69.48,78 69.96,77.759 70.38,77.4 
	70.32,77.46 70.68,77.041 70.92,76.561 70.86,76.621 71.04,76.08 71.04,76.141 71.1,75.601 71.1,67.08 71.1,67.14 71.04,66.541 
	71.04,66.6 70.86,66.06 70.92,66.06 70.68,65.58 70.68,65.64 70.32,65.22 70.38,65.281 69.96,64.98 69.48,64.68 69.54,64.68 
	69,64.5 69.06,64.5 60,64.5 60,64.02 69.18,64.02 69.72,64.201 69.72,64.259 70.2,64.56 70.26,64.56 70.68,64.86 70.68,64.919 
	71.04,65.339 71.1,65.339 71.34,65.82 71.34,65.88 71.52,66.419 71.52,66.48 71.58,67.08 71.58,75.66 71.52,76.201 71.52,76.259 
	71.34,76.8 71.1,77.281 71.04,77.339 70.68,77.759 70.26,78.121 70.2,78.181 69.72,78.419 69.18,78.601 69.12,78.601 68.58,78.66 
	60,78.66 59.4,78.601 59.34,78.601 58.86,78.419 58.8,78.419 58.32,78.181 58.32,78.121 57.9,77.759 57.84,77.759 57.48,77.339 
	57.48,77.281 57.18,76.8 57.12,76.74 57,76.201 56.94,75.66 56.94,67.08 57,66.48 57,66.419 57.12,65.88 57.18,65.82 57.48,65.339 
	57.84,64.919 57.9,64.86 58.32,64.56 58.8,64.259 58.86,64.259 59.34,64.08 59.4,64.02 60,64.02 "/>
<line style="fill:none;" x1="60" y1="64.5" x2="60" y2="64.02"/>
<text transform="matrix(1 0 0 1 60.3 73.7397)" style="font-family:'ProductusSemibold'; font-size:7.98;">S</text>
<text transform="matrix(1 0 0 1 64.1462 73.7397)" style="font-family:'ProductusSemibold'; font-size:7.98;">4</text>
<polyline points="60,64.8 59.4,64.8 59.58,64.74 59.1,64.919 58.8,65.041 58.98,64.919 58.68,65.22 58.44,65.339 58.56,65.22 
	58.38,65.4 58.44,65.339 58.26,65.58 58.02,65.82 58.08,65.759 57.9,66 57.96,65.94 57.84,66.18 57.9,66.06 57.78,66.6 
	57.78,66.541 57.72,67.14 57.72,67.08 57.72,75.601 57.72,75.541 57.78,76.08 57.78,76.021 57.9,76.561 57.84,76.44 57.96,76.681 
	57.9,76.621 58.26,77.101 58.2,77.041 58.56,77.4 58.5,77.339 58.74,77.521 58.92,77.641 58.8,77.58 59.1,77.701 59.58,77.88 
	59.46,77.88 60.06,77.94 60,77.94 68.52,77.94 68.46,77.94 69,77.88 68.94,77.88 69.48,77.701 69.36,77.759 69.84,77.521 
	69.78,77.521 70.02,77.339 69.96,77.4 70.32,77.041 70.26,77.101 70.44,76.86 70.44,76.919 70.68,76.44 70.62,76.561 70.8,76.021 
	70.8,76.08 70.86,75.541 70.86,75.601 70.86,71.339 71.88,71.339 71.88,75.66 71.82,76.201 71.76,76.32 71.58,76.86 71.58,76.919 
	71.34,77.4 71.28,77.46 71.1,77.701 70.62,78.181 70.38,78.36 70.32,78.419 70.08,78.541 69.84,78.66 69.78,78.66 69.24,78.839 
	69.12,78.9 68.58,78.96 59.94,78.96 59.34,78.9 59.22,78.839 58.74,78.66 58.44,78.541 58.38,78.48 58.2,78.36 58.14,78.36 
	57.9,78.181 57.42,77.701 57.06,77.221 57.06,77.16 56.88,76.8 56.76,76.259 56.76,76.201 56.7,75.66 56.7,67.02 56.76,66.419 
	56.76,66.36 56.88,65.82 57.06,65.46 57.06,65.4 57.24,65.16 57.48,64.919 57.42,64.98 57.6,64.74 57.84,64.5 58.2,64.32 
	58.08,64.38 58.26,64.201 58.44,64.08 58.74,63.96 59.22,63.781 60,63.781 "/>
<polyline points="70.86,71.339 70.86,67.08 70.86,67.14 70.8,66.541 70.8,66.66 70.62,66.121 70.68,66.18 70.44,65.701 70.5,65.82 
	70.26,65.58 70.08,65.339 70.14,65.4 69.96,65.22 70.08,65.339 69.84,65.22 69.78,65.16 69.54,64.98 69.6,65.041 69.36,64.919 
	69.48,64.919 68.94,64.74 69.06,64.8 60,64.8 60,63.781 69.24,63.781 69.78,63.96 69.84,64.02 70.08,64.14 70.14,64.14 70.38,64.32 
	70.32,64.32 70.56,64.44 70.68,64.5 70.86,64.68 70.92,64.74 71.1,64.98 71.04,64.919 71.34,65.22 71.58,65.701 71.58,65.82 
	71.76,66.36 71.82,66.419 71.88,67.02 71.88,71.339 "/>
<rect x="21.48" y="59.041" width="0.48" height="4.68"/>
<polyline points="24.48,59.4 24.06,59.16 21.48,63.6 21.48,63.839 21.72,64.259 21.9,63.839 "/>
<polyline points="21.48,63.839 21.9,63.6 19.32,59.16 18.9,59.4 "/>
<rect x="21.48" y="35.88" width="0.48" height="1.02"/>
<rect x="21.48" y="40.74" width="0.48" height="1.92"/>
<rect x="21.48" y="46.5" width="0.48" height="1.92"/>
<rect x="21.48" y="52.259" width="0.48" height="1.921"/>
<rect x="21.48" y="58.02" width="0.48" height="1.021"/>
<rect x="21.72" y="35.64" width="1.021" height="0.48"/>
<rect x="26.76" y="35.64" width="2.04" height="0.48"/>
<rect x="32.88" y="35.64" width="1.979" height="0.48"/>
<rect x="38.94" y="35.64" width="2.04" height="0.48"/>
<rect x="45" y="35.64" width="2.04" height="0.48"/>
<rect x="51.12" y="35.64" width="1.979" height="0.48"/>
<rect x="57.18" y="35.64" width="2.04" height="0.48"/>
<rect x="63.24" y="35.64" width="1.02" height="0.48"/>
<rect x="42.72" y="23.58" width="0.48" height="4.74"/>
<polyline points="45.72,24 45.3,23.76 42.72,28.2 42.72,28.44 42.9,28.74 43.14,28.44 "/>
<polyline points="42.72,28.44 43.14,28.2 40.62,23.76 40.2,24 "/>
<rect x="42.72" y="14.64" width="0.48" height="0.96"/>
<rect x="42.72" y="18.42" width="0.48" height="1.38"/>
<rect x="42.72" y="22.62" width="0.48" height="0.96"/>
<polyline style="fill:#B2B2B2;" points="38.76,28.8 38.16,28.86 37.62,29.04 37.14,29.28 36.72,29.64 36.36,30.06 36.12,30.54 
	35.94,31.08 35.88,31.62 35.88,40.14 35.94,40.68 36.12,41.22 36.36,41.701 36.72,42.121 37.14,42.48 37.62,42.72 38.16,42.9 
	38.76,42.96 47.22,42.96 47.82,42.9 48.36,42.72 48.84,42.48 49.26,42.121 49.62,41.701 49.86,41.22 50.04,40.68 50.1,40.14 
	50.1,31.62 50.04,31.08 49.86,30.54 49.62,30.06 49.26,29.64 48.84,29.28 48.36,29.04 47.82,28.86 47.22,28.8 38.76,28.8 "/>
<polyline style="fill:#8080FF;" points="38.82,29.04 38.22,29.1 38.28,29.1 37.74,29.28 37.26,29.52 37.32,29.46 36.9,29.82 
	36.54,30.24 36.6,30.18 36.36,30.66 36.18,31.2 36.18,31.14 36.12,31.68 36.12,31.62 36.12,40.14 36.18,40.68 36.18,40.621 
	36.36,41.16 36.36,41.1 36.6,41.58 36.54,41.58 36.9,42 36.9,41.94 37.32,42.3 37.26,42.3 37.74,42.541 37.74,42.48 38.28,42.66 
	38.22,42.66 38.82,42.72 38.76,42.72 47.22,42.72 47.82,42.66 47.76,42.66 48.3,42.48 48.24,42.541 48.72,42.3 49.14,41.94 
	49.08,42 49.44,41.58 49.68,41.1 49.62,41.16 49.8,40.621 49.8,40.68 49.86,40.14 49.86,31.62 49.86,31.68 49.8,31.14 49.8,31.2 
	49.62,30.66 49.68,30.66 49.44,30.18 49.44,30.24 49.08,29.82 49.14,29.82 48.72,29.46 48.72,29.52 48.24,29.28 48.3,29.28 
	47.76,29.1 47.82,29.1 47.22,29.04 38.76,29.04 38.76,28.56 47.28,28.56 47.88,28.62 47.94,28.62 48.48,28.8 48.48,28.86 
	48.96,29.1 49.02,29.1 49.44,29.46 49.44,29.52 49.8,29.94 49.86,29.94 50.1,30.42 50.1,30.48 50.28,31.02 50.28,31.08 50.34,31.62 
	50.34,40.201 50.28,40.74 50.28,40.8 50.1,41.339 49.86,41.82 49.8,41.88 49.44,42.3 49.02,42.66 48.96,42.72 48.48,42.96 
	47.94,43.14 47.88,43.14 47.28,43.201 38.76,43.201 38.16,43.14 38.1,43.14 37.56,42.96 37.5,42.96 37.02,42.72 37.02,42.66 
	36.6,42.3 36.54,42.3 36.18,41.88 36.18,41.82 35.94,41.339 35.88,41.339 35.7,40.8 35.7,40.74 35.64,40.201 35.64,31.62 
	35.7,31.08 35.7,31.02 35.88,30.48 35.94,30.42 36.18,29.94 36.54,29.52 36.6,29.46 37.02,29.1 37.5,28.86 37.56,28.8 38.1,28.62 
	38.16,28.62 38.76,28.56 "/>
<polyline style="fill:#8080FF;" points="38.76,29.04 38.82,29.04 38.76,28.56 "/>
<text transform="matrix(1 0 0 1 39.4202 38.2798)" style="font-family:'ProductusSemibold'; font-size:7.98;">S</text>
<text transform="matrix(1 0 0 1 43.2664 38.2798)" style="font-family:'ProductusSemibold'; font-size:7.98;">1</text>
<polyline points="17.46,64.8 16.92,64.8 17.1,64.74 16.56,64.919 16.62,64.919 16.38,65.041 16.44,64.98 16.2,65.16 16.14,65.22 
	15.9,65.339 16.02,65.22 15.84,65.4 15.9,65.339 15.72,65.58 15.48,65.82 15.6,65.701 15.36,66.18 15.36,66.121 15.18,66.66 
	15.24,66.541 15.18,67.14 15.18,67.08 15.18,75.601 15.18,75.541 15.24,76.08 15.18,76.021 15.36,76.561 15.36,76.44 15.6,76.919 
	15.54,76.86 15.72,77.101 15.66,77.041 16.02,77.4 15.96,77.339 16.2,77.521 16.14,77.521 16.62,77.759 16.56,77.701 17.1,77.88 
	16.98,77.88 17.52,77.94 17.46,77.94 25.98,77.94 25.92,77.94 26.52,77.88 26.4,77.88 26.88,77.701 27.18,77.58 27.12,77.641 
	27.3,77.521 27.24,77.521 27.48,77.339 27.42,77.4 27.78,77.041 27.72,77.101 28.08,76.621 28.08,76.681 28.2,76.44 28.14,76.561 
	28.26,76.021 28.26,76.08 28.32,75.541 28.32,75.601 28.32,71.339 29.34,71.339 29.34,75.66 29.28,76.201 29.28,76.259 29.16,76.8 
	28.98,77.16 28.92,77.221 28.56,77.701 28.14,78.121 28.08,78.181 27.84,78.36 27.66,78.48 27.54,78.541 27.24,78.66 26.76,78.839 
	26.64,78.9 26.04,78.96 17.4,78.96 16.86,78.9 16.8,78.839 16.26,78.66 16.14,78.66 15.9,78.541 15.66,78.419 15.6,78.36 
	15.36,78.181 14.88,77.701 14.7,77.46 14.7,77.4 14.46,76.919 14.4,76.86 14.22,76.32 14.22,76.201 14.16,75.66 14.16,67.02 
	14.22,66.419 14.22,66.36 14.4,65.82 14.76,65.1 14.94,64.919 14.88,64.98 15.06,64.74 15.3,64.5 15.42,64.44 15.66,64.32 
	15.6,64.32 15.84,64.14 15.9,64.14 16.26,63.96 16.8,63.781 17.46,63.781 "/>
<polyline points="28.32,71.339 28.32,67.08 28.32,67.14 28.26,66.541 28.26,66.6 28.14,66.06 28.2,66.18 28.08,65.94 28.08,66 
	27.9,65.759 27.96,65.82 27.72,65.58 27.54,65.339 27.6,65.4 27.42,65.22 27.54,65.339 27.3,65.22 27,64.919 27.18,65.041 
	26.88,64.919 26.4,64.74 26.58,64.8 17.46,64.8 17.46,63.781 26.76,63.781 27.24,63.96 27.54,64.08 27.72,64.201 27.9,64.38 
	27.78,64.32 28.02,64.44 28.14,64.5 28.38,64.74 28.56,64.98 28.5,64.919 28.74,65.16 28.92,65.4 28.98,65.46 29.16,65.82 
	29.28,66.36 29.28,66.419 29.34,67.02 29.34,71.339 "/>
</svg>
