<?xml version="1.0" encoding="utf-8"?>
<!-- Generator: Adobe Illustrator 16.0.1, SVG Export Plug-In . SVG Version: 6.00 Build 0)  -->
<!DOCTYPE svg PUBLIC "-//W3C//DTD SVG 1.1//EN" "http://www.w3.org/Graphics/SVG/1.1/DTD/svg11.dtd">
<svg version="1.1" id="Layer_1" xmlns="http://www.w3.org/2000/svg" xmlns:xlink="http://www.w3.org/1999/xlink" x="0px" y="0px"
	 width="284.521px" height="50.637px" viewBox="0 0 284.521 50.637" enable-background="new 0 0 284.521 50.637"
	 xml:space="preserve">
<text transform="matrix(1 0 0 1 99.7195 37.0842)" enable-background="new    "><tspan x="0" y="0" font-family="'ProductusOSGiBookc'" font-size="9">provision-policy:=</tspan><tspan x="0" y="10.8" font-family="'ProductusOSGiBookc'" font-size="9">acceptDependencies</tspan></text>
<polyline fill="#B2B2B2" points="102.54,0.48 102,0.54 101.46,0.66 101.22,0.781 100.98,0.96 100.74,1.08 100.56,1.26 100.38,1.5 
	100.2,1.681 99.96,2.16 99.78,2.7 99.72,3.3 99.72,25.98 99.78,26.521 99.96,27.061 100.2,27.54 100.38,27.781 100.74,28.141 
	100.98,28.32 101.22,28.44 101.46,28.561 102,28.74 102.54,28.8 153.601,28.8 154.141,28.74 154.68,28.561 154.92,28.44 
	155.16,28.32 155.4,28.141 155.76,27.781 155.94,27.54 156.18,27.061 156.36,26.521 156.42,25.98 156.42,3.3 156.36,2.7 
	156.18,2.16 155.94,1.681 155.76,1.5 155.58,1.26 155.4,1.08 155.16,0.96 154.92,0.781 154.68,0.66 154.141,0.54 153.601,0.48 
	102.54,0.48 "/>
<text transform="matrix(1 0 0 1 124.4998 16.7405)" font-family="'ProductusSemibold'" font-size="7.98">S1</text>
<polyline points="102.6,1.08 102.06,1.141 102.18,1.08 101.64,1.26 101.7,1.26 101.22,1.5 101.28,1.44 101.04,1.62 101.1,1.561 
	100.92,1.74 100.98,1.681 100.8,1.92 100.74,1.98 100.56,2.16 100.68,2.04 100.44,2.521 100.44,2.46 100.26,3 100.32,2.88 
	100.26,3.48 100.26,3.42 100.26,25.98 100.26,25.92 100.32,26.46 100.26,26.4 100.44,26.94 100.44,26.82 100.68,27.3 100.62,27.24 
	100.8,27.48 100.74,27.42 101.1,27.781 101.04,27.721 101.28,27.9 101.22,27.9 101.7,28.141 101.64,28.08 102.18,28.26 
	102.06,28.26 102.6,28.32 102.54,28.32 153.601,28.32 153.54,28.32 154.08,28.26 154.021,28.26 154.561,28.08 154.44,28.141 
	154.92,27.9 154.86,27.9 155.101,27.721 155.04,27.781 155.4,27.42 155.34,27.48 155.521,27.24 155.521,27.3 155.76,26.82 
	155.7,26.94 155.88,26.4 155.88,26.46 155.94,25.92 155.94,25.98 155.94,14.7 156.96,14.7 156.96,26.04 156.9,26.58 156.84,26.7 
	156.66,27.24 156.66,27.3 156.42,27.781 156.36,27.84 156.18,28.08 155.7,28.561 155.46,28.74 155.4,28.8 155.16,28.92 
	154.92,29.04 154.86,29.04 154.32,29.221 154.2,29.281 153.66,29.34 102.48,29.34 101.94,29.281 101.88,29.221 101.34,29.04 
	101.22,29.04 100.98,28.92 100.74,28.8 100.68,28.74 100.44,28.561 100.02,28.141 99.96,28.08 99.78,27.84 99.78,27.781 99.54,27.3 
	99.48,27.24 99.3,26.7 99.3,26.58 99.24,26.04 99.24,3.36 99.3,2.76 99.3,2.7 99.48,2.16 99.84,1.44 100.02,1.26 99.96,1.32 
	100.14,1.08 100.44,0.781 100.68,0.601 100.74,0.601 101.34,0.3 101.88,0.12 101.94,0.12 102.48,0.061 "/>
<polyline points="155.94,14.7 155.94,3.42 155.94,3.48 155.88,2.88 155.88,3 155.7,2.46 155.76,2.521 155.521,2.04 155.58,2.16 
	155.34,1.92 155.16,1.681 155.22,1.74 155.04,1.561 155.101,1.62 154.86,1.44 154.92,1.5 154.68,1.38 154.44,1.26 154.561,1.26 
	154.021,1.08 154.08,1.141 153.54,1.08 153.601,1.08 102.54,1.08 102.6,1.08 102.48,0.061 153.66,0.061 154.2,0.12 154.32,0.12 
	154.86,0.3 154.92,0.36 155.16,0.48 155.4,0.601 155.46,0.601 155.7,0.781 156,1.08 156.18,1.32 156.12,1.26 156.42,1.561 
	156.66,2.04 156.66,2.16 156.84,2.7 156.9,2.76 156.96,3.36 156.96,14.7 "/>
<rect x="222.061" y="14.4" width="4.738" height="0.479"/>
<polyline points="222.48,11.88 222.24,12.3 226.68,14.88 226.92,14.88 227.34,14.641 226.92,14.46 "/>
<polyline points="226.92,14.88 226.68,14.46 222.24,17.04 222.48,17.46 "/>
<rect x="156.42" y="14.4" width="1.021" height="0.479"/>
<rect x="161.4" y="14.4" width="1.979" height="0.479"/>
<rect x="167.34" y="14.4" width="2.04" height="0.479"/>
<rect x="173.34" y="14.4" width="1.98" height="0.479"/>
<rect x="179.28" y="14.4" width="1.979" height="0.479"/>
<rect x="185.28" y="14.4" width="1.979" height="0.479"/>
<rect x="191.22" y="14.4" width="1.979" height="0.479"/>
<rect x="197.22" y="14.4" width="1.979" height="0.479"/>
<rect x="203.16" y="14.4" width="1.98" height="0.479"/>
<rect x="209.16" y="14.4" width="1.98" height="0.479"/>
<rect x="215.101" y="14.4" width="1.979" height="0.479"/>
<rect x="221.101" y="14.4" width="0.96" height="0.479"/>
<polyline fill="#FFFFFF" points="3.36,0.48 2.76,0.54 2.22,0.66 1.74,0.96 1.32,1.26 0.96,1.681 0.72,2.16 0.54,2.7 0.48,3.3 
	0.48,25.98 0.54,26.521 0.72,27.061 0.96,27.54 1.32,27.96 1.74,28.32 2.22,28.561 2.76,28.74 3.36,28.8 26.04,28.8 26.58,28.74 
	27.12,28.561 27.6,28.32 28.02,27.96 28.38,27.54 28.62,27.061 28.8,26.521 28.86,25.98 28.86,3.3 28.8,2.7 28.62,2.16 28.38,1.681 
	28.02,1.26 27.6,0.96 27.12,0.66 26.58,0.54 26.04,0.48 3.36,0.48 "/>
<polyline fill="#B2B2B2" points="3.391,0.721 2.791,0.781 2.25,0.9 1.771,1.2 1.351,1.5 0.99,1.921 0.75,2.4 0.57,2.94 0.51,3.54 
	0.51,26.221 0.57,26.761 0.75,27.301 0.99,27.781 1.351,28.2 1.771,28.561 2.25,28.801 2.791,28.98 3.391,29.04 26.07,29.04 
	26.61,28.98 27.15,28.801 27.63,28.561 28.05,28.2 28.411,27.781 28.65,27.301 28.831,26.761 28.891,26.221 28.891,3.54 
	28.831,2.94 28.65,2.4 28.411,1.921 28.05,1.5 27.63,1.2 27.15,0.9 26.61,0.781 26.07,0.721 3.391,0.721 "/>
<text transform="matrix(1 0 0 1 6.6599 16.3206)" font-family="'ProductusSemibold'" font-size="7.98">Root</text>
<polyline points="3.42,1.021 2.82,1.08 2.88,1.08 2.34,1.2 2.46,1.141 2.22,1.26 2.28,1.2 2.04,1.38 1.86,1.5 1.62,1.681 
	1.74,1.561 1.56,1.8 1.32,2.04 1.44,1.92 1.2,2.4 1.2,2.34 1.02,2.88 1.08,2.76 1.02,3.36 1.02,3.3 1.02,25.98 1.02,25.92 
	1.08,26.46 1.02,26.4 1.2,26.94 1.2,26.82 1.44,27.3 1.38,27.24 1.56,27.48 1.5,27.42 1.68,27.601 1.62,27.54 1.86,27.721 
	2.1,27.96 1.98,27.9 2.46,28.141 2.4,28.08 2.94,28.26 2.82,28.26 3.42,28.32 3.36,28.32 26.04,28.32 25.98,28.32 26.52,28.26 
	26.46,28.26 27,28.08 26.88,28.141 27.36,27.9 27.3,27.9 27.54,27.721 27.48,27.781 27.84,27.42 27.78,27.48 27.96,27.24 
	27.96,27.3 28.2,26.82 28.14,26.94 28.32,26.4 28.32,26.46 28.38,25.92 28.38,25.98 28.38,14.641 29.4,14.641 29.4,26.04 
	29.34,26.58 29.28,26.7 29.1,27.24 29.1,27.3 28.86,27.781 28.8,27.84 28.62,28.08 28.14,28.561 27.9,28.74 27.84,28.8 27.6,28.92 
	27.36,29.04 27.3,29.04 26.76,29.221 26.64,29.281 26.1,29.34 3.3,29.34 2.7,29.281 2.64,29.221 2.1,29.04 1.98,29.04 1.74,28.92 
	1.5,28.8 1.2,28.5 1.26,28.561 1.02,28.38 0.96,28.32 0.72,28.08 0.54,27.84 0.54,27.781 0.3,27.3 0.24,27.24 0.06,26.7 0.06,26.58 
	0,26.04 0,3.24 0.06,2.641 0.06,2.58 0.24,2.04 0.6,1.32 0.78,1.141 0.72,1.2 0.9,0.96 1.02,0.84 1.26,0.66 1.32,0.66 1.5,0.54 
	1.44,0.54 1.68,0.36 1.74,0.36 2.1,0.181 2.64,0.061 2.7,0.061 3.3,0 "/>
<polyline points="28.38,14.641 28.38,3.3 28.38,3.36 28.32,2.76 28.32,2.88 28.14,2.34 28.2,2.4 27.96,1.92 28.02,2.04 27.78,1.8 
	27.6,1.561 27.66,1.62 27.48,1.44 27.6,1.561 27.36,1.44 27.3,1.38 27.06,1.2 27.12,1.26 26.88,1.141 27,1.2 26.46,1.08 26.52,1.08 
	25.98,1.021 26.04,1.021 3.36,1.021 3.42,1.021 3.3,0 26.1,0 26.64,0.061 26.7,0.061 27.24,0.181 27.6,0.36 27.66,0.36 27.9,0.54 
	27.84,0.54 28.08,0.66 28.2,0.721 28.44,0.96 28.62,1.2 28.56,1.141 28.86,1.44 29.1,1.92 29.1,2.04 29.28,2.58 29.34,2.641 
	29.4,3.24 29.4,14.641 "/>
<polyline fill="#B2B2B2" points="230.101,0.48 229.561,0.54 229.021,0.66 228.78,0.781 228.54,0.96 228.3,1.08 228.12,1.26 
	227.94,1.5 227.76,1.681 227.521,2.16 227.34,2.7 227.28,3.3 227.28,25.98 227.34,26.521 227.521,27.061 227.76,27.54 
	227.94,27.781 228.3,28.141 228.54,28.32 228.78,28.44 229.021,28.561 229.561,28.74 230.101,28.8 281.16,28.8 281.7,28.74 
	282.24,28.561 282.48,28.44 282.72,28.32 282.96,28.141 283.32,27.781 283.5,27.54 283.74,27.061 283.92,26.521 283.98,25.98 
	283.98,3.3 283.92,2.7 283.74,2.16 283.5,1.681 283.32,1.5 283.141,1.26 282.96,1.08 282.72,0.96 282.48,0.781 282.24,0.66 
	281.7,0.54 281.16,0.48 230.101,0.48 "/>
<polyline fill="#BFBFFF" points="230.16,1.021 229.62,1.08 229.68,1.08 229.141,1.2 229.26,1.141 229.021,1.26 229.08,1.2 
	228.84,1.38 228.78,1.44 228.54,1.561 228.66,1.44 228.48,1.62 228.54,1.561 228.36,1.8 228.12,2.04 228.24,1.92 228,2.4 228,2.34 
	227.82,2.88 227.88,2.76 227.82,3.36 227.82,3.3 227.82,25.98 227.82,25.92 227.88,26.46 227.82,26.4 228,26.94 228,26.82 
	228.24,27.3 228.18,27.24 228.36,27.48 228.3,27.42 228.66,27.781 228.601,27.721 228.84,27.9 228.78,27.9 229.26,28.141 
	229.2,28.08 229.74,28.26 229.62,28.26 230.16,28.32 230.101,28.32 281.16,28.32 281.101,28.32 281.641,28.26 281.58,28.26 
	282.12,28.08 282,28.141 282.48,27.9 282.42,27.9 282.66,27.721 282.601,27.781 282.96,27.42 282.9,27.48 283.08,27.24 283.08,27.3 
	283.32,26.82 283.26,26.94 283.44,26.4 283.44,26.46 283.5,25.92 283.5,25.98 283.5,14.641 284.521,14.641 284.521,26.04 
	284.46,26.58 284.4,26.7 284.22,27.24 284.22,27.3 283.98,27.781 283.92,27.84 283.74,28.08 283.26,28.561 283.021,28.74 
	282.96,28.8 282.48,29.04 282.42,29.04 281.88,29.221 281.76,29.281 281.22,29.34 230.04,29.34 229.5,29.281 229.44,29.221 
	228.9,29.04 228.78,29.04 228.54,28.92 228.3,28.8 228.24,28.74 228,28.561 227.521,28.08 227.34,27.84 227.34,27.781 227.101,27.3 
	227.04,27.24 226.86,26.7 226.86,26.58 226.8,26.04 226.8,3.24 226.86,2.641 226.86,2.58 227.04,2.04 227.4,1.32 227.58,1.141 
	227.521,1.2 227.7,0.96 227.94,0.721 228.3,0.54 228.24,0.54 228.48,0.36 228.54,0.36 228.78,0.24 228.9,0.181 229.44,0.061 
	229.5,0.061 230.04,0 "/>
<polyline fill="#BFBFFF" points="283.5,14.641 283.5,3.3 283.5,3.36 283.44,2.76 283.44,2.88 283.26,2.34 283.32,2.4 283.08,1.92 
	283.141,2.04 282.9,1.8 282.72,1.561 282.78,1.62 282.601,1.44 282.72,1.561 282.48,1.44 282.42,1.38 282.18,1.2 282.24,1.26 
	282,1.141 282.12,1.2 281.58,1.08 281.641,1.08 281.101,1.021 281.16,1.021 230.101,1.021 230.16,1.021 230.04,0 281.22,0 
	281.76,0.061 281.82,0.061 282.36,0.181 282.72,0.36 282.78,0.36 283.021,0.54 282.96,0.54 283.2,0.66 283.32,0.721 283.561,0.96 
	283.74,1.2 283.68,1.141 283.98,1.44 284.22,1.92 284.22,2.04 284.4,2.58 284.46,2.641 284.521,3.24 284.521,14.641 "/>
<text transform="matrix(1 0 0 1 251.8796 16.7405)" font-family="'ProductusSemibold'" font-size="7.98">S2</text>
<polyline points="230.16,1.08 229.62,1.141 229.74,1.08 229.2,1.26 229.26,1.26 229.021,1.38 228.78,1.5 228.84,1.44 228.601,1.62 
	228.66,1.561 228.48,1.74 228.54,1.681 228.36,1.92 228.12,2.16 228.24,2.04 228,2.521 228,2.46 227.82,3 227.88,2.88 227.82,3.48 
	227.82,3.42 227.82,25.98 227.82,25.92 227.88,26.46 227.82,26.4 228,26.94 228,26.82 228.24,27.3 228.18,27.24 228.36,27.48 
	228.3,27.42 228.66,27.781 228.601,27.721 228.84,27.9 228.78,27.9 229.26,28.141 229.2,28.08 229.74,28.26 229.62,28.26 
	230.16,28.32 230.101,28.32 281.16,28.32 281.101,28.32 281.641,28.26 281.58,28.26 282.12,28.08 282,28.141 282.48,27.9 
	282.42,27.9 282.66,27.721 282.601,27.781 282.96,27.42 282.9,27.48 283.08,27.24 283.08,27.3 283.32,26.82 283.26,26.94 
	283.44,26.4 283.44,26.46 283.5,25.92 283.5,25.98 283.5,14.7 284.521,14.7 284.521,26.04 284.46,26.58 284.4,26.7 284.22,27.24 
	284.22,27.3 283.98,27.781 283.92,27.84 283.74,28.08 283.26,28.561 283.021,28.74 282.96,28.8 282.48,29.04 282.42,29.04 
	281.88,29.221 281.76,29.281 281.22,29.34 230.04,29.34 229.5,29.281 229.44,29.221 228.9,29.04 228.78,29.04 228.54,28.92 
	228.3,28.8 228.24,28.74 228,28.561 227.521,28.08 227.34,27.84 227.34,27.781 227.101,27.3 227.04,27.24 226.86,26.7 226.86,26.58 
	226.8,26.04 226.8,3.36 226.86,2.76 226.86,2.7 227.04,2.16 227.4,1.44 227.58,1.26 227.521,1.32 227.7,1.08 228,0.781 
	228.24,0.601 228.3,0.601 228.54,0.48 228.78,0.36 228.9,0.3 229.44,0.12 229.5,0.12 230.04,0.061 "/>
<polyline points="283.5,14.7 283.5,3.42 283.5,3.48 283.44,2.88 283.44,3 283.26,2.46 283.32,2.521 283.08,2.04 283.141,2.16 
	282.9,1.92 282.72,1.681 282.78,1.74 282.601,1.561 282.66,1.62 282.42,1.44 282.48,1.5 282.24,1.38 282,1.26 282.12,1.26 
	281.58,1.08 281.641,1.141 281.101,1.08 281.16,1.08 230.101,1.08 230.16,1.08 230.04,0.061 281.22,0.061 281.76,0.12 281.88,0.12 
	282.42,0.3 282.48,0.36 282.72,0.48 282.96,0.601 283.021,0.601 283.26,0.781 283.561,1.08 283.74,1.32 283.68,1.26 283.98,1.561 
	284.22,2.04 284.22,2.16 284.4,2.7 284.46,2.76 284.521,3.36 284.521,14.7 "/>
<rect x="94.5" y="14.4" width="4.74" height="0.479"/>
<polyline points="94.92,11.88 94.68,12.3 99.12,14.88 99.36,14.88 99.78,14.641 99.36,14.46 "/>
<polyline points="99.36,14.88 99.12,14.46 94.68,17.04 94.92,17.46 "/>
<rect x="28.86" y="14.4" width="0.96" height="0.479"/>
<rect x="33.84" y="14.4" width="1.98" height="0.479"/>
<rect x="39.78" y="14.4" width="1.979" height="0.479"/>
<rect x="45.78" y="14.4" width="1.979" height="0.479"/>
<rect x="51.72" y="14.4" width="1.979" height="0.479"/>
<rect x="57.72" y="14.4" width="1.979" height="0.479"/>
<rect x="63.66" y="14.4" width="1.98" height="0.479"/>
<rect x="69.66" y="14.4" width="1.98" height="0.479"/>
<rect x="75.6" y="14.4" width="1.979" height="0.479"/>
<rect x="81.6" y="14.4" width="1.979" height="0.479"/>
<rect x="87.54" y="14.4" width="1.98" height="0.479"/>
<rect x="93.54" y="14.4" width="0.96" height="0.479"/>
<text transform="matrix(1 0 0 1 0.4797 37.0803)" enable-background="new    "><tspan x="0" y="0" font-family="'ProductusOSGiBookc'" font-size="9">provision-policy:=</tspan><tspan x="0" y="10.8" font-family="'ProductusOSGiBookc'" font-size="9">acceptDependencies</tspan></text>
<rect x="106.8" y="7.561" fill="#808080" width="14.16" height="14.16"/>
<text transform="matrix(1 0 0 1 111.6599 17.0403)" fill="#FFFFFF" font-family="'ProductusOSGiMonoc'" font-size="7.98">C</text>
<text transform="matrix(1 0 0 1 111.6599 17.0403)" fill="none" stroke="#FFFFFF" stroke-width="0.12" stroke-miterlimit="10" font-family="'ProductusOSGiMonoc'" font-size="7.98">C</text>
<rect x="135.18" y="7.561" fill="#808080" width="14.159" height="14.16"/>
<text transform="matrix(1 0 0 1 140.0398 17.0403)" fill="#FFFFFF" font-family="'ProductusOSGiMonoc'" font-size="7.98">D</text>
<text transform="matrix(1 0 0 1 140.0398 17.0403)" fill="none" stroke="#FFFFFF" stroke-width="0.12" stroke-miterlimit="10" font-family="'ProductusOSGiMonoc'" font-size="7.98">D</text>
<rect x="234.36" y="7.561" fill="#808080" width="14.16" height="14.16"/>
<text transform="matrix(1 0 0 1 239.28 17.0403)" fill="#FFFFFF" font-family="'ProductusOSGiMonoc'" font-size="7.98">A</text>
<text transform="matrix(1 0 0 1 239.28 17.0403)" fill="none" stroke="#FFFFFF" stroke-width="0.12" stroke-miterlimit="10" font-family="'ProductusOSGiMonoc'" font-size="7.98">A</text>
<rect x="262.74" y="7.561" fill="#808080" width="14.16" height="14.16"/>
<text transform="matrix(1 0 0 1 267.6003 17.0403)" fill="#FFFFFF" font-family="'ProductusOSGiMonoc'" font-size="7.98">B</text>
<text transform="matrix(1 0 0 1 267.6003 17.0403)" fill="none" stroke="#FFFFFF" stroke-width="0.12" stroke-miterlimit="10" font-family="'ProductusOSGiMonoc'" font-size="7.98">B</text>
</svg>
