<?xml version="1.0" encoding="utf-8"?>
<!-- Generator: Adobe Illustrator 16.0.0, SVG Export Plug-In . SVG Version: 6.00 Build 0)  -->
<!DOCTYPE svg PUBLIC "-//W3C//DTD SVG 1.1//EN" "http://www.w3.org/Graphics/SVG/1.1/DTD/svg11.dtd">
<svg version="1.1" id="Layer_1" xmlns="http://www.w3.org/2000/svg" xmlns:xlink="http://www.w3.org/1999/xlink" x="0px" y="0px"
	 width="294.241px" height="172.727px" viewBox="0 0 294.241 172.727" style="enable-background:new 0 0 294.241 172.727;"
	 xml:space="preserve">
<polyline style="fill-rule:evenodd;clip-rule:evenodd;fill:#FFFFFF;" points="223.92,129.647 223.38,129.707 222.84,129.887 
	222.6,130.007 222.36,130.127 222.12,130.307 221.76,130.667 221.581,130.907 221.34,131.387 221.16,131.927 221.1,132.467 
	221.1,169.367 221.16,169.907 221.34,170.447 221.581,170.927 221.76,171.167 222.12,171.527 222.36,171.707 222.84,171.947 
	223.38,172.127 223.92,172.188 260.82,172.188 261.36,172.127 261.9,171.947 262.38,171.707 262.62,171.527 262.98,171.167 
	263.16,170.927 263.4,170.447 263.581,169.907 263.64,169.367 263.64,132.467 263.581,131.927 263.4,131.387 263.16,130.907 
	262.98,130.667 262.62,130.307 262.38,130.127 261.9,129.887 261.36,129.707 260.82,129.647 223.92,129.647 "/>
<polyline points="223.98,130.188 223.44,130.247 223.56,130.188 223.02,130.367 223.081,130.367 222.84,130.487 222.6,130.607 
	222.66,130.547 222.42,130.727 222.48,130.667 222.12,131.027 222.18,130.967 222,131.207 222.06,131.147 221.82,131.627 
	221.82,131.567 221.64,132.107 221.7,131.987 221.64,132.527 221.64,132.467 221.64,169.367 221.64,169.307 221.7,169.847 
	221.64,169.787 221.82,170.327 221.82,170.207 222.06,170.688 222,170.627 222.18,170.867 222.12,170.807 222.48,171.167 
	222.42,171.107 222.66,171.287 222.6,171.287 223.081,171.527 223.02,171.467 223.56,171.647 223.44,171.647 223.98,171.707 
	223.92,171.707 260.82,171.707 260.76,171.707 261.3,171.647 261.24,171.647 261.78,171.467 261.66,171.527 262.14,171.287 
	262.081,171.287 262.32,171.107 262.26,171.167 262.62,170.807 262.56,170.867 262.74,170.627 262.74,170.688 262.98,170.207 
	262.92,170.327 263.1,169.787 263.1,169.847 263.16,169.307 263.16,169.367 263.16,150.887 264.18,150.887 264.18,169.427 
	264.12,169.967 264.06,170.087 263.88,170.627 263.88,170.688 263.64,171.167 263.581,171.227 263.4,171.467 262.92,171.947 
	262.68,172.127 262.62,172.188 262.14,172.427 262.081,172.427 261.541,172.607 261.42,172.667 260.88,172.727 223.86,172.727 
	223.32,172.667 223.26,172.607 222.72,172.427 222.6,172.427 222.36,172.307 222.12,172.188 222.06,172.127 221.82,171.947 
	221.34,171.467 221.16,171.227 221.16,171.167 220.92,170.688 220.86,170.627 220.68,170.087 220.68,169.967 220.62,169.427 
	220.62,132.407 220.68,131.867 220.68,131.807 220.86,131.267 221.16,130.667 221.16,130.607 221.34,130.367 221.82,129.887 
	222.06,129.707 222.12,129.707 222.72,129.407 223.26,129.227 223.32,129.227 223.86,129.167 "/>
<polyline points="263.16,150.887 263.16,132.467 263.16,132.527 263.1,131.987 263.1,132.107 262.92,131.567 262.98,131.627 
	262.74,131.147 262.74,131.207 262.56,130.967 262.62,131.027 262.26,130.667 262.32,130.727 262.081,130.547 262.14,130.607 
	261.66,130.367 261.78,130.367 261.24,130.188 261.3,130.247 260.76,130.188 260.82,130.188 223.92,130.188 223.98,130.188 
	223.86,129.167 260.88,129.167 261.42,129.227 261.541,129.227 262.081,129.407 262.14,129.467 262.62,129.707 262.68,129.707 
	262.92,129.887 263.4,130.367 263.581,130.607 263.64,130.667 263.88,131.147 263.88,131.267 264.06,131.807 264.12,131.867 
	264.18,132.407 264.18,150.887 "/>
<polyline style="fill-rule:evenodd;clip-rule:evenodd;fill:#FFFFFF;" points="32.58,65.867 32.04,65.927 31.5,66.107 31.02,66.347 
	30.78,66.527 30.42,66.887 30.24,67.127 30,67.607 29.82,68.147 29.76,68.688 29.76,105.587 29.82,106.127 30,106.667 
	30.24,107.147 30.42,107.387 30.78,107.747 31.02,107.927 31.5,108.167 32.04,108.347 32.58,108.407 69.48,108.407 70.02,108.347 
	70.56,108.167 71.04,107.927 71.28,107.747 71.64,107.387 71.82,107.147 72.06,106.667 72.24,106.127 72.3,105.587 72.3,68.688 
	72.24,68.147 72.06,67.607 71.82,67.127 71.64,66.887 71.28,66.527 71.04,66.347 70.56,66.107 70.02,65.927 69.48,65.867 
	32.58,65.867 "/>
<polyline points="32.64,66.407 32.1,66.467 32.22,66.407 31.68,66.587 31.74,66.587 31.26,66.827 31.32,66.767 31.08,66.947 
	31.14,66.887 30.78,67.247 30.84,67.188 30.66,67.427 30.72,67.367 30.48,67.847 30.48,67.787 30.3,68.327 30.36,68.207 
	30.3,68.747 30.3,68.688 30.3,105.587 30.3,105.527 30.36,106.067 30.3,106.007 30.48,106.547 30.48,106.427 30.72,106.907 
	30.66,106.847 30.84,107.087 30.78,107.027 31.14,107.387 31.08,107.327 31.32,107.507 31.26,107.507 31.74,107.747 31.68,107.688 
	32.22,107.867 32.1,107.867 32.64,107.927 32.58,107.927 69.48,107.927 69.42,107.927 69.96,107.867 69.9,107.867 70.44,107.688 
	70.32,107.747 70.8,107.507 70.74,107.507 70.98,107.327 70.92,107.387 71.28,107.027 71.22,107.087 71.4,106.847 71.4,106.907 
	71.64,106.427 71.58,106.547 71.76,106.007 71.76,106.067 71.82,105.527 71.82,105.587 71.82,87.107 72.84,87.107 72.84,105.647 
	72.78,106.188 72.72,106.307 72.54,106.847 72.54,106.907 72.3,107.387 72.24,107.447 72.06,107.688 71.58,108.167 71.34,108.347 
	71.28,108.407 70.8,108.647 70.74,108.647 70.2,108.827 70.08,108.887 69.54,108.947 32.52,108.947 31.98,108.887 31.92,108.827 
	31.38,108.647 31.26,108.647 30.78,108.407 30.72,108.347 30.48,108.167 30,107.688 29.82,107.447 29.82,107.387 29.58,106.907 
	29.52,106.847 29.34,106.307 29.34,106.188 29.28,105.647 29.28,68.627 29.34,68.087 29.34,68.027 29.52,67.487 29.82,66.887 
	29.82,66.827 30,66.587 30.48,66.107 30.72,65.927 30.78,65.927 31.38,65.627 31.92,65.447 31.98,65.447 32.52,65.387 "/>
<polyline points="71.82,87.107 71.82,68.688 71.82,68.747 71.76,68.207 71.76,68.327 71.58,67.787 71.64,67.847 71.4,67.367 
	71.4,67.427 71.22,67.188 71.28,67.247 70.92,66.887 70.98,66.947 70.74,66.767 70.8,66.827 70.32,66.587 70.44,66.587 69.9,66.407 
	69.96,66.467 69.42,66.407 69.48,66.407 32.58,66.407 32.64,66.407 32.52,65.387 69.54,65.387 70.08,65.447 70.2,65.447 
	70.74,65.627 70.8,65.688 71.28,65.927 71.34,65.927 71.58,66.107 72.06,66.587 72.24,66.827 72.3,66.887 72.54,67.367 
	72.54,67.487 72.72,68.027 72.78,68.087 72.84,68.627 72.84,87.107 "/>
<polyline style="fill-rule:evenodd;clip-rule:evenodd;fill:#FFFFFF;" points="223.92,65.867 223.38,65.927 222.84,66.107 
	222.36,66.347 222.12,66.527 221.76,66.887 221.581,67.127 221.34,67.607 221.16,68.147 221.1,68.688 221.1,105.587 221.16,106.127 
	221.34,106.667 221.581,107.147 221.76,107.387 222.12,107.747 222.36,107.927 222.84,108.167 223.38,108.347 223.92,108.407 
	260.82,108.407 261.36,108.347 261.9,108.167 262.38,107.927 262.62,107.747 262.98,107.387 263.16,107.147 263.4,106.667 
	263.581,106.127 263.64,105.587 263.64,68.688 263.581,68.147 263.4,67.607 263.16,67.127 262.98,66.887 262.62,66.527 
	262.38,66.347 261.9,66.107 261.36,65.927 260.82,65.867 223.92,65.867 "/>
<polyline points="223.98,66.407 223.44,66.467 223.56,66.407 223.02,66.587 223.081,66.587 222.6,66.827 222.66,66.767 
	222.42,66.947 222.48,66.887 222.12,67.247 222.18,67.188 222,67.427 222.06,67.367 221.82,67.847 221.82,67.787 221.64,68.327 
	221.7,68.207 221.64,68.747 221.64,68.688 221.64,105.587 221.64,105.527 221.7,106.067 221.64,106.007 221.82,106.547 
	221.82,106.427 222.06,106.907 222,106.847 222.18,107.087 222.12,107.027 222.48,107.387 222.42,107.327 222.66,107.507 
	222.6,107.507 223.081,107.747 223.02,107.688 223.56,107.867 223.44,107.867 223.98,107.927 223.92,107.927 260.82,107.927 
	260.76,107.927 261.3,107.867 261.24,107.867 261.78,107.688 261.66,107.747 261.9,107.627 262.14,107.507 262.081,107.507 
	262.32,107.327 262.26,107.387 262.62,107.027 262.56,107.087 262.74,106.847 262.74,106.907 262.98,106.427 262.92,106.547 
	263.1,106.007 263.1,106.067 263.16,105.527 263.16,105.587 263.16,87.107 264.18,87.107 264.18,105.647 264.12,106.188 
	264.06,106.307 263.88,106.847 263.88,106.907 263.64,107.387 263.581,107.447 263.4,107.688 262.92,108.167 262.68,108.347 
	262.62,108.407 262.14,108.647 262.081,108.647 261.541,108.827 261.42,108.887 260.88,108.947 223.86,108.947 223.32,108.887 
	223.26,108.827 222.72,108.647 222.6,108.647 222.12,108.407 222.06,108.347 221.82,108.167 221.34,107.688 221.16,107.447 
	221.16,107.387 220.92,106.907 220.86,106.847 220.68,106.307 220.68,106.188 220.62,105.647 220.62,68.627 220.68,68.087 
	220.68,68.027 220.86,67.487 221.16,66.887 221.16,66.827 221.34,66.587 221.82,66.107 222.06,65.927 222.12,65.927 222.72,65.627 
	223.26,65.447 223.32,65.447 223.86,65.387 "/>
<polyline points="263.16,87.107 263.16,68.688 263.16,68.747 263.1,68.207 263.1,68.327 262.92,67.787 262.98,67.847 262.74,67.367 
	262.74,67.427 262.56,67.188 262.62,67.247 262.26,66.887 262.32,66.947 262.081,66.767 262.14,66.827 261.66,66.587 261.78,66.587 
	261.24,66.407 261.3,66.467 260.76,66.407 260.82,66.407 223.92,66.407 223.98,66.407 223.86,65.387 260.88,65.387 261.42,65.447 
	261.541,65.447 262.081,65.627 262.14,65.688 262.62,65.927 262.68,65.927 262.92,66.107 263.4,66.587 263.581,66.827 
	263.64,66.887 263.88,67.367 263.88,67.487 264.06,68.027 264.12,68.087 264.18,68.627 264.18,87.107 "/>
<polyline style="fill-rule:evenodd;clip-rule:evenodd;fill:#FFFFFF;" points="131.82,129.647 131.22,129.707 130.74,129.887 
	130.44,130.007 130.26,130.127 130.02,130.307 129.66,130.667 129.3,131.147 129.18,131.387 129.06,131.927 129,132.467 
	129,169.367 129.06,169.907 129.18,170.447 129.3,170.688 129.66,171.167 130.02,171.527 130.26,171.707 130.44,171.827 
	130.74,171.947 131.22,172.127 131.82,172.188 168.66,172.188 169.26,172.127 169.8,171.947 170.28,171.707 170.46,171.527 
	170.7,171.347 170.88,171.167 171,170.927 171.18,170.688 171.3,170.447 171.42,169.907 171.48,169.367 171.48,132.467 
	171.42,131.927 171.3,131.387 171.18,131.147 171,130.907 170.88,130.667 170.7,130.487 170.46,130.307 170.28,130.127 
	169.8,129.887 169.26,129.707 168.66,129.647 131.82,129.647 "/>
<polyline points="131.88,130.188 131.28,130.247 131.4,130.188 130.92,130.367 130.62,130.487 130.74,130.427 130.56,130.547 
	130.32,130.727 130.38,130.667 130.02,131.027 130.08,130.967 129.72,131.447 129.78,131.387 129.66,131.627 129.72,131.507 
	129.6,132.047 129.6,131.987 129.54,132.527 129.54,132.467 129.54,169.367 129.54,169.307 129.6,169.847 129.6,169.787 
	129.72,170.327 129.66,170.207 129.78,170.447 129.72,170.387 130.08,170.867 130.02,170.807 130.38,171.167 130.32,171.107 
	130.56,171.287 130.74,171.407 130.62,171.347 130.92,171.467 131.4,171.647 131.28,171.647 131.88,171.707 131.82,171.707 
	168.66,171.707 168.6,171.707 169.2,171.647 169.14,171.647 169.68,171.467 169.56,171.527 170.041,171.287 169.92,171.347 
	170.16,171.107 170.4,170.927 170.34,170.987 170.52,170.807 170.46,170.927 170.581,170.688 170.581,170.627 170.76,170.387 
	170.76,170.447 170.88,170.207 170.82,170.327 170.94,169.787 170.94,169.847 171,169.307 171,169.367 171,150.887 172.02,150.887 
	172.02,169.427 171.96,169.967 171.96,170.027 171.84,170.567 171.66,170.927 171.6,170.987 171.42,171.227 171.48,171.167 
	171.36,171.407 171,171.767 170.76,171.947 170.82,171.887 170.52,172.188 170.28,172.307 170.041,172.427 169.98,172.427 
	169.44,172.607 169.32,172.667 168.72,172.727 131.76,172.727 131.16,172.667 131.04,172.607 130.56,172.427 130.26,172.307 
	130.2,172.247 130.02,172.127 129.96,172.127 129.72,171.947 129.24,171.467 128.88,170.987 128.88,170.927 128.7,170.567 
	128.58,170.027 128.58,169.967 128.52,169.427 128.52,132.407 128.58,131.867 128.58,131.807 128.7,131.267 128.88,130.907 
	128.88,130.847 129.24,130.367 129.72,129.887 129.96,129.707 130.02,129.707 130.2,129.587 130.26,129.527 130.56,129.407 
	131.04,129.227 131.16,129.227 131.76,129.167 "/>
<polyline points="171,150.887 171,132.467 171,132.527 170.94,131.987 170.94,132.047 170.82,131.507 170.88,131.627 
	170.76,131.387 170.76,131.447 170.581,131.207 170.581,131.147 170.46,130.907 170.52,131.027 170.34,130.847 170.4,130.907 
	170.16,130.727 169.92,130.487 170.041,130.607 169.56,130.367 169.68,130.367 169.14,130.188 169.2,130.247 168.6,130.188 
	168.66,130.188 131.82,130.188 131.88,130.188 131.76,129.167 168.72,129.167 169.32,129.227 169.44,129.227 169.98,129.407 
	170.041,129.467 170.64,129.767 170.82,129.947 170.76,129.887 171,130.067 171.36,130.427 171.48,130.667 171.42,130.607 
	171.6,130.847 171.66,130.907 171.84,131.267 171.96,131.807 171.96,131.867 172.02,132.407 172.02,150.887 "/>
<polyline style="fill-rule:evenodd;clip-rule:evenodd;fill:#FFFFFF;" points="32.58,129.647 32.04,129.707 31.5,129.887 
	31.02,130.127 30.78,130.307 30.42,130.667 30.24,130.907 30,131.387 29.82,131.927 29.76,132.467 29.76,169.367 29.82,169.907 
	30,170.447 30.24,170.927 30.42,171.167 30.78,171.527 31.02,171.707 31.5,171.947 32.04,172.127 32.58,172.188 69.48,172.188 
	70.02,172.127 70.56,171.947 71.04,171.707 71.28,171.527 71.64,171.167 71.82,170.927 72.06,170.447 72.24,169.907 72.3,169.367 
	72.3,132.467 72.24,131.927 72.06,131.387 71.82,130.907 71.64,130.667 71.28,130.307 71.04,130.127 70.56,129.887 70.02,129.707 
	69.48,129.647 32.58,129.647 "/>
<polyline points="32.64,130.188 32.1,130.247 32.22,130.188 31.68,130.367 31.74,130.367 31.26,130.607 31.32,130.547 
	31.08,130.727 31.14,130.667 30.78,131.027 30.84,130.967 30.66,131.207 30.72,131.147 30.48,131.627 30.48,131.567 30.3,132.107 
	30.36,131.987 30.3,132.527 30.3,132.467 30.3,169.367 30.3,169.307 30.36,169.847 30.3,169.787 30.48,170.327 30.48,170.207 
	30.72,170.688 30.66,170.627 30.84,170.867 30.78,170.807 31.14,171.167 31.08,171.107 31.32,171.287 31.26,171.287 31.74,171.527 
	31.68,171.467 32.22,171.647 32.1,171.647 32.64,171.707 32.58,171.707 69.48,171.707 69.42,171.707 69.96,171.647 69.9,171.647 
	70.44,171.467 70.32,171.527 70.8,171.287 70.74,171.287 70.98,171.107 70.92,171.167 71.28,170.807 71.22,170.867 71.4,170.627 
	71.4,170.688 71.64,170.207 71.58,170.327 71.76,169.787 71.76,169.847 71.82,169.307 71.82,169.367 71.82,150.887 72.84,150.887 
	72.84,169.427 72.78,169.967 72.72,170.087 72.54,170.627 72.54,170.688 72.3,171.167 72.24,171.227 72.06,171.467 71.58,171.947 
	71.34,172.127 71.28,172.188 71.04,172.307 70.8,172.427 70.74,172.427 70.2,172.607 70.08,172.667 69.54,172.727 32.52,172.727 
	31.98,172.667 31.92,172.607 31.38,172.427 31.26,172.427 30.78,172.188 30.72,172.127 30.48,171.947 30,171.467 29.82,171.227 
	29.82,171.167 29.58,170.688 29.52,170.627 29.34,170.087 29.34,169.967 29.28,169.427 29.28,132.407 29.34,131.867 29.34,131.807 
	29.52,131.267 29.82,130.667 29.82,130.607 30,130.367 30.48,129.887 30.72,129.707 30.78,129.707 31.38,129.407 31.92,129.227 
	31.98,129.227 32.52,129.167 "/>
<polyline points="71.82,150.887 71.82,132.467 71.82,132.527 71.76,131.987 71.76,132.107 71.58,131.567 71.64,131.627 
	71.4,131.147 71.4,131.207 71.22,130.967 71.28,131.027 70.92,130.667 70.98,130.727 70.74,130.547 70.8,130.607 70.32,130.367 
	70.44,130.367 69.9,130.188 69.96,130.247 69.42,130.188 69.48,130.188 32.58,130.188 32.64,130.188 32.52,129.167 69.54,129.167 
	70.08,129.227 70.2,129.227 70.74,129.407 70.8,129.467 71.28,129.707 71.34,129.707 71.58,129.887 72.06,130.367 72.24,130.607 
	72.3,130.667 72.54,131.147 72.54,131.267 72.72,131.807 72.78,131.867 72.84,132.407 72.84,150.887 "/>
<text transform="matrix(1 0 0 1 134.3999 6.6475)"><tspan x="0" y="0" style="font-family:'ProductusBook'; font-size:7.98;">R</tspan><tspan x="3.423" y="0" style="font-family:'ProductusBook'; font-size:7.98;">oot</tspan><tspan x="13.366" y="0" style="font-family:'ProductusBook'; font-size:7.98;"> </tspan><tspan x="14.931" y="0" style="font-family:'ProductusBook'; font-size:7.98;">R</tspan><tspan x="18.354" y="0" style="font-family:'ProductusBook'; font-size:7.98;">e</tspan><tspan x="21.841" y="0" style="font-family:'ProductusBook'; font-size:7.98;">g</tspan><tspan x="25.376" y="0" style="font-family:'ProductusBook'; font-size:7.98;">ion</tspan></text>
<polyline style="fill-rule:evenodd;clip-rule:evenodd;fill:#FFFFFF;" points="238.86,150.887 238.74,150.227 238.56,149.567 
	238.2,148.907 237.78,148.427 237.24,148.007 236.64,147.647 235.98,147.467 235.26,147.347 234.6,147.467 233.88,147.647 
	233.28,148.007 232.8,148.427 232.32,148.907 232.02,149.567 231.84,150.227 231.72,150.887 231.84,151.607 232.02,152.267 
	232.32,152.927 232.8,153.407 233.28,153.827 233.88,154.188 234.6,154.367 235.26,154.487 235.98,154.367 236.64,154.188 
	237.24,153.827 237.78,153.407 238.2,152.927 238.56,152.267 238.74,151.607 238.86,150.887 "/>
<polyline points="238.62,150.947 238.5,150.287 238.32,149.627 238.38,149.688 238.02,149.027 238.02,149.087 237.6,148.607 
	237.66,148.607 237.12,148.188 237.12,148.247 236.52,147.887 236.581,147.887 235.92,147.707 235.98,147.707 235.26,147.587 
	235.32,147.587 234.66,147.707 233.94,147.887 234,147.887 233.4,148.247 233.46,148.188 232.98,148.607 232.5,149.087 
	232.56,149.027 232.26,149.688 232.26,149.627 232.081,150.287 231.96,150.947 231.96,150.887 232.081,151.607 232.081,151.547 
	232.26,152.207 232.56,152.867 232.5,152.747 232.98,153.227 233.46,153.647 233.4,153.647 234,154.007 233.94,153.947 
	234.66,154.127 235.32,154.247 235.26,154.247 235.98,154.127 235.92,154.127 236.581,153.947 236.52,154.007 237.12,153.647 
	237.66,153.227 237.6,153.287 238.02,152.807 238.38,152.147 238.32,152.207 238.5,151.547 238.5,151.607 238.62,150.887 
	239.1,150.947 238.98,151.667 238.8,152.327 238.8,152.387 238.44,153.047 238.38,153.107 237.96,153.587 237.42,154.007 
	237.36,154.067 236.76,154.427 236.7,154.427 236.041,154.607 235.32,154.727 235.26,154.727 234.6,154.607 234.541,154.607 
	233.82,154.427 233.76,154.427 233.16,154.067 233.16,154.007 232.68,153.587 232.62,153.587 232.14,153.107 232.14,153.047 
	231.84,152.387 231.78,152.327 231.6,151.667 231.48,150.947 231.48,150.887 231.6,150.227 231.6,150.167 231.78,149.507 
	231.84,149.507 232.14,148.847 232.14,148.727 232.62,148.247 232.68,148.247 233.16,147.827 233.76,147.467 233.82,147.407 
	234.541,147.227 234.6,147.227 235.26,147.107 235.32,147.107 236.041,147.227 236.7,147.407 236.76,147.467 237.36,147.827 
	237.42,147.827 237.96,148.247 237.96,148.307 238.38,148.787 238.44,148.787 238.8,149.447 238.8,149.507 238.98,150.167 
	238.98,150.227 239.1,150.887 "/>
<polyline points="238.62,150.887 238.62,150.947 239.1,150.887 239.1,150.947 "/>
<g>
	<text transform="matrix(1 0 0 1 290.4009 87.4072)" style="font-family:'ProductusBook'; font-size:7.98;">n</text>
	<text transform="matrix(1 0 0 1 286.561 87.4072)" style="font-family:'ProductusBook'; font-size:7.98;">o</text>
	<text transform="matrix(1 0 0 1 285.0005 87.4072)" style="font-family:'ProductusBook'; font-size:7.98;">i</text>
	<text transform="matrix(1 0 0 1 281.521 87.4072)" style="font-family:'ProductusBook'; font-size:7.98;">g</text>
	<text transform="matrix(1 0 0 1 278.0405 87.4072)" style="font-family:'ProductusBook'; font-size:7.98;">e</text>
	<text transform="matrix(1 0 0 1 274.6206 87.4072)" style="font-family:'ProductusBook'; font-size:7.98;">R</text>
	<text transform="matrix(1 0 0 1 271.021 87.4072)" style="font-family:'ProductusBook'; font-size:7.98;">2</text>
	<text transform="matrix(1 0 0 1 267.3003 87.4072)" style="font-family:'ProductusBook'; font-size:7.98;">S</text>
	<text transform="matrix(1 0 0 1 22.6201 87.4072)" style="font-family:'ProductusBook'; font-size:7.98;">n</text>
	<text transform="matrix(1 0 0 1 18.7803 87.4072)" style="font-family:'ProductusBook'; font-size:7.98;">o</text>
	<text transform="matrix(1 0 0 1 17.2202 87.4072)" style="font-family:'ProductusBook'; font-size:7.98;">i</text>
	<text transform="matrix(1 0 0 1 13.7402 87.4072)" style="font-family:'ProductusBook'; font-size:7.98;">g</text>
	<text transform="matrix(1 0 0 1 10.2603 87.4072)" style="font-family:'ProductusBook'; font-size:7.98;">e</text>
	<text transform="matrix(1 0 0 1 6.8398 87.4072)" style="font-family:'ProductusBook'; font-size:7.98;">R</text>
	<text transform="matrix(1 0 0 1 3.6597 87.4072)" style="font-family:'ProductusBook'; font-size:7.98;">1</text>
	<text transform="matrix(1 0 0 1 0 87.4072)" style="font-family:'ProductusBook'; font-size:7.98;">S</text>
</g>
<text transform="matrix(1 0 0 1 32.5801 72.1074)"><tspan x="0" y="0" style="font-family:'ProductusBook'; font-size:7.98;">e</tspan><tspan x="3.519" y="0" style="font-family:'ProductusBook'; font-size:7.98;">x</tspan><tspan x="6.52" y="0" style="font-family:'ProductusBook'; font-size:7.98;">port</tspan><tspan x="18.705" y="0" style="font-family:'ProductusBook'; font-size:7.98;">s</tspan></text>
<text transform="matrix(1 0 0 1 54.0601 72.1074)" style="font-family:'Zed'; font-size:10.98;"> </text>
<text transform="matrix(1 0 0 1 239.2202 72.1074)"><tspan x="0" y="0" style="font-family:'ProductusBook'; font-size:7.98;">import</tspan><tspan x="19.487" y="0" style="font-family:'ProductusBook'; font-size:7.98;">s</tspan></text>
<polyline style="fill-rule:evenodd;clip-rule:evenodd;" points="61.68,150.887 61.56,150.227 61.38,149.567 61.08,148.907 
	60.6,148.427 60.12,148.007 59.52,147.647 58.8,147.467 58.14,147.347 57.42,147.467 56.76,147.647 56.16,148.007 55.62,148.427 
	55.2,148.907 54.84,149.567 54.66,150.227 54.6,150.887 54.66,151.607 54.84,152.267 55.2,152.927 55.62,153.407 56.16,153.827 
	56.76,154.188 57.42,154.367 58.14,154.487 58.8,154.367 59.52,154.188 60.12,153.827 60.6,153.407 61.08,152.927 61.38,152.267 
	61.56,151.607 61.68,150.887 "/>
<polyline points="61.44,150.947 61.32,150.287 61.14,149.627 61.2,149.688 60.9,149.027 60.9,149.087 60.42,148.607 60.48,148.607 
	60,148.188 60,148.247 59.4,147.887 59.46,147.887 58.74,147.707 58.8,147.707 58.14,147.587 58.2,147.587 57.48,147.707 
	56.82,147.887 56.88,147.887 56.28,148.247 56.34,148.188 55.8,148.607 55.38,149.087 55.44,149.027 55.08,149.688 55.08,149.627 
	54.9,150.287 54.84,150.947 54.84,150.887 54.9,151.607 54.9,151.547 55.08,152.207 55.08,152.147 55.44,152.807 55.38,152.807 
	55.8,153.287 55.8,153.227 56.34,153.647 56.28,153.647 56.88,154.007 56.82,153.947 57.48,154.127 58.2,154.247 58.14,154.247 
	58.8,154.127 58.74,154.127 59.46,153.947 59.4,154.007 60,153.647 60.48,153.227 60.42,153.227 60.9,152.747 60.9,152.867 
	61.2,152.207 61.14,152.207 61.32,151.547 61.32,151.607 61.44,150.887 61.92,150.947 61.8,151.667 61.62,152.327 61.62,152.387 
	61.32,153.047 60.78,153.587 60.3,154.007 60.24,154.067 59.64,154.427 59.58,154.427 58.86,154.607 58.2,154.727 58.14,154.727 
	57.42,154.607 57.36,154.607 56.7,154.427 56.64,154.427 56.04,154.067 56.04,154.007 55.5,153.587 55.44,153.587 55.02,153.107 
	55.02,153.047 54.66,152.387 54.6,152.327 54.42,151.667 54.36,150.947 54.36,150.887 54.42,150.227 54.42,150.167 54.6,149.507 
	54.66,149.447 55.02,148.787 55.44,148.307 55.5,148.247 56.04,147.827 56.64,147.467 56.7,147.407 57.36,147.227 57.42,147.227 
	58.14,147.107 58.2,147.107 58.86,147.227 59.58,147.407 59.64,147.467 60.24,147.827 60.3,147.827 60.78,148.247 61.26,148.727 
	61.32,148.847 61.62,149.507 61.8,150.167 61.8,150.227 61.92,150.887 "/>
<polyline points="61.44,150.887 61.44,150.947 61.92,150.887 61.92,150.947 "/>
<text transform="matrix(1 0 0 1 130.9199 166.8467)"><tspan x="0" y="0" style="font-family:'ProductusBook'; font-size:7.98;">i</tspan><tspan x="1.564" y="0" style="font-family:'ProductusBook'; font-size:7.98;">m</tspan><tspan x="7.381" y="0" style="font-family:'ProductusBook'; font-size:7.98;">ports</tspan><tspan x="22.32" y="0" style="font-family:'ProductusBook'; font-size:7.98;"> </tspan><tspan x="23.932" y="0" style="font-family:'ProductusBook'; font-size:7.98;">X</tspan></text>
<text transform="matrix(1 0 0 1 0.9604 155.627)"><tspan x="0" y="0" style="font-family:'ProductusBook'; font-size:7.98;">S</tspan><tspan x="3.663" y="0" style="font-family:'ProductusBook'; font-size:7.98;">3</tspan><tspan x="7.198" y="0" style="font-family:'ProductusBook'; font-size:7.98;">R</tspan><tspan x="10.565" y="0" style="font-family:'ProductusBook'; font-size:7.98;">e</tspan><tspan x="14.101" y="0" style="font-family:'ProductusBook'; font-size:7.98;">gion</tspan></text>
<text transform="matrix(1 0 0 1 137.8203 126.4678)"><tspan x="0" y="0" style="font-family:'ProductusBook'; font-size:7.98;">S5</tspan><tspan x="7.158" y="0" style="font-family:'ProductusBook'; font-size:7.98;">R</tspan><tspan x="10.525" y="0" style="font-family:'ProductusBook'; font-size:7.98;">e</tspan><tspan x="14.061" y="0" style="font-family:'ProductusBook'; font-size:7.98;">gio</tspan><tspan x="22.911" y="0" style="font-family:'ProductusBook'; font-size:7.98;">n</tspan></text>
<text transform="matrix(1 0 0 1 267.3003 148.5469)"><tspan x="0" y="0" style="font-family:'ProductusBook'; font-size:7.98;">S4</tspan><tspan x="7.478" y="0" style="font-family:'ProductusBook'; font-size:7.98;">R</tspan><tspan x="10.9" y="0" style="font-family:'ProductusBook'; font-size:7.98;">e</tspan><tspan x="14.388" y="0" style="font-family:'ProductusBook'; font-size:7.98;">gio</tspan><tspan x="23.262" y="0" style="font-family:'ProductusBook'; font-size:7.98;">n</tspan></text>
<text transform="matrix(1 0 0 1 43.9199 153.5273)" style="font-family:'ProductusOSGiBookc'; font-size:9;">X</text>
<rect x="43.68" y="64.847" width="0.48" height="1.021"/>
<rect x="43.68" y="58.787" width="0.48" height="2.04"/>
<rect x="43.68" y="52.727" width="0.48" height="2.04"/>
<rect x="43.68" y="46.667" width="0.48" height="1.98"/>
<rect x="43.68" y="40.547" width="0.48" height="2.04"/>
<rect x="43.68" y="34.487" width="0.48" height="2.04"/>
<rect x="43.68" y="28.427" width="0.48" height="1.98"/>
<rect x="43.68" y="23.087" width="0.48" height="1.26"/>
<rect x="43.92" y="23.087" width="1.02" height="0.48"/>
<rect x="48.96" y="23.087" width="2.04" height="0.48"/>
<rect x="55.02" y="23.087" width="2.04" height="0.48"/>
<rect x="61.08" y="23.087" width="1.98" height="0.48"/>
<rect x="67.08" y="23.087" width="2.04" height="0.48"/>
<rect x="73.14" y="23.087" width="2.04" height="0.48"/>
<rect x="79.2" y="23.087" width="2.04" height="0.48"/>
<rect x="85.26" y="23.087" width="1.98" height="0.48"/>
<rect x="91.26" y="23.087" width="2.04" height="0.48"/>
<rect x="97.32" y="23.087" width="2.04" height="0.48"/>
<rect x="103.38" y="23.087" width="2.04" height="0.48"/>
<rect x="109.44" y="23.087" width="1.98" height="0.48"/>
<rect x="115.44" y="23.087" width="2.04" height="0.48"/>
<rect x="121.5" y="23.087" width="2.04" height="0.48"/>
<rect x="127.56" y="23.087" width="2.04" height="0.48"/>
<rect x="133.62" y="23.087" width="1.98" height="0.48"/>
<rect x="139.62" y="23.087" width="2.04" height="0.48"/>
<rect x="145.68" y="23.087" width="2.04" height="0.48"/>
<rect x="151.74" y="23.087" width="2.04" height="0.48"/>
<rect x="157.8" y="23.087" width="1.979" height="0.48"/>
<rect x="163.8" y="23.087" width="2.04" height="0.48"/>
<rect x="169.86" y="23.087" width="2.04" height="0.48"/>
<rect x="175.92" y="23.087" width="2.04" height="0.48"/>
<rect x="181.98" y="23.087" width="1.98" height="0.48"/>
<rect x="187.98" y="23.087" width="2.04" height="0.48"/>
<rect x="194.041" y="23.087" width="2.04" height="0.48"/>
<rect x="200.1" y="23.087" width="2.04" height="0.48"/>
<rect x="206.16" y="23.087" width="1.98" height="0.48"/>
<rect x="212.16" y="23.087" width="2.04" height="0.48"/>
<rect x="218.22" y="23.087" width="2.04" height="0.48"/>
<rect x="224.28" y="23.087" width="2.04" height="0.48"/>
<rect x="230.34" y="23.087" width="1.979" height="0.48"/>
<rect x="236.34" y="23.087" width="2.04" height="0.48"/>
<rect x="242.4" y="23.087" width="2.04" height="0.48"/>
<rect x="248.46" y="23.087" width="1.26" height="0.48"/>
<rect x="249.24" y="23.327" width="0.48" height="1.02"/>
<rect x="249.24" y="28.427" width="0.48" height="1.98"/>
<rect x="249.24" y="34.487" width="0.48" height="2.04"/>
<rect x="249.24" y="40.547" width="0.48" height="2.04"/>
<rect x="249.24" y="46.667" width="0.48" height="1.98"/>
<rect x="249.24" y="52.727" width="0.48" height="2.04"/>
<rect x="249.24" y="58.787" width="0.48" height="2.04"/>
<rect x="249.24" y="64.847" width="0.48" height="1.021"/>
<rect x="43.68" y="60.707" width="0.48" height="4.68"/>
<polyline points="46.68,61.067 46.26,60.827 43.68,65.267 43.68,65.507 43.86,65.807 44.1,65.507 "/>
<polyline points="43.68,65.507 44.1,65.267 41.58,60.827 41.16,61.067 "/>
<rect x="43.68" y="44.627" width="0.48" height="0.96"/>
<rect x="43.68" y="49.127" width="0.48" height="1.74"/>
<rect x="43.68" y="54.407" width="0.48" height="1.74"/>
<rect x="43.68" y="59.688" width="0.48" height="1.02"/>
<rect x="249.24" y="60.707" width="0.48" height="4.68"/>
<polyline points="252.18,61.067 251.76,60.827 249.24,65.267 249.24,65.507 249.48,65.927 249.66,65.507 "/>
<polyline points="249.24,65.507 249.66,65.267 247.081,60.827 246.66,61.067 "/>
<rect x="249.24" y="44.627" width="0.48" height="0.96"/>
<rect x="249.24" y="49.127" width="0.48" height="1.74"/>
<rect x="249.24" y="54.407" width="0.48" height="1.74"/>
<rect x="249.24" y="59.688" width="0.48" height="1.02"/>
<rect x="249.24" y="124.487" width="0.48" height="4.68"/>
<polyline points="252.18,124.847 251.76,124.607 249.24,129.047 249.24,129.287 249.48,129.707 249.66,129.287 "/>
<polyline points="249.24,129.287 249.66,129.047 247.081,124.607 246.66,124.847 "/>
<rect x="249.24" y="108.407" width="0.48" height="0.96"/>
<rect x="249.24" y="112.907" width="0.48" height="1.74"/>
<rect x="249.24" y="118.188" width="0.48" height="1.739"/>
<rect x="249.24" y="123.467" width="0.48" height="1.021"/>
<rect x="43.68" y="124.487" width="0.48" height="4.68"/>
<polyline points="46.68,124.847 46.26,124.607 43.68,129.047 43.68,129.287 43.86,129.587 44.1,129.287 "/>
<polyline points="43.68,129.287 44.1,129.047 41.58,124.607 41.16,124.847 "/>
<rect x="43.68" y="108.407" width="0.48" height="0.96"/>
<rect x="43.68" y="112.907" width="0.48" height="1.74"/>
<rect x="43.68" y="118.188" width="0.48" height="1.739"/>
<rect x="43.68" y="123.467" width="0.48" height="1.021"/>
<rect x="123.78" y="164.867" width="4.68" height="0.479"/>
<polyline points="124.14,162.347 123.9,162.767 128.34,165.347 128.58,165.347 129,165.107 128.58,164.927 "/>
<polyline points="128.58,165.347 128.34,164.927 123.9,167.507 124.14,167.927 "/>
<rect x="72.3" y="164.867" width="0.96" height="0.479"/>
<rect x="77.1" y="164.867" width="1.92" height="0.479"/>
<rect x="82.8" y="164.867" width="1.92" height="0.479"/>
<rect x="88.5" y="164.867" width="1.92" height="0.479"/>
<rect x="94.2" y="164.867" width="1.92" height="0.479"/>
<rect x="99.96" y="164.867" width="1.86" height="0.479"/>
<rect x="105.66" y="164.867" width="1.92" height="0.479"/>
<rect x="111.36" y="164.867" width="1.92" height="0.479"/>
<rect x="117.06" y="164.867" width="1.92" height="0.479"/>
<rect x="122.76" y="164.867" width="1.02" height="0.479"/>
<polyline style="fill-rule:evenodd;clip-rule:evenodd;fill:#FFFFFF;" points="131.82,9.167 131.22,9.227 130.74,9.407 130.44,9.527 
	130.26,9.647 130.02,9.827 129.66,10.188 129.3,10.667 129.18,10.907 129.06,11.447 129,11.987 129,48.887 129.06,49.427 
	129.18,49.967 129.3,50.207 129.66,50.688 130.02,51.047 130.26,51.227 130.44,51.347 130.74,51.467 131.22,51.647 131.82,51.707 
	168.66,51.707 169.26,51.647 169.8,51.467 170.28,51.227 170.46,51.047 170.7,50.867 170.88,50.688 171,50.447 171.18,50.207 
	171.3,49.967 171.42,49.427 171.48,48.887 171.48,11.987 171.42,11.447 171.3,10.907 171.18,10.667 171,10.427 170.88,10.188 
	170.7,10.007 170.46,9.827 170.28,9.647 169.8,9.407 169.26,9.227 168.66,9.167 131.82,9.167 "/>
<polyline points="131.88,9.707 131.28,9.767 131.4,9.707 130.92,9.887 130.62,10.007 130.74,9.947 130.56,10.067 130.32,10.247 
	130.38,10.188 130.02,10.547 130.08,10.487 129.72,10.967 129.78,10.907 129.66,11.147 129.72,11.027 129.6,11.567 129.6,11.507 
	129.54,12.047 129.54,11.987 129.54,48.887 129.54,48.827 129.6,49.367 129.6,49.307 129.72,49.847 129.66,49.727 129.78,49.967 
	129.72,49.907 130.08,50.387 130.02,50.327 130.38,50.688 130.32,50.627 130.56,50.807 130.74,50.927 130.62,50.867 130.92,50.987 
	131.4,51.167 131.28,51.167 131.88,51.227 131.82,51.227 168.66,51.227 168.6,51.227 169.2,51.167 169.14,51.167 169.68,50.987 
	169.56,51.047 170.041,50.807 169.92,50.867 170.16,50.627 170.4,50.447 170.34,50.507 170.52,50.327 170.46,50.447 170.581,50.207 
	170.581,50.147 170.76,49.907 170.76,49.967 170.88,49.727 170.82,49.847 170.94,49.307 170.94,49.367 171,48.827 171,48.887 
	171,30.467 172.02,30.467 172.02,48.947 171.96,49.487 171.96,49.547 171.84,50.087 171.66,50.447 171.6,50.507 171.42,50.747 
	171.48,50.688 171.36,50.927 171,51.287 170.76,51.467 170.82,51.407 170.52,51.707 170.041,51.947 169.98,51.947 169.44,52.127 
	169.32,52.188 168.72,52.247 131.76,52.247 131.16,52.188 131.04,52.127 130.56,51.947 130.26,51.827 130.2,51.767 130.02,51.647 
	129.96,51.647 129.72,51.467 129.24,50.987 128.88,50.507 128.88,50.447 128.7,50.087 128.58,49.547 128.58,49.487 128.52,48.947 
	128.52,11.927 128.58,11.387 128.58,11.327 128.7,10.787 128.88,10.427 128.88,10.367 129.24,9.887 129.3,9.827 129.72,9.407 
	129.96,9.227 130.02,9.227 130.2,9.107 130.26,9.047 130.56,8.927 131.04,8.747 131.16,8.747 131.76,8.688 "/>
<polyline points="171,30.467 171,11.987 171,12.047 170.94,11.507 170.94,11.567 170.82,11.027 170.88,11.147 170.76,10.907 
	170.76,10.967 170.581,10.727 170.581,10.667 170.46,10.427 170.52,10.547 170.34,10.367 170.4,10.427 170.16,10.247 169.92,10.007 
	170.041,10.127 169.56,9.887 169.68,9.887 169.14,9.707 169.2,9.767 168.6,9.707 168.66,9.707 131.82,9.707 131.88,9.707 
	131.76,8.688 168.72,8.688 169.32,8.747 169.44,8.747 169.98,8.927 170.041,8.987 170.64,9.287 170.82,9.467 170.76,9.407 
	171,9.587 171.36,9.947 171.48,10.188 171.42,10.127 171.6,10.367 171.66,10.427 171.84,10.787 171.96,11.327 171.96,11.387 
	172.02,11.927 172.02,30.467 "/>
<rect x="57.9" y="44.387" width="0.48" height="106.5"/>
<rect x="58.14" y="44.387" width="177.36" height="0.48"/>
<rect x="235.02" y="44.627" width="0.48" height="106.26"/>
<rect x="58.14" y="150.647" width="99.18" height="0.479"/>
<polyline style="fill-rule:evenodd;clip-rule:evenodd;fill:#FFFFFF;" points="160.86,150.887 160.8,150.227 160.62,149.567 
	160.26,148.907 159.84,148.427 159.3,148.007 158.7,147.647 158.041,147.467 157.32,147.347 156.6,147.467 155.94,147.647 
	155.34,148.007 154.8,148.427 154.38,148.907 154.081,149.567 153.84,150.227 153.78,150.887 153.84,151.607 154.081,152.267 
	154.38,152.927 154.8,153.407 155.34,153.827 155.94,154.188 156.6,154.367 157.32,154.487 158.041,154.367 158.7,154.188 
	159.3,153.827 159.84,153.407 160.26,152.927 160.62,152.267 160.8,151.607 160.86,150.887 "/>
<polyline points="160.62,150.947 160.56,150.287 160.38,149.627 160.44,149.688 160.081,149.027 160.081,149.087 159.66,148.607 
	159.72,148.607 159.18,148.188 159.18,148.247 158.581,147.887 158.64,147.887 157.98,147.707 158.041,147.707 157.32,147.587 
	157.38,147.587 156.66,147.707 156,147.887 156.06,147.887 155.46,148.247 155.52,148.188 154.98,148.607 154.56,149.087 
	154.62,149.027 154.32,149.688 154.081,150.347 154.081,150.287 154.02,150.947 154.02,150.887 154.081,151.607 154.081,151.547 
	154.32,152.207 154.62,152.867 154.56,152.807 154.98,153.287 154.98,153.227 155.52,153.647 155.46,153.647 156.06,154.007 
	156,153.947 156.66,154.127 157.38,154.247 157.32,154.247 158.041,154.127 157.98,154.127 158.64,153.947 158.581,154.007 
	159.18,153.647 159.72,153.227 159.66,153.287 160.081,152.807 160.44,152.147 160.38,152.207 160.56,151.547 160.56,151.607 
	160.62,150.887 161.1,150.947 161.041,151.667 160.86,152.327 160.86,152.387 160.5,153.047 160.44,153.107 160.02,153.587 
	159.48,154.007 159.42,154.067 158.82,154.427 158.76,154.427 158.1,154.607 157.38,154.727 157.32,154.727 156.6,154.607 
	156.541,154.607 155.88,154.427 155.82,154.427 155.22,154.067 155.22,154.007 154.68,153.587 154.62,153.587 154.2,153.107 
	154.2,153.047 153.9,152.387 153.84,152.387 153.6,151.727 153.6,151.667 153.541,150.947 153.541,150.887 153.6,150.227 
	153.6,150.167 153.84,149.507 153.9,149.507 154.2,148.847 154.2,148.787 154.62,148.307 154.68,148.247 155.22,147.827 
	155.82,147.467 155.88,147.407 156.541,147.227 156.6,147.227 157.32,147.107 157.38,147.107 158.1,147.227 158.76,147.407 
	158.82,147.467 159.42,147.827 159.48,147.827 160.02,148.247 160.02,148.307 160.44,148.787 160.5,148.787 160.86,149.447 
	160.86,149.507 161.041,150.167 161.041,150.227 161.1,150.887 "/>
<polyline points="160.62,150.887 160.62,150.947 161.1,150.887 161.1,150.947 "/>
<polyline style="fill-rule:evenodd;clip-rule:evenodd;fill:#FFFFFF;" points="238.86,150.887 238.74,150.227 238.56,149.567 
	238.2,148.907 237.78,148.427 237.24,148.007 236.64,147.647 235.98,147.467 235.26,147.347 234.6,147.467 233.88,147.647 
	233.28,148.007 232.8,148.427 232.32,148.907 232.02,149.567 231.84,150.227 231.72,150.887 231.84,151.607 232.02,152.267 
	232.32,152.927 232.8,153.407 233.28,153.827 233.88,154.188 234.6,154.367 235.26,154.487 235.98,154.367 236.64,154.188 
	237.24,153.827 237.78,153.407 238.2,152.927 238.56,152.267 238.74,151.607 238.86,150.887 "/>
<polyline points="238.62,150.947 238.5,150.287 238.32,149.627 238.38,149.688 238.02,149.027 238.02,149.087 237.6,148.607 
	237.66,148.607 237.12,148.188 237.12,148.247 236.52,147.887 236.581,147.887 235.92,147.707 235.98,147.707 235.26,147.587 
	235.32,147.587 234.66,147.707 233.94,147.887 234,147.887 233.4,148.247 233.46,148.188 232.98,148.607 232.5,149.087 
	232.56,149.027 232.26,149.688 232.26,149.627 232.081,150.287 231.96,150.947 231.96,150.887 232.081,151.607 232.081,151.547 
	232.26,152.207 232.56,152.867 232.5,152.747 232.98,153.227 233.46,153.647 233.4,153.647 234,154.007 233.94,153.947 
	234.66,154.127 235.32,154.247 235.26,154.247 235.98,154.127 235.92,154.127 236.581,153.947 236.52,154.007 237.12,153.647 
	237.66,153.227 237.6,153.287 238.02,152.807 238.38,152.147 238.32,152.207 238.5,151.547 238.5,151.607 238.62,150.887 
	239.1,150.947 238.98,151.667 238.8,152.327 238.8,152.387 238.44,153.047 238.38,153.107 237.96,153.587 237.42,154.007 
	237.36,154.067 236.76,154.427 236.7,154.427 236.041,154.607 235.32,154.727 235.26,154.727 234.6,154.607 234.541,154.607 
	233.82,154.427 233.76,154.427 233.16,154.067 233.16,154.007 232.68,153.587 232.62,153.587 232.14,153.107 232.14,153.047 
	231.84,152.387 231.78,152.327 231.6,151.667 231.48,150.947 231.48,150.887 231.6,150.227 231.6,150.167 231.78,149.507 
	231.84,149.507 232.14,148.847 232.14,148.727 232.62,148.247 232.68,148.247 233.16,147.827 233.76,147.467 233.82,147.407 
	234.541,147.227 234.6,147.227 235.26,147.107 235.32,147.107 236.041,147.227 236.7,147.407 236.76,147.467 237.36,147.827 
	237.42,147.827 237.96,148.247 237.96,148.307 238.38,148.787 238.44,148.787 238.8,149.447 238.8,149.507 238.98,150.167 
	238.98,150.227 239.1,150.887 "/>
<polyline points="238.62,150.887 238.62,150.947 239.1,150.887 239.1,150.947 "/>
<text transform="matrix(1 0 0 1 32.5801 79.667)" style="font-family:'ProductusBook'; font-size:7.98;">X</text>
<text transform="matrix(1 0 0 1 32.5801 135.3467)"><tspan x="0" y="0" style="font-family:'ProductusBook'; font-size:7.98;">e</tspan><tspan x="3.519" y="0" style="font-family:'ProductusBook'; font-size:7.98;">x</tspan><tspan x="6.52" y="0" style="font-family:'ProductusBook'; font-size:7.98;">port</tspan><tspan x="18.705" y="0" style="font-family:'ProductusBook'; font-size:7.98;">s</tspan></text>
<text transform="matrix(1 0 0 1 54.0601 135.3467)" style="font-family:'Zed'; font-size:10.98;"> </text>
<text transform="matrix(1 0 0 1 32.5801 142.9072)" style="font-family:'ProductusBook'; font-size:7.98;">X</text>
<text transform="matrix(1 0 0 1 257.5806 78.9473)" style="font-family:'ProductusBook'; font-size:7.98;">X</text>
<text transform="matrix(1 0 0 1 238.8003 136.0674)"><tspan x="0" y="0" style="font-family:'ProductusBook'; font-size:7.98;">import</tspan><tspan x="19.487" y="0" style="font-family:'ProductusBook'; font-size:7.98;">s</tspan></text>
<text transform="matrix(1 0 0 1 257.1606 142.9072)" style="font-family:'ProductusBook'; font-size:7.98;">X</text>
</svg>
