<?xml version="1.0" encoding="utf-8"?>
<!-- Generator: Adobe Illustrator 16.0.0, SVG Export Plug-In . SVG Version: 6.00 Build 0)  -->
<!DOCTYPE svg PUBLIC "-//W3C//DTD SVG 1.1//EN" "http://www.w3.org/Graphics/SVG/1.1/DTD/svg11.dtd">
<svg version="1.1" id="Layer_1" xmlns="http://www.w3.org/2000/svg" xmlns:xlink="http://www.w3.org/1999/xlink" x="0px" y="0px"
	 width="171.12px" height="31.14px" viewBox="0 0 171.12 31.14" style="enable-background:new 0 0 171.12 31.14;"
	 xml:space="preserve">
<polyline style="fill-rule:evenodd;clip-rule:evenodd;fill:#B2B2B2;" points="3.3,1.38 2.76,1.44 2.22,1.56 1.74,1.86 1.32,2.16 
	0.96,2.58 0.72,3.12 0.54,3.6 0.48,4.2 0.48,26.64 0.54,27.24 0.72,27.78 0.96,28.26 1.32,28.68 1.74,28.98 2.22,29.28 2.76,29.46 
	3.3,29.52 25.98,29.52 26.58,29.46 27.12,29.28 27.6,28.98 28.02,28.68 28.32,28.26 28.62,27.78 28.74,27.24 28.8,26.64 28.8,4.2 
	28.74,3.6 28.62,3.12 28.32,2.58 28.02,2.16 27.6,1.86 27.12,1.56 26.58,1.44 25.98,1.38 3.3,1.38 "/>
<polyline style="fill:#8080FF;" points="3.36,1.62 2.82,1.68 2.28,1.8 2.34,1.8 1.86,2.1 1.92,2.1 1.5,2.4 1.5,2.34 1.14,2.76 
	1.2,2.7 0.96,3.24 0.78,3.72 0.78,3.66 0.72,4.26 0.72,4.2 0.72,26.64 0.78,27.24 0.78,27.18 0.96,27.72 0.96,27.66 1.2,28.14 
	1.14,28.14 1.5,28.56 1.5,28.5 1.92,28.8 1.86,28.8 2.34,29.1 2.34,29.04 2.88,29.22 2.82,29.22 3.36,29.28 3.3,29.28 25.98,29.28 
	26.58,29.22 26.52,29.22 27.06,29.04 27,29.1 27.48,28.8 27.9,28.5 27.84,28.56 28.14,28.14 28.44,27.66 28.38,27.72 28.5,27.18 
	28.5,27.24 28.56,26.64 28.56,4.2 28.56,4.26 28.5,3.66 28.38,3.18 28.44,3.24 28.14,2.7 28.14,2.76 27.84,2.34 27.9,2.4 27.48,2.1 
	27,1.8 27.06,1.8 26.52,1.68 26.58,1.68 25.98,1.62 3.3,1.62 3.3,1.14 26.04,1.14 26.64,1.2 27.18,1.32 27.24,1.38 27.72,1.68 
	27.78,1.68 28.2,1.98 28.26,2.04 28.56,2.46 28.86,3 28.86,3.06 28.98,3.54 28.98,3.6 29.04,4.2 29.04,26.7 28.98,27.3 28.86,27.84 
	28.86,27.9 28.56,28.38 28.56,28.44 28.26,28.86 28.2,28.92 27.78,29.22 27.72,29.22 27.24,29.52 26.7,29.7 26.64,29.7 26.04,29.76 
	3.3,29.76 2.76,29.7 2.7,29.7 2.16,29.52 2.1,29.52 1.62,29.22 1.2,28.92 1.14,28.86 0.78,28.44 0.78,28.38 0.54,27.9 0.48,27.9 
	0.3,27.36 0.3,27.3 0.24,26.7 0.24,4.2 0.3,3.6 0.36,3.54 0.54,3.06 0.78,2.52 0.78,2.46 1.14,2.04 1.2,1.98 1.62,1.68 2.1,1.38 
	2.16,1.32 2.7,1.2 2.76,1.2 3.3,1.14 "/>
<polyline style="fill:#8080FF;" points="3.3,1.62 3.36,1.62 3.3,1.14 "/>
<text transform="matrix(1 0 0 1 7.2603 16.98)"><tspan x="0" y="0" style="font-family:'ProductusSemibold'; font-size:7.98;">R</tspan><tspan x="3.846" y="0" style="font-family:'ProductusSemibold'; font-size:7.98;">o</tspan><tspan x="7.804" y="0" style="font-family:'ProductusSemibold'; font-size:7.98;">o</tspan><tspan x="11.707" y="0" style="font-family:'ProductusSemibold'; font-size:7.98;">t</tspan></text>
<polyline points="3.36,1.92 2.82,1.98 2.88,1.98 2.34,2.1 2.46,2.04 2.22,2.16 2.28,2.1 2.04,2.28 1.98,2.34 1.74,2.46 1.86,2.34 
	1.68,2.52 1.74,2.46 1.56,2.7 1.32,2.94 1.44,2.82 1.32,3.06 1.32,3 1.2,3.3 1.02,3.78 1.08,3.66 1.02,4.26 1.02,4.2 1.02,26.88 
	1.02,26.82 1.08,27.36 1.02,27.3 1.2,27.84 1.2,27.72 1.44,28.2 1.38,28.14 1.56,28.38 1.5,28.32 1.86,28.68 1.8,28.62 2.04,28.8 
	1.98,28.8 2.46,29.04 2.4,28.98 2.94,29.16 2.82,29.16 3.36,29.22 3.3,29.22 25.98,29.22 25.92,29.22 26.52,29.16 26.46,29.16 
	27,28.98 26.88,29.04 27.36,28.8 27.24,28.86 27.48,28.62 27.72,28.44 27.66,28.5 27.84,28.32 27.78,28.44 27.9,28.2 27.9,28.14 
	28.08,27.9 28.08,27.96 28.2,27.72 28.14,27.84 28.26,27.3 28.26,27.36 28.32,26.82 28.32,26.88 28.32,15.54 29.34,15.54 
	29.34,26.94 29.28,27.48 29.28,27.54 29.16,28.08 28.98,28.44 28.92,28.5 28.74,28.74 28.8,28.68 28.68,28.92 28.32,29.28 
	28.08,29.46 28.14,29.4 27.84,29.7 27.36,29.94 27.3,29.94 26.76,30.12 26.64,30.18 26.04,30.24 3.24,30.24 2.7,30.18 2.64,30.12 
	2.1,29.94 1.98,29.94 1.5,29.7 1.44,29.64 1.2,29.46 0.72,28.98 0.54,28.74 0.54,28.68 0.3,28.2 0.24,28.14 0.06,27.6 0.06,27.48 
	0,26.94 0,4.14 0.06,3.54 0.06,3.42 0.24,2.94 0.36,2.64 0.42,2.58 0.6,2.22 0.78,2.04 0.72,2.1 0.9,1.86 1.14,1.62 1.26,1.56 
	1.5,1.44 1.44,1.44 1.68,1.26 1.74,1.26 2.1,1.08 2.64,0.96 2.7,0.96 3.24,0.9 "/>
<polyline points="28.32,15.54 28.32,4.2 28.32,4.26 28.26,3.66 28.26,3.72 28.14,3.24 28.14,3.3 28.02,3 28.08,3.12 27.9,2.88 
	27.78,2.7 27.6,2.46 27.72,2.58 27.48,2.4 27.54,2.4 27.36,2.28 27.3,2.28 27.06,2.1 27.12,2.16 26.88,2.04 27,2.1 26.46,1.98 
	26.52,1.98 25.92,1.92 25.98,1.92 3.3,1.92 3.36,1.92 3.24,0.9 26.04,0.9 26.64,0.96 26.7,0.96 27.24,1.08 27.6,1.26 27.66,1.26 
	27.9,1.44 28.08,1.56 28.32,1.74 28.44,1.86 28.62,2.1 28.62,2.16 28.74,2.34 28.74,2.28 28.92,2.52 28.98,2.64 29.1,2.94 29.1,3 
	29.22,3.48 29.28,3.54 29.34,4.14 29.34,15.54 "/>
<rect x="66.12" y="15.3" width="4.74" height="0.48"/>
<polyline points="66.54,12.78 66.3,13.2 70.74,15.78 70.98,15.78 71.4,15.54 70.98,15.36 "/>
<polyline points="70.98,15.78 70.74,15.36 66.3,17.94 66.54,18.36 "/>
<rect x="28.8" y="15.3" width="1.02" height="0.48"/>
<rect x="33.96" y="15.3" width="2.1" height="0.48"/>
<rect x="40.2" y="15.3" width="2.1" height="0.48"/>
<rect x="46.44" y="15.3" width="2.1" height="0.48"/>
<rect x="52.68" y="15.3" width="2.1" height="0.48"/>
<rect x="58.92" y="15.3" width="2.1" height="0.48"/>
<rect x="65.16" y="15.3" width="0.96" height="0.48"/>
<rect x="100.2" y="8.22" width="4.68" height="0.48"/>
<polyline points="104.521,11.22 104.76,10.8 100.32,8.22 100.08,8.22 99.66,8.46 100.08,8.64 "/>
<polyline points="100.08,8.22 100.32,8.64 104.76,6.06 104.521,5.64 "/>
<rect x="141.24" y="8.22" width="0.96" height="0.48"/>
<rect x="135" y="8.22" width="2.04" height="0.48"/>
<rect x="128.76" y="8.22" width="2.04" height="0.48"/>
<rect x="122.521" y="8.22" width="2.04" height="0.48"/>
<rect x="116.28" y="8.22" width="2.1" height="0.48"/>
<rect x="110.04" y="8.22" width="2.101" height="0.48"/>
<rect x="104.88" y="8.22" width="1.021" height="0.48"/>
<rect x="137.04" y="22.38" width="4.68" height="0.48"/>
<polyline points="137.4,19.86 137.16,20.28 141.601,22.86 141.84,22.86 142.26,22.62 141.84,22.44 "/>
<polyline points="141.84,22.86 141.601,22.44 137.16,25.02 137.4,25.44 "/>
<rect x="99.72" y="22.38" width="0.961" height="0.48"/>
<rect x="104.82" y="22.38" width="2.1" height="0.48"/>
<rect x="111.061" y="22.38" width="2.1" height="0.48"/>
<rect x="117.3" y="22.38" width="2.101" height="0.48"/>
<rect x="123.54" y="22.38" width="2.101" height="0.48"/>
<rect x="129.78" y="22.38" width="2.1" height="0.48"/>
<rect x="136.021" y="22.38" width="1.02" height="0.48"/>
<polyline style="fill:#FF0000;" points="136.561,2.82 133.74,0 105.42,28.32 108.24,31.14 "/>
<polyline style="fill:#FF0000;" points="108.24,0 105.42,2.82 133.74,31.14 136.561,28.32 "/>
<polyline style="fill-rule:evenodd;clip-rule:evenodd;fill:#FFFFFF;" points="145.021,1.38 144.48,1.44 143.94,1.56 143.46,1.86 
	143.04,2.16 142.681,2.58 142.44,3.12 142.26,3.6 142.2,4.2 142.2,26.88 142.26,27.42 142.44,27.96 142.681,28.44 143.04,28.86 
	143.46,29.22 143.94,29.46 144.48,29.64 145.021,29.7 167.7,29.7 168.3,29.64 168.84,29.46 169.32,29.22 169.74,28.86 
	170.101,28.44 170.34,27.96 170.521,27.42 170.58,26.88 170.58,4.2 170.521,3.6 170.34,3.12 170.101,2.58 169.74,2.16 169.32,1.86 
	168.84,1.56 168.3,1.44 167.7,1.38 145.021,1.38 "/>
<polyline style="fill:#8080FF;" points="145.08,1.62 144.54,1.68 144,1.8 144.061,1.8 143.58,2.1 143.641,2.1 143.22,2.4 
	143.22,2.34 142.86,2.76 142.92,2.7 142.681,3.24 142.5,3.72 142.5,3.66 142.44,4.26 142.44,4.2 142.44,26.88 142.5,27.42 
	142.5,27.36 142.681,27.9 142.681,27.84 142.92,28.32 142.86,28.32 143.22,28.74 143.22,28.68 143.641,29.04 143.58,29.04 
	144.061,29.28 144.061,29.22 144.601,29.4 144.54,29.4 145.08,29.46 145.021,29.46 167.7,29.46 168.3,29.4 168.24,29.4 
	168.78,29.22 168.72,29.28 169.2,29.04 169.62,28.68 169.561,28.74 169.92,28.32 170.16,27.84 170.101,27.9 170.28,27.36 
	170.28,27.42 170.34,26.88 170.34,4.2 170.34,4.26 170.28,3.66 170.34,3.72 170.16,3.24 169.92,2.7 169.92,2.76 169.561,2.34 
	169.62,2.4 169.2,2.1 168.72,1.8 168.78,1.8 168.24,1.68 168.3,1.68 167.7,1.62 145.021,1.62 145.021,1.14 167.76,1.14 168.36,1.2 
	168.9,1.32 168.96,1.38 169.44,1.68 169.5,1.68 169.92,1.98 169.92,2.04 170.28,2.46 170.34,2.52 170.58,3.06 170.76,3.54 
	170.76,3.6 170.82,4.2 170.82,26.94 170.76,27.48 170.76,27.54 170.58,28.08 170.34,28.56 170.28,28.62 169.92,29.04 169.5,29.4 
	169.44,29.46 168.96,29.7 168.42,29.88 168.36,29.88 167.76,29.94 145.021,29.94 144.48,29.88 144.42,29.88 143.88,29.7 
	143.82,29.7 143.34,29.46 143.34,29.4 142.92,29.04 142.86,29.04 142.5,28.62 142.5,28.56 142.26,28.08 142.2,28.08 142.021,27.54 
	142.021,27.48 141.96,26.94 141.96,4.2 142.021,3.6 142.08,3.54 142.26,3.06 142.5,2.52 142.5,2.46 142.86,2.04 142.92,1.98 
	143.34,1.68 143.82,1.38 143.88,1.32 144.42,1.2 144.48,1.2 145.021,1.14 "/>
<polyline style="fill:#8080FF;" points="145.021,1.62 145.08,1.62 145.021,1.14 "/>
<polyline style="fill-rule:evenodd;clip-rule:evenodd;fill:#B2B2B2;" points="145.021,1.14 144.48,1.2 143.94,1.319 143.46,1.62 
	143.04,1.919 142.681,2.339 142.44,2.879 142.26,3.359 142.2,3.959 142.2,26.64 142.26,27.18 142.44,27.72 142.681,28.2 
	143.04,28.62 143.46,28.979 143.94,29.22 144.48,29.399 145.021,29.459 167.7,29.459 168.3,29.399 168.84,29.22 169.32,28.979 
	169.74,28.62 170.101,28.2 170.34,27.72 170.521,27.18 170.58,26.64 170.58,3.959 170.521,3.359 170.34,2.879 170.101,2.339 
	169.74,1.919 169.32,1.62 168.84,1.319 168.3,1.2 167.7,1.14 145.021,1.14 "/>
<polyline style="fill:#8080FF;" points="145.08,1.62 144.54,1.68 144,1.8 144.061,1.8 143.58,2.1 143.641,2.1 143.22,2.4 
	143.22,2.34 142.86,2.76 142.92,2.7 142.681,3.24 142.5,3.72 142.5,3.66 142.44,4.26 142.44,4.2 142.44,26.88 142.5,27.42 
	142.5,27.36 142.681,27.9 142.681,27.84 142.92,28.32 142.86,28.32 143.22,28.74 143.22,28.68 143.641,29.04 143.58,29.04 
	144.061,29.28 144.061,29.22 144.601,29.4 144.54,29.4 145.08,29.46 145.021,29.46 167.7,29.46 168.3,29.4 168.24,29.4 
	168.78,29.22 168.72,29.28 169.2,29.04 169.62,28.68 169.561,28.74 169.92,28.32 170.16,27.84 170.101,27.9 170.28,27.36 
	170.28,27.42 170.34,26.88 170.34,4.2 170.34,4.26 170.28,3.66 170.34,3.72 170.16,3.24 169.92,2.7 169.92,2.76 169.561,2.34 
	169.62,2.4 169.2,2.1 168.72,1.8 168.78,1.8 168.24,1.68 168.3,1.68 167.7,1.62 145.021,1.62 145.021,1.14 167.76,1.14 168.36,1.2 
	168.9,1.32 168.96,1.38 169.44,1.68 169.5,1.68 169.92,1.98 169.92,2.04 170.28,2.46 170.34,2.52 170.58,3.06 170.76,3.54 
	170.76,3.6 170.82,4.2 170.82,26.94 170.76,27.48 170.76,27.54 170.58,28.08 170.34,28.56 170.28,28.62 169.92,29.04 169.5,29.4 
	169.44,29.46 168.96,29.7 168.42,29.88 168.36,29.88 167.76,29.94 145.021,29.94 144.48,29.88 144.42,29.88 143.88,29.7 
	143.82,29.7 143.34,29.46 143.34,29.4 142.92,29.04 142.86,29.04 142.5,28.62 142.5,28.56 142.26,28.08 142.2,28.08 142.021,27.54 
	142.021,27.48 141.96,26.94 141.96,4.2 142.021,3.6 142.08,3.54 142.26,3.06 142.5,2.52 142.5,2.46 142.86,2.04 142.92,1.98 
	143.34,1.68 143.82,1.38 143.88,1.32 144.42,1.2 144.48,1.2 145.021,1.14 "/>
<polyline style="fill:#8080FF;" points="145.021,1.62 145.08,1.62 145.021,1.14 "/>
<text transform="matrix(1 0 0 1 152.1602 17.2197)"><tspan x="0" y="0" style="font-family:'ProductusSemibold'; font-size:7.98;">S</tspan><tspan x="4.253" y="0" style="font-family:'ProductusSemibold'; font-size:7.98;">2</tspan></text>
<polyline points="145.08,1.92 144.54,1.98 144.601,1.98 144.061,2.1 144.181,2.04 143.94,2.16 144,2.1 143.76,2.28 143.7,2.34 
	143.46,2.46 143.58,2.34 143.4,2.52 143.46,2.46 143.28,2.7 143.04,2.94 143.16,2.82 143.04,3.06 143.04,3 142.92,3.3 142.74,3.78 
	142.8,3.66 142.74,4.26 142.74,4.2 142.74,26.88 142.74,26.82 142.8,27.36 142.74,27.3 142.92,27.84 142.92,27.72 143.16,28.2 
	143.101,28.14 143.28,28.38 143.22,28.32 143.58,28.68 143.521,28.62 143.76,28.8 143.7,28.8 144.181,29.04 144.12,28.98 
	144.66,29.16 144.54,29.16 145.08,29.22 145.021,29.22 167.7,29.22 167.641,29.22 168.24,29.16 168.181,29.16 168.72,28.98 
	168.601,29.04 169.08,28.8 168.96,28.86 169.2,28.62 169.44,28.44 169.38,28.5 169.561,28.32 169.5,28.38 169.681,28.14 
	169.681,28.2 169.92,27.72 169.86,27.84 170.04,27.3 170.04,27.36 170.101,26.82 170.101,26.88 170.101,15.54 171.12,15.54 
	171.12,26.94 171.061,27.48 171,27.6 170.82,28.14 170.82,28.2 170.58,28.68 170.521,28.74 170.34,28.98 170.28,29.04 170.04,29.28 
	169.8,29.46 169.86,29.4 169.561,29.7 169.08,29.94 169.021,29.94 168.48,30.12 168.36,30.18 167.76,30.24 144.96,30.24 
	144.42,30.18 144.36,30.12 143.82,29.94 143.7,29.94 143.22,29.7 143.16,29.64 142.92,29.46 142.44,28.98 142.26,28.74 
	142.26,28.68 142.021,28.2 141.96,28.14 141.78,27.6 141.78,27.48 141.72,26.94 141.72,4.14 141.78,3.54 141.78,3.42 141.96,2.94 
	142.08,2.64 142.141,2.58 142.32,2.22 142.5,2.04 142.44,2.1 142.62,1.86 142.86,1.62 142.98,1.56 143.22,1.44 143.16,1.44 
	143.4,1.26 143.46,1.26 143.82,1.08 144.36,0.96 144.42,0.96 144.96,0.9 "/>
<polyline points="170.101,15.54 170.101,4.2 170.101,4.26 170.04,3.66 170.04,3.78 169.86,3.3 169.74,3 169.8,3.06 169.681,2.82 
	169.74,2.94 169.5,2.7 169.32,2.46 169.44,2.58 169.2,2.4 169.26,2.4 169.08,2.28 169.021,2.28 168.78,2.1 168.84,2.16 
	168.601,2.04 168.72,2.1 168.181,1.98 168.24,1.98 167.641,1.92 167.7,1.92 145.021,1.92 145.08,1.92 144.96,0.9 167.76,0.9 
	168.36,0.96 168.42,0.96 168.96,1.08 169.32,1.26 169.38,1.26 169.62,1.44 169.8,1.56 170.04,1.74 170.16,1.86 170.34,2.1 
	170.28,2.04 170.58,2.34 170.7,2.58 170.7,2.64 170.82,2.94 171,3.42 171.061,3.54 171.12,4.14 171.12,15.54 "/>
<polyline style="fill-rule:evenodd;clip-rule:evenodd;fill:#FFFFFF;" points="74.16,1.38 73.62,1.44 73.08,1.56 72.601,1.86 
	72.181,2.16 71.82,2.58 71.58,3.12 71.4,3.6 71.34,4.2 71.34,26.88 71.4,27.42 71.58,27.96 71.82,28.44 72.181,28.86 72.601,29.22 
	73.08,29.46 73.62,29.64 74.16,29.7 96.84,29.7 97.44,29.64 97.98,29.46 98.46,29.22 98.88,28.86 99.181,28.44 99.48,27.96 
	99.66,27.42 99.72,26.88 99.72,4.2 99.66,3.6 99.48,3.12 99.181,2.58 98.88,2.16 98.46,1.86 97.98,1.56 97.44,1.44 96.84,1.38 
	74.16,1.38 "/>
<polyline style="fill:#8080FF;" points="74.22,1.62 73.681,1.68 73.141,1.8 73.2,1.8 72.72,2.1 72.78,2.1 72.36,2.4 72.36,2.34 
	72,2.76 72.061,2.7 71.82,3.24 71.641,3.72 71.641,3.66 71.58,4.26 71.58,4.2 71.58,26.88 71.641,27.42 71.641,27.36 71.82,27.9 
	71.82,27.84 72.061,28.32 72,28.32 72.36,28.74 72.36,28.68 72.78,29.04 72.72,29.04 73.2,29.28 73.2,29.22 73.74,29.4 73.681,29.4 
	74.22,29.46 74.16,29.46 96.84,29.46 97.44,29.4 97.38,29.4 97.92,29.22 97.86,29.28 98.34,29.04 98.76,28.68 98.7,28.74 99,28.32 
	99.3,27.84 99.24,27.9 99.42,27.36 99.42,27.42 99.48,26.88 99.48,4.2 99.48,4.26 99.42,3.66 99.48,3.72 99.3,3.24 99,2.7 99,2.76 
	98.7,2.34 98.76,2.4 98.34,2.1 97.86,1.8 97.92,1.8 97.38,1.68 97.44,1.68 96.84,1.62 74.16,1.62 74.16,1.14 96.9,1.14 97.5,1.2 
	98.04,1.32 98.101,1.38 98.58,1.68 98.641,1.68 99.061,1.98 99.12,2.04 99.42,2.46 99.72,3 99.72,3.06 99.9,3.54 99.9,3.6 
	99.96,4.2 99.96,26.94 99.9,27.48 99.9,27.54 99.72,28.08 99.42,28.56 99.42,28.62 99.12,29.04 99.061,29.04 98.641,29.4 
	98.58,29.46 98.101,29.7 97.561,29.88 97.5,29.88 96.9,29.94 74.16,29.94 73.62,29.88 73.561,29.88 73.021,29.7 72.96,29.7 
	72.48,29.46 72.48,29.4 72.061,29.04 72,29.04 71.641,28.62 71.641,28.56 71.4,28.08 71.34,28.08 71.16,27.54 71.16,27.48 
	71.101,26.94 71.101,4.2 71.16,3.6 71.22,3.54 71.4,3.06 71.641,2.52 71.641,2.46 72,2.04 72.061,1.98 72.48,1.68 72.96,1.38 
	73.021,1.32 73.561,1.2 73.62,1.2 74.16,1.14 "/>
<polyline style="fill:#8080FF;" points="74.16,1.62 74.22,1.62 74.16,1.14 "/>
<polyline style="fill-rule:evenodd;clip-rule:evenodd;fill:#B2B2B2;" points="74.19,1.92 73.65,1.98 73.11,2.1 72.631,2.4 
	72.211,2.7 71.851,3.12 71.61,3.66 71.431,4.14 71.37,4.74 71.37,27.42 71.431,27.96 71.61,28.5 71.851,28.98 72.211,29.4 
	72.631,29.76 73.11,30 73.65,30.18 74.19,30.24 96.87,30.24 97.471,30.18 98.011,30 98.49,29.76 98.91,29.4 99.211,28.98 
	99.511,28.5 99.69,27.96 99.75,27.42 99.75,4.74 99.69,4.14 99.511,3.66 99.211,3.12 98.91,2.7 98.49,2.4 98.011,2.1 97.471,1.98 
	96.87,1.92 74.19,1.92 "/>
<polyline style="fill:#8080FF;" points="74.22,1.62 73.681,1.68 73.141,1.8 73.2,1.8 72.72,2.1 72.78,2.1 72.36,2.4 72.36,2.34 
	72,2.76 72.061,2.7 71.82,3.24 71.641,3.72 71.641,3.66 71.58,4.26 71.58,4.2 71.58,26.88 71.641,27.42 71.641,27.36 71.82,27.9 
	71.82,27.84 72.061,28.32 72,28.32 72.36,28.74 72.36,28.68 72.78,29.04 72.72,29.04 73.2,29.28 73.2,29.22 73.74,29.4 73.681,29.4 
	74.22,29.46 74.16,29.46 96.84,29.46 97.44,29.4 97.38,29.4 97.92,29.22 97.86,29.28 98.34,29.04 98.76,28.68 98.7,28.74 99,28.32 
	99.3,27.84 99.24,27.9 99.42,27.36 99.42,27.42 99.48,26.88 99.48,4.2 99.48,4.26 99.42,3.66 99.48,3.72 99.3,3.24 99,2.7 99,2.76 
	98.7,2.34 98.76,2.4 98.34,2.1 97.86,1.8 97.92,1.8 97.38,1.68 97.44,1.68 96.84,1.62 74.16,1.62 74.16,1.14 96.9,1.14 97.5,1.2 
	98.04,1.32 98.101,1.38 98.58,1.68 98.641,1.68 99.061,1.98 99.12,2.04 99.42,2.46 99.72,3 99.72,3.06 99.9,3.54 99.9,3.6 
	99.96,4.2 99.96,26.94 99.9,27.48 99.9,27.54 99.72,28.08 99.42,28.56 99.42,28.62 99.12,29.04 99.061,29.04 98.641,29.4 
	98.58,29.46 98.101,29.7 97.561,29.88 97.5,29.88 96.9,29.94 74.16,29.94 73.62,29.88 73.561,29.88 73.021,29.7 72.96,29.7 
	72.48,29.46 72.48,29.4 72.061,29.04 72,29.04 71.641,28.62 71.641,28.56 71.4,28.08 71.34,28.08 71.16,27.54 71.16,27.48 
	71.101,26.94 71.101,4.2 71.16,3.6 71.22,3.54 71.4,3.06 71.641,2.52 71.641,2.46 72,2.04 72.061,1.98 72.48,1.68 72.96,1.38 
	73.021,1.32 73.561,1.2 73.62,1.2 74.16,1.14 "/>
<polyline style="fill:#8080FF;" points="74.16,1.62 74.22,1.62 74.16,1.14 "/>
<text transform="matrix(1 0 0 1 81.54 17.2197)"><tspan x="0" y="0" style="font-family:'ProductusSemibold'; font-size:7.98;">S</tspan><tspan x="4.253" y="0" style="font-family:'ProductusSemibold'; font-size:7.98;">1</tspan></text>
<polyline points="74.22,1.92 73.681,1.98 73.74,1.98 73.2,2.1 73.32,2.04 73.08,2.16 73.141,2.1 72.9,2.28 72.84,2.34 72.601,2.46 
	72.72,2.34 72.54,2.52 72.601,2.46 72.42,2.7 72.181,2.94 72.3,2.82 72.181,3.06 72.181,3 72.061,3.3 71.88,3.78 71.94,3.66 
	71.88,4.26 71.88,4.2 71.88,26.88 71.88,26.82 71.94,27.36 71.88,27.3 72.061,27.84 72.061,27.72 72.3,28.2 72.24,28.14 
	72.42,28.38 72.36,28.32 72.72,28.68 72.66,28.62 72.9,28.8 72.84,28.8 73.32,29.04 73.26,28.98 73.8,29.16 73.681,29.16 
	74.22,29.22 74.16,29.22 96.84,29.22 96.78,29.22 97.38,29.16 97.32,29.16 97.86,28.98 97.74,29.04 98.22,28.8 98.101,28.86 
	98.28,28.68 98.34,28.62 98.58,28.44 98.521,28.5 98.7,28.32 98.641,28.44 98.76,28.2 98.76,28.14 98.94,27.9 98.94,27.96 
	99.061,27.72 99,27.84 99.181,27.3 99.181,27.36 99.24,26.82 99.24,26.88 99.24,15.54 100.26,15.54 100.26,26.94 100.2,27.48 
	100.141,27.6 99.96,28.14 99.96,28.2 99.84,28.44 99.78,28.5 99.601,28.74 99.66,28.68 99.54,28.92 99.181,29.28 98.94,29.46 
	99,29.4 98.7,29.7 98.22,29.94 98.16,29.94 97.62,30.12 97.5,30.18 96.9,30.24 74.101,30.24 73.561,30.18 73.5,30.12 72.96,29.94 
	72.84,29.94 72.36,29.7 72.3,29.64 72.061,29.46 72,29.4 71.58,28.98 71.4,28.74 71.4,28.68 71.16,28.2 71.101,28.14 70.92,27.6 
	70.92,27.48 70.86,26.94 70.86,4.14 70.92,3.54 70.92,3.42 71.101,2.94 71.22,2.64 71.28,2.58 71.46,2.22 71.641,2.04 71.58,2.1 
	71.76,1.86 72,1.62 72.12,1.56 72.36,1.44 72.3,1.44 72.54,1.26 72.601,1.26 72.96,1.08 73.5,0.96 73.561,0.96 74.101,0.9 "/>
<polyline points="99.24,15.54 99.24,4.2 99.24,4.26 99.181,3.66 99.181,3.78 99,3.3 98.88,3 98.94,3.12 98.76,2.88 98.641,2.7 
	98.46,2.46 98.58,2.58 98.34,2.4 98.4,2.4 98.22,2.28 98.16,2.28 97.92,2.1 97.98,2.16 97.74,2.04 97.86,2.1 97.32,1.98 97.38,1.98 
	96.78,1.92 96.84,1.92 74.16,1.92 74.22,1.92 74.101,0.9 96.9,0.9 97.5,0.96 97.561,0.96 98.101,1.08 98.46,1.26 98.521,1.26 
	98.76,1.44 98.94,1.56 99.181,1.74 99.3,1.86 99.48,2.1 99.48,2.16 99.601,2.34 99.601,2.28 99.78,2.52 99.84,2.64 99.96,2.94 
	100.141,3.42 100.2,3.54 100.26,4.14 100.26,15.54 "/>
</svg>
