<?xml version="1.0" encoding="utf-8"?>
<!-- Generator: Adobe Illustrator 16.0.1, SVG Export Plug-In . SVG Version: 6.00 Build 0)  -->
<!DOCTYPE svg PUBLIC "-//W3C//DTD SVG 1.1//EN" "http://www.w3.org/Graphics/SVG/1.1/DTD/svg11.dtd">
<svg version="1.1" id="Layer_1" xmlns="http://www.w3.org/2000/svg" xmlns:xlink="http://www.w3.org/1999/xlink" x="0px" y="0px"
	 width="284.52px" height="95.204px" viewBox="0 0 284.52 95.204" enable-background="new 0 0 284.52 95.204" xml:space="preserve">
<polyline fill="#B2B2B2" points="223.02,2.508 222.419,2.567 221.88,2.748 221.4,2.987 220.98,3.348 220.68,3.768 220.38,4.248 
	220.26,4.788 220.2,5.388 220.2,70.547 220.26,71.147 220.38,71.688 220.68,72.168 220.98,72.588 221.4,72.888 221.88,73.188 
	222.419,73.368 281.7,73.368 282.24,73.188 282.72,72.888 283.14,72.588 283.5,72.168 283.74,71.688 283.919,71.147 283.98,70.547 
	283.98,5.388 283.919,4.788 283.74,4.248 283.5,3.768 283.14,3.348 282.72,2.987 282.24,2.748 281.7,2.567 281.1,2.508 
	223.02,2.508 "/>
<polyline fill="#8080FF" points="223.08,2.748 222.48,2.808 222.54,2.808 222,2.987 221.52,3.228 221.58,3.168 221.16,3.527 
	221.22,3.527 220.919,3.947 220.919,3.888 220.62,4.368 220.62,4.308 220.5,4.848 220.44,5.447 220.44,5.388 220.44,70.547 
	220.5,71.147 220.5,71.088 220.62,71.627 220.62,71.567 220.919,72.047 221.22,72.467 221.16,72.409 221.58,72.708 221.52,72.708 
	222,73.008 222,72.948 222.54,73.127 222.419,73.127 281.7,73.127 281.64,73.127 282.18,72.948 282.12,73.008 282.6,72.708 
	283.02,72.409 282.959,72.467 283.32,72.047 283.56,71.567 283.5,71.627 283.68,71.088 283.68,71.147 283.74,70.547 283.74,5.388 
	283.74,5.447 283.68,4.848 283.68,4.908 283.5,4.368 283.56,4.368 283.32,3.888 283.32,3.947 282.959,3.527 283.02,3.527 
	282.6,3.168 282.6,3.228 282.12,2.987 282.18,2.987 281.64,2.808 281.7,2.808 281.1,2.748 223.02,2.748 223.02,2.268 281.16,2.268 
	281.76,2.328 281.82,2.328 282.36,2.508 282.36,2.567 282.84,2.808 282.9,2.808 283.32,3.168 283.32,3.228 283.68,3.647 
	283.74,3.647 283.98,4.128 283.98,4.188 284.16,4.728 284.16,4.788 284.22,5.388 284.22,70.607 284.16,71.208 284.16,71.268 
	283.98,71.808 283.74,72.288 283.68,72.348 283.32,72.768 283.32,72.829 282.9,73.127 282.84,73.127 282.36,73.428 281.82,73.607 
	222.36,73.607 221.82,73.428 221.76,73.428 221.28,73.127 220.86,72.829 220.8,72.768 220.5,72.348 220.5,72.288 220.2,71.808 
	220.14,71.749 220.02,71.208 219.959,70.607 219.959,5.388 220.02,4.788 220.02,4.728 220.14,4.188 220.2,4.128 220.5,3.647 
	220.8,3.228 220.86,3.168 221.28,2.808 221.76,2.567 221.82,2.508 222.36,2.328 222.419,2.328 223.02,2.268 "/>
<polyline fill="#8080FF" points="223.02,2.748 223.08,2.748 223.02,2.268 "/>
<rect x="227.28" y="9.588" fill="#808080" width="28.32" height="14.22"/>
<polyline fill="#B2B2B2" points="3.3,2.508 2.76,2.567 2.22,2.748 1.74,2.987 1.32,3.348 0.96,3.768 0.72,4.248 0.54,4.788 
	0.48,5.388 0.48,70.547 0.54,71.147 0.72,71.688 0.96,72.168 1.32,72.588 1.74,72.888 2.22,73.188 2.76,73.368 61.98,73.368 
	62.52,73.188 63,72.888 63.42,72.588 63.78,72.168 64.02,71.688 64.2,71.147 64.26,70.547 64.26,5.388 64.2,4.788 64.02,4.248 
	63.78,3.768 63.42,3.348 63,2.987 62.52,2.748 61.98,2.567 61.44,2.508 3.3,2.508 "/>
<polyline fill="#8080FF" points="3.36,2.748 2.82,2.808 2.88,2.808 2.34,2.987 1.86,3.228 1.92,3.168 1.5,3.527 1.14,3.947 
	1.2,3.888 0.96,4.368 0.78,4.908 0.78,4.848 0.72,5.447 0.72,5.388 0.72,70.547 0.78,71.147 0.78,71.088 0.96,71.627 0.96,71.567 
	1.2,72.047 1.14,72.047 1.5,72.467 1.5,72.409 1.92,72.708 1.86,72.708 2.34,73.008 2.34,72.948 2.88,73.127 2.76,73.127 
	61.98,73.127 61.92,73.127 62.46,72.948 62.4,73.008 62.88,72.708 63.3,72.409 63.24,72.467 63.6,72.047 63.84,71.567 63.78,71.627 
	63.96,71.088 63.96,71.147 64.02,70.547 64.02,5.388 64.02,5.447 63.96,4.848 63.96,4.908 63.78,4.368 63.84,4.368 63.6,3.888 
	63.6,3.947 63.24,3.527 63.3,3.527 62.88,3.168 62.88,3.228 62.4,2.987 62.46,2.987 61.92,2.808 61.98,2.808 61.44,2.748 3.3,2.748 
	3.3,2.268 61.5,2.268 62.04,2.328 62.1,2.328 62.64,2.508 62.64,2.567 63.12,2.808 63.18,2.808 63.6,3.168 63.6,3.228 63.96,3.647 
	64.02,3.647 64.26,4.128 64.26,4.188 64.44,4.728 64.44,4.788 64.5,5.388 64.5,70.607 64.44,71.208 64.44,71.268 64.26,71.808 
	64.02,72.288 63.96,72.348 63.6,72.768 63.6,72.829 63.18,73.127 63.12,73.127 62.64,73.428 62.1,73.607 2.7,73.607 2.16,73.428 
	2.1,73.428 1.62,73.127 1.2,72.829 1.14,72.768 0.78,72.348 0.78,72.288 0.54,71.808 0.48,71.808 0.3,71.268 0.3,71.208 
	0.24,70.607 0.24,5.388 0.3,4.788 0.3,4.728 0.48,4.188 0.54,4.128 0.78,3.647 1.14,3.228 1.2,3.168 1.62,2.808 2.1,2.567 
	2.16,2.508 2.7,2.328 2.76,2.328 3.3,2.268 "/>
<polyline fill="#8080FF" points="3.3,2.748 3.36,2.748 3.3,2.268 "/>
<polyline fill="#B2B2B2" points="130.86,2.508 130.32,2.567 129.78,2.748 129.3,2.987 128.88,3.348 128.52,3.768 128.28,4.248 
	128.1,4.788 128.04,5.388 128.04,70.547 128.1,71.147 128.28,71.688 128.52,72.168 128.88,72.588 129.3,72.888 129.78,73.188 
	130.32,73.368 154.14,73.368 154.68,73.188 155.16,72.888 155.58,72.588 155.88,72.168 156.18,71.688 156.36,71.147 156.419,70.547 
	156.419,5.388 156.36,4.788 156.18,4.248 155.88,3.768 155.58,3.348 155.16,2.987 154.68,2.748 154.14,2.567 153.54,2.508 
	130.86,2.508 "/>
<polyline fill="#8080FF" points="130.919,2.748 130.38,2.808 130.44,2.808 129.9,2.987 129.419,3.228 129.48,3.168 129.06,3.527 
	128.7,3.947 128.76,3.888 128.52,4.368 128.34,4.908 128.34,4.848 128.28,5.447 128.28,5.388 128.28,70.547 128.34,71.147 
	128.34,71.088 128.52,71.627 128.52,71.567 128.76,72.047 128.7,72.047 129.06,72.467 129.06,72.409 129.48,72.708 129.419,72.708 
	129.9,73.008 129.9,72.948 130.44,73.127 130.32,73.127 154.14,73.127 154.08,73.127 154.62,72.948 154.56,73.008 155.04,72.708 
	155.459,72.409 155.4,72.467 155.7,72.047 156,71.567 155.94,71.627 156.12,71.088 156.12,71.147 156.18,70.547 156.18,5.388 
	156.18,5.447 156.12,4.848 156.12,4.908 155.94,4.368 156,4.368 155.7,3.888 155.7,3.947 155.4,3.527 155.459,3.527 155.04,3.168 
	155.04,3.228 154.56,2.987 154.62,2.987 154.08,2.808 154.14,2.808 153.54,2.748 130.86,2.748 130.86,2.268 153.6,2.268 
	154.2,2.328 154.26,2.328 154.8,2.508 154.8,2.567 155.28,2.808 155.34,2.808 155.76,3.168 155.82,3.228 156.12,3.647 
	156.419,4.128 156.419,4.188 156.6,4.728 156.6,4.788 156.66,5.388 156.66,70.607 156.6,71.208 156.6,71.268 156.419,71.808 
	156.12,72.288 156.12,72.348 155.82,72.768 155.76,72.829 155.34,73.127 155.28,73.127 154.8,73.428 154.26,73.607 130.26,73.607 
	129.72,73.428 129.66,73.428 129.18,73.127 128.76,72.829 128.7,72.768 128.34,72.348 128.34,72.288 128.1,71.808 128.04,71.808 
	127.86,71.268 127.86,71.208 127.8,70.607 127.8,5.388 127.86,4.788 127.86,4.728 128.04,4.188 128.1,4.128 128.34,3.647 
	128.7,3.228 128.76,3.168 129.18,2.808 129.66,2.567 129.72,2.508 130.26,2.328 130.32,2.328 130.86,2.268 "/>
<polyline fill="#8080FF" points="130.86,2.748 130.919,2.748 130.86,2.268 "/>
<text transform="matrix(1 0 0 1 135.1199 39.6479)" font-family="'ProductusSemibold'" font-size="7.98">s1</text>
<text transform="matrix(1 0 0 1 27.5999 39.6479)" font-family="'ProductusSemibold'" font-size="7.98">Root</text>
<rect x="28.8" y="9.588" fill="#808080" width="28.38" height="14.22"/>
<text transform="matrix(1 0 0 1 173.8206 66.1079)" font-family="'ProductusSemibold'" font-size="7.98">Allow</text>
<text transform="matrix(1 0 0 1 173.8206 10.188)" font-family="'ProductusSemibold'" font-size="7.98">Allow</text>
<polyline points="3.36,3.048 2.82,3.107 2.94,3.048 2.4,3.228 2.46,3.228 1.98,3.468 2.04,3.408 1.8,3.588 1.86,3.527 1.68,3.708 
	1.74,3.647 1.56,3.888 1.32,4.128 1.44,4.008 1.2,4.487 1.2,4.428 1.02,4.968 1.08,4.848 1.02,5.447 1.02,5.388 1.02,70.547 
	1.02,70.487 1.08,71.088 1.02,71.027 1.2,71.567 1.2,71.448 1.44,71.928 1.32,71.808 1.56,72.047 1.74,72.288 1.68,72.228 
	1.86,72.409 1.74,72.348 1.98,72.467 2.04,72.467 2.28,72.647 2.22,72.647 2.46,72.768 2.4,72.708 2.94,72.888 2.76,72.888 
	61.98,72.888 61.86,72.888 62.4,72.708 62.28,72.768 62.52,72.647 62.46,72.647 62.7,72.467 62.76,72.467 63,72.348 62.88,72.409 
	63.06,72.228 63,72.288 63.18,72.047 63.42,71.808 63.36,71.928 63.6,71.448 63.54,71.567 63.72,71.027 63.72,71.088 63.78,70.487 
	63.78,70.547 63.78,37.968 64.8,37.968 64.8,70.607 64.74,71.208 64.68,71.329 64.5,71.868 64.5,71.928 64.26,72.409 63.96,72.708 
	64.02,72.647 63.84,72.888 63.48,73.249 63.24,73.368 63.3,73.308 63.06,73.487 63,73.547 62.76,73.668 62.7,73.668 61.98,73.909 
	2.76,73.909 2.64,73.848 2.1,73.668 1.98,73.668 1.74,73.547 1.68,73.487 1.44,73.308 1.5,73.368 1.26,73.249 0.9,72.888 
	0.72,72.647 0.78,72.708 0.6,72.527 0.3,71.928 0.24,71.868 0.06,71.329 0.06,71.208 0,70.607 0,5.328 0.06,4.728 0.06,4.668 
	0.24,4.128 0.6,3.408 0.78,3.228 0.72,3.288 0.9,3.048 1.2,2.748 1.44,2.567 1.5,2.567 1.74,2.447 2.1,2.268 2.64,2.088 2.7,2.088 
	3.24,2.027 "/>
<polyline points="63.78,37.968 63.78,5.388 63.78,5.447 63.72,4.848 63.72,4.968 63.54,4.428 63.6,4.487 63.36,4.008 63.42,4.128 
	63.18,3.888 63,3.647 63.06,3.708 62.88,3.527 62.94,3.588 62.7,3.408 62.76,3.468 62.28,3.228 62.4,3.228 61.86,3.048 61.92,3.107 
	61.38,3.048 61.44,3.048 3.3,3.048 3.36,3.048 3.24,2.027 61.5,2.027 62.04,2.088 62.16,2.088 62.7,2.268 62.76,2.328 63.24,2.567 
	63.3,2.567 63.54,2.748 63.84,3.048 64.02,3.288 63.96,3.228 64.26,3.527 64.5,4.008 64.5,4.128 64.68,4.668 64.74,4.728 
	64.8,5.328 64.8,37.968 "/>
<polyline points="130.919,3.048 130.38,3.107 130.5,3.048 129.959,3.228 130.02,3.228 129.54,3.468 129.6,3.408 129.36,3.588 
	129.419,3.527 129.24,3.708 129.3,3.647 129.12,3.888 128.88,4.128 129,4.008 128.76,4.487 128.76,4.428 128.58,4.968 128.64,4.848 
	128.58,5.447 128.58,5.388 128.58,70.547 128.58,70.487 128.64,71.088 128.58,71.027 128.76,71.567 128.76,71.448 129,71.928 
	128.88,71.808 129.12,72.047 129.3,72.288 129.24,72.228 129.419,72.409 129.3,72.348 129.54,72.467 129.6,72.467 129.84,72.647 
	129.78,72.647 130.02,72.768 129.959,72.708 130.5,72.888 130.32,72.888 154.14,72.888 154.02,72.888 154.56,72.708 154.44,72.768 
	154.68,72.647 154.62,72.647 154.86,72.467 154.919,72.467 155.1,72.348 155.04,72.348 155.28,72.168 155.16,72.288 155.34,72.047 
	155.34,72.107 155.459,71.928 155.459,71.868 155.64,71.627 155.64,71.688 155.76,71.448 155.7,71.567 155.88,71.027 155.88,71.088 
	155.94,70.487 155.94,70.547 155.94,37.968 156.959,37.968 156.959,70.607 156.9,71.208 156.84,71.329 156.66,71.868 156.66,71.928 
	156.54,72.168 156.48,72.228 156.3,72.467 156.18,72.647 156,72.888 155.88,73.008 155.64,73.188 155.459,73.308 155.22,73.487 
	155.16,73.547 154.919,73.668 154.86,73.668 154.32,73.848 154.14,73.909 130.32,73.909 130.2,73.848 129.66,73.668 129.54,73.668 
	129.3,73.547 129.24,73.487 129,73.308 129.06,73.368 128.82,73.249 128.459,72.888 128.28,72.647 128.34,72.708 128.16,72.527 
	127.86,71.928 127.8,71.868 127.62,71.329 127.62,71.208 127.56,70.607 127.56,5.328 127.62,4.728 127.62,4.668 127.8,4.128 
	128.16,3.408 128.34,3.228 128.28,3.288 128.459,3.048 128.7,2.808 128.76,2.748 129,2.567 129.06,2.567 129.3,2.447 129.66,2.268 
	130.2,2.088 130.26,2.088 130.8,2.027 "/>
<polyline points="155.94,37.968 155.94,5.388 155.94,5.447 155.88,4.848 155.88,4.968 155.7,4.428 155.76,4.487 155.64,4.248 
	155.64,4.308 155.459,4.067 155.34,3.888 155.16,3.647 155.28,3.768 155.04,3.588 154.98,3.527 154.8,3.348 154.919,3.468 
	154.44,3.228 154.56,3.228 154.02,3.048 154.08,3.107 153.48,3.048 153.54,3.048 130.86,3.048 130.919,3.048 130.8,2.027 
	153.6,2.027 154.2,2.088 154.32,2.088 154.86,2.268 154.919,2.328 155.16,2.447 155.4,2.567 155.52,2.628 155.7,2.808 155.64,2.748 
	155.88,2.928 156,3.048 156.18,3.288 156.18,3.348 156.3,3.527 156.3,3.468 156.48,3.708 156.54,3.768 156.66,4.008 156.66,4.128 
	156.84,4.668 156.9,4.728 156.959,5.328 156.959,37.968 "/>
<text transform="matrix(1 0 0 1 234.3596 39.6479)" font-family="'ProductusSemibold'" font-size="7.98">S2</text>
<polyline points="223.08,3.048 222.48,3.107 222.6,3.048 222.06,3.228 222.12,3.228 221.64,3.468 221.76,3.348 221.58,3.527 
	221.52,3.588 221.28,3.768 221.4,3.647 221.22,3.888 221.1,4.067 220.919,4.308 220.98,4.248 220.86,4.487 220.919,4.368 
	220.8,4.908 220.8,4.848 220.74,5.447 220.74,5.388 220.74,70.547 220.74,70.487 220.8,71.088 220.8,71.027 220.919,71.567 
	220.86,71.448 220.98,71.688 220.919,71.627 221.1,71.868 221.1,71.928 221.22,72.107 221.22,72.047 221.4,72.288 221.28,72.168 
	221.52,72.348 221.7,72.467 221.94,72.647 221.88,72.647 222.12,72.768 222.06,72.708 222.6,72.888 222.419,72.888 281.7,72.888 
	281.58,72.888 282.12,72.708 282,72.768 282.24,72.647 282.18,72.647 282.419,72.467 282.48,72.467 282.66,72.348 282.6,72.348 
	282.84,72.168 282.72,72.288 282.9,72.047 282.959,71.987 283.14,71.808 283.08,71.928 283.32,71.448 283.26,71.567 283.44,71.027 
	283.44,71.088 283.5,70.487 283.5,70.547 283.5,37.968 284.52,37.968 284.52,70.607 284.459,71.208 284.4,71.329 284.22,71.868 
	284.22,71.928 283.98,72.409 283.68,72.708 283.74,72.647 283.56,72.888 283.44,73.008 283.2,73.188 283.02,73.308 282.78,73.487 
	282.72,73.547 282.48,73.668 282.419,73.668 281.88,73.848 281.7,73.909 222.419,73.909 222.3,73.848 221.76,73.668 221.64,73.668 
	221.4,73.547 221.34,73.487 221.1,73.308 221.16,73.308 220.98,73.188 220.919,73.188 220.68,73.008 220.56,72.888 220.38,72.647 
	220.26,72.467 220.08,72.228 220.08,72.168 219.9,71.808 219.78,71.268 219.78,71.208 219.72,70.607 219.72,5.328 219.78,4.728 
	219.78,4.668 219.9,4.128 220.08,3.768 220.08,3.708 220.26,3.468 220.26,3.527 220.38,3.348 220.38,3.288 220.56,3.048 
	220.68,2.928 220.919,2.748 220.86,2.808 221.04,2.628 221.16,2.567 221.4,2.447 221.76,2.268 222.3,2.088 222.36,2.088 
	222.959,2.027 "/>
<polyline points="283.5,37.968 283.5,5.388 283.5,5.447 283.44,4.848 283.44,4.968 283.26,4.428 283.32,4.487 283.08,4.008 
	283.14,4.128 282.959,3.947 282.9,3.888 282.72,3.647 282.84,3.768 282.6,3.588 282.36,3.348 282.48,3.468 282,3.228 282.12,3.228 
	281.58,3.048 281.64,3.107 281.04,3.048 281.1,3.048 223.02,3.048 223.08,3.048 222.959,2.027 281.16,2.027 281.76,2.088 
	281.88,2.088 282.419,2.268 282.48,2.328 282.72,2.447 283.08,2.628 283.26,2.808 283.2,2.748 283.44,2.928 283.56,3.048 
	283.74,3.288 283.68,3.228 283.98,3.527 284.22,4.008 284.22,4.128 284.4,4.668 284.459,4.728 284.52,5.328 284.52,37.968 "/>
<rect x="227.28" y="52.127" fill="#808080" width="28.32" height="14.16"/>
<text transform="matrix(1 0 0 1 246.301 61.6079)" fill="#FFFFFF" font-family="'ProductusOSGiMonoc'" font-size="7.98">B</text>
<text transform="matrix(1 0 0 1 246.301 61.6079)" fill="none" stroke="#FFFFFF" stroke-width="0.12" stroke-miterlimit="10" font-family="'ProductusOSGiMonoc'" font-size="7.98">B</text>
<text transform="matrix(1 0 0 1 246.301 19.1284)" fill="#FFFFFF" font-family="'ProductusOSGiMonoc'" font-size="7.98">A</text>
<text transform="matrix(1 0 0 1 246.301 19.1284)" fill="none" stroke="#FFFFFF" stroke-width="0.12" stroke-miterlimit="10" font-family="'ProductusOSGiMonoc'" font-size="7.98">A</text>
<rect x="99.72" y="16.487" width="134.64" height="0.48"/>
<polyline fill="#FFFFFF" points="237.9,16.728 237.84,16.008 237.6,15.348 237.3,14.748 236.88,14.208 236.34,13.788 235.74,13.428 
	235.08,13.248 234.36,13.188 233.64,13.248 232.98,13.428 232.38,13.788 231.84,14.208 231.419,14.748 231.06,15.348 230.88,16.008 
	230.82,16.728 230.88,17.388 231.06,18.107 231.419,18.708 231.84,19.188 232.38,19.668 232.98,19.968 233.64,20.147 234.36,20.268 
	235.08,20.147 235.74,19.968 236.34,19.668 236.88,19.188 237.3,18.708 237.6,18.107 237.84,17.388 237.9,16.728 "/>
<polyline points="237.66,16.788 237.6,16.067 237.6,16.128 237.36,15.468 237.419,15.468 237.12,14.868 237.12,14.928 236.7,14.388 
	236.76,14.388 236.22,13.968 236.22,14.027 235.62,13.668 235.68,13.668 235.02,13.487 235.08,13.487 234.36,13.428 234.419,13.428 
	233.7,13.487 233.04,13.668 233.1,13.668 232.5,14.027 232.56,13.968 232.02,14.388 231.6,14.928 231.66,14.868 231.3,15.468 
	231.3,15.408 231.12,16.067 231.06,16.788 231.06,16.728 231.12,17.388 231.12,17.328 231.3,18.048 231.3,17.987 231.66,18.588 
	231.6,18.588 232.02,19.067 232.02,19.008 232.56,19.487 232.5,19.487 233.1,19.788 233.04,19.728 233.7,19.908 234.419,20.027 
	234.36,20.027 235.08,19.908 235.02,19.908 235.68,19.728 235.62,19.788 236.22,19.487 236.76,19.008 236.7,19.067 237.12,18.588 
	237.419,17.987 237.36,18.048 237.6,17.328 237.6,17.388 237.66,16.728 238.14,16.788 238.08,17.447 238.08,17.508 237.84,18.228 
	237.54,18.828 237.48,18.888 237.06,19.368 236.52,19.848 236.459,19.908 235.86,20.208 235.8,20.208 235.14,20.388 234.419,20.508 
	234.36,20.508 233.64,20.388 233.58,20.388 232.919,20.208 232.86,20.208 232.26,19.908 232.26,19.848 231.72,19.368 231.66,19.368 
	231.24,18.888 231.24,18.828 230.88,18.228 230.82,18.168 230.64,17.447 230.58,16.788 230.58,16.728 230.64,16.008 230.64,15.947 
	230.82,15.288 230.88,15.228 231.24,14.628 231.66,14.088 231.72,14.027 232.26,13.607 232.86,13.248 232.919,13.188 233.58,13.008 
	233.64,13.008 234.36,12.947 234.419,12.947 235.14,13.008 235.8,13.188 235.86,13.248 236.459,13.607 236.52,13.607 237.06,14.027 
	237.06,14.088 237.48,14.628 237.54,14.628 237.84,15.228 237.84,15.288 238.08,15.947 238.08,16.008 238.14,16.728 "/>
<polyline points="237.66,16.728 237.66,16.788 238.14,16.728 238.14,16.788 "/>
<text transform="matrix(1 0 0 1 92.5803 66.1079)" font-family="'ProductusSemibold'" font-size="7.98">Allow</text>
<text transform="matrix(1 0 0 1 92.5803 6.6479)" font-family="'ProductusSemibold'" font-size="7.98">Deny</text>
<polyline fill="#FF0000" points="108.24,11.027 105.42,8.208 91.2,22.428 94.02,25.248 "/>
<polyline fill="#FF0000" points="94.02,8.208 91.2,11.027 105.42,25.248 108.24,22.428 "/>
<rect x="28.8" y="52.127" fill="#808080" width="28.38" height="14.16"/>
<text transform="matrix(1 0 0 1 33.72 61.6079)" fill="#FFFFFF" font-family="'ProductusOSGiMonoc'" font-size="7.98">D</text>
<text transform="matrix(1 0 0 1 33.72 61.6079)" fill="none" stroke="#FFFFFF" stroke-width="0.12" stroke-miterlimit="10" font-family="'ProductusOSGiMonoc'" font-size="7.98">D</text>
<rect x="122.82" y="37.728" width="4.74" height="0.48"/>
<polyline points="123.24,35.208 123,35.628 127.44,38.208 127.68,38.208 128.1,37.968 127.68,37.788 "/>
<polyline points="127.68,38.208 127.44,37.788 123,40.368 123.24,40.788 "/>
<rect x="64.26" y="37.728" width="1.02" height="0.48"/>
<rect x="69.18" y="37.728" width="1.92" height="0.48"/>
<rect x="75" y="37.728" width="1.979" height="0.48"/>
<rect x="80.88" y="37.728" width="1.92" height="0.48"/>
<rect x="86.7" y="37.728" width="1.979" height="0.48"/>
<rect x="92.58" y="37.728" width="1.92" height="0.48"/>
<rect x="98.46" y="37.728" width="1.92" height="0.48"/>
<rect x="104.28" y="37.728" width="1.98" height="0.48"/>
<rect x="110.16" y="37.728" width="1.92" height="0.48"/>
<rect x="115.98" y="37.728" width="1.98" height="0.48"/>
<rect x="121.86" y="37.728" width="0.96" height="0.48"/>
<rect x="214.98" y="37.728" width="4.681" height="0.48"/>
<polyline points="215.34,35.208 215.1,35.628 219.54,38.208 219.78,38.208 220.2,37.968 219.78,37.788 "/>
<polyline points="219.78,38.208 219.54,37.788 215.1,40.368 215.34,40.788 "/>
<rect x="156.419" y="37.728" width="0.961" height="0.48"/>
<rect x="161.28" y="37.728" width="1.98" height="0.48"/>
<rect x="167.16" y="37.728" width="1.92" height="0.48"/>
<rect x="172.98" y="37.728" width="1.979" height="0.48"/>
<rect x="178.86" y="37.728" width="1.92" height="0.48"/>
<rect x="184.68" y="37.728" width="1.979" height="0.48"/>
<rect x="190.56" y="37.728" width="1.979" height="0.48"/>
<rect x="196.44" y="37.728" width="1.92" height="0.48"/>
<rect x="202.26" y="37.728" width="1.979" height="0.48"/>
<rect x="208.14" y="37.728" width="1.92" height="0.48"/>
<rect x="213.959" y="37.728" width="1.021" height="0.48"/>
<polyline points="53.64,16.728 53.58,16.008 53.34,15.348 53.04,14.748 52.62,14.208 52.08,13.788 51.48,13.428 50.82,13.248 
	50.1,13.188 49.38,13.248 48.72,13.428 48.12,13.788 47.58,14.208 47.16,14.748 46.8,15.348 46.62,16.008 46.56,16.728 
	46.62,17.388 46.8,18.107 47.16,18.708 47.58,19.188 48.12,19.668 48.72,19.968 49.38,20.147 50.1,20.268 50.82,20.147 
	51.48,19.968 52.08,19.668 52.62,19.188 53.04,18.708 53.34,18.107 53.58,17.388 53.64,16.728 "/>
<polyline fill="#FFFFFF" points="53.4,16.788 53.34,16.067 53.34,16.128 53.1,15.468 53.16,15.468 52.86,14.868 52.86,14.928 
	52.44,14.388 52.5,14.388 51.96,13.968 51.96,14.027 51.36,13.668 51.42,13.668 50.76,13.487 50.82,13.487 50.1,13.428 
	50.16,13.428 49.44,13.487 48.78,13.668 48.84,13.668 48.24,14.027 48.3,13.968 47.76,14.388 47.34,14.928 47.4,14.868 
	47.04,15.468 47.04,15.408 46.86,16.067 46.8,16.788 46.8,16.728 46.86,17.388 46.86,17.328 47.04,18.048 47.04,17.987 47.4,18.588 
	47.34,18.588 47.76,19.067 47.76,19.008 48.3,19.487 48.24,19.487 48.84,19.788 48.78,19.728 49.44,19.908 50.16,20.027 
	50.1,20.027 50.82,19.908 50.76,19.908 51.42,19.728 51.36,19.788 51.96,19.487 52.5,19.008 52.44,19.067 52.86,18.588 
	53.16,17.987 53.1,18.048 53.34,17.328 53.34,17.388 53.4,16.728 53.88,16.788 53.82,17.447 53.82,17.508 53.58,18.228 
	53.28,18.828 53.22,18.888 52.8,19.368 52.26,19.848 52.2,19.908 51.6,20.208 51.54,20.208 50.88,20.388 50.16,20.508 50.1,20.508 
	49.38,20.388 49.32,20.388 48.66,20.208 48.6,20.208 48,19.908 48,19.848 47.46,19.368 47.4,19.368 46.98,18.888 46.98,18.828 
	46.62,18.228 46.56,18.168 46.38,17.447 46.32,16.788 46.32,16.728 46.38,16.008 46.38,15.947 46.56,15.288 46.62,15.228 
	46.98,14.628 47.4,14.088 47.46,14.027 48,13.607 48.6,13.248 48.66,13.188 49.32,13.008 49.38,13.008 50.1,12.947 50.16,12.947 
	50.88,13.008 51.54,13.188 51.6,13.248 52.2,13.607 52.26,13.607 52.8,14.027 52.8,14.088 53.22,14.628 53.28,14.628 53.58,15.228 
	53.58,15.288 53.82,15.947 53.82,16.008 53.88,16.728 "/>
<polyline fill="#FFFFFF" points="53.4,16.728 53.4,16.788 53.88,16.728 53.88,16.788 "/>
<text transform="matrix(1 0 0 1 33.72 19.1284)" fill="#FFFFFF" font-family="'ProductusOSGiMonoc'" font-size="7.98">C</text>
<text transform="matrix(1 0 0 1 33.72 19.1284)" fill="none" stroke="#FFFFFF" stroke-width="0.12" stroke-miterlimit="10" font-family="'ProductusOSGiMonoc'" font-size="7.98">C</text>
<text transform="matrix(1 0 0 1 0.4802 81.6479)" enable-background="new    "><tspan x="0" y="0" font-family="'ProductusOSGiBookc'" font-size="9">provision-policy:=</tspan><tspan x="0" y="10.8" font-family="'ProductusOSGiBookc'" font-size="9">acceptDependencies</tspan></text>
<rect x="7.56" y="9.588" fill="#808080" width="14.16" height="14.22"/>
<text transform="matrix(1 0 0 1 12.4802 19.1284)" fill="#FFFFFF" font-family="'ProductusOSGiMonoc'" font-size="7.98">0</text>
<text transform="matrix(1 0 0 1 12.4802 19.1284)" fill="none" stroke="#FFFFFF" stroke-width="0.12" stroke-miterlimit="10" font-family="'ProductusOSGiMonoc'" font-size="7.98">0</text>
<rect x="7.56" y="52.127" fill="#808080" width="14.16" height="14.16"/>
<text transform="matrix(1 0 0 1 10.26 61.6079)" fill="#FFFFFF" font-family="'ProductusOSGiMonoc'" font-size="7.98">S</text>
<text transform="matrix(1 0 0 1 10.26 61.6079)" fill="none" stroke="#FFFFFF" stroke-width="0.12" stroke-miterlimit="10" font-family="'ProductusOSGiMonoc'" font-size="7.98">S</text>
<text transform="matrix(1 0 0 1 14.7004 61.6079)" fill="#FFFFFF" font-family="'ProductusOSGiMonoc'" font-size="7.98">I</text>
<text transform="matrix(1 0 0 1 14.7004 61.6079)" fill="none" stroke="#FFFFFF" stroke-width="0.12" stroke-miterlimit="10" font-family="'ProductusOSGiMonoc'" font-size="7.98">I</text>
<rect x="50.1" y="58.967" width="184.26" height="0.48"/>
<polyline points="53.64,59.208 53.58,58.487 53.34,57.829 53.04,57.228 52.62,56.749 52.08,56.268 51.48,55.967 50.82,55.728 
	50.1,55.668 49.38,55.728 48.72,55.967 48.12,56.268 47.58,56.749 47.16,57.228 46.8,57.829 46.62,58.487 46.56,59.208 
	46.62,59.928 46.8,60.588 47.16,61.188 47.58,61.728 48.12,62.147 48.72,62.508 49.38,62.688 50.1,62.749 50.82,62.688 
	51.48,62.508 52.08,62.147 52.62,61.728 53.04,61.188 53.34,60.588 53.58,59.928 53.64,59.208 "/>
<polyline fill="#FFFFFF" points="53.4,59.268 53.34,58.547 53.34,58.607 53.1,57.948 53.16,57.948 52.86,57.348 52.86,57.409 
	52.44,56.928 52.5,56.928 51.96,56.448 51.96,56.508 51.36,56.208 51.42,56.208 50.76,55.967 50.82,55.967 50.1,55.909 
	50.16,55.909 49.44,55.967 49.5,55.967 48.84,56.208 48.24,56.508 48.3,56.448 47.76,56.928 47.34,57.409 47.4,57.348 47.04,57.948 
	47.04,57.888 46.86,58.547 46.8,59.268 46.8,59.208 46.86,59.928 46.86,59.868 47.04,60.527 47.04,60.467 47.4,61.067 47.34,61.067 
	47.76,61.607 47.76,61.547 48.3,61.967 48.24,61.967 48.84,62.329 48.78,62.268 49.44,62.448 50.16,62.508 50.1,62.508 
	50.82,62.448 50.76,62.448 51.42,62.268 51.36,62.329 51.96,61.967 52.5,61.547 52.44,61.607 52.86,61.067 53.16,60.467 
	53.1,60.527 53.34,59.868 53.34,59.928 53.4,59.208 53.88,59.268 53.82,59.987 53.82,60.047 53.58,60.708 53.28,61.308 
	53.22,61.368 52.8,61.909 52.26,62.329 52.2,62.388 51.6,62.749 51.54,62.749 50.88,62.928 50.16,62.987 50.1,62.987 49.38,62.928 
	49.32,62.928 48.66,62.749 48.6,62.749 48,62.388 48,62.329 47.46,61.909 47.4,61.909 46.98,61.368 46.98,61.308 46.62,60.708 
	46.56,60.647 46.38,59.987 46.32,59.268 46.32,59.208 46.38,58.487 46.38,58.428 46.56,57.768 46.62,57.708 46.98,57.107 
	47.4,56.627 47.46,56.567 48,56.088 48.6,55.788 48.66,55.728 49.32,55.487 49.38,55.487 50.1,55.428 50.16,55.428 50.88,55.487 
	50.94,55.487 51.6,55.728 51.6,55.788 52.2,56.088 52.26,56.088 52.8,56.567 52.8,56.627 53.22,57.107 53.28,57.107 53.58,57.708 
	53.58,57.768 53.82,58.428 53.82,58.487 53.88,59.208 "/>
<polyline fill="#FFFFFF" points="53.4,59.208 53.4,59.268 53.88,59.208 53.88,59.268 "/>
<polyline fill="#FFFFFF" points="237.9,59.208 237.84,58.487 237.6,57.829 237.3,57.228 236.88,56.749 236.34,56.268 235.74,55.967 
	235.08,55.728 234.36,55.668 233.64,55.728 232.98,55.967 232.38,56.268 231.84,56.749 231.419,57.228 231.06,57.829 230.88,58.487 
	230.82,59.208 230.88,59.928 231.06,60.588 231.419,61.188 231.84,61.728 232.38,62.147 232.98,62.508 233.64,62.688 234.36,62.749 
	235.08,62.688 235.74,62.508 236.34,62.147 236.88,61.728 237.3,61.188 237.6,60.588 237.84,59.928 237.9,59.208 "/>
<polyline points="237.66,59.268 237.6,58.547 237.6,58.607 237.36,57.948 237.419,57.948 237.12,57.348 237.12,57.409 236.7,56.928 
	236.76,56.928 236.22,56.448 236.22,56.508 235.62,56.208 235.68,56.208 235.02,55.967 235.08,55.967 234.36,55.909 234.419,55.909 
	233.7,55.967 233.76,55.967 233.1,56.208 232.5,56.508 232.56,56.448 232.02,56.928 231.6,57.409 231.66,57.348 231.3,57.948 
	231.3,57.888 231.12,58.547 231.06,59.268 231.06,59.208 231.12,59.928 231.12,59.868 231.3,60.527 231.3,60.467 231.66,61.067 
	231.6,61.067 232.02,61.607 232.02,61.547 232.56,61.967 232.5,61.967 233.1,62.329 233.04,62.268 233.7,62.448 234.419,62.508 
	234.36,62.508 235.08,62.448 235.02,62.448 235.68,62.268 235.62,62.329 236.22,61.967 236.76,61.547 236.7,61.607 237.12,61.067 
	237.419,60.467 237.36,60.527 237.6,59.868 237.6,59.928 237.66,59.208 238.14,59.268 238.08,59.987 238.08,60.047 237.84,60.708 
	237.54,61.308 237.48,61.368 237.06,61.909 236.52,62.329 236.459,62.388 235.86,62.749 235.8,62.749 235.14,62.928 234.419,62.987 
	234.36,62.987 233.64,62.928 233.58,62.928 232.919,62.749 232.86,62.749 232.26,62.388 232.26,62.329 231.72,61.909 231.66,61.909 
	231.24,61.368 231.24,61.308 230.88,60.708 230.82,60.647 230.64,59.987 230.58,59.268 230.58,59.208 230.64,58.487 230.64,58.428 
	230.82,57.768 230.88,57.708 231.24,57.107 231.66,56.627 231.72,56.567 232.26,56.088 232.86,55.788 232.919,55.728 233.58,55.487 
	233.64,55.487 234.36,55.428 234.419,55.428 235.14,55.487 235.2,55.487 235.86,55.728 235.86,55.788 236.459,56.088 236.52,56.088 
	237.06,56.567 237.06,56.627 237.48,57.107 237.54,57.107 237.84,57.708 237.84,57.768 238.08,58.428 238.08,58.487 238.14,59.208 
	"/>
<polyline points="237.66,59.208 237.66,59.268 238.14,59.208 238.14,59.268 "/>
</svg>
