<?xml version="1.0" encoding="utf-8"?>
<!-- Generator: Adobe Illustrator 16.0.0, SVG Export Plug-In . SVG Version: 6.00 Build 0)  -->
<!DOCTYPE svg PUBLIC "-//W3C//DTD SVG 1.1//EN" "http://www.w3.org/Graphics/SVG/1.1/DTD/svg11.dtd">
<svg version="1.1" id="Layer_1" xmlns="http://www.w3.org/2000/svg" xmlns:xlink="http://www.w3.org/1999/xlink" x="0px" y="0px"
	 width="171.12px" height="71.88px" viewBox="0 0 171.12 71.88" style="enable-background:new 0 0 171.12 71.88;"
	 xml:space="preserve">
<polyline style="fill-rule:evenodd;clip-rule:evenodd;fill:#B2B2B2;" points="60,0.479 59.46,0.54 58.92,0.66 58.44,0.96 
	58.02,1.32 57.66,1.74 57.42,2.22 57.24,2.7 57.18,3.3 57.18,18.9 57.24,19.44 57.42,19.979 57.66,20.46 58.02,20.88 58.44,21.24 
	58.92,21.479 59.46,21.66 60,21.72 167.76,21.72 168.3,21.66 168.84,21.479 169.32,21.24 169.74,20.88 170.101,20.46 170.34,19.979 
	170.521,19.44 170.58,18.9 170.58,3.3 170.521,2.7 170.34,2.22 170.101,1.74 169.74,1.32 169.32,0.96 168.84,0.66 168.3,0.54 
	167.76,0.479 60,0.479 "/>
<polyline style="fill:#8080FF;" points="60.06,0.72 59.52,0.78 58.98,0.9 59.04,0.9 58.56,1.2 58.62,1.14 58.2,1.5 57.84,1.92 
	57.9,1.86 57.66,2.34 57.48,2.82 57.48,2.76 57.42,3.36 57.42,3.3 57.42,18.9 57.48,19.44 57.48,19.38 57.66,19.92 57.66,19.86 
	57.9,20.34 57.84,20.34 58.2,20.76 58.2,20.7 58.62,21.06 58.56,21.06 59.04,21.3 59.04,21.24 59.58,21.42 59.52,21.42 
	60.06,21.479 60,21.479 167.76,21.479 168.3,21.42 168.24,21.42 168.78,21.24 168.721,21.3 169.2,21.06 169.62,20.7 169.561,20.76 
	169.92,20.34 170.16,19.86 170.101,19.92 170.28,19.38 170.28,19.44 170.34,18.9 170.34,3.3 170.34,3.36 170.28,2.76 170.34,2.82 
	170.16,2.34 169.92,1.86 169.92,1.92 169.561,1.5 169.62,1.5 169.2,1.14 169.2,1.2 168.721,0.9 168.78,0.9 168.24,0.78 168.3,0.78 
	167.76,0.72 60,0.72 60,0.24 167.82,0.24 168.36,0.3 168.9,0.42 168.96,0.479 169.44,0.78 169.5,0.78 169.92,1.14 169.92,1.2 
	170.28,1.62 170.34,1.62 170.58,2.1 170.58,2.16 170.76,2.64 170.76,2.7 170.82,3.3 170.82,18.96 170.76,19.5 170.76,19.56 
	170.58,20.1 170.34,20.58 170.28,20.64 169.92,21.06 169.5,21.42 169.44,21.479 168.96,21.72 168.42,21.9 168.36,21.9 167.82,21.96 
	60,21.96 59.46,21.9 59.4,21.9 58.86,21.72 58.8,21.72 58.32,21.479 58.32,21.42 57.9,21.06 57.84,21.06 57.48,20.64 57.48,20.58 
	57.24,20.1 57.18,20.1 57,19.56 57,19.5 56.94,18.96 56.94,3.3 57,2.7 57.06,2.64 57.24,2.16 57.24,2.1 57.48,1.62 57.84,1.2 
	57.9,1.14 58.32,0.78 58.8,0.479 58.86,0.42 59.4,0.3 59.46,0.3 60,0.24 "/>
<polyline style="fill:#8080FF;" points="60,0.72 60.06,0.72 60,0.24 "/>
<text transform="matrix(1 0 0 1 111.0601 15.1797)"><tspan x="0" y="0" style="font-family:'ProductusSemibold'; font-size:7.98;">S</tspan><tspan x="4.253" y="0" style="font-family:'ProductusSemibold'; font-size:7.98;">1</tspan></text>
<polyline points="60.06,1.08 59.52,1.14 59.64,1.08 59.1,1.26 59.16,1.26 58.92,1.38 58.98,1.32 58.74,1.5 58.68,1.56 58.44,1.68 
	58.56,1.56 58.38,1.74 58.44,1.68 58.26,1.92 58.2,1.979 58.02,2.16 58.14,2.04 57.9,2.52 57.9,2.46 57.72,3 57.78,2.88 
	57.72,3.479 57.72,3.42 57.72,68.52 57.72,68.46 57.78,69 57.72,68.94 57.9,69.479 57.9,69.36 58.14,69.84 58.08,69.78 58.26,70.02 
	58.2,69.96 58.56,70.32 58.5,70.26 58.74,70.44 58.68,70.44 59.16,70.68 59.1,70.62 59.64,70.8 59.52,70.8 60.06,70.86 60,70.86 
	167.76,70.86 167.7,70.86 168.24,70.8 168.181,70.8 168.721,70.62 168.601,70.68 169.08,70.44 169.021,70.44 169.26,70.26 
	169.2,70.32 169.38,70.14 169.561,69.96 169.5,70.02 169.681,69.78 169.681,69.84 169.92,69.36 169.86,69.479 170.04,68.94 
	170.04,69 170.101,68.46 170.101,68.52 170.101,35.94 171.12,35.94 171.12,68.58 171.061,69.12 171,69.24 170.82,69.78 
	170.82,69.84 170.58,70.32 170.521,70.38 170.34,70.62 169.86,71.1 169.62,71.28 169.561,71.34 169.08,71.58 169.021,71.58 
	168.48,71.76 168.36,71.82 167.82,71.88 59.94,71.88 59.4,71.82 59.34,71.76 58.8,71.58 58.68,71.58 58.2,71.34 58.14,71.28 
	57.9,71.1 57.42,70.62 57.24,70.38 57.24,70.32 57,69.84 56.94,69.78 56.76,69.24 56.76,69.12 56.7,68.58 56.7,3.36 56.76,2.76 
	56.76,2.7 56.94,2.16 57.3,1.44 57.48,1.26 57.42,1.32 57.6,1.08 57.66,1.02 57.84,0.84 57.96,0.78 58.2,0.66 58.14,0.66 
	58.38,0.479 58.44,0.479 58.8,0.3 59.34,0.12 59.4,0.12 59.94,0.06 "/>
<polyline points="170.101,35.94 170.101,3.42 170.101,3.479 170.04,2.88 170.04,3 169.86,2.46 169.92,2.52 169.681,2.04 
	169.74,2.16 169.561,1.979 169.5,1.92 169.32,1.68 169.38,1.74 169.2,1.56 169.32,1.68 169.08,1.56 169.021,1.5 168.78,1.32 
	168.84,1.38 168.601,1.26 168.721,1.26 168.181,1.08 168.24,1.14 167.7,1.08 167.76,1.08 60,1.08 60.06,1.08 59.94,0.06 
	167.82,0.06 168.36,0.12 168.48,0.12 169.021,0.3 169.08,0.36 169.32,0.479 169.38,0.479 169.62,0.66 169.561,0.66 169.8,0.78 
	169.92,0.84 170.101,1.02 170.16,1.08 170.34,1.32 170.28,1.26 170.58,1.56 170.82,2.04 170.82,2.16 171,2.7 171.061,2.76 
	171.12,3.36 171.12,35.94 "/>
<polyline style="fill-rule:evenodd;clip-rule:evenodd;fill:#FFFFFF;" points="67.14,35.88 66.54,35.94 66,36.12 65.52,36.36 
	65.1,36.72 64.74,37.14 64.5,37.62 64.32,38.16 64.26,38.76 64.26,61.38 64.32,61.979 64.5,62.52 64.74,63 65.1,63.42 65.52,63.78 
	66,64.02 66.54,64.2 67.14,64.26 89.76,64.26 90.36,64.2 90.9,64.02 91.38,63.78 91.8,63.42 92.16,63 92.4,62.52 92.58,61.979 
	92.64,61.38 92.64,38.76 92.58,38.16 92.4,37.62 92.16,37.14 91.8,36.72 91.38,36.36 90.9,36.12 90.36,35.94 89.76,35.88 
	67.14,35.88 "/>
<polyline style="fill:#8080FF;" points="67.2,36.12 66.6,36.18 66.66,36.18 66.12,36.36 65.64,36.6 65.7,36.54 65.28,36.9 
	64.92,37.32 64.98,37.26 64.74,37.74 64.56,38.28 64.56,38.22 64.5,38.82 64.5,38.76 64.5,61.38 64.56,61.979 64.56,61.92 
	64.74,62.46 64.74,62.4 64.98,62.88 64.92,62.88 65.28,63.3 65.28,63.24 65.7,63.6 65.64,63.6 66.12,63.84 66.12,63.78 66.66,63.96 
	66.6,63.96 67.2,64.02 67.14,64.02 89.76,64.02 90.36,63.96 90.3,63.96 90.84,63.78 90.78,63.84 91.26,63.6 91.68,63.24 91.62,63.3 
	91.98,62.88 92.22,62.4 92.16,62.46 92.34,61.92 92.34,61.979 92.4,61.38 92.4,38.76 92.4,38.82 92.34,38.22 92.34,38.28 
	92.16,37.74 92.22,37.74 91.98,37.26 91.98,37.32 91.62,36.9 91.68,36.9 91.26,36.54 91.26,36.6 90.78,36.36 90.84,36.36 
	90.3,36.18 90.36,36.18 89.76,36.12 67.14,36.12 67.14,35.64 89.82,35.64 90.42,35.7 90.48,35.7 91.02,35.88 91.02,35.94 
	91.5,36.18 91.56,36.18 91.98,36.54 91.98,36.6 92.34,37.02 92.4,37.02 92.64,37.5 92.64,37.56 92.82,38.1 92.82,38.16 92.88,38.76 
	92.88,61.44 92.82,62.04 92.82,62.1 92.64,62.64 92.4,63.12 92.34,63.18 91.98,63.6 91.56,63.96 91.5,64.02 91.02,64.26 
	90.48,64.44 90.42,64.44 89.82,64.5 67.14,64.5 66.54,64.44 66.48,64.44 65.94,64.26 65.88,64.26 65.4,64.02 65.4,63.96 64.98,63.6 
	64.92,63.6 64.56,63.18 64.56,63.12 64.32,62.64 64.26,62.64 64.08,62.1 64.08,62.04 64.02,61.44 64.02,38.76 64.08,38.16 
	64.08,38.1 64.26,37.56 64.32,37.5 64.56,37.02 64.92,36.6 64.98,36.54 65.4,36.18 65.88,35.94 65.94,35.88 66.48,35.7 66.54,35.7 
	67.14,35.64 "/>
<polyline style="fill:#8080FF;" points="67.14,36.12 67.2,36.12 67.14,35.64 "/>
<polyline style="fill-rule:evenodd;clip-rule:evenodd;fill:#B2B2B2;" points="67.11,36.12 66.51,36.18 65.97,36.36 65.49,36.6 
	65.07,36.96 64.71,37.38 64.47,37.86 64.291,38.4 64.23,39 64.23,61.62 64.291,62.22 64.47,62.76 64.71,63.24 65.07,63.66 
	65.49,64.02 65.97,64.26 66.51,64.44 67.11,64.5 89.73,64.5 90.331,64.44 90.871,64.26 91.351,64.02 91.771,63.66 92.13,63.24 
	92.371,62.76 92.55,62.22 92.61,61.62 92.61,39 92.55,38.4 92.371,37.86 92.13,37.38 91.771,36.96 91.351,36.6 90.871,36.36 
	90.331,36.18 89.73,36.12 67.11,36.12 "/>
<polyline style="fill:#8080FF;" points="67.2,36.12 66.6,36.18 66.66,36.18 66.12,36.36 65.64,36.6 65.7,36.54 65.28,36.9 
	64.92,37.32 64.98,37.26 64.74,37.74 64.56,38.28 64.56,38.22 64.5,38.82 64.5,38.76 64.5,61.38 64.56,61.979 64.56,61.92 
	64.74,62.46 64.74,62.4 64.98,62.88 64.92,62.88 65.28,63.3 65.28,63.24 65.7,63.6 65.64,63.6 66.12,63.84 66.12,63.78 66.66,63.96 
	66.6,63.96 67.2,64.02 67.14,64.02 89.76,64.02 90.36,63.96 90.3,63.96 90.84,63.78 90.78,63.84 91.26,63.6 91.68,63.24 91.62,63.3 
	91.98,62.88 92.22,62.4 92.16,62.46 92.34,61.92 92.34,61.979 92.4,61.38 92.4,38.76 92.4,38.82 92.34,38.22 92.34,38.28 
	92.16,37.74 92.22,37.74 91.98,37.26 91.98,37.32 91.62,36.9 91.68,36.9 91.26,36.54 91.26,36.6 90.78,36.36 90.84,36.36 
	90.3,36.18 90.36,36.18 89.76,36.12 67.14,36.12 67.14,35.64 89.82,35.64 90.42,35.7 90.48,35.7 91.02,35.88 91.02,35.94 
	91.5,36.18 91.56,36.18 91.98,36.54 91.98,36.6 92.34,37.02 92.4,37.02 92.64,37.5 92.64,37.56 92.82,38.1 92.82,38.16 92.88,38.76 
	92.88,61.44 92.82,62.04 92.82,62.1 92.64,62.64 92.4,63.12 92.34,63.18 91.98,63.6 91.56,63.96 91.5,64.02 91.02,64.26 
	90.48,64.44 90.42,64.44 89.82,64.5 67.14,64.5 66.54,64.44 66.48,64.44 65.94,64.26 65.88,64.26 65.4,64.02 65.4,63.96 64.98,63.6 
	64.92,63.6 64.56,63.18 64.56,63.12 64.32,62.64 64.26,62.64 64.08,62.1 64.08,62.04 64.02,61.44 64.02,38.76 64.08,38.16 
	64.08,38.1 64.26,37.56 64.32,37.5 64.56,37.02 64.92,36.6 64.98,36.54 65.4,36.18 65.88,35.94 65.94,35.88 66.48,35.7 66.54,35.7 
	67.14,35.64 "/>
<polyline style="fill:#8080FF;" points="67.14,36.12 67.2,36.12 67.14,35.64 "/>
<text transform="matrix(1 0 0 1 74.04 51.7798)"><tspan x="0" y="0" style="font-family:'ProductusSemibold'; font-size:7.98;">U</tspan><tspan x="5.155" y="0" style="font-family:'ProductusSemibold'; font-size:7.98;">1</tspan></text>
<polyline style="fill-rule:evenodd;clip-rule:evenodd;fill:#FFFFFF;" points="138,35.88 137.4,35.94 136.86,36.12 136.38,36.36 
	135.96,36.72 135.601,37.14 135.36,37.62 135.181,38.16 135.12,38.76 135.12,61.38 135.181,61.979 135.36,62.52 135.601,63 
	135.96,63.42 136.38,63.78 136.86,64.02 137.4,64.2 138,64.26 160.681,64.26 161.221,64.2 161.76,64.02 162.24,63.78 162.66,63.42 
	163.021,63 163.26,62.52 163.44,61.979 163.5,61.38 163.5,38.76 163.44,38.16 163.26,37.62 163.021,37.14 162.66,36.72 
	162.24,36.36 161.76,36.12 161.221,35.94 160.681,35.88 138,35.88 "/>
<polyline style="fill:#8080FF;" points="138.061,36.12 137.46,36.18 137.521,36.18 136.98,36.36 136.5,36.6 136.561,36.54 
	136.141,36.9 135.78,37.32 135.84,37.26 135.601,37.74 135.42,38.28 135.42,38.22 135.36,38.82 135.36,38.76 135.36,61.38 
	135.42,61.979 135.42,61.92 135.601,62.46 135.601,62.4 135.84,62.88 135.78,62.88 136.141,63.3 136.141,63.24 136.561,63.6 
	136.5,63.6 136.98,63.84 136.98,63.78 137.521,63.96 137.46,63.96 138.061,64.02 138,64.02 160.681,64.02 161.221,63.96 
	161.16,63.96 161.7,63.78 161.641,63.84 162.12,63.6 162.54,63.24 162.48,63.3 162.84,62.88 163.08,62.4 163.021,62.46 163.2,61.92 
	163.2,61.979 163.26,61.38 163.26,38.76 163.26,38.82 163.2,38.22 163.2,38.28 163.021,37.74 163.08,37.74 162.84,37.26 
	162.84,37.32 162.48,36.9 162.54,36.9 162.12,36.54 162.12,36.6 161.641,36.36 161.7,36.36 161.16,36.18 161.221,36.18 
	160.681,36.12 138,36.12 138,35.64 160.74,35.64 161.28,35.7 161.34,35.7 161.88,35.88 161.88,35.94 162.36,36.18 162.42,36.18 
	162.84,36.54 162.84,36.6 163.2,37.02 163.26,37.02 163.5,37.5 163.5,37.56 163.681,38.1 163.681,38.16 163.74,38.76 163.74,61.44 
	163.681,62.04 163.681,62.1 163.5,62.64 163.26,63.12 163.2,63.18 162.84,63.6 162.42,63.96 162.36,64.02 161.88,64.26 
	161.34,64.44 161.28,64.44 160.74,64.5 138,64.5 137.4,64.44 137.34,64.44 136.8,64.26 136.74,64.26 136.26,64.02 136.26,63.96 
	135.84,63.6 135.78,63.6 135.42,63.18 135.42,63.12 135.181,62.64 135.12,62.64 134.94,62.1 134.94,62.04 134.88,61.44 
	134.88,38.76 134.94,38.16 134.94,38.1 135.12,37.56 135.181,37.5 135.42,37.02 135.78,36.6 135.84,36.54 136.26,36.18 
	136.74,35.94 136.8,35.88 137.34,35.7 137.4,35.7 138,35.64 "/>
<polyline style="fill:#8080FF;" points="138,36.12 138.061,36.12 138,35.64 "/>
<polyline style="fill-rule:evenodd;clip-rule:evenodd;fill:#B2B2B2;" points="138.27,36.12 137.67,36.18 137.13,36.36 136.649,36.6 
	136.229,36.96 135.87,37.38 135.63,37.86 135.45,38.4 135.39,39 135.39,61.62 135.45,62.22 135.63,62.76 135.87,63.24 
	136.229,63.66 136.649,64.02 137.13,64.26 137.67,64.44 138.27,64.5 160.95,64.5 161.49,64.44 162.029,64.26 162.51,64.02 
	162.93,63.66 163.29,63.24 163.529,62.76 163.71,62.22 163.77,61.62 163.77,39 163.71,38.4 163.529,37.86 163.29,37.38 
	162.93,36.96 162.51,36.6 162.029,36.36 161.49,36.18 160.95,36.12 138.27,36.12 "/>
<polyline style="fill:#8080FF;" points="138.061,36.12 137.46,36.18 137.521,36.18 136.98,36.36 136.5,36.6 136.561,36.54 
	136.141,36.9 135.78,37.32 135.84,37.26 135.601,37.74 135.42,38.28 135.42,38.22 135.36,38.82 135.36,38.76 135.36,61.38 
	135.42,61.979 135.42,61.92 135.601,62.46 135.601,62.4 135.84,62.88 135.78,62.88 136.141,63.3 136.141,63.24 136.561,63.6 
	136.5,63.6 136.98,63.84 136.98,63.78 137.521,63.96 137.46,63.96 138.061,64.02 138,64.02 160.681,64.02 161.221,63.96 
	161.16,63.96 161.7,63.78 161.641,63.84 162.12,63.6 162.54,63.24 162.48,63.3 162.84,62.88 163.08,62.4 163.021,62.46 163.2,61.92 
	163.2,61.979 163.26,61.38 163.26,38.76 163.26,38.82 163.2,38.22 163.2,38.28 163.021,37.74 163.08,37.74 162.84,37.26 
	162.84,37.32 162.48,36.9 162.54,36.9 162.12,36.54 162.12,36.6 161.641,36.36 161.7,36.36 161.16,36.18 161.221,36.18 
	160.681,36.12 138,36.12 138,35.64 160.74,35.64 161.28,35.7 161.34,35.7 161.88,35.88 161.88,35.94 162.36,36.18 162.42,36.18 
	162.84,36.54 162.84,36.6 163.2,37.02 163.26,37.02 163.5,37.5 163.5,37.56 163.681,38.1 163.681,38.16 163.74,38.76 163.74,61.44 
	163.681,62.04 163.681,62.1 163.5,62.64 163.26,63.12 163.2,63.18 162.84,63.6 162.42,63.96 162.36,64.02 161.88,64.26 
	161.34,64.44 161.28,64.44 160.74,64.5 138,64.5 137.4,64.44 137.34,64.44 136.8,64.26 136.74,64.26 136.26,64.02 136.26,63.96 
	135.84,63.6 135.78,63.6 135.42,63.18 135.42,63.12 135.181,62.64 135.12,62.64 134.94,62.1 134.94,62.04 134.88,61.44 
	134.88,38.76 134.94,38.16 134.94,38.1 135.12,37.56 135.181,37.5 135.42,37.02 135.78,36.6 135.84,36.54 136.26,36.18 
	136.74,35.94 136.8,35.88 137.34,35.7 137.4,35.7 138,35.64 "/>
<polyline style="fill:#8080FF;" points="138,36.12 138.061,36.12 138,35.64 "/>
<text transform="matrix(1 0 0 1 144.6602 51.7798)"><tspan x="0" y="0" style="font-family:'ProductusSemibold'; font-size:7.98;">U</tspan><tspan x="5.1" y="0" style="font-family:'ProductusSemibold'; font-size:7.98;">2</tspan></text>
<rect x="78.18" y="21.479" width="0.48" height="1.26"/>
<rect x="78.18" y="25.68" width="0.48" height="1.62"/>
<rect x="78.18" y="30.3" width="0.48" height="1.62"/>
<rect x="78.18" y="34.92" width="0.48" height="1.2"/>
<rect x="149.101" y="21.479" width="0.479" height="1.26"/>
<rect x="149.101" y="25.68" width="0.479" height="1.62"/>
<rect x="149.101" y="30.3" width="0.479" height="1.62"/>
<rect x="149.101" y="34.92" width="0.479" height="1.2"/>
<rect x="78.18" y="30.72" width="0.48" height="4.68"/>
<polyline points="81.18,31.08 80.76,30.84 78.18,35.28 78.18,35.52 78.36,35.82 78.6,35.52 "/>
<polyline points="78.18,35.52 78.6,35.28 76.08,30.84 75.66,31.08 "/>
<rect x="78.18" y="21.72" width="0.48" height="1.02"/>
<rect x="78.18" y="25.5" width="0.48" height="1.38"/>
<rect x="78.18" y="29.7" width="0.48" height="1.02"/>
<rect x="149.101" y="30.72" width="0.479" height="4.68"/>
<polyline points="152.04,31.08 151.62,30.84 149.101,35.28 149.101,35.52 149.34,35.94 149.521,35.52 "/>
<polyline points="149.101,35.52 149.521,35.28 146.94,30.84 146.521,31.08 "/>
<rect x="149.101" y="21.72" width="0.479" height="1.02"/>
<rect x="149.101" y="25.5" width="0.479" height="1.38"/>
<rect x="149.101" y="29.7" width="0.479" height="1.02"/>
<rect x="93.12" y="42.72" width="4.68" height="0.48"/>
<polyline points="97.44,45.72 97.68,45.3 93.24,42.72 93,42.72 92.7,42.9 93,43.14 "/>
<polyline points="93,42.72 93.24,43.14 97.68,40.62 97.44,40.2 "/>
<rect x="134.16" y="42.72" width="0.96" height="0.48"/>
<rect x="127.92" y="42.72" width="2.04" height="0.48"/>
<rect x="121.681" y="42.72" width="2.1" height="0.48"/>
<rect x="115.44" y="42.72" width="2.1" height="0.48"/>
<rect x="109.2" y="42.72" width="2.1" height="0.48"/>
<rect x="102.96" y="42.72" width="2.1" height="0.48"/>
<rect x="97.8" y="42.72" width="1.02" height="0.48"/>
<rect x="129.96" y="56.94" width="4.681" height="0.48"/>
<polyline points="130.32,54.42 130.08,54.84 134.521,57.42 134.76,57.42 135.061,57.24 134.76,57 "/>
<polyline points="134.76,57.42 134.521,57 130.08,59.52 130.32,59.94 "/>
<rect x="92.64" y="56.94" width="0.96" height="0.48"/>
<rect x="97.8" y="56.94" width="2.04" height="0.48"/>
<rect x="104.04" y="56.94" width="2.04" height="0.48"/>
<rect x="110.22" y="56.94" width="2.1" height="0.48"/>
<rect x="116.46" y="56.94" width="2.101" height="0.48"/>
<rect x="122.7" y="56.94" width="2.1" height="0.48"/>
<rect x="128.94" y="56.94" width="1.02" height="0.48"/>
<polyline style="fill:#FF0000;" points="129.48,37.32 126.66,34.5 98.34,62.88 101.16,65.7 "/>
<polyline style="fill:#FF0000;" points="101.16,34.5 98.34,37.32 126.66,65.7 129.48,62.88 "/>
<polyline style="fill-rule:evenodd;clip-rule:evenodd;fill:#FFFFFF;" points="3.3,0.479 2.76,0.54 2.22,0.66 1.74,0.96 1.32,1.32 
	0.96,1.74 0.72,2.22 0.54,2.7 0.48,3.3 0.48,25.979 0.54,26.52 0.72,27.06 0.96,27.54 1.32,27.96 1.74,28.32 2.22,28.56 2.76,28.74 
	3.3,28.8 25.98,28.8 26.58,28.74 27.12,28.56 27.6,28.32 28.02,27.96 28.38,27.54 28.62,27.06 28.8,26.52 28.86,25.979 28.86,3.3 
	28.8,2.7 28.62,2.22 28.38,1.74 28.02,1.32 27.6,0.96 27.12,0.66 26.58,0.54 25.98,0.479 3.3,0.479 "/>
<polyline style="fill:#8080FF;" points="3.36,0.72 2.82,0.78 2.28,0.9 2.34,0.9 1.86,1.2 1.92,1.14 1.5,1.5 1.14,1.92 1.2,1.86 
	0.96,2.34 0.78,2.82 0.78,2.76 0.72,3.36 0.72,3.3 0.72,25.979 0.78,26.52 0.78,26.46 0.96,27 0.96,26.94 1.2,27.42 1.14,27.42 
	1.5,27.84 1.5,27.78 1.92,28.14 1.86,28.14 2.34,28.38 2.34,28.32 2.88,28.5 2.82,28.5 3.36,28.56 3.3,28.56 25.98,28.56 
	26.58,28.5 26.52,28.5 27.06,28.32 27,28.38 27.48,28.14 27.9,27.78 27.84,27.84 28.2,27.42 28.44,26.94 28.38,27 28.56,26.46 
	28.56,26.52 28.62,25.979 28.62,3.3 28.62,3.36 28.56,2.76 28.62,2.82 28.44,2.34 28.2,1.86 28.2,1.92 27.84,1.5 27.9,1.5 
	27.48,1.14 27.48,1.2 27,0.9 27.06,0.9 26.52,0.78 26.58,0.78 25.98,0.72 3.3,0.72 3.3,0.24 26.04,0.24 26.64,0.3 27.18,0.42 
	27.24,0.479 27.72,0.78 27.78,0.78 28.2,1.14 28.2,1.2 28.56,1.62 28.62,1.62 28.86,2.1 28.86,2.16 29.04,2.64 29.04,2.7 29.1,3.3 
	29.1,26.04 29.04,26.58 29.04,26.64 28.86,27.18 28.62,27.66 28.56,27.72 28.2,28.14 27.78,28.5 27.72,28.56 27.24,28.8 
	26.7,28.979 26.64,28.979 26.04,29.04 3.3,29.04 2.76,28.979 2.7,28.979 2.16,28.8 2.1,28.8 1.62,28.56 1.62,28.5 1.2,28.14 
	1.14,28.14 0.78,27.72 0.78,27.66 0.54,27.18 0.48,27.18 0.3,26.64 0.3,26.58 0.24,26.04 0.24,3.3 0.3,2.7 0.36,2.64 0.54,2.16 
	0.54,2.1 0.78,1.62 1.14,1.2 1.2,1.14 1.62,0.78 2.1,0.479 2.16,0.42 2.7,0.3 2.76,0.3 3.3,0.24 "/>
<polyline style="fill:#8080FF;" points="3.3,0.72 3.36,0.72 3.3,0.24 "/>
<polyline style="fill-rule:evenodd;clip-rule:evenodd;fill:#B2B2B2;" points="3.33,1.02 2.79,1.08 2.25,1.2 1.77,1.5 1.35,1.86 
	0.99,2.28 0.75,2.76 0.57,3.24 0.51,3.84 0.51,26.52 0.57,27.06 0.75,27.6 0.99,28.08 1.35,28.5 1.77,28.86 2.25,29.1 2.79,29.28 
	3.33,29.34 26.01,29.34 26.61,29.28 27.15,29.1 27.63,28.86 28.05,28.5 28.41,28.08 28.65,27.6 28.83,27.06 28.89,26.52 28.89,3.84 
	28.83,3.24 28.65,2.76 28.41,2.28 28.05,1.86 27.63,1.5 27.15,1.2 26.61,1.08 26.01,1.02 3.33,1.02 "/>
<polyline style="fill:#8080FF;" points="3.36,0.72 2.82,0.78 2.28,0.9 2.34,0.9 1.86,1.2 1.92,1.14 1.5,1.5 1.14,1.92 1.2,1.86 
	0.96,2.34 0.78,2.82 0.78,2.76 0.72,3.36 0.72,3.3 0.72,25.979 0.78,26.52 0.78,26.46 0.96,27 0.96,26.94 1.2,27.42 1.14,27.42 
	1.5,27.84 1.5,27.78 1.92,28.14 1.86,28.14 2.34,28.38 2.34,28.32 2.88,28.5 2.82,28.5 3.36,28.56 3.3,28.56 25.98,28.56 
	26.58,28.5 26.52,28.5 27.06,28.32 27,28.38 27.48,28.14 27.9,27.78 27.84,27.84 28.2,27.42 28.44,26.94 28.38,27 28.56,26.46 
	28.56,26.52 28.62,25.979 28.62,3.3 28.62,3.36 28.56,2.76 28.62,2.82 28.44,2.34 28.2,1.86 28.2,1.92 27.84,1.5 27.9,1.5 
	27.48,1.14 27.48,1.2 27,0.9 27.06,0.9 26.52,0.78 26.58,0.78 25.98,0.72 3.3,0.72 3.3,0.24 26.04,0.24 26.64,0.3 27.18,0.42 
	27.24,0.479 27.72,0.78 27.78,0.78 28.2,1.14 28.2,1.2 28.56,1.62 28.62,1.62 28.86,2.1 28.86,2.16 29.04,2.64 29.04,2.7 29.1,3.3 
	29.1,26.04 29.04,26.58 29.04,26.64 28.86,27.18 28.62,27.66 28.56,27.72 28.2,28.14 27.78,28.5 27.72,28.56 27.24,28.8 
	26.7,28.979 26.64,28.979 26.04,29.04 3.3,29.04 2.76,28.979 2.7,28.979 2.16,28.8 2.1,28.8 1.62,28.56 1.62,28.5 1.2,28.14 
	1.14,28.14 0.78,27.72 0.78,27.66 0.54,27.18 0.48,27.18 0.3,26.64 0.3,26.58 0.24,26.04 0.24,3.3 0.3,2.7 0.36,2.64 0.54,2.16 
	0.54,2.1 0.78,1.62 1.14,1.2 1.2,1.14 1.62,0.78 2.1,0.479 2.16,0.42 2.7,0.3 2.76,0.3 3.3,0.24 "/>
<polyline style="fill:#8080FF;" points="3.3,0.72 3.36,0.72 3.3,0.24 "/>
<text transform="matrix(1 0 0 1 6.6602 16.3198)"><tspan x="0" y="0" style="font-family:'ProductusSemibold'; font-size:7.98;">R</tspan><tspan x="4.253" y="0" style="font-family:'ProductusSemibold'; font-size:7.98;">o</tspan><tspan x="8.57" y="0" style="font-family:'ProductusSemibold'; font-size:7.98;">o</tspan><tspan x="12.943" y="0" style="font-family:'ProductusSemibold'; font-size:7.98;">t</tspan></text>
<polyline points="3.36,1.02 2.82,1.08 2.88,1.08 2.34,1.2 2.46,1.14 2.22,1.26 2.28,1.2 2.04,1.38 1.98,1.44 1.74,1.56 1.92,1.38 
	1.74,1.62 1.5,1.86 1.56,1.8 1.38,2.04 1.26,2.22 1.32,2.1 1.2,2.4 1.02,2.88 1.08,2.76 1.02,3.36 1.02,3.3 1.02,25.979 1.02,25.92 
	1.08,26.46 1.02,26.4 1.2,26.94 1.2,26.82 1.44,27.3 1.38,27.24 1.56,27.479 1.5,27.42 1.86,27.78 1.8,27.72 2.04,27.9 1.98,27.9 
	2.46,28.14 2.4,28.08 2.94,28.26 2.82,28.26 3.36,28.32 3.3,28.32 25.98,28.32 25.92,28.32 26.52,28.26 26.46,28.26 27,28.08 
	26.88,28.14 27.36,27.9 27.24,27.96 27.48,27.72 27.72,27.54 27.66,27.6 27.84,27.42 27.78,27.479 27.96,27.24 27.96,27.3 
	28.2,26.82 28.14,26.94 28.32,26.4 28.32,26.46 28.38,25.92 28.38,25.979 28.38,14.64 29.4,14.64 29.4,26.04 29.34,26.58 
	29.28,26.7 29.1,27.24 29.1,27.3 28.86,27.78 28.8,27.84 28.62,28.08 28.38,28.32 28.32,28.38 28.08,28.56 28.14,28.5 27.84,28.8 
	27.36,29.04 27.3,29.04 26.76,29.22 26.64,29.28 26.04,29.34 3.24,29.34 2.7,29.28 2.64,29.22 2.1,29.04 1.98,29.04 1.5,28.8 
	1.44,28.74 1.2,28.56 1.14,28.5 0.72,28.08 0.54,27.84 0.54,27.78 0.3,27.3 0.24,27.24 0.06,26.7 0.06,26.58 0,26.04 0,3.24 
	0.06,2.64 0.06,2.52 0.24,2.04 0.36,1.74 0.42,1.68 0.54,1.5 0.54,1.44 0.72,1.2 0.96,0.96 0.9,1.02 1.08,0.78 1.26,0.66 1.5,0.54 
	1.44,0.54 1.68,0.36 1.74,0.36 2.1,0.18 2.64,0.06 2.7,0.06 3.24,0 "/>
<polyline points="28.38,14.64 28.38,3.3 28.38,3.36 28.32,2.76 28.32,2.88 28.14,2.4 28.02,2.1 28.08,2.22 27.96,2.04 27.78,1.8 
	27.84,1.86 27.42,1.44 27.54,1.5 27.36,1.38 27.3,1.38 27.06,1.2 27.12,1.26 26.88,1.14 27,1.2 26.46,1.08 26.52,1.08 25.92,1.02 
	25.98,1.02 3.3,1.02 3.36,1.02 3.24,0 26.04,0 26.64,0.06 26.7,0.06 27.24,0.18 27.6,0.36 27.66,0.36 27.9,0.54 28.08,0.66 
	28.14,0.72 28.62,1.2 28.8,1.44 28.8,1.5 28.92,1.68 28.98,1.74 29.1,2.04 29.28,2.52 29.34,2.64 29.4,3.24 29.4,14.64 "/>
<rect x="52.02" y="14.4" width="4.68" height="0.48"/>
<polyline points="52.38,11.88 52.14,12.3 56.58,14.88 56.82,14.88 57.24,14.64 56.82,14.46 "/>
<polyline points="56.82,14.88 56.58,14.46 52.14,17.04 52.38,17.46 "/>
<rect x="28.86" y="14.4" width="0.96" height="0.48"/>
<rect x="33.66" y="14.4" width="1.92" height="0.48"/>
<rect x="39.48" y="14.4" width="1.92" height="0.48"/>
<rect x="45.24" y="14.4" width="1.92" height="0.48"/>
<rect x="51" y="14.4" width="1.02" height="0.48"/>
</svg>
