<?xml version="1.0" encoding="utf-8"?>
<!-- Generator: Adobe Illustrator 16.0.0, SVG Export Plug-In . SVG Version: 6.00 Build 0)  -->
<!DOCTYPE svg PUBLIC "-//W3C//DTD SVG 1.1//EN" "http://www.w3.org/Graphics/SVG/1.1/DTD/svg11.dtd">
<svg version="1.1" id="Layer_1" xmlns="http://www.w3.org/2000/svg" xmlns:xlink="http://www.w3.org/1999/xlink" x="0px" y="0px"
	 width="189.938px" height="177.72px" viewBox="0 0 189.938 177.72" style="enable-background:new 0 0 189.938 177.72;"
	 xml:space="preserve">
<rect x="23.82" y="70.68" width="19.38" height="0.479"/>
<rect x="23.82" y="70.92" width="0.48" height="28.56"/>
<rect x="24.06" y="99" width="28.56" height="0.479"/>
<rect x="52.14" y="80.1" width="0.48" height="19.14"/>
<rect x="66.36" y="21.06" width="0.48" height="35.88"/>
<rect x="102" y="106.319" style="fill:#E6E6E6;" width="70.86" height="42.54"/>
<polyline style="fill-rule:evenodd;clip-rule:evenodd;fill:#FFFFFF;" points="116.219,163.02 130.379,163.02 123.299,177.18 "/>
<polyline points="116.219,162.779 130.799,162.779 123.54,177.3 123.36,177.72 123.12,177.3 123.12,177.06 130.2,162.899 
	130.62,163.14 130.379,163.26 116.219,163.26 "/>
<polyline points="123.12,177.3 115.86,162.779 116.219,162.779 116.459,162.899 123.54,177.06 "/>
<text transform="matrix(1 0 0 1 92.5796 170.3398)"><tspan x="0" y="0" style="font-family:'ProductusBook'; font-size:7.98;">R</tspan><tspan x="3.367" y="0" style="font-family:'ProductusBook'; font-size:7.98;">e</tspan><tspan x="6.902" y="0" style="font-family:'ProductusBook'; font-size:7.98;">sol</tspan><tspan x="15.066" y="0" style="font-family:'ProductusBook'; font-size:7.98;">v</tspan><tspan x="18.187" y="0" style="font-family:'ProductusBook'; font-size:7.98;">e</tspan><tspan x="21.722" y="0" style="font-family:'ProductusBook'; font-size:7.98;">r</tspan></text>
<rect x="111.48" y="115.199" width="54.3" height="26.58"/>
<rect x="111.48" y="114.96" width="54.54" height="0.479"/>
<rect x="165.54" y="115.199" width="0.48" height="26.82"/>
<rect x="111.24" y="141.54" width="54.54" height="0.479"/>
<rect x="111.24" y="114.96" width="0.479" height="26.819"/>
<rect x="109.08" y="113.399" style="fill:#FFFFFF;" width="54.36" height="26.58"/>
<rect x="109.08" y="113.159" width="54.601" height="0.48"/>
<rect x="163.2" y="113.399" width="0.48" height="26.82"/>
<rect x="108.839" y="139.739" width="54.601" height="0.48"/>
<rect x="108.839" y="113.159" width="0.48" height="26.82"/>
<text transform="matrix(1 0 0 1 111.48 120.5391)"><tspan x="0" y="0" style="font-family:'ProductusSemibold'; font-size:7.98;">S</tspan><tspan x="4.253" y="0" style="font-family:'ProductusSemibold'; font-size:7.98;">u</tspan><tspan x="8.507" y="0" style="font-family:'ProductusSemibold'; font-size:7.98;">bs</tspan><tspan x="16.183" y="0" style="font-family:'ProductusSemibold'; font-size:7.98;">y</tspan><tspan x="20.269" y="0" style="font-family:'ProductusSemibold'; font-size:7.98;">s</tspan><tspan x="23.564" y="0" style="font-family:'ProductusSemibold'; font-size:7.98;">t</tspan><tspan x="26.732" y="0" style="font-family:'ProductusSemibold'; font-size:7.98;">e</tspan><tspan x="30.811" y="0" style="font-family:'ProductusSemibold'; font-size:7.98;">m</tspan><tspan x="37.218" y="0" style="font-family:'ProductusSemibold'; font-size:7.98;"> </tspan></text>
<text transform="matrix(1 0 0 1 111.48 128.999)"><tspan x="0" y="0" style="font-family:'ProductusSemibold'; font-size:7.98;">Imp</tspan><tspan x="12.951" y="0" style="font-family:'ProductusSemibold'; font-size:7.98;">l</tspan></text>
<rect x="102" style="fill:#E6E6E6;" width="70.86" height="42.54"/>
<rect x="111.48" y="8.88" width="54.3" height="26.58"/>
<rect x="111.48" y="8.64" width="54.54" height="0.479"/>
<rect x="165.54" y="8.88" width="0.48" height="26.819"/>
<rect x="111.24" y="35.22" width="54.54" height="0.479"/>
<rect x="111.24" y="8.64" width="0.479" height="26.82"/>
<rect x="109.08" y="7.14" style="fill:#FFFFFF;" width="54.36" height="26.52"/>
<rect x="109.08" y="6.899" width="54.601" height="0.48"/>
<rect x="163.2" y="7.14" width="0.48" height="26.76"/>
<rect x="108.839" y="33.42" width="54.601" height="0.479"/>
<rect x="108.839" y="6.899" width="0.48" height="26.76"/>
<text transform="matrix(1 0 0 1 111.48 14.2197)"><tspan x="0" y="0" style="font-family:'ProductusBook'; font-size:7.98;">M</tspan><tspan x="5.938" y="0" style="font-family:'ProductusBook'; font-size:7.98;">a</tspan><tspan x="9.24" y="0" style="font-family:'ProductusBook'; font-size:7.98;">n</tspan><tspan x="12.903" y="0" style="font-family:'ProductusBook'; font-size:7.98;">a</tspan><tspan x="16.263" y="0" style="font-family:'ProductusBook'; font-size:7.98;">g</tspan><tspan x="19.566" y="0" style="font-family:'ProductusBook'; font-size:7.98;">e</tspan><tspan x="23.054" y="0" style="font-family:'ProductusBook'; font-size:7.98;">m</tspan><tspan x="28.855" y="0" style="font-family:'ProductusBook'; font-size:7.98;">e</tspan><tspan x="32.343" y="0" style="font-family:'ProductusBook'; font-size:7.98;">n</tspan><tspan x="36.069" y="0" style="font-family:'ProductusBook'; font-size:7.98;">t</tspan></text>
<text transform="matrix(1 0 0 1 111.48 22.7402)"><tspan x="0" y="0" style="font-family:'ProductusBook'; font-size:7.98;">A</tspan><tspan x="4.134" y="0" style="font-family:'ProductusBook'; font-size:7.98;">g</tspan><tspan x="7.438" y="0" style="font-family:'ProductusBook'; font-size:7.98;">e</tspan><tspan x="10.965" y="0" style="font-family:'ProductusBook'; font-size:7.98;">n</tspan><tspan x="14.627" y="0" style="font-family:'ProductusBook'; font-size:7.98;">t</tspan><tspan x="17.029" y="0" style="font-family:'ProductusBook'; font-size:7.98;"> </tspan><tspan x="18.641" y="0" style="font-family:'ProductusBook'; font-size:7.98;">I</tspan><tspan x="20.205" y="0" style="font-family:'ProductusBook'; font-size:7.98;">m</tspan><tspan x="25.958" y="0" style="font-family:'ProductusBook'; font-size:7.98;">p</tspan><tspan x="29.677" y="0" style="font-family:'ProductusBook'; font-size:7.98;">l</tspan></text>
<text transform="matrix(1 0 0 1 159.479 170.5801)"><tspan x="0" y="0" style="font-family:'ProductusBook'; font-size:7.98;">R</tspan><tspan x="3.424" y="0" style="font-family:'ProductusBook'; font-size:7.98;">e</tspan><tspan x="6.91" y="0" style="font-family:'ProductusBook'; font-size:7.98;">p</tspan><tspan x="10.629" y="0" style="font-family:'ProductusBook'; font-size:7.98;">osi</tspan><tspan x="18.793" y="0" style="font-family:'ProductusBook'; font-size:7.98;">t</tspan><tspan x="21.187" y="0" style="font-family:'ProductusBook'; font-size:7.98;">o</tspan><tspan x="24.969" y="0" style="font-family:'ProductusBook'; font-size:7.98;">r</tspan><tspan x="27.243" y="0" style="font-family:'ProductusBook'; font-size:7.98;">y</tspan></text>
<polyline style="fill-rule:evenodd;clip-rule:evenodd;fill:#FFFFFF;" points="144.54,163.02 158.7,163.02 151.62,177.18 "/>
<polyline points="144.54,162.779 159.12,162.779 151.86,177.3 151.68,177.72 151.44,177.3 151.44,177.06 158.52,162.899 
	158.94,163.14 158.7,163.26 144.54,163.26 "/>
<polyline points="151.44,177.3 144.18,162.779 144.54,162.779 144.78,162.899 151.86,177.06 "/>
<rect x="123.06" y="162.06" width="0.479" height="1.2"/>
<rect x="123.06" y="156.779" width="0.479" height="1.8"/>
<rect x="123.06" y="151.5" width="0.479" height="1.8"/>
<rect x="123.06" y="146.22" width="0.479" height="1.8"/>
<rect x="123.06" y="141.54" width="0.479" height="1.199"/>
<rect x="151.379" y="162.06" width="0.48" height="1.2"/>
<rect x="151.379" y="156.779" width="0.48" height="1.8"/>
<rect x="151.379" y="151.5" width="0.48" height="1.8"/>
<rect x="151.379" y="147.779" width="0.48" height="0.24"/>
<rect x="151.379" y="146.22" width="0.48" height="1.56"/>
<rect x="151.379" y="142.5" width="0.48" height="0.239"/>
<rect x="151.379" y="141.54" width="0.48" height="0.96"/>
<polyline style="fill-rule:evenodd;clip-rule:evenodd;fill:#FFFFFF;" points="130.379,78 144.54,78 137.459,92.159 "/>
<polyline points="130.379,77.76 144.959,77.76 137.7,92.279 137.52,92.699 137.28,92.279 137.28,92.04 144.36,77.88 144.78,78.119 
	144.54,78.239 130.379,78.239 "/>
<polyline points="137.28,92.279 130.02,77.76 130.379,77.76 130.62,77.88 137.7,92.04 "/>
<rect x="137.219" y="91.92" width="0.48" height="21.72"/>
<text transform="matrix(1 0 0 1 142.7397 89.7598)"><tspan x="0" y="0" style="font-family:'ProductusSemibold'; font-size:7.98;">S</tspan><tspan x="4.27" y="0" style="font-family:'ProductusSemibold'; font-size:7.98;">u</tspan><tspan x="8.586" y="0" style="font-family:'ProductusSemibold'; font-size:7.98;">b</tspan><tspan x="12.903" y="0" style="font-family:'ProductusSemibold'; font-size:7.98;">s</tspan><tspan x="16.199" y="0" style="font-family:'ProductusSemibold'; font-size:7.98;">y</tspan><tspan x="20.245" y="0" style="font-family:'ProductusSemibold'; font-size:7.98;">ste</tspan><tspan x="30.882" y="0" style="font-family:'ProductusSemibold'; font-size:7.98;">m</tspan></text>
<rect x="137.219" y="35.22" width="0.48" height="43.02"/>
<rect x="40.62" y="58.5" width="54.3" height="26.579"/>
<rect x="40.62" y="58.26" width="54.54" height="0.479"/>
<rect x="94.68" y="58.5" width="0.479" height="26.819"/>
<rect x="40.38" y="84.84" width="54.54" height="0.479"/>
<rect x="40.38" y="58.26" width="0.48" height="26.819"/>
<rect x="38.22" y="56.699" style="fill:#FFFFFF;" width="54.36" height="26.58"/>
<rect x="38.22" y="56.46" width="54.6" height="0.479"/>
<rect x="92.339" y="56.699" width="0.48" height="26.82"/>
<rect x="37.979" y="83.04" width="54.6" height="0.479"/>
<rect x="37.979" y="56.46" width="0.48" height="26.819"/>
<text transform="matrix(1 0 0 1 40.6196 63.8398)"><tspan x="0" y="0" style="font-family:'ProductusBook'; font-size:7.98;">&lt;</tspan><tspan x="2.944" y="0" style="font-family:'ProductusBook'; font-size:7.98;">&lt;</tspan><tspan x="5.937" y="0" style="font-family:'ProductusBook'; font-size:7.98;">in</tspan><tspan x="11.148" y="0" style="font-family:'ProductusBook'; font-size:7.98;">t</tspan><tspan x="13.542" y="0" style="font-family:'ProductusBook'; font-size:7.98;">e</tspan><tspan x="17.077" y="0" style="font-family:'ProductusBook'; font-size:7.98;">rf</tspan><tspan x="21.346" y="0" style="font-family:'ProductusBook'; font-size:7.98;">a</tspan><tspan x="24.706" y="0" style="font-family:'ProductusBook'; font-size:7.98;">c</tspan><tspan x="27.706" y="0" style="font-family:'ProductusBook'; font-size:7.98;">e</tspan><tspan x="31.241" y="0" style="font-family:'ProductusBook'; font-size:7.98;">&gt;</tspan><tspan x="34.186" y="0" style="font-family:'ProductusBook'; font-size:7.98;">&gt;</tspan></text>
<text transform="matrix(1 0 0 1 40.6196 72.2998)"><tspan x="0" y="0" style="font-family:'ProductusSemibold'; font-size:7.98;">Subsyste</tspan><tspan x="30.794" y="0" style="font-family:'ProductusSemibold'; font-size:7.98;">m</tspan></text>
<rect x="94.68" y="70.68" width="1.26" height="0.479"/>
<rect x="100.02" y="70.68" width="1.979" height="0.479"/>
<rect x="106.08" y="70.68" width="1.98" height="0.479"/>
<rect x="112.14" y="70.68" width="2.04" height="0.479"/>
<rect x="118.259" y="70.68" width="1.98" height="0.479"/>
<rect x="124.32" y="70.68" width="1.979" height="0.479"/>
<rect x="130.379" y="70.68" width="1.98" height="0.479"/>
<rect x="136.44" y="70.68" width="1.26" height="0.479"/>
<polyline style="fill-rule:evenodd;clip-rule:evenodd;fill:#FFFFFF;" points="38.22,7.14 87.839,7.14 87.839,28.38 38.22,35.46 "/>
<rect x="38.22" y="6.899" width="49.86" height="0.48"/>
<polyline points="88.08,7.14 88.08,28.619 87.9,28.619 38.28,35.699 37.979,35.76 37.979,35.46 38.22,35.22 87.839,28.14 
	87.9,28.619 87.6,28.38 87.6,7.14 "/>
<rect x="37.979" y="6.899" width="0.48" height="28.561"/>
<text transform="matrix(1 0 0 1 45.2998 14.7598)"><tspan x="0" y="0" style="font-family:'ProductusSemibold'; font-size:7.98;">Subsyste</tspan><tspan x="30.794" y="0" style="font-family:'ProductusSemibold'; font-size:7.98;">m</tspan></text>
<text transform="matrix(1 0 0 1 45.2998 24.8398)"><tspan x="0" y="0" style="font-family:'ProductusSemibold'; font-size:7.98;">Arch</tspan><tspan x="15.824" y="0" style="font-family:'ProductusSemibold'; font-size:7.98;">i</tspan><tspan x="18.042" y="0" style="font-family:'ProductusSemibold'; font-size:7.98;">v</tspan><tspan x="21.937" y="0" style="font-family:'ProductusSemibold'; font-size:7.98;">e</tspan></text>
<text transform="matrix(1 0 0 1 24.0596 106.6201)"><tspan x="0" y="0" style="font-family:'ProductusBook'; font-size:7.98;">c</tspan><tspan x="3.12" y="0" style="font-family:'ProductusBook'; font-size:7.98;">h</tspan><tspan x="6.783" y="0" style="font-family:'ProductusBook'; font-size:7.98;">il</tspan><tspan x="9.975" y="0" style="font-family:'ProductusBook'; font-size:7.98;">d</tspan><tspan x="13.638" y="0" style="font-family:'ProductusBook'; font-size:7.98;">r</tspan><tspan x="15.912" y="0" style="font-family:'ProductusBook'; font-size:7.98;">e</tspan><tspan x="19.439" y="0" style="font-family:'ProductusBook'; font-size:7.98;">n</tspan></text>
<text transform="matrix(1 0 0 1 26.8794 69.0596)"><tspan x="0" y="0" style="font-family:'ProductusBook'; font-size:7.98;">0..</tspan><tspan x="7.126" y="0" style="font-family:'ProductusBook'; font-size:7.98;">n</tspan></text>
<text transform="matrix(1 0 0 1 54.3594 89.8193)"><tspan x="0" y="0" style="font-family:'ProductusBook'; font-size:7.98;">0</tspan><tspan x="3.942" y="0" style="font-family:'ProductusBook'; font-size:7.98;">.</tspan><tspan x="5.506" y="0" style="font-family:'ProductusBook'; font-size:7.98;">.</tspan><tspan x="7.134" y="0" style="font-family:'ProductusBook'; font-size:7.98;">n</tspan></text>
<text transform="matrix(1 0 0 1 68.519 54.8994)" style="font-family:'ProductusBook'; font-size:7.98;">1</text>
<text transform="matrix(1 0 0 1 68.6997 36.4795)" style="font-family:'ProductusBook'; font-size:7.98;">1</text>
<text transform="matrix(1 0 0 1 126.1196 95.3389)"><tspan x="0" y="0" style="font-family:'ProductusBook'; font-size:7.98;">1</tspan><tspan x="3.128" y="0" style="font-family:'ProductusBook'; font-size:7.98;">.</tspan><tspan x="4.748" y="0" style="font-family:'ProductusBook'; font-size:7.98;">.</tspan><tspan x="6.36" y="0" style="font-family:'ProductusBook'; font-size:7.98;">n</tspan></text>
<text transform="matrix(1 0 0 1 131.8794 111.0586)" style="font-family:'ProductusBook'; font-size:7.98;">1</text>
<rect x="2.58" y="89.819" width="1.2" height="0.48"/>
<rect x="7.26" y="89.819" width="1.8" height="0.48"/>
<rect x="12.54" y="89.819" width="1.8" height="0.48"/>
<rect x="17.82" y="89.819" width="1.8" height="0.48"/>
<rect x="23.1" y="89.819" width="1.2" height="0.48"/>
<text transform="matrix(1 0 0 1 9.7197 87.96)"><tspan x="0" y="0" style="font-family:'ProductusBook'; font-size:7.98;">n</tspan><tspan x="3.719" y="0" style="font-family:'ProductusBook'; font-size:7.98;">o</tspan></text>
<text transform="matrix(1 0 0 1 0 96.5996)"><tspan x="0" y="0" style="font-family:'ProductusBook'; font-size:7.98;">c</tspan><tspan x="3.12" y="0" style="font-family:'ProductusBook'; font-size:7.98;">y</tspan><tspan x="6.24" y="0" style="font-family:'ProductusBook'; font-size:7.98;">c</tspan><tspan x="9.305" y="0" style="font-family:'ProductusBook'; font-size:7.98;">l</tspan><tspan x="10.869" y="0" style="font-family:'ProductusBook'; font-size:7.98;">e</tspan><tspan x="14.404" y="0" style="font-family:'ProductusBook'; font-size:7.98;">s</tspan></text>
<text transform="matrix(1 0 0 1 2.3398 69.0596)"><tspan x="0" y="0" style="font-family:'ProductusBook'; font-size:7.98;">par</tspan><tspan x="9.32" y="0" style="font-family:'ProductusBook'; font-size:7.98;">e</tspan><tspan x="12.808" y="0" style="font-family:'ProductusBook'; font-size:7.98;">n</tspan><tspan x="16.502" y="0" style="font-family:'ProductusBook'; font-size:7.98;">t</tspan><tspan x="18.849" y="0" style="font-family:'ProductusBook'; font-size:7.98;">s</tspan></text>
</svg>
