<?xml version="1.0" encoding="utf-8"?>
<!-- Generator: Adobe Illustrator 16.0.0, SVG Export Plug-In . SVG Version: 6.00 Build 0)  -->
<!DOCTYPE svg PUBLIC "-//W3C//DTD SVG 1.1//EN" "http://www.w3.org/Graphics/SVG/1.1/DTD/svg11.dtd">
<svg version="1.1" id="Layer_1" xmlns="http://www.w3.org/2000/svg" xmlns:xlink="http://www.w3.org/1999/xlink" x="0px" y="0px"
	 width="334.08px" height="135.72px" viewBox="0 0 334.08 135.72" style="enable-background:new 0 0 334.08 135.72;"
	 xml:space="preserve">
<polyline style="fill-rule:evenodd;clip-rule:evenodd;fill:#B2B2B2;" points="215.88,0.48 215.34,0.54 214.8,0.72 214.32,0.96 
	213.9,1.32 213.541,1.74 213.3,2.22 213.12,2.76 213.06,3.36 213.06,132.3 213.12,132.9 213.3,133.44 213.541,133.92 213.9,134.34 
	214.32,134.7 214.8,134.94 215.34,135.12 215.88,135.18 238.56,135.18 239.16,135.12 239.7,134.94 240.18,134.7 240.6,134.34 
	240.96,133.92 241.2,133.44 241.38,132.9 241.44,132.3 241.44,3.36 241.38,2.76 241.2,2.22 240.96,1.74 240.6,1.32 240.18,0.96 
	239.7,0.72 239.16,0.54 238.56,0.48 215.88,0.48 "/>
<polyline style="fill:#8080FF;" points="215.94,0.72 215.4,0.78 215.46,0.78 214.92,0.96 214.44,1.2 214.5,1.14 214.08,1.5 
	213.72,1.92 213.78,1.86 213.541,2.34 213.36,2.88 213.36,2.82 213.3,3.42 213.3,3.36 213.3,132.3 213.36,132.9 213.36,132.84 
	213.541,133.38 213.541,133.32 213.78,133.8 213.72,133.8 214.08,134.22 214.08,134.16 214.5,134.52 214.44,134.52 214.92,134.76 
	214.92,134.7 215.46,134.88 215.4,134.88 215.94,134.94 215.88,134.94 238.56,134.94 239.16,134.88 239.1,134.88 239.64,134.7 
	239.58,134.76 240.06,134.52 240.48,134.16 240.42,134.22 240.78,133.8 241.02,133.32 240.96,133.38 241.14,132.84 241.14,132.9 
	241.2,132.3 241.2,3.36 241.2,3.42 241.14,2.82 241.14,2.88 240.96,2.34 241.02,2.34 240.78,1.86 240.78,1.92 240.42,1.5 
	240.48,1.5 240.06,1.14 240.06,1.2 239.58,0.96 239.64,0.96 239.1,0.78 239.16,0.78 238.56,0.72 215.88,0.72 215.88,0.24 
	238.62,0.24 239.22,0.3 239.28,0.3 239.82,0.48 239.82,0.54 240.3,0.78 240.36,0.78 240.78,1.14 240.78,1.2 241.14,1.62 241.2,1.62 
	241.44,2.1 241.44,2.16 241.62,2.7 241.62,2.76 241.68,3.36 241.68,132.36 241.62,132.96 241.62,133.02 241.44,133.56 241.2,134.04 
	241.14,134.1 240.78,134.52 240.36,134.88 240.3,134.94 239.82,135.18 239.28,135.36 239.22,135.36 238.62,135.42 215.88,135.42 
	215.34,135.36 215.28,135.36 214.74,135.18 214.68,135.18 214.2,134.94 214.2,134.88 213.78,134.52 213.72,134.52 213.36,134.1 
	213.36,134.04 213.12,133.56 213.06,133.56 212.88,133.02 212.88,132.96 212.82,132.36 212.82,3.36 212.88,2.76 212.88,2.7 
	213.06,2.16 213.12,2.1 213.36,1.62 213.72,1.2 213.78,1.14 214.2,0.78 214.68,0.54 214.74,0.48 215.28,0.3 215.34,0.3 215.88,0.24 
	"/>
<polyline style="fill:#8080FF;" points="215.88,0.72 215.94,0.72 215.88,0.24 "/>
<polyline style="fill-rule:evenodd;clip-rule:evenodd;fill:#B2B2B2;" points="258.42,99.72 257.88,99.78 257.34,99.96 256.86,100.2 
	256.44,100.56 256.08,100.98 255.84,101.46 255.66,102 255.6,102.54 255.6,125.22 255.66,125.82 255.84,126.36 256.08,126.84 
	256.44,127.26 256.86,127.56 257.34,127.86 257.88,128.04 324.18,128.04 324.72,127.86 325.2,127.56 325.62,127.26 325.98,126.84 
	326.22,126.36 326.4,125.82 326.46,125.22 326.46,102.54 326.4,102 326.22,101.46 325.98,100.98 325.62,100.56 325.2,100.2 
	324.72,99.96 324.18,99.78 323.64,99.72 258.42,99.72 "/>
<polyline style="fill:#8080FF;" points="258.48,99.96 257.94,100.02 258,100.02 257.46,100.2 256.98,100.44 257.041,100.38 
	256.62,100.74 256.26,101.16 256.32,101.1 256.08,101.58 255.9,102.12 255.9,102.06 255.84,102.6 255.84,102.54 255.84,125.22 
	255.9,125.82 255.9,125.76 256.08,126.3 256.08,126.24 256.32,126.72 256.26,126.72 256.62,127.14 256.62,127.08 257.041,127.38 
	256.98,127.38 257.46,127.68 257.46,127.62 258,127.8 257.88,127.8 324.18,127.8 324.12,127.8 324.66,127.62 324.6,127.68 
	325.08,127.38 325.5,127.08 325.44,127.14 325.8,126.72 326.041,126.24 325.98,126.3 326.16,125.76 326.16,125.82 326.22,125.22 
	326.22,102.54 326.22,102.6 326.16,102.06 326.16,102.12 325.98,101.58 326.041,101.58 325.8,101.1 325.8,101.16 325.44,100.74 
	325.5,100.74 325.08,100.38 325.08,100.44 324.6,100.2 324.66,100.2 324.12,100.02 324.18,100.02 323.64,99.96 258.42,99.96 
	258.42,99.48 323.7,99.48 324.24,99.54 324.3,99.54 324.84,99.72 324.84,99.78 325.32,100.02 325.38,100.02 325.8,100.38 
	325.8,100.44 326.16,100.86 326.22,100.86 326.46,101.34 326.46,101.4 326.64,101.94 326.64,102 326.7,102.54 326.7,125.28 
	326.64,125.88 326.64,125.94 326.46,126.48 326.22,126.96 326.16,127.02 325.8,127.44 325.8,127.5 325.38,127.8 325.32,127.8 
	324.84,128.1 324.3,128.28 257.82,128.28 257.28,128.1 257.22,128.1 256.74,127.8 256.32,127.5 256.26,127.44 255.9,127.02 
	255.9,126.96 255.66,126.48 255.6,126.48 255.42,125.94 255.42,125.88 255.36,125.28 255.36,102.54 255.42,102 255.42,101.94 
	255.6,101.4 255.66,101.34 255.9,100.86 256.26,100.44 256.32,100.38 256.74,100.02 257.22,99.78 257.28,99.72 257.82,99.54 
	257.88,99.54 258.42,99.48 "/>
<polyline style="fill:#8080FF;" points="258.42,99.96 258.48,99.96 258.42,99.48 "/>
<polyline style="fill-rule:evenodd;clip-rule:evenodd;fill:#B2B2B2;" points="81.24,57.18 80.7,57.24 80.16,57.42 79.68,57.66 
	79.26,58.02 78.9,58.44 78.66,58.92 78.48,59.46 78.42,60.06 78.42,132.3 78.48,132.9 78.66,133.44 78.9,133.92 79.26,134.34 
	79.68,134.7 80.16,134.94 80.7,135.12 81.24,135.18 189,135.18 189.541,135.12 190.08,134.94 190.56,134.7 190.98,134.34 
	191.34,133.92 191.58,133.44 191.76,132.9 191.82,132.3 191.82,60.06 191.76,59.46 191.58,58.92 191.34,58.44 190.98,58.02 
	190.56,57.66 190.08,57.42 189.541,57.24 189,57.18 81.24,57.18 "/>
<polyline style="fill:#8080FF;" points="81.3,57.42 80.76,57.48 80.82,57.48 80.28,57.66 79.8,57.9 79.86,57.84 79.44,58.2 
	79.08,58.62 79.14,58.56 78.9,59.04 78.72,59.58 78.72,59.52 78.66,60.12 78.66,60.06 78.66,132.3 78.72,132.9 78.72,132.84 
	78.9,133.38 78.9,133.32 79.14,133.8 79.08,133.8 79.44,134.22 79.44,134.16 79.86,134.52 79.8,134.52 80.28,134.76 80.28,134.7 
	80.82,134.88 80.76,134.88 81.3,134.94 81.24,134.94 189,134.94 189.541,134.88 189.48,134.88 190.02,134.7 189.96,134.76 
	190.44,134.52 190.86,134.16 190.8,134.22 191.16,133.8 191.4,133.32 191.34,133.38 191.52,132.84 191.52,132.9 191.58,132.3 
	191.58,60.06 191.58,60.12 191.52,59.52 191.52,59.58 191.34,59.04 191.4,59.04 191.16,58.56 191.16,58.62 190.8,58.2 190.86,58.2 
	190.44,57.84 190.44,57.9 189.96,57.66 190.02,57.66 189.48,57.48 189.541,57.48 189,57.42 81.24,57.42 81.24,56.94 189.06,56.94 
	189.6,57 189.66,57 190.2,57.18 190.2,57.24 190.68,57.48 190.74,57.48 191.16,57.84 191.16,57.9 191.52,58.32 191.58,58.32 
	191.82,58.8 191.82,58.86 192,59.4 192,59.46 192.06,60.06 192.06,132.36 192,132.96 192,133.02 191.82,133.56 191.58,134.04 
	191.52,134.1 191.16,134.52 190.74,134.88 190.68,134.94 190.2,135.18 189.66,135.36 189.6,135.36 189.06,135.42 81.24,135.42 
	80.7,135.36 80.64,135.36 80.1,135.18 80.04,135.18 79.56,134.94 79.56,134.88 79.14,134.52 79.08,134.52 78.72,134.1 78.72,134.04 
	78.48,133.56 78.42,133.56 78.24,133.02 78.24,132.96 78.18,132.36 78.18,60.06 78.24,59.46 78.24,59.4 78.42,58.86 78.48,58.8 
	78.72,58.32 79.08,57.9 79.14,57.84 79.56,57.48 80.04,57.24 80.1,57.18 80.64,57 80.7,57 81.24,56.94 "/>
<polyline style="fill:#8080FF;" points="81.24,57.42 81.3,57.42 81.24,56.94 "/>
<polyline points="81.3,1.02 80.76,1.08 80.88,1.02 80.34,1.2 80.4,1.2 80.16,1.32 79.92,1.44 79.98,1.38 79.74,1.56 79.8,1.5 
	79.62,1.68 79.68,1.62 79.5,1.86 79.26,2.1 79.38,1.98 79.14,2.46 79.14,2.4 78.96,2.94 79.02,2.82 78.96,3.42 78.96,3.36 
	78.96,132.3 78.96,132.24 79.02,132.84 78.96,132.78 79.14,133.32 79.14,133.2 79.38,133.68 79.26,133.56 79.5,133.8 79.68,134.04 
	79.62,133.98 79.8,134.16 79.74,134.1 79.98,134.28 79.92,134.28 80.4,134.52 80.34,134.46 80.88,134.64 80.76,134.64 81.3,134.7 
	81.24,134.7 189,134.7 188.94,134.7 189.48,134.64 189.42,134.64 189.96,134.46 189.84,134.52 190.32,134.28 190.26,134.28 
	190.5,134.1 190.44,134.16 190.62,133.98 190.56,134.04 190.74,133.8 190.98,133.56 190.92,133.68 191.16,133.2 191.1,133.32 
	191.28,132.78 191.28,132.84 191.34,132.24 191.34,132.3 191.34,67.86 192.36,67.86 192.36,132.36 192.3,132.96 192.24,133.08 
	192.06,133.62 192.06,133.68 191.82,134.16 191.52,134.46 191.58,134.4 191.4,134.64 191.1,134.94 190.86,135.12 190.8,135.18 
	190.32,135.42 190.26,135.42 189.72,135.6 189.6,135.66 189.06,135.72 81.18,135.72 80.64,135.66 80.58,135.6 80.04,135.42 
	79.92,135.42 79.44,135.18 79.38,135.12 79.14,134.94 78.84,134.64 78.66,134.4 78.72,134.46 78.54,134.28 78.24,133.68 
	78.18,133.62 78,133.08 78,132.96 77.94,132.36 77.94,3.3 78,2.7 78,2.64 78.18,2.1 78.54,1.38 78.72,1.2 78.66,1.26 78.84,1.02 
	79.14,0.72 79.38,0.54 79.44,0.54 79.92,0.3 80.04,0.24 80.58,0.06 80.64,0.06 81.18,0 "/>
<polyline points="191.34,67.86 191.34,3.36 191.34,3.42 191.28,2.82 191.28,2.94 191.1,2.4 191.16,2.46 190.92,1.98 190.98,2.1 
	190.74,1.86 190.56,1.62 190.62,1.68 190.44,1.5 190.5,1.56 190.26,1.38 190.32,1.44 190.08,1.32 189.84,1.2 189.96,1.2 
	189.42,1.02 189.48,1.08 188.94,1.02 189,1.02 81.24,1.02 81.3,1.02 81.18,0 189.06,0 189.6,0.06 189.72,0.06 190.26,0.24 
	190.32,0.3 190.8,0.54 190.86,0.54 191.1,0.72 191.4,1.02 191.58,1.26 191.52,1.2 191.82,1.5 192.06,1.98 192.06,2.1 192.24,2.64 
	192.3,2.7 192.36,3.3 192.36,67.86 "/>
<polyline style="fill-rule:evenodd;clip-rule:evenodd;fill:#B2B2B2;" points="258.42,7.62 257.88,7.62 257.34,7.8 256.86,8.1 
	256.44,8.4 256.08,8.82 255.84,9.3 255.66,9.84 255.6,10.44 255.6,33.12 255.66,33.66 255.84,34.2 256.08,34.68 256.44,35.1 
	256.86,35.46 257.34,35.7 257.88,35.88 258.42,35.94 323.64,35.94 324.18,35.88 324.72,35.7 325.2,35.46 325.62,35.1 325.98,34.68 
	326.22,34.2 326.4,33.66 326.46,33.12 326.46,10.44 326.4,9.84 326.22,9.3 325.98,8.82 325.62,8.4 325.2,8.1 324.72,7.8 
	324.18,7.62 258.42,7.62 "/>
<polyline style="fill:#8080FF;" points="258.42,7.86 257.88,7.86 258,7.86 257.46,8.04 256.98,8.34 257.041,8.34 256.62,8.64 
	256.62,8.58 256.26,9 256.32,8.94 256.08,9.42 255.9,9.96 255.9,9.9 255.84,10.5 255.84,10.44 255.84,33.12 255.9,33.66 255.9,33.6 
	256.08,34.14 256.08,34.08 256.32,34.56 256.26,34.56 256.62,34.98 256.62,34.92 257.041,35.28 256.98,35.28 257.46,35.52 
	257.46,35.46 258,35.64 257.94,35.64 258.48,35.7 258.42,35.7 323.64,35.7 324.18,35.64 324.12,35.64 324.66,35.46 324.6,35.52 
	325.08,35.28 325.5,34.92 325.44,34.98 325.8,34.56 326.041,34.08 325.98,34.14 326.16,33.6 326.16,33.66 326.22,33.12 
	326.22,10.44 326.22,10.5 326.16,9.9 326.16,9.96 325.98,9.42 326.041,9.42 325.8,8.94 325.8,9 325.44,8.58 325.5,8.64 325.08,8.34 
	324.6,8.04 324.66,8.04 324.12,7.86 324.18,7.86 258.42,7.86 258.42,7.38 324.3,7.38 324.84,7.56 324.84,7.62 325.32,7.92 
	325.38,7.92 325.8,8.22 325.8,8.28 326.16,8.7 326.22,8.7 326.46,9.18 326.46,9.24 326.64,9.78 326.64,9.84 326.7,10.44 
	326.7,33.18 326.64,33.72 326.64,33.78 326.46,34.32 326.22,34.8 326.16,34.86 325.8,35.28 325.38,35.64 325.32,35.7 324.84,35.94 
	324.3,36.12 324.24,36.12 323.7,36.18 258.42,36.18 257.88,36.12 257.82,36.12 257.28,35.94 257.22,35.94 256.74,35.7 256.74,35.64 
	256.32,35.28 256.26,35.28 255.9,34.86 255.9,34.8 255.66,34.32 255.6,34.32 255.42,33.78 255.42,33.72 255.36,33.18 255.36,10.44 
	255.42,9.84 255.42,9.78 255.6,9.24 255.66,9.18 255.9,8.7 256.26,8.28 256.32,8.22 256.74,7.92 257.22,7.62 257.28,7.56 
	257.82,7.38 258.42,7.38 "/>
<line style="fill:#8080FF;" x1="258.42" y1="7.86" x2="258.42" y2="7.38"/>
<text transform="matrix(1 0 0 1 128.04 132.0596)"><tspan x="0" y="0" style="font-family:'ProductusSemibold'; font-size:7.98;">R</tspan><tspan x="4.253" y="0" style="font-family:'ProductusSemibold'; font-size:7.98;">o</tspan><tspan x="8.626" y="0" style="font-family:'ProductusSemibold'; font-size:7.98;">o</tspan><tspan x="12.943" y="0" style="font-family:'ProductusSemibold'; font-size:7.98;">t</tspan></text>
<polyline style="fill-rule:evenodd;clip-rule:evenodd;fill:#FFFFFF;" points="128.04,21.78 142.2,21.78 135.12,35.94 "/>
<polyline points="128.04,21.54 142.62,21.54 135.36,36.06 135.18,36.48 134.94,36.06 134.94,35.82 142.02,21.66 142.44,21.9 
	142.2,22.02 128.04,22.02 "/>
<polyline points="134.94,36.06 127.68,21.54 128.04,21.54 128.28,21.66 135.36,35.82 "/>
<rect x="134.88" y="35.7" width="0.48" height="28.8"/>
<text transform="matrix(1 0 0 1 111.3599 15.2397)"><tspan x="0" y="0" style="font-family:'ProductusSemibold'; font-size:7.98;">R</tspan><tspan x="4.421" y="0" style="font-family:'ProductusSemibold'; font-size:7.98;">,</tspan><tspan x="6.639" y="0" style="font-family:'ProductusSemibold'; font-size:7.98;">S</tspan><tspan x="10.908" y="0" style="font-family:'ProductusSemibold'; font-size:7.98;">1</tspan><tspan x="14.563" y="0" style="font-family:'ProductusSemibold'; font-size:7.98;">,S2</tspan><tspan x="25.216" y="0" style="font-family:'ProductusSemibold'; font-size:7.98;">,</tspan><tspan x="27.251" y="0" style="font-family:'ProductusSemibold'; font-size:7.98;">U1</tspan><tspan x="36.141" y="0" style="font-family:'ProductusSemibold'; font-size:7.98;">,</tspan><tspan x="38.239" y="0" style="font-family:'ProductusSemibold'; font-size:7.98;">U</tspan><tspan x="43.395" y="0" style="font-family:'ProductusSemibold'; font-size:7.98;">2</tspan></text>
<polyline style="fill-rule:evenodd;clip-rule:evenodd;fill:#B2B2B2;" points="31.62,0.48 31.08,0.54 30.54,0.72 30.06,0.96 
	29.64,1.32 29.28,1.74 29.04,2.22 28.86,2.76 28.8,3.36 28.8,132.3 28.86,132.9 29.04,133.44 29.28,133.92 29.64,134.34 
	30.06,134.7 30.54,134.94 31.08,135.12 31.62,135.18 54.3,135.18 54.9,135.12 55.44,134.94 55.92,134.7 56.34,134.34 56.7,133.92 
	56.94,133.44 57.12,132.9 57.18,132.3 57.18,3.36 57.12,2.76 56.94,2.22 56.7,1.74 56.34,1.32 55.92,0.96 55.44,0.72 54.9,0.54 
	54.3,0.48 31.62,0.48 "/>
<polyline style="fill:#8080FF;" points="31.68,0.72 31.14,0.78 31.2,0.78 30.66,0.96 30.18,1.2 30.24,1.14 29.82,1.5 29.46,1.92 
	29.52,1.86 29.28,2.34 29.1,2.88 29.1,2.82 29.04,3.42 29.04,3.36 29.04,132.3 29.1,132.9 29.1,132.84 29.28,133.38 29.28,133.32 
	29.52,133.8 29.46,133.8 29.82,134.22 29.82,134.16 30.24,134.52 30.18,134.52 30.66,134.76 30.66,134.7 31.2,134.88 31.14,134.88 
	31.68,134.94 31.62,134.94 54.3,134.94 54.9,134.88 54.84,134.88 55.38,134.7 55.32,134.76 55.8,134.52 56.22,134.16 56.16,134.22 
	56.52,133.8 56.76,133.32 56.7,133.38 56.88,132.84 56.88,132.9 56.94,132.3 56.94,3.36 56.94,3.42 56.88,2.82 56.88,2.88 
	56.7,2.34 56.76,2.34 56.52,1.86 56.52,1.92 56.16,1.5 56.22,1.5 55.8,1.14 55.8,1.2 55.32,0.96 55.38,0.96 54.84,0.78 54.9,0.78 
	54.3,0.72 31.62,0.72 31.62,0.24 54.36,0.24 54.96,0.3 55.02,0.3 55.56,0.48 55.56,0.54 56.04,0.78 56.1,0.78 56.52,1.14 56.52,1.2 
	56.88,1.62 56.94,1.62 57.18,2.1 57.18,2.16 57.36,2.7 57.36,2.76 57.42,3.36 57.42,132.36 57.36,132.96 57.36,133.02 57.18,133.56 
	56.94,134.04 56.88,134.1 56.52,134.52 56.1,134.88 56.04,134.94 55.56,135.18 55.02,135.36 54.96,135.36 54.36,135.42 
	31.62,135.42 31.08,135.36 31.02,135.36 30.48,135.18 30.42,135.18 29.94,134.94 29.94,134.88 29.52,134.52 29.46,134.52 
	29.1,134.1 29.1,134.04 28.86,133.56 28.8,133.56 28.62,133.02 28.62,132.96 28.56,132.36 28.56,3.36 28.62,2.76 28.62,2.7 
	28.8,2.16 28.86,2.1 29.1,1.62 29.46,1.2 29.52,1.14 29.94,0.78 30.42,0.54 30.48,0.48 31.02,0.3 31.08,0.3 31.62,0.24 "/>
<polyline style="fill:#8080FF;" points="31.62,0.72 31.68,0.72 31.62,0.24 "/>
<polyline points="3.36,1.02 2.76,1.08 2.88,1.02 2.4,1.2 2.1,1.32 2.22,1.26 2.04,1.38 1.8,1.56 1.86,1.5 1.68,1.68 1.74,1.62 
	1.56,1.86 1.32,2.1 1.38,2.04 1.2,2.28 1.26,2.22 1.14,2.46 1.2,2.34 1.08,2.88 1.08,2.82 1.02,3.42 1.02,3.36 1.02,132.3 
	1.02,132.24 1.08,132.84 1.08,132.78 1.2,133.32 1.14,133.2 1.26,133.44 1.2,133.38 1.38,133.62 1.32,133.56 1.56,133.8 
	1.74,134.04 1.68,133.98 1.86,134.16 1.8,134.1 2.04,134.28 2.22,134.4 2.1,134.34 2.4,134.46 2.88,134.64 2.76,134.64 3.36,134.7 
	3.3,134.7 54.3,134.7 54.24,134.7 54.84,134.64 54.78,134.64 55.32,134.46 55.2,134.52 55.68,134.28 55.56,134.34 55.74,134.16 
	55.8,134.1 56.04,133.92 55.92,134.04 56.1,133.8 56.34,133.56 56.28,133.68 56.52,133.2 56.46,133.32 56.64,132.78 56.64,132.84 
	56.7,132.24 56.7,132.3 56.7,67.86 57.72,67.86 57.72,132.36 57.66,132.96 57.6,133.08 57.42,133.62 57.42,133.68 57.18,134.16 
	56.88,134.46 56.94,134.4 56.76,134.64 56.64,134.76 56.4,134.94 56.46,134.88 56.16,135.18 55.68,135.42 55.62,135.42 55.08,135.6 
	54.96,135.66 54.36,135.72 3.24,135.72 2.64,135.66 2.52,135.6 2.04,135.42 1.74,135.3 1.68,135.24 1.5,135.12 1.44,135.12 
	1.2,134.94 0.9,134.64 0.72,134.4 0.78,134.46 0.54,134.22 0.36,133.98 0.36,133.92 0.18,133.56 0.06,133.02 0.06,132.96 0,132.36 
	0,3.3 0.06,2.7 0.06,2.64 0.18,2.1 0.36,1.74 0.36,1.68 0.54,1.44 0.6,1.38 0.78,1.2 0.72,1.26 0.9,1.02 1.2,0.72 1.44,0.54 
	1.5,0.54 1.68,0.42 1.74,0.36 2.04,0.24 2.52,0.06 2.64,0.06 3.24,0 "/>
<polyline points="56.7,67.86 56.7,3.36 56.7,3.42 56.64,2.82 56.64,2.94 56.46,2.4 56.52,2.46 56.28,1.98 56.34,2.1 56.1,1.86 
	55.92,1.62 56.04,1.74 55.8,1.56 55.74,1.5 55.56,1.32 55.68,1.44 55.44,1.32 55.2,1.2 55.32,1.2 54.78,1.02 54.84,1.08 54.24,1.02 
	54.3,1.02 3.3,1.02 3.36,1.02 3.24,0 54.36,0 54.96,0.06 55.08,0.06 55.62,0.24 55.68,0.3 56.28,0.6 56.46,0.78 56.4,0.72 
	56.64,0.9 56.76,1.02 56.94,1.26 56.88,1.2 57.18,1.5 57.42,1.98 57.42,2.1 57.6,2.64 57.66,2.7 57.72,3.3 57.72,67.86 "/>
<polyline style="fill-rule:evenodd;clip-rule:evenodd;fill:#FFFFFF;" points="7.56,64.26 7.56,78.48 21.72,71.4 "/>
<polyline points="7.8,64.26 7.8,78.48 7.68,78.72 7.44,78.3 21.6,71.22 21.84,71.22 22.32,71.46 21.84,71.64 7.32,78.9 7.32,64.26 
	"/>
<polyline points="21.6,71.64 7.44,64.5 7.32,64.26 7.32,63.9 7.68,64.08 21.84,71.22 "/>
<text transform="matrix(1 0 0 1 7.0801 61.0195)"><tspan x="0" y="0" style="font-family:'ProductusSemibold'; font-size:7.98;">S</tspan><tspan x="4.253" y="0" style="font-family:'ProductusSemibold'; font-size:7.98;">1</tspan></text>
<text transform="matrix(1 0 0 1 39.4199 131.3394)"><tspan x="0" y="0" style="font-family:'ProductusSemibold'; font-size:7.98;">S</tspan><tspan x="3.846" y="0" style="font-family:'ProductusSemibold'; font-size:7.98;">1</tspan></text>
<rect x="57.66" y="71.16" width="4.68" height="0.48"/>
<polyline points="61.98,74.1 62.22,73.68 57.78,71.16 57.54,71.16 57.12,71.4 57.54,71.58 "/>
<polyline points="57.54,71.16 57.78,71.58 62.22,69 61.98,68.58 "/>
<rect x="77.4" y="71.16" width="1.02" height="0.48"/>
<rect x="72.12" y="71.16" width="1.8" height="0.48"/>
<rect x="66.9" y="71.16" width="1.74" height="0.48"/>
<rect x="62.34" y="71.16" width="1.02" height="0.48"/>
<polyline points="215.94,1.02 215.4,1.08 215.52,1.02 214.98,1.2 215.041,1.2 214.8,1.32 214.56,1.44 214.62,1.38 214.38,1.56 
	214.44,1.5 214.26,1.68 214.32,1.62 214.14,1.86 213.9,2.1 214.02,1.98 213.78,2.46 213.78,2.4 213.6,2.94 213.66,2.82 213.6,3.42 
	213.6,3.36 213.6,132.3 213.6,132.24 213.66,132.84 213.6,132.78 213.78,133.32 213.78,133.2 214.02,133.68 213.9,133.56 
	214.14,133.8 214.32,134.04 214.26,133.98 214.44,134.16 214.38,134.1 214.62,134.28 214.56,134.28 215.041,134.52 214.98,134.46 
	215.52,134.64 215.4,134.64 215.94,134.7 215.88,134.7 330.72,134.7 330.66,134.7 331.2,134.64 331.14,134.64 331.68,134.46 
	331.56,134.52 332.041,134.28 331.98,134.28 332.22,134.1 332.16,134.16 332.34,133.98 332.28,134.04 332.46,133.8 332.7,133.56 
	332.64,133.68 332.88,133.2 332.82,133.32 333,132.78 333,132.84 333.06,132.24 333.06,132.3 333.06,67.86 334.08,67.86 
	334.08,132.36 334.02,132.96 333.96,133.08 333.78,133.62 333.78,133.68 333.541,134.16 333.24,134.46 333.3,134.4 333.12,134.64 
	332.82,134.94 332.58,135.12 332.52,135.18 332.041,135.42 331.98,135.42 331.44,135.6 331.32,135.66 330.78,135.72 215.82,135.72 
	215.28,135.66 215.22,135.6 214.68,135.42 214.56,135.42 214.08,135.18 214.02,135.12 213.78,134.94 213.48,134.64 213.3,134.4 
	213.36,134.46 213.18,134.28 212.88,133.68 212.82,133.62 212.64,133.08 212.64,132.96 212.58,132.36 212.58,3.3 212.64,2.7 
	212.64,2.64 212.82,2.1 213.18,1.38 213.36,1.2 213.3,1.26 213.48,1.02 213.78,0.72 214.02,0.54 214.08,0.54 214.56,0.3 
	214.68,0.24 215.22,0.06 215.28,0.06 215.82,0 "/>
<polyline points="333.06,67.86 333.06,3.36 333.06,3.42 333,2.82 333,2.94 332.82,2.4 332.88,2.46 332.64,1.98 332.7,2.1 
	332.46,1.86 332.28,1.62 332.34,1.68 332.16,1.5 332.22,1.56 331.98,1.38 332.041,1.44 331.8,1.32 331.56,1.2 331.68,1.2 
	331.14,1.02 331.2,1.08 330.66,1.02 330.72,1.02 215.88,1.02 215.94,1.02 215.82,0 330.78,0 331.32,0.06 331.44,0.06 331.98,0.24 
	332.041,0.3 332.52,0.54 332.58,0.54 332.82,0.72 333.12,1.02 333.3,1.26 333.24,1.2 333.541,1.5 333.78,1.98 333.78,2.1 
	333.96,2.64 334.02,2.7 334.08,3.3 334.08,67.86 "/>
<text transform="matrix(1 0 0 1 223.4399 131.3398)"><tspan x="0" y="0" style="font-family:'ProductusSemibold'; font-size:7.98;">S</tspan><tspan x="3.847" y="0" style="font-family:'ProductusSemibold'; font-size:7.98;">2</tspan></text>
<rect x="207.9" y="71.16" width="4.68" height="0.48"/>
<polyline points="208.26,68.64 208.02,69.06 212.46,71.64 212.7,71.64 213,71.46 212.7,71.22 "/>
<polyline points="212.7,71.64 212.46,71.22 208.02,73.74 208.26,74.16 "/>
<rect x="191.82" y="71.16" width="1.021" height="0.48"/>
<rect x="196.32" y="71.16" width="1.74" height="0.48"/>
<rect x="201.6" y="71.16" width="1.74" height="0.48"/>
<rect x="206.88" y="71.16" width="1.02" height="0.48"/>
<text transform="matrix(1 0 0 1 308.2798 24.1797)" style="font-family:'ProductusSemibold'; font-size:7.98;">U1</text>
<text transform="matrix(1 0 0 1 265.5005 116.2803)" style="font-family:'ProductusSemibold'; font-size:7.98;">U2</text>
<rect x="250.38" y="21.54" width="4.739" height="0.479"/>
<polyline points="250.74,19.02 250.5,19.44 255,22.02 255.24,22.02 255.66,21.78 255.24,21.6 "/>
<polyline points="255.24,22.02 255,21.6 250.5,24.18 250.74,24.6 "/>
<rect x="241.44" y="21.54" width="0.96" height="0.479"/>
<rect x="245.22" y="21.54" width="1.38" height="0.479"/>
<rect x="249.42" y="21.54" width="0.96" height="0.479"/>
<rect x="250.38" y="113.64" width="4.739" height="0.48"/>
<polyline points="250.74,111.12 250.5,111.54 255,114.12 255.24,114.12 255.66,113.88 255.24,113.7 "/>
<polyline points="255.24,114.12 255,113.7 250.5,116.28 250.74,116.7 "/>
<rect x="241.44" y="113.64" width="0.96" height="0.48"/>
<rect x="245.22" y="113.64" width="1.38" height="0.48"/>
<rect x="249.42" y="113.64" width="0.96" height="0.48"/>
<rect x="290.76" y="28.86" width="0.479" height="1.02"/>
<rect x="290.76" y="33.84" width="0.479" height="1.98"/>
<rect x="290.76" y="39.84" width="0.479" height="1.98"/>
<rect x="290.76" y="45.84" width="0.479" height="1.98"/>
<rect x="290.76" y="51.84" width="0.479" height="1.98"/>
<rect x="290.76" y="57.84" width="0.479" height="1.98"/>
<rect x="290.76" y="63.84" width="0.479" height="1.98"/>
<rect x="290.76" y="69.84" width="0.479" height="1.98"/>
<rect x="290.76" y="75.84" width="0.479" height="1.98"/>
<rect x="290.76" y="81.84" width="0.479" height="1.98"/>
<rect x="290.76" y="87.84" width="0.479" height="1.98"/>
<rect x="290.76" y="93.84" width="0.479" height="1.98"/>
<rect x="290.76" y="99.84" width="0.479" height="1.98"/>
<rect x="290.76" y="105.78" width="0.479" height="1.02"/>
<polyline style="fill-rule:evenodd;clip-rule:evenodd;fill:#FFFFFF;" points="262.68,64.98 262.68,79.2 248.52,72.06 "/>
<polyline points="262.92,64.98 262.92,79.62 262.56,79.44 248.4,72.3 248.041,72.06 248.4,71.88 248.64,71.88 262.8,79.02 
	262.56,79.44 262.44,79.2 262.44,64.98 "/>
<polyline points="248.4,71.88 262.56,64.8 262.92,64.62 262.92,64.98 262.8,65.22 248.64,72.3 "/>
<text transform="matrix(1 0 0 1 246.8403 59.5801)"><tspan x="0" y="0" style="font-family:'ProductusSemibold'; font-size:7.98;">S</tspan><tspan x="3.902" y="0" style="font-family:'ProductusSemibold'; font-size:7.98;">2</tspan><tspan x="7.629" y="0" style="font-family:'ProductusSemibold'; font-size:7.98;">,</tspan><tspan x="9.312" y="0" style="font-family:'ProductusSemibold'; font-size:7.98;">U</tspan><tspan x="14.053" y="0" style="font-family:'ProductusSemibold'; font-size:7.98;">1</tspan><tspan x="17.356" y="0" style="font-family:'ProductusSemibold'; font-size:7.98;">,</tspan><tspan x="19.04" y="0" style="font-family:'ProductusSemibold'; font-size:7.98;">U</tspan><tspan x="23.828" y="0" style="font-family:'ProductusSemibold'; font-size:7.98;">2</tspan></text>
<text transform="matrix(-6.123234e-17 -1 1 -6.123234e-17 295.7397 83.46)"><tspan x="0" y="0" style="font-family:'ProductusBook'; font-size:7.98;">same</tspan><tspan x="15.385" y="0" style="font-family:'ProductusBook'; font-size:7.98;"> </tspan><tspan x="16.949" y="0" style="font-family:'ProductusBook'; font-size:7.98;">bundle</tspan></text>
<rect x="212.82" y="71.16" width="1.26" height="0.48"/>
<rect x="217.98" y="71.16" width="1.98" height="0.48"/>
<rect x="223.92" y="71.16" width="1.92" height="0.48"/>
<rect x="229.8" y="71.16" width="1.979" height="0.48"/>
<rect x="235.74" y="71.16" width="1.92" height="0.48"/>
<rect x="241.62" y="71.16" width="1.98" height="0.48"/>
<rect x="247.5" y="71.16" width="1.26" height="0.48"/>
<rect x="21.48" y="71.16" width="1.26" height="0.48"/>
<rect x="26.64" y="71.16" width="1.98" height="0.48"/>
<rect x="32.58" y="71.16" width="1.92" height="0.48"/>
<rect x="38.46" y="71.16" width="1.98" height="0.48"/>
<rect x="44.34" y="71.16" width="1.98" height="0.48"/>
<rect x="50.28" y="71.16" width="1.92" height="0.48"/>
<rect x="56.16" y="71.16" width="1.26" height="0.48"/>
<rect x="106.74" y="106.8" style="fill:#808080;" width="14.22" height="14.16"/>
<text transform="matrix(1 0 0 1 111.6602 116.2798)" style="fill:#FFFFFF; font-family:'ProductusOSGiMonoc'; font-size:7.98;">0</text>
<text transform="matrix(1 0 0 1 111.6602 116.2798)" style="fill:none;stroke:#FFFFFF;stroke-width:0.12;stroke-miterlimit:10; font-family:'ProductusOSGiMonoc'; font-size:7.98;">0</text>
<rect x="128.04" y="64.26" style="fill:#808080;" width="14.16" height="14.22"/>
<text transform="matrix(1 0 0 1 130.7402 73.7998)" style="fill:#FFFFFF; font-family:'ProductusOSGiMonoc'; font-size:7.98;">S</text>
<text transform="matrix(1 0 0 1 130.7402 73.7998)" style="fill:none;stroke:#FFFFFF;stroke-width:0.12;stroke-miterlimit:10; font-family:'ProductusOSGiMonoc'; font-size:7.98;">S</text>
<text transform="matrix(1 0 0 1 135.1201 73.7998)" style="fill:#FFFFFF; font-family:'ProductusOSGiMonoc'; font-size:7.98;">I</text>
<text transform="matrix(1 0 0 1 135.1201 73.7998)" style="fill:none;stroke:#FFFFFF;stroke-width:0.12;stroke-miterlimit:10; font-family:'ProductusOSGiMonoc'; font-size:7.98;">I</text>
<rect x="128.04" y="106.8" style="fill:#808080;" width="14.16" height="14.16"/>
<text transform="matrix(1 0 0 1 132.8999 116.2798)" style="fill:#FFFFFF; font-family:'ProductusOSGiMonoc'; font-size:7.98;">A</text>
<text transform="matrix(1 0 0 1 132.8999 116.2798)" style="fill:none;stroke:#FFFFFF;stroke-width:0.12;stroke-miterlimit:10; font-family:'ProductusOSGiMonoc'; font-size:7.98;">A</text>
<rect x="149.28" y="106.8" style="fill:#808080;" width="14.16" height="14.16"/>
<text transform="matrix(1 0 0 1 154.1997 116.2798)" style="fill:#FFFFFF; font-family:'ProductusOSGiMonoc'; font-size:7.98;">B</text>
<text transform="matrix(1 0 0 1 154.1997 116.2798)" style="fill:none;stroke:#FFFFFF;stroke-width:0.12;stroke-miterlimit:10; font-family:'ProductusOSGiMonoc'; font-size:7.98;">B</text>
<rect x="35.88" y="14.7" style="fill:#808080;" width="14.22" height="14.16"/>
<text transform="matrix(1 0 0 1 40.8003 24.1797)" style="fill:#FFFFFF; font-family:'ProductusOSGiMonoc'; font-size:7.98;">D</text>
<text transform="matrix(1 0 0 1 40.8003 24.1797)" style="fill:none;stroke:#FFFFFF;stroke-width:0.12;stroke-miterlimit:10; font-family:'ProductusOSGiMonoc'; font-size:7.98;">D</text>
<rect x="35.88" y="35.94" style="fill:#808080;" width="14.22" height="14.16"/>
<text transform="matrix(1 0 0 1 40.8003 45.4199)" style="fill:#FFFFFF; font-family:'ProductusOSGiMonoc'; font-size:7.98;">C</text>
<text transform="matrix(1 0 0 1 40.8003 45.4199)" style="fill:none;stroke:#FFFFFF;stroke-width:0.12;stroke-miterlimit:10; font-family:'ProductusOSGiMonoc'; font-size:7.98;">C</text>
<rect x="35.88" y="78.48" style="fill:#808080;" width="14.22" height="14.16"/>
<text transform="matrix(1 0 0 1 40.8003 87.96)" style="fill:#FFFFFF; font-family:'ProductusOSGiMonoc'; font-size:7.98;">F</text>
<text transform="matrix(1 0 0 1 40.8003 87.96)" style="fill:none;stroke:#FFFFFF;stroke-width:0.12;stroke-miterlimit:10; font-family:'ProductusOSGiMonoc'; font-size:7.98;">F</text>
<rect x="220.14" y="14.7" style="fill:#808080;" width="14.22" height="14.16"/>
<text transform="matrix(1 0 0 1 225.0601 24.1797)" style="fill:#FFFFFF; font-family:'ProductusOSGiMonoc'; font-size:7.98;">F</text>
<text transform="matrix(1 0 0 1 225.0601 24.1797)" style="fill:none;stroke:#FFFFFF;stroke-width:0.12;stroke-miterlimit:10; font-family:'ProductusOSGiMonoc'; font-size:7.98;">F</text>
<rect x="220.14" y="35.94" style="fill:#808080;" width="14.22" height="14.16"/>
<text transform="matrix(1 0 0 1 225.0601 45.4199)" style="fill:#FFFFFF; font-family:'ProductusOSGiMonoc'; font-size:7.98;">E</text>
<text transform="matrix(1 0 0 1 225.0601 45.4199)" style="fill:none;stroke:#FFFFFF;stroke-width:0.12;stroke-miterlimit:10; font-family:'ProductusOSGiMonoc'; font-size:7.98;">E</text>
<rect x="262.68" y="14.7" style="fill:#808080;" width="14.16" height="14.16"/>
<text transform="matrix(1 0 0 1 267.5405 24.1797)" style="fill:#FFFFFF; font-family:'ProductusOSGiMonoc'; font-size:7.98;">G</text>
<text transform="matrix(1 0 0 1 267.5405 24.1797)" style="fill:none;stroke:#FFFFFF;stroke-width:0.12;stroke-miterlimit:10; font-family:'ProductusOSGiMonoc'; font-size:7.98;">G</text>
<rect x="283.92" y="14.7" style="fill:#808080;" width="14.22" height="14.16"/>
<text transform="matrix(1 0 0 1 288.8403 24.1797)" style="fill:#FFFFFF; font-family:'ProductusOSGiMonoc'; font-size:7.98;">H</text>
<text transform="matrix(1 0 0 1 288.8403 24.1797)" style="fill:none;stroke:#FFFFFF;stroke-width:0.12;stroke-miterlimit:10; font-family:'ProductusOSGiMonoc'; font-size:7.98;">H</text>
<rect x="283.92" y="106.8" style="fill:#808080;" width="14.22" height="14.16"/>
<text transform="matrix(1 0 0 1 288.8403 116.2798)" style="fill:#FFFFFF; font-family:'ProductusOSGiMonoc'; font-size:7.98;">H</text>
<text transform="matrix(1 0 0 1 288.8403 116.2798)" style="fill:none;stroke:#FFFFFF;stroke-width:0.12;stroke-miterlimit:10; font-family:'ProductusOSGiMonoc'; font-size:7.98;">H</text>
<rect x="305.22" y="106.8" style="fill:#808080;" width="14.16" height="14.16"/>
<text transform="matrix(1 0 0 1 310.0796 116.2798)" style="fill:#FFFFFF; font-family:'ProductusOSGiMonoc'; font-size:7.98;">J</text>
<text transform="matrix(1 0 0 1 310.0796 116.2798)" style="fill:none;stroke:#FFFFFF;stroke-width:0.12;stroke-miterlimit:10; font-family:'ProductusOSGiMonoc'; font-size:7.98;">J</text>
</svg>
