<?xml version="1.0" encoding="utf-8"?>
<!-- Generator: Adobe Illustrator 16.0.0, SVG Export Plug-In . SVG Version: 6.00 Build 0)  -->
<!DOCTYPE svg PUBLIC "-//W3C//DTD SVG 1.1//EN" "http://www.w3.org/Graphics/SVG/1.1/DTD/svg11.dtd">
<svg version="1.1" id="Layer_1" xmlns="http://www.w3.org/2000/svg" xmlns:xlink="http://www.w3.org/1999/xlink" x="0px" y="0px"
	 width="226.98px" height="113.64px" viewBox="0 0 226.98 113.64" style="enable-background:new 0 0 226.98 113.64;"
	 xml:space="preserve">
<rect x="92.34" y="78.18" style="fill:#E6E6E6;" width="134.64" height="35.46"/>
<rect x="113.58" y="85.32" style="fill:#FFFFFF;" width="28.38" height="21.24"/>
<rect x="113.58" y="85.08" width="28.62" height="0.48"/>
<rect x="141.72" y="85.32" width="0.48" height="21.48"/>
<rect x="113.34" y="106.32" width="28.62" height="0.48"/>
<rect x="113.34" y="85.08" width="0.48" height="21.48"/>
<text transform="matrix(1 0 0 1 115.8604 50.9399)"><tspan x="0" y="0" style="font-family:'ProductusBook'; font-size:7.98;">T</tspan><tspan x="3.727" y="0" style="font-family:'ProductusBook'; font-size:7.98;">h</tspan><tspan x="7.445" y="0" style="font-family:'ProductusBook'; font-size:7.98;">a</tspan><tspan x="10.749" y="0" style="font-family:'ProductusBook'; font-size:7.98;">w</tspan><tspan x="15.904" y="0" style="font-family:'ProductusBook'; font-size:7.98;">t</tspan><tspan x="18.298" y="0" style="font-family:'ProductusBook'; font-size:7.98;">e</tspan></text>
<rect x="113.58" y="42.54" width="28.62" height="0.48"/>
<rect x="141.72" y="42.78" width="0.48" height="21.48"/>
<rect x="113.34" y="63.78" width="28.62" height="0.48"/>
<rect x="113.34" y="42.54" width="0.48" height="21.48"/>
<text transform="matrix(1 0 0 1 116.1602 60.7197)" style="font-family:'ProductusBook'; font-size:7.98;">Signing</text>
<text transform="matrix(1 0 0 1 121.0195 8.4595)"><tspan x="0" y="0" style="font-family:'ProductusBook'; font-size:7.98;">Ap</tspan><tspan x="7.74" y="0" style="font-family:'ProductusBook'; font-size:7.98;">p</tspan></text>
<rect x="113.58" width="28.62" height="0.48"/>
<rect x="141.72" y="0.24" width="0.48" height="21.54"/>
<rect x="113.34" y="21.3" width="28.62" height="0.48"/>
<rect x="113.34" width="0.48" height="21.54"/>
<text transform="matrix(1 0 0 1 120.6006 18.1797)"><tspan x="0" y="0" style="font-family:'ProductusBook'; font-size:7.98;">C</tspan><tspan x="4.205" y="0" style="font-family:'ProductusBook'; font-size:7.98;">e</tspan><tspan x="7.692" y="0" style="font-family:'ProductusBook'; font-size:7.98;">r</tspan><tspan x="9.967" y="0" style="font-family:'ProductusBook'; font-size:7.98;">t</tspan></text>
<rect x="127.561" y="22.02" width="0.479" height="4.68"/>
<polyline points="125.04,26.34 125.46,26.58 128.04,22.14 128.04,21.9 127.86,21.6 127.62,21.9 "/>
<polyline points="128.04,21.9 127.62,22.14 130.14,26.58 130.561,26.34 "/>
<rect x="127.561" y="26.46" width="0.479" height="16.56"/>
<rect x="127.561" y="64.56" width="0.479" height="4.68"/>
<polyline points="125.04,68.88 125.46,69.12 128.04,64.68 128.04,64.44 127.86,64.14 127.62,64.44 "/>
<polyline points="128.04,64.44 127.62,64.68 130.14,69.12 130.561,68.88 "/>
<rect x="127.561" y="69" width="0.479" height="16.56"/>
<polyline points="165.3,72.54 165.42,73.02 169.86,71.52 169.74,71.04 "/>
<polyline points="164.88,70.08 164.76,70.5 169.74,71.52 169.98,71.46 170.34,71.1 169.86,71.1 "/>
<polyline points="169.98,71.46 169.62,71.16 166.26,75 166.62,75.3 "/>
<polyline points="127.74,85.08 127.5,85.14 127.68,85.62 127.92,85.56 "/>
<polyline points="165.3,72.54 165.54,72.48 165.72,72.96 165.48,73.02 "/>
<polyline points="127.74,85.08 127.92,85.56 165.48,73.02 165.3,72.54 "/>
<polyline points="90.12,73.02 90.24,72.54 85.8,71.04 85.68,71.52 "/>
<polyline points="88.98,75.24 89.34,74.94 85.92,71.1 85.68,71.04 85.38,71.1 85.56,71.4 "/>
<polyline points="85.68,71.04 85.8,71.46 90.84,70.44 90.72,70.02 "/>
<polyline points="127.74,85.56 127.98,85.62 128.16,85.14 127.92,85.08 "/>
<polyline points="90.12,73.02 89.88,72.96 90.06,72.48 90.3,72.54 "/>
<polyline points="127.74,85.56 127.92,85.08 90.3,72.54 90.12,73.02 "/>
<polyline points="165.3,30 165.42,30.48 169.86,28.98 169.74,28.5 "/>
<polyline points="164.88,27.54 164.76,27.96 169.74,28.98 169.98,28.92 170.34,28.56 169.86,28.56 "/>
<polyline points="169.98,28.92 169.62,28.62 166.26,32.46 166.62,32.76 "/>
<polyline points="127.74,42.54 127.5,42.6 127.68,43.08 127.92,43.02 "/>
<polyline points="165.3,30 165.54,29.94 165.72,30.42 165.48,30.48 "/>
<polyline points="127.74,42.54 127.92,43.02 165.48,30.48 165.3,30 "/>
<polyline points="90.12,30.48 90.24,30 85.8,28.5 85.68,28.98 "/>
<polyline points="88.98,32.7 89.34,32.4 85.92,28.56 85.68,28.5 85.38,28.56 85.56,28.86 "/>
<polyline points="85.68,28.5 85.8,28.92 90.84,27.9 90.72,27.48 "/>
<polyline points="127.74,43.02 127.98,43.08 128.16,42.6 127.92,42.54 "/>
<polyline points="90.12,30.48 89.88,30.42 90.06,29.94 90.3,30 "/>
<polyline points="127.74,43.02 127.92,42.54 90.3,30 90.12,30.48 "/>
<text transform="matrix(1 0 0 1 115.8604 93.48)"><tspan x="0" y="0" style="font-family:'ProductusBook'; font-size:7.98;">T</tspan><tspan x="3.727" y="0" style="font-family:'ProductusBook'; font-size:7.98;">h</tspan><tspan x="7.445" y="0" style="font-family:'ProductusBook'; font-size:7.98;">a</tspan><tspan x="10.749" y="0" style="font-family:'ProductusBook'; font-size:7.98;">w</tspan><tspan x="15.904" y="0" style="font-family:'ProductusBook'; font-size:7.98;">t</tspan><tspan x="18.298" y="0" style="font-family:'ProductusBook'; font-size:7.98;">e</tspan></text>
<text transform="matrix(1 0 0 1 120.0596 103.1997)"><tspan x="0" y="0" style="font-family:'ProductusBook'; font-size:7.98;">R</tspan><tspan x="3.424" y="0" style="font-family:'ProductusBook'; font-size:7.98;">oot</tspan></text>
<text transform="matrix(1 0 0 1 164.2197 97.1396)"><tspan x="0" y="0" style="font-family:'ProductusBook'; font-size:7.98;">T</tspan><tspan x="3.128" y="0" style="font-family:'ProductusBook'; font-size:7.98;">rus</tspan><tspan x="11.914" y="0" style="font-family:'ProductusBook'; font-size:7.98;">t</tspan><tspan x="14.26" y="0" style="font-family:'ProductusBook'; font-size:7.98;">e</tspan><tspan x="17.795" y="0" style="font-family:'ProductusBook'; font-size:7.98;">d</tspan><tspan x="21.498" y="0" style="font-family:'ProductusBook'; font-size:7.98;"> </tspan><tspan x="23.062" y="0" style="font-family:'ProductusBook'; font-size:7.98;">R</tspan><tspan x="26.485" y="0" style="font-family:'ProductusBook'; font-size:7.98;">e</tspan><tspan x="29.973" y="0" style="font-family:'ProductusBook'; font-size:7.98;">positor</tspan><tspan x="50.313" y="0" style="font-family:'ProductusBook'; font-size:7.98;">y</tspan></text>
<rect x="9.18" y="21.3" width="4.68" height="0.48"/>
<polyline points="9.54,18.78 9.3,19.2 13.74,21.78 13.98,21.78 14.28,21.6 13.98,21.36 "/>
<polyline points="13.98,21.78 13.74,21.36 9.3,23.88 9.54,24.3 "/>
<rect y="21.3" width="9.42" height="0.48"/>
<text transform="matrix(1 0 0 1 21.48 22.6797)"><tspan x="0" y="0" style="font-family:'ProductusBook'; font-size:7.98;">Sign</tspan><tspan x="12.457" y="0" style="font-family:'ProductusBook'; font-size:7.98;">s</tspan></text>
<polyline points="144.601,73.8 144.84,74.16 148.74,71.58 148.5,71.22 "/>
<polyline points="143.521,71.46 143.58,71.94 148.68,71.64 148.86,71.52 148.98,71.22 148.62,71.16 "/>
<polyline points="148.86,71.52 148.44,71.34 146.16,75.96 146.58,76.14 "/>
<polyline points="127.68,85.14 127.5,85.26 127.74,85.68 127.92,85.56 "/>
<polyline points="144.601,73.8 144.78,73.68 145.021,74.1 144.84,74.22 "/>
<polyline points="127.68,85.14 127.92,85.56 144.84,74.22 144.601,73.8 "/>
<polyline points="110.7,74.16 110.94,73.8 107.04,71.22 106.8,71.58 "/>
<polyline points="109.02,76.08 109.44,75.9 107.16,71.28 106.98,71.16 106.5,71.1 106.74,71.46 "/>
<polyline points="106.98,71.16 106.92,71.64 112.08,71.94 112.14,71.46 "/>
<polyline points="127.68,85.56 127.86,85.68 128.101,85.26 127.92,85.14 "/>
<polyline points="110.7,74.22 110.52,74.1 110.76,73.68 110.94,73.8 "/>
<polyline points="127.68,85.56 127.92,85.14 110.94,73.8 110.7,74.22 "/>
<polyline points="144.601,31.32 144.84,31.68 148.74,29.04 148.5,28.68 "/>
<polyline points="143.521,28.98 143.58,29.46 148.68,29.1 148.86,28.98 149.04,28.56 148.62,28.62 "/>
<polyline points="148.86,28.98 148.44,28.8 146.16,33.42 146.58,33.6 "/>
<polyline points="127.68,42.6 127.5,42.72 127.74,43.14 127.92,43.02 "/>
<polyline points="144.601,31.32 144.78,31.2 145.021,31.62 144.84,31.74 "/>
<polyline points="127.68,42.6 127.92,43.02 144.84,31.74 144.601,31.32 "/>
<polyline points="110.7,31.68 110.94,31.32 107.04,28.68 106.8,29.04 "/>
<polyline points="109.02,33.54 109.44,33.36 107.16,28.74 106.98,28.62 106.62,28.56 106.74,28.92 "/>
<polyline points="106.98,28.62 106.92,29.1 112.08,29.46 112.14,28.98 "/>
<polyline points="127.68,43.02 127.86,43.14 128.101,42.72 127.92,42.6 "/>
<polyline points="110.7,31.74 110.52,31.62 110.76,31.2 110.94,31.32 "/>
<polyline points="127.68,43.02 127.92,42.6 110.94,31.32 110.7,31.74 "/>
</svg>
