<?xml version="1.0" encoding="utf-8"?>
<!-- Generator: Adobe Illustrator 16.0.0, SVG Export Plug-In . SVG Version: 6.00 Build 0)  -->
<!DOCTYPE svg PUBLIC "-//W3C//DTD SVG 1.1//EN" "http://www.w3.org/Graphics/SVG/1.1/DTD/svg11.dtd">
<svg version="1.1" id="Layer_1" xmlns="http://www.w3.org/2000/svg" xmlns:xlink="http://www.w3.org/1999/xlink" x="0px" y="0px"
	 width="215.385px" height="156.36px" viewBox="0 0 215.385 156.36" style="enable-background:new 0 0 215.385 156.36;"
	 xml:space="preserve">
<polyline points="163.08,113.459 162.899,113.64 163.26,114 163.439,113.82 "/>
<polyline points="184.319,92.16 184.5,91.98 184.859,92.34 184.68,92.52 "/>
<polyline points="163.08,113.459 163.439,113.82 184.68,92.52 184.319,92.16 "/>
<polyline points="120.54,92.16 120.359,92.34 120.72,92.7 120.899,92.52 "/>
<polyline points="148.92,63.84 149.1,63.66 149.46,64.02 149.279,64.2 "/>
<polyline points="120.54,92.16 120.899,92.52 149.279,64.2 148.92,63.84 "/>
<polyline points="148.979,63.84 148.8,63.959 149.1,64.32 149.279,64.2 "/>
<polyline points="184.38,35.459 184.56,35.34 184.859,35.7 184.68,35.82 "/>
<polyline points="148.979,63.84 149.279,64.2 184.68,35.82 184.38,35.459 "/>
<polyline style="fill-rule:evenodd;clip-rule:evenodd;fill:#E6E6E6;" points="198.72,35.64 198.6,34.92 198.42,34.26 198.06,33.54 
	197.58,32.88 196.979,32.28 196.26,31.68 195.479,31.14 193.56,30.18 192.42,29.76 191.279,29.459 190.02,29.16 188.76,28.92 
	187.38,28.74 186,28.62 184.5,28.56 183.06,28.62 181.68,28.74 180.3,28.92 178.979,29.16 176.58,29.76 175.5,30.18 174.479,30.66 
	173.58,31.14 172.8,31.68 172.08,32.28 171.479,32.88 171,33.54 170.64,34.26 170.399,34.92 170.34,35.64 170.399,36.36 
	170.64,37.08 171,37.8 171.479,38.4 172.08,39.06 172.8,39.6 173.58,40.2 174.479,40.68 175.5,41.16 176.58,41.52 177.779,41.88 
	178.979,42.18 180.3,42.42 181.68,42.6 183.06,42.72 184.5,42.78 186,42.72 187.38,42.6 188.76,42.42 190.02,42.18 191.279,41.88 
	193.56,41.16 195.479,40.2 196.26,39.6 196.979,39.06 197.58,38.4 198.06,37.8 198.42,37.08 198.6,36.36 198.72,35.64 "/>
<polyline points="198.479,35.7 198.359,34.98 198.18,34.32 198.24,34.38 197.88,33.66 197.88,33.72 197.399,33.06 196.8,32.459 
	196.859,32.459 196.14,31.86 196.14,31.92 195.359,31.38 193.439,30.42 193.5,30.42 192.359,30 191.22,29.7 189.96,29.4 
	190.02,29.4 188.76,29.16 187.38,28.98 186,28.86 184.5,28.8 183.06,28.86 183.12,28.86 181.74,28.98 180.359,29.16 179.04,29.4 
	177.84,29.7 176.64,30 176.7,30 175.62,30.42 174.6,30.9 173.7,31.38 173.76,31.38 172.979,31.92 172.979,31.86 172.26,32.459 
	171.66,33.06 171.18,33.72 171.24,33.66 170.88,34.38 170.64,35.04 170.64,34.98 170.58,35.7 170.58,35.64 170.64,36.36 
	170.64,36.3 170.88,37.02 170.88,36.959 171.24,37.68 171.18,37.68 171.66,38.28 172.26,38.94 172.26,38.88 172.979,39.42 
	173.76,40.02 173.7,40.02 174.6,40.5 175.62,40.98 175.62,40.92 175.439,41.4 174.42,40.92 174.359,40.92 173.46,40.44 
	173.46,40.38 172.68,39.78 171.96,39.24 171.899,39.24 171.3,38.58 170.819,37.98 170.819,37.92 170.46,37.2 170.399,37.2 
	170.16,36.48 170.16,36.42 170.1,35.7 170.1,35.64 170.16,34.92 170.16,34.86 170.399,34.2 170.46,34.14 170.819,33.42 171.3,32.76 
	171.3,32.7 171.899,32.1 171.96,32.1 172.68,31.5 173.46,30.959 174.359,30.48 174.42,30.48 175.439,30 176.52,29.58 176.52,29.52 
	178.92,28.92 178.979,28.92 180.3,28.68 181.68,28.5 183.06,28.38 184.5,28.32 186,28.38 186.06,28.38 187.439,28.5 188.819,28.68 
	190.08,28.92 191.34,29.22 192.479,29.52 192.54,29.52 193.68,29.94 193.68,30 195.6,30.959 195.66,30.959 196.439,31.5 
	197.16,32.1 197.76,32.7 197.76,32.76 198.24,33.42 198.3,33.42 198.66,34.14 198.66,34.2 198.84,34.86 198.84,34.92 198.96,35.64 
	"/>
<polyline points="175.62,40.92 176.7,41.28 176.64,41.28 177.84,41.64 179.04,41.94 180.359,42.18 181.74,42.36 183.12,42.48 
	183.06,42.48 184.5,42.54 186,42.48 187.38,42.36 188.76,42.18 190.02,41.94 189.96,41.94 191.22,41.64 193.5,40.92 193.439,40.98 
	195.359,40.02 196.14,39.42 196.859,38.88 196.8,38.94 197.399,38.28 197.88,37.68 198.24,36.959 198.18,37.02 198.359,36.3 
	198.359,36.36 198.479,35.64 198.479,35.7 198.96,35.64 198.96,35.7 198.84,36.42 198.66,37.14 198.66,37.2 198.3,37.92 
	198.24,37.98 197.76,38.58 197.16,39.24 196.439,39.78 195.66,40.38 195.6,40.44 193.68,41.4 193.62,41.4 191.34,42.12 
	190.08,42.42 188.819,42.66 187.439,42.84 186.06,42.959 186,42.959 184.5,43.02 183.06,42.959 181.68,42.84 180.3,42.66 
	178.979,42.42 178.92,42.42 177.72,42.12 176.52,41.76 175.439,41.4 "/>
<rect x="184.26" y="42.54" width="0.48" height="14.641"/>
<text transform="matrix(1 0 0 1 190.2002 50.3403)"><tspan x="0" y="0" style="font-family:'ProductusBook'; font-size:7.98;">c</tspan><tspan x="3.128" y="0" style="font-family:'ProductusBook'; font-size:7.98;">=</tspan><tspan x="6.91" y="0" style="font-family:'ProductusBook'; font-size:7.98;">U</tspan><tspan x="11.579" y="0" style="font-family:'ProductusBook'; font-size:7.98;">S</tspan></text>
<polyline points="163.08,85.08 162.899,85.26 163.26,85.62 163.439,85.44 "/>
<polyline points="184.319,63.84 184.5,63.66 184.859,64.02 184.68,64.2 "/>
<polyline points="163.08,85.08 163.439,85.44 184.68,64.2 184.319,63.84 "/>
<polyline style="fill-rule:evenodd;clip-rule:evenodd;fill:#E6E6E6;" points="198.72,64.02 198.6,63.3 198.42,62.58 198.06,61.92 
	197.58,61.26 196.979,60.66 196.26,60.06 195.479,59.52 194.52,58.98 193.56,58.56 192.42,58.14 191.279,57.78 190.02,57.48 
	188.76,57.24 187.38,57.06 186,56.94 183.06,56.94 181.68,57.06 180.3,57.24 178.979,57.48 177.779,57.78 176.58,58.14 175.5,58.56 
	174.479,58.98 173.58,59.52 172.8,60.06 172.08,60.66 171.479,61.26 171,61.92 170.64,62.58 170.399,63.3 170.34,64.02 
	170.399,64.74 170.64,65.459 171,66.12 171.479,66.78 172.08,67.38 172.8,67.98 173.58,68.52 174.479,69 175.5,69.48 176.58,69.9 
	177.779,70.26 178.979,70.56 180.3,70.8 181.68,70.98 183.06,71.04 184.5,71.1 186,71.04 187.38,70.98 188.76,70.8 190.02,70.56 
	191.279,70.26 192.42,69.9 193.56,69.48 195.479,68.52 196.26,67.98 196.979,67.38 197.58,66.78 198.06,66.12 198.42,65.459 
	198.6,64.74 198.72,64.02 "/>
<polyline points="198.479,64.08 198.359,63.36 198.18,62.64 198.24,62.7 197.88,62.04 197.88,62.1 197.399,61.44 196.8,60.84 
	196.859,60.84 196.14,60.24 196.14,60.3 195.359,59.76 194.399,59.22 194.46,59.22 193.5,58.8 192.359,58.38 191.22,58.02 
	189.96,57.72 190.02,57.72 188.76,57.48 187.38,57.3 186,57.18 183.06,57.18 183.12,57.18 181.74,57.3 180.359,57.48 179.04,57.72 
	177.84,58.02 176.64,58.38 176.7,58.38 175.62,58.8 174.6,59.22 173.7,59.76 173.76,59.76 172.979,60.3 172.979,60.24 172.26,60.84 
	171.66,61.44 171.18,62.1 171.24,62.04 170.88,62.7 170.64,63.42 170.64,63.36 170.58,64.08 170.58,64.02 170.64,64.74 
	170.64,64.68 170.88,65.4 170.88,65.34 171.24,66 171.18,66 171.66,66.66 171.66,66.6 172.26,67.2 172.979,67.8 173.76,68.34 
	173.7,68.34 174.6,68.82 175.62,69.3 175.439,69.72 174.42,69.24 174.359,69.24 173.46,68.76 172.68,68.22 172.68,68.16 
	171.96,67.56 171.899,67.56 171.3,66.959 170.819,66.3 170.819,66.24 170.46,65.58 170.399,65.58 170.16,64.86 170.16,64.8 
	170.1,64.08 170.1,64.02 170.16,63.3 170.16,63.24 170.399,62.52 170.46,62.459 170.819,61.8 171.3,61.14 171.3,61.08 
	171.899,60.48 171.96,60.48 172.68,59.88 173.46,59.34 174.359,58.8 174.42,58.8 175.439,58.38 176.52,57.959 176.52,57.9 
	177.72,57.54 178.92,57.24 178.979,57.24 180.3,57 181.68,56.82 183.06,56.7 186.06,56.7 187.439,56.82 188.819,57 190.08,57.24 
	191.34,57.54 192.479,57.9 192.54,57.9 193.68,58.32 193.68,58.38 194.64,58.8 195.6,59.34 195.66,59.34 196.439,59.88 
	197.16,60.48 197.76,61.08 197.76,61.14 198.24,61.8 198.3,61.8 198.66,62.459 198.66,62.52 198.84,63.24 198.84,63.3 198.96,64.02 
	"/>
<polyline points="175.62,69.3 176.7,69.72 176.64,69.66 177.84,70.02 179.04,70.32 180.359,70.56 181.74,70.74 181.68,70.74 
	183.06,70.8 184.5,70.86 186,70.8 187.38,70.74 188.76,70.56 190.02,70.32 189.96,70.32 191.22,70.02 192.359,69.66 193.5,69.24 
	193.439,69.3 195.359,68.34 196.14,67.8 196.859,67.2 196.8,67.2 197.399,66.6 197.399,66.66 197.88,66 198.24,65.34 198.18,65.4 
	198.359,64.68 198.359,64.74 198.479,64.02 198.479,64.08 198.96,64.02 198.96,64.08 198.84,64.8 198.66,65.52 198.66,65.58 
	198.3,66.24 198.24,66.3 197.76,66.959 197.16,67.56 196.439,68.16 196.439,68.22 195.66,68.76 195.6,68.76 193.68,69.72 
	192.54,70.14 192.479,70.14 191.34,70.5 190.08,70.8 188.819,71.04 187.439,71.22 187.38,71.22 186,71.28 184.5,71.34 183.06,71.28 
	181.68,71.22 180.3,71.04 178.979,70.8 178.92,70.8 177.72,70.5 176.52,70.14 175.439,69.72 "/>
<rect x="184.26" y="70.86" width="0.48" height="14.64"/>
<polyline style="fill-rule:evenodd;clip-rule:evenodd;fill:#E6E6E6;" points="198.72,92.34 198.6,91.62 198.42,90.959 198.06,90.24 
	197.58,89.58 196.979,88.98 196.26,88.38 195.479,87.84 193.56,86.88 192.42,86.459 191.279,86.1 190.02,85.8 188.76,85.62 
	187.38,85.44 186,85.32 184.5,85.26 183.06,85.32 181.68,85.44 180.3,85.62 178.979,85.8 177.779,86.1 176.58,86.459 175.5,86.88 
	174.479,87.36 173.58,87.84 172.8,88.38 172.08,88.98 171.479,89.58 171,90.24 170.64,90.959 170.399,91.62 170.34,92.34 
	170.399,93.06 170.64,93.78 171,94.44 171.479,95.1 172.08,95.76 172.8,96.3 173.58,96.84 174.479,97.38 175.5,97.8 176.58,98.22 
	177.779,98.58 178.979,98.88 180.3,99.12 181.68,99.3 183.06,99.42 186,99.42 187.38,99.3 188.76,99.12 190.02,98.88 191.279,98.58 
	192.42,98.22 193.56,97.8 194.52,97.38 195.479,96.84 196.26,96.3 196.979,95.76 197.58,95.1 198.06,94.44 198.42,93.78 
	198.6,93.06 198.72,92.34 "/>
<polyline points="198.479,92.4 198.359,91.68 198.18,91.02 198.24,91.08 197.88,90.36 197.88,90.42 197.399,89.76 196.8,89.16 
	196.859,89.16 196.14,88.56 196.14,88.62 195.359,88.08 193.439,87.12 193.5,87.12 192.359,86.7 191.22,86.34 189.96,86.04 
	190.02,86.04 188.76,85.86 187.38,85.68 186,85.56 184.5,85.5 183.06,85.56 183.12,85.56 181.74,85.68 180.359,85.86 179.04,86.04 
	177.84,86.34 176.64,86.7 176.7,86.7 175.62,87.12 174.6,87.6 173.7,88.08 173.76,88.08 172.979,88.62 172.979,88.56 172.26,89.16 
	171.66,89.76 171.18,90.42 171.24,90.36 170.88,91.08 170.64,91.74 170.64,91.68 170.58,92.4 170.58,92.34 170.64,93.06 170.64,93 
	170.88,93.72 170.88,93.66 171.24,94.32 171.18,94.32 171.66,94.98 172.26,95.64 172.26,95.58 172.979,96.12 173.76,96.66 
	173.7,96.66 174.6,97.2 175.62,97.62 175.439,98.04 174.42,97.62 174.359,97.62 173.46,97.08 172.68,96.54 172.68,96.48 
	171.96,95.94 171.899,95.94 171.3,95.28 170.819,94.62 170.819,94.56 170.46,93.9 170.399,93.9 170.16,93.18 170.16,93.12 
	170.1,92.4 170.1,92.34 170.16,91.62 170.16,91.56 170.399,90.9 170.46,90.84 170.819,90.12 171.3,89.459 171.3,89.4 171.899,88.8 
	171.96,88.8 172.68,88.2 173.46,87.66 174.359,87.18 174.42,87.18 175.439,86.7 176.52,86.28 176.52,86.22 177.72,85.86 
	178.92,85.56 178.979,85.56 180.3,85.38 181.68,85.2 183.06,85.08 184.5,85.02 186,85.08 186.06,85.08 187.439,85.2 188.819,85.38 
	190.08,85.56 191.34,85.86 192.479,86.22 192.54,86.22 193.68,86.64 193.68,86.7 195.6,87.66 195.66,87.66 196.439,88.2 
	197.16,88.8 197.76,89.4 197.76,89.459 198.24,90.12 198.3,90.12 198.66,90.84 198.66,90.9 198.84,91.56 198.84,91.62 198.96,92.34 
	"/>
<polyline points="175.62,97.62 176.7,98.04 176.64,97.98 177.84,98.34 179.04,98.64 180.359,98.88 181.74,99.06 183.12,99.18 
	183.06,99.18 186,99.18 187.38,99.06 188.76,98.88 190.02,98.64 189.96,98.64 191.22,98.34 192.359,97.98 193.5,97.56 193.5,97.62 
	194.46,97.2 194.399,97.2 195.359,96.66 196.14,96.12 196.859,95.58 196.8,95.64 197.399,94.98 197.88,94.32 198.24,93.66 
	198.18,93.72 198.359,93 198.359,93.06 198.479,92.34 198.479,92.4 198.96,92.34 198.96,92.4 198.84,93.12 198.66,93.84 
	198.66,93.9 198.3,94.56 198.24,94.62 197.76,95.28 197.16,95.94 196.439,96.48 196.439,96.54 195.66,97.08 195.6,97.08 
	194.64,97.62 193.68,98.04 192.54,98.459 192.479,98.459 191.34,98.82 190.08,99.12 188.819,99.36 187.439,99.54 186.06,99.66 
	183.06,99.66 181.68,99.54 180.3,99.36 178.979,99.12 178.92,99.12 177.72,98.82 176.52,98.459 175.439,98.04 "/>
<text transform="matrix(1 0 0 1 190.2002 80.0405)"><tspan x="0" y="0" style="font-family:'ProductusBook'; font-size:7.98;">o</tspan><tspan x="3.838" y="0" style="font-family:'ProductusBook'; font-size:7.98;">=</tspan><tspan x="7.621" y="0" style="font-family:'ProductusBook'; font-size:7.98;">A</tspan><tspan x="11.467" y="0" style="font-family:'ProductusBook'; font-size:7.98;">C</tspan><tspan x="15.904" y="0" style="font-family:'ProductusBook'; font-size:7.98;">M</tspan><tspan x="21.785" y="0" style="font-family:'ProductusBook'; font-size:7.98;">E</tspan></text>
<rect x="184.26" y="99.18" width="0.48" height="14.7"/>
<text transform="matrix(1 0 0 1 190.2002 109.1401)"><tspan x="0" y="0" style="font-family:'ProductusBook'; font-size:7.98;">c</tspan><tspan x="3.12" y="0" style="font-family:'ProductusBook'; font-size:7.98;">n</tspan><tspan x="6.783" y="0" style="font-family:'ProductusBook'; font-size:7.98;">=</tspan><tspan x="10.605" y="0" style="font-family:'ProductusBook'; font-size:7.98;">B</tspan><tspan x="14.148" y="0" style="font-family:'ProductusBook'; font-size:7.98;">ug</tspan><tspan x="21.37" y="0" style="font-family:'ProductusBook'; font-size:7.98;">s</tspan></text>
<polyline style="fill-rule:evenodd;clip-rule:evenodd;fill:#E6E6E6;" points="163.26,64.02 163.2,63.3 162.96,62.58 162.6,61.92 
	162.12,61.26 161.58,60.66 160.859,60.06 160.02,59.52 159.12,58.98 158.1,58.56 157.02,58.14 155.819,57.78 154.62,57.48 
	153.3,57.24 151.92,57.06 150.54,56.94 147.66,56.94 146.22,57.06 144.899,57.24 143.58,57.48 142.319,57.78 141.18,58.14 
	140.1,58.56 139.08,58.98 138.18,59.52 137.34,60.06 136.62,60.66 136.02,61.26 135.54,61.92 135.18,62.58 135,63.3 134.939,64.02 
	135,64.74 135.18,65.459 135.54,66.12 136.02,66.78 136.62,67.38 137.34,67.98 138.18,68.52 139.08,69 140.1,69.48 141.18,69.9 
	142.319,70.26 143.58,70.56 144.899,70.8 146.22,70.98 149.1,71.1 150.54,71.04 151.92,70.98 153.3,70.8 154.62,70.56 
	155.819,70.26 157.02,69.9 158.1,69.48 159.12,69 160.02,68.52 160.859,67.98 161.58,67.38 162.12,66.78 162.6,66.12 162.96,65.459 
	163.2,64.74 163.26,64.02 "/>
<polyline points="163.02,64.08 162.96,63.36 162.96,63.42 162.72,62.7 162.779,62.7 162.42,62.04 162.42,62.1 161.939,61.44 
	161.399,60.84 161.46,60.84 160.74,60.24 160.74,60.3 159.899,59.76 159,59.22 159.06,59.22 158.04,58.8 156.96,58.38 155.76,58.02 
	154.56,57.72 154.62,57.72 153.3,57.48 151.92,57.3 150.54,57.18 147.66,57.18 147.72,57.18 146.279,57.3 144.96,57.48 
	143.64,57.72 142.38,58.02 141.24,58.38 141.3,58.38 140.22,58.8 139.2,59.22 138.3,59.76 137.46,60.3 137.52,60.24 136.8,60.84 
	136.2,61.44 135.72,62.1 135.779,62.04 135.42,62.7 135.42,62.64 135.24,63.36 135.18,64.08 135.18,64.02 135.24,64.74 
	135.24,64.68 135.42,65.4 135.42,65.34 135.779,66 135.72,66 136.2,66.66 136.2,66.6 136.8,67.2 137.52,67.8 137.46,67.8 
	138.3,68.34 139.2,68.82 140.22,69.3 140.04,69.72 139.02,69.24 138.96,69.24 138.06,68.76 137.22,68.22 137.22,68.16 136.5,67.56 
	136.439,67.56 135.84,66.959 135.359,66.3 135.359,66.24 135,65.58 134.939,65.52 134.76,64.8 134.7,64.08 134.7,64.02 134.76,63.3 
	134.76,63.24 134.939,62.52 135,62.459 135.359,61.8 135.84,61.14 135.84,61.08 136.439,60.48 136.5,60.48 137.22,59.88 
	138.06,59.34 138.96,58.8 139.02,58.8 140.04,58.38 141.12,57.959 141.12,57.9 142.26,57.54 143.52,57.24 143.58,57.24 144.899,57 
	146.22,56.82 147.66,56.7 150.6,56.7 151.979,56.82 153.359,57 154.68,57.24 155.88,57.54 157.08,57.9 157.14,57.959 158.22,58.38 
	159.24,58.8 160.14,59.34 160.979,59.88 161.04,59.88 161.76,60.48 161.76,60.54 162.3,61.14 162.779,61.8 162.84,61.8 
	163.2,62.459 163.2,62.52 163.439,63.24 163.439,63.3 163.5,64.02 "/>
<polyline points="140.22,69.3 141.3,69.72 141.24,69.66 142.38,70.02 143.64,70.32 144.96,70.56 146.279,70.74 146.22,70.74 
	149.1,70.86 150.54,70.8 151.92,70.74 153.3,70.56 154.62,70.32 154.56,70.32 155.76,70.02 156.96,69.66 156.96,69.72 158.04,69.3 
	159.06,68.82 159,68.82 159.899,68.34 160.74,67.8 161.46,67.2 161.399,67.26 161.939,66.66 162.42,66 162.779,65.34 162.72,65.4 
	162.96,64.68 162.96,64.74 163.02,64.02 163.02,64.08 163.5,64.02 163.5,64.08 163.439,64.8 163.439,64.86 163.2,65.58 
	162.84,66.24 162.779,66.3 162.3,66.959 161.76,67.56 161.04,68.16 160.979,68.22 160.14,68.76 159.24,69.24 158.22,69.72 
	157.14,70.14 157.08,70.14 155.88,70.5 154.68,70.8 153.359,71.04 151.979,71.22 151.92,71.22 150.54,71.28 149.1,71.34 
	146.22,71.22 144.899,71.04 143.58,70.8 143.52,70.8 142.26,70.5 141.12,70.14 140.04,69.72 "/>
<polyline style="fill-rule:evenodd;clip-rule:evenodd;fill:#E6E6E6;" points="134.939,92.34 134.819,91.62 134.64,90.959 
	134.279,90.24 133.8,89.58 133.2,88.98 132.479,88.38 131.7,87.84 129.779,86.88 128.64,86.459 127.5,86.1 126.24,85.8 
	124.979,85.62 123.6,85.44 122.22,85.32 120.72,85.26 119.279,85.32 117.899,85.44 116.52,85.62 115.2,85.8 114,86.1 112.8,86.459 
	111.72,86.88 110.7,87.36 109.8,87.84 108.96,88.38 108.3,88.98 107.7,89.58 107.22,90.24 106.859,90.959 106.62,91.62 
	106.56,92.34 106.62,93.06 106.859,93.78 107.22,94.44 107.7,95.1 108.3,95.76 108.96,96.3 109.8,96.84 110.7,97.38 111.72,97.8 
	112.8,98.22 114,98.58 115.2,98.88 116.52,99.12 117.899,99.3 119.279,99.42 122.22,99.42 123.6,99.3 124.979,99.12 126.24,98.88 
	127.5,98.58 128.64,98.22 129.779,97.8 130.74,97.38 131.7,96.84 132.479,96.3 133.2,95.76 133.8,95.1 134.279,94.44 134.64,93.78 
	134.819,93.06 134.939,92.34 "/>
<polyline points="134.7,92.4 134.58,91.68 134.399,91.02 134.46,91.08 134.1,90.36 134.1,90.42 133.62,89.76 133.02,89.16 
	133.08,89.16 132.359,88.56 132.359,88.62 131.58,88.08 129.66,87.12 129.72,87.12 128.58,86.7 127.439,86.34 126.18,86.04 
	126.24,86.04 124.979,85.86 123.6,85.68 122.22,85.56 120.72,85.5 119.279,85.56 119.34,85.56 117.96,85.68 116.58,85.86 
	115.26,86.04 114.06,86.34 112.859,86.7 112.92,86.7 111.84,87.12 110.819,87.6 109.92,88.08 109.08,88.62 109.14,88.56 
	108.479,89.16 107.88,89.76 107.399,90.42 107.46,90.36 107.1,91.08 106.859,91.74 106.859,91.68 106.8,92.4 106.8,92.34 
	106.859,93.06 106.859,93 107.1,93.72 107.1,93.66 107.46,94.32 107.399,94.32 107.88,94.98 108.479,95.64 108.479,95.58 
	109.14,96.12 109.08,96.12 109.92,96.66 110.819,97.2 111.84,97.62 111.66,98.04 110.64,97.62 110.58,97.62 109.68,97.08 
	108.84,96.54 108.84,96.48 108.18,95.94 108.12,95.94 107.52,95.28 107.04,94.62 107.04,94.56 106.68,93.9 106.62,93.9 
	106.38,93.18 106.38,93.12 106.319,92.4 106.319,92.34 106.38,91.62 106.38,91.56 106.62,90.9 106.68,90.84 107.04,90.12 
	107.52,89.459 107.52,89.4 108.12,88.8 108.18,88.8 108.84,88.2 109.68,87.66 110.58,87.18 110.64,87.18 111.66,86.7 112.74,86.28 
	112.74,86.22 113.939,85.86 115.14,85.56 115.2,85.56 116.52,85.38 117.899,85.2 119.279,85.08 120.72,85.02 122.22,85.08 
	122.279,85.08 123.66,85.2 125.04,85.38 126.3,85.56 127.56,85.86 128.7,86.22 128.76,86.22 129.899,86.64 129.899,86.7 
	131.819,87.66 131.88,87.66 132.66,88.2 133.38,88.8 133.979,89.4 133.979,89.459 134.46,90.12 134.52,90.12 134.88,90.84 
	134.88,90.9 135.06,91.56 135.06,91.62 135.18,92.34 "/>
<polyline points="111.84,97.62 112.92,98.04 112.859,97.98 114.06,98.34 115.26,98.64 116.58,98.88 117.96,99.06 119.34,99.18 
	119.279,99.18 122.22,99.18 123.6,99.06 124.979,98.88 126.24,98.64 126.18,98.64 127.439,98.34 128.58,97.98 129.72,97.56 
	129.72,97.62 130.68,97.2 130.62,97.2 131.58,96.66 132.359,96.12 133.08,95.58 133.02,95.64 133.62,94.98 134.1,94.32 
	134.46,93.66 134.399,93.72 134.58,93 134.58,93.06 134.7,92.34 134.7,92.4 135.18,92.34 135.18,92.4 135.06,93.12 134.88,93.84 
	134.88,93.9 134.52,94.56 134.46,94.62 133.979,95.28 133.38,95.94 132.66,96.48 132.66,96.54 131.88,97.08 131.819,97.08 
	130.859,97.62 129.899,98.04 128.76,98.459 128.7,98.459 127.56,98.82 126.3,99.12 125.04,99.36 123.66,99.54 122.279,99.66 
	119.279,99.66 117.899,99.54 116.52,99.36 115.2,99.12 115.14,99.12 113.939,98.82 112.74,98.459 111.66,98.04 "/>
<text transform="matrix(1 0 0 1 178.0195 36.8999)"><tspan x="0" y="0" style="font-family:'ProductusBook'; font-size:7.98;">R</tspan><tspan x="3.424" y="0" style="font-family:'ProductusBook'; font-size:7.98;">oot</tspan></text>
<text transform="matrix(1 0 0 1 180.2998 66.6001)"><tspan x="0" y="0" style="font-family:'ProductusBook'; font-size:7.98;">U</tspan><tspan x="4.62" y="0" style="font-family:'ProductusBook'; font-size:7.98;">S</tspan></text>
<text transform="matrix(1 0 0 1 175.9795 94.0796)"><tspan x="0" y="0" style="font-family:'ProductusBook'; font-size:7.98;">A</tspan><tspan x="3.847" y="0" style="font-family:'ProductusBook'; font-size:7.98;">C</tspan><tspan x="8.283" y="0" style="font-family:'ProductusBook'; font-size:7.98;">M</tspan><tspan x="14.164" y="0" style="font-family:'ProductusBook'; font-size:7.98;">E</tspan></text>
<polyline style="fill-rule:evenodd;clip-rule:evenodd;fill:#E6E6E6;" points="198.72,120.72 198.6,120 198.42,119.28 198.06,118.62 
	197.58,117.959 196.979,117.3 196.26,116.76 195.479,116.22 194.52,115.68 193.56,115.26 192.42,114.84 191.279,114.48 
	190.02,114.18 188.76,113.94 187.38,113.76 186,113.64 183.06,113.64 181.68,113.76 180.3,113.94 178.979,114.18 177.779,114.48 
	176.58,114.84 175.5,115.26 174.479,115.68 173.58,116.22 172.8,116.76 172.08,117.3 171.479,117.959 171,118.62 170.64,119.28 
	170.399,120 170.34,120.72 170.399,121.44 170.64,122.16 171,122.82 171.479,123.48 172.08,124.08 172.8,124.68 173.58,125.22 
	174.479,125.7 175.5,126.18 176.58,126.6 177.779,126.959 178.979,127.26 180.3,127.5 183.06,127.74 184.5,127.8 186,127.74 
	188.76,127.5 190.02,127.26 191.279,126.959 192.42,126.6 193.56,126.18 195.479,125.22 196.26,124.68 196.979,124.08 
	197.58,123.48 198.06,122.82 198.42,122.16 198.6,121.44 198.72,120.72 "/>
<polyline points="198.479,120.78 198.359,120.06 198.18,119.34 198.24,119.4 197.88,118.74 197.88,118.8 197.399,118.14 
	196.8,117.48 196.859,117.48 196.14,116.94 196.14,117 195.359,116.459 194.399,115.92 194.46,115.92 193.5,115.5 192.359,115.08 
	191.22,114.72 189.96,114.42 190.02,114.42 188.76,114.18 187.38,114 186,113.88 183.06,113.88 183.12,113.88 181.74,114 
	180.359,114.18 179.04,114.42 177.84,114.72 176.64,115.08 176.7,115.08 175.62,115.5 174.6,115.92 173.7,116.459 173.76,116.459 
	172.979,117 172.979,116.94 172.26,117.48 171.66,118.14 171.18,118.8 171.24,118.74 170.88,119.4 170.64,120.12 170.64,120.06 
	170.58,120.78 170.58,120.72 170.64,121.44 170.64,121.38 170.88,122.1 170.88,122.04 171.24,122.7 171.18,122.7 171.66,123.36 
	171.66,123.3 172.26,123.9 172.979,124.5 173.76,125.04 173.7,125.04 174.6,125.52 175.62,126 175.439,126.42 174.42,125.94 
	174.359,125.94 173.46,125.459 172.68,124.92 172.68,124.86 171.96,124.26 171.899,124.26 171.3,123.66 170.819,123 170.819,122.94 
	170.46,122.28 170.399,122.28 170.16,121.56 170.16,121.5 170.1,120.78 170.1,120.72 170.16,120 170.16,119.94 170.399,119.22 
	170.46,119.16 170.819,118.5 171.3,117.84 171.899,117.18 171.96,117.12 172.68,116.58 173.46,116.04 174.359,115.5 174.42,115.5 
	175.439,115.08 176.52,114.66 176.52,114.6 177.72,114.24 178.92,113.94 178.979,113.94 180.3,113.7 181.68,113.52 183.06,113.4 
	186.06,113.4 187.439,113.52 188.819,113.7 190.08,113.94 191.34,114.24 192.479,114.6 192.54,114.6 193.68,115.02 193.68,115.08 
	194.64,115.5 195.6,116.04 195.66,116.04 196.439,116.58 197.16,117.12 197.16,117.18 197.76,117.84 198.24,118.5 198.3,118.5 
	198.66,119.16 198.66,119.22 198.84,119.94 198.84,120 198.96,120.72 "/>
<polyline points="175.62,126 176.7,126.42 176.64,126.36 177.84,126.72 179.04,127.02 180.359,127.26 181.74,127.38 183.12,127.5 
	183.06,127.5 184.5,127.56 186,127.5 187.38,127.38 188.76,127.26 190.02,127.02 189.96,127.02 191.22,126.72 192.359,126.36 
	193.5,125.94 193.439,126 195.359,125.04 196.14,124.5 196.859,123.9 196.8,123.9 197.399,123.3 197.399,123.36 197.88,122.7 
	198.24,122.04 198.18,122.1 198.359,121.38 198.359,121.44 198.479,120.72 198.479,120.78 198.96,120.72 198.96,120.78 
	198.84,121.5 198.66,122.22 198.66,122.28 198.3,122.94 198.24,123 197.76,123.66 197.16,124.26 196.439,124.86 196.439,124.92 
	195.66,125.459 195.6,125.459 193.68,126.42 192.54,126.84 192.479,126.84 191.34,127.2 190.08,127.5 188.819,127.74 
	187.439,127.86 186.06,127.98 186,127.98 184.5,128.04 183.06,127.98 181.68,127.86 180.3,127.74 178.979,127.5 178.92,127.5 
	177.72,127.2 176.52,126.84 175.439,126.42 "/>
<text transform="matrix(1 0 0 1 145.6797 66.6001)"><tspan x="0" y="0" style="font-family:'ProductusBook'; font-size:7.98;">F</tspan><tspan x="3.12" y="0" style="font-family:'ProductusBook'; font-size:7.98;">R</tspan></text>
<text transform="matrix(1 0 0 1 111.2393 94.7397)"><tspan x="0" y="0" style="font-family:'ProductusBook'; font-size:7.98;">O</tspan><tspan x="5.339" y="0" style="font-family:'ProductusBook'; font-size:7.98;">b</tspan><tspan x="9.057" y="0" style="font-family:'ProductusBook'; font-size:7.98;">eli</tspan><tspan x="15.664" y="0" style="font-family:'ProductusBook'; font-size:7.98;">x</tspan></text>
<text transform="matrix(1 0 0 1 178.1396 122.5796)"><tspan x="0" y="0" style="font-family:'ProductusBook'; font-size:7.98;">B</tspan><tspan x="3.559" y="0" style="font-family:'ProductusBook'; font-size:7.98;">u</tspan><tspan x="7.277" y="0" style="font-family:'ProductusBook'; font-size:7.98;">g</tspan><tspan x="10.749" y="0" style="font-family:'ProductusBook'; font-size:7.98;">s</tspan></text>
<rect x="2.64" y="1.98" width="54.3" height="26.58"/>
<rect x="2.64" y="1.74" width="54.54" height="0.48"/>
<rect x="56.7" y="1.98" width="0.48" height="26.82"/>
<rect x="2.4" y="28.32" width="54.54" height="0.48"/>
<rect x="2.4" y="1.74" width="0.48" height="26.82"/>
<rect x="0.24" y="0.24" style="fill:#FFFFFF;" width="54.36" height="26.58"/>
<rect x="0.24" width="54.6" height="0.48"/>
<rect x="54.36" y="0.24" width="0.48" height="26.82"/>
<rect y="26.58" width="54.6" height="0.48"/>
<rect width="0.48" height="26.82"/>
<text transform="matrix(1 0 0 1 2.6396 7.3198)"><tspan x="0" y="0" style="font-family:'ProductusSemibold'; font-size:7.98;">R</tspan><tspan x="4.317" y="0" style="font-family:'ProductusSemibold'; font-size:7.98;">oo</tspan><tspan x="12.951" y="0" style="font-family:'ProductusSemibold'; font-size:7.98;">t</tspan></text>
<rect x="2.64" y="44.52" width="54.3" height="26.58"/>
<rect x="2.64" y="44.28" width="54.54" height="0.48"/>
<rect x="56.7" y="44.52" width="0.48" height="26.82"/>
<rect x="2.4" y="70.86" width="54.54" height="0.48"/>
<rect x="2.4" y="44.28" width="0.48" height="26.82"/>
<rect x="0.24" y="42.78" style="fill:#FFFFFF;" width="54.36" height="26.521"/>
<rect x="0.24" y="42.54" width="54.6" height="0.48"/>
<rect x="54.36" y="42.78" width="0.48" height="26.76"/>
<rect y="69.06" width="54.6" height="0.479"/>
<rect y="42.54" width="0.48" height="26.761"/>
<text transform="matrix(1 0 0 1 2.6396 49.8599)"><tspan x="0" y="0" style="font-family:'ProductusSemibold'; font-size:7.98;">C</tspan><tspan x="4.972" y="0" style="font-family:'ProductusSemibold'; font-size:7.98;"> </tspan><tspan x="6.951" y="0" style="font-family:'ProductusSemibold'; font-size:7.98;">=</tspan><tspan x="11.132" y="0" style="font-family:'ProductusSemibold'; font-size:7.98;"> </tspan><tspan x="13.111" y="0" style="font-family:'ProductusSemibold'; font-size:7.98;">C</tspan><tspan x="17.851" y="0" style="font-family:'ProductusSemibold'; font-size:7.98;">o</tspan><tspan x="22.168" y="0" style="font-family:'ProductusSemibold'; font-size:7.98;">u</tspan><tspan x="26.421" y="0" style="font-family:'ProductusSemibold'; font-size:7.98;">n</tspan><tspan x="30.738" y="0" style="font-family:'ProductusSemibold'; font-size:7.98;">tr</tspan><tspan x="36.891" y="0" style="font-family:'ProductusSemibold'; font-size:7.98;">y</tspan></text>
<rect x="2.64" y="87.06" width="54.3" height="26.58"/>
<rect x="2.64" y="86.82" width="54.54" height="0.48"/>
<rect x="56.7" y="87.06" width="0.48" height="26.82"/>
<rect x="2.4" y="113.4" width="54.54" height="0.48"/>
<rect x="2.4" y="86.82" width="0.48" height="26.82"/>
<rect x="0.24" y="85.26" style="fill:#FFFFFF;" width="54.36" height="26.58"/>
<rect x="0.24" y="85.02" width="54.6" height="0.479"/>
<rect x="54.36" y="85.26" width="0.48" height="26.819"/>
<rect y="111.6" width="54.6" height="0.479"/>
<rect y="85.02" width="0.48" height="26.82"/>
<text transform="matrix(1 0 0 1 2.6396 92.3999)"><tspan x="0" y="0" style="font-family:'ProductusSemibold'; font-size:7.98;">O</tspan><tspan x="5.801" y="0" style="font-family:'ProductusSemibold'; font-size:7.98;"> </tspan><tspan x="7.836" y="0" style="font-family:'ProductusSemibold'; font-size:7.98;">=</tspan><tspan x="11.994" y="0" style="font-family:'ProductusSemibold'; font-size:7.98;"> </tspan></text>
<text transform="matrix(1 0 0 1 2.6396 100.8608)"><tspan x="0" y="0" style="font-family:'ProductusSemibold'; font-size:7.98;">O</tspan><tspan x="5.777" y="0" style="font-family:'ProductusSemibold'; font-size:7.98;">r</tspan><tspan x="8.77" y="0" style="font-family:'ProductusSemibold'; font-size:7.98;">g</tspan><tspan x="12.768" y="0" style="font-family:'ProductusSemibold'; font-size:7.98;">a</tspan><tspan x="16.726" y="0" style="font-family:'ProductusSemibold'; font-size:7.98;">n</tspan><tspan x="20.971" y="0" style="font-family:'ProductusSemibold'; font-size:7.98;">i</tspan><tspan x="23.189" y="0" style="font-family:'ProductusSemibold'; font-size:7.98;">z</tspan><tspan x="26.924" y="0" style="font-family:'ProductusSemibold'; font-size:7.98;">a</tspan><tspan x="30.882" y="0" style="font-family:'ProductusSemibold'; font-size:7.98;">t</tspan><tspan x="34.002" y="0" style="font-family:'ProductusSemibold'; font-size:7.98;">i</tspan><tspan x="36.22" y="0" style="font-family:'ProductusSemibold'; font-size:7.98;">o</tspan><tspan x="40.521" y="0" style="font-family:'ProductusSemibold'; font-size:7.98;">n</tspan></text>
<rect x="2.64" y="87.06" width="54.3" height="26.58"/>
<rect x="2.64" y="86.82" width="54.54" height="0.48"/>
<rect x="56.7" y="87.06" width="0.48" height="26.82"/>
<rect x="2.4" y="113.4" width="54.54" height="0.48"/>
<rect x="2.4" y="86.82" width="0.48" height="26.82"/>
<rect x="0.24" y="85.26" style="fill:#FFFFFF;" width="54.36" height="26.58"/>
<rect x="0.24" y="85.02" width="54.6" height="0.479"/>
<rect x="54.36" y="85.26" width="0.48" height="26.819"/>
<rect y="111.6" width="54.6" height="0.479"/>
<rect y="85.02" width="0.48" height="26.82"/>
<text transform="matrix(1 0 0 1 2.6396 92.3999)"><tspan x="0" y="0" style="font-family:'ProductusSemibold'; font-size:7.98;">O</tspan><tspan x="5.801" y="0" style="font-family:'ProductusSemibold'; font-size:7.98;"> </tspan><tspan x="7.836" y="0" style="font-family:'ProductusSemibold'; font-size:7.98;">=</tspan><tspan x="11.994" y="0" style="font-family:'ProductusSemibold'; font-size:7.98;"> </tspan></text>
<text transform="matrix(1 0 0 1 2.6396 100.8608)"><tspan x="0" y="0" style="font-family:'ProductusSemibold'; font-size:7.98;">O</tspan><tspan x="5.777" y="0" style="font-family:'ProductusSemibold'; font-size:7.98;">r</tspan><tspan x="8.77" y="0" style="font-family:'ProductusSemibold'; font-size:7.98;">g</tspan><tspan x="12.768" y="0" style="font-family:'ProductusSemibold'; font-size:7.98;">a</tspan><tspan x="16.726" y="0" style="font-family:'ProductusSemibold'; font-size:7.98;">n</tspan><tspan x="20.971" y="0" style="font-family:'ProductusSemibold'; font-size:7.98;">i</tspan><tspan x="23.189" y="0" style="font-family:'ProductusSemibold'; font-size:7.98;">z</tspan><tspan x="26.924" y="0" style="font-family:'ProductusSemibold'; font-size:7.98;">a</tspan><tspan x="30.882" y="0" style="font-family:'ProductusSemibold'; font-size:7.98;">t</tspan><tspan x="34.002" y="0" style="font-family:'ProductusSemibold'; font-size:7.98;">i</tspan><tspan x="36.22" y="0" style="font-family:'ProductusSemibold'; font-size:7.98;">o</tspan><tspan x="40.521" y="0" style="font-family:'ProductusSemibold'; font-size:7.98;">n</tspan></text>
<rect x="2.64" y="129.54" width="54.3" height="26.58"/>
<rect x="2.64" y="129.3" width="54.54" height="0.479"/>
<rect x="56.7" y="129.54" width="0.48" height="26.82"/>
<rect x="2.4" y="155.88" width="54.54" height="0.479"/>
<rect x="2.4" y="129.3" width="0.48" height="26.819"/>
<rect x="0.24" y="127.8" style="fill:#FFFFFF;" width="54.36" height="26.58"/>
<rect x="0.24" y="127.56" width="54.6" height="0.479"/>
<rect x="54.36" y="127.8" width="0.48" height="26.819"/>
<rect y="154.14" width="54.6" height="0.479"/>
<rect y="127.56" width="0.48" height="26.82"/>
<text transform="matrix(1 0 0 1 2.6396 134.8804)"><tspan x="0" y="0" style="font-family:'ProductusSemibold'; font-size:7.98;">CN</tspan><tspan x="10.262" y="0" style="font-family:'ProductusSemibold'; font-size:7.98;"> </tspan><tspan x="11.826" y="0" style="font-family:'ProductusSemibold'; font-size:7.98;">=</tspan><tspan x="16.023" y="0" style="font-family:'ProductusSemibold'; font-size:7.98;"> </tspan><tspan x="17.588" y="0" style="font-family:'ProductusSemibold'; font-size:7.98;">C</tspan><tspan x="22.328" y="0" style="font-family:'ProductusSemibold'; font-size:7.98;">o</tspan><tspan x="26.645" y="0" style="font-family:'ProductusSemibold'; font-size:7.98;">mm</tspan><tspan x="39.365" y="0" style="font-family:'ProductusSemibold'; font-size:7.98;">o</tspan><tspan x="43.738" y="0" style="font-family:'ProductusSemibold'; font-size:7.98;">n</tspan><tspan x="48.007" y="0" style="font-family:'ProductusSemibold'; font-size:7.98;"> </tspan></text>
<text transform="matrix(1 0 0 1 2.6396 143.3999)"><tspan x="0" y="0" style="font-family:'ProductusSemibold'; font-size:7.98;">Nam</tspan><tspan x="15.648" y="0" style="font-family:'ProductusSemibold'; font-size:7.98;">e</tspan></text>
<rect x="28.38" y="28.32" width="0.48" height="0.24"/>
<rect x="28.38" y="28.56" width="0.48" height="14.46"/>
<rect x="28.38" y="70.86" width="0.48" height="0.24"/>
<rect x="28.38" y="71.1" width="0.48" height="14.399"/>
<rect x="28.38" y="113.4" width="0.48" height="0.24"/>
<rect x="28.38" y="113.64" width="0.48" height="14.399"/>
<text transform="matrix(1 0 0 1 24.3599 32.8804)" style="font-family:'ProductusBook'; font-size:7.98;">1</text>
<text transform="matrix(1 0 0 1 30.2393 40.8599)" style="font-family:'ProductusBook'; font-size:7.98;">*</text>
<text transform="matrix(1 0 0 1 24.2393 75.8403)" style="font-family:'ProductusBook'; font-size:7.98;">1</text>
<text transform="matrix(1 0 0 1 30.1191 83.8804)" style="font-family:'ProductusBook'; font-size:7.98;">*</text>
<text transform="matrix(1 0 0 1 24.3589 118.1401)" style="font-family:'ProductusBook'; font-size:7.98;">1</text>
<text transform="matrix(1 0 0 1 30.2388 126.1802)" style="font-family:'ProductusBook'; font-size:7.98;">*</text>
</svg>
