<?xml version="1.0" encoding="utf-8"?>
<!-- Generator: Adobe Illustrator 16.0.0, SVG Export Plug-In . SVG Version: 6.00 Build 0)  -->
<!DOCTYPE svg PUBLIC "-//W3C//DTD SVG 1.1//EN" "http://www.w3.org/Graphics/SVG/1.1/DTD/svg11.dtd">
<svg version="1.1" id="Layer_1" xmlns="http://www.w3.org/2000/svg" xmlns:xlink="http://www.w3.org/1999/xlink" x="0px" y="0px"
	 width="333.54px" height="149.399px" viewBox="0 0 333.54 149.399" style="enable-background:new 0 0 333.54 149.399;"
	 xml:space="preserve">
<rect x="0.24" y="20.34" style="fill:#FFFFFF;" width="63.78" height="93.36"/>
<rect x="0.24" y="20.1" width="64.02" height="0.48"/>
<rect x="63.78" y="20.34" width="0.48" height="93.6"/>
<rect y="113.46" width="64.02" height="0.479"/>
<rect y="20.1" width="0.48" height="93.601"/>
<text transform="matrix(1 0 0 1 7.3198 30.2402)"><tspan x="0" y="0" style="font-family:'ProductusBook'; font-size:7.98;">ME</tspan><tspan x="9.272" y="0" style="font-family:'ProductusBook'; font-size:7.98;">T</tspan><tspan x="12.696" y="0" style="font-family:'ProductusBook'; font-size:7.98;">A</tspan><tspan x="16.83" y="0" style="font-family:'ProductusBook'; font-size:7.98;">-</tspan><tspan x="19.535" y="0" style="font-family:'ProductusBook'; font-size:7.98;">I</tspan><tspan x="21.155" y="0" style="font-family:'ProductusBook'; font-size:7.98;">N</tspan><tspan x="25.855" y="0" style="font-family:'ProductusBook'; font-size:7.98;">F</tspan><tspan x="28.68" y="0" style="font-family:'ProductusBook'; font-size:7.98;">/</tspan></text>
<rect x="92.34" y="21.359" width="64.02" height="0.48"/>
<rect x="155.88" y="21.6" width="0.48" height="56.94"/>
<rect x="92.1" y="78.06" width="64.02" height="0.48"/>
<rect x="92.1" y="21.359" width="0.48" height="56.94"/>
<text transform="matrix(1 0 0 1 99.4199 92.7598)"><tspan x="0" y="0" style="font-family:'ProductusBook'; font-size:7.98;">M</tspan><tspan x="5.929" y="0" style="font-family:'ProductusBook'; font-size:7.98;">A</tspan><tspan x="10.015" y="0" style="font-family:'ProductusBook'; font-size:7.98;">NI</tspan><tspan x="16.391" y="0" style="font-family:'ProductusBook'; font-size:7.98;">F</tspan><tspan x="19.511" y="0" style="font-family:'ProductusBook'; font-size:7.98;">E</tspan><tspan x="22.878" y="0" style="font-family:'ProductusBook'; font-size:7.98;">S</tspan><tspan x="26.597" y="0" style="font-family:'ProductusBook'; font-size:7.98;">T</tspan><tspan x="29.9" y="0" style="font-family:'ProductusBook'; font-size:7.98;">.</tspan><tspan x="31.465" y="0" style="font-family:'ProductusBook'; font-size:7.98;">M</tspan><tspan x="37.394" y="0" style="font-family:'ProductusBook'; font-size:7.98;">F</tspan></text>
<text transform="matrix(1 0 0 1 7.3193 39.96)"><tspan x="0" y="0" style="font-family:'ProductusBook'; font-size:7.98;">.</tspan><tspan x="1.612" y="0" style="font-family:'ProductusBook'; font-size:7.98;">.</tspan><tspan x="3.176" y="0" style="font-family:'ProductusBook'; font-size:7.98;">. o</tspan><tspan x="10.198" y="0" style="font-family:'ProductusBook'; font-size:7.98;">t</tspan><tspan x="12.544" y="0" style="font-family:'ProductusBook'; font-size:7.98;">h</tspan><tspan x="16.239" y="0" style="font-family:'ProductusBook'; font-size:7.98;">e</tspan><tspan x="19.726" y="0" style="font-family:'ProductusBook'; font-size:7.98;">r</tspan><tspan x="22.008" y="0" style="font-family:'ProductusBook'; font-size:7.98;"> </tspan><tspan x="23.628" y="0" style="font-family:'ProductusBook'; font-size:7.98;">f</tspan><tspan x="25.551" y="0" style="font-family:'ProductusBook'; font-size:7.98;">ile</tspan><tspan x="32.23" y="0" style="font-family:'ProductusBook'; font-size:7.98;">s</tspan></text>
<polyline points="42.54,106.5 42.42,106.68 42.78,106.979 42.9,106.8 "/>
<polyline points="99.24,42.72 99.36,42.54 99.72,42.84 99.6,43.02 "/>
<polyline points="42.54,106.5 42.9,106.8 99.6,43.02 99.24,42.72 "/>
<polyline points="99.42,64.32 99.66,64.32 99.72,63.84 99.48,63.84 "/>
<polyline points="21.48,57.24 21.24,57.24 21.3,56.76 21.54,56.76 "/>
<polyline points="99.42,64.32 99.48,63.84 21.54,56.76 21.48,57.24 "/>
<rect x="97.92" y="34.26" width="52.62" height="3"/>
<rect x="97.92" y="48.42" width="52.62" height="3"/>
<rect x="97.92" y="55.5" width="52.62" height="3"/>
<rect x="97.92" y="27.18" width="52.62" height="3"/>
<rect x="97.92" y="62.58" width="52.62" height="3"/>
<rect x="97.92" y="41.34" width="1.5" height="3"/>
<rect x="99.42" y="41.34" width="51.12" height="3"/>
<polyline points="99.36,57.24 99.6,57.3 99.72,56.82 99.48,56.76 "/>
<polyline points="35.58,43.08 35.34,43.02 35.46,42.54 35.7,42.6 "/>
<polyline points="99.36,57.24 99.48,56.76 35.7,42.6 35.58,43.08 "/>
<polyline points="99.54,50.16 99.72,50.04 99.48,49.62 99.3,49.74 "/>
<polyline points="42.84,78.54 42.66,78.66 42.42,78.24 42.6,78.12 "/>
<polyline points="99.54,50.16 99.3,49.74 42.6,78.12 42.84,78.54 "/>
<rect x="97.92" y="69.66" width="52.62" height="3"/>
<polyline points="99.54,71.399 99.78,71.34 99.6,70.859 99.36,70.92 "/>
<polyline points="35.76,92.7 35.52,92.76 35.34,92.28 35.58,92.22 "/>
<polyline points="99.54,71.399 99.36,70.92 35.58,92.22 35.76,92.7 "/>
<rect x="184.5" y="0.06" width="64.02" height="0.48"/>
<rect x="248.04" y="0.3" width="0.479" height="56.94"/>
<rect x="184.26" y="56.76" width="64.021" height="0.48"/>
<rect x="184.26" y="0.06" width="0.48" height="56.94"/>
<rect x="190.08" y="5.88" width="52.56" height="3"/>
<rect x="184.5" y="70.92" width="64.02" height="0.479"/>
<rect x="248.04" y="71.16" width="0.479" height="56.939"/>
<rect x="184.26" y="127.62" width="64.021" height="0.479"/>
<rect x="184.26" y="70.92" width="0.48" height="56.939"/>
<rect x="190.08" y="83.88" width="52.56" height="3"/>
<text transform="matrix(1 0 0 1 208.3193 63.9004)"><tspan x="0" y="0" style="font-family:'ProductusBook'; font-size:7.98;">A</tspan><tspan x="3.847" y="0" style="font-family:'ProductusBook'; font-size:7.98;">C</tspan><tspan x="8.283" y="0" style="font-family:'ProductusBook'; font-size:7.98;">M</tspan><tspan x="14.164" y="0" style="font-family:'ProductusBook'; font-size:7.98;">E.S</tspan><tspan x="22.91" y="0" style="font-family:'ProductusBook'; font-size:7.98;">F</tspan></text>
<text transform="matrix(1 0 0 1 208.0791 134.04)"><tspan x="0" y="0" style="font-family:'ProductusBook'; font-size:7.98;">D</tspan><tspan x="4.685" y="0" style="font-family:'ProductusBook'; font-size:7.98;">A</tspan><tspan x="8.77" y="0" style="font-family:'ProductusBook'; font-size:7.98;">FF</tspan><tspan x="15.01" y="0" style="font-family:'ProductusBook'; font-size:7.98;">Y</tspan><tspan x="18.074" y="0" style="font-family:'ProductusBook'; font-size:7.98;">.S</tspan><tspan x="23.389" y="0" style="font-family:'ProductusBook'; font-size:7.98;">F</tspan></text>
<rect x="49.56" y="134.76" width="21.78" height="0.48"/>
<text transform="matrix(1 0 0 1 76.02 137.5801)"><tspan x="0" y="0" style="font-family:'ProductusBook'; font-size:7.98;">Di</tspan><tspan x="6.488" y="0" style="font-family:'ProductusBook'; font-size:7.98;">g</tspan><tspan x="9.855" y="0" style="font-family:'ProductusBook'; font-size:7.98;">e</tspan><tspan x="13.342" y="0" style="font-family:'ProductusBook'; font-size:7.98;">st</tspan><tspan x="18.553" y="0" style="font-family:'ProductusBook'; font-size:7.98;"> </tspan><tspan x="20.173" y="0" style="font-family:'ProductusBook'; font-size:7.98;">function</tspan><tspan x="44.121" y="0" style="font-family:'ProductusBook'; font-size:7.98;">s</tspan></text>
<rect x="48.3" y="124.979" width="24.3" height="3"/>
<text transform="matrix(1 0 0 1 76.02 128.1602)"><tspan x="0" y="0" style="font-family:'ProductusBook'; font-size:7.98;">M</tspan><tspan x="5.921" y="0" style="font-family:'ProductusBook'; font-size:7.98;">a</tspan><tspan x="9.225" y="0" style="font-family:'ProductusBook'; font-size:7.98;">n</tspan><tspan x="12.936" y="0" style="font-family:'ProductusBook'; font-size:7.98;">i</tspan><tspan x="14.5" y="0" style="font-family:'ProductusBook'; font-size:7.98;">f</tspan><tspan x="16.422" y="0" style="font-family:'ProductusBook'; font-size:7.98;">e</tspan><tspan x="19.958" y="0" style="font-family:'ProductusBook'; font-size:7.98;">s</tspan><tspan x="22.774" y="0" style="font-family:'ProductusBook'; font-size:7.98;">t</tspan><tspan x="25.168" y="0" style="font-family:'ProductusBook'; font-size:7.98;"> </tspan><tspan x="26.732" y="0" style="font-family:'ProductusBook'; font-size:7.98;">e</tspan><tspan x="30.268" y="0" style="font-family:'ProductusBook'; font-size:7.98;">n</tspan><tspan x="33.93" y="0" style="font-family:'ProductusBook'; font-size:7.98;">tr</tspan><tspan x="38.639" y="0" style="font-family:'ProductusBook'; font-size:7.98;">y</tspan></text>
<rect x="269.52" y="0.06" width="64.021" height="0.48"/>
<rect x="333.06" y="0.3" width="0.48" height="42.78"/>
<rect x="269.28" y="42.6" width="64.02" height="0.48"/>
<rect x="269.28" y="0.06" width="0.479" height="42.78"/>
<polyline points="276.54,7.62 276.78,7.68 276.899,7.2 276.66,7.14 "/>
<polyline points="248.22,0.54 247.979,0.479 248.1,0 248.34,0.06 "/>
<polyline points="276.54,7.62 276.66,7.14 248.34,0.06 248.22,0.54 "/>
<polyline points="276.78,28.859 276.96,28.68 276.6,28.32 276.42,28.5 "/>
<polyline points="248.46,57.18 248.28,57.359 247.92,57 248.1,56.82 "/>
<polyline points="276.78,28.859 276.42,28.5 248.1,56.82 248.46,57.18 "/>
<rect x="276.6" y="7.38" style="fill:#E6E6E6;" width="49.62" height="21.3"/>
<text transform="matrix(1 0 0 1 278.3994 36.96)"><tspan x="0" y="0" style="font-family:'ProductusBook'; font-size:7.98;">c</tspan><tspan x="3" y="0" style="font-family:'ProductusBook'; font-size:7.98;">e</tspan><tspan x="6.487" y="0" style="font-family:'ProductusBook'; font-size:7.98;">rti</tspan><tspan x="12.696" y="0" style="font-family:'ProductusBook'; font-size:7.98;">f</tspan><tspan x="14.619" y="0" style="font-family:'ProductusBook'; font-size:7.98;">icates</tspan></text>
<text transform="matrix(1 0 0 1 286.0195 14.8203)" style="font-family:'ProductusBook'; font-size:7.98;">signature</text>
<text transform="matrix(1 0 0 1 277.8594 24.54)"><tspan x="0" y="0" style="font-family:'ProductusBook'; font-size:7.98;">with</tspan><tspan x="12.808" y="0" style="font-family:'ProductusBook'; font-size:7.98;"> </tspan><tspan x="14.428" y="0" style="font-family:'ProductusBook'; font-size:7.98;">private</tspan><tspan x="34.417" y="0" style="font-family:'ProductusBook'; font-size:7.98;"> </tspan><tspan x="35.981" y="0" style="font-family:'ProductusBook'; font-size:7.98;">k</tspan><tspan x="39.109" y="0" style="font-family:'ProductusBook'; font-size:7.98;">e</tspan><tspan x="42.645" y="0" style="font-family:'ProductusBook'; font-size:7.98;">y</tspan></text>
<rect x="269.52" y="70.92" width="64.021" height="0.479"/>
<rect x="333.06" y="71.16" width="0.48" height="42.779"/>
<rect x="269.28" y="113.46" width="64.02" height="0.479"/>
<rect x="269.28" y="70.92" width="0.479" height="42.78"/>
<rect x="276.6" y="78.3" style="fill:#E6E6E6;" width="49.62" height="21.24"/>
<text transform="matrix(1 0 0 1 278.3994 107.8203)"><tspan x="0" y="0" style="font-family:'ProductusBook'; font-size:7.98;">c</tspan><tspan x="3" y="0" style="font-family:'ProductusBook'; font-size:7.98;">e</tspan><tspan x="6.487" y="0" style="font-family:'ProductusBook'; font-size:7.98;">rti</tspan><tspan x="12.696" y="0" style="font-family:'ProductusBook'; font-size:7.98;">f</tspan><tspan x="14.619" y="0" style="font-family:'ProductusBook'; font-size:7.98;">icates</tspan></text>
<text transform="matrix(1 0 0 1 286.0195 85.6807)" style="font-family:'ProductusBook'; font-size:7.98;">signature</text>
<text transform="matrix(1 0 0 1 277.8594 95.3994)"><tspan x="0" y="0" style="font-family:'ProductusBook'; font-size:7.98;">with</tspan><tspan x="12.808" y="0" style="font-family:'ProductusBook'; font-size:7.98;"> </tspan><tspan x="14.428" y="0" style="font-family:'ProductusBook'; font-size:7.98;">private</tspan><tspan x="34.417" y="0" style="font-family:'ProductusBook'; font-size:7.98;"> </tspan><tspan x="35.981" y="0" style="font-family:'ProductusBook'; font-size:7.98;">k</tspan><tspan x="39.109" y="0" style="font-family:'ProductusBook'; font-size:7.98;">e</tspan><tspan x="42.645" y="0" style="font-family:'ProductusBook'; font-size:7.98;">y</tspan></text>
<polyline points="276.54,78.54 276.78,78.6 276.899,78.12 276.66,78.06 "/>
<polyline points="248.22,71.399 247.979,71.34 248.1,70.859 248.34,70.92 "/>
<polyline points="276.54,78.54 276.66,78.06 248.34,70.92 248.22,71.399 "/>
<polyline points="276.78,99.72 276.96,99.54 276.6,99.18 276.42,99.359 "/>
<polyline points="248.46,128.04 248.28,128.22 247.92,127.859 248.1,127.68 "/>
<polyline points="276.78,99.72 276.42,99.359 248.1,127.68 248.46,128.04 "/>
<text transform="matrix(1 0 0 1 283.7402 54.6602)"><tspan x="0" y="0" style="font-family:'ProductusBook'; font-size:7.98;">A</tspan><tspan x="3.847" y="0" style="font-family:'ProductusBook'; font-size:7.98;">C</tspan><tspan x="8.283" y="0" style="font-family:'ProductusBook'; font-size:7.98;">M</tspan><tspan x="14.164" y="0" style="font-family:'ProductusBook'; font-size:7.98;">E.</tspan><tspan x="19.191" y="0" style="font-family:'ProductusBook'; font-size:7.98;">R</tspan><tspan x="22.791" y="0" style="font-family:'ProductusBook'; font-size:7.98;">S</tspan><tspan x="26.509" y="0" style="font-family:'ProductusBook'; font-size:7.98;">A</tspan></text>
<text transform="matrix(1 0 0 1 289.9199 125.5195)"><tspan x="0" y="0" style="font-family:'ProductusBook'; font-size:7.98;">D</tspan><tspan x="4.685" y="0" style="font-family:'ProductusBook'; font-size:7.98;">A</tspan><tspan x="8.77" y="0" style="font-family:'ProductusBook'; font-size:7.98;">FF</tspan><tspan x="15.01" y="0" style="font-family:'ProductusBook'; font-size:7.98;">Y</tspan><tspan x="18.074" y="0" style="font-family:'ProductusBook'; font-size:7.98;">.</tspan><tspan x="19.679" y="0" style="font-family:'ProductusBook'; font-size:7.98;">D</tspan><tspan x="24.482" y="0" style="font-family:'ProductusBook'; font-size:7.98;">S</tspan><tspan x="28.193" y="0" style="font-family:'ProductusBook'; font-size:7.98;">A</tspan></text>
<polyline points="156.06,21.42 155.88,21.479 156.06,21.899 156.24,21.84 "/>
<polyline points="191.52,7.2 191.7,7.14 191.88,7.56 191.7,7.62 "/>
<polyline points="156.06,21.42 156.24,21.84 191.7,7.62 191.52,7.2 "/>
<polyline points="191.819,7.5 191.939,7.32 191.52,7.08 191.399,7.26 "/>
<polyline points="156.36,78.42 156.24,78.6 155.82,78.359 155.94,78.18 "/>
<polyline points="191.819,7.5 191.399,7.26 155.94,78.18 156.36,78.42 "/>
<polyline points="156.36,21.479 156.24,21.3 155.82,21.54 155.94,21.72 "/>
<polyline points="191.819,85.26 191.939,85.439 191.52,85.68 191.399,85.5 "/>
<polyline points="156.36,21.479 155.94,21.72 191.399,85.5 191.819,85.26 "/>
<polyline points="191.52,85.62 191.76,85.68 191.88,85.2 191.64,85.14 "/>
<polyline points="156.06,78.54 155.82,78.479 155.94,78 156.18,78.06 "/>
<polyline points="191.52,85.62 191.64,85.14 156.18,78.06 156.06,78.54 "/>
<rect x="7.32" y="42.84" style="fill:#FFFFFF;" width="42.48" height="7.08"/>
<rect x="7.32" y="42.6" width="42.72" height="0.48"/>
<rect x="49.56" y="42.84" width="0.48" height="7.32"/>
<rect x="7.08" y="49.68" width="42.72" height="0.48"/>
<rect x="7.08" y="42.6" width="0.48" height="7.32"/>
<rect x="7.32" y="57" style="fill:#FFFFFF;" width="42.48" height="7.08"/>
<rect x="7.32" y="56.76" width="42.72" height="0.48"/>
<rect x="49.56" y="57" width="0.48" height="7.32"/>
<rect x="7.08" y="63.84" width="42.72" height="0.48"/>
<rect x="7.08" y="56.76" width="0.48" height="7.32"/>
<rect x="7.32" y="71.16" style="fill:#FFFFFF;" width="42.48" height="7.14"/>
<rect x="7.32" y="70.92" width="42.72" height="0.479"/>
<rect x="49.56" y="71.16" width="0.48" height="7.38"/>
<rect x="7.08" y="78.06" width="42.72" height="0.48"/>
<rect x="7.08" y="70.92" width="0.48" height="7.38"/>
<rect x="7.32" y="85.38" style="fill:#FFFFFF;" width="42.48" height="7.08"/>
<rect x="7.32" y="85.14" width="42.72" height="0.48"/>
<rect x="49.56" y="85.38" width="0.48" height="7.32"/>
<rect x="7.08" y="92.22" width="42.72" height="0.48"/>
<rect x="7.08" y="85.14" width="0.48" height="7.32"/>
<rect x="7.32" y="99.54" style="fill:#FFFFFF;" width="42.48" height="7.08"/>
<rect x="7.32" y="99.3" width="42.72" height="0.48"/>
<rect x="49.56" y="99.54" width="0.48" height="7.319"/>
<rect x="7.08" y="106.38" width="42.72" height="0.479"/>
<rect x="7.08" y="99.3" width="0.48" height="7.32"/>
<rect x="49.8" y="142.08" style="fill:#FFFFFF;" width="21.3" height="7.08"/>
<rect x="49.8" y="141.84" width="21.54" height="0.48"/>
<rect x="70.86" y="142.08" width="0.48" height="7.319"/>
<rect x="49.56" y="148.92" width="21.54" height="0.479"/>
<rect x="49.56" y="141.84" width="0.48" height="7.32"/>
<text transform="matrix(1 0 0 1 76.02 146.8203)"><tspan x="0" y="0" style="font-family:'ProductusBook'; font-size:7.98;">R</tspan><tspan x="3.423" y="0" style="font-family:'ProductusBook'; font-size:7.98;">e</tspan><tspan x="6.958" y="0" style="font-family:'ProductusBook'; font-size:7.98;">so</tspan><tspan x="13.558" y="0" style="font-family:'ProductusBook'; font-size:7.98;">u</tspan><tspan x="17.221" y="0" style="font-family:'ProductusBook'; font-size:7.98;">r</tspan><tspan x="19.495" y="0" style="font-family:'ProductusBook'; font-size:7.98;">c</tspan><tspan x="22.496" y="0" style="font-family:'ProductusBook'; font-size:7.98;">e</tspan></text>
</svg>
