<?xml version="1.0" encoding="utf-8"?>
<!-- Generator: Adobe Illustrator 16.0.1, SVG Export Plug-In . SVG Version: 6.00 Build 0)  -->
<!DOCTYPE svg PUBLIC "-//W3C//DTD SVG 1.1//EN" "http://www.w3.org/Graphics/SVG/1.1/DTD/svg11.dtd">
<svg version="1.1" id="Layer_1" xmlns="http://www.w3.org/2000/svg" xmlns:xlink="http://www.w3.org/1999/xlink" x="0px" y="0px"
	 width="212.852px" height="128.539px" viewBox="0 0 212.852 128.539" enable-background="new 0 0 212.852 128.539"
	 xml:space="preserve">
<rect x="170.1" y="85.998" fill="#B3B3B3" width="42.54" height="42.541"/>
<rect x="0" y="85.998" fill="#B3B3B3" width="42.54" height="42.541"/>
<rect x="85.29" y="8.867" fill="#B3B3B3" width="42.54" height="42.54"/>
<text transform="matrix(1 0 0 1 175.4695 6.647)" font-family="'ProductusSemibold'" font-size="7.98">Host B</text>
<text transform="matrix(1 0 0 1 92.3704 6.647)" font-family="'ProductusSemibold'" font-size="7.98">Fragment</text>
<polyline points="113.67,30.107 113.61,29.388 113.49,28.668 113.311,28.008 113.07,27.348 112.771,26.747 112.41,26.147 
	112.05,25.607 111.09,24.647 110.49,24.228 109.95,23.867 109.29,23.567 108.69,23.327 107.25,23.088 106.53,23.027 105.811,23.088 
	105.15,23.207 104.43,23.327 103.771,23.567 103.17,23.867 102.57,24.228 102.03,24.647 101.07,25.607 100.65,26.147 100.05,27.348 
	99.811,28.008 99.63,28.668 99.51,29.388 99.45,30.107 99.51,30.827 99.63,31.548 99.811,32.207 100.05,32.867 100.351,33.527 
	100.65,34.067 101.07,34.607 101.55,35.147 102.03,35.567 102.57,35.987 103.17,36.348 103.771,36.647 104.43,36.888 105.15,37.067 
	105.811,37.188 107.25,37.188 107.97,37.067 108.69,36.888 109.29,36.647 109.95,36.348 110.49,35.987 111.09,35.567 111.57,35.147 
	112.05,34.607 112.771,33.527 113.07,32.867 113.311,32.207 113.49,31.548 113.61,30.827 113.67,30.107 "/>
<polyline points="113.43,30.168 113.37,29.447 113.25,28.728 113.07,28.067 113.07,28.128 112.83,27.468 112.891,27.468 
	112.59,26.867 112.23,26.268 111.87,25.728 111.87,25.787 110.91,24.827 110.97,24.888 110.37,24.468 109.83,24.107 109.891,24.107 
	109.23,23.808 108.63,23.567 108.69,23.567 107.97,23.447 107.25,23.327 106.53,23.268 106.59,23.268 105.87,23.327 105.21,23.447 
	104.49,23.567 104.55,23.567 103.891,23.808 103.29,24.107 102.69,24.468 102.75,24.407 102.21,24.827 101.25,25.787 100.83,26.327 
	100.891,26.268 100.29,27.468 100.05,28.128 100.05,28.067 99.87,28.728 99.75,29.447 99.69,30.168 99.69,30.107 99.75,30.827 
	99.87,31.548 99.87,31.487 100.05,32.147 100.29,32.808 100.59,33.468 100.59,33.407 100.891,33.947 100.83,33.947 101.25,34.487 
	101.73,35.027 101.73,34.968 102.21,35.388 101.91,35.747 101.43,35.327 101.37,35.327 100.891,34.787 100.47,34.247 100.47,34.188 
	100.17,33.647 99.87,32.987 99.811,32.987 99.57,32.327 99.57,32.268 99.391,31.607 99.271,30.888 99.21,30.168 99.21,30.107 
	99.271,29.388 99.391,28.668 99.391,28.607 99.57,27.947 99.811,27.287 99.87,27.228 100.47,26.027 100.891,25.487 100.891,25.428 
	101.851,24.468 101.91,24.468 102.45,24.048 103.05,23.688 103.65,23.388 103.71,23.327 104.37,23.088 104.43,23.088 105.15,22.968 
	105.811,22.848 106.53,22.787 106.59,22.787 107.311,22.848 108.03,22.968 108.75,23.088 108.811,23.147 109.41,23.388 
	110.07,23.688 110.61,24.048 110.67,24.048 111.271,24.468 112.29,25.487 112.65,26.027 113.01,26.628 113.311,27.228 
	113.311,27.287 113.55,27.947 113.73,28.607 113.73,28.668 113.851,29.388 113.91,30.107 "/>
<polyline points="102.21,35.388 102.75,35.808 102.69,35.808 103.29,36.168 103.891,36.468 103.891,36.407 104.55,36.647 
	104.49,36.647 105.21,36.827 105.87,36.947 105.811,36.947 107.25,36.947 107.97,36.827 107.91,36.827 108.63,36.647 108.63,36.707 
	109.23,36.468 109.891,36.168 109.83,36.168 110.37,35.808 110.97,35.388 111.45,34.968 111.391,35.027 111.87,34.487 
	112.59,33.407 112.59,33.468 112.891,32.808 112.83,32.808 113.07,32.147 113.25,31.487 113.25,31.548 113.37,30.827 113.43,30.107 
	113.43,30.168 113.91,30.107 113.91,30.168 113.851,30.888 113.73,31.607 113.55,32.268 113.55,32.327 113.311,32.987 
	113.01,33.647 112.29,34.728 112.23,34.787 111.75,35.327 111.271,35.747 111.271,35.808 110.67,36.228 110.61,36.228 
	110.07,36.588 109.41,36.888 108.811,37.128 108.75,37.128 108.03,37.308 107.311,37.428 105.811,37.428 105.15,37.308 
	105.09,37.308 104.37,37.128 103.71,36.888 103.65,36.888 103.05,36.588 102.45,36.228 102.45,36.168 101.91,35.747 "/>
<polyline fill="#FFFFFF" points="28.59,108.107 28.59,107.328 28.47,106.667 28.29,105.947 28.05,105.348 27.75,104.688 
	27.39,104.087 26.97,103.548 26.55,103.067 26.01,102.587 25.47,102.228 24.87,101.867 24.27,101.567 23.61,101.328 22.95,101.147 
	22.23,101.027 21.51,100.968 20.79,101.027 20.07,101.147 19.41,101.328 18.75,101.567 18.15,101.867 17.55,102.228 17.01,102.587 
	16.47,103.067 16.05,103.548 15.63,104.147 15.27,104.688 14.97,105.348 14.73,105.947 14.55,106.667 14.49,107.328 14.43,108.107 
	14.49,108.828 14.55,109.487 14.73,110.207 14.97,110.867 15.27,111.468 15.63,112.067 16.05,112.607 16.47,113.087 17.01,113.567 
	17.55,113.927 18.15,114.287 18.75,114.587 19.41,114.828 20.07,115.007 20.79,115.128 21.51,115.188 22.23,115.128 22.95,115.007 
	23.61,114.828 24.27,114.587 24.87,114.287 25.47,113.927 26.01,113.567 26.55,113.087 26.97,112.607 27.39,112.067 27.75,111.468 
	28.05,110.867 28.29,110.207 28.47,109.487 28.59,108.828 28.59,108.107 "/>
<polyline points="28.35,108.107 28.35,107.328 28.35,107.388 28.23,106.728 28.05,106.007 28.11,106.067 27.87,105.468 
	27.57,104.808 27.21,104.207 27.21,104.268 26.79,103.728 26.37,103.248 26.43,103.248 25.89,102.768 25.89,102.828 25.35,102.468 
	24.75,102.107 24.15,101.808 24.21,101.808 23.55,101.567 22.89,101.388 22.95,101.388 22.23,101.268 21.51,101.207 21.57,101.207 
	20.85,101.268 20.13,101.388 19.47,101.567 19.53,101.567 18.87,101.808 18.27,102.107 17.67,102.468 17.13,102.828 17.19,102.768 
	16.65,103.248 16.23,103.728 16.29,103.728 15.87,104.328 15.87,104.268 15.51,104.808 15.21,105.468 14.97,106.067 14.97,106.007 
	14.79,106.728 14.73,107.388 14.67,108.167 14.67,108.107 14.73,108.828 14.79,109.487 14.79,109.427 14.97,110.147 15.21,110.808 
	15.21,110.748 15.51,111.348 15.87,111.947 15.81,111.947 16.23,112.487 16.65,112.968 16.65,112.908 17.19,113.388 17.13,113.388 
	16.89,113.808 16.89,113.748 16.35,113.268 16.29,113.268 15.87,112.787 15.45,112.248 15.45,112.188 15.09,111.587 14.79,110.987 
	14.73,110.987 14.49,110.328 14.49,110.268 14.31,109.548 14.25,108.888 14.19,108.167 14.19,108.107 14.25,107.328 14.31,106.667 
	14.31,106.607 14.49,105.888 14.55,105.888 14.79,105.287 15.09,104.628 15.09,104.567 15.45,104.027 15.87,103.427 16.29,102.947 
	16.35,102.888 16.89,102.408 17.43,102.048 18.03,101.688 18.63,101.388 18.69,101.328 19.35,101.087 20.01,100.908 20.07,100.908 
	20.79,100.787 21.51,100.728 21.57,100.728 22.29,100.787 23.01,100.908 23.67,101.087 23.73,101.087 24.39,101.328 24.39,101.388 
	24.99,101.688 25.59,102.048 26.13,102.408 26.19,102.408 26.73,102.888 26.73,102.947 27.15,103.427 27.57,103.968 27.63,103.968 
	27.99,104.567 27.99,104.628 28.29,105.287 28.53,105.888 28.71,106.607 28.71,106.667 28.83,107.328 28.83,108.107 "/>
<polyline points="17.13,113.388 17.67,113.748 18.27,114.107 18.87,114.408 18.87,114.348 19.53,114.587 19.47,114.587 
	20.13,114.768 20.85,114.888 21.57,114.947 21.51,114.947 22.23,114.888 22.95,114.768 22.89,114.768 23.55,114.587 24.21,114.348 
	24.15,114.408 24.75,114.107 25.35,113.748 25.89,113.388 26.43,112.908 26.37,112.968 26.79,112.487 27.21,111.947 27.57,111.348 
	27.87,110.748 27.81,110.808 28.05,110.147 28.23,109.427 28.23,109.487 28.35,108.828 28.35,108.107 28.83,108.107 28.83,108.888 
	28.71,109.548 28.53,110.268 28.53,110.328 28.29,110.987 27.99,111.587 27.63,112.188 27.57,112.248 27.15,112.787 26.73,113.268 
	26.19,113.748 26.13,113.808 25.59,114.167 24.99,114.527 24.39,114.828 23.73,115.067 23.67,115.067 23.01,115.248 22.29,115.367 
	21.57,115.427 21.51,115.427 20.79,115.367 20.07,115.248 20.01,115.248 19.35,115.067 18.69,114.828 18.63,114.828 18.03,114.527 
	17.43,114.167 16.89,113.808 "/>
<polyline fill="#FFFFFF" points="198.69,108.107 198.63,107.328 198.51,106.667 198.391,105.947 198.15,105.348 197.851,104.688 
	197.49,104.087 197.07,103.548 196.11,102.587 195.57,102.228 194.97,101.867 194.37,101.567 193.71,101.328 193.05,101.147 
	192.33,101.027 191.61,100.968 190.891,101.027 190.17,101.147 189.51,101.328 188.851,101.567 188.19,101.867 187.11,102.587 
	186.57,103.067 186.15,103.548 185.73,104.147 185.37,104.688 185.07,105.348 184.83,105.947 184.65,106.667 184.53,107.328 
	184.53,108.828 184.65,109.487 184.83,110.207 185.07,110.867 185.37,111.468 185.73,112.067 186.15,112.607 186.57,113.087 
	187.11,113.567 188.19,114.287 188.851,114.587 189.51,114.828 190.17,115.007 190.891,115.128 191.61,115.188 192.33,115.128 
	193.05,115.007 193.71,114.828 194.37,114.587 194.97,114.287 195.57,113.927 196.11,113.567 197.07,112.607 197.49,112.067 
	197.851,111.468 198.15,110.867 198.391,110.207 198.51,109.487 198.63,108.828 198.69,108.107 "/>
<polyline points="198.45,108.167 198.391,107.388 198.271,106.728 198.15,106.007 198.21,106.067 197.97,105.468 197.67,104.808 
	197.311,104.207 197.311,104.268 196.891,103.728 195.93,102.768 195.99,102.828 195.45,102.468 194.851,102.107 194.25,101.808 
	194.311,101.808 193.65,101.567 192.99,101.388 193.05,101.388 192.33,101.268 191.61,101.207 191.67,101.207 190.95,101.268 
	190.23,101.388 189.57,101.567 189.63,101.567 188.97,101.808 188.311,102.107 187.23,102.828 187.29,102.768 186.75,103.248 
	186.33,103.728 186.391,103.728 185.97,104.328 185.97,104.268 185.61,104.808 185.311,105.468 185.07,106.067 185.07,106.007 
	184.891,106.728 184.771,107.388 184.771,107.328 184.771,108.828 184.891,109.487 184.891,109.427 185.07,110.147 185.311,110.808 
	185.311,110.748 185.61,111.348 185.97,111.947 185.91,111.947 186.33,112.487 186.75,112.968 186.75,112.908 187.29,113.388 
	187.23,113.388 186.99,113.808 186.99,113.748 186.45,113.268 186.391,113.268 185.97,112.787 185.55,112.248 185.55,112.188 
	185.19,111.587 184.891,110.987 184.83,110.987 184.59,110.328 184.59,110.268 184.41,109.548 184.29,108.888 184.29,107.328 
	184.41,106.667 184.41,106.607 184.59,105.888 184.65,105.888 184.891,105.287 185.19,104.628 185.19,104.567 185.55,104.027 
	185.97,103.427 186.391,102.947 186.45,102.888 186.99,102.408 188.07,101.688 188.13,101.688 188.79,101.388 188.79,101.328 
	189.45,101.087 190.11,100.908 190.17,100.908 190.891,100.787 191.61,100.728 191.67,100.728 192.391,100.787 193.11,100.908 
	193.771,101.087 193.83,101.087 194.49,101.328 194.49,101.388 195.09,101.688 195.69,102.048 196.23,102.408 196.29,102.408 
	197.25,103.367 197.25,103.427 197.67,103.968 197.73,103.968 198.09,104.567 198.09,104.628 198.391,105.287 198.63,105.888 
	198.63,105.947 198.75,106.667 198.87,107.328 198.93,108.107 "/>
<polyline points="187.23,113.388 188.311,114.107 188.97,114.408 188.97,114.348 189.63,114.587 189.57,114.587 190.23,114.768 
	190.95,114.888 191.67,114.947 191.61,114.947 192.33,114.888 193.05,114.768 192.99,114.768 193.65,114.587 194.311,114.348 
	194.25,114.408 194.851,114.107 195.45,113.748 195.99,113.388 195.93,113.388 196.891,112.427 196.891,112.487 197.311,111.947 
	197.67,111.348 197.97,110.748 197.91,110.808 198.15,110.147 198.15,110.207 198.271,109.487 198.391,108.828 198.45,108.107 
	198.45,108.167 198.93,108.107 198.93,108.167 198.87,108.888 198.75,109.548 198.63,110.268 198.63,110.328 198.391,110.987 
	198.09,111.587 197.73,112.188 197.67,112.248 197.25,112.787 196.23,113.808 195.69,114.167 195.09,114.527 194.49,114.828 
	193.83,115.067 193.771,115.067 193.11,115.248 192.391,115.367 191.67,115.427 191.61,115.427 190.891,115.367 190.17,115.248 
	190.11,115.248 189.45,115.067 188.79,114.828 188.13,114.527 188.07,114.527 186.99,113.808 "/>
<rect x="0.27" y="8.867" fill="#B3B3B3" width="42.479" height="42.54"/>
<rect x="170.311" y="8.867" fill="#B3B3B3" width="42.54" height="42.54"/>
<rect x="21.27" y="29.867" width="0.479" height="21.78"/>
<rect x="21.51" y="29.867" width="170.341" height="0.48"/>
<rect x="191.37" y="30.107" width="0.48" height="21.54"/>
<rect x="21.27" y="100.968" width="0.479" height="0.238"/>
<rect x="21.27" y="86.567" width="0.479" height="14.399"/>
<rect x="191.37" y="100.968" width="0.48" height="0.238"/>
<rect x="191.37" y="86.567" width="0.48" height="14.399"/>
<rect x="191.37" y="86.808" width="0.48" height="0.24"/>
<rect x="191.37" y="85.848" width="0.48" height="0.96"/>
<rect x="191.37" y="81.647" width="0.48" height="0.24"/>
<rect x="191.37" y="79.908" width="0.48" height="1.739"/>
<rect x="191.37" y="75.768" width="0.48" height="0.239"/>
<rect x="191.37" y="74.027" width="0.48" height="1.74"/>
<rect x="191.37" y="69.828" width="0.48" height="0.239"/>
<rect x="191.37" y="68.147" width="0.48" height="1.681"/>
<rect x="191.37" y="63.947" width="0.48" height="0.24"/>
<rect x="191.37" y="62.207" width="0.48" height="1.74"/>
<rect x="191.37" y="58.008" width="0.48" height="0.239"/>
<rect x="191.37" y="56.327" width="0.48" height="1.681"/>
<rect x="191.37" y="52.128" width="0.48" height="0.239"/>
<rect x="191.37" y="51.168" width="0.48" height="0.96"/>
<rect x="21.27" y="86.808" width="0.479" height="0.24"/>
<rect x="21.27" y="85.848" width="0.479" height="0.96"/>
<rect x="21.27" y="81.647" width="0.479" height="0.24"/>
<rect x="21.27" y="79.908" width="0.479" height="1.739"/>
<rect x="21.27" y="75.768" width="0.479" height="0.239"/>
<rect x="21.27" y="74.027" width="0.479" height="1.74"/>
<rect x="21.27" y="69.828" width="0.479" height="0.239"/>
<rect x="21.27" y="68.147" width="0.479" height="1.681"/>
<rect x="21.27" y="63.947" width="0.479" height="0.24"/>
<rect x="21.27" y="62.207" width="0.479" height="1.74"/>
<rect x="21.27" y="58.008" width="0.479" height="0.239"/>
<rect x="21.27" y="56.327" width="0.479" height="1.681"/>
<rect x="21.27" y="52.128" width="0.479" height="0.239"/>
<rect x="21.27" y="51.168" width="0.479" height="0.96"/>
<text transform="matrix(1 0 0 1 5.3699 6.647)" font-family="'ProductusSemibold'" font-size="7.98">Host A</text>
</svg>
