<?xml version="1.0" encoding="utf-8"?>
<!-- Generator: Adobe Illustrator 16.0.0, SVG Export Plug-In . SVG Version: 6.00 Build 0)  -->
<!DOCTYPE svg PUBLIC "-//W3C//DTD SVG 1.1//EN" "http://www.w3.org/Graphics/SVG/1.1/DTD/svg11.dtd">
<svg version="1.1" id="Layer_1" xmlns="http://www.w3.org/2000/svg" xmlns:xlink="http://www.w3.org/1999/xlink" x="0px" y="0px"
	 width="425.7px" height="156.42px" viewBox="0 0 425.7 156.42" style="enable-background:new 0 0 425.7 156.42;"
	 xml:space="preserve">
<rect x="94.74" y="65.819" width="54.3" height="26.58"/>
<rect x="94.74" y="65.579" width="54.54" height="0.48"/>
<rect x="148.8" y="65.819" width="0.48" height="26.82"/>
<rect x="94.5" y="92.159" width="54.54" height="0.48"/>
<rect x="94.5" y="65.579" width="0.48" height="26.82"/>
<rect x="92.4" y="64.02" style="fill:#FFFFFF;" width="54.3" height="26.58"/>
<rect x="92.4" y="63.779" width="54.54" height="0.48"/>
<rect x="146.46" y="64.02" width="0.48" height="26.82"/>
<rect x="92.16" y="90.359" width="54.54" height="0.48"/>
<rect x="92.16" y="63.779" width="0.48" height="26.82"/>
<text transform="matrix(1 0 0 1.0522 94.7402 71.1592)"><tspan x="0" y="0" style="font-family:'ProductusOSGiBookc'; font-size:7.5841;">&lt;</tspan><tspan x="2.776" y="0" style="font-family:'ProductusOSGiBookc'; font-size:7.5841;">&lt;</tspan><tspan x="5.589" y="0" style="font-family:'ProductusOSGiBookc'; font-size:7.5841;">interfa</tspan><tspan x="23.093" y="0" style="font-family:'ProductusOSGiBookc'; font-size:7.5841;">c</tspan><tspan x="26.028" y="0" style="font-family:'ProductusOSGiBookc'; font-size:7.5841;">e&gt;</tspan><tspan x="32.095" y="0" style="font-family:'ProductusOSGiBookc'; font-size:7.5841;">&gt;</tspan></text>
<text transform="matrix(1 0 0 1 94.7402 79.6201)"><tspan x="0" y="0" style="font-family:'ProductusSemibold'; font-size:7.98;">R</tspan><tspan x="4.253" y="0" style="font-family:'ProductusSemibold'; font-size:7.98;">e</tspan><tspan x="8.387" y="0" style="font-family:'ProductusSemibold'; font-size:7.98;">s</tspan><tspan x="11.747" y="0" style="font-family:'ProductusSemibold'; font-size:7.98;">o</tspan><tspan x="16.063" y="0" style="font-family:'ProductusSemibold'; font-size:7.98;">u</tspan><tspan x="20.317" y="0" style="font-family:'ProductusSemibold'; font-size:7.98;">r</tspan><tspan x="23.253" y="0" style="font-family:'ProductusSemibold'; font-size:7.98;">c</tspan><tspan x="26.908" y="0" style="font-family:'ProductusSemibold'; font-size:7.98;">e</tspan></text>
<rect x="215.22" y="16.199" width="54.3" height="26.58"/>
<rect x="215.22" y="15.96" width="54.54" height="0.479"/>
<rect x="269.28" y="16.199" width="0.48" height="26.82"/>
<rect x="214.98" y="42.539" width="54.54" height="0.48"/>
<rect x="214.98" y="15.96" width="0.48" height="26.819"/>
<rect x="212.82" y="14.399" style="fill:#FFFFFF;" width="54.36" height="26.58"/>
<rect x="212.82" y="14.159" width="54.601" height="0.48"/>
<rect x="266.94" y="14.399" width="0.48" height="26.82"/>
<rect x="212.58" y="40.739" width="54.601" height="0.48"/>
<rect x="212.58" y="14.159" width="0.48" height="26.82"/>
<text transform="matrix(1 0 0 1.0522 215.2202 21.54)"><tspan x="0" y="0" style="font-family:'ProductusOSGiBookc'; font-size:7.5841;">&lt;</tspan><tspan x="2.775" y="0" style="font-family:'ProductusOSGiBookc'; font-size:7.5841;">&lt;</tspan><tspan x="5.589" y="0" style="font-family:'ProductusOSGiBookc'; font-size:7.5841;">interfa</tspan><tspan x="23.093" y="0" style="font-family:'ProductusOSGiBookc'; font-size:7.5841;">c</tspan><tspan x="26.028" y="0" style="font-family:'ProductusOSGiBookc'; font-size:7.5841;">e&gt;</tspan><tspan x="32.095" y="0" style="font-family:'ProductusOSGiBookc'; font-size:7.5841;">&gt;</tspan></text>
<text transform="matrix(1 0 0 1 215.2202 30.0596)"><tspan x="0" y="0" style="font-family:'ProductusSemibold'; font-size:7.98;">R</tspan><tspan x="4.253" y="0" style="font-family:'ProductusSemibold'; font-size:7.98;">e</tspan><tspan x="8.387" y="0" style="font-family:'ProductusSemibold'; font-size:7.98;">qui</tspan><tspan x="19.111" y="0" style="font-family:'ProductusSemibold'; font-size:7.98;">r</tspan><tspan x="22.048" y="0" style="font-family:'ProductusSemibold'; font-size:7.98;">emen</tspan><tspan x="40.929" y="0" style="font-family:'ProductusSemibold'; font-size:7.98;">t</tspan></text>
<rect x="215.22" y="115.439" width="54.3" height="26.58"/>
<rect x="215.22" y="115.199" width="54.54" height="0.48"/>
<rect x="269.28" y="115.439" width="0.48" height="26.82"/>
<rect x="214.98" y="141.779" width="54.54" height="0.48"/>
<rect x="214.98" y="115.199" width="0.48" height="26.82"/>
<rect x="212.82" y="113.64" style="fill:#FFFFFF;" width="54.36" height="26.58"/>
<rect x="212.82" y="113.399" width="54.601" height="0.48"/>
<rect x="266.94" y="113.64" width="0.48" height="26.82"/>
<rect x="212.58" y="139.979" width="54.601" height="0.48"/>
<rect x="212.58" y="113.399" width="0.48" height="26.82"/>
<text transform="matrix(1 0 0 1.0522 215.2202 120.7793)"><tspan x="0" y="0" style="font-family:'ProductusOSGiBookc'; font-size:7.5841;">&lt;</tspan><tspan x="2.775" y="0" style="font-family:'ProductusOSGiBookc'; font-size:7.5841;">&lt;</tspan><tspan x="5.589" y="0" style="font-family:'ProductusOSGiBookc'; font-size:7.5841;">interfa</tspan><tspan x="23.093" y="0" style="font-family:'ProductusOSGiBookc'; font-size:7.5841;">c</tspan><tspan x="26.028" y="0" style="font-family:'ProductusOSGiBookc'; font-size:7.5841;">e&gt;</tspan><tspan x="32.095" y="0" style="font-family:'ProductusOSGiBookc'; font-size:7.5841;">&gt;</tspan></text>
<text transform="matrix(1 0 0 1 215.2202 129.2393)"><tspan x="0" y="0" style="font-family:'ProductusSemibold'; font-size:7.98;">C</tspan><tspan x="4.796" y="0" style="font-family:'ProductusSemibold'; font-size:7.98;">apabilit</tspan><tspan x="30.993" y="0" style="font-family:'ProductusSemibold'; font-size:7.98;">y</tspan></text>
<rect x="215.22" y="65.819" width="54.3" height="26.58"/>
<rect x="215.22" y="65.579" width="54.54" height="0.48"/>
<rect x="269.28" y="65.819" width="0.48" height="26.82"/>
<rect x="214.98" y="92.159" width="54.54" height="0.48"/>
<rect x="214.98" y="65.579" width="0.48" height="26.82"/>
<rect x="212.82" y="64.02" style="fill:#FFFFFF;" width="54.36" height="26.58"/>
<rect x="212.82" y="63.779" width="54.601" height="0.48"/>
<rect x="266.94" y="64.02" width="0.48" height="26.82"/>
<rect x="212.58" y="90.359" width="54.601" height="0.48"/>
<rect x="212.58" y="63.779" width="0.48" height="26.82"/>
<text transform="matrix(1 0 0 1.0522 215.2202 71.1592)"><tspan x="0" y="0" style="font-family:'ProductusOSGiBookc'; font-size:7.5841;">&lt;</tspan><tspan x="2.775" y="0" style="font-family:'ProductusOSGiBookc'; font-size:7.5841;">&lt;</tspan><tspan x="5.589" y="0" style="font-family:'ProductusOSGiBookc'; font-size:7.5841;">inte</tspan><tspan x="15.994" y="0" style="font-family:'ProductusOSGiBookc'; font-size:7.5841;">r</tspan><tspan x="18.148" y="0" style="font-family:'ProductusOSGiBookc'; font-size:7.5841;">f</tspan><tspan x="20.014" y="0" style="font-family:'ProductusOSGiBookc'; font-size:7.5841;">a</tspan><tspan x="23.123" y="0" style="font-family:'ProductusOSGiBookc'; font-size:7.5841;">c</tspan><tspan x="26.059" y="0" style="font-family:'ProductusOSGiBookc'; font-size:7.5841;">e&gt;</tspan><tspan x="32.126" y="0" style="font-family:'ProductusOSGiBookc'; font-size:7.5841;">&gt;</tspan></text>
<text transform="matrix(1 0 0 1 215.2202 79.6201)"><tspan x="0" y="0" style="font-family:'ProductusSemibold'; font-size:7.98;">Wirin</tspan><tspan x="18.976" y="0" style="font-family:'ProductusSemibold'; font-size:7.98;">g</tspan></text>
<rect x="240.96" y="42.539" width="0.479" height="21.721"/>
<rect x="240.96" y="92.159" width="0.479" height="21.721"/>
<rect x="134.64" y="28.38" width="78.42" height="0.479"/>
<rect x="134.64" y="28.619" width="0.48" height="35.641"/>
<rect x="148.8" y="78" width="64.26" height="0.479"/>
<rect x="134.64" y="127.56" width="78.42" height="0.479"/>
<rect x="134.64" y="92.159" width="0.48" height="35.641"/>
<text transform="matrix(1 0 0 1 137.46 61.6201)" style="font-family:'ProductusBook'; font-size:7.98;">1</text>
<text transform="matrix(1 0 0 1 199.9204 25.8594)"><tspan x="0" y="0" style="font-family:'ProductusBook'; font-size:7.98;">0</tspan><tspan x="3.958" y="0" style="font-family:'ProductusBook'; font-size:7.98;">.</tspan><tspan x="5.522" y="0" style="font-family:'ProductusBook'; font-size:7.98;">n</tspan></text>
<text transform="matrix(1 0 0 1 200.5205 133.3203)" style="font-family:'ProductusBook'; font-size:7.98;">0.n</text>
<text transform="matrix(1 0 0 1 137.46 97.5596)" style="font-family:'ProductusBook'; font-size:7.98;">1</text>
<text transform="matrix(1 0 0 1 356.3999 68.7598)" style="font-family:'ProductusBook'; font-size:7.98;">0.n</text>
<text transform="matrix(1 0 0 1 228.8394 47.9404)"><tspan x="0" y="0" style="font-family:'ProductusBook'; font-size:7.98;">0</tspan><tspan x="3.958" y="0" style="font-family:'ProductusBook'; font-size:7.98;">.</tspan><tspan x="5.522" y="0" style="font-family:'ProductusBook'; font-size:7.98;">n</tspan></text>
<text transform="matrix(1 0 0 1 200.0996 74.8799)" style="font-family:'ProductusBook'; font-size:7.98;">0,1</text>
<text transform="matrix(1 0 0 1 116.5796 75.8398)" style="font-family:'ProductusBook'; font-size:7.98;">1</text>
<rect x="371.1" y="65.819" width="54.36" height="26.58"/>
<rect x="371.1" y="65.579" width="54.6" height="0.48"/>
<rect x="425.22" y="65.819" width="0.479" height="26.82"/>
<rect x="370.86" y="92.159" width="54.601" height="0.48"/>
<rect x="370.86" y="65.579" width="0.48" height="26.82"/>
<rect x="368.76" y="64.02" style="fill:#FFFFFF;" width="54.359" height="26.58"/>
<rect x="368.76" y="63.779" width="54.6" height="0.48"/>
<rect x="422.88" y="64.02" width="0.479" height="26.82"/>
<rect x="368.52" y="90.359" width="54.6" height="0.48"/>
<rect x="368.52" y="63.779" width="0.48" height="26.82"/>
<text transform="matrix(1 0 0 1.0522 371.1001 71.1592)"><tspan x="0" y="0" style="font-family:'ProductusOSGiBookc'; font-size:7.5841;">&lt;</tspan><tspan x="2.799" y="0" style="font-family:'ProductusOSGiBookc'; font-size:7.5841;">&lt;</tspan><tspan x="5.559" y="0" style="font-family:'ProductusOSGiBookc'; font-size:7.5841;">i</tspan><tspan x="7" y="0" style="font-family:'ProductusOSGiBookc'; font-size:7.5841;">n</tspan><tspan x="10.474" y="0" style="font-family:'ProductusOSGiBookc'; font-size:7.5841;">te</tspan><tspan x="16.018" y="0" style="font-family:'ProductusOSGiBookc'; font-size:7.5841;">r</tspan><tspan x="18.118" y="0" style="font-family:'ProductusOSGiBookc'; font-size:7.5841;">f</tspan><tspan x="20.037" y="0" style="font-family:'ProductusOSGiBookc'; font-size:7.5841;">a</tspan><tspan x="23.169" y="0" style="font-family:'ProductusOSGiBookc'; font-size:7.5841;">c</tspan><tspan x="26.051" y="0" style="font-family:'ProductusOSGiBookc'; font-size:7.5841;">e</tspan><tspan x="29.357" y="0" style="font-family:'ProductusOSGiBookc'; font-size:7.5841;">&gt;</tspan><tspan x="32.156" y="0" style="font-family:'ProductusOSGiBookc'; font-size:7.5841;">&gt;</tspan></text>
<text transform="matrix(1 0 0 1 371.1001 79.6201)"><tspan x="0" y="0" style="font-family:'ProductusSemibold'; font-size:7.98;">Wi</tspan><tspan x="9.655" y="0" style="font-family:'ProductusSemibold'; font-size:7.98;">r</tspan><tspan x="12.528" y="0" style="font-family:'ProductusSemibold'; font-size:7.98;">e</tspan></text>
<rect x="269.28" y="70.859" width="99.721" height="0.48"/>
<rect x="269.28" y="85.079" width="57.181" height="0.48"/>
<rect x="382.68" y="28.38" width="0.479" height="35.88"/>
<rect x="269.28" y="28.38" width="113.641" height="0.479"/>
<rect x="382.68" y="92.159" width="0.479" height="35.88"/>
<rect x="269.28" y="127.56" width="113.641" height="0.479"/>
<rect x="411.06" width="0.479" height="64.26"/>
<rect x="106.32" width="304.98" height="0.479"/>
<rect x="106.32" y="0.239" width="0.48" height="64.021"/>
<rect x="411.06" y="92.159" width="0.479" height="64.261"/>
<rect x="106.32" y="155.939" width="304.98" height="0.48"/>
<rect x="106.32" y="92.159" width="0.48" height="64.021"/>
<text transform="matrix(1 0 0 1 356.3999 82.9199)" style="font-family:'ProductusBook'; font-size:7.98;">0.n</text>
<rect x="368.76" y="85.079" width="0.24" height="0.48"/>
<rect x="269.28" y="85.079" width="99.48" height="0.48"/>
<text transform="matrix(1 0 0 1 141.54 26.5195)"><tspan x="0" y="0" style="font-family:'ProductusBook'; font-size:7.98;">d</tspan><tspan x="3.71" y="0" style="font-family:'ProductusBook'; font-size:7.98;">e</tspan><tspan x="7.198" y="0" style="font-family:'ProductusBook'; font-size:7.98;">clare</tspan><tspan x="21.011" y="0" style="font-family:'ProductusBook'; font-size:7.98;">s</tspan></text>
<text transform="matrix(1 0 0 1 139.4395 132.5391)"><tspan x="0" y="0" style="font-family:'ProductusBook'; font-size:7.98;">d</tspan><tspan x="3.71" y="0" style="font-family:'ProductusBook'; font-size:7.98;">e</tspan><tspan x="7.198" y="0" style="font-family:'ProductusBook'; font-size:7.98;">clare</tspan><tspan x="21.011" y="0" style="font-family:'ProductusBook'; font-size:7.98;">s</tspan></text>
<text transform="matrix(1 0 0 1 229.4995 111.2393)"><tspan x="0" y="0" style="font-family:'ProductusBook'; font-size:7.98;">0</tspan><tspan x="3.958" y="0" style="font-family:'ProductusBook'; font-size:7.98;">.</tspan><tspan x="5.522" y="0" style="font-family:'ProductusBook'; font-size:7.98;">n</tspan></text>
<text transform="matrix(1 0 0 1 223.6196 153.8389)"><tspan x="0" y="0" style="font-family:'ProductusBook'; font-size:7.98;">p</tspan><tspan x="3.679" y="0" style="font-family:'ProductusBook'; font-size:7.98;">r</tspan><tspan x="5.953" y="0" style="font-family:'ProductusBook'; font-size:7.98;">o</tspan><tspan x="9.616" y="0" style="font-family:'ProductusBook'; font-size:7.98;">v</tspan><tspan x="12.848" y="0" style="font-family:'ProductusBook'; font-size:7.98;">i</tspan><tspan x="14.396" y="0" style="font-family:'ProductusBook'; font-size:7.98;">d</tspan><tspan x="18.114" y="0" style="font-family:'ProductusBook'; font-size:7.98;">e</tspan><tspan x="21.602" y="0" style="font-family:'ProductusBook'; font-size:7.98;">r</tspan><tspan x="23.876" y="0" style="font-family:'ProductusBook'; font-size:7.98;"> </tspan><tspan x="25.496" y="0" style="font-family:'ProductusBook'; font-size:7.98;">fo</tspan><tspan x="31.281" y="0" style="font-family:'ProductusBook'; font-size:7.98;">r</tspan></text>
<text transform="matrix(1 0 0 1 227.0405 7.6191)"><tspan x="0" y="0" style="font-family:'ProductusBook'; font-size:7.98;">requirer</tspan><tspan x="22.734" y="0" style="font-family:'ProductusBook'; font-size:7.98;"> </tspan><tspan x="24.347" y="0" style="font-family:'ProductusBook'; font-size:7.98;">f</tspan><tspan x="26.334" y="0" style="font-family:'ProductusBook'; font-size:7.98;">or</tspan></text>
<text transform="matrix(1 0 0 1 108.7808 62.1592)" style="font-family:'ProductusBook'; font-size:7.98;">1</text>
<text transform="matrix(1 0 0 1 108.7808 97.5596)" style="font-family:'ProductusBook'; font-size:7.98;">1</text>
<text transform="matrix(1 0 0 1 153.4204 75.8389)"><tspan x="0" y="0" style="font-family:'ProductusBook'; font-size:7.98;">h</tspan><tspan x="3.663" y="0" style="font-family:'ProductusBook'; font-size:7.98;">a</tspan><tspan x="7.022" y="0" style="font-family:'ProductusBook'; font-size:7.98;">s</tspan></text>
<text transform="matrix(1 0 0 1 271.8003 26.2197)" style="font-family:'ProductusBook'; font-size:7.98;">1</text>
<text transform="matrix(1 0 0 1 273.481 125.3994)" style="font-family:'ProductusBook'; font-size:7.98;">1</text>
<text transform="matrix(1 0 0 1 290.8198 68.7598)"><tspan x="0" y="0" style="font-family:'ProductusBook'; font-size:7.98;">p</tspan><tspan x="3.679" y="0" style="font-family:'ProductusBook'; font-size:7.98;">r</tspan><tspan x="5.953" y="0" style="font-family:'ProductusBook'; font-size:7.98;">o</tspan><tspan x="9.616" y="0" style="font-family:'ProductusBook'; font-size:7.98;">v</tspan><tspan x="12.848" y="0" style="font-family:'ProductusBook'; font-size:7.98;">i</tspan><tspan x="14.396" y="0" style="font-family:'ProductusBook'; font-size:7.98;">d</tspan><tspan x="18.114" y="0" style="font-family:'ProductusBook'; font-size:7.98;">e</tspan><tspan x="21.602" y="0" style="font-family:'ProductusBook'; font-size:7.98;">d</tspan></text>
<text transform="matrix(1 0 0 1 290.8198 90.0605)"><tspan x="0" y="0" style="font-family:'ProductusBook'; font-size:7.98;">require</tspan><tspan x="20.524" y="0" style="font-family:'ProductusBook'; font-size:7.98;">d</tspan></text>
<text transform="matrix(1 0 0 1 312.061 26.2803)"><tspan x="0" y="0" style="font-family:'ProductusBook'; font-size:7.98;">requ</tspan><tspan x="13.167" y="0" style="font-family:'ProductusBook'; font-size:7.98;">i</tspan><tspan x="14.778" y="0" style="font-family:'ProductusBook'; font-size:7.98;">r</tspan><tspan x="17.005" y="0" style="font-family:'ProductusBook'; font-size:7.98;">er</tspan><tspan x="22.791" y="0" style="font-family:'ProductusBook'; font-size:7.98;"> </tspan><tspan x="24.354" y="0" style="font-family:'ProductusBook'; font-size:7.98;">f</tspan><tspan x="26.342" y="0" style="font-family:'ProductusBook'; font-size:7.98;">or</tspan></text>
<text transform="matrix(1 0 0 1 312.061 125.4609)"><tspan x="0" y="0" style="font-family:'ProductusBook'; font-size:7.98;">pr</tspan><tspan x="6.024" y="0" style="font-family:'ProductusBook'; font-size:7.98;">o</tspan><tspan x="9.688" y="0" style="font-family:'ProductusBook'; font-size:7.98;">v</tspan><tspan x="12.872" y="0" style="font-family:'ProductusBook'; font-size:7.98;">i</tspan><tspan x="14.468" y="0" style="font-family:'ProductusBook'; font-size:7.98;">d</tspan><tspan x="18.131" y="0" style="font-family:'ProductusBook'; font-size:7.98;">er</tspan><tspan x="23.964" y="0" style="font-family:'ProductusBook'; font-size:7.98;"> </tspan><tspan x="25.527" y="0" style="font-family:'ProductusBook'; font-size:7.98;">f</tspan><tspan x="27.515" y="0" style="font-family:'ProductusBook'; font-size:7.98;">or</tspan></text>
<rect x="2.58" y="65.819" width="54.36" height="26.58"/>
<rect x="2.58" y="65.579" width="54.6" height="0.48"/>
<rect x="56.7" y="65.819" width="0.48" height="26.82"/>
<rect x="2.34" y="92.159" width="54.6" height="0.48"/>
<rect x="2.34" y="65.579" width="0.48" height="26.82"/>
<rect x="0.24" y="64.02" style="fill:#FFFFFF;" width="54.3" height="26.58"/>
<rect x="0.24" y="63.779" width="54.54" height="0.48"/>
<rect x="54.3" y="64.02" width="0.48" height="26.82"/>
<rect y="90.359" width="54.54" height="0.48"/>
<rect y="63.779" width="0.48" height="26.82"/>
<text transform="matrix(1 0 0 1 2.5801 71.1592)"><tspan x="0" y="0" style="font-family:'ProductusSemibold'; font-size:7.98;">Namespac</tspan><tspan x="35.063" y="0" style="font-family:'ProductusSemibold'; font-size:7.98;">e</tspan></text>
</svg>
