<?xml version="1.0" encoding="utf-8"?>
<!-- Generator: Adobe Illustrator 16.0.1, SVG Export Plug-In . SVG Version: 6.00 Build 0)  -->
<!DOCTYPE svg PUBLIC "-//W3C//DTD SVG 1.1//EN" "http://www.w3.org/Graphics/SVG/1.1/DTD/svg11.dtd">
<svg version="1.1" id="Layer_1" xmlns="http://www.w3.org/2000/svg" xmlns:xlink="http://www.w3.org/1999/xlink" x="0px" y="0px"
	 width="250.422px" height="29.518px" viewBox="0 0 250.422 29.518" enable-background="new 0 0 250.422 29.518"
	 xml:space="preserve">
<rect x="0.24" y="14.4" fill="#FFFFFF" width="14.16" height="14.159"/>
<rect x="0.24" y="14.16" width="14.4" height="0.479"/>
<rect x="14.16" y="14.4" width="0.48" height="14.399"/>
<rect y="28.32" width="14.4" height="0.479"/>
<rect y="14.16" width="0.48" height="14.398"/>
<text transform="matrix(1 0 0 1 5.3403 24.3606)" font-family="'ProductusSemibold'" font-size="7.98">a</text>
<rect x="42.72" y="14.4" fill="#FFFFFF" width="14.22" height="14.159"/>
<rect x="42.72" y="14.16" width="14.46" height="0.479"/>
<rect x="56.7" y="14.4" width="0.48" height="14.399"/>
<rect x="42.48" y="28.32" width="14.46" height="0.479"/>
<rect x="42.48" y="14.16" width="0.48" height="14.398"/>
<text transform="matrix(1 0 0 1 47.7002 24.1204)" font-family="'ProductusSemibold'" font-size="7.98">b</text>
<rect x="85.26" y="14.4" fill="#FFFFFF" width="14.16" height="14.159"/>
<rect x="85.26" y="14.16" width="14.4" height="0.479"/>
<rect x="99.181" y="14.4" width="0.479" height="14.399"/>
<rect x="85.021" y="28.32" width="14.399" height="0.479"/>
<rect x="85.021" y="14.16" width="0.479" height="14.398"/>
<text transform="matrix(1 0 0 1 90.8398 23.6399)" font-family="'ProductusSemibold'" font-size="7.98">c</text>
<rect x="37.56" y="21.24" width="4.68" height="0.479"/>
<polyline points="37.92,18.72 37.68,19.14 42.12,21.72 42.36,21.72 42.78,21.48 42.36,21.3 "/>
<polyline points="42.36,21.72 42.12,21.3 37.68,23.88 37.92,24.3 "/>
<rect x="14.16" y="21.24" width="1.2" height="0.479"/>
<rect x="19.26" y="21.24" width="1.92" height="0.479"/>
<rect x="25.02" y="21.24" width="1.92" height="0.479"/>
<rect x="30.78" y="21.24" width="1.92" height="0.479"/>
<rect x="36.54" y="21.24" width="1.26" height="0.479"/>
<rect x="80.04" y="21.24" width="4.74" height="0.479"/>
<polyline points="80.46,18.72 80.22,19.14 84.66,21.72 84.9,21.72 85.32,21.48 84.9,21.3 "/>
<polyline points="84.9,21.72 84.66,21.3 80.22,23.88 80.46,24.3 "/>
<rect x="56.7" y="21.24" width="1.2" height="0.479"/>
<rect x="61.74" y="21.24" width="1.92" height="0.479"/>
<rect x="67.5" y="21.24" width="1.98" height="0.479"/>
<rect x="73.32" y="21.24" width="1.92" height="0.479"/>
<rect x="79.08" y="21.24" width="1.2" height="0.479"/>
<rect x="179.28" y="7.08" width="4.68" height="0.479"/>
<polyline points="179.641,4.56 179.4,4.98 183.84,7.56 184.081,7.56 184.379,7.38 184.081,7.14 "/>
<polyline points="184.081,7.56 183.84,7.14 179.4,9.66 179.641,10.08 "/>
<rect x="170.04" y="7.08" width="1.26" height="0.479"/>
<rect x="174" y="7.08" width="1.561" height="0.479"/>
<rect x="178.32" y="7.08" width="0.24" height="0.479"/>
<rect x="178.561" y="7.08" width="0.96" height="0.479"/>
<text transform="matrix(1 0 0 1 191.5806 9.72)" font-family="'ProductusOSGiBookc'" font-size="7.98">Implicit Dependency</text>
<rect x="177.42" y="14.52" fill="#FFFFFF" width="7.08" height="7.08"/>
<rect x="177.42" y="14.281" width="7.32" height="0.479"/>
<rect x="184.26" y="14.52" width="0.48" height="7.32"/>
<rect x="177.181" y="21.36" width="7.319" height="0.479"/>
<rect x="177.181" y="14.281" width="0.479" height="7.318"/>
<text transform="matrix(1 0 0 1 191.5806 19.6204)" font-family="'ProductusOSGiBookc'" font-size="7.98">Manager</text>
<rect x="7.08" y="9.18" width="0.48" height="4.681"/>
<polyline points="10.08,9.54 9.66,9.3 7.08,13.74 7.08,13.98 7.32,14.4 7.5,13.98 "/>
<polyline points="7.08,13.98 7.5,13.74 4.92,9.3 4.5,9.54 "/>
<rect x="92.101" y="14.4" width="0.479" height="0.239"/>
<rect x="92.101" y="13.38" width="0.479" height="1.021"/>
<rect x="92.101" y="10.2" width="0.479" height="0.239"/>
<rect x="92.101" y="8.76" width="0.479" height="1.44"/>
<rect x="92.101" y="5.58" width="0.479" height="0.239"/>
<rect x="92.101" y="4.2" width="0.479" height="1.38"/>
<rect x="92.101" y="0" width="0.479" height="1.2"/>
<rect x="91.38" y="0" width="0.96" height="0.479"/>
<rect x="87.061" y="0" width="0.239" height="0.479"/>
<rect x="85.26" y="0" width="1.801" height="0.479"/>
<rect x="80.94" y="0" width="0.24" height="0.479"/>
<rect x="79.2" y="0" width="1.74" height="0.479"/>
<rect x="74.88" y="0" width="0.24" height="0.479"/>
<rect x="73.14" y="0" width="1.74" height="0.479"/>
<rect x="68.82" y="0" width="0.24" height="0.479"/>
<rect x="67.08" y="0" width="1.74" height="0.479"/>
<rect x="62.76" y="0" width="0.24" height="0.479"/>
<rect x="60.96" y="0" width="1.8" height="0.479"/>
<rect x="56.64" y="0" width="0.24" height="0.479"/>
<rect x="54.9" y="0" width="1.74" height="0.479"/>
<rect x="50.58" y="0" width="0.24" height="0.479"/>
<rect x="48.84" y="0" width="1.74" height="0.479"/>
<rect x="44.52" y="0" width="0.24" height="0.479"/>
<rect x="42.78" y="0" width="1.74" height="0.479"/>
<rect x="38.46" y="0" width="0.24" height="0.479"/>
<rect x="36.66" y="0" width="1.8" height="0.479"/>
<rect x="32.34" y="0" width="0.24" height="0.479"/>
<rect x="30.6" y="0" width="1.74" height="0.479"/>
<rect x="26.28" y="0" width="0.24" height="0.479"/>
<rect x="24.54" y="0" width="1.74" height="0.479"/>
<rect x="20.22" y="0" width="0.24" height="0.479"/>
<rect x="18.48" y="0" width="1.74" height="0.479"/>
<rect x="14.16" y="0" width="0.24" height="0.479"/>
<rect x="12.36" y="0" width="1.8" height="0.479"/>
<rect x="7.08" y="0" width="1.2" height="0.479"/>
<rect x="7.08" y="0.24" width="0.48" height="0.96"/>
<rect x="7.08" y="3.9" width="0.48" height="0.239"/>
<rect x="7.08" y="4.14" width="0.48" height="1.32"/>
<rect x="7.08" y="8.22" width="0.48" height="0.24"/>
<rect x="7.08" y="8.46" width="0.48" height="0.96"/>
<text transform="matrix(1 0 0 1 101.5801 17.4602)" enable-background="new    "><tspan x="0" y="0" font-family="'ProductusOSGiBookc'" font-size="7.98">breaking</tspan><tspan x="0" y="9.576" font-family="'ProductusOSGiBookc'" font-size="7.98">manager</tspan></text>
</svg>
