<?xml version="1.0" encoding="utf-8"?>
<!-- Generator: Adobe Illustrator 16.0.0, SVG Export Plug-In . SVG Version: 6.00 Build 0)  -->
<!DOCTYPE svg PUBLIC "-//W3C//DTD SVG 1.1//EN" "http://www.w3.org/Graphics/SVG/1.1/DTD/svg11.dtd">
<svg version="1.1" id="Layer_1" xmlns="http://www.w3.org/2000/svg" xmlns:xlink="http://www.w3.org/1999/xlink" x="0px" y="0px"
	 width="250.43px" height="79.905px" viewBox="0 0 250.43 79.905" style="enable-background:new 0 0 250.43 79.905;"
	 xml:space="preserve">
<rect x="106.32" y="30.287" style="fill:#E6E6E6;" width="14.16" height="14.16"/>
<rect x="106.32" y="30.047" width="14.399" height="0.48"/>
<rect x="120.24" y="30.287" width="0.479" height="14.4"/>
<rect x="106.08" y="44.208" width="14.4" height="0.48"/>
<rect x="106.08" y="30.047" width="0.48" height="14.4"/>
<rect x="14.16" y="8.987" style="fill:#FFFFFF;" width="14.22" height="14.22"/>
<rect x="14.16" y="8.747" width="14.46" height="0.48"/>
<rect x="28.14" y="8.987" width="0.48" height="14.46"/>
<rect x="13.92" y="22.967" width="14.46" height="0.48"/>
<rect x="13.92" y="8.747" width="0.48" height="14.46"/>
<rect x="14.16" y="51.527" style="fill:#FFFFFF;" width="14.22" height="14.16"/>
<rect x="14.16" y="51.287" width="14.46" height="0.48"/>
<rect x="28.14" y="51.527" width="0.48" height="14.4"/>
<rect x="13.92" y="65.448" width="14.46" height="0.479"/>
<rect x="13.92" y="51.287" width="0.48" height="14.4"/>
<rect x="14.16" y="30.287" style="fill:#FFFFFF;" width="14.22" height="14.16"/>
<rect x="14.16" y="30.047" width="14.46" height="0.48"/>
<rect x="28.14" y="30.287" width="0.48" height="14.4"/>
<rect x="13.92" y="44.208" width="14.46" height="0.48"/>
<rect x="13.92" y="30.047" width="0.48" height="14.4"/>
<polyline points="28.26,58.427 28.08,58.547 28.32,58.967 28.5,58.847 "/>
<polyline points="70.74,37.188 70.92,37.067 71.16,37.487 70.98,37.607 "/>
<polyline points="28.26,58.427 28.5,58.847 70.98,37.607 70.74,37.188 "/>
<rect x="28.14" y="37.127" width="42.96" height="0.48"/>
<polyline points="28.5,15.947 28.32,15.827 28.08,16.247 28.26,16.367 "/>
<polyline points="70.98,37.188 71.16,37.307 70.92,37.727 70.74,37.607 "/>
<polyline points="28.5,15.947 28.26,16.367 70.74,37.607 70.98,37.188 "/>
<rect x="219.72" y="8.987" style="fill:#FFFFFF;" width="14.16" height="14.22"/>
<rect x="219.72" y="8.747" width="14.4" height="0.48"/>
<rect x="233.641" y="8.987" width="0.479" height="14.46"/>
<rect x="219.48" y="22.967" width="14.399" height="0.48"/>
<rect x="219.48" y="8.747" width="0.479" height="14.46"/>
<rect x="219.72" y="51.527" style="fill:#FFFFFF;" width="14.16" height="14.16"/>
<rect x="219.72" y="51.287" width="14.4" height="0.48"/>
<rect x="233.641" y="51.527" width="0.479" height="14.4"/>
<rect x="219.48" y="65.448" width="14.399" height="0.479"/>
<rect x="219.48" y="51.287" width="0.479" height="14.4"/>
<rect x="219.72" y="30.287" style="fill:#FFFFFF;" width="14.16" height="14.16"/>
<rect x="219.72" y="30.047" width="14.4" height="0.48"/>
<rect x="233.641" y="30.287" width="0.479" height="14.4"/>
<rect x="219.48" y="44.208" width="14.399" height="0.48"/>
<rect x="219.48" y="30.047" width="0.479" height="14.4"/>
<rect x="176.94" y="37.127" width="43.02" height="0.48"/>
<rect x="120.24" y="37.127" width="1.2" height="0.48"/>
<rect x="125.521" y="37.127" width="2.04" height="0.48"/>
<rect x="131.641" y="37.127" width="1.979" height="0.48"/>
<rect x="137.7" y="37.127" width="1.979" height="0.48"/>
<rect x="143.76" y="37.127" width="2.04" height="0.48"/>
<rect x="149.88" y="37.127" width="1.98" height="0.48"/>
<rect x="155.94" y="37.127" width="1.979" height="0.48"/>
<rect x="162" y="37.127" width="1.26" height="0.48"/>
<polyline style="fill-rule:evenodd;clip-rule:evenodd;fill:#FFFFFF;" points="163.021,30.287 177.18,37.367 163.021,44.447 "/>
<polyline points="163.141,30.107 177.3,37.188 177.78,37.367 162.78,44.867 162.78,44.447 162.9,44.267 177.061,37.188 
	177.3,37.607 177.061,37.607 162.9,30.527 "/>
<polyline points="162.78,44.447 162.78,29.927 163.141,30.107 163.26,30.287 163.26,44.447 "/>
<text transform="matrix(1 0 0 1 0 77.5669)"><tspan x="0" y="0" style="font-family:'ProductusOSGiBookc'; font-size:7.98;">i</tspan><tspan x="1.524" y="0" style="font-family:'ProductusOSGiBookc'; font-size:7.98;">n</tspan><tspan x="5.179" y="0" style="font-family:'ProductusOSGiBookc'; font-size:7.98;">j</tspan><tspan x="6.735" y="0" style="font-family:'ProductusOSGiBookc'; font-size:7.98;">e</tspan><tspan x="10.214" y="0" style="font-family:'ProductusOSGiBookc'; font-size:7.98;">c</tspan><tspan x="13.27" y="0" style="font-family:'ProductusOSGiBookc'; font-size:7.98;">te</tspan><tspan x="19.087" y="0" style="font-family:'ProductusOSGiBookc'; font-size:7.98;">d</tspan><tspan x="22.75" y="0" style="font-family:'ProductusOSGiBookc'; font-size:7.98;"> </tspan><tspan x="24.37" y="0" style="font-family:'ProductusOSGiBookc'; font-size:7.98;">b</tspan><tspan x="28.033" y="0" style="font-family:'ProductusOSGiBookc'; font-size:7.98;">e</tspan><tspan x="31.512" y="0" style="font-family:'ProductusOSGiBookc'; font-size:7.98;">a</tspan><tspan x="34.808" y="0" style="font-family:'ProductusOSGiBookc'; font-size:7.98;">n</tspan><tspan x="38.463" y="0" style="font-family:'ProductusOSGiBookc'; font-size:7.98;">s</tspan></text>
<text transform="matrix(1 0 0 1 129.2998 35.0273)"><tspan x="0" y="0" style="font-family:'ProductusOSGiBookc'; font-size:7.98;">ba</tspan><tspan x="7.015" y="0" style="font-family:'ProductusOSGiBookc'; font-size:7.98;">c</tspan><tspan x="10.078" y="0" style="font-family:'ProductusOSGiBookc'; font-size:7.98;">k</tspan><tspan x="13.318" y="0" style="font-family:'ProductusOSGiBookc'; font-size:7.98;">i</tspan><tspan x="14.826" y="0" style="font-family:'ProductusOSGiBookc'; font-size:7.98;">n</tspan><tspan x="18.481" y="0" style="font-family:'ProductusOSGiBookc'; font-size:7.98;">g</tspan></text>
<text transform="matrix(1 0 0 1 104.7002 77.5669)"><tspan x="0" y="0" style="font-family:'ProductusOSGiBookc'; font-size:7.98;">p</tspan><tspan x="3.679" y="0" style="font-family:'ProductusOSGiBookc'; font-size:7.98;">r</tspan><tspan x="5.722" y="0" style="font-family:'ProductusOSGiBookc'; font-size:7.98;">o</tspan><tspan x="9.265" y="0" style="font-family:'ProductusOSGiBookc'; font-size:7.98;">x</tspan><tspan x="12.209" y="0" style="font-family:'ProductusOSGiBookc'; font-size:7.98;">ie</tspan><tspan x="17.244" y="0" style="font-family:'ProductusOSGiBookc'; font-size:7.98; letter-spacing:78;">s</tspan><tspan x="98.178" y="0" style="font-family:'ProductusOSGiBookc'; font-size:7.98;">serv</tspan><tspan x="109.884" y="0" style="font-family:'ProductusOSGiBookc'; font-size:7.98;">i</tspan><tspan x="111.393" y="0" style="font-family:'ProductusOSGiBookc'; font-size:7.98;">ce</tspan><tspan x="117.96" y="0" style="font-family:'ProductusOSGiBookc'; font-size:7.98;"> </tspan><tspan x="119.523" y="0" style="font-family:'ProductusOSGiBookc'; font-size:7.98;">p</tspan><tspan x="123.202" y="0" style="font-family:'ProductusOSGiBookc'; font-size:7.98;">r</tspan><tspan x="125.245" y="0" style="font-family:'ProductusOSGiBookc'; font-size:7.98;">o</tspan><tspan x="128.853" y="0" style="font-family:'ProductusOSGiBookc'; font-size:7.98;">v</tspan><tspan x="131.98" y="0" style="font-family:'ProductusOSGiBookc'; font-size:7.98;">ider</tspan><tspan x="142.929" y="0" style="font-family:'ProductusOSGiBookc'; font-size:7.98;">s</tspan></text>
<text transform="matrix(1 0 0 1 154.6201 6.6475)"><tspan x="0" y="0" style="font-family:'ProductusOSGiBookc'; font-size:7.98;">ser</tspan><tspan x="8.515" y="0" style="font-family:'ProductusOSGiBookc'; font-size:7.98;">v</tspan><tspan x="11.643" y="0" style="font-family:'ProductusOSGiBookc'; font-size:7.98;">ice</tspan><tspan x="19.734" y="0" style="font-family:'ProductusOSGiBookc'; font-size:7.98;">s</tspan></text>
<polyline style="fill-rule:evenodd;clip-rule:evenodd;fill:#FFFFFF;" points="163.021,8.987 177.18,16.127 163.021,23.208 "/>
<polyline points="163.141,8.807 177.3,15.947 177.66,16.188 162.78,23.627 162.78,23.208 162.9,23.027 177.061,15.947 177.3,16.367 
	177.061,16.367 162.9,9.227 "/>
<polyline points="162.78,23.208 162.78,8.627 163.141,8.807 163.26,8.987 163.26,23.208 "/>
<polyline style="fill-rule:evenodd;clip-rule:evenodd;fill:#FFFFFF;" points="163.021,51.527 177.18,58.607 163.021,65.687 "/>
<polyline points="163.141,51.347 177.3,58.427 177.78,58.607 162.78,66.107 162.78,65.687 162.9,65.507 177.061,58.427 
	177.3,58.847 177.061,58.847 162.9,51.767 "/>
<polyline points="162.78,65.687 162.78,51.167 163.141,51.347 163.26,51.527 163.26,65.687 "/>
<rect x="176.94" y="15.887" width="43.02" height="0.48"/>
<rect x="176.94" y="58.367" width="43.02" height="0.48"/>
<text transform="matrix(1 0 0 1 129.2998 44.7471)"><tspan x="0" y="0" style="font-family:'ProductusOSGiBookc'; font-size:7.98;">serv</tspan><tspan x="11.675" y="0" style="font-family:'ProductusOSGiBookc'; font-size:7.98;">i</tspan><tspan x="13.183" y="0" style="font-family:'ProductusOSGiBookc'; font-size:7.98;">c</tspan><tspan x="16.303" y="0" style="font-family:'ProductusOSGiBookc'; font-size:7.98;">e</tspan></text>
<rect x="106.32" y="51.527" style="fill:#E6E6E6;" width="14.16" height="14.16"/>
<rect x="106.32" y="51.287" width="14.399" height="0.48"/>
<rect x="120.24" y="51.527" width="0.479" height="14.4"/>
<rect x="106.08" y="65.448" width="14.4" height="0.479"/>
<rect x="106.08" y="51.287" width="0.48" height="14.4"/>
<rect x="120.24" y="58.367" width="1.2" height="0.48"/>
<rect x="125.521" y="58.367" width="2.04" height="0.48"/>
<rect x="131.641" y="58.367" width="1.979" height="0.48"/>
<rect x="137.7" y="58.367" width="1.979" height="0.48"/>
<rect x="143.76" y="58.367" width="2.04" height="0.48"/>
<rect x="149.88" y="58.367" width="1.98" height="0.48"/>
<rect x="155.94" y="58.367" width="1.979" height="0.48"/>
<rect x="162" y="58.367" width="1.26" height="0.48"/>
<rect x="106.32" y="8.987" style="fill:#E6E6E6;" width="14.16" height="14.22"/>
<rect x="106.32" y="8.747" width="14.399" height="0.48"/>
<rect x="120.24" y="8.987" width="0.479" height="14.46"/>
<rect x="106.08" y="22.967" width="14.4" height="0.48"/>
<rect x="106.08" y="8.747" width="0.48" height="14.46"/>
<rect x="120.24" y="15.887" width="1.2" height="0.48"/>
<rect x="125.521" y="15.887" width="2.04" height="0.48"/>
<rect x="131.641" y="15.887" width="1.979" height="0.48"/>
<rect x="137.7" y="15.887" width="1.979" height="0.48"/>
<rect x="143.76" y="15.887" width="2.04" height="0.48"/>
<rect x="149.88" y="15.887" width="1.98" height="0.48"/>
<rect x="155.94" y="15.887" width="1.979" height="0.48"/>
<rect x="162" y="15.887" width="1.26" height="0.48"/>
<polyline points="77.82,37.188 77.64,37.307 77.94,37.667 78.12,37.547 "/>
<polyline points="106.2,15.947 106.38,15.827 106.68,16.188 106.5,16.307 "/>
<polyline points="77.82,37.188 78.12,37.547 106.5,16.307 106.2,15.947 "/>
<rect x="77.7" y="37.127" width="28.86" height="0.48"/>
<polyline points="78.12,37.188 77.94,37.067 77.64,37.427 77.82,37.547 "/>
<polyline points="106.5,58.427 106.68,58.547 106.38,58.907 106.2,58.787 "/>
<polyline points="78.12,37.188 77.82,37.547 106.2,58.787 106.5,58.427 "/>
<polyline style="fill-rule:evenodd;clip-rule:evenodd;fill:#FFFFFF;" points="77.94,30.287 77.22,30.287 76.56,30.407 75.84,30.587 
	75.18,30.827 74.58,31.127 73.98,31.487 73.44,31.907 72.96,32.327 72.48,32.867 72.06,33.407 71.7,34.007 71.4,34.607 
	71.04,35.927 70.92,36.647 70.86,37.367 70.92,38.087 71.04,38.807 71.4,40.127 71.7,40.727 72.06,41.327 72.48,41.867 
	73.44,42.827 73.98,43.247 74.58,43.607 75.18,43.907 75.84,44.147 76.56,44.327 77.22,44.387 77.94,44.447 79.38,44.327 
	80.04,44.147 80.7,43.907 81.36,43.607 81.9,43.247 82.44,42.827 82.98,42.347 83.4,41.867 83.82,41.327 84.18,40.727 84.48,40.127 
	84.72,39.467 84.9,38.807 85.02,38.087 85.02,36.647 84.9,35.927 84.72,35.267 84.48,34.607 84.18,34.007 83.82,33.407 
	82.98,32.327 81.9,31.487 81.36,31.127 80.7,30.827 80.04,30.587 79.38,30.407 78.66,30.287 77.94,30.287 "/>
<polyline points="77.94,30.527 77.22,30.527 77.28,30.527 76.62,30.647 75.9,30.827 75.96,30.827 75.3,31.067 74.7,31.367 
	74.1,31.727 74.16,31.667 73.62,32.087 73.14,32.507 72.66,33.047 72.24,33.587 72.3,33.527 71.94,34.127 71.64,34.727 
	71.64,34.667 71.28,35.987 71.16,36.708 71.1,37.427 71.1,37.367 71.16,38.087 71.28,38.807 71.28,38.747 71.64,40.067 
	71.64,40.007 71.94,40.607 72.3,41.208 72.24,41.208 72.66,41.747 72.66,41.688 73.62,42.647 74.16,43.067 74.1,43.067 74.7,43.427 
	75.3,43.727 75.3,43.667 75.96,43.907 75.9,43.907 76.62,44.087 77.28,44.147 78,44.208 77.94,44.208 79.38,44.087 79.32,44.087 
	79.98,43.907 80.64,43.667 80.64,43.727 81.3,43.427 81.24,43.427 81.48,43.847 80.82,44.147 80.16,44.387 80.1,44.387 
	79.44,44.567 78,44.688 77.94,44.688 77.22,44.627 76.56,44.567 76.5,44.567 75.78,44.387 75.12,44.147 75.06,44.147 74.46,43.847 
	73.86,43.487 73.86,43.427 73.32,43.007 73.26,43.007 72.3,42.047 71.88,41.507 71.88,41.447 71.52,40.847 71.22,40.247 
	71.16,40.188 70.8,38.867 70.68,38.147 70.62,37.427 70.62,37.367 70.68,36.647 70.8,35.927 70.8,35.867 71.16,34.547 71.22,34.487 
	71.52,33.887 71.88,33.287 72.3,32.747 72.78,32.208 72.84,32.147 73.32,31.727 73.86,31.307 74.46,30.947 75.06,30.647 
	75.12,30.587 75.78,30.347 76.5,30.167 76.56,30.167 77.22,30.047 77.94,30.047 "/>
<polyline points="81.24,43.427 81.78,43.067 82.32,42.647 82.86,42.167 82.8,42.227 83.22,41.747 83.64,41.208 84,40.607 
	84.3,40.007 84.24,40.067 84.48,39.407 84.66,38.747 84.66,38.807 84.78,38.087 84.78,36.647 84.78,36.708 84.66,35.987 
	84.48,35.327 84.48,35.387 84.24,34.727 84.3,34.727 84,34.127 83.64,33.527 83.64,33.587 82.8,32.507 82.86,32.507 81.78,31.667 
	81.78,31.727 81.24,31.367 81.3,31.367 80.64,31.067 79.98,30.827 79.32,30.647 79.38,30.647 78.66,30.527 77.94,30.527 
	77.94,30.047 78.72,30.047 79.44,30.167 80.1,30.347 80.16,30.347 80.82,30.587 80.82,30.647 81.48,30.947 82.02,31.307 
	82.08,31.307 83.16,32.147 83.16,32.208 84,33.287 84.06,33.287 84.42,33.887 84.72,34.487 84.72,34.547 84.96,35.208 85.14,35.867 
	85.14,35.927 85.26,36.647 85.26,38.147 85.14,38.867 84.96,39.527 84.96,39.587 84.72,40.247 84.42,40.847 84.06,41.447 84,41.507 
	83.58,42.047 83.16,42.527 82.62,43.007 82.08,43.427 82.02,43.487 81.48,43.847 "/>
<text transform="matrix(1 0 0 1 73.8604 51.8271)"><tspan x="0" y="0" style="font-family:'ProductusOSGiBookc'; font-size:7.98;">l</tspan><tspan x="1.508" y="0" style="font-family:'ProductusOSGiBookc'; font-size:7.98;">i</tspan><tspan x="3.064" y="0" style="font-family:'ProductusOSGiBookc'; font-size:7.98;">s</tspan><tspan x="5.881" y="0" style="font-family:'ProductusOSGiBookc'; font-size:7.98;">t</tspan></text>
</svg>
