<?xml version="1.0" encoding="utf-8"?>
<!-- Generator: Adobe Illustrator 16.0.1, SVG Export Plug-In . SVG Version: 6.00 Build 0)  -->
<!DOCTYPE svg PUBLIC "-//W3C//DTD SVG 1.1//EN" "http://www.w3.org/Graphics/SVG/1.1/DTD/svg11.dtd">
<svg version="1.1" id="Layer_1" xmlns="http://www.w3.org/2000/svg" xmlns:xlink="http://www.w3.org/1999/xlink" x="0px" y="0px"
	 width="277.66px" height="80.807px" viewBox="0 0 277.66 80.807" enable-background="new 0 0 277.66 80.807" xml:space="preserve">
<rect x="70.86" y="31.188" fill="#E6E6E6" width="14.16" height="14.16"/>
<rect x="70.86" y="30.947" width="14.4" height="0.479"/>
<rect x="84.78" y="31.188" width="0.48" height="14.399"/>
<rect x="70.62" y="45.107" width="14.4" height="0.479"/>
<rect x="70.62" y="30.947" width="0.48" height="14.4"/>
<rect x="14.16" y="9.888" fill="#FFFFFF" width="14.16" height="14.22"/>
<rect x="14.16" y="9.647" width="14.4" height="0.479"/>
<rect x="28.08" y="9.888" width="0.48" height="14.46"/>
<rect x="13.92" y="23.867" width="14.4" height="0.48"/>
<rect x="13.92" y="9.647" width="0.48" height="14.46"/>
<rect x="14.16" y="52.427" fill="#FFFFFF" width="14.16" height="14.16"/>
<rect x="14.16" y="52.188" width="14.4" height="0.479"/>
<rect x="28.08" y="52.427" width="0.48" height="14.399"/>
<rect x="13.92" y="66.348" width="14.4" height="0.479"/>
<rect x="13.92" y="52.188" width="0.48" height="14.399"/>
<rect x="14.16" y="31.188" fill="#FFFFFF" width="14.16" height="14.16"/>
<rect x="14.16" y="30.947" width="14.4" height="0.479"/>
<rect x="28.08" y="31.188" width="0.48" height="14.399"/>
<rect x="13.92" y="45.107" width="14.4" height="0.479"/>
<rect x="13.92" y="30.947" width="0.48" height="14.4"/>
<polyline points="28.2,59.327 28.02,59.447 28.26,59.867 28.44,59.747 "/>
<polyline points="70.74,38.088 70.92,37.968 71.16,38.388 70.98,38.508 "/>
<polyline points="28.2,59.327 28.44,59.747 70.98,38.508 70.74,38.088 "/>
<rect x="28.08" y="38.027" width="43.02" height="0.479"/>
<polyline points="28.44,16.848 28.26,16.728 28.02,17.147 28.2,17.268 "/>
<polyline points="70.98,38.088 71.16,38.207 70.92,38.627 70.74,38.508 "/>
<polyline points="28.44,16.848 28.2,17.268 70.74,38.508 70.98,38.088 "/>
<rect x="184.259" y="9.888" fill="#FFFFFF" width="14.16" height="14.22"/>
<rect x="184.259" y="9.647" width="14.4" height="0.479"/>
<rect x="198.181" y="9.888" width="0.479" height="14.46"/>
<rect x="184.021" y="23.867" width="14.398" height="0.48"/>
<rect x="184.021" y="9.647" width="0.479" height="14.46"/>
<rect x="184.259" y="52.427" fill="#FFFFFF" width="14.16" height="14.16"/>
<rect x="184.259" y="52.188" width="14.4" height="0.479"/>
<rect x="198.181" y="52.427" width="0.479" height="14.399"/>
<rect x="184.021" y="66.348" width="14.398" height="0.479"/>
<rect x="184.021" y="52.188" width="0.479" height="14.399"/>
<rect x="184.259" y="31.188" fill="#FFFFFF" width="14.16" height="14.16"/>
<rect x="184.259" y="30.947" width="14.4" height="0.479"/>
<rect x="198.181" y="31.188" width="0.479" height="14.399"/>
<rect x="184.021" y="45.107" width="14.398" height="0.479"/>
<rect x="184.021" y="30.947" width="0.479" height="14.4"/>
<rect x="141.48" y="38.027" width="43.02" height="0.479"/>
<rect x="84.78" y="38.027" width="0.24" height="0.479"/>
<rect x="85.02" y="38.027" width="1.02" height="0.479"/>
<rect x="90.12" y="38.027" width="0.24" height="0.479"/>
<rect x="90.36" y="38.027" width="1.74" height="0.479"/>
<rect x="96.18" y="38.027" width="0.24" height="0.479"/>
<rect x="96.42" y="38.027" width="1.74" height="0.479"/>
<rect x="102.24" y="38.027" width="0.24" height="0.479"/>
<rect x="102.48" y="38.027" width="1.8" height="0.479"/>
<rect x="108.36" y="38.027" width="0.24" height="0.479"/>
<rect x="108.601" y="38.027" width="1.739" height="0.479"/>
<rect x="114.42" y="38.027" width="0.24" height="0.479"/>
<rect x="114.66" y="38.027" width="1.74" height="0.479"/>
<rect x="120.48" y="38.027" width="0.24" height="0.479"/>
<rect x="120.721" y="38.027" width="1.8" height="0.479"/>
<rect x="126.54" y="38.027" width="0.24" height="0.479"/>
<rect x="126.78" y="38.027" width="1.02" height="0.479"/>
<polyline fill="#FFFFFF" points="127.561,31.188 141.721,38.268 127.561,45.348 "/>
<polyline points="127.681,31.008 141.839,38.088 142.32,38.268 127.32,45.768 127.32,45.348 127.44,45.167 141.601,38.088 
	141.839,38.508 141.601,38.508 127.44,31.427 "/>
<polyline points="127.32,45.348 127.32,30.827 127.681,31.008 127.8,31.188 127.8,45.348 "/>
<text transform="matrix(1 0 0 1 0 78.4675)" font-family="'ProductusOSGiBookc'" font-size="7.98">injected beans</text>
<text transform="matrix(1 0 0 1 93.54 35.9275)" enable-background="new    "><tspan x="0" y="0" font-family="'ProductusOSGiBookc'" font-size="7.98">backing</tspan><tspan x="0" y="9.576" font-family="'ProductusOSGiBookc'" font-size="7.98">service</tspan></text>
<text transform="matrix(1 0 0 1 70.2002 28.0076)" font-family="'ProductusOSGiBookc'" font-size="7.98">proxy</text>
<text transform="matrix(1 0 0 1 184.2593 78.4675)" font-family="'ProductusOSGiBookc'" font-size="7.98">service providers</text>
<text transform="matrix(1 0 0 1 121.6797 6.6472)" font-family="'ProductusOSGiBookc'" font-size="7.98">services</text>
<polyline fill="#FFFFFF" points="127.561,9.888 141.721,17.027 127.561,24.107 "/>
<polyline points="127.681,9.707 141.839,16.848 142.201,17.088 127.32,24.527 127.32,24.107 127.44,23.927 141.601,16.848 
	141.839,17.268 141.601,17.268 127.44,10.127 "/>
<polyline points="127.32,24.107 127.32,9.527 127.681,9.707 127.8,9.888 127.8,24.107 "/>
<polyline fill="#FFFFFF" points="127.561,52.427 141.721,59.508 127.561,66.588 "/>
<polyline points="127.681,52.247 141.839,59.327 142.32,59.508 127.32,67.008 127.32,66.588 127.44,66.407 141.601,59.327 
	141.839,59.747 141.601,59.747 127.44,52.667 "/>
<polyline points="127.32,66.588 127.32,52.067 127.681,52.247 127.8,52.427 127.8,66.588 "/>
<rect x="141.48" y="16.787" width="0.24" height="0.48"/>
<rect x="141.721" y="16.787" width="42.778" height="0.48"/>
<rect x="141.48" y="59.268" width="0.24" height="0.479"/>
<rect x="141.721" y="59.268" width="42.778" height="0.479"/>
<polyline fill="#FFFFFF" points="240.96,9.888 248.041,13.487 240.96,17.027 "/>
<polyline points="241.08,9.707 248.16,13.308 248.521,13.548 240.721,17.447 240.721,17.027 240.839,16.848 247.919,13.308 
	248.16,13.728 247.919,13.728 240.839,10.127 "/>
<polyline points="240.721,17.027 240.721,9.527 241.08,9.707 241.201,9.888 241.201,17.027 "/>
<text transform="matrix(1 0 0 1 253.8003 10.1873)" enable-background="new    "><tspan x="0" y="0" font-family="'ProductusOSGiBookc'" font-size="7.98">service</tspan><tspan x="0" y="9.576" font-family="'ProductusOSGiBookc'" font-size="7.98">instance</tspan></text>
<rect x="240.601" y="38.088" width="0.238" height="0.479"/>
<rect x="240.839" y="38.088" width="0.961" height="0.479"/>
<rect x="246.96" y="38.088" width="0.24" height="0.479"/>
<rect x="247.201" y="38.088" width="0.959" height="0.479"/>
<text transform="matrix(1 0 0 1 253.8003 39.2869)" enable-background="new    "><tspan x="0" y="0" font-family="'ProductusOSGiBookc'" font-size="7.98">lazily</tspan><tspan x="0" y="9.576" font-family="'ProductusOSGiBookc'" font-size="7.98">fetched</tspan></text>
</svg>
