<?xml version="1.0" encoding="utf-8"?>
<!-- Generator: Adobe Illustrator 16.0.0, SVG Export Plug-In . SVG Version: 6.00 Build 0)  -->
<!DOCTYPE svg PUBLIC "-//W3C//DTD SVG 1.1//EN" "http://www.w3.org/Graphics/SVG/1.1/DTD/svg11.dtd">
<svg version="1.1" id="Layer_1" xmlns="http://www.w3.org/2000/svg" xmlns:xlink="http://www.w3.org/1999/xlink" x="0px" y="0px"
	 width="251.245px" height="125.688px" viewBox="0 0 251.245 125.688" style="enable-background:new 0 0 251.245 125.688;"
	 xml:space="preserve">
<polyline points="109.38,101.087 109.141,101.448 113.101,104.087 113.34,103.728 "/>
<polyline points="111.12,99.228 110.7,99.408 112.98,104.028 113.16,104.148 113.521,104.208 113.4,103.847 "/>
<polyline points="113.16,104.148 113.221,103.667 108.061,103.307 108,103.788 "/>
<polyline points="92.46,89.808 92.28,89.688 92.04,90.107 92.221,90.228 "/>
<polyline points="109.38,101.087 109.561,101.208 109.32,101.627 109.141,101.507 "/>
<polyline points="92.46,89.808 92.221,90.228 109.141,101.507 109.38,101.087 "/>
<polyline points="109.141,106.847 109.38,107.208 113.34,104.627 113.101,104.267 "/>
<polyline points="108.061,104.568 108.12,105.047 113.28,104.688 113.46,104.568 113.641,104.148 113.221,104.208 "/>
<polyline points="113.46,104.568 113.04,104.387 110.76,109.007 111.181,109.188 "/>
<polyline points="92.221,118.188 92.04,118.307 92.28,118.728 92.46,118.608 "/>
<polyline points="109.141,106.847 109.32,106.728 109.561,107.148 109.38,107.267 "/>
<polyline points="92.221,118.188 92.46,118.608 109.38,107.267 109.141,106.847 "/>
<rect x="80.04" y="118.127" width="4.74" height="0.48"/>
<polyline points="80.46,115.608 80.22,116.028 84.66,118.608 84.9,118.608 85.2,118.427 84.9,118.188 "/>
<polyline points="84.9,118.608 84.66,118.188 80.22,120.708 80.46,121.127 "/>
<rect x="49.56" y="118.127" width="30.72" height="0.48"/>
<rect x="0.24" y="33.288" style="fill:#FFFFFF;" width="14.16" height="14.22"/>
<rect x="0.24" y="33.047" width="14.4" height="0.48"/>
<rect x="14.16" y="33.288" width="0.48" height="14.46"/>
<rect y="47.268" width="14.4" height="0.48"/>
<rect y="33.047" width="0.48" height="14.46"/>
<text transform="matrix(1 0 0 1 4.8003 43.2476)" style="font-family:'ProductusSemibold'; font-size:7.98;">A</text>
<rect x="42.72" y="33.288" style="fill:#FFFFFF;" width="14.22" height="14.22"/>
<rect x="42.72" y="33.047" width="14.46" height="0.48"/>
<rect x="56.7" y="33.288" width="0.48" height="14.46"/>
<rect x="42.48" y="47.268" width="14.46" height="0.48"/>
<rect x="42.48" y="33.047" width="0.48" height="14.46"/>
<text transform="matrix(1 0 0 1 47.7002 43.0674)" style="font-family:'ProductusSemibold'; font-size:7.98;">B</text>
<rect x="85.26" y="19.127" style="fill:#B3B3B3;" width="14.16" height="14.16"/>
<rect x="85.26" y="18.888" width="14.4" height="0.48"/>
<rect x="99.181" y="19.127" width="0.479" height="14.4"/>
<rect x="85.021" y="33.047" width="14.399" height="0.48"/>
<rect x="85.021" y="18.888" width="0.479" height="14.4"/>
<text transform="matrix(1 0 0 1 89.5205 28.3677)" style="font-family:'ProductusSemibold'; font-size:7.98;">C</text>
<rect x="85.26" y="61.667" style="fill:#FFFFFF;" width="14.16" height="14.16"/>
<rect x="85.26" y="61.428" width="14.4" height="0.48"/>
<rect x="99.181" y="61.667" width="0.479" height="14.4"/>
<rect x="85.021" y="75.587" width="14.399" height="0.48"/>
<rect x="85.021" y="61.428" width="0.479" height="14.4"/>
<text transform="matrix(1 0 0 1 90 70.9077)" style="font-family:'ProductusSemibold'; font-size:7.98;">D</text>
<rect x="37.56" y="40.127" width="4.68" height="0.48"/>
<polyline points="37.92,37.667 37.68,38.087 42.12,40.607 42.36,40.607 42.78,40.368 42.36,40.188 "/>
<polyline points="42.36,40.607 42.12,40.188 37.68,42.768 37.92,43.188 "/>
<rect x="14.16" y="40.127" width="23.64" height="0.48"/>
<rect x="92.101" y="56.448" width="0.479" height="4.68"/>
<polyline points="95.101,56.808 94.681,56.567 92.101,61.007 92.101,61.248 92.34,61.667 92.521,61.248 "/>
<polyline points="92.101,61.248 92.521,61.007 89.94,56.567 89.521,56.808 "/>
<rect x="92.101" y="33.047" width="0.479" height="23.64"/>
<polyline points="80.52,32.507 80.76,32.988 84.96,30.888 84.721,30.408 "/>
<polyline points="79.68,30.107 79.68,30.587 84.84,30.888 85.08,30.828 85.26,30.527 84.84,30.408 "/>
<polyline points="85.08,30.828 84.66,30.527 81.78,34.848 82.2,35.147 "/>
<polyline points="56.82,44.448 56.64,44.567 56.88,44.988 57.06,44.868 "/>
<polyline points="80.52,32.567 80.7,32.448 80.94,32.868 80.76,32.988 "/>
<polyline points="56.82,44.448 57.06,44.868 80.76,32.988 80.52,32.567 "/>
<rect x="170.04" y="4.728" width="1.26" height="0.48"/>
<rect x="174.3" y="4.728" width="1.62" height="0.48"/>
<rect x="178.86" y="4.728" width="1.68" height="0.48"/>
<rect x="183.48" y="4.728" width="1.26" height="0.48"/>
<rect x="170.04" y="11.808" width="14.7" height="0.48"/>
<text transform="matrix(1 0 0 1 191.5801 6.6475)"><tspan x="0" y="0" style="font-family:'ProductusOSGiBookc'; font-size:7.98;">E</tspan><tspan x="3.399" y="0" style="font-family:'ProductusOSGiBookc'; font-size:7.98;">x</tspan><tspan x="6.344" y="0" style="font-family:'ProductusOSGiBookc'; font-size:7.98;">p</tspan><tspan x="10.022" y="0" style="font-family:'ProductusOSGiBookc'; font-size:7.98;">l</tspan><tspan x="11.531" y="0" style="font-family:'ProductusOSGiBookc'; font-size:7.98;">ici</tspan><tspan x="17.707" y="0" style="font-family:'ProductusOSGiBookc'; font-size:7.98;">t</tspan><tspan x="19.989" y="0" style="font-family:'ProductusOSGiBookc'; font-size:7.98;"> Dependenc</tspan><tspan x="54.741" y="0" style="font-family:'ProductusOSGiBookc'; font-size:7.98;">y</tspan></text>
<text transform="matrix(1 0 0 1 191.5801 14.4473)"><tspan x="0" y="0" style="font-family:'ProductusOSGiBookc'; font-size:7.98;">Impl</tspan><tspan x="12.528" y="0" style="font-family:'ProductusOSGiBookc'; font-size:7.98;">i</tspan><tspan x="14.036" y="0" style="font-family:'ProductusOSGiBookc'; font-size:7.98;">c</tspan><tspan x="17.101" y="0" style="font-family:'ProductusOSGiBookc'; font-size:7.98;">it </tspan><tspan x="22.606" y="0" style="font-family:'ProductusOSGiBookc'; font-size:7.98;">D</tspan><tspan x="27.475" y="0" style="font-family:'ProductusOSGiBookc'; font-size:7.98;">e</tspan><tspan x="30.954" y="0" style="font-family:'ProductusOSGiBookc'; font-size:7.98;">p</tspan><tspan x="34.672" y="0" style="font-family:'ProductusOSGiBookc'; font-size:7.98;">e</tspan><tspan x="38.096" y="0" style="font-family:'ProductusOSGiBookc'; font-size:7.98;">n</tspan><tspan x="41.759" y="0" style="font-family:'ProductusOSGiBookc'; font-size:7.98;">d</tspan><tspan x="45.477" y="0" style="font-family:'ProductusOSGiBookc'; font-size:7.98;">e</tspan><tspan x="48.964" y="0" style="font-family:'ProductusOSGiBookc'; font-size:7.98;">n</tspan><tspan x="52.571" y="0" style="font-family:'ProductusOSGiBookc'; font-size:7.98;">c</tspan><tspan x="55.691" y="0" style="font-family:'ProductusOSGiBookc'; font-size:7.98;">y</tspan></text>
<rect x="177.42" y="19.248" style="fill:#FFFFFF;" width="7.08" height="7.08"/>
<rect x="177.42" y="19.007" width="7.32" height="0.48"/>
<rect x="184.26" y="19.248" width="0.48" height="7.32"/>
<rect x="177.181" y="26.087" width="7.319" height="0.48"/>
<rect x="177.181" y="19.007" width="0.479" height="7.32"/>
<text transform="matrix(1 0 0 1 191.5801 38.7476)"><tspan x="0" y="0" style="font-family:'ProductusOSGiBookc'; font-size:7.98;">P</tspan><tspan x="3.271" y="0" style="font-family:'ProductusOSGiBookc'; font-size:7.98;">r</tspan><tspan x="5.314" y="0" style="font-family:'ProductusOSGiBookc'; font-size:7.98;">o</tspan><tspan x="9.041" y="0" style="font-family:'ProductusOSGiBookc'; font-size:7.98;">t</tspan><tspan x="11.379" y="0" style="font-family:'ProductusOSGiBookc'; font-size:7.98;">o</tspan><tspan x="15.17" y="0" style="font-family:'ProductusOSGiBookc'; font-size:7.98;">t</tspan><tspan x="17.508" y="0" style="font-family:'ProductusOSGiBookc'; font-size:7.98;">y</tspan><tspan x="20.691" y="0" style="font-family:'ProductusOSGiBookc'; font-size:7.98;">p</tspan><tspan x="24.354" y="0" style="font-family:'ProductusOSGiBookc'; font-size:7.98;">e</tspan><tspan x="27.834" y="0" style="font-family:'ProductusOSGiBookc'; font-size:7.98;"> </tspan><tspan x="29.397" y="0" style="font-family:'ProductusOSGiBookc'; font-size:7.98;">Ma</tspan><tspan x="38.574" y="0" style="font-family:'ProductusOSGiBookc'; font-size:7.98;">n</tspan><tspan x="42.182" y="0" style="font-family:'ProductusOSGiBookc'; font-size:7.98;">a</tspan><tspan x="45.478" y="0" style="font-family:'ProductusOSGiBookc'; font-size:7.98;">g</tspan><tspan x="48.965" y="0" style="font-family:'ProductusOSGiBookc'; font-size:7.98;">e</tspan><tspan x="52.443" y="0" style="font-family:'ProductusOSGiBookc'; font-size:7.98;">r</tspan></text>
<polyline points="184.26,65.268 184.141,64.547 183.96,63.888 184.021,63.948 183.721,63.348 183.721,63.408 183.24,62.868 
	183.3,62.868 182.82,62.448 182.82,62.507 182.221,62.147 182.28,62.147 181.62,61.968 181.681,61.968 180.96,61.908 
	181.021,61.908 180.3,61.968 179.641,62.147 179.7,62.147 179.101,62.507 179.16,62.448 178.62,62.868 178.2,63.408 178.26,63.348 
	177.9,63.948 177.9,63.888 177.721,64.547 177.66,65.268 177.66,65.208 177.721,65.928 177.721,65.868 177.9,66.527 177.9,66.468 
	178.26,67.067 178.2,67.067 178.62,67.607 178.62,67.547 179.16,67.968 179.101,67.968 179.7,68.268 179.7,68.208 180.36,68.448 
	180.3,68.448 181.021,68.507 180.96,68.507 181.681,68.448 181.62,68.448 182.28,68.208 182.221,68.268 182.82,67.968 183.3,67.547 
	183.24,67.607 183.721,67.067 184.021,66.468 183.96,66.527 184.141,65.868 184.141,65.928 184.26,65.208 184.74,65.268 
	184.62,65.988 184.44,66.647 184.44,66.708 184.141,67.308 184.08,67.368 183.601,67.908 183.12,68.328 183.061,68.388 
	182.46,68.688 181.8,68.928 181.74,68.928 181.021,68.988 180.96,68.988 180.24,68.928 180.181,68.928 179.521,68.688 
	179.46,68.688 178.86,68.388 178.86,68.328 178.32,67.908 178.26,67.908 177.84,67.368 177.84,67.308 177.48,66.708 177.42,66.647 
	177.24,65.988 177.181,65.268 177.181,65.208 177.24,64.488 177.24,64.428 177.42,63.768 177.48,63.708 177.84,63.107 
	178.26,62.567 178.32,62.507 178.86,62.087 179.46,61.728 179.521,61.667 180.181,61.488 180.24,61.488 180.96,61.428 
	181.021,61.428 181.74,61.488 182.4,61.667 182.46,61.728 183.061,62.087 183.12,62.087 183.601,62.507 183.601,62.567 
	184.08,63.107 184.141,63.107 184.44,63.708 184.44,63.768 184.62,64.428 184.62,64.488 184.74,65.208 "/>
<polyline points="184.26,65.208 184.26,65.268 184.74,65.208 184.74,65.268 "/>
<text transform="matrix(1 0 0 1 191.5801 67.1274)"><tspan x="0" y="0" style="font-family:'ProductusOSGiBookc'; font-size:7.98;">C</tspan><tspan x="4.205" y="0" style="font-family:'ProductusOSGiBookc'; font-size:7.98;">o</tspan><tspan x="7.979" y="0" style="font-family:'ProductusOSGiBookc'; font-size:7.98;">m</tspan><tspan x="13.686" y="0" style="font-family:'ProductusOSGiBookc'; font-size:7.98;">p</tspan><tspan x="17.349" y="0" style="font-family:'ProductusOSGiBookc'; font-size:7.98;">o</tspan><tspan x="21.123" y="0" style="font-family:'ProductusOSGiBookc'; font-size:7.98;">nent</tspan><tspan x="34.25" y="0" style="font-family:'ProductusOSGiBookc'; font-size:7.98;"> </tspan><tspan x="35.813" y="0" style="font-family:'ProductusOSGiBookc'; font-size:7.98;">In</tspan><tspan x="41.024" y="0" style="font-family:'ProductusOSGiBookc'; font-size:7.98;">s</tspan><tspan x="43.841" y="0" style="font-family:'ProductusOSGiBookc'; font-size:7.98;">t</tspan><tspan x="46.18" y="0" style="font-family:'ProductusOSGiBookc'; font-size:7.98;">a</tspan><tspan x="49.475" y="0" style="font-family:'ProductusOSGiBookc'; font-size:7.98;">n</tspan><tspan x="53.13" y="0" style="font-family:'ProductusOSGiBookc'; font-size:7.98;">ce</tspan></text>
<rect x="42.72" y="4.968" style="fill:#FFFFFF;" width="14.22" height="14.16"/>
<rect x="42.72" y="4.728" width="14.46" height="0.48"/>
<rect x="56.7" y="4.968" width="0.48" height="14.4"/>
<rect x="42.48" y="18.888" width="14.46" height="0.48"/>
<rect x="42.48" y="4.728" width="0.48" height="14.4"/>
<text transform="matrix(1 0 0 1 47.8804 14.6875)" style="font-family:'ProductusSemibold'; font-size:7.98;">E</text>
<polyline points="80.76,23.627 80.52,24.107 84.721,26.208 84.96,25.728 "/>
<polyline points="82.141,21.587 81.721,21.888 84.601,26.147 84.84,26.208 85.32,26.208 85.021,25.848 "/>
<polyline points="84.84,26.208 84.84,25.728 79.68,26.087 79.68,26.567 "/>
<polyline points="57.06,11.868 56.88,11.748 56.64,12.167 56.82,12.288 "/>
<polyline points="80.76,23.688 80.94,23.808 80.7,24.228 80.52,24.107 "/>
<polyline points="57.06,11.868 56.82,12.288 80.52,24.107 80.76,23.688 "/>
<rect x="177.42" y="33.288" style="fill:#B3B3B3;" width="7.08" height="7.08"/>
<rect x="177.42" y="33.047" width="7.32" height="0.48"/>
<rect x="184.26" y="33.288" width="0.48" height="7.32"/>
<rect x="177.181" y="40.127" width="7.319" height="0.48"/>
<rect x="177.181" y="33.047" width="0.479" height="7.32"/>
<text transform="matrix(1 0 0 1 191.5801 24.3477)"><tspan x="0" y="0" style="font-family:'ProductusOSGiBookc'; font-size:7.98;">S</tspan><tspan x="3.694" y="0" style="font-family:'ProductusOSGiBookc'; font-size:7.98;">i</tspan><tspan x="5.203" y="0" style="font-family:'ProductusOSGiBookc'; font-size:7.98;">nglet</tspan><tspan x="19.718" y="0" style="font-family:'ProductusOSGiBookc'; font-size:7.98;">o</tspan><tspan x="23.444" y="0" style="font-family:'ProductusOSGiBookc'; font-size:7.98;">n</tspan><tspan x="27.107" y="0" style="font-family:'ProductusOSGiBookc'; font-size:7.98;"> </tspan><tspan x="28.728" y="0" style="font-family:'ProductusOSGiBookc'; font-size:7.98;">Manage</tspan><tspan x="51.789" y="0" style="font-family:'ProductusOSGiBookc'; font-size:7.98;">r</tspan></text>
<polyline style="fill-rule:evenodd;clip-rule:evenodd;fill:#FFFFFF;" points="14.4,118.368 14.28,116.927 14.1,116.267 
	13.86,115.608 13.56,114.948 13.2,114.408 12.78,113.868 12.3,113.328 11.82,112.908 11.28,112.488 10.68,112.127 10.08,111.828 
	9.42,111.587 8.76,111.408 8.04,111.288 6.6,111.288 5.88,111.408 5.22,111.587 4.56,111.828 3.9,112.127 3.36,112.488 
	2.28,113.328 1.44,114.408 1.08,114.948 0.78,115.608 0.54,116.267 0.36,116.927 0.24,117.648 0.24,119.087 0.36,119.748 
	0.54,120.467 0.78,121.127 1.08,121.728 1.44,122.328 1.86,122.868 2.28,123.347 2.82,123.828 3.36,124.248 3.9,124.608 
	5.22,125.087 5.88,125.267 6.6,125.387 7.32,125.448 8.04,125.387 8.76,125.267 9.42,125.087 10.08,124.847 10.68,124.608 
	11.28,124.248 11.82,123.828 12.78,122.868 13.2,122.328 13.56,121.728 13.86,121.127 14.1,120.467 14.28,119.748 14.34,119.087 
	14.4,118.368 "/>
<polyline points="14.16,118.427 14.04,116.988 13.86,116.328 13.86,116.387 13.62,115.728 13.68,115.728 13.38,115.068 
	13.02,114.528 13.02,114.587 12.6,114.047 12.12,113.507 12.18,113.507 11.7,113.087 11.16,112.667 11.16,112.728 10.56,112.368 
	9.96,112.068 10.02,112.068 9.36,111.828 8.7,111.648 8.76,111.648 8.04,111.528 6.6,111.528 6.66,111.528 5.94,111.648 
	5.28,111.828 5.34,111.828 4.68,112.068 4.02,112.368 3.48,112.728 3.54,112.667 2.46,113.507 1.62,114.587 1.68,114.528 
	1.32,115.068 1.02,115.728 0.78,116.387 0.78,116.328 0.6,116.988 0.48,117.708 0.48,117.648 0.48,119.087 0.6,119.748 0.6,119.688 
	0.78,120.408 1.02,121.068 1.02,121.007 1.32,121.608 1.68,122.208 1.62,122.208 2.04,122.748 2.46,123.228 2.46,123.167 3,123.648 
	2.7,124.007 2.16,123.528 2.1,123.528 1.68,123.047 1.26,122.507 1.26,122.448 0.9,121.847 0.6,121.248 0.54,121.248 0.3,120.587 
	0.3,120.528 0.12,119.807 0,119.148 0,117.648 0.12,116.927 0.12,116.868 0.3,116.208 0.54,115.547 0.6,115.547 0.9,114.887 
	0.9,114.828 1.26,114.288 2.1,113.208 2.16,113.148 3.24,112.307 3.78,111.948 3.84,111.948 4.5,111.648 4.5,111.587 5.16,111.347 
	5.82,111.167 5.88,111.167 6.6,111.047 8.1,111.047 8.82,111.167 9.48,111.347 9.54,111.347 10.2,111.587 10.2,111.648 
	10.8,111.948 11.4,112.307 11.46,112.307 12,112.728 12.48,113.148 12.48,113.208 12.96,113.748 13.38,114.288 13.44,114.288 
	13.8,114.828 13.8,114.887 14.1,115.547 14.34,116.208 14.52,116.868 14.52,116.927 14.64,118.368 "/>
<polyline points="3,123.648 3.54,124.068 3.48,124.068 4.02,124.427 4.02,124.368 5.34,124.847 5.28,124.847 5.94,125.028 
	6.66,125.148 7.38,125.208 7.32,125.208 8.04,125.148 8.76,125.028 8.7,125.028 9.36,124.847 10.02,124.608 10.02,124.667 
	10.62,124.427 10.56,124.427 11.16,124.068 11.7,123.648 11.64,123.648 12.6,122.688 12.6,122.748 13.02,122.208 13.38,121.608 
	13.68,121.007 13.62,121.068 13.86,120.408 14.04,119.688 14.04,119.748 14.1,119.087 14.16,118.368 14.16,118.427 14.64,118.368 
	14.64,118.427 14.58,119.148 14.52,119.807 14.34,120.528 14.34,120.587 14.1,121.248 13.8,121.847 13.44,122.448 13.38,122.507 
	12.96,123.047 12,124.007 11.46,124.427 11.4,124.488 10.8,124.847 10.2,125.087 9.54,125.328 9.48,125.328 8.82,125.507 
	8.1,125.627 7.38,125.688 7.32,125.688 6.6,125.627 5.88,125.507 5.82,125.507 5.16,125.328 3.84,124.847 3.78,124.847 
	3.24,124.488 3.24,124.427 2.7,124.007 "/>
<polyline style="fill-rule:evenodd;clip-rule:evenodd;fill:#FFFFFF;" points="56.94,89.988 56.88,89.268 56.76,88.547 56.58,87.888 
	56.34,87.228 56.04,86.627 55.68,86.027 55.32,85.488 54.36,84.527 53.82,84.107 53.22,83.748 52.56,83.448 51.96,83.208 
	51.24,83.027 50.58,82.968 49.8,82.908 49.08,82.968 48.42,83.027 47.7,83.208 47.1,83.448 46.44,83.748 45.84,84.107 45.3,84.527 
	44.34,85.488 43.98,86.027 43.62,86.627 43.32,87.228 43.08,87.888 42.9,88.547 42.78,89.268 42.72,89.988 42.78,90.708 
	42.9,91.428 43.08,92.087 43.32,92.748 43.62,93.348 43.98,93.948 44.34,94.488 44.82,95.027 45.3,95.448 45.84,95.868 
	46.44,96.228 47.1,96.527 47.7,96.768 48.42,96.948 49.08,97.067 50.58,97.067 51.24,96.948 51.96,96.768 52.56,96.527 
	53.22,96.228 53.82,95.868 54.36,95.448 54.84,95.027 55.32,94.488 55.68,93.948 56.04,93.348 56.34,92.748 56.58,92.087 
	56.76,91.428 56.88,90.708 56.94,89.988 "/>
<polyline points="56.7,90.047 56.64,89.328 56.52,88.607 56.34,87.948 56.34,88.007 56.1,87.348 56.16,87.348 55.86,86.748 
	55.5,86.147 55.14,85.607 55.14,85.667 54.18,84.708 54.24,84.708 53.7,84.288 53.7,84.348 53.1,83.988 53.16,83.988 52.5,83.688 
	51.9,83.448 51.18,83.268 51.24,83.268 50.58,83.208 49.8,83.147 49.86,83.147 49.14,83.208 48.48,83.268 47.76,83.448 
	47.82,83.448 47.22,83.688 46.56,83.988 45.96,84.348 46.02,84.288 45.48,84.708 44.52,85.667 44.58,85.607 44.22,86.147 
	43.86,86.748 43.56,87.348 43.32,88.007 43.32,87.948 43.14,88.607 43.02,89.328 42.96,90.047 42.96,89.988 43.02,90.708 
	43.14,91.428 43.14,91.368 43.32,92.027 43.56,92.688 43.56,92.627 43.86,93.228 44.22,93.828 44.58,94.368 44.52,94.368 45,94.908 
	45,94.848 45.48,95.268 45.18,95.627 44.7,95.208 44.64,95.208 44.16,94.667 44.16,94.607 43.8,94.067 43.44,93.468 43.14,92.868 
	43.08,92.868 42.84,92.208 42.84,92.147 42.66,91.488 42.54,90.768 42.48,90.047 42.48,89.988 42.54,89.268 42.66,88.547 
	42.66,88.488 42.84,87.828 43.08,87.167 43.14,87.107 43.44,86.507 43.8,85.908 44.16,85.368 44.16,85.308 45.12,84.348 
	45.18,84.348 45.72,83.928 46.32,83.567 46.38,83.567 47.04,83.268 47.64,83.027 47.64,82.968 48.36,82.788 48.42,82.788 
	49.08,82.728 49.8,82.667 49.86,82.667 50.64,82.728 51.3,82.788 52.02,82.968 52.08,83.027 52.68,83.268 53.34,83.567 
	53.94,83.928 54,83.928 54.54,84.348 55.56,85.368 55.92,85.908 56.28,86.507 56.58,87.107 56.58,87.167 56.82,87.828 57,88.488 
	57,88.547 57.12,89.268 57.18,89.988 "/>
<polyline points="45.48,95.268 46.02,95.688 45.96,95.688 46.56,96.047 47.22,96.348 47.82,96.587 47.76,96.527 48.48,96.708 
	49.14,96.828 49.08,96.828 50.58,96.828 51.24,96.708 51.18,96.708 51.9,96.527 51.9,96.587 52.5,96.348 53.16,96.047 53.1,96.047 
	53.7,95.688 54.24,95.268 54.72,94.848 54.66,94.908 55.14,94.368 55.5,93.828 55.86,93.228 56.16,92.627 56.1,92.688 56.34,92.027 
	56.52,91.368 56.52,91.428 56.64,90.708 56.7,89.988 56.7,90.047 57.18,89.988 57.18,90.047 57.12,90.768 57,91.488 56.82,92.147 
	56.82,92.208 56.58,92.868 56.28,93.468 55.92,94.067 55.56,94.607 55.5,94.667 55.02,95.208 54.54,95.627 54,96.047 53.94,96.107 
	53.34,96.468 52.68,96.768 52.08,97.007 52.02,97.007 51.3,97.188 50.64,97.308 49.08,97.308 48.42,97.188 48.36,97.188 
	47.64,97.007 47.04,96.768 46.38,96.468 46.32,96.468 45.72,96.107 45.72,96.047 45.18,95.627 "/>
<polyline style="fill-rule:evenodd;clip-rule:evenodd;fill:#FFFFFF;" points="56.94,118.368 56.88,117.648 56.76,116.927 
	56.58,116.267 56.34,115.608 56.04,114.948 55.32,113.868 54.84,113.328 54.36,112.908 53.82,112.488 53.22,112.127 52.56,111.828 
	51.96,111.587 51.24,111.408 50.58,111.288 49.08,111.288 48.42,111.408 47.7,111.587 47.1,111.828 46.44,112.127 45.84,112.488 
	45.3,112.908 44.82,113.328 44.34,113.868 43.62,114.948 43.32,115.608 43.08,116.267 42.9,116.927 42.78,117.648 42.72,118.368 
	42.78,119.087 42.9,119.748 43.08,120.467 43.32,121.127 43.62,121.728 43.98,122.328 44.34,122.868 45.3,123.828 45.84,124.248 
	46.44,124.608 47.1,124.847 47.7,125.087 48.42,125.267 49.08,125.387 49.8,125.448 50.58,125.387 51.24,125.267 51.96,125.087 
	52.56,124.847 53.22,124.608 53.82,124.248 54.36,123.828 55.32,122.868 55.68,122.328 56.04,121.728 56.34,121.127 56.58,120.467 
	56.76,119.748 56.88,119.087 56.94,118.368 "/>
<polyline points="56.7,118.427 56.64,117.708 56.52,116.988 56.34,116.328 56.34,116.387 56.1,115.728 56.16,115.728 55.86,115.068 
	55.14,113.988 55.14,114.047 54.66,113.507 54.72,113.507 54.24,113.087 53.7,112.667 53.7,112.728 53.1,112.368 53.16,112.368 
	52.5,112.068 51.9,111.828 51.18,111.648 51.24,111.648 50.58,111.528 49.08,111.528 49.14,111.528 48.48,111.648 47.76,111.828 
	47.82,111.828 47.22,112.068 46.56,112.368 45.96,112.728 46.02,112.667 45.48,113.087 45,113.507 44.52,114.047 44.58,113.988 
	43.86,115.068 43.56,115.728 43.32,116.387 43.32,116.328 43.14,116.988 43.02,117.708 42.96,118.427 42.96,118.368 43.02,119.087 
	43.14,119.748 43.14,119.688 43.32,120.408 43.56,121.068 43.56,121.007 43.86,121.608 44.22,122.208 44.58,122.748 44.52,122.688 
	45.48,123.648 45.18,124.007 45.12,124.007 44.16,123.047 44.16,122.988 43.8,122.448 43.44,121.847 43.14,121.248 43.08,121.248 
	42.84,120.587 42.84,120.528 42.66,119.807 42.54,119.148 42.48,118.427 42.48,118.368 42.54,117.648 42.66,116.927 42.66,116.868 
	42.84,116.208 43.08,115.547 43.14,115.547 43.44,114.887 43.44,114.828 44.16,113.748 44.64,113.208 44.7,113.148 45.18,112.728 
	45.72,112.307 46.32,111.948 46.38,111.948 47.04,111.648 47.64,111.408 47.64,111.347 48.36,111.167 48.42,111.167 49.08,111.047 
	50.64,111.047 51.3,111.167 52.02,111.347 52.08,111.408 52.68,111.648 53.34,111.948 53.94,112.307 54,112.307 54.54,112.728 
	55.02,113.148 55.02,113.208 55.5,113.748 55.56,113.748 56.28,114.828 56.28,114.887 56.58,115.547 56.82,116.208 57,116.868 
	57,116.927 57.12,117.648 57.18,118.368 "/>
<polyline points="45.48,123.648 46.02,124.068 45.96,124.068 46.56,124.427 46.56,124.368 47.22,124.608 47.22,124.667 
	47.82,124.908 47.76,124.847 48.48,125.028 49.14,125.148 49.86,125.208 49.8,125.208 50.58,125.148 51.24,125.028 51.18,125.028 
	51.9,124.847 51.9,124.908 52.5,124.667 52.5,124.608 53.16,124.368 53.1,124.427 53.7,124.068 54.24,123.648 54.18,123.648 
	55.14,122.688 55.14,122.748 55.5,122.208 55.86,121.608 56.16,121.007 56.1,121.068 56.34,120.408 56.52,119.688 56.52,119.748 
	56.64,119.087 56.7,118.368 56.7,118.427 57.18,118.368 57.18,118.427 57.12,119.148 57,119.807 56.82,120.528 56.82,120.587 
	56.58,121.248 56.28,121.847 55.92,122.448 55.56,122.988 54.54,124.007 54,124.427 53.94,124.488 53.34,124.847 52.68,125.087 
	52.08,125.328 52.02,125.328 51.3,125.507 50.64,125.627 49.86,125.688 49.8,125.688 49.08,125.627 48.42,125.507 48.36,125.507 
	47.64,125.328 47.04,125.087 46.38,124.847 46.32,124.847 45.72,124.488 45.72,124.427 45.18,124.007 "/>
<polyline style="fill-rule:evenodd;clip-rule:evenodd;fill:#FFFFFF;" points="127.8,104.148 127.74,103.427 127.62,102.767 
	127.44,102.047 127.2,101.388 126.601,100.188 126.181,99.647 125.221,98.688 124.681,98.268 123.48,97.667 122.82,97.428 
	122.101,97.248 121.44,97.127 120.721,97.067 120,97.127 119.28,97.248 118.62,97.428 117.96,97.667 117.3,97.968 116.76,98.268 
	116.16,98.688 115.2,99.647 114.84,100.188 114.48,100.788 114.181,101.388 113.94,102.047 113.76,102.767 113.641,103.427 
	113.641,104.927 113.76,105.587 113.94,106.307 114.181,106.908 114.48,107.568 114.84,108.108 115.2,108.708 116.16,109.667 
	116.76,110.028 117.3,110.387 117.96,110.688 118.62,110.927 119.28,111.108 120,111.228 120.721,111.288 121.44,111.228 
	122.101,111.108 122.82,110.927 123.48,110.688 124.08,110.387 124.681,110.028 125.221,109.667 126.181,108.708 126.601,108.108 
	126.9,107.568 127.2,106.908 127.44,106.307 127.62,105.587 127.74,104.927 127.8,104.148 "/>
<polyline points="127.561,104.208 127.5,103.488 127.38,102.828 127.2,102.108 127.2,102.167 126.96,101.507 127.021,101.507 
	126.42,100.308 126.42,100.368 126,99.828 125.04,98.868 125.101,98.868 124.561,98.448 124.561,98.507 123.36,97.908 
	123.42,97.908 122.76,97.667 122.04,97.488 122.101,97.488 121.44,97.368 120.721,97.308 120.78,97.308 120.061,97.368 
	119.34,97.488 118.681,97.667 118.74,97.667 118.08,97.908 117.42,98.208 116.88,98.507 116.94,98.507 116.34,98.928 116.34,98.868 
	115.38,99.828 115.44,99.768 115.08,100.308 114.721,100.908 114.42,101.507 114.181,102.167 114.181,102.108 114,102.828 
	113.88,103.488 113.88,103.427 113.88,104.927 114,105.587 114,105.528 114.181,106.248 114.42,106.847 114.721,107.507 
	114.721,107.448 115.08,107.988 115.44,108.587 115.38,108.528 116.34,109.488 116.28,109.488 116.04,109.908 115.98,109.847 
	115.021,108.887 115.021,108.828 114.66,108.228 114.3,107.688 114,107.028 113.76,106.427 113.7,106.368 113.521,105.648 
	113.4,104.988 113.4,103.427 113.521,102.767 113.521,102.708 113.7,101.988 113.94,101.328 114,101.268 114.3,100.667 
	114.66,100.067 115.021,99.527 115.021,99.468 115.98,98.507 116.04,98.507 116.641,98.087 117.181,97.788 117.24,97.788 
	117.9,97.488 117.9,97.428 118.561,97.188 119.221,97.007 119.28,97.007 120,96.888 120.721,96.828 120.78,96.828 121.5,96.888 
	122.16,97.007 122.88,97.188 122.94,97.188 123.601,97.428 123.601,97.488 124.8,98.087 124.86,98.087 125.4,98.507 126.36,99.468 
	126.36,99.527 126.78,100.067 126.84,100.067 127.44,101.268 127.44,101.328 127.681,101.988 127.86,102.708 127.86,102.767 
	127.98,103.427 128.04,104.148 "/>
<polyline points="116.28,109.488 116.88,109.847 117.42,110.208 118.08,110.507 118.08,110.448 118.74,110.688 118.681,110.688 
	119.34,110.868 120.061,110.988 120.78,111.047 120.721,111.047 121.44,110.988 122.101,110.868 122.04,110.868 122.76,110.688 
	123.42,110.448 123.36,110.507 123.96,110.208 124.561,109.847 125.101,109.488 125.04,109.488 126,108.528 126,108.587 
	126.42,107.988 126.721,107.448 126.721,107.507 127.021,106.847 127.26,106.248 127.2,106.248 127.38,105.528 127.38,105.587 
	127.5,104.927 127.561,104.148 127.561,104.208 128.04,104.148 128.04,104.208 127.98,104.988 127.86,105.648 127.681,106.368 
	127.681,106.427 127.44,107.028 127.141,107.688 126.84,108.228 126.84,108.288 126.42,108.887 126.36,108.887 125.34,109.908 
	124.8,110.267 124.2,110.627 123.601,110.927 122.94,111.167 122.88,111.167 122.16,111.347 121.5,111.467 120.78,111.528 
	120.721,111.528 120,111.467 119.28,111.347 119.221,111.347 118.561,111.167 117.9,110.927 117.24,110.627 117.181,110.627 
	116.641,110.267 116.04,109.908 "/>
<polyline style="fill-rule:evenodd;clip-rule:evenodd;fill:#FFFFFF;" points="99.42,89.988 99.42,89.268 99.3,88.547 99.12,87.888 
	98.88,87.228 98.58,86.627 98.221,86.027 97.8,85.488 97.38,85.007 96.84,84.527 96.3,84.107 95.7,83.748 95.101,83.448 
	94.44,83.208 93.78,83.027 92.34,82.908 90.9,83.027 90.24,83.208 89.58,83.448 88.98,83.748 88.38,84.107 87.84,84.527 
	86.88,85.488 86.46,86.027 86.101,86.627 85.8,87.228 85.561,87.888 85.38,88.547 85.26,89.988 85.38,91.428 85.561,92.087 
	85.8,92.748 86.101,93.348 86.46,93.948 86.88,94.488 87.36,95.027 87.84,95.448 88.38,95.868 88.98,96.228 89.58,96.527 
	90.24,96.768 90.9,96.948 91.62,97.067 93.061,97.067 93.78,96.948 94.44,96.768 95.101,96.527 95.7,96.228 96.3,95.868 
	97.38,95.027 98.221,93.948 98.58,93.348 98.88,92.748 99.12,92.087 99.3,91.428 99.42,90.708 99.42,89.988 "/>
<polyline points="99.181,89.988 99.181,89.268 99.181,89.328 99.061,88.607 98.88,87.948 98.88,88.007 98.641,87.348 98.7,87.348 
	98.4,86.748 98.04,86.147 98.04,86.208 97.62,85.667 97.2,85.188 97.26,85.188 96.721,84.708 96.181,84.288 96.181,84.348 
	95.58,83.988 94.98,83.688 95.04,83.688 94.38,83.448 93.721,83.268 93.78,83.268 92.34,83.147 92.4,83.147 90.96,83.268 
	90.3,83.448 90.36,83.448 89.7,83.688 89.101,83.988 88.5,84.348 88.561,84.288 88.021,84.708 87.061,85.667 86.641,86.208 
	86.7,86.147 86.34,86.748 86.04,87.348 85.8,88.007 85.8,87.948 85.62,88.607 85.5,90.047 85.5,89.988 85.62,91.428 85.62,91.368 
	85.8,92.027 86.04,92.688 86.04,92.627 86.34,93.228 86.7,93.828 86.641,93.828 87.061,94.368 87.54,94.908 87.54,94.848 
	88.021,95.268 87.721,95.627 87.24,95.208 87.181,95.208 86.7,94.667 86.28,94.127 86.28,94.067 85.92,93.468 85.62,92.868 
	85.561,92.868 85.32,92.208 85.32,92.147 85.141,91.488 85.021,90.047 85.021,89.988 85.141,88.547 85.141,88.488 85.32,87.828 
	85.561,87.167 85.62,87.107 85.92,86.507 86.28,85.908 86.7,85.368 86.7,85.308 87.66,84.348 87.721,84.348 88.26,83.928 
	88.86,83.567 89.46,83.268 89.521,83.208 90.181,82.968 90.84,82.788 90.9,82.788 92.34,82.667 92.4,82.667 93.84,82.788 
	94.5,82.968 94.561,82.968 95.221,83.208 95.221,83.268 95.82,83.567 96.42,83.928 96.48,83.928 97.021,84.348 97.561,84.828 
	97.561,84.888 97.98,85.368 98.4,85.908 98.46,85.908 98.82,86.507 99.12,87.107 99.12,87.167 99.36,87.828 99.54,88.488 
	99.54,88.547 99.66,89.268 99.66,89.988 "/>
<polyline points="88.021,95.268 88.561,95.688 88.5,95.688 89.101,96.047 89.7,96.348 89.7,96.288 90.36,96.527 90.3,96.527 
	90.96,96.708 91.681,96.828 91.62,96.828 93.061,96.828 93.78,96.708 93.721,96.708 94.38,96.527 95.04,96.288 94.98,96.348 
	95.58,96.047 96.181,95.688 97.26,94.848 97.2,94.908 98.04,93.828 98.4,93.228 98.7,92.627 98.641,92.688 98.88,92.027 
	99.061,91.368 99.061,91.428 99.181,90.708 99.181,89.988 99.66,89.988 99.66,90.768 99.54,91.488 99.36,92.147 99.36,92.208 
	99.12,92.868 98.82,93.468 98.46,94.067 98.4,94.127 97.561,95.208 96.48,96.047 96.42,96.107 95.82,96.468 95.221,96.768 
	94.561,97.007 94.5,97.007 93.84,97.188 93.12,97.308 91.62,97.308 90.9,97.188 90.84,97.188 90.181,97.007 89.521,96.768 
	89.46,96.768 88.86,96.468 88.26,96.107 88.26,96.047 87.721,95.627 "/>
<rect x="37.56" y="118.127" width="4.68" height="0.48"/>
<polyline points="37.92,115.608 37.68,116.028 42.12,118.608 42.36,118.608 42.66,118.427 42.36,118.188 "/>
<polyline points="42.36,118.608 42.12,118.188 37.68,120.708 37.92,121.127 "/>
<rect x="14.16" y="118.127" width="23.64" height="0.48"/>
<rect x="80.04" y="89.748" width="4.74" height="0.48"/>
<polyline points="80.46,87.228 80.22,87.647 84.66,90.228 84.9,90.228 85.32,89.988 84.9,89.808 "/>
<polyline points="84.9,90.228 84.66,89.808 80.22,92.388 80.46,92.808 "/>
<rect x="56.7" y="89.748" width="23.58" height="0.48"/>
<polyline style="fill-rule:evenodd;clip-rule:evenodd;fill:#FFFFFF;" points="99.42,118.368 99.42,117.648 99.3,116.927 
	99.12,116.267 98.88,115.608 98.58,114.948 98.221,114.408 97.38,113.328 96.3,112.488 95.7,112.127 95.101,111.828 94.44,111.587 
	93.78,111.408 93.061,111.288 91.62,111.288 90.9,111.408 90.24,111.587 89.58,111.828 88.98,112.127 88.38,112.488 87.84,112.908 
	87.36,113.328 86.88,113.868 86.46,114.408 86.101,114.948 85.8,115.608 85.561,116.267 85.38,116.927 85.26,118.368 85.32,119.087 
	85.38,119.748 85.561,120.467 85.8,121.127 86.101,121.728 86.46,122.328 86.88,122.868 87.84,123.828 88.38,124.248 88.98,124.608 
	89.58,124.847 90.24,125.087 90.9,125.267 91.62,125.387 92.34,125.448 93.061,125.387 93.78,125.267 94.44,125.087 95.101,124.847 
	95.7,124.608 96.3,124.248 96.84,123.828 97.38,123.347 97.8,122.868 98.221,122.328 98.58,121.728 98.88,121.127 99.12,120.467 
	99.3,119.748 99.42,119.087 99.42,118.368 "/>
<polyline points="99.181,118.368 99.181,117.648 99.181,117.708 99.061,116.988 98.88,116.328 98.88,116.387 98.641,115.728 
	98.7,115.728 98.4,115.068 98.04,114.528 98.04,114.587 97.2,113.507 97.26,113.507 96.181,112.667 96.181,112.728 95.58,112.368 
	94.98,112.068 95.04,112.068 94.38,111.828 93.721,111.648 93.78,111.648 93.061,111.528 91.62,111.528 91.681,111.528 
	90.96,111.648 90.3,111.828 90.36,111.828 89.7,112.068 89.101,112.368 88.5,112.728 88.561,112.667 88.021,113.087 87.54,113.507 
	87.061,114.047 86.641,114.587 86.7,114.528 86.34,115.068 86.04,115.728 85.8,116.387 85.8,116.328 85.62,116.988 85.5,118.427 
	85.5,118.368 85.561,119.087 85.62,119.748 85.62,119.688 85.8,120.408 86.04,121.068 86.04,121.007 86.34,121.608 86.7,122.208 
	86.641,122.208 87.061,122.748 87.061,122.688 88.021,123.648 87.721,124.007 87.66,124.007 86.7,123.047 86.28,122.507 
	86.28,122.448 85.92,121.847 85.62,121.248 85.561,121.248 85.32,120.587 85.32,120.528 85.141,119.807 85.08,119.148 
	85.021,118.427 85.021,118.368 85.141,116.927 85.141,116.868 85.32,116.208 85.561,115.547 85.62,115.547 85.92,114.887 
	85.92,114.828 86.28,114.288 86.7,113.748 87.181,113.208 87.24,113.148 87.721,112.728 88.26,112.307 88.86,111.948 89.46,111.648 
	89.521,111.587 90.181,111.347 90.84,111.167 90.9,111.167 91.62,111.047 93.12,111.047 93.84,111.167 94.5,111.347 94.561,111.347 
	95.221,111.587 95.221,111.648 95.82,111.948 96.42,112.307 96.48,112.307 97.561,113.148 97.561,113.208 98.4,114.288 
	98.46,114.288 98.82,114.828 98.82,114.887 99.12,115.547 99.36,116.208 99.54,116.868 99.54,116.927 99.66,117.648 99.66,118.368 
	"/>
<polyline points="88.021,123.648 88.561,124.068 88.5,124.068 89.101,124.427 89.7,124.667 89.7,124.608 90.36,124.847 
	90.3,124.847 90.96,125.028 91.681,125.148 92.4,125.208 92.34,125.208 93.061,125.148 93.78,125.028 93.721,125.028 94.38,124.847 
	95.04,124.608 95.04,124.667 95.641,124.427 95.58,124.427 96.181,124.068 96.721,123.648 97.26,123.167 97.2,123.228 
	97.62,122.748 98.04,122.208 98.4,121.608 98.7,121.007 98.641,121.068 98.88,120.408 99.061,119.688 99.061,119.748 
	99.181,119.087 99.181,118.368 99.66,118.368 99.66,119.148 99.54,119.807 99.36,120.528 99.36,120.587 99.12,121.248 
	98.82,121.847 98.46,122.448 98.4,122.507 97.98,123.047 97.561,123.528 97.021,124.007 96.48,124.427 96.42,124.488 95.82,124.847 
	95.221,125.087 94.561,125.328 94.5,125.328 93.84,125.507 93.12,125.627 92.4,125.688 92.34,125.688 91.62,125.627 90.9,125.507 
	90.84,125.507 90.181,125.328 89.521,125.087 88.92,124.847 88.86,124.847 88.26,124.488 88.26,124.427 87.721,124.007 "/>
<text transform="matrix(1 0 0 1 6.6001 120.1675)" style="font-family:'ProductusSemibold'; font-size:7.98;">a</text>
<text transform="matrix(1 0 0 1 47.8203 120.3481)" style="font-family:'ProductusSemibold'; font-size:7.98;">b</text>
<text transform="matrix(1 0 0 1 118.6797 106.188)" style="font-family:'ProductusSemibold'; font-size:7.98;">d</text>
<text transform="matrix(1 0 0 1 48.3003 91.3081)"><tspan x="0" y="0" style="font-family:'ProductusSemibold'; font-size:7.98; letter-spacing:39;">e</tspan><tspan x="43.076" y="0" style="font-family:'ProductusSemibold'; font-size:7.98;">c</tspan></text>
<text transform="matrix(1 0 0 1 90.9609 119.6284)"><tspan x="0" y="0" style="font-family:'ProductusSemibold'; font-size:7.98;">c</tspan><tspan x="3.599" y="0" style="font-family:'ProductusSemibold'; font-size:7.98;">’</tspan></text>
<rect x="49.56" y="19.607" width="0.48" height="4.74"/>
<polyline points="47.1,23.928 47.52,24.167 50.04,19.728 50.04,19.488 49.8,19.067 49.62,19.488 "/>
<polyline points="50.04,19.488 49.62,19.728 52.2,24.167 52.62,23.928 "/>
<rect x="49.56" y="31.308" width="0.48" height="2.22"/>
<rect x="49.56" y="24.107" width="0.48" height="2.22"/>
<rect x="0.24" y="61.667" width="14.16" height="14.16"/>
<rect x="0.24" y="61.428" width="14.4" height="0.48"/>
<rect x="14.16" y="61.667" width="0.48" height="14.4"/>
<rect y="75.587" width="14.4" height="0.48"/>
<rect y="61.428" width="0.48" height="14.4"/>
<text transform="matrix(1 0 0 1 5.4604 71.5674)" style="font-family:'ProductusSemibold'; font-size:7.98;">F</text>
<polyline points="38.88,43.908 39.24,44.268 42.54,40.908 42.18,40.547 "/>
<polyline points="37.38,41.808 37.5,42.288 42.42,40.968 42.6,40.788 42.72,40.368 42.3,40.488 "/>
<polyline points="42.6,40.788 42.12,40.667 40.8,45.647 41.28,45.768 "/>
<polyline points="14.22,68.567 14.04,68.748 14.4,69.107 14.58,68.928 "/>
<polyline points="15.48,67.308 15.66,67.127 16.02,67.488 15.84,67.667 "/>
<polyline points="14.22,68.567 14.58,68.928 15.84,67.667 15.48,67.308 "/>
<polyline style="fill-rule:evenodd;clip-rule:evenodd;" points="18.96,63.828 18.78,64.007 19.14,64.368 19.32,64.188 "/>
<polyline style="fill-rule:evenodd;clip-rule:evenodd;" points="21.66,61.067 21.84,60.888 22.2,61.248 22.02,61.428 "/>
<polyline style="fill-rule:evenodd;clip-rule:evenodd;" points="18.96,63.828 19.32,64.188 22.02,61.428 21.66,61.067 "/>
<polyline style="fill-rule:evenodd;clip-rule:evenodd;" points="25.2,57.587 25.02,57.768 25.38,58.127 25.56,57.948 "/>
<polyline style="fill-rule:evenodd;clip-rule:evenodd;" points="27.9,54.888 28.08,54.708 28.44,55.067 28.26,55.248 "/>
<polyline style="fill-rule:evenodd;clip-rule:evenodd;" points="25.2,57.587 25.56,57.948 28.26,55.248 27.9,54.888 "/>
<polyline style="fill-rule:evenodd;clip-rule:evenodd;" points="31.44,51.348 31.26,51.527 31.62,51.888 31.8,51.708 "/>
<polyline style="fill-rule:evenodd;clip-rule:evenodd;" points="34.14,48.647 34.32,48.468 34.68,48.828 34.5,49.007 "/>
<polyline style="fill-rule:evenodd;clip-rule:evenodd;" points="31.44,51.348 31.8,51.708 34.5,49.007 34.14,48.647 "/>
<polyline points="37.62,45.107 37.44,45.288 37.8,45.647 37.98,45.468 "/>
<polyline points="38.88,43.908 39.06,43.728 39.42,44.087 39.24,44.268 "/>
<polyline points="37.62,45.107 37.98,45.468 39.24,44.268 38.88,43.908 "/>
<text transform="matrix(1 0 0 1 191.5801 52.9077)"><tspan x="0" y="0" style="font-family:'ProductusOSGiBookc'; font-size:7.98;">Lazy</tspan><tspan x="12.521" y="0" style="font-family:'ProductusOSGiBookc'; font-size:7.98;"> </tspan><tspan x="14.084" y="0" style="font-family:'ProductusOSGiBookc'; font-size:7.98;">S</tspan><tspan x="17.779" y="0" style="font-family:'ProductusOSGiBookc'; font-size:7.98;">i</tspan><tspan x="19.287" y="0" style="font-family:'ProductusOSGiBookc'; font-size:7.98;">ng</tspan><tspan x="26.421" y="0" style="font-family:'ProductusOSGiBookc'; font-size:7.98;">l</tspan><tspan x="27.93" y="0" style="font-family:'ProductusOSGiBookc'; font-size:7.98;">e</tspan><tspan x="31.408" y="0" style="font-family:'ProductusOSGiBookc'; font-size:7.98;">ton</tspan><tspan x="41.191" y="0" style="font-family:'ProductusOSGiBookc'; font-size:7.98;"> </tspan><tspan x="42.812" y="0" style="font-family:'ProductusOSGiBookc'; font-size:7.98;">Man</tspan><tspan x="55.619" y="0" style="font-family:'ProductusOSGiBookc'; font-size:7.98;">.</tspan></text>
<rect x="177.42" y="47.507" width="7.08" height="7.08"/>
<rect x="177.42" y="47.268" width="7.32" height="0.48"/>
<rect x="184.26" y="47.507" width="0.48" height="7.32"/>
<rect x="177.181" y="54.348" width="7.319" height="0.48"/>
<rect x="177.181" y="47.268" width="0.479" height="7.32"/>
<polyline style="fill-rule:evenodd;clip-rule:evenodd;fill:#FFFFFF;" points="170.28,104.148 170.28,103.427 170.16,102.767 
	169.98,102.047 169.74,101.388 169.44,100.788 169.08,100.188 168.66,99.647 168.24,99.167 167.7,98.688 167.16,98.268 
	166.62,97.968 165.96,97.667 165.3,97.428 164.641,97.248 163.92,97.127 163.2,97.067 162.48,97.127 161.82,97.248 161.101,97.428 
	160.44,97.667 159.24,98.268 158.7,98.688 157.74,99.647 157.32,100.188 156.96,100.788 156.66,101.388 156.48,102.047 
	156.3,102.767 156.181,103.427 156.12,104.148 156.181,104.927 156.3,105.587 156.48,106.307 156.66,106.908 156.96,107.568 
	157.32,108.108 157.74,108.708 158.7,109.667 159.24,110.028 159.84,110.387 160.44,110.688 161.101,110.927 161.82,111.108 
	162.48,111.228 163.2,111.288 163.92,111.228 164.641,111.108 165.3,110.927 165.96,110.688 166.62,110.387 167.7,109.667 
	168.24,109.188 168.66,108.708 169.08,108.108 169.44,107.568 169.74,106.908 169.98,106.307 170.16,105.587 170.28,104.927 
	170.28,104.148 "/>
<polyline points="170.04,104.148 170.04,103.427 170.04,103.488 169.92,102.828 169.74,102.108 169.74,102.167 169.5,101.507 
	169.561,101.507 169.26,100.908 168.9,100.308 168.9,100.368 168.48,99.828 168.061,99.348 168.12,99.348 167.58,98.868 
	167.04,98.448 167.04,98.507 166.5,98.208 166.561,98.208 165.9,97.908 165.24,97.667 164.58,97.488 164.641,97.488 163.92,97.368 
	163.2,97.308 163.26,97.308 162.54,97.368 161.88,97.488 161.16,97.667 161.221,97.667 160.561,97.908 159.36,98.507 159.42,98.448 
	158.88,98.868 157.92,99.828 157.5,100.368 157.561,100.308 157.2,100.908 156.9,101.507 156.9,101.448 156.721,102.108 
	156.54,102.828 156.42,103.488 156.36,104.208 156.36,104.148 156.42,104.927 156.54,105.587 156.54,105.528 156.721,106.248 
	156.9,106.847 157.2,107.507 157.2,107.448 157.561,107.988 157.98,108.587 157.92,108.528 158.88,109.488 158.82,109.488 
	158.58,109.908 157.561,108.887 157.141,108.288 157.141,108.228 156.78,107.688 156.48,107.028 156.42,106.967 156.24,106.368 
	156.061,105.648 155.94,104.988 155.88,104.208 155.88,104.148 155.94,103.427 156.061,102.767 156.061,102.708 156.24,101.988 
	156.42,101.328 156.48,101.268 156.78,100.667 157.141,100.067 157.561,99.527 157.561,99.468 158.521,98.507 158.58,98.507 
	159.12,98.087 160.32,97.488 160.38,97.428 161.04,97.188 161.76,97.007 161.82,97.007 162.48,96.888 163.2,96.828 163.26,96.828 
	163.98,96.888 164.7,97.007 165.36,97.188 165.42,97.188 166.08,97.428 166.08,97.488 166.74,97.788 167.28,98.087 167.34,98.087 
	167.88,98.507 168.42,98.988 168.42,99.047 168.84,99.527 169.26,100.067 169.32,100.067 169.681,100.667 169.98,101.268 
	169.98,101.328 170.221,101.988 170.4,102.708 170.4,102.767 170.521,103.427 170.521,104.148 "/>
<polyline points="158.82,109.488 159.36,109.847 159.96,110.208 160.561,110.507 160.561,110.448 161.221,110.688 161.16,110.688 
	161.88,110.868 162.54,110.988 163.26,111.047 163.2,111.047 163.92,110.988 164.641,110.868 164.58,110.868 165.24,110.688 
	165.9,110.448 165.9,110.507 166.561,110.208 166.5,110.208 167.58,109.488 168.12,109.007 168.061,109.068 168.48,108.587 
	168.9,107.988 169.26,107.448 169.26,107.507 169.561,106.847 169.8,106.248 169.74,106.248 169.92,105.528 169.92,105.587 
	170.04,104.927 170.04,104.148 170.521,104.148 170.521,104.988 170.4,105.648 170.221,106.368 170.221,106.427 169.98,107.028 
	169.681,107.688 169.32,108.228 169.32,108.288 168.9,108.887 168.84,108.887 168.42,109.368 167.88,109.847 167.82,109.908 
	166.74,110.627 166.08,110.927 165.42,111.167 165.36,111.167 164.7,111.347 163.98,111.467 163.26,111.528 163.2,111.528 
	162.48,111.467 161.82,111.347 161.76,111.347 161.04,111.167 160.38,110.927 160.32,110.927 159.721,110.627 159.12,110.267 
	158.58,109.908 "/>
<text transform="matrix(1 0 0 1 160.0205 105.4673)"><tspan x="0" y="0" style="font-family:'ProductusSemibold'; font-size:7.98;">c</tspan><tspan x="3.599" y="0" style="font-family:'ProductusSemibold'; font-size:7.98;">’</tspan><tspan x="5.817" y="0" style="font-family:'ProductusSemibold'; font-size:7.98;">’</tspan></text>
<polyline points="80.52,28.308 80.76,28.788 84.96,26.688 84.721,26.208 "/>
<polyline points="79.68,25.908 79.68,26.388 84.84,26.688 85.08,26.627 85.26,26.328 84.84,26.208 "/>
<polyline points="85.08,26.627 84.66,26.328 81.78,30.587 82.2,30.888 "/>
<polyline points="56.82,40.188 56.64,40.308 56.88,40.728 57.06,40.607 "/>
<polyline points="58.38,39.408 58.56,39.288 58.8,39.708 58.62,39.828 "/>
<polyline points="56.82,40.188 57.06,40.607 58.62,39.828 58.38,39.408 "/>
<polyline style="fill-rule:evenodd;clip-rule:evenodd;" points="62.88,37.188 62.7,37.308 62.94,37.728 63.12,37.607 "/>
<polyline style="fill-rule:evenodd;clip-rule:evenodd;" points="66.36,35.388 66.54,35.268 66.78,35.688 66.6,35.808 "/>
<polyline style="fill-rule:evenodd;clip-rule:evenodd;" points="62.88,37.188 63.12,37.607 66.6,35.808 66.36,35.388 "/>
<polyline style="fill-rule:evenodd;clip-rule:evenodd;" points="70.92,33.167 70.74,33.288 70.98,33.708 71.16,33.587 "/>
<polyline style="fill-rule:evenodd;clip-rule:evenodd;" points="74.4,31.428 74.58,31.308 74.82,31.728 74.64,31.848 "/>
<polyline style="fill-rule:evenodd;clip-rule:evenodd;" points="70.92,33.167 71.16,33.587 74.64,31.848 74.4,31.428 "/>
<polyline points="78.96,29.147 78.78,29.268 79.02,29.688 79.2,29.567 "/>
<polyline points="80.52,28.368 80.7,28.248 80.94,28.667 80.76,28.788 "/>
<polyline points="78.96,29.147 79.2,29.567 80.76,28.788 80.52,28.368 "/>
</svg>
