<?xml version="1.0" encoding="utf-8"?>
<!-- Generator: Adobe Illustrator 16.0.0, SVG Export Plug-In . SVG Version: 6.00 Build 0)  -->
<!DOCTYPE svg PUBLIC "-//W3C//DTD SVG 1.1//EN" "http://www.w3.org/Graphics/SVG/1.1/DTD/svg11.dtd">
<svg version="1.1" id="Layer_1" xmlns="http://www.w3.org/2000/svg" xmlns:xlink="http://www.w3.org/1999/xlink" x="0px" y="0px"
	 width="239.74px" height="135.12px" viewBox="0 0 239.74 135.12" style="enable-background:new 0 0 239.74 135.12;"
	 xml:space="preserve">
<rect x="66.42" y="58.68" width="54.3" height="26.58"/>
<rect x="66.42" y="58.44" width="54.54" height="0.48"/>
<rect x="120.48" y="58.68" width="0.479" height="26.82"/>
<rect x="66.18" y="85.02" width="54.54" height="0.48"/>
<rect x="66.18" y="58.44" width="0.48" height="26.82"/>
<rect x="64.02" y="56.94" style="fill:#FFFFFF;" width="54.36" height="26.58"/>
<rect x="64.02" y="56.7" width="54.6" height="0.48"/>
<rect x="118.141" y="56.94" width="0.479" height="26.82"/>
<rect x="63.78" y="83.28" width="54.6" height="0.48"/>
<rect x="63.78" y="56.7" width="0.48" height="26.82"/>
<text transform="matrix(1 0 0 1 66.4199 64.02)"><tspan x="0" y="0" style="font-family:'ProductusOSGiBookc'; font-size:7.98;">s</tspan><tspan x="2.817" y="0" style="font-family:'ProductusOSGiBookc'; font-size:7.98;">e</tspan><tspan x="6.296" y="0" style="font-family:'ProductusOSGiBookc'; font-size:7.98;">r</tspan><tspan x="8.515" y="0" style="font-family:'ProductusOSGiBookc'; font-size:7.98;">v</tspan><tspan x="11.643" y="0" style="font-family:'ProductusOSGiBookc'; font-size:7.98;">i</tspan><tspan x="13.198" y="0" style="font-family:'ProductusOSGiBookc'; font-size:7.98;">c</tspan><tspan x="16.263" y="0" style="font-family:'ProductusOSGiBookc'; font-size:7.98;">e</tspan><tspan x="19.742" y="0" style="font-family:'ProductusOSGiBookc'; font-size:7.98;">-</tspan><tspan x="22.439" y="0" style="font-family:'ProductusOSGiBookc'; font-size:7.98;">r</tspan><tspan x="24.482" y="0" style="font-family:'ProductusOSGiBookc'; font-size:7.98;">e</tspan><tspan x="27.961" y="0" style="font-family:'ProductusOSGiBookc'; font-size:7.98;">f</tspan><tspan x="29.885" y="0" style="font-family:'ProductusOSGiBookc'; font-size:7.98;">e</tspan><tspan x="33.364" y="0" style="font-family:'ProductusOSGiBookc'; font-size:7.98;">r</tspan><tspan x="35.406" y="0" style="font-family:'ProductusOSGiBookc'; font-size:7.98;">en</tspan><tspan x="42.541" y="0" style="font-family:'ProductusOSGiBookc'; font-size:7.98;">ce</tspan></text>
<rect x="2.64" y="58.68" width="54.3" height="26.58"/>
<rect x="2.64" y="58.44" width="54.54" height="0.48"/>
<rect x="56.7" y="58.68" width="0.48" height="26.82"/>
<rect x="2.4" y="85.02" width="54.54" height="0.48"/>
<rect x="2.4" y="58.44" width="0.48" height="26.82"/>
<rect x="0.24" y="56.94" style="fill:#FFFFFF;" width="54.36" height="26.58"/>
<rect x="0.24" y="56.7" width="54.6" height="0.48"/>
<rect x="54.36" y="56.94" width="0.48" height="26.82"/>
<rect y="83.28" width="54.6" height="0.48"/>
<rect y="56.7" width="0.48" height="26.82"/>
<text transform="matrix(1 0 0 1 2.6401 64.02)"><tspan x="0" y="0" style="font-family:'ProductusSemibold'; font-size:7.98;">bea</tspan><tspan x="12.401" y="0" style="font-family:'ProductusSemibold'; font-size:7.98;">n</tspan></text>
<rect x="130.2" y="58.68" width="54.3" height="26.58"/>
<rect x="130.2" y="58.44" width="54.54" height="0.48"/>
<rect x="184.26" y="58.68" width="0.48" height="26.82"/>
<rect x="129.96" y="85.02" width="54.54" height="0.48"/>
<rect x="129.96" y="58.44" width="0.48" height="26.82"/>
<rect x="127.8" y="56.94" style="fill:#FFFFFF;" width="54.36" height="26.58"/>
<rect x="127.8" y="56.7" width="54.601" height="0.48"/>
<rect x="181.92" y="56.94" width="0.48" height="26.82"/>
<rect x="127.561" y="83.28" width="54.6" height="0.48"/>
<rect x="127.561" y="56.7" width="0.479" height="26.82"/>
<text transform="matrix(1 0 0 1 130.2002 64.02)"><tspan x="0" y="0" style="font-family:'ProductusSemibold'; font-size:7.98;">se</tspan><tspan x="7.469" y="0" style="font-family:'ProductusSemibold'; font-size:7.98;">r</tspan><tspan x="10.405" y="0" style="font-family:'ProductusSemibold'; font-size:7.98;">v</tspan><tspan x="14.483" y="0" style="font-family:'ProductusSemibold'; font-size:7.98;">ic</tspan><tspan x="20.309" y="0" style="font-family:'ProductusSemibold'; font-size:7.98;">e</tspan></text>
<rect x="28.38" y="42.48" width="0.48" height="14.7"/>
<rect x="28.62" y="42.48" width="127.8" height="0.48"/>
<rect x="155.94" y="42.72" width="0.479" height="14.46"/>
<polyline points="92.4,40.08 89.101,40.08 89.28,39.42 92.4,28.5 95.521,39.42 95.7,40.08 95.04,40.08 94.561,39.72 91.92,30.48 
	92.88,30.18 92.88,30.48 90.24,39.72 89.28,39.42 89.76,39.06 92.4,39.06 "/>
<rect x="92.4" y="39.06" width="2.64" height="1.02"/>
<polyline style="fill-rule:evenodd;clip-rule:evenodd;" points="92.4,39.6 89.76,39.6 92.4,30.36 95.04,39.6 "/>
<rect x="92.16" y="39.84" width="0.48" height="17.34"/>
<rect x="66.42" y="1.98" width="54.3" height="26.58"/>
<rect x="66.42" y="1.74" width="54.54" height="0.48"/>
<rect x="120.48" y="1.98" width="0.479" height="26.82"/>
<rect x="66.18" y="28.32" width="54.54" height="0.48"/>
<rect x="66.18" y="1.74" width="0.48" height="26.82"/>
<rect x="64.02" y="0.24" style="fill:#FFFFFF;" width="54.36" height="26.58"/>
<rect x="64.02" width="54.6" height="0.48"/>
<rect x="118.141" y="0.24" width="0.479" height="26.82"/>
<rect x="63.78" y="26.58" width="54.6" height="0.48"/>
<rect x="63.78" width="0.48" height="26.82"/>
<text transform="matrix(1 0 0 1 66.4199 7.3198)"><tspan x="0" y="0" style="font-family:'ProductusOSGiBookc'; font-size:7.98;">m</tspan><tspan x="5.722" y="0" style="font-family:'ProductusOSGiBookc'; font-size:7.98;">a</tspan><tspan x="9.018" y="0" style="font-family:'ProductusOSGiBookc'; font-size:7.98;">n</tspan><tspan x="12.664" y="0" style="font-family:'ProductusOSGiBookc'; font-size:7.98;">a</tspan><tspan x="15.96" y="0" style="font-family:'ProductusOSGiBookc'; font-size:7.98;">g</tspan><tspan x="19.439" y="0" style="font-family:'ProductusOSGiBookc'; font-size:7.98;">e</tspan><tspan x="22.918" y="0" style="font-family:'ProductusOSGiBookc'; font-size:7.98;">r</tspan></text>
<rect x="30.96" y="108.3" width="54.36" height="26.58"/>
<rect x="30.96" y="108.06" width="54.601" height="0.48"/>
<rect x="85.08" y="108.3" width="0.48" height="26.82"/>
<rect x="30.72" y="134.64" width="54.6" height="0.48"/>
<rect x="30.72" y="108.06" width="0.48" height="26.82"/>
<rect x="28.62" y="106.5" style="fill:#FFFFFF;" width="54.3" height="26.58"/>
<rect x="28.62" y="106.26" width="54.54" height="0.479"/>
<rect x="82.68" y="106.5" width="0.48" height="26.82"/>
<rect x="28.38" y="132.84" width="54.54" height="0.48"/>
<rect x="28.38" y="106.26" width="0.48" height="26.82"/>
<text transform="matrix(1 0 0 1 30.96 113.6401)"><tspan x="0" y="0" style="font-family:'ProductusSemibold'; font-size:7.98;">r</tspan><tspan x="2.944" y="0" style="font-family:'ProductusSemibold'; font-size:7.98;">e</tspan><tspan x="7.078" y="0" style="font-family:'ProductusSemibold'; font-size:7.98;">f</tspan><tspan x="9.711" y="0" style="font-family:'ProductusSemibold'; font-size:7.98;">e</tspan><tspan x="13.845" y="0" style="font-family:'ProductusSemibold'; font-size:7.98;">r</tspan><tspan x="16.79" y="0" style="font-family:'ProductusSemibold'; font-size:7.98;">e</tspan><tspan x="20.923" y="0" style="font-family:'ProductusSemibold'; font-size:7.98;">n</tspan><tspan x="25.152" y="0" style="font-family:'ProductusSemibold'; font-size:7.98;">c</tspan><tspan x="28.807" y="0" style="font-family:'ProductusSemibold'; font-size:7.98;">e</tspan></text>
<rect x="101.82" y="108.3" width="54.359" height="26.58"/>
<rect x="101.82" y="108.06" width="54.6" height="0.48"/>
<rect x="155.94" y="108.3" width="0.479" height="26.82"/>
<rect x="101.58" y="134.64" width="54.6" height="0.48"/>
<rect x="101.58" y="108.06" width="0.48" height="26.82"/>
<rect x="99.48" y="106.5" style="fill:#FFFFFF;" width="54.3" height="26.58"/>
<rect x="99.48" y="106.26" width="54.54" height="0.479"/>
<rect x="153.54" y="106.5" width="0.48" height="26.82"/>
<rect x="99.24" y="132.84" width="54.54" height="0.48"/>
<rect x="99.24" y="106.26" width="0.479" height="26.82"/>
<text transform="matrix(1 0 0 1 101.8203 113.6401)"><tspan x="0" y="0" style="font-family:'ProductusSemibold'; font-size:7.98;">r</tspan><tspan x="2.944" y="0" style="font-family:'ProductusSemibold'; font-size:7.98;">e</tspan><tspan x="7.078" y="0" style="font-family:'ProductusSemibold'; font-size:7.98;">f</tspan><tspan x="9.712" y="0" style="font-family:'ProductusSemibold'; font-size:7.98;">e</tspan><tspan x="13.845" y="0" style="font-family:'ProductusSemibold'; font-size:7.98;">r</tspan><tspan x="16.79" y="0" style="font-family:'ProductusSemibold'; font-size:7.98;">e</tspan><tspan x="20.923" y="0" style="font-family:'ProductusSemibold'; font-size:7.98;">n</tspan><tspan x="25.152" y="0" style="font-family:'ProductusSemibold'; font-size:7.98;">c</tspan><tspan x="28.808" y="0" style="font-family:'ProductusSemibold'; font-size:7.98;">e</tspan><tspan x="32.94" y="0" style="font-family:'ProductusSemibold'; font-size:7.98;">-</tspan><tspan x="36.3" y="0" style="font-family:'ProductusSemibold'; font-size:7.98;">l</tspan><tspan x="38.519" y="0" style="font-family:'ProductusSemibold'; font-size:7.98;">i</tspan><tspan x="40.673" y="0" style="font-family:'ProductusSemibold'; font-size:7.98;">s</tspan><tspan x="44.032" y="0" style="font-family:'ProductusSemibold'; font-size:7.98;">t</tspan></text>
<polyline points="92.4,96.78 89.101,96.78 89.28,96.12 92.4,85.2 95.521,96.12 95.7,96.78 95.04,96.78 94.561,96.42 91.92,87.18 
	92.88,86.88 92.88,87.18 90.24,96.42 89.28,96.12 89.76,95.76 92.4,95.76 "/>
<rect x="92.4" y="95.76" width="2.64" height="1.02"/>
<polyline style="fill-rule:evenodd;clip-rule:evenodd;" points="92.4,96.3 89.76,96.3 92.4,87.06 95.04,96.3 "/>
<rect x="92.16" y="99.42" width="0.48" height="0.24"/>
<rect x="92.16" y="96.54" width="0.48" height="2.88"/>
<rect x="56.7" y="99.18" width="0.48" height="7.56"/>
<rect x="56.94" y="99.18" width="71.1" height="0.48"/>
<rect x="127.561" y="99.18" width="0.479" height="0.24"/>
<rect x="127.561" y="99.42" width="0.479" height="7.32"/>
<polyline points="205.8,11.76 202.5,11.76 202.68,11.1 205.8,0.18 208.92,11.1 209.101,11.76 208.44,11.76 207.96,11.4 205.32,2.16 
	206.28,1.86 206.28,2.16 203.641,11.4 202.68,11.1 203.16,10.74 205.8,10.74 "/>
<rect x="205.8" y="10.74" width="2.641" height="1.021"/>
<polyline style="fill-rule:evenodd;clip-rule:evenodd;" points="205.8,11.28 203.16,11.28 205.8,2.04 208.44,11.28 "/>
<rect x="205.561" y="11.52" width="0.479" height="0.24"/>
<rect x="205.561" y="11.76" width="0.479" height="2.88"/>
<text transform="matrix(1 0 0 1 212.8799 10.1401)"><tspan x="0" y="0" style="font-family:'ProductusSemibold'; font-size:7.98;">e</tspan><tspan x="4.142" y="0" style="font-family:'ProductusSemibold'; font-size:7.98;">x</tspan><tspan x="8.036" y="0" style="font-family:'ProductusSemibold'; font-size:7.98;">t</tspan><tspan x="11.212" y="0" style="font-family:'ProductusSemibold'; font-size:7.98;">e</tspan><tspan x="15.289" y="0" style="font-family:'ProductusSemibold'; font-size:7.98;">nd</tspan><tspan x="23.915" y="0" style="font-family:'ProductusSemibold'; font-size:7.98;">s</tspan></text>
</svg>
