<?xml version="1.0" encoding="utf-8"?>
<!-- Generator: Adobe Illustrator 16.0.1, SVG Export Plug-In . SVG Version: 6.00 Build 0)  -->
<!DOCTYPE svg PUBLIC "-//W3C//DTD SVG 1.1//EN" "http://www.w3.org/Graphics/SVG/1.1/DTD/svg11.dtd">
<svg version="1.1" id="Layer_1" xmlns="http://www.w3.org/2000/svg" xmlns:xlink="http://www.w3.org/1999/xlink" x="0px" y="0px"
	 width="266.368px" height="149.279px" viewBox="0 0 266.368 149.279" enable-background="new 0 0 266.368 149.279"
	 xml:space="preserve">
<rect x="94.74" y="9.06" width="54.36" height="26.58"/>
<rect x="94.74" y="8.819" width="54.601" height="0.479"/>
<rect x="148.86" y="9.06" width="0.479" height="26.819"/>
<rect x="94.5" y="35.399" width="54.601" height="0.479"/>
<rect x="94.5" y="8.819" width="0.48" height="26.82"/>
<rect x="92.4" y="7.319" fill="#FFFFFF" width="54.3" height="26.58"/>
<rect x="92.4" y="7.08" width="54.541" height="0.479"/>
<rect x="146.459" y="7.319" width="0.479" height="26.82"/>
<rect x="92.16" y="33.66" width="54.54" height="0.479"/>
<rect x="92.16" y="7.08" width="0.48" height="26.819"/>
<text transform="matrix(1 0 0 1 94.7397 14.3992)" font-family="'ProductusSemibold'" font-size="7.98">blueprint</text>
<rect x="38.04" y="51.6" width="54.36" height="26.58"/>
<rect x="38.04" y="51.359" width="54.6" height="0.479"/>
<rect x="92.16" y="51.6" width="0.48" height="26.819"/>
<rect x="37.8" y="77.939" width="54.6" height="0.479"/>
<rect x="37.8" y="51.359" width="0.48" height="26.82"/>
<rect x="35.7" y="49.859" fill="#FFFFFF" width="54.3" height="26.521"/>
<rect x="35.7" y="49.62" width="54.54" height="0.479"/>
<rect x="89.76" y="49.859" width="0.48" height="26.761"/>
<rect x="35.46" y="76.14" width="54.54" height="0.479"/>
<rect x="35.46" y="49.62" width="0.48" height="26.76"/>
<text transform="matrix(1 0 0 1 38.04 56.9392)" enable-background="new    "><tspan x="0" y="0" font-family="'ProductusSemibold'" font-size="7.98">type-</tspan><tspan x="0" y="9.576" font-family="'ProductusSemibold'" font-size="7.98">converters</tspan></text>
<rect x="2.64" y="122.46" width="54.3" height="26.58"/>
<rect x="2.64" y="122.219" width="54.54" height="0.48"/>
<rect x="56.7" y="122.46" width="0.48" height="26.819"/>
<rect x="2.4" y="148.8" width="54.54" height="0.479"/>
<rect x="2.4" y="122.219" width="0.48" height="26.82"/>
<rect x="0.24" y="120.719" fill="#FFFFFF" width="54.36" height="26.58"/>
<rect x="0.24" y="120.479" width="54.6" height="0.479"/>
<rect x="54.36" y="120.719" width="0.48" height="26.82"/>
<rect y="147.06" width="54.6" height="0.479"/>
<rect y="120.479" width="0.48" height="26.819"/>
<text transform="matrix(1 0 0 1 2.6401 127.7996)" font-family="'ProductusSemibold'" font-size="7.98">bean</text>
<rect x="73.5" y="122.46" width="54.3" height="26.58"/>
<rect x="73.5" y="122.219" width="54.54" height="0.48"/>
<rect x="127.56" y="122.46" width="0.479" height="26.819"/>
<rect x="73.26" y="148.8" width="54.541" height="0.479"/>
<rect x="73.26" y="122.219" width="0.48" height="26.82"/>
<rect x="71.1" y="120.719" fill="#FFFFFF" width="54.359" height="26.58"/>
<rect x="71.1" y="120.479" width="54.6" height="0.479"/>
<rect x="125.22" y="120.719" width="0.479" height="26.82"/>
<rect x="70.86" y="147.06" width="54.6" height="0.479"/>
<rect x="70.86" y="120.479" width="0.48" height="26.819"/>
<text transform="matrix(1 0 0 1 73.5 127.7996)" font-family="'ProductusSemibold'" font-size="7.98">ref</text>
<polyline points="120.78,35.88 121.02,35.819 120.9,35.34 120.66,35.399 "/>
<polyline points="64.08,50.1 63.84,50.16 63.72,49.68 63.96,49.62 "/>
<polyline points="120.78,35.88 120.66,35.399 63.96,49.62 64.08,50.1 "/>
<polyline points="120.84,35.46 120.66,35.34 120.42,35.76 120.6,35.88 "/>
<polyline points="177.54,63.84 177.72,63.96 177.479,64.38 177.3,64.26 "/>
<polyline points="120.84,35.46 120.6,35.88 177.3,64.26 177.54,63.84 "/>
<rect x="63.78" y="77.939" width="0.48" height="14.641"/>
<text transform="matrix(1 0 0 1 170.3408 57.1794)" font-family="'ProductusOSGiBookc'" font-size="7.98">*</text>
<text transform="matrix(1 0 0 1 52.0195 48.6589)" font-family="'ProductusOSGiBookc'" font-size="7.98">0..1</text>
<text transform="matrix(1 0 0 1 65.8794 89.9988)" font-family="'ProductusOSGiBookc'" font-size="7.98">*</text>
<polyline points="64.14,99.66 64.32,99.54 64.08,99.12 63.9,99.24 "/>
<polyline points="28.74,120.96 28.56,121.08 28.32,120.66 28.5,120.54 "/>
<polyline points="64.14,99.66 63.9,99.24 28.5,120.54 28.74,120.96 "/>
<polyline points="64.14,99.24 63.96,99.12 63.72,99.54 63.9,99.66 "/>
<polyline points="99.6,120.54 99.78,120.66 99.54,121.08 99.36,120.96 "/>
<polyline points="64.14,99.24 63.9,99.66 99.36,120.96 99.6,120.54 "/>
<polyline fill="#FFFFFF" points="71.1,99.42 71.1,98.7 70.98,98.04 70.8,97.319 70.56,96.66 70.26,96.06 69.9,95.46 69.48,94.92 
	69.06,94.439 68.52,93.96 67.98,93.54 67.44,93.24 66.78,92.939 66.12,92.7 65.46,92.52 64.74,92.399 64.02,92.34 63.3,92.399 
	62.58,92.52 61.92,92.7 61.26,92.939 60.06,93.54 59.52,93.96 58.56,94.92 58.14,95.46 57.78,96.06 57.48,96.66 57.24,97.319 
	57.12,98.04 57,98.7 56.94,99.42 57,100.14 57.12,100.859 57.24,101.52 57.48,102.18 57.78,102.84 58.14,103.38 58.56,103.979 
	59.52,104.939 60.06,105.3 60.66,105.66 61.26,105.96 61.92,106.2 62.58,106.38 63.3,106.5 64.74,106.5 65.46,106.38 66.12,106.2 
	66.78,105.96 67.44,105.66 68.52,104.939 69.06,104.46 69.48,103.979 69.9,103.38 70.26,102.84 70.56,102.18 70.8,101.52 
	70.98,100.859 71.1,100.14 71.1,99.42 "/>
<polyline points="70.86,99.42 70.86,98.7 70.86,98.76 70.74,98.1 70.56,97.38 70.56,97.439 70.32,96.779 70.38,96.779 70.08,96.18 
	69.72,95.58 69.72,95.64 69.3,95.1 68.88,94.62 68.94,94.62 68.4,94.14 67.86,93.719 67.86,93.779 67.32,93.479 67.38,93.479 
	66.72,93.18 66.06,92.939 65.4,92.76 65.46,92.76 64.74,92.64 64.02,92.58 64.08,92.58 63.36,92.64 62.64,92.76 61.98,92.939 
	62.04,92.939 61.38,93.18 60.18,93.779 60.24,93.719 59.7,94.14 58.74,95.1 58.32,95.64 58.38,95.58 58.02,96.18 57.72,96.779 
	57.48,97.439 57.48,97.38 57.36,98.1 57.24,98.76 57.18,99.479 57.18,99.42 57.24,100.14 57.36,100.859 57.48,101.52 57.48,101.46 
	57.72,102.12 58.02,102.779 58.02,102.719 58.38,103.26 58.8,103.859 58.74,103.8 59.7,104.76 59.64,104.76 59.4,105.18 
	58.38,104.16 57.96,103.56 57.96,103.5 57.6,102.96 57.3,102.3 57.24,102.3 57,101.64 57,101.58 56.88,100.92 56.76,100.2 
	56.7,99.479 56.7,99.42 56.76,98.7 56.88,98.04 57,97.319 57,97.26 57.24,96.6 57.3,96.54 57.6,95.939 57.96,95.34 58.38,94.8 
	58.38,94.74 59.34,93.779 59.4,93.779 59.94,93.359 61.14,92.76 61.2,92.7 61.86,92.46 62.52,92.279 62.58,92.279 63.3,92.16 
	64.02,92.1 64.08,92.1 64.8,92.16 65.52,92.279 66.18,92.46 66.24,92.46 66.9,92.7 66.9,92.76 67.56,93.06 68.1,93.359 
	68.16,93.359 68.7,93.779 69.24,94.26 69.24,94.319 69.66,94.8 70.08,95.34 70.14,95.34 70.5,95.939 70.8,96.54 70.8,96.6 
	71.04,97.26 71.22,97.979 71.22,98.04 71.34,98.7 71.34,99.42 "/>
<polyline points="59.64,104.76 60.18,105.12 60.78,105.479 61.38,105.779 61.38,105.719 62.04,105.96 61.98,105.96 62.64,106.14 
	63.36,106.26 63.3,106.26 64.74,106.26 65.46,106.14 65.4,106.14 66.06,105.96 66.72,105.719 66.72,105.779 67.38,105.479 
	67.32,105.479 68.4,104.76 68.94,104.279 68.88,104.34 69.3,103.859 69.72,103.26 70.08,102.719 70.08,102.779 70.38,102.12 
	70.32,102.12 70.56,101.46 70.74,100.8 70.74,100.859 70.86,100.14 70.86,99.42 71.34,99.42 71.34,100.2 71.22,100.92 71.04,101.58 
	71.04,101.64 70.8,102.3 70.5,102.96 70.14,103.5 70.14,103.56 69.72,104.16 69.66,104.16 69.24,104.64 68.7,105.12 68.64,105.18 
	67.56,105.899 66.9,106.2 66.24,106.439 66.18,106.439 65.52,106.62 64.8,106.74 63.3,106.74 62.58,106.62 62.52,106.62 
	61.86,106.439 61.2,106.2 61.14,106.2 60.54,105.899 59.94,105.54 59.4,105.18 "/>
<polyline fill="#FFFFFF" points="234.12,7.319 234,5.88 233.819,5.219 233.58,4.56 233.28,3.96 232.92,3.359 232.5,2.819 
	232.021,2.279 231.54,1.859 231,1.439 230.399,1.08 229.8,0.779 229.14,0.54 228.479,0.359 227.76,0.24 226.319,0.24 225.601,0.359 
	224.94,0.54 224.28,0.779 223.681,1.08 223.08,1.439 222,2.279 221.16,3.359 220.8,3.96 220.5,4.56 220.26,5.219 220.08,5.88 
	219.959,6.6 219.959,8.04 220.08,8.76 220.26,9.42 220.5,10.08 220.8,10.68 221.16,11.279 221.58,11.819 222,12.3 222.54,12.779 
	223.08,13.2 223.681,13.56 224.28,13.859 224.94,14.1 225.601,14.279 226.319,14.34 227.04,14.399 227.76,14.34 228.479,14.279 
	229.14,14.1 229.8,13.859 230.399,13.56 231,13.2 231.54,12.779 232.5,11.819 232.92,11.279 233.28,10.68 233.58,10.08 
	233.819,9.42 234,8.76 234.12,7.319 "/>
<polyline points="233.88,7.38 233.76,5.939 233.58,5.279 233.58,5.34 233.34,4.68 233.399,4.68 233.101,4.08 232.74,3.479 
	232.74,3.54 232.319,3 231.84,2.46 231.899,2.46 231.42,2.04 230.88,1.62 230.88,1.68 230.28,1.319 229.681,1.02 229.74,1.02 
	229.08,0.779 228.42,0.6 228.479,0.6 227.76,0.479 226.319,0.479 226.38,0.479 225.66,0.6 225,0.779 225.06,0.779 224.399,1.02 
	223.8,1.319 223.2,1.68 223.26,1.62 222.181,2.46 221.34,3.54 221.399,3.479 221.04,4.08 220.74,4.68 220.5,5.34 220.5,5.279 
	220.319,5.939 220.2,6.66 220.2,6.6 220.2,8.04 220.319,8.76 220.319,8.7 220.5,9.359 220.74,10.02 220.74,9.96 221.04,10.56 
	221.399,11.16 221.34,11.16 221.76,11.7 222.181,12.18 222.181,12.12 222.72,12.6 222.42,12.96 221.88,12.479 221.819,12.479 
	221.399,12 220.979,11.46 220.979,11.399 220.62,10.8 220.319,10.2 220.26,10.2 220.021,9.54 220.021,9.479 219.84,8.819 
	219.72,8.1 219.72,6.6 219.84,5.88 219.84,5.819 220.021,5.16 220.26,4.5 220.319,4.439 220.62,3.84 220.979,3.24 221.819,2.16 
	221.88,2.1 222.959,1.26 223.56,0.899 224.16,0.6 224.22,0.54 224.88,0.3 225.54,0.12 225.601,0.12 226.319,0 227.819,0 
	228.54,0.12 229.2,0.3 229.26,0.3 229.92,0.54 229.92,0.6 230.521,0.899 231.12,1.26 231.181,1.26 231.72,1.68 232.2,2.1 
	232.2,2.16 232.681,2.7 233.101,3.24 233.16,3.24 233.521,3.84 233.819,4.439 233.819,4.5 234.06,5.16 234.24,5.819 234.24,5.88 
	234.36,7.319 "/>
<polyline points="222.72,12.6 223.26,13.02 223.2,13.02 223.8,13.38 224.399,13.68 224.399,13.62 225.06,13.859 225,13.859 
	225.66,14.04 227.101,14.16 227.04,14.16 228.479,14.04 228.42,14.04 229.08,13.859 229.74,13.62 229.681,13.68 230.28,13.38 
	230.88,13.02 231.42,12.6 231.36,12.6 232.319,11.64 232.319,11.7 232.74,11.16 233.101,10.56 233.399,9.96 233.34,10.02 
	233.58,9.359 233.76,8.7 233.76,8.76 233.88,7.319 233.88,7.38 234.36,7.319 234.36,7.38 234.24,8.819 234.06,9.479 234.06,9.54 
	233.819,10.2 233.521,10.8 233.16,11.399 233.101,11.46 232.681,12 231.72,12.96 231.181,13.38 231.12,13.439 230.521,13.8 
	229.92,14.1 229.26,14.34 229.2,14.34 228.54,14.52 227.101,14.64 227.04,14.64 225.601,14.52 225.54,14.52 224.88,14.34 
	224.22,14.1 224.16,14.1 223.56,13.8 222.959,13.439 222.959,13.38 222.42,12.96 "/>
<text transform="matrix(1 0 0 1 241.2002 7.3191)" font-family="'ProductusSemibold'" font-size="7.98">= choice</text>
<rect x="151.44" y="122.46" width="54.359" height="26.58"/>
<rect x="151.44" y="122.219" width="54.6" height="0.48"/>
<rect x="205.56" y="122.46" width="0.479" height="26.819"/>
<rect x="151.2" y="148.8" width="54.601" height="0.479"/>
<rect x="151.2" y="122.219" width="0.48" height="26.82"/>
<rect x="149.101" y="120.719" fill="#FFFFFF" width="54.299" height="26.58"/>
<rect x="149.101" y="120.479" width="54.539" height="0.479"/>
<rect x="203.16" y="120.719" width="0.479" height="26.82"/>
<rect x="148.86" y="147.06" width="54.539" height="0.479"/>
<rect x="148.86" y="120.479" width="0.479" height="26.819"/>
<text transform="matrix(1 0 0 1 151.4404 127.7996)" font-family="'ProductusOSGiBookc'" font-size="7.98">manager</text>
<text transform="matrix(0.9504 0 0 1 151.4404 137.3757)" font-family="'ProductusOSGiBookc'" font-size="7.98">(top level)</text>
<rect x="177.181" y="120.719" width="0.479" height="0.24"/>
<rect x="177.181" y="63.779" width="0.479" height="56.939"/>
<polyline fill="#FFFFFF" points="184.5,64.02 184.5,63.3 184.38,62.58 184.2,61.92 183.959,61.26 183.66,60.6 183.3,60.06 
	182.459,58.979 181.38,58.14 180.78,57.779 180.181,57.479 179.521,57.24 178.86,57.06 178.14,56.939 176.7,56.939 175.979,57.06 
	175.319,57.24 174.66,57.479 174.06,57.779 173.459,58.14 172.92,58.56 172.44,58.979 171.959,59.52 171.54,60.06 171.181,60.6 
	170.88,61.26 170.64,61.92 170.459,62.58 170.34,64.02 170.459,65.46 170.64,66.12 170.88,66.779 171.181,67.38 171.54,67.979 
	171.959,68.52 172.92,69.479 173.459,69.899 174.06,70.26 174.66,70.56 175.319,70.8 175.979,70.979 176.7,71.04 177.42,71.1 
	178.14,71.04 178.86,70.979 179.521,70.8 180.181,70.56 180.78,70.26 181.38,69.899 181.92,69.479 182.459,69 182.88,68.52 
	183.3,67.979 183.66,67.38 183.959,66.779 184.2,66.12 184.38,65.46 184.5,64.74 184.5,64.02 "/>
<polyline points="184.26,64.02 184.26,63.3 184.26,63.359 184.14,62.64 183.959,61.979 183.959,62.04 183.72,61.38 183.78,61.38 
	183.479,60.719 183.12,60.18 183.12,60.24 182.28,59.16 182.34,59.16 181.26,58.319 181.26,58.38 180.66,58.02 180.06,57.719 
	180.12,57.719 179.459,57.479 178.8,57.3 178.86,57.3 178.14,57.18 176.7,57.18 176.76,57.18 176.04,57.3 175.38,57.479 
	175.44,57.479 174.78,57.719 174.181,58.02 173.58,58.38 173.64,58.319 173.101,58.74 172.62,59.16 172.14,59.7 171.72,60.24 
	171.78,60.18 171.42,60.719 171.12,61.38 170.88,62.04 170.88,61.979 170.7,62.64 170.58,64.08 170.58,64.02 170.7,65.46 
	170.7,65.399 170.88,66.06 171.12,66.719 171.12,66.66 171.42,67.26 171.78,67.859 171.72,67.859 172.14,68.399 172.14,68.34 
	173.101,69.3 172.8,69.66 172.74,69.66 171.78,68.7 171.36,68.16 171.36,68.1 171,67.5 170.7,66.899 170.64,66.899 170.399,66.24 
	170.399,66.18 170.22,65.52 170.101,64.08 170.101,64.02 170.22,62.58 170.22,62.52 170.399,61.859 170.64,61.2 170.7,61.2 
	171,60.54 171,60.479 171.36,59.939 171.78,59.399 172.26,58.859 172.319,58.8 172.8,58.38 173.34,57.96 173.94,57.6 174.54,57.3 
	174.601,57.24 175.26,57 175.92,56.819 175.979,56.819 176.7,56.7 178.2,56.7 178.92,56.819 179.58,57 179.64,57 180.3,57.24 
	180.3,57.3 180.899,57.6 181.5,57.96 181.56,57.96 182.64,58.8 182.64,58.859 183.479,59.939 183.54,59.939 183.899,60.479 
	183.899,60.54 184.2,61.2 184.44,61.859 184.62,62.52 184.62,62.58 184.74,63.3 184.74,64.02 "/>
<polyline points="173.101,69.3 173.64,69.719 173.58,69.719 174.181,70.08 174.78,70.38 174.78,70.319 175.44,70.56 175.38,70.56 
	176.04,70.74 177.479,70.859 177.42,70.859 178.86,70.74 178.8,70.74 179.459,70.56 180.12,70.319 180.06,70.38 180.66,70.08 
	181.26,69.719 181.8,69.3 182.34,68.819 182.28,68.88 182.7,68.399 183.12,67.859 183.479,67.26 183.78,66.66 183.72,66.719 
	183.959,66.06 184.14,65.399 184.14,65.46 184.26,64.74 184.26,64.02 184.74,64.02 184.74,64.8 184.62,65.52 184.44,66.18 
	184.44,66.24 184.2,66.899 183.899,67.5 183.54,68.1 183.479,68.16 183.06,68.7 182.64,69.18 182.101,69.66 181.56,70.08 
	181.5,70.14 180.899,70.5 180.3,70.8 179.64,71.04 179.58,71.04 178.92,71.219 177.479,71.34 177.42,71.34 175.979,71.219 
	175.92,71.219 175.26,71.04 174.601,70.8 174.54,70.8 173.94,70.5 173.34,70.14 173.34,70.08 172.8,69.66 "/>
<rect x="127.56" y="134.64" width="0.24" height="0.479"/>
<rect x="127.8" y="134.64" width="1.02" height="0.479"/>
<rect x="132.3" y="134.64" width="0.239" height="0.479"/>
<rect x="132.54" y="134.64" width="1.561" height="0.479"/>
<rect x="137.521" y="134.64" width="0.239" height="0.479"/>
<rect x="137.76" y="134.64" width="1.56" height="0.479"/>
<rect x="142.8" y="134.64" width="0.239" height="0.479"/>
<rect x="143.04" y="134.64" width="1.561" height="0.479"/>
<rect x="148.08" y="134.64" width="0.239" height="0.479"/>
<rect x="148.319" y="134.64" width="1.021" height="0.479"/>
</svg>
