<?xml version="1.0" encoding="utf-8"?>
<!-- Generator: Adobe Illustrator 16.0.0, SVG Export Plug-In . SVG Version: 6.00 Build 0)  -->
<!DOCTYPE svg PUBLIC "-//W3C//DTD SVG 1.1//EN" "http://www.w3.org/Graphics/SVG/1.1/DTD/svg11.dtd">
<svg version="1.1" id="Layer_1" xmlns="http://www.w3.org/2000/svg" xmlns:xlink="http://www.w3.org/1999/xlink" x="0px" y="0px"
	 width="172.68px" height="255.6px" viewBox="0 0 172.68 255.6" style="enable-background:new 0 0 172.68 255.6;"
	 xml:space="preserve">
<rect x="2.58" y="58.26" width="54.36" height="27"/>
<rect x="2.58" y="58.02" width="54.6" height="0.48"/>
<rect x="56.7" y="58.26" width="0.48" height="27.24"/>
<rect x="2.34" y="85.02" width="54.6" height="0.48"/>
<rect x="2.34" y="58.02" width="0.48" height="27.24"/>
<rect x="0.24" y="56.46" style="fill:#FFFFFF;" width="54.3" height="27"/>
<rect x="0.24" y="56.22" width="54.54" height="0.48"/>
<rect x="54.3" y="56.46" width="0.48" height="27.24"/>
<rect y="83.22" width="54.54" height="0.48"/>
<rect y="56.22" width="0.48" height="27.24"/>
<text transform="matrix(1 0 0 1 2.5801 63.6001)"><tspan x="0" y="0" style="font-family:'ProductusSemibold'; font-size:7.98;">C</tspan><tspan x="4.676" y="0" style="font-family:'ProductusSemibold'; font-size:7.98;">o</tspan><tspan x="9.049" y="0" style="font-family:'ProductusSemibold'; font-size:7.98;">m</tspan><tspan x="15.401" y="0" style="font-family:'ProductusSemibold'; font-size:7.98;">p</tspan><tspan x="19.718" y="0" style="font-family:'ProductusSemibold'; font-size:7.98;">o</tspan><tspan x="24.036" y="0" style="font-family:'ProductusSemibold'; font-size:7.98;">n</tspan><tspan x="28.289" y="0" style="font-family:'ProductusSemibold'; font-size:7.98;">e</tspan><tspan x="32.422" y="0" style="font-family:'ProductusSemibold'; font-size:7.98;">n</tspan><tspan x="36.675" y="0" style="font-family:'ProductusSemibold'; font-size:7.98;">t</tspan></text>
<text transform="matrix(1 0 0 1 2.5801 72.1201)"><tspan x="0" y="0" style="font-family:'ProductusSemibold'; font-size:7.98;">Meta</tspan><tspan x="17.851" y="0" style="font-family:'ProductusSemibold'; font-size:7.98;">d</tspan><tspan x="22.224" y="0" style="font-family:'ProductusSemibold'; font-size:7.98;">a</tspan><tspan x="26.182" y="0" style="font-family:'ProductusSemibold'; font-size:7.98;">t</tspan><tspan x="29.294" y="0" style="font-family:'ProductusSemibold'; font-size:7.98;">a</tspan></text>
<rect x="2.58" y="114.96" width="54.36" height="27"/>
<rect x="2.58" y="114.72" width="54.6" height="0.48"/>
<rect x="56.7" y="114.96" width="0.48" height="27.24"/>
<rect x="2.34" y="141.72" width="54.6" height="0.48"/>
<rect x="2.34" y="114.72" width="0.48" height="27.24"/>
<rect x="0.24" y="113.16" style="fill:#FFFFFF;" width="54.3" height="27"/>
<rect x="0.24" y="112.92" width="54.54" height="0.48"/>
<rect x="54.3" y="113.16" width="0.48" height="27.24"/>
<rect y="139.92" width="54.54" height="0.48"/>
<rect y="112.92" width="0.48" height="27.24"/>
<text transform="matrix(1 0 0 1 2.5801 120.3003)"><tspan x="0" y="0" style="font-family:'ProductusOSGiBookc'; font-size:7.98;">Manage</tspan><tspan x="23.014" y="0" style="font-family:'ProductusOSGiBookc'; font-size:7.98;">r</tspan></text>
<text transform="matrix(1 0 0 1 2.5801 128.8203)" style="font-family:'ProductusOSGiBookc'; font-size:7.98;">Impl</text>
<rect x="2.58" y="171.66" width="54.36" height="27"/>
<rect x="2.58" y="171.42" width="54.6" height="0.48"/>
<rect x="56.7" y="171.66" width="0.48" height="27.24"/>
<rect x="2.34" y="198.42" width="54.6" height="0.48"/>
<rect x="2.34" y="171.42" width="0.48" height="27.24"/>
<rect x="0.24" y="169.86" style="fill:#FFFFFF;" width="54.3" height="27"/>
<rect x="0.24" y="169.62" width="54.54" height="0.48"/>
<rect x="54.3" y="169.86" width="0.48" height="27.24"/>
<rect y="196.62" width="54.54" height="0.48"/>
<rect y="169.62" width="0.48" height="27.24"/>
<text transform="matrix(1 0 0 1 2.5801 177)"><tspan x="0" y="0" style="font-family:'ProductusSemibold'; font-size:7.98;">Bl</tspan><tspan x="6.416" y="0" style="font-family:'ProductusSemibold'; font-size:7.98;">u</tspan><tspan x="10.733" y="0" style="font-family:'ProductusSemibold'; font-size:7.98;">e</tspan><tspan x="14.866" y="0" style="font-family:'ProductusSemibold'; font-size:7.98;">pr</tspan><tspan x="22.12" y="0" style="font-family:'ProductusSemibold'; font-size:7.98;">i</tspan><tspan x="24.338" y="0" style="font-family:'ProductusSemibold'; font-size:7.98;">nt</tspan><tspan x="31.696" y="0" style="font-family:'ProductusSemibold'; font-size:7.98;"> </tspan></text>
<text transform="matrix(1 0 0 1 2.5801 185.4595)"><tspan x="0" y="0" style="font-family:'ProductusSemibold'; font-size:7.98;">C</tspan><tspan x="4.676" y="0" style="font-family:'ProductusSemibold'; font-size:7.98;">o</tspan><tspan x="9.049" y="0" style="font-family:'ProductusSemibold'; font-size:7.98;">n</tspan><tspan x="13.302" y="0" style="font-family:'ProductusSemibold'; font-size:7.98;">t</tspan><tspan x="16.422" y="0" style="font-family:'ProductusSemibold'; font-size:7.98;">a</tspan><tspan x="20.38" y="0" style="font-family:'ProductusSemibold'; font-size:7.98;">i</tspan><tspan x="22.535" y="0" style="font-family:'ProductusSemibold'; font-size:7.98;">n</tspan><tspan x="26.852" y="0" style="font-family:'ProductusSemibold'; font-size:7.98;">e</tspan><tspan x="30.93" y="0" style="font-family:'ProductusSemibold'; font-size:7.98;">r</tspan></text>
<rect x="87.66" y="114.96" width="54.3" height="27"/>
<rect x="87.66" y="114.72" width="54.54" height="0.48"/>
<rect x="141.72" y="114.96" width="0.48" height="27.24"/>
<rect x="87.42" y="141.72" width="54.54" height="0.48"/>
<rect x="87.42" y="114.72" width="0.48" height="27.24"/>
<rect x="85.26" y="113.16" style="fill:#FFFFFF;" width="54.36" height="27"/>
<rect x="85.26" y="112.92" width="54.601" height="0.48"/>
<rect x="139.38" y="113.16" width="0.48" height="27.24"/>
<rect x="85.021" y="139.92" width="54.6" height="0.48"/>
<rect x="85.021" y="112.92" width="0.479" height="27.24"/>
<text transform="matrix(1 0 0 1 87.6602 120.3003)"><tspan x="0" y="0" style="font-family:'ProductusOSGiBookc'; font-size:7.98;">Bean</tspan><tspan x="13.949" y="0" style="font-family:'ProductusOSGiBookc'; font-size:7.98;"> </tspan><tspan x="15.513" y="0" style="font-family:'ProductusOSGiBookc'; font-size:7.98;">Imp</tspan><tspan x="26.469" y="0" style="font-family:'ProductusOSGiBookc'; font-size:7.98;">l</tspan></text>
<rect x="94.74" y="122.52" width="54.3" height="27"/>
<rect x="94.74" y="122.28" width="54.54" height="0.48"/>
<rect x="148.8" y="122.52" width="0.48" height="27.24"/>
<rect x="94.5" y="149.28" width="54.54" height="0.48"/>
<rect x="94.5" y="122.28" width="0.48" height="27.24"/>
<rect x="92.34" y="120.72" style="fill:#FFFFFF;" width="54.36" height="27"/>
<rect x="92.34" y="120.48" width="54.601" height="0.48"/>
<rect x="146.46" y="120.72" width="0.48" height="27.24"/>
<rect x="92.101" y="147.48" width="54.6" height="0.48"/>
<rect x="92.101" y="120.48" width="0.479" height="27.24"/>
<text transform="matrix(1 0 0 1 94.7402 127.8599)"><tspan x="0" y="0" style="font-family:'ProductusOSGiBookc'; font-size:7.98;">Ser</tspan><tspan x="9.393" y="0" style="font-family:'ProductusOSGiBookc'; font-size:7.98;">v</tspan><tspan x="12.521" y="0" style="font-family:'ProductusOSGiBookc'; font-size:7.98;">i</tspan><tspan x="14.061" y="0" style="font-family:'ProductusOSGiBookc'; font-size:7.98;">c</tspan><tspan x="17.125" y="0" style="font-family:'ProductusOSGiBookc'; font-size:7.98;">e</tspan><tspan x="20.604" y="0" style="font-family:'ProductusOSGiBookc'; font-size:7.98;"> </tspan><tspan x="22.216" y="0" style="font-family:'ProductusOSGiBookc'; font-size:7.98;">I</tspan><tspan x="23.771" y="0" style="font-family:'ProductusOSGiBookc'; font-size:7.98;">m</tspan><tspan x="29.478" y="0" style="font-family:'ProductusOSGiBookc'; font-size:7.98;">pl</tspan></text>
<rect x="102.72" y="130.5" width="54.36" height="27"/>
<rect x="102.72" y="130.26" width="54.601" height="0.479"/>
<rect x="156.84" y="130.5" width="0.48" height="27.24"/>
<rect x="102.48" y="157.26" width="54.6" height="0.479"/>
<rect x="102.48" y="130.26" width="0.479" height="27.24"/>
<rect x="100.38" y="128.7" style="fill:#FFFFFF;" width="54.3" height="27"/>
<rect x="100.38" y="128.46" width="54.54" height="0.48"/>
<rect x="154.44" y="128.7" width="0.479" height="27.24"/>
<rect x="100.14" y="155.46" width="54.54" height="0.48"/>
<rect x="100.14" y="128.46" width="0.48" height="27.24"/>
<text transform="matrix(1 0 0 1 102.7197 135.8398)"><tspan x="0" y="0" style="font-family:'ProductusOSGiBookc'; font-size:7.98;"> </tspan><tspan x="1.564" y="0" style="font-family:'ProductusOSGiBookc'; font-size:7.98;">R</tspan><tspan x="5.043" y="0" style="font-family:'ProductusOSGiBookc'; font-size:7.98;">e</tspan><tspan x="8.522" y="0" style="font-family:'ProductusOSGiBookc'; font-size:7.98;">f</tspan><tspan x="10.462" y="0" style="font-family:'ProductusOSGiBookc'; font-size:7.98;">e</tspan><tspan x="13.94" y="0" style="font-family:'ProductusOSGiBookc'; font-size:7.98;">r</tspan><tspan x="15.983" y="0" style="font-family:'ProductusOSGiBookc'; font-size:7.98;">en</tspan><tspan x="23.117" y="0" style="font-family:'ProductusOSGiBookc'; font-size:7.98;">c</tspan><tspan x="26.182" y="0" style="font-family:'ProductusOSGiBookc'; font-size:7.98;">e</tspan><tspan x="29.661" y="0" style="font-family:'ProductusOSGiBookc'; font-size:7.98;"> </tspan><tspan x="31.281" y="0" style="font-family:'ProductusOSGiBookc'; font-size:7.98;">I</tspan><tspan x="32.837" y="0" style="font-family:'ProductusOSGiBookc'; font-size:7.98;">m</tspan><tspan x="38.543" y="0" style="font-family:'ProductusOSGiBookc'; font-size:7.98;">p</tspan><tspan x="42.262" y="0" style="font-family:'ProductusOSGiBookc'; font-size:7.98;">l</tspan></text>
<rect x="2.58" y="228.36" width="54.36" height="27"/>
<rect x="2.58" y="228.12" width="54.6" height="0.48"/>
<rect x="56.7" y="228.36" width="0.48" height="27.24"/>
<rect x="2.34" y="255.12" width="54.6" height="0.48"/>
<rect x="2.34" y="228.12" width="0.48" height="27.24"/>
<rect x="0.24" y="226.56" style="fill:#FFFFFF;" width="54.3" height="27"/>
<rect x="0.24" y="226.32" width="54.54" height="0.48"/>
<rect x="54.3" y="226.56" width="0.48" height="27.24"/>
<rect y="253.32" width="54.54" height="0.48"/>
<rect y="226.32" width="0.48" height="27.24"/>
<text transform="matrix(1 0 0 1 2.5801 233.7002)"><tspan x="0" y="0" style="font-family:'ProductusOSGiBookc'; font-size:7.98;">com</tspan><tspan x="12.544" y="0" style="font-family:'ProductusOSGiBookc'; font-size:7.98;">p</tspan><tspan x="16.263" y="0" style="font-family:'ProductusOSGiBookc'; font-size:7.98;">onent </tspan></text>
<text transform="matrix(1 0 0 1.0522 2.5801 242.1602)"><tspan x="0" y="0" style="font-family:'ProductusOSGiBookc'; font-size:7.5841;">instanc</tspan><tspan x="19.24" y="0" style="font-family:'ProductusOSGiBookc'; font-size:7.5841;">e</tspan></text>
<rect x="87.66" y="58.74" width="54.3" height="27"/>
<rect x="87.66" y="58.5" width="54.54" height="0.48"/>
<rect x="141.72" y="58.74" width="0.48" height="27.24"/>
<rect x="87.42" y="85.5" width="54.54" height="0.48"/>
<rect x="87.42" y="58.5" width="0.48" height="27.24"/>
<rect x="85.26" y="56.94" style="fill:#FFFFFF;" width="54.36" height="27"/>
<rect x="85.26" y="56.7" width="54.601" height="0.48"/>
<rect x="139.38" y="56.94" width="0.48" height="27.24"/>
<rect x="85.021" y="83.7" width="54.6" height="0.48"/>
<rect x="85.021" y="56.7" width="0.479" height="27.24"/>
<text transform="matrix(1 0 0 1 87.6602 64.0801)"><tspan x="0" y="0" style="font-family:'ProductusSemibold'; font-size:7.98;">M</tspan><tspan x="6.688" y="0" style="font-family:'ProductusSemibold'; font-size:7.98;">etadat</tspan><tspan x="29.326" y="0" style="font-family:'ProductusSemibold'; font-size:7.98;">a</tspan></text>
<polyline points="68.46,127.8 68.46,131.1 67.8,130.92 56.88,127.8 67.8,124.68 68.46,124.5 68.46,125.16 68.1,125.64 58.86,128.28 
	58.56,127.32 58.86,127.32 68.1,129.96 67.8,130.92 67.44,130.44 67.44,127.8 "/>
<rect x="67.44" y="125.16" width="1.02" height="2.64"/>
<polyline style="fill-rule:evenodd;clip-rule:evenodd;" points="67.98,127.8 67.98,130.44 58.74,127.8 67.98,125.16 "/>
<rect x="68.22" y="127.56" width="17.28" height="0.48"/>
<rect x="28.32" y="21.24" width="0.48" height="35.94"/>
<rect x="28.32" y="85.02" width="0.48" height="28.86"/>
<rect x="29.28" y="141.72" width="0.48" height="28.8"/>
<rect x="28.32" y="198.42" width="0.48" height="28.8"/>
<rect x="110.7" y="138.48" width="54.36" height="27"/>
<rect x="110.7" y="138.24" width="54.6" height="0.48"/>
<rect x="164.82" y="138.48" width="0.479" height="27.24"/>
<rect x="110.46" y="165.24" width="54.601" height="0.48"/>
<rect x="110.46" y="138.24" width="0.48" height="27.24"/>
<rect x="108.36" y="136.68" style="fill:#FFFFFF;" width="54.359" height="27"/>
<rect x="108.36" y="136.44" width="54.6" height="0.48"/>
<rect x="162.48" y="136.68" width="0.479" height="27.24"/>
<rect x="108.12" y="163.44" width="54.6" height="0.48"/>
<rect x="108.12" y="136.44" width="0.48" height="27.24"/>
<text transform="matrix(1 0 0 1 110.7002 143.8198)"><tspan x="0" y="0" style="font-family:'ProductusOSGiBookc'; font-size:7.98;"> </tspan><tspan x="1.612" y="0" style="font-family:'ProductusOSGiBookc'; font-size:7.98;">R</tspan><tspan x="5.083" y="0" style="font-family:'ProductusOSGiBookc'; font-size:7.98;">e</tspan><tspan x="8.562" y="0" style="font-family:'ProductusOSGiBookc'; font-size:7.98;">f</tspan><tspan x="10.502" y="0" style="font-family:'ProductusOSGiBookc'; font-size:7.98;">e</tspan><tspan x="13.98" y="0" style="font-family:'ProductusOSGiBookc'; font-size:7.98;">r</tspan><tspan x="16.023" y="0" style="font-family:'ProductusOSGiBookc'; font-size:7.98;">e</tspan><tspan x="19.447" y="0" style="font-family:'ProductusOSGiBookc'; font-size:7.98;">n</tspan><tspan x="23.102" y="0" style="font-family:'ProductusOSGiBookc'; font-size:7.98;">c</tspan><tspan x="26.222" y="0" style="font-family:'ProductusOSGiBookc'; font-size:7.98;">e</tspan><tspan x="29.701" y="0" style="font-family:'ProductusOSGiBookc'; font-size:7.98;">-</tspan><tspan x="32.343" y="0" style="font-family:'ProductusOSGiBookc'; font-size:7.98;">l</tspan><tspan x="33.898" y="0" style="font-family:'ProductusOSGiBookc'; font-size:7.98;">i</tspan><tspan x="35.406" y="0" style="font-family:'ProductusOSGiBookc'; font-size:7.98;">s</tspan><tspan x="38.224" y="0" style="font-family:'ProductusOSGiBookc'; font-size:7.98;">t</tspan><tspan x="40.562" y="0" style="font-family:'ProductusOSGiBookc'; font-size:7.98;"> </tspan></text>
<text transform="matrix(1 0 0 1 110.7002 152.3403)"><tspan x="0" y="0" style="font-family:'ProductusOSGiBookc'; font-size:7.98;">Im</tspan><tspan x="7.27" y="0" style="font-family:'ProductusOSGiBookc'; font-size:7.98;">p</tspan><tspan x="10.988" y="0" style="font-family:'ProductusOSGiBookc'; font-size:7.98;">l</tspan></text>
<rect x="118.14" y="146.64" width="54.301" height="27"/>
<rect x="118.14" y="146.4" width="54.54" height="0.48"/>
<rect x="172.2" y="146.64" width="0.479" height="27.24"/>
<rect x="117.9" y="173.4" width="54.54" height="0.48"/>
<rect x="117.9" y="146.4" width="0.479" height="27.24"/>
<rect x="115.74" y="144.84" style="fill:#FFFFFF;" width="54.36" height="27"/>
<rect x="115.74" y="144.6" width="54.6" height="0.48"/>
<rect x="169.86" y="144.84" width="0.479" height="27.24"/>
<rect x="115.5" y="171.6" width="54.601" height="0.48"/>
<rect x="115.5" y="144.6" width="0.48" height="27.24"/>
<text transform="matrix(1 0 0 1 118.1396 151.98)"><tspan x="0" y="0" style="font-family:'ProductusOSGiBookc'; font-size:7.98;">E</tspan><tspan x="3.407" y="0" style="font-family:'ProductusOSGiBookc'; font-size:7.98;">n</tspan><tspan x="6.95" y="0" style="font-family:'ProductusOSGiBookc'; font-size:7.98;">v</tspan><tspan x="10.078" y="0" style="font-family:'ProductusOSGiBookc'; font-size:7.98;">i</tspan><tspan x="11.635" y="0" style="font-family:'ProductusOSGiBookc'; font-size:7.98;">r</tspan><tspan x="13.678" y="0" style="font-family:'ProductusOSGiBookc'; font-size:7.98;">o</tspan><tspan x="17.404" y="0" style="font-family:'ProductusOSGiBookc'; font-size:7.98;">nmen</tspan><tspan x="33.986" y="0" style="font-family:'ProductusOSGiBookc'; font-size:7.98;">t</tspan></text>
<text transform="matrix(1 0 0 1 118.1396 160.4404)"><tspan x="0" y="0" style="font-family:'ProductusOSGiBookc'; font-size:7.98;">Imp</tspan><tspan x="10.956" y="0" style="font-family:'ProductusOSGiBookc'; font-size:7.98;">l</tspan></text>
<polyline style="fill-rule:evenodd;clip-rule:evenodd;fill:#FFFFFF;" points="7.02,28.56 7.02,0.24 49.86,0.24 49.86,20.46 "/>
<rect x="6.78" width="0.48" height="28.56"/>
<rect x="7.02" width="43.08" height="0.48"/>
<polyline points="50.1,0.24 50.1,20.64 49.92,20.7 7.08,28.8 6.78,28.86 6.78,28.56 7.02,28.32 49.86,20.22 49.92,20.7 49.62,20.46 
	49.62,0.24 "/>
<text transform="matrix(1 0 0 1 10.98 10.6802)"><tspan x="0" y="0" style="font-family:'ProductusSemibold'; font-size:7.98;">blueprin</tspan><tspan x="28.592" y="0" style="font-family:'ProductusSemibold'; font-size:7.98;">t</tspan></text>
<text transform="matrix(1 0 0 1 10.98 20.3999)"><tspan x="0" y="0" style="font-family:'ProductusSemibold'; font-size:7.98;">xm</tspan><tspan x="10.318" y="0" style="font-family:'ProductusSemibold'; font-size:7.98;">l</tspan></text>
<rect x="142.62" y="170.04" width="0.48" height="1.26"/>
<rect x="142.62" y="175.26" width="0.48" height="1.92"/>
<rect x="142.62" y="181.14" width="0.48" height="1.98"/>
<rect x="142.62" y="187.08" width="0.48" height="1.92"/>
<rect x="142.62" y="192.96" width="0.48" height="1.98"/>
<rect x="142.62" y="198.84" width="0.48" height="1.98"/>
<rect x="142.62" y="204.78" width="0.48" height="1.92"/>
<rect x="142.62" y="210.66" width="0.48" height="1.98"/>
<rect x="142.62" y="216.6" width="0.48" height="1.92"/>
<rect x="142.62" y="222.48" width="0.48" height="1.92"/>
<rect x="142.62" y="228.36" width="0.48" height="1.98"/>
<rect x="142.62" y="234.3" width="0.48" height="1.92"/>
<rect x="142.62" y="240.18" width="0.48" height="1.26"/>
<rect x="141.9" y="240.96" width="0.96" height="0.48"/>
<rect x="135.84" y="240.96" width="1.98" height="0.48"/>
<rect x="129.72" y="240.96" width="2.04" height="0.48"/>
<rect x="123.66" y="240.96" width="1.979" height="0.48"/>
<rect x="117.601" y="240.96" width="1.979" height="0.48"/>
<rect x="111.54" y="240.96" width="1.98" height="0.48"/>
<rect x="105.42" y="240.96" width="2.04" height="0.48"/>
<rect x="99.36" y="240.96" width="1.979" height="0.48"/>
<rect x="93.3" y="240.96" width="1.98" height="0.48"/>
<rect x="87.24" y="240.96" width="1.979" height="0.48"/>
<rect x="81.12" y="240.96" width="2.04" height="0.48"/>
<rect x="75.06" y="240.96" width="1.98" height="0.48"/>
<rect x="69" y="240.96" width="1.98" height="0.48"/>
<rect x="62.88" y="240.96" width="2.04" height="0.48"/>
<rect x="57.6" y="240.96" width="1.26" height="0.48"/>
<text transform="matrix(1 0 0 1 30.1802 111.2397)" style="font-family:'ProductusBook'; font-size:7.98;">1</text>
<text transform="matrix(1 0 0 1 29.52 92.6401)" style="font-family:'ProductusBook'; font-size:7.98;">0,1</text>
<text transform="matrix(1 0 0 1 31.1401 167.9404)" style="font-family:'ProductusBook'; font-size:7.98;">1</text>
<text transform="matrix(1 0 0 1 30.4204 149.3403)" style="font-family:'ProductusBook'; font-size:7.98;">*</text>
<text transform="matrix(1 0 0 1 31.1401 224.6406)" style="font-family:'ProductusBook'; font-size:7.98;">*</text>
<text transform="matrix(1 0 0 1 30.4204 206.041)" style="font-family:'ProductusBook'; font-size:7.98;">1</text>
<text transform="matrix(1 0 0 1 146.8203 220.2007)"><tspan x="0" y="0" style="font-family:'ProductusBook'; font-size:7.98;">m</tspan><tspan x="5.817" y="0" style="font-family:'ProductusBook'; font-size:7.98;">a</tspan><tspan x="9.121" y="0" style="font-family:'ProductusBook'; font-size:7.98;">n</tspan><tspan x="12.784" y="0" style="font-family:'ProductusBook'; font-size:7.98;">a</tspan><tspan x="16.144" y="0" style="font-family:'ProductusBook'; font-size:7.98;">g</tspan><tspan x="19.447" y="0" style="font-family:'ProductusBook'; font-size:7.98;">e</tspan><tspan x="22.935" y="0" style="font-family:'ProductusBook'; font-size:7.98;">s</tspan></text>
<text transform="matrix(1 0 0 1 80.1006 68.7002)" style="font-family:'ProductusBook'; font-size:7.98;">*</text>
<text transform="matrix(1 0 0 1 57.8403 68.7603)" style="font-family:'ProductusBook'; font-size:7.98;">1</text>
<polyline style="fill-rule:evenodd;clip-rule:evenodd;" points="57.84,184.5 43.68,198.66 57.84,198.66 "/>
<polyline points="58.02,184.68 43.86,198.84 43.68,198.9 43.08,198.9 57.66,184.32 "/>
<rect x="43.68" y="198.42" width="14.4" height="0.48"/>
<polyline points="57.6,198.66 57.6,184.5 57.66,184.32 58.08,183.9 58.08,198.66 "/>
<rect x="57.6" y="70.86" width="0.24" height="0.48"/>
<rect x="57.84" y="70.86" width="28.56" height="0.48"/>
<rect x="135.54" y="42.48" width="0.48" height="14.7"/>
<rect x="121.38" y="42.48" width="14.4" height="0.48"/>
<rect x="121.38" y="42.72" width="0.48" height="14.46"/>
<text transform="matrix(1 0 0 1 118.0801 54.54)" style="font-family:'ProductusBook'; font-size:7.98;">1</text>
<text transform="matrix(1 0 0 1 138.8398 54.3599)" style="font-family:'ProductusBook'; font-size:7.98;">*</text>
<rect x="29.52" y="155.88" width="0.24" height="0.48"/>
<rect x="28.5" y="155.88" width="1.02" height="0.48"/>
<rect x="24.78" y="155.88" width="0.24" height="0.48"/>
<rect x="23.22" y="155.88" width="1.56" height="0.48"/>
<rect x="19.5" y="155.88" width="0.24" height="0.48"/>
<rect x="17.94" y="155.88" width="1.56" height="0.48"/>
<rect x="14.28" y="155.88" width="0.24" height="0.48"/>
<rect x="12.72" y="155.88" width="1.56" height="0.48"/>
<rect x="9" y="155.88" width="0.24" height="0.48"/>
<rect x="7.98" y="155.88" width="1.02" height="0.48"/>
<text transform="matrix(1 0 0 1 7.3203 156.4199)" style="font-family:'ProductusBook'; font-size:7.98;">id</text>
</svg>
