<?xml version="1.0" encoding="utf-8"?>
<!-- Generator: Adobe Illustrator 16.0.0, SVG Export Plug-In . SVG Version: 6.00 Build 0)  -->
<!DOCTYPE svg PUBLIC "-//W3C//DTD SVG 1.1//EN" "http://www.w3.org/Graphics/SVG/1.1/DTD/svg11.dtd">
<svg version="1.1" id="Layer_1" xmlns="http://www.w3.org/2000/svg" xmlns:xlink="http://www.w3.org/1999/xlink" x="0px" y="0px"
	 width="326.46px" height="220.2px" viewBox="0 0 326.46 220.2" style="enable-background:new 0 0 326.46 220.2;"
	 xml:space="preserve">
<rect x="71.1" y="156.18" style="fill:#FFFFFF;" width="14.16" height="14.16"/>
<rect x="71.1" y="155.94" style="fill:#FFFFFF;" width="14.4" height="0.48"/>
<rect x="85.02" y="156.18" style="fill:#FFFFFF;" width="0.48" height="14.4"/>
<rect x="70.86" y="170.1" style="fill:#FFFFFF;" width="14.4" height="0.48"/>
<rect x="70.86" y="155.94" style="fill:#FFFFFF;" width="0.48" height="14.4"/>
<rect x="113.64" width="42.72" height="0.48"/>
<rect x="155.88" y="0.24" width="0.48" height="21.54"/>
<rect x="113.4" y="21.3" width="42.72" height="0.479"/>
<rect x="113.4" width="0.48" height="21.54"/>
<text transform="matrix(1 0 0 1 121.1401 7.6201)"><tspan x="0" y="0" style="font-family:'ProductusOSGiBookc'; font-size:7.98;">Metad</tspan><tspan x="18.617" y="0" style="font-family:'ProductusOSGiBookc'; font-size:7.98;">a</tspan><tspan x="21.897" y="0" style="font-family:'ProductusOSGiBookc'; font-size:7.98;">t</tspan><tspan x="24.235" y="0" style="font-family:'ProductusOSGiBookc'; font-size:7.98;">a</tspan></text>
<rect x="113.64" y="49.62" width="42.72" height="0.48"/>
<rect x="155.88" y="49.86" width="0.48" height="21.54"/>
<rect x="113.4" y="70.92" width="42.72" height="0.48"/>
<rect x="113.4" y="49.62" width="0.48" height="21.54"/>
<text transform="matrix(1 0 0 1 123.1201 57.2397)"><tspan x="0" y="0" style="font-family:'ProductusOSGiBookc'; font-size:7.98;">NonNul</tspan><tspan x="21.984" y="0" style="font-family:'ProductusOSGiBookc'; font-size:7.98;">l</tspan></text>
<text transform="matrix(1 0 0 1 121.1401 66.8999)"><tspan x="0" y="0" style="font-family:'ProductusOSGiBookc'; font-size:7.98;">Met</tspan><tspan x="11.659" y="0" style="font-family:'ProductusOSGiBookc'; font-size:7.98;">a</tspan><tspan x="14.938" y="0" style="font-family:'ProductusOSGiBookc'; font-size:7.98;">d</tspan><tspan x="18.609" y="0" style="font-family:'ProductusOSGiBookc'; font-size:7.98;">a</tspan><tspan x="21.889" y="0" style="font-family:'ProductusOSGiBookc'; font-size:7.98;">t</tspan><tspan x="24.227" y="0" style="font-family:'ProductusOSGiBookc'; font-size:7.98;">a</tspan></text>
<rect x="0.24" y="49.62" width="42.78" height="0.48"/>
<rect x="42.54" y="49.86" width="0.48" height="21.54"/>
<rect y="70.92" width="42.78" height="0.48"/>
<rect y="49.62" width="0.48" height="21.54"/>
<text transform="matrix(1 0 0 1 15.7803 57.2397)"><tspan x="0" y="0" style="font-family:'ProductusOSGiBookc'; font-size:7.98;">Nul</tspan><tspan x="9.903" y="0" style="font-family:'ProductusOSGiBookc'; font-size:7.98;">l</tspan></text>
<text transform="matrix(1 0 0 1 7.7402 66.8999)"><tspan x="0" y="0" style="font-family:'ProductusOSGiBookc'; font-size:7.98;">Metadat</tspan><tspan x="24.243" y="0" style="font-family:'ProductusOSGiBookc'; font-size:7.98;">a</tspan></text>
<rect x="113.64" y="99.24" width="42.72" height="0.48"/>
<rect x="155.88" y="99.48" width="0.48" height="21.48"/>
<rect x="113.4" y="120.48" width="42.72" height="0.48"/>
<rect x="113.4" y="99.24" width="0.48" height="21.48"/>
<text transform="matrix(1 0 0 1 117.6602 106.8599)"><tspan x="0" y="0" style="font-family:'ProductusOSGiBookc'; font-size:7.98;">C</tspan><tspan x="4.142" y="0" style="font-family:'ProductusOSGiBookc'; font-size:7.98;">o</tspan><tspan x="7.916" y="0" style="font-family:'ProductusOSGiBookc'; font-size:7.98;">m</tspan><tspan x="13.669" y="0" style="font-family:'ProductusOSGiBookc'; font-size:7.98;">p</tspan><tspan x="17.333" y="0" style="font-family:'ProductusOSGiBookc'; font-size:7.98;">o</tspan><tspan x="21.107" y="0" style="font-family:'ProductusOSGiBookc'; font-size:7.98;">ne</tspan><tspan x="28.241" y="0" style="font-family:'ProductusOSGiBookc'; font-size:7.98;">n</tspan><tspan x="31.848" y="0" style="font-family:'ProductusOSGiBookc'; font-size:7.98;">t</tspan></text>
<text transform="matrix(1 0 0 1 121.1401 116.52)"><tspan x="0" y="0" style="font-family:'ProductusOSGiBookc'; font-size:7.98;">Metad</tspan><tspan x="18.617" y="0" style="font-family:'ProductusOSGiBookc'; font-size:7.98;">a</tspan><tspan x="21.897" y="0" style="font-family:'ProductusOSGiBookc'; font-size:7.98;">t</tspan><tspan x="24.235" y="0" style="font-family:'ProductusOSGiBookc'; font-size:7.98;">a</tspan></text>
<rect x="170.34" y="99.24" width="42.721" height="0.48"/>
<rect x="212.58" y="99.48" width="0.48" height="21.48"/>
<rect x="170.101" y="120.48" width="42.72" height="0.48"/>
<rect x="170.101" y="99.24" width="0.479" height="21.48"/>
<text transform="matrix(1 0 0 1 177.0605 106.8599)"><tspan x="0" y="0" style="font-family:'ProductusOSGiBookc'; font-size:7.98;">C</tspan><tspan x="4.142" y="0" style="font-family:'ProductusOSGiBookc'; font-size:7.98;">o</tspan><tspan x="7.916" y="0" style="font-family:'ProductusOSGiBookc'; font-size:7.98;">l</tspan><tspan x="9.472" y="0" style="font-family:'ProductusOSGiBookc'; font-size:7.98;">l</tspan><tspan x="10.98" y="0" style="font-family:'ProductusOSGiBookc'; font-size:7.98;">e</tspan><tspan x="14.459" y="0" style="font-family:'ProductusOSGiBookc'; font-size:7.98;">c</tspan><tspan x="17.523" y="0" style="font-family:'ProductusOSGiBookc'; font-size:7.98;">t</tspan><tspan x="19.861" y="0" style="font-family:'ProductusOSGiBookc'; font-size:7.98;">i</tspan><tspan x="21.418" y="0" style="font-family:'ProductusOSGiBookc'; font-size:7.98;">o</tspan><tspan x="25.192" y="0" style="font-family:'ProductusOSGiBookc'; font-size:7.98;">n</tspan></text>
<text transform="matrix(1 0 0 1 177.8398 116.52)"><tspan x="0" y="0" style="font-family:'ProductusOSGiBookc'; font-size:7.98;">Met</tspan><tspan x="11.658" y="0" style="font-family:'ProductusOSGiBookc'; font-size:7.98;">a</tspan><tspan x="14.938" y="0" style="font-family:'ProductusOSGiBookc'; font-size:7.98;">d</tspan><tspan x="18.609" y="0" style="font-family:'ProductusOSGiBookc'; font-size:7.98;">a</tspan><tspan x="21.889" y="0" style="font-family:'ProductusOSGiBookc'; font-size:7.98;">t</tspan><tspan x="24.227" y="0" style="font-family:'ProductusOSGiBookc'; font-size:7.98;">a</tspan></text>
<rect x="227.04" y="99.24" width="42.72" height="0.48"/>
<rect x="269.28" y="99.48" width="0.479" height="21.48"/>
<rect x="226.8" y="120.48" width="42.721" height="0.48"/>
<rect x="226.8" y="99.24" width="0.48" height="21.48"/>
<text transform="matrix(1 0 0 1 241.8604 106.8599)"><tspan x="0" y="0" style="font-family:'ProductusOSGiBookc'; font-size:7.98;">Ma</tspan><tspan x="9.177" y="0" style="font-family:'ProductusOSGiBookc'; font-size:7.98;">p</tspan></text>
<text transform="matrix(1 0 0 1 234.54 116.52)"><tspan x="0" y="0" style="font-family:'ProductusOSGiBookc'; font-size:7.98;">Met</tspan><tspan x="11.658" y="0" style="font-family:'ProductusOSGiBookc'; font-size:7.98;">a</tspan><tspan x="14.938" y="0" style="font-family:'ProductusOSGiBookc'; font-size:7.98;">d</tspan><tspan x="18.609" y="0" style="font-family:'ProductusOSGiBookc'; font-size:7.98;">a</tspan><tspan x="21.889" y="0" style="font-family:'ProductusOSGiBookc'; font-size:7.98;">t</tspan><tspan x="24.227" y="0" style="font-family:'ProductusOSGiBookc'; font-size:7.98;">a</tspan></text>
<rect x="0.24" y="99.24" width="42.78" height="0.48"/>
<rect x="42.54" y="99.48" width="0.48" height="21.48"/>
<rect y="120.48" width="42.78" height="0.48"/>
<rect y="99.24" width="0.48" height="21.48"/>
<text transform="matrix(1 0 0 1 13.5 106.8599)"><tspan x="0" y="0" style="font-family:'ProductusOSGiBookc'; font-size:7.98;">V</tspan><tspan x="3.663" y="0" style="font-family:'ProductusOSGiBookc'; font-size:7.98;">a</tspan><tspan x="6.958" y="0" style="font-family:'ProductusOSGiBookc'; font-size:7.98;">l</tspan><tspan x="8.467" y="0" style="font-family:'ProductusOSGiBookc'; font-size:7.98;">u</tspan><tspan x="12.121" y="0" style="font-family:'ProductusOSGiBookc'; font-size:7.98;">e</tspan></text>
<text transform="matrix(1 0 0 1 7.7402 116.52)"><tspan x="0" y="0" style="font-family:'ProductusOSGiBookc'; font-size:7.98;">Meta</tspan><tspan x="14.946" y="0" style="font-family:'ProductusOSGiBookc'; font-size:7.98;">d</tspan><tspan x="18.609" y="0" style="font-family:'ProductusOSGiBookc'; font-size:7.98;">at</tspan><tspan x="24.235" y="0" style="font-family:'ProductusOSGiBookc'; font-size:7.98;">a</tspan></text>
<rect x="56.94" y="99.24" width="42.72" height="0.48"/>
<rect x="99.18" y="99.48" width="0.48" height="21.48"/>
<rect x="56.7" y="120.48" width="42.72" height="0.48"/>
<rect x="56.7" y="99.24" width="0.48" height="21.48"/>
<text transform="matrix(1 0 0 1 71.1001 106.8599)"><tspan x="0" y="0" style="font-family:'ProductusOSGiBookc'; font-size:7.98;">I</tspan><tspan x="1.508" y="0" style="font-family:'ProductusOSGiBookc'; font-size:7.98;">d</tspan><tspan x="5.227" y="0" style="font-family:'ProductusOSGiBookc'; font-size:7.98;">R</tspan><tspan x="8.714" y="0" style="font-family:'ProductusOSGiBookc'; font-size:7.98;">e</tspan><tspan x="12.193" y="0" style="font-family:'ProductusOSGiBookc'; font-size:7.98;">f</tspan></text>
<text transform="matrix(1 0 0 1 64.4399 116.52)"><tspan x="0" y="0" style="font-family:'ProductusOSGiBookc'; font-size:7.98;">Meta</tspan><tspan x="14.946" y="0" style="font-family:'ProductusOSGiBookc'; font-size:7.98;">d</tspan><tspan x="18.609" y="0" style="font-family:'ProductusOSGiBookc'; font-size:7.98;">at</tspan><tspan x="24.235" y="0" style="font-family:'ProductusOSGiBookc'; font-size:7.98;">a</tspan></text>
<rect x="227.04" y="49.62" width="42.72" height="0.48"/>
<rect x="269.28" y="49.86" width="0.479" height="21.54"/>
<rect x="226.8" y="70.92" width="42.721" height="0.48"/>
<rect x="226.8" y="49.62" width="0.48" height="21.54"/>
<text transform="matrix(1 0 0 1 241.8604 57.2397)"><tspan x="0" y="0" style="font-family:'ProductusOSGiBookc'; font-size:7.98;">Ma</tspan><tspan x="9.177" y="0" style="font-family:'ProductusOSGiBookc'; font-size:7.98;">p</tspan></text>
<text transform="matrix(1 0 0 1 240.9004 66.8999)"><tspan x="0" y="0" style="font-family:'ProductusOSGiBookc'; font-size:7.98;">E</tspan><tspan x="3.399" y="0" style="font-family:'ProductusOSGiBookc'; font-size:7.98;">n</tspan><tspan x="7.006" y="0" style="font-family:'ProductusOSGiBookc'; font-size:7.98;">tr</tspan><tspan x="11.587" y="0" style="font-family:'ProductusOSGiBookc'; font-size:7.98;">y</tspan></text>
<rect x="170.34" y="49.62" width="42.721" height="0.48"/>
<rect x="212.58" y="49.86" width="0.48" height="21.54"/>
<rect x="170.101" y="70.92" width="42.72" height="0.48"/>
<rect x="170.101" y="49.62" width="0.479" height="21.54"/>
<text transform="matrix(1 0 0 1 183.7197 57.2397)"><tspan x="0" y="0" style="font-family:'ProductusOSGiBookc'; font-size:7.98;">P</tspan><tspan x="3.24" y="0" style="font-family:'ProductusOSGiBookc'; font-size:7.98;">r</tspan><tspan x="5.282" y="0" style="font-family:'ProductusOSGiBookc'; font-size:7.98;">ops</tspan></text>
<text transform="matrix(1 0 0 1 177.8408 66.8999)"><tspan x="0" y="0" style="font-family:'ProductusOSGiBookc'; font-size:7.98;">Metad</tspan><tspan x="18.617" y="0" style="font-family:'ProductusOSGiBookc'; font-size:7.98;">a</tspan><tspan x="21.896" y="0" style="font-family:'ProductusOSGiBookc'; font-size:7.98;">t</tspan><tspan x="24.235" y="0" style="font-family:'ProductusOSGiBookc'; font-size:7.98;">a</tspan></text>
<rect x="198.66" y="148.86" width="42.78" height="0.48"/>
<rect x="240.96" y="149.1" width="0.48" height="21.48"/>
<rect x="198.42" y="170.1" width="42.78" height="0.48"/>
<rect x="198.42" y="148.86" width="0.48" height="21.48"/>
<text transform="matrix(1 0 0 1 212.9404 156.4199)"><tspan x="0" y="0" style="font-family:'ProductusOSGiBookc'; font-size:7.98;">Bea</tspan><tspan x="10.318" y="0" style="font-family:'ProductusOSGiBookc'; font-size:7.98;">n</tspan></text>
<text transform="matrix(1 0 0 1 206.1602 166.1396)"><tspan x="0" y="0" style="font-family:'ProductusOSGiBookc'; font-size:7.98;">Me</tspan><tspan x="9.337" y="0" style="font-family:'ProductusOSGiBookc'; font-size:7.98;">t</tspan><tspan x="11.619" y="0" style="font-family:'ProductusOSGiBookc'; font-size:7.98;">a</tspan><tspan x="14.914" y="0" style="font-family:'ProductusOSGiBookc'; font-size:7.98;">d</tspan><tspan x="18.577" y="0" style="font-family:'ProductusOSGiBookc'; font-size:7.98;">at</tspan><tspan x="24.219" y="0" style="font-family:'ProductusOSGiBookc'; font-size:7.98;">a</tspan></text>
<rect x="56.94" y="148.86" width="42.72" height="0.48"/>
<rect x="99.18" y="149.1" width="0.48" height="21.48"/>
<rect x="56.7" y="170.1" width="42.72" height="0.48"/>
<rect x="56.7" y="148.86" width="0.48" height="21.48"/>
<text transform="matrix(1 0 0 1 73.6802 156.4199)"><tspan x="0" y="0" style="font-family:'ProductusOSGiBookc'; font-size:7.98;">R</tspan><tspan x="3.487" y="0" style="font-family:'ProductusOSGiBookc'; font-size:7.98;">e</tspan><tspan x="6.966" y="0" style="font-family:'ProductusOSGiBookc'; font-size:7.98;">f</tspan></text>
<text transform="matrix(1 0 0 1 64.4399 166.1396)"><tspan x="0" y="0" style="font-family:'ProductusOSGiBookc'; font-size:7.98;">Metadat</tspan><tspan x="24.243" y="0" style="font-family:'ProductusOSGiBookc'; font-size:7.98;">a</tspan></text>
<rect x="283.68" y="148.86" width="42.78" height="0.48"/>
<rect x="325.98" y="149.1" width="0.479" height="21.48"/>
<rect x="283.44" y="170.1" width="42.779" height="0.48"/>
<rect x="283.44" y="148.86" width="0.479" height="21.48"/>
<text transform="matrix(1 0 0 1 294.6602 156.4199)"><tspan x="0" y="0" style="font-family:'ProductusOSGiBookc'; font-size:7.98;">S</tspan><tspan x="3.663" y="0" style="font-family:'ProductusOSGiBookc'; font-size:7.98;">ervic</tspan><tspan x="17.141" y="0" style="font-family:'ProductusOSGiBookc'; font-size:7.98;">e</tspan></text>
<text transform="matrix(1 0 0 1 291.1797 166.1396)"><tspan x="0" y="0" style="font-family:'ProductusOSGiBookc'; font-size:7.98;">Metad</tspan><tspan x="18.617" y="0" style="font-family:'ProductusOSGiBookc'; font-size:7.98;">a</tspan><tspan x="21.896" y="0" style="font-family:'ProductusOSGiBookc'; font-size:7.98;">t</tspan><tspan x="24.235" y="0" style="font-family:'ProductusOSGiBookc'; font-size:7.98;">a</tspan></text>
<rect x="0.24" y="148.86" width="42.78" height="0.48"/>
<rect x="42.54" y="149.1" width="0.48" height="21.48"/>
<rect y="170.1" width="42.78" height="0.48"/>
<rect y="148.86" width="0.48" height="21.48"/>
<text transform="matrix(1 0 0 1 5.1001 156.4199)"><tspan x="0" y="0" style="font-family:'ProductusOSGiBookc'; font-size:7.98;">S</tspan><tspan x="3.663" y="0" style="font-family:'ProductusOSGiBookc'; font-size:7.98;">ervice</tspan><tspan x="20.62" y="0" style="font-family:'ProductusOSGiBookc'; font-size:7.98;"> </tspan><tspan x="22.24" y="0" style="font-family:'ProductusOSGiBookc'; font-size:7.98;">R</tspan><tspan x="25.727" y="0" style="font-family:'ProductusOSGiBookc'; font-size:7.98;">e</tspan><tspan x="29.15" y="0" style="font-family:'ProductusOSGiBookc'; font-size:7.98;">f</tspan><tspan x="31.018" y="0" style="font-family:'ProductusOSGiBookc'; font-size:7.98;">.</tspan></text>
<text transform="matrix(1 0 0 1 7.7397 166.1396)"><tspan x="0" y="0" style="font-family:'ProductusOSGiBookc'; font-size:7.98;">Meta</tspan><tspan x="14.946" y="0" style="font-family:'ProductusOSGiBookc'; font-size:7.98;">d</tspan><tspan x="18.609" y="0" style="font-family:'ProductusOSGiBookc'; font-size:7.98;">at</tspan><tspan x="24.235" y="0" style="font-family:'ProductusOSGiBookc'; font-size:7.98;">a</tspan></text>
<rect x="56.94" y="198.48" width="42.72" height="0.48"/>
<rect x="99.18" y="198.72" width="0.48" height="21.479"/>
<rect x="56.7" y="219.72" width="42.72" height="0.479"/>
<rect x="56.7" y="198.48" width="0.48" height="21.48"/>
<text transform="matrix(1 0 0 1 68.04 206.0405)"><tspan x="0" y="0" style="font-family:'ProductusOSGiBookc'; font-size:7.98;">R</tspan><tspan x="3.503" y="0" style="font-family:'ProductusOSGiBookc'; font-size:7.98;">e</tspan><tspan x="6.982" y="0" style="font-family:'ProductusOSGiBookc'; font-size:7.98;">f</tspan><tspan x="8.954" y="0" style="font-family:'ProductusOSGiBookc'; font-size:7.98;"> </tspan><tspan x="10.573" y="0" style="font-family:'ProductusOSGiBookc'; font-size:7.98;">L</tspan><tspan x="13.574" y="0" style="font-family:'ProductusOSGiBookc'; font-size:7.98;">i</tspan><tspan x="15.13" y="0" style="font-family:'ProductusOSGiBookc'; font-size:7.98;">s</tspan><tspan x="17.947" y="0" style="font-family:'ProductusOSGiBookc'; font-size:7.98;">t</tspan></text>
<text transform="matrix(1 0 0 1 64.4404 215.7593)"><tspan x="0" y="0" style="font-family:'ProductusOSGiBookc'; font-size:7.98;">Meta</tspan><tspan x="14.946" y="0" style="font-family:'ProductusOSGiBookc'; font-size:7.98;">d</tspan><tspan x="18.609" y="0" style="font-family:'ProductusOSGiBookc'; font-size:7.98;">at</tspan><tspan x="24.235" y="0" style="font-family:'ProductusOSGiBookc'; font-size:7.98;">a</tspan></text>
<rect x="113.64" y="198.48" width="42.72" height="0.48"/>
<rect x="155.88" y="198.72" width="0.48" height="21.479"/>
<rect x="113.4" y="219.72" width="42.72" height="0.479"/>
<rect x="113.4" y="198.48" width="0.48" height="21.48"/>
<text transform="matrix(1 0 0 1 120.6602 206.0405)"><tspan x="0" y="0" style="font-family:'ProductusOSGiBookc'; font-size:7.98;">Ref</tspan><tspan x="8.826" y="0" style="font-family:'ProductusOSGiBookc'; font-size:7.98;">e</tspan><tspan x="12.305" y="0" style="font-family:'ProductusOSGiBookc'; font-size:7.98;">r</tspan><tspan x="14.348" y="0" style="font-family:'ProductusOSGiBookc'; font-size:7.98;">en</tspan><tspan x="21.482" y="0" style="font-family:'ProductusOSGiBookc'; font-size:7.98;">c</tspan><tspan x="24.602" y="0" style="font-family:'ProductusOSGiBookc'; font-size:7.98;">e</tspan></text>
<text transform="matrix(1 0 0 1 121.1406 215.7593)"><tspan x="0" y="0" style="font-family:'ProductusOSGiBookc'; font-size:7.98;">Met</tspan><tspan x="11.659" y="0" style="font-family:'ProductusOSGiBookc'; font-size:7.98;">a</tspan><tspan x="14.938" y="0" style="font-family:'ProductusOSGiBookc'; font-size:7.98;">d</tspan><tspan x="18.609" y="0" style="font-family:'ProductusOSGiBookc'; font-size:7.98;">a</tspan><tspan x="21.889" y="0" style="font-family:'ProductusOSGiBookc'; font-size:7.98;">t</tspan><tspan x="24.227" y="0" style="font-family:'ProductusOSGiBookc'; font-size:7.98;">a</tspan></text>
<rect x="113.64" y="148.86" width="42.72" height="0.48"/>
<rect x="155.88" y="149.1" width="0.48" height="21.48"/>
<rect x="113.4" y="170.1" width="42.72" height="0.48"/>
<rect x="113.4" y="148.86" width="0.48" height="21.48"/>
<text transform="matrix(1 0 0 1 125.5801 156.4199)"><tspan x="0" y="0" style="font-family:'ProductusOSGiBookc'; font-size:7.98;">T</tspan><tspan x="3.128" y="0" style="font-family:'ProductusOSGiBookc'; font-size:7.98;">a</tspan><tspan x="6.368" y="0" style="font-family:'ProductusOSGiBookc'; font-size:7.98;">r</tspan><tspan x="8.642" y="0" style="font-family:'ProductusOSGiBookc'; font-size:7.98;">g</tspan><tspan x="12.122" y="0" style="font-family:'ProductusOSGiBookc'; font-size:7.98;">e</tspan><tspan x="15.601" y="0" style="font-family:'ProductusOSGiBookc'; font-size:7.98;">t</tspan></text>
<rect x="170.34" y="198.48" width="42.721" height="0.48"/>
<rect x="212.58" y="198.72" width="0.48" height="21.479"/>
<rect x="170.101" y="219.72" width="42.72" height="0.479"/>
<rect x="170.101" y="198.48" width="0.479" height="21.48"/>
<text transform="matrix(1 0 0 1 184.6201 206.0405)"><tspan x="0" y="0" style="font-family:'ProductusOSGiBookc'; font-size:7.98;">Be</tspan><tspan x="7.006" y="0" style="font-family:'ProductusOSGiBookc'; font-size:7.98;">a</tspan><tspan x="10.246" y="0" style="font-family:'ProductusOSGiBookc'; font-size:7.98;">n</tspan></text>
<text transform="matrix(1 0 0 1 179.5205 215.7593)"><tspan x="0" y="0" style="font-family:'ProductusOSGiBookc'; font-size:7.98;">P</tspan><tspan x="3.24" y="0" style="font-family:'ProductusOSGiBookc'; font-size:7.98;">r</tspan><tspan x="5.282" y="0" style="font-family:'ProductusOSGiBookc'; font-size:7.98;">operty</tspan></text>
<rect x="227.04" y="198.48" width="42.72" height="0.48"/>
<rect x="269.28" y="198.72" width="0.479" height="21.479"/>
<rect x="226.8" y="219.72" width="42.721" height="0.479"/>
<rect x="226.8" y="198.48" width="0.48" height="21.48"/>
<text transform="matrix(1 0 0 1 241.3203 206.0405)"><tspan x="0" y="0" style="font-family:'ProductusOSGiBookc'; font-size:7.98;">Be</tspan><tspan x="7.006" y="0" style="font-family:'ProductusOSGiBookc'; font-size:7.98;">a</tspan><tspan x="10.246" y="0" style="font-family:'ProductusOSGiBookc'; font-size:7.98;">n</tspan></text>
<text transform="matrix(1 0 0 1 234 215.7593)"><tspan x="0" y="0" style="font-family:'ProductusOSGiBookc'; font-size:7.98;">Ar</tspan><tspan x="6.208" y="0" style="font-family:'ProductusOSGiBookc'; font-size:7.98;">g</tspan><tspan x="9.688" y="0" style="font-family:'ProductusOSGiBookc'; font-size:7.98;">u</tspan><tspan x="13.343" y="0" style="font-family:'ProductusOSGiBookc'; font-size:7.98;">m</tspan><tspan x="19.096" y="0" style="font-family:'ProductusOSGiBookc'; font-size:7.98;">e</tspan><tspan x="22.575" y="0" style="font-family:'ProductusOSGiBookc'; font-size:7.98;">n</tspan><tspan x="26.198" y="0" style="font-family:'ProductusOSGiBookc'; font-size:7.98;">t</tspan></text>
<rect x="283.68" y="198.48" width="42.78" height="0.48"/>
<rect x="325.98" y="198.72" width="0.479" height="21.479"/>
<rect x="283.44" y="219.72" width="42.779" height="0.479"/>
<rect x="283.44" y="198.48" width="0.479" height="21.48"/>
<text transform="matrix(1 0 0 1 288 206.0405)"><tspan x="0" y="0" style="font-family:'ProductusOSGiBookc'; font-size:7.98;">R</tspan><tspan x="3.487" y="0" style="font-family:'ProductusOSGiBookc'; font-size:7.98;">e</tspan><tspan x="6.967" y="0" style="font-family:'ProductusOSGiBookc'; font-size:7.98;">g</tspan><tspan x="10.445" y="0" style="font-family:'ProductusOSGiBookc'; font-size:7.98;">i</tspan><tspan x="11.954" y="0" style="font-family:'ProductusOSGiBookc'; font-size:7.98;">s</tspan><tspan x="14.771" y="0" style="font-family:'ProductusOSGiBookc'; font-size:7.98;">t</tspan><tspan x="17.108" y="0" style="font-family:'ProductusOSGiBookc'; font-size:7.98;">r</tspan><tspan x="19.327" y="0" style="font-family:'ProductusOSGiBookc'; font-size:7.98;">a</tspan><tspan x="22.623" y="0" style="font-family:'ProductusOSGiBookc'; font-size:7.98;">t</tspan><tspan x="24.961" y="0" style="font-family:'ProductusOSGiBookc'; font-size:7.98;">i</tspan><tspan x="26.469" y="0" style="font-family:'ProductusOSGiBookc'; font-size:7.98;">o</tspan><tspan x="30.243" y="0" style="font-family:'ProductusOSGiBookc'; font-size:7.98;">n</tspan></text>
<text transform="matrix(1 0 0 1 293.7002 215.7593)"><tspan x="0" y="0" style="font-family:'ProductusOSGiBookc'; font-size:7.98;">L</tspan><tspan x="3.04" y="0" style="font-family:'ProductusOSGiBookc'; font-size:7.98;">i</tspan><tspan x="4.549" y="0" style="font-family:'ProductusOSGiBookc'; font-size:7.98;">stene</tspan><tspan x="20.349" y="0" style="font-family:'ProductusOSGiBookc'; font-size:7.98;">r</tspan></text>
<rect x="77.94" y="198.72" width="0.48" height="0.24"/>
<rect x="77.94" y="191.64" width="0.48" height="7.08"/>
<rect x="77.94" y="184.26" width="0.48" height="7.38"/>
<polyline points="35.64,181.86 32.34,181.86 32.52,181.2 35.16,171.96 35.64,170.34 36.12,171.96 38.82,181.2 39,181.86 
	38.34,181.86 37.86,181.5 35.16,172.26 36.12,171.96 36.12,172.26 33.48,181.5 32.52,181.2 33,180.84 35.64,180.84 "/>
<rect x="35.64" y="180.84" width="2.7" height="1.02"/>
<polyline style="fill-rule:evenodd;clip-rule:evenodd;" points="35.64,181.38 33,181.38 35.64,172.14 38.34,181.38 "/>
<rect x="120.48" y="184.26" width="0.48" height="14.7"/>
<rect x="35.4" y="184.26" width="85.32" height="0.48"/>
<rect x="35.4" y="181.62" width="0.48" height="2.88"/>
<rect x="134.64" y="134.7" width="170.58" height="0.48"/>
<rect x="304.74" y="134.94" width="0.479" height="14.4"/>
<rect x="21.24" y="85.08" width="0.48" height="14.64"/>
<rect x="21.48" y="85.08" width="113.64" height="0.48"/>
<rect x="134.64" y="70.92" width="0.48" height="14.4"/>
<rect x="77.94" y="85.08" width="0.48" height="14.64"/>
<rect x="248.04" y="85.08" width="0.48" height="14.64"/>
<rect x="134.64" y="85.08" width="113.64" height="0.48"/>
<polyline points="134.88,82.62 131.58,82.62 131.76,81.96 134.4,72.78 134.88,71.1 135.36,72.78 138,81.96 138.18,82.62 
	137.52,82.62 137.04,82.26 134.4,73.08 135.36,72.78 135.36,73.08 132.72,82.26 131.76,81.96 132.24,81.6 134.88,81.6 "/>
<rect x="134.88" y="81.6" width="2.64" height="1.02"/>
<polyline style="fill-rule:evenodd;clip-rule:evenodd;" points="134.88,82.14 132.24,82.14 134.88,72.96 137.52,82.14 "/>
<rect x="134.64" y="82.44" width="0.48" height="17.28"/>
<rect x="191.34" y="85.08" width="0.48" height="14.64"/>
<polyline points="134.88,33.06 131.58,33.06 131.76,32.4 134.88,21.48 138,32.4 138.18,33.06 137.52,33.06 137.04,32.7 134.4,23.46 
	135.36,23.16 135.36,23.46 132.72,32.7 131.76,32.4 132.24,32.04 134.88,32.04 "/>
<rect x="134.88" y="32.04" width="2.64" height="1.02"/>
<polyline style="fill-rule:evenodd;clip-rule:evenodd;" points="134.88,32.58 132.24,32.58 134.88,23.34 137.52,32.58 "/>
<rect x="134.64" y="32.82" width="0.48" height="17.28"/>
<polyline points="167.641,64.02 167.641,67.38 166.98,67.2 157.8,64.5 156.12,64.02 157.8,63.54 166.98,60.9 167.641,60.72 
	167.641,61.38 167.28,61.86 158.1,64.5 157.8,63.54 158.1,63.54 167.28,66.24 166.98,67.2 166.62,66.72 166.62,64.02 "/>
<rect x="166.62" y="61.38" width="1.021" height="2.64"/>
<polyline style="fill-rule:evenodd;clip-rule:evenodd;" points="167.16,64.02 167.16,66.72 157.98,64.02 167.16,61.38 "/>
<rect x="167.46" y="63.78" width="3.12" height="0.48"/>
<rect x="21.24" y="35.46" width="0.48" height="14.64"/>
<rect x="21.48" y="35.46" width="113.64" height="0.48"/>
<rect x="262.2" y="98.52" width="0.479" height="1.2"/>
<rect x="262.2" y="92.82" width="0.479" height="1.92"/>
<rect x="262.2" y="87.18" width="0.479" height="1.92"/>
<rect x="262.2" y="81.54" width="0.479" height="1.86"/>
<rect x="262.2" y="75.9" width="0.479" height="1.86"/>
<rect x="262.2" y="70.92" width="0.479" height="1.2"/>
<rect x="212.58" y="63.78" width="1.26" height="0.48"/>
<rect x="216.78" y="63.78" width="1.68" height="0.48"/>
<rect x="221.4" y="63.78" width="1.62" height="0.48"/>
<rect x="226.021" y="63.78" width="1.26" height="0.48"/>
<rect x="205.5" y="170.1" width="0.48" height="1.26"/>
<rect x="205.5" y="175.08" width="0.48" height="1.92"/>
<rect x="205.5" y="180.78" width="0.48" height="1.86"/>
<rect x="205.5" y="186.42" width="0.48" height="1.86"/>
<rect x="205.5" y="192.06" width="0.48" height="1.86"/>
<rect x="205.5" y="197.7" width="0.48" height="1.26"/>
<rect x="233.88" y="170.1" width="0.48" height="1.26"/>
<rect x="233.88" y="175.08" width="0.48" height="1.92"/>
<rect x="233.88" y="180.78" width="0.48" height="1.86"/>
<rect x="233.88" y="186.42" width="0.48" height="1.86"/>
<rect x="233.88" y="192.06" width="0.48" height="1.86"/>
<rect x="233.88" y="197.7" width="0.48" height="1.26"/>
<rect x="304.74" y="170.1" width="0.479" height="0.24"/>
<rect x="304.74" y="170.34" width="0.479" height="1.02"/>
<rect x="304.74" y="175.08" width="0.479" height="0.24"/>
<rect x="304.74" y="175.32" width="0.479" height="1.68"/>
<rect x="304.74" y="180.78" width="0.479" height="0.24"/>
<rect x="304.74" y="181.02" width="0.479" height="1.62"/>
<rect x="304.74" y="186.42" width="0.479" height="0.24"/>
<rect x="304.74" y="186.66" width="0.479" height="1.62"/>
<rect x="304.74" y="192.06" width="0.479" height="0.24"/>
<rect x="304.74" y="192.3" width="0.479" height="1.62"/>
<rect x="304.74" y="197.7" width="0.479" height="0.24"/>
<rect x="304.74" y="197.94" width="0.479" height="1.02"/>
<rect x="0.24" y="198.48" width="42.78" height="0.48"/>
<rect x="42.54" y="198.72" width="0.48" height="21.479"/>
<rect y="219.72" width="42.78" height="0.479"/>
<rect y="198.48" width="0.48" height="21.48"/>
<text transform="matrix(1 0 0 1 4.5 206.0405)"><tspan x="0" y="0" style="font-family:'ProductusOSGiBookc'; font-size:7.98;">R</tspan><tspan x="3.471" y="0" style="font-family:'ProductusOSGiBookc'; font-size:7.98;">e</tspan><tspan x="6.95" y="0" style="font-family:'ProductusOSGiBookc'; font-size:7.98;">f</tspan><tspan x="8.89" y="0" style="font-family:'ProductusOSGiBookc'; font-size:7.98;">e</tspan><tspan x="12.369" y="0" style="font-family:'ProductusOSGiBookc'; font-size:7.98;">r</tspan><tspan x="14.412" y="0" style="font-family:'ProductusOSGiBookc'; font-size:7.98;">en</tspan><tspan x="21.545" y="0" style="font-family:'ProductusOSGiBookc'; font-size:7.98;">ce</tspan></text>
<polyline points="134.88,132.24 131.58,132.24 131.76,131.58 134.4,122.4 134.88,120.72 135.36,122.4 138,131.58 138.18,132.24 
	137.52,132.24 137.04,131.88 134.4,122.7 135.36,122.4 135.36,122.7 132.72,131.88 131.76,131.58 132.24,131.22 134.88,131.22 "/>
<rect x="134.88" y="131.22" width="2.64" height="1.02"/>
<polyline style="fill-rule:evenodd;clip-rule:evenodd;" points="134.88,131.76 132.24,131.76 134.88,122.58 137.52,131.76 "/>
<rect x="134.64" y="134.94" width="0.48" height="0.24"/>
<rect x="134.64" y="132.06" width="0.48" height="2.88"/>
<rect x="14.16" y="170.1" width="0.48" height="0.24"/>
<rect x="14.16" y="170.34" width="0.48" height="1.02"/>
<rect x="14.16" y="175.08" width="0.48" height="0.24"/>
<rect x="14.16" y="175.32" width="0.48" height="1.68"/>
<rect x="14.16" y="180.78" width="0.48" height="0.24"/>
<rect x="14.16" y="181.02" width="0.48" height="1.62"/>
<rect x="14.16" y="186.42" width="0.48" height="0.24"/>
<rect x="14.16" y="186.66" width="0.48" height="1.62"/>
<rect x="14.16" y="192.06" width="0.48" height="0.24"/>
<rect x="14.16" y="192.3" width="0.48" height="1.62"/>
<rect x="14.16" y="197.7" width="0.48" height="0.24"/>
<rect x="14.16" y="197.94" width="0.48" height="1.02"/>
<polyline points="102.12,156.18 102.12,152.88 102.78,153.06 111.96,155.7 113.64,156.18 111.96,156.66 102.78,159.3 102.12,159.48 
	102.12,158.82 102.48,158.34 111.66,155.7 111.96,156.66 111.66,156.66 102.48,154.02 102.78,153.06 103.14,153.54 103.14,156.18 
	"/>
<rect x="102.12" y="156.18" width="1.02" height="2.64"/>
<polyline style="fill-rule:evenodd;clip-rule:evenodd;" points="102.6,156.18 102.6,153.54 111.78,156.18 102.6,158.82 "/>
<rect x="99.18" y="155.94" width="0.24" height="0.48"/>
<rect x="99.42" y="155.94" width="2.88" height="0.48"/>
<polyline points="141.96,181.86 138.66,181.86 138.84,181.2 141.96,170.28 145.08,181.2 145.26,181.86 144.6,181.86 144.12,181.5 
	141.48,172.26 142.44,171.96 142.44,172.26 139.8,181.5 138.84,181.2 139.32,180.84 141.96,180.84 "/>
<rect x="141.96" y="180.84" width="2.64" height="1.02"/>
<polyline style="fill-rule:evenodd;clip-rule:evenodd;" points="141.96,181.38 139.32,181.38 141.96,172.14 144.6,181.38 "/>
<rect x="141.72" y="198.72" width="0.48" height="0.24"/>
<rect x="141.72" y="181.62" width="0.48" height="17.1"/>
<polyline points="167.641,156.18 167.641,159.48 166.98,159.3 157.8,156.66 156.12,156.18 157.8,155.7 166.98,153.06 
	167.641,152.88 167.641,153.54 167.28,154.02 158.1,156.66 157.8,155.7 158.1,155.7 167.28,158.34 166.98,159.3 166.62,158.82 
	166.62,156.18 "/>
<rect x="166.62" y="153.54" width="1.021" height="2.64"/>
<polyline style="fill-rule:evenodd;clip-rule:evenodd;" points="167.16,156.18 167.16,158.82 157.98,156.18 167.16,153.54 "/>
<rect x="198.66" y="155.94" width="0.24" height="0.48"/>
<rect x="167.46" y="155.94" width="31.2" height="0.48"/>
<rect x="219.66" y="149.1" width="0.48" height="0.24"/>
<rect x="219.66" y="134.7" width="0.48" height="14.4"/>
<rect x="21.24" y="134.7" width="0.48" height="14.64"/>
<rect x="21.48" y="134.7" width="113.64" height="0.48"/>
<text transform="matrix(1 0 0 1 4.5 215.7603)"><tspan x="0" y="0" style="font-family:'ProductusOSGiBookc'; font-size:7.98;">L</tspan><tspan x="3.041" y="0" style="font-family:'ProductusOSGiBookc'; font-size:7.98;">i</tspan><tspan x="4.548" y="0" style="font-family:'ProductusOSGiBookc'; font-size:7.98;">stene</tspan><tspan x="20.349" y="0" style="font-family:'ProductusOSGiBookc'; font-size:7.98;">r</tspan></text>
<rect x="85.02" y="141.78" width="0.48" height="7.56"/>
<rect x="85.26" y="141.78" width="21.54" height="0.48"/>
<rect x="127.56" y="141.78" width="0.48" height="7.56"/>
<rect x="106.32" y="141.78" width="21.48" height="0.48"/>
<rect x="106.32" y="85.08" width="0.48" height="56.94"/>
</svg>
