<?xml version="1.0" encoding="utf-8"?>
<!-- Generator: Adobe Illustrator 16.0.0, SVG Export Plug-In . SVG Version: 6.00 Build 0)  -->
<!DOCTYPE svg PUBLIC "-//W3C//DTD SVG 1.1//EN" "http://www.w3.org/Graphics/SVG/1.1/DTD/svg11.dtd">
<svg version="1.1" id="Layer_1" xmlns="http://www.w3.org/2000/svg" xmlns:xlink="http://www.w3.org/1999/xlink" x="0px" y="0px"
	 width="340.44px" height="312.408px" viewBox="0 0 340.44 312.408" style="enable-background:new 0 0 340.44 312.408;"
	 xml:space="preserve">
	<polyline style="fill-rule:evenodd;clip-rule:evenodd;fill:#E6E6E6;" points="14.4,7.667 21.48,0.588 85.26,0.588 92.34,7.667 
			"/>
	<rect x="99.48" y="114.167" style="fill:#E6E6E6;" width="70.86" height="70.86"/>
	<rect x="14.4" y="7.908" style="fill:#E6E6E6;" width="326.04" height="106.26"/>
	<rect x="184.5" y="142.788" style="fill:#E6E6E6;" width="155.939" height="42.48"/>
	<rect x="23.64" y="222.288" width="54.3" height="26.52"/>
	<rect x="23.64" y="222.048" width="54.54" height="0.48"/>
	<rect x="77.7" y="222.288" width="0.48" height="26.76"/>
	<rect x="23.4" y="248.568" width="54.54" height="0.48"/>
	<rect x="23.4" y="222.048" width="0.48" height="26.76"/>
	<rect x="21.3" y="220.488" style="fill:#FFFFFF;" width="54.3" height="26.58"/>
	<rect x="21.3" y="220.248" width="54.54" height="0.48"/>
	<rect x="75.36" y="220.488" width="0.48" height="26.82"/>
	<rect x="21.06" y="246.828" width="54.54" height="0.48"/>
	<rect x="21.06" y="220.248" width="0.48" height="26.82"/>
	<text transform="matrix(1 0 0 1 23.6401 227.5679)"><tspan x="0" y="0" style="font-family:'ProductusOSGiBookc'; font-size:7.98;">&lt;&lt;</tspan><tspan x="5.857" y="0" style="font-family:'ProductusOSGiBookc'; font-size:7.98;">i</tspan><tspan x="7.365" y="0" style="font-family:'ProductusOSGiBookc'; font-size:7.98;">nterface&gt;&gt;</tspan></text>
	<text transform="matrix(1 0 0 1 23.6401 236.0879)"><tspan x="0" y="0" style="font-family:'ProductusSemibold'; font-size:7.98;">C</tspan><tspan x="4.676" y="0" style="font-family:'ProductusSemibold'; font-size:7.98;">o</tspan><tspan x="9.049" y="0" style="font-family:'ProductusSemibold'; font-size:7.98;">nnector</tspan><tspan x="35.797" y="0" style="font-family:'ProductusSemibold'; font-size:7.98;"> </tspan></text>
	<text transform="matrix(1 0 0 1 23.6401 244.6079)"><tspan x="0" y="0" style="font-family:'ProductusSemibold'; font-size:7.98;">Se</tspan><tspan x="8.379" y="0" style="font-family:'ProductusSemibold'; font-size:7.98;">r</tspan><tspan x="11.315" y="0" style="font-family:'ProductusSemibold'; font-size:7.98;">v</tspan><tspan x="15.393" y="0" style="font-family:'ProductusSemibold'; font-size:7.98;">ic</tspan><tspan x="21.218" y="0" style="font-family:'ProductusSemibold'; font-size:7.98;">e</tspan></text>
	<rect x="23.88" y="16.728" width="54.3" height="26.58"/>
	<rect x="23.88" y="16.488" width="54.54" height="0.48"/>
	<rect x="77.94" y="16.728" width="0.48" height="26.82"/>
	<rect x="23.64" y="43.068" width="54.54" height="0.48"/>
	<rect x="23.64" y="16.488" width="0.48" height="26.82"/>
	<rect x="21.48" y="14.988" style="fill:#FFFFFF;" width="54.36" height="26.58"/>
	<rect x="21.48" y="14.748" width="54.6" height="0.48"/>
	<rect x="75.6" y="14.988" width="0.48" height="26.82"/>
	<rect x="21.24" y="41.328" width="54.6" height="0.48"/>
	<rect x="21.24" y="14.748" width="0.48" height="26.82"/>
	<text transform="matrix(1 0 0 1 23.8799 22.0679)"><tspan x="0" y="0" style="font-family:'ProductusOSGiBookc'; font-size:7.98;">jm</tspan><tspan x="7.286" y="0" style="font-family:'ProductusOSGiBookc'; font-size:7.98;">i</tspan><tspan x="8.793" y="0" style="font-family:'ProductusOSGiBookc'; font-size:7.98;">.</tspan><tspan x="10.118" y="0" style="font-family:'ProductusOSGiBookc'; font-size:7.98;">C</tspan><tspan x="14.324" y="0" style="font-family:'ProductusOSGiBookc'; font-size:7.98;">o</tspan><tspan x="18.098" y="0" style="font-family:'ProductusOSGiBookc'; font-size:7.98;">n</tspan><tspan x="21.705" y="0" style="font-family:'ProductusOSGiBookc'; font-size:7.98;">n</tspan><tspan x="25.36" y="0" style="font-family:'ProductusOSGiBookc'; font-size:7.98;">ecto</tspan><tspan x="38.048" y="0" style="font-family:'ProductusOSGiBookc'; font-size:7.98;">r</tspan></text>
	<rect x="279" y="222.228" width="54.3" height="26.4"/>
	<rect x="279" y="221.988" width="54.54" height="0.48"/>
	<rect x="333.06" y="222.228" width="0.48" height="26.64"/>
	<rect x="278.76" y="248.388" width="54.54" height="0.48"/>
	<rect x="278.76" y="221.988" width="0.479" height="26.64"/>
	<rect x="276.6" y="220.488" style="fill:#FFFFFF;" width="54.36" height="26.34"/>
	<rect x="276.6" y="220.248" width="54.6" height="0.48"/>
	<rect x="330.72" y="220.488" width="0.479" height="26.58"/>
	<rect x="276.36" y="246.588" width="54.601" height="0.48"/>
	<rect x="276.36" y="220.248" width="0.48" height="26.58"/>
	<text transform="matrix(1 0 0 1 279.0005 227.5679)"><tspan x="0" y="0" style="font-family:'ProductusOSGiBookc'; font-size:7.98;">&lt;</tspan><tspan x="2.937" y="0" style="font-family:'ProductusOSGiBookc'; font-size:7.98;">&lt;</tspan><tspan x="5.817" y="0" style="font-family:'ProductusOSGiBookc'; font-size:7.98;">interface&gt;</tspan><tspan x="33.834" y="0" style="font-family:'ProductusOSGiBookc'; font-size:7.98;">&gt;</tspan></text>
	<text transform="matrix(1 0 0 1 279.0005 236.0879)"><tspan x="0" y="0" style="font-family:'ProductusSemibold'; font-size:7.98;">C</tspan><tspan x="4.676" y="0" style="font-family:'ProductusSemibold'; font-size:7.98;">o</tspan><tspan x="8.993" y="0" style="font-family:'ProductusSemibold'; font-size:7.98;">n</tspan><tspan x="13.311" y="0" style="font-family:'ProductusSemibold'; font-size:7.98;">n</tspan><tspan x="17.563" y="0" style="font-family:'ProductusSemibold'; font-size:7.98;">e</tspan><tspan x="21.697" y="0" style="font-family:'ProductusSemibold'; font-size:7.98;">ct</tspan><tspan x="28.472" y="0" style="font-family:'ProductusSemibold'; font-size:7.98;">i</tspan><tspan x="30.626" y="0" style="font-family:'ProductusSemibold'; font-size:7.98;">o</tspan><tspan x="34.999" y="0" style="font-family:'ProductusSemibold'; font-size:7.98;">n</tspan><tspan x="39.253" y="0" style="font-family:'ProductusSemibold'; font-size:7.98;"> </tspan></text>
	<text transform="matrix(1 0 0 1 279.0005 244.6079)"><tspan x="0" y="0" style="font-family:'ProductusSemibold'; font-size:7.98;">F</tspan><tspan x="3.415" y="0" style="font-family:'ProductusSemibold'; font-size:7.98;">a</tspan><tspan x="7.373" y="0" style="font-family:'ProductusSemibold'; font-size:7.98;">c</tspan><tspan x="11.028" y="0" style="font-family:'ProductusSemibold'; font-size:7.98;">t</tspan><tspan x="14.204" y="0" style="font-family:'ProductusSemibold'; font-size:7.98;">o</tspan><tspan x="18.521" y="0" style="font-family:'ProductusSemibold'; font-size:7.98;">r</tspan><tspan x="21.514" y="0" style="font-family:'ProductusSemibold'; font-size:7.98;">y</tspan></text>
	<polyline style="fill-rule:evenodd;clip-rule:evenodd;" points="78.18,234.647 63.78,249.048 78.18,249.048 	"/>
	<polyline points="78.36,234.828 63.96,249.228 63.78,249.288 63.18,249.288 78,234.468 	"/>
	<rect x="63.78" y="248.808" width="14.64" height="0.48"/>
	<polyline points="77.94,249.048 77.94,234.647 78,234.468 78.42,234.048 78.42,249.048 	"/>
	<polyline style="fill-rule:evenodd;clip-rule:evenodd;" points="333.3,234.647 318.9,249.048 333.3,249.048 	"/>
	<polyline points="333.48,234.828 319.08,249.228 318.9,249.288 318.3,249.288 333.12,234.468 	"/>
	<rect x="318.9" y="248.808" width="14.641" height="0.48"/>
	<polyline points="333.06,249.048 333.06,234.647 333.12,234.468 333.541,234.048 333.541,249.048 	"/>
	<rect x="108.9" y="151.368" width="54.36" height="26.58"/>
	<rect x="108.9" y="151.127" width="54.6" height="0.48"/>
	<rect x="163.02" y="151.368" width="0.48" height="26.82"/>
	<rect x="108.66" y="177.708" width="54.6" height="0.48"/>
	<rect x="108.66" y="151.127" width="0.48" height="26.82"/>
	<rect x="106.56" y="149.627" style="fill:#FFFFFF;" width="54.3" height="26.58"/>
	<rect x="106.56" y="149.388" width="54.54" height="0.48"/>
	<rect x="160.62" y="149.627" width="0.48" height="26.82"/>
	<rect x="106.32" y="175.968" width="54.54" height="0.48"/>
	<rect x="106.32" y="149.388" width="0.48" height="26.82"/>
	<text transform="matrix(1 0 0 1 108.8999 156.7075)"><tspan x="0" y="0" style="font-family:'ProductusOSGiBookc'; font-size:7.98;">&lt;&lt;</tspan><tspan x="5.873" y="0" style="font-family:'ProductusOSGiBookc'; font-size:7.98;">i</tspan><tspan x="7.381" y="0" style="font-family:'ProductusOSGiBookc'; font-size:7.98;">nterfa</tspan><tspan x="24.37" y="0" style="font-family:'ProductusOSGiBookc'; font-size:7.98;">c</tspan><tspan x="27.49" y="0" style="font-family:'ProductusOSGiBookc'; font-size:7.98;">e</tspan><tspan x="30.914" y="0" style="font-family:'ProductusOSGiBookc'; font-size:7.98;">&gt;</tspan><tspan x="33.85" y="0" style="font-family:'ProductusOSGiBookc'; font-size:7.98;">&gt;</tspan></text>
	<text transform="matrix(1 0 0 1 108.8999 165.228)"><tspan x="0" y="0" style="font-family:'ProductusOSGiBookc'; font-size:7.98;">j</tspan><tspan x="1.516" y="0" style="font-family:'ProductusOSGiBookc'; font-size:7.98;">m</tspan><tspan x="7.27" y="0" style="font-family:'ProductusOSGiBookc'; font-size:7.98;">i</tspan><tspan x="8.826" y="0" style="font-family:'ProductusOSGiBookc'; font-size:7.98;">.</tspan><tspan x="10.15" y="0" style="font-family:'ProductusOSGiBookc'; font-size:7.98;">C</tspan><tspan x="14.292" y="0" style="font-family:'ProductusOSGiBookc'; font-size:7.98;">o</tspan><tspan x="18.066" y="0" style="font-family:'ProductusOSGiBookc'; font-size:7.98;">nne</tspan><tspan x="28.855" y="0" style="font-family:'ProductusOSGiBookc'; font-size:7.98;">c</tspan><tspan x="31.903" y="0" style="font-family:'ProductusOSGiBookc'; font-size:7.98;">t</tspan><tspan x="34.241" y="0" style="font-family:'ProductusOSGiBookc'; font-size:7.98;">i</tspan><tspan x="35.757" y="0" style="font-family:'ProductusOSGiBookc'; font-size:7.98;">o</tspan><tspan x="39.532" y="0" style="font-family:'ProductusOSGiBookc'; font-size:7.98;">n</tspan></text>
	<rect x="23.88" y="80.508" width="54.3" height="26.58"/>
	<rect x="23.88" y="80.268" width="54.54" height="0.48"/>
	<rect x="77.94" y="80.508" width="0.48" height="26.82"/>
	<rect x="23.64" y="106.848" width="54.54" height="0.48"/>
	<rect x="23.64" y="80.268" width="0.48" height="26.82"/>
	<rect x="21.48" y="78.768" style="fill:#FFFFFF;" width="54.36" height="26.58"/>
	<rect x="21.48" y="78.528" width="54.6" height="0.48"/>
	<rect x="75.6" y="78.768" width="0.48" height="26.82"/>
	<rect x="21.24" y="105.108" width="54.6" height="0.479"/>
	<rect x="21.24" y="78.528" width="0.48" height="26.82"/>
	<text transform="matrix(1 0 0 1 23.8799 85.8477)"><tspan x="0" y="0" style="font-family:'ProductusOSGiBookc'; font-size:7.98;">&lt;&lt;interface&gt;</tspan><tspan x="33.89" y="0" style="font-family:'ProductusOSGiBookc'; font-size:7.98;">&gt;</tspan></text>
	<text transform="matrix(1 0 0 1 23.8799 94.3677)"><tspan x="0" y="0" style="font-family:'ProductusOSGiBookc'; font-size:7.98;">jm</tspan><tspan x="7.286" y="0" style="font-family:'ProductusOSGiBookc'; font-size:7.98;">i</tspan><tspan x="8.793" y="0" style="font-family:'ProductusOSGiBookc'; font-size:7.98;">.</tspan><tspan x="10.358" y="0" style="font-family:'ProductusOSGiBookc'; font-size:7.98;">Inpu</tspan><tspan x="22.926" y="0" style="font-family:'ProductusOSGiBookc'; font-size:7.98;">t</tspan></text>
	<text transform="matrix(1 0 0 1 23.8799 102.8281)"><tspan x="0" y="0" style="font-family:'ProductusOSGiBookc'; font-size:7.98;">C</tspan><tspan x="4.206" y="0" style="font-family:'ProductusOSGiBookc'; font-size:7.98;">o</tspan><tspan x="7.98" y="0" style="font-family:'ProductusOSGiBookc'; font-size:7.98;">n</tspan><tspan x="11.635" y="0" style="font-family:'ProductusOSGiBookc'; font-size:7.98;">n</tspan><tspan x="15.241" y="0" style="font-family:'ProductusOSGiBookc'; font-size:7.98;">e</tspan><tspan x="18.721" y="0" style="font-family:'ProductusOSGiBookc'; font-size:7.98;">c</tspan><tspan x="21.841" y="0" style="font-family:'ProductusOSGiBookc'; font-size:7.98;">t</tspan><tspan x="24.179" y="0" style="font-family:'ProductusOSGiBookc'; font-size:7.98;">i</tspan><tspan x="25.687" y="0" style="font-family:'ProductusOSGiBookc'; font-size:7.98;">o</tspan><tspan x="29.461" y="0" style="font-family:'ProductusOSGiBookc'; font-size:7.98;">n</tspan></text>
	<rect x="108.9" y="80.508" width="54.36" height="26.58"/>
	<rect x="108.9" y="80.268" width="54.6" height="0.48"/>
	<rect x="163.02" y="80.508" width="0.48" height="26.82"/>
	<rect x="108.66" y="106.848" width="54.6" height="0.48"/>
	<rect x="108.66" y="80.268" width="0.48" height="26.82"/>
	<rect x="106.56" y="78.768" style="fill:#FFFFFF;" width="54.3" height="26.58"/>
	<rect x="106.56" y="78.528" width="54.54" height="0.48"/>
	<rect x="160.62" y="78.768" width="0.48" height="26.82"/>
	<rect x="106.32" y="105.108" width="54.54" height="0.479"/>
	<rect x="106.32" y="78.528" width="0.48" height="26.82"/>
	<text transform="matrix(1 0 0 1 108.8999 85.8477)"><tspan x="0" y="0" style="font-family:'ProductusOSGiBookc'; font-size:7.98;">&lt;&lt;</tspan><tspan x="5.873" y="0" style="font-family:'ProductusOSGiBookc'; font-size:7.98;">i</tspan><tspan x="7.381" y="0" style="font-family:'ProductusOSGiBookc'; font-size:7.98;">nterfa</tspan><tspan x="24.37" y="0" style="font-family:'ProductusOSGiBookc'; font-size:7.98;">c</tspan><tspan x="27.49" y="0" style="font-family:'ProductusOSGiBookc'; font-size:7.98;">e</tspan><tspan x="30.914" y="0" style="font-family:'ProductusOSGiBookc'; font-size:7.98;">&gt;</tspan><tspan x="33.85" y="0" style="font-family:'ProductusOSGiBookc'; font-size:7.98;">&gt;</tspan></text>
	<text transform="matrix(1 0 0 1 108.8999 94.3677)"><tspan x="0" y="0" style="font-family:'ProductusOSGiBookc'; font-size:7.98;">j</tspan><tspan x="1.516" y="0" style="font-family:'ProductusOSGiBookc'; font-size:7.98;">m</tspan><tspan x="7.27" y="0" style="font-family:'ProductusOSGiBookc'; font-size:7.98;">i</tspan><tspan x="8.826" y="0" style="font-family:'ProductusOSGiBookc'; font-size:7.98;">.</tspan><tspan x="10.15" y="0" style="font-family:'ProductusOSGiBookc'; font-size:7.98;">O</tspan><tspan x="15.417" y="0" style="font-family:'ProductusOSGiBookc'; font-size:7.98;">ut</tspan><tspan x="21.41" y="0" style="font-family:'ProductusOSGiBookc'; font-size:7.98;">p</tspan><tspan x="25.073" y="0" style="font-family:'ProductusOSGiBookc'; font-size:7.98;">u</tspan><tspan x="28.727" y="0" style="font-family:'ProductusOSGiBookc'; font-size:7.98;">t</tspan></text>
	<text transform="matrix(1 0 0 1 108.8999 102.8281)"><tspan x="0" y="0" style="font-family:'ProductusOSGiBookc'; font-size:7.98;">C</tspan><tspan x="4.142" y="0" style="font-family:'ProductusOSGiBookc'; font-size:7.98;">o</tspan><tspan x="7.916" y="0" style="font-family:'ProductusOSGiBookc'; font-size:7.98;">nnecti</tspan><tspan x="25.655" y="0" style="font-family:'ProductusOSGiBookc'; font-size:7.98;">o</tspan><tspan x="29.381" y="0" style="font-family:'ProductusOSGiBookc'; font-size:7.98;">n</tspan></text>
	<rect x="108.9" y="16.728" width="54.36" height="26.58"/>
	<rect x="108.9" y="16.488" width="54.6" height="0.48"/>
	<rect x="163.02" y="16.728" width="0.48" height="26.82"/>
	<rect x="108.66" y="43.068" width="54.6" height="0.48"/>
	<rect x="108.66" y="16.488" width="0.48" height="26.82"/>
	<rect x="106.56" y="14.988" style="fill:#FFFFFF;" width="54.3" height="26.58"/>
	<rect x="106.56" y="14.748" width="54.54" height="0.48"/>
	<rect x="160.62" y="14.988" width="0.48" height="26.82"/>
	<rect x="106.32" y="41.328" width="54.54" height="0.48"/>
	<rect x="106.32" y="14.748" width="0.48" height="26.82"/>
	<text transform="matrix(1 0 0 1 108.8999 22.0679)"><tspan x="0" y="0" style="font-family:'ProductusOSGiBookc'; font-size:7.98;">&lt;&lt;</tspan><tspan x="5.873" y="0" style="font-family:'ProductusOSGiBookc'; font-size:7.98;">i</tspan><tspan x="7.381" y="0" style="font-family:'ProductusOSGiBookc'; font-size:7.98;">nterfa</tspan><tspan x="24.37" y="0" style="font-family:'ProductusOSGiBookc'; font-size:7.98;">c</tspan><tspan x="27.49" y="0" style="font-family:'ProductusOSGiBookc'; font-size:7.98;">e</tspan><tspan x="30.914" y="0" style="font-family:'ProductusOSGiBookc'; font-size:7.98;">&gt;</tspan><tspan x="33.85" y="0" style="font-family:'ProductusOSGiBookc'; font-size:7.98;">&gt;</tspan></text>
	<text transform="matrix(1 0 0 1 108.8999 30.5879)"><tspan x="0" y="0" style="font-family:'ProductusOSGiBookc'; font-size:7.98;">j</tspan><tspan x="1.508" y="0" style="font-family:'ProductusOSGiBookc'; font-size:7.98;">m</tspan><tspan x="7.262" y="0" style="font-family:'ProductusOSGiBookc'; font-size:7.98;">i</tspan><tspan x="8.817" y="0" style="font-family:'ProductusOSGiBookc'; font-size:7.98;">.</tspan><tspan x="10.382" y="0" style="font-family:'ProductusOSGiBookc'; font-size:7.98;">S</tspan><tspan x="14.037" y="0" style="font-family:'ProductusOSGiBookc'; font-size:7.98;">t</tspan><tspan x="16.375" y="0" style="font-family:'ProductusOSGiBookc'; font-size:7.98;">r</tspan><tspan x="18.417" y="0" style="font-family:'ProductusOSGiBookc'; font-size:7.98;">e</tspan><tspan x="21.896" y="0" style="font-family:'ProductusOSGiBookc'; font-size:7.98;">a</tspan><tspan x="25.192" y="0" style="font-family:'ProductusOSGiBookc'; font-size:7.98;">m</tspan></text>
	<text transform="matrix(1 0 0 1 108.8999 39.0483)"><tspan x="0" y="0" style="font-family:'ProductusOSGiBookc'; font-size:7.98;">C</tspan><tspan x="4.142" y="0" style="font-family:'ProductusOSGiBookc'; font-size:7.98;">o</tspan><tspan x="7.916" y="0" style="font-family:'ProductusOSGiBookc'; font-size:7.98;">nnecti</tspan><tspan x="25.655" y="0" style="font-family:'ProductusOSGiBookc'; font-size:7.98;">o</tspan><tspan x="29.381" y="0" style="font-family:'ProductusOSGiBookc'; font-size:7.98;">n</tspan></text>
	<rect x="193.92" y="16.728" width="54.359" height="26.58"/>
	<rect x="193.92" y="16.488" width="54.6" height="0.48"/>
	<rect x="248.041" y="16.728" width="0.479" height="26.82"/>
	<rect x="193.68" y="43.068" width="54.6" height="0.48"/>
	<rect x="193.68" y="16.488" width="0.479" height="26.82"/>
	<polyline style="fill:#FFFFFF;" points="191.58,14.988 245.94,14.988 245.94,41.568 191.58,41.568 	"/>
	<rect x="191.58" y="14.748" width="54.601" height="0.48"/>
	<rect x="245.7" y="14.988" width="0.48" height="26.82"/>
	<rect x="191.34" y="41.328" width="54.6" height="0.48"/>
	<rect x="191.34" y="14.748" width="0.479" height="26.82"/>
	<text transform="matrix(1 0 0 1 193.9204 22.0679)"><tspan x="0" y="0" style="font-family:'ProductusOSGiBookc'; font-size:7.98;">&lt;&lt;in</tspan><tspan x="11.067" y="0" style="font-family:'ProductusOSGiBookc'; font-size:7.98;">t</tspan><tspan x="13.35" y="0" style="font-family:'ProductusOSGiBookc'; font-size:7.98;">erface&gt;</tspan><tspan x="33.834" y="0" style="font-family:'ProductusOSGiBookc'; font-size:7.98;">&gt;</tspan></text>
	<text transform="matrix(1 0 0 1 193.9204 30.5879)"><tspan x="0" y="0" style="font-family:'ProductusOSGiBookc'; font-size:7.98;">j</tspan><tspan x="1.548" y="0" style="font-family:'ProductusOSGiBookc'; font-size:7.98;">m</tspan><tspan x="7.254" y="0" style="font-family:'ProductusOSGiBookc'; font-size:7.98;">i</tspan><tspan x="8.802" y="0" style="font-family:'ProductusOSGiBookc'; font-size:7.98;">.</tspan><tspan x="10.126" y="0" style="font-family:'ProductusOSGiBookc'; font-size:7.98;">C</tspan><tspan x="14.332" y="0" style="font-family:'ProductusOSGiBookc'; font-size:7.98;">o</tspan><tspan x="18.059" y="0" style="font-family:'ProductusOSGiBookc'; font-size:7.98;">nten</tspan><tspan x="31.217" y="0" style="font-family:'ProductusOSGiBookc'; font-size:7.98;">t</tspan></text>
	<text transform="matrix(1 0 0 1 193.9204 39.0483)"><tspan x="0" y="0" style="font-family:'ProductusOSGiBookc'; font-size:7.98;">C</tspan><tspan x="4.205" y="0" style="font-family:'ProductusOSGiBookc'; font-size:7.98;">o</tspan><tspan x="7.932" y="0" style="font-family:'ProductusOSGiBookc'; font-size:7.98;">nnectio</tspan><tspan x="29.438" y="0" style="font-family:'ProductusOSGiBookc'; font-size:7.98;">n</tspan></text>
	<rect x="279" y="16.728" width="54.3" height="26.58"/>
	<rect x="279" y="16.488" width="54.54" height="0.48"/>
	<rect x="333.06" y="16.728" width="0.48" height="26.82"/>
	<rect x="278.76" y="43.068" width="54.54" height="0.48"/>
	<rect x="278.76" y="16.488" width="0.479" height="26.82"/>
	<rect x="276.6" y="14.988" style="fill:#FFFFFF;" width="54.36" height="26.58"/>
	<rect x="276.6" y="14.748" width="54.6" height="0.48"/>
	<rect x="330.72" y="14.988" width="0.479" height="26.82"/>
	<rect x="276.36" y="41.328" width="54.601" height="0.48"/>
	<rect x="276.36" y="14.748" width="0.48" height="26.82"/>
	<text transform="matrix(1 0 0 1 279.0005 22.0679)"><tspan x="0" y="0" style="font-family:'ProductusOSGiBookc'; font-size:7.98;">&lt;</tspan><tspan x="2.937" y="0" style="font-family:'ProductusOSGiBookc'; font-size:7.98;">&lt;</tspan><tspan x="5.817" y="0" style="font-family:'ProductusOSGiBookc'; font-size:7.98;">interface&gt;</tspan><tspan x="33.834" y="0" style="font-family:'ProductusOSGiBookc'; font-size:7.98;">&gt;</tspan></text>
	<text transform="matrix(1 0 0 1 279.0005 30.5879)"><tspan x="0" y="0" style="font-family:'ProductusOSGiBookc'; font-size:7.98;">j</tspan><tspan x="1.508" y="0" style="font-family:'ProductusOSGiBookc'; font-size:7.98;">m</tspan><tspan x="7.262" y="0" style="font-family:'ProductusOSGiBookc'; font-size:7.98;">i.</tspan><tspan x="10.31" y="0" style="font-family:'ProductusOSGiBookc'; font-size:7.98;">H</tspan><tspan x="15.17" y="0" style="font-family:'ProductusOSGiBookc'; font-size:7.98;">tt</tspan><tspan x="19.846" y="0" style="font-family:'ProductusOSGiBookc'; font-size:7.98;">p</tspan></text>
	<text transform="matrix(1 0 0 1 279.0005 39.0483)"><tspan x="0" y="0" style="font-family:'ProductusOSGiBookc'; font-size:7.98;">C</tspan><tspan x="4.142" y="0" style="font-family:'ProductusOSGiBookc'; font-size:7.98;">o</tspan><tspan x="7.916" y="0" style="font-family:'ProductusOSGiBookc'; font-size:7.98;">nne</tspan><tspan x="18.705" y="0" style="font-family:'ProductusOSGiBookc'; font-size:7.98;">c</tspan><tspan x="21.769" y="0" style="font-family:'ProductusOSGiBookc'; font-size:7.98;">t</tspan><tspan x="24.107" y="0" style="font-family:'ProductusOSGiBookc'; font-size:7.98;">i</tspan><tspan x="25.615" y="0" style="font-family:'ProductusOSGiBookc'; font-size:7.98;">o</tspan><tspan x="29.39" y="0" style="font-family:'ProductusOSGiBookc'; font-size:7.98;">n</tspan></text>
	<rect x="279" y="80.508" width="54.3" height="26.58"/>
	<rect x="279" y="80.268" width="54.54" height="0.48"/>
	<rect x="333.06" y="80.508" width="0.48" height="26.82"/>
	<rect x="278.76" y="106.848" width="54.54" height="0.48"/>
	<rect x="278.76" y="80.268" width="0.479" height="26.82"/>
	<rect x="276.6" y="78.768" style="fill:#FFFFFF;" width="54.36" height="26.58"/>
	<rect x="276.6" y="78.528" width="54.6" height="0.48"/>
	<rect x="330.72" y="78.768" width="0.479" height="26.82"/>
	<rect x="276.36" y="105.108" width="54.601" height="0.479"/>
	<rect x="276.36" y="78.528" width="0.48" height="26.82"/>
	<text transform="matrix(1 0 0 1 279.0005 85.8477)"><tspan x="0" y="0" style="font-family:'ProductusOSGiBookc'; font-size:7.98;">&lt;</tspan><tspan x="2.937" y="0" style="font-family:'ProductusOSGiBookc'; font-size:7.98;">&lt;</tspan><tspan x="5.817" y="0" style="font-family:'ProductusOSGiBookc'; font-size:7.98;">interface&gt;</tspan><tspan x="33.834" y="0" style="font-family:'ProductusOSGiBookc'; font-size:7.98;">&gt;</tspan></text>
	<text transform="matrix(1 0 0 1 279.0005 94.3677)"><tspan x="0" y="0" style="font-family:'ProductusOSGiBookc'; font-size:7.98;">j</tspan><tspan x="1.508" y="0" style="font-family:'ProductusOSGiBookc'; font-size:7.98;">m</tspan><tspan x="7.262" y="0" style="font-family:'ProductusOSGiBookc'; font-size:7.98;">i</tspan><tspan x="8.77" y="0" style="font-family:'ProductusOSGiBookc'; font-size:7.98;">.</tspan><tspan x="10.334" y="0" style="font-family:'ProductusOSGiBookc'; font-size:7.98;">Datagr</tspan><tspan x="29.845" y="0" style="font-family:'ProductusOSGiBookc'; font-size:7.98;">a</tspan><tspan x="33.093" y="0" style="font-family:'ProductusOSGiBookc'; font-size:7.98;">m</tspan></text>
	<text transform="matrix(1 0 0 1 279.0005 102.8281)"><tspan x="0" y="0" style="font-family:'ProductusOSGiBookc'; font-size:7.98;">C</tspan><tspan x="4.142" y="0" style="font-family:'ProductusOSGiBookc'; font-size:7.98;">o</tspan><tspan x="7.916" y="0" style="font-family:'ProductusOSGiBookc'; font-size:7.98;">nne</tspan><tspan x="18.705" y="0" style="font-family:'ProductusOSGiBookc'; font-size:7.98;">c</tspan><tspan x="21.769" y="0" style="font-family:'ProductusOSGiBookc'; font-size:7.98;">t</tspan><tspan x="24.107" y="0" style="font-family:'ProductusOSGiBookc'; font-size:7.98;">i</tspan><tspan x="25.615" y="0" style="font-family:'ProductusOSGiBookc'; font-size:7.98;">o</tspan><tspan x="29.39" y="0" style="font-family:'ProductusOSGiBookc'; font-size:7.98;">n</tspan></text>
	<rect x="193.92" y="80.508" width="54.359" height="26.58"/>
	<rect x="193.92" y="80.268" width="54.6" height="0.48"/>
	<rect x="248.041" y="80.508" width="0.479" height="26.82"/>
	<rect x="193.68" y="106.848" width="54.6" height="0.48"/>
	<rect x="193.68" y="80.268" width="0.479" height="26.82"/>
	<polyline style="fill:#FFFFFF;" points="191.58,78.768 245.94,78.768 245.94,105.348 191.58,105.348 	"/>
	<rect x="191.58" y="78.528" width="54.601" height="0.48"/>
	<rect x="245.7" y="78.768" width="0.48" height="26.82"/>
	<rect x="191.34" y="105.108" width="54.6" height="0.479"/>
	<rect x="191.34" y="78.528" width="0.479" height="26.82"/>
	<text transform="matrix(1 0 0 1 193.9204 85.8477)"><tspan x="0" y="0" style="font-family:'ProductusOSGiBookc'; font-size:7.98;">&lt;&lt;in</tspan><tspan x="11.067" y="0" style="font-family:'ProductusOSGiBookc'; font-size:7.98;">t</tspan><tspan x="13.35" y="0" style="font-family:'ProductusOSGiBookc'; font-size:7.98;">erface&gt;</tspan><tspan x="33.834" y="0" style="font-family:'ProductusOSGiBookc'; font-size:7.98;">&gt;</tspan></text>
	<text transform="matrix(1 0 0 1 193.9204 94.3677)"><tspan x="0" y="0" style="font-family:'ProductusOSGiBookc'; font-size:7.98;">j</tspan><tspan x="1.556" y="0" style="font-family:'ProductusOSGiBookc'; font-size:7.98;">m</tspan><tspan x="7.262" y="0" style="font-family:'ProductusOSGiBookc'; font-size:7.98;">i.S</tspan><tspan x="14.108" y="0" style="font-family:'ProductusOSGiBookc'; font-size:7.98;">t</tspan><tspan x="16.391" y="0" style="font-family:'ProductusOSGiBookc'; font-size:7.98;">r</tspan><tspan x="18.434" y="0" style="font-family:'ProductusOSGiBookc'; font-size:7.98;">e</tspan><tspan x="21.913" y="0" style="font-family:'ProductusOSGiBookc'; font-size:7.98;">am</tspan><tspan x="30.962" y="0" style="font-family:'ProductusOSGiBookc'; font-size:7.98;">C</tspan><tspan x="35.104" y="0" style="font-family:'ProductusOSGiBookc'; font-size:7.98;">o</tspan><tspan x="38.878" y="0" style="font-family:'ProductusOSGiBookc'; font-size:7.98;">n</tspan><tspan x="42.549" y="0" style="font-family:'ProductusOSGiBookc'; font-size:7.98;">n</tspan></text>
	<text transform="matrix(1 0 0 1 193.9204 102.8281)"><tspan x="0" y="0" style="font-family:'ProductusOSGiBookc'; font-size:7.98;">e</tspan><tspan x="3.487" y="0" style="font-family:'ProductusOSGiBookc'; font-size:7.98;">c</tspan><tspan x="6.432" y="0" style="font-family:'ProductusOSGiBookc'; font-size:7.98;">-</tspan><tspan x="9.073" y="0" style="font-family:'ProductusOSGiBookc'; font-size:7.98;">t</tspan><tspan x="11.411" y="0" style="font-family:'ProductusOSGiBookc'; font-size:7.98;">ionN</tspan><tspan x="25.089" y="0" style="font-family:'ProductusOSGiBookc'; font-size:7.98;">o</tspan><tspan x="28.815" y="0" style="font-family:'ProductusOSGiBookc'; font-size:7.98;">t</tspan><tspan x="31.153" y="0" style="font-family:'ProductusOSGiBookc'; font-size:7.98;">i</tspan><tspan x="32.701" y="0" style="font-family:'ProductusOSGiBookc'; font-size:7.98;">f</tspan><tspan x="34.624" y="0" style="font-family:'ProductusOSGiBookc'; font-size:7.98;">ie</tspan><tspan x="39.659" y="0" style="font-family:'ProductusOSGiBookc'; font-size:7.98;">r</tspan></text>
	<polyline points="134.88,138.108 138.18,138.108 138,138.768 134.88,149.688 131.76,138.768 131.58,138.108 132.24,138.108 
		132.72,138.468 135.36,147.708 134.4,148.008 134.4,147.708 137.04,138.468 138,138.768 137.52,139.127 134.88,139.127 	"/>
	<rect x="132.24" y="138.108" width="2.64" height="1.02"/>
	<polyline style="fill-rule:evenodd;clip-rule:evenodd;" points="134.88,138.587 137.52,138.587 134.88,147.828 132.24,138.587 
			"/>
	<rect x="134.64" y="106.848" width="0.48" height="31.5"/>
	<polyline points="134.88,138.108 138.18,138.108 138,138.768 134.88,149.688 131.76,138.768 131.58,138.108 132.24,138.108 
		132.72,138.468 135.36,147.708 134.4,148.008 134.4,147.708 137.04,138.468 138,138.768 137.52,139.127 134.88,139.127 	"/>
	<rect x="132.24" y="138.108" width="2.64" height="1.02"/>
	<polyline style="fill-rule:evenodd;clip-rule:evenodd;" points="134.88,138.587 137.52,138.587 134.88,147.828 132.24,138.587 
			"/>
	<rect x="219.72" y="106.848" width="0.479" height="21.78"/>
	<rect x="134.64" y="128.147" width="85.32" height="0.48"/>
	<rect x="134.64" y="128.388" width="0.48" height="9.96"/>
	<polyline points="212.82,67.248 216.18,67.248 216,67.908 213.3,77.088 212.82,78.768 212.34,77.088 209.7,67.908 209.52,67.248 
		210.18,67.248 210.66,67.608 213.3,76.788 212.34,77.088 212.34,76.788 215.041,67.608 216,67.908 215.52,68.268 212.82,68.268 
			"/>
	<rect x="210.18" y="67.248" width="2.64" height="1.02"/>
	<polyline style="fill-rule:evenodd;clip-rule:evenodd;" points="212.82,67.728 215.52,67.728 212.82,76.908 210.18,67.728 	"/>
	<rect x="134.64" y="43.068" width="0.48" height="18.18"/>
	<rect x="134.88" y="60.768" width="78.18" height="0.48"/>
	<rect x="212.58" y="61.008" width="0.48" height="6.42"/>
	<polyline points="174.78,29.148 174.78,32.448 174.12,32.268 163.2,29.148 174.12,26.028 174.78,25.848 174.78,26.508 
		174.42,26.988 165.18,29.628 164.88,28.667 165.18,28.667 174.42,31.308 174.12,32.268 173.76,31.788 173.76,29.148 	"/>
	<rect x="173.76" y="26.508" width="1.02" height="2.64"/>
	<polyline style="fill-rule:evenodd;clip-rule:evenodd;" points="174.3,29.148 174.3,31.788 165.06,29.148 174.3,26.508 	"/>
	<rect x="174.541" y="28.908" width="17.279" height="0.48"/>
	<polyline points="259.8,29.148 259.8,32.448 259.14,32.268 248.22,29.148 259.14,26.028 259.8,25.848 259.8,26.508 
		259.44,26.988 250.2,29.628 249.9,28.667 250.2,28.667 259.44,31.308 259.14,32.268 258.78,31.788 258.78,29.148 	"/>
	<rect x="258.78" y="26.508" width="1.021" height="2.64"/>
	<polyline style="fill-rule:evenodd;clip-rule:evenodd;" points="259.32,29.148 259.32,31.788 250.08,29.148 259.32,26.508 	"/>
	<rect x="259.56" y="28.908" width="17.28" height="0.48"/>
	<polyline points="134.88,138.108 138.18,138.108 138,138.768 134.88,149.688 131.76,138.768 131.58,138.108 132.24,138.108 
		132.72,138.468 135.36,147.708 134.4,148.008 134.4,147.708 137.04,138.468 138,138.768 137.52,139.127 134.88,139.127 	"/>
	<rect x="132.24" y="138.108" width="2.64" height="1.02"/>
	<polyline style="fill-rule:evenodd;clip-rule:evenodd;" points="134.88,138.587 137.52,138.587 134.88,147.828 132.24,138.587 
			"/>
	<rect x="49.62" y="106.848" width="0.48" height="21.78"/>
	<rect x="49.86" y="128.147" width="85.26" height="0.48"/>
	<rect x="134.64" y="128.388" width="0.48" height="9.96"/>
	<polyline points="134.88,138.108 138.18,138.108 138,138.768 134.88,149.688 131.76,138.768 131.58,138.108 132.24,138.108 
		132.72,138.468 135.36,147.708 134.4,148.008 134.4,147.708 137.04,138.468 138,138.768 137.52,139.127 134.88,139.127 	"/>
	<rect x="132.24" y="138.108" width="2.64" height="1.02"/>
	<polyline style="fill-rule:evenodd;clip-rule:evenodd;" points="134.88,138.587 137.52,138.587 134.88,147.828 132.24,138.587 
			"/>
	<rect x="304.74" y="106.848" width="0.48" height="21.78"/>
	<rect x="134.64" y="128.147" width="170.34" height="0.48"/>
	<rect x="134.64" y="128.388" width="0.48" height="9.96"/>
	<rect x="141.96" y="270.108" style="fill:#E6E6E6;" width="70.86" height="42.3"/>
	<rect x="151.44" y="278.748" width="54.3" height="26.58"/>
	<rect x="151.44" y="278.508" width="54.54" height="0.48"/>
	<rect x="205.5" y="278.748" width="0.479" height="26.82"/>
	<rect x="151.2" y="305.087" width="54.54" height="0.48"/>
	<rect x="151.2" y="278.508" width="0.48" height="26.82"/>
	<rect x="149.04" y="276.948" style="fill:#FFFFFF;" width="54.36" height="26.58"/>
	<rect x="149.04" y="276.708" width="54.6" height="0.48"/>
	<rect x="203.16" y="276.948" width="0.48" height="26.82"/>
	<rect x="148.8" y="303.288" width="54.6" height="0.48"/>
	<rect x="148.8" y="276.708" width="0.48" height="26.82"/>
	<text transform="matrix(1 0 0 1 151.4399 284.0874)"><tspan x="0" y="0" style="font-family:'ProductusOSGiBookc'; font-size:7.98;">C</tspan><tspan x="4.142" y="0" style="font-family:'ProductusOSGiBookc'; font-size:7.98;">o</tspan><tspan x="7.916" y="0" style="font-family:'ProductusOSGiBookc'; font-size:7.98;">nnect</tspan><tspan x="24.115" y="0" style="font-family:'ProductusOSGiBookc'; font-size:7.98;">o</tspan><tspan x="27.842" y="0" style="font-family:'ProductusOSGiBookc'; font-size:7.98;">r</tspan><tspan x="30.06" y="0" style="font-family:'ProductusOSGiBookc'; font-size:7.98;"> </tspan><tspan x="31.68" y="0" style="font-family:'ProductusOSGiBookc'; font-size:7.98;">impl</tspan><tspan x="44.16" y="0" style="font-family:'ProductusOSGiBookc'; font-size:7.98;">.</tspan></text>
	<rect x="279" y="151.608" width="54.3" height="26.58"/>
	<rect x="279" y="151.368" width="54.54" height="0.48"/>
	<rect x="333.06" y="151.608" width="0.48" height="26.82"/>
	<rect x="278.76" y="177.948" width="54.54" height="0.48"/>
	<rect x="278.76" y="151.368" width="0.479" height="26.82"/>
	<rect x="276.6" y="149.868" style="fill:#FFFFFF;" width="54.36" height="26.58"/>
	<rect x="276.6" y="149.627" width="54.6" height="0.48"/>
	<rect x="330.72" y="149.868" width="0.479" height="26.82"/>
	<rect x="276.36" y="176.208" width="54.601" height="0.48"/>
	<rect x="276.36" y="149.627" width="0.48" height="26.82"/>
	<text transform="matrix(1 0 0 1 279.0005 156.9478)"><tspan x="0" y="0" style="font-family:'ProductusOSGiBookc'; font-size:7.98;">I</tspan><tspan x="1.508" y="0" style="font-family:'ProductusOSGiBookc'; font-size:7.98;">m</tspan><tspan x="7.262" y="0" style="font-family:'ProductusOSGiBookc'; font-size:7.98;">p</tspan><tspan x="10.925" y="0" style="font-family:'ProductusOSGiBookc'; font-size:7.98;">l</tspan><tspan x="12.48" y="0" style="font-family:'ProductusOSGiBookc'; font-size:7.98;">.</tspan><tspan x="14.045" y="0" style="font-family:'ProductusOSGiBookc'; font-size:7.98;"> </tspan><tspan x="15.664" y="0" style="font-family:'ProductusOSGiBookc'; font-size:7.98;">o</tspan><tspan x="19.383" y="0" style="font-family:'ProductusOSGiBookc'; font-size:7.98;">f</tspan><tspan x="21.418" y="0" style="font-family:'ProductusOSGiBookc'; font-size:7.98;"> </tspan><tspan x="22.982" y="0" style="font-family:'ProductusOSGiBookc'; font-size:7.98;">s</tspan><tspan x="25.799" y="0" style="font-family:'ProductusOSGiBookc'; font-size:7.98;">c</tspan><tspan x="28.863" y="0" style="font-family:'ProductusOSGiBookc'; font-size:7.98;">he</tspan><tspan x="35.997" y="0" style="font-family:'ProductusOSGiBookc'; font-size:7.98;">m</tspan><tspan x="41.751" y="0" style="font-family:'ProductusOSGiBookc'; font-size:7.98;">e</tspan><tspan x="45.229" y="0" style="font-family:'ProductusOSGiBookc'; font-size:7.98;"> </tspan></text>
	<text transform="matrix(1 0 0 1 279.0005 165.4678)"><tspan x="0" y="0" style="font-family:'ProductusOSGiBookc'; font-size:7.98;">p</tspan><tspan x="3.663" y="0" style="font-family:'ProductusOSGiBookc'; font-size:7.98;">r</tspan><tspan x="5.706" y="0" style="font-family:'ProductusOSGiBookc'; font-size:7.98;">o</tspan><tspan x="9.312" y="0" style="font-family:'ProductusOSGiBookc'; font-size:7.98;">v</tspan><tspan x="12.488" y="0" style="font-family:'ProductusOSGiBookc'; font-size:7.98;">iders</tspan></text>
	<rect x="14.4" y="142.968" style="fill:#E6E6E6;" width="70.86" height="42.3"/>
	<rect x="23.88" y="151.608" width="54.3" height="26.58"/>
	<rect x="23.88" y="151.368" width="54.54" height="0.48"/>
	<rect x="77.94" y="151.608" width="0.48" height="26.82"/>
	<rect x="23.64" y="177.948" width="54.54" height="0.48"/>
	<rect x="23.64" y="151.368" width="0.48" height="26.82"/>
	<rect x="21.48" y="149.868" style="fill:#FFFFFF;" width="54.36" height="26.58"/>
	<rect x="21.48" y="149.627" width="54.6" height="0.48"/>
	<rect x="75.6" y="149.868" width="0.48" height="26.82"/>
	<rect x="21.24" y="176.208" width="54.6" height="0.48"/>
	<rect x="21.24" y="149.627" width="0.48" height="26.82"/>
	<text transform="matrix(1 0 0 1 23.8799 156.9478)"><tspan x="0" y="0" style="font-family:'ProductusOSGiBookc'; font-size:7.98;">Impl.</tspan><tspan x="14.068" y="0" style="font-family:'ProductusOSGiBookc'; font-size:7.98;"> </tspan><tspan x="15.632" y="0" style="font-family:'ProductusOSGiBookc'; font-size:7.98;">of</tspan><tspan x="21.402" y="0" style="font-family:'ProductusOSGiBookc'; font-size:7.98;"> </tspan><tspan x="22.966" y="0" style="font-family:'ProductusOSGiBookc'; font-size:7.98;">IO</tspan><tspan x="29.812" y="0" style="font-family:'ProductusOSGiBookc'; font-size:7.98;"> </tspan><tspan x="31.433" y="0" style="font-family:'ProductusOSGiBookc'; font-size:7.98;">use</tspan><tspan x="41.375" y="0" style="font-family:'ProductusOSGiBookc'; font-size:7.98;">r</tspan></text>
	<polyline points="304.98,209.208 308.28,209.208 308.1,209.868 304.98,220.788 301.86,209.868 301.68,209.208 302.34,209.208 
		302.82,209.568 305.46,218.808 304.5,219.108 304.5,218.808 307.14,209.568 308.1,209.868 307.62,210.228 304.98,210.228 	"/>
	<rect x="302.34" y="209.208" width="2.64" height="1.02"/>
	<polyline style="fill-rule:evenodd;clip-rule:evenodd;" points="304.98,209.688 307.62,209.688 304.98,218.928 302.34,209.688 
			"/>
	<rect x="304.74" y="177.948" width="0.48" height="31.5"/>
	<rect x="49.62" y="178.188" width="0.48" height="42.78"/>
	<rect x="191.34" y="277.188" width="0.479" height="0.24"/>
	<polyline points="191.82,277.428 191.34,277.428 191.82,277.428 191.34,277.428 	"/>
	<rect x="191.34" y="262.788" width="0.479" height="14.64"/>
	<rect x="191.58" y="262.788" width="113.641" height="0.48"/>
	<rect x="304.74" y="248.808" width="0.48" height="14.22"/>
	<polyline points="49.86,260.568 46.56,260.568 46.74,259.908 49.86,248.988 52.98,259.908 53.16,260.568 52.5,260.568 
		52.02,260.208 49.38,250.968 50.34,250.667 50.34,250.968 47.7,260.208 46.74,259.908 47.22,259.548 49.86,259.548 	"/>
	<rect x="49.86" y="259.548" width="2.64" height="1.02"/>
	<polyline style="fill-rule:evenodd;clip-rule:evenodd;" points="49.86,260.088 47.22,260.088 49.86,250.848 52.5,260.088 	"/>
	<rect x="163.02" y="262.968" width="0.48" height="14.7"/>
	<rect x="49.62" y="262.968" width="113.64" height="0.48"/>
	<rect x="49.62" y="260.388" width="0.48" height="2.82"/>
	<polyline points="134.88,67.248 138.18,67.248 138,67.908 134.88,78.828 131.76,67.908 131.58,67.248 132.24,67.248 
		132.72,67.608 135.36,76.848 134.4,77.148 134.4,76.848 137.04,67.608 138,67.908 137.52,68.268 134.88,68.268 	"/>
	<rect x="132.24" y="67.248" width="2.64" height="1.02"/>
	<polyline style="fill-rule:evenodd;clip-rule:evenodd;" points="134.88,67.728 137.52,67.728 134.88,76.968 132.24,67.728 	"/>
	<rect x="134.64" y="43.068" width="0.48" height="0.24"/>
	<rect x="134.64" y="43.308" width="0.48" height="24.12"/>
	<text transform="matrix(1 0 0 1 229.02 259.9678)"><tspan x="0" y="0" style="font-family:'ProductusBook'; font-size:7.98;">pr</tspan><tspan x="5.961" y="0" style="font-family:'ProductusBook'; font-size:7.98;">o</tspan><tspan x="9.624" y="0" style="font-family:'ProductusBook'; font-size:7.98;">v</tspan><tspan x="12.855" y="0" style="font-family:'ProductusBook'; font-size:7.98;">ides</tspan><tspan x="24.435" y="0" style="font-family:'ProductusBook'; font-size:7.98;"> </tspan><tspan x="26.047" y="0" style="font-family:'ProductusBook'; font-size:7.98;">io</tspan><tspan x="31.393" y="0" style="font-family:'ProductusBook'; font-size:7.98;"> </tspan><tspan x="33.013" y="0" style="font-family:'ProductusBook'; font-size:7.98;">sc</tspan><tspan x="38.918" y="0" style="font-family:'ProductusBook'; font-size:7.98;">h</tspan><tspan x="42.637" y="0" style="font-family:'ProductusBook'; font-size:7.98;">e</tspan><tspan x="46.124" y="0" style="font-family:'ProductusBook'; font-size:7.98;">me</tspan></text>
	<text transform="matrix(1 0 0 1 306.9595 254.2075)"><tspan x="0" y="0" style="font-family:'ProductusBook'; font-size:7.98;">0..</tspan><tspan x="7.078" y="0" style="font-family:'ProductusBook'; font-size:7.98;">*</tspan></text>
	<text transform="matrix(1 0 0 1 192.8999 274.8481)" style="font-family:'ProductusBook'; font-size:7.98;">1</text>
	<text transform="matrix(1 0 0 1 51.6606 197.9277)"><tspan x="0" y="0" style="font-family:'ProductusBook'; font-size:7.98;">c</tspan><tspan x="3" y="0" style="font-family:'ProductusBook'; font-size:7.98;">o</tspan><tspan x="6.839" y="0" style="font-family:'ProductusBook'; font-size:7.98;">nn</tspan><tspan x="14.165" y="0" style="font-family:'ProductusBook'; font-size:7.98;">e</tspan><tspan x="17.7" y="0" style="font-family:'ProductusBook'; font-size:7.98;">c</tspan><tspan x="20.771" y="0" style="font-family:'ProductusBook'; font-size:7.98;">t</tspan><tspan x="23.166" y="0" style="font-family:'ProductusBook'; font-size:7.98;">io</tspan><tspan x="28.48" y="0" style="font-family:'ProductusBook'; font-size:7.98;">n</tspan><tspan x="32.199" y="0" style="font-family:'ProductusBook'; font-size:7.98;">s</tspan></text>
	<text transform="matrix(1 0 0 1 51.8408 182.688)"><tspan x="0" y="0" style="font-family:'ProductusBook'; font-size:7.98;">0..</tspan><tspan x="7.126" y="0" style="font-family:'ProductusBook'; font-size:7.98;">*</tspan></text>
	<text transform="matrix(1 0 0 1 51.8408 218.1475)" style="font-family:'ProductusBook'; font-size:7.98;">0,1</text>
	<text transform="matrix(1 0 0 1 85.2612 161.4473)"><tspan x="0" y="0" style="font-family:'ProductusBook'; font-size:7.98;">us</tspan><tspan x="6.527" y="0" style="font-family:'ProductusBook'; font-size:7.98;">e</tspan><tspan x="10.015" y="0" style="font-family:'ProductusBook'; font-size:7.98;">s</tspan></text>
	<rect x="77.94" y="163.547" width="0.24" height="0.48"/>
	<rect x="78.18" y="163.547" width="4.02" height="0.48"/>
	<rect x="88.32" y="163.547" width="0.24" height="0.48"/>
	<rect x="88.56" y="163.547" width="7.86" height="0.48"/>
	<rect x="102.54" y="163.547" width="0.24" height="0.48"/>
	<rect x="102.78" y="163.547" width="4.02" height="0.48"/>
	<rect x="193.92" y="151.368" width="54.359" height="26.58"/>
	<rect x="193.92" y="151.127" width="54.6" height="0.48"/>
	<rect x="248.041" y="151.368" width="0.479" height="26.82"/>
	<rect x="193.68" y="177.708" width="54.6" height="0.48"/>
	<rect x="193.68" y="151.127" width="0.479" height="26.82"/>
	<polyline style="fill:#FFFFFF;" points="191.58,149.627 245.94,149.627 245.94,176.208 191.58,176.208 	"/>
	<rect x="191.58" y="149.388" width="54.601" height="0.48"/>
	<rect x="245.7" y="149.627" width="0.48" height="26.82"/>
	<rect x="191.34" y="175.968" width="54.6" height="0.48"/>
	<rect x="191.34" y="149.388" width="0.479" height="26.82"/>
	<text transform="matrix(1 0 0 1 193.9204 156.7075)"><tspan x="0" y="0" style="font-family:'ProductusOSGiBookc'; font-size:7.98;">Imp</tspan><tspan x="10.956" y="0" style="font-family:'ProductusOSGiBookc'; font-size:7.98;">l</tspan><tspan x="12.465" y="0" style="font-family:'ProductusOSGiBookc'; font-size:7.98;">.</tspan><tspan x="14.076" y="0" style="font-family:'ProductusOSGiBookc'; font-size:7.98;"> </tspan><tspan x="15.641" y="0" style="font-family:'ProductusOSGiBookc'; font-size:7.98;">of</tspan><tspan x="21.41" y="0" style="font-family:'ProductusOSGiBookc'; font-size:7.98;"> </tspan></text>
	<text transform="matrix(1 0 0 1 193.9204 165.228)"><tspan x="0" y="0" style="font-family:'ProductusOSGiBookc'; font-size:7.98;">C</tspan><tspan x="4.205" y="0" style="font-family:'ProductusOSGiBookc'; font-size:7.98;">o</tspan><tspan x="7.932" y="0" style="font-family:'ProductusOSGiBookc'; font-size:7.98;">nnectio</tspan><tspan x="29.438" y="0" style="font-family:'ProductusOSGiBookc'; font-size:7.98;">n</tspan></text>
	<polyline points="174.78,163.788 174.78,167.088 174.12,166.908 163.2,163.788 174.12,160.667 174.78,160.488 174.78,161.148 
		174.42,161.627 165.18,164.268 164.88,163.308 165.18,163.308 174.42,165.948 174.12,166.908 173.76,166.428 173.76,163.788 	
		"/>
	<rect x="173.76" y="161.147" width="1.02" height="2.64"/>
	<polyline style="fill-rule:evenodd;clip-rule:evenodd;" points="174.3,163.788 174.3,166.428 165.06,163.788 174.3,161.148 	
		"/>
	<rect x="191.58" y="163.547" width="0.24" height="0.48"/>
	<rect x="174.541" y="163.547" width="17.039" height="0.48"/>
	<rect x="276.6" y="163.547" width="0.24" height="0.48"/>
	<rect x="248.041" y="163.547" width="28.56" height="0.48"/>
	<text transform="matrix(1 0 0 1 51.6602 207.7075)"><tspan x="0" y="0" style="font-family:'ProductusBook'; font-size:7.98;">factor</tspan><tspan x="16.909" y="0" style="font-family:'ProductusBook'; font-size:7.98;">y</tspan></text>
	<text transform="matrix(1 0 0 1 272.8198 162.1074)" style="font-family:'ProductusBook'; font-size:7.98;">1</text>
	<text transform="matrix(1 0 0 1 249.6001 162.1074)"><tspan x="0" y="0" style="font-family:'ProductusBook'; font-size:7.98;">0..</tspan><tspan x="7.126" y="0" style="font-family:'ProductusBook'; font-size:7.98;">*</tspan></text>
	<text transform="matrix(1 0 0 1 24.2397 6.6475)"><tspan x="0" y="0" style="font-family:'ProductusBook'; font-size:7.98;">javax.microedit</tspan><tspan x="43.626" y="0" style="font-family:'ProductusBook'; font-size:7.98;">i</tspan><tspan x="45.246" y="0" style="font-family:'ProductusBook'; font-size:7.98;">on.io</tspan></text>
	<rect y="28.667" width="21.72" height="0.48"/>
	<rect y="28.908" width="0.48" height="262.44"/>
	<rect x="0.24" y="290.868" width="149.04" height="0.48"/>
	<text transform="matrix(1 0 0 1 21.48 288.7681)"><tspan x="0" y="0" style="font-family:'ProductusBook'; font-size:7.98;">us</tspan><tspan x="6.527" y="0" style="font-family:'ProductusBook'; font-size:7.98;">e</tspan><tspan x="10.015" y="0" style="font-family:'ProductusBook'; font-size:7.98;">d</tspan><tspan x="13.733" y="0" style="font-family:'ProductusBook'; font-size:7.98;"> </tspan><tspan x="15.297" y="0" style="font-family:'ProductusBook'; font-size:7.98;">as</tspan><tspan x="21.458" y="0" style="font-family:'ProductusBook'; font-size:7.98;"> </tspan><tspan x="23.022" y="0" style="font-family:'ProductusBook'; font-size:7.98;">def</tspan><tspan x="32.303" y="0" style="font-family:'ProductusBook'; font-size:7.98;">a</tspan><tspan x="35.606" y="0" style="font-family:'ProductusBook'; font-size:7.98;">u</tspan><tspan x="39.269" y="0" style="font-family:'ProductusBook'; font-size:7.98;">l</tspan><tspan x="40.889" y="0" style="font-family:'ProductusBook'; font-size:7.98;">t</tspan></text>
	<text transform="matrix(1 0 0 1 16.5605 27.228)" style="font-family:'ProductusBook'; font-size:7.98;">1</text>
	<text transform="matrix(1 0 0 1 138.8403 288.7681)"><tspan x="0" y="0" style="font-family:'ProductusBook'; font-size:7.98;">0</tspan><tspan x="3.958" y="0" style="font-family:'ProductusBook'; font-size:7.98;">,</tspan><tspan x="5.522" y="0" style="font-family:'ProductusBook'; font-size:7.98;">1</tspan></text>
</svg>
