<?xml version="1.0" encoding="utf-8"?>
<!-- Generator: Adobe Illustrator 16.0.0, SVG Export Plug-In . SVG Version: 6.00 Build 0)  -->
<!DOCTYPE svg PUBLIC "-//W3C//DTD SVG 1.1//EN" "http://www.w3.org/Graphics/SVG/1.1/DTD/svg11.dtd">
<svg version="1.1" id="Layer_1" xmlns="http://www.w3.org/2000/svg" xmlns:xlink="http://www.w3.org/1999/xlink" x="0px" y="0px"
	 width="283.92px" height="85.98px" viewBox="0 0 283.92 85.98" style="enable-background:new 0 0 283.92 85.98;"
	 xml:space="preserve">
<rect x="2.58" y="2.04" width="54.36" height="27"/>
<rect x="2.58" y="1.8" width="54.6" height="0.48"/>
<rect x="56.7" y="2.04" width="0.48" height="27.24"/>
<rect x="2.34" y="28.8" width="54.6" height="0.48"/>
<rect x="2.34" y="1.8" width="0.48" height="27.24"/>
<rect x="0.24" y="0.24" style="fill:#FFFFFF;" width="54.3" height="27"/>
<rect x="0.24" width="54.54" height="0.48"/>
<rect x="54.3" y="0.24" width="0.48" height="27.24"/>
<rect y="27" width="54.54" height="0.48"/>
<rect width="0.48" height="27.24"/>
<text transform="matrix(1 0 0 1.0522 2.5801 7.3799)" style="font-family:'ProductusOSGiBookc'; font-size:7.5841;">Client</text>
<rect x="115.979" y="2.04" width="54.36" height="27"/>
<rect x="115.979" y="1.8" width="54.601" height="0.48"/>
<rect x="170.1" y="2.04" width="0.48" height="27.24"/>
<rect x="115.74" y="28.8" width="54.6" height="0.48"/>
<rect x="115.74" y="1.8" width="0.479" height="27.24"/>
<rect x="113.64" y="0.24" style="fill:#FFFFFF;" width="54.301" height="27"/>
<rect x="113.64" width="54.54" height="0.48"/>
<rect x="167.7" y="0.24" width="0.479" height="27.24"/>
<rect x="113.4" y="27" width="54.541" height="0.48"/>
<rect x="113.4" width="0.48" height="27.24"/>
<text transform="matrix(1 0 0 1.0522 115.9795 7.3799)"><tspan x="0" y="0" style="font-family:'ProductusOSGiBookc'; font-size:7.5841;">I</tspan><tspan x="1.44" y="0" style="font-family:'ProductusOSGiBookc'; font-size:7.5841;">n</tspan><tspan x="4.914" y="0" style="font-family:'ProductusOSGiBookc'; font-size:7.5841;">i</tspan><tspan x="6.355" y="0" style="font-family:'ProductusOSGiBookc'; font-size:7.5841;">t</tspan><tspan x="8.569" y="0" style="font-family:'ProductusOSGiBookc'; font-size:7.5841;">i</tspan><tspan x="10.056" y="0" style="font-family:'ProductusOSGiBookc'; font-size:7.5841;">a</tspan><tspan x="13.12" y="0" style="font-family:'ProductusOSGiBookc'; font-size:7.5841;">l</tspan><tspan x="14.606" y="0" style="font-family:'ProductusOSGiBookc'; font-size:7.5841;"> </tspan><tspan x="16.108" y="0" style="font-family:'ProductusOSGiBookc'; font-size:7.5841;">C</tspan><tspan x="20.074" y="0" style="font-family:'ProductusOSGiBookc'; font-size:7.5841;">o</tspan><tspan x="23.616" y="0" style="font-family:'ProductusOSGiBookc'; font-size:7.5841;">n</tspan><tspan x="27.112" y="0" style="font-family:'ProductusOSGiBookc'; font-size:7.5841;">text</tspan></text>
<rect x="229.38" y="2.04" width="54.3" height="27"/>
<rect x="229.38" y="1.8" width="54.54" height="0.48"/>
<rect x="283.44" y="2.04" width="0.479" height="27.24"/>
<rect x="229.14" y="28.8" width="54.54" height="0.48"/>
<rect x="229.14" y="1.8" width="0.48" height="27.24"/>
<rect x="226.979" y="0.24" style="fill:#FFFFFF;" width="54.36" height="27"/>
<rect x="226.979" width="54.601" height="0.48"/>
<rect x="281.1" y="0.24" width="0.48" height="27.24"/>
<rect x="226.74" y="27" width="54.6" height="0.48"/>
<rect x="226.74" width="0.479" height="27.24"/>
<text transform="matrix(1 0 0 1.0522 229.3799 7.3799)"><tspan x="0" y="0" style="font-family:'ProductusOSGiBookc'; font-size:7.5841;">C</tspan><tspan x="3.967" y="0" style="font-family:'ProductusOSGiBookc'; font-size:7.5841;">o</tspan><tspan x="7.508" y="0" style="font-family:'ProductusOSGiBookc'; font-size:7.5841;">n</tspan><tspan x="10.981" y="0" style="font-family:'ProductusOSGiBookc'; font-size:7.5841;">text</tspan></text>
<rect x="229.38" y="58.74" width="54.3" height="27"/>
<rect x="229.38" y="58.5" width="54.54" height="0.48"/>
<rect x="283.44" y="58.74" width="0.479" height="27.24"/>
<rect x="229.14" y="85.5" width="54.54" height="0.48"/>
<rect x="229.14" y="58.5" width="0.48" height="27.24"/>
<rect x="226.979" y="56.94" style="fill:#FFFFFF;" width="54.36" height="27"/>
<rect x="226.979" y="56.7" width="54.601" height="0.48"/>
<rect x="281.1" y="56.94" width="0.48" height="27.24"/>
<rect x="226.74" y="83.7" width="54.6" height="0.48"/>
<rect x="226.74" y="56.7" width="0.479" height="27.24"/>
<text transform="matrix(1 0 0 1.0522 229.3799 64.0801)"><tspan x="0" y="0" style="font-family:'ProductusOSGiBookc'; font-size:7.5841;">Some</tspan><tspan x="15.805" y="0" style="font-family:'ProductusOSGiBookc'; font-size:7.5841;"> </tspan><tspan x="17.307" y="0" style="font-family:'ProductusOSGiBookc'; font-size:7.5841;">C</tspan><tspan x="21.273" y="0" style="font-family:'ProductusOSGiBookc'; font-size:7.5841;">o</tspan><tspan x="24.868" y="0" style="font-family:'ProductusOSGiBookc'; font-size:7.5841;">ntext </tspan></text>
<text transform="matrix(1 0 0 1.0522 229.3799 72.6006)"><tspan x="0" y="0" style="font-family:'ProductusOSGiBookc'; font-size:7.5841;">I</tspan><tspan x="1.456" y="0" style="font-family:'ProductusOSGiBookc'; font-size:7.5841;">m</tspan><tspan x="6.909" y="0" style="font-family:'ProductusOSGiBookc'; font-size:7.5841;">p</tspan><tspan x="10.375" y="0" style="font-family:'ProductusOSGiBookc'; font-size:7.5841;">l</tspan></text>
<polyline points="255.36,40.561 252.06,40.561 252.24,39.9 255.36,28.98 258.479,39.9 258.66,40.561 258,40.561 257.52,40.2 
	254.88,30.96 255.84,30.66 255.84,30.96 253.2,40.2 252.24,39.9 252.72,39.54 255.36,39.54 "/>
<rect x="255.36" y="39.54" width="2.64" height="1.021"/>
<polyline style="fill-rule:evenodd;clip-rule:evenodd;" points="255.36,40.08 252.72,40.08 255.36,30.84 258,40.08 "/>
<rect x="255.12" y="40.32" width="0.479" height="17.34"/>
<rect x="56.7" y="14.16" width="57.18" height="0.48"/>
<rect x="170.1" y="14.16" width="57.12" height="0.48"/>
<rect x="28.32" y="28.8" width="0.48" height="1.261"/>
<rect x="28.32" y="34.08" width="0.48" height="1.98"/>
<rect x="28.32" y="40.08" width="0.48" height="1.98"/>
<rect x="28.32" y="46.08" width="0.48" height="1.98"/>
<rect x="28.32" y="52.08" width="0.48" height="1.98"/>
<rect x="28.32" y="58.08" width="0.48" height="2.04"/>
<rect x="28.32" y="64.141" width="0.48" height="1.979"/>
<rect x="28.32" y="70.141" width="0.48" height="1.199"/>
<rect x="28.56" y="70.86" width="1.02" height="0.479"/>
<rect x="33.6" y="70.86" width="1.98" height="0.479"/>
<rect x="39.6" y="70.86" width="1.98" height="0.479"/>
<rect x="45.6" y="70.86" width="1.98" height="0.479"/>
<rect x="51.66" y="70.86" width="1.98" height="0.479"/>
<rect x="57.66" y="70.86" width="1.98" height="0.479"/>
<rect x="63.66" y="70.86" width="1.98" height="0.479"/>
<rect x="69.66" y="70.86" width="1.98" height="0.479"/>
<rect x="75.66" y="70.86" width="1.98" height="0.479"/>
<rect x="81.72" y="70.86" width="1.98" height="0.479"/>
<rect x="87.72" y="70.86" width="1.98" height="0.479"/>
<rect x="93.72" y="70.86" width="1.98" height="0.479"/>
<rect x="99.72" y="70.86" width="1.98" height="0.479"/>
<rect x="105.72" y="70.86" width="2.04" height="0.479"/>
<rect x="111.78" y="70.86" width="0.24" height="0.479"/>
<rect x="112.02" y="70.86" width="1.74" height="0.479"/>
<rect x="117.78" y="70.86" width="0.239" height="0.479"/>
<rect x="118.02" y="70.86" width="1.74" height="0.479"/>
<rect x="123.78" y="70.86" width="0.239" height="0.479"/>
<rect x="124.02" y="70.86" width="1.74" height="0.479"/>
<rect x="129.78" y="70.86" width="0.239" height="0.479"/>
<rect x="130.02" y="70.86" width="1.74" height="0.479"/>
<rect x="135.84" y="70.86" width="0.24" height="0.479"/>
<rect x="136.08" y="70.86" width="1.74" height="0.479"/>
<rect x="141.84" y="70.86" width="0.24" height="0.479"/>
<rect x="142.08" y="70.86" width="1.74" height="0.479"/>
<rect x="147.84" y="70.86" width="0.24" height="0.479"/>
<rect x="148.08" y="70.86" width="1.74" height="0.479"/>
<rect x="153.84" y="70.86" width="0.24" height="0.479"/>
<rect x="154.08" y="70.86" width="1.74" height="0.479"/>
<rect x="159.84" y="70.86" width="0.24" height="0.479"/>
<rect x="160.08" y="70.86" width="1.8" height="0.479"/>
<rect x="165.9" y="70.86" width="0.239" height="0.479"/>
<rect x="166.14" y="70.86" width="1.74" height="0.479"/>
<rect x="171.9" y="70.86" width="0.239" height="0.479"/>
<rect x="172.14" y="70.86" width="1.74" height="0.479"/>
<rect x="177.9" y="70.86" width="0.239" height="0.479"/>
<rect x="178.14" y="70.86" width="1.74" height="0.479"/>
<rect x="183.9" y="70.86" width="0.239" height="0.479"/>
<rect x="184.14" y="70.86" width="1.74" height="0.479"/>
<rect x="189.96" y="70.86" width="0.24" height="0.479"/>
<rect x="190.2" y="70.86" width="1.74" height="0.479"/>
<rect x="195.96" y="70.86" width="0.24" height="0.479"/>
<rect x="196.2" y="70.86" width="1.74" height="0.479"/>
<rect x="201.96" y="70.86" width="0.24" height="0.479"/>
<rect x="202.2" y="70.86" width="1.74" height="0.479"/>
<rect x="207.96" y="70.86" width="0.24" height="0.479"/>
<rect x="208.2" y="70.86" width="1.74" height="0.479"/>
<rect x="213.96" y="70.86" width="0.24" height="0.479"/>
<rect x="214.2" y="70.86" width="1.74" height="0.479"/>
<rect x="220.02" y="70.86" width="0.24" height="0.479"/>
<rect x="220.26" y="70.86" width="1.74" height="0.479"/>
<rect x="226.02" y="70.86" width="0.24" height="0.479"/>
<rect x="226.26" y="70.86" width="0.96" height="0.479"/>
<text transform="matrix(1 0 0 1.0522 49.8599 68.3398)"><tspan x="0" y="0" style="font-family:'ProductusOSGiBookc'; font-size:7.5841;">o</tspan><tspan x="3.595" y="0" style="font-family:'ProductusOSGiBookc'; font-size:7.5841;">p</tspan><tspan x="7.076" y="0" style="font-family:'ProductusOSGiBookc'; font-size:7.5841;">ti</tspan><tspan x="10.731" y="0" style="font-family:'ProductusOSGiBookc'; font-size:7.5841;">o</tspan><tspan x="14.326" y="0" style="font-family:'ProductusOSGiBookc'; font-size:7.5841;">n</tspan><tspan x="17.747" y="0" style="font-family:'ProductusOSGiBookc'; font-size:7.5841;">a</tspan><tspan x="20.856" y="0" style="font-family:'ProductusOSGiBookc'; font-size:7.5841;">l</tspan><tspan x="22.35" y="0" style="font-family:'ProductusOSGiBookc'; font-size:7.5841;">ly</tspan><tspan x="26.786" y="0" style="font-family:'ProductusOSGiBookc'; font-size:7.5841;"> </tspan><tspan x="28.288" y="0" style="font-family:'ProductusOSGiBookc'; font-size:7.5841;">spe</tspan><tspan x="37.708" y="0" style="font-family:'ProductusOSGiBookc'; font-size:7.5841;">c</tspan><tspan x="40.642" y="0" style="font-family:'ProductusOSGiBookc'; font-size:7.5841;">ifies</tspan><tspan x="51.374" y="0" style="font-family:'ProductusOSGiBookc'; font-size:7.5841;"> </tspan><tspan x="52.928" y="0" style="font-family:'ProductusOSGiBookc'; font-size:7.5841;">name</tspan><tspan x="68.217" y="0" style="font-family:'ProductusOSGiBookc'; font-size:7.5841;"> </tspan><tspan x="69.719" y="0" style="font-family:'ProductusOSGiBookc'; font-size:7.5841;">o</tspan><tspan x="73.314" y="0" style="font-family:'ProductusOSGiBookc'; font-size:7.5841;">f</tspan><tspan x="75.179" y="0" style="font-family:'ProductusOSGiBookc'; font-size:7.5841;"> </tspan></text>
<text transform="matrix(1 0 0 1.0522 126.5996 68.3398)"><tspan x="0" y="0" style="font-family:'ProductusOSGiBookc'; font-size:7.5841;">imple</tspan><tspan x="15.13" y="0" style="font-family:'ProductusOSGiBookc'; font-size:7.5841;">m</tspan><tspan x="20.53" y="0" style="font-family:'ProductusOSGiBookc'; font-size:7.5841;">entation</tspan><tspan x="43.335" y="0" style="font-family:'ProductusOSGiBookc'; font-size:7.5841;"> </tspan><tspan x="44.836" y="0" style="font-family:'ProductusOSGiBookc'; font-size:7.5841;">in</tspan><tspan x="49.758" y="0" style="font-family:'ProductusOSGiBookc'; font-size:7.5841;"> </tspan><tspan x="51.26" y="0" style="font-family:'ProductusOSGiBookc'; font-size:7.5841;">e</tspan><tspan x="54.559" y="0" style="font-family:'ProductusOSGiBookc'; font-size:7.5841;">n</tspan><tspan x="57.926" y="0" style="font-family:'ProductusOSGiBookc'; font-size:7.5841;">vi</tspan><tspan x="62.378" y="0" style="font-family:'ProductusOSGiBookc'; font-size:7.5841;">r</tspan><tspan x="64.304" y="0" style="font-family:'ProductusOSGiBookc'; font-size:7.5841;">o</tspan><tspan x="67.898" y="0" style="font-family:'ProductusOSGiBookc'; font-size:7.5841;">n</tspan><tspan x="71.319" y="0" style="font-family:'ProductusOSGiBookc'; font-size:7.5841;">m</tspan><tspan x="76.772" y="0" style="font-family:'ProductusOSGiBookc'; font-size:7.5841;">ent</tspan></text>
<text transform="matrix(1 0 0 1.0522 78.2998 12.3604)"><tspan x="0" y="0" style="font-family:'ProductusOSGiBookc'; font-size:7.5841;">n</tspan><tspan x="3.42" y="0" style="font-family:'ProductusOSGiBookc'; font-size:7.5841;">e</tspan><tspan x="6.605" y="0" style="font-family:'ProductusOSGiBookc'; font-size:7.5841;">w</tspan></text>
<text transform="matrix(1 0 0 1.0522 190.7393 12.541)" style="font-family:'ProductusOSGiBookc'; font-size:7.5841;">backing</text>
</svg>
