<?xml version="1.0" encoding="utf-8"?>
<!-- Generator: Adobe Illustrator 16.0.1, SVG Export Plug-In . SVG Version: 6.00 Build 0)  -->
<!DOCTYPE svg PUBLIC "-//W3C//DTD SVG 1.1//EN" "http://www.w3.org/Graphics/SVG/1.1/DTD/svg11.dtd">
<svg version="1.1" id="Layer_1" xmlns="http://www.w3.org/2000/svg" xmlns:xlink="http://www.w3.org/1999/xlink" x="0px" y="0px"
	 width="368.518px" height="240.96px" viewBox="0 0 368.518 240.96" enable-background="new 0 0 368.518 240.96"
	 xml:space="preserve">
<rect y="99.24" fill="#E6E6E6" width="325.98" height="43.2"/>
<polyline fill="#FFFFFF" points="42.48,163.02 35.4,177.18 28.32,163.02 "/>
<polyline points="42.72,163.14 35.64,177.3 35.46,177.72 35.22,177.3 27.96,162.781 28.32,162.781 28.56,162.899 35.64,177.06 
	35.22,177.3 35.22,177.06 42.3,162.899 "/>
<polyline points="28.32,162.781 42.9,162.781 42.72,163.14 42.48,163.259 28.32,163.259 "/>
<rect x="222.06" y="108.12" width="54.301" height="27"/>
<rect x="222.06" y="107.88" width="54.541" height="0.479"/>
<rect x="276.12" y="108.12" width="0.48" height="27.239"/>
<rect x="221.819" y="134.88" width="54.541" height="0.479"/>
<rect x="221.819" y="107.88" width="0.479" height="27.241"/>
<rect x="219.66" y="106.32" fill="#FFFFFF" width="54.36" height="27"/>
<rect x="219.66" y="106.08" width="54.601" height="0.48"/>
<rect x="273.78" y="106.32" width="0.479" height="27.24"/>
<rect x="219.419" y="133.08" width="54.602" height="0.479"/>
<rect x="219.419" y="106.08" width="0.48" height="27.24"/>
<text transform="matrix(1 0 0 1 222.0596 113.4595)" enable-background="new    "><tspan x="0" y="0" font-family="'ProductusOSGiBookc'" font-size="7.98">JNDI</tspan><tspan x="0" y="9.576" font-family="'ProductusOSGiBookc'" font-size="7.98">Implementation</tspan></text>
<text transform="matrix(1 0 0 1 257.7607 65.7603)" enable-background="new    "><tspan x="0" y="0" font-family="'ProductusSemibold'" font-size="7.98">JNDI Context</tspan><tspan x="0" y="9.576" font-family="'ProductusSemibold'" font-size="7.98">Manager</tspan></text>
<rect x="212.58" fill="#E6E6E6" width="70.86" height="42.54"/>
<rect x="222.06" y="8.46" width="54.301" height="27"/>
<rect x="222.06" y="8.22" width="54.541" height="0.48"/>
<rect x="276.12" y="8.46" width="0.48" height="27.24"/>
<rect x="221.819" y="35.22" width="54.541" height="0.48"/>
<rect x="221.819" y="8.22" width="0.479" height="27.24"/>
<rect x="219.66" y="6.66" fill="#FFFFFF" width="54.36" height="27"/>
<rect x="219.66" y="6.42" width="54.601" height="0.48"/>
<rect x="273.78" y="6.66" width="0.479" height="27.24"/>
<rect x="219.419" y="33.42" width="54.602" height="0.48"/>
<rect x="219.419" y="6.42" width="0.48" height="27.24"/>
<text transform="matrix(0.9504 0 0 1 222.0596 13.7993)" font-family="'ProductusOSGiBookc'" font-size="7.98">JNDI Client</text>
<rect x="247.799" y="35.22" width="0.479" height="28.8"/>
<polyline fill="#FFFFFF" points="240.959,63.78 248.04,77.94 255.12,63.78 "/>
<polyline points="241.2,63.66 248.28,77.82 248.28,78.06 247.86,77.82 254.94,63.66 255.12,63.54 255.54,63.54 248.28,78.06 
	248.04,78.48 247.86,78.06 240.78,63.9 "/>
<polyline points="255.12,64.02 240.959,64.02 240.78,63.9 240.601,63.54 255.12,63.54 "/>
<rect x="247.799" y="77.7" width="0.479" height="28.86"/>
<rect fill="#E6E6E6" width="70.86" height="42.54"/>
<rect x="9.42" y="8.88" width="54.36" height="27"/>
<rect x="9.42" y="8.64" width="54.6" height="0.48"/>
<rect x="63.54" y="8.88" width="0.48" height="27.24"/>
<rect x="9.18" y="35.64" width="54.6" height="0.48"/>
<rect x="9.18" y="8.64" width="0.48" height="27.24"/>
<rect x="7.08" y="7.08" fill="#FFFFFF" width="54.3" height="27"/>
<rect x="7.08" y="6.84" width="54.54" height="0.48"/>
<rect x="61.14" y="7.08" width="0.48" height="27.24"/>
<rect x="6.84" y="33.84" width="54.54" height="0.48"/>
<rect x="6.84" y="6.84" width="0.48" height="27.24"/>
<text transform="matrix(0.9504 0 0 1 9.4199 14.2192)" enable-background="new    "><tspan x="0" y="0" font-family="'ProductusOSGiBookc'" font-size="7.98">JNDI Client not </tspan><tspan x="0" y="9.576" font-family="'ProductusOSGiBookc'" font-size="7.98">OSGi aware</tspan></text>
<polyline fill="#FFFFFF" points="35.4,63.78 42.48,67.32 42.48,74.4 35.4,77.94 28.32,74.4 28.32,67.32 "/>
<polyline points="35.52,63.6 42.72,67.2 42.72,74.58 35.4,78.24 28.08,74.58 28.08,67.2 28.2,67.14 28.56,67.32 28.56,74.4 
	28.08,74.4 28.44,74.22 35.52,77.76 35.28,78.18 35.28,77.76 42.36,74.22 42.6,74.64 42.24,74.4 42.24,67.32 42.72,67.32 
	42.36,67.56 35.28,64.02 "/>
<polyline points="28.2,67.14 35.4,63.54 35.52,63.6 35.52,64.02 28.44,67.56 "/>
<text transform="matrix(1 0 0 1 45 67.0796)" enable-background="new    "><tspan x="0" y="0" font-family="'ProductusSemibold'" font-size="7.98">Initial</tspan><tspan x="0" y="9.576" font-family="'ProductusSemibold'" font-size="7.98">Context</tspan></text>
<rect x="35.16" y="35.22" width="0.48" height="28.8"/>
<polyline points="307.2,6.9 314.4,10.5 314.4,17.88 307.08,21.54 306.959,21.48 299.819,17.94 299.7,17.88 299.7,10.5 
	299.819,10.44 300.181,10.62 300.181,17.7 299.7,17.7 300.06,17.52 307.2,21.06 306.959,21.48 306.959,21.06 314.04,17.52 
	314.28,17.94 313.919,17.7 313.919,10.62 314.4,10.62 314.04,10.86 306.959,7.32 "/>
<polyline points="299.819,10.44 306.959,6.9 307.08,6.84 307.2,6.9 307.2,7.32 300.06,10.86 "/>
<text transform="matrix(0.9504 0 0 1 321.2402 16.3198)" font-family="'ProductusOSGiBookc'" font-size="7.98">Static connection</text>
<rect x="170.04" y="198.419" fill="#E6E6E6" width="70.92" height="42.541"/>
<rect x="179.52" y="207.3" width="54.299" height="27"/>
<rect x="179.52" y="207.06" width="54.54" height="0.48"/>
<rect x="233.58" y="207.3" width="0.479" height="27.24"/>
<rect x="179.28" y="234.06" width="54.54" height="0.48"/>
<rect x="179.28" y="207.06" width="0.48" height="27.24"/>
<rect x="177.18" y="205.5" fill="#FFFFFF" width="54.299" height="27"/>
<rect x="177.18" y="205.259" width="54.54" height="0.48"/>
<rect x="231.24" y="205.5" width="0.479" height="27.24"/>
<rect x="176.94" y="232.259" width="54.54" height="0.48"/>
<rect x="176.94" y="205.259" width="0.479" height="27.24"/>
<text transform="matrix(0.9504 0 0 1 179.52 212.6392)" enable-background="new    "><tspan x="0" y="0" font-family="'ProductusOSGiBookc'" font-size="7.98">Initial Context</tspan><tspan x="0" y="9.576" font-family="'ProductusOSGiBookc'" font-size="7.98">Factory Provider</tspan><tspan x="0" y="19.151" font-family="'ProductusOSGiBookc'" font-size="7.98">Impl</tspan></text>
<rect y="198.419" fill="#E6E6E6" width="70.86" height="42.541"/>
<rect x="9.42" y="207.3" width="54.36" height="27"/>
<rect x="9.42" y="207.06" width="54.6" height="0.48"/>
<rect x="63.54" y="207.3" width="0.48" height="27.24"/>
<rect x="9.18" y="234.06" width="54.6" height="0.48"/>
<rect x="9.18" y="207.06" width="0.48" height="27.24"/>
<rect x="7.08" y="205.5" fill="#FFFFFF" width="54.3" height="27"/>
<rect x="7.08" y="205.259" width="54.54" height="0.48"/>
<rect x="61.14" y="205.5" width="0.48" height="27.24"/>
<rect x="6.84" y="232.259" width="54.54" height="0.48"/>
<rect x="6.84" y="205.259" width="0.48" height="27.24"/>
<text transform="matrix(0.9504 0 0 1 9.4199 212.6392)" enable-background="new    "><tspan x="0" y="0" font-family="'ProductusOSGiBookc'" font-size="7.98">Object Factory</tspan><tspan x="0" y="9.576" font-family="'ProductusOSGiBookc'" font-size="7.98">Provider Impl</tspan></text>
<rect x="35.16" y="176.939" width="0.48" height="28.801"/>
<text transform="matrix(1 0 0 1 0.6597 164.9995)" enable-background="new    "><tspan x="0" y="0" font-family="'ProductusSemibold'" font-size="7.98">Object</tspan><tspan x="0" y="9.576" font-family="'ProductusSemibold'" font-size="7.98">Factory</tspan></text>
<polyline fill="#FFFFFF" points="127.56,163.02 120.48,177.18 113.4,163.02 "/>
<polyline points="127.8,163.14 120.72,177.3 120.54,177.72 120.3,177.3 113.04,162.781 113.4,162.781 113.64,162.899 120.72,177.06 
	120.3,177.3 120.3,177.06 127.38,162.899 "/>
<polyline points="113.4,162.781 127.98,162.781 127.8,163.14 127.56,163.259 113.4,163.259 "/>
<rect x="85.02" y="198.419" fill="#E6E6E6" width="70.859" height="42.541"/>
<rect x="94.5" y="207.3" width="54.299" height="27"/>
<rect x="94.5" y="207.06" width="54.54" height="0.48"/>
<rect x="148.56" y="207.3" width="0.479" height="27.24"/>
<rect x="94.26" y="234.06" width="54.54" height="0.48"/>
<rect x="94.26" y="207.06" width="0.48" height="27.24"/>
<rect x="92.1" y="205.5" fill="#FFFFFF" width="54.36" height="27"/>
<rect x="92.1" y="205.259" width="54.6" height="0.48"/>
<rect x="146.22" y="205.5" width="0.48" height="27.24"/>
<rect x="91.86" y="232.259" width="54.6" height="0.48"/>
<rect x="91.86" y="205.259" width="0.48" height="27.24"/>
<text transform="matrix(0.9504 0 0 1 94.5 212.6392)" enable-background="new    "><tspan x="0" y="0" font-family="'ProductusOSGiBookc'" font-size="7.98">Object Factory</tspan><tspan x="0" y="9.576" font-family="'ProductusOSGiBookc'" font-size="7.98">Builder Provider</tspan><tspan x="0" y="19.151" font-family="'ProductusOSGiBookc'" font-size="7.98">Impl</tspan></text>
<rect x="120.24" y="176.939" width="0.48" height="28.801"/>
<text transform="matrix(1 0 0 1 85.7397 164.9995)" enable-background="new    "><tspan x="0" y="0" font-family="'ProductusSemibold'" font-size="7.98">Object</tspan><tspan x="0" y="9.576" font-family="'ProductusSemibold'" font-size="7.98">Factory</tspan><tspan x="0" y="19.152" font-family="'ProductusSemibold'" font-size="7.98">Builder</tspan></text>
<rect x="255.12" y="198.419" fill="#E6E6E6" width="70.86" height="42.541"/>
<rect x="264.54" y="207.3" width="54.36" height="27"/>
<rect x="264.54" y="207.06" width="54.601" height="0.48"/>
<rect x="318.66" y="207.3" width="0.479" height="27.24"/>
<rect x="264.299" y="234.06" width="54.602" height="0.48"/>
<rect x="264.299" y="207.06" width="0.479" height="27.24"/>
<rect x="262.2" y="205.5" fill="#FFFFFF" width="54.3" height="27"/>
<rect x="262.2" y="205.259" width="54.54" height="0.48"/>
<rect x="316.26" y="205.5" width="0.479" height="27.24"/>
<rect x="261.959" y="232.259" width="54.54" height="0.48"/>
<rect x="261.959" y="205.259" width="0.479" height="27.24"/>
<text transform="matrix(0.9504 0 0 1 264.54 212.6392)" enable-background="new    "><tspan x="0" y="0" font-family="'ProductusOSGiBookc'" font-size="7.98">Initial Context</tspan><tspan x="0" y="9.576" font-family="'ProductusOSGiBookc'" font-size="7.98">Builder Provider</tspan><tspan x="0" y="19.151" font-family="'ProductusOSGiBookc'" font-size="7.98">Impl</tspan></text>
<polyline fill="#FFFFFF" points="212.58,163.02 205.5,177.18 198.419,163.02 "/>
<polyline points="212.819,163.14 205.74,177.3 205.56,177.72 205.319,177.3 198.06,162.781 198.419,162.781 198.66,162.899 
	205.74,177.06 205.319,177.3 205.319,177.06 212.399,162.899 "/>
<polyline points="198.419,162.781 213,162.781 212.819,163.14 212.58,163.259 198.419,163.259 "/>
<rect x="205.26" y="176.939" width="0.479" height="28.801"/>
<polyline fill="#FFFFFF" points="297.66,163.02 290.521,177.18 283.44,163.02 "/>
<polyline points="297.899,163.14 290.76,177.3 290.58,177.72 290.339,177.3 283.08,162.781 283.44,162.781 283.681,162.899 
	290.76,177.06 290.339,177.3 290.339,177.06 297.479,162.899 "/>
<polyline points="283.44,162.781 298.08,162.781 297.899,163.14 297.66,163.259 283.44,163.259 "/>
<rect x="290.28" y="176.939" width="0.479" height="28.801"/>
<text transform="matrix(1 0 0 1 170.7603 164.9995)" enable-background="new    "><tspan x="0" y="0" font-family="'ProductusSemibold'" font-size="7.98">Initial</tspan><tspan x="0" y="9.576" font-family="'ProductusSemibold'" font-size="7.98">Context</tspan><tspan x="0" y="19.152" font-family="'ProductusSemibold'" font-size="7.98">Factory</tspan></text>
<text transform="matrix(1 0 0 1 301.2002 164.9995)" enable-background="new    "><tspan x="0" y="0" font-family="'ProductusSemibold'" font-size="7.98">Initial</tspan><tspan x="0" y="9.576" font-family="'ProductusSemibold'" font-size="7.98">Context</tspan><tspan x="0" y="19.152" font-family="'ProductusSemibold'" font-size="7.98">Factory</tspan><tspan x="0" y="28.728" font-family="'ProductusSemibold'" font-size="7.98">Builder</tspan></text>
<polyline fill="#FFFFFF" points="255.12,177.18 248.04,163.02 240.899,177.18 "/>
<polyline points="254.94,177.3 247.86,163.14 247.86,162.899 248.28,163.14 241.14,177.3 240.899,177.419 240.54,177.419 
	240.72,177.06 247.86,162.899 248.101,162.479 248.28,162.899 255.36,177.06 "/>
<polyline points="240.899,176.939 255.12,176.939 255.36,177.06 255.54,177.419 240.899,177.419 "/>
<rect x="247.799" y="134.399" width="0.479" height="28.86"/>
<rect x="219.419" y="191.1" width="0.48" height="14.642"/>
<rect x="219.66" y="191.1" width="56.94" height="0.479"/>
<rect x="276.12" y="191.339" width="0.48" height="14.4"/>
<rect x="247.799" y="191.339" width="0.479" height="0.24"/>
<rect x="247.799" y="176.939" width="0.479" height="14.4"/>
<text transform="matrix(1 0 0 1 256.5596 165.5396)" enable-background="new    "><tspan x="0" y="0" font-family="'ProductusSemibold'" font-size="7.98">JNDI</tspan><tspan x="0" y="9.576" font-family="'ProductusSemibold'" font-size="7.98">Provider</tspan><tspan x="0" y="19.152" font-family="'ProductusSemibold'" font-size="7.98">Admin</tspan></text>
<rect x="35.16" y="127.319" width="0.48" height="35.94"/>
<rect x="35.4" y="127.319" width="184.5" height="0.479"/>
<rect x="254.879" y="134.399" width="0.479" height="21.78"/>
<rect x="255.12" y="155.701" width="35.641" height="0.479"/>
<rect x="290.28" y="155.939" width="0.479" height="7.32"/>
<rect x="240.72" y="134.399" width="0.479" height="21.78"/>
<rect x="205.26" y="155.701" width="35.699" height="0.479"/>
<rect x="205.26" y="155.939" width="0.479" height="7.32"/>
<rect x="226.5" y="134.399" width="0.479" height="14.7"/>
<rect x="120.24" y="148.621" width="106.5" height="0.479"/>
<rect x="120.24" y="148.859" width="0.48" height="14.4"/>
<rect x="35.16" y="77.7" width="0.48" height="43.02"/>
<rect x="35.4" y="120.24" width="184.5" height="0.479"/>
<polyline fill="#FFFFFF" points="120.48,63.78 127.56,67.32 127.56,74.4 120.48,77.94 113.4,74.4 113.4,67.32 "/>
<polyline points="120.6,63.6 127.8,67.2 127.8,74.58 120.48,78.24 120.36,78.18 113.16,74.58 113.16,67.2 113.28,67.14 
	113.64,67.32 113.64,74.4 113.16,74.4 113.52,74.22 120.6,77.76 120.36,78.18 120.36,77.76 127.44,74.22 127.68,74.64 127.32,74.4 
	127.32,67.32 127.8,67.32 127.44,67.56 120.36,64.02 "/>
<polyline points="113.28,67.14 120.36,63.6 120.48,63.54 120.6,63.6 120.6,64.02 113.52,67.56 "/>
<rect x="120.24" y="77.7" width="0.48" height="35.94"/>
<rect x="120.48" y="113.16" width="99.419" height="0.479"/>
<rect x="85.02" fill="#E6E6E6" width="70.859" height="42.54"/>
<rect x="94.5" y="8.88" width="54.299" height="27"/>
<rect x="94.5" y="8.64" width="54.54" height="0.48"/>
<rect x="148.56" y="8.88" width="0.479" height="27.24"/>
<rect x="94.26" y="35.64" width="54.54" height="0.48"/>
<rect x="94.26" y="8.64" width="0.48" height="27.24"/>
<rect x="92.1" y="7.08" fill="#FFFFFF" width="54.36" height="27"/>
<rect x="92.1" y="6.84" width="54.6" height="0.48"/>
<rect x="146.22" y="7.08" width="0.48" height="27.24"/>
<rect x="91.86" y="33.84" width="54.6" height="0.48"/>
<rect x="91.86" y="6.84" width="0.48" height="27.24"/>
<text transform="matrix(0.9504 0 0 1 94.5 14.2192)" enable-background="new    "><tspan x="0" y="0" font-family="'ProductusOSGiBookc'" font-size="7.98">JNDI Provider not</tspan><tspan x="0" y="9.576" font-family="'ProductusOSGiBookc'" font-size="7.98">OSGi aware</tspan></text>
<rect x="120.24" y="63.78" width="0.48" height="0.24"/>
<rect x="120.24" y="35.22" width="0.48" height="28.561"/>
<text transform="matrix(1 0 0 1 130.02 67.0796)" enable-background="new    "><tspan x="0" y="0" font-family="'ProductusSemibold'" font-size="7.98">Naming</tspan><tspan x="0" y="9.576" font-family="'ProductusSemibold'" font-size="7.98">Manager</tspan></text>
</svg>
