<?xml version="1.0" encoding="utf-8"?>
<!-- Generator: Adobe Illustrator 16.0.1, SVG Export Plug-In . SVG Version: 6.00 Build 0)  -->
<!DOCTYPE svg PUBLIC "-//W3C//DTD SVG 1.1//EN" "http://www.w3.org/Graphics/SVG/1.1/DTD/svg11.dtd">
<svg version="1.1" id="Layer_1" xmlns="http://www.w3.org/2000/svg" xmlns:xlink="http://www.w3.org/1999/xlink" x="0px" y="0px"
	 width="255.121px" height="121.859px" viewBox="0 0 255.121 121.859" enable-background="new 0 0 255.121 121.859"
	 xml:space="preserve">
<rect x="92.1" y="78.66" fill="#E6E6E6" width="71.7" height="43.199"/>
<polyline fill="#FFFFFF" points="120.48,106.98 134.64,106.98 127.56,92.82 "/>
<polyline points="120.48,106.74 134.64,106.74 134.88,106.86 134.46,107.1 127.38,92.94 127.38,92.7 127.62,92.281 127.8,92.7 
	135.06,107.22 120.48,107.22 "/>
<polyline points="127.8,92.94 120.72,107.1 120.48,107.22 120.12,107.22 127.38,92.7 "/>
<rect y="0.66" fill="#E6E6E6" width="71.64" height="43.199"/>
<rect x="91.26" y="0" fill="#E6E6E6" width="71.701" height="43.2"/>
<rect x="183.419" y="0.66" fill="#E6E6E6" width="71.699" height="43.199"/>
<polyline fill="#FFFFFF" points="212.58,29.04 226.74,29.04 219.66,14.88 "/>
<polyline points="212.58,28.8 226.74,28.8 226.98,28.92 226.56,29.16 219.48,15 219.48,14.76 219.72,14.34 219.9,14.76 
	227.16,29.281 212.58,29.281 "/>
<polyline points="219.9,15 212.82,29.16 212.58,29.281 212.22,29.281 219.48,14.76 "/>
<polyline fill="#FFFFFF" points="120.48,29.04 134.64,29.04 127.56,14.88 "/>
<polyline points="120.48,28.8 134.64,28.8 134.88,28.92 134.46,29.16 127.38,15 127.38,14.76 127.62,14.34 127.8,14.76 
	135.06,29.281 120.48,29.281 "/>
<polyline points="127.8,15 120.72,29.16 120.48,29.281 120.12,29.281 127.38,14.76 "/>
<polyline fill="#FFFFFF" points="28.32,29.04 42.48,29.04 35.4,14.88 "/>
<polyline points="28.32,28.8 42.48,28.8 42.72,28.92 42.3,29.16 35.22,15 35.22,14.76 35.46,14.34 35.64,14.76 42.9,29.281 
	28.32,29.281 "/>
<polyline points="35.64,15 28.56,29.16 28.32,29.281 27.96,29.281 35.22,14.76 "/>
<rect x="127.32" y="92.82" width="0.48" height="0.239"/>
<rect x="127.32" y="64.26" width="0.48" height="28.561"/>
<polyline points="127.5,64.32 127.32,64.38 127.5,64.8 127.68,64.74 "/>
<polyline points="130.98,62.94 131.16,62.88 131.339,63.3 131.16,63.36 "/>
<polyline points="127.5,64.32 127.68,64.74 131.16,63.36 130.98,62.94 "/>
<polyline points="137.1,60.6 136.919,60.66 137.1,61.08 137.28,61.021 "/>
<polyline points="144.121,57.9 144.3,57.84 144.48,58.26 144.3,58.32 "/>
<polyline points="137.1,60.6 137.28,61.021 144.3,58.32 144.121,57.9 "/>
<polyline points="150.24,55.5 150.06,55.56 150.24,55.98 150.419,55.92 "/>
<polyline points="157.32,52.8 157.5,52.74 157.68,53.16 157.5,53.22 "/>
<polyline points="150.24,55.5 150.419,55.92 157.5,53.22 157.32,52.8 "/>
<polyline points="163.44,50.46 163.259,50.521 163.44,50.94 163.621,50.88 "/>
<polyline points="170.46,47.76 170.64,47.7 170.82,48.12 170.64,48.18 "/>
<polyline points="163.44,50.46 163.621,50.88 170.64,48.18 170.46,47.76 "/>
<polyline points="176.58,45.42 176.4,45.48 176.58,45.9 176.759,45.84 "/>
<polyline points="183.66,42.66 183.839,42.6 184.02,43.021 183.839,43.08 "/>
<polyline points="176.58,45.42 176.759,45.84 183.839,43.08 183.66,42.66 "/>
<polyline points="189.78,40.32 189.6,40.38 189.78,40.8 189.96,40.74 "/>
<polyline points="196.8,37.62 196.98,37.56 197.16,37.98 196.98,38.04 "/>
<polyline points="189.78,40.32 189.96,40.74 196.98,38.04 196.8,37.62 "/>
<polyline points="202.919,35.281 202.74,35.34 202.919,35.76 203.1,35.7 "/>
<polyline points="210,32.58 210.18,32.521 210.36,32.94 210.18,33 "/>
<polyline points="202.919,35.281 203.1,35.7 210.18,33 210,32.58 "/>
<polyline points="216.121,30.18 215.94,30.24 216.121,30.66 216.3,30.6 "/>
<polyline points="219.6,28.86 219.78,28.8 219.96,29.22 219.78,29.281 "/>
<polyline points="216.121,30.18 216.3,30.6 219.78,29.281 219.6,28.86 "/>
<rect x="218.82" y="105.6" fill="#E6E6E6" width="7.92" height="7.801"/>
<text transform="matrix(1 0 0 1 233.8198 111.0598)" font-family="'ProductusBook'" font-size="7.98">System</text>
<text transform="matrix(1 0 0 1 63.7798 38.76)" font-family="'ProductusBook'" font-size="7.98">A</text>
<text transform="matrix(1 0 0 1 99.1802 57.6594)" enable-background="new    "><tspan x="0" y="0" font-family="'ProductusBook'" font-size="7.98">Topology</tspan><tspan x="0" y="9.576" font-family="'ProductusBook'" font-size="7.98">Manager</tspan></text>
<g>
	<text transform="matrix(1 0 0 1 243.8999 38.76)" font-family="'ProductusBook'" font-size="7.98">C</text>
	<text transform="matrix(1 0 0 1 151.7397 38.76)" font-family="'ProductusBook'" font-size="7.98">B</text>
</g>
<text transform="matrix(1 0 0 1 154.6196 116.6995)" font-family="'ProductusBook'" font-size="7.98">D</text>
</svg>
