<?xml version="1.0" encoding="utf-8"?>
<!-- Generator: Adobe Illustrator 16.0.1, SVG Export Plug-In . SVG Version: 6.00 Build 0)  -->
<!DOCTYPE svg PUBLIC "-//W3C//DTD SVG 1.1//EN" "http://www.w3.org/Graphics/SVG/1.1/DTD/svg11.dtd">
<svg version="1.1" id="Layer_1" xmlns="http://www.w3.org/2000/svg" xmlns:xlink="http://www.w3.org/1999/xlink" x="0px" y="0px"
	 width="318.914px" height="177.18px" viewBox="0 0 318.914 177.18" enable-background="new 0 0 318.914 177.18"
	 xml:space="preserve">
<rect x="7.08" y="0" fill="#E6E6E6" width="114.24" height="43.2"/>
<rect x="120.479" y="133.979" fill="#E6E6E6" width="71.7" height="43.2"/>
<rect x="142.32" y="141.06" width="0.48" height="0.24"/>
<rect x="142.32" y="105.42" width="0.48" height="35.64"/>
<rect x="121.32" y="48.96" fill="#E6E6E6" width="70.859" height="42.479"/>
<rect x="130.74" y="57.781" width="54.36" height="26.579"/>
<rect x="130.74" y="57.54" width="54.599" height="0.479"/>
<rect x="184.86" y="57.781" width="0.479" height="26.819"/>
<rect x="130.5" y="84.12" width="54.601" height="0.479"/>
<rect x="130.5" y="57.54" width="0.48" height="26.818"/>
<rect x="128.4" y="56.04" fill="#FFFFFF" width="54.359" height="26.58"/>
<rect x="128.4" y="55.8" width="54.6" height="0.48"/>
<rect x="182.52" y="56.04" width="0.479" height="26.818"/>
<rect x="128.16" y="82.38" width="54.599" height="0.479"/>
<rect x="128.16" y="55.8" width="0.48" height="26.82"/>
<text transform="matrix(0.9504 0 0 1 130.7397 63.1194)" enable-background="new    "><tspan x="0" y="0" font-family="'ProductusOSGiBookc'" font-size="7.98">Topology</tspan><tspan x="0" y="9.576" font-family="'ProductusOSGiBookc'" font-size="7.98">Manager Impl</tspan></text>
<polyline fill="#FFFFFF" points="78.78,7.08 114.24,7.08 114.24,21.3 78.78,28.38 "/>
<rect x="78.78" y="6.84" width="35.7" height="0.479"/>
<polyline points="114.479,7.08 114.479,21.48 114.3,21.54 78.84,28.62 78.54,28.68 78.54,28.38 78.72,28.14 114.18,21.06 
	114.3,21.54 114,21.3 114,7.08 "/>
<rect x="78.54" y="6.84" width="0.48" height="21.54"/>
<text transform="matrix(1 0 0 1 267.1792 149.0999)" enable-background="new    "><tspan x="0" y="0" font-family="'ProductusOSGiBookc'" font-size="7.98">configured</tspan><tspan x="0" y="9.576" font-family="'ProductusOSGiBookc'" font-size="7.98">Endpoint</tspan></text>
<text transform="matrix(1 0 0 1 83.3994 14.4592)" font-family="'ProductusSemibold'" font-size="7.98">XML</text>
<rect x="130.74" y="142.859" width="54.36" height="27"/>
<rect x="130.74" y="142.62" width="54.599" height="0.479"/>
<rect x="184.86" y="142.859" width="0.479" height="27.24"/>
<rect x="130.5" y="169.62" width="54.601" height="0.479"/>
<rect x="130.5" y="142.62" width="0.48" height="27.238"/>
<rect x="128.4" y="141.06" fill="#FFFFFF" width="54.359" height="27"/>
<rect x="128.4" y="140.819" width="54.6" height="0.48"/>
<rect x="182.52" y="141.06" width="0.479" height="27.24"/>
<rect x="128.16" y="167.819" width="54.599" height="0.48"/>
<rect x="128.16" y="140.819" width="0.48" height="27.24"/>
<text transform="matrix(0.9504 0 0 1 130.7397 148.2004)" enable-background="new    "><tspan x="0" y="0" font-family="'ProductusOSGiBookc'" font-size="7.98">Remote Service</tspan><tspan x="0" y="9.576" font-family="'ProductusOSGiBookc'" font-size="7.98">Admin Impl</tspan></text>
<rect x="18.18" y="8.22" width="54.36" height="27"/>
<rect x="18.18" y="7.98" width="54.6" height="0.48"/>
<rect x="72.3" y="8.22" width="0.48" height="27.24"/>
<rect x="17.939" y="34.98" width="54.6" height="0.48"/>
<rect x="17.939" y="7.98" width="0.48" height="27.24"/>
<rect x="15.84" y="6.42" fill="#FFFFFF" width="54.3" height="27"/>
<rect x="15.84" y="6.18" width="54.54" height="0.48"/>
<rect x="69.9" y="6.42" width="0.48" height="27.24"/>
<rect x="15.6" y="33.18" width="54.54" height="0.48"/>
<rect x="15.6" y="6.18" width="0.48" height="27.24"/>
<text transform="matrix(0.9504 0 0 1 18.1797 13.5598)" font-family="'ProductusOSGiBookc'" font-size="7.98">Client impl</text>
<rect x="233.878" y="0" fill="#E6E6E6" width="71.701" height="43.2"/>
<rect x="244.14" y="8.22" width="54.359" height="27"/>
<rect x="244.14" y="7.98" width="54.6" height="0.48"/>
<rect x="298.259" y="8.22" width="0.48" height="27.24"/>
<rect x="243.9" y="34.98" width="54.6" height="0.48"/>
<rect x="243.9" y="7.98" width="0.479" height="27.24"/>
<rect x="241.798" y="6.42" fill="#FFFFFF" width="54.302" height="27"/>
<rect x="241.798" y="6.18" width="54.541" height="0.48"/>
<rect x="295.86" y="6.42" width="0.479" height="27.24"/>
<rect x="241.56" y="33.18" width="54.54" height="0.48"/>
<rect x="241.56" y="6.18" width="0.479" height="27.24"/>
<text transform="matrix(0.9504 0 0 1 244.1401 13.5598)" font-family="'ProductusOSGiBookc'" font-size="7.98">Discovery Impl</text>
<polyline fill="#FFFFFF" points="135.479,120.479 149.64,120.479 142.56,106.319 "/>
<polyline points="135.479,120.24 149.64,120.24 149.88,120.359 149.459,120.6 142.38,106.439 142.38,106.2 142.62,105.781 
	142.8,106.2 150.06,120.72 135.479,120.72 "/>
<polyline points="142.8,106.439 135.72,120.6 135.479,120.72 135.12,120.72 142.38,106.2 "/>
<polyline fill="#FFFFFF" points="163.86,105.66 178.02,105.66 170.939,119.819 "/>
<polyline points="163.86,105.42 178.44,105.42 171.18,119.939 171,120.359 170.759,119.939 170.759,119.7 177.839,105.54 
	178.259,105.781 178.02,105.899 163.86,105.899 "/>
<polyline points="170.759,119.939 163.5,105.42 163.86,105.42 164.1,105.54 171.18,119.7 "/>
<rect x="170.701" y="119.58" width="0.479" height="21.72"/>
<rect x="142.32" y="84.12" width="0.48" height="21.778"/>
<rect x="170.701" y="84.12" width="0.479" height="21.778"/>
<rect x="36.06" y="35.22" width="0.48" height="35.88"/>
<rect x="50.22" y="35.22" width="0.48" height="21.72"/>
<rect x="50.22" y="70.62" width="0.48" height="78.479"/>
<rect x="50.459" y="148.62" width="78.18" height="0.479"/>
<rect x="36.06" y="84.84" width="0.48" height="78.42"/>
<rect x="36.3" y="162.781" width="92.34" height="0.479"/>
<rect x="36.06" y="77.7" width="92.58" height="0.479"/>
<rect x="50.22" y="63.54" width="78.42" height="0.479"/>
<polyline fill="#FFFFFF" points="29.16,85.08 43.38,85.08 36.3,70.86 "/>
<polyline points="29.16,84.84 43.38,84.84 43.62,84.96 43.2,85.2 36.12,70.98 36.12,70.74 36.36,70.32 36.54,70.74 43.62,84.96 
	43.8,85.319 29.16,85.319 "/>
<polyline points="36.54,70.98 29.4,85.2 29.16,85.319 28.8,85.319 28.979,84.96 36.12,70.74 "/>
<polyline fill="#FFFFFF" points="43.38,56.7 57.54,56.7 50.459,70.86 "/>
<polyline points="43.38,56.46 57.959,56.46 50.7,70.98 50.52,71.4 50.28,70.98 50.28,70.74 57.36,56.58 57.78,56.82 57.54,56.94 
	43.38,56.94 "/>
<polyline points="50.28,70.98 43.02,56.46 43.38,56.46 43.62,56.58 50.7,70.74 "/>
<polyline fill="#FFFFFF" points="241.798,70.86 241.798,56.7 227.64,63.781 "/>
<polyline points="241.56,70.86 241.56,56.7 241.679,56.52 241.919,56.94 227.759,64.02 227.52,64.02 227.041,63.781 227.52,63.6 
	242.041,56.34 242.041,70.86 "/>
<polyline points="227.759,63.6 241.919,70.68 242.041,70.86 242.041,71.281 227.52,64.02 "/>
<polyline fill="#FFFFFF" points="227.64,85.08 227.64,70.86 241.798,77.939 "/>
<polyline points="227.4,85.08 227.4,70.5 241.919,77.76 242.4,77.939 241.919,78.18 241.679,78.18 227.52,71.1 227.759,70.68 
	227.878,70.86 227.878,85.08 "/>
<polyline points="241.919,78.18 227.759,85.319 227.4,85.5 227.4,85.08 227.52,84.899 241.679,77.76 "/>
<rect x="184.86" y="63.54" width="43.021" height="0.479"/>
<rect x="184.86" y="77.7" width="43.021" height="0.479"/>
<rect x="241.56" y="63.54" width="14.641" height="0.479"/>
<rect x="255.718" y="35.22" width="0.48" height="28.561"/>
<rect x="241.56" y="77.7" width="28.02" height="0.479"/>
<rect x="269.1" y="35.22" width="0.479" height="42.72"/>
<text transform="matrix(1 0 0 1 198.4194 41.6995)" enable-background="new    "><tspan x="0" y="0" font-family="'ProductusSemibold'" font-size="7.98">Endpoint</tspan><tspan x="0" y="9.576" font-family="'ProductusSemibold'" font-size="7.98">Event Listener</tspan></text>
<text transform="matrix(1 0 0 1 219.7202 93.8997)" enable-background="new    ">
<tspan x="0" y="0" font-family="'ProductusSemibold'" font-size="7.98">Endpoint</tspan>
<tspan x="0" y="9.576" font-family="'ProductusSemibold'" font-size="7.98">Event</tspan>
<tspan x="0" y="19.152" font-family="'ProductusSemibold'" font-size="7.98">Listener</tspan></text>
<text transform="matrix(1 0 0 1 180.7798 106.8586)" enable-background="new    "><tspan x="0" y="0" font-family="'ProductusSemibold'" font-size="7.98">Remote</tspan><tspan x="0" y="9.576" font-family="'ProductusSemibold'" font-size="7.98">Service</tspan><tspan x="0" y="19.152" font-family="'ProductusSemibold'" font-size="7.98">Admin</tspan></text>
<text transform="matrix(1 0 0 1 104.04 99.719)" enable-background="new    "><tspan x="0" y="0" font-family="'ProductusSemibold'" font-size="7.98">Remote</tspan><tspan x="0" y="9.576" font-family="'ProductusSemibold'" font-size="7.98">Service</tspan><tspan x="0" y="19.152" font-family="'ProductusSemibold'" font-size="7.98">Admin</tspan><tspan x="0" y="28.728" font-family="'ProductusSemibold'" font-size="7.98">Listener</tspan></text>
<text transform="matrix(1 0 0 1 0 56.219)" enable-background="new    "><tspan x="0" y="0" font-family="'ProductusOSGiBookc'" font-size="7.98">Imported &amp;</tspan><tspan x="0" y="9.576" font-family="'ProductusOSGiBookc'" font-size="7.98">Exported</tspan><tspan x="0" y="19.152" font-family="'ProductusOSGiBookc'" font-size="7.98">Services</tspan></text>
<rect x="114" y="13.92" width="2.22" height="0.479"/>
<rect x="120.24" y="13.92" width="3.96" height="0.479"/>
<rect x="128.22" y="13.92" width="3.96" height="0.479"/>
<rect x="136.14" y="13.92" width="4.02" height="0.479"/>
<rect x="144.12" y="13.92" width="3.96" height="0.479"/>
<rect x="152.1" y="13.92" width="3.96" height="0.479"/>
<rect x="160.08" y="13.92" width="3.961" height="0.479"/>
<rect x="168.06" y="13.92" width="3.96" height="0.479"/>
<rect x="176.041" y="13.92" width="3.959" height="0.479"/>
<rect x="184.02" y="13.92" width="3.96" height="0.479"/>
<rect x="191.94" y="13.92" width="4.021" height="0.479"/>
<rect x="199.919" y="13.92" width="0.24" height="0.479"/>
<rect x="200.16" y="13.92" width="3.721" height="0.479"/>
<rect x="207.9" y="13.92" width="0.24" height="0.479"/>
<rect x="208.14" y="13.92" width="3.72" height="0.479"/>
<rect x="215.878" y="13.92" width="0.24" height="0.479"/>
<rect x="216.121" y="13.92" width="3.719" height="0.479"/>
<rect x="223.86" y="13.92" width="0.24" height="0.479"/>
<rect x="224.1" y="13.92" width="3.72" height="0.479"/>
<rect x="231.839" y="13.92" width="0.24" height="0.479"/>
<rect x="232.08" y="13.92" width="3.721" height="0.479"/>
<rect x="239.82" y="13.92" width="0.24" height="0.479"/>
<rect x="240.06" y="13.92" width="1.979" height="0.479"/>
<rect x="233.878" y="148.62" width="0.24" height="0.479"/>
<rect x="184.02" y="148.62" width="49.858" height="0.479"/>
<rect x="184.02" y="162.781" width="43.021" height="0.479"/>
<text transform="matrix(1 0 0 1 229.3804 164.6399)" enable-background="new    "><tspan x="0" y="0" font-family="'ProductusOSGiBookc'" font-size="7.98">to an</tspan><tspan x="0" y="9.576" font-family="'ProductusOSGiBookc'" font-size="7.98">Endpoint</tspan></text>
<text transform="matrix(1 0 0 1 187.1401 146.9397)" font-family="'ProductusOSGiBookc'" font-size="7.98">1</text>
<text transform="matrix(1 0 0 1 216.1206 161.0989)" font-family="'ProductusOSGiBookc'" font-size="7.98">0..n</text>
<text transform="matrix(1 0 0 1 216.1206 146.5188)" font-family="'ProductusOSGiBookc'" font-size="7.98">0..n</text>
<text transform="matrix(1 0 0 1 156.7803 12.3596)" font-family="'ProductusOSGiBookc'" font-size="7.98">discovered by</text>
<polyline fill="#F7F7F7" points="304.74,106.319 304.621,104.16 304.32,102 303.78,100.02 303.06,98.04 302.16,96.18 301.14,94.439 
	300.541,93.6 299.878,92.76 299.218,92.04 298.5,91.26 297.78,90.6 297,89.88 296.218,89.281 295.378,88.68 293.64,87.6 
	291.78,86.7 289.798,85.979 287.759,85.5 285.66,85.14 283.5,85.08 281.339,85.14 279.179,85.5 277.14,85.979 275.218,86.7 
	273.36,87.6 271.621,88.68 269.94,89.88 269.218,90.6 268.44,91.26 267.78,92.04 267.06,92.76 265.86,94.439 264.78,96.18 
	263.878,98.04 263.16,100.02 262.679,102 262.32,104.16 262.201,106.319 262.32,108.479 262.679,110.58 263.16,112.62 
	263.878,114.6 264.78,116.46 265.86,118.2 266.458,119.04 267.06,119.819 267.78,120.6 268.44,121.319 269.218,122.04 269.94,122.7 
	270.78,123.359 271.621,123.96 273.36,124.979 275.218,125.88 277.14,126.6 279.179,127.14 281.339,127.439 283.5,127.56 
	285.66,127.439 287.759,127.14 289.798,126.6 291.78,125.88 293.64,124.979 295.378,123.96 296.218,123.359 297.78,122.04 
	299.218,120.6 300.541,119.04 301.14,118.2 302.16,116.46 303.06,114.6 303.78,112.62 304.32,110.58 304.621,108.479 
	304.74,106.319 "/>
<polyline points="304.5,106.319 304.378,104.16 304.378,104.22 304.08,102.06 304.56,101.939 304.56,102 304.86,104.16 
	304.98,106.319 "/>
<polyline points="304.08,102.06 303.541,100.08 303.541,100.14 304.02,99.96 304.56,101.939 "/>
<polyline points="303.541,100.14 304.02,99.96 303.6,98.76 303.121,98.939 "/>
<polyline points="300.48,93.96 300.36,93.72 300.36,93.781 299.701,92.939 299.041,92.22 298.32,91.439 298.378,91.439 
	297.66,90.781 296.878,90.06 296.1,89.46 296.1,89.52 296.4,89.1 297.179,89.7 297.958,90.42 298.679,91.08 298.679,91.14 
	299.4,91.92 300.06,92.64 300.718,93.479 300.78,93.479 300.9,93.72 "/>
<polyline points="296.1,89.52 295.259,88.92 295.5,88.5 295.56,88.5 296.4,89.1 "/>
<polyline points="295.259,88.92 295.5,88.5 295.32,88.38 295.08,88.8 "/>
<polyline points="289.919,86.34 289.679,86.22 289.74,86.22 287.701,85.74 287.759,85.74 285.66,85.38 285.66,84.899 
	285.718,84.899 287.82,85.26 289.86,85.74 289.919,85.8 290.16,85.92 "/>
<polyline points="285.66,85.38 283.5,85.319 283.5,84.84 285.66,84.899 "/>
<rect x="282.541" y="84.84" width="0.959" height="0.479"/>
<polyline points="277.02,86.34 275.339,86.939 273.48,87.84 271.74,88.92 271.798,88.92 271.5,88.5 273.24,87.42 273.298,87.42 
	275.16,86.52 275.16,86.46 276.839,85.859 "/>
<polyline points="271.798,88.92 270.958,89.52 270.958,89.46 270.66,89.1 271.5,88.5 "/>
<polyline points="270.958,89.46 270.66,89.1 270.121,89.52 270.419,89.88 "/>
<polyline points="266.52,94.02 266.1,94.62 266.1,94.56 265.02,96.3 264.121,98.16 263.64,97.979 263.701,97.979 264.6,96.12 
	264.6,96.06 265.679,94.319 266.1,93.72 "/>
<polyline points="264.121,98.16 263.4,100.14 263.4,100.08 262.919,100.02 262.919,99.96 263.64,97.979 "/>
<polyline points="263.4,100.08 262.919,100.02 262.798,100.68 263.28,100.74 "/>
<polyline points="262.44,106.319 262.44,106.319 262.56,108.479 262.919,110.58 262.919,110.52 262.44,110.64 262.08,108.54 
	262.08,108.479 261.958,106.319 "/>
<polyline points="262.919,110.52 263.4,112.56 262.919,112.74 262.919,112.68 262.44,110.64 "/>
<polyline points="263.4,112.56 262.919,112.74 263.339,113.88 263.82,113.7 "/>
<polyline points="266.458,118.68 266.64,118.92 267.24,119.7 267.958,120.479 268.621,121.2 268.621,121.14 269.4,121.859 
	270.121,122.52 270.958,123.18 270.66,123.6 270.66,123.54 269.82,122.88 269.1,122.22 268.32,121.5 268.259,121.5 267.6,120.781 
	266.878,120 266.28,119.22 266.1,118.979 "/>
<polyline points="270.958,123.18 271.798,123.781 271.74,123.781 271.5,124.2 270.66,123.6 "/>
<polyline points="271.74,123.781 271.5,124.2 271.679,124.319 271.919,123.899 "/>
<polyline points="276.958,126.3 277.201,126.359 279.24,126.899 281.4,127.2 281.339,127.2 281.339,127.68 279.179,127.38 
	279.121,127.38 277.08,126.84 276.839,126.781 "/>
<polyline points="281.339,127.2 283.5,127.319 283.5,127.8 281.339,127.68 "/>
<polyline points="283.5,127.319 283.5,127.8 284.458,127.74 284.458,127.26 "/>
<polyline points="289.98,126.359 291.718,125.7 293.58,124.8 293.52,124.8 295.259,123.781 295.56,124.2 295.5,124.2 
	293.759,125.22 291.9,126.12 290.16,126.781 "/>
<polyline points="295.259,123.781 296.1,123.18 296.4,123.54 296.4,123.6 295.56,124.2 "/>
<polyline points="296.1,123.18 296.4,123.54 296.94,123.12 296.64,122.76 "/>
<polyline points="300.48,118.68 300.958,118.08 301.98,116.34 301.98,116.399 302.878,114.54 302.82,114.54 303.298,114.72 
	302.4,116.58 301.378,118.319 301.32,118.38 300.839,118.979 "/>
<polyline points="302.82,114.54 303.541,112.56 304.02,112.68 304.02,112.74 303.298,114.72 "/>
<polyline points="303.541,112.56 304.02,112.68 304.201,112.02 303.718,111.899 "/>
<text transform="matrix(1 0 0 1 271.2476 106.8586)" enable-background="new    "><tspan x="0" y="0" font-family="'ProductusBook'" font-size="7.98">network/</tspan><tspan x="3.563" y="9.576" font-family="'ProductusBook'" font-size="7.98">cluster</tspan></text>
<rect x="283.259" y="35.22" width="0.48" height="4.2"/>
<rect x="283.259" y="44.58" width="0.48" height="7.02"/>
<rect x="283.259" y="56.76" width="0.48" height="6.96"/>
<rect x="283.259" y="68.88" width="0.48" height="7.02"/>
<rect x="283.259" y="81.06" width="0.48" height="4.26"/>
<text transform="matrix(1 0 0 1 287.8794 64.0803)" enable-background="new    "><tspan x="0" y="0" font-family="'ProductusOSGiBookc'" font-size="7.98">discovers/</tspan><tspan x="0" y="9.576" font-family="'ProductusOSGiBookc'" font-size="7.98">announces</tspan></text>
<text transform="matrix(1 0 0 1 194.8804 61.8)" font-family="'ProductusBook'" font-size="7.98">discovers</text>
<text transform="matrix(1 0 0 1 194.8804 75.5999)" font-family="'ProductusBook'" font-size="7.98">announces</text>
<polyline fill="#FFFFFF" points="233.878,141.72 262.201,141.72 255.121,155.939 226.798,155.939 "/>
<polyline points="233.878,141.479 262.621,141.479 262.44,141.84 255.36,156.06 255.298,156.18 226.44,156.18 226.621,155.819 
	226.798,155.7 255.121,155.7 255.121,156.18 254.94,155.819 262.02,141.6 262.44,141.84 262.201,141.96 233.878,141.96 "/>
<polyline points="226.621,155.819 233.701,141.6 233.759,141.479 233.878,141.479 234.121,141.84 227.041,156.06 "/>
<text transform="matrix(1 0 0 1 187.2593 160.6799)" font-family="'ProductusOSGiBookc'" font-size="7.98">1</text>
</svg>
