<?xml version="1.0" encoding="utf-8"?>
<!-- Generator: Adobe Illustrator 16.0.1, SVG Export Plug-In . SVG Version: 6.00 Build 0)  -->
<!DOCTYPE svg PUBLIC "-//W3C//DTD SVG 1.1//EN" "http://www.w3.org/Graphics/SVG/1.1/DTD/svg11.dtd">
<svg version="1.1" id="Layer_1" xmlns="http://www.w3.org/2000/svg" xmlns:xlink="http://www.w3.org/1999/xlink" x="0px" y="0px"
	 width="227.279px" height="93.54px" viewBox="0 0 227.279 93.54" enable-background="new 0 0 227.279 93.54" xml:space="preserve">
<rect x="2.64" y="2.04" width="54.3" height="27"/>
<rect x="2.64" y="1.8" width="54.54" height="0.48"/>
<rect x="56.7" y="2.04" width="0.479" height="27.24"/>
<rect x="2.4" y="28.8" width="54.54" height="0.48"/>
<rect x="2.4" y="1.8" width="0.48" height="27.24"/>
<rect x="0.24" y="0.24" fill="#FFFFFF" width="54.359" height="27"/>
<rect x="0.24" width="54.6" height="0.48"/>
<rect x="54.36" y="0.24" width="0.48" height="27.24"/>
<rect x="0" y="27" width="54.6" height="0.48"/>
<rect x="0" width="0.479" height="27.24"/>
<text transform="matrix(0.9504 0 0 1 2.6404 7.3804)" enable-background="new    "><tspan x="0" y="0" font-family="'ProductusOSGiBookc'" font-size="7.98">Topology</tspan><tspan x="0" y="9.576" font-family="'ProductusOSGiBookc'" font-size="7.98">Manager A</tspan></text>
<rect x="172.681" y="2.04" width="54.359" height="27"/>
<rect x="172.681" y="1.8" width="54.601" height="0.48"/>
<rect x="226.8" y="2.04" width="0.479" height="27.24"/>
<rect x="172.44" y="28.8" width="54.601" height="0.48"/>
<rect x="172.44" y="1.8" width="0.479" height="27.24"/>
<rect x="170.34" y="0.24" fill="#FFFFFF" width="54.301" height="27"/>
<rect x="170.34" width="54.54" height="0.48"/>
<rect x="224.4" y="0.24" width="0.479" height="27.24"/>
<rect x="170.101" y="27" width="54.54" height="0.48"/>
<rect x="170.101" width="0.479" height="27.24"/>
<text transform="matrix(0.9504 0 0 1 172.6809 7.3804)" enable-background="new    "><tspan x="0" y="0" font-family="'ProductusOSGiBookc'" font-size="7.98">Topology</tspan><tspan x="0" y="9.576" font-family="'ProductusOSGiBookc'" font-size="7.98">Manager B</tspan></text>
<rect x="2.64" y="66.299" width="54.3" height="27"/>
<rect x="2.64" y="66.06" width="54.54" height="0.479"/>
<rect x="56.7" y="66.299" width="0.479" height="27.24"/>
<rect x="2.4" y="93.06" width="54.54" height="0.479"/>
<rect x="2.4" y="66.06" width="0.48" height="27.239"/>
<rect x="0.24" y="64.5" fill="#FFFFFF" width="54.359" height="27"/>
<rect x="0.24" y="64.26" width="54.6" height="0.48"/>
<rect x="54.36" y="64.5" width="0.48" height="27.24"/>
<rect x="0" y="91.26" width="54.6" height="0.48"/>
<rect x="0" y="64.26" width="0.479" height="27.24"/>
<text transform="matrix(0.9504 0 0 1 2.6404 71.6401)" enable-background="new    "><tspan x="0" y="0" font-family="'ProductusOSGiBookc'" font-size="7.98">Export</tspan><tspan x="0" y="9.576" font-family="'ProductusOSGiBookc'" font-size="7.98">Registration</tspan></text>
<rect x="172.681" y="65.82" width="54.359" height="27"/>
<rect x="172.681" y="65.581" width="54.601" height="0.479"/>
<rect x="226.8" y="65.82" width="0.479" height="27.239"/>
<rect x="172.44" y="92.581" width="54.601" height="0.479"/>
<rect x="172.44" y="65.581" width="0.479" height="27.239"/>
<rect x="170.34" y="64.021" fill="#FFFFFF" width="54.301" height="27"/>
<rect x="170.34" y="63.78" width="54.54" height="0.479"/>
<rect x="224.4" y="64.021" width="0.479" height="27.239"/>
<rect x="170.101" y="90.78" width="54.54" height="0.479"/>
<rect x="170.101" y="63.78" width="0.479" height="27.24"/>
<text transform="matrix(0.9504 0 0 1 172.6809 71.1606)" enable-background="new    "><tspan x="0" y="0" font-family="'ProductusOSGiBookc'" font-size="7.98">Export</tspan><tspan x="0" y="9.576" font-family="'ProductusOSGiBookc'" font-size="7.98">Registration</tspan></text>
<rect x="28.38" y="28.38" width="0.479" height="35.88"/>
<rect x="56.7" y="78.9" width="43.021" height="0.479"/>
<rect x="127.561" y="78.9" width="43.021" height="0.479"/>
<polyline fill="#FFFFFF" points="92.4,93.299 103.021,64.92 134.88,64.92 124.26,93.299 "/>
<polyline points="92.221,93.241 102.84,64.86 102.9,64.68 135.24,64.68 135.12,65.04 124.5,93.42 124.44,93.54 124.26,93.54 
	124.08,93.241 134.7,64.86 135.12,65.04 134.88,65.161 103.021,65.161 103.021,64.68 103.26,65.04 92.641,93.42 "/>
<polyline points="124.26,93.54 92.101,93.54 92.221,93.241 92.4,93.06 124.26,93.06 "/>
<rect x="198.42" y="28.38" width="0.479" height="35.88"/>
<text transform="matrix(0.9504 0 0 1 8.7756 38.8145)" enable-background="new    "><tspan x="0" y="0" font-family="'ProductusOSGiBookc'" font-size="7.98">export</tspan><tspan x="-6.583" y="9.577" font-family="'ProductusOSGiBookc'" font-size="7.98">service S</tspan></text>
<text transform="matrix(0.9504 0 0 1 203.2795 37.981)" enable-background="new    "><tspan x="0" y="0" font-family="'ProductusOSGiBookc'" font-size="7.98">export</tspan><tspan x="0" y="9.576" font-family="'ProductusOSGiBookc'" font-size="7.98">service S</tspan></text>
<text transform="matrix(0.9504 0 0 1 101.4636 77.2202)" enable-background="new    "><tspan x="0" y="0" font-family="'ProductusOSGiBookc'" font-size="7.98">Endpoint</tspan><tspan x="11.12" y="9.576" font-family="'ProductusOSGiBookc'" font-size="7.98">E</tspan></text>
<rect x="28.38" y="42.54" width="4.2" height="0.48"/>
<rect x="38.7" y="42.54" width="0.239" height="0.48"/>
<rect x="38.94" y="42.54" width="7.801" height="0.48"/>
<rect x="52.86" y="42.54" width="0.24" height="0.48"/>
<rect x="53.1" y="42.54" width="7.86" height="0.48"/>
<rect x="67.08" y="42.54" width="0.239" height="0.48"/>
<rect x="67.32" y="42.54" width="7.801" height="0.48"/>
<rect x="81.24" y="42.54" width="0.239" height="0.48"/>
<rect x="81.48" y="42.54" width="7.859" height="0.48"/>
<rect x="95.4" y="42.54" width="0.24" height="0.48"/>
<rect x="95.641" y="42.54" width="7.859" height="0.48"/>
<rect x="109.62" y="42.54" width="0.239" height="0.48"/>
<rect x="109.86" y="42.54" width="7.801" height="0.48"/>
<rect x="123.78" y="42.54" width="0.24" height="0.48"/>
<rect x="124.021" y="42.54" width="7.859" height="0.48"/>
<rect x="137.94" y="42.54" width="0.24" height="0.48"/>
<rect x="138.181" y="42.54" width="7.859" height="0.48"/>
<rect x="152.16" y="42.54" width="0.239" height="0.48"/>
<rect x="152.4" y="42.54" width="7.801" height="0.48"/>
<rect x="166.32" y="42.54" width="0.24" height="0.48"/>
<rect x="166.561" y="42.54" width="7.859" height="0.48"/>
<rect x="180.48" y="42.54" width="0.24" height="0.48"/>
<rect x="180.721" y="42.54" width="7.859" height="0.48"/>
<rect x="194.7" y="42.54" width="0.239" height="0.48"/>
<rect x="194.94" y="42.54" width="3.96" height="0.48"/>
<polyline fill="#FFFFFF" points="106.561,49.86 120.721,49.86 113.641,35.7 "/>
<polyline points="106.561,49.62 120.721,49.62 120.96,49.741 120.54,49.98 113.46,35.82 113.46,35.58 113.7,35.16 113.88,35.58 
	121.141,50.1 106.561,50.1 "/>
<polyline points="113.88,35.82 106.8,49.98 106.561,50.1 106.2,50.1 113.46,35.58 "/>
<rect x="113.4" y="35.7" width="0.479" height="0.24"/>
<rect x="113.4" y="7.08" width="0.479" height="28.62"/>
<text transform="matrix(0.9504 0 0 1 104.0403 57.2407)" font-family="'ProductusOSGiBookc'" font-size="7.98">service S</text>
</svg>
