<?xml version="1.0" encoding="utf-8"?>
<!-- Generator: Adobe Illustrator 16.0.1, SVG Export Plug-In . SVG Version: 6.00 Build 0)  -->
<!DOCTYPE svg PUBLIC "-//W3C//DTD SVG 1.1//EN" "http://www.w3.org/Graphics/SVG/1.1/DTD/svg11.dtd">
<svg version="1.1" id="Layer_1" xmlns="http://www.w3.org/2000/svg" xmlns:xlink="http://www.w3.org/1999/xlink" x="0px" y="0px"
	 width="276.84px" height="157.32px" viewBox="0 0 276.84 157.32" enable-background="new 0 0 276.84 157.32" xml:space="preserve">
<rect x="59.28" y="2.04" width="54.3" height="27"/>
<rect x="59.28" y="1.8" width="54.541" height="0.48"/>
<rect x="113.34" y="2.04" width="0.48" height="27.24"/>
<rect x="59.04" y="28.8" width="54.54" height="0.48"/>
<rect x="59.04" y="1.8" width="0.48" height="27.24"/>
<rect x="56.88" y="0.24" fill="#FFFFFF" width="54.36" height="27"/>
<rect x="56.88" y="0" width="54.6" height="0.48"/>
<rect x="111" y="0.24" width="0.479" height="27.24"/>
<rect x="56.64" y="27" width="54.601" height="0.48"/>
<rect x="56.64" y="0" width="0.48" height="27.24"/>
<text transform="matrix(1 0 0 1 59.2798 7.3796)" font-family="'ProductusBook'" font-size="7.98">&lt;repository&gt;</text>
<rect x="2.58" y="44.58" width="54.3" height="27"/>
<rect x="2.58" y="44.34" width="54.54" height="0.48"/>
<rect x="56.64" y="44.58" width="0.48" height="27.24"/>
<rect x="2.34" y="71.34" width="54.54" height="0.48"/>
<rect x="2.34" y="44.34" width="0.48" height="27.24"/>
<rect x="0.24" y="42.78" fill="#FFFFFF" width="54.3" height="27"/>
<rect x="0.24" y="42.54" width="54.54" height="0.479"/>
<rect x="54.3" y="42.78" width="0.48" height="27.239"/>
<rect y="69.54" width="54.54" height="0.479"/>
<rect y="42.54" width="0.48" height="27.24"/>
<text transform="matrix(1 0 0 1 2.5801 49.9197)" font-family="'ProductusBook'" font-size="7.98">&lt;referral&gt;</text>
<rect x="115.979" y="45.06" width="54.3" height="27"/>
<rect x="115.979" y="44.82" width="54.541" height="0.479"/>
<rect x="170.04" y="45.06" width="0.479" height="27.239"/>
<rect x="115.74" y="71.82" width="54.539" height="0.479"/>
<rect x="115.74" y="44.82" width="0.479" height="27.239"/>
<rect x="113.58" y="43.26" fill="#FFFFFF" width="54.359" height="27"/>
<rect x="113.58" y="43.02" width="54.6" height="0.479"/>
<rect x="167.7" y="43.26" width="0.479" height="27.24"/>
<rect x="113.34" y="70.02" width="54.6" height="0.479"/>
<rect x="113.34" y="43.02" width="0.48" height="27.239"/>
<text transform="matrix(1 0 0 1 115.9795 50.3396)" font-family="'ProductusBook'" font-size="7.98">&lt;resource&gt;</text>
<rect x="45.12" y="87.12" width="54.3" height="27"/>
<rect x="45.12" y="86.88" width="54.54" height="0.48"/>
<rect x="99.18" y="87.12" width="0.48" height="27.24"/>
<rect x="44.88" y="113.88" width="54.54" height="0.48"/>
<rect x="44.88" y="86.88" width="0.48" height="27.24"/>
<rect x="42.72" y="85.32" fill="#FFFFFF" width="54.36" height="27"/>
<rect x="42.72" y="85.08" width="54.6" height="0.479"/>
<rect x="96.84" y="85.32" width="0.48" height="27.239"/>
<rect x="42.48" y="112.08" width="54.6" height="0.479"/>
<rect x="42.48" y="85.08" width="0.48" height="27.24"/>
<text transform="matrix(1 0 0 1 45.1196 92.4597)" font-family="'ProductusBook'" font-size="7.98">&lt;requirement&gt;</text>
<rect x="186.84" y="87.54" width="54.301" height="27"/>
<rect x="186.84" y="87.3" width="54.54" height="0.48"/>
<rect x="240.898" y="87.54" width="0.48" height="27.24"/>
<rect x="186.6" y="114.3" width="54.541" height="0.48"/>
<rect x="186.6" y="87.3" width="0.48" height="27.24"/>
<rect x="184.439" y="85.74" fill="#FFFFFF" width="54.359" height="27"/>
<rect x="184.439" y="85.5" width="54.601" height="0.48"/>
<rect x="238.561" y="85.74" width="0.479" height="27.24"/>
<rect x="184.2" y="112.5" width="54.6" height="0.48"/>
<rect x="184.2" y="85.5" width="0.479" height="27.24"/>
<text transform="matrix(1 0 0 1 186.8398 92.8796)" font-family="'ProductusBook'" font-size="7.98">&lt;capability&gt;</text>
<rect x="70.86" y="28.8" width="0.48" height="7.562"/>
<rect x="28.32" y="35.88" width="42.78" height="0.48"/>
<rect x="28.32" y="36.12" width="0.48" height="7.38"/>
<rect x="99.18" y="28.8" width="0.48" height="7.562"/>
<rect x="99.42" y="35.88" width="42.78" height="0.48"/>
<rect x="141.721" y="36.12" width="0.479" height="7.38"/>
<rect x="127.56" y="71.34" width="0.48" height="7.562"/>
<rect x="70.86" y="78.42" width="56.94" height="0.48"/>
<rect x="70.86" y="78.66" width="0.48" height="7.32"/>
<rect x="155.88" y="71.34" width="0.479" height="7.562"/>
<rect x="156.12" y="78.42" width="56.938" height="0.48"/>
<rect x="212.58" y="78.66" width="0.479" height="7.32"/>
<rect x="9.66" y="129.6" width="54.3" height="27"/>
<rect x="9.66" y="129.36" width="54.54" height="0.479"/>
<rect x="63.72" y="129.6" width="0.48" height="27.239"/>
<rect x="9.42" y="156.36" width="54.54" height="0.479"/>
<rect x="9.42" y="129.36" width="0.48" height="27.239"/>
<rect x="7.32" y="127.8" fill="#FFFFFF" width="54.3" height="27"/>
<rect x="7.32" y="127.56" width="54.54" height="0.479"/>
<rect x="61.38" y="127.8" width="0.48" height="27.24"/>
<rect x="7.08" y="154.56" width="54.54" height="0.479"/>
<rect x="7.08" y="127.56" width="0.48" height="27.239"/>
<text transform="matrix(1 0 0 1 9.6597 134.9392)" font-family="'ProductusBook'" font-size="7.98">&lt;attribute&gt;</text>
<rect x="80.52" y="129.6" width="54.36" height="27"/>
<rect x="80.52" y="129.36" width="54.6" height="0.479"/>
<rect x="134.64" y="129.6" width="0.48" height="27.239"/>
<rect x="80.28" y="156.36" width="54.6" height="0.479"/>
<rect x="80.28" y="129.36" width="0.48" height="27.239"/>
<rect x="78.18" y="127.8" fill="#FFFFFF" width="54.3" height="27"/>
<rect x="78.18" y="127.56" width="54.54" height="0.479"/>
<rect x="132.24" y="127.8" width="0.479" height="27.24"/>
<rect x="77.94" y="154.56" width="54.54" height="0.479"/>
<rect x="77.94" y="127.56" width="0.48" height="27.239"/>
<text transform="matrix(1 0 0 1 80.52 134.9392)" font-family="'ProductusBook'" font-size="7.98">&lt;directive&gt;</text>
<rect x="151.38" y="130.08" width="54.36" height="27"/>
<rect x="151.38" y="129.84" width="54.601" height="0.48"/>
<rect x="205.5" y="130.08" width="0.479" height="27.24"/>
<rect x="151.141" y="156.84" width="54.601" height="0.48"/>
<rect x="151.141" y="129.84" width="0.479" height="27.24"/>
<rect x="149.04" y="128.28" fill="#FFFFFF" width="54.3" height="27"/>
<rect x="149.04" y="128.04" width="54.54" height="0.479"/>
<rect x="203.1" y="128.28" width="0.48" height="27.239"/>
<rect x="148.8" y="155.04" width="54.54" height="0.479"/>
<rect x="148.8" y="128.04" width="0.479" height="27.24"/>
<text transform="matrix(1 0 0 1 151.3799 135.4197)" font-family="'ProductusBook'" font-size="7.98">&lt;attribute&gt;</text>
<rect x="222.24" y="130.08" width="54.359" height="27"/>
<rect x="222.24" y="129.84" width="54.6" height="0.48"/>
<rect x="276.359" y="130.08" width="0.479" height="27.24"/>
<rect x="222" y="156.84" width="54.6" height="0.48"/>
<rect x="222" y="129.84" width="0.479" height="27.24"/>
<rect x="219.898" y="128.28" fill="#FFFFFF" width="54.36" height="27"/>
<rect x="219.898" y="128.04" width="54.602" height="0.479"/>
<rect x="274.02" y="128.28" width="0.48" height="27.239"/>
<rect x="219.66" y="155.04" width="54.6" height="0.479"/>
<rect x="219.66" y="128.04" width="0.479" height="27.24"/>
<text transform="matrix(1 0 0 1 222.2402 135.4197)" font-family="'ProductusBook'" font-size="7.98">&lt;directive&gt;</text>
<rect x="56.64" y="113.88" width="0.48" height="7.562"/>
<rect x="35.4" y="120.96" width="21.48" height="0.48"/>
<rect x="35.4" y="121.2" width="0.48" height="7.319"/>
<rect x="198.42" y="113.88" width="0.479" height="7.562"/>
<rect x="177.12" y="120.96" width="21.54" height="0.48"/>
<rect x="177.12" y="121.2" width="0.479" height="7.319"/>
<rect x="85.02" y="113.88" width="0.48" height="7.562"/>
<rect x="85.26" y="120.96" width="21.48" height="0.48"/>
<rect x="106.26" y="121.2" width="0.48" height="7.319"/>
<rect x="226.74" y="113.88" width="0.479" height="7.562"/>
<rect x="226.979" y="120.96" width="21.48" height="0.48"/>
<rect x="247.979" y="121.2" width="0.48" height="7.319"/>
</svg>
