<?xml version="1.0" encoding="utf-8"?>
<!-- Generator: Adobe Illustrator 16.0.0, SVG Export Plug-In . SVG Version: 6.00 Build 0)  -->
<!DOCTYPE svg PUBLIC "-//W3C//DTD SVG 1.1//EN" "http://www.w3.org/Graphics/SVG/1.1/DTD/svg11.dtd">
<svg version="1.1" id="Layer_1" xmlns="http://www.w3.org/2000/svg" xmlns:xlink="http://www.w3.org/1999/xlink" x="0px" y="0px"
	 width="248.285px" height="109.367px" viewBox="0 0 248.285 109.367" style="enable-background:new 0 0 248.285 109.367;"
	 xml:space="preserve">
<rect x="226.8" y="23.867" width="0.479" height="0.24"/>
<rect x="226.8" y="24.107" width="0.479" height="85.26"/>
<text transform="matrix(1 0 0 1 208.6802 6.6475)" style="font-family:'ProductusBook'; font-size:7.98;">Application</text>
<rect x="170.1" y="45.107" width="0.479" height="0.24"/>
<rect x="170.1" y="45.348" width="0.479" height="64.02"/>
<rect x="113.4" y="23.867" width="0.48" height="0.24"/>
<rect x="113.4" y="24.107" width="0.48" height="85.26"/>
<rect x="56.7" y="23.867" width="0.48" height="0.24"/>
<rect x="56.7" y="24.107" width="0.48" height="85.26"/>
<text transform="matrix(1 0 0 1 155.3999 7.3672)" style="font-family:'ProductusBook'; font-size:7.98;">Application</text>
<text transform="matrix(1 0 0 1 99.3594 8.8076)" style="font-family:'ProductusBook'; font-size:7.98;">Application</text>
<text transform="matrix(1 0 0 1 41.999 10.248)"><tspan x="0" y="0" style="font-family:'ProductusBook'; font-size:7.98;">F</tspan><tspan x="3" y="0" style="font-family:'ProductusBook'; font-size:7.98;">r</tspan><tspan x="5.275" y="0" style="font-family:'ProductusBook'; font-size:7.98;">a</tspan><tspan x="8.579" y="0" style="font-family:'ProductusBook'; font-size:7.98;">m</tspan><tspan x="14.332" y="0" style="font-family:'ProductusBook'; font-size:7.98;">e</tspan><tspan x="17.867" y="0" style="font-family:'ProductusBook'; font-size:7.98;">w</tspan><tspan x="22.91" y="0" style="font-family:'ProductusBook'; font-size:7.98;">o</tspan><tspan x="26.693" y="0" style="font-family:'ProductusBook'; font-size:7.98;">r</tspan><tspan x="28.967" y="0" style="font-family:'ProductusBook'; font-size:7.98;">k</tspan></text>
<rect x="51.72" y="30.947" width="4.74" height="0.479"/>
<polyline points="52.14,28.427 51.9,28.848 56.34,31.427 56.58,31.427 57,31.188 56.58,31.007 "/>
<polyline points="56.58,31.427 56.34,31.007 51.9,33.587 52.14,34.007 "/>
<rect y="30.947" width="0.24" height="0.479"/>
<rect x="0.24" y="30.947" width="51.72" height="0.479"/>
<text transform="matrix(1 0 0 1 14.3999 29.3271)"><tspan x="0" y="0" style="font-family:'ProductusBook'; font-size:7.98;">inst</tspan><tspan x="10.438" y="0" style="font-family:'ProductusBook'; font-size:7.98;">a</tspan><tspan x="13.797" y="0" style="font-family:'ProductusBook'; font-size:7.98;">ll</tspan><tspan x="16.925" y="0" style="font-family:'ProductusBook'; font-size:7.98;"> </tspan><tspan x="18.489" y="0" style="font-family:'ProductusBook'; font-size:7.98;">b</tspan><tspan x="22.192" y="0" style="font-family:'ProductusBook'; font-size:7.98;">u</tspan><tspan x="25.911" y="0" style="font-family:'ProductusBook'; font-size:7.98;">ndle</tspan></text>
<rect x="165.12" y="45.107" width="4.74" height="0.479"/>
<polyline points="165.48,42.587 165.24,43.007 169.74,45.587 169.98,45.587 170.4,45.348 169.98,45.167 "/>
<polyline points="169.98,45.587 169.74,45.167 165.24,47.747 165.48,48.167 "/>
<rect x="113.4" y="45.107" width="0.24" height="0.479"/>
<rect x="113.64" y="45.107" width="51.72" height="0.479"/>
<rect x="57.42" y="73.487" width="4.74" height="0.479"/>
<polyline points="61.74,76.427 61.98,76.007 57.54,73.487 57.3,73.487 56.88,73.728 57.3,73.907 "/>
<polyline points="57.3,73.487 57.54,73.907 61.98,71.327 61.74,70.907 "/>
<rect x="170.339" y="73.487" width="0.24" height="0.479"/>
<rect x="61.92" y="73.487" width="108.419" height="0.479"/>
<text transform="matrix(1 0 0 1 99.3599 18.5273)"><tspan x="0" y="0" style="font-family:'ProductusBook'; font-size:7.98;">C</tspan><tspan x="4.206" y="0" style="font-family:'ProductusBook'; font-size:7.98;">o</tspan><tspan x="7.988" y="0" style="font-family:'ProductusBook'; font-size:7.98;">n</tspan><tspan x="11.707" y="0" style="font-family:'ProductusBook'; font-size:7.98;">t</tspan><tspan x="14.053" y="0" style="font-family:'ProductusBook'; font-size:7.98;">a</tspan><tspan x="17.412" y="0" style="font-family:'ProductusBook'; font-size:7.98;">i</tspan><tspan x="18.976" y="0" style="font-family:'ProductusBook'; font-size:7.98;">n</tspan><tspan x="22.639" y="0" style="font-family:'ProductusBook'; font-size:7.98;">e</tspan><tspan x="26.174" y="0" style="font-family:'ProductusBook'; font-size:7.98;">r</tspan></text>
<text transform="matrix(1 0 0 1 155.3999 17.0869)"><tspan x="0" y="0" style="font-family:'ProductusBook'; font-size:7.98;">De</tspan><tspan x="8.427" y="0" style="font-family:'ProductusBook'; font-size:7.98;">s</tspan><tspan x="11.243" y="0" style="font-family:'ProductusBook'; font-size:7.98;">cr</tspan><tspan x="16.614" y="0" style="font-family:'ProductusBook'; font-size:7.98;">i</tspan><tspan x="18.178" y="0" style="font-family:'ProductusBook'; font-size:7.98;">pto</tspan><tspan x="28.058" y="0" style="font-family:'ProductusBook'; font-size:7.98;">r</tspan></text>
<rect x="108.42" y="38.027" width="4.74" height="0.479"/>
<polyline points="108.78,35.507 108.54,35.927 113.04,38.507 113.28,38.507 113.7,38.268 113.28,38.087 "/>
<polyline points="113.28,38.507 113.04,38.087 108.54,40.667 108.78,41.087 "/>
<rect x="56.7" y="38.027" width="0.24" height="0.479"/>
<rect x="56.94" y="38.027" width="51.72" height="0.479"/>
<rect x="55.44" y="22.607" width="3" height="1.5"/>
<rect x="55.44" y="24.107" width="3" height="72.359"/>
<text transform="matrix(1 0 0 1 208.6802 16.3672)"><tspan x="0" y="0" style="font-family:'ProductusBook'; font-size:7.98;">M</tspan><tspan x="5.921" y="0" style="font-family:'ProductusBook'; font-size:7.98;">a</tspan><tspan x="9.225" y="0" style="font-family:'ProductusBook'; font-size:7.98;">n</tspan><tspan x="12.936" y="0" style="font-family:'ProductusBook'; font-size:7.98;">a</tspan><tspan x="16.239" y="0" style="font-family:'ProductusBook'; font-size:7.98;">g</tspan><tspan x="19.543" y="0" style="font-family:'ProductusBook'; font-size:7.98;">er</tspan><tspan x="25.376" y="0" style="font-family:'ProductusBook'; font-size:7.98;"> </tspan><tspan x="26.94" y="0" style="font-family:'ProductusBook'; font-size:7.98;">I</tspan><tspan x="28.56" y="0" style="font-family:'ProductusBook'; font-size:7.98;">m</tspan><tspan x="34.313" y="0" style="font-family:'ProductusBook'; font-size:7.98;">p</tspan><tspan x="38.04" y="0" style="font-family:'ProductusBook'; font-size:7.98;">l</tspan></text>
<text transform="matrix(1 0 0 1 71.2197 35.0879)"><tspan x="0" y="0" style="font-family:'ProductusBook'; font-size:7.98;">bu</tspan><tspan x="7.445" y="0" style="font-family:'ProductusBook'; font-size:7.98;">n</tspan><tspan x="11.108" y="0" style="font-family:'ProductusBook'; font-size:7.98;">d</tspan><tspan x="14.827" y="0" style="font-family:'ProductusBook'; font-size:7.98;">l</tspan><tspan x="16.391" y="0" style="font-family:'ProductusBook'; font-size:7.98;">e</tspan><tspan x="19.878" y="0" style="font-family:'ProductusBook'; font-size:7.98;"> </tspan><tspan x="21.498" y="0" style="font-family:'ProductusBook'; font-size:7.98;">e</tspan><tspan x="25.033" y="0" style="font-family:'ProductusBook'; font-size:7.98;">v</tspan><tspan x="28.097" y="0" style="font-family:'ProductusBook'; font-size:7.98;">e</tspan><tspan x="31.632" y="0" style="font-family:'ProductusBook'; font-size:7.98;">n</tspan><tspan x="35.295" y="0" style="font-family:'ProductusBook'; font-size:7.98;">t</tspan></text>
<text transform="matrix(1 0 0 1 134.8794 42.8271)"><tspan x="0" y="0" style="font-family:'ProductusBook'; font-size:7.98;">c</tspan><tspan x="3.064" y="0" style="font-family:'ProductusBook'; font-size:7.98;">r</tspan><tspan x="5.339" y="0" style="font-family:'ProductusBook'; font-size:7.98;">e</tspan><tspan x="8.817" y="0" style="font-family:'ProductusBook'; font-size:7.98;">a</tspan><tspan x="12.178" y="0" style="font-family:'ProductusBook'; font-size:7.98;">t</tspan><tspan x="14.531" y="0" style="font-family:'ProductusBook'; font-size:7.98;">e</tspan></text>
<text transform="matrix(1 0 0 1 134.8794 69.3477)"><tspan x="0" y="0" style="font-family:'ProductusBook'; font-size:7.98;">registe</tspan><tspan x="19.566" y="0" style="font-family:'ProductusBook'; font-size:7.98;">r</tspan></text>
<rect x="221.82" y="87.647" width="4.68" height="0.479"/>
<polyline points="222.18,85.127 221.94,85.547 226.379,88.127 226.62,88.127 227.04,87.887 226.62,87.707 "/>
<polyline points="226.62,88.127 226.379,87.707 221.94,90.287 222.18,90.707 "/>
<rect x="56.7" y="87.647" width="0.24" height="0.479"/>
<rect x="56.94" y="87.647" width="165.12" height="0.479"/>
<text transform="matrix(1 0 0 1 71.0996 86.2676)"><tspan x="0" y="0" style="font-family:'ProductusBook'; font-size:7.98;">s</tspan><tspan x="2.841" y="0" style="font-family:'ProductusBook'; font-size:7.98;">e</tspan><tspan x="6.328" y="0" style="font-family:'ProductusBook'; font-size:7.98;">r</tspan><tspan x="8.61" y="0" style="font-family:'ProductusBook'; font-size:7.98;">v</tspan><tspan x="11.85" y="0" style="font-family:'ProductusBook'; font-size:7.98;">i</tspan><tspan x="13.414" y="0" style="font-family:'ProductusBook'; font-size:7.98;">c</tspan><tspan x="16.415" y="0" style="font-family:'ProductusBook'; font-size:7.98;">e</tspan><tspan x="19.934" y="0" style="font-family:'ProductusBook'; font-size:7.98;"> </tspan><tspan x="21.498" y="0" style="font-family:'ProductusBook'; font-size:7.98;">e</tspan><tspan x="25.017" y="0" style="font-family:'ProductusBook'; font-size:7.98;">v</tspan><tspan x="28.137" y="0" style="font-family:'ProductusBook'; font-size:7.98;">e</tspan><tspan x="31.625" y="0" style="font-family:'ProductusBook'; font-size:7.98;">n</tspan><tspan x="35.343" y="0" style="font-family:'ProductusBook'; font-size:7.98;">t</tspan></text>
<rect x="112.14" y="29.688" width="3" height="1.5"/>
<rect x="112.14" y="31.188" width="3" height="65.279"/>
<rect x="168.839" y="43.848" width="3" height="1.5"/>
<rect x="168.839" y="45.348" width="3" height="51.119"/>
</svg>
