<?xml version="1.0" encoding="utf-8"?>
<!-- Generator: Adobe Illustrator 16.0.0, SVG Export Plug-In . SVG Version: 6.00 Build 0)  -->
<!DOCTYPE svg PUBLIC "-//W3C//DTD SVG 1.1//EN" "http://www.w3.org/Graphics/SVG/1.1/DTD/svg11.dtd">
<svg version="1.1" id="Layer_1" xmlns="http://www.w3.org/2000/svg" xmlns:xlink="http://www.w3.org/1999/xlink" x="0px" y="0px"
	 width="349.767px" height="144.828px" viewBox="0 0 349.767 144.828" style="enable-background:new 0 0 349.767 144.828;"
	 xml:space="preserve">
<rect x="220.681" y="23.868" width="0.479" height="0.24"/>
<rect x="220.681" y="24.107" width="0.479" height="120.72"/>
<text transform="matrix(1 0 0 1 203.5205 6.6475)"><tspan x="0" y="0" style="font-family:'ProductusBook'; font-size:7.98;">A</tspan><tspan x="4.021" y="0" style="font-family:'ProductusBook'; font-size:7.98;">pplic</tspan><tspan x="17.628" y="0" style="font-family:'ProductusBook'; font-size:7.98;">a</tspan><tspan x="20.987" y="0" style="font-family:'ProductusBook'; font-size:7.98;">t</tspan><tspan x="23.333" y="0" style="font-family:'ProductusBook'; font-size:7.98;">i</tspan><tspan x="24.953" y="0" style="font-family:'ProductusBook'; font-size:7.98;">on</tspan></text>
<rect x="163.98" y="23.868" width="0.48" height="0.24"/>
<rect x="163.98" y="24.107" width="0.48" height="120.72"/>
<rect x="50.58" y="23.868" width="0.48" height="0.24"/>
<rect x="50.58" y="24.107" width="0.48" height="120.72"/>
<text transform="matrix(1 0 0 1 150.2402 7.3672)"><tspan x="0" y="0" style="font-family:'ProductusBook'; font-size:7.98;">A</tspan><tspan x="4.022" y="0" style="font-family:'ProductusBook'; font-size:7.98;">p</tspan><tspan x="7.741" y="0" style="font-family:'ProductusBook'; font-size:7.98;">p</tspan><tspan x="11.419" y="0" style="font-family:'ProductusBook'; font-size:7.98;">l</tspan><tspan x="13.039" y="0" style="font-family:'ProductusBook'; font-size:7.98;">ic</tspan><tspan x="17.659" y="0" style="font-family:'ProductusBook'; font-size:7.98;">a</tspan><tspan x="21.02" y="0" style="font-family:'ProductusBook'; font-size:7.98;">t</tspan><tspan x="23.365" y="0" style="font-family:'ProductusBook'; font-size:7.98;">i</tspan><tspan x="24.913" y="0" style="font-family:'ProductusBook'; font-size:7.98;">o</tspan><tspan x="28.752" y="0" style="font-family:'ProductusBook'; font-size:7.98;">n</tspan></text>
<text transform="matrix(1 0 0 1 36.8403 10.2476)"><tspan x="0" y="0" style="font-family:'ProductusBook'; font-size:7.98;">Fr</tspan><tspan x="5.314" y="0" style="font-family:'ProductusBook'; font-size:7.98;">a</tspan><tspan x="8.674" y="0" style="font-family:'ProductusBook'; font-size:7.98;">m</tspan><tspan x="14.428" y="0" style="font-family:'ProductusBook'; font-size:7.98;">e</tspan><tspan x="17.899" y="0" style="font-family:'ProductusBook'; font-size:7.98;">w</tspan><tspan x="22.942" y="0" style="font-family:'ProductusBook'; font-size:7.98;">o</tspan><tspan x="26.781" y="0" style="font-family:'ProductusBook'; font-size:7.98;">r</tspan><tspan x="29.007" y="0" style="font-family:'ProductusBook'; font-size:7.98;">k</tspan></text>
<rect x="45.66" y="30.947" width="4.68" height="0.48"/>
<polyline points="46.021,28.428 45.78,28.848 50.22,31.428 50.46,31.428 50.88,31.188 50.46,31.007 "/>
<polyline points="50.46,31.428 50.22,31.007 45.78,33.587 46.021,34.007 "/>
<rect x="8.1" y="30.947" width="0.24" height="0.48"/>
<rect x="8.34" y="30.947" width="37.56" height="0.48"/>
<text transform="matrix(1 0 0 1 4.882812e-04 29.3877)"><tspan x="0" y="0" style="font-family:'ProductusBook'; font-size:7.98;">g</tspan><tspan x="3.304" y="0" style="font-family:'ProductusBook'; font-size:7.98;">e</tspan><tspan x="6.791" y="0" style="font-family:'ProductusBook'; font-size:7.98;">t</tspan><tspan x="9.185" y="0" style="font-family:'ProductusBook'; font-size:7.98;"> d</tspan><tspan x="14.523" y="0" style="font-family:'ProductusBook'; font-size:7.98;">e</tspan><tspan x="18.011" y="0" style="font-family:'ProductusBook'; font-size:7.98;">s</tspan><tspan x="20.828" y="0" style="font-family:'ProductusBook'; font-size:7.98;">c</tspan><tspan x="23.948" y="0" style="font-family:'ProductusBook'; font-size:7.98;">r</tspan><tspan x="26.222" y="0" style="font-family:'ProductusBook'; font-size:7.98;">i</tspan><tspan x="27.786" y="0" style="font-family:'ProductusBook'; font-size:7.98;">p</tspan><tspan x="31.449" y="0" style="font-family:'ProductusBook'; font-size:7.98;">t</tspan><tspan x="33.843" y="0" style="font-family:'ProductusBook'; font-size:7.98;">or</tspan></text>
<text transform="matrix(1 0 0 1 150.2407 17.1475)"><tspan x="0" y="0" style="font-family:'ProductusBook'; font-size:7.98;">D</tspan><tspan x="4.916" y="0" style="font-family:'ProductusBook'; font-size:7.98;">e</tspan><tspan x="8.403" y="0" style="font-family:'ProductusBook'; font-size:7.98;">scrip</tspan><tspan x="21.873" y="0" style="font-family:'ProductusBook'; font-size:7.98;">t</tspan><tspan x="24.219" y="0" style="font-family:'ProductusBook'; font-size:7.98;">or</tspan><tspan x="30.284" y="0" style="font-family:'ProductusBook'; font-size:7.98;"> </tspan><tspan x="31.896" y="0" style="font-family:'ProductusBook'; font-size:7.98;">I</tspan><tspan x="33.459" y="0" style="font-family:'ProductusBook'; font-size:7.98;">m</tspan><tspan x="39.213" y="0" style="font-family:'ProductusBook'; font-size:7.98;">pl</tspan><tspan x="44.488" y="0" style="font-family:'ProductusBook'; font-size:7.98;">.</tspan></text>
<rect x="49.32" y="22.607" width="3" height="1.5"/>
<rect x="49.32" y="24.107" width="3" height="15.66"/>
<text transform="matrix(1 0 0 1 203.5205 16.4277)"><tspan x="0" y="0" style="font-family:'ProductusBook'; font-size:7.98;">M</tspan><tspan x="5.89" y="0" style="font-family:'ProductusBook'; font-size:7.98;">a</tspan><tspan x="9.249" y="0" style="font-family:'ProductusBook'; font-size:7.98;">na</tspan><tspan x="16.239" y="0" style="font-family:'ProductusBook'; font-size:7.98;">g</tspan><tspan x="19.606" y="0" style="font-family:'ProductusBook'; font-size:7.98;">e</tspan><tspan x="23.094" y="0" style="font-family:'ProductusBook'; font-size:7.98;">r</tspan><tspan x="25.36" y="0" style="font-family:'ProductusBook'; font-size:7.98;"> </tspan><tspan x="26.972" y="0" style="font-family:'ProductusBook'; font-size:7.98;">Impl</tspan></text>
<text transform="matrix(1 0 0 1 231.1807 64.3076)"><tspan x="0" y="0" style="font-family:'ProductusBook'; font-size:7.98;">cr</tspan><tspan x="5.387" y="0" style="font-family:'ProductusBook'; font-size:7.98;">e</tspan><tspan x="8.874" y="0" style="font-family:'ProductusBook'; font-size:7.98;">a</tspan><tspan x="12.233" y="0" style="font-family:'ProductusBook'; font-size:7.98;">t</tspan><tspan x="14.579" y="0" style="font-family:'ProductusBook'; font-size:7.98;">e</tspan></text>
<rect x="272.4" y="66.407" width="4.74" height="0.48"/>
<polyline points="272.761,63.888 272.521,64.308 277.021,66.888 277.261,66.888 277.681,66.647 277.261,66.467 "/>
<polyline points="277.261,66.888 277.021,66.467 272.521,69.047 272.761,69.467 "/>
<rect x="163.98" y="66.407" width="0.24" height="0.48"/>
<rect x="164.22" y="66.407" width="108.42" height="0.48"/>
<text transform="matrix(1 0 0 1 64.9805 128.8076)"><tspan x="0" y="0" style="font-family:'ProductusBook'; font-size:7.98;">ser</tspan><tspan x="8.562" y="0" style="font-family:'ProductusBook'; font-size:7.98;">v</tspan><tspan x="11.802" y="0" style="font-family:'ProductusBook'; font-size:7.98;">i</tspan><tspan x="13.358" y="0" style="font-family:'ProductusBook'; font-size:7.98;">c</tspan><tspan x="16.359" y="0" style="font-family:'ProductusBook'; font-size:7.98;">e</tspan><tspan x="19.894" y="0" style="font-family:'ProductusBook'; font-size:7.98;"> </tspan><tspan x="21.514" y="0" style="font-family:'ProductusBook'; font-size:7.98;">e</tspan><tspan x="25.009" y="0" style="font-family:'ProductusBook'; font-size:7.98;">v</tspan><tspan x="28.129" y="0" style="font-family:'ProductusBook'; font-size:7.98;">e</tspan><tspan x="31.625" y="0" style="font-family:'ProductusBook'; font-size:7.98;">n</tspan><tspan x="35.343" y="0" style="font-family:'ProductusBook'; font-size:7.98;">t</tspan></text>
<rect x="162.72" y="43.848" width="3" height="1.5"/>
<rect x="162.72" y="45.348" width="3" height="93.66"/>
<rect x="159" y="45.107" width="4.74" height="0.48"/>
<polyline points="159.42,42.647 159.18,43.067 163.62,45.587 163.86,45.587 164.28,45.348 163.86,45.167 "/>
<polyline points="163.86,45.587 163.62,45.167 159.18,47.748 159.42,48.167 "/>
<rect x="8.1" y="45.107" width="0.24" height="0.48"/>
<rect x="8.34" y="45.107" width="150.9" height="0.48"/>
<text transform="matrix(1 0 0 1 23.7603 43.5474)"><tspan x="0" y="0" style="font-family:'ProductusBook'; font-size:7.98;">l</tspan><tspan x="1.548" y="0" style="font-family:'ProductusBook'; font-size:7.98;">a</tspan><tspan x="4.908" y="0" style="font-family:'ProductusBook'; font-size:7.98;">u</tspan><tspan x="8.57" y="0" style="font-family:'ProductusBook'; font-size:7.98;">n</tspan><tspan x="12.289" y="0" style="font-family:'ProductusBook'; font-size:7.98;">c</tspan><tspan x="15.361" y="0" style="font-family:'ProductusBook'; font-size:7.98;">h</tspan></text>
<rect x="277.38" y="66.407" width="0.48" height="0.24"/>
<rect x="277.38" y="66.647" width="0.48" height="78.18"/>
<text transform="matrix(1 0 0 1 259.3799 6.8276)"><tspan x="0" y="0" style="font-family:'ProductusBook'; font-size:7.98;">A</tspan><tspan x="4.021" y="0" style="font-family:'ProductusBook'; font-size:7.98;">pplic</tspan><tspan x="17.628" y="0" style="font-family:'ProductusBook'; font-size:7.98;">a</tspan><tspan x="20.987" y="0" style="font-family:'ProductusBook'; font-size:7.98;">t</tspan><tspan x="23.333" y="0" style="font-family:'ProductusBook'; font-size:7.98;">i</tspan><tspan x="24.897" y="0" style="font-family:'ProductusBook'; font-size:7.98;">o</tspan><tspan x="28.735" y="0" style="font-family:'ProductusBook'; font-size:7.98;">n</tspan></text>
<text transform="matrix(1 0 0 1 259.3799 16.5469)"><tspan x="0" y="0" style="font-family:'ProductusBook'; font-size:7.98;">Han</tspan><tspan x="11.866" y="0" style="font-family:'ProductusBook'; font-size:7.98;">d</tspan><tspan x="15.529" y="0" style="font-family:'ProductusBook'; font-size:7.98;">le</tspan><tspan x="20.612" y="0" style="font-family:'ProductusBook'; font-size:7.98;"> </tspan><tspan x="22.232" y="0" style="font-family:'ProductusBook'; font-size:7.98;">Impl</tspan><tspan x="34.864" y="0" style="font-family:'ProductusBook'; font-size:7.98;">.</tspan></text>
<text transform="matrix(1 0 0 1 0 36.2275)"><tspan x="0" y="0" style="font-family:'ProductusBook'; font-size:7.98;">servi</tspan><tspan x="13.366" y="0" style="font-family:'ProductusBook'; font-size:7.98;">c</tspan><tspan x="16.367" y="0" style="font-family:'ProductusBook'; font-size:7.98;">e</tspan></text>
<rect x="276.66" y="65.147" width="3" height="1.5"/>
<rect x="276.66" y="66.647" width="3" height="15.66"/>
<rect x="51.3" y="116.027" width="4.74" height="0.48"/>
<polyline points="55.68,118.967 55.92,118.547 51.42,116.027 51.18,116.027 50.76,116.268 51.18,116.447 "/>
<polyline points="51.18,116.027 51.42,116.447 55.92,113.868 55.68,113.447 "/>
<rect x="277.62" y="116.027" width="0.24" height="0.48"/>
<rect x="55.8" y="116.027" width="221.82" height="0.48"/>
<text transform="matrix(1 0 0 1 228 113.8677)"><tspan x="0" y="0" style="font-family:'ProductusBook'; font-size:7.98;">r</tspan><tspan x="2.234" y="0" style="font-family:'ProductusBook'; font-size:7.98;">e</tspan><tspan x="5.77" y="0" style="font-family:'ProductusBook'; font-size:7.98;">gis</tspan><tspan x="13.63" y="0" style="font-family:'ProductusBook'; font-size:7.98;">t</tspan><tspan x="16.023" y="0" style="font-family:'ProductusBook'; font-size:7.98;">e</tspan><tspan x="19.495" y="0" style="font-family:'ProductusBook'; font-size:7.98;">r</tspan></text>
<rect x="49.32" y="107.627" width="3" height="1.5"/>
<rect x="49.32" y="109.127" width="3" height="22.8"/>
<rect x="215.7" y="123.107" width="4.74" height="0.48"/>
<polyline points="216.12,120.587 215.88,121.007 220.32,123.587 220.561,123.587 220.86,123.407 220.561,123.167 "/>
<polyline points="220.561,123.587 220.32,123.167 215.88,125.688 216.12,126.107 "/>
<rect x="50.58" y="123.107" width="0.24" height="0.48"/>
<rect x="50.82" y="123.107" width="165.12" height="0.48"/>
<rect x="334.08" y="73.487" width="0.48" height="0.24"/>
<rect x="334.08" y="73.728" width="0.48" height="71.1"/>
<text transform="matrix(1 0 0 1 317.4004 6.9473)"><tspan x="0" y="0" style="font-family:'ProductusBook'; font-size:7.98;">A</tspan><tspan x="4.021" y="0" style="font-family:'ProductusBook'; font-size:7.98;">p</tspan><tspan x="7.74" y="0" style="font-family:'ProductusBook'; font-size:7.98;">plication</tspan></text>
<text transform="matrix(1 0 0 1 317.4004 16.667)"><tspan x="0" y="0" style="font-family:'ProductusBook'; font-size:7.98;">In</tspan><tspan x="5.234" y="0" style="font-family:'ProductusBook'; font-size:7.98;">s</tspan><tspan x="8.107" y="0" style="font-family:'ProductusBook'; font-size:7.98;">t</tspan><tspan x="10.453" y="0" style="font-family:'ProductusBook'; font-size:7.98;">a</tspan><tspan x="13.813" y="0" style="font-family:'ProductusBook'; font-size:7.98;">n</tspan><tspan x="17.476" y="0" style="font-family:'ProductusBook'; font-size:7.98;">c</tspan><tspan x="20.477" y="0" style="font-family:'ProductusBook'; font-size:7.98;">e</tspan></text>
<rect x="329.101" y="73.487" width="4.68" height="0.48"/>
<polyline points="329.46,70.967 329.221,71.388 333.66,73.967 333.9,73.967 334.32,73.728 333.9,73.547 "/>
<polyline points="333.9,73.967 333.66,73.547 329.221,76.127 329.46,76.547 "/>
<rect x="277.38" y="73.487" width="0.24" height="0.48"/>
<rect x="277.62" y="73.487" width="51.72" height="0.48"/>
<rect x="332.82" y="72.228" width="3" height="1.5"/>
<rect x="332.82" y="73.728" width="3" height="15.66"/>
<rect x="329.101" y="101.808" width="4.68" height="0.48"/>
<polyline points="329.46,99.348 329.221,99.768 333.66,102.288 333.9,102.288 334.32,102.047 333.9,101.868 "/>
<polyline points="333.9,102.288 333.66,101.868 329.221,104.447 329.46,104.868 "/>
<rect x="277.38" y="101.808" width="0.24" height="0.48"/>
<rect x="277.62" y="101.808" width="51.72" height="0.48"/>
<rect x="332.82" y="100.547" width="3" height="1.5"/>
<rect x="332.82" y="102.047" width="3" height="15.72"/>
<text transform="matrix(1 0 0 1 284.1602 99.7075)"><tspan x="0" y="0" style="font-family:'ProductusBook'; font-size:7.98;">.</tspan><tspan x="1.604" y="0" style="font-family:'ProductusBook'; font-size:7.98;">.</tspan><tspan x="3.168" y="0" style="font-family:'ProductusBook'; font-size:7.98;"> </tspan><tspan x="4.78" y="0" style="font-family:'ProductusBook'; font-size:7.98;">star</tspan><tspan x="15.585" y="0" style="font-family:'ProductusBook'; font-size:7.98;">t</tspan></text>
<text transform="matrix(1 0 0 1 286.1406 71.8677)"><tspan x="0" y="0" style="font-family:'ProductusBook'; font-size:7.98;">n</tspan><tspan x="3.719" y="0" style="font-family:'ProductusBook'; font-size:7.98;">e</tspan><tspan x="7.206" y="0" style="font-family:'ProductusBook'; font-size:7.98;">w</tspan></text>
<rect x="163.98" y="52.248" width="7.56" height="0.48"/>
<rect x="171.061" y="52.487" width="0.479" height="7.32"/>
<rect x="163.98" y="59.328" width="7.32" height="0.48"/>
<text transform="matrix(1 0 0 1 174.1201 58.4873)"><tspan x="0" y="0" style="font-family:'ProductusBook'; font-size:7.98;">l</tspan><tspan x="1.556" y="0" style="font-family:'ProductusBook'; font-size:7.98;">a</tspan><tspan x="4.916" y="0" style="font-family:'ProductusBook'; font-size:7.98;">u</tspan><tspan x="8.586" y="0" style="font-family:'ProductusBook'; font-size:7.98;">n</tspan><tspan x="12.305" y="0" style="font-family:'ProductusBook'; font-size:7.98;">c</tspan><tspan x="15.385" y="0" style="font-family:'ProductusBook'; font-size:7.98;">h</tspan><tspan x="19.104" y="0" style="font-family:'ProductusBook'; font-size:7.98;">Sp</tspan><tspan x="26.485" y="0" style="font-family:'ProductusBook'; font-size:7.98;">e</tspan><tspan x="30.021" y="0" style="font-family:'ProductusBook'; font-size:7.98;">c</tspan><tspan x="33.085" y="0" style="font-family:'ProductusBook'; font-size:7.98;">i</tspan><tspan x="34.641" y="0" style="font-family:'ProductusBook'; font-size:7.98;">f</tspan><tspan x="36.563" y="0" style="font-family:'ProductusBook'; font-size:7.98;">i</tspan><tspan x="38.12" y="0" style="font-family:'ProductusBook'; font-size:7.98;">c</tspan></text>
<rect x="164.7" y="59.328" width="4.74" height="0.48"/>
<polyline points="169.021,62.268 169.261,61.848 164.82,59.328 164.58,59.328 164.16,59.567 164.58,59.748 "/>
<polyline points="164.58,59.328 164.82,59.748 169.261,57.167 169.021,56.748 "/>
<rect x="171.301" y="59.328" width="0.239" height="0.48"/>
<rect x="169.2" y="59.328" width="2.101" height="0.48"/>
</svg>
