<?xml version="1.0" encoding="utf-8"?>
<!-- Generator: Adobe Illustrator 16.0.0, SVG Export Plug-In . SVG Version: 6.00 Build 0)  -->
<!DOCTYPE svg PUBLIC "-//W3C//DTD SVG 1.1//EN" "http://www.w3.org/Graphics/SVG/1.1/DTD/svg11.dtd">
<svg version="1.1" id="Layer_1" xmlns="http://www.w3.org/2000/svg" xmlns:xlink="http://www.w3.org/1999/xlink" x="0px" y="0px"
	 width="251.04px" height="205.98px" viewBox="0 0 251.04 205.98" style="enable-background:new 0 0 251.04 205.98;"
	 xml:space="preserve">
<rect x="65.28" y="49.8" style="fill:#E6E6E6;" width="70.859" height="42.54"/>
<rect x="74.7" y="129.54" width="54.36" height="26.58"/>
<rect x="74.7" y="129.3" width="54.6" height="0.48"/>
<rect x="128.82" y="129.54" width="0.479" height="26.82"/>
<rect x="74.46" y="155.88" width="54.601" height="0.48"/>
<rect x="74.46" y="129.3" width="0.48" height="26.82"/>
<rect x="72.36" y="127.8" style="fill:#FFFFFF;" width="54.3" height="26.58"/>
<rect x="72.36" y="127.56" width="54.541" height="0.48"/>
<rect x="126.42" y="127.8" width="0.48" height="26.82"/>
<rect x="72.12" y="154.14" width="54.54" height="0.48"/>
<rect x="72.12" y="127.56" width="0.48" height="26.82"/>
<text transform="matrix(1 0 0 1.0522 74.7002 134.8799)"><tspan x="0" y="0" style="font-family:'ProductusOSGiBookc'; font-size:7.5841;">Nati</tspan><tspan x="11.232" y="0" style="font-family:'ProductusOSGiBookc'; font-size:7.5841;">v</tspan><tspan x="14.053" y="0" style="font-family:'ProductusOSGiBookc'; font-size:7.5841;">e</tspan><tspan x="17.352" y="0" style="font-family:'ProductusOSGiBookc'; font-size:7.5841;"> </tspan><tspan x="18.255" y="0" style="font-family:'ProductusOSGiBookc'; font-size:7.5841;">App</tspan><tspan x="29.055" y="0" style="font-family:'ProductusOSGiBookc'; font-size:7.5841;">l</tspan><tspan x="30.548" y="0" style="font-family:'ProductusOSGiBookc'; font-size:7.5841;">icati</tspan><tspan x="41.704" y="0" style="font-family:'ProductusOSGiBookc'; font-size:7.5841;">o</tspan><tspan x="45.299" y="0" style="font-family:'ProductusOSGiBookc'; font-size:7.5841;">n </tspan></text>
<text transform="matrix(1 0 0 1.0522 74.7002 143.4004)"><tspan x="0" y="0" style="font-family:'ProductusOSGiBookc'; font-size:7.5841;">C</tspan><tspan x="3.966" y="0" style="font-family:'ProductusOSGiBookc'; font-size:7.5841;">o</tspan><tspan x="7.508" y="0" style="font-family:'ProductusOSGiBookc'; font-size:7.5841;">ntainer</tspan><tspan x="26.635" y="0" style="font-family:'ProductusOSGiBookc'; font-size:7.5841;"> </tspan><tspan x="28.137" y="0" style="font-family:'ProductusOSGiBookc'; font-size:7.5841;">I</tspan><tspan x="29.607" y="0" style="font-family:'ProductusOSGiBookc'; font-size:7.5841;">m</tspan><tspan x="35.008" y="0" style="font-family:'ProductusOSGiBookc'; font-size:7.5841;">pl</tspan></text>
<rect x="18" y="1.98" width="54.36" height="26.58"/>
<rect x="18" y="1.74" width="54.6" height="0.48"/>
<rect x="72.12" y="1.98" width="0.48" height="26.82"/>
<rect x="17.76" y="28.32" width="54.6" height="0.48"/>
<rect x="17.76" y="1.74" width="0.48" height="26.82"/>
<rect x="15.66" y="0.24" style="fill:#FFFFFF;" width="54.3" height="26.58"/>
<rect x="15.66" width="54.54" height="0.48"/>
<rect x="69.72" y="0.24" width="0.48" height="26.82"/>
<rect x="15.42" y="26.58" width="54.54" height="0.48"/>
<rect x="15.42" width="0.48" height="26.82"/>
<text transform="matrix(1 0 0 1.0522 18 7.3198)"><tspan x="0" y="0" style="font-family:'ProductusOSGiBookc'; font-size:7.5841;">&lt;</tspan><tspan x="2.776" y="0" style="font-family:'ProductusOSGiBookc'; font-size:7.5841;">&lt;</tspan><tspan x="5.589" y="0" style="font-family:'ProductusOSGiBookc'; font-size:7.5841;">servi</tspan><tspan x="18.072" y="0" style="font-family:'ProductusOSGiBookc'; font-size:7.5841;">c</tspan><tspan x="21.007" y="0" style="font-family:'ProductusOSGiBookc'; font-size:7.5841;">e&gt;</tspan><tspan x="27.075" y="0" style="font-family:'ProductusOSGiBookc'; font-size:7.5841;">&gt;</tspan></text>
<text transform="matrix(1 0 0 1 18 15.8398)"><tspan x="0" y="0" style="font-family:'ProductusSemibold'; font-size:7.98;">A</tspan><tspan x="4.979" y="0" style="font-family:'ProductusSemibold'; font-size:7.98;">pplication</tspan><tspan x="39.412" y="0" style="font-family:'ProductusSemibold'; font-size:7.98;"> </tspan></text>
<text transform="matrix(1 0 0 1 18 24.3003)"><tspan x="0" y="0" style="font-family:'ProductusSemibold'; font-size:7.98;">De</tspan><tspan x="9.52" y="0" style="font-family:'ProductusSemibold'; font-size:7.98;">s</tspan><tspan x="12.815" y="0" style="font-family:'ProductusSemibold'; font-size:7.98;">c</tspan><tspan x="16.47" y="0" style="font-family:'ProductusSemibold'; font-size:7.98;">ri</tspan><tspan x="21.641" y="0" style="font-family:'ProductusSemibold'; font-size:7.98;">p</tspan><tspan x="25.895" y="0" style="font-family:'ProductusSemibold'; font-size:7.98;">t</tspan><tspan x="29.07" y="0" style="font-family:'ProductusSemibold'; font-size:7.98;">o</tspan><tspan x="33.403" y="0" style="font-family:'ProductusSemibold'; font-size:7.98;">r</tspan></text>
<rect x="74.7" y="58.68" width="54.36" height="26.34"/>
<rect x="74.7" y="58.44" width="54.6" height="0.48"/>
<rect x="128.82" y="58.68" width="0.479" height="26.58"/>
<rect x="74.46" y="84.78" width="54.601" height="0.48"/>
<rect x="74.46" y="58.44" width="0.48" height="26.58"/>
<rect x="72.36" y="56.94" style="fill:#FFFFFF;" width="54.3" height="26.34"/>
<rect x="72.36" y="56.7" width="54.541" height="0.48"/>
<rect x="126.42" y="56.94" width="0.48" height="26.58"/>
<rect x="72.12" y="83.04" width="54.54" height="0.48"/>
<rect x="72.12" y="56.7" width="0.48" height="26.58"/>
<text transform="matrix(1 0 0 1.0522 74.7002 64.02)"><tspan x="0" y="0" style="font-family:'ProductusOSGiBookc'; font-size:7.5841;">App</tspan><tspan x="10.8" y="0" style="font-family:'ProductusOSGiBookc'; font-size:7.5841;">l</tspan><tspan x="12.241" y="0" style="font-family:'ProductusOSGiBookc'; font-size:7.5841;">.</tspan><tspan x="13.735" y="0" style="font-family:'ProductusOSGiBookc'; font-size:7.5841;"> </tspan><tspan x="15.236" y="0" style="font-family:'ProductusOSGiBookc'; font-size:7.5841;">C</tspan><tspan x="19.203" y="0" style="font-family:'ProductusOSGiBookc'; font-size:7.5841;">o</tspan><tspan x="22.798" y="0" style="font-family:'ProductusOSGiBookc'; font-size:7.5841;">n</tspan><tspan x="26.233" y="0" style="font-family:'ProductusOSGiBookc'; font-size:7.5841;">ta</tspan><tspan x="31.564" y="0" style="font-family:'ProductusOSGiBookc'; font-size:7.5841;">i</tspan><tspan x="33.059" y="0" style="font-family:'ProductusOSGiBookc'; font-size:7.5841;">n</tspan><tspan x="36.494" y="0" style="font-family:'ProductusOSGiBookc'; font-size:7.5841;">e</tspan><tspan x="39.793" y="0" style="font-family:'ProductusOSGiBookc'; font-size:7.5841;">r</tspan><tspan x="41.871" y="0" style="font-family:'ProductusOSGiBookc'; font-size:7.5841;"> </tspan><tspan x="43.426" y="0" style="font-family:'ProductusOSGiBookc'; font-size:7.5841;"> </tspan></text>
<text transform="matrix(1 0 0 1.0522 74.7002 72.4805)"><tspan x="0" y="0" style="font-family:'ProductusOSGiBookc'; font-size:7.5841;">I</tspan><tspan x="1.456" y="0" style="font-family:'ProductusOSGiBookc'; font-size:7.5841;">m</tspan><tspan x="6.909" y="0" style="font-family:'ProductusOSGiBookc'; font-size:7.5841;">p</tspan><tspan x="10.375" y="0" style="font-family:'ProductusOSGiBookc'; font-size:7.5841;">l</tspan></text>
<polyline style="fill-rule:evenodd;clip-rule:evenodd;" points="72.36,14.4 58.2,28.56 72.36,28.56 "/>
<polyline points="72.54,14.58 58.38,28.74 58.2,28.8 57.6,28.8 72.18,14.22 "/>
<rect x="58.2" y="28.32" width="14.4" height="0.48"/>
<polyline points="72.12,28.56 72.12,14.4 72.18,14.22 72.6,13.8 72.6,28.56 "/>
<rect x="100.44" y="127.8" width="0.479" height="0.24"/>
<rect x="100.44" y="85.02" width="0.479" height="42.78"/>
<rect y="97.92" width="1.5" height="3"/>
<rect x="1.5" y="97.92" width="3.96" height="3"/>
<rect x="11.34" y="97.92" width="1.5" height="3"/>
<rect x="12.84" y="97.92" width="6.42" height="3"/>
<rect x="25.08" y="97.92" width="1.5" height="3"/>
<rect x="26.58" y="97.92" width="6.42" height="3"/>
<rect x="38.88" y="97.92" width="1.5" height="3"/>
<rect x="40.38" y="97.92" width="6.42" height="3"/>
<rect x="52.68" y="97.92" width="1.5" height="3"/>
<rect x="54.18" y="97.92" width="6.42" height="3"/>
<rect x="66.42" y="97.92" width="7.92" height="3"/>
<rect x="80.22" y="97.92" width="7.92" height="3"/>
<rect x="93.96" y="97.92" width="7.92" height="3"/>
<rect x="107.76" y="97.92" width="7.92" height="3"/>
<rect x="121.561" y="97.92" width="7.92" height="3"/>
<rect x="135.3" y="97.92" width="7.92" height="3"/>
<rect x="149.1" y="97.92" width="7.921" height="3"/>
<rect x="162.84" y="97.92" width="7.92" height="3"/>
<rect x="176.64" y="97.92" width="7.921" height="3"/>
<rect x="190.44" y="97.92" width="7.92" height="3"/>
<rect x="204.18" y="97.92" width="7.92" height="3"/>
<rect x="217.98" y="97.92" width="7.92" height="3"/>
<rect x="231.72" y="97.92" width="7.92" height="3"/>
<rect x="245.521" y="97.92" width="5.52" height="3"/>
<rect x="131.4" y="1.98" width="54.359" height="26.58"/>
<rect x="131.4" y="1.74" width="54.6" height="0.48"/>
<rect x="185.521" y="1.98" width="0.479" height="26.82"/>
<rect x="131.16" y="28.32" width="54.6" height="0.48"/>
<rect x="131.16" y="1.74" width="0.479" height="26.82"/>
<rect x="129.061" y="0.24" style="fill:#FFFFFF;" width="54.3" height="26.58"/>
<rect x="129.061" width="54.539" height="0.48"/>
<rect x="183.12" y="0.24" width="0.479" height="26.82"/>
<rect x="128.82" y="26.58" width="54.54" height="0.48"/>
<rect x="128.82" width="0.479" height="26.82"/>
<text transform="matrix(1 0 0 1.0522 131.4004 7.3198)"><tspan x="0" y="0" style="font-family:'ProductusOSGiBookc'; font-size:7.5841;">&lt;&lt;</tspan><tspan x="5.536" y="0" style="font-family:'ProductusOSGiBookc'; font-size:7.5841;">s</tspan><tspan x="8.229" y="0" style="font-family:'ProductusOSGiBookc'; font-size:7.5841;">ervi</tspan><tspan x="18.027" y="0" style="font-family:'ProductusOSGiBookc'; font-size:7.5841;">c</tspan><tspan x="20.962" y="0" style="font-family:'ProductusOSGiBookc'; font-size:7.5841;">e</tspan><tspan x="24.261" y="0" style="font-family:'ProductusOSGiBookc'; font-size:7.5841;">&gt;</tspan><tspan x="27.029" y="0" style="font-family:'ProductusOSGiBookc'; font-size:7.5841;">&gt;</tspan></text>
<text transform="matrix(1 0 0 1 131.4004 15.8398)"><tspan x="0" y="0" style="font-family:'ProductusSemibold'; font-size:7.98;">Applica</tspan><tspan x="25.495" y="0" style="font-family:'ProductusSemibold'; font-size:7.98;">t</tspan><tspan x="28.672" y="0" style="font-family:'ProductusSemibold'; font-size:7.98;">ion</tspan><tspan x="39.412" y="0" style="font-family:'ProductusSemibold'; font-size:7.98;"> </tspan></text>
<text transform="matrix(1 0 0 1 131.4004 24.3003)"><tspan x="0" y="0" style="font-family:'ProductusSemibold'; font-size:7.98;">Hand</tspan><tspan x="17.915" y="0" style="font-family:'ProductusSemibold'; font-size:7.98;">l</tspan><tspan x="20.133" y="0" style="font-family:'ProductusSemibold'; font-size:7.98;">e</tspan></text>
<polyline style="fill-rule:evenodd;clip-rule:evenodd;" points="185.76,14.4 171.54,28.56 185.76,28.56 "/>
<polyline points="185.94,14.58 171.72,28.74 171.54,28.8 170.94,28.8 171.36,28.38 185.58,14.22 "/>
<rect x="171.54" y="28.32" width="14.46" height="0.48"/>
<polyline points="185.521,28.56 185.521,14.4 185.58,14.22 186,13.8 186,28.56 "/>
<polyline points="43.98,40.08 40.68,40.08 40.86,39.42 43.98,28.5 47.1,39.42 47.28,40.08 46.62,40.08 46.14,39.72 43.5,30.48 
	44.46,30.18 44.46,30.48 41.82,39.72 40.86,39.42 41.34,39.06 43.98,39.06 "/>
<rect x="43.98" y="39.06" width="2.64" height="1.02"/>
<polyline style="fill-rule:evenodd;clip-rule:evenodd;" points="43.98,39.6 41.34,39.6 43.98,30.36 46.62,39.6 "/>
<rect x="86.28" y="42.48" width="0.48" height="14.7"/>
<rect x="43.74" y="42.48" width="42.78" height="0.48"/>
<rect x="43.74" y="39.84" width="0.48" height="2.88"/>
<polyline points="157.38,40.08 154.08,40.08 154.26,39.42 157.38,28.5 160.5,39.42 160.68,40.08 160.021,40.08 159.54,39.72 
	156.9,30.48 157.86,30.18 157.86,30.48 155.22,39.72 154.26,39.42 154.74,39.06 157.38,39.06 "/>
<rect x="157.38" y="39.06" width="2.641" height="1.02"/>
<polyline style="fill-rule:evenodd;clip-rule:evenodd;" points="157.38,39.6 154.74,39.6 157.38,30.36 160.021,39.6 "/>
<rect x="114.6" y="42.48" width="0.48" height="14.7"/>
<rect x="114.84" y="42.48" width="42.78" height="0.48"/>
<rect x="157.14" y="39.84" width="0.48" height="2.88"/>
<text transform="matrix(1 0 0 1.0522 102.7803 111.48)"><tspan x="0" y="0" style="font-family:'ProductusOSGiBookc'; font-size:7.5841;">p</tspan><tspan x="3.488" y="0" style="font-family:'ProductusOSGiBookc'; font-size:7.5841;">r</tspan><tspan x="5.415" y="0" style="font-family:'ProductusOSGiBookc'; font-size:7.5841;">o</tspan><tspan x="8.782" y="0" style="font-family:'ProductusOSGiBookc'; font-size:7.5841;">x</tspan><tspan x="11.596" y="0" style="font-family:'ProductusOSGiBookc'; font-size:7.5841;">y</tspan><tspan x="14.6" y="0" style="font-family:'ProductusOSGiBookc'; font-size:7.5841;"> </tspan><tspan x="16.101" y="0" style="font-family:'ProductusOSGiBookc'; font-size:7.5841;">c</tspan><tspan x="19.021" y="0" style="font-family:'ProductusOSGiBookc'; font-size:7.5841;">o</tspan><tspan x="22.562" y="0" style="font-family:'ProductusOSGiBookc'; font-size:7.5841;">m</tspan><tspan x="28.008" y="0" style="font-family:'ProductusOSGiBookc'; font-size:7.5841;">m</tspan><tspan x="33.415" y="0" style="font-family:'ProductusOSGiBookc'; font-size:7.5841;">un</tspan><tspan x="40.362" y="0" style="font-family:'ProductusOSGiBookc'; font-size:7.5841;">i</tspan><tspan x="41.803" y="0" style="font-family:'ProductusOSGiBookc'; font-size:7.5841;">cat</tspan><tspan x="50.069" y="0" style="font-family:'ProductusOSGiBookc'; font-size:7.5841;">i</tspan><tspan x="51.51" y="0" style="font-family:'ProductusOSGiBookc'; font-size:7.5841;">o</tspan><tspan x="55.052" y="0" style="font-family:'ProductusOSGiBookc'; font-size:7.5841;">n</tspan></text>
<rect x="18" y="179.16" width="54.36" height="26.58"/>
<rect x="18" y="178.92" width="54.6" height="0.48"/>
<rect x="72.12" y="179.16" width="0.48" height="26.82"/>
<rect x="17.76" y="205.5" width="54.6" height="0.48"/>
<rect x="17.76" y="178.92" width="0.48" height="26.82"/>
<rect x="15.66" y="177.42" style="fill:#FFFFFF;" width="54.3" height="26.52"/>
<rect x="15.66" y="177.18" width="54.54" height="0.48"/>
<rect x="69.72" y="177.42" width="0.48" height="26.76"/>
<rect x="15.42" y="203.7" width="54.54" height="0.48"/>
<rect x="15.42" y="177.18" width="0.48" height="26.76"/>
<text transform="matrix(1 0 0 1.0522 18 184.5)"><tspan x="0" y="0" style="font-family:'ProductusOSGiBookc'; font-size:7.5841;">Nati</tspan><tspan x="11.232" y="0" style="font-family:'ProductusOSGiBookc'; font-size:7.5841;">v</tspan><tspan x="14.053" y="0" style="font-family:'ProductusOSGiBookc'; font-size:7.5841;">e</tspan><tspan x="17.352" y="0" style="font-family:'ProductusOSGiBookc'; font-size:7.5841;"> </tspan><tspan x="18.907" y="0" style="font-family:'ProductusOSGiBookc'; font-size:7.5841;">E</tspan><tspan x="22.123" y="0" style="font-family:'ProductusOSGiBookc'; font-size:7.5841;">x</tspan><tspan x="24.648" y="0" style="font-family:'ProductusOSGiBookc'; font-size:7.5841;">ec</tspan><tspan x="30.859" y="0" style="font-family:'ProductusOSGiBookc'; font-size:7.5841;">u</tspan><tspan x="34.279" y="0" style="font-family:'ProductusOSGiBookc'; font-size:7.5841;">tab</tspan><tspan x="43.1" y="0" style="font-family:'ProductusOSGiBookc'; font-size:7.5841;">l</tspan><tspan x="44.593" y="0" style="font-family:'ProductusOSGiBookc'; font-size:7.5841;">e</tspan></text>
<rect x="131.4" y="179.16" width="54.359" height="26.58"/>
<rect x="131.4" y="178.92" width="54.6" height="0.48"/>
<rect x="185.521" y="179.16" width="0.479" height="26.82"/>
<rect x="131.16" y="205.5" width="54.6" height="0.48"/>
<rect x="131.16" y="178.92" width="0.479" height="26.82"/>
<rect x="129.061" y="177.42" style="fill:#FFFFFF;" width="54.3" height="26.52"/>
<rect x="129.061" y="177.18" width="54.539" height="0.48"/>
<rect x="183.12" y="177.42" width="0.479" height="26.76"/>
<rect x="128.82" y="203.7" width="54.54" height="0.48"/>
<rect x="128.82" y="177.18" width="0.479" height="26.76"/>
<text transform="matrix(1 0 0 1.0522 131.4004 184.5)"><tspan x="0" y="0" style="font-family:'ProductusOSGiBookc'; font-size:7.5841;">Appli</tspan><tspan x="13.674" y="0" style="font-family:'ProductusOSGiBookc'; font-size:7.5841;">c</tspan><tspan x="16.608" y="0" style="font-family:'ProductusOSGiBookc'; font-size:7.5841;">ati</tspan><tspan x="23.374" y="0" style="font-family:'ProductusOSGiBookc'; font-size:7.5841;">o</tspan><tspan x="26.969" y="0" style="font-family:'ProductusOSGiBookc'; font-size:7.5841;">n</tspan><tspan x="30.427" y="0" style="font-family:'ProductusOSGiBookc'; font-size:7.5841;"> </tspan></text>
<text transform="matrix(1 0 0 1.0522 131.4004 193.02)"><tspan x="0" y="0" style="font-family:'ProductusOSGiBookc'; font-size:7.5841;">I</tspan><tspan x="1.44" y="0" style="font-family:'ProductusOSGiBookc'; font-size:7.5841;">n</tspan><tspan x="4.914" y="0" style="font-family:'ProductusOSGiBookc'; font-size:7.5841;">s</tspan><tspan x="7.562" y="0" style="font-family:'ProductusOSGiBookc'; font-size:7.5841;">t</tspan><tspan x="9.775" y="0" style="font-family:'ProductusOSGiBookc'; font-size:7.5841;">ance</tspan><tspan x="22.6" y="0" style="font-family:'ProductusOSGiBookc'; font-size:7.5841;"> P</tspan><tspan x="27.166" y="0" style="font-family:'ProductusOSGiBookc'; font-size:7.5841;">r</tspan><tspan x="29.092" y="0" style="font-family:'ProductusOSGiBookc'; font-size:7.5841;">oce</tspan><tspan x="38.898" y="0" style="font-family:'ProductusOSGiBookc'; font-size:7.5841;">s</tspan><tspan x="41.545" y="0" style="font-family:'ProductusOSGiBookc'; font-size:7.5841;">s</tspan></text>
<rect x="171.3" y="173.4" width="0.48" height="4.26"/>
<rect x="171.3" y="159.9" width="0.48" height="7.74"/>
<rect x="171.3" y="146.4" width="0.48" height="7.68"/>
<rect x="171.3" y="132.9" width="0.48" height="7.68"/>
<rect x="171.3" y="119.4" width="0.48" height="7.68"/>
<rect x="171.3" y="105.9" width="0.48" height="7.68"/>
<rect x="171.3" y="92.4" width="0.48" height="7.68"/>
<rect x="171.3" y="78.84" width="0.48" height="7.74"/>
<rect x="171.3" y="65.34" width="0.48" height="7.74"/>
<rect x="171.3" y="51.84" width="0.48" height="7.74"/>
<rect x="171.3" y="38.34" width="0.48" height="7.74"/>
<rect x="171.3" y="28.32" width="0.48" height="4.26"/>
<rect x="29.58" y="173.4" width="0.48" height="4.26"/>
<rect x="29.58" y="159.9" width="0.48" height="7.74"/>
<rect x="29.58" y="146.4" width="0.48" height="7.68"/>
<rect x="29.58" y="132.9" width="0.48" height="7.68"/>
<rect x="29.58" y="119.4" width="0.48" height="7.68"/>
<rect x="29.58" y="105.9" width="0.48" height="7.68"/>
<rect x="29.58" y="92.4" width="0.48" height="7.68"/>
<rect x="29.58" y="78.84" width="0.48" height="7.74"/>
<rect x="29.58" y="65.34" width="0.48" height="7.74"/>
<rect x="29.58" y="59.34" width="0.48" height="0.24"/>
<rect x="29.58" y="51.84" width="0.48" height="7.5"/>
<rect x="29.58" y="45.84" width="0.48" height="0.24"/>
<rect x="29.58" y="38.34" width="0.48" height="7.5"/>
<rect x="29.58" y="32.34" width="0.48" height="0.24"/>
<rect x="29.58" y="28.32" width="0.48" height="4.02"/>
<rect x="72.12" y="191.34" width="0.24" height="0.48"/>
<rect x="72.36" y="191.34" width="56.94" height="0.48"/>
<text transform="matrix(1 0 0 1.0522 74.46 189.2402)" style="font-family:'ProductusOSGiBookc'; font-size:7.5841;">1</text>
<text transform="matrix(1 0 0 1.0522 123.4795 189.2998)" style="font-family:'ProductusOSGiBookc'; font-size:7.5841;">*</text>
<rect x="43.74" y="141.72" width="28.86" height="0.48"/>
<rect x="43.74" y="141.96" width="0.48" height="35.7"/>
<rect x="128.82" y="141.72" width="28.8" height="0.48"/>
<rect x="157.14" y="141.96" width="0.48" height="35.7"/>
<text transform="matrix(1 0 0 1.0522 198 85.5601)"><tspan x="0" y="0" style="font-family:'ProductusOSGiBookc'; font-size:7.5841;">OSGi</tspan><tspan x="14.478" y="0" style="font-family:'ProductusOSGiBookc'; font-size:7.5841;"> </tspan><tspan x="15.979" y="0" style="font-family:'ProductusOSGiBookc'; font-size:7.5841;">E</tspan><tspan x="19.195" y="0" style="font-family:'ProductusOSGiBookc'; font-size:7.5841;">n</tspan><tspan x="22.562" y="0" style="font-family:'ProductusOSGiBookc'; font-size:7.5841;">vi</tspan><tspan x="27.014" y="0" style="font-family:'ProductusOSGiBookc'; font-size:7.5841;">r</tspan><tspan x="28.94" y="0" style="font-family:'ProductusOSGiBookc'; font-size:7.5841;">o</tspan><tspan x="32.535" y="0" style="font-family:'ProductusOSGiBookc'; font-size:7.5841;">n</tspan><tspan x="35.955" y="0" style="font-family:'ProductusOSGiBookc'; font-size:7.5841;">m</tspan><tspan x="41.408" y="0" style="font-family:'ProductusOSGiBookc'; font-size:7.5841;">ent</tspan></text>
<text transform="matrix(1 0 0 1.0522 198 118.3804)"><tspan x="0" y="0" style="font-family:'ProductusOSGiBookc'; font-size:7.5841;">E</tspan><tspan x="3.2" y="0" style="font-family:'ProductusOSGiBookc'; font-size:7.5841;">xte</tspan><tspan x="11.527" y="0" style="font-family:'ProductusOSGiBookc'; font-size:7.5841;">r</tspan><tspan x="13.621" y="0" style="font-family:'ProductusOSGiBookc'; font-size:7.5841;">n</tspan><tspan x="17.094" y="0" style="font-family:'ProductusOSGiBookc'; font-size:7.5841;">a</tspan><tspan x="20.211" y="0" style="font-family:'ProductusOSGiBookc'; font-size:7.5841;">l</tspan><tspan x="21.652" y="0" style="font-family:'ProductusOSGiBookc'; font-size:7.5841;"> </tspan><tspan x="23.207" y="0" style="font-family:'ProductusOSGiBookc'; font-size:7.5841;">P</tspan><tspan x="26.271" y="0" style="font-family:'ProductusOSGiBookc'; font-size:7.5841;">r</tspan><tspan x="28.197" y="0" style="font-family:'ProductusOSGiBookc'; font-size:7.5841;">o</tspan><tspan x="31.792" y="0" style="font-family:'ProductusOSGiBookc'; font-size:7.5841;">c</tspan><tspan x="34.674" y="0" style="font-family:'ProductusOSGiBookc'; font-size:7.5841;">e</tspan><tspan x="37.958" y="0" style="font-family:'ProductusOSGiBookc'; font-size:7.5841;">s</tspan><tspan x="40.657" y="0" style="font-family:'ProductusOSGiBookc'; font-size:7.5841;">s</tspan></text>
</svg>
