<?xml version="1.0" encoding="utf-8"?>
<!-- Generator: Adobe Illustrator 16.0.1, SVG Export Plug-In . SVG Version: 6.00 Build 0)  -->
<!DOCTYPE svg PUBLIC "-//W3C//DTD SVG 1.1//EN" "http://www.w3.org/Graphics/SVG/1.1/DTD/svg11.dtd">
<svg version="1.1" id="Layer_1" xmlns="http://www.w3.org/2000/svg" xmlns:xlink="http://www.w3.org/1999/xlink" x="0px" y="0px"
	 width="251.04px" height="205.98px" viewBox="0 0 251.04 205.98" enable-background="new 0 0 251.04 205.98" xml:space="preserve">
<rect x="65.28" y="49.8" fill="#E6E6E6" width="70.859" height="42.54"/>
<rect x="74.7" y="129.54" width="54.36" height="26.58"/>
<rect x="74.7" y="129.3" width="54.599" height="0.48"/>
<rect x="128.82" y="129.54" width="0.479" height="26.82"/>
<rect x="74.46" y="155.88" width="54.601" height="0.48"/>
<rect x="74.46" y="129.3" width="0.48" height="26.82"/>
<rect x="72.36" y="127.8" fill="#FFFFFF" width="54.301" height="26.58"/>
<rect x="72.36" y="127.56" width="54.541" height="0.479"/>
<rect x="126.42" y="127.8" width="0.479" height="26.82"/>
<rect x="72.12" y="154.14" width="54.541" height="0.479"/>
<rect x="72.12" y="127.56" width="0.48" height="26.819"/>
<text transform="matrix(0.9504 0 0 1 74.7002 134.8796)" enable-background="new    "><tspan x="0" y="0" font-family="'ProductusOSGiBookc'" font-size="7.98">Native Application</tspan><tspan x="0" y="9.576" font-family="'ProductusOSGiBookc'" font-size="7.98">Container Impl</tspan></text>
<rect x="18" y="1.98" width="54.36" height="26.58"/>
<rect x="18" y="1.74" width="54.6" height="0.479"/>
<rect x="72.12" y="1.98" width="0.48" height="26.819"/>
<rect x="17.76" y="28.32" width="54.6" height="0.479"/>
<rect x="17.76" y="1.74" width="0.48" height="26.82"/>
<rect x="15.66" y="0.24" fill="#FFFFFF" width="54.3" height="26.58"/>
<rect x="15.66" y="0" width="54.54" height="0.48"/>
<rect x="69.72" y="0.24" width="0.48" height="26.82"/>
<rect x="15.42" y="26.58" width="54.54" height="0.48"/>
<rect x="15.42" y="0" width="0.48" height="26.82"/>
<text transform="matrix(0.9504 0 0 1 18 7.3201)" font-family="'ProductusOSGiBookc'" font-size="7.98">&lt;&lt;service&gt;&gt;</text>
<text transform="matrix(1 0 0 1 18 14.8396)" enable-background="new    "><tspan x="0" y="0" font-family="'ProductusSemibold'" font-size="7.98">Application</tspan><tspan x="0" y="9.576" font-family="'ProductusSemibold'" font-size="7.98">Descriptor</tspan></text>
<rect x="74.7" y="58.68" width="54.36" height="26.34"/>
<rect x="74.7" y="58.44" width="54.599" height="0.479"/>
<rect x="128.82" y="58.68" width="0.479" height="26.579"/>
<rect x="74.46" y="84.78" width="54.601" height="0.479"/>
<rect x="74.46" y="58.44" width="0.48" height="26.58"/>
<rect x="72.36" y="56.94" fill="#FFFFFF" width="54.301" height="26.34"/>
<rect x="72.36" y="56.7" width="54.541" height="0.48"/>
<rect x="126.42" y="56.94" width="0.479" height="26.58"/>
<rect x="72.12" y="83.04" width="54.541" height="0.48"/>
<rect x="72.12" y="56.7" width="0.48" height="26.58"/>
<text transform="matrix(0.9504 0 0 1 74.7002 64.0193)" enable-background="new    "><tspan x="0" y="0" font-family="'ProductusOSGiBookc'" font-size="7.98">Appl. Container</tspan><tspan x="0" y="9.576" font-family="'ProductusOSGiBookc'" font-size="7.98">Impl</tspan></text>
<polyline points="72.36,14.4 58.2,28.56 72.36,28.56 "/>
<polyline points="72.54,14.58 58.38,28.74 58.2,28.8 57.6,28.8 72.18,14.219 "/>
<rect x="58.2" y="28.32" width="14.4" height="0.479"/>
<polyline points="72.12,28.56 72.12,14.4 72.18,14.219 72.6,13.8 72.6,28.56 "/>
<rect x="100.44" y="127.8" width="0.479" height="0.24"/>
<rect x="100.44" y="85.02" width="0.479" height="42.779"/>
<rect y="97.92" width="1.5" height="3"/>
<rect x="1.5" y="97.92" width="3.96" height="3"/>
<rect x="11.34" y="97.92" width="1.5" height="3"/>
<rect x="12.84" y="97.92" width="6.42" height="3"/>
<rect x="25.08" y="97.92" width="1.5" height="3"/>
<rect x="26.58" y="97.92" width="6.42" height="3"/>
<rect x="38.88" y="97.92" width="1.5" height="3"/>
<rect x="40.38" y="97.92" width="6.42" height="3"/>
<rect x="52.68" y="97.92" width="1.5" height="3"/>
<rect x="54.18" y="97.92" width="6.42" height="3"/>
<rect x="66.42" y="97.92" width="7.92" height="3"/>
<rect x="80.22" y="97.92" width="7.92" height="3"/>
<rect x="93.96" y="97.92" width="7.92" height="3"/>
<rect x="107.76" y="97.92" width="7.92" height="3"/>
<rect x="121.561" y="97.92" width="7.92" height="3"/>
<rect x="135.299" y="97.92" width="7.921" height="3"/>
<rect x="149.1" y="97.92" width="7.921" height="3"/>
<rect x="162.84" y="97.92" width="7.92" height="3"/>
<rect x="176.64" y="97.92" width="7.921" height="3"/>
<rect x="190.44" y="97.92" width="7.92" height="3"/>
<rect x="204.18" y="97.92" width="7.92" height="3"/>
<rect x="217.98" y="97.92" width="7.92" height="3"/>
<rect x="231.72" y="97.92" width="7.92" height="3"/>
<rect x="245.521" y="97.92" width="5.521" height="3"/>
<rect x="131.4" y="1.98" width="54.358" height="26.58"/>
<rect x="131.4" y="1.74" width="54.601" height="0.479"/>
<rect x="185.521" y="1.98" width="0.479" height="26.819"/>
<rect x="131.161" y="28.32" width="54.6" height="0.479"/>
<rect x="131.161" y="1.74" width="0.479" height="26.82"/>
<rect x="129.061" y="0.24" fill="#FFFFFF" width="54.3" height="26.58"/>
<rect x="129.061" y="0" width="54.539" height="0.48"/>
<rect x="183.12" y="0.24" width="0.479" height="26.82"/>
<rect x="128.82" y="26.58" width="54.54" height="0.48"/>
<rect x="128.82" y="0" width="0.479" height="26.82"/>
<text transform="matrix(0.9504 0 0 1 131.4009 7.3201)" font-family="'ProductusOSGiBookc'" font-size="7.98">&lt;&lt;service&gt;&gt;</text>
<text transform="matrix(1 0 0 1 131.4009 14.8396)" enable-background="new    "><tspan x="0" y="0" font-family="'ProductusSemibold'" font-size="7.98">Application</tspan><tspan x="0" y="9.576" font-family="'ProductusSemibold'" font-size="7.98">Handle</tspan></text>
<polyline points="185.76,14.4 171.54,28.56 185.76,28.56 "/>
<polyline points="185.94,14.58 171.72,28.74 171.54,28.8 170.94,28.8 171.36,28.38 185.581,14.219 "/>
<rect x="171.54" y="28.32" width="14.461" height="0.479"/>
<polyline points="185.521,28.56 185.521,14.4 185.581,14.219 186,13.8 186,28.56 "/>
<polyline points="43.98,40.08 40.68,40.08 40.86,39.42 43.98,28.5 47.1,39.42 47.28,40.08 46.62,40.08 46.14,39.719 43.5,30.48 
	44.46,30.18 44.46,30.48 41.82,39.719 40.86,39.42 41.34,39.06 43.98,39.06 "/>
<rect x="43.98" y="39.06" width="2.64" height="1.02"/>
<polyline points="43.98,39.6 41.34,39.6 43.98,30.36 46.62,39.6 "/>
<rect x="86.28" y="42.48" width="0.48" height="14.7"/>
<rect x="43.74" y="42.48" width="42.78" height="0.479"/>
<rect x="43.74" y="39.84" width="0.48" height="2.88"/>
<polyline points="157.379,40.08 154.081,40.08 154.26,39.42 157.379,28.5 160.5,39.42 160.68,40.08 160.021,40.08 159.54,39.719 
	156.9,30.48 157.86,30.18 157.86,30.48 155.22,39.719 154.26,39.42 154.741,39.06 157.379,39.06 "/>
<rect x="157.379" y="39.06" width="2.642" height="1.02"/>
<polyline points="157.379,39.6 154.741,39.6 157.379,30.36 160.021,39.6 "/>
<rect x="114.6" y="42.48" width="0.48" height="14.7"/>
<rect x="114.84" y="42.48" width="42.78" height="0.479"/>
<rect x="157.14" y="39.84" width="0.479" height="2.88"/>
<text transform="matrix(0.9504 0 0 1 102.7803 111.4802)" font-family="'ProductusOSGiBookc'" font-size="7.98">proxy communication</text>
<rect x="18" y="179.16" width="54.36" height="26.58"/>
<rect x="18" y="178.92" width="54.6" height="0.48"/>
<rect x="72.12" y="179.16" width="0.48" height="26.82"/>
<rect x="17.76" y="205.5" width="54.6" height="0.48"/>
<rect x="17.76" y="178.92" width="0.48" height="26.82"/>
<rect x="15.66" y="177.42" fill="#FFFFFF" width="54.3" height="26.521"/>
<rect x="15.66" y="177.18" width="54.54" height="0.479"/>
<rect x="69.72" y="177.42" width="0.48" height="26.761"/>
<rect x="15.42" y="203.7" width="54.54" height="0.48"/>
<rect x="15.42" y="177.18" width="0.48" height="26.76"/>
<text transform="matrix(0.9504 0 0 1 18 184.4998)" font-family="'ProductusOSGiBookc'" font-size="7.98">Native Executable</text>
<rect x="131.4" y="179.16" width="54.358" height="26.58"/>
<rect x="131.4" y="178.92" width="54.601" height="0.48"/>
<rect x="185.521" y="179.16" width="0.479" height="26.82"/>
<rect x="131.161" y="205.5" width="54.6" height="0.48"/>
<rect x="131.161" y="178.92" width="0.479" height="26.82"/>
<rect x="129.061" y="177.42" fill="#FFFFFF" width="54.3" height="26.521"/>
<rect x="129.061" y="177.18" width="54.539" height="0.479"/>
<rect x="183.12" y="177.42" width="0.479" height="26.761"/>
<rect x="128.82" y="203.7" width="54.54" height="0.48"/>
<rect x="128.82" y="177.18" width="0.479" height="26.76"/>
<text transform="matrix(0.9504 0 0 1 131.4009 184.4998)" enable-background="new    "><tspan x="0" y="0" font-family="'ProductusOSGiBookc'" font-size="7.98">Application</tspan><tspan x="0" y="9.576" font-family="'ProductusOSGiBookc'" font-size="7.98">Instance Process</tspan></text>
<rect x="171.299" y="173.4" width="0.48" height="4.26"/>
<rect x="171.299" y="159.9" width="0.48" height="7.74"/>
<rect x="171.299" y="146.4" width="0.48" height="7.68"/>
<rect x="171.299" y="132.9" width="0.48" height="7.68"/>
<rect x="171.299" y="119.4" width="0.48" height="7.68"/>
<rect x="171.299" y="105.9" width="0.48" height="7.68"/>
<rect x="171.299" y="92.4" width="0.48" height="7.68"/>
<rect x="171.299" y="78.84" width="0.48" height="7.74"/>
<rect x="171.299" y="65.34" width="0.48" height="7.74"/>
<rect x="171.299" y="51.84" width="0.48" height="7.74"/>
<rect x="171.299" y="38.34" width="0.48" height="7.74"/>
<rect x="171.299" y="28.32" width="0.48" height="4.26"/>
<rect x="29.58" y="173.4" width="0.48" height="4.26"/>
<rect x="29.58" y="159.9" width="0.48" height="7.74"/>
<rect x="29.58" y="146.4" width="0.48" height="7.68"/>
<rect x="29.58" y="132.9" width="0.48" height="7.68"/>
<rect x="29.58" y="119.4" width="0.48" height="7.68"/>
<rect x="29.58" y="105.9" width="0.48" height="7.68"/>
<rect x="29.58" y="92.4" width="0.48" height="7.68"/>
<rect x="29.58" y="78.84" width="0.48" height="7.74"/>
<rect x="29.58" y="65.34" width="0.48" height="7.74"/>
<rect x="29.58" y="59.34" width="0.48" height="0.24"/>
<rect x="29.58" y="51.84" width="0.48" height="7.5"/>
<rect x="29.58" y="45.84" width="0.48" height="0.24"/>
<rect x="29.58" y="38.34" width="0.48" height="7.5"/>
<rect x="29.58" y="32.34" width="0.48" height="0.24"/>
<rect x="29.58" y="28.32" width="0.48" height="4.02"/>
<rect x="72.12" y="191.34" width="0.24" height="0.48"/>
<rect x="72.36" y="191.34" width="56.939" height="0.48"/>
<text transform="matrix(0.9504 0 0 1 74.46 189.24)" font-family="'ProductusOSGiBookc'" font-size="7.98">1</text>
<text transform="matrix(0.9504 0 0 1 123.4795 189.2996)" font-family="'ProductusOSGiBookc'" font-size="7.98">*</text>
<rect x="43.74" y="141.719" width="28.86" height="0.48"/>
<rect x="43.74" y="141.96" width="0.48" height="35.7"/>
<rect x="128.82" y="141.719" width="28.8" height="0.48"/>
<rect x="157.14" y="141.96" width="0.479" height="35.7"/>
<text transform="matrix(0.9504 0 0 1 198.0005 85.5603)" font-family="'ProductusOSGiBookc'" font-size="7.98">OSGi Environment</text>
<text transform="matrix(0.9504 0 0 1 198.0005 118.3806)" font-family="'ProductusOSGiBookc'" font-size="7.98">External Process</text>
</svg>
