<?xml version="1.0" encoding="utf-8"?>
<!-- Generator: Adobe Illustrator 16.0.1, SVG Export Plug-In . SVG Version: 6.00 Build 0)  -->
<!DOCTYPE svg PUBLIC "-//W3C//DTD SVG 1.1//EN" "http://www.w3.org/Graphics/SVG/1.1/DTD/svg11.dtd">
<svg version="1.1" id="Layer_1" xmlns="http://www.w3.org/2000/svg" xmlns:xlink="http://www.w3.org/1999/xlink" x="0px" y="0px"
	 width="340.02px" height="67.08px" viewBox="0 0 340.02 67.08" enable-background="new 0 0 340.02 67.08" xml:space="preserve">
<rect x="80.82" y="21.48" fill="#FFFFFF" width="63.78" height="7.08"/>
<rect x="80.82" y="21.24" width="64.02" height="0.479"/>
<rect x="144.36" y="21.48" width="0.48" height="7.32"/>
<rect x="80.58" y="28.32" width="64.02" height="0.48"/>
<rect x="80.58" y="21.24" width="0.48" height="7.32"/>
<rect x="187.141" y="21.48" fill="#FFFFFF" width="70.858" height="7.08"/>
<rect x="187.141" y="21.24" width="71.1" height="0.479"/>
<rect x="257.76" y="21.48" width="0.479" height="7.32"/>
<rect x="186.9" y="28.32" width="71.1" height="0.48"/>
<rect x="186.9" y="21.24" width="0.479" height="7.32"/>
<rect x="87.9" y="7.32" fill="#E6E6E6" width="120.48" height="7.08"/>
<rect x="87.9" y="7.08" width="120.72" height="0.48"/>
<rect x="208.141" y="7.32" width="0.479" height="7.32"/>
<rect x="87.66" y="14.16" width="120.721" height="0.48"/>
<rect x="87.66" y="7.08" width="0.48" height="7.32"/>
<rect x="222.54" y="7.32" fill="#E6E6E6" width="92.16" height="7.08"/>
<rect x="222.54" y="7.08" width="92.4" height="0.48"/>
<rect x="314.459" y="7.32" width="0.48" height="7.32"/>
<rect x="222.3" y="14.16" width="92.399" height="0.48"/>
<rect x="222.3" y="7.08" width="0.479" height="7.32"/>
<rect x="300.48" y="21.48" fill="#FFFFFF" width="39.539" height="7.08"/>
<rect x="300.48" y="21.24" width="39.539" height="0.479"/>
<rect x="300.24" y="28.32" width="39.779" height="0.48"/>
<rect x="300.24" y="21.24" width="0.48" height="7.32"/>
<rect x="144.6" y="21.48" fill="#808080" width="14.16" height="7.08"/>
<rect x="144.6" y="21.24" width="14.4" height="0.479"/>
<rect x="158.52" y="21.48" width="0.48" height="7.32"/>
<rect x="144.36" y="28.32" width="14.4" height="0.48"/>
<rect x="144.36" y="21.24" width="0.48" height="7.32"/>
<rect x="172.919" y="21.48" fill="#808080" width="14.222" height="7.08"/>
<rect x="172.919" y="21.24" width="14.461" height="0.479"/>
<rect x="186.9" y="21.48" width="0.479" height="7.32"/>
<rect x="172.68" y="28.32" width="14.461" height="0.48"/>
<rect x="172.68" y="21.24" width="0.479" height="7.32"/>
<polyline fill="#FFFFFF" points="208.38,14.4 222.54,7.32 222.54,14.4 208.38,7.32 "/>
<polyline points="208.26,14.22 222.779,6.96 222.779,14.82 208.26,7.561 208.141,7.32 208.141,6.96 222.66,14.22 222.419,14.64 
	222.3,14.4 222.3,7.32 222.779,7.32 222.66,7.561 208.5,14.64 "/>
<polyline points="208.62,7.32 208.62,14.4 208.5,14.64 208.141,14.82 208.141,7.32 "/>
<rect x="258" y="21.48" fill="#808080" width="14.16" height="7.08"/>
<rect x="258" y="21.24" width="14.4" height="0.479"/>
<rect x="271.919" y="21.48" width="0.479" height="7.32"/>
<rect x="257.76" y="28.32" width="14.399" height="0.48"/>
<rect x="257.76" y="21.24" width="0.479" height="7.32"/>
<rect x="286.32" y="21.48" fill="#808080" width="14.16" height="7.08"/>
<rect x="286.32" y="21.24" width="14.4" height="0.479"/>
<rect x="300.24" y="21.48" width="0.48" height="7.32"/>
<rect x="286.08" y="28.32" width="14.4" height="0.48"/>
<rect x="286.08" y="21.24" width="0.48" height="7.32"/>
<polyline fill="#FFFFFF" points="272.16,28.561 286.32,21.541 286.32,28.561 272.16,21.541 "/>
<polyline points="272.04,28.38 286.2,21.36 286.561,21.18 286.561,28.98 286.2,28.8 272.04,21.78 271.919,21.54 271.919,21.18 
	272.279,21.36 286.439,28.38 286.2,28.8 286.08,28.561 286.08,21.54 286.561,21.54 286.439,21.78 272.279,28.8 "/>
<polyline points="272.4,21.54 272.4,28.561 272.279,28.8 271.919,28.98 271.919,21.54 "/>
<rect x="66.66" y="21.48" fill="#808080" width="14.16" height="7.08"/>
<rect x="66.66" y="21.24" width="14.4" height="0.479"/>
<rect x="80.58" y="21.48" width="0.48" height="7.32"/>
<rect x="66.42" y="28.32" width="14.4" height="0.48"/>
<rect x="66.42" y="21.24" width="0.48" height="7.32"/>
<polyline fill="#FFFFFF" points="158.76,28.561 172.919,21.541 172.919,28.561 158.76,21.541 "/>
<polyline points="158.64,28.38 172.8,21.36 173.16,21.18 173.16,28.98 172.8,28.8 158.64,21.78 158.52,21.54 158.52,21.18 
	158.88,21.36 173.04,28.38 172.8,28.8 172.68,28.561 172.68,21.54 173.16,21.54 173.04,21.78 158.88,28.8 "/>
<polyline points="159,21.54 159,28.561 158.88,28.8 158.52,28.98 158.52,21.54 "/>
<rect x="59.58" y="35.7" width="42.48" height="7.08"/>
<rect x="59.58" y="35.46" width="42.72" height="0.48"/>
<rect x="101.82" y="35.7" width="0.48" height="7.32"/>
<rect x="59.34" y="42.54" width="42.72" height="0.48"/>
<rect x="59.34" y="35.46" width="0.48" height="7.32"/>
<rect x="137.52" y="35.7" width="92.1" height="7.08"/>
<rect x="137.52" y="35.46" width="92.339" height="0.48"/>
<rect x="229.38" y="35.7" width="0.479" height="7.32"/>
<rect x="137.28" y="42.54" width="92.34" height="0.48"/>
<rect x="137.28" y="35.46" width="0.48" height="7.32"/>
<polyline points="250.919,35.7 321.78,35.7 321.78,42.78 250.919,42.78 "/>
<rect x="250.919" y="35.46" width="71.101" height="0.48"/>
<rect x="321.54" y="35.7" width="0.479" height="7.32"/>
<rect x="250.68" y="42.54" width="71.101" height="0.48"/>
<rect x="250.68" y="35.46" width="0.479" height="7.32"/>
<text transform="matrix(1 0 0 1 0 13.1396)" font-family="'ProductusBook'" font-size="7.98">Resource R1</text>
<text transform="matrix(1 0 0 1 0 27.2998)" font-family="'ProductusBook'" font-size="7.98">Customizer Bundle</text>
<text transform="matrix(1 0 0 1 0 41.459)" font-family="'ProductusBook'" font-size="7.98">Session</text>
<rect x="97.62" y="60.96" width="10.62" height="0.48"/>
<polyline points="97.92,58.021 97.8,58.5 108.18,61.44 108.3,61.44 109.14,61.2 108.3,60.96 "/>
<polyline points="108.3,61.44 108.18,60.96 97.8,63.96 97.92,64.44 "/>
<rect x="52.2" y="60.96" width="0.24" height="0.48"/>
<rect x="52.44" y="60.96" width="45.42" height="0.48"/>
<text transform="matrix(1 0 0 1 59.5801 58.4404)" font-family="'Proforma-BookItalic'" font-size="9">time</text>
<text transform="matrix(1 0 0 1 102.8398 26.5205)" font-family="'ProductusBook'" font-size="7.98">1.0</text>
<text transform="matrix(1 0 0 1 213.9004 26.1006)" font-family="'ProductusBook'" font-size="7.98">2.0</text>
<text transform="matrix(1 0 0 1 313.0801 26.2207)" font-family="'ProductusBook'" font-size="7.98">3.0</text>
<text transform="matrix(1 0 0 1 265.0801 12.54)" font-family="'ProductusBook'" font-size="7.98">2.0</text>
<text transform="matrix(1 0 0 1 145.9805 12.6602)" font-family="'ProductusBook'" font-size="7.98">1.0</text>
<rect x="128.1" y="59.58" fill="#808080" width="14.16" height="7.08"/>
<rect x="128.1" y="59.34" width="14.4" height="0.479"/>
<rect x="142.02" y="59.58" width="0.48" height="7.319"/>
<rect x="127.86" y="66.42" width="14.4" height="0.479"/>
<rect x="127.86" y="59.34" width="0.48" height="7.32"/>
<rect x="213.12" y="59.58" fill="#E6E6E6" width="14.159" height="7.08"/>
<rect x="213.12" y="59.34" width="14.399" height="0.479"/>
<rect x="227.04" y="59.58" width="0.479" height="7.319"/>
<rect x="212.88" y="66.42" width="14.399" height="0.479"/>
<rect x="212.88" y="59.34" width="0.479" height="7.32"/>
<text transform="matrix(1 0 0 1 148.6797 64.3203)" font-family="'ProductusBook'" font-size="7.98">Stopped</text>
<text transform="matrix(1 0 0 1 230.9141 64.3203)" font-family="'ProductusBook'" font-size="7.98">Resource</text>
<polyline fill="#FFFFFF" points="276.9,66.66 291.061,59.58 291.061,66.66 276.9,59.58 "/>
<polyline points="276.779,66.479 291.3,59.22 291.3,67.08 276.779,59.819 276.66,59.58 276.66,59.22 291.18,66.479 290.939,66.899 
	290.82,66.66 290.82,59.58 291.3,59.58 291.18,59.819 277.02,66.899 "/>
<polyline points="277.141,59.58 277.141,66.66 277.02,66.899 276.66,67.08 276.66,59.58 "/>
<text transform="matrix(1 0 0 1 300.5391 64.3203)" font-family="'ProductusBook'" font-size="7.98">Update</text>
<rect x="201.061" y="49.86" width="0.479" height="0.24"/>
<rect x="201.061" width="0.479" height="49.86"/>
</svg>
