<?xml version="1.0" encoding="utf-8"?>
<!-- Generator: Adobe Illustrator 16.0.0, SVG Export Plug-In . SVG Version: 6.00 Build 0)  -->
<!DOCTYPE svg PUBLIC "-//W3C//DTD SVG 1.1//EN" "http://www.w3.org/Graphics/SVG/1.1/DTD/svg11.dtd">
<svg version="1.1" id="Layer_1" xmlns="http://www.w3.org/2000/svg" xmlns:xlink="http://www.w3.org/1999/xlink" x="0px" y="0px"
	 width="269.009px" height="121.787px" viewBox="0 0 269.009 121.787" style="enable-background:new 0 0 269.009 121.787;"
	 xml:space="preserve">
<rect x="49.62" y="1.367" style="fill:#F7F7F7;" width="56.7" height="14.16"/>
<rect x="49.62" y="1.127" width="56.94" height="0.48"/>
<rect x="106.08" y="1.367" width="0.48" height="14.4"/>
<rect x="49.38" y="15.287" width="56.94" height="0.48"/>
<rect x="49.38" y="1.127" width="0.48" height="14.4"/>
<text transform="matrix(1 0 0 1 53.0996 9.8872)"><tspan x="0" y="0" style="font-family:'ProductusBook'; font-size:7.98;">B</tspan><tspan x="3.551" y="0" style="font-family:'ProductusBook'; font-size:7.98;">u</tspan><tspan x="7.27" y="0" style="font-family:'ProductusBook'; font-size:7.98;">n</tspan><tspan x="10.933" y="0" style="font-family:'ProductusBook'; font-size:7.98;">d</tspan><tspan x="14.651" y="0" style="font-family:'ProductusBook'; font-size:7.98;">le</tspan><tspan x="19.687" y="0" style="font-family:'ProductusBook'; font-size:7.98;">-</tspan><tspan x="22.439" y="0" style="font-family:'ProductusBook'; font-size:7.98;">1</tspan></text>
<rect x="163.02" y="22.307" style="fill:#F7F7F7;" width="56.7" height="14.22"/>
<rect x="163.02" y="22.067" width="56.939" height="0.48"/>
<rect x="219.48" y="22.307" width="0.479" height="14.46"/>
<rect x="162.78" y="36.287" width="56.94" height="0.48"/>
<rect x="162.78" y="22.067" width="0.479" height="14.46"/>
<text transform="matrix(1 0 0 1 166.4995 31.127)"><tspan x="0" y="0" style="font-family:'ProductusBook'; font-size:7.98;">B</tspan><tspan x="3.551" y="0" style="font-family:'ProductusBook'; font-size:7.98;">u</tspan><tspan x="7.27" y="0" style="font-family:'ProductusBook'; font-size:7.98;">n</tspan><tspan x="10.933" y="0" style="font-family:'ProductusBook'; font-size:7.98;">d</tspan><tspan x="14.651" y="0" style="font-family:'ProductusBook'; font-size:7.98;">le</tspan><tspan x="19.687" y="0" style="font-family:'ProductusBook'; font-size:7.98;">-</tspan><tspan x="22.439" y="0" style="font-family:'ProductusBook'; font-size:7.98;">2</tspan></text>
<rect x="49.62" y="43.607" style="fill:#F7F7F7;" width="56.7" height="14.16"/>
<rect x="49.62" y="43.367" width="56.94" height="0.48"/>
<rect x="106.08" y="43.607" width="0.48" height="14.4"/>
<rect x="49.38" y="57.527" width="56.94" height="0.48"/>
<rect x="49.38" y="43.367" width="0.48" height="14.4"/>
<rect x="49.62" y="64.847" style="fill:#F7F7F7;" width="56.7" height="14.16"/>
<rect x="49.62" y="64.607" width="56.94" height="0.479"/>
<rect x="106.08" y="64.847" width="0.48" height="14.4"/>
<rect x="49.38" y="78.767" width="56.94" height="0.48"/>
<rect x="49.38" y="64.607" width="0.48" height="14.4"/>
<rect x="49.62" y="107.387" style="fill:#F7F7F7;" width="56.7" height="14.16"/>
<rect x="49.62" y="107.147" width="56.94" height="0.479"/>
<rect x="106.08" y="107.387" width="0.48" height="14.4"/>
<rect x="49.38" y="121.307" width="56.94" height="0.48"/>
<rect x="49.38" y="107.147" width="0.48" height="14.4"/>
<rect x="49.62" y="22.307" style="fill:#FFFFFF;" width="56.7" height="14.22"/>
<rect x="49.38" y="22.067" width="0.48" height="4.26"/>
<rect x="49.62" y="22.067" width="3.96" height="0.48"/>
<rect x="59.7" y="22.067" width="0.24" height="0.48"/>
<rect x="59.94" y="22.067" width="7.86" height="0.48"/>
<rect x="73.92" y="22.067" width="0.24" height="0.48"/>
<rect x="74.16" y="22.067" width="7.86" height="0.48"/>
<rect x="88.14" y="22.067" width="0.24" height="0.48"/>
<rect x="88.38" y="22.067" width="7.8" height="0.48"/>
<rect x="102.3" y="22.067" width="4.26" height="0.48"/>
<rect x="106.08" y="22.307" width="0.48" height="4.02"/>
<rect x="106.08" y="32.507" width="0.48" height="4.26"/>
<rect x="102.3" y="36.287" width="4.02" height="0.48"/>
<rect x="95.94" y="36.287" width="0.24" height="0.48"/>
<rect x="88.14" y="36.287" width="7.8" height="0.48"/>
<rect x="81.78" y="36.287" width="0.24" height="0.48"/>
<rect x="73.92" y="36.287" width="7.86" height="0.48"/>
<rect x="67.56" y="36.287" width="0.24" height="0.48"/>
<rect x="59.7" y="36.287" width="7.86" height="0.48"/>
<rect x="49.38" y="36.287" width="4.2" height="0.48"/>
<rect x="49.38" y="32.507" width="0.48" height="4.02"/>
<rect x="157.799" y="29.207" width="4.681" height="0.48"/>
<polyline points="158.16,26.687 157.919,27.107 162.36,29.687 162.6,29.687 162.9,29.507 162.6,29.267 "/>
<polyline points="162.6,29.687 162.36,29.267 157.919,31.787 158.16,32.207 "/>
<rect x="106.08" y="29.207" width="0.24" height="0.48"/>
<rect x="106.32" y="29.207" width="51.72" height="0.48"/>
<rect x="163.02" y="1.367" style="fill:#FFFFFF;" width="56.7" height="14.16"/>
<rect x="162.78" y="1.127" width="0.479" height="4.26"/>
<rect x="163.02" y="1.127" width="3.96" height="0.48"/>
<rect x="173.1" y="1.127" width="0.239" height="0.48"/>
<rect x="173.339" y="1.127" width="7.86" height="0.48"/>
<rect x="187.32" y="1.127" width="0.24" height="0.48"/>
<rect x="187.56" y="1.127" width="7.8" height="0.48"/>
<rect x="201.48" y="1.127" width="0.24" height="0.48"/>
<rect x="201.72" y="1.127" width="7.859" height="0.48"/>
<rect x="215.7" y="1.127" width="4.26" height="0.48"/>
<rect x="219.48" y="1.367" width="0.479" height="4.02"/>
<rect x="219.48" y="11.567" width="0.479" height="4.2"/>
<rect x="215.7" y="15.287" width="4.021" height="0.48"/>
<rect x="209.339" y="15.287" width="0.24" height="0.48"/>
<rect x="201.48" y="15.287" width="7.859" height="0.48"/>
<rect x="195.12" y="15.287" width="0.24" height="0.48"/>
<rect x="187.32" y="15.287" width="7.8" height="0.48"/>
<rect x="180.959" y="15.287" width="0.24" height="0.48"/>
<rect x="173.1" y="15.287" width="7.859" height="0.48"/>
<rect x="162.78" y="15.287" width="4.2" height="0.48"/>
<rect x="162.78" y="11.567" width="0.479" height="3.96"/>
<text transform="matrix(1 0 0 1 53.0996 52.5474)"><tspan x="0" y="0" style="font-family:'ProductusBook'; font-size:7.98;">r0.</tspan><tspan x="7.796" y="0" style="font-family:'ProductusBook'; font-size:7.98;">x</tspan></text>
<text transform="matrix(1 0 0 1 53.0996 73.8477)"><tspan x="0" y="0" style="font-family:'ProductusBook'; font-size:7.98;">r</tspan><tspan x="2.282" y="0" style="font-family:'ProductusBook'; font-size:7.98;">1</tspan><tspan x="5.41" y="0" style="font-family:'ProductusBook'; font-size:7.98;">.</tspan><tspan x="7.022" y="0" style="font-family:'ProductusBook'; font-size:7.98;">x</tspan></text>
<text transform="matrix(1 0 0 1 53.0996 114.9478)"><tspan x="0" y="0" style="font-family:'ProductusBook'; font-size:7.98;">r</tspan><tspan x="2.274" y="0" style="font-family:'ProductusBook'; font-size:7.98;">1</tspan><tspan x="5.402" y="0" style="font-family:'ProductusBook'; font-size:7.98;">.</tspan><tspan x="6.607" y="0" style="font-family:'ProductusBook'; font-size:7.98;">y</tspan></text>
<rect x="163.02" y="64.847" style="fill:#F7F7F7;" width="56.7" height="14.16"/>
<rect x="163.02" y="64.607" width="56.939" height="0.479"/>
<rect x="219.48" y="64.847" width="0.479" height="14.4"/>
<rect x="162.78" y="78.767" width="56.94" height="0.48"/>
<rect x="162.78" y="64.607" width="0.479" height="14.4"/>
<rect x="163.02" y="43.607" style="fill:#FFFFFF;" width="56.7" height="14.16"/>
<rect x="162.78" y="43.367" width="0.479" height="4.2"/>
<rect x="163.02" y="43.367" width="3.96" height="0.48"/>
<rect x="173.1" y="43.367" width="8.1" height="0.48"/>
<rect x="187.32" y="43.367" width="8.04" height="0.48"/>
<rect x="201.48" y="43.367" width="8.1" height="0.48"/>
<rect x="215.7" y="43.367" width="4.26" height="0.48"/>
<rect x="219.48" y="43.607" width="0.479" height="3.96"/>
<rect x="219.48" y="53.747" width="0.479" height="4.26"/>
<rect x="215.7" y="57.527" width="4.021" height="0.48"/>
<rect x="201.48" y="57.527" width="8.1" height="0.48"/>
<rect x="187.32" y="57.527" width="8.04" height="0.48"/>
<rect x="173.1" y="57.527" width="8.1" height="0.48"/>
<rect x="162.78" y="57.527" width="4.2" height="0.48"/>
<rect x="162.78" y="53.747" width="0.479" height="4.02"/>
<rect x="49.62" y="86.087" style="fill:#FFFFFF;" width="56.7" height="14.22"/>
<rect x="49.38" y="85.847" width="0.48" height="4.26"/>
<rect x="49.62" y="85.847" width="3.96" height="0.48"/>
<rect x="59.7" y="85.847" width="8.1" height="0.48"/>
<rect x="73.92" y="85.847" width="8.1" height="0.48"/>
<rect x="88.14" y="85.847" width="8.04" height="0.48"/>
<rect x="102.3" y="85.847" width="4.26" height="0.48"/>
<rect x="106.08" y="86.087" width="0.48" height="4.021"/>
<rect x="106.08" y="96.287" width="0.48" height="4.26"/>
<rect x="102.3" y="100.067" width="4.02" height="0.48"/>
<rect x="88.14" y="100.067" width="8.04" height="0.48"/>
<rect x="73.92" y="100.067" width="8.1" height="0.48"/>
<rect x="59.7" y="100.067" width="8.1" height="0.48"/>
<rect x="49.38" y="100.067" width="4.2" height="0.48"/>
<rect x="49.38" y="96.287" width="0.48" height="4.02"/>
<rect x="157.799" y="50.447" width="4.681" height="0.48"/>
<polyline points="158.16,47.927 157.919,48.347 162.36,50.927 162.6,50.927 163.02,50.687 162.6,50.507 "/>
<polyline points="162.6,50.927 162.36,50.507 157.919,53.087 158.16,53.507 "/>
<rect x="106.08" y="50.447" width="51.96" height="0.48"/>
<rect x="157.799" y="71.687" width="4.681" height="0.48"/>
<polyline points="158.16,69.167 157.919,69.587 162.36,72.167 162.6,72.167 163.02,71.927 162.6,71.747 "/>
<polyline points="162.6,72.167 162.36,71.747 157.919,74.327 158.16,74.747 "/>
<rect x="106.08" y="71.687" width="51.96" height="0.48"/>
<rect x="163.02" y="86.087" style="fill:#F7F7F7;" width="56.7" height="14.22"/>
<rect x="163.02" y="85.847" width="56.939" height="0.48"/>
<rect x="219.48" y="86.087" width="0.479" height="14.46"/>
<rect x="162.78" y="100.067" width="56.94" height="0.48"/>
<rect x="162.78" y="85.847" width="0.479" height="14.46"/>
<text transform="matrix(1 0 0 1 166.4995 95.0874)"><tspan x="0" y="0" style="font-family:'ProductusBook'; font-size:7.98;">r</tspan><tspan x="2.227" y="0" style="font-family:'ProductusBook'; font-size:7.98;">2</tspan><tspan x="5.881" y="0" style="font-family:'ProductusBook'; font-size:7.98;">.</tspan><tspan x="7.493" y="0" style="font-family:'ProductusBook'; font-size:7.98;">x</tspan></text>
<rect x="163.02" y="107.387" style="fill:#F7F7F7;" width="56.7" height="14.16"/>
<rect x="163.02" y="107.147" width="56.939" height="0.479"/>
<rect x="219.48" y="107.387" width="0.479" height="14.4"/>
<rect x="162.78" y="121.307" width="56.94" height="0.48"/>
<rect x="162.78" y="107.147" width="0.479" height="14.4"/>
<text transform="matrix(1 0 0 1 166.4995 114.9473)"><tspan x="0" y="0" style="font-family:'ProductusBook'; font-size:7.98;">r</tspan><tspan x="2.227" y="0" style="font-family:'ProductusBook'; font-size:7.98;">1</tspan><tspan x="5.402" y="0" style="font-family:'ProductusBook'; font-size:7.98;">.</tspan><tspan x="6.607" y="0" style="font-family:'ProductusBook'; font-size:7.98;">y</tspan><tspan x="9.839" y="0" style="font-family:'ProductusBook'; font-size:7.98;">’</tspan></text>
<text transform="matrix(1 0 0 1 166.4995 73.8472)"><tspan x="0" y="0" style="font-family:'ProductusBook'; font-size:7.98;">r</tspan><tspan x="2.227" y="0" style="font-family:'ProductusBook'; font-size:7.98;">1</tspan><tspan x="5.402" y="0" style="font-family:'ProductusBook'; font-size:7.98;">.</tspan><tspan x="7.015" y="0" style="font-family:'ProductusBook'; font-size:7.98;">x</tspan><tspan x="10.015" y="0" style="font-family:'ProductusBook'; font-size:7.98;">’</tspan></text>
<rect x="157.799" y="8.207" width="4.681" height="0.48"/>
<polyline points="158.16,5.687 157.919,6.107 162.36,8.687 162.6,8.687 163.02,8.447 162.6,8.267 "/>
<polyline points="162.6,8.687 162.36,8.267 157.919,10.847 158.16,11.267 "/>
<rect x="106.08" y="8.207" width="51.96" height="0.48"/>
<rect x="157.799" y="92.987" width="4.681" height="0.48"/>
<polyline points="158.16,90.467 157.919,90.887 162.36,93.467 162.6,93.467 162.9,93.287 162.6,93.047 "/>
<polyline points="162.6,93.467 162.36,93.047 157.919,95.567 158.16,95.987 "/>
<rect x="106.08" y="92.987" width="51.96" height="0.48"/>
<rect x="157.799" y="114.227" width="4.681" height="0.48"/>
<polyline points="158.16,111.707 157.919,112.127 162.36,114.707 162.6,114.707 163.02,114.467 162.6,114.287 "/>
<polyline points="162.6,114.707 162.36,114.287 157.919,116.867 158.16,117.287 "/>
<rect x="106.08" y="114.227" width="51.96" height="0.48"/>
<text transform="matrix(1 0 0 1 123.5396 6.6475)"><tspan x="0" y="0" style="font-family:'ProductusBook'; font-size:7.98;">u</tspan><tspan x="3.703" y="0" style="font-family:'ProductusBook'; font-size:7.98;">n</tspan><tspan x="7.366" y="0" style="font-family:'ProductusBook'; font-size:7.98;">i</tspan><tspan x="8.93" y="0" style="font-family:'ProductusBook'; font-size:7.98;">n</tspan><tspan x="12.648" y="0" style="font-family:'ProductusBook'; font-size:7.98;">s</tspan><tspan x="15.489" y="0" style="font-family:'ProductusBook'; font-size:7.98;">t</tspan><tspan x="17.835" y="0" style="font-family:'ProductusBook'; font-size:7.98;">a</tspan><tspan x="21.171" y="0" style="font-family:'ProductusBook'; font-size:7.98;">ll</tspan></text>
<text transform="matrix(1 0 0 1 127.1992 27.0474)" style="font-family:'ProductusBook'; font-size:7.98;">install</text>
<text transform="matrix(1 0 0 1 128.939 48.8271)"><tspan x="0" y="0" style="font-family:'ProductusBook'; font-size:7.98;">dro</tspan><tspan x="9.768" y="0" style="font-family:'ProductusBook'; font-size:7.98;">p</tspan></text>
<text transform="matrix(1 0 0 1 124.6792 69.5869)"><tspan x="0" y="0" style="font-family:'ProductusBook'; font-size:7.98;">p</tspan><tspan x="3.679" y="0" style="font-family:'ProductusBook'; font-size:7.98;">r</tspan><tspan x="5.953" y="0" style="font-family:'ProductusBook'; font-size:7.98;">oces</tspan><tspan x="19.08" y="0" style="font-family:'ProductusBook'; font-size:7.98;">s</tspan></text>
<text transform="matrix(1 0 0 1 124.6792 92.0864)"><tspan x="0" y="0" style="font-family:'ProductusBook'; font-size:7.98;">p</tspan><tspan x="3.679" y="0" style="font-family:'ProductusBook'; font-size:7.98;">r</tspan><tspan x="5.953" y="0" style="font-family:'ProductusBook'; font-size:7.98;">oces</tspan><tspan x="19.08" y="0" style="font-family:'ProductusBook'; font-size:7.98;">s</tspan></text>
<text transform="matrix(1 0 0 1 124.6792 112.6064)"><tspan x="0" y="0" style="font-family:'ProductusBook'; font-size:7.98;">p</tspan><tspan x="3.679" y="0" style="font-family:'ProductusBook'; font-size:7.98;">r</tspan><tspan x="5.953" y="0" style="font-family:'ProductusBook'; font-size:7.98;">oces</tspan><tspan x="19.08" y="0" style="font-family:'ProductusBook'; font-size:7.98;">s</tspan></text>
<text transform="matrix(1 0 0 1 238.1997 69.5864)"><tspan x="0" y="0" style="font-family:'ProductusSemibold'; font-size:7.98;">v</tspan><tspan x="3.895" y="0" style="font-family:'ProductusSemibold'; font-size:7.98;">er</tspan><tspan x="11.021" y="0" style="font-family:'ProductusSemibold'; font-size:7.98;">s</tspan><tspan x="14.315" y="0" style="font-family:'ProductusSemibold'; font-size:7.98;">i</tspan><tspan x="16.534" y="0" style="font-family:'ProductusSemibold'; font-size:7.98;">o</tspan><tspan x="20.852" y="0" style="font-family:'ProductusSemibold'; font-size:7.98;">n </tspan><tspan x="27.083" y="0" style="font-family:'ProductusSemibold'; font-size:7.98;">2</tspan></text>
<text transform="matrix(1 0 0 1 0 69.5864)"><tspan x="0" y="0" style="font-family:'ProductusSemibold'; font-size:7.98;">v</tspan><tspan x="3.894" y="0" style="font-family:'ProductusSemibold'; font-size:7.98;">er</tspan><tspan x="11.02" y="0" style="font-family:'ProductusSemibold'; font-size:7.98;">s</tspan><tspan x="14.38" y="0" style="font-family:'ProductusSemibold'; font-size:7.98;">i</tspan><tspan x="16.534" y="0" style="font-family:'ProductusSemibold'; font-size:7.98;">o</tspan><tspan x="20.907" y="0" style="font-family:'ProductusSemibold'; font-size:7.98;">n </tspan><tspan x="27.139" y="0" style="font-family:'ProductusSemibold'; font-size:7.98;">1</tspan></text>
</svg>
