<?xml version="1.0" encoding="utf-8"?>
<!-- Generator: Adobe Illustrator 16.0.1, SVG Export Plug-In . SVG Version: 6.00 Build 0)  -->
<!DOCTYPE svg PUBLIC "-//W3C//DTD SVG 1.1//EN" "http://www.w3.org/Graphics/SVG/1.1/DTD/svg11.dtd">
<svg version="1.1" id="Layer_1" xmlns="http://www.w3.org/2000/svg" xmlns:xlink="http://www.w3.org/1999/xlink" x="0px" y="0px"
	 width="312.301px" height="120.811px" viewBox="0 0 312.301 120.811" enable-background="new 0 0 312.301 120.811"
	 xml:space="preserve">
<rect x="130.2" y="44.52" width="54.3" height="26.58"/>
<rect x="130.2" y="44.279" width="54.54" height="0.479"/>
<rect x="184.26" y="44.52" width="0.48" height="26.819"/>
<rect x="129.96" y="70.859" width="54.54" height="0.479"/>
<rect x="129.96" y="44.279" width="0.48" height="26.82"/>
<rect x="127.8" y="42.779" fill="#FFFFFF" width="54.36" height="26.58"/>
<rect x="127.8" y="42.539" width="54.601" height="0.48"/>
<rect x="181.92" y="42.779" width="0.48" height="26.82"/>
<rect x="127.56" y="69.119" width="54.6" height="0.48"/>
<rect x="127.56" y="42.539" width="0.48" height="26.82"/>
<text transform="matrix(1 0 0 1 130.2002 49.8591)" enable-background="new    "><tspan x="0" y="0" font-family="'ProductusOSGiBookc'" font-size="7.98">Management</tspan><tspan x="0" y="9.576" font-family="'ProductusOSGiBookc'" font-size="7.98">Agent Impl</tspan></text>
<rect x="2.64" y="87.06" width="54.3" height="26.58"/>
<rect x="2.64" y="86.819" width="54.54" height="0.479"/>
<rect x="56.7" y="87.06" width="0.48" height="26.819"/>
<rect x="2.4" y="113.399" width="54.54" height="0.479"/>
<rect x="2.4" y="86.819" width="0.48" height="26.82"/>
<rect x="0.24" y="85.26" fill="#FFFFFF" width="54.36" height="26.58"/>
<rect x="0.24" y="85.02" width="54.6" height="0.479"/>
<rect x="54.36" y="85.26" width="0.48" height="26.819"/>
<rect y="111.6" width="54.6" height="0.479"/>
<rect y="85.02" width="0.48" height="26.819"/>
<text transform="matrix(1 0 0 1 2.6401 92.3992)" font-family="'ProductusOSGiBookc'" font-size="7.98">Framework</text>
<rect x="87.66" y="87.06" width="54.36" height="26.58"/>
<rect x="87.66" y="86.819" width="54.6" height="0.479"/>
<rect x="141.78" y="87.06" width="0.48" height="26.819"/>
<rect x="87.42" y="113.399" width="54.6" height="0.479"/>
<rect x="87.42" y="86.819" width="0.48" height="26.82"/>
<rect x="85.32" y="85.26" fill="#FFFFFF" width="54.3" height="26.58"/>
<rect x="85.32" y="85.02" width="54.54" height="0.479"/>
<rect x="139.38" y="85.26" width="0.48" height="26.819"/>
<rect x="85.08" y="111.6" width="54.54" height="0.479"/>
<rect x="85.08" y="85.02" width="0.48" height="26.819"/>
<text transform="matrix(1 0 0 1 87.6602 92.3992)" font-family="'ProductusOSGiBookc'" font-size="7.98">Configuration</text>
<text transform="matrix(0.9504 0 0 1 87.6602 101.9753)" font-family="'ProductusOSGiBookc'" font-size="7.98">Admin</text>
<rect x="172.68" y="87.06" width="54.361" height="26.58"/>
<rect x="172.68" y="86.819" width="54.6" height="0.479"/>
<rect x="226.801" y="87.06" width="0.479" height="26.819"/>
<rect x="172.439" y="113.399" width="54.602" height="0.479"/>
<rect x="172.439" y="86.819" width="0.479" height="26.82"/>
<rect x="170.34" y="85.26" fill="#FFFFFF" width="54.359" height="26.58"/>
<rect x="170.34" y="85.02" width="54.6" height="0.479"/>
<rect x="224.461" y="85.26" width="0.479" height="26.819"/>
<rect x="170.1" y="111.6" width="54.601" height="0.479"/>
<rect x="170.1" y="85.02" width="0.48" height="26.819"/>
<text transform="matrix(1 0 0 1 172.9189 92.1003)" font-family="'ProductusOSGiBookc'" font-size="7.98">Conditional</text>
<text transform="matrix(1 0 0 1 172.9189 101.6765)" font-family="'ProductusOSGiBookc'" font-size="7.98">Permission</text>
<text transform="matrix(0.9504 0 0 1 172.9189 111.2527)" font-family="'ProductusOSGiBookc'" font-size="7.98">Admin</text>
<rect x="243.6" y="87.06" width="54.301" height="26.58"/>
<rect x="243.6" y="86.819" width="54.541" height="0.479"/>
<rect x="297.66" y="87.06" width="0.48" height="26.819"/>
<rect x="243.359" y="113.399" width="54.541" height="0.479"/>
<rect x="243.359" y="86.819" width="0.479" height="26.82"/>
<rect x="241.199" y="85.26" fill="#FFFFFF" width="54.361" height="26.58"/>
<rect x="241.199" y="85.02" width="54.602" height="0.479"/>
<rect x="295.32" y="85.26" width="0.479" height="26.819"/>
<rect x="240.961" y="111.6" width="54.6" height="0.479"/>
<rect x="240.961" y="85.02" width="0.479" height="26.819"/>
<text transform="matrix(1 0 0 1 243.5996 92.3992)" enable-background="new    "><tspan x="0" y="0" font-family="'ProductusOSGiBookc'" font-size="7.98">Other Resource</tspan><tspan x="0" y="9.576" font-family="'ProductusOSGiBookc'" font-size="7.98">Managers</tspan></text>
<rect x="257.76" y="94.14" width="54.301" height="26.579"/>
<rect x="257.76" y="93.899" width="54.541" height="0.479"/>
<rect x="311.82" y="94.14" width="0.479" height="26.67"/>
<rect x="257.52" y="120.479" width="54.541" height="0.33"/>
<rect x="257.52" y="93.899" width="0.48" height="26.819"/>
<rect x="255.359" y="92.34" fill="#FFFFFF" width="54.36" height="26.58"/>
<rect x="255.359" y="92.1" width="54.602" height="0.479"/>
<rect x="309.48" y="92.34" width="0.479" height="26.819"/>
<rect x="255.121" y="118.68" width="54.6" height="0.479"/>
<rect x="255.121" y="92.1" width="0.479" height="26.819"/>
<text transform="matrix(1 0 0 1 257.7598 99.4792)" enable-background="new    "><tspan x="0" y="0" font-family="'ProductusOSGiBookc'" font-size="7.98">Other Resource</tspan><tspan x="0" y="9.576" font-family="'ProductusOSGiBookc'" font-size="7.98">Managers</tspan></text>
<rect x="155.94" y="70.859" width="0.48" height="7.561"/>
<rect x="28.38" y="77.939" width="127.8" height="0.479"/>
<rect x="28.38" y="78.18" width="0.48" height="7.319"/>
<rect x="155.94" y="77.939" width="113.88" height="0.479"/>
<rect x="269.34" y="78.18" width="0.48" height="7.319"/>
<rect x="113.4" y="77.939" width="0.48" height="0.24"/>
<rect x="113.4" y="78.18" width="0.48" height="7.319"/>
<rect x="198.48" y="77.939" width="0.479" height="0.24"/>
<rect x="198.48" y="78.18" width="0.479" height="7.319"/>
<rect x="130.2" y="1.979" width="54.3" height="26.58"/>
<rect x="130.2" y="1.739" width="54.54" height="0.479"/>
<rect x="184.26" y="1.979" width="0.48" height="26.819"/>
<rect x="129.96" y="28.319" width="54.54" height="0.479"/>
<rect x="129.96" y="1.739" width="0.48" height="26.82"/>
<rect x="127.8" y="0.239" fill="#FFFFFF" width="54.36" height="26.58"/>
<rect x="127.8" y="0" width="54.601" height="0.479"/>
<rect x="181.92" y="0.239" width="0.48" height="26.82"/>
<rect x="127.56" y="26.579" width="54.6" height="0.48"/>
<rect x="127.56" y="0" width="0.48" height="26.819"/>
<text transform="matrix(1 0 0 1 130.2002 7.3191)" enable-background="new    "><tspan x="0" y="0" font-family="'ProductusSemibold'" font-size="7.98">Deployment</tspan><tspan x="0" y="9.576" font-family="'ProductusSemibold'" font-size="7.98">Admin</tspan></text>
<rect x="2.64" y="1.979" width="54.3" height="26.58"/>
<rect x="2.64" y="1.739" width="54.54" height="0.479"/>
<rect x="56.7" y="1.979" width="0.48" height="26.819"/>
<rect x="2.4" y="28.319" width="54.54" height="0.479"/>
<rect x="2.4" y="1.739" width="0.48" height="26.82"/>
<rect x="0.24" y="0.239" fill="#FFFFFF" width="54.36" height="26.58"/>
<rect x="0.24" y="0" width="54.6" height="0.479"/>
<rect x="54.36" y="0.239" width="0.48" height="26.82"/>
<rect y="26.579" width="54.6" height="0.48"/>
<rect y="0" width="0.48" height="26.819"/>
<text transform="matrix(1 0 0 1 2.6401 7.3191)" font-family="'ProductusOSGiBookc'" font-size="7.98">Remote Manager</text>
<rect x="155.94" y="42.779" width="0.48" height="0.24"/>
<rect x="155.94" y="28.319" width="0.48" height="14.46"/>
<rect x="56.7" y="14.159" width="0.24" height="0.48"/>
<rect x="56.94" y="14.159" width="71.1" height="0.48"/>
<polyline points="177.42,21.479 170.34,28.56 184.5,28.56 184.5,14.399 "/>
<polyline points="177.6,21.659 170.52,28.739 170.34,28.8 169.74,28.8 177.24,21.3 "/>
<rect x="170.34" y="28.319" width="14.4" height="0.479"/>
<polyline points="184.26,28.56 184.26,14.399 184.32,14.219 184.68,14.579 177.6,21.659 177.961,21.3 177.6,21.659 177.24,21.3 
	184.74,13.8 184.74,28.56 "/>
<polyline points="134.94,106.56 127.8,113.64 142.02,113.64 142.02,99.479 "/>
<polyline points="135.12,106.739 127.98,113.819 127.8,113.88 127.2,113.88 127.62,113.46 134.76,106.38 "/>
<rect x="127.8" y="113.399" width="14.46" height="0.479"/>
<polyline points="141.78,113.64 141.78,99.479 141.84,99.3 142.2,99.659 135.12,106.739 134.76,106.38 142.26,98.88 142.26,113.64 
	"/>
<polyline points="219.961,106.56 212.881,113.64 227.041,113.64 227.041,99.479 "/>
<polyline points="220.141,106.739 213.061,113.819 212.881,113.88 212.279,113.88 219.779,106.38 "/>
<rect x="212.881" y="113.399" width="14.398" height="0.479"/>
<polyline points="226.801,113.64 226.801,99.479 226.859,99.3 227.221,99.659 220.141,106.739 219.779,106.38 219.42,106.739 
	227.279,98.88 227.279,113.64 "/>
<text transform="matrix(1 0 0 1 71.1001 12.2996)" font-family="'ProductusOSGiBookc'" font-size="7.98">remotely manage</text>
</svg>
