<?xml version="1.0" encoding="utf-8"?>
<!-- Generator: Adobe Illustrator 16.0.0, SVG Export Plug-In . SVG Version: 6.00 Build 0)  -->
<!DOCTYPE svg PUBLIC "-//W3C//DTD SVG 1.1//EN" "http://www.w3.org/Graphics/SVG/1.1/DTD/svg11.dtd">
<svg version="1.1" id="Layer_1" xmlns="http://www.w3.org/2000/svg" xmlns:xlink="http://www.w3.org/1999/xlink" x="0px" y="0px"
	 width="269.76px" height="489.479px" viewBox="0 0 269.76 489.479" style="enable-background:new 0 0 269.76 489.479;"
	 xml:space="preserve">
<polyline points="142.08,397.342 113.76,411.502 113.52,411.502 113.76,411.083 142.08,425.243 142.08,425.663 141.84,425.243 
	170.22,411.083 170.46,411.083 170.94,411.323 170.46,411.502 142.08,425.663 141.96,425.722 113.16,411.323 113.52,411.083 
	141.84,396.922 "/>
<polyline points="170.22,411.502 141.84,397.342 141.84,396.922 141.96,396.863 142.08,396.922 170.46,411.083 "/>
<text transform="matrix(1 0 0 1 130.6802 411.8022)"><tspan x="0" y="0" style="font-family:'ProductusBook'; font-size:7.98;">o</tspan><tspan x="3.838" y="0" style="font-family:'ProductusBook'; font-size:7.98;">k</tspan></text>
<path style="fill-rule:evenodd;clip-rule:evenodd;fill:#FFFFFF;" d="M149.04,7.342v-0.72l-0.119-0.72
	c-1.874-7.908-12.999-7.347-13.98,0.72l-0.06,0.72l0.06,0.72c0.979,8.04,12.168,8.597,13.98,0.66l0.119-0.66V7.342"/>
<path d="M148.8,7.342v-0.72v0.06l-0.12-0.72l-0.18-0.66v0.06l-0.24-0.66h0.06l-0.3-0.66l-0.36-0.54v0.06l-0.84-1.08h0.061
	l-1.08-0.84v0.06l-0.54-0.36h0.06l-0.66-0.3L144,0.803l-0.66-0.18h0.06l-0.72-0.12h-1.44h0.061l-0.721,0.12l-0.659,0.18h0.06
	l-0.66,0.24l-0.6,0.3l-0.601,0.36l0.061-0.06l-0.54,0.42l-0.48,0.42l-0.479,0.54l-0.42,0.54l0.06-0.06l-0.359,0.54l-0.301,0.66
	l-0.239,0.66v-0.06l-0.12,0.66l-0.12,0.72l-0.061,0.72V7.342l0.061,0.72l0.12,0.66l0.12,0.72v-0.06l0.239,0.66v-0.06l0.301,0.6
	l0.359,0.6h-0.06l0.42,0.54v-0.06l0.96,0.96l-0.3,0.36h-0.061l-0.96-0.96l-0.42-0.54v-0.06l-0.36-0.6l-0.3-0.6h-0.06l-0.24-0.66
	v-0.06l-0.12-0.72l-0.12-0.66l-0.06-0.72V7.342l0.06-0.72l0.12-0.72l0.12-0.66v-0.06l0.24-0.66h0.06l0.3-0.66v-0.06
	c0.851-1.387,2.034-2.529,3.54-3.18l0.061-0.06l0.66-0.24c1.219-0.412,3.099-0.447,4.319,0h0.061l0.66,0.24v0.06l0.66,0.3
	c1.397,0.882,1.562,0.99,2.52,2.34h0.06l0.36,0.54v0.06l0.3,0.66l0.24,0.66l0.18,0.66v0.061l0.12,0.72v0.72"/>
<path d="M137.64,12.623l0.54,0.42h-0.061l0.601,0.36l0.6,0.3l-0.06-0.06l1.319,0.36l0.721,0.12l0.72,0.06h-0.06l0.72-0.06l0.72-0.12
	h-0.06l1.319-0.36v0.06l0.66-0.3h-0.06l0.54-0.36l0.54-0.42l0.54-0.48l-0.061,0.06l0.42-0.48l0.42-0.54l0.36-0.6l0.3-0.6l-0.06,0.06
	l0.24-0.66l0.18-0.72v0.06l0.12-0.66v-0.72h0.479v0.72c-0.632,5.335-6.016,8.063-10.8,5.76l-0.6-0.36v-0.06l-0.54-0.42"/>
<rect x="113.64" y="28.583" style="fill:#FFFFFF;" width="56.7" height="21.24"/>
<rect x="113.64" y="28.343" width="56.939" height="0.48"/>
<rect x="170.1" y="28.583" width="0.479" height="21.48"/>
<rect x="113.4" y="49.583" width="56.94" height="0.48"/>
<rect x="113.4" y="28.343" width="0.48" height="21.48"/>
<text transform="matrix(1 0 0 1 117.1802 35.6626)"><tspan x="0" y="0" style="font-family:'ProductusBook'; font-size:7.98;">R</tspan><tspan x="3.367" y="0" style="font-family:'ProductusBook'; font-size:7.98;">e</tspan><tspan x="6.902" y="0" style="font-family:'ProductusBook'; font-size:7.98;">a</tspan><tspan x="10.206" y="0" style="font-family:'ProductusBook'; font-size:7.98;">d</tspan><tspan x="13.925" y="0" style="font-family:'ProductusBook'; font-size:7.98;"> </tspan><tspan x="15.489" y="0" style="font-family:'ProductusBook'; font-size:7.98;">M</tspan><tspan x="21.426" y="0" style="font-family:'ProductusBook'; font-size:7.98;">a</tspan><tspan x="24.729" y="0" style="font-family:'ProductusBook'; font-size:7.98;">n</tspan><tspan x="28.393" y="0" style="font-family:'ProductusBook'; font-size:7.98;">i</tspan><tspan x="30.005" y="0" style="font-family:'ProductusBook'; font-size:7.98;">f</tspan><tspan x="31.928" y="0" style="font-family:'ProductusBook'; font-size:7.98;">e</tspan><tspan x="35.463" y="0" style="font-family:'ProductusBook'; font-size:7.98;">s</tspan><tspan x="38.279" y="0" style="font-family:'ProductusBook'; font-size:7.98;">t</tspan><tspan x="40.626" y="0" style="font-family:'ProductusBook'; font-size:7.98;"> </tspan></text>
<text transform="matrix(1 0 0 1 117.1802 45.6821)"><tspan x="0" y="0" style="font-family:'ProductusBook'; font-size:7.98;">and</tspan><tspan x="10.686" y="0" style="font-family:'ProductusBook'; font-size:7.98;"> </tspan><tspan x="12.305" y="0" style="font-family:'ProductusBook'; font-size:7.98;">v</tspan><tspan x="15.369" y="0" style="font-family:'ProductusBook'; font-size:7.98;">e</tspan><tspan x="18.904" y="0" style="font-family:'ProductusBook'; font-size:7.98;">rify</tspan></text>
<rect x="113.64" y="99.442" style="fill:#FFFFFF;" width="56.7" height="21.3"/>
<rect x="113.64" y="99.203" width="56.939" height="0.48"/>
<rect x="170.1" y="99.442" width="0.479" height="21.54"/>
<rect x="113.4" y="120.502" width="56.94" height="0.48"/>
<rect x="113.4" y="99.203" width="0.48" height="21.54"/>
<text transform="matrix(1 0 0 1 117.1802 106.5825)"><tspan x="0" y="0" style="font-family:'ProductusBook'; font-size:7.98;">S</tspan><tspan x="3.671" y="0" style="font-family:'ProductusBook'; font-size:7.98;">t</tspan><tspan x="6.064" y="0" style="font-family:'ProductusBook'; font-size:7.98;">o</tspan><tspan x="9.847" y="0" style="font-family:'ProductusBook'; font-size:7.98;">p </tspan><tspan x="15.186" y="0" style="font-family:'ProductusBook'; font-size:7.98;">t</tspan><tspan x="17.531" y="0" style="font-family:'ProductusBook'; font-size:7.98;">a</tspan><tspan x="20.892" y="0" style="font-family:'ProductusBook'; font-size:7.98;">r</tspan><tspan x="23.165" y="0" style="font-family:'ProductusBook'; font-size:7.98;">g</tspan><tspan x="26.469" y="0" style="font-family:'ProductusBook'; font-size:7.98;">e</tspan><tspan x="29.94" y="0" style="font-family:'ProductusBook'; font-size:7.98;">t b</tspan><tspan x="37.665" y="0" style="font-family:'ProductusBook'; font-size:7.98;">u</tspan><tspan x="41.327" y="0" style="font-family:'ProductusBook'; font-size:7.98;">n</tspan><tspan x="45.046" y="0" style="font-family:'ProductusBook'; font-size:7.98;">-</tspan></text>
<text transform="matrix(1 0 0 1 117.1802 116.5425)"><tspan x="0" y="0" style="font-family:'ProductusBook'; font-size:7.98;">dl</tspan><tspan x="5.227" y="0" style="font-family:'ProductusBook'; font-size:7.98;">e</tspan><tspan x="8.762" y="0" style="font-family:'ProductusBook'; font-size:7.98;">s</tspan></text>
<rect x="113.64" y="134.903" style="fill:#FFFFFF;" width="56.7" height="21.24"/>
<rect x="113.64" y="134.663" width="56.939" height="0.48"/>
<rect x="170.1" y="134.903" width="0.479" height="21.479"/>
<rect x="113.4" y="155.903" width="56.94" height="0.479"/>
<rect x="113.4" y="134.663" width="0.48" height="21.48"/>
<text transform="matrix(1 0 0 1 117.1802 141.9824)"><tspan x="0" y="0" style="font-family:'ProductusBook'; font-size:7.98;">R</tspan><tspan x="3.367" y="0" style="font-family:'ProductusBook'; font-size:7.98;">e</tspan><tspan x="6.902" y="0" style="font-family:'ProductusBook'; font-size:7.98;">a</tspan><tspan x="10.206" y="0" style="font-family:'ProductusBook'; font-size:7.98;">d</tspan><tspan x="13.925" y="0" style="font-family:'ProductusBook'; font-size:7.98;"> </tspan><tspan x="15.489" y="0" style="font-family:'ProductusBook'; font-size:7.98;">r</tspan><tspan x="17.764" y="0" style="font-family:'ProductusBook'; font-size:7.98;">e</tspan><tspan x="21.298" y="0" style="font-family:'ProductusBook'; font-size:7.98;">so</tspan><tspan x="27.897" y="0" style="font-family:'ProductusBook'; font-size:7.98;">u</tspan><tspan x="31.561" y="0" style="font-family:'ProductusBook'; font-size:7.98;">r</tspan><tspan x="33.835" y="0" style="font-family:'ProductusBook'; font-size:7.98;">c</tspan><tspan x="36.835" y="0" style="font-family:'ProductusBook'; font-size:7.98;">e</tspan></text>
<polyline points="142.08,170.542 113.76,184.763 113.52,184.763 113.76,184.343 142.08,198.502 142.08,198.922 141.84,198.502 
	170.22,184.343 170.46,184.343 170.94,184.583 170.46,184.763 142.08,198.922 141.96,198.982 113.16,184.583 113.52,184.343 
	141.84,170.123 "/>
<polyline points="170.22,184.763 141.84,170.542 141.84,170.123 141.96,170.062 142.08,170.123 170.46,184.343 "/>
<text transform="matrix(1 0 0 1 130.6802 185.0024)"><tspan x="0" y="0" style="font-family:'ProductusBook'; font-size:7.98;">bundl</tspan><tspan x="16.358" y="0" style="font-family:'ProductusBook'; font-size:7.98;">e</tspan></text>
<rect x="141.72" y="233.843" width="0.479" height="0.24"/>
<rect x="141.72" y="234.083" width="0.479" height="14.46"/>
<rect x="113.64" y="212.843" style="fill:#FFFFFF;" width="56.7" height="21.24"/>
<rect x="113.64" y="212.603" width="56.939" height="0.48"/>
<rect x="170.1" y="212.843" width="0.479" height="21.48"/>
<rect x="113.4" y="233.843" width="56.94" height="0.48"/>
<rect x="113.4" y="212.603" width="0.48" height="21.48"/>
<text transform="matrix(1 0 0 1 117.1802 219.9224)"><tspan x="0" y="0" style="font-family:'ProductusBook'; font-size:7.98;">Start</tspan><tspan x="14.036" y="0" style="font-family:'ProductusBook'; font-size:7.98;"> </tspan><tspan x="15.648" y="0" style="font-family:'ProductusBook'; font-size:7.98;">any</tspan><tspan x="25.854" y="0" style="font-family:'ProductusBook'; font-size:7.98;"> </tspan><tspan x="27.475" y="0" style="font-family:'ProductusBook'; font-size:7.98;">c</tspan><tspan x="30.562" y="0" style="font-family:'ProductusBook'; font-size:7.98;">u</tspan><tspan x="34.281" y="0" style="font-family:'ProductusBook'; font-size:7.98;">s-</tspan></text>
<text transform="matrix(1 0 0 1 117.1802 229.9424)"><tspan x="0" y="0" style="font-family:'ProductusBook'; font-size:7.98;">to</tspan><tspan x="6.129" y="0" style="font-family:'ProductusBook'; font-size:7.98;">m</tspan><tspan x="11.946" y="0" style="font-family:'ProductusBook'; font-size:7.98;">i</tspan><tspan x="13.51" y="0" style="font-family:'ProductusBook'; font-size:7.98;">z</tspan><tspan x="16.566" y="0" style="font-family:'ProductusBook'; font-size:7.98;">e</tspan><tspan x="20.054" y="0" style="font-family:'ProductusBook'; font-size:7.98;">r</tspan><tspan x="22.328" y="0" style="font-family:'ProductusBook'; font-size:7.98;">s</tspan></text>
<rect x="113.64" y="290.783" style="fill:#FFFFFF;" width="56.7" height="21.3"/>
<rect x="113.64" y="290.542" width="56.939" height="0.48"/>
<rect x="170.1" y="290.783" width="0.479" height="21.54"/>
<rect x="113.4" y="311.842" width="56.94" height="0.48"/>
<rect x="113.4" y="290.542" width="0.48" height="21.54"/>
<text transform="matrix(1 0 0 1 117.1802 297.9224)"><tspan x="0" y="0" style="font-family:'ProductusBook'; font-size:7.98;">D</tspan><tspan x="4.804" y="0" style="font-family:'ProductusBook'; font-size:7.98;">r</tspan><tspan x="7.078" y="0" style="font-family:'ProductusBook'; font-size:7.98;">o</tspan><tspan x="10.86" y="0" style="font-family:'ProductusBook'; font-size:7.98;">p</tspan><tspan x="14.579" y="0" style="font-family:'ProductusBook'; font-size:7.98;"> </tspan><tspan x="16.191" y="0" style="font-family:'ProductusBook'; font-size:7.98;">s</tspan><tspan x="19.008" y="0" style="font-family:'ProductusBook'; font-size:7.98;">t</tspan><tspan x="21.354" y="0" style="font-family:'ProductusBook'; font-size:7.98;">a</tspan><tspan x="24.714" y="0" style="font-family:'ProductusBook'; font-size:7.98;">l</tspan><tspan x="26.277" y="0" style="font-family:'ProductusBook'; font-size:7.98;">e</tspan><tspan x="29.765" y="0" style="font-family:'ProductusBook'; font-size:7.98;"> </tspan></text>
<text transform="matrix(1 0 0 1 117.1802 307.8823)"><tspan x="0" y="0" style="font-family:'ProductusBook'; font-size:7.98;">r</tspan><tspan x="2.234" y="0" style="font-family:'ProductusBook'; font-size:7.98;">e</tspan><tspan x="5.77" y="0" style="font-family:'ProductusBook'; font-size:7.98;">so</tspan><tspan x="12.369" y="0" style="font-family:'ProductusBook'; font-size:7.98;">u</tspan><tspan x="16.088" y="0" style="font-family:'ProductusBook'; font-size:7.98;">r</tspan><tspan x="18.313" y="0" style="font-family:'ProductusBook'; font-size:7.98;">ce</tspan><tspan x="24.842" y="0" style="font-family:'ProductusBook'; font-size:7.98;">s</tspan></text>
<rect x="141.72" y="276.382" width="0.479" height="0.24"/>
<rect x="141.72" y="276.623" width="0.479" height="14.4"/>
<rect x="141.72" y="120.502" width="0.479" height="0.24"/>
<rect x="141.72" y="120.743" width="0.479" height="14.4"/>
<rect x="0.24" y="177.382" style="fill:#FFFFFF;" width="56.7" height="21.3"/>
<rect x="0.24" y="177.143" width="56.94" height="0.48"/>
<rect x="56.7" y="177.382" width="0.48" height="21.54"/>
<rect y="198.442" width="56.94" height="0.48"/>
<rect y="177.143" width="0.48" height="21.54"/>
<text transform="matrix(1 0 0 1 3.7798 184.5225)"><tspan x="0" y="0" style="font-family:'ProductusBook'; font-size:7.98;">I</tspan><tspan x="1.588" y="0" style="font-family:'ProductusBook'; font-size:7.98;">n</tspan><tspan x="5.307" y="0" style="font-family:'ProductusBook'; font-size:7.98;">st</tspan><tspan x="10.501" y="0" style="font-family:'ProductusBook'; font-size:7.98;">a</tspan><tspan x="13.861" y="0" style="font-family:'ProductusBook'; font-size:7.98;">ll</tspan><tspan x="16.989" y="0" style="font-family:'ProductusBook'; font-size:7.98;"> </tspan><tspan x="18.601" y="0" style="font-family:'ProductusBook'; font-size:7.98;">or</tspan><tspan x="24.65" y="0" style="font-family:'ProductusBook'; font-size:7.98;"> </tspan><tspan x="26.214" y="0" style="font-family:'ProductusBook'; font-size:7.98;">u</tspan><tspan x="29.933" y="0" style="font-family:'ProductusBook'; font-size:7.98;">p</tspan><tspan x="33.595" y="0" style="font-family:'ProductusBook'; font-size:7.98;">dat</tspan><tspan x="42.979" y="0" style="font-family:'ProductusBook'; font-size:7.98;">e</tspan><tspan x="46.515" y="0" style="font-family:'ProductusBook'; font-size:7.98;"> </tspan></text>
<text transform="matrix(1 0 0 1 3.7798 194.5425)"><tspan x="0" y="0" style="font-family:'ProductusBook'; font-size:7.98;">B</tspan><tspan x="3.551" y="0" style="font-family:'ProductusBook'; font-size:7.98;">u</tspan><tspan x="7.27" y="0" style="font-family:'ProductusBook'; font-size:7.98;">n</tspan><tspan x="10.933" y="0" style="font-family:'ProductusBook'; font-size:7.98;">d</tspan><tspan x="14.651" y="0" style="font-family:'ProductusBook'; font-size:7.98;">l</tspan><tspan x="16.199" y="0" style="font-family:'ProductusBook'; font-size:7.98;">e</tspan></text>
<rect x="198.66" y="276.623" style="fill:#FFFFFF;" width="56.7" height="21.24"/>
<rect x="198.66" y="276.382" width="56.94" height="0.48"/>
<rect x="255.12" y="276.623" width="0.48" height="21.48"/>
<rect x="198.42" y="297.623" width="56.939" height="0.48"/>
<rect x="198.42" y="276.382" width="0.479" height="21.48"/>
<text transform="matrix(1 0 0 1 202.1997 283.7026)"><tspan x="0" y="0" style="font-family:'ProductusBook'; font-size:7.98;">p</tspan><tspan x="3.694" y="0" style="font-family:'ProductusBook'; font-size:7.98;">r</tspan><tspan x="5.921" y="0" style="font-family:'ProductusBook'; font-size:7.98;">o</tspan><tspan x="9.76" y="0" style="font-family:'ProductusBook'; font-size:7.98;">c</tspan><tspan x="12.76" y="0" style="font-family:'ProductusBook'; font-size:7.98;">ess</tspan><tspan x="21.896" y="0" style="font-family:'ProductusBook'; font-size:7.98;"> </tspan><tspan x="23.509" y="0" style="font-family:'ProductusBook'; font-size:7.98;">re</tspan><tspan x="29.278" y="0" style="font-family:'ProductusBook'; font-size:7.98;">s</tspan><tspan x="32.151" y="0" style="font-family:'ProductusBook'; font-size:7.98;">our</tspan><tspan x="41.879" y="0" style="font-family:'ProductusBook'; font-size:7.98;">c</tspan><tspan x="44.879" y="0" style="font-family:'ProductusBook'; font-size:7.98;">e</tspan></text>
<rect x="170.1" y="262.223" width="57.18" height="0.48"/>
<rect x="226.8" y="262.462" width="0.479" height="14.4"/>
<rect x="141.72" y="198.442" width="0.479" height="0.24"/>
<rect x="141.72" y="198.683" width="0.479" height="14.4"/>
<rect x="226.8" y="340.163" width="0.479" height="14.64"/>
<rect x="227.04" y="354.323" width="42.721" height="0.479"/>
<rect x="269.28" y="240.922" width="0.48" height="113.641"/>
<rect x="141.72" y="240.922" width="127.8" height="0.48"/>
<rect x="198.66" y="319.163" style="fill:#FFFFFF;" width="56.7" height="21.24"/>
<rect x="198.66" y="318.922" width="56.94" height="0.48"/>
<rect x="255.12" y="319.163" width="0.48" height="21.479"/>
<rect x="198.42" y="340.163" width="56.939" height="0.479"/>
<rect x="198.42" y="318.922" width="0.479" height="21.48"/>
<text transform="matrix(1 0 0 1 202.1997 326.2427)"><tspan x="0" y="0" style="font-family:'ProductusBook'; font-size:7.98;">N</tspan><tspan x="4.732" y="0" style="font-family:'ProductusBook'; font-size:7.98;">e</tspan><tspan x="8.22" y="0" style="font-family:'ProductusBook'; font-size:7.98;">x</tspan><tspan x="11.275" y="0" style="font-family:'ProductusBook'; font-size:7.98;">t</tspan><tspan x="13.621" y="0" style="font-family:'ProductusBook'; font-size:7.98;"> r</tspan><tspan x="17.531" y="0" style="font-family:'ProductusBook'; font-size:7.98;">e</tspan><tspan x="21.019" y="0" style="font-family:'ProductusBook'; font-size:7.98;">so</tspan><tspan x="27.666" y="0" style="font-family:'ProductusBook'; font-size:7.98;">u</tspan><tspan x="31.329" y="0" style="font-family:'ProductusBook'; font-size:7.98;">r</tspan><tspan x="33.604" y="0" style="font-family:'ProductusBook'; font-size:7.98;">c</tspan><tspan x="36.604" y="0" style="font-family:'ProductusBook'; font-size:7.98;">e</tspan></text>
<rect x="141.72" y="155.903" width="0.479" height="0.24"/>
<rect x="141.72" y="156.143" width="0.479" height="14.4"/>
<polyline points="142.08,248.542 113.76,262.703 113.52,262.703 113.76,262.283 142.08,276.442 142.08,276.863 141.84,276.442 
	170.22,262.283 170.46,262.283 170.94,262.522 170.46,262.703 142.08,276.863 141.96,276.922 113.16,262.522 113.52,262.283 
	141.84,248.123 "/>
<polyline points="170.22,262.703 141.84,248.542 141.84,248.123 141.96,248.062 142.08,248.123 170.46,262.283 "/>
<text transform="matrix(1 0 0 1 130.6802 262.9424)"><tspan x="0" y="0" style="font-family:'ProductusBook'; font-size:7.98;">r</tspan><tspan x="2.267" y="0" style="font-family:'ProductusBook'; font-size:7.98;">e</tspan><tspan x="5.777" y="0" style="font-family:'ProductusBook'; font-size:7.98;">s</tspan><tspan x="8.595" y="0" style="font-family:'ProductusBook'; font-size:7.98;">o</tspan><tspan x="12.385" y="0" style="font-family:'ProductusBook'; font-size:7.98;">u</tspan><tspan x="16.063" y="0" style="font-family:'ProductusBook'; font-size:7.98;">r</tspan><tspan x="18.338" y="0" style="font-family:'ProductusBook'; font-size:7.98;">c</tspan><tspan x="21.338" y="0" style="font-family:'ProductusBook'; font-size:7.98;">e</tspan></text>
<rect x="113.64" y="184.283" width="0.24" height="0.48"/>
<rect x="56.7" y="184.283" width="56.94" height="0.48"/>
<rect x="28.32" y="127.583" width="0.48" height="50.04"/>
<rect x="28.56" y="127.583" width="113.64" height="0.48"/>
<rect x="226.8" y="297.623" width="0.479" height="0.24"/>
<rect x="226.8" y="297.863" width="0.479" height="21.54"/>
<rect x="113.64" y="326.243" style="fill:#FFFFFF;" width="56.7" height="21.24"/>
<rect x="113.64" y="326.002" width="56.939" height="0.48"/>
<rect x="170.1" y="326.243" width="0.479" height="21.479"/>
<rect x="113.4" y="347.243" width="56.94" height="0.479"/>
<rect x="113.4" y="326.002" width="0.48" height="21.48"/>
<text transform="matrix(1 0 0 1 117.1802 333.3228)"><tspan x="0" y="0" style="font-family:'ProductusBook'; font-size:7.98;">Uni</tspan><tspan x="9.871" y="0" style="font-family:'ProductusBook'; font-size:7.98;">n</tspan><tspan x="13.59" y="0" style="font-family:'ProductusBook'; font-size:7.98;">stall</tspan><tspan x="25.225" y="0" style="font-family:'ProductusBook'; font-size:7.98;"> </tspan><tspan x="26.845" y="0" style="font-family:'ProductusBook'; font-size:7.98;">stale </tspan></text>
<text transform="matrix(1 0 0 1 117.1802 343.3423)"><tspan x="0" y="0" style="font-family:'ProductusBook'; font-size:7.98;">b</tspan><tspan x="3.687" y="0" style="font-family:'ProductusBook'; font-size:7.98;">u</tspan><tspan x="7.405" y="0" style="font-family:'ProductusBook'; font-size:7.98;">n</tspan><tspan x="11.068" y="0" style="font-family:'ProductusBook'; font-size:7.98;">d</tspan><tspan x="14.787" y="0" style="font-family:'ProductusBook'; font-size:7.98;">l</tspan><tspan x="16.335" y="0" style="font-family:'ProductusBook'; font-size:7.98;">e</tspan><tspan x="19.87" y="0" style="font-family:'ProductusBook'; font-size:7.98;">s</tspan></text>
<rect x="113.64" y="361.642" style="fill:#FFFFFF;" width="56.7" height="21.301"/>
<rect x="113.64" y="361.403" width="56.939" height="0.479"/>
<rect x="170.1" y="361.642" width="0.479" height="21.54"/>
<rect x="113.4" y="382.703" width="56.94" height="0.479"/>
<rect x="113.4" y="361.403" width="0.48" height="21.54"/>
<text transform="matrix(1 0 0 1 117.1802 368.7827)"><tspan x="0" y="0" style="font-family:'ProductusBook'; font-size:7.98;">p</tspan><tspan x="3.663" y="0" style="font-family:'ProductusBook'; font-size:7.98;">r</tspan><tspan x="5.938" y="0" style="font-family:'ProductusBook'; font-size:7.98;">e</tspan><tspan x="9.472" y="0" style="font-family:'ProductusBook'; font-size:7.98;">p</tspan><tspan x="13.135" y="0" style="font-family:'ProductusBook'; font-size:7.98;">a</tspan><tspan x="16.479" y="0" style="font-family:'ProductusBook'; font-size:7.98;">r</tspan><tspan x="18.705" y="0" style="font-family:'ProductusBook'; font-size:7.98;">e</tspan><tspan x="22.24" y="0" style="font-family:'ProductusBook'; font-size:7.98;"> </tspan><tspan x="23.86" y="0" style="font-family:'ProductusBook'; font-size:7.98;">joi</tspan><tspan x="30.771" y="0" style="font-family:'ProductusBook'; font-size:7.98;">n</tspan><tspan x="34.434" y="0" style="font-family:'ProductusBook'; font-size:7.98;">ed</tspan><tspan x="41.695" y="0" style="font-family:'ProductusBook'; font-size:7.98;"> </tspan></text>
<text transform="matrix(1 0 0 1 117.1802 378.8022)" style="font-family:'ProductusBook'; font-size:7.98;">RPs</text>
<rect x="141.72" y="311.842" width="0.479" height="0.24"/>
<rect x="141.72" y="312.083" width="0.479" height="14.4"/>
<rect x="141.72" y="347.243" width="0.479" height="0.24"/>
<rect x="141.72" y="347.483" width="0.479" height="14.399"/>
<rect x="141.72" y="382.703" width="0.479" height="0.24"/>
<rect x="141.72" y="382.943" width="0.479" height="14.399"/>
<rect x="141.72" y="14.183" width="0.479" height="0.24"/>
<rect x="141.72" y="14.422" width="0.479" height="14.4"/>
<rect x="141.72" y="49.583" width="0.479" height="0.24"/>
<rect x="141.72" y="49.823" width="0.479" height="49.86"/>
<rect x="226.8" y="460.642" width="0.479" height="0.24"/>
<rect x="226.8" y="460.882" width="0.479" height="14.4"/>
<path style="fill-rule:evenodd;clip-rule:evenodd;fill:#FFFFFF;" d="M149.04,7.342v-0.72l-0.119-0.72
	c-1.874-7.908-12.999-7.347-13.98,0.72l-0.06,0.72l0.06,0.72c0.979,8.04,12.168,8.597,13.98,0.66l0.119-0.66V7.342"/>
<path d="M148.8,7.342v-0.72v0.06l-0.12-0.72l-0.18-0.66v0.06l-0.24-0.66h0.06l-0.3-0.66l-0.36-0.54v0.06l-0.84-1.08h0.061
	l-1.08-0.84v0.06l-0.54-0.36h0.06l-0.66-0.3L144,0.803l-0.66-0.18h0.06l-0.72-0.12h-1.44h0.061l-0.721,0.12l-0.659,0.18h0.06
	l-0.66,0.24l-0.6,0.3l-0.601,0.36l0.061-0.06l-0.54,0.42l-0.48,0.42l-0.479,0.54l-0.42,0.54l0.06-0.06l-0.359,0.54l-0.301,0.66
	l-0.239,0.66v-0.06l-0.12,0.66l-0.12,0.72l-0.061,0.72V7.342l0.061,0.72l0.12,0.66l0.12,0.72v-0.06l0.239,0.66v-0.06l0.301,0.6
	l0.359,0.6h-0.06l0.42,0.54v-0.06l0.96,0.96l-0.3,0.36h-0.061l-0.96-0.96l-0.42-0.54v-0.06l-0.36-0.6l-0.3-0.6h-0.06l-0.24-0.66
	v-0.06l-0.12-0.72l-0.12-0.66l-0.06-0.72V7.342l0.06-0.72l0.12-0.72l0.12-0.66v-0.06l0.24-0.66h0.06l0.3-0.66v-0.06
	c0.851-1.387,2.034-2.529,3.54-3.18l0.061-0.06l0.66-0.24c1.219-0.412,3.099-0.447,4.319,0h0.061l0.66,0.24v0.06l0.66,0.3
	c1.397,0.882,1.562,0.99,2.52,2.34h0.06l0.36,0.54v0.06l0.3,0.66l0.24,0.66l0.18,0.66v0.061l0.12,0.72v0.72"/>
<path d="M137.64,12.623l0.54,0.42h-0.061l0.601,0.36l0.6,0.3l-0.06-0.06l1.319,0.36l0.721,0.12l0.72,0.06h-0.06l0.72-0.06l0.72-0.12
	h-0.06l1.319-0.36v0.06l0.66-0.3h-0.06l0.54-0.36l0.54-0.42l0.54-0.48l-0.061,0.06l0.42-0.48l0.42-0.54l0.36-0.6l0.3-0.6l-0.06,0.06
	l0.24-0.66l0.18-0.72v0.06l0.12-0.66v-0.72h0.479v0.72c-0.632,5.335-6.016,8.063-10.8,5.76l-0.6-0.36v-0.06l-0.54-0.42"/>
<path style="fill-rule:evenodd;clip-rule:evenodd;fill:#FFFFFF;" d="M234.12,482.123l-0.06-0.72l-0.12-0.66
	c-1.747-7.9-12.901-7.388-13.979,0.66v1.439c1.055,8.077,12.156,8.664,13.979,0.721l0.12-0.721L234.12,482.123"/>
<path d="M233.88,482.182l-0.061-0.72l-0.12-0.66l-0.18-0.72v0.06l-0.24-0.659h0.061l-0.601-1.2v0.06l-0.42-0.54l-0.96-0.96h0.061
	l-0.54-0.42v0.061l-1.2-0.601h0.06l-0.66-0.24l-0.72-0.18h0.061l-0.66-0.12l-0.721-0.06h0.061l-0.72,0.06l-0.721,0.12l-0.659,0.18
	h0.06l-0.66,0.24l-0.66,0.3l-0.54,0.301h0.061l-0.601,0.42v-0.061l-0.96,0.96l0.061-0.06l-0.36,0.54l-0.36,0.6l-0.3,0.601
	l-0.239,0.659v-0.06l-0.181,0.72l-0.12,0.66v-0.06v1.439l0.12,0.721v-0.061l0.181,0.72l0.239,0.601l0.3,0.66v-0.061l0.36,0.54
	l0.36,0.601l-0.061-0.061l0.96,0.96h-0.06l-0.24,0.42l-0.54-0.54c-1.434-1.517-2.339-3.793-2.1-5.939l0.12-0.66v-0.061
	c0.475-2.041,1.714-4.026,3.66-4.92h0.06l0.66-0.3v-0.06l0.66-0.24l0.659-0.18h0.061l0.72-0.12l0.72-0.061h0.061l0.72,0.061
	l0.66,0.12l0.72,0.18h0.061l0.66,0.24v0.06l0.6,0.3c0.96,0.296,2.03,1.466,2.58,2.28h0.06l0.301,0.6
	c0.474,0.854,0.695,1.799,0.84,2.761l0.06,0.72"/>
<path d="M222.6,487.462l0.6,0.36l0.54,0.359l0.66,0.301v-0.061l0.66,0.24H225l0.659,0.18l0.721,0.12l0.72,0.061h-0.061l0.721-0.061
	l0.66-0.12h-0.061l0.72-0.18l0.66-0.24l-0.06,0.061l0.6-0.301l0.601-0.359l0.54-0.36h-0.061l0.96-0.96v0.061l0.42-0.601l0.3-0.54
	v0.061l0.301-0.66l0.239-0.601h-0.06l0.18-0.72v0.061l0.12-0.721l0.061-0.72v0.06l0.479-0.06v0.06l-0.06,0.721l-0.12,0.72
	l-0.18,0.72v0.061l-0.24,0.6l-0.3,0.66l-0.301,0.54v0.06l-0.42,0.601h-0.06c-2.414,2.863-6.619,3.458-9.72,1.38l-0.601-0.36"/>
<text transform="matrix(1 0 0 1 92.3398 181.7026)"><tspan x="0" y="0" style="font-family:'ProductusOSGiBookc'; font-size:7.98;">y</tspan><tspan x="3" y="0" style="font-family:'ProductusOSGiBookc'; font-size:7.98;">e</tspan><tspan x="6.479" y="0" style="font-family:'ProductusOSGiBookc'; font-size:7.98;">s</tspan></text>
<text transform="matrix(1 0 0 1 143.3403 206.2427)"><tspan x="0" y="0" style="font-family:'ProductusOSGiBookc'; font-size:7.98;">n</tspan><tspan x="3.654" y="0" style="font-family:'ProductusOSGiBookc'; font-size:7.98;">o</tspan></text>
<text transform="matrix(1 0 0 1 175.2007 260.1226)"><tspan x="0" y="0" style="font-family:'ProductusOSGiBookc'; font-size:7.98;">y</tspan><tspan x="3" y="0" style="font-family:'ProductusOSGiBookc'; font-size:7.98;">e</tspan><tspan x="6.479" y="0" style="font-family:'ProductusOSGiBookc'; font-size:7.98;">s</tspan></text>
<text transform="matrix(1 0 0 1 143.7603 285.623)"><tspan x="0" y="0" style="font-family:'ProductusOSGiBookc'; font-size:7.98;">n</tspan><tspan x="3.654" y="0" style="font-family:'ProductusOSGiBookc'; font-size:7.98;">o</tspan></text>
<rect x="198.66" y="439.642" style="fill:#FFFFFF;" width="56.7" height="21.24"/>
<rect x="198.66" y="439.403" width="56.94" height="0.479"/>
<rect x="255.12" y="439.642" width="0.48" height="21.48"/>
<rect x="198.42" y="460.642" width="56.939" height="0.48"/>
<rect x="198.42" y="439.403" width="0.479" height="21.479"/>
<text transform="matrix(1 0 0 1 202.1997 446.7222)"><tspan x="0" y="0" style="font-family:'ProductusBook'; font-size:7.98;">S</tspan><tspan x="3.719" y="0" style="font-family:'ProductusBook'; font-size:7.98;">t</tspan><tspan x="6.064" y="0" style="font-family:'ProductusBook'; font-size:7.98;">ar</tspan><tspan x="11.675" y="0" style="font-family:'ProductusBook'; font-size:7.98;">t</tspan><tspan x="14.021" y="0" style="font-family:'ProductusBook'; font-size:7.98;"> sour</tspan><tspan x="28.24" y="0" style="font-family:'ProductusBook'; font-size:7.98;">c</tspan><tspan x="31.241" y="0" style="font-family:'ProductusBook'; font-size:7.98;">e</tspan><tspan x="34.729" y="0" style="font-family:'ProductusBook'; font-size:7.98;"> </tspan></text>
<text transform="matrix(1 0 0 1 202.1997 456.7417)"><tspan x="0" y="0" style="font-family:'ProductusBook'; font-size:7.98;">bun</tspan><tspan x="11.108" y="0" style="font-family:'ProductusBook'; font-size:7.98;">d</tspan><tspan x="14.771" y="0" style="font-family:'ProductusBook'; font-size:7.98;">le</tspan><tspan x="19.87" y="0" style="font-family:'ProductusBook'; font-size:7.98;">s</tspan></text>
<rect x="198.66" y="404.182" style="fill:#FFFFFF;" width="56.7" height="21.24"/>
<rect x="198.66" y="403.943" width="56.94" height="0.479"/>
<rect x="255.12" y="404.182" width="0.48" height="21.48"/>
<rect x="198.42" y="425.182" width="56.939" height="0.48"/>
<rect x="198.42" y="403.943" width="0.479" height="21.479"/>
<text transform="matrix(1 0 0 1 202.1997 411.3228)"><tspan x="0" y="0" style="font-family:'ProductusBook'; font-size:7.98;">c</tspan><tspan x="3" y="0" style="font-family:'ProductusBook'; font-size:7.98;">om</tspan><tspan x="12.536" y="0" style="font-family:'ProductusBook'; font-size:7.98;">m</tspan><tspan x="18.354" y="0" style="font-family:'ProductusBook'; font-size:7.98;">it</tspan><tspan x="22.296" y="0" style="font-family:'ProductusBook'; font-size:7.98;"> </tspan><tspan x="23.916" y="0" style="font-family:'ProductusBook'; font-size:7.98;">joi</tspan><tspan x="30.826" y="0" style="font-family:'ProductusBook'; font-size:7.98;">n</tspan><tspan x="34.545" y="0" style="font-family:'ProductusBook'; font-size:7.98;">ed </tspan></text>
<text transform="matrix(1 0 0 1 202.1997 421.2827)" style="font-family:'ProductusBook'; font-size:7.98;">RPs</text>
<rect x="141.72" y="425.182" width="0.479" height="0.24"/>
<rect x="141.72" y="425.422" width="0.479" height="14.46"/>
<rect x="170.1" y="411.023" width="0.24" height="0.479"/>
<rect x="170.34" y="411.023" width="28.56" height="0.479"/>
<path style="fill-rule:evenodd;clip-rule:evenodd;" d="M149.04,446.722v-0.72l-0.119-0.72c-1.885-7.907-12.987-7.347-13.98,0.72
	l-0.06,0.72l0.06,0.721c1.02,8.026,12.024,8.651,13.98,0.72l0.119-0.72V446.722"/>
<path d="M148.8,446.722v-0.72v0.061l-0.12-0.721l-0.18-0.66v0.061l-0.24-0.66h0.06l-0.3-0.6l-0.36-0.601v0.061l-0.84-1.08h0.061
	l-1.08-0.84v0.06l-0.54-0.36h0.06l-0.66-0.3l-0.659-0.24l-0.66-0.18h0.06l-0.72-0.12h-1.44h0.061l-0.721,0.12l-0.659,0.18h0.06
	l-0.66,0.24l-0.6,0.3l-0.601,0.36l0.061-0.06l-0.54,0.42l-0.48,0.42l-0.479,0.54l-0.42,0.54l0.06-0.061l-0.359,0.601l-0.301,0.6
	l-0.239,0.66v-0.061l-0.12,0.66l-0.12,0.721l-0.061,0.72v-0.061l0.061,0.721l0.12,0.72l0.12,0.66v-0.061l0.239,0.66v-0.06l0.301,0.6
	l0.359,0.601h-0.06l0.42,0.54v-0.061l0.96,0.96l-0.3,0.36h-0.061l-0.96-0.96l-0.42-0.54v-0.061l-0.36-0.6l-0.3-0.6h-0.06l-0.24-0.66
	v-0.061c-0.621-2.331-0.248-4.941,1.38-6.779l0.48-0.54l0.06-0.061c1.866-1.871,4.733-2.629,7.26-1.8h0.061l0.66,0.24v0.06l0.66,0.3
	c1.396,0.883,1.562,0.991,2.52,2.34h0.06l0.36,0.601c0.445,0.809,0.738,1.839,0.84,2.76v0.72"/>
<path d="M137.64,452.002l0.54,0.42h-0.061l0.601,0.36l0.6,0.3v-0.06l0.66,0.239h-0.06l0.659,0.181l1.44,0.12h-0.06l1.439-0.12h-0.06
	l0.66-0.181l0.659-0.239v0.06l0.66-0.3h-0.06l0.54-0.36l0.54-0.42l0.54-0.479l-0.061,0.06l0.42-0.479l0.42-0.54l0.36-0.601l0.3-0.6
	l-0.06,0.06l0.24-0.66l0.18-0.659v0.06l0.12-0.72v-0.721h0.479v0.721c-0.597,5.278-6.077,8.154-10.8,5.76l-0.6-0.36v-0.06
	l-0.54-0.42"/>
<rect x="226.8" y="425.182" width="0.479" height="0.24"/>
<rect x="226.8" y="425.422" width="0.479" height="14.46"/>
<text transform="matrix(1 0 0 1 177.4204 401.8423)"><tspan x="0" y="0" style="font-family:'ProductusOSGiBookc'; font-size:7.98;">y</tspan><tspan x="3" y="0" style="font-family:'ProductusOSGiBookc'; font-size:7.98;">e</tspan><tspan x="6.424" y="0" style="font-family:'ProductusOSGiBookc'; font-size:7.98;">s</tspan></text>
<text transform="matrix(1 0 0 1 120.7192 437.3022)"><tspan x="0" y="0" style="font-family:'ProductusOSGiBookc'; font-size:7.98;">n</tspan><tspan x="3.654" y="0" style="font-family:'ProductusOSGiBookc'; font-size:7.98;">o</tspan></text>
<rect x="113.64" y="64.042" style="fill:#FFFFFF;" width="56.7" height="21.24"/>
<rect x="113.64" y="63.803" width="56.939" height="0.48"/>
<rect x="170.1" y="64.042" width="0.479" height="21.48"/>
<rect x="113.4" y="85.042" width="56.94" height="0.48"/>
<rect x="113.4" y="63.803" width="0.48" height="21.48"/>
<text transform="matrix(1 0 0 1 117.1802 71.1226)"><tspan x="0" y="0" style="font-family:'ProductusBook'; font-size:7.98;">Pro</tspan><tspan x="9.353" y="0" style="font-family:'ProductusBook'; font-size:7.98;">c</tspan><tspan x="12.353" y="0" style="font-family:'ProductusBook'; font-size:7.98;">e</tspan><tspan x="15.856" y="0" style="font-family:'ProductusBook'; font-size:7.98;">s</tspan><tspan x="18.729" y="0" style="font-family:'ProductusBook'; font-size:7.98;">s</tspan><tspan x="21.546" y="0" style="font-family:'ProductusBook'; font-size:7.98;"> </tspan><tspan x="23.109" y="0" style="font-family:'ProductusBook'; font-size:7.98;">l</tspan><tspan x="24.674" y="0" style="font-family:'ProductusBook'; font-size:7.98;">o</tspan><tspan x="28.512" y="0" style="font-family:'ProductusBook'; font-size:7.98;">ca</tspan><tspan x="34.912" y="0" style="font-family:'ProductusBook'; font-size:7.98;">l</tspan><tspan x="36.523" y="0" style="font-family:'ProductusBook'; font-size:7.98;">iza-</tspan></text>
<text transform="matrix(1 0 0 1 117.1802 81.1421)"><tspan x="0" y="0" style="font-family:'ProductusBook'; font-size:7.98;">ti</tspan><tspan x="3.942" y="0" style="font-family:'ProductusBook'; font-size:7.98;">o</tspan><tspan x="7.78" y="0" style="font-family:'ProductusBook'; font-size:7.98;">n</tspan><tspan x="11.443" y="0" style="font-family:'ProductusBook'; font-size:7.98;"> </tspan><tspan x="13.055" y="0" style="font-family:'ProductusBook'; font-size:7.98;">f</tspan><tspan x="14.979" y="0" style="font-family:'ProductusBook'; font-size:7.98;">i</tspan><tspan x="16.534" y="0" style="font-family:'ProductusBook'; font-size:7.98;">l</tspan><tspan x="18.099" y="0" style="font-family:'ProductusBook'; font-size:7.98;">e</tspan><tspan x="21.594" y="0" style="font-family:'ProductusBook'; font-size:7.98;">s</tspan></text>
</svg>
