<?xml version="1.0" encoding="utf-8"?>
<!-- Generator: Adobe Illustrator 16.0.0, SVG Export Plug-In . SVG Version: 6.00 Build 0)  -->
<!DOCTYPE svg PUBLIC "-//W3C//DTD SVG 1.1//EN" "http://www.w3.org/Graphics/SVG/1.1/DTD/svg11.dtd">
<svg version="1.1" id="Layer_1" xmlns="http://www.w3.org/2000/svg" xmlns:xlink="http://www.w3.org/1999/xlink" x="0px" y="0px"
	 width="332.604px" height="276.767px" viewBox="0 0 332.604 276.767" style="enable-background:new 0 0 332.604 276.767;"
	 xml:space="preserve">
<rect x="12.12" y="20.627" style="fill:#A6A6A6;" width="1.02" height="256.14"/>
<text transform="matrix(1 0 0 1 0 16.6675)"><tspan x="0" y="0" style="font-family:'ProductusOSGiBookc'; font-size:7.98;">m</tspan><tspan x="5.722" y="0" style="font-family:'ProductusOSGiBookc'; font-size:7.98;">a</tspan><tspan x="9.017" y="0" style="font-family:'ProductusOSGiBookc'; font-size:7.98;">n</tspan><tspan x="12.664" y="0" style="font-family:'ProductusOSGiBookc'; font-size:7.98;">a</tspan><tspan x="15.96" y="0" style="font-family:'ProductusOSGiBookc'; font-size:7.98;">g</tspan><tspan x="19.439" y="0" style="font-family:'ProductusOSGiBookc'; font-size:7.98;">e</tspan><tspan x="22.918" y="0" style="font-family:'ProductusOSGiBookc'; font-size:7.98;">r</tspan></text>
<rect x="97.14" y="20.627" style="fill:#A6A6A6;" width="1.02" height="256.14"/>
<text transform="matrix(1 0 0 1 79.8604 6.6475)"><tspan x="0" y="0" style="font-family:'ProductusOSGiBookc'; font-size:7.98;">Depl</tspan><tspan x="13.598" y="0" style="font-family:'ProductusOSGiBookc'; font-size:7.98;">o</tspan><tspan x="17.205" y="0" style="font-family:'ProductusOSGiBookc'; font-size:7.98;">y</tspan><tspan x="20.38" y="0" style="font-family:'ProductusOSGiBookc'; font-size:7.98;">m</tspan><tspan x="26.086" y="0" style="font-family:'ProductusOSGiBookc'; font-size:7.98;">en</tspan><tspan x="33.22" y="0" style="font-family:'ProductusOSGiBookc'; font-size:7.98;">t</tspan></text>
<text transform="matrix(1 0 0 1 86.5801 16.3677)"><tspan x="0" y="0" style="font-family:'ProductusOSGiBookc'; font-size:7.98;">A</tspan><tspan x="3.902" y="0" style="font-family:'ProductusOSGiBookc'; font-size:7.98;">dd</tspan><tspan x="11.212" y="0" style="font-family:'ProductusOSGiBookc'; font-size:7.98;">m</tspan><tspan x="16.965" y="0" style="font-family:'ProductusOSGiBookc'; font-size:7.98;">i</tspan><tspan x="18.489" y="0" style="font-family:'ProductusOSGiBookc'; font-size:7.98;">n</tspan></text>
<rect x="267.24" y="20.627" style="fill:#A6A6A6;" width="1.021" height="256.14"/>
<text transform="matrix(1 0 0 1 262.1401 14.3271)"><tspan x="0" y="0" style="font-family:'ProductusOSGiBookc'; font-size:7.98;">RP</tspan><tspan x="6.767" y="0" style="font-family:'ProductusOSGiBookc'; font-size:7.98;"> </tspan><tspan x="8.331" y="0" style="font-family:'ProductusOSGiBookc'; font-size:7.98;">-</tspan><tspan x="10.797" y="0" style="font-family:'ProductusOSGiBookc'; font-size:7.98;">x</tspan></text>
<rect x="323.94" y="20.627" style="fill:#A6A6A6;" width="1.021" height="256.14"/>
<text transform="matrix(1 0 0 1 319.6206 14.3271)"><tspan x="0" y="0" style="font-family:'ProductusOSGiBookc'; font-size:7.98;">Rp</tspan><tspan x="7.189" y="0" style="font-family:'ProductusOSGiBookc'; font-size:7.98;">-</tspan><tspan x="9.831" y="0" style="font-family:'ProductusOSGiBookc'; font-size:7.98;">y</tspan></text>
<rect x="92.46" y="35.087" width="4.68" height="0.48"/>
<polyline points="92.82,32.567 92.58,32.987 97.02,35.567 97.26,35.567 97.68,35.327 97.26,35.147 "/>
<polyline points="97.26,35.567 97.02,35.147 92.58,37.728 92.82,38.147 "/>
<rect x="12.36" y="35.087" width="80.34" height="0.48"/>
<text transform="matrix(1 0 0 1 13.3203 32.9873)"><tspan x="0" y="0" style="font-family:'ProductusOSGiBookc'; font-size:7.98;">inst</tspan><tspan x="10.374" y="0" style="font-family:'ProductusOSGiBookc'; font-size:7.98;">a</tspan><tspan x="13.613" y="0" style="font-family:'ProductusOSGiBookc'; font-size:7.98;">ll</tspan><tspan x="16.709" y="0" style="font-family:'ProductusOSGiBookc'; font-size:7.98;">D</tspan><tspan x="21.569" y="0" style="font-family:'ProductusOSGiBookc'; font-size:7.98;">ep</tspan><tspan x="28.735" y="0" style="font-family:'ProductusOSGiBookc'; font-size:7.98;">l</tspan><tspan x="30.243" y="0" style="font-family:'ProductusOSGiBookc'; font-size:7.98;">o</tspan><tspan x="33.85" y="0" style="font-family:'ProductusOSGiBookc'; font-size:7.98;">y</tspan><tspan x="37.018" y="0" style="font-family:'ProductusOSGiBookc'; font-size:7.98;">m</tspan><tspan x="42.724" y="0" style="font-family:'ProductusOSGiBookc'; font-size:7.98;">ent</tspan><tspan x="52.22" y="0" style="font-family:'ProductusOSGiBookc'; font-size:7.98;">P</tspan><tspan x="55.348" y="0" style="font-family:'ProductusOSGiBookc'; font-size:7.98;">ac</tspan><tspan x="61.724" y="0" style="font-family:'ProductusOSGiBookc'; font-size:7.98;">k</tspan><tspan x="64.908" y="0" style="font-family:'ProductusOSGiBookc'; font-size:7.98;">age(</tspan><tspan x="77.46" y="0" style="font-family:'ProductusOSGiBookc'; font-size:7.98;">)</tspan></text>
<rect x="153.84" y="20.627" style="fill:#A6A6A6;" width="1.02" height="163.979"/>
<text transform="matrix(1 0 0 1 146.1001 14.3271)"><tspan x="0" y="0" style="font-family:'ProductusOSGiBookc'; font-size:7.98;">Bund</tspan><tspan x="14.539" y="0" style="font-family:'ProductusOSGiBookc'; font-size:7.98;">l</tspan><tspan x="16.047" y="0" style="font-family:'ProductusOSGiBookc'; font-size:7.98;">e</tspan><tspan x="19.526" y="0" style="font-family:'ProductusOSGiBookc'; font-size:7.98;">-</tspan><tspan x="22.216" y="0" style="font-family:'ProductusOSGiBookc'; font-size:7.98;">1</tspan></text>
<rect x="149.16" y="42.167" width="4.68" height="0.479"/>
<polyline points="149.52,39.647 149.28,40.067 153.72,42.647 153.96,42.647 154.38,42.408 153.96,42.227 "/>
<polyline points="153.96,42.647 153.72,42.227 149.28,44.807 149.52,45.227 "/>
<rect x="97.38" y="42.167" width="0.24" height="0.479"/>
<rect x="97.62" y="42.167" width="51.78" height="0.479"/>
<text transform="matrix(1 0 0 1 111.7803 38.4473)"><tspan x="0" y="0" style="font-family:'ProductusOSGiBookc'; font-size:7.98;">st</tspan><tspan x="5.195" y="0" style="font-family:'ProductusOSGiBookc'; font-size:7.98;">o</tspan><tspan x="8.921" y="0" style="font-family:'ProductusOSGiBookc'; font-size:7.98;">p</tspan><tspan x="12.584" y="0" style="font-family:'ProductusOSGiBookc'; font-size:7.98;">(</tspan><tspan x="14.898" y="0" style="font-family:'ProductusOSGiBookc'; font-size:7.98;">)</tspan></text>
<rect x="210.541" y="20.627" style="fill:#A6A6A6;" width="1.02" height="0.48"/>
<rect x="210.541" y="21.107" style="fill:#A6A6A6;" width="1.02" height="255.66"/>
<text transform="matrix(1 0 0 1 196.6802 14.3271)"><tspan x="0" y="0" style="font-family:'ProductusOSGiBookc'; font-size:7.98;">Fra</tspan><tspan x="8.515" y="0" style="font-family:'ProductusOSGiBookc'; font-size:7.98;">m</tspan><tspan x="14.269" y="0" style="font-family:'ProductusOSGiBookc'; font-size:7.98;">e</tspan><tspan x="17.636" y="0" style="font-family:'ProductusOSGiBookc'; font-size:7.98;">w</tspan><tspan x="22.495" y="0" style="font-family:'ProductusOSGiBookc'; font-size:7.98;">o</tspan><tspan x="26.27" y="0" style="font-family:'ProductusOSGiBookc'; font-size:7.98;">rk</tspan></text>
<rect x="262.5" y="105.948" width="4.739" height="0.479"/>
<polyline points="262.92,103.427 262.68,103.847 267.121,106.427 267.36,106.427 267.78,106.187 267.36,106.007 "/>
<polyline points="267.36,106.427 267.121,106.007 262.68,108.587 262.92,109.007 "/>
<rect x="97.38" y="105.948" width="0.24" height="0.479"/>
<rect x="97.62" y="105.948" width="165.12" height="0.479"/>
<text transform="matrix(1 0 0 1 111.7803 102.2271)"><tspan x="0" y="0" style="font-family:'ProductusOSGiBookc'; font-size:7.98;">beg</tspan><tspan x="10.621" y="0" style="font-family:'ProductusOSGiBookc'; font-size:7.98;">i</tspan><tspan x="12.129" y="0" style="font-family:'ProductusOSGiBookc'; font-size:7.98;">n</tspan><tspan x="15.784" y="0" style="font-family:'ProductusOSGiBookc'; font-size:7.98;">(</tspan><tspan x="17.827" y="0" style="font-family:'ProductusOSGiBookc'; font-size:7.98;">sess</tspan><tspan x="29.733" y="0" style="font-family:'ProductusOSGiBookc'; font-size:7.98;">i</tspan><tspan x="31.241" y="0" style="font-family:'ProductusOSGiBookc'; font-size:7.98;">o</tspan><tspan x="35.007" y="0" style="font-family:'ProductusOSGiBookc'; font-size:7.98;">n</tspan><tspan x="38.431" y="0" style="font-family:'ProductusOSGiBookc'; font-size:7.98;">)</tspan></text>
<text transform="matrix(1 0 0 1 111.7803 118.0073)"><tspan x="0" y="0" style="font-family:'ProductusOSGiBookc'; font-size:7.98;">p</tspan><tspan x="3.663" y="0" style="font-family:'ProductusOSGiBookc'; font-size:7.98;">r</tspan><tspan x="5.706" y="0" style="font-family:'ProductusOSGiBookc'; font-size:7.98;">ocess(</tspan><tspan x="23.884" y="0" style="font-family:'ProductusOSGiBookc'; font-size:7.98;">&quot;</tspan><tspan x="26.046" y="0" style="font-family:'ProductusOSGiBookc'; font-size:7.98;">r</tspan><tspan x="28.321" y="0" style="font-family:'ProductusOSGiBookc'; font-size:7.98;">1.x</tspan><tspan x="35.973" y="0" style="font-family:'ProductusOSGiBookc'; font-size:7.98;">&quot;</tspan><tspan x="37.417" y="0" style="font-family:'ProductusOSGiBookc'; font-size:7.98;">,</tspan><tspan x="38.981" y="0" style="font-family:'ProductusOSGiBookc'; font-size:7.98;"> </tspan><tspan x="40.593" y="0" style="font-family:'ProductusOSGiBookc'; font-size:7.98;">s</tspan><tspan x="43.354" y="0" style="font-family:'ProductusOSGiBookc'; font-size:7.98;">t</tspan><tspan x="45.692" y="0" style="font-family:'ProductusOSGiBookc'; font-size:7.98;">r</tspan><tspan x="47.735" y="0" style="font-family:'ProductusOSGiBookc'; font-size:7.98;">e</tspan><tspan x="51.215" y="0" style="font-family:'ProductusOSGiBookc'; font-size:7.98;">a</tspan><tspan x="54.495" y="0" style="font-family:'ProductusOSGiBookc'; font-size:7.98;">m</tspan><tspan x="60.016" y="0" style="font-family:'ProductusOSGiBookc'; font-size:7.98;">)</tspan></text>
<rect x="262.5" y="120.107" width="4.739" height="0.48"/>
<polyline points="262.92,117.587 262.68,118.007 267.121,120.587 267.36,120.587 267.78,120.347 267.36,120.167 "/>
<polyline points="267.36,120.587 267.121,120.167 262.68,122.748 262.92,123.167 "/>
<rect x="97.38" y="120.107" width="0.24" height="0.48"/>
<rect x="97.62" y="120.107" width="165.12" height="0.48"/>
<rect x="262.5" y="134.267" width="4.739" height="0.48"/>
<polyline points="262.92,131.807 262.68,132.227 267.121,134.748 267.36,134.748 267.78,134.507 267.36,134.328 "/>
<polyline points="267.36,134.748 267.121,134.328 262.68,136.908 262.92,137.328 "/>
<rect x="97.38" y="134.267" width="0.24" height="0.48"/>
<rect x="97.62" y="134.267" width="165.12" height="0.48"/>
<text transform="matrix(1 0 0 1 111.7803 132.1675)"><tspan x="0" y="0" style="font-family:'ProductusOSGiBookc'; font-size:7.98;">p</tspan><tspan x="3.663" y="0" style="font-family:'ProductusOSGiBookc'; font-size:7.98;">r</tspan><tspan x="5.706" y="0" style="font-family:'ProductusOSGiBookc'; font-size:7.98;">ocess(</tspan><tspan x="23.884" y="0" style="font-family:'ProductusOSGiBookc'; font-size:7.98;">&quot;</tspan><tspan x="26.046" y="0" style="font-family:'ProductusOSGiBookc'; font-size:7.98;">r</tspan><tspan x="28.321" y="0" style="font-family:'ProductusOSGiBookc'; font-size:7.98;">2.x</tspan><tspan x="36.452" y="0" style="font-family:'ProductusOSGiBookc'; font-size:7.98;">&quot;</tspan><tspan x="37.896" y="0" style="font-family:'ProductusOSGiBookc'; font-size:7.98;">,</tspan><tspan x="39.46" y="0" style="font-family:'ProductusOSGiBookc'; font-size:7.98;"> </tspan><tspan x="41.072" y="0" style="font-family:'ProductusOSGiBookc'; font-size:7.98;">s</tspan><tspan x="43.833" y="0" style="font-family:'ProductusOSGiBookc'; font-size:7.98;">t</tspan><tspan x="46.171" y="0" style="font-family:'ProductusOSGiBookc'; font-size:7.98;">r</tspan><tspan x="48.214" y="0" style="font-family:'ProductusOSGiBookc'; font-size:7.98;">e</tspan><tspan x="51.693" y="0" style="font-family:'ProductusOSGiBookc'; font-size:7.98;">a</tspan><tspan x="54.973" y="0" style="font-family:'ProductusOSGiBookc'; font-size:7.98;">m</tspan><tspan x="60.496" y="0" style="font-family:'ProductusOSGiBookc'; font-size:7.98;">)</tspan></text>
<rect x="319.2" y="148.488" width="4.74" height="0.479"/>
<polyline points="319.621,145.967 319.38,146.387 323.82,148.967 324.06,148.967 324.36,148.788 324.06,148.547 "/>
<polyline points="324.06,148.967 323.82,148.547 319.38,151.067 319.621,151.488 "/>
<rect x="97.38" y="148.488" width="0.24" height="0.479"/>
<rect x="97.62" y="148.488" width="221.82" height="0.479"/>
<text transform="matrix(1 0 0 1 111.7803 146.3872)"><tspan x="0" y="0" style="font-family:'ProductusOSGiBookc'; font-size:7.98;">beg</tspan><tspan x="10.621" y="0" style="font-family:'ProductusOSGiBookc'; font-size:7.98;">i</tspan><tspan x="12.129" y="0" style="font-family:'ProductusOSGiBookc'; font-size:7.98;">n</tspan><tspan x="15.784" y="0" style="font-family:'ProductusOSGiBookc'; font-size:7.98;">(</tspan><tspan x="17.827" y="0" style="font-family:'ProductusOSGiBookc'; font-size:7.98;">sess</tspan><tspan x="29.733" y="0" style="font-family:'ProductusOSGiBookc'; font-size:7.98;">i</tspan><tspan x="31.241" y="0" style="font-family:'ProductusOSGiBookc'; font-size:7.98;">o</tspan><tspan x="35.007" y="0" style="font-family:'ProductusOSGiBookc'; font-size:7.98;">n</tspan><tspan x="38.431" y="0" style="font-family:'ProductusOSGiBookc'; font-size:7.98;">)</tspan></text>
<text transform="matrix(1 0 0 1 111.7803 160.5474)"><tspan x="0" y="0" style="font-family:'ProductusOSGiBookc'; font-size:7.98;">p</tspan><tspan x="3.663" y="0" style="font-family:'ProductusOSGiBookc'; font-size:7.98;">r</tspan><tspan x="5.706" y="0" style="font-family:'ProductusOSGiBookc'; font-size:7.98;">ocess(</tspan><tspan x="23.884" y="0" style="font-family:'ProductusOSGiBookc'; font-size:7.98;">&quot;</tspan><tspan x="26.046" y="0" style="font-family:'ProductusOSGiBookc'; font-size:7.98;">r</tspan><tspan x="28.321" y="0" style="font-family:'ProductusOSGiBookc'; font-size:7.98;">1</tspan><tspan x="31.449" y="0" style="font-family:'ProductusOSGiBookc'; font-size:7.98;">.</tspan><tspan x="32.534" y="0" style="font-family:'ProductusOSGiBookc'; font-size:7.98;">y</tspan><tspan x="35.662" y="0" style="font-family:'ProductusOSGiBookc'; font-size:7.98;">&quot;</tspan><tspan x="37.106" y="0" style="font-family:'ProductusOSGiBookc'; font-size:7.98;">,</tspan><tspan x="38.67" y="0" style="font-family:'ProductusOSGiBookc'; font-size:7.98;"> </tspan><tspan x="40.282" y="0" style="font-family:'ProductusOSGiBookc'; font-size:7.98;">s</tspan><tspan x="43.083" y="0" style="font-family:'ProductusOSGiBookc'; font-size:7.98;">t</tspan><tspan x="45.365" y="0" style="font-family:'ProductusOSGiBookc'; font-size:7.98;">r</tspan><tspan x="47.408" y="0" style="font-family:'ProductusOSGiBookc'; font-size:7.98;">e</tspan><tspan x="50.888" y="0" style="font-family:'ProductusOSGiBookc'; font-size:7.98;">a</tspan><tspan x="54.167" y="0" style="font-family:'ProductusOSGiBookc'; font-size:7.98;">m</tspan><tspan x="59.689" y="0" style="font-family:'ProductusOSGiBookc'; font-size:7.98;">)</tspan></text>
<rect x="319.2" y="162.647" width="4.74" height="0.48"/>
<polyline points="319.621,160.127 319.38,160.547 323.82,163.127 324.06,163.127 324.48,162.887 324.06,162.708 "/>
<polyline points="324.06,163.127 323.82,162.708 319.38,165.288 319.621,165.708 "/>
<rect x="97.38" y="162.647" width="0.24" height="0.48"/>
<rect x="97.62" y="162.647" width="221.82" height="0.48"/>
<rect x="205.8" y="56.328" width="4.74" height="0.479"/>
<polyline points="206.22,53.807 205.98,54.227 210.42,56.807 210.661,56.807 211.081,56.567 210.661,56.387 "/>
<polyline points="210.661,56.807 210.42,56.387 205.98,58.967 206.22,59.387 "/>
<rect x="97.38" y="56.328" width="0.24" height="0.479"/>
<rect x="97.62" y="56.328" width="108.42" height="0.479"/>
<text transform="matrix(1 0 0 1 111.7803 54.2271)"><tspan x="0" y="0" style="font-family:'ProductusOSGiBookc'; font-size:7.98;">i</tspan><tspan x="1.508" y="0" style="font-family:'ProductusOSGiBookc'; font-size:7.98;">nsta</tspan><tspan x="13.598" y="0" style="font-family:'ProductusOSGiBookc'; font-size:7.98;">l</tspan><tspan x="15.105" y="0" style="font-family:'ProductusOSGiBookc'; font-size:7.98;">l(bsn,st</tspan><tspan x="35.797" y="0" style="font-family:'ProductusOSGiBookc'; font-size:7.98;">r</tspan><tspan x="37.84" y="0" style="font-family:'ProductusOSGiBookc'; font-size:7.98;">ea</tspan><tspan x="44.607" y="0" style="font-family:'ProductusOSGiBookc'; font-size:7.98;">m</tspan><tspan x="50.073" y="0" style="font-family:'ProductusOSGiBookc'; font-size:7.98;">)</tspan></text>
<rect x="182.22" y="77.328" style="fill:#A6A6A6;" width="1.02" height="0.479"/>
<rect x="182.22" y="77.807" style="fill:#A6A6A6;" width="1.02" height="198.96"/>
<text transform="matrix(1 0 0 1 171.3003 75.4673)"><tspan x="0" y="0" style="font-family:'ProductusOSGiBookc'; font-size:7.98;">Bund</tspan><tspan x="14.539" y="0" style="font-family:'ProductusOSGiBookc'; font-size:7.98;">l</tspan><tspan x="16.047" y="0" style="font-family:'ProductusOSGiBookc'; font-size:7.98;">e</tspan><tspan x="19.526" y="0" style="font-family:'ProductusOSGiBookc'; font-size:7.98;">-</tspan><tspan x="22.216" y="0" style="font-family:'ProductusOSGiBookc'; font-size:7.98;">2</tspan></text>
<rect x="183.18" y="84.708" width="4.68" height="0.479"/>
<polyline points="187.5,87.647 187.74,87.227 183.3,84.708 183.06,84.708 182.64,84.948 183.06,85.127 "/>
<polyline points="183.06,84.708 183.3,85.127 187.74,82.547 187.5,82.127 "/>
<rect x="211.02" y="84.708" width="0.24" height="0.479"/>
<rect x="187.621" y="84.708" width="23.399" height="0.479"/>
<rect x="211.02" y="49.248" width="7.32" height="0.479"/>
<rect x="217.86" y="49.488" width="0.48" height="42.779"/>
<rect x="210.78" y="91.788" width="7.32" height="0.479"/>
<rect x="210.78" y="49.248" width="0.48" height="42.779"/>
<rect x="149.16" y="176.807" width="4.68" height="0.48"/>
<polyline points="149.52,174.288 149.28,174.708 153.72,177.288 153.96,177.288 154.38,177.047 153.96,176.868 "/>
<polyline points="153.96,177.288 153.72,176.868 149.28,179.448 149.52,179.868 "/>
<rect x="97.38" y="176.807" width="0.24" height="0.48"/>
<rect x="97.62" y="176.807" width="51.78" height="0.48"/>
<text transform="matrix(1 0 0 1 111.7803 174.7075)"><tspan x="0" y="0" style="font-family:'ProductusOSGiBookc'; font-size:7.98;">un</tspan><tspan x="7.31" y="0" style="font-family:'ProductusOSGiBookc'; font-size:7.98;">i</tspan><tspan x="8.817" y="0" style="font-family:'ProductusOSGiBookc'; font-size:7.98;">nsta</tspan><tspan x="20.907" y="0" style="font-family:'ProductusOSGiBookc'; font-size:7.98;">l</tspan><tspan x="22.415" y="0" style="font-family:'ProductusOSGiBookc'; font-size:7.98;">l</tspan><tspan x="23.971" y="0" style="font-family:'ProductusOSGiBookc'; font-size:7.98;">(</tspan><tspan x="26.261" y="0" style="font-family:'ProductusOSGiBookc'; font-size:7.98;">)</tspan></text>
<rect x="262.5" y="190.967" width="4.739" height="0.48"/>
<polyline points="262.92,188.448 262.68,188.868 267.121,191.448 267.36,191.448 267.78,191.208 267.36,191.027 "/>
<polyline points="267.36,191.448 267.121,191.027 262.68,193.607 262.92,194.027 "/>
<rect x="97.38" y="190.967" width="0.24" height="0.48"/>
<rect x="97.62" y="190.967" width="165.12" height="0.48"/>
<text transform="matrix(1 0 0 1 111.7803 188.8677)"><tspan x="0" y="0" style="font-family:'ProductusOSGiBookc'; font-size:7.98;">d</tspan><tspan x="3.663" y="0" style="font-family:'ProductusOSGiBookc'; font-size:7.98;">r</tspan><tspan x="5.706" y="0" style="font-family:'ProductusOSGiBookc'; font-size:7.98;">op(&quot;r0.</tspan><tspan x="25.296" y="0" style="font-family:'ProductusOSGiBookc'; font-size:7.98;">x</tspan><tspan x="28.289" y="0" style="font-family:'ProductusOSGiBookc'; font-size:7.98;">&quot;)</tspan></text>
<rect x="97.62" y="35.327" style="fill:#FFFFFF;" width="7.08" height="233.88"/>
<rect x="97.62" y="35.087" width="7.32" height="0.48"/>
<rect x="104.46" y="35.327" width="0.48" height="234.121"/>
<rect x="97.38" y="268.967" width="7.32" height="0.48"/>
<rect x="97.38" y="35.087" width="0.48" height="234.12"/>
<rect x="262.5" y="205.127" width="4.739" height="0.479"/>
<polyline points="262.92,202.667 262.68,203.087 267.121,205.607 267.36,205.607 267.78,205.368 267.36,205.187 "/>
<polyline points="267.36,205.607 267.121,205.187 262.68,207.767 262.92,208.187 "/>
<rect x="104.46" y="205.127" width="0.24" height="0.479"/>
<rect x="104.7" y="205.127" width="158.04" height="0.479"/>
<text transform="matrix(1 0 0 1 111.7803 202.3677)"><tspan x="0" y="0" style="font-family:'ProductusOSGiBookc'; font-size:7.98;">p</tspan><tspan x="3.663" y="0" style="font-family:'ProductusOSGiBookc'; font-size:7.98;">r</tspan><tspan x="5.706" y="0" style="font-family:'ProductusOSGiBookc'; font-size:7.98;">epa</tspan><tspan x="16.12" y="0" style="font-family:'ProductusOSGiBookc'; font-size:7.98;">r</tspan><tspan x="18.163" y="0" style="font-family:'ProductusOSGiBookc'; font-size:7.98;">e</tspan></text>
<rect x="319.2" y="219.347" width="4.74" height="0.48"/>
<polyline points="319.56,216.828 319.32,217.248 323.82,219.828 324.06,219.828 324.36,219.647 324.06,219.408 "/>
<polyline points="324.06,219.828 323.82,219.408 319.32,221.927 319.56,222.347 "/>
<rect x="104.46" y="219.347" width="0.24" height="0.48"/>
<rect x="104.7" y="219.347" width="214.74" height="0.48"/>
<text transform="matrix(1 0 0 1 111.7803 217.2476)"><tspan x="0" y="0" style="font-family:'ProductusOSGiBookc'; font-size:7.98;">p</tspan><tspan x="3.663" y="0" style="font-family:'ProductusOSGiBookc'; font-size:7.98;">r</tspan><tspan x="5.706" y="0" style="font-family:'ProductusOSGiBookc'; font-size:7.98;">epa</tspan><tspan x="16.12" y="0" style="font-family:'ProductusOSGiBookc'; font-size:7.98;">r</tspan><tspan x="18.163" y="0" style="font-family:'ProductusOSGiBookc'; font-size:7.98;">e</tspan></text>
<rect x="177.48" y="261.828" width="4.681" height="0.479"/>
<polyline points="177.84,259.368 177.6,259.788 182.041,262.307 182.28,262.307 182.7,262.067 182.28,261.887 "/>
<polyline points="182.28,262.307 182.041,261.887 177.6,264.467 177.84,264.887 "/>
<rect x="104.46" y="261.828" width="0.24" height="0.479"/>
<rect x="104.7" y="261.828" width="73.02" height="0.479"/>
<text transform="matrix(1 0 0 1 111.7803 259.7271)"><tspan x="0" y="0" style="font-family:'ProductusOSGiBookc'; font-size:7.98;">st</tspan><tspan x="5.147" y="0" style="font-family:'ProductusOSGiBookc'; font-size:7.98;">a</tspan><tspan x="8.395" y="0" style="font-family:'ProductusOSGiBookc'; font-size:7.98;">r</tspan><tspan x="10.613" y="0" style="font-family:'ProductusOSGiBookc'; font-size:7.98;">t(</tspan><tspan x="15.242" y="0" style="font-family:'ProductusOSGiBookc'; font-size:7.98;">)</tspan></text>
<rect x="262.5" y="233.507" width="4.739" height="0.48"/>
<polyline points="262.92,230.988 262.68,231.408 267.121,233.988 267.36,233.988 267.78,233.748 267.36,233.567 "/>
<polyline points="267.36,233.988 267.121,233.567 262.68,236.147 262.92,236.567 "/>
<rect x="104.46" y="233.507" width="0.24" height="0.48"/>
<rect x="104.7" y="233.507" width="158.04" height="0.48"/>
<rect x="319.2" y="247.667" width="4.74" height="0.479"/>
<polyline points="319.56,245.147 319.32,245.567 323.82,248.147 324.06,248.147 324.48,247.908 324.06,247.727 "/>
<polyline points="324.06,248.147 323.82,247.727 319.32,250.307 319.56,250.727 "/>
<rect x="104.46" y="247.667" width="0.24" height="0.479"/>
<rect x="104.7" y="247.667" width="214.74" height="0.479"/>
<text transform="matrix(1 0 0 1 111.7803 230.687)"><tspan x="0" y="0" style="font-family:'ProductusOSGiBookc'; font-size:7.98;">com</tspan><tspan x="12.544" y="0" style="font-family:'ProductusOSGiBookc'; font-size:7.98;">m</tspan><tspan x="18.298" y="0" style="font-family:'ProductusOSGiBookc'; font-size:7.98;">it</tspan></text>
<text transform="matrix(1 0 0 1 111.7803 245.5679)"><tspan x="0" y="0" style="font-family:'ProductusOSGiBookc'; font-size:7.98;">com</tspan><tspan x="12.544" y="0" style="font-family:'ProductusOSGiBookc'; font-size:7.98;">m</tspan><tspan x="18.298" y="0" style="font-family:'ProductusOSGiBookc'; font-size:7.98;">it</tspan></text>
</svg>
