<?xml version="1.0" encoding="utf-8"?>
<!-- Generator: Adobe Illustrator 16.0.0, SVG Export Plug-In . SVG Version: 6.00 Build 0)  -->
<!DOCTYPE svg PUBLIC "-//W3C//DTD SVG 1.1//EN" "http://www.w3.org/Graphics/SVG/1.1/DTD/svg11.dtd">
<svg version="1.1" id="Layer_1" xmlns="http://www.w3.org/2000/svg" xmlns:xlink="http://www.w3.org/1999/xlink" x="0px" y="0px"
	 width="184.215px" height="55.018px" viewBox="0 0 184.215 55.018" style="enable-background:new 0 0 184.215 55.018;"
	 xml:space="preserve">
<rect x="91.92" y="0.24" style="fill:#808080;" width="14.4" height="14.4"/>
<rect x="91.92" width="14.64" height="0.48"/>
<rect x="106.08" y="0.24" width="0.48" height="14.64"/>
<rect x="91.68" y="14.4" width="14.64" height="0.48"/>
<rect x="91.68" width="0.48" height="14.64"/>
<path style="fill-rule:evenodd;clip-rule:evenodd;fill:#808080;" d="M91.92,7.44l-0.06-0.72L91.74,6
	c-1.958-8.014-13.055-7.466-14.22,0.72v1.5c1.151,8.184,12.285,8.716,14.22,0.72l0.12-0.72L91.92,7.44"/>
<path d="M91.68,7.5l-0.06-0.72L91.5,6.06L91.32,5.4v0.06L91.08,4.8h0.06l-0.3-0.66l-0.36-0.6V3.6l-0.42-0.54L89.1,2.1h0.06
	l-0.54-0.42v0.06l-0.6-0.36h0.06l-0.66-0.3l-0.66-0.24L86.1,0.66h0.06l-0.72-0.12l-0.72-0.06h0.06L84,0.54l-0.72,0.12l-0.66,0.18
	h0.06l-0.66,0.24l-0.66,0.3l-0.6,0.36l0.06-0.06L80.28,2.1l-0.96,0.96L78.9,3.6l0.06-0.06l-0.36,0.6L78.3,4.8l-0.24,0.66V5.4
	l-0.18,0.66l-0.12,0.72V6.72v1.5l0.12,0.72V8.88l0.18,0.66l0.24,0.66l0.3,0.66V10.8l0.36,0.6H78.9l0.42,0.54v-0.06l0.96,0.96
	l-0.3,0.36h-0.06l-0.96-0.96l-0.42-0.54v-0.06l-0.36-0.6l-0.3-0.66h-0.06l-0.24-0.66V9.66L77.4,9l-0.12-0.72V6.72L77.4,6V5.94
	l0.18-0.66l0.24-0.66h0.06l0.3-0.66V3.9l0.36-0.6l0.42-0.54V2.7l0.96-0.96h0.06l0.54-0.42l0.6-0.36h0.06l0.66-0.3V0.6l0.66-0.24
	l0.66-0.18h0.06l0.72-0.12L84.72,0h0.06l0.72,0.06l0.72,0.12l0.66,0.18h0.06L87.6,0.6v0.06l0.66,0.3
	c1.022,0.48,1.954,1.418,2.58,2.34h0.06l0.36,0.6v0.06l0.3,0.66l0.24,0.66l0.18,0.66V6l0.12,0.72l0.06,0.72"/>
<path d="M80.28,12.84l0.54,0.42h-0.06l0.6,0.36l0.66,0.3v-0.06l0.66,0.24h-0.06l0.66,0.18L84,14.4h-0.06h1.5l0.72-0.12H86.1
	l0.66-0.18l0.66-0.24v0.06l0.66-0.3h-0.06l0.6-0.36l0.54-0.42H89.1l0.96-0.96v0.06l0.42-0.54l0.36-0.6v0.06l0.3-0.66h-0.06
	l0.24-0.66l0.18-0.66v0.06l0.12-0.72l0.06-0.78V7.5l0.48-0.06V7.5L92.1,8.28c-0.373,2.524-1.25,3.825-3.24,5.4l-0.6,0.36l-0.66,0.3
	c-2.045,0.847-4.46,0.744-6.42-0.3h-0.06l-0.6-0.36v-0.06l-0.54-0.42"/>
<rect x="72.72" y="7.32" width="4.74" height="0.48"/>
<polyline points="73.14,4.86 72.9,5.28 77.34,7.8 77.58,7.8 78,7.56 77.58,7.38 "/>
<polyline points="77.58,7.8 77.34,7.38 72.9,9.96 73.14,10.38 "/>
<rect x="28.08" y="7.32" width="44.64" height="0.48"/>
<rect x="14.16" y="0.48" style="fill:#808080;" width="14.4" height="14.4"/>
<rect x="14.16" y="0.24" width="14.64" height="0.48"/>
<rect x="28.32" y="0.48" width="0.48" height="14.64"/>
<rect x="13.92" y="14.64" width="14.64" height="0.48"/>
<rect x="13.92" y="0.24" width="0.48" height="14.64"/>
<text transform="matrix(1 0 0 1 0 22.02)"><tspan x="0" y="0" style="font-family:'ProductusOSGiBookc'; font-size:7.98;">co</tspan><tspan x="6.887" y="0" style="font-family:'ProductusOSGiBookc'; font-size:7.98;">m</tspan><tspan x="12.592" y="0" style="font-family:'ProductusOSGiBookc'; font-size:7.98;">.</tspan><tspan x="14.156" y="0" style="font-family:'ProductusOSGiBookc'; font-size:7.98;">a</tspan><tspan x="17.468" y="0" style="font-family:'ProductusOSGiBookc'; font-size:7.98;">c</tspan><tspan x="20.532" y="0" style="font-family:'ProductusOSGiBookc'; font-size:7.98;">m</tspan><tspan x="26.286" y="0" style="font-family:'ProductusOSGiBookc'; font-size:7.98;">e</tspan><tspan x="29.765" y="0" style="font-family:'ProductusOSGiBookc'; font-size:7.98;">.</tspan><tspan x="31.329" y="0" style="font-family:'ProductusOSGiBookc'; font-size:7.98;">g</tspan><tspan x="34.808" y="0" style="font-family:'ProductusOSGiBookc'; font-size:7.98;">ps</tspan></text>
<path style="fill-rule:evenodd;clip-rule:evenodd;fill:#808080;" d="M170.101,7.68l-0.061-0.72l-0.12-0.72
	c-1.929-8.015-13.086-7.463-14.22,0.72V8.4c1.129,8.273,12.322,8.796,14.22,0.72l0.12-0.72L170.101,7.68"/>
<path d="M169.86,7.74L169.8,7.02l-0.119-0.72L169.5,5.64V5.7l-0.24-0.66h0.061l-0.3-0.66l-0.36-0.6v0.06l-0.42-0.54l-0.48-0.54
	h0.061l-0.48-0.42l-0.54-0.42v0.06l-0.6-0.36h0.06l-0.659-0.3l-0.66-0.24l-0.66-0.18h0.06l-0.72-0.12l-0.72-0.06h0.06l-0.779,0.06
	L161.46,0.9l-0.66,0.18h0.061l-0.66,0.24l-0.66,0.3l-0.6,0.36L159,1.92l-0.54,0.42l-0.479,0.42L157.5,3.3l-0.42,0.54l0.061-0.06
	l-0.36,0.6l-0.3,0.66l-0.24,0.66V5.64l-0.18,0.66l-0.12,0.72V6.96V8.4l0.12,0.72V9.06l0.18,0.72l0.24,0.66v-0.06l0.3,0.6l0.36,0.6
	l0.42,0.6l-0.061-0.06l0.96,0.96l-0.3,0.36h-0.06l-0.96-0.96l-0.42-0.6v-0.06l-0.36-0.6l-0.3-0.6H156l-0.24-0.66V9.9l-0.18-0.72
	l-0.12-0.72v-1.5l0.12-0.72V6.18l0.18-0.66L156,4.86h0.061l0.3-0.66V4.14l0.36-0.6l0.42-0.54l0.479-0.54l0.061-0.06l0.479-0.42
	l0.54-0.42l0.6-0.36h0.061l0.66-0.3V0.84l0.66-0.24l0.659-0.18h0.061l0.72-0.12l0.78-0.06h0.06l0.721,0.06l0.72,0.12l0.66,0.18h0.06
	l0.66,0.24V0.9l0.66,0.3c1.225,0.624,1.766,1.253,2.58,2.34h0.06l0.36,0.6V4.2l0.3,0.66l0.24,0.66l0.18,0.66v0.06l0.12,0.72
	l0.06,0.72"/>
<path d="M158.46,13.08L159,13.5h-0.06l0.6,0.36l0.66,0.3V14.1l0.66,0.24H160.8l0.66,0.18l0.721,0.12h-0.061h1.5l0.72-0.12h-0.06
	l0.66-0.18l0.66-0.24v0.06l0.659-0.3h-0.06l0.6-0.36l0.54-0.42h-0.06l0.96-0.96v0.06l0.42-0.6l0.36-0.6l0.3-0.6l-0.061,0.06
	l0.24-0.66l0.181-0.72v0.06L169.8,8.4l0.061-0.72v0.06l0.479-0.06v0.06l-0.06,0.72l-0.12,0.72l-0.18,0.72v0.06l-0.24,0.66l-0.3,0.6
	l-0.36,0.6v0.06l-0.42,0.6h-0.06l-0.96,0.96l-0.54,0.42l-0.061,0.06l-0.6,0.36l-0.66,0.3l-0.66,0.24h-0.06L164.4,15l-0.72,0.12
	c-1.777,0.065-2.713-0.057-4.32-0.84H159.3l-0.6-0.36v-0.06l-0.54-0.42"/>
<rect x="150.721" y="7.32" width="4.68" height="0.48"/>
<polyline points="151.08,4.86 150.84,5.28 155.28,7.8 155.521,7.8 155.94,7.56 155.521,7.38 "/>
<polyline points="155.521,7.8 155.28,7.38 150.84,9.96 151.08,10.38 "/>
<rect x="106.08" y="7.32" width="44.641" height="0.48"/>
<text transform="matrix(1 0 0 1 143.9404 20.7603)"><tspan x="0" y="0" style="font-family:'ProductusOSGiBookc'; font-size:7.98;">c</tspan><tspan x="3.096" y="0" style="font-family:'ProductusOSGiBookc'; font-size:7.98;">o</tspan><tspan x="6.822" y="0" style="font-family:'ProductusOSGiBookc'; font-size:7.98;">m</tspan><tspan x="12.576" y="0" style="font-family:'ProductusOSGiBookc'; font-size:7.98;">.</tspan><tspan x="14.141" y="0" style="font-family:'ProductusOSGiBookc'; font-size:7.98;">a</tspan><tspan x="17.452" y="0" style="font-family:'ProductusOSGiBookc'; font-size:7.98;">c</tspan><tspan x="20.517" y="0" style="font-family:'ProductusOSGiBookc'; font-size:7.98;">m</tspan><tspan x="26.27" y="0" style="font-family:'ProductusOSGiBookc'; font-size:7.98;">e</tspan><tspan x="29.693" y="0" style="font-family:'ProductusOSGiBookc'; font-size:7.98;">.</tspan><tspan x="31.289" y="0" style="font-family:'ProductusOSGiBookc'; font-size:7.98;">p</tspan><tspan x="34.952" y="0" style="font-family:'ProductusOSGiBookc'; font-size:7.98;">o</tspan><tspan x="38.742" y="0" style="font-family:'ProductusOSGiBookc'; font-size:7.98;">i</tspan></text>
<rect x="14.16" y="28.62" style="fill:#808080;" width="14.4" height="14.4"/>
<rect x="14.16" y="28.38" width="14.64" height="0.48"/>
<rect x="28.32" y="28.62" width="0.48" height="14.64"/>
<rect x="13.92" y="42.78" width="14.64" height="0.48"/>
<rect x="13.92" y="28.38" width="0.48" height="14.64"/>
<text transform="matrix(1 0 0 1 1.3203 52.6802)"><tspan x="0" y="0" style="font-family:'ProductusOSGiBookc'; font-size:7.98;">c</tspan><tspan x="3.088" y="0" style="font-family:'ProductusOSGiBookc'; font-size:7.98;">o</tspan><tspan x="6.815" y="0" style="font-family:'ProductusOSGiBookc'; font-size:7.98;">m</tspan><tspan x="12.561" y="0" style="font-family:'ProductusOSGiBookc'; font-size:7.98;">.</tspan><tspan x="14.125" y="0" style="font-family:'ProductusOSGiBookc'; font-size:7.98;">a</tspan><tspan x="17.428" y="0" style="font-family:'ProductusOSGiBookc'; font-size:7.98;">c</tspan><tspan x="20.492" y="0" style="font-family:'ProductusOSGiBookc'; font-size:7.98;">me</tspan><tspan x="29.733" y="0" style="font-family:'ProductusOSGiBookc'; font-size:7.98;">.</tspan><tspan x="31.297" y="0" style="font-family:'ProductusOSGiBookc'; font-size:7.98;">a</tspan><tspan x="34.537" y="0" style="font-family:'ProductusOSGiBookc'; font-size:7.98;">s</tspan><tspan x="37.362" y="0" style="font-family:'ProductusOSGiBookc'; font-size:7.98;">n</tspan></text>
<polyline points="73.32,9.96 73.56,10.32 77.64,7.98 77.4,7.62 "/>
<polyline points="72.36,7.56 72.36,8.04 77.52,8.04 77.76,7.92 78,7.56 77.52,7.56 "/>
<polyline points="77.76,7.92 77.34,7.68 74.76,12.12 75.18,12.36 "/>
<polyline points="28.2,35.76 28.44,36.18 73.56,10.38 73.32,9.96 "/>
<text transform="matrix(1 0 0 1 73.02 20.1001)"><tspan x="0" y="0" style="font-family:'ProductusOSGiBookc'; font-size:7.98;">c</tspan><tspan x="3.088" y="0" style="font-family:'ProductusOSGiBookc'; font-size:7.98;">o</tspan><tspan x="6.815" y="0" style="font-family:'ProductusOSGiBookc'; font-size:7.98;">m</tspan><tspan x="12.56" y="0" style="font-family:'ProductusOSGiBookc'; font-size:7.98;">.</tspan><tspan x="14.125" y="0" style="font-family:'ProductusOSGiBookc'; font-size:7.98;">a</tspan><tspan x="17.428" y="0" style="font-family:'ProductusOSGiBookc'; font-size:7.98;">c</tspan><tspan x="20.492" y="0" style="font-family:'ProductusOSGiBookc'; font-size:7.98;">me</tspan><tspan x="29.733" y="0" style="font-family:'ProductusOSGiBookc'; font-size:7.98;">.</tspan><tspan x="31.297" y="0" style="font-family:'ProductusOSGiBookc'; font-size:7.98;">n</tspan><tspan x="34.952" y="0" style="font-family:'ProductusOSGiBookc'; font-size:7.98;">a</tspan><tspan x="38.08" y="0" style="font-family:'ProductusOSGiBookc'; font-size:7.98;">v</tspan><tspan x="41.256" y="0" style="font-family:'ProductusOSGiBookc'; font-size:7.98;">i</tspan><tspan x="42.764" y="0" style="font-family:'ProductusOSGiBookc'; font-size:7.98;">gat</tspan><tspan x="51.901" y="0" style="font-family:'ProductusOSGiBookc'; font-size:7.98;">i</tspan><tspan x="53.409" y="0" style="font-family:'ProductusOSGiBookc'; font-size:7.98;">o</tspan><tspan x="57.183" y="0" style="font-family:'ProductusOSGiBookc'; font-size:7.98;">n</tspan></text>
</svg>
