<?xml version="1.0" encoding="utf-8"?>
<!-- Generator: Adobe Illustrator 16.0.0, SVG Export Plug-In . SVG Version: 6.00 Build 0)  -->
<!DOCTYPE svg PUBLIC "-//W3C//DTD SVG 1.1//EN" "http://www.w3.org/Graphics/SVG/1.1/DTD/svg11.dtd">
<svg version="1.1" id="Layer_1" xmlns="http://www.w3.org/2000/svg" xmlns:xlink="http://www.w3.org/1999/xlink" x="0px" y="0px"
	 width="199.14px" height="255.6px" viewBox="0 0 199.14 255.6" style="enable-background:new 0 0 199.14 255.6;"
	 xml:space="preserve">
<rect x="71.34" y="71.1" style="fill:#FFFFFF;" width="56.7" height="21.24"/>
<rect x="71.34" y="70.86" width="56.94" height="0.48"/>
<rect x="127.8" y="71.1" width="0.48" height="21.48"/>
<rect x="71.1" y="92.1" width="56.94" height="0.48"/>
<rect x="71.1" y="70.86" width="0.48" height="21.48"/>
<text transform="matrix(1 0 0 1 74.8799 78.1802)"><tspan x="0" y="0" style="font-family:'ProductusBook'; font-size:7.98;">operatio</tspan><tspan x="24.283" y="0" style="font-family:'ProductusBook'; font-size:7.98;">n</tspan><tspan x="28.002" y="0" style="font-family:'ProductusBook'; font-size:7.98;">s</tspan></text>
<path style="fill-rule:evenodd;clip-rule:evenodd;fill:#FFFFFF;" d="M106.8,7.32l-0.06-0.72l-0.12-0.72
	c-1.853-7.946-12.876-7.319-13.98,0.72v1.44c1.13,8.037,12.109,8.644,13.98,0.72l0.12-0.72L106.8,7.32"/>
<path d="M106.56,7.38l-0.06-0.72l-0.12-0.72l-0.18-0.66v0.06l-0.24-0.66h0.06l-0.239-0.6l-0.36-0.6v0.06L105,3l-0.48-0.54h0.061
	l-0.48-0.42l-0.54-0.42v0.06l-0.6-0.36l-0.6-0.3h0.06l-0.66-0.24l-0.72-0.18h0.06l-0.659-0.12H99h0.06L98.34,0.6l-0.66,0.18h0.061
	l-0.66,0.24l-0.66,0.3l-0.54,0.36l0.061-0.06l-1.08,0.84L94.02,3.54l0.061-0.06l-0.36,0.6l-0.3,0.6l-0.24,0.66V5.28L93,5.94
	l-0.12,0.72V6.6v1.44L93,8.76V8.7l0.18,0.66l0.24,0.66V9.96l0.3,0.6l0.36,0.6H94.02l0.421,0.54l0.42,0.48v-0.06l0.54,0.48
	L95.1,12.96l-0.54-0.48H94.5L94.08,12l-0.42-0.54V11.4l-0.36-0.6L93,10.2h-0.06L92.7,9.54V9.48c-0.447-1.22-0.412-3.101,0-4.32
	l0.24-0.66L93,4.44c0.765-1.644,1.645-2.605,3.18-3.54h0.061l0.66-0.3V0.54L97.56,0.3l0.66-0.18h0.061L99,0h1.5l0.66,0.12l0.72,0.18
	h0.061l0.659,0.24V0.6l0.601,0.3c1.226,0.624,1.766,1.253,2.58,2.34h0.06l0.36,0.6V3.9l0.24,0.6l0.239,0.66l0.181,0.66v0.06
	l0.12,0.72l0.06,0.72"/>
<path d="M95.4,12.6l0.54,0.42H95.88l0.54,0.36l0.66,0.3v-0.06l0.66,0.24H97.68l0.66,0.18l1.44,0.12H99.72l0.721-0.06l0.659-0.06
	h-0.06l0.72-0.18l0.66-0.24l-0.06,0.06l0.6-0.3l0.6-0.36l0.54-0.42h-0.06l0.96-0.96v0.06l0.42-0.54l0.36-0.6v0.06l0.239-0.6h-0.06
	l0.24-0.66l0.18-0.66v0.06l0.12-0.72l0.06-0.72v0.06l0.48-0.06v0.06l-0.06,0.72c-0.415,2.592-1.127,3.695-3.181,5.34l-0.6,0.36
	l-0.601,0.3c-1.91,0.78-4.529,0.73-6.359-0.3H96.18l-0.54-0.36v-0.06l-0.54-0.42"/>
<text transform="matrix(1 0 0 1 142.2002 118.7998)"><tspan x="0" y="0" style="font-family:'ProductusOSGiBookc'; font-size:7.98;">n</tspan><tspan x="3.654" y="0" style="font-family:'ProductusOSGiBookc'; font-size:7.98;">o</tspan></text>
<path style="fill-rule:evenodd;clip-rule:evenodd;" d="M177.66,241.2l-0.061-0.72l-0.06-0.72c-1.961-7.918-12.9-7.349-14.04,0.72
	v1.44c1.15,8.076,12.174,8.567,14.04,0.659l0.06-0.659L177.66,241.2"/>
<path d="M177.42,241.26l-0.06-0.721l-0.061-0.72l-0.18-0.66v0.061l-0.24-0.66h0.061l-0.301-0.66l-0.359-0.54v0.061l-0.42-0.54
	l-0.48-0.54h0.061l-0.48-0.42l-0.54-0.42v0.06l-0.6-0.36l-0.601-0.3h0.061l-0.66-0.24l-0.66-0.18h0.06l-0.72-0.12h-1.439h0.06
	l-0.72,0.12l-0.66,0.18h0.06l-0.659,0.24l-0.601,0.3l-0.6,0.36l0.06-0.06l-1.08,0.84l-0.84,1.08l0.061-0.061l-0.36,0.54l-0.3,0.66
	l-0.24,0.66v-0.061l-0.18,0.66l-0.12,0.72v-0.06v1.44l0.12,0.659v-0.06l0.18,0.72l0.24,0.66v-0.06l0.3,0.6l0.36,0.6h-0.061
	l0.42,0.54l0.42,0.48V246l0.54,0.479l-0.3,0.36l-0.54-0.48h-0.06l-0.42-0.479l-0.421-0.54v-0.061l-0.359-0.6l-0.3-0.601H163.8
	l-0.24-0.659v-0.061l-0.18-0.72l-0.12-0.66v-1.5l0.12-0.72V239.7l0.18-0.66l0.24-0.659h0.061l0.3-0.66v-0.061
	c0.935-1.534,1.896-2.415,3.54-3.18l0.06-0.06l0.66-0.24c1.219-0.412,3.099-0.447,4.32,0h0.06l0.66,0.24v0.06l0.6,0.3
	c1.227,0.624,1.767,1.253,2.58,2.34h0.061l0.359,0.54v0.061l0.301,0.66l0.239,0.659l0.181,0.66v0.061l0.06,0.72l0.061,0.72"/>
<path d="M166.26,246.48l0.54,0.42h-0.06l0.6,0.36l0.601,0.3l-0.061-0.06l1.32,0.359l0.72,0.12l0.72,0.06h-0.06l0.72-0.06l0.72-0.12
	h-0.06l1.32-0.359l-0.061,0.06l0.601-0.3l0.6-0.36l0.54-0.42h-0.06l0.96-0.96v0.06l0.42-0.54l0.359-0.6l0.301-0.6l-0.061,0.06
	l0.24-0.66l0.18-0.72v0.06l0.061-0.659l0.06-0.721v0.061l0.48-0.061v0.061c-0.032,5.611-5.877,8.873-10.801,6.42l-0.6-0.36v-0.06
	l-0.54-0.42"/>
<polyline points="99.84,106.74 71.46,120.96 71.22,120.96 71.46,120.54 99.84,134.7 99.84,135.12 99.6,134.7 127.92,120.54 
	128.16,120.54 128.64,120.78 128.16,120.96 99.72,135.18 99.6,135.12 71.22,120.96 70.86,120.78 71.22,120.54 99.6,106.32 "/>
<polyline points="127.92,120.96 99.6,106.74 99.6,106.32 99.72,106.26 99.84,106.32 128.16,120.54 "/>
<text transform="matrix(1 0 0 1 88.3799 121.2002)"><tspan x="0" y="0" style="font-family:'ProductusBook'; font-size:7.98;">o</tspan><tspan x="3.838" y="0" style="font-family:'ProductusBook'; font-size:7.98;">k</tspan></text>
<rect x="142.2" y="156.12" style="fill:#FFFFFF;" width="56.7" height="21.3"/>
<rect x="142.2" y="155.88" width="56.939" height="0.48"/>
<rect x="198.66" y="156.12" width="0.479" height="21.54"/>
<rect x="141.96" y="177.18" width="56.94" height="0.479"/>
<rect x="141.96" y="155.88" width="0.48" height="21.541"/>
<text transform="matrix(1 0 0 1 145.7402 163.2603)" style="font-family:'ProductusBook'; font-size:7.98;">rollback</text>
<rect x="0.48" y="156.12" style="fill:#FFFFFF;" width="56.7" height="21.3"/>
<rect x="0.48" y="155.88" width="56.94" height="0.48"/>
<rect x="56.94" y="156.12" width="0.48" height="21.54"/>
<rect x="0.24" y="177.18" width="56.94" height="0.479"/>
<rect x="0.24" y="155.88" width="0.48" height="21.541"/>
<text transform="matrix(1 0 0 1 4.02 163.2603)"><tspan x="0" y="0" style="font-family:'ProductusBook'; font-size:7.98;">p</tspan><tspan x="3.663" y="0" style="font-family:'ProductusBook'; font-size:7.98;">r</tspan><tspan x="5.937" y="0" style="font-family:'ProductusBook'; font-size:7.98;">e</tspan><tspan x="9.472" y="0" style="font-family:'ProductusBook'; font-size:7.98;">p</tspan><tspan x="13.135" y="0" style="font-family:'ProductusBook'; font-size:7.98;">a</tspan><tspan x="16.495" y="0" style="font-family:'ProductusBook'; font-size:7.98;">r</tspan><tspan x="18.721" y="0" style="font-family:'ProductusBook'; font-size:7.98;">e</tspan></text>
<rect x="0.48" y="234.12" style="fill:#FFFFFF;" width="56.7" height="21.24"/>
<rect x="0.48" y="233.88" width="56.94" height="0.479"/>
<rect x="56.94" y="234.12" width="0.48" height="21.48"/>
<rect x="0.24" y="255.12" width="56.94" height="0.48"/>
<rect x="0.24" y="233.88" width="0.48" height="21.479"/>
<text transform="matrix(1 0 0 1 4.02 241.1997)"><tspan x="0" y="0" style="font-family:'ProductusBook'; font-size:7.98;">c</tspan><tspan x="3" y="0" style="font-family:'ProductusBook'; font-size:7.98;">ommit</tspan></text>
<rect x="99.48" y="14.16" width="0.479" height="0.24"/>
<rect x="99.48" y="14.4" width="0.479" height="21.48"/>
<rect x="99.48" y="56.7" width="0.479" height="0.24"/>
<rect x="99.48" y="56.94" width="0.479" height="14.4"/>
<rect x="99.48" y="92.1" width="0.479" height="0.24"/>
<rect x="99.48" y="92.34" width="0.479" height="14.4"/>
<rect x="127.8" y="120.48" width="43.021" height="0.48"/>
<rect x="170.34" y="120.72" width="0.48" height="35.64"/>
<polyline points="28.98,191.82 0.6,205.98 0.36,205.98 0.6,205.56 28.98,219.72 28.98,220.14 28.74,219.72 57.06,205.56 
	57.3,205.56 57.78,205.8 57.3,205.98 28.86,220.2 28.74,220.14 0.36,205.98 0,205.8 0.36,205.56 28.74,191.4 "/>
<polyline points="57.06,205.98 28.74,191.82 28.74,191.4 28.86,191.34 57.3,205.56 "/>
<text transform="matrix(1 0 0 1 17.52 206.2798)" style="font-family:'ProductusBook'; font-size:7.98;">ok</text>
<rect x="28.62" y="120.48" width="42.96" height="0.48"/>
<rect x="28.62" y="120.72" width="0.48" height="35.64"/>
<rect x="28.62" y="177.18" width="0.48" height="0.24"/>
<rect x="28.62" y="177.42" width="0.48" height="14.399"/>
<rect x="28.62" y="219.66" width="0.48" height="0.24"/>
<rect x="28.62" y="219.9" width="0.48" height="14.46"/>
<rect x="56.94" y="205.5" width="43.02" height="0.479"/>
<rect x="99.48" y="148.8" width="0.479" height="56.94"/>
<rect x="99.72" y="148.8" width="71.101" height="0.48"/>
<rect x="56.94" y="240.96" width="0.24" height="0.479"/>
<rect x="57.18" y="240.96" width="106.56" height="0.479"/>
<rect x="170.34" y="177.18" width="0.48" height="0.24"/>
<rect x="170.34" y="177.42" width="0.48" height="56.939"/>
<text transform="matrix(1 0 0 1 50.1001 118.7998)"><tspan x="0" y="0" style="font-family:'ProductusOSGiBookc'; font-size:7.98;">y</tspan><tspan x="3" y="0" style="font-family:'ProductusOSGiBookc'; font-size:7.98;">e</tspan><tspan x="6.479" y="0" style="font-family:'ProductusOSGiBookc'; font-size:7.98;">s</tspan></text>
<text transform="matrix(1 0 0 1 30.96 228.2397)"><tspan x="0" y="0" style="font-family:'ProductusOSGiBookc'; font-size:7.98;">y</tspan><tspan x="3" y="0" style="font-family:'ProductusOSGiBookc'; font-size:7.98;">e</tspan><tspan x="6.479" y="0" style="font-family:'ProductusOSGiBookc'; font-size:7.98;">s</tspan></text>
<text transform="matrix(1 0 0 1 61.9199 202.4995)"><tspan x="0" y="0" style="font-family:'ProductusOSGiBookc'; font-size:7.98;">n</tspan><tspan x="3.655" y="0" style="font-family:'ProductusOSGiBookc'; font-size:7.98;">o</tspan></text>
<rect x="71.34" y="35.64" style="fill:#FFFFFF;" width="56.7" height="21.3"/>
<rect x="71.34" y="35.4" width="56.94" height="0.48"/>
<rect x="127.8" y="35.64" width="0.48" height="21.54"/>
<rect x="71.1" y="56.7" width="56.94" height="0.48"/>
<rect x="71.1" y="35.4" width="0.48" height="21.54"/>
<text transform="matrix(1 0 0 1 74.8799 42.7798)"><tspan x="0" y="0" style="font-family:'ProductusBook'; font-size:7.98;">b</tspan><tspan x="3.711" y="0" style="font-family:'ProductusBook'; font-size:7.98;">e</tspan><tspan x="7.198" y="0" style="font-family:'ProductusBook'; font-size:7.98;">g</tspan><tspan x="10.685" y="0" style="font-family:'ProductusBook'; font-size:7.98;">in</tspan></text>
</svg>
