<?xml version="1.0" encoding="utf-8"?>
<!-- Generator: Adobe Illustrator 16.0.1, SVG Export Plug-In . SVG Version: 6.00 Build 0)  -->
<!DOCTYPE svg PUBLIC "-//W3C//DTD SVG 1.1//EN" "http://www.w3.org/Graphics/SVG/1.1/DTD/svg11.dtd">
<svg version="1.1" id="Layer_1" xmlns="http://www.w3.org/2000/svg" xmlns:xlink="http://www.w3.org/1999/xlink" x="0px" y="0px"
	 width="234.359px" height="29.7px" viewBox="0 0 234.359 29.7" enable-background="new 0 0 234.359 29.7" xml:space="preserve">
<rect x="179.76" y="2.46" width="54.36" height="27"/>
<rect x="179.76" y="2.221" width="54.6" height="0.479"/>
<rect x="233.88" y="2.46" width="0.479" height="27.24"/>
<rect x="179.52" y="29.221" width="54.602" height="0.479"/>
<rect x="179.52" y="2.221" width="0.48" height="27.238"/>
<rect x="177.42" y="0.66" fill="#FFFFFF" width="54.3" height="27"/>
<rect x="177.42" y="0.421" width="54.54" height="0.479"/>
<rect x="231.48" y="0.66" width="0.48" height="27.24"/>
<rect x="177.18" y="27.42" width="54.54" height="0.479"/>
<rect x="177.18" y="0.421" width="0.48" height="27.24"/>
<text transform="matrix(1 0 0 1 179.76 7.8013)" font-family="'ProductusOSGiBookc'" font-size="7.98">&lt;&lt;binding-type&gt;&gt;</text>
<text transform="matrix(0.9504 0 0 1 179.76 17.3774)" font-family="'ProductusOSGiBookc'" font-size="7.98">sca:binding.ws</text>
<rect x="2.58" y="2.04" width="54.359" height="27"/>
<rect x="2.58" y="1.801" width="54.6" height="0.479"/>
<rect x="56.7" y="2.04" width="0.479" height="27.24"/>
<rect x="2.34" y="28.801" width="54.6" height="0.479"/>
<rect x="2.34" y="1.801" width="0.479" height="27.239"/>
<rect x="0.24" y="0.24" fill="#FFFFFF" width="54.3" height="27"/>
<rect x="0.24" width="54.539" height="0.48"/>
<rect x="54.3" y="0.24" width="0.479" height="27.24"/>
<rect x="0" y="27" width="54.54" height="0.479"/>
<rect x="0" width="0.479" height="27.241"/>
<text transform="matrix(1 0 0 1 2.5803 7.3208)" font-family="'ProductusOSGiBookc'" font-size="7.98">&lt;&lt;intent&gt;&gt;</text>
<text transform="matrix(0.9504 0 0 1 2.5803 16.897)" font-family="'ProductusOSGiBookc'" font-size="7.98">acme:protection</text>
<rect x="56.7" y="14.58" width="0.239" height="0.48"/>
<rect x="56.94" y="14.58" width="120.721" height="0.48"/>
<text transform="matrix(1 0 0 1 99.4207 7.7407)" font-family="'ProductusOSGiBookc'" font-size="9">constrains</text>
</svg>
