<?xml version="1.0" encoding="utf-8"?>
<!-- Generator: Adobe Illustrator 16.0.0, SVG Export Plug-In . SVG Version: 6.00 Build 0)  -->
<!DOCTYPE svg PUBLIC "-//W3C//DTD SVG 1.1//EN" "http://www.w3.org/Graphics/SVG/1.1/DTD/svg11.dtd">
<svg version="1.1" id="Layer_1" xmlns="http://www.w3.org/2000/svg" xmlns:xlink="http://www.w3.org/1999/xlink" x="0px" y="0px"
	 width="245.617px" height="99.66px" viewBox="0 0 245.617 99.66" style="enable-background:new 0 0 245.617 99.66;"
	 xml:space="preserve">
<rect x="80.58" y="2.04" width="54.36" height="27"/>
<rect x="80.58" y="1.8" width="54.6" height="0.479"/>
<rect x="134.7" y="2.04" width="0.479" height="27.239"/>
<rect x="80.34" y="28.8" width="54.601" height="0.479"/>
<rect x="80.34" y="1.8" width="0.48" height="27.24"/>
<rect x="78.24" y="0.24" style="fill:#FFFFFF;" width="54.3" height="27"/>
<rect x="78.24" width="54.54" height="0.479"/>
<rect x="132.3" y="0.24" width="0.48" height="27.239"/>
<rect x="78" y="27" width="54.54" height="0.479"/>
<rect x="78" width="0.48" height="27.24"/>
<text transform="matrix(1 0 0 1 80.5801 7.3799)"><tspan x="0" y="0" style="font-family:'ProductusSemibold'; font-size:7.98;">sca-con</tspan><tspan x="26.572" y="0" style="font-family:'ProductusSemibold'; font-size:7.98;">f</tspan><tspan x="29.206" y="0" style="font-family:'ProductusSemibold'; font-size:7.98;">i</tspan><tspan x="31.377" y="0" style="font-family:'ProductusSemibold'; font-size:7.98;">g</tspan></text>
<text transform="matrix(1 0 0 1 80.5801 15.8398)"><tspan x="0" y="0" style="font-family:'ProductusSemibold'; font-size:7.98;">@</tspan><tspan x="8.395" y="0" style="font-family:'ProductusSemibold'; font-size:7.98;">t</tspan><tspan x="11.571" y="0" style="font-family:'ProductusSemibold'; font-size:7.98;">ar</tspan><tspan x="18.474" y="0" style="font-family:'ProductusSemibold'; font-size:7.98;">g</tspan><tspan x="22.432" y="0" style="font-family:'ProductusSemibold'; font-size:7.98;">e</tspan><tspan x="26.565" y="0" style="font-family:'ProductusSemibold'; font-size:7.98;">t</tspan><tspan x="29.669" y="0" style="font-family:'ProductusSemibold'; font-size:7.98;">-</tspan></text>
<text transform="matrix(1 0 0 1 80.5801 24.3594)"><tspan x="0" y="0" style="font-family:'ProductusSemibold'; font-size:7.98;"> </tspan><tspan x="1.979" y="0" style="font-family:'ProductusSemibold'; font-size:7.98;"> </tspan><tspan x="4.014" y="0" style="font-family:'ProductusSemibold'; font-size:7.98;">  </tspan><tspan x="7.972" y="0" style="font-family:'ProductusSemibold'; font-size:7.98;"> </tspan><tspan x="10.007" y="0" style="font-family:'ProductusSemibold'; font-size:7.98;">Na</tspan><tspan x="19.256" y="0" style="font-family:'ProductusSemibold'; font-size:7.98;">m</tspan><tspan x="25.671" y="0" style="font-family:'ProductusSemibold'; font-size:7.98;">e</tspan><tspan x="29.749" y="0" style="font-family:'ProductusSemibold'; font-size:7.98;">spac</tspan><tspan x="44.967" y="0" style="font-family:'ProductusSemibold'; font-size:7.98;">e</tspan></text>
<rect x="80.58" y="72" width="54.36" height="27"/>
<rect x="80.58" y="71.76" width="54.6" height="0.48"/>
<rect x="134.7" y="72" width="0.479" height="27.24"/>
<rect x="80.34" y="98.76" width="54.601" height="0.48"/>
<rect x="80.34" y="71.76" width="0.48" height="27.24"/>
<rect x="78.24" y="70.2" style="fill:#FFFFFF;" width="54.3" height="27"/>
<rect x="78.24" y="69.96" width="54.54" height="0.479"/>
<rect x="132.3" y="70.2" width="0.48" height="27.239"/>
<rect x="78" y="96.96" width="54.54" height="0.479"/>
<rect x="78" y="69.96" width="0.48" height="27.24"/>
<text transform="matrix(1 0 0 1 80.5801 77.3398)"><tspan x="0" y="0" style="font-family:'ProductusSemibold'; font-size:7.98;">i</tspan><tspan x="2.162" y="0" style="font-family:'ProductusSemibold'; font-size:7.98;">n</tspan><tspan x="6.479" y="0" style="font-family:'ProductusSemibold'; font-size:7.98;">ten</tspan><tspan x="17.971" y="0" style="font-family:'ProductusSemibold'; font-size:7.98;">t</tspan></text>
<rect x="158.521" y="72.42" width="54.359" height="27"/>
<rect x="158.521" y="72.18" width="54.6" height="0.48"/>
<rect x="212.64" y="72.42" width="0.48" height="27.24"/>
<rect x="158.28" y="99.18" width="54.6" height="0.48"/>
<rect x="158.28" y="72.18" width="0.479" height="27.24"/>
<rect x="156.18" y="70.62" style="fill:#FFFFFF;" width="54.301" height="27"/>
<rect x="156.18" y="70.38" width="54.54" height="0.479"/>
<rect x="210.24" y="70.62" width="0.479" height="27.239"/>
<rect x="155.94" y="97.38" width="54.54" height="0.479"/>
<rect x="155.94" y="70.38" width="0.479" height="27.24"/>
<text transform="matrix(1 0 0 1 158.5205 77.7598)"><tspan x="0" y="0" style="font-family:'ProductusSemibold'; font-size:7.98;">p</tspan><tspan x="4.301" y="0" style="font-family:'ProductusSemibold'; font-size:7.98;">olicySe</tspan><tspan x="29.095" y="0" style="font-family:'ProductusSemibold'; font-size:7.98;">t</tspan></text>
<rect x="2.64" y="72" width="54.3" height="27"/>
<rect x="2.64" y="71.76" width="54.54" height="0.48"/>
<rect x="56.7" y="72" width="0.48" height="27.24"/>
<rect x="2.4" y="98.76" width="54.54" height="0.48"/>
<rect x="2.4" y="71.76" width="0.48" height="27.24"/>
<rect x="0.24" y="70.2" style="fill:#FFFFFF;" width="54.36" height="27"/>
<rect x="0.24" y="69.96" width="54.6" height="0.479"/>
<rect x="54.36" y="70.2" width="0.48" height="27.239"/>
<rect y="96.96" width="54.6" height="0.479"/>
<rect y="69.96" width="0.48" height="27.24"/>
<text transform="matrix(1 0 0 1 2.6401 77.3398)"><tspan x="0" y="0" style="font-family:'ProductusSemibold'; font-size:7.98;">&lt;&lt;bind</tspan><tspan x="22.248" y="0" style="font-family:'ProductusSemibold'; font-size:7.98;">i</tspan><tspan x="24.466" y="0" style="font-family:'ProductusSemibold'; font-size:7.98;">ng&gt;</tspan><tspan x="36.348" y="0" style="font-family:'ProductusSemibold'; font-size:7.98;">&gt;</tspan></text>
<rect x="106.32" y="28.319" width="0.479" height="0.24"/>
<rect x="106.32" y="28.56" width="0.479" height="14.4"/>
<polyline points="106.62,50.1 106.86,50.04 106.74,49.56 106.5,49.62 "/>
<polyline points="28.68,71.34 28.44,71.399 28.32,70.92 28.56,70.859 "/>
<polyline points="106.62,50.1 106.5,49.62 28.56,70.859 28.68,71.34 "/>
<polyline points="106.62,49.62 106.38,49.56 106.26,50.04 106.5,50.1 "/>
<polyline points="184.561,70.859 184.8,70.92 184.68,71.399 184.44,71.34 "/>
<polyline points="106.62,49.62 106.5,50.1 184.44,71.34 184.561,70.859 "/>
<rect x="106.32" y="49.62" width="0.479" height="0.239"/>
<rect x="106.32" y="49.859" width="0.479" height="21.48"/>
<polyline style="fill-rule:evenodd;clip-rule:evenodd;fill:#FFFFFF;" points="113.64,49.859 113.64,49.08 113.521,48.42 
	113.34,47.7 113.1,47.1 112.8,46.439 112.44,45.899 112.021,45.3 111.6,44.819 111.061,44.34 110.521,43.979 109.92,43.62 
	109.32,43.319 108.66,43.08 108,42.899 107.28,42.779 106.561,42.72 105.84,42.779 105.12,42.899 104.46,43.08 103.8,43.319 
	103.2,43.62 102.6,43.979 102.061,44.34 101.1,45.3 100.68,45.899 100.32,46.439 100.021,47.1 99.78,47.7 99.6,48.42 99.54,49.08 
	99.48,49.859 99.54,50.58 99.6,51.24 99.78,51.96 100.021,52.62 100.32,53.22 100.68,53.819 101.1,54.359 102.061,55.319 
	102.6,55.74 103.8,56.34 104.46,56.58 105.12,56.76 105.84,56.88 106.561,56.939 107.28,56.88 108,56.76 108.66,56.58 109.32,56.34 
	110.521,55.74 111.061,55.319 111.6,54.84 112.021,54.359 112.44,53.819 112.8,53.22 113.1,52.62 113.34,51.96 113.521,51.24 
	113.64,50.58 113.64,49.859 "/>
<polyline points="113.4,49.859 113.4,49.08 113.4,49.14 113.28,48.479 113.1,47.76 113.16,47.819 112.92,47.22 112.62,46.56 
	112.26,46.02 112.26,46.08 111.84,45.479 111.42,45 111.48,45 110.94,44.52 110.94,44.58 110.4,44.22 109.8,43.859 109.2,43.56 
	109.26,43.56 108.6,43.319 107.94,43.14 108,43.14 107.28,43.02 106.561,42.96 106.62,42.96 105.9,43.02 105.18,43.14 
	104.521,43.319 104.58,43.319 103.92,43.56 103.32,43.859 102.72,44.22 102.18,44.58 102.24,44.52 101.28,45.479 101.34,45.479 
	100.92,46.08 100.92,46.02 100.561,46.56 100.26,47.22 100.021,47.819 100.021,47.76 99.84,48.479 99.78,49.14 99.72,49.92 
	99.72,49.859 99.78,50.58 99.84,51.24 99.84,51.18 100.021,51.899 100.26,52.56 100.26,52.5 100.561,53.1 100.92,53.7 100.86,53.7 
	101.28,54.24 101.28,54.18 102.24,55.14 101.94,55.5 101.88,55.5 100.92,54.54 100.5,54 100.5,53.939 100.14,53.34 99.84,52.74 
	99.78,52.74 99.54,52.08 99.54,52.02 99.36,51.3 99.3,50.64 99.24,49.92 99.24,49.859 99.3,49.08 99.36,48.42 99.36,48.359 
	99.54,47.64 99.6,47.64 99.84,47.04 100.14,46.38 100.14,46.319 100.5,45.779 100.92,45.18 100.92,45.12 101.88,44.16 101.94,44.16 
	102.48,43.8 103.08,43.439 103.68,43.14 103.74,43.08 104.4,42.84 105.061,42.66 105.12,42.66 105.84,42.54 106.561,42.479 
	106.62,42.479 107.34,42.54 108.061,42.66 108.72,42.84 108.78,42.84 109.44,43.08 109.44,43.14 110.04,43.439 110.64,43.8 
	111.18,44.16 111.24,44.16 111.78,44.64 111.78,44.7 112.2,45.18 112.26,45.18 112.68,45.779 113.04,46.319 113.04,46.38 
	113.34,47.04 113.58,47.64 113.76,48.359 113.76,48.42 113.88,49.08 113.88,49.859 "/>
<polyline points="102.24,55.14 102.78,55.56 102.72,55.56 103.92,56.16 103.92,56.1 104.58,56.34 104.521,56.34 105.18,56.52 
	105.9,56.64 106.62,56.7 106.561,56.7 107.28,56.64 108,56.52 107.94,56.52 108.6,56.34 109.26,56.1 109.2,56.16 110.4,55.56 
	110.94,55.14 111.48,54.66 111.42,54.72 111.84,54.24 112.26,53.7 112.62,53.1 112.92,52.5 112.86,52.56 113.1,51.899 113.28,51.18 
	113.28,51.24 113.4,50.58 113.4,49.859 113.88,49.859 113.88,50.64 113.76,51.3 113.58,52.02 113.58,52.08 113.34,52.74 
	113.04,53.34 112.68,53.939 112.62,54 112.2,54.54 111.78,55.02 111.24,55.5 110.7,55.92 110.64,55.979 109.44,56.58 108.78,56.819 
	108.72,56.819 108.061,57 107.34,57.12 106.62,57.18 106.561,57.18 105.84,57.12 105.12,57 105.061,57 104.4,56.819 103.74,56.58 
	103.68,56.58 102.48,55.979 102.48,55.92 101.94,55.5 "/>
<polyline style="fill-rule:evenodd;clip-rule:evenodd;fill:#FFFFFF;" points="219.96,14.399 219.84,12.96 219.66,12.3 219.42,11.64 
	219.12,11.04 218.76,10.439 218.34,9.899 217.86,9.359 217.38,8.939 216.84,8.52 216.24,8.16 215.64,7.859 214.98,7.62 
	214.32,7.439 213.6,7.319 212.16,7.319 211.44,7.439 210.78,7.62 210.12,7.859 209.521,8.16 208.92,8.52 207.84,9.359 207,10.439 
	206.64,11.04 206.34,11.64 206.1,12.3 205.92,12.96 205.8,13.68 205.8,15.12 205.92,15.84 206.1,16.5 206.34,17.16 206.64,17.76 
	207,18.359 207.84,19.439 208.92,20.279 209.521,20.64 210.12,20.939 210.78,21.18 211.44,21.359 212.16,21.42 212.88,21.479 
	213.6,21.42 214.32,21.359 214.98,21.18 215.64,20.939 216.24,20.64 216.84,20.279 217.38,19.859 217.86,19.439 218.34,18.899 
	218.76,18.359 219.12,17.76 219.42,17.16 219.66,16.5 219.84,15.84 219.96,14.399 "/>
<polyline points="219.72,14.46 219.6,13.02 219.42,12.359 219.42,12.42 219.18,11.76 219.24,11.76 218.94,11.16 218.58,10.56 
	218.58,10.62 218.16,10.08 217.68,9.54 217.74,9.54 217.26,9.12 216.72,8.7 216.72,8.76 216.12,8.399 215.521,8.1 215.58,8.1 
	214.92,7.859 214.26,7.68 214.32,7.68 213.6,7.56 212.16,7.56 212.22,7.56 211.5,7.68 210.84,7.859 210.9,7.859 210.24,8.1 
	209.64,8.399 209.04,8.76 209.1,8.7 208.021,9.54 207.18,10.62 207.24,10.56 206.88,11.16 206.58,11.76 206.34,12.42 206.34,12.359 
	206.16,13.02 206.04,13.74 206.04,13.68 206.04,15.12 206.16,15.84 206.16,15.779 206.34,16.439 206.58,17.1 206.58,17.04 
	206.88,17.64 207.24,18.24 207.18,18.24 208.021,19.319 208.021,19.26 208.561,19.68 208.26,20.04 207.72,19.62 207.66,19.62 
	206.82,18.54 206.82,18.479 206.46,17.88 206.16,17.279 206.1,17.279 205.86,16.62 205.86,16.56 205.68,15.899 205.561,15.18 
	205.561,13.68 205.68,12.96 205.68,12.899 205.86,12.24 206.1,11.58 206.16,11.52 206.46,10.92 206.82,10.319 207.66,9.24 
	207.72,9.18 208.8,8.34 209.4,7.979 210,7.68 210.061,7.62 210.72,7.38 211.38,7.2 211.44,7.2 212.16,7.08 213.66,7.08 214.38,7.2 
	215.04,7.38 215.1,7.38 215.76,7.62 215.76,7.68 216.36,7.979 216.96,8.34 217.021,8.34 217.561,8.76 218.04,9.18 218.04,9.24 
	218.521,9.779 218.94,10.319 219,10.319 219.36,10.92 219.66,11.52 219.66,11.58 219.9,12.24 220.08,12.899 220.08,12.96 
	220.2,14.399 "/>
<polyline points="208.561,19.68 209.1,20.1 209.04,20.1 209.64,20.46 210.24,20.76 210.24,20.7 210.9,20.939 210.84,20.939 
	211.5,21.12 212.94,21.24 212.88,21.24 213.6,21.18 214.32,21.12 214.26,21.12 214.92,20.939 215.58,20.7 215.521,20.76 
	216.12,20.46 216.72,20.1 217.26,19.68 217.74,19.26 217.68,19.319 218.16,18.779 218.58,18.24 218.94,17.64 219.24,17.04 
	219.18,17.1 219.42,16.439 219.6,15.779 219.6,15.84 219.72,14.399 219.72,14.46 220.2,14.399 220.2,14.46 220.08,15.899 
	219.9,16.56 219.9,16.62 219.66,17.279 219.36,17.88 219,18.479 218.94,18.54 218.521,19.08 218.04,19.62 217.561,20.04 
	217.021,20.46 216.96,20.52 216.36,20.88 215.76,21.18 215.1,21.42 215.04,21.42 214.38,21.6 213.66,21.66 212.94,21.72 
	212.88,21.72 212.16,21.66 211.44,21.6 211.38,21.6 210.72,21.42 210.061,21.18 210,21.18 209.4,20.88 208.8,20.52 208.8,20.46 
	208.26,20.04 "/>
<text transform="matrix(1 0 0 1 227.04 15.1201)"><tspan x="0" y="0" style="font-family:'ProductusOSGiBookc'; font-size:7.98;">choic</tspan><tspan x="15.105" y="0" style="font-family:'ProductusOSGiBookc'; font-size:7.98;">e</tspan></text>
<text transform="matrix(1 0 0 1 113.6406 35.9395)" style="font-family:'ProductusOSGiBookc'; font-size:7.98;">*</text>
</svg>
