<?xml version="1.0" encoding="utf-8"?>
<!-- Generator: Adobe Illustrator 16.0.1, SVG Export Plug-In . SVG Version: 6.00 Build 0)  -->
<!DOCTYPE svg PUBLIC "-//W3C//DTD SVG 1.1//EN" "http://www.w3.org/Graphics/SVG/1.1/DTD/svg11.dtd">
<svg version="1.1" id="Layer_1" xmlns="http://www.w3.org/2000/svg" xmlns:xlink="http://www.w3.org/1999/xlink" x="0px" y="0px"
	 width="300.911px" height="177.66px" viewBox="0 0 300.911 177.66" enable-background="new 0 0 300.911 177.66"
	 xml:space="preserve">
<rect x="101.58" y="2.04" width="54.36" height="27"/>
<rect x="101.58" y="1.8" width="54.6" height="0.479"/>
<rect x="155.7" y="2.04" width="0.479" height="27.24"/>
<rect x="101.34" y="28.8" width="54.601" height="0.479"/>
<rect x="101.34" y="1.8" width="0.48" height="27.24"/>
<rect x="99.24" y="0.24" fill="#FFFFFF" width="54.299" height="27"/>
<rect x="99.24" width="54.54" height="0.48"/>
<rect x="153.299" y="0.24" width="0.48" height="27.24"/>
<rect x="99" y="27" width="54.54" height="0.48"/>
<rect x="99" width="0.48" height="27.24"/>
<text transform="matrix(0.9504 0 0 1 101.5801 7.3799)" font-family="'ProductusOSGiBookc'" font-size="7.98">&lt;&lt;XML type&gt;&gt;</text>
<text transform="matrix(0.9504 0 0 1 101.5801 15.8398)" font-family="'ProductusOSGiBookc'" font-size="7.98">binding type</text>
<rect x="101.58" y="65.34" width="54.36" height="27"/>
<rect x="101.58" y="65.1" width="54.6" height="0.48"/>
<rect x="155.7" y="65.34" width="0.479" height="27.24"/>
<rect x="101.34" y="92.1" width="54.601" height="0.48"/>
<rect x="101.34" y="65.1" width="0.48" height="27.24"/>
<rect x="99.24" y="63.54" fill="#FFFFFF" width="54.299" height="27"/>
<rect x="99.24" y="63.3" width="54.54" height="0.479"/>
<rect x="153.299" y="63.54" width="0.48" height="27.24"/>
<rect x="99" y="90.3" width="54.54" height="0.479"/>
<rect x="99" y="63.3" width="0.48" height="27.24"/>
<text transform="matrix(0.9504 0 0 1 101.5801 70.6797)" font-family="'ProductusOSGiBookc'" font-size="7.98">&lt;&lt;binding&gt;&gt;</text>
<rect x="44.88" y="136.2" width="54.36" height="27"/>
<rect x="44.88" y="135.96" width="54.601" height="0.479"/>
<rect x="99" y="136.2" width="0.48" height="27.239"/>
<rect x="44.64" y="162.96" width="54.6" height="0.479"/>
<rect x="44.64" y="135.96" width="0.48" height="27.24"/>
<rect x="42.54" y="134.4" fill="#FFFFFF" width="54.3" height="27"/>
<rect x="42.54" y="134.16" width="54.54" height="0.48"/>
<rect x="96.6" y="134.4" width="0.48" height="27.24"/>
<rect x="42.3" y="161.16" width="54.54" height="0.48"/>
<rect x="42.3" y="134.16" width="0.48" height="27.24"/>
<text transform="matrix(0.9504 0 0 1 44.8799 141.54)" font-family="'ProductusOSGiBookc'" font-size="7.98">&lt;&lt;XML element&gt;&gt;</text>
<text transform="matrix(0.9504 0 0 1 44.8799 150.0605)" font-family="'ProductusOSGiBookc'" font-size="7.98">intent</text>
<rect x="158.28" y="136.68" width="54.359" height="27"/>
<rect x="158.28" y="136.439" width="54.6" height="0.48"/>
<rect x="212.4" y="136.68" width="0.479" height="27.24"/>
<rect x="158.04" y="163.439" width="54.601" height="0.48"/>
<rect x="158.04" y="136.439" width="0.48" height="27.24"/>
<rect x="155.94" y="134.88" fill="#FFFFFF" width="54.301" height="27"/>
<rect x="155.94" y="134.641" width="54.54" height="0.479"/>
<rect x="210" y="134.88" width="0.479" height="27.24"/>
<rect x="155.7" y="161.641" width="54.541" height="0.479"/>
<rect x="155.7" y="134.641" width="0.479" height="27.239"/>
<text transform="matrix(0.9504 0 0 1 158.2798 142.0195)" font-family="'ProductusOSGiBookc'" font-size="7.98">&lt;&lt;XML element&gt;&gt;</text>
<text transform="matrix(0.9504 0 0 1 158.2798 150.4805)" font-family="'ProductusOSGiBookc'" font-size="7.98">policy Set</text>
<polyline points="37.32,149.04 37.38,146.939 37.38,146.1 38.1,146.52 41.76,148.62 42.54,149.1 41.82,149.52 38.16,151.68 
	37.38,152.1 37.38,151.2 37.62,150.78 41.28,148.62 41.82,149.52 41.28,149.52 37.62,147.42 38.1,146.52 38.4,146.939 38.34,149.04 
	"/>
<polyline points="37.38,151.2 37.32,149.04 38.34,149.04 38.4,151.2 "/>
<polyline points="37.8,149.04 37.86,146.939 41.52,149.04 37.86,151.2 "/>
<rect x="70.62" y="162.96" width="0.48" height="2.28"/>
<rect x="70.62" y="168.6" width="0.48" height="3.42"/>
<rect x="70.62" y="175.38" width="0.48" height="2.28"/>
<rect x="68.88" y="177.18" width="1.98" height="0.48"/>
<rect x="60.36" y="177.18" width="4.2" height="0.48"/>
<rect x="51.78" y="177.18" width="4.2" height="0.48"/>
<rect x="43.2" y="177.18" width="4.26" height="0.48"/>
<rect x="34.68" y="177.18" width="4.2" height="0.48"/>
<rect x="28.14" y="177.18" width="2.22" height="0.48"/>
<rect x="28.14" y="175.38" width="0.48" height="2.04"/>
<rect x="28.14" y="168.42" width="0.48" height="3.54"/>
<rect x="28.14" y="161.46" width="0.48" height="3.54"/>
<rect x="28.14" y="154.5" width="0.48" height="3.54"/>
<rect x="28.14" y="148.8" width="0.48" height="2.22"/>
<rect x="28.38" y="148.8" width="1.98" height="0.479"/>
<rect x="35.34" y="148.8" width="2.22" height="0.479"/>
<polyline points="85.021,129.72 88.08,129.72 87.6,130.5 85.44,134.16 85.021,134.939 84.54,134.1 82.44,130.439 82.021,129.72 
	82.92,129.72 83.34,129.96 85.44,133.62 84.54,134.1 84.54,133.62 86.7,129.96 87.6,130.5 87.18,130.74 85.021,130.74 "/>
<rect x="82.92" y="129.72" width="2.101" height="1.021"/>
<polyline points="85.021,130.2 87.18,130.2 85.021,133.859 82.92,130.2 "/>
<rect x="97.26" y="77.94" width="2.221" height="0.48"/>
<rect x="90.42" y="77.94" width="3.42" height="0.48"/>
<rect x="84.78" y="77.94" width="2.28" height="0.48"/>
<rect x="84.78" y="78.18" width="0.479" height="1.98"/>
<rect x="84.78" y="84.54" width="0.479" height="4.26"/>
<rect x="84.78" y="93.18" width="0.479" height="4.26"/>
<rect x="84.78" y="101.82" width="0.479" height="4.26"/>
<rect x="84.78" y="110.4" width="0.479" height="4.26"/>
<rect x="84.78" y="119.04" width="0.479" height="4.26"/>
<rect x="84.78" y="127.68" width="0.479" height="2.221"/>
<polyline points="94.021,21.48 94.021,18.42 94.8,18.9 98.521,21.06 99.36,21.48 98.521,21.96 94.8,24.12 94.021,24.6 94.021,23.64 
	94.26,23.22 97.98,21.06 98.521,21.96 97.98,21.96 94.26,19.8 94.8,18.9 95.04,19.32 95.04,21.48 "/>
<rect x="94.021" y="21.48" width="1.02" height="2.16"/>
<polyline points="94.5,21.48 94.5,19.32 98.22,21.48 94.5,23.64 "/>
<rect x="70.62" y="134.88" width="0.48" height="0.24"/>
<rect x="70.62" y="132.9" width="0.48" height="1.979"/>
<rect x="70.62" y="128.58" width="0.48" height="0.24"/>
<rect x="70.62" y="124.8" width="0.48" height="3.78"/>
<rect x="70.62" y="120.48" width="0.48" height="0.239"/>
<rect x="70.62" y="116.7" width="0.48" height="3.78"/>
<rect x="70.62" y="112.38" width="0.48" height="0.24"/>
<rect x="70.62" y="108.6" width="0.48" height="3.78"/>
<rect x="70.62" y="100.5" width="0.48" height="4.02"/>
<rect x="70.62" y="92.4" width="0.48" height="4.02"/>
<rect x="70.62" y="84.24" width="0.48" height="4.08"/>
<rect x="70.62" y="76.14" width="0.48" height="4.08"/>
<rect x="70.62" y="68.04" width="0.48" height="4.02"/>
<rect x="70.62" y="59.94" width="0.48" height="4.02"/>
<rect x="70.62" y="51.84" width="0.48" height="4.02"/>
<rect x="70.62" y="43.74" width="0.48" height="4.021"/>
<rect x="70.62" y="35.64" width="0.48" height="4.02"/>
<rect x="70.62" y="27.54" width="0.48" height="4.02"/>
<rect x="70.62" y="21.24" width="0.48" height="2.22"/>
<rect x="70.86" y="21.24" width="1.98" height="0.479"/>
<rect x="76.68" y="21.24" width="3.84" height="0.479"/>
<rect x="84.36" y="21.24" width="3.84" height="0.479"/>
<rect x="92.04" y="21.24" width="2.22" height="0.479"/>
<polyline points="127.561,33.72 124.62,33.72 125.04,33 127.14,29.34 127.62,28.56 128.04,29.28 130.2,32.94 130.68,33.72 
	129.72,33.72 129.3,33.48 127.14,29.82 128.04,29.28 128.04,29.82 125.94,33.48 125.04,33 125.46,32.7 127.561,32.7 "/>
<rect x="127.561" y="32.7" width="2.159" height="1.02"/>
<polyline points="127.561,33.24 125.46,33.24 127.561,29.58 129.72,33.24 "/>
<rect x="127.32" y="33.54" width="0.479" height="30.72"/>
<polyline points="170.1,129.72 173.04,129.72 172.62,130.439 170.521,134.1 170.04,134.88 169.62,134.16 167.459,130.5 
	166.98,129.72 167.94,129.72 168.36,129.96 170.521,133.62 169.62,134.16 169.62,133.62 171.72,129.96 172.62,130.439 172.2,130.74 
	170.1,130.74 "/>
<rect x="167.94" y="129.72" width="2.159" height="1.021"/>
<polyline points="170.1,130.2 172.2,130.2 170.1,133.859 167.94,130.2 "/>
<rect x="155.7" y="77.94" width="2.221" height="0.48"/>
<rect x="161.28" y="77.94" width="3.479" height="0.48"/>
<rect x="168.12" y="77.94" width="2.221" height="0.48"/>
<rect x="169.86" y="78.18" width="0.479" height="1.98"/>
<rect x="169.86" y="84.54" width="0.479" height="4.26"/>
<rect x="169.86" y="93.18" width="0.479" height="4.26"/>
<rect x="169.86" y="101.82" width="0.479" height="4.26"/>
<rect x="169.86" y="110.4" width="0.479" height="4.26"/>
<rect x="169.86" y="119.04" width="0.479" height="4.26"/>
<rect x="169.86" y="127.68" width="0.479" height="0.24"/>
<rect x="169.86" y="127.92" width="0.479" height="1.98"/>
<polyline points="161.1,14.4 161.1,17.34 160.379,16.92 156.661,14.82 155.879,14.34 156.6,13.92 160.32,11.76 161.1,11.28 
	161.1,12.24 160.86,12.66 157.14,14.82 156.6,13.92 157.14,13.92 160.86,16.02 160.379,16.92 160.081,16.5 160.081,14.4 "/>
<rect x="160.081" y="12.24" width="1.02" height="2.16"/>
<polyline points="160.62,14.4 160.62,16.5 156.9,14.4 160.62,12.24 "/>
<rect x="191.1" y="134.88" width="0.48" height="0.24"/>
<rect x="191.1" y="132.9" width="0.48" height="1.979"/>
<rect x="191.1" y="128.58" width="0.48" height="0.24"/>
<rect x="191.1" y="124.859" width="0.48" height="3.721"/>
<rect x="191.1" y="120.6" width="0.48" height="0.24"/>
<rect x="191.1" y="116.82" width="0.48" height="3.779"/>
<rect x="191.1" y="112.561" width="0.48" height="0.239"/>
<rect x="191.1" y="108.78" width="0.48" height="3.78"/>
<rect x="191.1" y="104.52" width="0.48" height="0.24"/>
<rect x="191.1" y="100.74" width="0.48" height="3.779"/>
<rect x="191.1" y="96.48" width="0.48" height="0.239"/>
<rect x="191.1" y="92.7" width="0.48" height="3.78"/>
<rect x="191.1" y="88.44" width="0.48" height="0.24"/>
<rect x="191.1" y="84.66" width="0.48" height="3.78"/>
<rect x="191.1" y="80.4" width="0.48" height="0.24"/>
<rect x="191.1" y="76.68" width="0.48" height="3.72"/>
<rect x="191.1" y="68.64" width="0.48" height="3.96"/>
<rect x="191.1" y="60.6" width="0.48" height="3.96"/>
<rect x="191.1" y="52.56" width="0.48" height="4.02"/>
<rect x="191.1" y="44.52" width="0.48" height="4.02"/>
<rect x="191.1" y="36.48" width="0.48" height="4.02"/>
<rect x="191.1" y="28.44" width="0.48" height="4.02"/>
<rect x="191.1" y="20.4" width="0.48" height="4.02"/>
<rect x="191.1" y="14.16" width="0.48" height="2.22"/>
<rect x="189.36" y="14.16" width="1.979" height="0.48"/>
<rect x="181.86" y="14.16" width="3.779" height="0.48"/>
<rect x="174.36" y="14.16" width="3.779" height="0.48"/>
<rect x="166.86" y="14.16" width="3.721" height="0.48"/>
<rect x="160.86" y="14.16" width="2.221" height="0.48"/>
<polyline points="249.959,21.48 249.959,18.42 250.741,18.9 254.459,21.06 255.299,21.48 254.459,21.96 250.741,24.12 249.959,24.6 
	249.959,23.64 250.2,23.22 253.92,21.06 254.459,21.96 253.92,21.96 250.2,19.8 250.741,18.9 250.98,19.32 250.98,21.48 "/>
<rect x="249.959" y="21.48" width="1.021" height="2.16"/>
<polyline points="250.44,21.48 250.44,19.32 254.161,21.48 250.44,23.64 "/>
<rect x="233.64" y="21.24" width="2.221" height="0.479"/>
<rect x="239.879" y="21.24" width="4.021" height="0.479"/>
<rect x="247.92" y="21.24" width="2.279" height="0.479"/>
<polyline points="249.959,35.64 249.959,32.7 250.68,33.12 254.4,35.22 255.18,35.7 254.459,36.12 250.741,38.28 249.959,38.76 
	249.959,37.8 250.2,37.38 253.92,35.22 254.459,36.12 253.92,36.12 250.2,34.02 250.68,33.12 250.98,33.54 250.98,35.64 "/>
<rect x="249.959" y="35.64" width="1.021" height="2.16"/>
<polyline points="250.44,35.64 250.44,33.54 254.161,35.64 250.44,37.8 "/>
<rect x="233.64" y="35.4" width="16.562" height="0.48"/>
<text transform="matrix(0.9504 0 0 1 0 154.9199)" enable-background="new    "><tspan x="0" y="0" font-family="'ProductusOSGiBookc'" font-size="7.98">requires</tspan><tspan x="0" y="9.576" font-family="'ProductusOSGiBookc'" font-size="7.98">qualifies</tspan><tspan x="0" y="19.152" font-family="'ProductusOSGiBookc'" font-size="7.98">excludes</tspan></text>
<text transform="matrix(0.9504 0 0 1 119.04 145.7998)" font-family="'ProductusOSGiBookc'" font-size="7.98">provides</text>
<text transform="matrix(0.9504 0 0 1 269.0396 21.7793)" font-family="'ProductusOSGiBookc'" font-size="7.98">reference</text>
<text transform="matrix(0.9504 0 0 1 269.0396 35.9395)" font-family="'ProductusOSGiBookc'" font-size="7.98">instance of</text>
<text transform="matrix(0.9504 0 0 1 129 60.959)" font-family="'ProductusOSGiBookc'" font-size="7.98">*</text>
<text transform="matrix(0.9504 0 0 1 134.6406 35.9395)" font-family="'ProductusOSGiBookc'" font-size="7.98">1</text>
<text transform="matrix(1 0 0 1 233.8794 49.8008)" enable-background="new    "><tspan x="0" y="0" font-family="'ProductusBook'" font-size="7.98">cardinalities are n:m</tspan><tspan x="0" y="9.576" font-family="'ProductusBook'" font-size="7.98">unless otherwise noted</tspan></text>
<polyline points="104.4,149.04 104.4,152.1 103.62,151.62 99.9,149.46 99.12,149.04 99.96,148.561 103.68,146.46 104.4,146.04 
	104.4,146.939 104.16,147.359 100.44,149.46 99.96,148.561 100.44,148.561 104.16,150.72 103.62,151.62 103.38,151.2 103.38,149.04 
	"/>
<rect x="103.38" y="146.939" width="1.021" height="2.101"/>
<polyline points="103.92,149.04 103.92,151.2 100.2,149.04 103.92,146.939 "/>
<rect x="155.94" y="148.8" width="0.239" height="0.479"/>
<rect x="153.9" y="148.8" width="2.04" height="0.479"/>
<rect x="149.34" y="148.8" width="0.24" height="0.479"/>
<rect x="145.32" y="148.8" width="4.02" height="0.479"/>
<rect x="140.7" y="148.8" width="0.24" height="0.479"/>
<rect x="136.68" y="148.8" width="4.021" height="0.479"/>
<rect x="132.061" y="148.8" width="0.239" height="0.479"/>
<rect x="128.04" y="148.8" width="4.021" height="0.479"/>
<rect x="123.42" y="148.8" width="0.24" height="0.479"/>
<rect x="119.4" y="148.8" width="4.02" height="0.479"/>
<rect x="114.78" y="148.8" width="0.24" height="0.479"/>
<rect x="110.76" y="148.8" width="4.021" height="0.479"/>
<rect x="106.14" y="148.8" width="0.24" height="0.479"/>
<rect x="104.16" y="148.8" width="1.979" height="0.479"/>
<text transform="matrix(-5.819458e-17 0.9504 -1 -6.123242e-17 88.3203 92.3398)" font-family="'ProductusOSGiBookc'" font-size="7.98">requires</text>
<text transform="matrix(-5.819458e-17 0.9504 -1 -6.123242e-17 172.6196 92.3398)" font-family="'ProductusOSGiBookc'" font-size="7.98">policySets</text>
<polyline points="49.62,129.72 52.56,129.72 52.14,130.439 50.04,134.1 49.56,134.88 49.14,134.16 46.98,130.5 46.5,129.72 
	47.46,129.72 47.88,129.96 50.04,133.62 49.14,134.16 49.14,133.62 51.24,129.96 52.14,130.439 51.72,130.74 49.62,130.74 "/>
<rect x="47.46" y="129.72" width="2.16" height="1.021"/>
<polyline points="49.62,130.2 51.72,130.2 49.62,133.859 47.46,130.2 "/>
<rect x="97.26" y="7.08" width="2.221" height="0.48"/>
<rect x="88.92" y="7.08" width="4.141" height="0.48"/>
<rect x="80.64" y="7.08" width="4.141" height="0.48"/>
<rect x="72.36" y="7.08" width="4.14" height="0.48"/>
<rect x="64.08" y="7.08" width="4.08" height="0.48"/>
<rect x="55.8" y="7.08" width="4.08" height="0.48"/>
<rect x="49.38" y="7.08" width="2.22" height="0.48"/>
<rect x="49.38" y="7.32" width="0.48" height="1.98"/>
<rect x="49.38" y="13.38" width="0.48" height="4.08"/>
<rect x="49.38" y="21.6" width="0.48" height="4.02"/>
<rect x="49.38" y="29.76" width="0.48" height="4.021"/>
<rect x="49.38" y="37.92" width="0.48" height="4.02"/>
<rect x="49.38" y="46.08" width="0.48" height="4.02"/>
<rect x="49.38" y="54.24" width="0.48" height="4.021"/>
<rect x="49.38" y="62.4" width="0.48" height="4.02"/>
<rect x="49.38" y="70.56" width="0.48" height="4.02"/>
<rect x="49.38" y="78.72" width="0.48" height="4.021"/>
<rect x="49.38" y="86.88" width="0.48" height="4.021"/>
<rect x="49.38" y="95.04" width="0.48" height="4.021"/>
<rect x="49.38" y="103.2" width="0.48" height="4.02"/>
<rect x="49.38" y="111.359" width="0.48" height="4.021"/>
<rect x="49.38" y="119.52" width="0.48" height="4.08"/>
<rect x="49.38" y="127.68" width="0.48" height="2.221"/>
<text transform="matrix(-5.819458e-17 0.9504 -1 -6.123242e-17 44.4004 64.0195)" font-family="'ProductusOSGiBookc'" font-size="7.98">provides</text>
<text transform="matrix(-5.819458e-17 -0.9504 1 -6.123242e-17 123.7803 60.541)" font-family="'ProductusOSGiBookc'" font-size="7.98">instanceof</text>
<text transform="matrix(-5.819458e-17 -0.9504 1 -6.123242e-17 68.2197 86.6396)" font-family="'ProductusOSGiBookc'" font-size="7.98">constrains</text>
<text transform="matrix(-5.819458e-17 -0.9504 1 -6.123242e-17 197.52 91.6191)" font-family="'ProductusOSGiBookc'" font-size="7.98">appliesTo</text>
</svg>
