<?xml version="1.0" encoding="utf-8"?>
<!-- Generator: Adobe Illustrator 16.0.0, SVG Export Plug-In . SVG Version: 6.00 Build 0)  -->
<!DOCTYPE svg PUBLIC "-//W3C//DTD SVG 1.1//EN" "http://www.w3.org/Graphics/SVG/1.1/DTD/svg11.dtd">
<svg version="1.1" id="Layer_1" xmlns="http://www.w3.org/2000/svg" xmlns:xlink="http://www.w3.org/1999/xlink" x="0px" y="0px"
	 width="213.12px" height="248.52px" viewBox="0 0 213.12 248.52" style="enable-background:new 0 0 213.12 248.52;"
	 xml:space="preserve">
<rect x="106.32" y="198.42" width="0.48" height="0.24"/>
<rect x="106.32" y="198.66" width="0.48" height="28.56"/>
<polyline points="184.44,120.96 184.56,120.48 106.62,99.18 106.5,99.66 "/>
<rect x="106.32" y="148.8" width="0.48" height="0.24"/>
<rect x="106.32" y="149.04" width="0.48" height="42.78"/>
<rect x="80.58" y="5.28" width="54.3" height="73.32"/>
<rect x="80.58" y="5.04" width="54.54" height="0.48"/>
<rect x="134.64" y="5.28" width="0.479" height="73.56"/>
<rect x="80.339" y="78.36" width="54.54" height="0.48"/>
<rect x="80.339" y="5.04" width="0.48" height="73.56"/>
<rect x="78.18" y="0.24" style="fill:#FFFFFF;" width="54.36" height="75.66"/>
<rect x="78.18" width="54.6" height="0.48"/>
<rect x="132.3" y="0.24" width="0.479" height="75.9"/>
<rect x="77.94" y="75.66" width="54.6" height="0.48"/>
<rect x="77.94" width="0.48" height="75.9"/>
<text transform="matrix(1 0 0 1 80.5796 8.46)"><tspan x="0" y="0" style="font-family:'ProductusSemibold'; font-size:7.98;">polic</tspan><tspan x="16.622" y="0" style="font-family:'ProductusSemibold'; font-size:7.98;">y</tspan><tspan x="20.699" y="0" style="font-family:'ProductusSemibold'; font-size:7.98;">Se</tspan><tspan x="29.078" y="0" style="font-family:'ProductusSemibold'; font-size:7.98;">t</tspan></text>
<text transform="matrix(1 0 0 1 80.5796 16.9805)"><tspan x="0" y="0" style="font-family:'ProductusSemibold'; font-size:7.98;">@</tspan><tspan x="8.403" y="0" style="font-family:'ProductusSemibold'; font-size:7.98;">na</tspan><tspan x="16.622" y="0" style="font-family:'ProductusSemibold'; font-size:7.98;">m</tspan><tspan x="23.038" y="0" style="font-family:'ProductusSemibold'; font-size:7.98;">e</tspan></text>
<text transform="matrix(1 0 0 1 80.5796 25.4399)"><tspan x="0" y="0" style="font-family:'ProductusSemibold'; font-size:7.98;">@pr</tspan><tspan x="15.625" y="0" style="font-family:'ProductusSemibold'; font-size:7.98;">o</tspan><tspan x="19.822" y="0" style="font-family:'ProductusSemibold'; font-size:7.98;">vi</tspan><tspan x="25.982" y="0" style="font-family:'ProductusSemibold'; font-size:7.98;">d</tspan><tspan x="30.355" y="0" style="font-family:'ProductusSemibold'; font-size:7.98;">e</tspan><tspan x="34.434" y="0" style="font-family:'ProductusSemibold'; font-size:7.98;">s</tspan></text>
<text transform="matrix(1 0 0 1 80.5796 33.96)"><tspan x="0" y="0" style="font-family:'ProductusSemibold'; font-size:7.98;">@applies</tspan><tspan x="32.773" y="0" style="font-family:'ProductusSemibold'; font-size:7.98;">T</tspan><tspan x="36.436" y="0" style="font-family:'ProductusSemibold'; font-size:7.98;">o</tspan></text>
<text transform="matrix(1 0 0 1 80.5796 42.4805)"><tspan x="0" y="0" style="font-family:'ProductusSemibold'; font-size:7.98;">@attac</tspan><tspan x="26.206" y="0" style="font-family:'ProductusSemibold'; font-size:7.98;">h</tspan><tspan x="30.522" y="0" style="font-family:'ProductusSemibold'; font-size:7.98;">T</tspan><tspan x="34.186" y="0" style="font-family:'ProductusSemibold'; font-size:7.98;">o</tspan></text>
<rect x="2.58" y="122.04" width="54.36" height="27"/>
<rect x="2.58" y="121.8" width="54.6" height="0.479"/>
<rect x="56.7" y="122.04" width="0.48" height="27.24"/>
<rect x="2.34" y="148.8" width="54.6" height="0.479"/>
<rect x="2.34" y="121.8" width="0.48" height="27.24"/>
<rect x="0.24" y="120.24" style="fill:#FFFFFF;" width="54.36" height="27"/>
<rect x="0.24" y="120" width="54.6" height="0.48"/>
<rect x="54.36" y="120.24" width="0.48" height="27.24"/>
<rect y="147" width="54.6" height="0.48"/>
<rect y="120" width="0.48" height="27.24"/>
<text transform="matrix(1 0 0 1 2.5796 127.3799)"><tspan x="0" y="0" style="font-family:'ProductusSemibold'; font-size:7.98;">polic</tspan><tspan x="16.662" y="0" style="font-family:'ProductusSemibold'; font-size:7.98;">y</tspan><tspan x="20.7" y="0" style="font-family:'ProductusSemibold'; font-size:7.98;">S</tspan><tspan x="24.961" y="0" style="font-family:'ProductusSemibold'; font-size:7.98;">e</tspan><tspan x="29.086" y="0" style="font-family:'ProductusSemibold'; font-size:7.98;">t</tspan></text>
<text transform="matrix(1 0 0 1 2.5796 135.9004)"><tspan x="0" y="0" style="font-family:'ProductusSemibold'; font-size:7.98;"> </tspan><tspan x="2.035" y="0" style="font-family:'ProductusSemibold'; font-size:7.98;">  </tspan><tspan x="5.993" y="0" style="font-family:'ProductusSemibold'; font-size:7.98;"> </tspan><tspan x="8.028" y="0" style="font-family:'ProductusSemibold'; font-size:7.98;">R</tspan><tspan x="12.281" y="0" style="font-family:'ProductusSemibold'; font-size:7.98;">e</tspan><tspan x="16.415" y="0" style="font-family:'ProductusSemibold'; font-size:7.98;">f</tspan><tspan x="19.048" y="0" style="font-family:'ProductusSemibold'; font-size:7.98;">e</tspan><tspan x="23.182" y="0" style="font-family:'ProductusSemibold'; font-size:7.98;">re</tspan><tspan x="30.228" y="0" style="font-family:'ProductusSemibold'; font-size:7.98;">n</tspan><tspan x="34.545" y="0" style="font-family:'ProductusSemibold'; font-size:7.98;">c</tspan><tspan x="38.2" y="0" style="font-family:'ProductusSemibold'; font-size:7.98;">e</tspan></text>
<text transform="matrix(1 0 0 1.0522 2.5796 144.3599)"><tspan x="0" y="0" style="font-family:'ProductusOSGiBookc'; font-size:7.5841;">@na</tspan><tspan x="14.197" y="0" style="font-family:'ProductusOSGiBookc'; font-size:7.5841;">m</tspan><tspan x="19.604" y="0" style="font-family:'ProductusOSGiBookc'; font-size:7.5841;">e</tspan></text>
<text transform="matrix(1 0 0 1 95.3394 167.9399)"><tspan x="0" y="0" style="font-family:'ProductusOSGiBookc'; font-size:7.98;">1</tspan><tspan x="3.176" y="0" style="font-family:'ProductusOSGiBookc'; font-size:7.98;">..*</tspan></text>
<rect x="80.58" y="122.04" width="54.3" height="27"/>
<rect x="80.58" y="121.8" width="54.54" height="0.479"/>
<rect x="134.64" y="122.04" width="0.479" height="27.24"/>
<rect x="80.339" y="148.8" width="54.54" height="0.479"/>
<rect x="80.339" y="121.8" width="0.48" height="27.24"/>
<rect x="78.18" y="120.24" style="fill:#FFFFFF;" width="54.36" height="27"/>
<rect x="78.18" y="120" width="54.6" height="0.48"/>
<rect x="132.3" y="120.24" width="0.479" height="27.24"/>
<rect x="77.94" y="147" width="54.6" height="0.48"/>
<rect x="77.94" y="120" width="0.48" height="27.24"/>
<text transform="matrix(1 0 0 1 80.5796 127.3799)"><tspan x="0" y="0" style="font-family:'ProductusSemibold'; font-size:7.98;">inte</tspan><tspan x="13.653" y="0" style="font-family:'ProductusSemibold'; font-size:7.98;">n</tspan><tspan x="17.971" y="0" style="font-family:'ProductusSemibold'; font-size:7.98;">t</tspan><tspan x="21.091" y="0" style="font-family:'ProductusSemibold'; font-size:7.98;">Ma</tspan><tspan x="31.712" y="0" style="font-family:'ProductusSemibold'; font-size:7.98;">p</tspan></text>
<text transform="matrix(1 0 0 1.0522 80.5796 135.8999)"><tspan x="0" y="0" style="font-family:'ProductusOSGiBookc'; font-size:7.5841;">@p</tspan><tspan x="11.072" y="0" style="font-family:'ProductusOSGiBookc'; font-size:7.5841;">r</tspan><tspan x="12.999" y="0" style="font-family:'ProductusOSGiBookc'; font-size:7.5841;">o</tspan><tspan x="16.419" y="0" style="font-family:'ProductusOSGiBookc'; font-size:7.5841;">v</tspan><tspan x="19.415" y="0" style="font-family:'ProductusOSGiBookc'; font-size:7.5841;">i</tspan><tspan x="20.909" y="0" style="font-family:'ProductusOSGiBookc'; font-size:7.5841;">des</tspan></text>
<rect x="80.58" y="171.66" width="54.3" height="27"/>
<rect x="80.58" y="171.42" width="54.54" height="0.48"/>
<rect x="134.64" y="171.66" width="0.479" height="27.24"/>
<rect x="80.339" y="198.42" width="54.54" height="0.48"/>
<rect x="80.339" y="171.42" width="0.48" height="27.24"/>
<rect x="78.18" y="169.86" style="fill:#FFFFFF;" width="54.36" height="27"/>
<rect x="78.18" y="169.62" width="54.6" height="0.48"/>
<rect x="132.3" y="169.86" width="0.479" height="27.24"/>
<rect x="77.94" y="196.62" width="54.6" height="0.48"/>
<rect x="77.94" y="169.62" width="0.48" height="27.24"/>
<text transform="matrix(1 0 0 1 80.5796 177)"><tspan x="0" y="0" style="font-family:'ProductusSemibold'; font-size:7.98;">q</tspan><tspan x="4.27" y="0" style="font-family:'ProductusSemibold'; font-size:7.98;">u</tspan><tspan x="8.586" y="0" style="font-family:'ProductusSemibold'; font-size:7.98;">ali</tspan><tspan x="16.829" y="0" style="font-family:'ProductusSemibold'; font-size:7.98;">f</tspan><tspan x="19.463" y="0" style="font-family:'ProductusSemibold'; font-size:7.98;">ie</tspan><tspan x="25.727" y="0" style="font-family:'ProductusSemibold'; font-size:7.98;">r</tspan></text>
<text transform="matrix(1 0 0 1.0522 80.5796 185.46)"><tspan x="0" y="0" style="font-family:'ProductusOSGiBookc'; font-size:7.5841;">@</tspan><tspan x="7.584" y="0" style="font-family:'ProductusOSGiBookc'; font-size:7.5841;">n</tspan><tspan x="11.058" y="0" style="font-family:'ProductusOSGiBookc'; font-size:7.5841;">a</tspan><tspan x="14.167" y="0" style="font-family:'ProductusOSGiBookc'; font-size:7.5841;">m</tspan><tspan x="19.62" y="0" style="font-family:'ProductusOSGiBookc'; font-size:7.5841;">e</tspan></text>
<rect x="106.32" y="78.18" width="0.48" height="21.24"/>
<polyline points="106.62,99.66 106.5,99.18 28.56,120.48 28.68,120.96 "/>
<rect x="106.32" y="99.42" width="0.48" height="21.3"/>
<polyline style="fill-rule:evenodd;clip-rule:evenodd;fill:#FFFFFF;" points="113.64,99.42 113.52,97.98 113.339,97.32 113.1,96.66 
	112.8,96.06 112.44,95.46 112.02,94.92 111.06,93.96 110.52,93.54 109.919,93.18 109.32,92.88 108.66,92.64 108,92.52 107.28,92.4 
	106.56,92.34 105.839,92.4 105.12,92.52 104.459,92.64 103.8,92.88 103.2,93.18 102.6,93.54 102.06,93.96 101.52,94.44 101.1,94.92 
	100.68,95.46 100.32,96.06 100.02,96.66 99.78,97.32 99.6,97.98 99.48,98.7 99.48,100.14 99.6,100.86 99.78,101.52 100.02,102.18 
	100.32,102.84 100.68,103.38 101.52,104.46 102.6,105.3 103.2,105.66 103.8,105.96 104.459,106.2 105.12,106.38 105.839,106.5 
	107.28,106.5 108,106.38 108.66,106.2 109.32,105.96 109.919,105.66 110.52,105.3 111.06,104.88 111.54,104.46 112.02,103.92 
	112.44,103.38 112.8,102.84 113.1,102.18 113.339,101.52 113.52,100.86 113.64,99.42 "/>
<polyline points="113.4,99.48 113.28,98.04 113.1,97.38 113.1,97.44 112.86,96.78 112.919,96.78 112.62,96.18 112.26,95.58 
	112.26,95.64 111.839,95.1 110.879,94.14 110.94,94.14 110.4,93.72 110.4,93.78 109.8,93.42 109.2,93.12 109.26,93.12 108.6,92.88 
	108.66,92.88 108,92.76 107.28,92.64 106.56,92.58 106.62,92.58 105.9,92.64 105.18,92.76 104.52,92.88 104.58,92.88 103.919,93.12 
	103.32,93.42 102.72,93.78 102.78,93.72 102.24,94.14 101.7,94.62 101.28,95.1 100.86,95.64 100.919,95.58 100.56,96.18 
	100.26,96.78 100.02,97.44 100.02,97.38 99.839,98.04 99.72,98.76 99.72,98.7 99.72,100.14 99.839,100.86 99.839,100.8 
	100.02,101.46 100.26,102.12 100.56,102.78 100.56,102.72 100.919,103.26 100.86,103.26 101.7,104.34 101.7,104.28 102.24,104.7 
	101.94,105.06 101.4,104.64 101.339,104.64 100.5,103.56 100.5,103.5 100.14,102.96 99.839,102.3 99.78,102.3 99.54,101.64 
	99.54,101.58 99.36,100.92 99.24,100.2 99.24,98.7 99.36,97.98 99.36,97.92 99.54,97.26 99.78,96.6 99.839,96.54 100.14,95.94 
	100.5,95.34 100.919,94.8 101.339,94.32 101.4,94.26 101.94,93.78 102.48,93.36 103.08,93 103.68,92.7 103.74,92.64 104.4,92.4 
	104.459,92.4 105.12,92.28 105.839,92.16 106.56,92.1 106.62,92.1 107.339,92.16 108.06,92.28 108.72,92.4 108.78,92.4 
	109.44,92.64 109.44,92.7 110.04,93 110.64,93.36 110.7,93.36 111.24,93.78 112.2,94.74 112.2,94.8 112.62,95.34 112.68,95.34 
	113.04,95.94 113.339,96.54 113.339,96.6 113.58,97.26 113.76,97.92 113.76,97.98 113.879,99.42 "/>
<polyline points="102.24,104.7 102.78,105.12 102.72,105.12 103.32,105.48 103.919,105.78 103.919,105.72 104.58,105.96 
	104.52,105.96 105.18,106.14 105.9,106.26 105.839,106.26 107.28,106.26 108,106.14 107.94,106.14 108.6,105.96 109.26,105.72 
	109.2,105.78 109.8,105.48 110.4,105.12 110.94,104.7 111.419,104.28 111.36,104.34 111.839,103.8 112.26,103.26 112.62,102.72 
	112.62,102.78 112.919,102.12 112.86,102.12 113.1,101.46 113.28,100.8 113.28,100.86 113.4,99.42 113.4,99.48 113.879,99.42 
	113.879,99.48 113.76,100.92 113.58,101.58 113.58,101.64 113.339,102.3 113.04,102.96 112.68,103.5 112.62,103.56 112.2,104.1 
	111.72,104.64 111.24,105.06 110.7,105.48 110.64,105.54 110.04,105.9 109.44,106.2 108.78,106.44 108.72,106.44 108.06,106.62 
	107.339,106.74 105.839,106.74 105.12,106.62 105.06,106.62 104.4,106.44 103.74,106.2 103.68,106.2 103.08,105.9 102.48,105.54 
	102.48,105.48 101.94,105.06 "/>
<text transform="matrix(1 0 0 1 113.6401 92.6401)" style="font-family:'ProductusOSGiBookc'; font-size:7.98;">0..*</text>
<rect x="158.52" y="122.52" width="54.359" height="27"/>
<rect x="158.52" y="122.28" width="54.6" height="0.48"/>
<rect x="212.64" y="122.52" width="0.479" height="27.24"/>
<rect x="158.28" y="149.28" width="54.6" height="0.48"/>
<rect x="158.28" y="122.28" width="0.48" height="27.24"/>
<rect x="156.18" y="120.72" style="fill:#FFFFFF;" width="54.3" height="27"/>
<rect x="156.18" y="120.48" width="54.54" height="0.48"/>
<rect x="210.24" y="120.72" width="0.48" height="27.24"/>
<rect x="155.94" y="147.48" width="54.54" height="0.48"/>
<rect x="155.94" y="120.48" width="0.479" height="27.24"/>
<text transform="matrix(1 0 0 1 158.52 127.8599)"><tspan x="0" y="0" style="font-family:'ProductusSemibold'; font-size:7.98;">&lt;&lt;poli</tspan><tspan x="20.102" y="0" style="font-family:'ProductusSemibold'; font-size:7.98;">c</tspan><tspan x="23.819" y="0" style="font-family:'ProductusSemibold'; font-size:7.98;">y&gt;</tspan><tspan x="31.433" y="0" style="font-family:'ProductusSemibold'; font-size:7.98;">&gt;</tspan></text>
<rect x="80.58" y="221.28" width="54.3" height="27"/>
<rect x="80.58" y="221.04" width="54.54" height="0.48"/>
<rect x="134.64" y="221.28" width="0.479" height="27.24"/>
<rect x="80.339" y="248.04" width="54.54" height="0.48"/>
<rect x="80.339" y="221.04" width="0.48" height="27.24"/>
<rect x="78.18" y="219.48" style="fill:#FFFFFF;" width="54.36" height="27"/>
<rect x="78.18" y="219.24" width="54.6" height="0.48"/>
<rect x="132.3" y="219.48" width="0.479" height="27.24"/>
<rect x="77.94" y="246.24" width="54.6" height="0.48"/>
<rect x="77.94" y="219.24" width="0.48" height="27.24"/>
<text transform="matrix(1 0 0 1 80.5796 226.6201)"><tspan x="0" y="0" style="font-family:'ProductusSemibold'; font-size:7.98;">&lt;&lt;</tspan><tspan x="7.198" y="0" style="font-family:'ProductusSemibold'; font-size:7.98;">p</tspan><tspan x="11.451" y="0" style="font-family:'ProductusSemibold'; font-size:7.98;">o</tspan><tspan x="15.824" y="0" style="font-family:'ProductusSemibold'; font-size:7.98;">lic</tspan><tspan x="23.844" y="0" style="font-family:'ProductusSemibold'; font-size:7.98;">y&gt;</tspan><tspan x="31.473" y="0" style="font-family:'ProductusSemibold'; font-size:7.98;">&gt;</tspan></text>
<text transform="matrix(1 0 0 1 95.9399 217.5605)"><tspan x="0" y="0" style="font-family:'ProductusOSGiBookc'; font-size:7.98;">1.</tspan><tspan x="4.692" y="0" style="font-family:'ProductusOSGiBookc'; font-size:7.98;">.</tspan><tspan x="6.312" y="0" style="font-family:'ProductusOSGiBookc'; font-size:7.98;">*</tspan></text>
</svg>
