<?xml version="1.0" encoding="utf-8"?>
<!-- Generator: Adobe Illustrator 16.0.0, SVG Export Plug-In . SVG Version: 6.00 Build 0)  -->
<!DOCTYPE svg PUBLIC "-//W3C//DTD SVG 1.1//EN" "http://www.w3.org/Graphics/SVG/1.1/DTD/svg11.dtd">
<svg version="1.1" id="Layer_1" xmlns="http://www.w3.org/2000/svg" xmlns:xlink="http://www.w3.org/1999/xlink" x="0px" y="0px"
	 width="312.231px" height="141.065px" viewBox="0 0 312.231 141.065" style="enable-background:new 0 0 312.231 141.065;"
	 xml:space="preserve">
<polyline style="fill-rule:evenodd;clip-rule:evenodd;" points="117.48,65.34 116.58,65.4 115.74,65.7 114.959,66.12 114.3,66.66 
	113.76,67.32 113.34,68.1 113.04,68.94 112.98,69.84 112.98,73.68 113.04,74.64 113.34,75.48 113.76,76.2 114.3,76.86 
	114.959,77.46 115.74,77.88 116.58,78.12 117.48,78.18 170.16,78.18 171.06,78.12 171.9,77.88 172.68,77.46 173.34,76.86 
	173.88,76.2 174.3,75.48 174.54,74.64 174.66,73.68 174.66,69.84 174.54,68.94 174.3,68.1 173.88,67.32 173.34,66.66 172.68,66.12 
	171.9,65.7 171.06,65.4 170.16,65.34 117.48,65.34 "/>
<polyline points="117.54,65.58 116.64,65.64 116.7,65.64 115.86,65.94 115.08,66.36 115.14,66.3 114.48,66.84 113.94,67.5 
	114,67.44 113.58,68.22 113.28,69.06 113.28,69 113.22,69.9 113.22,69.84 113.22,73.68 113.28,74.64 113.28,74.58 113.58,75.42 
	113.58,75.36 114,76.08 113.94,76.08 114.48,76.74 114.48,76.68 115.14,77.28 115.08,77.28 115.86,77.7 115.8,77.64 116.64,77.88 
	117.54,77.94 117.48,77.94 170.16,77.94 171.06,77.88 171,77.88 171.84,77.64 171.78,77.7 172.56,77.28 173.22,76.68 173.16,76.74 
	173.7,76.08 174.12,75.36 174.06,75.42 174.3,74.58 174.3,74.64 174.42,73.68 174.42,69.84 174.42,69.9 174.3,69 174.06,68.16 
	174.12,68.22 173.7,67.44 173.7,67.5 173.16,66.84 173.22,66.84 172.56,66.3 172.56,66.36 171.78,65.94 171.84,65.94 171,65.64 
	171.06,65.64 170.16,65.58 117.48,65.58 117.48,65.1 170.22,65.1 171.12,65.16 171.18,65.16 172.02,65.46 172.02,65.52 172.8,65.94 
	172.86,65.94 173.52,66.48 173.52,66.54 174.06,67.2 174.12,67.2 174.54,67.98 174.54,68.04 174.78,68.88 174.78,68.94 174.9,69.84 
	174.9,73.74 174.78,74.7 174.54,75.54 174.54,75.6 174.12,76.32 174.06,76.38 173.52,77.04 172.86,77.64 172.8,77.7 172.02,78.12 
	171.959,78.12 171.12,78.36 170.22,78.42 117.48,78.42 116.58,78.36 116.52,78.36 115.68,78.12 115.62,78.12 114.84,77.7 
	114.84,77.64 114.18,77.04 114.12,77.04 113.58,76.38 113.58,76.32 113.16,75.6 113.1,75.6 112.8,74.76 112.8,74.64 112.74,73.68 
	112.74,69.84 112.8,68.94 112.8,68.88 113.1,68.04 113.16,67.98 113.58,67.2 114.12,66.54 114.18,66.48 114.84,65.94 115.62,65.52 
	115.68,65.46 116.52,65.16 116.58,65.16 117.48,65.1 "/>
<polyline points="117.48,65.58 117.54,65.58 117.48,65.1 "/>
<polyline style="fill-rule:evenodd;clip-rule:evenodd;" points="147,7.44 146.94,6.72 146.82,6 146.64,5.28 146.4,4.62 146.1,4.02 
	145.74,3.42 144.9,2.34 143.82,1.5 143.22,1.14 142.56,0.84 141.9,0.6 141.24,0.42 140.52,0.3 139.8,0.24 139.08,0.3 138.36,0.42 
	137.64,0.6 136.98,0.84 136.38,1.14 135.78,1.5 135.18,1.92 134.7,2.34 134.22,2.88 133.8,3.42 133.44,4.02 133.14,4.62 132.9,5.28 
	132.72,6 132.6,6.72 132.6,8.16 132.72,8.88 132.9,9.6 133.14,10.26 133.44,10.86 133.8,11.46 134.22,12 134.7,12.54 135.18,13.02 
	135.78,13.44 136.38,13.8 136.98,14.1 137.64,14.34 138.36,14.52 139.08,14.64 140.52,14.64 141.24,14.52 141.9,14.34 142.56,14.1 
	143.22,13.8 143.82,13.44 144.36,13.02 144.9,12.54 145.74,11.46 146.1,10.86 146.4,10.26 146.64,9.6 146.82,8.88 146.94,8.16 
	147,7.44 "/>
<polyline points="146.76,7.5 146.7,6.78 146.58,6.06 146.4,5.34 146.4,5.4 146.16,4.74 146.22,4.74 145.92,4.14 145.56,3.54 
	145.56,3.6 144.72,2.52 144.78,2.52 143.7,1.68 143.7,1.74 143.1,1.38 143.16,1.38 142.5,1.08 141.84,0.84 141.18,0.66 141.24,0.66 
	140.52,0.54 139.8,0.48 139.86,0.48 139.14,0.54 138.42,0.66 137.7,0.84 137.76,0.84 137.1,1.08 136.5,1.38 135.9,1.74 
	135.959,1.74 135.36,2.16 135.36,2.1 134.88,2.52 134.4,3.06 133.98,3.6 134.04,3.54 133.68,4.14 133.38,4.74 133.14,5.4 
	133.14,5.34 132.959,6.06 132.84,6.78 132.84,6.72 132.84,8.16 132.959,8.88 132.959,8.82 133.14,9.54 133.38,10.2 133.38,10.14 
	133.68,10.74 134.04,11.34 133.98,11.34 134.4,11.88 134.88,12.42 134.88,12.36 135.36,12.84 135.06,13.26 134.52,12.72 
	134.04,12.18 133.62,11.64 133.62,11.58 133.26,10.98 132.959,10.38 132.9,10.38 132.66,9.72 132.66,9.66 132.48,8.94 132.36,8.22 
	132.36,6.72 132.48,6 132.48,5.94 132.66,5.22 132.9,4.56 132.959,4.5 133.26,3.9 133.62,3.3 134.04,2.76 134.52,2.22 134.58,2.16 
	135.06,1.74 135.66,1.32 136.26,0.96 136.86,0.66 136.92,0.6 137.58,0.36 138.3,0.18 138.36,0.18 139.08,0.06 139.8,0 139.86,0 
	140.58,0.06 141.3,0.18 141.959,0.36 142.02,0.36 142.68,0.6 142.68,0.66 143.34,0.96 143.94,1.32 144,1.32 145.08,2.16 
	145.08,2.22 145.92,3.3 145.98,3.3 146.34,3.9 146.64,4.5 146.64,4.56 146.88,5.22 147.06,5.94 147.06,6 147.18,6.72 147.24,7.44 
	"/>
<polyline points="135.36,12.84 135.959,13.26 135.9,13.26 136.5,13.62 137.1,13.92 137.1,13.86 137.76,14.1 137.7,14.1 
	138.42,14.28 139.14,14.4 139.08,14.4 140.52,14.4 141.24,14.28 141.18,14.28 141.84,14.1 142.5,13.86 142.5,13.92 143.16,13.62 
	143.1,13.62 143.7,13.26 144.24,12.84 144.78,12.36 144.72,12.42 145.56,11.34 145.92,10.74 146.22,10.14 146.16,10.2 146.4,9.54 
	146.58,8.82 146.58,8.88 146.7,8.16 146.76,7.44 146.76,7.5 147.24,7.44 147.24,7.5 147.18,8.22 147.06,8.94 146.88,9.66 
	146.88,9.72 146.64,10.38 146.34,10.98 145.98,11.58 145.92,11.64 145.08,12.72 144.54,13.2 144,13.62 143.94,13.68 143.34,14.04 
	142.68,14.34 142.02,14.58 141.959,14.58 141.3,14.76 140.58,14.88 139.08,14.88 138.36,14.76 138.3,14.76 137.58,14.58 
	136.92,14.34 136.86,14.34 136.26,14.04 135.66,13.68 135.06,13.26 "/>
<polyline style="fill-rule:evenodd;clip-rule:evenodd;fill:#FFFFFF;" points="117.48,63.78 116.58,63.9 115.74,64.14 114.959,64.56 
	114.3,65.1 113.76,65.76 113.34,66.54 113.04,67.38 112.98,68.28 112.98,72.18 113.04,73.08 113.34,73.92 113.76,74.7 114.3,75.36 
	114.959,75.9 115.74,76.32 116.58,76.56 117.48,76.68 170.16,76.68 171.06,76.56 171.9,76.32 172.68,75.9 173.34,75.36 173.88,74.7 
	174.3,73.92 174.54,73.08 174.66,72.18 174.66,68.28 174.54,67.38 174.3,66.54 173.88,65.76 173.34,65.1 172.68,64.56 171.9,64.14 
	171.06,63.9 170.16,63.78 117.48,63.78 "/>
<polyline points="117.54,64.02 116.64,64.14 115.8,64.38 115.86,64.38 115.08,64.8 115.14,64.74 114.48,65.28 113.94,65.94 
	114,65.88 113.58,66.66 113.28,67.5 113.28,67.44 113.22,68.34 113.22,68.28 113.22,72.18 113.28,73.08 113.28,73.02 113.58,73.86 
	113.58,73.8 114,74.58 113.94,74.58 114.48,75.24 114.48,75.18 115.14,75.72 115.08,75.72 115.86,76.14 115.8,76.08 116.64,76.32 
	117.54,76.44 117.48,76.44 170.16,76.44 171.06,76.32 171,76.32 171.84,76.08 171.78,76.14 172.56,75.72 173.22,75.18 173.16,75.24 
	173.7,74.58 174.12,73.8 174.06,73.86 174.3,73.02 174.3,73.08 174.42,72.18 174.42,68.28 174.42,68.34 174.3,67.44 174.06,66.6 
	174.12,66.66 173.7,65.88 173.7,65.94 173.16,65.28 173.22,65.28 172.56,64.74 172.56,64.8 171.78,64.38 171.84,64.38 171,64.14 
	171.06,64.14 170.16,64.02 117.48,64.02 117.48,63.54 170.22,63.54 171.12,63.66 171.959,63.9 172.02,63.96 172.8,64.38 
	172.86,64.38 173.52,64.92 173.52,64.98 174.06,65.64 174.12,65.64 174.54,66.42 174.54,66.48 174.78,67.32 174.78,67.38 
	174.9,68.28 174.9,72.24 174.78,73.14 174.54,73.98 174.54,74.04 174.12,74.82 174.06,74.88 173.52,75.54 172.86,76.08 172.8,76.14 
	172.02,76.56 171.959,76.56 171.12,76.8 170.22,76.92 117.48,76.92 116.58,76.8 116.52,76.8 115.68,76.56 115.62,76.56 
	114.84,76.14 114.84,76.08 114.18,75.54 114.12,75.54 113.58,74.88 113.58,74.82 113.16,74.04 113.1,74.04 112.8,73.2 112.8,73.14 
	112.74,72.24 112.74,68.28 112.8,67.38 112.8,67.32 113.1,66.48 113.16,66.42 113.58,65.64 114.12,64.98 114.18,64.92 114.84,64.38 
	115.62,63.96 115.68,63.9 116.52,63.66 116.58,63.66 117.48,63.54 "/>
<polyline points="117.48,64.02 117.54,64.02 117.48,63.54 "/>
<text transform="matrix(1 0 0 1 115.9204 72.7202)"><tspan x="0" y="0" style="font-family:'ProductusSemibold'; font-size:7.98;">D</tspan><tspan x="5.347" y="0" style="font-family:'ProductusSemibold'; font-size:7.98;">E</tspan><tspan x="9.305" y="0" style="font-family:'ProductusSemibold'; font-size:7.98;">P</tspan><tspan x="13.43" y="0" style="font-family:'ProductusSemibold'; font-size:7.98;">L</tspan><tspan x="16.909" y="0" style="font-family:'ProductusSemibold'; font-size:7.98;">O</tspan><tspan x="22.256" y="0" style="font-family:'ProductusSemibold'; font-size:7.98;">Y</tspan><tspan x="27.052" y="0" style="font-family:'ProductusSemibold'; font-size:7.98;">I</tspan><tspan x="29.262" y="0" style="font-family:'ProductusSemibold'; font-size:7.98;">N</tspan><tspan x="34.601" y="0" style="font-family:'ProductusSemibold'; font-size:7.98;">G</tspan></text>
<rect x="139.68" y="108.42" width="0.479" height="4.74"/>
<polyline points="142.62,108.84 142.2,108.6 139.68,113.04 139.68,113.28 139.92,113.7 140.1,113.28 "/>
<polyline points="139.68,113.28 140.1,113.04 137.52,108.6 137.1,108.84 "/>
<rect x="139.68" y="77.94" width="0.479" height="30.72"/>
<rect x="139.68" y="58.86" width="0.479" height="4.68"/>
<polyline points="142.62,59.22 142.2,58.98 139.68,63.42 139.68,63.66 139.92,64.08 140.1,63.66 "/>
<polyline points="139.68,63.66 140.1,63.42 137.52,58.98 137.1,59.22 "/>
<rect x="139.68" y="28.38" width="0.479" height="30.72"/>
<text transform="matrix(1 0 0 1 151.98 7.6201)"><tspan x="0" y="0" style="font-family:'ProductusBook'; font-size:7.98;">i</tspan><tspan x="1.612" y="0" style="font-family:'ProductusBook'; font-size:7.98;">n</tspan><tspan x="5.274" y="0" style="font-family:'ProductusBook'; font-size:7.98;">it</tspan></text>
<text transform="matrix(1 0 0 1 56.8799 50.1597)"><tspan x="0" y="0" style="font-family:'ProductusBook'; font-size:7.98;">c</tspan><tspan x="3" y="0" style="font-family:'ProductusBook'; font-size:7.98;">oll</tspan><tspan x="9.911" y="0" style="font-family:'ProductusBook'; font-size:7.98;">i</tspan><tspan x="11.531" y="0" style="font-family:'ProductusBook'; font-size:7.98;">sion</tspan><tspan x="23.373" y="0" style="font-family:'ProductusBook'; font-size:7.98;"> </tspan><tspan x="24.985" y="0" style="font-family:'ProductusBook'; font-size:7.98;">reso</tspan><tspan x="37.354" y="0" style="font-family:'ProductusBook'; font-size:7.98;">l</tspan><tspan x="38.974" y="0" style="font-family:'ProductusBook'; font-size:7.98;">v</tspan><tspan x="42.038" y="0" style="font-family:'ProductusBook'; font-size:7.98;">ed</tspan></text>
<polyline style="fill-rule:evenodd;clip-rule:evenodd;" points="118.14,114.72 117.24,114.78 116.4,115.08 115.62,115.5 
	114.959,116.04 114.42,116.7 114,117.48 113.76,118.32 113.64,119.22 113.64,123.06 113.76,124.021 114,124.86 114.42,125.58 
	114.959,126.24 115.62,126.84 116.4,127.26 117.24,127.5 118.14,127.56 170.82,127.56 171.72,127.5 172.56,127.26 173.34,126.84 
	174,126.24 174.54,125.58 174.959,124.86 175.26,124.021 175.32,123.06 175.32,119.22 175.26,118.32 174.959,117.48 174.54,116.7 
	174,116.04 173.34,115.5 172.56,115.08 171.72,114.78 170.82,114.72 118.14,114.72 "/>
<polyline points="118.2,114.96 117.3,115.02 117.36,115.02 116.52,115.32 115.74,115.74 115.8,115.68 115.14,116.22 114.6,116.88 
	114.66,116.82 114.24,117.6 114.24,117.54 114,118.38 113.88,119.28 113.88,119.22 113.88,123.06 114,124.021 114,123.96 
	114.24,124.8 114.24,124.74 114.66,125.46 114.6,125.46 115.14,126.12 115.14,126.06 115.8,126.66 115.74,126.66 116.52,127.08 
	116.459,127.021 117.3,127.26 118.2,127.32 118.14,127.32 170.82,127.32 171.72,127.26 171.66,127.26 172.5,127.021 172.44,127.08 
	173.22,126.66 173.88,126.06 173.82,126.12 174.36,125.46 174.78,124.74 174.72,124.8 175.02,123.96 175.02,124.021 175.08,123.06 
	175.08,119.22 175.08,119.28 175.02,118.38 175.02,118.44 174.72,117.6 174.78,117.6 174.36,116.82 174.36,116.88 173.82,116.22 
	173.88,116.22 173.22,115.68 173.22,115.74 172.44,115.32 172.5,115.32 171.66,115.02 171.72,115.02 170.82,114.96 118.14,114.96 
	118.14,114.48 170.88,114.48 171.78,114.54 171.84,114.54 172.68,114.84 172.68,114.9 173.459,115.32 173.52,115.32 174.18,115.86 
	174.18,115.92 174.72,116.58 174.78,116.58 175.2,117.36 175.2,117.42 175.5,118.26 175.5,118.32 175.56,119.22 175.56,123.06 
	175.5,124.021 175.5,124.14 175.2,124.98 174.78,125.7 174.72,125.76 174.18,126.42 173.52,127.021 173.459,127.08 172.68,127.5 
	172.62,127.5 171.78,127.74 170.88,127.8 118.14,127.8 117.24,127.74 117.18,127.74 116.34,127.5 116.28,127.5 115.5,127.08 
	115.5,127.021 114.84,126.42 114.78,126.42 114.24,125.76 114.24,125.7 113.82,124.98 113.76,124.92 113.52,124.08 113.4,123.12 
	113.4,119.22 113.52,118.32 113.52,118.26 113.76,117.42 113.82,117.36 114.24,116.58 114.78,115.92 114.84,115.86 115.5,115.32 
	116.28,114.9 116.34,114.84 117.18,114.54 117.24,114.54 118.14,114.48 "/>
<polyline points="118.14,114.96 118.2,114.96 118.14,114.48 "/>
<polyline style="fill-rule:evenodd;clip-rule:evenodd;fill:#FFFFFF;" points="118.14,113.16 117.24,113.28 116.4,113.52 
	115.62,113.94 114.959,114.48 114.42,115.2 114,115.92 113.76,116.76 113.64,117.66 113.64,121.56 113.76,122.46 114,123.3 
	114.42,124.08 114.959,124.74 115.62,125.28 116.4,125.7 117.24,125.94 118.14,126.06 170.82,126.06 171.72,125.94 172.56,125.7 
	173.34,125.28 174,124.74 174.54,124.08 174.959,123.3 175.26,122.46 175.32,121.56 175.32,117.66 175.26,116.76 174.959,115.92 
	174.54,115.2 174,114.48 173.34,113.94 172.56,113.52 171.72,113.28 170.82,113.16 118.14,113.16 "/>
<polyline points="118.2,113.4 117.3,113.52 116.459,113.76 116.52,113.76 115.74,114.18 115.8,114.12 115.14,114.66 114.6,115.38 
	114.66,115.32 114.24,116.04 114.24,115.98 114,116.82 113.88,117.72 113.88,117.66 113.88,121.56 114,122.46 114,122.4 
	114.24,123.24 114.24,123.18 114.66,123.96 114.6,123.96 115.14,124.62 115.14,124.56 115.8,125.1 115.74,125.1 116.52,125.521 
	116.459,125.46 117.3,125.7 118.2,125.82 118.14,125.82 170.82,125.82 171.72,125.7 171.66,125.7 172.5,125.46 172.44,125.521 
	173.22,125.1 173.88,124.56 173.82,124.62 174.36,123.96 174.78,123.18 174.72,123.24 175.02,122.4 175.02,122.46 175.08,121.56 
	175.08,117.66 175.08,117.72 175.02,116.82 175.02,116.88 174.72,116.04 174.78,116.04 174.36,115.32 174.36,115.38 173.82,114.66 
	173.88,114.66 173.22,114.12 173.22,114.18 172.44,113.76 172.5,113.76 171.66,113.52 171.72,113.52 170.82,113.4 118.14,113.4 
	118.14,112.92 170.88,112.92 171.78,113.04 172.62,113.28 172.68,113.34 173.459,113.76 173.52,113.76 174.18,114.3 174.18,114.36 
	174.72,115.08 174.78,115.08 175.2,115.8 175.2,115.86 175.5,116.7 175.5,116.76 175.56,117.66 175.56,121.62 175.5,122.521 
	175.5,122.58 175.2,123.42 174.78,124.2 174.72,124.26 174.18,124.92 173.52,125.46 173.459,125.521 172.68,125.94 172.62,125.94 
	171.78,126.18 170.88,126.3 118.14,126.3 117.24,126.18 117.18,126.18 116.34,125.94 116.28,125.94 115.5,125.521 115.5,125.46 
	114.84,124.92 114.78,124.92 114.24,124.26 114.24,124.2 113.82,123.42 113.76,123.36 113.52,122.521 113.4,121.62 113.4,117.66 
	113.52,116.76 113.52,116.7 113.76,115.86 113.82,115.8 114.24,115.08 114.78,114.36 114.84,114.3 115.5,113.76 116.28,113.34 
	116.34,113.28 117.18,113.04 117.24,113.04 118.14,112.92 "/>
<polyline points="118.14,113.4 118.2,113.4 118.14,112.92 "/>
<text transform="matrix(1 0 0 1 116.5796 122.0996)"><tspan x="0" y="0" style="font-family:'ProductusSemibold'; font-size:7.98;">DEP</tspan><tspan x="13.478" y="0" style="font-family:'ProductusSemibold'; font-size:7.98;">L</tspan><tspan x="16.894" y="0" style="font-family:'ProductusSemibold'; font-size:7.98;">O</tspan><tspan x="22.296" y="0" style="font-family:'ProductusSemibold'; font-size:7.98;">Y</tspan><tspan x="27.036" y="0" style="font-family:'ProductusSemibold'; font-size:7.98;">E</tspan><tspan x="30.962" y="0" style="font-family:'ProductusSemibold'; font-size:7.98;">D</tspan></text>
<polyline style="fill-rule:evenodd;clip-rule:evenodd;" points="231.54,114.96 230.64,115.02 229.8,115.32 229.02,115.74 
	228.36,116.28 227.82,116.94 227.4,117.72 227.16,118.56 227.04,119.46 227.04,123.3 227.16,124.2 227.4,125.04 227.82,125.82 
	228.36,126.48 229.02,127.021 229.8,127.44 230.64,127.74 231.54,127.8 284.22,127.8 285.12,127.74 285.959,127.44 286.74,127.021 
	287.4,126.48 287.94,125.82 288.36,125.04 288.66,124.2 288.72,123.3 288.72,119.46 288.66,118.56 288.36,117.72 287.94,116.94 
	287.4,116.28 286.74,115.74 285.959,115.32 285.12,115.02 284.22,114.96 231.54,114.96 "/>
<polyline points="231.6,115.2 230.7,115.26 230.76,115.26 229.92,115.56 229.14,115.98 229.2,115.92 228.54,116.46 228,117.12 
	228.06,117.06 227.64,117.84 227.64,117.78 227.4,118.62 227.28,119.521 227.28,119.46 227.28,123.3 227.4,124.2 227.4,124.14 
	227.64,124.98 227.64,124.92 228.06,125.7 228,125.7 228.54,126.36 228.54,126.3 229.2,126.84 229.14,126.84 229.92,127.26 
	229.92,127.2 230.76,127.5 230.7,127.5 231.6,127.56 231.54,127.56 284.22,127.56 285.12,127.5 285.06,127.5 285.9,127.2 
	285.84,127.26 286.62,126.84 287.28,126.3 287.22,126.36 287.76,125.7 288.18,124.92 288.12,124.98 288.42,124.14 288.42,124.2 
	288.48,123.3 288.48,119.46 288.48,119.521 288.42,118.62 288.42,118.68 288.12,117.84 288.18,117.84 287.76,117.06 287.76,117.12 
	287.22,116.46 287.28,116.46 286.62,115.92 286.62,115.98 285.84,115.56 285.9,115.56 285.06,115.26 285.12,115.26 284.22,115.2 
	231.54,115.2 231.54,114.72 284.28,114.72 285.18,114.78 285.24,114.78 286.08,115.08 286.08,115.14 286.86,115.56 286.92,115.56 
	287.58,116.1 287.58,116.16 288.12,116.82 288.18,116.82 288.6,117.6 288.6,117.66 288.9,118.5 288.9,118.56 288.959,119.46 
	288.959,123.36 288.9,124.26 288.9,124.32 288.6,125.16 288.18,125.94 288.12,126 287.58,126.66 286.92,127.2 286.86,127.26 
	286.08,127.68 285.24,127.98 285.18,127.98 284.28,128.04 231.54,128.04 230.64,127.98 230.58,127.98 229.74,127.68 229.68,127.68 
	228.9,127.26 228.9,127.2 228.24,126.66 228.18,126.66 227.64,126 227.64,125.94 227.22,125.16 227.16,125.1 226.92,124.26 
	226.8,123.36 226.8,119.46 226.92,118.56 226.92,118.5 227.16,117.66 227.22,117.6 227.64,116.82 228.18,116.16 228.24,116.1 
	228.9,115.56 229.68,115.14 229.74,115.08 230.58,114.78 230.64,114.78 231.54,114.72 "/>
<polyline points="231.54,115.2 231.6,115.2 231.54,114.72 "/>
<polyline style="fill-rule:evenodd;clip-rule:evenodd;fill:#FFFFFF;" points="231.54,113.4 230.64,113.52 229.8,113.76 
	229.02,114.18 228.36,114.72 227.82,115.38 227.4,116.16 227.16,117 227.04,117.9 227.04,121.8 227.16,122.7 227.4,123.54 
	227.82,124.32 228.36,124.98 229.02,125.521 229.8,125.94 230.64,126.18 231.54,126.3 284.22,126.3 285.12,126.18 285.959,125.94 
	286.74,125.521 287.4,124.98 287.94,124.32 288.36,123.54 288.66,122.7 288.72,121.8 288.72,117.9 288.66,117 288.36,116.16 
	287.94,115.38 287.4,114.72 286.74,114.18 285.959,113.76 285.12,113.52 284.22,113.4 231.54,113.4 "/>
<polyline points="231.6,113.64 230.7,113.76 229.86,114 229.92,114 229.14,114.42 229.2,114.36 228.54,114.9 228,115.56 
	228.06,115.5 227.64,116.28 227.64,116.22 227.4,117.06 227.28,117.96 227.28,117.9 227.28,121.8 227.4,122.7 227.4,122.64 
	227.64,123.48 227.64,123.42 228.06,124.2 228,124.2 228.54,124.86 228.54,124.8 229.2,125.34 229.14,125.34 229.92,125.76 
	229.86,125.7 230.7,125.94 231.6,126.06 231.54,126.06 284.22,126.06 285.12,125.94 285.06,125.94 285.9,125.7 285.84,125.76 
	286.62,125.34 287.28,124.8 287.22,124.86 287.76,124.2 288.18,123.42 288.12,123.48 288.42,122.64 288.42,122.7 288.48,121.8 
	288.48,117.9 288.48,117.96 288.42,117.06 288.42,117.12 288.12,116.28 288.18,116.28 287.76,115.5 287.76,115.56 287.22,114.9 
	287.28,114.9 286.62,114.36 286.62,114.42 285.84,114 285.9,114 285.06,113.76 285.12,113.76 284.22,113.64 231.54,113.64 
	231.54,113.16 284.28,113.16 285.18,113.28 286.02,113.52 286.08,113.58 286.86,114 286.92,114 287.58,114.54 287.58,114.6 
	288.12,115.26 288.18,115.26 288.6,116.04 288.6,116.1 288.9,116.94 288.9,117 288.959,117.9 288.959,121.86 288.9,122.76 
	288.9,122.82 288.6,123.66 288.18,124.44 288.12,124.5 287.58,125.16 286.92,125.7 286.86,125.76 286.08,126.18 286.02,126.18 
	285.18,126.42 284.28,126.54 231.54,126.54 230.64,126.42 230.58,126.42 229.74,126.18 229.68,126.18 228.9,125.76 228.9,125.7 
	228.24,125.16 228.18,125.16 227.64,124.5 227.64,124.44 227.22,123.66 227.16,123.6 226.92,122.76 226.8,121.86 226.8,117.9 
	226.92,117 226.92,116.94 227.16,116.1 227.22,116.04 227.64,115.26 228.18,114.6 228.24,114.54 228.9,114 229.68,113.58 
	229.74,113.52 230.58,113.28 230.64,113.28 231.54,113.16 "/>
<polyline points="231.54,113.64 231.6,113.64 231.54,113.16 "/>
<text transform="matrix(1 0 0 1 229.98 122.3398)"><tspan x="0" y="0" style="font-family:'ProductusSemibold'; font-size:7.98;">U</tspan><tspan x="5.155" y="0" style="font-family:'ProductusSemibold'; font-size:7.98;">N</tspan><tspan x="10.43" y="0" style="font-family:'ProductusSemibold'; font-size:7.98;">DEP</tspan><tspan x="23.932" y="0" style="font-family:'ProductusSemibold'; font-size:7.98;">L</tspan><tspan x="27.411" y="0" style="font-family:'ProductusSemibold'; font-size:7.98;">O</tspan><tspan x="32.758" y="0" style="font-family:'ProductusSemibold'; font-size:7.98;">Y</tspan><tspan x="37.497" y="0" style="font-family:'ProductusSemibold'; font-size:7.98;">IN</tspan><tspan x="45.086" y="0" style="font-family:'ProductusSemibold'; font-size:7.98;">G</tspan></text>
<polyline style="fill-rule:evenodd;clip-rule:evenodd;" points="231.54,65.34 230.64,65.4 229.8,65.7 229.02,66.12 228.36,66.66 
	227.82,67.32 227.4,68.1 227.16,68.94 227.04,69.84 227.04,73.68 227.16,74.64 227.4,75.48 227.82,76.2 228.36,76.86 229.02,77.46 
	229.8,77.88 230.64,78.12 231.54,78.18 284.22,78.18 285.12,78.12 285.959,77.88 286.74,77.46 287.4,76.86 287.94,76.2 
	288.36,75.48 288.66,74.64 288.72,73.68 288.72,69.84 288.66,68.94 288.36,68.1 287.94,67.32 287.4,66.66 286.74,66.12 
	285.959,65.7 285.12,65.4 284.22,65.34 231.54,65.34 "/>
<polyline points="231.6,65.58 230.7,65.64 230.76,65.64 229.92,65.94 229.14,66.36 229.2,66.3 228.54,66.84 228,67.5 228.06,67.44 
	227.64,68.22 227.64,68.16 227.4,69 227.28,69.9 227.28,69.84 227.28,73.68 227.4,74.64 227.4,74.58 227.64,75.42 227.64,75.36 
	228.06,76.08 228,76.08 228.54,76.74 228.54,76.68 229.2,77.28 229.14,77.28 229.92,77.7 229.86,77.64 230.7,77.88 231.6,77.94 
	231.54,77.94 284.22,77.94 285.12,77.88 285.06,77.88 285.9,77.64 285.84,77.7 286.62,77.28 287.28,76.68 287.22,76.74 
	287.76,76.08 288.18,75.36 288.12,75.42 288.42,74.58 288.42,74.64 288.48,73.68 288.48,69.84 288.48,69.9 288.42,69 288.42,69.06 
	288.12,68.22 288.18,68.22 287.76,67.44 287.76,67.5 287.22,66.84 287.28,66.84 286.62,66.3 286.62,66.36 285.84,65.94 285.9,65.94 
	285.06,65.64 285.12,65.64 284.22,65.58 231.54,65.58 231.54,65.1 284.28,65.1 285.18,65.16 285.24,65.16 286.08,65.46 
	286.08,65.52 286.86,65.94 286.92,65.94 287.58,66.48 287.58,66.54 288.12,67.2 288.18,67.2 288.6,67.98 288.6,68.04 288.9,68.88 
	288.9,68.94 288.959,69.84 288.959,73.68 288.9,74.64 288.9,74.76 288.6,75.6 288.18,76.32 288.12,76.38 287.58,77.04 286.92,77.64 
	286.86,77.7 286.08,78.12 286.02,78.12 285.18,78.36 284.28,78.42 231.54,78.42 230.64,78.36 230.58,78.36 229.74,78.12 
	229.68,78.12 228.9,77.7 228.9,77.64 228.24,77.04 228.18,77.04 227.64,76.38 227.64,76.32 227.22,75.6 227.16,75.54 226.92,74.7 
	226.8,73.74 226.8,69.84 226.92,68.94 226.92,68.88 227.16,68.04 227.22,67.98 227.64,67.2 228.18,66.54 228.24,66.48 228.9,65.94 
	229.68,65.52 229.74,65.46 230.58,65.16 230.64,65.16 231.54,65.1 "/>
<polyline points="231.54,65.58 231.6,65.58 231.54,65.1 "/>
<polyline style="fill-rule:evenodd;clip-rule:evenodd;fill:#FFFFFF;" points="231.54,63.78 230.64,63.9 229.8,64.14 229.02,64.56 
	228.36,65.1 227.82,65.76 227.4,66.54 227.16,67.38 227.04,68.28 227.04,72.18 227.16,73.08 227.4,73.92 227.82,74.7 228.36,75.36 
	229.02,75.9 229.8,76.32 230.64,76.56 231.54,76.68 284.22,76.68 285.12,76.56 285.959,76.32 286.74,75.9 287.4,75.36 287.94,74.7 
	288.36,73.92 288.66,73.08 288.72,72.18 288.72,68.28 288.66,67.38 288.36,66.54 287.94,65.76 287.4,65.1 286.74,64.56 
	285.959,64.14 285.12,63.9 284.22,63.78 231.54,63.78 "/>
<polyline points="231.6,64.02 230.7,64.14 229.86,64.38 229.92,64.38 229.14,64.8 229.2,64.74 228.54,65.28 228,65.94 228.06,65.88 
	227.64,66.66 227.64,66.6 227.4,67.44 227.28,68.34 227.28,68.28 227.28,72.18 227.4,73.08 227.4,73.02 227.64,73.86 227.64,73.8 
	228.06,74.58 228,74.58 228.54,75.24 228.54,75.18 229.2,75.72 229.14,75.72 229.92,76.14 229.86,76.08 230.7,76.32 231.6,76.44 
	231.54,76.44 284.22,76.44 285.12,76.32 285.06,76.32 285.9,76.08 285.84,76.14 286.62,75.72 287.28,75.18 287.22,75.24 
	287.76,74.58 288.18,73.8 288.12,73.86 288.42,73.02 288.42,73.08 288.48,72.18 288.48,68.28 288.48,68.34 288.42,67.44 
	288.42,67.5 288.12,66.66 288.18,66.66 287.76,65.88 287.76,65.94 287.22,65.28 287.28,65.28 286.62,64.74 286.62,64.8 
	285.84,64.38 285.9,64.38 285.06,64.14 285.12,64.14 284.22,64.02 231.54,64.02 231.54,63.54 284.28,63.54 285.18,63.66 
	286.02,63.9 286.08,63.96 286.86,64.38 286.92,64.38 287.58,64.92 287.58,64.98 288.12,65.64 288.18,65.64 288.6,66.42 288.6,66.48 
	288.9,67.32 288.9,67.38 288.959,68.28 288.959,72.24 288.9,73.14 288.9,73.2 288.6,74.04 288.18,74.82 288.12,74.88 287.58,75.54 
	286.92,76.08 286.86,76.14 286.08,76.56 286.02,76.56 285.18,76.8 284.28,76.92 231.54,76.92 230.64,76.8 230.58,76.8 229.74,76.56 
	229.68,76.56 228.9,76.14 228.9,76.08 228.24,75.54 228.18,75.54 227.64,74.88 227.64,74.82 227.22,74.04 227.16,73.98 
	226.92,73.14 226.8,72.24 226.8,68.28 226.92,67.38 226.92,67.32 227.16,66.48 227.22,66.42 227.64,65.64 228.18,64.98 
	228.24,64.92 228.9,64.38 229.68,63.96 229.74,63.9 230.58,63.66 230.64,63.66 231.54,63.54 "/>
<polyline points="231.54,64.02 231.6,64.02 231.54,63.54 "/>
<text transform="matrix(1 0 0 1 229.98 72.7202)"><tspan x="0" y="0" style="font-family:'ProductusSemibold'; font-size:7.98;">U</tspan><tspan x="5.155" y="0" style="font-family:'ProductusSemibold'; font-size:7.98;">N</tspan><tspan x="10.43" y="0" style="font-family:'ProductusSemibold'; font-size:7.98;">DEP</tspan><tspan x="23.932" y="0" style="font-family:'ProductusSemibold'; font-size:7.98;">L</tspan><tspan x="27.411" y="0" style="font-family:'ProductusSemibold'; font-size:7.98;">O</tspan><tspan x="32.758" y="0" style="font-family:'ProductusSemibold'; font-size:7.98;">Y</tspan><tspan x="37.497" y="0" style="font-family:'ProductusSemibold'; font-size:7.98;">E</tspan><tspan x="41.432" y="0" style="font-family:'ProductusSemibold'; font-size:7.98;">D</tspan></text>
<polyline style="fill-rule:evenodd;clip-rule:evenodd;" points="4.74,65.34 3.84,65.4 3,65.7 2.22,66.12 1.56,66.66 1.02,67.32 
	0.6,68.1 0.36,68.94 0.24,69.84 0.24,73.68 0.36,74.64 0.6,75.48 1.02,76.2 1.56,76.86 2.22,77.46 3,77.88 3.84,78.12 4.74,78.18 
	57.42,78.18 58.38,78.12 59.22,77.88 59.94,77.46 60.6,76.86 61.2,76.2 61.62,75.48 61.86,74.64 61.92,73.68 61.92,69.84 
	61.86,68.94 61.62,68.1 61.2,67.32 60.6,66.66 59.94,66.12 59.22,65.7 58.38,65.4 57.42,65.34 4.74,65.34 "/>
<polyline points="4.8,65.58 3.9,65.64 3.96,65.64 3.12,65.94 2.34,66.36 2.4,66.3 1.74,66.84 1.2,67.5 1.26,67.44 0.84,68.22 
	0.84,68.16 0.6,69 0.48,69.9 0.48,69.84 0.48,73.68 0.6,74.64 0.6,74.58 0.84,75.42 0.84,75.36 1.26,76.08 1.2,76.08 1.74,76.74 
	1.74,76.68 2.4,77.28 2.34,77.28 3.12,77.7 3.06,77.64 3.9,77.88 4.8,77.94 4.74,77.94 57.42,77.94 58.38,77.88 58.32,77.88 
	59.16,77.64 59.1,77.7 59.82,77.28 60.48,76.68 60.42,76.74 61.02,76.08 61.44,75.36 61.38,75.42 61.62,74.58 61.62,74.64 
	61.68,73.68 61.68,69.84 61.68,69.9 61.62,69 61.38,68.16 61.44,68.22 61.02,67.44 61.02,67.5 60.42,66.84 60.48,66.84 59.82,66.3 
	59.82,66.36 59.1,65.94 59.16,65.94 58.32,65.64 58.38,65.64 57.42,65.58 4.74,65.58 4.74,65.1 57.42,65.1 58.38,65.16 58.5,65.16 
	59.34,65.46 59.34,65.52 60.06,65.94 60.12,65.94 60.78,66.48 60.78,66.54 61.38,67.2 61.44,67.2 61.86,67.98 61.86,68.04 
	62.1,68.88 62.1,68.94 62.16,69.84 62.16,73.68 62.1,74.64 62.1,74.7 61.86,75.54 61.86,75.6 61.44,76.32 61.38,76.38 60.78,77.04 
	60.12,77.64 60.06,77.7 59.34,78.12 59.28,78.12 58.44,78.36 58.38,78.36 57.42,78.42 4.74,78.42 3.84,78.36 3.78,78.36 2.94,78.12 
	2.88,78.12 2.1,77.7 2.1,77.64 1.44,77.04 1.38,77.04 0.84,76.38 0.84,76.32 0.42,75.6 0.36,75.54 0.12,74.7 0,73.74 0,69.84 
	0.12,68.94 0.12,68.88 0.36,68.04 0.42,67.98 0.84,67.2 1.38,66.54 1.44,66.48 2.1,65.94 2.88,65.52 2.94,65.46 3.78,65.16 
	3.84,65.16 4.74,65.1 "/>
<polyline points="4.74,65.58 4.8,65.58 4.74,65.1 "/>
<polyline style="fill-rule:evenodd;clip-rule:evenodd;fill:#FFFFFF;" points="4.74,63.78 3.84,63.9 3,64.14 2.22,64.56 1.56,65.1 
	1.02,65.76 0.6,66.54 0.36,67.38 0.24,68.28 0.24,72.18 0.36,73.08 0.6,73.92 1.02,74.7 1.56,75.36 2.22,75.9 3,76.32 3.84,76.56 
	4.74,76.68 57.42,76.68 58.38,76.56 59.22,76.32 59.94,75.9 60.6,75.36 61.2,74.7 61.62,73.92 61.86,73.08 61.92,72.18 61.92,68.28 
	61.86,67.38 61.62,66.54 61.2,65.76 60.6,65.1 59.94,64.56 59.22,64.14 58.38,63.9 57.42,63.78 4.74,63.78 "/>
<polyline points="4.8,64.02 3.9,64.14 3.06,64.38 3.12,64.38 2.34,64.8 2.4,64.74 1.74,65.28 1.2,65.94 1.26,65.88 0.84,66.66 
	0.84,66.6 0.6,67.44 0.48,68.34 0.48,68.28 0.48,72.18 0.6,73.08 0.6,73.02 0.84,73.86 0.84,73.8 1.26,74.58 1.2,74.58 1.74,75.24 
	1.74,75.18 2.4,75.72 2.34,75.72 3.12,76.14 3.06,76.08 3.9,76.32 4.8,76.44 4.74,76.44 57.42,76.44 58.38,76.32 58.32,76.32 
	59.16,76.08 59.1,76.14 59.82,75.72 60.48,75.18 60.42,75.24 61.02,74.58 61.44,73.8 61.38,73.86 61.62,73.02 61.62,73.08 
	61.68,72.18 61.68,68.28 61.68,68.34 61.62,67.44 61.38,66.6 61.44,66.66 61.02,65.88 61.02,65.94 60.42,65.28 60.48,65.28 
	59.82,64.74 59.82,64.8 59.1,64.38 59.16,64.38 58.32,64.14 58.38,64.14 57.42,64.02 4.74,64.02 4.74,63.54 57.48,63.54 
	58.44,63.66 59.28,63.9 59.34,63.96 60.06,64.38 60.12,64.38 60.78,64.92 60.78,64.98 61.38,65.64 61.44,65.64 61.86,66.42 
	61.86,66.48 62.1,67.32 62.1,67.38 62.16,68.28 62.16,72.24 62.1,73.14 61.86,73.98 61.86,74.04 61.44,74.82 61.38,74.88 
	60.78,75.54 60.12,76.08 60.06,76.14 59.34,76.56 59.28,76.56 58.44,76.8 57.48,76.92 4.74,76.92 3.84,76.8 3.78,76.8 2.94,76.56 
	2.88,76.56 2.1,76.14 2.1,76.08 1.44,75.54 1.38,75.54 0.84,74.88 0.84,74.82 0.42,74.04 0.36,73.98 0.12,73.14 0,72.24 0,68.28 
	0.12,67.38 0.12,67.32 0.36,66.48 0.42,66.42 0.84,65.64 1.38,64.98 1.44,64.92 2.1,64.38 2.88,63.96 2.94,63.9 3.78,63.66 
	3.84,63.66 4.74,63.54 "/>
<polyline points="4.74,64.02 4.8,64.02 4.74,63.54 "/>
<text transform="matrix(1 0 0 1 3.1802 72.7202)"><tspan x="0" y="0" style="font-family:'ProductusSemibold'; font-size:7.98;">F</tspan><tspan x="3.359" y="0" style="font-family:'ProductusSemibold'; font-size:7.98;">A</tspan><tspan x="8.339" y="0" style="font-family:'ProductusSemibold'; font-size:7.98;">I</tspan><tspan x="10.613" y="0" style="font-family:'ProductusSemibold'; font-size:7.98;">L</tspan><tspan x="14.268" y="0" style="font-family:'ProductusSemibold'; font-size:7.98;">E</tspan><tspan x="18.162" y="0" style="font-family:'ProductusSemibold'; font-size:7.98;">D</tspan></text>
<rect x="253.08" y="78.72" width="0.48" height="4.68"/>
<polyline points="250.56,83.04 250.98,83.28 253.56,78.84 253.56,78.6 253.38,78.3 253.14,78.6 "/>
<polyline points="253.56,78.6 253.14,78.84 255.66,83.28 256.08,83.04 "/>
<rect x="253.08" y="83.16" width="0.48" height="30.72"/>
<rect x="219.72" y="120.48" width="4.739" height="0.479"/>
<polyline points="220.14,117.96 219.9,118.38 224.34,120.96 224.58,120.96 225,120.72 224.58,120.54 "/>
<polyline points="224.58,120.96 224.34,120.54 219.9,123.12 220.14,123.54 "/>
<rect x="175.08" y="120.48" width="44.88" height="0.479"/>
<rect x="62.46" y="70.86" width="4.68" height="0.48"/>
<polyline points="66.78,73.86 67.02,73.44 62.58,70.86 62.34,70.86 62.04,71.04 62.34,71.28 "/>
<polyline points="62.34,70.86 62.58,71.28 67.02,68.76 66.78,68.34 "/>
<rect x="66.9" y="70.86" width="44.88" height="0.48"/>
<rect x="33.36" y="42.54" width="0.48" height="21.72"/>
<rect x="33.6" y="42.54" width="92.34" height="0.48"/>
<rect x="125.459" y="42.78" width="0.48" height="21.48"/>
<rect x="139.68" y="58.86" width="0.479" height="4.68"/>
<polyline points="142.62,59.22 142.2,58.98 139.68,63.42 139.68,63.66 139.92,64.08 140.1,63.66 "/>
<polyline points="139.68,63.66 140.1,63.42 137.52,58.98 137.1,59.22 "/>
<rect x="139.68" y="7.08" width="0.479" height="0.24"/>
<rect x="139.68" y="7.32" width="0.479" height="51.78"/>
<rect x="125.459" y="58.86" width="0.48" height="4.68"/>
<polyline points="128.459,59.22 128.04,58.98 125.459,63.42 125.459,63.66 125.64,63.96 125.88,63.66 "/>
<polyline points="125.459,63.66 125.88,63.42 123.36,58.98 122.94,59.22 "/>
<rect x="125.459" y="42.54" width="0.48" height="0.24"/>
<rect x="125.459" y="42.78" width="0.48" height="16.32"/>
<text transform="matrix(1 0 0 1 144.1196 93.54)"><tspan x="0" y="0" style="font-family:'ProductusBook'; font-size:7.98;">W</tspan><tspan x="5.825" y="0" style="font-family:'ProductusBook'; font-size:7.98;">e</tspan><tspan x="9.312" y="0" style="font-family:'ProductusBook'; font-size:7.98;">b</tspan><tspan x="13.016" y="0" style="font-family:'ProductusBook'; font-size:7.98;"> </tspan><tspan x="14.635" y="0" style="font-family:'ProductusBook'; font-size:7.98;">A</tspan><tspan x="18.657" y="0" style="font-family:'ProductusBook'; font-size:7.98;">pplic</tspan><tspan x="32.263" y="0" style="font-family:'ProductusBook'; font-size:7.98;">a</tspan><tspan x="35.622" y="0" style="font-family:'ProductusBook'; font-size:7.98;">t</tspan><tspan x="38.017" y="0" style="font-family:'ProductusBook'; font-size:7.98;">ion</tspan></text>
<text transform="matrix(1 0 0 1 144.1196 103.2598)"><tspan x="0" y="0" style="font-family:'ProductusBook'; font-size:7.98;">d</tspan><tspan x="3.711" y="0" style="font-family:'ProductusBook'; font-size:7.98;">e</tspan><tspan x="7.198" y="0" style="font-family:'ProductusBook'; font-size:7.98;">pl</tspan><tspan x="12.488" y="0" style="font-family:'ProductusBook'; font-size:7.98;">o</tspan><tspan x="16.151" y="0" style="font-family:'ProductusBook'; font-size:7.98;">y</tspan><tspan x="19.271" y="0" style="font-family:'ProductusBook'; font-size:7.98;">e</tspan><tspan x="22.759" y="0" style="font-family:'ProductusBook'; font-size:7.98;">d</tspan><tspan x="26.478" y="0" style="font-family:'ProductusBook'; font-size:7.98;"> </tspan><tspan x="28.09" y="0" style="font-family:'ProductusBook'; font-size:7.98;">t</tspan><tspan x="30.436" y="0" style="font-family:'ProductusBook'; font-size:7.98;">o</tspan><tspan x="34.273" y="0" style="font-family:'ProductusBook'; font-size:7.98;"> </tspan><tspan x="35.838" y="0" style="font-family:'ProductusBook'; font-size:7.98;">ru</tspan><tspan x="41.814" y="0" style="font-family:'ProductusBook'; font-size:7.98;">n</tspan><tspan x="45.478" y="0" style="font-family:'ProductusBook'; font-size:7.98;">tim</tspan><tspan x="55.221" y="0" style="font-family:'ProductusBook'; font-size:7.98;">e</tspan></text>
<text transform="matrix(1 0 0 1 182.8794 129)"><tspan x="0" y="0" style="font-family:'ProductusBook'; font-size:7.98;">W</tspan><tspan x="5.825" y="0" style="font-family:'ProductusBook'; font-size:7.98;">A</tspan><tspan x="9.959" y="0" style="font-family:'ProductusBook'; font-size:7.98;">B</tspan><tspan x="13.502" y="0" style="font-family:'ProductusBook'; font-size:7.98;"> </tspan><tspan x="15.114" y="0" style="font-family:'ProductusBook'; font-size:7.98;">o</tspan><tspan x="18.896" y="0" style="font-family:'ProductusBook'; font-size:7.98;">r</tspan><tspan x="21.171" y="0" style="font-family:'ProductusBook'; font-size:7.98;"> </tspan><tspan x="22.734" y="0" style="font-family:'ProductusBook'; font-size:7.98;">W</tspan><tspan x="28.561" y="0" style="font-family:'ProductusBook'; font-size:7.98;">e</tspan><tspan x="32.096" y="0" style="font-family:'ProductusBook'; font-size:7.98;">b</tspan></text>
<text transform="matrix(1 0 0 1 182.8794 138.7197)"><tspan x="0" y="0" style="font-family:'ProductusBook'; font-size:7.98;">E</tspan><tspan x="3.415" y="0" style="font-family:'ProductusBook'; font-size:7.98;">x</tspan><tspan x="6.416" y="0" style="font-family:'ProductusBook'; font-size:7.98;">t</tspan><tspan x="8.817" y="0" style="font-family:'ProductusBook'; font-size:7.98;">en</tspan><tspan x="16.031" y="0" style="font-family:'ProductusBook'; font-size:7.98;">d</tspan><tspan x="19.75" y="0" style="font-family:'ProductusBook'; font-size:7.98;">e</tspan><tspan x="23.237" y="0" style="font-family:'ProductusBook'; font-size:7.98;">r</tspan><tspan x="25.512" y="0" style="font-family:'ProductusBook'; font-size:7.98;"> s</tspan><tspan x="29.956" y="0" style="font-family:'ProductusBook'; font-size:7.98;">t</tspan><tspan x="32.303" y="0" style="font-family:'ProductusBook'; font-size:7.98;">o</tspan><tspan x="36.109" y="0" style="font-family:'ProductusBook'; font-size:7.98;">p</tspan><tspan x="39.771" y="0" style="font-family:'ProductusBook'; font-size:7.98;">p</tspan><tspan x="43.49" y="0" style="font-family:'ProductusBook'; font-size:7.98;">e</tspan><tspan x="47.01" y="0" style="font-family:'ProductusBook'; font-size:7.98;">d</tspan></text>
<text transform="matrix(1 0 0 1 258.3589 92.6997)"><tspan x="0" y="0" style="font-family:'ProductusBook'; font-size:7.98;">W</tspan><tspan x="5.825" y="0" style="font-family:'ProductusBook'; font-size:7.98;">e</tspan><tspan x="9.312" y="0" style="font-family:'ProductusBook'; font-size:7.98;">b</tspan><tspan x="13.016" y="0" style="font-family:'ProductusBook'; font-size:7.98;"> </tspan><tspan x="14.627" y="0" style="font-family:'ProductusBook'; font-size:7.98;">A</tspan><tspan x="18.649" y="0" style="font-family:'ProductusBook'; font-size:7.98;">pplic</tspan><tspan x="32.255" y="0" style="font-family:'ProductusBook'; font-size:7.98;">a</tspan><tspan x="35.614" y="0" style="font-family:'ProductusBook'; font-size:7.98;">t</tspan><tspan x="37.96" y="0" style="font-family:'ProductusBook'; font-size:7.98;">i</tspan><tspan x="39.572" y="0" style="font-family:'ProductusBook'; font-size:7.98;">on</tspan></text>
<text transform="matrix(1 0 0 1 258.3589 102.4194)"><tspan x="0" y="0" style="font-family:'ProductusBook'; font-size:7.98;">n</tspan><tspan x="3.671" y="0" style="font-family:'ProductusBook'; font-size:7.98;">o</tspan><tspan x="7.509" y="0" style="font-family:'ProductusBook'; font-size:7.98;"> </tspan><tspan x="9.073" y="0" style="font-family:'ProductusBook'; font-size:7.98;">lo</tspan><tspan x="14.403" y="0" style="font-family:'ProductusBook'; font-size:7.98;">n</tspan><tspan x="18.122" y="0" style="font-family:'ProductusBook'; font-size:7.98;">g</tspan><tspan x="21.426" y="0" style="font-family:'ProductusBook'; font-size:7.98;">e</tspan><tspan x="24.961" y="0" style="font-family:'ProductusBook'; font-size:7.98;">r</tspan><tspan x="27.235" y="0" style="font-family:'ProductusBook'; font-size:7.98;"> </tspan><tspan x="28.8" y="0" style="font-family:'ProductusBook'; font-size:7.98;">a</tspan><tspan x="32.159" y="0" style="font-family:'ProductusBook'; font-size:7.98;">v</tspan><tspan x="35.343" y="0" style="font-family:'ProductusBook'; font-size:7.98;">a</tspan><tspan x="38.702" y="0" style="font-family:'ProductusBook'; font-size:7.98;">ilabl</tspan><tspan x="50.369" y="0" style="font-family:'ProductusBook'; font-size:7.98;">e</tspan></text>
<text transform="matrix(1 0 0 1 143.3989 47.5195)"><tspan x="0" y="0" style="font-family:'ProductusBook'; font-size:7.98;">W</tspan><tspan x="5.825" y="0" style="font-family:'ProductusBook'; font-size:7.98;">A</tspan><tspan x="9.959" y="0" style="font-family:'ProductusBook'; font-size:7.98;">B</tspan><tspan x="13.502" y="0" style="font-family:'ProductusBook'; font-size:7.98;"> </tspan><tspan x="15.114" y="0" style="font-family:'ProductusBook'; font-size:7.98;">s</tspan><tspan x="17.931" y="0" style="font-family:'ProductusBook'; font-size:7.98;">t</tspan><tspan x="20.325" y="0" style="font-family:'ProductusBook'; font-size:7.98;">a</tspan><tspan x="23.629" y="0" style="font-family:'ProductusBook'; font-size:7.98;">r</tspan><tspan x="25.902" y="0" style="font-family:'ProductusBook'; font-size:7.98;">t</tspan><tspan x="28.297" y="0" style="font-family:'ProductusBook'; font-size:7.98;">e</tspan><tspan x="31.784" y="0" style="font-family:'ProductusBook'; font-size:7.98;">d</tspan></text>
<rect x="253.08" y="28.38" width="0.48" height="35.88"/>
<rect x="139.68" y="28.38" width="113.64" height="0.48"/>
<rect x="139.68" y="28.62" width="0.479" height="35.64"/>
<text transform="matrix(1 0 0 1 79.4399 78.48)"><tspan x="0" y="0" style="font-family:'ProductusBook'; font-size:7.98;">f</tspan><tspan x="2.035" y="0" style="font-family:'ProductusBook'; font-size:7.98;">a</tspan><tspan x="5.395" y="0" style="font-family:'ProductusBook'; font-size:7.98;">ilure</tspan></text>
</svg>
