<?xml version="1.0" encoding="utf-8"?>
<!-- Generator: Adobe Illustrator 16.0.0, SVG Export Plug-In . SVG Version: 6.00 Build 0)  -->
<!DOCTYPE svg PUBLIC "-//W3C//DTD SVG 1.1//EN" "http://www.w3.org/Graphics/SVG/1.1/DTD/svg11.dtd">
<svg version="1.1" id="Layer_1" xmlns="http://www.w3.org/2000/svg" xmlns:xlink="http://www.w3.org/1999/xlink" x="0px" y="0px"
	 width="294.564px" height="171px" viewBox="0 0 294.564 171" style="enable-background:new 0 0 294.564 171;" xml:space="preserve"
	>
<rect x="106.32" y="85.02" style="fill:#E6E6E6;" width="70.86" height="43.2"/>
<rect x="115.74" y="94.14" width="54.359" height="27"/>
<rect x="115.74" y="93.9" width="54.6" height="0.48"/>
<rect x="169.86" y="94.14" width="0.479" height="27.24"/>
<rect x="115.5" y="120.9" width="54.6" height="0.48"/>
<rect x="115.5" y="93.9" width="0.479" height="27.24"/>
<rect x="113.399" y="92.34" style="fill:#FFFFFF;" width="54.36" height="27"/>
<rect x="113.399" y="92.1" width="54.601" height="0.48"/>
<rect x="167.52" y="92.34" width="0.48" height="27.24"/>
<rect x="113.16" y="119.1" width="54.6" height="0.48"/>
<rect x="113.16" y="92.1" width="0.479" height="27.24"/>
<text transform="matrix(1 0 0 1 115.7402 99.48)"><tspan x="0" y="0" style="font-family:'ProductusOSGiBookc'; font-size:7.98;">W</tspan><tspan x="5.522" y="0" style="font-family:'ProductusOSGiBookc'; font-size:7.98;">e</tspan><tspan x="9.001" y="0" style="font-family:'ProductusOSGiBookc'; font-size:7.98;">b</tspan><tspan x="12.664" y="0" style="font-family:'ProductusOSGiBookc'; font-size:7.98;"> </tspan><tspan x="13.686" y="0" style="font-family:'ProductusOSGiBookc'; font-size:7.98;">U</tspan><tspan x="18.361" y="0" style="font-family:'ProductusOSGiBookc'; font-size:7.98;">R</tspan><tspan x="21.849" y="0" style="font-family:'ProductusOSGiBookc'; font-size:7.98;">L</tspan><tspan x="24.905" y="0" style="font-family:'ProductusOSGiBookc'; font-size:7.98;"> </tspan><tspan x="25.927" y="0" style="font-family:'ProductusOSGiBookc'; font-size:7.98;">H</tspan><tspan x="30.786" y="0" style="font-family:'ProductusOSGiBookc'; font-size:7.98;">a</tspan><tspan x="34.026" y="0" style="font-family:'ProductusOSGiBookc'; font-size:7.98;">n</tspan><tspan x="37.681" y="0" style="font-family:'ProductusOSGiBookc'; font-size:7.98;">d</tspan><tspan x="41.344" y="0" style="font-family:'ProductusOSGiBookc'; font-size:7.98;">l</tspan><tspan x="42.899" y="0" style="font-family:'ProductusOSGiBookc'; font-size:7.98;">e</tspan><tspan x="46.379" y="0" style="font-family:'ProductusOSGiBookc'; font-size:7.98;">r </tspan></text>
<text transform="matrix(1 0 0 1 115.7402 108)"><tspan x="0" y="0" style="font-family:'ProductusOSGiBookc'; font-size:7.98;">Imp</tspan><tspan x="10.956" y="0" style="font-family:'ProductusOSGiBookc'; font-size:7.98;">l</tspan></text>
<polyline style="fill-rule:evenodd;clip-rule:evenodd;fill:#FFFFFF;" points="148.8,156.6 141.72,142.44 134.64,156.6 "/>
<polyline points="148.62,156.72 141.54,142.56 141.54,142.32 141.96,142.56 134.88,156.72 134.64,156.84 134.28,156.84 
	141.54,142.32 141.78,141.9 141.96,142.32 149.04,156.48 "/>
<polyline points="134.64,156.36 148.8,156.36 149.04,156.48 149.22,156.84 134.64,156.84 "/>
<rect x="141.54" y="120.9" width="0.479" height="21.78"/>
<text transform="matrix(1 0 0 1 153.1201 142.7397)"><tspan x="0" y="0" style="font-family:'ProductusBook'; font-size:7.98;">URL</tspan><tspan x="11.275" y="0" style="font-family:'ProductusBook'; font-size:7.98;"> </tspan><tspan x="12.896" y="0" style="font-family:'ProductusBook'; font-size:7.98;">Str</tspan><tspan x="21.242" y="0" style="font-family:'ProductusBook'; font-size:7.98;">e</tspan><tspan x="24.777" y="0" style="font-family:'ProductusBook'; font-size:7.98;">am </tspan></text>
<text transform="matrix(1 0 0 1 153.1201 152.4595)"><tspan x="0" y="0" style="font-family:'ProductusBook'; font-size:7.98;">Han</tspan><tspan x="11.89" y="0" style="font-family:'ProductusBook'; font-size:7.98;">d</tspan><tspan x="15.553" y="0" style="font-family:'ProductusBook'; font-size:7.98;">l</tspan><tspan x="17.165" y="0" style="font-family:'ProductusBook'; font-size:7.98;">e</tspan><tspan x="20.652" y="0" style="font-family:'ProductusBook'; font-size:7.98;">r </tspan><tspan x="24.546" y="0" style="font-family:'ProductusBook'; font-size:7.98;">S</tspan><tspan x="28.209" y="0" style="font-family:'ProductusBook'; font-size:7.98;">e</tspan><tspan x="31.744" y="0" style="font-family:'ProductusBook'; font-size:7.98;">r</tspan><tspan x="34.026" y="0" style="font-family:'ProductusBook'; font-size:7.98;">v</tspan><tspan x="37.21" y="0" style="font-family:'ProductusBook'; font-size:7.98;">i</tspan><tspan x="38.83" y="0" style="font-family:'ProductusBook'; font-size:7.98;">c</tspan><tspan x="41.83" y="0" style="font-family:'ProductusBook'; font-size:7.98;">e</tspan></text>
<text transform="matrix(1 0 0 1 153.1201 162.1792)"><tspan x="0" y="0" style="font-family:'ProductusBook'; font-size:7.98;">url</tspan><tspan x="7.485" y="0" style="font-family:'ProductusBook'; font-size:7.98;">.</tspan><tspan x="9.105" y="0" style="font-family:'ProductusBook'; font-size:7.98;">h</tspan><tspan x="12.775" y="0" style="font-family:'ProductusBook'; font-size:7.98;">a</tspan><tspan x="16.136" y="0" style="font-family:'ProductusBook'; font-size:7.98;">n</tspan><tspan x="19.806" y="0" style="font-family:'ProductusBook'; font-size:7.98;">d</tspan><tspan x="23.524" y="0" style="font-family:'ProductusBook'; font-size:7.98;">le</tspan><tspan x="28.576" y="0" style="font-family:'ProductusBook'; font-size:7.98;">r</tspan><tspan x="30.563" y="0" style="font-family:'ProductusBook'; font-size:7.98;">.</tspan><tspan x="32.175" y="0" style="font-family:'ProductusBook'; font-size:7.98;">pro</tspan><tspan x="41.895" y="0" style="font-family:'ProductusBook'; font-size:7.98;">t</tspan><tspan x="44.288" y="0" style="font-family:'ProductusBook'; font-size:7.98;">o</tspan><tspan x="48.062" y="0" style="font-family:'ProductusBook'; font-size:7.98;">c</tspan><tspan x="51.063" y="0" style="font-family:'ProductusBook'; font-size:7.98;">o</tspan><tspan x="54.901" y="0" style="font-family:'ProductusBook'; font-size:7.98;">l=</tspan></text>
<text transform="matrix(1 0 0 1 213.3604 162.1792)"><tspan x="0" y="0" style="font-family:'ProductusSemibold'; font-size:7.98;">w</tspan><tspan x="6.296" y="0" style="font-family:'ProductusSemibold'; font-size:7.98;">e</tspan><tspan x="10.43" y="0" style="font-family:'ProductusSemibold'; font-size:7.98;">b</tspan><tspan x="14.747" y="0" style="font-family:'ProductusSemibold'; font-size:7.98;">b</tspan><tspan x="19" y="0" style="font-family:'ProductusSemibold'; font-size:7.98;">u</tspan><tspan x="23.317" y="0" style="font-family:'ProductusSemibold'; font-size:7.98;">n</tspan><tspan x="27.57" y="0" style="font-family:'ProductusSemibold'; font-size:7.98;">d</tspan><tspan x="31.888" y="0" style="font-family:'ProductusSemibold'; font-size:7.98;">l</tspan><tspan x="34.042" y="0" style="font-family:'ProductusSemibold'; font-size:7.98;">e</tspan></text>
<rect x="141.54" y="91.8" width="0.479" height="1.26"/>
<rect x="141.54" y="85.92" width="0.479" height="1.98"/>
<rect x="141.54" y="80.04" width="0.479" height="1.92"/>
<rect x="141.54" y="74.1" width="0.479" height="1.98"/>
<rect x="141.54" y="68.22" width="0.479" height="1.92"/>
<rect x="141.54" y="62.28" width="0.479" height="1.98"/>
<rect x="141.54" y="56.4" width="0.479" height="1.98"/>
<rect x="141.54" y="50.52" width="0.479" height="1.92"/>
<rect x="141.54" y="44.58" width="0.479" height="1.979"/>
<rect x="141.54" y="38.7" width="0.479" height="1.92"/>
<rect x="141.54" y="32.76" width="0.479" height="1.98"/>
<rect x="141.54" y="26.88" width="0.479" height="1.98"/>
<rect x="141.54" y="21.72" width="0.479" height="1.2"/>
<rect x="140.76" y="21.72" width="1.021" height="0.48"/>
<rect x="134.88" y="21.72" width="1.92" height="0.48"/>
<rect x="128.939" y="21.72" width="1.98" height="0.48"/>
<rect x="123.06" y="21.72" width="1.98" height="0.48"/>
<rect x="117.18" y="21.72" width="1.92" height="0.48"/>
<rect x="111.24" y="21.72" width="1.98" height="0.48"/>
<rect x="106.08" y="21.72" width="1.2" height="0.48"/>
<rect x="219.72" style="fill:#E6E6E6;" width="70.86" height="43.2"/>
<text transform="matrix(1 0 0 1 232.7402 15.8398)"><tspan x="0" y="0" style="font-family:'ProductusSemibold'; font-size:7.98;">W</tspan><tspan x="6.967" y="0" style="font-family:'ProductusSemibold'; font-size:7.98;">e</tspan><tspan x="11.1" y="0" style="font-family:'ProductusSemibold'; font-size:7.98;">b</tspan><tspan x="15.417" y="0" style="font-family:'ProductusSemibold'; font-size:7.98;"> </tspan><tspan x="17.396" y="0" style="font-family:'ProductusSemibold'; font-size:7.98;">A</tspan><tspan x="22.432" y="0" style="font-family:'ProductusSemibold'; font-size:7.98;">R</tspan><tspan x="26.685" y="0" style="font-family:'ProductusSemibold'; font-size:7.98;">c</tspan><tspan x="30.34" y="0" style="font-family:'ProductusSemibold'; font-size:7.98;">h</tspan><tspan x="34.656" y="0" style="font-family:'ProductusSemibold'; font-size:7.98;">i</tspan><tspan x="36.812" y="0" style="font-family:'ProductusSemibold'; font-size:7.98;">v</tspan><tspan x="40.705" y="0" style="font-family:'ProductusSemibold'; font-size:7.98;">e</tspan></text>
<rect x="219.72" y="21.72" width="0.24" height="0.48"/>
<rect x="218.7" y="21.72" width="1.02" height="0.48"/>
<rect x="214.5" y="21.72" width="0.24" height="0.48"/>
<rect x="212.76" y="21.72" width="1.74" height="0.48"/>
<rect x="208.56" y="21.72" width="0.24" height="0.48"/>
<rect x="206.82" y="21.72" width="1.739" height="0.48"/>
<rect x="202.62" y="21.72" width="0.24" height="0.48"/>
<rect x="200.88" y="21.72" width="1.74" height="0.48"/>
<rect x="194.88" y="21.72" width="1.98" height="0.48"/>
<rect x="188.939" y="21.72" width="1.98" height="0.48"/>
<rect x="183" y="21.72" width="1.979" height="0.48"/>
<rect x="177.06" y="21.72" width="1.98" height="0.48"/>
<rect x="171.12" y="21.72" width="1.92" height="0.48"/>
<rect x="165.12" y="21.72" width="1.979" height="0.48"/>
<rect x="159.18" y="21.72" width="1.98" height="0.48"/>
<rect x="153.24" y="21.72" width="1.979" height="0.48"/>
<rect x="147.3" y="21.72" width="1.98" height="0.48"/>
<rect x="141.36" y="21.72" width="1.92" height="0.48"/>
<rect x="135.36" y="21.72" width="1.979" height="0.48"/>
<rect x="129.42" y="21.72" width="1.979" height="0.48"/>
<rect x="123.479" y="21.72" width="1.98" height="0.48"/>
<rect x="117.54" y="21.72" width="1.979" height="0.48"/>
<rect x="111.6" y="21.72" width="1.919" height="0.48"/>
<rect x="105.6" y="21.72" width="1.98" height="0.48"/>
<rect x="99.66" y="21.72" width="1.98" height="0.48"/>
<rect x="93.72" y="21.72" width="1.98" height="0.48"/>
<rect x="87.78" y="21.72" width="1.98" height="0.48"/>
<rect x="81.84" y="21.72" width="1.92" height="0.48"/>
<rect x="75.84" y="21.72" width="1.98" height="0.48"/>
<rect x="70.62" y="21.72" width="1.26" height="0.48"/>
<polyline style="fill-rule:evenodd;clip-rule:evenodd;fill:#FFFFFF;" points="134.64,18.42 134.64,25.5 148.86,29.04 148.86,14.88 
	"/>
<polyline points="134.88,18.42 134.88,25.5 134.58,25.74 134.7,25.26 148.92,28.8 149.1,29.04 148.62,29.04 148.62,14.88 
	148.8,14.64 149.1,14.58 149.1,29.34 148.8,29.28 134.58,25.74 134.399,25.68 134.399,18.42 "/>
<polyline points="148.92,15.12 134.7,18.66 134.399,18.42 134.399,18.24 134.58,18.18 148.8,14.64 "/>
<rect x="141.54" y="156.36" width="0.479" height="1.2"/>
<rect x="141.54" y="160.56" width="0.479" height="1.62"/>
<rect x="141.54" y="165.18" width="0.479" height="0.24"/>
<rect x="141.54" y="165.42" width="0.479" height="1.38"/>
<rect x="141.54" y="169.8" width="0.479" height="0.24"/>
<rect x="141.54" y="170.04" width="0.479" height="0.96"/>
<text transform="matrix(-6.123234e-17 -1 1 -6.123234e-17 139.3799 71.8193)"><tspan x="0" y="0" style="font-family:'ProductusBook'; font-size:7.98;">e</tspan><tspan x="3.535" y="0" style="font-family:'ProductusBook'; font-size:7.98;">n</tspan><tspan x="7.198" y="0" style="font-family:'ProductusBook'; font-size:7.98;">h</tspan><tspan x="10.908" y="0" style="font-family:'ProductusBook'; font-size:7.98;">a</tspan><tspan x="14.212" y="0" style="font-family:'ProductusBook'; font-size:7.98;">n</tspan><tspan x="17.875" y="0" style="font-family:'ProductusBook'; font-size:7.98;">c</tspan><tspan x="20.939" y="0" style="font-family:'ProductusBook'; font-size:7.98;">e</tspan><tspan x="24.427" y="0" style="font-family:'ProductusBook'; font-size:7.98;">s</tspan></text>
<text transform="matrix(-6.123234e-17 -1 1 -6.123234e-17 149.1602 71.8203)"><tspan x="0" y="0" style="font-family:'ProductusBook'; font-size:7.98;">m</tspan><tspan x="5.754" y="0" style="font-family:'ProductusBook'; font-size:7.98;">a</tspan><tspan x="9.113" y="0" style="font-family:'ProductusBook'; font-size:7.98;">ni</tspan><tspan x="14.355" y="0" style="font-family:'ProductusBook'; font-size:7.98;">f</tspan><tspan x="16.343" y="0" style="font-family:'ProductusBook'; font-size:7.98;">e</tspan><tspan x="19.83" y="0" style="font-family:'ProductusBook'; font-size:7.98;">st</tspan></text>
<text transform="matrix(1 0 0 1 125.2197 12.4199)"><tspan x="0" y="0" style="font-family:'ProductusBook'; font-size:7.98;">install</tspan><tspan x="16.878" y="0" style="font-family:'ProductusBook'; font-size:7.98;"> </tspan><tspan x="18.489" y="0" style="font-family:'ProductusBook'; font-size:7.98;">bu</tspan><tspan x="25.871" y="0" style="font-family:'ProductusBook'; font-size:7.98;">n</tspan><tspan x="29.59" y="0" style="font-family:'ProductusBook'; font-size:7.98;">d</tspan><tspan x="33.308" y="0" style="font-family:'ProductusBook'; font-size:7.98;">le</tspan></text>
<polyline style="fill-rule:evenodd;clip-rule:evenodd;fill:#FFFFFF;" points="240.96,65.04 240.96,68.58 248.04,70.32 248.04,63.24 
	"/>
<polyline points="241.2,65.04 241.2,68.58 240.899,68.82 241.02,68.34 248.1,70.08 248.28,70.32 247.8,70.32 247.8,63.24 
	247.979,63 248.28,62.94 248.28,70.62 247.979,70.56 240.899,68.82 240.72,68.76 240.72,65.04 "/>
<polyline points="248.1,63.48 241.02,65.28 240.72,65.04 240.72,64.86 240.899,64.8 247.979,63 "/>
<text transform="matrix(1 0 0 1 255.1201 69.1797)"><tspan x="0" y="0" style="font-family:'ProductusBook'; font-size:7.98;">=</tspan><tspan x="3.79" y="0" style="font-family:'ProductusBook'; font-size:7.98;"> </tspan><tspan x="5.402" y="0" style="font-family:'ProductusBook'; font-size:7.98;">trans</tspan><tspan x="19.854" y="0" style="font-family:'ProductusBook'; font-size:7.98;">f</tspan><tspan x="21.841" y="0" style="font-family:'ProductusBook'; font-size:7.98;">orm</tspan><tspan x="33.644" y="0" style="font-family:'ProductusBook'; font-size:7.98;">e</tspan><tspan x="37.178" y="0" style="font-family:'ProductusBook'; font-size:7.98;">r</tspan></text>
<rect style="fill:#E6E6E6;" width="70.86" height="43.2"/>
<text transform="matrix(1 0 0 1 28.5 19.5596)"><tspan x="0" y="0" style="font-family:'ProductusSemibold'; font-size:7.98;">W</tspan><tspan x="6.966" y="0" style="font-family:'ProductusSemibold'; font-size:7.98;">A</tspan><tspan x="11.946" y="0" style="font-family:'ProductusSemibold'; font-size:7.98;">B</tspan></text>
<text transform="matrix(1 0 0 1 251.46 25.9199)"><tspan x="0" y="0" style="font-family:'ProductusSemibold'; font-size:7.98;">o</tspan><tspan x="4.317" y="0" style="font-family:'ProductusSemibold'; font-size:7.98;">r</tspan></text>
<text transform="matrix(1 0 0 1 247.0195 35.9395)"><tspan x="0" y="0" style="font-family:'ProductusSemibold'; font-size:7.98;">W</tspan><tspan x="6.967" y="0" style="font-family:'ProductusSemibold'; font-size:7.98;">A</tspan><tspan x="11.946" y="0" style="font-family:'ProductusSemibold'; font-size:7.98;">B</tspan></text>
</svg>
