<?xml version="1.0" encoding="utf-8"?>
<!-- Generator: Adobe Illustrator 16.0.1, SVG Export Plug-In . SVG Version: 6.00 Build 0)  -->
<!DOCTYPE svg PUBLIC "-//W3C//DTD SVG 1.1//EN" "http://www.w3.org/Graphics/SVG/1.1/DTD/svg11.dtd">
<svg version="1.1" id="Layer_1" xmlns="http://www.w3.org/2000/svg" xmlns:xlink="http://www.w3.org/1999/xlink" x="0px" y="0px"
	 width="266.4px" height="237.6px" viewBox="0 0 266.4 237.6" enable-background="new 0 0 266.4 237.6" xml:space="preserve">
<rect x="57.6" y="144" fill="#E6E6E6" width="208.8" height="93.6"/>
<rect x="194.4" y="0" fill="#E6E6E6" width="72" height="43.199"/>
<rect x="67.2" y="153" width="55.2" height="27"/>
<rect x="67.2" y="152.76" width="55.44" height="0.479"/>
<rect x="122.16" y="153" width="0.48" height="27.239"/>
<rect x="66.96" y="179.76" width="55.44" height="0.479"/>
<rect x="66.96" y="152.76" width="0.48" height="27.24"/>
<rect x="64.8" y="151.199" fill="#FFFFFF" width="55.2" height="27"/>
<rect x="64.8" y="150.96" width="55.439" height="0.479"/>
<rect x="119.76" y="151.199" width="0.479" height="27.239"/>
<rect x="64.56" y="177.96" width="55.439" height="0.479"/>
<rect x="64.56" y="150.96" width="0.479" height="27.239"/>
<text transform="matrix(0.9504 0 0 1 67.2 158.3401)" enable-background="new    "><tspan x="0" y="0" font-family="'ProductusOSGiBookc'" font-size="7.98">Preferences Node</tspan><tspan x="0" y="9.576" font-family="'ProductusOSGiBookc'" font-size="7.98">implementation</tspan></text>
<rect x="204" y="81" width="55.199" height="27"/>
<rect x="204" y="80.76" width="55.439" height="0.479"/>
<rect x="258.96" y="81" width="0.479" height="27.239"/>
<rect x="203.76" y="107.76" width="55.439" height="0.479"/>
<rect x="203.76" y="80.76" width="0.479" height="27.24"/>
<rect x="201.6" y="79.199" fill="#FFFFFF" width="55.199" height="27"/>
<rect x="201.6" y="78.96" width="55.439" height="0.479"/>
<rect x="256.56" y="79.199" width="0.479" height="27.239"/>
<rect x="201.36" y="105.96" width="55.439" height="0.479"/>
<rect x="201.36" y="78.96" width="0.479" height="27.239"/>
<text transform="matrix(0.9504 0 0 1 204.0007 86.3401)" font-family="'ProductusOSGiBookc'" font-size="7.98">&lt;&lt;interface&gt;&gt;</text>
<text transform="matrix(1 0 0 1 204.0007 94.8596)" enable-background="new    "><tspan x="0" y="0" font-family="'ProductusSemibold'" font-size="7.98">Preferences</tspan><tspan x="0" y="9.576" font-family="'ProductusSemibold'" font-size="7.98">Service</tspan></text>
<polyline points="259.2,93.6 244.8,108 259.2,108 "/>
<polyline points="259.38,93.779 244.98,108.18 244.8,108.24 244.2,108.24 259.02,93.42 "/>
<rect x="244.8" y="107.76" width="14.641" height="0.479"/>
<polyline points="258.96,108 258.96,93.6 259.02,93.42 259.44,93 259.44,108 "/>
<rect x="67.2" y="81" width="55.2" height="27"/>
<rect x="67.2" y="80.76" width="55.44" height="0.479"/>
<rect x="122.16" y="81" width="0.48" height="27.239"/>
<rect x="66.96" y="107.76" width="55.44" height="0.479"/>
<rect x="66.96" y="80.76" width="0.48" height="27.24"/>
<rect x="64.8" y="79.199" fill="#FFFFFF" width="55.2" height="27"/>
<rect x="64.8" y="78.96" width="55.439" height="0.479"/>
<rect x="119.76" y="79.199" width="0.479" height="27.239"/>
<rect x="64.56" y="105.96" width="55.439" height="0.479"/>
<rect x="64.56" y="78.96" width="0.479" height="27.239"/>
<text transform="matrix(0.9504 0 0 1 67.2 86.3401)" font-family="'ProductusOSGiBookc'" font-size="7.98">&lt;&lt;interface&gt;&gt;</text>
<text transform="matrix(1 0 0 1 67.2 94.8596)" font-family="'ProductusSemibold'" font-size="7.98">Preferences</text>
<rect x="204" y="203.399" width="55.199" height="27"/>
<rect x="204" y="203.159" width="55.439" height="0.479"/>
<rect x="258.96" y="203.399" width="0.479" height="27.24"/>
<rect x="203.76" y="230.159" width="55.439" height="0.479"/>
<rect x="203.76" y="203.159" width="0.479" height="27.239"/>
<rect x="201.6" y="201.6" fill="#FFFFFF" width="55.199" height="27"/>
<rect x="201.6" y="201.359" width="55.439" height="0.48"/>
<rect x="256.56" y="201.6" width="0.479" height="27.24"/>
<rect x="201.36" y="228.359" width="55.439" height="0.48"/>
<rect x="201.36" y="201.359" width="0.479" height="27.24"/>
<text transform="matrix(0.9504 0 0 1 204.0007 208.7395)" enable-background="new    "><tspan x="0" y="0" font-family="'ProductusOSGiBookc'" font-size="7.98">Preferences</tspan><tspan x="0" y="9.576" font-family="'ProductusOSGiBookc'" font-size="7.98">Service</tspan><tspan x="0" y="19.152" font-family="'ProductusOSGiBookc'" font-size="7.98">implementation</tspan></text>
<rect x="204" y="9" width="55.199" height="27"/>
<rect x="204" y="8.76" width="55.439" height="0.479"/>
<rect x="258.96" y="9" width="0.479" height="27.239"/>
<rect x="203.76" y="35.76" width="55.439" height="0.479"/>
<rect x="203.76" y="8.76" width="0.479" height="27.24"/>
<rect x="201.6" y="7.199" fill="#FFFFFF" width="55.199" height="27"/>
<rect x="201.6" y="6.96" width="55.439" height="0.479"/>
<rect x="256.56" y="7.199" width="0.479" height="27.239"/>
<rect x="201.36" y="33.96" width="55.439" height="0.479"/>
<rect x="201.36" y="6.96" width="0.479" height="27.239"/>
<text transform="matrix(0.9504 0 0 1 204.0007 14.3401)" font-family="'ProductusOSGiBookc'" font-size="7.98">a bundle</text>
<rect x="122.16" y="100.56" width="0.24" height="0.48"/>
<rect x="122.4" y="100.56" width="79.439" height="0.48"/>
<rect x="122.16" y="86.159" width="0.24" height="0.479"/>
<rect x="122.4" y="86.159" width="79.439" height="0.479"/>
<rect x="78.96" y="64.56" width="0.48" height="14.88"/>
<rect x="50.16" y="64.56" width="29.04" height="0.48"/>
<rect x="50.16" y="64.8" width="0.48" height="29.04"/>
<rect x="50.4" y="93.359" width="14.64" height="0.48"/>
<rect x="50.4" y="78.96" width="0.24" height="0.479"/>
<rect x="46.44" y="78.96" width="3.96" height="0.479"/>
<rect x="39.9" y="78.96" width="0.24" height="0.479"/>
<rect x="31.86" y="78.96" width="8.04" height="0.479"/>
<rect x="25.38" y="78.96" width="0.24" height="0.479"/>
<rect x="21.36" y="78.96" width="4.02" height="0.479"/>
<polyline points="230.4,119.52 227.1,119.52 227.28,118.859 229.92,109.68 230.4,108 230.88,109.68 233.52,118.859 233.7,119.52 
	233.041,119.52 232.56,119.159 229.92,109.979 230.88,109.68 230.88,109.979 228.24,119.159 227.28,118.859 227.76,118.5 
	230.4,118.5 "/>
<rect x="230.4" y="118.5" width="2.641" height="1.02"/>
<polyline points="230.4,119.04 227.76,119.04 230.4,109.859 233.041,119.04 "/>
<rect x="230.16" y="151.199" width="0.48" height="0.239"/>
<rect x="230.16" y="119.34" width="0.48" height="31.859"/>
<polyline points="93.6,119.52 90.3,119.52 90.48,118.859 93.12,109.68 93.6,108 94.08,109.68 96.72,118.859 96.9,119.52 
	96.24,119.52 95.76,119.159 93.12,109.979 94.08,109.68 94.08,109.979 91.44,119.159 90.48,118.859 90.96,118.5 93.6,118.5 "/>
<rect x="93.6" y="118.5" width="2.64" height="1.02"/>
<polyline points="93.6,119.04 90.96,119.04 93.6,109.859 96.24,119.04 "/>
<rect x="93.36" y="151.199" width="0.479" height="0.239"/>
<rect x="93.36" y="119.34" width="0.479" height="31.859"/>
<rect x="201.6" y="165.359" width="0.239" height="0.48"/>
<rect x="122.16" y="165.359" width="79.44" height="0.48"/>
<rect x="230.16" y="35.76" width="0.48" height="0.24"/>
<rect x="230.16" y="36" width="0.48" height="4.02"/>
<rect x="230.16" y="46.26" width="0.48" height="0.24"/>
<rect x="230.16" y="46.5" width="0.48" height="7.979"/>
<rect x="230.16" y="60.72" width="0.48" height="0.24"/>
<rect x="230.16" y="60.96" width="0.48" height="8.04"/>
<rect x="230.16" y="75.24" width="0.48" height="0.239"/>
<rect x="230.16" y="75.479" width="0.48" height="3.96"/>
<text transform="matrix(1 0 0 1 140.4597 98.22)" font-family="'ProductusBook'" font-size="7.98">root system node</text>
<text transform="matrix(1 0 0 1 140.4597 84.2395)" font-family="'ProductusBook'" font-size="7.98">root user nodes</text>
<text transform="matrix(1 0 0 1 197.5203 98.9397)" font-family="'ProductusBook'" font-size="7.98">1</text>
<text transform="matrix(1 0 0 1 197.5203 84.2395)" font-family="'ProductusBook'" font-size="7.98">1</text>
<text transform="matrix(1 0 0 1 124.3206 98.9397)" font-family="'ProductusBook'" font-size="7.98">1</text>
<text transform="matrix(1 0 0 1 124.3206 84.2395)" font-family="'ProductusBook'" font-size="7.98">0..n</text>
<rect x="186.96" y="87.24" width="0.479" height="0.239"/>
<rect x="186.96" y="83.22" width="0.479" height="4.021"/>
<rect x="186.96" y="76.56" width="0.479" height="0.24"/>
<rect x="186.96" y="72.6" width="0.479" height="3.96"/>
<text transform="matrix(1 0 0 1 126.9602 162.7795)" font-family="'ProductusBook'" font-size="7.98">0..n</text>
<text transform="matrix(1 0 0 1 194.3835 162.7795)" font-family="'ProductusBook'" font-size="7.98">1</text>
<text transform="matrix(1 0 0 1 154.6833 162.7795)" font-family="'ProductusBook'" font-size="7.98">nodes</text>
<text transform="matrix(1 0 0 1 172.7996 70.5002)" font-family="'ProductusBook'" font-size="7.98">user name</text>
<text transform="matrix(1 0 0 1 -2.441406e-04 84.8997)" font-family="'ProductusBook'" font-size="7.98">node name</text>
<rect x="204" y="153" width="55.199" height="27"/>
<rect x="204" y="152.76" width="55.439" height="0.479"/>
<rect x="258.96" y="153" width="0.479" height="27.239"/>
<rect x="203.76" y="179.76" width="55.439" height="0.479"/>
<rect x="203.76" y="152.76" width="0.479" height="27.24"/>
<rect x="201.6" y="151.199" fill="#FFFFFF" width="55.199" height="27"/>
<rect x="201.6" y="150.96" width="55.439" height="0.479"/>
<rect x="256.56" y="151.199" width="0.479" height="27.239"/>
<rect x="201.36" y="177.96" width="55.439" height="0.479"/>
<rect x="201.36" y="150.96" width="0.479" height="27.239"/>
<text transform="matrix(0.9504 0 0 1 204.0007 158.3401)" enable-background="new    "><tspan x="0" y="0" font-family="'ProductusOSGiBookc'" font-size="7.98">Bundle</tspan><tspan x="0" y="9.576" font-family="'ProductusOSGiBookc'" font-size="7.98">Preferences</tspan></text>
<rect x="230.16" y="179.76" width="0.48" height="0.24"/>
<rect x="230.16" y="180" width="0.48" height="21.84"/>
<rect x="67.14" y="9" width="55.199" height="27"/>
<rect x="67.14" y="8.76" width="55.439" height="0.479"/>
<rect x="122.1" y="9" width="0.479" height="27.239"/>
<rect x="66.9" y="35.76" width="55.439" height="0.479"/>
<rect x="66.9" y="8.76" width="0.479" height="27.24"/>
<rect x="64.74" y="7.199" fill="#FFFFFF" width="55.2" height="27"/>
<rect x="64.74" y="6.96" width="55.44" height="0.479"/>
<rect x="119.7" y="7.199" width="0.48" height="27.239"/>
<rect x="64.5" y="33.96" width="55.44" height="0.479"/>
<rect x="64.5" y="6.96" width="0.48" height="27.239"/>
<text transform="matrix(1 0 0 1 67.1399 14.3401)" enable-background="new    "><tspan x="0" y="0" font-family="'ProductusSemibold'" font-size="7.98">Backing Store</tspan><tspan x="0" y="9.576" font-family="'ProductusSemibold'" font-size="7.98">Exception</tspan></text>
<text transform="matrix(1 0 0 1 50.5198 61.5598)" font-family="'ProductusBook'" font-size="7.98">parent</text>
<text transform="matrix(1 0 0 1 53.0398 100.26)" font-family="'ProductusBook'" font-size="7.98">0..n</text>
<text transform="matrix(1 0 0 1 83.0999 75.9602)" font-family="'ProductusBook'" font-size="7.98">1</text>
<text transform="matrix(1 0 0 1 149.1589 128.0999)" font-family="'ProductusBook'" font-size="7.98">1:n bundle - service</text>
<rect x="231.36" y="57.54" width="0.24" height="0.479"/>
<rect x="231.6" y="57.54" width="14.399" height="0.479"/>
<text transform="matrix(1 0 0 1 234.0593 56.0999)" font-family="'ProductusBook'" font-size="7.98">bundle id</text>
</svg>
