<?xml version="1.0" encoding="utf-8"?>
<!-- Generator: Adobe Illustrator 16.0.0, SVG Export Plug-In . SVG Version: 6.00 Build 0)  -->
<!DOCTYPE svg PUBLIC "-//W3C//DTD SVG 1.1//EN" "http://www.w3.org/Graphics/SVG/1.1/DTD/svg11.dtd">
<svg version="1.1" id="Layer_1" xmlns="http://www.w3.org/2000/svg" xmlns:xlink="http://www.w3.org/1999/xlink" x="0px" y="0px"
	 width="270.48px" height="71.873px" viewBox="0 0 270.48 71.873" style="enable-background:new 0 0 270.48 71.873;"
	 xml:space="preserve">
<polyline points="27.24,23.628 243.24,23.628 243.24,24.107 27.24,24.107 27.24,23.628 27.24,24.107 27.24,23.628 243.24,23.628 
	243.24,24.107 27.24,24.107 "/>
<rect x="135" y="23.867" width="0.48" height="0.24"/>
<rect x="135" y="14.628" width="0.48" height="9.239"/>
<text transform="matrix(1 0 0 1 113.2202 41.208)"><tspan x="0" y="0" style="font-family:'ProductusBook'; font-size:7.98;">measuremen</tspan><tspan x="37.849" y="0" style="font-family:'ProductusBook'; font-size:7.98;">t</tspan></text>
<rect x="99.72" y="11.808" width="4.74" height="0.48"/>
<polyline points="104.04,14.748 104.28,14.327 99.84,11.808 99.6,11.808 99.18,12.048 99.6,12.228 "/>
<polyline points="99.6,11.808 99.84,12.228 104.28,9.647 104.04,9.228 "/>
<rect x="130.02" y="11.808" width="4.74" height="0.48"/>
<polyline points="130.44,9.288 130.2,9.708 134.64,12.288 134.88,12.288 135.18,12.107 134.88,11.867 "/>
<polyline points="134.88,12.288 134.64,11.867 130.2,14.388 130.44,14.808 "/>
<rect x="104.22" y="11.808" width="0.24" height="0.48"/>
<rect x="104.46" y="11.808" width="25.8" height="0.48"/>
<rect x="135.72" y="11.808" width="4.74" height="0.48"/>
<polyline points="140.04,14.748 140.28,14.327 135.84,11.808 135.6,11.808 135.18,12.048 135.6,12.228 "/>
<polyline points="135.6,11.808 135.84,12.228 140.28,9.647 140.04,9.228 "/>
<rect x="166.02" y="11.808" width="4.74" height="0.48"/>
<polyline points="166.44,9.288 166.2,9.708 170.64,12.288 170.88,12.288 171.18,12.107 170.88,11.867 "/>
<polyline points="170.88,12.288 170.64,11.867 166.2,14.388 166.44,14.808 "/>
<rect x="140.22" y="11.808" width="0.24" height="0.48"/>
<rect x="140.46" y="11.808" width="25.8" height="0.48"/>
<text transform="matrix(1 0 0 1 145.02 6.6475)"><tspan x="0" y="0" style="font-family:'ProductusBook'; font-size:7.98;">|error</tspan><tspan x="15.721" y="0" style="font-family:'ProductusBook'; font-size:7.98;">|</tspan></text>
<text transform="matrix(1 0 0 1 108.2402 6.6475)"><tspan x="0" y="0" style="font-family:'ProductusBook'; font-size:7.98;">|</tspan><tspan x="1.564" y="0" style="font-family:'ProductusBook'; font-size:7.98;">e</tspan><tspan x="5.099" y="0" style="font-family:'ProductusBook'; font-size:7.98;">r</tspan><tspan x="7.374" y="0" style="font-family:'ProductusBook'; font-size:7.98;">r</tspan><tspan x="9.6" y="0" style="font-family:'ProductusBook'; font-size:7.98;">o</tspan><tspan x="13.438" y="0" style="font-family:'ProductusBook'; font-size:7.98;">r</tspan><tspan x="15.665" y="0" style="font-family:'ProductusBook'; font-size:7.98;">|</tspan></text>
<polyline style="fill-rule:evenodd;clip-rule:evenodd;fill:#B3B3B3;" points="99.24,50.867 108.24,59.867 162.24,59.867 
	171.24,50.867 "/>
<text transform="matrix(1 0 0 1 70.9199 69.5273)"><tspan x="0" y="0" style="font-family:'ProductusBook'; font-size:7.98;">9</tspan><tspan x="3.774" y="0" style="font-family:'ProductusBook'; font-size:7.98;">5</tspan><tspan x="7.198" y="0" style="font-family:'ProductusBook'; font-size:7.98;">%</tspan><tspan x="13.973" y="0" style="font-family:'ProductusBook'; font-size:7.98;"> </tspan><tspan x="15.537" y="0" style="font-family:'ProductusBook'; font-size:7.98;">c</tspan><tspan x="18.657" y="0" style="font-family:'ProductusBook'; font-size:7.98;">h</tspan><tspan x="22.32" y="0" style="font-family:'ProductusBook'; font-size:7.98;">a</tspan><tspan x="25.679" y="0" style="font-family:'ProductusBook'; font-size:7.98;">n</tspan><tspan x="29.342" y="0" style="font-family:'ProductusBook'; font-size:7.98;">c</tspan><tspan x="32.342" y="0" style="font-family:'ProductusBook'; font-size:7.98;">e</tspan><tspan x="35.877" y="0" style="font-family:'ProductusBook'; font-size:7.98;"> </tspan><tspan x="37.498" y="0" style="font-family:'ProductusBook'; font-size:7.98;">t</tspan><tspan x="39.867" y="0" style="font-family:'ProductusBook'; font-size:7.98;">h</tspan><tspan x="43.586" y="0" style="font-family:'ProductusBook'; font-size:7.98;">at</tspan><tspan x="49.26" y="0" style="font-family:'ProductusBook'; font-size:7.98;"> </tspan><tspan x="50.824" y="0" style="font-family:'ProductusBook'; font-size:7.98;">t</tspan><tspan x="53.194" y="0" style="font-family:'ProductusBook'; font-size:7.98;">h</tspan><tspan x="56.912" y="0" style="font-family:'ProductusBook'; font-size:7.98;">e</tspan><tspan x="60.408" y="0" style="font-family:'ProductusBook'; font-size:7.98;"> </tspan><tspan x="62.02" y="0" style="font-family:'ProductusBook'; font-size:7.98;">a</tspan><tspan x="65.323" y="0" style="font-family:'ProductusBook'; font-size:7.98;">c</tspan><tspan x="68.443" y="0" style="font-family:'ProductusBook'; font-size:7.98;">t</tspan><tspan x="70.813" y="0" style="font-family:'ProductusBook'; font-size:7.98;">u</tspan><tspan x="74.532" y="0" style="font-family:'ProductusBook'; font-size:7.98;">al</tspan><tspan x="79.391" y="0" style="font-family:'ProductusBook'; font-size:7.98;"> </tspan><tspan x="81.003" y="0" style="font-family:'ProductusBook'; font-size:7.98;">valu</tspan><tspan x="92.742" y="0" style="font-family:'ProductusBook'; font-size:7.98;">e</tspan><tspan x="96.277" y="0" style="font-family:'ProductusBook'; font-size:7.98;"> </tspan><tspan x="97.897" y="0" style="font-family:'ProductusBook'; font-size:7.98;">is</tspan><tspan x="102.262" y="0" style="font-family:'ProductusBook'; font-size:7.98;"> </tspan><tspan x="103.826" y="0" style="font-family:'ProductusBook'; font-size:7.98;">i</tspan><tspan x="105.438" y="0" style="font-family:'ProductusBook'; font-size:7.98;">n</tspan><tspan x="109.101" y="0" style="font-family:'ProductusBook'; font-size:7.98;"> </tspan><tspan x="110.712" y="0" style="font-family:'ProductusBook'; font-size:7.98;">t</tspan><tspan x="113.083" y="0" style="font-family:'ProductusBook'; font-size:7.98;">h</tspan><tspan x="116.801" y="0" style="font-family:'ProductusBook'; font-size:7.98;">is</tspan><tspan x="121.167" y="0" style="font-family:'ProductusBook'; font-size:7.98;"> </tspan><tspan x="122.778" y="0" style="font-family:'ProductusBook'; font-size:7.98;">r</tspan><tspan x="125.037" y="0" style="font-family:'ProductusBook'; font-size:7.98;">a</tspan><tspan x="128.396" y="0" style="font-family:'ProductusBook'; font-size:7.98;">n</tspan><tspan x="132.067" y="0" style="font-family:'ProductusBook'; font-size:7.98;">g</tspan><tspan x="135.434" y="0" style="font-family:'ProductusBook'; font-size:7.98;">e</tspan></text>
<rect x="243" y="23.628" width="0.239" height="0.479"/>
<rect x="243.24" y="23.628" width="4.021" height="0.479"/>
<rect x="252.96" y="23.628" width="0.239" height="0.479"/>
<rect x="253.2" y="23.628" width="7.32" height="0.479"/>
<rect x="266.28" y="23.628" width="0.24" height="0.479"/>
<rect x="266.52" y="23.628" width="3.96" height="0.479"/>
<rect y="23.628" width="0.24" height="0.479"/>
<rect x="0.24" y="23.628" width="3.96" height="0.479"/>
<rect x="9.9" y="23.628" width="0.24" height="0.479"/>
<rect x="10.14" y="23.628" width="7.38" height="0.479"/>
<rect x="23.22" y="23.628" width="0.24" height="0.479"/>
<rect x="23.46" y="23.628" width="4.02" height="0.479"/>
<text transform="matrix(1 0 0 1 261.2397 15.2871)" style="font-family:'Proforma-Book'; font-size:9.96;">+</text>
<text transform="matrix(1 0 0 1 4.2603 15.2871)" style="font-family:'Proforma-Book'; font-size:9.96;">–</text>
<rect x="99.24" y="21.888" width="72" height="4.02"/>
</svg>
