<?xml version="1.0" encoding="utf-8"?>
<!-- Generator: Adobe Illustrator 16.0.0, SVG Export Plug-In . SVG Version: 6.00 Build 0)  -->
<!DOCTYPE svg PUBLIC "-//W3C//DTD SVG 1.1//EN" "http://www.w3.org/Graphics/SVG/1.1/DTD/svg11.dtd">
<svg version="1.1" id="Layer_1" xmlns="http://www.w3.org/2000/svg" xmlns:xlink="http://www.w3.org/1999/xlink" x="0px" y="0px"
	 width="255.601px" height="65.34px" viewBox="0 0 255.601 65.34" style="enable-background:new 0 0 255.601 65.34;"
	 xml:space="preserve">
<text transform="matrix(1 0 0 1 113.9404 11.3403)"><tspan x="0" y="0" style="font-family:'ProductusBook'; font-size:7.98;">is</tspan><tspan x="4.381" y="0" style="font-family:'ProductusBook'; font-size:7.98;"> </tspan><tspan x="6.001" y="0" style="font-family:'ProductusBook'; font-size:7.98;">of</tspan><tspan x="11.818" y="0" style="font-family:'ProductusBook'; font-size:7.98;"> </tspan><tspan x="13.438" y="0" style="font-family:'ProductusBook'; font-size:7.98;">u</tspan><tspan x="17.117" y="0" style="font-family:'ProductusBook'; font-size:7.98;">n</tspan><tspan x="20.836" y="0" style="font-family:'ProductusBook'; font-size:7.98;">it</tspan></text>
<rect x="201.061" y="1.98" width="54.3" height="26.58"/>
<rect x="201.061" y="1.74" width="54.54" height="0.48"/>
<rect x="255.12" y="1.98" width="0.48" height="26.82"/>
<rect x="200.82" y="28.32" width="54.54" height="0.48"/>
<rect x="200.82" y="1.74" width="0.479" height="26.82"/>
<rect x="198.66" y="0.24" style="fill:#FFFFFF;" width="54.36" height="26.58"/>
<rect x="198.66" width="54.6" height="0.48"/>
<rect x="252.78" y="0.24" width="0.479" height="26.82"/>
<rect x="198.42" y="26.58" width="54.601" height="0.48"/>
<rect x="198.42" width="0.48" height="26.82"/>
<text transform="matrix(1 0 0 1 201.0605 7.3203)"><tspan x="0" y="0" style="font-family:'ProductusSemibold'; font-size:7.98;">U</tspan><tspan x="5.107" y="0" style="font-family:'ProductusSemibold'; font-size:7.98;">n</tspan><tspan x="9.424" y="0" style="font-family:'ProductusSemibold'; font-size:7.98;">i</tspan><tspan x="11.562" y="0" style="font-family:'ProductusSemibold'; font-size:7.98;">t</tspan></text>
<rect x="2.64" y="2.04" width="54.3" height="27.6"/>
<rect x="2.64" y="1.8" width="54.54" height="0.48"/>
<rect x="56.7" y="2.04" width="0.48" height="27.84"/>
<rect x="2.4" y="29.4" width="54.54" height="0.48"/>
<rect x="2.4" y="1.8" width="0.48" height="27.84"/>
<rect x="0.24" y="0.24" style="fill:#FFFFFF;" width="54.36" height="27.6"/>
<rect x="0.24" width="54.6" height="0.48"/>
<rect x="54.36" y="0.24" width="0.48" height="27.84"/>
<rect y="27.6" width="54.6" height="0.48"/>
<rect width="0.48" height="27.84"/>
<text transform="matrix(1 0 0 1 2.6401 7.3799)"><tspan x="0" y="0" style="font-family:'ProductusSemibold'; font-size:7.98;">Measu</tspan><tspan x="22.375" y="0" style="font-family:'ProductusSemibold'; font-size:7.98;">r</tspan><tspan x="25.312" y="0" style="font-family:'ProductusSemibold'; font-size:7.98;">emen</tspan><tspan x="44.192" y="0" style="font-family:'ProductusSemibold'; font-size:7.98;">t</tspan></text>
<rect x="94.74" y="37.5" width="54.36" height="27.6"/>
<rect x="94.74" y="37.26" width="54.6" height="0.48"/>
<rect x="148.86" y="37.5" width="0.479" height="27.84"/>
<rect x="94.5" y="64.86" width="54.601" height="0.48"/>
<rect x="94.5" y="37.26" width="0.48" height="27.84"/>
<rect x="92.4" y="35.64" style="fill:#FFFFFF;" width="54.3" height="27.6"/>
<rect x="92.4" y="35.4" width="54.541" height="0.48"/>
<rect x="146.46" y="35.64" width="0.48" height="27.84"/>
<rect x="92.16" y="63" width="54.54" height="0.48"/>
<rect x="92.16" y="35.4" width="0.48" height="27.84"/>
<text transform="matrix(1 0 0 1 94.7402 42.8403)"><tspan x="0" y="0" style="font-family:'ProductusSemibold'; font-size:7.98;">Stat</tspan><tspan x="14.443" y="0" style="font-family:'ProductusSemibold'; font-size:7.98;">e</tspan></text>
<rect x="56.7" y="14.16" width="0.24" height="0.48"/>
<rect x="56.94" y="14.16" width="141.96" height="0.48"/>
<text transform="matrix(1 0 0 1 59.2803 12.1802)"><tspan x="0" y="0" style="font-family:'ProductusBook'; font-size:7.98;">0..</tspan><tspan x="7.126" y="0" style="font-family:'ProductusBook'; font-size:7.98;">*</tspan></text>
<text transform="matrix(1 0 0 1 193.5 12.8398)" style="font-family:'ProductusBook'; font-size:7.98;">1</text>
</svg>
