<?xml version="1.0" encoding="utf-8"?>
<!-- Generator: Adobe Illustrator 25.2.0, SVG Export Plug-In . SVG Version: 6.00 Build 0)  -->
<svg version="1.1" id="Layer_1" xmlns="http://www.w3.org/2000/svg" xmlns:xlink="http://www.w3.org/1999/xlink" x="0px" y="0px"
    width="265.6px" height="87px"
	 viewBox="0 0 265.6 87" style="enable-background:new 0 0 265.6 87;" xml:space="preserve">
<style type="text/css">
	.st0{fill:#F18A00;}
	.st1{fill:#E85213;}
	.st2{fill:#FAC78A;}
	.st3{fill:#004370;}
	.st4{fill-rule:evenodd;clip-rule:evenodd;fill:#004370;}
</style>
<path class="st0" d="M61.9,86.9c-2.4,0-4.7,0-7.1-0.1c-0.9-1.3-1.7-2.6-2.4-3.9c2.5-0.5,4.8-1.2,7.1-2.2
	C70.3,75.7,77.9,64.8,77.9,52c0-1-0.1-2.1-0.2-3.1c-0.2-2.5-0.8-4.9-1.6-7.2c1.5-0.1,3,0,4.5,0.2c1.3,2,2.5,4,3.7,6.1
	c6.7,11.7,11.1,23.5,7.2,30.2C87.8,84.8,75.3,86.9,61.9,86.9 M38.3,86.8c-2.4,0.1-4.8,0.1-7.1,0.1c-13.4-0.1-25.9-2.1-29.7-8.8
	C-2.4,71.4,2.1,59.6,8.7,48c1.2-2,2.4-4.1,3.7-6.1c1.5-0.2,3-0.2,4.6-0.2c-0.8,2.3-1.3,4.7-1.6,7.2c-0.1,1-0.2,2-0.2,3.1
	c0,12.7,7.6,23.7,18.5,28.6c2.2,1,4.6,1.8,7.1,2.2C40.1,84.2,39.3,85.5,38.3,86.8z M20.6,27.6c1.1-2.1,2.2-4.2,3.4-6.2
	C30.8,9.8,38.8,0,46.6,0c7.7,0,15.7,9.8,22.5,21.4c1.2,2,2.3,4.1,3.4,6.2c-0.6,1.4-1.3,2.8-2.2,4c-1.6-1.9-3.4-3.6-5.4-5
	c-5.2-3.7-11.5-5.9-18.3-5.9c-6.9,0-13.2,2.2-18.3,5.9c-2,1.5-3.8,3.1-5.4,5C22,30.3,21.2,29,20.6,27.6z"/>
<path class="st1" d="M64.9,26.6c1.6-1.6,3-3.3,4.2-5.2c1.2,2,2.3,4.1,3.4,6.2c-0.6,1.4-1.3,2.8-2.2,4C68.8,29.7,66.9,28.1,64.9,26.6
	"/>
<path class="st1" d="M20.6,27.6c1.1-2.1,2.2-4.2,3.4-6.2c1.2,1.9,2.6,3.7,4.2,5.2c-2,1.5-3.8,3.1-5.4,5C22,30.3,21.2,29,20.6,27.6"
	/>
<path class="st1" d="M15.4,48.9c-2.2-0.6-4.4-0.9-6.6-1c1.2-2,2.4-4.1,3.7-6.1c1.5-0.2,3-0.2,4.6-0.2C16.2,44,15.6,46.4,15.4,48.9"
	/>
<path class="st1" d="M38.3,86.8c-2.4,0.1-4.8,0.1-7.1,0.1c1.1-2,1.9-4.1,2.5-6.3c2.2,1,4.6,1.8,7.1,2.2
	C40.1,84.2,39.3,85.5,38.3,86.8"/>
<path class="st1" d="M77.8,48.9c-0.2-2.5-0.8-4.9-1.6-7.2c1.5-0.1,3,0,4.5,0.2c1.3,2,2.5,4,3.7,6.1C82.2,48,79.9,48.3,77.8,48.9"/>
<path class="st1" d="M59.4,80.6c0.6,2.2,1.4,4.3,2.5,6.3c-2.4,0-4.7,0-7.1-0.1c-0.9-1.3-1.7-2.6-2.4-3.9
	C54.8,82.4,57.2,81.7,59.4,80.6"/>
<path class="st2" d="M73.9,41.9c0.9,2.4,1.5,5,1.7,7.7c-5.5,2.1-10.4,6-13.6,11.4C58.9,66.5,58,72.7,59,78.5
	c-2.4,1.1-4.9,1.9-7.6,2.4c-3.4-8-3.2-17.3,1.3-25.2C57.3,47.7,65.2,42.9,73.9,41.9"/>
<path class="st2" d="M41.8,80.8c-2.7-0.4-5.2-1.2-7.6-2.4c1-5.8,0-11.9-3.1-17.4c-3.2-5.5-8-9.4-13.6-11.4c0.2-2.7,0.8-5.3,1.7-7.7
	c8.7,1,16.7,5.8,21.2,13.7C45,63.5,45.2,72.8,41.8,80.8"/>
<path class="st2" d="M63.3,28.1c2.2,1.5,4.1,3.3,5.8,5.4C63.9,40.5,55.7,45,46.6,45c-9.1,0-17.3-4.5-22.5-11.5
	c1.7-2,3.6-3.8,5.8-5.4c4.6,3.8,10.4,6,16.7,6C52.9,34.1,58.7,31.9,63.3,28.1"/>
<path class="st3" d="M223.4,19.1c0-2.5,2-4.6,4.6-4.6c2.5,0,4.6,2,4.6,4.6c0,2.5-2,4.6-4.6,4.6C225.4,23.7,223.4,21.6,223.4,19.1"/>
<path class="st4" d="M125.5,44.4c0,9.5-1.5,19.6-9.6,19.6s-9.7-10.1-9.7-19.6c0-9.6,1.8-19.7,9.7-19.7S125.5,34.8,125.5,44.4
	 M135.1,44.7c0-14.5-5.4-26.3-19.2-26.3c-13.7,0-19.2,11.8-19.2,26.3c0,14.5,5.5,26.3,19.2,26.3C129.7,71,135.1,59.2,135.1,44.7z"/>
<path class="st3" d="M170.4,55.4c0-4.9-1.5-10.5-11.5-14.8c-4.5-1.9-7.7-3.9-7.7-8.4c0-4.5,2.7-7.4,7.3-7.4c3.3,0,6.1,1.2,7.9,2.3
	l2.1-5.8c-2.3-1.6-6.1-2.9-11.2-2.9c-9.4,0-15.3,6.9-15.3,15c0,5,2.2,10.5,10.5,14c5.7,2.4,7.9,4.8,7.9,8.6c0,4.7-3.1,7.9-8.2,7.9
	c-3.9,0-6.8-1.2-8.5-2.4l-2.3,6.6c2.7,1.8,6.5,2.9,12.6,2.9C163.6,71,170.4,64.4,170.4,55.4"/>
<path class="st3" d="M213.4,68.1V40.9h-16.3v5.8h7.3v16.8c-0.8,0.4-2.4,1-5.1,1c-7.1,0-12.3-6.7-12.3-19.6c0-13.7,5.2-19.7,14-19.7
	c4.4,0,7.2,1,8.8,1.9l2.8-5.8c-2.9-1.7-7-2.8-12.8-2.8c-13.2,0-22.5,9.7-22.5,26c0,17.1,8.6,26.6,22.3,26.6
	C206.5,71,210.2,69.9,213.4,68.1"/>
<rect x="223.4" y="30.2" class="st3" width="9.1" height="40"/>
<g>
	<path class="st3" d="M240.9,15.5c0-1,0.3-2,0.8-2.9c0.5-0.9,1.2-1.6,2.1-2.2c0.9-0.5,1.9-0.8,2.9-0.8c1,0,2,0.3,2.9,0.8
		c0.9,0.5,1.6,1.2,2.2,2.1c0.5,0.9,0.8,1.9,0.8,2.9c0,1-0.3,2-0.8,2.9c-0.5,0.9-1.2,1.6-2.1,2.2c-0.9,0.5-1.9,0.8-3,0.8
		c-1.1,0-2.1-0.3-3-0.8s-1.6-1.3-2.1-2.2C241.2,17.5,240.9,16.5,240.9,15.5z M241.8,15.5c0,0.9,0.2,1.7,0.7,2.5
		c0.5,0.8,1.1,1.4,1.9,1.9c0.8,0.5,1.6,0.7,2.5,0.7c0.9,0,1.7-0.2,2.5-0.7s1.4-1.1,1.8-1.8s0.7-1.6,0.7-2.5c0-0.9-0.2-1.7-0.7-2.5
		c-0.5-0.8-1.1-1.4-1.8-1.8c-0.8-0.5-1.6-0.7-2.5-0.7c-0.9,0-1.7,0.2-2.5,0.7s-1.4,1.1-1.8,1.8S241.8,14.6,241.8,15.5z M249.2,14.1
		c0,0.4-0.1,0.8-0.3,1.1s-0.5,0.6-0.9,0.7l1.9,3.1h-1.3l-1.6-2.8h-1.1V19h-1.2v-7h2c0.9,0,1.5,0.2,1.9,0.5
		C249,12.9,249.2,13.4,249.2,14.1z M245.8,15.2h0.8c0.4,0,0.8-0.1,1-0.3c0.3-0.2,0.4-0.5,0.4-0.8c0-0.4-0.1-0.7-0.3-0.8
		c-0.2-0.2-0.6-0.3-1.1-0.3h-0.8V15.2z"/>
</g>
</svg>
