<?xml version="1.0" encoding="utf-8"?>
<!-- Generator: Adobe Illustrator 16.0.1, SVG Export Plug-In . SVG Version: 6.00 Build 0)  -->
<!DOCTYPE svg PUBLIC "-//W3C//DTD SVG 1.1//EN" "http://www.w3.org/Graphics/SVG/1.1/DTD/svg11.dtd">
<svg version="1.1" id="Layer_1" xmlns="http://www.w3.org/2000/svg" xmlns:xlink="http://www.w3.org/1999/xlink" x="0px" y="0px"
	 width="382.68px" height="127.561px" viewBox="0 0 382.68 127.561" enable-background="new 0 0 382.68 127.561"
	 xml:space="preserve">
<rect x="191.339" y="0" fill="#E6E6E6" width="70.86" height="42.54"/>
<rect x="113.4" y="0" fill="#E6E6E6" width="70.86" height="42.54"/>
<rect x="35.46" y="0" fill="#E6E6E6" width="70.86" height="42.54"/>
<rect x="276.359" y="0" fill="#E6E6E6" width="106.32" height="42.54"/>
<rect x="284.939" y="8.88" width="55.261" height="26.58"/>
<rect x="284.939" y="8.64" width="55.501" height="0.479"/>
<rect x="339.959" y="8.88" width="0.48" height="26.82"/>
<rect x="284.7" y="35.219" width="55.5" height="0.48"/>
<rect x="284.7" y="8.64" width="0.479" height="26.819"/>
<rect x="282.54" y="7.08" fill="#FFFFFF" width="55.2" height="26.58"/>
<rect x="282.54" y="6.84" width="55.44" height="0.48"/>
<rect x="337.5" y="7.08" width="0.48" height="26.82"/>
<rect x="282.3" y="33.42" width="55.439" height="0.48"/>
<rect x="282.3" y="6.84" width="0.479" height="26.82"/>
<text transform="matrix(1 0 0 1 284.9395 14.2205)" font-family="'ProductusOSGiBookc'" font-size="7.98">Any bundle</text>
<polyline points="368.28,10.68 368.16,9.96 368.22,10.02 368.04,9.719 367.8,9.36 367.8,9.42 367.5,9.12 367.56,9.12 367.2,8.82 
	367.2,8.88 366.3,8.34 366.36,8.34 365.339,7.92 364.14,7.62 364.2,7.62 362.879,7.38 361.44,7.32 360,7.38 360.06,7.38 
	358.74,7.62 357.54,7.92 357.6,7.92 356.52,8.34 355.68,8.88 355.74,8.82 355.379,9.12 355.08,9.42 355.14,9.36 354.9,9.719 
	354.72,10.02 354.6,10.38 354.6,10.26 354.6,10.98 354.6,10.92 354.72,11.28 354.72,11.219 354.9,11.58 354.839,11.58 355.08,11.88 
	355.08,11.82 355.379,12.12 355.74,12.42 355.68,12.42 356.52,12.96 357.6,13.38 357.54,13.32 358.74,13.68 360.06,13.86 360,13.86 
	361.44,13.92 362.879,13.86 364.2,13.68 364.14,13.68 365.339,13.32 365.339,13.38 366.36,12.96 366.3,12.96 367.2,12.42 
	367.56,12.12 367.5,12.12 367.8,11.82 367.8,11.88 368.04,11.58 368.459,11.82 368.4,11.88 368.16,12.18 367.86,12.48 367.5,12.78 
	367.44,12.84 366.54,13.38 365.52,13.8 365.459,13.8 364.26,14.16 362.94,14.34 362.879,14.34 361.44,14.4 360,14.34 358.68,14.16 
	358.62,14.16 357.419,13.8 356.339,13.38 356.28,13.38 355.44,12.84 355.44,12.78 355.08,12.48 355.02,12.48 354.72,12.18 
	354.48,11.88 354.48,11.82 354.3,11.46 354.24,11.46 354.12,11.1 354.12,10.2 354.24,9.84 354.3,9.78 354.48,9.48 354.72,9.12 
	354.72,9.06 355.02,8.76 355.08,8.76 355.44,8.46 356.28,7.92 356.339,7.92 357.419,7.5 357.419,7.44 358.62,7.14 358.68,7.14 
	360,6.9 361.44,6.84 362.879,6.9 362.94,6.9 364.26,7.14 365.459,7.44 365.52,7.5 366.54,7.92 367.44,8.46 367.5,8.46 367.86,8.76 
	368.16,9.06 368.22,9.12 368.459,9.48 368.64,9.78 368.64,9.9 368.76,10.62 "/>
<polyline points="368.04,11.58 368.22,11.219 368.16,11.34 368.28,10.62 368.28,10.68 368.76,10.62 368.76,10.68 368.64,11.4 
	368.64,11.46 368.459,11.82 "/>
<polyline points="368.28,24.84 368.16,24.12 368.22,24.18 368.04,23.88 367.8,23.52 367.8,23.58 367.5,23.28 367.56,23.28 
	367.2,22.98 367.2,23.04 366.3,22.56 366.36,22.56 365.339,22.08 364.14,21.78 364.2,21.78 362.879,21.6 361.44,21.48 361.5,21.48 
	360.06,21.6 358.74,21.78 357.54,22.08 357.6,22.08 356.52,22.56 355.68,23.04 355.74,22.98 355.379,23.28 355.08,23.58 
	355.14,23.52 354.9,23.88 354.72,24.18 354.6,24.54 354.6,24.42 354.6,25.14 354.6,25.08 354.72,25.44 354.72,25.38 354.9,25.74 
	354.839,25.74 355.08,26.04 355.379,26.4 355.32,26.34 355.68,26.58 356.52,27.12 357.6,27.54 357.54,27.48 358.74,27.84 
	360.06,28.02 360,28.02 361.44,28.08 362.879,28.02 364.2,27.84 364.14,27.84 365.339,27.48 365.339,27.54 366.36,27.12 
	366.3,27.12 367.2,26.58 367.56,26.34 367.5,26.4 367.8,26.04 368.04,25.74 368.459,25.98 368.4,26.04 368.16,26.34 367.86,26.7 
	367.8,26.76 367.44,27 366.54,27.54 365.52,27.96 365.459,27.96 364.26,28.32 362.94,28.5 362.879,28.5 361.44,28.56 360,28.5 
	358.68,28.32 358.62,28.32 357.419,27.96 356.339,27.54 356.28,27.54 355.44,27 355.08,26.76 355.02,26.7 354.72,26.34 
	354.48,26.04 354.48,25.98 354.3,25.62 354.24,25.62 354.12,25.26 354.12,24.36 354.24,24 354.3,23.94 354.48,23.64 354.72,23.28 
	354.72,23.219 355.02,22.92 355.08,22.92 355.44,22.62 356.28,22.14 356.339,22.14 357.419,21.66 357.419,21.6 358.62,21.3 
	358.68,21.3 360,21.12 361.44,21 361.5,21 362.94,21.12 364.26,21.3 365.459,21.6 365.52,21.66 366.54,22.14 367.44,22.62 
	367.5,22.62 367.86,22.92 368.22,23.28 368.459,23.64 368.64,23.94 368.64,24.06 368.76,24.78 "/>
<polyline points="368.04,25.74 368.22,25.38 368.16,25.5 368.28,24.78 368.28,24.84 368.76,24.78 368.76,24.84 368.64,25.56 
	368.64,25.62 368.459,25.98 "/>
<rect x="354.12" y="10.38" width="0.479" height="14.641"/>
<rect x="368.28" y="10.38" width="0.479" height="14.641"/>
<rect x="113.4" y="85.02" fill="#E6E6E6" width="70.86" height="42.54"/>
<rect x="122.88" y="8.88" width="55.2" height="26.58"/>
<rect x="122.88" y="8.64" width="55.44" height="0.479"/>
<rect x="177.839" y="8.88" width="0.48" height="26.82"/>
<rect x="122.64" y="35.219" width="55.44" height="0.48"/>
<rect x="122.64" y="8.64" width="0.48" height="26.819"/>
<rect x="120.48" y="7.08" fill="#FFFFFF" width="55.2" height="26.58"/>
<rect x="120.48" y="6.84" width="55.439" height="0.48"/>
<rect x="175.44" y="7.08" width="0.479" height="26.82"/>
<rect x="120.24" y="33.42" width="55.44" height="0.48"/>
<rect x="120.24" y="6.84" width="0.48" height="26.82"/>
<text transform="matrix(1 0 0 1 122.8799 14.2205)" font-family="'ProductusOSGiBookc'" font-size="7.98">Meta Type Client</text>
<rect x="122.88" y="93.9" width="55.2" height="26.58"/>
<rect x="122.88" y="93.66" width="55.44" height="0.48"/>
<rect x="177.839" y="93.9" width="0.48" height="26.819"/>
<rect x="122.64" y="120.24" width="55.44" height="0.479"/>
<rect x="122.64" y="93.66" width="0.48" height="26.82"/>
<rect x="120.48" y="92.1" fill="#FFFFFF" width="55.2" height="26.58"/>
<rect x="120.48" y="91.86" width="55.439" height="0.479"/>
<rect x="175.44" y="92.1" width="0.479" height="26.819"/>
<rect x="120.24" y="118.44" width="55.44" height="0.479"/>
<rect x="120.24" y="91.86" width="0.48" height="26.82"/>
<text transform="matrix(1 0 0 1 122.8799 100.24)" enable-background="new    "><tspan x="0" y="0" font-family="'ProductusOSGiBookc'" font-size="7.98">Meta Type</tspan><tspan x="0" y="9.576" font-family="'ProductusOSGiBookc'" font-size="7.98">Service Impl</tspan></text>
<text transform="matrix(1 0 0 1 331.2295 71.1599)" enable-background="new    "><tspan x="0" y="0" font-family="'ProductusOSGiBookc'" font-size="7.98">Metatype</tspan><tspan x="-11.729" y="9.576" font-family="'ProductusOSGiBookc'" font-size="7.98">xml resources</tspan></text>
<rect x="44.94" y="8.88" width="55.2" height="26.58"/>
<rect x="44.94" y="8.64" width="55.44" height="0.479"/>
<rect x="99.9" y="8.88" width="0.48" height="26.82"/>
<rect x="44.7" y="35.219" width="55.44" height="0.48"/>
<rect x="44.7" y="8.64" width="0.48" height="26.819"/>
<rect x="42.54" y="7.08" fill="#FFFFFF" width="55.2" height="26.58"/>
<rect x="42.54" y="6.84" width="55.44" height="0.48"/>
<rect x="97.5" y="7.08" width="0.48" height="26.82"/>
<rect x="42.3" y="33.42" width="55.44" height="0.48"/>
<rect x="42.3" y="6.84" width="0.48" height="26.82"/>
<text transform="matrix(1 0 0 1 44.9399 14.2205)" font-family="'ProductusOSGiBookc'" font-size="7.98">Any bundle</text>
<polyline fill="#FFFFFF" points="63.78,70.86 77.94,70.86 70.86,56.7 "/>
<polyline points="63.78,70.62 77.94,70.62 78.18,70.74 77.76,70.98 70.68,56.82 70.68,56.58 70.92,56.16 71.1,56.58 78.36,71.1 
	63.78,71.1 "/>
<polyline points="71.1,56.82 64.02,70.98 63.78,71.1 63.42,71.1 70.68,56.58 "/>
<rect x="70.62" y="35.219" width="0.48" height="21.721"/>
<rect x="70.62" y="70.62" width="0.48" height="35.94"/>
<rect x="70.86" y="106.08" width="49.86" height="0.48"/>
<polyline fill="#FFFFFF" points="141.72,56.7 155.94,56.7 148.8,70.86 "/>
<polyline points="141.72,56.46 156.36,56.46 156.18,56.82 149.04,70.98 148.86,71.4 148.62,70.98 148.62,70.74 155.76,56.58 
	156.18,56.82 155.94,56.94 141.72,56.94 "/>
<polyline points="148.62,70.98 141.36,56.46 141.72,56.46 141.96,56.58 149.04,70.74 "/>
<rect x="148.56" y="35.219" width="0.48" height="21.721"/>
<rect x="148.56" y="70.62" width="0.48" height="21.72"/>
<text transform="matrix(1 0 0 1 160.1396 60.9597)" enable-background="new    "><tspan x="0" y="0" font-family="'ProductusOSGiBookc'" font-size="7.98">Meta Type</tspan><tspan x="0" y="9.576" font-family="'ProductusOSGiBookc'" font-size="7.98">Service</tspan></text>
<text transform="matrix(1 0 0 1 28.3198 63.7791)" enable-background="new    "><tspan x="0" y="0" font-family="'ProductusOSGiBookc'" font-size="7.98">Meta Type</tspan><tspan x="0" y="9.576" font-family="'ProductusOSGiBookc'" font-size="7.98">Provider</tspan></text>
<rect x="199.919" y="8.88" width="55.2" height="26.58"/>
<rect x="199.919" y="8.64" width="55.44" height="0.479"/>
<rect x="254.879" y="8.88" width="0.48" height="26.82"/>
<rect x="199.68" y="35.219" width="55.439" height="0.48"/>
<rect x="199.68" y="8.64" width="0.479" height="26.819"/>
<rect x="197.52" y="7.08" fill="#FFFFFF" width="55.201" height="26.58"/>
<rect x="197.52" y="6.84" width="55.439" height="0.48"/>
<rect x="252.48" y="7.08" width="0.479" height="26.82"/>
<rect x="197.279" y="33.42" width="55.441" height="0.48"/>
<rect x="197.279" y="6.84" width="0.48" height="26.82"/>
<text transform="matrix(1 0 0 1 199.9199 14.2205)" font-family="'ProductusOSGiBookc'" font-size="7.98">Any bundle</text>
<polyline fill="#FFFFFF" points="219.721,70.86 233.879,70.86 226.8,56.7 "/>
<polyline points="219.721,70.62 233.879,70.62 234.12,70.74 233.7,70.98 226.62,56.82 226.62,56.58 226.859,56.16 227.04,56.58 
	234.3,71.1 219.721,71.1 "/>
<polyline points="227.04,56.82 219.959,70.98 219.721,71.1 219.359,71.1 226.62,56.58 "/>
<text transform="matrix(1 0 0 1 238.5605 58.8005)" enable-background="new    "><tspan x="0" y="0" font-family="'ProductusOSGiBookc'" font-size="7.98">Managed</tspan><tspan x="0" y="9.576" font-family="'ProductusOSGiBookc'" font-size="7.98">Service</tspan><tspan x="0" y="19.152" font-family="'ProductusOSGiBookc'" font-size="7.98">(Factory)</tspan></text>
<rect x="226.561" y="35.219" width="0.479" height="21.721"/>
<rect x="226.561" y="70.62" width="0.479" height="35.94"/>
<rect x="176.94" y="106.08" width="49.86" height="0.48"/>
<text transform="matrix(1 0 0 1 0 85.3201)" enable-background="new    "><tspan x="0" y="0" font-family="'ProductusOSGiBookc'" font-size="7.98">metatype.pid=...</tspan><tspan x="0" y="9.576" font-family="'ProductusOSGiBookc'" font-size="7.98">metatype.factory.pid=...</tspan></text>
<rect x="176.94" y="113.16" width="4.2" height="0.48"/>
<rect x="187.26" y="113.16" width="8.1" height="0.48"/>
<rect x="201.419" y="113.16" width="8.101" height="0.48"/>
<rect x="215.641" y="113.16" width="8.039" height="0.48"/>
<rect x="229.8" y="113.16" width="8.101" height="0.48"/>
<rect x="244.02" y="113.16" width="8.041" height="0.48"/>
<rect x="258.18" y="113.16" width="8.041" height="0.48"/>
<rect x="272.339" y="113.16" width="8.101" height="0.48"/>
<rect x="286.561" y="113.16" width="8.039" height="0.48"/>
<rect x="300.721" y="113.16" width="8.1" height="0.48"/>
<rect x="314.879" y="113.16" width="8.102" height="0.48"/>
<rect x="329.1" y="113.16" width="8.04" height="0.48"/>
<rect x="343.26" y="113.16" width="8.101" height="0.48"/>
<rect x="357.419" y="113.16" width="4.261" height="0.48"/>
<rect x="361.2" y="109.38" width="0.479" height="4.021"/>
<rect x="361.2" y="103.08" width="0.479" height="0.24"/>
<rect x="361.2" y="95.219" width="0.479" height="7.86"/>
<rect x="361.2" y="88.86" width="0.479" height="0.24"/>
<rect x="361.2" y="81" width="0.479" height="7.86"/>
<rect x="361.2" y="74.7" width="0.479" height="0.24"/>
<rect x="361.2" y="66.84" width="0.479" height="7.86"/>
<rect x="361.2" y="60.48" width="0.479" height="0.239"/>
<rect x="361.2" y="52.62" width="0.479" height="7.86"/>
<rect x="361.2" y="46.26" width="0.479" height="0.24"/>
<rect x="361.2" y="38.46" width="0.479" height="7.8"/>
<rect x="361.2" y="32.1" width="0.479" height="0.239"/>
<rect x="361.2" y="28.08" width="0.479" height="4.021"/>
</svg>
