<?xml version="1.0" encoding="utf-8"?>
<!-- Generator: Adobe Illustrator 16.0.0, SVG Export Plug-In . SVG Version: 6.00 Build 0)  -->
<!DOCTYPE svg PUBLIC "-//W3C//DTD SVG 1.1//EN" "http://www.w3.org/Graphics/SVG/1.1/DTD/svg11.dtd">
<svg version="1.1" id="Layer_1" xmlns="http://www.w3.org/2000/svg" xmlns:xlink="http://www.w3.org/1999/xlink" x="0px" y="0px"
	 width="269.82px" height="234.3px" viewBox="0 0 269.82 234.3" style="enable-background:new 0 0 269.82 234.3;"
	 xml:space="preserve">
<rect x="108.9" y="1.98" width="54.36" height="26.58"/>
<rect x="108.9" y="1.74" width="54.601" height="0.48"/>
<rect x="163.02" y="1.98" width="0.48" height="26.82"/>
<rect x="108.66" y="28.32" width="54.6" height="0.48"/>
<rect x="108.66" y="1.74" width="0.48" height="26.82"/>
<rect x="106.56" y="0.24" style="fill:#FFFFFF;" width="54.36" height="26.58"/>
<rect x="106.56" width="54.6" height="0.48"/>
<rect x="160.68" y="0.24" width="0.479" height="26.82"/>
<rect x="106.32" y="26.58" width="54.6" height="0.48"/>
<rect x="106.32" width="0.48" height="26.82"/>
<text transform="matrix(1 0 0 1 108.8999 7.3198)"><tspan x="0" y="0" style="font-family:'ProductusSemibold'; font-size:7.98;">MetaDat</tspan><tspan x="30.388" y="0" style="font-family:'ProductusSemibold'; font-size:7.98;">a</tspan></text>
<rect x="108.9" y="108.3" width="54.36" height="26.58"/>
<rect x="108.9" y="108.06" width="54.601" height="0.48"/>
<rect x="163.02" y="108.3" width="0.48" height="26.82"/>
<rect x="108.66" y="134.64" width="54.6" height="0.48"/>
<rect x="108.66" y="108.06" width="0.48" height="26.82"/>
<rect x="106.56" y="106.5" style="fill:#FFFFFF;" width="54.36" height="26.58"/>
<rect x="106.56" y="106.26" width="54.6" height="0.479"/>
<rect x="160.68" y="106.5" width="0.479" height="26.82"/>
<rect x="106.32" y="132.84" width="54.6" height="0.48"/>
<rect x="106.32" y="106.26" width="0.48" height="26.82"/>
<text transform="matrix(1 0 0 1 108.8999 113.6401)"><tspan x="0" y="0" style="font-family:'ProductusSemibold'; font-size:7.98;">OC</tspan><tspan x="10.797" y="0" style="font-family:'ProductusSemibold'; font-size:7.98;">D</tspan></text>
<rect x="108.9" y="157.92" width="54.36" height="26.58"/>
<rect x="108.9" y="157.68" width="54.601" height="0.48"/>
<rect x="163.02" y="157.92" width="0.48" height="26.82"/>
<rect x="108.66" y="184.26" width="54.6" height="0.48"/>
<rect x="108.66" y="157.68" width="0.48" height="26.82"/>
<rect x="106.56" y="156.12" style="fill:#FFFFFF;" width="54.36" height="26.58"/>
<rect x="106.56" y="155.88" width="54.6" height="0.48"/>
<rect x="160.68" y="156.12" width="0.479" height="26.82"/>
<rect x="106.32" y="182.46" width="54.6" height="0.48"/>
<rect x="106.32" y="155.88" width="0.48" height="26.82"/>
<text transform="matrix(1 0 0 1 108.8999 163.2603)"><tspan x="0" y="0" style="font-family:'ProductusSemibold'; font-size:7.98;">A</tspan><tspan x="5.035" y="0" style="font-family:'ProductusSemibold'; font-size:7.98;">D</tspan></text>
<rect x="134.7" y="28.32" width="0.48" height="0.24"/>
<rect x="134.7" y="28.56" width="0.48" height="78.18"/>
<polyline points="156.3,28.32 156.06,28.26 155.88,28.74 156.12,28.8 "/>
<polyline points="234.24,56.7 234.48,56.76 234.3,57.24 234.06,57.18 "/>
<polyline points="156.3,28.32 156.12,28.8 234.06,57.18 234.24,56.7 "/>
<rect x="215.22" y="58.68" width="54.36" height="26.58"/>
<rect x="215.22" y="58.44" width="54.6" height="0.48"/>
<rect x="269.34" y="58.68" width="0.479" height="26.82"/>
<rect x="214.98" y="85.02" width="54.601" height="0.48"/>
<rect x="214.98" y="58.44" width="0.48" height="26.82"/>
<rect x="212.88" y="56.94" style="fill:#FFFFFF;" width="54.3" height="26.58"/>
<rect x="212.88" y="56.7" width="54.54" height="0.48"/>
<rect x="266.94" y="56.94" width="0.48" height="26.82"/>
<rect x="212.64" y="83.28" width="54.54" height="0.48"/>
<rect x="212.64" y="56.7" width="0.479" height="26.82"/>
<text transform="matrix(1 0 0 1 215.2202 64.02)"><tspan x="0" y="0" style="font-family:'ProductusSemibold'; font-size:7.98;">De</tspan><tspan x="9.504" y="0" style="font-family:'ProductusSemibold'; font-size:7.98;">s</tspan><tspan x="12.8" y="0" style="font-family:'ProductusSemibold'; font-size:7.98;">i</tspan><tspan x="15.018" y="0" style="font-family:'ProductusSemibold'; font-size:7.98;">gnat</tspan><tspan x="30.379" y="0" style="font-family:'ProductusSemibold'; font-size:7.98;">e</tspan></text>
<rect x="108.9" y="207.54" width="54.36" height="26.52"/>
<rect x="108.9" y="207.3" width="54.601" height="0.48"/>
<rect x="163.02" y="207.54" width="0.48" height="26.76"/>
<rect x="108.66" y="233.82" width="54.6" height="0.48"/>
<rect x="108.66" y="207.3" width="0.48" height="26.76"/>
<rect x="106.56" y="205.74" style="fill:#FFFFFF;" width="54.36" height="26.58"/>
<rect x="106.56" y="205.5" width="54.6" height="0.48"/>
<rect x="160.68" y="205.74" width="0.479" height="26.82"/>
<rect x="106.32" y="232.08" width="54.6" height="0.48"/>
<rect x="106.32" y="205.5" width="0.48" height="26.82"/>
<text transform="matrix(1 0 0 1 108.8999 212.8198)"><tspan x="0" y="0" style="font-family:'ProductusSemibold'; font-size:7.98;">O</tspan><tspan x="5.777" y="0" style="font-family:'ProductusSemibold'; font-size:7.98;">p</tspan><tspan x="10.095" y="0" style="font-family:'ProductusSemibold'; font-size:7.98;">t</tspan><tspan x="13.215" y="0" style="font-family:'ProductusSemibold'; font-size:7.98;">i</tspan><tspan x="15.369" y="0" style="font-family:'ProductusSemibold'; font-size:7.98;">o</tspan><tspan x="19.67" y="0" style="font-family:'ProductusSemibold'; font-size:7.98;">n</tspan></text>
<rect x="208.86" y="120.48" width="4.26" height="0.48"/>
<rect x="196.74" y="120.48" width="6.96" height="0.48"/>
<rect x="184.56" y="120.48" width="7.021" height="0.48"/>
<rect x="172.44" y="120.48" width="6.96" height="0.48"/>
<rect x="163.02" y="120.48" width="4.26" height="0.48"/>
<rect x="2.64" y="157.92" width="54.3" height="26.58"/>
<rect x="2.64" y="157.68" width="54.54" height="0.48"/>
<rect x="56.7" y="157.92" width="0.48" height="26.82"/>
<rect x="2.4" y="184.26" width="54.54" height="0.48"/>
<rect x="2.4" y="157.68" width="0.48" height="26.82"/>
<rect x="0.24" y="156.12" style="fill:#FFFFFF;" width="54.36" height="26.58"/>
<rect x="0.24" y="155.88" width="54.6" height="0.48"/>
<rect x="54.36" y="156.12" width="0.48" height="26.82"/>
<rect y="182.46" width="54.6" height="0.48"/>
<rect y="155.88" width="0.48" height="26.82"/>
<text transform="matrix(1 0 0 1 2.6401 163.2603)"><tspan x="0" y="0" style="font-family:'ProductusSemibold'; font-size:7.98;">Ic</tspan><tspan x="5.929" y="0" style="font-family:'ProductusSemibold'; font-size:7.98;">o</tspan><tspan x="10.246" y="0" style="font-family:'ProductusSemibold'; font-size:7.98;">n</tspan></text>
<polyline points="120.78,135.12 121.02,135.06 120.9,134.58 120.66,134.64 "/>
<polyline points="28.68,156.36 28.44,156.42 28.32,155.94 28.56,155.88 "/>
<polyline points="120.78,135.12 120.66,134.64 28.56,155.88 28.68,156.36 "/>
<text transform="matrix(1 0 0 1 129.9604 33.54)" style="font-family:'ProductusBook'; font-size:7.98;">1</text>
<text transform="matrix(1 0 0 1 136.5601 103.9805)" style="font-family:'ProductusBook'; font-size:7.98;">*</text>
<rect x="215.22" y="108.3" width="54.36" height="26.58"/>
<rect x="215.22" y="108.06" width="54.6" height="0.48"/>
<rect x="269.34" y="108.3" width="0.479" height="26.82"/>
<rect x="214.98" y="134.64" width="54.601" height="0.48"/>
<rect x="214.98" y="108.06" width="0.48" height="26.82"/>
<rect x="212.88" y="106.5" style="fill:#FFFFFF;" width="54.3" height="26.58"/>
<rect x="212.88" y="106.26" width="54.54" height="0.479"/>
<rect x="266.94" y="106.5" width="0.48" height="26.82"/>
<rect x="212.64" y="132.84" width="54.54" height="0.48"/>
<rect x="212.64" y="106.26" width="0.479" height="26.82"/>
<text transform="matrix(1 0 0 1 215.2202 113.6401)"><tspan x="0" y="0" style="font-family:'ProductusSemibold'; font-size:7.98;">Objec</tspan><tspan x="20.093" y="0" style="font-family:'ProductusSemibold'; font-size:7.98;">t</tspan></text>
<rect x="240.96" y="85.02" width="0.479" height="21.72"/>
<rect x="215.22" y="157.92" width="54.36" height="26.58"/>
<rect x="215.22" y="157.68" width="54.6" height="0.48"/>
<rect x="269.34" y="157.92" width="0.479" height="26.82"/>
<rect x="214.98" y="184.26" width="54.601" height="0.48"/>
<rect x="214.98" y="157.68" width="0.48" height="26.82"/>
<rect x="212.88" y="156.12" style="fill:#FFFFFF;" width="54.3" height="26.58"/>
<rect x="212.88" y="155.88" width="54.54" height="0.48"/>
<rect x="266.94" y="156.12" width="0.48" height="26.82"/>
<rect x="212.64" y="182.46" width="54.54" height="0.48"/>
<rect x="212.64" y="155.88" width="0.479" height="26.82"/>
<text transform="matrix(1 0 0 1 215.2202 163.2603)"><tspan x="0" y="0" style="font-family:'ProductusSemibold'; font-size:7.98;">A</tspan><tspan x="4.732" y="0" style="font-family:'ProductusSemibold'; font-size:7.98;">t</tspan><tspan x="7.908" y="0" style="font-family:'ProductusSemibold'; font-size:7.98;">t</tspan><tspan x="11.028" y="0" style="font-family:'ProductusSemibold'; font-size:7.98;">r</tspan><tspan x="14.021" y="0" style="font-family:'ProductusSemibold'; font-size:7.98;">i</tspan><tspan x="16.175" y="0" style="font-family:'ProductusSemibold'; font-size:7.98;">b</tspan><tspan x="20.492" y="0" style="font-family:'ProductusSemibold'; font-size:7.98;">u</tspan><tspan x="24.745" y="0" style="font-family:'ProductusSemibold'; font-size:7.98;">t</tspan><tspan x="27.865" y="0" style="font-family:'ProductusSemibold'; font-size:7.98;">e</tspan></text>
<rect x="208.86" y="170.04" width="4.26" height="0.48"/>
<rect x="196.74" y="170.04" width="6.96" height="0.48"/>
<rect x="184.56" y="170.04" width="7.021" height="0.48"/>
<rect x="179.16" y="170.04" width="0.24" height="0.48"/>
<rect x="172.44" y="170.04" width="6.72" height="0.48"/>
<rect x="167.041" y="170.04" width="0.239" height="0.48"/>
<rect x="163.02" y="170.04" width="4.021" height="0.48"/>
<rect x="134.7" y="134.64" width="0.48" height="0.24"/>
<rect x="134.7" y="134.88" width="0.48" height="21.48"/>
<rect x="134.7" y="184.26" width="0.48" height="0.24"/>
<rect x="134.7" y="184.5" width="0.48" height="21.48"/>
<text transform="matrix(1 0 0 1 99.48 137.6401)" style="font-family:'ProductusBook'; font-size:7.98;">1</text>
<text transform="matrix(1 0 0 1 28.6201 153.7798)" style="font-family:'ProductusBook'; font-size:7.98;">*</text>
<text transform="matrix(1 0 0 1 165.4204 118.9194)" style="font-family:'ProductusBook'; font-size:7.98;">1</text>
<text transform="matrix(1 0 0 1 206.8804 118.3198)" style="font-family:'ProductusBook'; font-size:7.98;">*</text>
<text transform="matrix(1 0 0 1 165.4204 167.939)" style="font-family:'ProductusBook'; font-size:7.98;">1</text>
<text transform="matrix(1 0 0 1 206.8804 167.3394)" style="font-family:'ProductusBook'; font-size:7.98;">*</text>
<text transform="matrix(1 0 0 1 236.3999 90.1787)" style="font-family:'ProductusBook'; font-size:7.98;">1</text>
<text transform="matrix(1 0 0 1 242.9399 103.9785)" style="font-family:'ProductusBook'; font-size:7.98;">1</text>
<text transform="matrix(1 0 0 1 129.8999 140.0386)" style="font-family:'ProductusBook'; font-size:7.98;">1</text>
<text transform="matrix(1 0 0 1 136.5005 153.7788)"><tspan x="0" y="0" style="font-family:'ProductusBook'; font-size:7.98;">1.</tspan><tspan x="4.796" y="0" style="font-family:'ProductusBook'; font-size:7.98;">.</tspan><tspan x="6.36" y="0" style="font-family:'ProductusBook'; font-size:7.98;">n</tspan></text>
<text transform="matrix(1 0 0 1 130.6802 189.5986)" style="font-family:'ProductusBook'; font-size:7.98;">1</text>
<text transform="matrix(1 0 0 1 137.2808 203.3984)"><tspan x="0" y="0" style="font-family:'ProductusBook'; font-size:7.98;">0</tspan><tspan x="3.942" y="0" style="font-family:'ProductusBook'; font-size:7.98;">.</tspan><tspan x="5.506" y="0" style="font-family:'ProductusBook'; font-size:7.98;">.</tspan><tspan x="7.134" y="0" style="font-family:'ProductusBook'; font-size:7.98;">n</tspan></text>
<text transform="matrix(1 0 0 1 237.061 140.8184)" style="font-family:'ProductusBook'; font-size:7.98;">1</text>
<text transform="matrix(1 0 0 1 243.6001 154.6182)"><tspan x="0" y="0" style="font-family:'ProductusBook'; font-size:7.98;">1</tspan><tspan x="3.128" y="0" style="font-family:'ProductusBook'; font-size:7.98;">.</tspan><tspan x="4.748" y="0" style="font-family:'ProductusBook'; font-size:7.98;">.</tspan><tspan x="6.36" y="0" style="font-family:'ProductusBook'; font-size:7.98;">n</tspan></text>
<rect x="240.96" y="134.64" width="0.479" height="0.24"/>
<rect x="240.96" y="134.88" width="0.479" height="21.48"/>
<text transform="matrix(1 0 0 1 153.0005 33.54)" style="font-family:'ProductusBook'; font-size:7.98;">1</text>
<text transform="matrix(1 0 0 1 230.9995 54.4194)" style="font-family:'ProductusBook'; font-size:7.98;">*</text>
<rect x="215.22" y="207.54" width="54.36" height="26.52"/>
<rect x="215.22" y="207.3" width="54.6" height="0.48"/>
<rect x="269.34" y="207.54" width="0.479" height="26.76"/>
<rect x="214.98" y="233.82" width="54.601" height="0.48"/>
<rect x="214.98" y="207.3" width="0.48" height="26.76"/>
<rect x="212.88" y="205.74" style="fill:#FFFFFF;" width="54.3" height="26.58"/>
<rect x="212.88" y="205.5" width="54.54" height="0.48"/>
<rect x="266.94" y="205.74" width="0.48" height="26.82"/>
<rect x="212.64" y="232.08" width="54.54" height="0.48"/>
<rect x="212.64" y="205.5" width="0.479" height="26.82"/>
<text transform="matrix(1 0 0 1 215.2202 212.8198)"><tspan x="0" y="0" style="font-family:'ProductusSemibold'; font-size:7.98;">V</tspan><tspan x="4.564" y="0" style="font-family:'ProductusSemibold'; font-size:7.98;">a</tspan><tspan x="8.522" y="0" style="font-family:'ProductusSemibold'; font-size:7.98;">l</tspan><tspan x="10.677" y="0" style="font-family:'ProductusSemibold'; font-size:7.98;">u</tspan><tspan x="14.994" y="0" style="font-family:'ProductusSemibold'; font-size:7.98;">e</tspan></text>
<rect x="240.96" y="184.26" width="0.479" height="0.24"/>
<rect x="240.96" y="184.5" width="0.479" height="21.48"/>
<text transform="matrix(1 0 0 1 243.3599 189.6001)" style="font-family:'ProductusBook'; font-size:7.98;">1</text>
<text transform="matrix(1 0 0 1 244.2007 203.3999)"><tspan x="0" y="0" style="font-family:'ProductusBook'; font-size:7.98;">0..</tspan><tspan x="7.126" y="0" style="font-family:'ProductusBook'; font-size:7.98;">n</tspan></text>
</svg>
