<?xml version="1.0" encoding="utf-8"?>
<!-- Generator: Adobe Illustrator 16.0.4, SVG Export Plug-In . SVG Version: 6.00 Build 0)  -->
<!DOCTYPE svg PUBLIC "-//W3C//DTD SVG 1.1//EN" "http://www.w3.org/Graphics/SVG/1.1/DTD/svg11.dtd">
<svg version="1.1" id="Layer_1" xmlns="http://www.w3.org/2000/svg" xmlns:xlink="http://www.w3.org/1999/xlink" x="0px" y="0px"
	 width="269.82px" height="234.3px" viewBox="0 0 269.82 234.3" enable-background="new 0 0 269.82 234.3" xml:space="preserve">
<rect x="108.9" y="1.98" width="54.358" height="26.58"/>
<rect x="108.9" y="1.74" width="54.601" height="0.479"/>
<rect x="163.02" y="1.98" width="0.479" height="26.82"/>
<rect x="108.66" y="28.32" width="54.601" height="0.48"/>
<rect x="108.66" y="1.74" width="0.48" height="26.82"/>
<rect x="106.56" y="0.24" fill="#FFFFFF" width="54.358" height="26.58"/>
<rect x="106.56" width="54.6" height="0.48"/>
<rect x="160.68" y="0.24" width="0.479" height="26.82"/>
<rect x="106.32" y="26.58" width="54.6" height="0.48"/>
<rect x="106.32" width="0.479" height="26.82"/>
<text transform="matrix(1 0 0 1 108.9001 7.3198)" font-family="'ProductusSemibold'" font-size="7.98">MetaData</text>
<rect x="108.9" y="108.3" width="54.358" height="26.581"/>
<rect x="108.9" y="108.06" width="54.601" height="0.48"/>
<rect x="163.02" y="108.3" width="0.479" height="26.821"/>
<rect x="108.66" y="134.64" width="54.601" height="0.48"/>
<rect x="108.66" y="108.06" width="0.48" height="26.82"/>
<rect x="106.56" y="106.5" fill="#FFFFFF" width="54.358" height="26.58"/>
<rect x="106.56" y="106.26" width="54.6" height="0.479"/>
<rect x="160.68" y="106.5" width="0.479" height="26.82"/>
<rect x="106.32" y="132.839" width="54.6" height="0.479"/>
<rect x="106.32" y="106.26" width="0.479" height="26.819"/>
<text transform="matrix(1 0 0 1 108.9001 113.6392)" font-family="'ProductusSemibold'" font-size="7.98">OCD</text>
<rect x="108.9" y="157.919" width="54.358" height="26.58"/>
<rect x="108.9" y="157.68" width="54.601" height="0.479"/>
<rect x="163.02" y="157.919" width="0.479" height="26.819"/>
<rect x="108.66" y="184.259" width="54.601" height="0.479"/>
<rect x="108.66" y="157.68" width="0.48" height="26.819"/>
<rect x="106.56" y="156.121" fill="#FFFFFF" width="54.358" height="26.58"/>
<rect x="106.56" y="155.88" width="54.6" height="0.479"/>
<rect x="160.68" y="156.121" width="0.479" height="26.819"/>
<rect x="106.32" y="182.46" width="54.6" height="0.479"/>
<rect x="106.32" y="155.88" width="0.479" height="26.82"/>
<text transform="matrix(1 0 0 1 108.9001 163.2603)" font-family="'ProductusSemibold'" font-size="7.98">AD</text>
<rect x="134.7" y="28.32" width="0.48" height="0.24"/>
<rect x="134.7" y="28.56" width="0.48" height="78.18"/>
<polyline points="156.3,28.32 156.06,28.26 155.88,28.74 156.12,28.8 "/>
<polyline points="234.24,56.7 234.48,56.76 234.3,57.24 234.06,57.18 "/>
<polyline points="156.3,28.32 156.12,28.8 234.06,57.18 234.24,56.7 "/>
<rect x="215.22" y="58.68" width="54.358" height="26.58"/>
<rect x="215.22" y="58.44" width="54.6" height="0.48"/>
<rect x="269.34" y="58.68" width="0.479" height="26.82"/>
<rect x="214.98" y="85.02" width="54.601" height="0.48"/>
<rect x="214.98" y="58.44" width="0.479" height="26.82"/>
<rect x="212.88" y="56.94" fill="#FFFFFF" width="54.302" height="26.58"/>
<rect x="212.88" y="56.7" width="54.54" height="0.48"/>
<rect x="266.94" y="56.94" width="0.479" height="26.82"/>
<rect x="212.64" y="83.28" width="54.54" height="0.479"/>
<rect x="212.64" y="56.7" width="0.479" height="26.82"/>
<text transform="matrix(1 0 0 1 215.2205 64.019)" font-family="'ProductusSemibold'" font-size="7.98">Designate</text>
<rect x="108.9" y="207.541" width="54.358" height="26.521"/>
<rect x="108.9" y="207.3" width="54.601" height="0.479"/>
<rect x="163.02" y="207.541" width="0.479" height="26.76"/>
<rect x="108.66" y="233.82" width="54.601" height="0.48"/>
<rect x="108.66" y="207.3" width="0.48" height="26.76"/>
<rect x="106.56" y="205.74" fill="#FFFFFF" width="54.358" height="26.58"/>
<rect x="106.56" y="205.5" width="54.6" height="0.48"/>
<rect x="160.68" y="205.74" width="0.479" height="26.82"/>
<rect x="106.32" y="232.08" width="54.6" height="0.48"/>
<rect x="106.32" y="205.5" width="0.479" height="26.82"/>
<text transform="matrix(1 0 0 1 108.9001 212.8198)" font-family="'ProductusSemibold'" font-size="7.98">Option</text>
<rect x="208.86" y="120.48" width="4.26" height="0.48"/>
<rect x="196.74" y="120.48" width="6.96" height="0.48"/>
<rect x="184.56" y="120.48" width="7.021" height="0.48"/>
<rect x="172.44" y="120.48" width="6.96" height="0.48"/>
<rect x="163.02" y="120.48" width="4.26" height="0.48"/>
<rect x="2.64" y="157.919" width="54.3" height="26.58"/>
<rect x="2.64" y="157.68" width="54.54" height="0.479"/>
<rect x="56.7" y="157.919" width="0.48" height="26.819"/>
<rect x="2.4" y="184.259" width="54.54" height="0.479"/>
<rect x="2.4" y="157.68" width="0.479" height="26.819"/>
<rect x="0.24" y="156.121" fill="#FFFFFF" width="54.36" height="26.58"/>
<rect x="0.24" y="155.88" width="54.6" height="0.479"/>
<rect x="54.36" y="156.121" width="0.479" height="26.819"/>
<rect x="0" y="182.46" width="54.602" height="0.479"/>
<rect x="0" y="155.88" width="0.48" height="26.82"/>
<text transform="matrix(1 0 0 1 2.6404 163.2603)" font-family="'ProductusSemibold'" font-size="7.98">Icon</text>
<polyline points="120.78,135.121 121.02,135.06 120.9,134.58 120.66,134.64 "/>
<polyline points="28.68,156.36 28.44,156.419 28.32,155.94 28.56,155.88 "/>
<polyline points="120.78,135.121 120.66,134.64 28.56,155.88 28.68,156.36 "/>
<text transform="matrix(1 0 0 1 129.9607 33.5396)" font-family="'ProductusBook'" font-size="7.98">1</text>
<rect x="215.22" y="108.3" width="54.358" height="26.581"/>
<rect x="215.22" y="108.06" width="54.6" height="0.48"/>
<rect x="269.34" y="108.3" width="0.479" height="26.821"/>
<rect x="214.98" y="134.64" width="54.601" height="0.48"/>
<rect x="214.98" y="108.06" width="0.479" height="26.82"/>
<rect x="212.88" y="106.5" fill="#FFFFFF" width="54.302" height="26.58"/>
<rect x="212.88" y="106.26" width="54.54" height="0.479"/>
<rect x="266.94" y="106.5" width="0.479" height="26.82"/>
<rect x="212.64" y="132.839" width="54.54" height="0.479"/>
<rect x="212.64" y="106.26" width="0.479" height="26.819"/>
<text transform="matrix(1 0 0 1 215.2205 113.6392)" font-family="'ProductusSemibold'" font-size="7.98">Object</text>
<rect x="240.96" y="85.02" width="0.479" height="21.72"/>
<rect x="215.22" y="157.919" width="54.358" height="26.58"/>
<rect x="215.22" y="157.68" width="54.6" height="0.479"/>
<rect x="269.34" y="157.919" width="0.479" height="26.819"/>
<rect x="214.98" y="184.259" width="54.601" height="0.479"/>
<rect x="214.98" y="157.68" width="0.479" height="26.819"/>
<rect x="212.88" y="156.121" fill="#FFFFFF" width="54.302" height="26.58"/>
<rect x="212.88" y="155.88" width="54.54" height="0.479"/>
<rect x="266.94" y="156.121" width="0.479" height="26.819"/>
<rect x="212.64" y="182.46" width="54.54" height="0.479"/>
<rect x="212.64" y="155.88" width="0.479" height="26.82"/>
<text transform="matrix(1 0 0 1 215.2205 163.2603)" font-family="'ProductusSemibold'" font-size="7.98">Attribute</text>
<rect x="208.86" y="170.041" width="4.26" height="0.479"/>
<rect x="196.74" y="170.041" width="6.96" height="0.479"/>
<rect x="184.56" y="170.041" width="7.021" height="0.479"/>
<rect x="179.16" y="170.041" width="0.24" height="0.479"/>
<rect x="172.44" y="170.041" width="6.72" height="0.479"/>
<rect x="167.041" y="170.041" width="0.239" height="0.479"/>
<rect x="163.02" y="170.041" width="4.021" height="0.479"/>
<rect x="134.7" y="134.64" width="0.48" height="0.24"/>
<rect x="134.7" y="134.88" width="0.48" height="21.479"/>
<rect x="134.7" y="184.259" width="0.48" height="0.24"/>
<rect x="134.7" y="184.5" width="0.48" height="21.48"/>
<text transform="matrix(1 0 0 1 99.4797 137.6401)" font-family="'ProductusBook'" font-size="7.98">1</text>
<text transform="matrix(1 0 0 1 165.4197 118.9194)" font-family="'ProductusBook'" font-size="7.98">1</text>
<text transform="matrix(1 0 0 1 206.8806 118.3198)" font-family="'ProductusBook'" font-size="7.98">*</text>
<text transform="matrix(1 0 0 1 165.4197 167.939)" font-family="'ProductusBook'" font-size="7.98">1</text>
<text transform="matrix(1 0 0 1 206.8806 167.3394)" font-family="'ProductusBook'" font-size="7.98">*</text>
<text transform="matrix(1 0 0 1 236.4001 90.1782)" font-family="'ProductusBook'" font-size="7.98">1</text>
<text transform="matrix(1 0 0 1 242.9392 103.978)" font-family="'ProductusBook'" font-size="7.98">1</text>
<text transform="matrix(1 0 0 1 129.9001 140.0386)" font-family="'ProductusBook'" font-size="7.98">1</text>
<text transform="matrix(1 0 0 1 136.4998 153.7788)" font-family="'ProductusBook'" font-size="7.98">0..n</text>
<text transform="matrix(1 0 0 1 130.6799 189.5981)" font-family="'ProductusBook'" font-size="7.98">1</text>
<text transform="matrix(1 0 0 1 137.281 203.3979)" font-family="'ProductusBook'" font-size="7.98">0..n</text>
<text transform="matrix(1 0 0 1 237.0603 140.8179)" font-family="'ProductusBook'" font-size="7.98">1</text>
<text transform="matrix(1 0 0 1 243.5994 154.6177)" font-family="'ProductusBook'" font-size="7.98">0..n</text>
<rect x="240.96" y="134.64" width="0.479" height="0.24"/>
<rect x="240.96" y="134.88" width="0.479" height="21.479"/>
<text transform="matrix(1 0 0 1 152.9998 33.5396)" font-family="'ProductusBook'" font-size="7.98">1</text>
<rect x="215.22" y="207.541" width="54.358" height="26.521"/>
<rect x="215.22" y="207.3" width="54.6" height="0.479"/>
<rect x="269.34" y="207.541" width="0.479" height="26.76"/>
<rect x="214.98" y="233.82" width="54.601" height="0.48"/>
<rect x="214.98" y="207.3" width="0.479" height="26.76"/>
<rect x="212.88" y="205.74" fill="#FFFFFF" width="54.302" height="26.58"/>
<rect x="212.88" y="205.5" width="54.54" height="0.48"/>
<rect x="266.94" y="205.74" width="0.479" height="26.82"/>
<rect x="212.64" y="232.08" width="54.54" height="0.48"/>
<rect x="212.64" y="205.5" width="0.479" height="26.82"/>
<text transform="matrix(1 0 0 1 215.2205 212.8198)" font-family="'ProductusSemibold'" font-size="7.98">Value</text>
<rect x="240.96" y="184.259" width="0.479" height="0.24"/>
<rect x="240.96" y="184.5" width="0.479" height="21.48"/>
<text transform="matrix(1 0 0 1 243.3591 189.5991)" font-family="'ProductusBook'" font-size="7.98">1</text>
<text transform="matrix(1 0 0 1 244.2009 203.3999)" font-family="'ProductusBook'" font-size="7.98">0..n</text>
<text transform="matrix(1 0 0 1 16.5002 153.7788)" font-family="'ProductusBook'" font-size="7.98">0..n</text>
<text transform="matrix(1 0 0 1 137.281 103.978)" font-family="'ProductusBook'" font-size="7.98">0..n</text>
<text transform="matrix(1 0 0 1 234.4802 54.7788)" font-family="'ProductusBook'" font-size="7.98">0..n</text>
</svg>
