<?xml version="1.0" encoding="utf-8"?>
<!-- Generator: Adobe Illustrator 16.0.1, SVG Export Plug-In . SVG Version: 6.00 Build 0)  -->
<!DOCTYPE svg PUBLIC "-//W3C//DTD SVG 1.1//EN" "http://www.w3.org/Graphics/SVG/1.1/DTD/svg11.dtd">
<svg version="1.1" id="Layer_1" xmlns="http://www.w3.org/2000/svg" xmlns:xlink="http://www.w3.org/1999/xlink" x="0px" y="0px"
	 width="167.74px" height="199.32px" viewBox="0 0 167.74 199.32" enable-background="new 0 0 167.74 199.32" xml:space="preserve">
<rect x="2.58" y="2.04" width="54.359" height="27"/>
<rect x="2.58" y="1.8" width="54.6" height="0.479"/>
<rect x="56.7" y="2.04" width="0.479" height="27.24"/>
<rect x="2.34" y="28.8" width="54.6" height="0.479"/>
<rect x="2.34" y="1.8" width="0.48" height="27.24"/>
<rect x="0.24" y="0.24" fill="#FFFFFF" width="54.36" height="27"/>
<rect x="0.24" y="0" width="54.6" height="0.48"/>
<rect x="54.36" y="0.24" width="0.479" height="27.24"/>
<rect y="27" width="54.6" height="0.48"/>
<rect y="0" width="0.48" height="27.24"/>
<text transform="matrix(1 0 0 1 2.5801 7.3796)" enable-background="new    "><tspan x="0" y="0" font-family="'ProductusSemibold'" font-size="7.98">Remote</tspan><tspan x="0" y="9.576" font-family="'ProductusSemibold'" font-size="7.98">Manager</tspan></text>
<rect x="2.58" y="44.52" width="54.359" height="27"/>
<rect x="2.58" y="44.28" width="54.6" height="0.479"/>
<rect x="56.7" y="44.52" width="0.479" height="27.239"/>
<rect x="2.34" y="71.28" width="54.6" height="0.479"/>
<rect x="2.34" y="44.28" width="0.48" height="27.24"/>
<rect x="0.24" y="42.719" fill="#FFFFFF" width="54.36" height="27"/>
<rect x="0.24" y="42.48" width="54.6" height="0.479"/>
<rect x="54.36" y="42.719" width="0.479" height="27.24"/>
<rect y="69.48" width="54.6" height="0.479"/>
<rect y="42.48" width="0.48" height="27.239"/>
<text transform="matrix(1 0 0 1 2.5801 49.8601)" enable-background="new    "><tspan x="0" y="0" font-family="'ProductusSemibold'" font-size="7.98">Protocol</tspan><tspan x="0" y="9.576" font-family="'ProductusSemibold'" font-size="7.98">Adapter</tspan></text>
<rect x="2.58" y="87.06" width="54.359" height="27"/>
<rect x="2.58" y="86.82" width="54.6" height="0.479"/>
<rect x="56.7" y="87.06" width="0.479" height="27.239"/>
<rect x="2.34" y="113.82" width="54.6" height="0.479"/>
<rect x="2.34" y="86.82" width="0.48" height="27.24"/>
<rect x="0.24" y="85.26" fill="#FFFFFF" width="54.36" height="27"/>
<rect x="0.24" y="85.02" width="54.6" height="0.479"/>
<rect x="54.36" y="85.26" width="0.479" height="27.24"/>
<rect y="112.02" width="54.6" height="0.479"/>
<rect y="85.02" width="0.48" height="27.239"/>
<text transform="matrix(1 0 0 1 2.5801 92.4001)" font-family="'ProductusSemibold'" font-size="7.98">Dmt Admin</text>
<rect x="2.58" y="129.6" width="54.359" height="27"/>
<rect x="2.58" y="129.36" width="54.6" height="0.479"/>
<rect x="56.7" y="129.6" width="0.479" height="27.239"/>
<rect x="2.34" y="156.36" width="54.6" height="0.479"/>
<rect x="2.34" y="129.36" width="0.48" height="27.24"/>
<rect x="0.24" y="127.8" fill="#FFFFFF" width="54.36" height="27"/>
<rect x="0.24" y="127.56" width="54.6" height="0.479"/>
<rect x="54.36" y="127.8" width="0.479" height="27.24"/>
<rect y="154.56" width="54.6" height="0.479"/>
<rect y="127.56" width="0.48" height="27.239"/>
<text transform="matrix(1 0 0 1 2.5801 134.9392)" enable-background="new    "><tspan x="0" y="0" font-family="'ProductusSemibold'" font-size="7.98">Management</tspan><tspan x="0" y="9.576" font-family="'ProductusSemibold'" font-size="7.98">Admin Plugin</tspan></text>
<rect x="28.32" y="113.4" width="0.48" height="0.24"/>
<rect x="28.32" y="113.64" width="0.48" height="14.399"/>
<polyline points="89.04,67.68 89.16,67.5 88.74,67.26 88.62,67.44 "/>
<polyline points="81.96,81.84 81.84,82.02 81.42,81.78 81.54,81.6 "/>
<polyline points="89.04,67.68 88.62,67.44 81.54,81.6 81.96,81.84 "/>
<polyline points="89.04,67.44 88.92,67.26 88.5,67.5 88.62,67.68 "/>
<polyline points="96.181,81.6 96.3,81.78 95.88,82.02 95.76,81.84 "/>
<polyline points="89.04,67.44 88.62,67.68 95.76,81.84 96.181,81.6 "/>
<polyline points="96.181,81.84 96.3,81.66 95.88,81.42 95.76,81.6 "/>
<polyline points="89.04,96 88.92,96.18 88.5,95.94 88.62,95.76 "/>
<polyline points="96.181,81.84 95.76,81.6 88.62,95.76 89.04,96 "/>
<polyline points="96.181,81.6 96.06,81.42 95.64,81.66 95.76,81.84 "/>
<polyline points="103.26,95.76 103.38,95.94 102.96,96.18 102.84,96 "/>
<polyline points="96.181,81.6 95.76,81.84 102.84,96 103.26,95.76 "/>
<path fill="#B3B3B3" d="M85.26,81.719L85.2,81l-0.182-0.66c-1.517-3.167-5.894-2.772-6.778,0.66l-0.061,0.72l0.061,0.721
	c0.886,3.433,5.263,3.827,6.778,0.66l0.182-0.66L85.26,81.719"/>
<path d="M85.021,81.78l-0.061-0.72l-0.18-0.66l0.06,0.06l-0.36-0.6v0.06l-0.419-0.54h0.061l-0.54-0.42v0.061l-0.601-0.301h0.061
	l-0.66-0.239h0.06l-0.72-0.061h0.061l-0.721,0.061h0.061l-0.66,0.239l-0.6,0.301l0.06-0.061l-0.48,0.42l-0.479,0.54l0.06-0.06
	l-0.3,0.6l-0.24,0.66v-0.06l-0.06,0.72v-0.061l0.06,0.721V82.38l0.24,0.66v-0.06l0.3,0.6h-0.06l0.479,0.54v-0.06l0.48,0.42h-0.06
	l0.6,0.3v-0.06l0.66,0.239H81.06l0.721,0.061H81.72l0.72-0.061h-0.06l0.66-0.239l-0.061,0.06l0.601-0.3l0.54-0.42l-0.061,0.06
	l0.42-0.54l0.359-0.6l-0.061,0.06l0.181-0.66v0.061l0.06-0.721l0.48,0.061l-0.061,0.72l-0.181,0.66v0.06l-0.358,0.601l-0.062,0.06
	l-0.42,0.54l-0.54,0.42l-0.06,0.061l-0.601,0.3l-0.66,0.24c-0.768,0.082-1.568,0.14-2.279-0.24H80.22l-0.6-0.3V84.84l-0.48-0.42
	h-0.06l-0.48-0.54v-0.06l-0.3-0.601h-0.06L78,82.56V82.5c-0.177-1.21-0.013-1.845,0.6-2.88l0.48-0.54l0.06-0.06
	c0.873-0.877,2.142-1.263,3.36-1.021h0.06l0.66,0.24v0.06l0.601,0.301h0.06l0.54,0.42v0.06l0.42,0.54h0.059l0.359,0.6v0.061
	l0.18,0.66V81l0.062,0.72"/>
<polyline points="85.021,81.719 85.021,81.78 85.5,81.719 85.5,81.78 "/>
<path fill="#B3B3B3" d="M92.34,67.56l-0.06-0.721l-0.18-0.659c-1.451-3.184-6.015-2.781-6.721,0.659l-0.12,0.721l0.12,0.72
	c0.697,3.425,5.282,3.812,6.721,0.66l0.18-0.66L92.34,67.56"/>
<path d="M92.101,67.62L92.04,66.9l-0.18-0.66l0.06,0.06l-0.36-0.6v0.06l-0.42-0.54H91.2l-0.54-0.42v0.061L90.06,64.5h0.062
	l-0.66-0.18h0.06l-0.72-0.061h0.062l-0.66,0.061l-0.721,0.18h0.061l-0.602,0.36L87,64.8l-0.479,0.42l-0.479,0.54l0.06-0.06l-0.3,0.6
	v-0.06l-0.18,0.66l-0.12,0.72v-0.06l0.12,0.72v-0.06l0.18,0.659v-0.06l0.3,0.6h-0.06l0.479,0.54V69.9L87,70.32h-0.062l0.602,0.3
	v-0.06l0.72,0.239H88.2l0.66,0.061H88.8l0.721-0.061H89.46l0.66-0.239l-0.061,0.06l0.601-0.3l0.54-0.42l-0.061,0.06l0.42-0.54
	l0.359-0.6l-0.061,0.06l0.181-0.66v0.061l0.06-0.72l0.48,0.06l-0.061,0.72L92.34,69v0.061l-0.36,0.6l-0.06,0.06l-0.42,0.54
	l-0.54,0.421l-0.061,0.06l-0.601,0.3l-0.659,0.24c-0.789,0.097-1.545,0.11-2.279-0.24H87.3l-0.6-0.3v-0.06l-0.48-0.421h-0.06
	l-0.479-0.54v-0.06l-0.301-0.6L85.319,69l-0.18-0.66l-0.121-0.72v-0.06l0.121-0.721v-0.06l0.18-0.66l0.061-0.06l0.301-0.601
	l0.479-0.54l0.06-0.06l0.48-0.42c0.686-0.548,1.257-0.612,2.1-0.66h0.061l0.721,0.06l0.66,0.181l0.06,0.06l0.601,0.36h0.061
	l0.54,0.42v0.06l0.42,0.54h0.06l0.36,0.601v0.06l0.181,0.66v0.06l0.061,0.721"/>
<polyline points="92.101,67.56 92.101,67.62 92.58,67.56 92.58,67.62 "/>
<path fill="#B3B3B3" d="M99.479,81.719L99.36,81l-0.182-0.66c-1.365-3.19-6-2.716-6.72,0.66l-0.12,0.72l0.12,0.721
	c0.72,3.376,5.354,3.851,6.72,0.66l0.182-0.66L99.479,81.719"/>
<path d="M99.24,81.78l-0.12-0.72l-0.182-0.66L99,80.46l-0.3-0.6v0.06l-0.48-0.54h0.061l-0.479-0.42v0.061l-0.6-0.301h0.06
	l-0.72-0.239h0.06l-0.66-0.061H96l-0.72,0.061h0.06l-0.659,0.239L94.08,79.02l0.06-0.061l-0.539,0.42l-0.42,0.54l0.061-0.06
	l-0.36,0.6V80.4l-0.18,0.66l-0.12,0.72v-0.06l0.12,0.72V82.38l0.18,0.66v-0.06l0.36,0.6h-0.061l0.42,0.54v-0.06l0.539,0.42h-0.06
	l0.601,0.3v-0.06l0.659,0.239h-0.06L96,85.02h-0.062l0.66-0.061h-0.06l0.72-0.24l-0.06,0.061l0.6-0.3l0.479-0.42l-0.061,0.06
	l0.48-0.54l0.3-0.6l-0.062,0.06l0.182-0.66v0.061l0.119-0.721l0.479,0.061l-0.116,0.72l-0.181,0.66v0.06l-0.3,0.601l-0.061,0.06
	l-0.479,0.54l-0.479,0.42L98.04,84.9l-0.602,0.3l-0.719,0.24c-0.753,0.089-1.525,0.128-2.221-0.24h-0.061l-0.601-0.3V84.84
	c-3.505-2.34-1.188-7.527,2.88-6.84l0.721,0.24v0.06l0.601,0.301h0.06l0.48,0.42v0.06l0.479,0.54h0.062l0.3,0.6v0.061l0.18,0.66V81
	l0.121,0.72"/>
<polyline points="99.24,81.719 99.24,81.78 99.72,81.719 99.72,81.78 "/>
<path fill="#B3B3B3" d="M92.34,95.88l-0.06-0.72l-0.18-0.66c-1.438-3.151-6.022-2.765-6.721,0.66l-0.12,0.72l0.12,0.721
	c0.706,3.44,5.27,3.843,6.721,0.659l0.18-0.659L92.34,95.88"/>
<path d="M92.101,95.94l-0.061-0.721l-0.18-0.659l0.06,0.06l-0.36-0.6v0.06l-0.42-0.54H91.2l-0.54-0.42v0.061L90.06,92.88h0.061
	l-0.66-0.239h0.061L88.8,92.58h0.061l-0.659,0.061h0.06l-0.72,0.239L86.94,93.18L87,93.12l-0.479,0.42l-0.479,0.54l0.06-0.06
	l-0.3,0.6v-0.06l-0.18,0.66l-0.12,0.72V95.88l0.12,0.721V96.54l0.18,0.66v-0.06l0.3,0.6h-0.06l0.479,0.54v-0.06L87,98.64h-0.062
	L87.54,99l-0.061-0.06l0.721,0.18l0.66,0.061H88.8l0.721-0.061H89.46l0.66-0.18L90.06,99l0.602-0.359l0.54-0.421L91.14,98.28
	l0.42-0.54l0.36-0.6l-0.06,0.06l0.18-0.66V96.6l0.061-0.721l0.479,0.061l-0.062,0.72l-0.18,0.66v0.06l-0.359,0.601l-0.061,0.06
	l-0.42,0.54L90.96,99l-0.061,0.061l-0.6,0.359h-0.06c-0.9,0.346-1.974,0.295-2.88,0H87.3l-0.6-0.359V99l-0.48-0.42h-0.06
	l-0.479-0.54v-0.06L85.38,97.38l-0.061-0.06l-0.18-0.66l-0.121-0.72V95.88l0.121-0.72V95.1l0.18-0.66l0.061-0.061
	c0.662-1.6,2.503-2.566,4.2-2.22h0.06l0.66,0.24v0.06l0.602,0.3h0.06l0.54,0.421v0.06l0.42,0.54h0.061l0.359,0.6v0.061l0.18,0.66
	v0.06l0.062,0.72"/>
<polyline points="92.101,95.88 92.101,95.94 92.58,95.88 92.58,95.94 "/>
<path fill="#B3B3B3" d="M106.56,95.88l-0.06-0.72l-0.24-0.66c-1.358-3.195-6.004-2.712-6.72,0.66l-0.061,0.72L99.54,96.6
	c0.732,3.394,5.345,3.886,6.72,0.659l0.24-0.659L106.56,95.88"/>
<path d="M106.319,95.94l-0.061-0.721v0.061l-0.24-0.66h0.062l-0.3-0.6v0.06l-0.48-0.54h0.061l-0.479-0.42v0.061l-0.601-0.301h0.061
	l-0.66-0.239h0.062l-0.722-0.061h0.062l-0.72,0.061h0.06l-0.659,0.239l-0.601,0.301l0.06-0.061l-0.539,0.42l-0.42,0.54l0.061-0.06
	l-0.36,0.6v-0.06l-0.18,0.659l-0.062,0.721V95.88l0.062,0.721V96.54l0.18,0.66v-0.06l0.36,0.6h-0.061l0.42,0.54v-0.06l0.539,0.42
	h-0.06L101.763,99l-0.061-0.06l0.66,0.18l0.72,0.061h-0.062l0.722-0.061h-0.062l0.66-0.18L104.28,99l0.6-0.359l0.48-0.421
	l-0.062,0.061l0.479-0.54l0.301-0.6l-0.061,0.06l0.239-0.66V96.6l0.062-0.721l0.479,0.061l-0.061,0.72v0.06
	c-0.42,1.274-0.614,1.465-1.619,2.341l-0.602,0.359h-0.06c-0.815,0.326-2.051,0.315-2.88,0h-0.061l-0.601-0.359V99
	c-3.483-2.374-1.183-7.561,2.94-6.84l0.658,0.24v0.06l0.602,0.3h0.06l0.48,0.421v0.06l0.479,0.54h0.062l0.3,0.6v0.061l0.239,0.66
	v0.06l0.061,0.72"/>
<polyline points="106.319,95.88 106.319,95.94 106.8,95.88 106.8,95.94 "/>
<polyline points="89.04,25.14 89.16,24.96 88.74,24.719 88.62,24.9 "/>
<polyline points="81.96,39.3 81.84,39.48 81.42,39.24 81.54,39.06 "/>
<polyline points="89.04,25.14 88.62,24.9 81.54,39.06 81.96,39.3 "/>
<polyline points="89.04,24.9 88.92,24.719 88.5,24.96 88.62,25.14 "/>
<polyline points="96.181,39.06 96.3,39.24 95.88,39.48 95.76,39.3 "/>
<polyline points="89.04,24.9 88.62,25.14 95.76,39.3 96.181,39.06 "/>
<polyline points="96.181,39.3 96.3,39.12 95.88,38.88 95.76,39.06 "/>
<polyline points="89.04,53.52 88.92,53.7 88.5,53.46 88.62,53.28 "/>
<polyline points="96.181,39.3 95.76,39.06 88.62,53.28 89.04,53.52 "/>
<polyline points="96.181,39.06 96.06,38.88 95.64,39.12 95.76,39.3 "/>
<polyline points="103.26,53.28 103.38,53.46 102.96,53.7 102.84,53.52 "/>
<polyline points="96.181,39.06 95.76,39.3 102.84,53.52 103.26,53.28 "/>
<rect x="85.26" y="21.48" fill="#1A1A1A" width="7.08" height="7.08"/>
<rect x="85.26" y="21.24" width="7.32" height="0.479"/>
<rect x="92.101" y="21.48" width="0.479" height="7.319"/>
<rect x="85.021" y="28.32" width="7.319" height="0.479"/>
<rect x="85.021" y="21.24" width="0.479" height="7.32"/>
<rect x="78.18" y="35.64" fill="#1A1A1A" width="7.08" height="7.079"/>
<rect x="78.18" y="35.4" width="7.32" height="0.479"/>
<rect x="85.021" y="35.64" width="0.479" height="7.319"/>
<rect x="77.939" y="42.48" width="7.32" height="0.479"/>
<rect x="77.939" y="35.4" width="0.48" height="7.319"/>
<rect x="92.34" y="35.64" fill="#1A1A1A" width="7.14" height="7.079"/>
<rect x="92.34" y="35.4" width="7.38" height="0.479"/>
<rect x="99.24" y="35.64" width="0.479" height="7.319"/>
<rect x="92.101" y="42.48" width="7.379" height="0.479"/>
<rect x="92.101" y="35.4" width="0.479" height="7.319"/>
<rect x="85.26" y="49.8" fill="#1A1A1A" width="7.08" height="7.141"/>
<rect x="85.26" y="49.56" width="7.32" height="0.479"/>
<rect x="92.101" y="49.8" width="0.479" height="7.381"/>
<rect x="85.021" y="56.7" width="7.319" height="0.48"/>
<rect x="85.021" y="49.56" width="0.479" height="7.38"/>
<rect x="99.479" y="49.8" fill="#1A1A1A" width="7.08" height="7.141"/>
<rect x="99.479" y="49.56" width="7.319" height="0.479"/>
<rect x="106.319" y="49.8" width="0.479" height="7.381"/>
<rect x="99.24" y="56.7" width="7.319" height="0.48"/>
<rect x="99.24" y="49.56" width="0.479" height="7.38"/>
<polyline points="89.04,117.3 89.16,117.12 88.74,116.88 88.62,117.06 "/>
<polyline points="81.96,131.46 81.84,131.64 81.42,131.4 81.54,131.219 "/>
<polyline points="89.04,117.3 88.62,117.06 81.54,131.219 81.96,131.46 "/>
<polyline points="89.04,117.06 88.92,116.88 88.5,117.12 88.62,117.3 "/>
<polyline points="96.181,131.219 96.3,131.4 95.88,131.64 95.76,131.46 "/>
<polyline points="89.04,117.06 88.62,117.3 95.76,131.46 96.181,131.219 "/>
<path fill="#B3B3B3" d="M92.34,117.18l-0.06-0.721l-0.18-0.66c-1.451-3.183-6.015-2.78-6.721,0.66l-0.12,0.721l0.12,0.659
	c0.62,3.423,5.24,3.875,6.721,0.721l0.18-0.721L92.34,117.18"/>
<path d="M92.101,117.24l-0.061-0.72l-0.18-0.66l0.06,0.06l-0.36-0.6v0.06l-0.42-0.54H91.2l-0.54-0.42v0.061l-0.601-0.36h0.061
	l-0.66-0.18h0.061L88.8,113.88h0.061l-0.659,0.061l-0.722,0.18h0.062l-0.601,0.36L87,114.42l-0.479,0.42l-0.479,0.54l0.06-0.06
	l-0.3,0.6v-0.06l-0.18,0.66l-0.12,0.72v-0.06l0.12,0.659v-0.06l0.18,0.72v-0.06l0.3,0.6l-0.06-0.06l0.96,0.96H86.94l0.601,0.3
	l-0.062-0.06l0.722,0.18l0.659,0.12H88.8l0.721-0.12H89.46l0.66-0.18l-0.061,0.06l0.601-0.3l0.54-0.48l-0.061,0.061l0.42-0.48
	l0.359-0.6l-0.061,0.06l0.181-0.72v0.06l0.06-0.659l0.48,0.06l-0.061,0.66l-0.181,0.72v0.061c-0.819,1.483-1.793,2.134-3.479,2.279
	H88.8l-0.66-0.12h-0.06l-0.72-0.18H87.3l-0.6-0.3l-1.021-1.021v-0.06l-0.3-0.6l-0.06-0.061l-0.182-0.72l-0.119-0.66v-0.06
	c0.168-1.696,0.774-2.622,2.279-3.48l0.061-0.06l0.721-0.181c1.564-0.201,2.236,0.086,3.42,1.021v0.06l0.42,0.54h0.061l0.359,0.601
	v0.06l0.18,0.66v0.06l0.062,0.721"/>
<polyline points="92.101,117.18 92.101,117.24 92.58,117.18 92.58,117.24 "/>
<path fill="#B3B3B3" d="M85.26,131.34l-0.06-0.72l-0.182-0.66c-1.516-3.187-5.881-2.801-6.778,0.66l-0.061,0.72l0.061,0.721
	c0.886,3.433,5.263,3.826,6.778,0.659l0.182-0.659L85.26,131.34"/>
<path d="M85.021,131.4l-0.061-0.72l-0.18-0.66l0.06,0.06l-0.36-0.6v0.06L84.06,129h0.061l-0.54-0.42v0.061l-0.601-0.36h0.061
	l-0.66-0.18h0.06l-0.72-0.061h0.061l-0.721,0.061l-0.659,0.18h0.06l-0.6,0.36l0.06-0.061l-0.48,0.42l-0.479,0.54l0.06-0.06l-0.3,0.6
	l-0.24,0.66v-0.06l-0.06,0.72v-0.061l0.06,0.721V132l0.24,0.66v-0.06l0.3,0.6h-0.06l0.479,0.54v-0.06l0.48,0.42h-0.06l0.6,0.3
	v-0.061l0.66,0.24H81.06l0.721,0.061H81.72l0.72-0.061h-0.06l0.66-0.24l-0.061,0.061l0.601-0.3l0.54-0.42l-0.061,0.06l0.42-0.54
	l0.359-0.6l-0.061,0.06l0.181-0.66v0.061l0.06-0.721l0.48,0.061l-0.061,0.72l-0.181,0.66v0.06l-0.358,0.601l-0.062,0.06l-0.42,0.54
	l-0.54,0.42l-0.06,0.061l-0.601,0.3l-0.66,0.24c-0.768,0.082-1.568,0.14-2.279-0.24H80.22l-0.6-0.3v-0.061l-0.48-0.42h-0.06
	l-0.48-0.54v-0.06l-0.3-0.601h-0.06L78,132.18c-0.696-4.1,4.449-6.436,6.84-2.94h0.06l0.359,0.6v0.061l0.18,0.66v0.06l0.062,0.72"/>
<polyline points="85.021,131.34 85.021,131.4 85.5,131.34 85.5,131.4 "/>
<path fill="#B3B3B3" d="M99.479,131.34l-0.119-0.72l-0.182-0.66c-1.384-3.221-5.979-2.737-6.72,0.66l-0.12,0.72l0.12,0.721
	c0.72,3.376,5.354,3.851,6.72,0.659l0.182-0.659L99.479,131.34"/>
<path d="M99.24,131.4l-0.12-0.72l-0.182-0.66L99,130.08l-0.3-0.6v0.06L98.22,129h0.061l-0.479-0.42v0.061l-0.6-0.36h0.06l-0.72-0.18
	h0.06l-0.66-0.061H96l-0.72,0.061l-0.66,0.18h0.061l-0.601,0.36l0.06-0.061L93.601,129l-0.42,0.54l0.061-0.06l-0.36,0.6v-0.06
	l-0.18,0.66l-0.12,0.72v-0.061l0.12,0.721V132l0.18,0.66v-0.06l0.36,0.6h-0.061l0.42,0.54v-0.06l0.539,0.42h-0.06l0.601,0.3v-0.061
	l0.659,0.24h-0.06L96,134.64h-0.062l0.66-0.061h-0.06l0.72-0.24l-0.06,0.061l0.6-0.3l0.479-0.42l-0.061,0.06l0.48-0.54l0.3-0.6
	l-0.062,0.06L99.12,132v0.061l0.12-0.721l0.479,0.061l-0.121,0.72l-0.18,0.66v0.06l-0.3,0.601l-0.062,0.06l-0.479,0.54l-0.48,0.42
	l-0.06,0.061l-0.601,0.3l-0.721,0.24c-0.752,0.089-1.523,0.128-2.22-0.24h-0.062l-0.6-0.3v-0.061
	c-4.872-3.549,1.65-10.052,5.221-5.22h0.061l0.3,0.6v0.061l0.181,0.66v0.06l0.119,0.72"/>
<polyline points="99.24,131.34 99.24,131.4 99.72,131.34 99.72,131.4 "/>
<rect x="28.32" y="28.32" width="0.48" height="0.24"/>
<rect x="28.32" y="28.56" width="0.48" height="1.979"/>
<rect x="28.32" y="33.9" width="0.48" height="0.24"/>
<rect x="28.32" y="34.14" width="0.48" height="3.239"/>
<rect x="28.32" y="40.74" width="0.48" height="0.24"/>
<rect x="28.32" y="40.98" width="0.48" height="1.979"/>
<rect x="28.32" y="70.86" width="0.48" height="0.24"/>
<rect x="28.32" y="71.1" width="0.48" height="14.399"/>
<rect x="28.32" y="35.4" width="0.24" height="0.479"/>
<rect x="28.56" y="35.4" width="4.02" height="0.479"/>
<rect x="38.7" y="35.4" width="0.239" height="0.479"/>
<rect x="38.939" y="35.4" width="7.86" height="0.479"/>
<rect x="52.92" y="35.4" width="0.24" height="0.479"/>
<rect x="53.16" y="35.4" width="7.859" height="0.479"/>
<rect x="67.14" y="35.4" width="0.24" height="0.479"/>
<rect x="67.38" y="35.4" width="3.96" height="0.479"/>
<rect x="28.32" y="77.94" width="0.24" height="0.479"/>
<rect x="28.56" y="77.94" width="4.02" height="0.479"/>
<rect x="38.7" y="77.94" width="0.239" height="0.479"/>
<rect x="38.939" y="77.94" width="7.86" height="0.479"/>
<rect x="52.92" y="77.94" width="0.24" height="0.479"/>
<rect x="53.16" y="77.94" width="7.859" height="0.479"/>
<rect x="67.14" y="77.94" width="0.24" height="0.479"/>
<rect x="67.38" y="77.94" width="3.96" height="0.479"/>
<rect x="28.32" y="120.48" width="0.24" height="0.479"/>
<rect x="28.56" y="120.48" width="4.02" height="0.479"/>
<rect x="38.7" y="120.48" width="0.239" height="0.479"/>
<rect x="38.939" y="120.48" width="7.86" height="0.479"/>
<rect x="52.92" y="120.48" width="0.24" height="0.479"/>
<rect x="53.16" y="120.48" width="7.859" height="0.479"/>
<rect x="67.14" y="120.48" width="0.24" height="0.479"/>
<rect x="67.38" y="120.48" width="3.96" height="0.479"/>
<text transform="matrix(1 0 0 1 116.0996 29.9392)" enable-background="new    "><tspan x="0" y="0" font-family="'Proforma-Book'" font-size="9">protocol</tspan><tspan x="0" y="10.8" font-family="'Proforma-Book'" font-size="9">object models</tspan></text>
<text transform="matrix(1 0 0 1 116.0996 77.2195)" font-family="'Proforma-Book'" font-size="9">DMT</text>
<text transform="matrix(1 0 0 1 116.0996 127.0798)" font-family="'Proforma-Book'" font-size="9">RMT</text>
<rect x="2.58" y="172.08" width="54.359" height="27"/>
<rect x="2.58" y="171.84" width="54.6" height="0.48"/>
<rect x="56.7" y="172.08" width="0.479" height="27.24"/>
<rect x="2.34" y="198.84" width="54.6" height="0.48"/>
<rect x="2.34" y="171.84" width="0.48" height="27.24"/>
<rect x="0.24" y="170.28" fill="#FFFFFF" width="54.36" height="27"/>
<rect x="0.24" y="170.04" width="54.6" height="0.48"/>
<rect x="54.36" y="170.28" width="0.479" height="27.24"/>
<rect y="197.04" width="54.6" height="0.48"/>
<rect y="170.04" width="0.48" height="27.24"/>
<text transform="matrix(1 0 0 1 2.5801 177.4197)" enable-background="new    "><tspan x="0" y="0" font-family="'ProductusSemibold'" font-size="7.98">OSGi</tspan><tspan x="0" y="9.576" font-family="'ProductusSemibold'" font-size="7.98">Framework</tspan></text>
<rect x="28.32" y="155.88" width="0.48" height="0.24"/>
<rect x="28.32" y="156.12" width="0.48" height="14.4"/>
</svg>
