<?xml version="1.0" encoding="utf-8"?>
<!-- Generator: Adobe Illustrator 16.0.0, SVG Export Plug-In . SVG Version: 6.00 Build 0)  -->
<!DOCTYPE svg PUBLIC "-//W3C//DTD SVG 1.1//EN" "http://www.w3.org/Graphics/SVG/1.1/DTD/svg11.dtd">
<svg version="1.1" id="Layer_1" xmlns="http://www.w3.org/2000/svg" xmlns:xlink="http://www.w3.org/1999/xlink" x="0px" y="0px"
	 width="318.867px" height="149.46px" viewBox="0 0 318.867 149.46" style="enable-background:new 0 0 318.867 149.46;"
	 xml:space="preserve">
<rect x="123.42" y="106.26" style="fill:#E6E6E6;" width="70.859" height="43.2"/>
<rect x="208.201" y="77.7" width="1.26" height="0.479"/>
<rect x="213.48" y="77.7" width="2.04" height="0.479"/>
<rect x="219.6" y="77.7" width="1.98" height="0.479"/>
<rect x="225.661" y="77.7" width="1.979" height="0.479"/>
<rect x="231.72" y="77.7" width="2.04" height="0.479"/>
<rect x="237.84" y="77.7" width="1.979" height="0.479"/>
<rect x="243.9" y="77.7" width="1.98" height="0.479"/>
<rect x="249.96" y="77.7" width="1.979" height="0.479"/>
<rect x="256.02" y="77.7" width="2.04" height="0.479"/>
<rect x="262.14" y="77.7" width="1.98" height="0.479"/>
<rect x="268.201" y="77.7" width="1.979" height="0.479"/>
<rect x="274.26" y="77.7" width="1.979" height="0.479"/>
<rect x="280.32" y="77.7" width="2.04" height="0.479"/>
<rect x="286.44" y="77.7" width="1.98" height="0.479"/>
<rect x="292.5" y="77.7" width="1.2" height="0.479"/>
<rect x="31.02" y="77.7" width="1.26" height="0.479"/>
<rect x="36.3" y="77.7" width="1.98" height="0.479"/>
<rect x="42.3" y="77.7" width="1.98" height="0.479"/>
<rect x="48.24" y="77.7" width="1.98" height="0.479"/>
<rect x="54.24" y="77.7" width="1.98" height="0.479"/>
<rect x="60.24" y="77.7" width="1.98" height="0.479"/>
<rect x="66.24" y="77.7" width="1.98" height="0.479"/>
<rect x="72.24" y="77.7" width="1.98" height="0.479"/>
<rect x="78.24" y="77.7" width="1.98" height="0.479"/>
<rect x="84.24" y="77.7" width="1.98" height="0.479"/>
<rect x="90.24" y="77.7" width="1.98" height="0.479"/>
<rect x="96.24" y="77.7" width="1.98" height="0.479"/>
<rect x="102.24" y="77.7" width="1.98" height="0.479"/>
<rect x="108.24" y="77.7" width="1.2" height="0.479"/>
<rect x="73.8" style="fill:#E6E6E6;" width="71.7" height="43.2"/>
<rect x="84.06" y="8.88" width="54.36" height="27"/>
<rect x="84.06" y="8.64" width="54.6" height="0.48"/>
<rect x="138.18" y="8.88" width="0.48" height="27.24"/>
<rect x="83.82" y="35.64" width="54.6" height="0.48"/>
<rect x="83.82" y="8.64" width="0.48" height="27.24"/>
<rect x="81.72" y="7.08" style="fill:#FFFFFF;" width="54.3" height="27"/>
<rect x="81.72" y="6.84" width="54.54" height="0.48"/>
<rect x="135.78" y="7.08" width="0.48" height="27.24"/>
<rect x="81.48" y="33.84" width="54.54" height="0.48"/>
<rect x="81.48" y="6.84" width="0.48" height="27.24"/>
<text transform="matrix(1 0 0 1.0522 84.0601 14.2197)"><tspan x="0" y="0" style="font-family:'ProductusOSGiBookc'; font-size:7.5841;">Servi</tspan><tspan x="13.317" y="0" style="font-family:'ProductusOSGiBookc'; font-size:7.5841;">c</tspan><tspan x="16.252" y="0" style="font-family:'ProductusOSGiBookc'; font-size:7.5841;">e</tspan><tspan x="19.544" y="0" style="font-family:'ProductusOSGiBookc'; font-size:7.5841;"> </tspan><tspan x="20.568" y="0" style="font-family:'ProductusOSGiBookc'; font-size:7.5841;">C</tspan><tspan x="24.534" y="0" style="font-family:'ProductusOSGiBookc'; font-size:7.5841;">o</tspan><tspan x="28.129" y="0" style="font-family:'ProductusOSGiBookc'; font-size:7.5841;">n</tspan><tspan x="31.587" y="0" style="font-family:'ProductusOSGiBookc'; font-size:7.5841;">s</tspan><tspan x="34.279" y="0" style="font-family:'ProductusOSGiBookc'; font-size:7.5841;">umer</tspan><tspan x="48.56" y="0" style="font-family:'ProductusOSGiBookc'; font-size:7.5841;"> </tspan></text>
<text transform="matrix(1 0 0 1.0522 84.0601 22.6802)"><tspan x="0" y="0" style="font-family:'ProductusOSGiBookc'; font-size:7.5841;">I</tspan><tspan x="1.456" y="0" style="font-family:'ProductusOSGiBookc'; font-size:7.5841;">m</tspan><tspan x="6.909" y="0" style="font-family:'ProductusOSGiBookc'; font-size:7.5841;">p</tspan><tspan x="10.375" y="0" style="font-family:'ProductusOSGiBookc'; font-size:7.5841;">l</tspan></text>
<rect x="172.201" style="fill:#E6E6E6;" width="71.699" height="43.2"/>
<rect x="182.46" y="8.88" width="54.3" height="27"/>
<rect x="182.46" y="8.64" width="54.54" height="0.48"/>
<rect x="236.52" y="8.88" width="0.48" height="27.24"/>
<rect x="182.22" y="35.64" width="54.54" height="0.48"/>
<rect x="182.22" y="8.64" width="0.48" height="27.24"/>
<rect x="180.121" y="7.08" style="fill:#FFFFFF;" width="54.3" height="27"/>
<rect x="180.121" y="6.84" width="54.54" height="0.48"/>
<rect x="234.18" y="7.08" width="0.48" height="27.24"/>
<rect x="179.88" y="33.84" width="54.54" height="0.48"/>
<rect x="179.88" y="6.84" width="0.479" height="27.24"/>
<text transform="matrix(1 0 0 1.0522 182.4604 14.2197)"><tspan x="0" y="0" style="font-family:'ProductusOSGiBookc'; font-size:7.5841;">Servi</tspan><tspan x="13.355" y="0" style="font-family:'ProductusOSGiBookc'; font-size:7.5841;">c</tspan><tspan x="16.29" y="0" style="font-family:'ProductusOSGiBookc'; font-size:7.5841;">e</tspan><tspan x="19.59" y="0" style="font-family:'ProductusOSGiBookc'; font-size:7.5841;"> </tspan><tspan x="21.091" y="0" style="font-family:'ProductusOSGiBookc'; font-size:7.5841;">P</tspan><tspan x="24.17" y="0" style="font-family:'ProductusOSGiBookc'; font-size:7.5841;">r</tspan><tspan x="26.157" y="0" style="font-family:'ProductusOSGiBookc'; font-size:7.5841;">odu</tspan><tspan x="36.676" y="0" style="font-family:'ProductusOSGiBookc'; font-size:7.5841;">c</tspan><tspan x="39.611" y="0" style="font-family:'ProductusOSGiBookc'; font-size:7.5841;">er </tspan></text>
<text transform="matrix(1 0 0 1.0522 182.4604 22.6802)"><tspan x="0" y="0" style="font-family:'ProductusOSGiBookc'; font-size:7.5841;">I</tspan><tspan x="1.456" y="0" style="font-family:'ProductusOSGiBookc'; font-size:7.5841;">m</tspan><tspan x="6.909" y="0" style="font-family:'ProductusOSGiBookc'; font-size:7.5841;">p</tspan><tspan x="10.375" y="0" style="font-family:'ProductusOSGiBookc'; font-size:7.5841;">l</tspan></text>
<rect x="108.96" y="35.16" width="0.48" height="0.24"/>
<rect x="108.96" y="35.4" width="0.48" height="35.7"/>
<rect x="208.201" y="35.16" width="0.479" height="0.24"/>
<rect x="208.201" y="35.4" width="0.479" height="35.7"/>
<polyline style="fill-rule:evenodd;clip-rule:evenodd;fill:#FFFFFF;" points="8.58,70.859 2.94,85.02 25.62,85.02 31.26,70.859 "/>
<polyline points="8.82,70.979 3.18,85.14 2.94,85.26 2.94,84.779 25.62,84.779 25.86,85.14 25.44,84.96 31.08,70.8 31.26,70.62 
	31.62,70.62 31.5,70.979 25.86,85.14 25.8,85.26 2.64,85.26 2.76,84.96 8.4,70.8 "/>
<polyline points="31.26,71.1 8.58,71.1 8.4,70.8 8.46,70.62 31.26,70.62 "/>
<rect x="108.96" y="84.779" width="0.48" height="7.561"/>
<rect x="109.2" y="91.859" width="28.62" height="0.48"/>
<rect x="137.34" y="92.1" width="0.48" height="28.561"/>
<rect x="208.201" y="84.779" width="0.479" height="7.561"/>
<rect x="179.88" y="91.859" width="28.56" height="0.48"/>
<rect x="179.88" y="92.1" width="0.479" height="28.561"/>
<polyline style="fill-rule:evenodd;clip-rule:evenodd;fill:#FFFFFF;" points="292.081,70.859 286.38,85.02 309.06,85.02 
	314.76,70.859 "/>
<polyline points="292.32,70.979 286.621,85.14 286.38,85.26 286.38,84.779 309.06,84.779 309.3,85.14 308.88,84.96 314.581,70.8 
	314.76,70.62 315.121,70.62 315,70.979 309.3,85.14 309.24,85.26 286.081,85.26 286.201,84.96 291.9,70.8 "/>
<polyline points="314.76,71.1 292.081,71.1 291.9,70.8 291.96,70.62 314.76,70.62 "/>
<rect x="186.96" y="134.399" width="113.88" height="0.48"/>
<rect x="300.36" y="84.779" width="0.48" height="49.86"/>
<rect x="16.86" y="134.399" width="113.88" height="0.48"/>
<rect x="16.86" y="84.779" width="0.48" height="49.86"/>
<rect x="172.74" y="77.7" width="0.48" height="42.96"/>
<rect x="172.98" y="77.7" width="35.7" height="0.479"/>
<polyline style="fill-rule:evenodd;clip-rule:evenodd;fill:#FFFFFF;" points="201.36,85.02 208.44,70.859 215.52,85.02 "/>
<polyline points="201.18,84.899 208.26,70.74 208.44,70.319 208.68,70.74 215.94,85.26 215.52,85.26 215.34,85.14 208.26,70.979 
	208.68,70.74 208.68,70.979 201.6,85.14 "/>
<polyline points="215.52,85.26 201,85.26 201.18,84.899 201.36,84.779 215.52,84.779 "/>
<rect x="144.42" y="77.7" width="0.48" height="42.96"/>
<rect x="108.96" y="77.7" width="35.7" height="0.479"/>
<polyline style="fill-rule:evenodd;clip-rule:evenodd;fill:#FFFFFF;" points="102.12,70.859 109.2,85.02 116.34,70.859 "/>
<polyline points="102.36,70.74 109.44,84.899 109.44,85.14 109.02,84.899 116.16,70.74 116.34,70.62 116.76,70.62 116.58,70.979 
	109.44,85.14 109.2,85.56 109.02,85.14 101.94,70.979 "/>
<polyline points="116.34,71.1 102.12,71.1 101.94,70.979 101.76,70.62 116.34,70.62 "/>
<text transform="matrix(1 0 0 1 47.52 86.9395)"><tspan x="0" y="0" style="font-family:'ProductusSemibold'; font-size:7.98;">service.importe</tspan><tspan x="54.175" y="0" style="font-family:'ProductusSemibold'; font-size:7.98;">d</tspan></text>
<text transform="matrix(1 0 0 1 211.4409 45.4199)"><tspan x="0" y="0" style="font-family:'ProductusSemibold'; font-size:7.98;">service</tspan><tspan x="24.498" y="0" style="font-family:'ProductusSemibold'; font-size:7.98;">.</tspan><tspan x="26.533" y="0" style="font-family:'ProductusSemibold'; font-size:7.98;">exported.inter</tspan><tspan x="76.773" y="0" style="font-family:'ProductusSemibold'; font-size:7.98;">f</tspan><tspan x="79.471" y="0" style="font-family:'ProductusSemibold'; font-size:7.98;">ace</tspan><tspan x="91.226" y="0" style="font-family:'ProductusSemibold'; font-size:7.98;">s</tspan></text>
<text transform="matrix(1 0 0 1 95.1606 96.6602)"><tspan x="0" y="0" style="font-family:'ProductusSemibold'; font-size:7.98;">=</tspan><tspan x="4.142" y="0" style="font-family:'ProductusSemibold'; font-size:7.98;">.</tspan><tspan x="6.416" y="0" style="font-family:'ProductusSemibold'; font-size:7.98;">.</tspan><tspan x="8.626" y="0" style="font-family:'ProductusSemibold'; font-size:7.98;">.</tspan></text>
<text transform="matrix(1 0 0 1 211.4409 55.1406)"><tspan x="0" y="0" style="font-family:'ProductusSemibold'; font-size:7.98;">=</tspan><tspan x="4.197" y="0" style="font-family:'ProductusSemibold'; font-size:7.98;">*</tspan></text>
<rect x="132.84" y="115.14" width="54.36" height="27"/>
<rect x="132.84" y="114.899" width="54.6" height="0.48"/>
<rect x="186.96" y="115.14" width="0.479" height="27.24"/>
<rect x="132.6" y="141.899" width="54.601" height="0.48"/>
<rect x="132.6" y="114.899" width="0.48" height="27.24"/>
<rect x="130.5" y="113.34" style="fill:#FFFFFF;" width="54.3" height="27"/>
<rect x="130.5" y="113.1" width="54.541" height="0.48"/>
<rect x="184.56" y="113.34" width="0.48" height="27.24"/>
<rect x="130.26" y="140.1" width="54.54" height="0.48"/>
<rect x="130.26" y="113.1" width="0.48" height="27.24"/>
<text transform="matrix(1 0 0 1.0522 132.8403 120.4795)"><tspan x="0" y="0" style="font-family:'ProductusOSGiBookc'; font-size:7.5841;">D</tspan><tspan x="4.634" y="0" style="font-family:'ProductusOSGiBookc'; font-size:7.5841;">i</tspan><tspan x="6.128" y="0" style="font-family:'ProductusOSGiBookc'; font-size:7.5841;">s</tspan><tspan x="8.767" y="0" style="font-family:'ProductusOSGiBookc'; font-size:7.5841;">t</tspan><tspan x="10.981" y="0" style="font-family:'ProductusOSGiBookc'; font-size:7.5841;">ri</tspan><tspan x="14.5" y="0" style="font-family:'ProductusOSGiBookc'; font-size:7.5841;">b</tspan><tspan x="18.034" y="0" style="font-family:'ProductusOSGiBookc'; font-size:7.5841;">u</tspan><tspan x="21.455" y="0" style="font-family:'ProductusOSGiBookc'; font-size:7.5841;">t</tspan><tspan x="23.669" y="0" style="font-family:'ProductusOSGiBookc'; font-size:7.5841;">i</tspan><tspan x="25.11" y="0" style="font-family:'ProductusOSGiBookc'; font-size:7.5841;">o</tspan><tspan x="28.705" y="0" style="font-family:'ProductusOSGiBookc'; font-size:7.5841;">n</tspan><tspan x="32.179" y="0" style="font-family:'ProductusOSGiBookc'; font-size:7.5841;"> </tspan></text>
<text transform="matrix(1 0 0 1.0522 132.8403 129)"><tspan x="0" y="0" style="font-family:'ProductusOSGiBookc'; font-size:7.5841;">P</tspan><tspan x="3.071" y="0" style="font-family:'ProductusOSGiBookc'; font-size:7.5841;">r</tspan><tspan x="4.998" y="0" style="font-family:'ProductusOSGiBookc'; font-size:7.5841;">o</tspan><tspan x="8.418" y="0" style="font-family:'ProductusOSGiBookc'; font-size:7.5841;">v</tspan><tspan x="11.414" y="0" style="font-family:'ProductusOSGiBookc'; font-size:7.5841;">i</tspan><tspan x="12.908" y="0" style="font-family:'ProductusOSGiBookc'; font-size:7.5841;">d</tspan><tspan x="16.389" y="0" style="font-family:'ProductusOSGiBookc'; font-size:7.5841;">er</tspan><tspan x="21.781" y="0" style="font-family:'ProductusOSGiBookc'; font-size:7.5841;"> </tspan><tspan x="23.283" y="0" style="font-family:'ProductusOSGiBookc'; font-size:7.5841;">I</tspan><tspan x="24.776" y="0" style="font-family:'ProductusOSGiBookc'; font-size:7.5841;">m</tspan><tspan x="30.185" y="0" style="font-family:'ProductusOSGiBookc'; font-size:7.5841;">p</tspan><tspan x="33.657" y="0" style="font-family:'ProductusOSGiBookc'; font-size:7.5841;">l</tspan></text>
<text transform="matrix(1 0 0 1 111.9604 56.04)"><tspan x="0" y="0" style="font-family:'Proforma-BookItalic'; font-size:9;">i</tspan><tspan x="2.268" y="0" style="font-family:'Proforma-BookItalic'; font-size:9;">m</tspan><tspan x="9.054" y="0" style="font-family:'Proforma-BookItalic'; font-size:9;">ported</tspan></text>
<text transform="matrix(1 0 0 1 111.9604 65.7598)"><tspan x="0" y="0" style="font-family:'Proforma-BookItalic'; font-size:9;">se</tspan><tspan x="6.507" y="0" style="font-family:'Proforma-BookItalic'; font-size:9;">r</tspan><tspan x="10.043" y="0" style="font-family:'Proforma-BookItalic'; font-size:9;">v</tspan><tspan x="14.247" y="0" style="font-family:'Proforma-BookItalic'; font-size:9;">ic</tspan><tspan x="19.746" y="0" style="font-family:'Proforma-BookItalic'; font-size:9;">e</tspan></text>
<text transform="matrix(1 0 0 1 174.6001 56.04)"><tspan x="0" y="0" style="font-family:'Proforma-BookItalic'; font-size:9;">e</tspan><tspan x="3.321" y="0" style="font-family:'Proforma-BookItalic'; font-size:9;">x</tspan><tspan x="7.82" y="0" style="font-family:'Proforma-BookItalic'; font-size:9;">porte</tspan><tspan x="25.146" y="0" style="font-family:'Proforma-BookItalic'; font-size:9;">d</tspan></text>
<text transform="matrix(1 0 0 1 181.0806 65.7598)" style="font-family:'Proforma-BookItalic'; font-size:9;">service</text>
<text transform="matrix(1 0 0 1 0 67.9199)"><tspan x="0" y="0" style="font-family:'ProductusBook'; font-size:7.98;">to</tspan><tspan x="6.208" y="0" style="font-family:'ProductusBook'; font-size:7.98;"> </tspan><tspan x="7.772" y="0" style="font-family:'ProductusBook'; font-size:7.98;">a</tspan><tspan x="11.108" y="0" style="font-family:'ProductusBook'; font-size:7.98;">n</tspan><tspan x="14.771" y="0" style="font-family:'ProductusBook'; font-size:7.98;"> </tspan><tspan x="16.391" y="0" style="font-family:'ProductusBook'; font-size:7.98;">e</tspan><tspan x="19.878" y="0" style="font-family:'ProductusBook'; font-size:7.98;">n</tspan><tspan x="23.597" y="0" style="font-family:'ProductusBook'; font-size:7.98;">d</tspan><tspan x="27.259" y="0" style="font-family:'ProductusBook'; font-size:7.98;">p</tspan><tspan x="30.978" y="0" style="font-family:'ProductusBook'; font-size:7.98;">o</tspan><tspan x="34.776" y="0" style="font-family:'ProductusBook'; font-size:7.98;">in</tspan><tspan x="40.067" y="0" style="font-family:'ProductusBook'; font-size:7.98;">t</tspan></text>
<text transform="matrix(1 0 0 1 292.8599 69.3604)"><tspan x="0" y="0" style="font-family:'ProductusBook'; font-size:7.98;">e</tspan><tspan x="3.52" y="0" style="font-family:'ProductusBook'; font-size:7.98;">n</tspan><tspan x="7.182" y="0" style="font-family:'ProductusBook'; font-size:7.98;">d</tspan><tspan x="10.885" y="0" style="font-family:'ProductusBook'; font-size:7.98;">p</tspan><tspan x="14.596" y="0" style="font-family:'ProductusBook'; font-size:7.98;">o</tspan><tspan x="18.386" y="0" style="font-family:'ProductusBook'; font-size:7.98;">i</tspan><tspan x="19.966" y="0" style="font-family:'ProductusBook'; font-size:7.98;">n</tspan><tspan x="23.629" y="0" style="font-family:'ProductusBook'; font-size:7.98;">t</tspan></text>
</svg>
