<?xml version="1.0" encoding="utf-8"?>
<!-- Generator: Adobe Illustrator 16.0.1, SVG Export Plug-In . SVG Version: 6.00 Build 0)  -->
<!DOCTYPE svg PUBLIC "-//W3C//DTD SVG 1.1//EN" "http://www.w3.org/Graphics/SVG/1.1/DTD/svg11.dtd">
<svg version="1.1" id="Layer_1" xmlns="http://www.w3.org/2000/svg" xmlns:xlink="http://www.w3.org/1999/xlink" x="0px" y="0px"
	 width="325.98px" height="170.1px" viewBox="0 0 325.98 170.1" enable-background="new 0 0 325.98 170.1" xml:space="preserve">
<rect x="184.26" y="0" fill="#F7F7F7" width="141.721" height="170.1"/>
<rect y="0" fill="#F7F7F7" width="141.72" height="170.1"/>
<rect x="13.92" y="14.16" width="0.48" height="99.239"/>
<rect x="311.58" y="14.16" width="0.479" height="99.239"/>
<rect x="113.4" y="14.16" fill="#FFFFFF" width="21.24" height="106.318"/>
<rect x="113.4" y="13.92" width="21.48" height="0.479"/>
<rect x="134.4" y="14.16" width="0.48" height="106.56"/>
<rect x="113.16" y="120.24" width="21.48" height="0.479"/>
<rect x="113.16" y="13.92" width="0.48" height="106.56"/>
<rect x="14.16" y="35.22" width="99.24" height="0.48"/>
<text transform="matrix(1 0 0 1 248.5195 83.1604)" font-family="'ProductusOSGiBookc'" font-size="7.98">service.imported=...</text>
<text transform="matrix(1 0 0 1 231.2402 40.6799)" font-family="'ProductusOSGiBookc'" font-size="7.98">&lt;other service properties&gt;</text>
<text transform="matrix(1 0 0 1 21.2402 97.3801)" font-family="'ProductusOSGiBookc'" font-size="7.98">service.exported.interfaces</text>
<rect x="14.16" y="77.7" width="99.24" height="0.479"/>
<text transform="matrix(1 0 0 1 21.2402 83.1604)" font-family="'ProductusOSGiBookc'" font-size="7.98">service.exported.intents.extra</text>
<rect x="14.16" y="63.54" width="99.24" height="0.479"/>
<text transform="matrix(1 0 0 1 21.2402 69.0002)" font-family="'ProductusOSGiBookc'" font-size="7.98">service.exported.intents</text>
<rect x="14.16" y="49.38" width="99.24" height="0.479"/>
<text transform="matrix(1 0 0 1 21.2402 54.8401)" font-family="'ProductusOSGiBookc'" font-size="7.98">service.intents</text>
<text transform="matrix(1 0 0 1 263.5801 69.0002)" font-family="'ProductusOSGiBookc'" font-size="7.98">service.intents</text>
<text transform="matrix(1 0 0 1 21.2402 40.6799)" font-family="'ProductusOSGiBookc'" font-size="7.98">&lt;other service properties&gt;</text>
<rect x="14.16" y="91.92" width="99.24" height="0.479"/>
<rect x="212.58" y="35.22" width="99.24" height="0.48"/>
<rect x="212.58" y="63.54" width="99.24" height="0.479"/>
<rect x="212.58" y="78" width="99.24" height="0.479"/>
<rect x="113.4" y="49.38" width="0.96" height="0.479"/>
<rect x="117.42" y="49.38" width="1.5" height="0.479"/>
<rect x="121.98" y="49.38" width="1.5" height="0.479"/>
<rect x="126.54" y="49.38" width="1.26" height="0.479"/>
<rect x="127.32" y="49.62" width="0.48" height="1.02"/>
<rect x="127.32" y="54.36" width="0.48" height="1.921"/>
<rect x="127.32" y="60" width="0.48" height="1.92"/>
<rect x="127.32" y="65.7" width="0.48" height="1.858"/>
<rect x="127.32" y="71.34" width="0.48" height="1.86"/>
<rect x="127.32" y="76.979" width="0.48" height="1.2"/>
<rect x="126.54" y="77.7" width="1.02" height="0.479"/>
<rect x="121.98" y="77.7" width="1.5" height="0.479"/>
<rect x="117.42" y="77.7" width="1.5" height="0.479"/>
<rect x="113.4" y="77.7" width="0.96" height="0.479"/>
<rect x="14.16" y="106.08" width="99.24" height="0.479"/>
<text transform="matrix(1 0 0 1 21.2402 111.5403)" font-family="'ProductusOSGiBookc'" font-size="7.98">service.exported.configs</text>
<polyline fill="#FFFFFF" points="7.08,21.3 14.16,7.08 21.24,21.3 "/>
<polyline points="6.9,21.18 13.98,6.96 14.22,6.54 14.4,6.96 21.48,21.18 21.66,21.54 21.24,21.54 21.06,21.42 13.98,7.2 14.4,6.96 
	14.4,7.2 7.32,21.42 "/>
<polyline points="21.24,21.54 6.72,21.54 6.9,21.18 7.08,21.06 21.24,21.06 "/>
<polyline fill="#FFFFFF" points="304.74,7.08 311.82,21.3 318.9,7.08 "/>
<polyline points="304.98,6.96 312.06,21.18 312.06,21.42 311.64,21.18 318.72,6.96 318.9,6.84 319.32,6.84 319.14,7.2 312.06,21.42 
	311.88,21.84 311.64,21.42 304.561,7.2 "/>
<polyline points="318.9,7.32 304.74,7.32 304.561,7.2 304.38,6.84 318.9,6.84 "/>
<text transform="matrix(1 0 0 1 282.6523 11.8206)" font-family="'ProductusOSGiBookc'" font-size="7.98">import</text>
<text transform="matrix(1 0 0 1 21.2402 11.8206)" font-family="'ProductusOSGiBookc'" font-size="7.98">export</text>
<text transform="matrix(1 0 0 1 96.8999 6.8401)" font-family="'ProductusOSGiBookc'" font-size="7.98">Framework A</text>
<text transform="matrix(1 0 0 1 189.3164 6.8401)" font-family="'ProductusOSGiBookc'" font-size="7.98">Framework B</text>
<rect x="191.34" y="14.16" fill="#FFFFFF" width="21.239" height="106.318"/>
<rect x="191.34" y="13.92" width="21.479" height="0.479"/>
<rect x="212.34" y="14.16" width="0.479" height="106.56"/>
<rect x="191.1" y="120.24" width="21.479" height="0.479"/>
<rect x="191.1" y="13.92" width="0.479" height="106.56"/>
<rect x="113.4" y="35.22" width="0.96" height="0.48"/>
<rect x="118.26" y="35.22" width="1.92" height="0.48"/>
<rect x="124.08" y="35.22" width="1.98" height="0.48"/>
<rect x="129.9" y="35.22" width="1.98" height="0.48"/>
<rect x="135.78" y="35.22" width="1.92" height="0.48"/>
<rect x="141.6" y="35.22" width="1.92" height="0.48"/>
<rect x="147.42" y="35.22" width="1.98" height="0.48"/>
<rect x="153.24" y="35.22" width="1.98" height="0.48"/>
<rect x="159.12" y="35.22" width="1.921" height="0.48"/>
<rect x="164.939" y="35.22" width="1.92" height="0.48"/>
<rect x="170.76" y="35.22" width="1.92" height="0.48"/>
<rect x="176.58" y="35.22" width="1.98" height="0.48"/>
<rect x="182.4" y="35.22" width="1.979" height="0.48"/>
<rect x="188.279" y="35.22" width="1.921" height="0.48"/>
<rect x="194.1" y="35.22" width="1.92" height="0.48"/>
<rect x="199.92" y="35.22" width="1.92" height="0.48"/>
<rect x="205.74" y="35.22" width="1.98" height="0.48"/>
<rect x="211.561" y="35.22" width="1.02" height="0.48"/>
<rect x="113.4" y="63.54" width="0.96" height="0.479"/>
<rect x="118.26" y="63.54" width="1.92" height="0.479"/>
<rect x="124.08" y="63.54" width="1.98" height="0.479"/>
<rect x="129.9" y="63.54" width="1.98" height="0.479"/>
<rect x="135.78" y="63.54" width="1.92" height="0.479"/>
<rect x="141.6" y="63.54" width="1.92" height="0.479"/>
<rect x="147.42" y="63.54" width="1.98" height="0.479"/>
<rect x="153.24" y="63.54" width="1.98" height="0.479"/>
<rect x="159.12" y="63.54" width="1.921" height="0.479"/>
<rect x="164.939" y="63.54" width="1.92" height="0.479"/>
<rect x="170.76" y="63.54" width="1.92" height="0.479"/>
<rect x="176.58" y="63.54" width="1.98" height="0.479"/>
<rect x="182.4" y="63.54" width="1.979" height="0.479"/>
<rect x="188.279" y="63.54" width="1.921" height="0.479"/>
<rect x="194.1" y="63.54" width="1.92" height="0.479"/>
<rect x="199.92" y="63.54" width="1.92" height="0.479"/>
<rect x="205.74" y="63.54" width="1.98" height="0.479"/>
<rect x="211.561" y="63.54" width="1.02" height="0.479"/>
<text transform="matrix(1 0 0 1 130.6802 86.9397)" font-family="'ProductusSemibold'" font-size="7.98">Distribution Provider</text>
<rect x="120.24" y="120.479" width="0.48" height="42.54"/>
<rect x="205.26" y="120.479" width="0.479" height="42.54"/>
<text transform="matrix(1 0 0 1 126.1201 133.0198)" font-family="'ProductusOSGiBookc'" font-size="7.98">remote.intents.supported</text>
<text transform="matrix(1 0 0 1 125.8799 149.0999)" font-family="'ProductusOSGiBookc'" font-size="7.98">remote.configs.supported</text>
<rect x="120.48" y="127.32" width="85.021" height="0.479"/>
<rect x="120.48" y="141.479" width="85.021" height="0.48"/>
<polyline fill="#FFFFFF" points="113.4,163.02 120.48,148.86 127.56,163.02 "/>
<polyline points="113.22,162.9 120.3,148.74 120.48,148.32 120.72,148.74 127.98,163.26 127.56,163.26 127.38,163.14 120.3,148.979 
	120.72,148.74 120.72,148.979 113.64,163.14 "/>
<polyline points="127.56,163.26 113.04,163.26 113.22,162.9 113.4,162.781 127.56,162.781 "/>
<polyline fill="#FFFFFF" points="198.42,163.02 205.5,148.86 212.58,163.02 "/>
<polyline points="198.24,162.9 205.32,148.74 205.5,148.32 205.74,148.74 213,163.26 212.58,163.26 212.4,163.14 205.32,148.979 
	205.74,148.74 205.74,148.979 198.66,163.14 "/>
<polyline points="212.58,163.26 198.061,163.26 198.24,162.9 198.42,162.781 212.58,162.781 "/>
<rect x="212.58" y="91.92" width="99.24" height="0.479"/>
<rect x="113.4" y="91.92" width="0.96" height="0.479"/>
<rect x="118.26" y="91.92" width="1.92" height="0.479"/>
<rect x="124.08" y="91.92" width="1.98" height="0.479"/>
<rect x="129.9" y="91.92" width="1.98" height="0.479"/>
<rect x="135.78" y="91.92" width="1.92" height="0.479"/>
<rect x="141.6" y="91.92" width="1.92" height="0.479"/>
<rect x="147.42" y="91.92" width="1.98" height="0.479"/>
<rect x="153.24" y="91.92" width="1.98" height="0.479"/>
<rect x="159.12" y="91.92" width="1.921" height="0.479"/>
<rect x="164.939" y="91.92" width="1.92" height="0.479"/>
<rect x="170.76" y="91.92" width="1.92" height="0.479"/>
<rect x="176.58" y="91.92" width="1.98" height="0.479"/>
<rect x="182.4" y="91.92" width="1.979" height="0.479"/>
<rect x="188.279" y="91.92" width="1.921" height="0.479"/>
<rect x="194.1" y="91.92" width="1.92" height="0.479"/>
<rect x="199.92" y="91.92" width="1.92" height="0.479"/>
<rect x="205.74" y="91.92" width="1.98" height="0.479"/>
<rect x="211.561" y="91.92" width="1.02" height="0.479"/>
<text transform="matrix(1 0 0 1 271.4395 98.76)" font-family="'ProductusOSGiBookc'" font-size="7.98">objectClass</text>
<rect x="113.4" y="106.08" width="0.96" height="0.479"/>
<rect x="118.26" y="106.08" width="1.92" height="0.479"/>
<rect x="124.08" y="106.08" width="1.98" height="0.479"/>
<rect x="129.9" y="106.08" width="1.98" height="0.479"/>
<rect x="135.78" y="106.08" width="1.92" height="0.479"/>
<rect x="141.6" y="106.08" width="1.92" height="0.479"/>
<rect x="147.42" y="106.08" width="1.98" height="0.479"/>
<rect x="153.24" y="106.08" width="1.98" height="0.479"/>
<rect x="159.12" y="106.08" width="1.921" height="0.479"/>
<rect x="164.939" y="106.08" width="1.92" height="0.479"/>
<rect x="170.76" y="106.08" width="1.92" height="0.479"/>
<rect x="176.58" y="106.08" width="1.98" height="0.479"/>
<rect x="182.4" y="106.08" width="1.979" height="0.479"/>
<rect x="188.279" y="106.08" width="1.921" height="0.479"/>
<rect x="194.1" y="106.08" width="1.92" height="0.479"/>
<rect x="199.92" y="106.08" width="1.92" height="0.479"/>
<rect x="205.74" y="106.08" width="1.98" height="0.479"/>
<rect x="211.561" y="106.08" width="100.26" height="0.479"/>
<text transform="matrix(1 0 0 1 235.2598 111.5403)" font-family="'ProductusOSGiBookc'" font-size="7.98">service.imported.configs</text>
<rect x="134.4" y="21.06" width="0.24" height="0.48"/>
<rect x="134.64" y="21.06" width="56.939" height="0.48"/>
<text transform="matrix(1 0 0 1 143.04 14.4602)" font-family="'ProductusOSGiBookc'" font-size="7.98">endpoint</text>
<polyline fill="#FFFFFF" points="138.18,21.3 138.12,20.58 137.94,19.92 137.58,19.32 137.16,18.781 136.62,18.36 136.02,18.06 
	135.36,17.82 134.64,17.76 133.92,17.82 133.26,18.06 132.66,18.36 132.18,18.781 131.7,19.32 131.4,19.92 131.22,20.58 131.1,21.3 
	131.22,22.02 131.4,22.68 131.7,23.281 132.18,23.82 132.66,24.24 133.26,24.54 133.92,24.781 134.64,24.84 135.36,24.781 
	136.02,24.54 136.62,24.24 137.16,23.82 137.58,23.281 137.94,22.68 138.12,22.02 138.18,21.3 "/>
<polyline points="137.94,21.36 137.88,20.64 137.7,19.979 137.76,20.04 137.4,19.44 137.4,19.5 136.98,18.96 137.04,18.96 
	136.5,18.54 136.5,18.6 135.9,18.3 135.96,18.3 135.3,18.06 135.36,18.06 134.64,18 134.7,18 133.98,18.06 134.04,18.06 
	133.38,18.3 132.78,18.6 132.84,18.54 132.36,18.96 131.88,19.5 131.94,19.44 131.64,20.04 131.64,19.979 131.46,20.64 
	131.34,21.36 131.34,21.3 131.46,22.02 131.46,21.96 131.64,22.62 131.64,22.56 131.94,23.16 131.88,23.16 132.36,23.7 
	132.36,23.64 132.84,24.06 132.78,24.06 133.38,24.36 133.38,24.3 134.04,24.54 133.98,24.54 134.7,24.6 134.64,24.6 135.36,24.54 
	135.3,24.54 135.96,24.3 135.9,24.36 136.5,24.06 137.04,23.64 136.98,23.7 137.4,23.16 137.76,22.56 137.7,22.62 137.88,21.96 
	137.88,22.02 137.94,21.3 138.42,21.36 138.36,22.08 138.18,22.74 138.18,22.8 137.82,23.4 137.76,23.46 137.34,24 136.8,24.42 
	136.74,24.479 136.14,24.781 135.48,25.02 135.42,25.02 134.7,25.08 134.64,25.08 133.92,25.02 133.86,25.02 133.2,24.781 
	133.14,24.781 132.54,24.479 132.54,24.42 132.06,24 132,24 131.52,23.46 131.52,23.4 131.22,22.8 131.16,22.74 130.98,22.08 
	130.86,21.36 130.86,21.3 130.98,20.58 130.98,20.52 131.16,19.86 131.22,19.8 131.52,19.2 132,18.66 132.06,18.6 132.54,18.18 
	133.14,17.88 133.2,17.82 133.86,17.58 133.92,17.58 134.64,17.52 134.7,17.52 135.42,17.58 135.48,17.58 136.14,17.82 
	136.14,17.88 136.74,18.18 136.8,18.18 137.34,18.6 137.34,18.66 137.76,19.2 137.82,19.2 138.18,19.8 138.18,19.86 138.36,20.52 
	138.36,20.58 138.42,21.3 "/>
<polyline points="137.94,21.3 137.94,21.36 138.42,21.3 138.42,21.36 "/>
<text transform="matrix(1 0 0 1 138.8398 26.7004)" font-family="'ProductusOSGiBookc'" font-size="7.98">1</text>
<text transform="matrix(1 0 0 1 186.3594 26.4602)" font-family="'ProductusOSGiBookc'" font-size="7.98">*</text>
</svg>
