<?xml version="1.0" encoding="utf-8"?>
<!-- Generator: Adobe Illustrator 16.0.0, SVG Export Plug-In . SVG Version: 6.00 Build 0)  -->
<!DOCTYPE svg PUBLIC "-//W3C//DTD SVG 1.1//EN" "http://www.w3.org/Graphics/SVG/1.1/DTD/svg11.dtd">
<svg version="1.1" id="Layer_1" xmlns="http://www.w3.org/2000/svg" xmlns:xlink="http://www.w3.org/1999/xlink" x="0px" y="0px"
	 width="294.367px" height="210.527px" viewBox="0 0 294.367 210.527" style="enable-background:new 0 0 294.367 210.527;"
	 xml:space="preserve">
<rect y="153.828" style="fill:#E6E6E6;" width="113.4" height="56.7"/>
<rect y="5.027" style="fill:#E6E6E6;" width="113.4" height="63.78"/>
<polyline style="fill-rule:evenodd;clip-rule:evenodd;fill:#FFFFFF;" points="49.62,26.268 56.7,12.107 63.78,26.268 "/>
<polyline points="49.44,26.147 56.52,11.987 56.7,11.567 56.94,11.987 64.2,26.508 63.78,26.508 63.6,26.388 56.52,12.228 
	56.94,11.987 56.94,12.228 49.86,26.388 "/>
<polyline points="63.78,26.508 49.26,26.508 49.44,26.147 49.62,26.027 63.78,26.027 "/>
<polyline style="fill-rule:evenodd;clip-rule:evenodd;fill:#FFFFFF;" points="19.8,75.888 14.16,90.047 36.84,90.047 42.48,75.888 
	"/>
<polyline points="20.04,76.008 14.4,90.167 14.16,90.288 14.16,89.808 36.84,89.808 37.08,90.167 36.66,89.987 42.3,75.828 
	42.48,75.647 42.84,75.647 42.72,76.008 37.08,90.167 37.02,90.288 13.86,90.288 13.98,89.987 19.62,75.828 "/>
<polyline points="42.48,76.127 19.8,76.127 19.62,75.828 19.68,75.647 42.48,75.647 "/>
<polyline style="fill-rule:evenodd;clip-rule:evenodd;fill:#FFFFFF;" points="55.26,104.208 49.62,118.428 72.24,118.428 
	77.94,104.208 "/>
<polyline points="55.5,104.328 49.86,118.547 49.62,118.667 49.62,118.188 72.24,118.188 72.48,118.547 72.06,118.368 
	77.76,104.147 77.94,103.968 78.3,103.968 78.18,104.328 72.48,118.547 72.42,118.667 49.32,118.667 49.44,118.368 55.08,104.147 
	"/>
<polyline points="77.94,104.447 55.26,104.447 55.08,104.147 55.14,103.968 77.94,103.968 "/>
<polyline style="fill-rule:evenodd;clip-rule:evenodd;fill:#FFFFFF;" points="90.72,132.587 85.02,146.748 107.7,146.748 
	113.4,132.587 "/>
<polyline points="90.96,132.708 85.26,146.868 85.02,146.987 85.02,146.508 107.7,146.508 107.94,146.868 107.52,146.688 
	113.22,132.527 113.4,132.348 113.76,132.348 113.64,132.708 107.94,146.868 107.88,146.987 84.72,146.987 84.84,146.688 
	90.54,132.527 "/>
<polyline points="113.4,132.828 90.72,132.828 90.54,132.527 90.6,132.348 113.4,132.348 "/>
<text transform="matrix(1 0 0 1 141.7202 6.6475)"><tspan x="0" y="0" style="font-family:'ProductusOSGiBookc'; font-size:7.98;">ser</tspan><tspan x="8.515" y="0" style="font-family:'ProductusOSGiBookc'; font-size:7.98;">v</tspan><tspan x="11.643" y="0" style="font-family:'ProductusOSGiBookc'; font-size:7.98;">ice</tspan><tspan x="19.734" y="0" style="font-family:'ProductusOSGiBookc'; font-size:7.98;">.</tspan><tspan x="21.234" y="0" style="font-family:'ProductusOSGiBookc'; font-size:7.98;">exported</tspan><tspan x="46.834" y="0" style="font-family:'ProductusOSGiBookc'; font-size:7.98;">.</tspan><tspan x="48.342" y="0" style="font-family:'ProductusOSGiBookc'; font-size:7.98;">c</tspan><tspan x="51.406" y="0" style="font-family:'ProductusOSGiBookc'; font-size:7.98;">on</tspan><tspan x="58.827" y="0" style="font-family:'ProductusOSGiBookc'; font-size:7.98;">f</tspan><tspan x="60.751" y="0" style="font-family:'ProductusOSGiBookc'; font-size:7.98;">i</tspan><tspan x="62.307" y="0" style="font-family:'ProductusOSGiBookc'; font-size:7.98;">g</tspan><tspan x="65.73" y="0" style="font-family:'ProductusOSGiBookc'; font-size:7.98;">s</tspan><tspan x="68.547" y="0" style="font-family:'ProductusOSGiBookc'; font-size:7.98;">=</tspan><tspan x="72.385" y="0" style="font-family:'ProductusOSGiBookc'; font-size:7.98;">[</tspan><tspan x="74.611" y="0" style="font-family:'ProductusOSGiBookc'; font-size:7.98;">net.rm</tspan><tspan x="93.611" y="0" style="font-family:'ProductusOSGiBookc'; font-size:7.98;">i</tspan><tspan x="95.12" y="0" style="font-family:'ProductusOSGiBookc'; font-size:7.98;">,</tspan><tspan x="96.684" y="0" style="font-family:'ProductusOSGiBookc'; font-size:7.98;">net.soa</tspan><tspan x="117.591" y="0" style="font-family:'ProductusOSGiBookc'; font-size:7.98;">p</tspan><tspan x="121.198" y="0" style="font-family:'ProductusOSGiBookc'; font-size:7.98;">,net.smar</tspan><tspan x="147.867" y="0" style="font-family:'ProductusOSGiBookc'; font-size:7.98;">t</tspan><tspan x="150.149" y="0" style="font-family:'ProductusOSGiBookc'; font-size:7.98;">]</tspan></text>
<text transform="matrix(1 0 0 1 141.7202 16.3672)"><tspan x="0" y="0" style="font-family:'ProductusOSGiBookc'; font-size:7.98;">net.r</tspan><tspan x="13.271" y="0" style="font-family:'ProductusOSGiBookc'; font-size:7.98;">m</tspan><tspan x="18.977" y="0" style="font-family:'ProductusOSGiBookc'; font-size:7.98;">i</tspan><tspan x="20.517" y="0" style="font-family:'ProductusOSGiBookc'; font-size:7.98;">.</tspan><tspan x="22.017" y="0" style="font-family:'ProductusOSGiBookc'; font-size:7.98;">url=r</tspan><tspan x="35.462" y="0" style="font-family:'ProductusOSGiBookc'; font-size:7.98;">m</tspan><tspan x="41.168" y="0" style="font-family:'ProductusOSGiBookc'; font-size:7.98;">i://1</tspan><tspan x="52.076" y="0" style="font-family:'ProductusOSGiBookc'; font-size:7.98;">7</tspan><tspan x="55.5" y="0" style="font-family:'ProductusOSGiBookc'; font-size:7.98;">2</tspan><tspan x="59.154" y="0" style="font-family:'ProductusOSGiBookc'; font-size:7.98;">.25.2</tspan><tspan x="72.936" y="0" style="font-family:'ProductusOSGiBookc'; font-size:7.98;">5</tspan></text>
<text transform="matrix(1 0 0 1 218.1001 16.3672)"><tspan x="0" y="0" style="font-family:'ProductusOSGiBookc'; font-size:7.98;">.109</tspan><tspan x="12.312" y="0" style="font-family:'ProductusOSGiBookc'; font-size:7.98;">:</tspan><tspan x="13.933" y="0" style="font-family:'ProductusOSGiBookc'; font-size:7.98;">1099</tspan><tspan x="28.4" y="0" style="font-family:'ProductusOSGiBookc'; font-size:7.98;">/</tspan><tspan x="30.443" y="0" style="font-family:'ProductusOSGiBookc'; font-size:7.98;">s</tspan><tspan x="33.204" y="0" style="font-family:'ProductusOSGiBookc'; font-size:7.98;">e</tspan><tspan x="36.684" y="0" style="font-family:'ProductusOSGiBookc'; font-size:7.98;">rvice-id/24</tspan></text>
<text transform="matrix(1 0 0 1 141.7202 26.0269)"><tspan x="0" y="0" style="font-family:'ProductusOSGiBookc'; font-size:7.98;">net</tspan><tspan x="9.472" y="0" style="font-family:'ProductusOSGiBookc'; font-size:7.98;">.</tspan><tspan x="11.036" y="0" style="font-family:'ProductusOSGiBookc'; font-size:7.98;">s</tspan><tspan x="13.853" y="0" style="font-family:'ProductusOSGiBookc'; font-size:7.98;">o</tspan><tspan x="17.58" y="0" style="font-family:'ProductusOSGiBookc'; font-size:7.98;">a</tspan><tspan x="20.875" y="0" style="font-family:'ProductusOSGiBookc'; font-size:7.98;">p</tspan><tspan x="24.482" y="0" style="font-family:'ProductusOSGiBookc'; font-size:7.98;">.</tspan><tspan x="25.567" y="0" style="font-family:'ProductusOSGiBookc'; font-size:7.98;">w</tspan><tspan x="30.667" y="0" style="font-family:'ProductusOSGiBookc'; font-size:7.98;">sd</tspan><tspan x="37.099" y="0" style="font-family:'ProductusOSGiBookc'; font-size:7.98;">l</tspan><tspan x="38.654" y="0" style="font-family:'ProductusOSGiBookc'; font-size:7.98;">=</tspan><tspan x="42.437" y="0" style="font-family:'ProductusOSGiBookc'; font-size:7.98;">/</tspan><tspan x="44.6" y="0" style="font-family:'ProductusOSGiBookc'; font-size:7.98;">w</tspan><tspan x="49.698" y="0" style="font-family:'ProductusOSGiBookc'; font-size:7.98;">sd</tspan><tspan x="56.131" y="0" style="font-family:'ProductusOSGiBookc'; font-size:7.98;">l</tspan><tspan x="57.687" y="0" style="font-family:'ProductusOSGiBookc'; font-size:7.98;">/</tspan><tspan x="59.793" y="0" style="font-family:'ProductusOSGiBookc'; font-size:7.98;">r</tspan><tspan x="61.836" y="0" style="font-family:'ProductusOSGiBookc'; font-size:7.98;">e</tspan><tspan x="65.315" y="0" style="font-family:'ProductusOSGiBookc'; font-size:7.98;">m</tspan><tspan x="71.021" y="0" style="font-family:'ProductusOSGiBookc'; font-size:7.98;">o</tspan><tspan x="74.795" y="0" style="font-family:'ProductusOSGiBookc'; font-size:7.98;">te</tspan><tspan x="80.612" y="0" style="font-family:'ProductusOSGiBookc'; font-size:7.98;">.</tspan><tspan x="82.161" y="0" style="font-family:'ProductusOSGiBookc'; font-size:7.98;">x</tspan><tspan x="85.153" y="0" style="font-family:'ProductusOSGiBookc'; font-size:7.98;">m</tspan><tspan x="90.858" y="0" style="font-family:'ProductusOSGiBookc'; font-size:7.98;">l</tspan></text>
<text transform="matrix(1 0 0 1 141.7202 35.7476)"><tspan x="0" y="0" style="font-family:'ProductusOSGiBookc'; font-size:7.98;">net.smart.name=</tspan><tspan x="48.956" y="0" style="font-family:'ProductusOSGiBookc'; font-size:7.98;">r</tspan><tspan x="50.999" y="0" style="font-family:'ProductusOSGiBookc'; font-size:7.98;">emot</tspan><tspan x="66.312" y="0" style="font-family:'ProductusOSGiBookc'; font-size:7.98;">e</tspan></text>
<rect x="7.08" y="47.508" style="fill:#FFFFFF;" width="42.54" height="14.22"/>
<rect x="7.08" y="47.268" width="42.78" height="0.48"/>
<rect x="49.38" y="47.508" width="0.48" height="14.46"/>
<rect x="6.84" y="61.487" width="42.78" height="0.48"/>
<rect x="6.84" y="47.268" width="0.48" height="14.46"/>
<rect x="28.08" y="61.487" width="0.48" height="14.64"/>
<rect x="70.62" y="61.487" width="0.48" height="42.96"/>
<rect x="98.94" y="61.487" width="0.48" height="71.34"/>
<text transform="matrix(1 0 0 1 141.7202 79.4277)"><tspan x="0" y="0" style="font-family:'ProductusOSGiBookc'; font-size:7.98;">ser</tspan><tspan x="8.538" y="0" style="font-family:'ProductusOSGiBookc'; font-size:7.98;">v</tspan><tspan x="11.667" y="0" style="font-family:'ProductusOSGiBookc'; font-size:7.98;">ice.imp</tspan><tspan x="32.326" y="0" style="font-family:'ProductusOSGiBookc'; font-size:7.98;">o</tspan><tspan x="36.053" y="0" style="font-family:'ProductusOSGiBookc'; font-size:7.98;">r</tspan><tspan x="38.287" y="0" style="font-family:'ProductusOSGiBookc'; font-size:7.98;">t</tspan><tspan x="40.569" y="0" style="font-family:'ProductusOSGiBookc'; font-size:7.98;">ed</tspan><tspan x="47.735" y="0" style="font-family:'ProductusOSGiBookc'; font-size:7.98;">.</tspan><tspan x="49.235" y="0" style="font-family:'ProductusOSGiBookc'; font-size:7.98;">c</tspan><tspan x="52.3" y="0" style="font-family:'ProductusOSGiBookc'; font-size:7.98;">on</tspan><tspan x="59.737" y="0" style="font-family:'ProductusOSGiBookc'; font-size:7.98;">f</tspan><tspan x="61.66" y="0" style="font-family:'ProductusOSGiBookc'; font-size:7.98;">i</tspan><tspan x="63.169" y="0" style="font-family:'ProductusOSGiBookc'; font-size:7.98;">gs=sm</tspan><tspan x="81.817" y="0" style="font-family:'ProductusOSGiBookc'; font-size:7.98;">a</tspan><tspan x="85.065" y="0" style="font-family:'ProductusOSGiBookc'; font-size:7.98;">r</tspan><tspan x="87.3" y="0" style="font-family:'ProductusOSGiBookc'; font-size:7.98;">t</tspan></text>
<text transform="matrix(1 0 0 1 141.7202 89.1479)"><tspan x="0" y="0" style="font-family:'ProductusOSGiBookc'; font-size:7.98;">net.smart.name=</tspan><tspan x="48.956" y="0" style="font-family:'ProductusOSGiBookc'; font-size:7.98;">r</tspan><tspan x="50.999" y="0" style="font-family:'ProductusOSGiBookc'; font-size:7.98;">emot</tspan><tspan x="66.312" y="0" style="font-family:'ProductusOSGiBookc'; font-size:7.98;">e</tspan></text>
<text transform="matrix(1 0 0 1 141.7202 108.5283)"><tspan x="0" y="0" style="font-family:'ProductusOSGiBookc'; font-size:7.98;">ser</tspan><tspan x="8.538" y="0" style="font-family:'ProductusOSGiBookc'; font-size:7.98;">v</tspan><tspan x="11.667" y="0" style="font-family:'ProductusOSGiBookc'; font-size:7.98;">ice.imp</tspan><tspan x="32.326" y="0" style="font-family:'ProductusOSGiBookc'; font-size:7.98;">o</tspan><tspan x="36.053" y="0" style="font-family:'ProductusOSGiBookc'; font-size:7.98;">r</tspan><tspan x="38.287" y="0" style="font-family:'ProductusOSGiBookc'; font-size:7.98;">t</tspan><tspan x="40.569" y="0" style="font-family:'ProductusOSGiBookc'; font-size:7.98;">ed</tspan><tspan x="47.735" y="0" style="font-family:'ProductusOSGiBookc'; font-size:7.98;">.</tspan><tspan x="49.235" y="0" style="font-family:'ProductusOSGiBookc'; font-size:7.98;">c</tspan><tspan x="52.3" y="0" style="font-family:'ProductusOSGiBookc'; font-size:7.98;">on</tspan><tspan x="59.737" y="0" style="font-family:'ProductusOSGiBookc'; font-size:7.98;">f</tspan><tspan x="61.66" y="0" style="font-family:'ProductusOSGiBookc'; font-size:7.98;">i</tspan><tspan x="63.169" y="0" style="font-family:'ProductusOSGiBookc'; font-size:7.98;">gs=</tspan><tspan x="73.263" y="0" style="font-family:'ProductusOSGiBookc'; font-size:7.98;">[</tspan><tspan x="75.545" y="0" style="font-family:'ProductusOSGiBookc'; font-size:7.98;">net.r</tspan><tspan x="88.855" y="0" style="font-family:'ProductusOSGiBookc'; font-size:7.98;">m</tspan><tspan x="94.562" y="0" style="font-family:'ProductusOSGiBookc'; font-size:7.98;">i</tspan><tspan x="96.109" y="0" style="font-family:'ProductusOSGiBookc'; font-size:7.98;">,</tspan><tspan x="97.617" y="0" style="font-family:'ProductusOSGiBookc'; font-size:7.98;">c</tspan><tspan x="100.697" y="0" style="font-family:'ProductusOSGiBookc'; font-size:7.98;">o</tspan><tspan x="104.424" y="0" style="font-family:'ProductusOSGiBookc'; font-size:7.98;">m.ac</tspan><tspan x="118.118" y="0" style="font-family:'ProductusOSGiBookc'; font-size:7.98;">m</tspan><tspan x="123.823" y="0" style="font-family:'ProductusOSGiBookc'; font-size:7.98;">e</tspan><tspan x="127.303" y="0" style="font-family:'ProductusOSGiBookc'; font-size:7.98;">.r</tspan><tspan x="131.117" y="0" style="font-family:'ProductusOSGiBookc'; font-size:7.98;">m</tspan><tspan x="136.822" y="0" style="font-family:'ProductusOSGiBookc'; font-size:7.98;">i</tspan><tspan x="138.379" y="0" style="font-family:'ProductusOSGiBookc'; font-size:7.98;">]</tspan></text>
<text transform="matrix(1 0 0 1 141.7202 118.188)"><tspan x="0" y="0" style="font-family:'ProductusOSGiBookc'; font-size:7.98;">net.r</tspan><tspan x="13.271" y="0" style="font-family:'ProductusOSGiBookc'; font-size:7.98;">m</tspan><tspan x="18.977" y="0" style="font-family:'ProductusOSGiBookc'; font-size:7.98;">i</tspan><tspan x="20.517" y="0" style="font-family:'ProductusOSGiBookc'; font-size:7.98;">.</tspan><tspan x="22.017" y="0" style="font-family:'ProductusOSGiBookc'; font-size:7.98;">url=r</tspan><tspan x="35.462" y="0" style="font-family:'ProductusOSGiBookc'; font-size:7.98;">m</tspan><tspan x="41.168" y="0" style="font-family:'ProductusOSGiBookc'; font-size:7.98;">i://1</tspan><tspan x="52.076" y="0" style="font-family:'ProductusOSGiBookc'; font-size:7.98;">7</tspan><tspan x="55.5" y="0" style="font-family:'ProductusOSGiBookc'; font-size:7.98;">2</tspan><tspan x="59.154" y="0" style="font-family:'ProductusOSGiBookc'; font-size:7.98;">.25.2</tspan><tspan x="72.936" y="0" style="font-family:'ProductusOSGiBookc'; font-size:7.98;">5</tspan></text>
<text transform="matrix(1 0 0 1 218.1001 118.188)"><tspan x="0" y="0" style="font-family:'ProductusOSGiBookc'; font-size:7.98;">.109</tspan><tspan x="12.312" y="0" style="font-family:'ProductusOSGiBookc'; font-size:7.98;">:</tspan><tspan x="13.933" y="0" style="font-family:'ProductusOSGiBookc'; font-size:7.98;">1099</tspan><tspan x="28.4" y="0" style="font-family:'ProductusOSGiBookc'; font-size:7.98;">/</tspan><tspan x="30.443" y="0" style="font-family:'ProductusOSGiBookc'; font-size:7.98;">s</tspan><tspan x="33.204" y="0" style="font-family:'ProductusOSGiBookc'; font-size:7.98;">e</tspan><tspan x="36.684" y="0" style="font-family:'ProductusOSGiBookc'; font-size:7.98;">rvice-id/24</tspan></text>
<text transform="matrix(1 0 0 1 141.7202 136.8477)"><tspan x="0" y="0" style="font-family:'ProductusOSGiBookc'; font-size:7.98;">ser</tspan><tspan x="8.515" y="0" style="font-family:'ProductusOSGiBookc'; font-size:7.98;">v</tspan><tspan x="11.643" y="0" style="font-family:'ProductusOSGiBookc'; font-size:7.98;">ice.imp</tspan><tspan x="32.246" y="0" style="font-family:'ProductusOSGiBookc'; font-size:7.98;">o</tspan><tspan x="35.974" y="0" style="font-family:'ProductusOSGiBookc'; font-size:7.98;">r</tspan><tspan x="38.247" y="0" style="font-family:'ProductusOSGiBookc'; font-size:7.98;">t</tspan><tspan x="40.529" y="0" style="font-family:'ProductusOSGiBookc'; font-size:7.98;">e</tspan><tspan x="44.009" y="0" style="font-family:'ProductusOSGiBookc'; font-size:7.98;">d</tspan><tspan x="47.728" y="0" style="font-family:'ProductusOSGiBookc'; font-size:7.98;">.</tspan><tspan x="49.228" y="0" style="font-family:'ProductusOSGiBookc'; font-size:7.98;">c</tspan><tspan x="52.292" y="0" style="font-family:'ProductusOSGiBookc'; font-size:7.98;">on</tspan><tspan x="59.713" y="0" style="font-family:'ProductusOSGiBookc'; font-size:7.98;">f</tspan><tspan x="61.637" y="0" style="font-family:'ProductusOSGiBookc'; font-size:7.98;">i</tspan><tspan x="63.145" y="0" style="font-family:'ProductusOSGiBookc'; font-size:7.98;">gs=net.so</tspan><tspan x="90.835" y="0" style="font-family:'ProductusOSGiBookc'; font-size:7.98;">a</tspan><tspan x="94.074" y="0" style="font-family:'ProductusOSGiBookc'; font-size:7.98;">p</tspan></text>
<text transform="matrix(1 0 0 1 141.7202 146.5674)"><tspan x="0" y="0" style="font-family:'ProductusOSGiBookc'; font-size:7.98;">net.s</tspan><tspan x="13.853" y="0" style="font-family:'ProductusOSGiBookc'; font-size:7.98;">o</tspan><tspan x="17.58" y="0" style="font-family:'ProductusOSGiBookc'; font-size:7.98;">a</tspan><tspan x="20.867" y="0" style="font-family:'ProductusOSGiBookc'; font-size:7.98;">p</tspan><tspan x="24.475" y="0" style="font-family:'ProductusOSGiBookc'; font-size:7.98;">.</tspan><tspan x="25.56" y="0" style="font-family:'ProductusOSGiBookc'; font-size:7.98;">w</tspan><tspan x="30.659" y="0" style="font-family:'ProductusOSGiBookc'; font-size:7.98;">s</tspan><tspan x="33.42" y="0" style="font-family:'ProductusOSGiBookc'; font-size:7.98;">d</tspan><tspan x="37.083" y="0" style="font-family:'ProductusOSGiBookc'; font-size:7.98;">l=http://</tspan><tspan x="60.654" y="0" style="font-family:'ProductusOSGiBookc'; font-size:7.98;">1</tspan><tspan x="63.831" y="0" style="font-family:'ProductusOSGiBookc'; font-size:7.98;">7</tspan><tspan x="67.294" y="0" style="font-family:'ProductusOSGiBookc'; font-size:7.98;">2</tspan></text>
<text transform="matrix(1 0 0 1 212.6401 146.5674)"><tspan x="0" y="0" style="font-family:'ProductusOSGiBookc'; font-size:7.98;">.25.25.1</tspan><tspan x="21.833" y="0" style="font-family:'ProductusOSGiBookc'; font-size:7.98;">0</tspan><tspan x="25.791" y="0" style="font-family:'ProductusOSGiBookc'; font-size:7.98;">9</tspan><tspan x="29.51" y="0" style="font-family:'ProductusOSGiBookc'; font-size:7.98;">/</tspan><tspan x="31.672" y="0" style="font-family:'ProductusOSGiBookc'; font-size:7.98;">wsdls/24</tspan><tspan x="57.136" y="0" style="font-family:'ProductusOSGiBookc'; font-size:7.98;">.</tspan><tspan x="58.221" y="0" style="font-family:'ProductusOSGiBookc'; font-size:7.98;">wsdl</tspan></text>
<rect x="63.78" y="47.508" style="fill:#FFFFFF;" width="42.48" height="14.22"/>
<rect x="63.78" y="47.268" width="42.72" height="0.48"/>
<rect x="106.02" y="47.508" width="0.48" height="14.46"/>
<rect x="63.54" y="61.487" width="42.72" height="0.48"/>
<rect x="63.54" y="47.268" width="0.48" height="14.46"/>
<rect x="35.4" y="160.908" style="fill:#FFFFFF;" width="42.54" height="14.22"/>
<rect x="35.4" y="160.667" width="42.78" height="0.48"/>
<rect x="77.7" y="160.908" width="0.48" height="14.46"/>
<rect x="35.16" y="174.888" width="42.78" height="0.48"/>
<rect x="35.16" y="160.667" width="0.48" height="14.46"/>
<rect x="56.46" y="118.188" width="0.48" height="42.96"/>
<polyline style="fill-rule:evenodd;clip-rule:evenodd;fill:#FFFFFF;" points="49.62,203.448 56.7,189.288 63.78,203.448 "/>
<polyline points="49.44,203.328 56.52,189.167 56.7,188.748 56.94,189.167 64.2,203.688 63.78,203.688 63.6,203.567 56.52,189.408 
	56.94,189.167 56.94,189.408 49.86,203.567 "/>
<polyline points="63.78,203.688 49.26,203.688 49.44,203.328 49.62,203.208 63.78,203.208 "/>
<rect x="56.46" y="174.888" width="0.48" height="14.64"/>
<rect x="28.08" y="33.107" width="0.48" height="14.64"/>
<rect x="28.32" y="33.107" width="56.94" height="0.48"/>
<polyline points="85.26,33.348 85.26,47.508 84.78,47.508 85.26,47.508 84.78,47.508 84.78,33.348 "/>
<rect x="84.78" y="33.107" width="0.48" height="14.4"/>
<rect x="56.46" y="33.107" width="28.56" height="0.48"/>
<rect x="56.46" y="26.027" width="0.48" height="7.32"/>
<rect x="63.54" y="18.947" width="1.2" height="0.48"/>
<rect x="68.7" y="18.947" width="1.98" height="0.48"/>
<rect x="74.58" y="18.947" width="1.98" height="0.48"/>
<rect x="80.52" y="18.947" width="1.92" height="0.48"/>
<rect x="86.4" y="18.947" width="1.98" height="0.48"/>
<rect x="92.34" y="18.947" width="1.92" height="0.48"/>
<rect x="98.22" y="18.947" width="1.98" height="0.48"/>
<rect x="104.1" y="18.947" width="1.98" height="0.48"/>
<rect x="110.04" y="18.947" width="0.24" height="0.48"/>
<rect x="110.28" y="18.947" width="1.68" height="0.48"/>
<rect x="115.92" y="18.947" width="0.24" height="0.48"/>
<rect x="116.16" y="18.947" width="1.74" height="0.48"/>
<rect x="121.86" y="18.947" width="1.92" height="0.48"/>
<rect x="127.74" y="18.947" width="1.98" height="0.48"/>
<rect x="133.62" y="18.947" width="1.261" height="0.48"/>
<rect x="42.24" y="82.728" width="1.26" height="0.48"/>
<rect x="47.4" y="82.728" width="1.92" height="0.48"/>
<rect x="53.22" y="82.728" width="1.92" height="0.48"/>
<rect x="59.04" y="82.728" width="1.98" height="0.48"/>
<rect x="64.92" y="82.728" width="1.92" height="0.48"/>
<rect x="70.74" y="82.728" width="1.92" height="0.48"/>
<rect x="76.56" y="82.728" width="1.92" height="0.48"/>
<rect x="82.38" y="82.728" width="1.92" height="0.48"/>
<rect x="88.2" y="82.728" width="1.98" height="0.48"/>
<rect x="94.08" y="82.728" width="1.92" height="0.48"/>
<rect x="99.9" y="82.728" width="1.92" height="0.48"/>
<rect x="105.72" y="82.728" width="1.92" height="0.48"/>
<rect x="111.54" y="82.728" width="1.98" height="0.48"/>
<rect x="117.42" y="82.728" width="1.92" height="0.48"/>
<rect x="123.24" y="82.728" width="1.92" height="0.48"/>
<rect x="129.06" y="82.728" width="1.92" height="0.48"/>
<rect x="134.88" y="82.728" width="1.979" height="0.48"/>
<rect x="140.7" y="82.728" width="1.261" height="0.48"/>
<rect x="77.7" y="111.107" width="1.2" height="0.48"/>
<rect x="82.8" y="111.107" width="1.92" height="0.48"/>
<rect x="88.56" y="111.107" width="1.98" height="0.48"/>
<rect x="94.38" y="111.107" width="1.92" height="0.48"/>
<rect x="100.2" y="111.107" width="1.92" height="0.48"/>
<rect x="105.96" y="111.107" width="0.24" height="0.48"/>
<rect x="106.2" y="111.107" width="1.68" height="0.48"/>
<rect x="111.78" y="111.107" width="0.24" height="0.48"/>
<rect x="112.02" y="111.107" width="1.68" height="0.48"/>
<rect x="117.54" y="111.107" width="0.24" height="0.48"/>
<rect x="117.78" y="111.107" width="1.68" height="0.48"/>
<rect x="123.36" y="111.107" width="0.24" height="0.48"/>
<rect x="123.6" y="111.107" width="1.68" height="0.48"/>
<rect x="129.12" y="111.107" width="0.24" height="0.48"/>
<rect x="129.36" y="111.107" width="1.68" height="0.48"/>
<rect x="134.94" y="111.107" width="0.24" height="0.48"/>
<rect x="135.18" y="111.107" width="1.68" height="0.48"/>
<rect x="140.7" y="111.107" width="0.24" height="0.48"/>
<rect x="140.94" y="111.107" width="1.021" height="0.48"/>
<rect x="113.16" y="139.428" width="0.24" height="0.48"/>
<rect x="113.4" y="139.428" width="0.96" height="0.48"/>
<rect x="118.14" y="139.428" width="0.24" height="0.48"/>
<rect x="118.38" y="139.428" width="1.62" height="0.48"/>
<rect x="123.78" y="139.428" width="0.24" height="0.48"/>
<rect x="124.02" y="139.428" width="1.62" height="0.48"/>
<rect x="129.42" y="139.428" width="0.239" height="0.48"/>
<rect x="129.66" y="139.428" width="1.681" height="0.48"/>
<rect x="135.06" y="139.428" width="0.24" height="0.48"/>
<rect x="135.3" y="139.428" width="1.68" height="0.48"/>
<rect x="140.7" y="139.428" width="0.24" height="0.48"/>
<rect x="140.94" y="139.428" width="1.021" height="0.48"/>
<text transform="matrix(1 0 0 1 141.7202 188.3276)"><tspan x="0" y="0" style="font-family:'ProductusOSGiBookc'; font-size:7.98;">ser</tspan><tspan x="8.538" y="0" style="font-family:'ProductusOSGiBookc'; font-size:7.98;">v</tspan><tspan x="11.667" y="0" style="font-family:'ProductusOSGiBookc'; font-size:7.98;">ice.imp</tspan><tspan x="32.326" y="0" style="font-family:'ProductusOSGiBookc'; font-size:7.98;">o</tspan><tspan x="36.053" y="0" style="font-family:'ProductusOSGiBookc'; font-size:7.98;">r</tspan><tspan x="38.287" y="0" style="font-family:'ProductusOSGiBookc'; font-size:7.98;">t</tspan><tspan x="40.569" y="0" style="font-family:'ProductusOSGiBookc'; font-size:7.98;">ed</tspan><tspan x="47.735" y="0" style="font-family:'ProductusOSGiBookc'; font-size:7.98;">.</tspan><tspan x="49.235" y="0" style="font-family:'ProductusOSGiBookc'; font-size:7.98;">c</tspan><tspan x="52.3" y="0" style="font-family:'ProductusOSGiBookc'; font-size:7.98;">on</tspan><tspan x="59.737" y="0" style="font-family:'ProductusOSGiBookc'; font-size:7.98;">f</tspan><tspan x="61.66" y="0" style="font-family:'ProductusOSGiBookc'; font-size:7.98;">i</tspan><tspan x="63.169" y="0" style="font-family:'ProductusOSGiBookc'; font-size:7.98;">gs=</tspan><tspan x="73.263" y="0" style="font-family:'ProductusOSGiBookc'; font-size:7.98;">[</tspan><tspan x="75.545" y="0" style="font-family:'ProductusOSGiBookc'; font-size:7.98;">net.r</tspan><tspan x="88.855" y="0" style="font-family:'ProductusOSGiBookc'; font-size:7.98;">m</tspan><tspan x="94.562" y="0" style="font-family:'ProductusOSGiBookc'; font-size:7.98;">i</tspan><tspan x="96.109" y="0" style="font-family:'ProductusOSGiBookc'; font-size:7.98;">,</tspan><tspan x="97.617" y="0" style="font-family:'ProductusOSGiBookc'; font-size:7.98;">c</tspan><tspan x="100.697" y="0" style="font-family:'ProductusOSGiBookc'; font-size:7.98;">o</tspan><tspan x="104.424" y="0" style="font-family:'ProductusOSGiBookc'; font-size:7.98;">m.ac</tspan><tspan x="118.118" y="0" style="font-family:'ProductusOSGiBookc'; font-size:7.98;">m</tspan><tspan x="123.823" y="0" style="font-family:'ProductusOSGiBookc'; font-size:7.98;">e</tspan><tspan x="127.303" y="0" style="font-family:'ProductusOSGiBookc'; font-size:7.98;">.r</tspan><tspan x="131.117" y="0" style="font-family:'ProductusOSGiBookc'; font-size:7.98;">m</tspan><tspan x="136.822" y="0" style="font-family:'ProductusOSGiBookc'; font-size:7.98;">i</tspan><tspan x="138.379" y="0" style="font-family:'ProductusOSGiBookc'; font-size:7.98;">]</tspan></text>
<text transform="matrix(1 0 0 1 141.7202 198.0474)"><tspan x="0" y="0" style="font-family:'ProductusOSGiBookc'; font-size:7.98;">net.r</tspan><tspan x="13.271" y="0" style="font-family:'ProductusOSGiBookc'; font-size:7.98;">m</tspan><tspan x="18.977" y="0" style="font-family:'ProductusOSGiBookc'; font-size:7.98;">i</tspan><tspan x="20.517" y="0" style="font-family:'ProductusOSGiBookc'; font-size:7.98;">.</tspan><tspan x="22.017" y="0" style="font-family:'ProductusOSGiBookc'; font-size:7.98;">url=r</tspan><tspan x="35.462" y="0" style="font-family:'ProductusOSGiBookc'; font-size:7.98;">m</tspan><tspan x="41.168" y="0" style="font-family:'ProductusOSGiBookc'; font-size:7.98;">i://1</tspan><tspan x="52.076" y="0" style="font-family:'ProductusOSGiBookc'; font-size:7.98;">7</tspan><tspan x="55.5" y="0" style="font-family:'ProductusOSGiBookc'; font-size:7.98;">2</tspan><tspan x="59.154" y="0" style="font-family:'ProductusOSGiBookc'; font-size:7.98;">.25.2</tspan><tspan x="72.936" y="0" style="font-family:'ProductusOSGiBookc'; font-size:7.98;">5</tspan></text>
<text transform="matrix(1 0 0 1 218.1001 198.0474)"><tspan x="0" y="0" style="font-family:'ProductusOSGiBookc'; font-size:7.98;">.109</tspan><tspan x="12.312" y="0" style="font-family:'ProductusOSGiBookc'; font-size:7.98;">:</tspan><tspan x="13.933" y="0" style="font-family:'ProductusOSGiBookc'; font-size:7.98;">1099</tspan><tspan x="28.4" y="0" style="font-family:'ProductusOSGiBookc'; font-size:7.98;">/</tspan><tspan x="30.443" y="0" style="font-family:'ProductusOSGiBookc'; font-size:7.98;">s</tspan><tspan x="33.204" y="0" style="font-family:'ProductusOSGiBookc'; font-size:7.98;">e</tspan><tspan x="36.684" y="0" style="font-family:'ProductusOSGiBookc'; font-size:7.98;">rvice-id/24</tspan></text>
<rect x="63.54" y="196.127" width="0.24" height="0.48"/>
<rect x="63.78" y="196.127" width="0.96" height="0.48"/>
<rect x="68.76" y="196.127" width="0.24" height="0.48"/>
<rect x="69" y="196.127" width="1.74" height="0.48"/>
<rect x="74.76" y="196.127" width="0.24" height="0.48"/>
<rect x="75" y="196.127" width="1.74" height="0.48"/>
<rect x="80.76" y="196.127" width="0.24" height="0.48"/>
<rect x="81" y="196.127" width="1.74" height="0.48"/>
<rect x="86.76" y="196.127" width="0.24" height="0.48"/>
<rect x="87" y="196.127" width="1.74" height="0.48"/>
<rect x="92.76" y="196.127" width="0.24" height="0.48"/>
<rect x="93" y="196.127" width="1.74" height="0.48"/>
<rect x="98.76" y="196.127" width="0.24" height="0.48"/>
<rect x="99" y="196.127" width="1.74" height="0.48"/>
<rect x="104.76" y="196.127" width="0.24" height="0.48"/>
<rect x="105" y="196.127" width="1.74" height="0.48"/>
<rect x="110.76" y="196.127" width="0.24" height="0.48"/>
<rect x="111" y="196.127" width="1.74" height="0.48"/>
<rect x="116.76" y="196.127" width="0.24" height="0.48"/>
<rect x="117" y="196.127" width="1.74" height="0.48"/>
<rect x="122.76" y="196.127" width="0.24" height="0.48"/>
<rect x="123" y="196.127" width="1.739" height="0.48"/>
<rect x="128.76" y="196.127" width="0.24" height="0.48"/>
<rect x="129" y="196.127" width="1.739" height="0.48"/>
<rect x="134.76" y="196.127" width="0.24" height="0.48"/>
<rect x="135" y="196.127" width="1.739" height="0.48"/>
<rect x="140.7" y="196.127" width="0.24" height="0.48"/>
<rect x="140.94" y="196.127" width="1.021" height="0.48"/>
<text transform="matrix(1 0 0 1 141.7202 207.7075)"><tspan x="0" y="0" style="font-family:'ProductusOSGiBookc'; font-size:7.98;">c</tspan><tspan x="3.064" y="0" style="font-family:'ProductusOSGiBookc'; font-size:7.98;">o</tspan><tspan x="6.814" y="0" style="font-family:'ProductusOSGiBookc'; font-size:7.98;">m</tspan><tspan x="12.568" y="0" style="font-family:'ProductusOSGiBookc'; font-size:7.98;">.</tspan><tspan x="14.133" y="0" style="font-family:'ProductusOSGiBookc'; font-size:7.98;">a</tspan><tspan x="17.404" y="0" style="font-family:'ProductusOSGiBookc'; font-size:7.98;">c</tspan><tspan x="20.524" y="0" style="font-family:'ProductusOSGiBookc'; font-size:7.98;">m</tspan><tspan x="26.238" y="0" style="font-family:'ProductusOSGiBookc'; font-size:7.98;">e</tspan><tspan x="29.709" y="0" style="font-family:'ProductusOSGiBookc'; font-size:7.98;">.r</tspan><tspan x="33.476" y="0" style="font-family:'ProductusOSGiBookc'; font-size:7.98;">m</tspan><tspan x="39.229" y="0" style="font-family:'ProductusOSGiBookc'; font-size:7.98;">i</tspan><tspan x="40.737" y="0" style="font-family:'ProductusOSGiBookc'; font-size:7.98;">.</tspan><tspan x="42.35" y="0" style="font-family:'ProductusOSGiBookc'; font-size:7.98;">*=.</tspan><tspan x="51.726" y="0" style="font-family:'ProductusOSGiBookc'; font-size:7.98;">.</tspan><tspan x="53.281" y="0" style="font-family:'ProductusOSGiBookc'; font-size:7.98;">.</tspan></text>
<text transform="matrix(1 0 0 1 26.1602 57.0474)"><tspan x="0" y="0" style="font-family:'ProductusSemibold'; font-size:7.98; letter-spacing:52;">B</tspan><tspan x="56.339" y="0" style="font-family:'ProductusSemibold'; font-size:7.98;">A</tspan></text>
<text transform="matrix(1 0 0 1 21.3003 84.8276)"><tspan x="0" y="0" style="font-family:'ProductusOSGiBookc'; font-size:7.98;">s</tspan><tspan x="2.761" y="0" style="font-family:'ProductusOSGiBookc'; font-size:7.98;">m</tspan><tspan x="8.515" y="0" style="font-family:'ProductusOSGiBookc'; font-size:7.98;">a</tspan><tspan x="11.81" y="0" style="font-family:'ProductusOSGiBookc'; font-size:7.98;">rt</tspan></text>
<text transform="matrix(1 0 0 1 60 113.8677)"><tspan x="0" y="0" style="font-family:'ProductusOSGiBookc'; font-size:7.98;">rm</tspan><tspan x="7.972" y="0" style="font-family:'ProductusOSGiBookc'; font-size:7.98;">i</tspan></text>
<text transform="matrix(1 0 0 1 93.4204 142.2476)"><tspan x="0" y="0" style="font-family:'ProductusOSGiBookc'; font-size:7.98;">soa</tspan><tspan x="9.887" y="0" style="font-family:'ProductusOSGiBookc'; font-size:7.98;">p</tspan></text>
<text transform="matrix(1 0 0 1 54.1802 169.9077)" style="font-family:'ProductusSemibold'; font-size:7.98;">A</text>
</svg>
