<?xml version="1.0" encoding="UTF-8" standalone="no"?>
<!DOCTYPE svg PUBLIC "-//W3C//DTD SVG 1.1//EN"
 "http://www.w3.org/Graphics/SVG/1.1/DTD/svg11.dtd">
<!-- Generated by graphviz version 2.36.0 (20140111.2315)
 -->
<!-- Title: Device_Status_Transitions Pages: 1 -->
<svg width="576pt" height="411pt"
 viewBox="0.00 0.00 576.00 411.25" xmlns="http://www.w3.org/2000/svg" xmlns:xlink="http://www.w3.org/1999/xlink">
<g id="graph0" class="graph" transform="scale(0.783422 0.783422) rotate(0) translate(4 520.942)">
<title>Device_Status_Transitions</title>
<polygon fill="white" stroke="none" points="-4,4 -4,-520.942 731.236,-520.942 731.236,4 -4,4"/>
<!-- ENTRY -->
<g id="node1" class="node"><title>ENTRY</title>
<ellipse fill="black" stroke="black" cx="1.8" cy="-258.471" rx="1.8" ry="1.8"/>
</g>
<!-- STATUS_PROCESSING -->
<g id="node2" class="node"><title>STATUS_PROCESSING</title>
<ellipse fill="none" stroke="black" stroke-width="2" cx="167.357" cy="-258.471" rx="102.082" ry="18"/>
<text text-anchor="middle" x="167.357" y="-254.771" font-family="Times,serif" font-size="14.00">STATUS_PROCESSING</text>
</g>
<!-- ENTRY&#45;&gt;STATUS_PROCESSING -->
<g id="edge1" class="edge"><title>ENTRY&#45;&gt;STATUS_PROCESSING</title>
<path fill="none" stroke="black" d="M3.65928,-258.471C9.80614,-258.471 30.4944,-258.471 55.1934,-258.471"/>
<polygon fill="black" stroke="black" points="55.2168,-261.971 65.2167,-258.471 55.2167,-254.971 55.2168,-261.971"/>
</g>
<!-- STATUS_REMOVED -->
<g id="node4" class="node"><title>STATUS_REMOVED</title>
<ellipse fill="none" stroke="black" stroke-width="2" cx="503.907" cy="-498.942" rx="92.0841" ry="18"/>
<text text-anchor="middle" x="503.907" y="-495.242" font-family="Times,serif" font-size="14.00">STATUS_REMOVED</text>
</g>
<!-- STATUS_PROCESSING&#45;&gt;STATUS_REMOVED -->
<g id="edge9" class="edge"><title>STATUS_PROCESSING&#45;&gt;STATUS_REMOVED</title>
<path fill="none" stroke="black" d="M191.832,-275.959C251.329,-318.471 403.595,-427.267 470.977,-475.413"/>
<polygon fill="black" stroke="black" points="469.353,-478.554 479.524,-481.52 473.422,-472.858 469.353,-478.554"/>
</g>
<!-- STATUS_NOT_CONFIGURED -->
<g id="node5" class="node"><title>STATUS_NOT_CONFIGURED</title>
<ellipse fill="none" stroke="black" cx="503.907" cy="-18" rx="127.277" ry="18"/>
<text text-anchor="middle" x="503.907" y="-14.3" font-family="Times,serif" font-size="14.00">STATUS_NOT_CONFIGURED</text>
</g>
<!-- STATUS_PROCESSING&#45;&gt;STATUS_NOT_CONFIGURED -->
<g id="edge11" class="edge"><title>STATUS_PROCESSING&#45;&gt;STATUS_NOT_CONFIGURED</title>
<path fill="none" stroke="black" d="M200.368,-234.884C264.764,-188.872 406.462,-87.6261 470.874,-41.6024"/>
<polygon fill="black" stroke="black" points="197.933,-232.322 191.832,-240.983 202.003,-238.017 197.933,-232.322"/>
<polygon fill="black" stroke="black" points="472.967,-44.4087 479.069,-35.7472 468.898,-38.7131 472.967,-44.4087"/>
</g>
<!-- STATUS_NOT_INITIALIZED -->
<g id="node7" class="node"><title>STATUS_NOT_INITIALIZED</title>
<ellipse fill="none" stroke="black" cx="226.235" cy="-498.942" rx="122.678" ry="18"/>
<text text-anchor="middle" x="226.235" y="-495.242" font-family="Times,serif" font-size="14.00">STATUS_NOT_INITIALIZED</text>
</g>
<!-- STATUS_PROCESSING&#45;&gt;STATUS_NOT_INITIALIZED -->
<g id="edge10" class="edge"><title>STATUS_PROCESSING&#45;&gt;STATUS_NOT_INITIALIZED</title>
<path fill="none" stroke="black" d="M174.173,-286.311C185.47,-332.45 207.951,-424.266 219.316,-470.681"/>
<polygon fill="black" stroke="black" points="177.56,-285.426 171.782,-276.545 170.761,-287.091 177.56,-285.426"/>
<polygon fill="black" stroke="black" points="215.98,-471.777 221.758,-480.658 222.78,-470.112 215.98,-471.777"/>
</g>
<!-- STATUS_OFFLINE -->
<g id="node3" class="node"><title>STATUS_OFFLINE</title>
<ellipse fill="none" stroke="black" cx="642.743" cy="-258.471" rx="84.485" ry="18"/>
<text text-anchor="middle" x="642.743" y="-254.771" font-family="Times,serif" font-size="14.00">STATUS_OFFLINE</text>
</g>
<!-- STATUS_OFFLINE&#45;&gt;STATUS_PROCESSING -->
<g id="edge3" class="edge"><title>STATUS_OFFLINE&#45;&gt;STATUS_PROCESSING</title>
<path fill="none" stroke="black" d="M547.89,-258.471C470.658,-258.471 361.445,-258.471 279.815,-258.471"/>
<polygon fill="black" stroke="black" points="548.028,-261.971 558.028,-258.471 548.028,-254.971 548.028,-261.971"/>
<polygon fill="black" stroke="black" points="279.497,-254.971 269.497,-258.471 279.497,-261.971 279.497,-254.971"/>
</g>
<!-- STATUS_OFFLINE&#45;&gt;STATUS_REMOVED -->
<g id="edge2" class="edge"><title>STATUS_OFFLINE&#45;&gt;STATUS_REMOVED</title>
<path fill="none" stroke="black" d="M632.308,-276.545C608.077,-318.514 547.9,-422.743 519.377,-472.148"/>
<polygon fill="black" stroke="black" points="516.243,-470.576 514.274,-480.986 522.305,-474.076 516.243,-470.576"/>
</g>
<!-- STATUS_OFFLINE&#45;&gt;STATUS_NOT_CONFIGURED -->
<g id="edge4" class="edge"><title>STATUS_OFFLINE&#45;&gt;STATUS_NOT_CONFIGURED</title>
<path fill="none" stroke="black" d="M627.193,-231.537C600.452,-185.221 546.063,-91.0154 519.377,-44.7945"/>
<polygon fill="black" stroke="black" points="624.277,-233.486 632.308,-240.397 630.339,-229.986 624.277,-233.486"/>
<polygon fill="black" stroke="black" points="522.305,-42.8664 514.274,-35.9561 516.243,-46.3664 522.305,-42.8664"/>
</g>
<!-- STATUS_ONLINE -->
<g id="node6" class="node"><title>STATUS_ONLINE</title>
<ellipse fill="none" stroke="black" cx="226.235" cy="-18" rx="81.4863" ry="18"/>
<text text-anchor="middle" x="226.235" y="-14.3" font-family="Times,serif" font-size="14.00">STATUS_ONLINE</text>
</g>
<!-- STATUS_OFFLINE&#45;&gt;STATUS_ONLINE -->
<g id="edge5" class="edge"><title>STATUS_OFFLINE&#45;&gt;STATUS_ONLINE</title>
<path fill="none" stroke="black" d="M604.674,-236.492C525.386,-190.715 343.351,-85.6167 264.175,-39.9045"/>
<polygon fill="black" stroke="black" points="603.045,-239.593 613.455,-241.562 606.545,-233.53 603.045,-239.593"/>
<polygon fill="black" stroke="black" points="265.901,-36.8597 255.491,-34.8908 262.401,-42.9219 265.901,-36.8597"/>
</g>
<!-- STATUS_NOT_CONFIGURED&#45;&gt;STATUS_REMOVED -->
<g id="edge14" class="edge"><title>STATUS_NOT_CONFIGURED&#45;&gt;STATUS_REMOVED</title>
<path fill="none" stroke="black" d="M503.907,-36.2662C503.907,-109.481 503.907,-382.017 503.907,-470.793"/>
<polygon fill="black" stroke="black" points="500.407,-470.914 503.907,-480.914 507.407,-470.914 500.407,-470.914"/>
</g>
<!-- STATUS_ONLINE&#45;&gt;STATUS_PROCESSING -->
<g id="edge8" class="edge"><title>STATUS_ONLINE&#45;&gt;STATUS_PROCESSING</title>
<path fill="none" stroke="black" d="M219.419,-45.8402C208.122,-91.9786 185.641,-183.795 174.276,-230.21"/>
<polygon fill="black" stroke="black" points="222.831,-46.6199 221.81,-36.0744 216.032,-44.9551 222.831,-46.6199"/>
<polygon fill="black" stroke="black" points="170.812,-229.641 171.833,-240.187 177.611,-231.306 170.812,-229.641"/>
</g>
<!-- STATUS_ONLINE&#45;&gt;STATUS_REMOVED -->
<g id="edge6" class="edge"><title>STATUS_ONLINE&#45;&gt;STATUS_REMOVED</title>
<path fill="none" stroke="black" d="M236.613,-35.9757C278.838,-109.111 437.87,-384.562 488.397,-472.077"/>
<polygon fill="black" stroke="black" points="485.446,-473.966 493.477,-480.876 491.508,-470.466 485.446,-473.966"/>
</g>
<!-- STATUS_ONLINE&#45;&gt;STATUS_NOT_CONFIGURED -->
<g id="edge7" class="edge"><title>STATUS_ONLINE&#45;&gt;STATUS_NOT_CONFIGURED</title>
<path fill="none" stroke="black" d="M317.912,-18C333.394,-18 349.763,-18 366.113,-18"/>
<polygon fill="black" stroke="black" points="317.67,-14.5001 307.67,-18 317.67,-21.5001 317.67,-14.5001"/>
<polygon fill="black" stroke="black" points="366.283,-21.5001 376.283,-18 366.283,-14.5001 366.283,-21.5001"/>
</g>
<!-- STATUS_NOT_INITIALIZED&#45;&gt;STATUS_OFFLINE -->
<g id="edge13" class="edge"><title>STATUS_NOT_INITIALIZED&#45;&gt;STATUS_OFFLINE</title>
<path fill="none" stroke="black" d="M256.525,-481.454C330.879,-438.526 522.301,-328.008 604.41,-280.603"/>
<polygon fill="black" stroke="black" points="606.493,-283.442 613.403,-275.411 602.993,-277.379 606.493,-283.442"/>
</g>
<!-- STATUS_NOT_INITIALIZED&#45;&gt;STATUS_REMOVED -->
<g id="edge12" class="edge"><title>STATUS_NOT_INITIALIZED&#45;&gt;STATUS_REMOVED</title>
<path fill="none" stroke="black" d="M349.239,-498.942C366.538,-498.942 384.168,-498.942 401.038,-498.942"/>
<polygon fill="black" stroke="black" points="401.434,-502.442 411.434,-498.942 401.434,-495.442 401.434,-502.442"/>
</g>
</g>
</svg>
