<?xml version="1.0" encoding="UTF-8" standalone="no"?>
<!DOCTYPE svg PUBLIC "-//W3C//DTD SVG 1.1//EN"
 "http://www.w3.org/Graphics/SVG/1.1/DTD/svg11.dtd">
<!-- Generated by graphviz version 2.36.0 (20140111.2315)
 -->
<!-- Title: Device_Status_Transitions Pages: 1 -->
<svg width="576pt" height="284pt"
 viewBox="0.00 0.00 576.00 283.60" xmlns="http://www.w3.org/2000/svg" xmlns:xlink="http://www.w3.org/1999/xlink">
<g id="graph0" class="graph" transform="scale(0.636648 0.636648) rotate(0) translate(4 441.457)">
<title>Device_Status_Transitions</title>
<polygon fill="white" stroke="none" points="-4,4 -4,-441.457 900.739,-441.457 900.739,4 -4,4"/>
<!-- STATUS_OFFLINE -->
<g id="node1" class="node"><title>STATUS_OFFLINE</title>
<ellipse fill="none" stroke="black" cx="84.4925" cy="-216.602" rx="84.485" ry="18"/>
<text text-anchor="middle" x="84.4925" y="-212.902" font-family="ProductusSemibold" font-size="14.00">STATUS_OFFLINE</text>
</g>
<!-- STATUS_PROCESSING -->
<g id="node2" class="node"><title>STATUS_PROCESSING</title>
<ellipse fill="none" stroke="black" cx="597.803" cy="-216.602" rx="102.082" ry="18"/>
<text text-anchor="middle" x="597.803" y="-212.902" font-family="ProductusSemibold" font-size="14.00">STATUS_PROCESSING</text>
</g>
<!-- STATUS_OFFLINE&#45;&gt;STATUS_PROCESSING -->
<g id="edge1" class="edge"><title>STATUS_OFFLINE&#45;&gt;STATUS_PROCESSING</title>
<path fill="none" stroke="black" d="M179.434,-216.602C265.986,-216.602 393.94,-216.602 485.532,-216.602"/>
<polygon fill="black" stroke="black" points="179.255,-213.102 169.255,-216.602 179.255,-220.102 179.255,-213.102"/>
<polygon fill="black" stroke="black" points="485.675,-220.102 495.675,-216.602 485.675,-213.102 485.675,-220.102"/>
</g>
<!-- STATUS_REMOVED -->
<g id="node4" class="node"><title>STATUS_REMOVED</title>
<ellipse fill="none" stroke="black" cx="397.06" cy="-42.9505" rx="92.0841" ry="18"/>
<text text-anchor="middle" x="397.06" y="-39.2505" font-family="ProductusSemibold" font-size="14.00">STATUS_REMOVED</text>
</g>
<!-- STATUS_PROCESSING&#45;&gt;STATUS_REMOVED -->
<g id="edge3" class="edge"><title>STATUS_PROCESSING&#45;&gt;STATUS_REMOVED</title>
<path fill="none" stroke="black" d="M577.076,-198.673C540.826,-167.314 465.891,-102.492 425.064,-67.1755"/>
<polygon fill="black" stroke="black" points="427.228,-64.4194 417.375,-60.5241 422.648,-69.7135 427.228,-64.4194"/>
</g>
<!-- STATUS_NOT_INITIALIZED -->
<g id="node5" class="node"><title>STATUS_NOT_INITIALIZED</title>
<ellipse fill="none" stroke="black" cx="773.9" cy="-18" rx="122.678" ry="18"/>
<text text-anchor="middle" x="773.9" y="-14.3" font-family="ProductusSemibold" font-size="14.00">STATUS_NOT_INITIALIZED</text>
</g>
<!-- STATUS_PROCESSING&#45;&gt;STATUS_NOT_INITIALIZED -->
<g id="edge4" class="edge"><title>STATUS_PROCESSING&#45;&gt;STATUS_NOT_INITIALIZED</title>
<path fill="none" stroke="black" d="M620.503,-191.002C654.258,-152.933 717.325,-81.8056 751.124,-43.6868"/>
<polygon fill="black" stroke="black" points="617.757,-188.823 613.741,-198.627 622.995,-193.467 617.757,-188.823"/>
<polygon fill="black" stroke="black" points="753.855,-45.8818 757.871,-36.0774 748.618,-41.2377 753.855,-45.8818"/>
</g>
<!-- STATUS_NOT_CONFIGURED -->
<g id="node6" class="node"><title>STATUS_NOT_CONFIGURED</title>
<ellipse fill="none" stroke="black" cx="768.985" cy="-419.457" rx="127.277" ry="18"/>
<text text-anchor="middle" x="768.985" y="-415.757" font-family="ProductusSemibold" font-size="14.00">STATUS_NOT_CONFIGURED</text>
</g>
<!-- STATUS_PROCESSING&#45;&gt;STATUS_NOT_CONFIGURED -->
<g id="edge5" class="edge"><title>STATUS_PROCESSING&#45;&gt;STATUS_NOT_CONFIGURED</title>
<path fill="none" stroke="black" d="M619.573,-242.4C652.457,-281.369 714.437,-354.817 747.282,-393.739"/>
<polygon fill="black" stroke="black" points="622.119,-239.99 612.995,-234.604 616.769,-244.504 622.119,-239.99"/>
<polygon fill="black" stroke="black" points="744.703,-396.11 753.827,-401.495 750.053,-391.595 744.703,-396.11"/>
</g>
<!-- STATUS_ONLINE -->
<g id="node3" class="node"><title>STATUS_ONLINE</title>
<ellipse fill="none" stroke="black" cx="397.06" cy="-390.254" rx="81.4863" ry="18"/>
<text text-anchor="middle" x="397.06" y="-386.554" font-family="ProductusSemibold" font-size="14.00">STATUS_ONLINE</text>
</g>
<!-- STATUS_ONLINE&#45;&gt;STATUS_PROCESSING -->
<g id="edge2" class="edge"><title>STATUS_ONLINE&#45;&gt;STATUS_PROCESSING</title>
<path fill="none" stroke="black" d="M425.127,-365.975C463.368,-332.894 531.45,-274.001 569.707,-240.907"/>
<polygon fill="black" stroke="black" points="422.686,-363.459 417.413,-372.648 427.266,-368.753 422.686,-363.459"/>
<polygon fill="black" stroke="black" points="572.123,-243.445 577.396,-234.255 567.544,-238.151 572.123,-243.445"/>
</g>
</g>
</svg>
