<?xml version="1.0" encoding="UTF-8" standalone="no"?>
<!-- Generated by graphviz version 2.36.0 (20140111.2315)
 -->

<!-- Title: Device_Status_Transitions Pages: 1 -->

<svg
   xmlns:dc="http://purl.org/dc/elements/1.1/"
   xmlns:cc="http://creativecommons.org/ns#"
   xmlns:rdf="http://www.w3.org/1999/02/22-rdf-syntax-ns#"
   xmlns:svg="http://www.w3.org/2000/svg"
   xmlns="http://www.w3.org/2000/svg"
   xmlns:sodipodi="http://sodipodi.sourceforge.net/DTD/sodipodi-0.dtd"
   xmlns:inkscape="http://www.inkscape.org/namespaces/inkscape"
   width="714.26648"
   height="285.95047"
   viewBox="0 0 571.41318 228.9124"
   id="svg2"
   version="1.1"
   inkscape:version="0.48.4 r9939"
   sodipodi:docname="service.dal.status.transitions.not.configured.svg">
  <metadata
     id="metadata82">
    <rdf:RDF>
      <cc:Work
         rdf:about="">
        <dc:format>image/svg+xml</dc:format>
        <dc:type
           rdf:resource="http://purl.org/dc/dcmitype/StillImage" />
      </cc:Work>
    </rdf:RDF>
  </metadata>
  <defs
     id="defs80">
    <marker
       inkscape:stockid="Arrow2Lend"
       orient="auto"
       refY="0"
       refX="0"
       id="Arrow2Lend"
       style="overflow:visible">
      <path
         id="path3916"
         style="fill-rule:evenodd;stroke-width:0.625;stroke-linejoin:round"
         d="M 8.7185878,4.0337352 -2.2072895,0.01601326 8.7185884,-4.0017078 c -1.7454984,2.3720609 -1.7354408,5.6174519 -6e-7,8.035443 z"
         transform="matrix(-1.1,0,0,-1.1,-1.1,0)"
         inkscape:connector-curvature="0" />
    </marker>
    <marker
       inkscape:stockid="TriangleInL"
       orient="auto"
       refY="0"
       refX="0"
       id="TriangleInL"
       style="overflow:visible">
      <path
         id="path4028"
         d="m 5.77,0 -8.65,5 0,-10 8.65,5 z"
         style="fill-rule:evenodd;stroke:#000000;stroke-width:1pt"
         transform="scale(-0.8,-0.8)"
         inkscape:connector-curvature="0" />
    </marker>
    <marker
       inkscape:stockid="Arrow2Lstart"
       orient="auto"
       refY="0"
       refX="0"
       id="Arrow2Lstart"
       style="overflow:visible">
      <path
         id="path3913"
         style="fill-rule:evenodd;stroke-width:0.625;stroke-linejoin:round"
         d="M 8.7185878,4.0337352 -2.2072895,0.01601326 8.7185884,-4.0017078 c -1.7454984,2.3720609 -1.7354408,5.6174519 -6e-7,8.035443 z"
         transform="matrix(1.1,0,0,1.1,1.1,0)"
         inkscape:connector-curvature="0" />
    </marker>
    <marker
       inkscape:stockid="Arrow1Lstart"
       orient="auto"
       refY="0"
       refX="0"
       id="Arrow1Lstart"
       style="overflow:visible">
      <path
         id="path3895"
         d="M 0,0 5,-5 -12.5,0 5,5 0,0 z"
         style="fill-rule:evenodd;stroke:#000000;stroke-width:1pt"
         transform="matrix(0.8,0,0,0.8,10,0)"
         inkscape:connector-curvature="0" />
    </marker>
  </defs>
  <sodipodi:namedview
     pagecolor="#ffffff"
     bordercolor="#666666"
     borderopacity="1"
     objecttolerance="10"
     gridtolerance="10"
     guidetolerance="10"
     inkscape:pageopacity="0"
     inkscape:pageshadow="2"
     inkscape:window-width="1366"
     inkscape:window-height="711"
     id="namedview78"
     showgrid="false"
     fit-margin-top="0"
     fit-margin-left="0"
     fit-margin-right="0"
     fit-margin-bottom="0"
     inkscape:zoom="1.5833333"
     inkscape:cx="380.632"
     inkscape:cy="137.98065"
     inkscape:window-x="-4"
     inkscape:window-y="-3"
     inkscape:window-maximized="1"
     inkscape:current-layer="svg2" />
  <g
     class="node"
     id="node1"
     transform="matrix(0.621303,0,0,0.621303,0.12078174,270.83054)">
    <title
       id="title10">STATUS_OFFLINE</title>
    <ellipse
       style="fill:none;stroke:#000000"
       sodipodi:ry="18"
       sodipodi:rx="84.485001"
       sodipodi:cy="-250.47701"
       sodipodi:cx="84.4925"
       d="m 168.9775,-250.47701 c 0,9.94113 -37.82522,18 -84.485,18 -46.659777,0 -84.48500031,-8.05887 -84.48500031,-18 0,-9.94112 37.82522331,-18 84.48500031,-18 46.65978,0 84.485,8.05888 84.485,18 z"
       id="ellipse12"
       ry="18"
       rx="84.485001"
       cy="-250.47701"
       cx="84.4925" />
    <text
       style="font-size:14px;text-anchor:middle;font-family:'ProductusSemibold'"
       id="text14"
       font-size="14.00"
       y="-246.77699"
       x="84.4925">STATUS_OFFLINE</text>
  </g>
  <g
     class="node"
     id="node2"
     transform="matrix(0.621303,0,0,0.621303,-61.463986,270.83054)">
    <title
       id="title17">STATUS_NOT_CONFIGURED</title>
    <ellipse
       style="fill:none;stroke:#000000"
       sodipodi:ry="18"
       sodipodi:rx="127.277"
       sodipodi:cy="-250.47701"
       sodipodi:cx="572.45599"
       d="m 699.73299,-250.47701 c 0,9.94113 -56.98385,18 -127.277,18 -70.29314,0 -127.277,-8.05887 -127.277,-18 0,-9.94112 56.98386,-18 127.277,-18 70.29315,0 127.277,8.05888 127.277,18 z"
       id="ellipse19"
       ry="18"
       rx="127.277"
       cy="-250.47701"
       cx="572.45599" />
    <text
       style="font-size:14px;text-anchor:middle;font-family:'ProductusSemibold'"
       id="text21"
       font-size="14.00"
       y="-246.77699"
       x="572.45599">STATUS_NOT_CONFIGURED</text>
  </g>
  <g
     class="node"
     id="node5"
     transform="matrix(0.621303,0,0,0.621303,17.404921,228.60174)">
    <title
       id="title33">STATUS_REMOVED</title>
    <ellipse
       style="fill:none;stroke:#000000"
       sodipodi:ry="18"
       sodipodi:rx="92.084099"
       sodipodi:cy="-18"
       sodipodi:cx="444.36401"
       d="m 536.44811,-18 c 0,9.9411255 -41.22745,18 -92.0841,18 -50.85664,0 -92.0841,-8.0588745 -92.0841,-18 0,-9.941125 41.22746,-18 92.0841,-18 50.85665,0 92.0841,8.058875 92.0841,18 z"
       id="ellipse35"
       ry="18"
       rx="92.084099"
       cy="-18"
       cx="444.36401" />
    <text
       style="font-size:14px;text-anchor:middle;font-family:'ProductusSemibold'"
       id="text37"
       font-size="14.00"
       y="-14.3"
       x="444.36401">STATUS_REMOVED</text>
  </g>
  <g
     class="node"
     id="node3"
     transform="matrix(0.621303,0,0,0.621303,0.12078174,267.80169)">
    <title
       id="title47">STATUS_ONLINE</title>
    <ellipse
       style="fill:none;stroke:#000000"
       sodipodi:ry="18"
       sodipodi:rx="81.486298"
       sodipodi:cy="-245.60201"
       sodipodi:cx="837.84003"
       d="m 919.32632,-245.60201 c 0,9.94113 -36.48265,18 -81.48629,18 -45.00364,0 -81.4863,-8.05887 -81.4863,-18 0,-9.94112 36.48266,-18 81.4863,-18 45.00364,0 81.48629,8.05888 81.48629,18 z"
       id="ellipse49"
       ry="18"
       rx="81.486298"
       cy="-245.60201"
       cx="837.84003" />
    <text
       style="font-size:14px;text-anchor:middle;font-family:'ProductusSemibold'"
       id="text51"
       font-size="14.00"
       y="-241.90199"
       x="837.84003">STATUS_ONLINE</text>
  </g>
  <g
     class="node"
     id="node4"
     transform="matrix(0.621303,0,0,0.621303,18.834971,311.54462)">
    <title
       id="title63">STATUS_PROCESSING</title>
    <ellipse
       style="fill:none;stroke:#000000"
       sodipodi:ry="18"
       sodipodi:rx="102.082"
       sodipodi:cy="-482.953"
       sodipodi:cx="444.36401"
       d="m 546.44601,-482.953 c 0,9.94112 -45.70366,18 -102.082,18 -56.37833,0 -102.082,-8.05888 -102.082,-18 0,-9.94113 45.70367,-18 102.082,-18 56.37834,0 102.082,8.05887 102.082,18 z"
       id="ellipse65"
       ry="18"
       rx="102.082"
       cy="-482.953"
       cx="444.36401" />
    <text
       style="font-size:14px;text-anchor:middle;font-family:'ProductusSemibold'"
       id="text67"
       font-size="14.00"
       y="-479.25299"
       x="444.36401">STATUS_PROCESSING</text>
  </g>
  <path
     style="fill:none;stroke:#000000;stroke-width:0.80053163;stroke-linecap:butt;stroke-linejoin:miter;stroke-miterlimit:4;stroke-opacity:1;stroke-dasharray:none;marker-start:url(#Arrow2Lstart);marker-end:url(#Arrow2Lend)"
     d="m 374.50837,115.96394 95.3852,-0.35785"
     id="path4517"
     inkscape:connector-type="polyline"
     inkscape:connector-curvature="0" />
  <path
     style="fill:none;stroke:#000000;stroke-width:0.80053163;stroke-linecap:butt;stroke-linejoin:miter;stroke-miterlimit:4;stroke-opacity:1;stroke-dasharray:none;marker-end:url(#Arrow2Lend)"
     d="m 295.4218,126.42433 0.39145,79.05091"
     id="path6385"
     inkscape:connector-type="polyline"
     inkscape:connector-curvature="0" />
  <path
     style="fill:none;stroke:#000000;stroke-width:0.80053163;stroke-linecap:butt;stroke-linejoin:miter;stroke-miterlimit:4;stroke-opacity:1;stroke-dasharray:none;marker-start:url(#Arrow2Lstart);marker-end:url(#Arrow2Lend)"
     d="m 106.45026,114.95812 107.32719,0.58156"
     id="path6575"
     inkscape:connector-type="polyline"
     inkscape:connector-curvature="0" />
  <path
     style="fill:none;stroke:#000000;stroke-width:0.80053163;stroke-linecap:butt;stroke-linejoin:miter;stroke-miterlimit:4;stroke-opacity:1;stroke-dasharray:none;marker-start:url(#Arrow2Lstart);marker-end:url(#Arrow2Lend)"
     d="M 294.19428,103.38286 292.73771,23.436343"
     id="path6953"
     inkscape:connector-type="polyline"
     inkscape:connector-curvature="0" />
</svg>
