<?xml version="1.0" encoding="UTF-8" standalone="no"?>
<!DOCTYPE svg PUBLIC "-//W3C//DTD SVG 1.1//EN"
 "http://www.w3.org/Graphics/SVG/1.1/DTD/svg11.dtd">
<!-- Generated by graphviz version 2.36.0 (20140111.2315)
 -->
<!-- Title: Device_Status_Transitions Pages: 1 -->
<svg width="576pt" height="435pt"
 viewBox="0.00 0.00 576.00 434.61" xmlns="http://www.w3.org/2000/svg" xmlns:xlink="http://www.w3.org/1999/xlink">
<g id="graph0" class="graph" transform="scale(0.849658 0.849658) rotate(0) translate(4 507.512)">
<title>Device_Status_Transitions</title>
<polygon fill="white" stroke="none" points="-4,4 -4,-507.512 673.92,-507.512 673.92,4 -4,4"/>
<!-- STATUS_OFFLINE -->
<g id="node1" class="node"><title>STATUS_OFFLINE</title>
<ellipse fill="none" stroke="black" cx="329.747" cy="-255.191" rx="84.485" ry="18"/>
<text text-anchor="middle" x="329.747" y="-251.491" font-family="ProductusSemibold" font-size="14.00">STATUS_OFFLINE</text>
</g>
<!-- STATUS_REMOVED -->
<g id="node2" class="node"><title>STATUS_REMOVED</title>
<ellipse fill="none" stroke="black" cx="577.628" cy="-255.191" rx="92.0841" ry="18"/>
<text text-anchor="middle" x="577.628" y="-251.491" font-family="ProductusSemibold" font-size="14.00">STATUS_REMOVED</text>
</g>
<!-- STATUS_OFFLINE&#45;&gt;STATUS_REMOVED -->
<g id="edge1" class="edge"><title>STATUS_OFFLINE&#45;&gt;STATUS_REMOVED</title>
<path fill="none" stroke="black" d="M414.36,-255.191C433.917,-255.191 454.931,-255.191 475.159,-255.191"/>
<polygon fill="black" stroke="black" points="475.333,-258.691 485.333,-255.191 475.333,-251.691 475.333,-258.691"/>
</g>
<!-- STATUS_PROCESSING -->
<g id="node3" class="node"><title>STATUS_PROCESSING</title>
<ellipse fill="none" stroke="black" cx="421.382" cy="-485.512" rx="102.082" ry="18"/>
<text text-anchor="middle" x="421.382" y="-481.812" font-family="ProductusSemibold" font-size="14.00">STATUS_PROCESSING</text>
</g>
<!-- STATUS_OFFLINE&#45;&gt;STATUS_PROCESSING -->
<g id="edge2" class="edge"><title>STATUS_OFFLINE&#45;&gt;STATUS_PROCESSING</title>
<path fill="none" stroke="black" d="M340.678,-282.665C358.299,-326.956 392.789,-413.644 410.426,-457.975"/>
<polygon fill="black" stroke="black" points="343.886,-281.261 336.937,-273.264 337.382,-283.849 343.886,-281.261"/>
<polygon fill="black" stroke="black" points="407.276,-459.526 414.225,-467.523 413.78,-456.938 407.276,-459.526"/>
</g>
<!-- STATUS_NOT_CONFIGURED -->
<g id="node4" class="node"><title>STATUS_NOT_CONFIGURED</title>
<ellipse fill="none" stroke="black" cx="127.389" cy="-398.356" rx="127.277" ry="18"/>
<text text-anchor="middle" x="127.389" y="-394.656" font-family="ProductusSemibold" font-size="14.00">STATUS_NOT_CONFIGURED</text>
</g>
<!-- STATUS_OFFLINE&#45;&gt;STATUS_NOT_CONFIGURED -->
<g id="edge3" class="edge"><title>STATUS_OFFLINE&#45;&gt;STATUS_NOT_CONFIGURED</title>
<path fill="none" stroke="black" d="M297.172,-278.237C259.843,-304.647 198.963,-347.718 161.146,-374.474"/>
<polygon fill="black" stroke="black" points="299.195,-281.093 305.338,-272.46 295.153,-275.378 299.195,-281.093"/>
<polygon fill="black" stroke="black" points="158.661,-371.944 152.519,-380.577 162.704,-377.658 158.661,-371.944"/>
</g>
<!-- STATUS_ONLINE -->
<g id="node5" class="node"><title>STATUS_ONLINE</title>
<ellipse fill="none" stroke="black" cx="130.05" cy="-108.336" rx="81.4863" ry="18"/>
<text text-anchor="middle" x="130.05" y="-104.636" font-family="ProductusSemibold" font-size="14.00">STATUS_ONLINE</text>
</g>
<!-- STATUS_OFFLINE&#45;&gt;STATUS_ONLINE -->
<g id="edge4" class="edge"><title>STATUS_OFFLINE&#45;&gt;STATUS_ONLINE</title>
<path fill="none" stroke="black" d="M297.929,-231.793C260.739,-204.443 199.541,-159.438 162.206,-131.983"/>
<polygon fill="black" stroke="black" points="295.925,-234.663 306.055,-237.768 300.072,-229.024 295.925,-234.663"/>
<polygon fill="black" stroke="black" points="163.841,-128.841 153.711,-125.736 159.694,-134.48 163.841,-128.841"/>
</g>
<!-- STATUS_NOT_INITIALIZED -->
<g id="node6" class="node"><title>STATUS_NOT_INITIALIZED</title>
<ellipse fill="none" stroke="black" cx="401.758" cy="-18" rx="122.678" ry="18"/>
<text text-anchor="middle" x="401.758" y="-14.3" font-family="ProductusSemibold" font-size="14.00">STATUS_NOT_INITIALIZED</text>
</g>
<!-- STATUS_NOT_INITIALIZED&#45;&gt;STATUS_OFFLINE -->
<g id="edge5" class="edge"><title>STATUS_NOT_INITIALIZED&#45;&gt;STATUS_OFFLINE</title>
<path fill="none" stroke="black" d="M396.227,-36.2181C383.713,-77.4371 353.158,-178.078 338.232,-227.241"/>
<polygon fill="black" stroke="black" points="334.853,-226.325 335.296,-236.911 341.551,-228.359 334.853,-226.325"/>
</g>
</g>
</svg>
