<?xml version="1.0" encoding="utf-8"?>
<!-- Generator: Adobe Illustrator 16.0.0, SVG Export Plug-In . SVG Version: 6.00 Build 0)  -->
<!DOCTYPE svg PUBLIC "-//W3C//DTD SVG 1.1//EN" "http://www.w3.org/Graphics/SVG/1.1/DTD/svg11.dtd">
<svg version="1.1" id="Layer_1" xmlns="http://www.w3.org/2000/svg" xmlns:xlink="http://www.w3.org/1999/xlink" x="0px" y="0px"
	 width="255.601px" height="190.86px" viewBox="0 0 255.601 190.86" style="enable-background:new 0 0 255.601 190.86;"
	 xml:space="preserve">
<rect x="42.72" y="147.66" style="fill:#E6E6E6;" width="155.94" height="43.2"/>
<rect x="41.94" style="fill:#E6E6E6;" width="128.399" height="43.2"/>
<rect x="77.94" y="27.66" width="0.48" height="0.24"/>
<rect x="77.94" y="27.9" width="0.48" height="3.96"/>
<rect x="77.94" y="37.98" width="0.48" height="0.24"/>
<rect x="77.94" y="38.22" width="0.48" height="7.86"/>
<rect x="77.94" y="52.14" width="0.48" height="0.24"/>
<rect x="77.94" y="52.38" width="0.48" height="7.86"/>
<rect x="77.94" y="66.36" width="0.48" height="0.24"/>
<rect x="77.94" y="66.6" width="0.48" height="7.8"/>
<rect x="77.94" y="80.521" width="0.48" height="0.24"/>
<rect x="77.94" y="80.76" width="0.48" height="7.86"/>
<rect x="77.94" y="94.74" width="0.48" height="0.24"/>
<rect x="77.94" y="94.98" width="0.48" height="7.8"/>
<rect x="77.94" y="108.9" width="0.48" height="0.24"/>
<rect x="77.94" y="109.14" width="0.48" height="7.86"/>
<rect x="77.94" y="123.061" width="0.48" height="0.24"/>
<rect x="77.94" y="123.3" width="0.48" height="7.86"/>
<rect x="77.94" y="137.28" width="0.48" height="0.24"/>
<rect x="77.94" y="137.521" width="0.48" height="7.86"/>
<rect x="77.94" y="151.44" width="0.48" height="0.24"/>
<rect x="77.94" y="151.68" width="0.48" height="4.02"/>
<rect x="108.9" y="8.4" width="54.3" height="27"/>
<rect x="108.9" y="8.16" width="54.54" height="0.48"/>
<rect x="162.96" y="8.4" width="0.48" height="27.24"/>
<rect x="108.66" y="35.16" width="54.54" height="0.48"/>
<rect x="108.66" y="8.16" width="0.48" height="27.24"/>
<rect x="106.5" y="6.6" style="fill:#FFFFFF;" width="54.36" height="27"/>
<rect x="106.5" y="6.36" width="54.601" height="0.48"/>
<rect x="160.62" y="6.6" width="0.48" height="27.24"/>
<rect x="106.26" y="33.36" width="54.601" height="0.48"/>
<rect x="106.26" y="6.36" width="0.48" height="27.24"/>
<text transform="matrix(1 0 0 1.0522 108.9004 13.7402)"><tspan x="0" y="0" style="font-family:'ProductusOSGiBookc'; font-size:7.5841;">F</tspan><tspan x="2.821" y="0" style="font-family:'ProductusOSGiBookc'; font-size:7.5841;">o</tspan><tspan x="6.416" y="0" style="font-family:'ProductusOSGiBookc'; font-size:7.5841;">r</tspan><tspan x="8.343" y="0" style="font-family:'ProductusOSGiBookc'; font-size:7.5841;">e</tspan><tspan x="11.642" y="0" style="font-family:'ProductusOSGiBookc'; font-size:7.5841;">i</tspan><tspan x="13.082" y="0" style="font-family:'ProductusOSGiBookc'; font-size:7.5841;">g</tspan><tspan x="16.382" y="0" style="font-family:'ProductusOSGiBookc'; font-size:7.5841;">n</tspan><tspan x="19.854" y="0" style="font-family:'ProductusOSGiBookc'; font-size:7.5841;"> </tspan></text>
<text transform="matrix(1 0 0 1.0522 108.9004 22.2607)"><tspan x="0" y="0" style="font-family:'ProductusOSGiBookc'; font-size:7.5841;">Appli</tspan><tspan x="13.712" y="0" style="font-family:'ProductusOSGiBookc'; font-size:7.5841;">c</tspan><tspan x="16.646" y="0" style="font-family:'ProductusOSGiBookc'; font-size:7.5841;">ation </tspan></text>
<text transform="matrix(1 0 0 1.0522 108.9004 30.7808)"><tspan x="0" y="0" style="font-family:'ProductusOSGiBookc'; font-size:7.5841;">Ob</tspan><tspan x="8.464" y="0" style="font-family:'ProductusOSGiBookc'; font-size:7.5841;">j</tspan><tspan x="9.958" y="0" style="font-family:'ProductusOSGiBookc'; font-size:7.5841;">e</tspan><tspan x="13.257" y="0" style="font-family:'ProductusOSGiBookc'; font-size:7.5841;">c</tspan><tspan x="16.146" y="0" style="font-family:'ProductusOSGiBookc'; font-size:7.5841;">t</tspan></text>
<rect x="137.221" y="79.32" width="54.359" height="27"/>
<rect x="137.221" y="79.08" width="54.6" height="0.48"/>
<rect x="191.34" y="79.32" width="0.48" height="27.24"/>
<rect x="136.98" y="106.08" width="54.6" height="0.48"/>
<rect x="136.98" y="79.08" width="0.479" height="27.24"/>
<rect x="134.88" y="77.521" style="fill:#FFFFFF;" width="54.301" height="27"/>
<rect x="134.88" y="77.28" width="54.54" height="0.48"/>
<rect x="188.94" y="77.521" width="0.479" height="27.24"/>
<rect x="134.641" y="104.28" width="54.54" height="0.48"/>
<rect x="134.641" y="77.28" width="0.479" height="27.24"/>
<text transform="matrix(1 0 0 1.0522 137.2207 84.6001)"><tspan x="0" y="0" style="font-family:'ProductusOSGiBookc'; font-size:7.5841;">&lt;</tspan><tspan x="2.775" y="0" style="font-family:'ProductusOSGiBookc'; font-size:7.5841;">&lt;</tspan><tspan x="5.589" y="0" style="font-family:'ProductusOSGiBookc'; font-size:7.5841;">inter</tspan><tspan x="18.095" y="0" style="font-family:'ProductusOSGiBookc'; font-size:7.5841;">f</tspan><tspan x="20.014" y="0" style="font-family:'ProductusOSGiBookc'; font-size:7.5841;">a</tspan><tspan x="23.123" y="0" style="font-family:'ProductusOSGiBookc'; font-size:7.5841;">c</tspan><tspan x="26.059" y="0" style="font-family:'ProductusOSGiBookc'; font-size:7.5841;">e</tspan><tspan x="29.35" y="0" style="font-family:'ProductusOSGiBookc'; font-size:7.5841;">&gt;</tspan><tspan x="32.163" y="0" style="font-family:'ProductusOSGiBookc'; font-size:7.5841;">&gt;</tspan></text>
<text transform="matrix(1 0 0 1 137.2207 93.1201)"><tspan x="0" y="0" style="font-family:'ProductusSemibold'; font-size:7.98;">A</tspan><tspan x="5.035" y="0" style="font-family:'ProductusSemibold'; font-size:7.98;">p</tspan><tspan x="9.289" y="0" style="font-family:'ProductusSemibold'; font-size:7.98;">p</tspan><tspan x="13.59" y="0" style="font-family:'ProductusSemibold'; font-size:7.98;">l</tspan><tspan x="15.809" y="0" style="font-family:'ProductusSemibold'; font-size:7.98;">icatio</tspan><tspan x="35.199" y="0" style="font-family:'ProductusSemibold'; font-size:7.98;">n</tspan><tspan x="39.516" y="0" style="font-family:'ProductusSemibold'; font-size:7.98;"> </tspan></text>
<text transform="matrix(1 0 0 1 137.2207 101.6406)"><tspan x="0" y="0" style="font-family:'ProductusSemibold'; font-size:7.98;">C</tspan><tspan x="4.74" y="0" style="font-family:'ProductusSemibold'; font-size:7.98;">o</tspan><tspan x="9.058" y="0" style="font-family:'ProductusSemibold'; font-size:7.98;">n</tspan><tspan x="13.311" y="0" style="font-family:'ProductusSemibold'; font-size:7.98;">t</tspan><tspan x="16.431" y="0" style="font-family:'ProductusSemibold'; font-size:7.98;">e</tspan><tspan x="20.564" y="0" style="font-family:'ProductusSemibold'; font-size:7.98;">x</tspan><tspan x="24.521" y="0" style="font-family:'ProductusSemibold'; font-size:7.98;">t</tspan><tspan x="27.642" y="0" style="font-family:'ProductusSemibold'; font-size:7.98;"> </tspan></text>
<polyline style="fill-rule:evenodd;clip-rule:evenodd;fill:#FFFFFF;" points="49.56,34.98 49.56,6.601 92.34,6.601 92.34,26.88 "/>
<rect x="49.32" y="6.36" width="0.48" height="28.62"/>
<rect x="49.56" y="6.36" width="43.02" height="0.48"/>
<polyline points="92.58,6.6 92.58,27.061 92.4,27.12 49.62,35.22 49.32,35.28 49.32,34.98 49.56,34.74 92.34,26.64 92.4,27.12 
	92.101,26.88 92.101,6.6 "/>
<text transform="matrix(1 0 0 1 53.52 14.9404)"><tspan x="0" y="0" style="font-family:'ProductusBook'; font-size:7.98;">O</tspan><tspan x="5.283" y="0" style="font-family:'ProductusBook'; font-size:7.98;">S</tspan><tspan x="9.001" y="0" style="font-family:'ProductusBook'; font-size:7.98;">G</tspan><tspan x="13.797" y="0" style="font-family:'ProductusBook'; font-size:7.98;">I</tspan><tspan x="15.361" y="0" style="font-family:'ProductusBook'; font-size:7.98;">-</tspan><tspan x="18.066" y="0" style="font-family:'ProductusBook'; font-size:7.98;">IN</tspan><tspan x="24.426" y="0" style="font-family:'ProductusBook'; font-size:7.98;">F</tspan><tspan x="27.187" y="0" style="font-family:'ProductusBook'; font-size:7.98;">/</tspan></text>
<text transform="matrix(1 0 0 1 53.52 24.7207)"><tspan x="0" y="0" style="font-family:'ProductusBook'; font-size:7.98;">app</tspan><tspan x="10.701" y="0" style="font-family:'ProductusBook'; font-size:7.98;">/</tspan><tspan x="12.808" y="0" style="font-family:'ProductusBook'; font-size:7.98;">apps.xml</tspan></text>
<rect x="52.2" y="157.26" width="54.3" height="27"/>
<rect x="52.2" y="157.021" width="54.54" height="0.479"/>
<rect x="106.26" y="157.26" width="0.48" height="27.24"/>
<rect x="51.96" y="184.021" width="54.54" height="0.48"/>
<rect x="51.96" y="157.021" width="0.48" height="27.24"/>
<rect x="49.86" y="155.46" style="fill:#FFFFFF;" width="54.3" height="27"/>
<rect x="49.86" y="155.22" width="54.54" height="0.48"/>
<rect x="103.92" y="155.46" width="0.48" height="27.24"/>
<rect x="49.62" y="182.22" width="54.54" height="0.48"/>
<rect x="49.62" y="155.22" width="0.48" height="27.24"/>
<text transform="matrix(1 0 0 1.0522 52.2002 162.6001)"><tspan x="0" y="0" style="font-family:'ProductusOSGiBookc'; font-size:7.5841;">Appli</tspan><tspan x="13.674" y="0" style="font-family:'ProductusOSGiBookc'; font-size:7.5841;">c</tspan><tspan x="16.609" y="0" style="font-family:'ProductusOSGiBookc'; font-size:7.5841;">ati</tspan><tspan x="23.374" y="0" style="font-family:'ProductusOSGiBookc'; font-size:7.5841;">o</tspan><tspan x="26.968" y="0" style="font-family:'ProductusOSGiBookc'; font-size:7.5841;">n</tspan><tspan x="30.427" y="0" style="font-family:'ProductusOSGiBookc'; font-size:7.5841;"> </tspan></text>
<text transform="matrix(1 0 0 1.0522 52.2002 171.0605)"><tspan x="0" y="0" style="font-family:'ProductusOSGiBookc'; font-size:7.5841;">C</tspan><tspan x="3.966" y="0" style="font-family:'ProductusOSGiBookc'; font-size:7.5841;">o</tspan><tspan x="7.508" y="0" style="font-family:'ProductusOSGiBookc'; font-size:7.5841;">ntiainer</tspan><tspan x="28.091" y="0" style="font-family:'ProductusOSGiBookc'; font-size:7.5841;"> </tspan><tspan x="29.592" y="0" style="font-family:'ProductusOSGiBookc'; font-size:7.5841;">I</tspan><tspan x="31.086" y="0" style="font-family:'ProductusOSGiBookc'; font-size:7.5841;">m</tspan><tspan x="36.539" y="0" style="font-family:'ProductusOSGiBookc'; font-size:7.5841;">pl</tspan></text>
<rect x="120.48" y="169.62" width="0.479" height="0.24"/>
<rect x="120.48" y="165.66" width="0.479" height="3.96"/>
<rect x="120.48" y="159.66" width="0.479" height="0.24"/>
<rect x="120.48" y="152.22" width="0.479" height="7.44"/>
<rect x="120.48" y="146.22" width="0.479" height="0.24"/>
<rect x="120.48" y="138.78" width="0.479" height="7.44"/>
<rect x="120.48" y="132.78" width="0.479" height="0.24"/>
<rect x="120.48" y="125.34" width="0.479" height="7.44"/>
<rect x="120.48" y="119.34" width="0.479" height="0.24"/>
<rect x="120.48" y="111.9" width="0.479" height="7.44"/>
<rect x="120.48" y="105.9" width="0.479" height="0.24"/>
<rect x="120.48" y="98.46" width="0.479" height="7.44"/>
<rect x="120.48" y="92.46" width="0.479" height="0.24"/>
<rect x="120.48" y="85.021" width="0.479" height="7.44"/>
<rect x="120.48" y="79.021" width="0.479" height="0.24"/>
<rect x="120.48" y="71.58" width="0.479" height="7.44"/>
<rect x="120.48" y="65.58" width="0.479" height="0.24"/>
<rect x="120.48" y="58.14" width="0.479" height="7.44"/>
<rect x="120.48" y="52.14" width="0.479" height="0.24"/>
<rect x="120.48" y="44.7" width="0.479" height="7.44"/>
<rect x="120.48" y="38.7" width="0.479" height="0.24"/>
<rect x="120.48" y="34.74" width="0.479" height="3.96"/>
<text transform="matrix(-6.123234e-17 1 -1 -6.123234e-17 72.0005 66.96)"><tspan x="0" y="0" style="font-family:'ProductusBook'; font-size:7.98;">m</tspan><tspan x="5.753" y="0" style="font-family:'ProductusBook'; font-size:7.98;">e</tspan><tspan x="9.289" y="0" style="font-family:'ProductusBook'; font-size:7.98;">t</tspan><tspan x="11.635" y="0" style="font-family:'ProductusBook'; font-size:7.98;">a</tspan><tspan x="14.994" y="0" style="font-family:'ProductusBook'; font-size:7.98;">d</tspan><tspan x="18.657" y="0" style="font-family:'ProductusBook'; font-size:7.98;">a</tspan><tspan x="22.017" y="0" style="font-family:'ProductusBook'; font-size:7.98;">t</tspan><tspan x="24.362" y="0" style="font-family:'ProductusBook'; font-size:7.98;">a</tspan></text>
<text transform="matrix(1 0 0 1 68.9404 39.7202)" style="font-family:'ProductusBook'; font-size:7.98;">0,1</text>
<rect x="137.221" y="157.26" width="54.359" height="27"/>
<rect x="137.221" y="157.021" width="54.6" height="0.479"/>
<rect x="191.34" y="157.26" width="0.48" height="27.24"/>
<rect x="136.98" y="184.021" width="54.6" height="0.48"/>
<rect x="136.98" y="157.021" width="0.479" height="27.24"/>
<rect x="134.88" y="155.46" style="fill:#FFFFFF;" width="54.301" height="27"/>
<rect x="134.88" y="155.22" width="54.54" height="0.48"/>
<rect x="188.94" y="155.46" width="0.479" height="27.24"/>
<rect x="134.641" y="182.22" width="54.54" height="0.48"/>
<rect x="134.641" y="155.22" width="0.479" height="27.24"/>
<text transform="matrix(1 0 0 1.0522 137.2207 162.6001)"><tspan x="0" y="0" style="font-family:'ProductusOSGiBookc'; font-size:7.5841;">Appl</tspan><tspan x="12.256" y="0" style="font-family:'ProductusOSGiBookc'; font-size:7.5841;">i</tspan><tspan x="13.75" y="0" style="font-family:'ProductusOSGiBookc'; font-size:7.5841;">c</tspan><tspan x="16.632" y="0" style="font-family:'ProductusOSGiBookc'; font-size:7.5841;">ation </tspan></text>
<text transform="matrix(1 0 0 1.0522 137.2207 171.0605)"><tspan x="0" y="0" style="font-family:'ProductusOSGiBookc'; font-size:7.5841;">C</tspan><tspan x="3.967" y="0" style="font-family:'ProductusOSGiBookc'; font-size:7.5841;">o</tspan><tspan x="7.508" y="0" style="font-family:'ProductusOSGiBookc'; font-size:7.5841;">n</tspan><tspan x="10.981" y="0" style="font-family:'ProductusOSGiBookc'; font-size:7.5841;">text</tspan><tspan x="21.523" y="0" style="font-family:'ProductusOSGiBookc'; font-size:7.5841;"> </tspan><tspan x="23.024" y="0" style="font-family:'ProductusOSGiBookc'; font-size:7.5841;">I</tspan><tspan x="24.519" y="0" style="font-family:'ProductusOSGiBookc'; font-size:7.5841;">m</tspan><tspan x="29.919" y="0" style="font-family:'ProductusOSGiBookc'; font-size:7.5841;">pl</tspan></text>
<rect x="201" y="8.4" width="54.36" height="27"/>
<rect x="201" y="8.16" width="54.601" height="0.48"/>
<rect x="255.12" y="8.4" width="0.48" height="27.24"/>
<rect x="200.76" y="35.16" width="54.601" height="0.48"/>
<rect x="200.76" y="8.16" width="0.48" height="27.24"/>
<rect x="198.66" y="6.6" style="fill:#FFFFFF;" width="54.3" height="27"/>
<rect x="198.66" y="6.36" width="54.54" height="0.48"/>
<rect x="252.721" y="6.6" width="0.479" height="27.24"/>
<rect x="198.42" y="33.36" width="54.54" height="0.48"/>
<rect x="198.42" y="6.36" width="0.48" height="27.24"/>
<text transform="matrix(1 0 0 1 201 13.7402)"><tspan x="0" y="0" style="font-family:'ProductusSemibold'; font-size:7.98;">F</tspan><tspan x="3.599" y="0" style="font-family:'ProductusSemibold'; font-size:7.98;">ra</tspan><tspan x="10.549" y="0" style="font-family:'ProductusSemibold'; font-size:7.98;">m</tspan><tspan x="16.909" y="0" style="font-family:'ProductusSemibold'; font-size:7.98;">e</tspan><tspan x="20.987" y="0" style="font-family:'ProductusSemibold'; font-size:7.98;">w</tspan><tspan x="27.283" y="0" style="font-family:'ProductusSemibold'; font-size:7.98;">o</tspan><tspan x="31.601" y="0" style="font-family:'ProductusSemibold'; font-size:7.98;">r</tspan><tspan x="34.593" y="0" style="font-family:'ProductusSemibold'; font-size:7.98;">k</tspan></text>
<text transform="matrix(1 0 0 1 170.2803 44.1602)"><tspan x="0" y="0" style="font-family:'ProductusBook'; font-size:7.98;">g</tspan><tspan x="3.367" y="0" style="font-family:'ProductusBook'; font-size:7.98;">e</tspan><tspan x="6.854" y="0" style="font-family:'ProductusBook'; font-size:7.98;">t</tspan><tspan x="9.249" y="0" style="font-family:'ProductusBook'; font-size:7.98;">A</tspan><tspan x="13.271" y="0" style="font-family:'ProductusBook'; font-size:7.98;">ppli</tspan><tspan x="23.852" y="0" style="font-family:'ProductusBook'; font-size:7.98;">c</tspan><tspan x="26.916" y="0" style="font-family:'ProductusBook'; font-size:7.98;">a</tspan><tspan x="30.244" y="0" style="font-family:'ProductusBook'; font-size:7.98;">t</tspan><tspan x="32.59" y="0" style="font-family:'ProductusBook'; font-size:7.98;">io</tspan><tspan x="37.969" y="0" style="font-family:'ProductusBook'; font-size:7.98;">n</tspan><tspan x="41.631" y="0" style="font-family:'ProductusBook'; font-size:7.98;">C</tspan><tspan x="45.837" y="0" style="font-family:'ProductusBook'; font-size:7.98;">o</tspan><tspan x="49.635" y="0" style="font-family:'ProductusBook'; font-size:7.98;">n</tspan><tspan x="53.298" y="0" style="font-family:'ProductusBook'; font-size:7.98;">te</tspan><tspan x="59.211" y="0" style="font-family:'ProductusBook'; font-size:7.98;">x</tspan><tspan x="62.211" y="0" style="font-family:'ProductusBook'; font-size:7.98;">t</tspan></text>
<polyline points="163.2,117.36 159.9,117.36 160.08,116.7 163.2,105.78 166.32,116.7 166.5,117.36 165.84,117.36 165.36,117 
	162.721,107.76 163.681,107.46 163.681,107.76 161.04,117 160.08,116.7 160.561,116.34 163.2,116.34 "/>
<rect x="163.2" y="116.34" width="2.64" height="1.02"/>
<polyline style="fill-rule:evenodd;clip-rule:evenodd;" points="163.2,116.88 160.561,116.88 163.2,107.64 165.84,116.88 "/>
<rect x="162.96" y="117.12" width="0.48" height="0.24"/>
<rect x="162.96" y="117.36" width="0.48" height="38.34"/>
<rect x="106.26" y="169.38" width="0.24" height="0.48"/>
<rect x="106.5" y="169.38" width="28.62" height="0.48"/>
<text transform="matrix(1 0 0 1 66.1201 153.1201)"><tspan x="0" y="0" style="font-family:'ProductusBook'; font-size:7.98;">0</tspan><tspan x="3.942" y="0" style="font-family:'ProductusBook'; font-size:7.98;">.</tspan><tspan x="5.506" y="0" style="font-family:'ProductusBook'; font-size:7.98;">.</tspan><tspan x="7.134" y="0" style="font-family:'ProductusBook'; font-size:7.98;">n</tspan></text>
<rect x="148.8" y="34.74" width="0.48" height="0.24"/>
<rect x="148.8" y="34.98" width="0.48" height="42.78"/>
<text transform="matrix(1 0 0 1 151.1406 75.1201)" style="font-family:'ProductusBook'; font-size:7.98;">0,1</text>
<text transform="matrix(1 0 0 1 170.2803 53.8799)"><tspan x="0" y="0" style="font-family:'ProductusBook'; font-size:7.98;">(</tspan><tspan x="2.106" y="0" style="font-family:'ProductusBook'; font-size:7.98;">s</tspan><tspan x="4.924" y="0" style="font-family:'ProductusBook'; font-size:7.98;">tatic</tspan><tspan x="17.684" y="0" style="font-family:'ProductusBook'; font-size:7.98;">)</tspan></text>
<text transform="matrix(1 0 0 1 151.2002 40.9194)" style="font-family:'ProductusBook'; font-size:7.98;">1</text>
<text transform="matrix(1 0 0 1 124.0801 174.3594)"><tspan x="0" y="0" style="font-family:'ProductusBook'; font-size:7.98;">0..</tspan><tspan x="7.078" y="0" style="font-family:'ProductusBook'; font-size:7.98;">n</tspan></text>
<text transform="matrix(1 0 0 1 108.3008 174.3594)" style="font-family:'ProductusBook'; font-size:7.98;">1</text>
<rect x="92.101" y="155.46" width="0.479" height="0.24"/>
<rect x="92.101" y="41.82" width="0.479" height="113.64"/>
<text transform="matrix(-6.123234e-17 1 -1 -6.123234e-17 94.9199 66.8398)"><tspan x="0" y="0" style="font-family:'ProductusBook'; font-size:7.98;">c</tspan><tspan x="3" y="0" style="font-family:'ProductusBook'; font-size:7.98;">o</tspan><tspan x="6.783" y="0" style="font-family:'ProductusBook'; font-size:7.98;">n</tspan><tspan x="10.502" y="0" style="font-family:'ProductusBook'; font-size:7.98;">t</tspan><tspan x="12.848" y="0" style="font-family:'ProductusBook'; font-size:7.98;">r</tspan><tspan x="15.122" y="0" style="font-family:'ProductusBook'; font-size:7.98;">o</tspan><tspan x="18.904" y="0" style="font-family:'ProductusBook'; font-size:7.98;">l</tspan><tspan x="20.517" y="0" style="font-family:'ProductusBook'; font-size:7.98;">l</tspan><tspan x="22.08" y="0" style="font-family:'ProductusBook'; font-size:7.98;">e</tspan><tspan x="25.567" y="0" style="font-family:'ProductusBook'; font-size:7.98;">d</tspan><tspan x="29.286" y="0" style="font-family:'ProductusBook'; font-size:7.98;"> </tspan><tspan x="30.898" y="0" style="font-family:'ProductusBook'; font-size:7.98;">b</tspan><tspan x="34.441" y="0" style="font-family:'ProductusBook'; font-size:7.98;">y</tspan></text>
<rect x="2.58" y="79.74" width="54.36" height="27"/>
<rect x="2.58" y="79.5" width="54.6" height="0.48"/>
<rect x="56.7" y="79.74" width="0.48" height="27.24"/>
<rect x="2.34" y="106.5" width="54.6" height="0.48"/>
<rect x="2.34" y="79.5" width="0.48" height="27.24"/>
<rect x="0.24" y="77.94" style="fill:#FFFFFF;" width="54.3" height="27"/>
<rect x="0.24" y="77.7" width="54.54" height="0.48"/>
<rect x="54.3" y="77.94" width="0.48" height="27.24"/>
<rect y="104.7" width="54.54" height="0.48"/>
<rect y="77.7" width="0.48" height="27.24"/>
<text transform="matrix(1 0 0 1.0522 2.5801 85.0801)"><tspan x="0" y="0" style="font-family:'ProductusOSGiBookc'; font-size:7.5841;">Appl</tspan><tspan x="12.256" y="0" style="font-family:'ProductusOSGiBookc'; font-size:7.5841;">i</tspan><tspan x="13.75" y="0" style="font-family:'ProductusOSGiBookc'; font-size:7.5841;">c</tspan><tspan x="16.631" y="0" style="font-family:'ProductusOSGiBookc'; font-size:7.5841;">ation </tspan></text>
<text transform="matrix(1 0 0 1.0522 2.5801 93.6006)"><tspan x="0" y="0" style="font-family:'ProductusOSGiBookc'; font-size:7.5841;">D</tspan><tspan x="4.679" y="0" style="font-family:'ProductusOSGiBookc'; font-size:7.5841;">e</tspan><tspan x="7.925" y="0" style="font-family:'ProductusOSGiBookc'; font-size:7.5841;">s</tspan><tspan x="10.61" y="0" style="font-family:'ProductusOSGiBookc'; font-size:7.5841;">c</tspan><tspan x="13.492" y="0" style="font-family:'ProductusOSGiBookc'; font-size:7.5841;">r</tspan><tspan x="15.623" y="0" style="font-family:'ProductusOSGiBookc'; font-size:7.5841;">i</tspan><tspan x="17.064" y="0" style="font-family:'ProductusOSGiBookc'; font-size:7.5841;">pt</tspan><tspan x="22.805" y="0" style="font-family:'ProductusOSGiBookc'; font-size:7.5841;">o</tspan><tspan x="26.347" y="0" style="font-family:'ProductusOSGiBookc'; font-size:7.5841;">r</tspan></text>
<polyline style="fill-rule:evenodd;clip-rule:evenodd;" points="56.94,92.1 42.72,106.26 56.94,106.26 "/>
<polyline points="57.12,92.28 42.9,106.44 42.72,106.5 42.12,106.5 42.54,106.08 56.76,91.92 "/>
<rect x="42.72" y="106.021" width="14.46" height="0.479"/>
<polyline points="56.7,106.26 56.7,92.1 56.76,91.92 57.18,91.5 57.18,106.26 "/>
<rect x="162.96" y="20.58" width="0.24" height="0.48"/>
<rect x="163.2" y="20.58" width="35.7" height="0.48"/>
<rect x="240.96" y="34.74" width="0.48" height="0.24"/>
<rect x="240.96" y="34.98" width="0.48" height="3.96"/>
<rect x="240.96" y="44.7" width="0.48" height="0.24"/>
<rect x="240.96" y="44.94" width="0.48" height="7.44"/>
<rect x="240.96" y="58.14" width="0.48" height="0.24"/>
<rect x="240.96" y="58.38" width="0.48" height="7.44"/>
<rect x="240.96" y="71.58" width="0.48" height="0.24"/>
<rect x="240.96" y="71.82" width="0.48" height="7.44"/>
<rect x="240.96" y="85.021" width="0.48" height="0.24"/>
<rect x="240.96" y="85.26" width="0.48" height="7.44"/>
<rect x="240.96" y="98.46" width="0.48" height="0.24"/>
<rect x="240.96" y="98.7" width="0.48" height="7.44"/>
<rect x="240.96" y="111.9" width="0.48" height="0.24"/>
<rect x="240.96" y="112.14" width="0.48" height="7.44"/>
<rect x="240.96" y="125.34" width="0.48" height="0.24"/>
<rect x="240.96" y="125.58" width="0.48" height="7.44"/>
<rect x="240.96" y="138.78" width="0.48" height="0.24"/>
<rect x="240.96" y="139.021" width="0.48" height="7.44"/>
<rect x="240.96" y="152.22" width="0.48" height="0.24"/>
<rect x="240.96" y="152.46" width="0.48" height="7.44"/>
<rect x="240.96" y="165.66" width="0.48" height="4.2"/>
<rect x="237.181" y="169.38" width="4.02" height="0.48"/>
<rect x="231.78" y="169.38" width="0.24" height="0.48"/>
<rect x="225.061" y="169.38" width="6.72" height="0.48"/>
<rect x="219.601" y="169.38" width="0.239" height="0.48"/>
<rect x="212.88" y="169.38" width="6.721" height="0.48"/>
<rect x="207.48" y="169.38" width="0.24" height="0.48"/>
<rect x="200.7" y="169.38" width="6.78" height="0.48"/>
<rect x="195.3" y="169.38" width="0.24" height="0.48"/>
<rect x="191.34" y="169.38" width="3.96" height="0.48"/>
<polyline points="28.56,117.78 25.26,117.78 25.44,117.12 28.08,107.94 28.56,106.26 29.04,107.94 31.68,117.12 31.86,117.78 
	31.2,117.78 30.72,117.42 28.08,108.24 29.04,107.94 29.04,108.24 26.4,117.42 25.44,117.12 25.92,116.76 28.56,116.76 "/>
<rect x="28.56" y="116.76" width="2.64" height="1.02"/>
<polyline style="fill-rule:evenodd;clip-rule:evenodd;" points="28.56,117.3 25.92,117.3 28.56,108.12 31.2,117.3 "/>
<rect x="28.32" y="169.8" width="21.78" height="0.48"/>
<rect x="28.32" y="117.6" width="0.48" height="52.44"/>
</svg>
