<?xml version="1.0" encoding="utf-8"?>
<!-- Generator: Adobe Illustrator 16.0.4, SVG Export Plug-In . SVG Version: 6.00 Build 0)  -->
<!DOCTYPE svg PUBLIC "-//W3C//DTD SVG 1.1//EN" "http://www.w3.org/Graphics/SVG/1.1/DTD/svg11.dtd">
<svg version="1.1" id="Layer_1" xmlns="http://www.w3.org/2000/svg" xmlns:xlink="http://www.w3.org/1999/xlink" x="0px" y="0px"
	 width="613px" height="127.841px" viewBox="-0.5 332.08 613 127.841" enable-background="new -0.5 332.08 613 127.841"
	 xml:space="preserve">
<text transform="matrix(1 0 0 1 92.126 349.6699)" font-family="'ProductusBook'" font-size="9.2777">obtain standard</text>
<text transform="matrix(1 0 0 1 92.126 360.8311)" font-family="'ProductusBook'" font-size="9.2777">converter</text>
<text transform="matrix(1 0 0 1 400.9014 360.8311)" font-family="'ProductusBook'" font-size="9.2777">1..n </text>
<g>
	<rect x="320.3" y="334.789" stroke="#000000" stroke-miterlimit="10" width="76.616" height="34.181"/>
	<rect x="317.742" y="332.58" fill="#FFFFFF" stroke="#000000" stroke-miterlimit="10" width="76.616" height="34.181"/>
	<text transform="matrix(1 0 0 1 321.4238 342.7705)" font-family="'ProductusBook'" font-size="9.2777">&lt;&lt;interface&gt;&gt;</text>
	<text transform="matrix(1 0 0 1 321.4238 353.0244)" font-family="'ProductusSemibold'" font-size="9.2777">Converter</text>
	<text transform="matrix(1 0 0 1 321.4238 364.1582)" font-family="'ProductusSemibold'" font-size="9.2777">Builder</text>
</g>
<g>
	<rect x="161.371" y="334.789" stroke="#000000" stroke-miterlimit="10" width="76.617" height="34.181"/>
	<rect x="158.929" y="332.58" fill="#FFFFFF" stroke="#000000" stroke-miterlimit="10" width="76.616" height="34.181"/>
	<text transform="matrix(1 0 0 1 162.5713 342.793)" font-family="'ProductusBook'" font-size="9.2777">&lt;&lt;interface&gt;&gt;</text>
	<text transform="matrix(1 0 0 1 162.5713 353.0479)" font-family="'ProductusSemibold'" font-size="9.2777">Converter</text>
</g>
<g>
	<rect x="479.113" y="334.789" stroke="#000000" stroke-miterlimit="10" width="76.616" height="34.181"/>
	<rect x="476.672" y="332.58" fill="#FFFFFF" stroke="#000000" stroke-miterlimit="10" width="76.616" height="34.181"/>
	<text transform="matrix(1 0 0 1 480.334 342.748)" font-family="'ProductusBook'" font-size="9.2777">&lt;&lt;interface&gt;&gt;</text>
	<text transform="matrix(1 0 0 1 480.334 353.002)" font-family="'ProductusSemibold'" font-size="9.2777">TargetRule</text>
</g>
<text transform="matrix(1 0 0 1 246.1875 349.6699)" font-family="'ProductusBook'" font-size="9.2777">obtain converter</text>
<text transform="matrix(1 0 0 1 246.1875 360.8311)" font-family="'ProductusBook'" font-size="9.2777">builder</text>
<g>
	<rect x="2.441" y="334.789" stroke="#000000" stroke-miterlimit="10" width="76.616" height="34.181"/>
	<rect y="332.58" fill="#FFFFFF" stroke="#000000" stroke-miterlimit="10" width="76.616" height="34.181"/>
	<text transform="matrix(1 0 0 1 3.6611 342.793)" font-family="'ProductusBook'" font-size="9.2777">&lt;&lt;class&gt;&gt;</text>
	<text transform="matrix(1 0 0 1 3.6611 353.0479)" font-family="'ProductusSemibold'" font-size="9.2777">Converters</text>
</g>
<g>
	<g>
		<g>
			<polygon fill="#202020" points="79.058,352.576 155.558,352.576 152.651,355.599 154.627,355.599 158.348,351.879 
				154.627,348.158 152.651,348.158 155.558,351.181 79.058,351.181 			"/>
		</g>
	</g>
</g>
<g>
	<g>
		<g>
			<polygon fill="#202020" points="237.987,352.576 314.952,352.576 311.93,355.599 314.022,355.599 317.742,351.879 
				314.022,348.158 311.93,348.158 314.952,351.181 237.987,351.181 			"/>
		</g>
	</g>
</g>
<line fill="none" stroke="#000000" stroke-width="0.75" stroke-miterlimit="10" x1="396.916" y1="351.879" x2="476.672" y2="351.879"/>
<polyline fill="#FFFFFF" stroke="#000000" stroke-miterlimit="10" points="356.108,368.969 356.108,403.964 197.179,403.964 
	197.179,368.969 "/>
<g>
	<g>
		<g>
			<polygon fill="#202020" points="197.993,403.964 197.993,371.759 200.9,374.782 200.9,372.689 197.179,368.969 193.575,372.689 
				193.575,374.782 196.482,371.759 196.482,403.964 			"/>
		</g>
	</g>
</g>
<text transform="matrix(1 0 0 1 255.0479 401.25)" font-family="'ProductusBook'" font-size="9.2777">create custom</text>
<text transform="matrix(1 0 0 1 255.0479 412.4111)" font-family="'ProductusBook'" font-size="9.2777">converter</text>
<g>
	<rect x="425.4" y="425.24" stroke="#000000" stroke-miterlimit="10" width="76.616" height="34.181"/>
	<rect x="422.959" y="423.031" fill="#FFFFFF" stroke="#000000" stroke-miterlimit="10" width="76.616" height="34.181"/>
	<text transform="matrix(1 0 0 1 426.6445 433.2373)" font-family="'ProductusBook'" font-size="9.2777">&lt;&lt;abstract class&gt;&gt;</text>
	<text transform="matrix(1 0 0 1 426.6445 443.4922)" font-family="'ProductusSemibold'" font-size="9.2777">Rule</text>
</g>
<g>
	<rect x="535.384" y="425.24" stroke="#000000" stroke-miterlimit="10" width="76.616" height="34.181"/>
	<rect x="532.942" y="423.031" fill="#FFFFFF" stroke="#000000" stroke-miterlimit="10" width="76.616" height="34.181"/>
	<text transform="matrix(1 0 0 1 536.5762 433.2373)" font-family="'ProductusBook'" font-size="9.2777">&lt;&lt;class&gt;&gt;</text>
	<text transform="matrix(1 0 0 1 536.5762 443.4922)" font-family="'ProductusSemibold'" font-size="9.2777">TypeRule</text>
</g>
<g>
	<g>
		<g>
			<rect x="510.853" y="383.037" fill="none" width="13.37" height="24.996"/>
			<g>
				<polygon fill="#202020" points="524.106,407.917 517.479,383.037 510.853,407.917 				"/>
			</g>
		</g>
	</g>
</g>
<line fill="none" stroke="#000000" stroke-width="0.75" stroke-miterlimit="10" x1="517.479" y1="368.969" x2="517.479" y2="383.502"/>
<polyline fill="none" stroke="#000000" stroke-width="0.75" stroke-miterlimit="10" points="461.325,423.031 461.325,407.452 
	571.192,407.452 571.192,423.031 "/>
</svg>
