<?xml version="1.0" encoding="utf-8"?>
<!-- Generator: Adobe Illustrator 16.0.1, SVG Export Plug-In . SVG Version: 6.00 Build 0)  -->
<!DOCTYPE svg PUBLIC "-//W3C//DTD SVG 1.1//EN" "http://www.w3.org/Graphics/SVG/1.1/DTD/svg11.dtd">
<svg version="1.1" id="Layer_1" xmlns="http://www.w3.org/2000/svg" xmlns:xlink="http://www.w3.org/1999/xlink" x="0px" y="0px"
	 width="181.729px" height="85.02px" viewBox="0 0 181.729 85.02" enable-background="new 0 0 181.729 85.02" xml:space="preserve">
<rect x="7.08" y="56.64" fill="#B3B3B3" width="56.698" height="28.38"/>
<rect x="120.48" y="0" fill="#B3B3B3" width="56.7" height="42.479"/>
<rect x="7.08" y="0" fill="#B3B3B3" width="56.698" height="42.479"/>
<rect x="14.16" y="7.08" width="42.54" height="14.159"/>
<rect x="14.16" y="6.84" width="42.778" height="0.479"/>
<rect x="56.46" y="7.08" width="0.479" height="14.397"/>
<rect x="13.92" y="21" width="42.78" height="0.479"/>
<rect x="13.92" y="6.84" width="0.479" height="14.399"/>
<text transform="matrix(1 0 0 1 21.241 16.26)" fill="#FFFFFF" font-family="'ProductusBook'" font-size="7.98">q-2.2.2</text>
<rect x="14.16" y="21.24" fill="#FFFFFF" width="42.54" height="14.158"/>
<rect x="14.16" y="21" width="42.778" height="0.479"/>
<rect x="56.46" y="21.24" width="0.479" height="14.398"/>
<rect x="13.92" y="35.16" width="42.78" height="0.479"/>
<rect x="13.92" y="21" width="0.479" height="14.397"/>
<text transform="matrix(1 0 0 1 21.241 30.4797)" font-family="'ProductusOSGiBookc'" font-size="7.98">p</text>
<text transform="matrix(1 0 0 1 2.441406e-04 72.6604)" font-family="'ProductusSemibold'" font-size="7.98">B</text>
<text transform="matrix(1 0 0 1 2.441406e-04 21.7805)" font-family="'ProductusSemibold'" font-size="7.98">A</text>
<rect x="35.22" y="35.16" width="0.48" height="0.237"/>
<rect x="35.22" y="35.399" width="0.48" height="28.62"/>
<text transform="matrix(1 0 0 1 35.4612 49.8596)" font-family="'ProductusOSGiBookc'" font-size="7.98"> </text>
<text transform="matrix(1 0 0 1 37.0251 49.8596)" font-family="'ProductusOSGiBookc'" font-size="7.98">version=[1,2)</text>
<polyline fill="#FFFFFF" points="46.08,14.16 45.36,14.22 44.7,14.399 44.1,14.76 43.56,15.18 43.14,15.72 42.78,16.319 
	42.6,16.979 42.54,17.699 42.54,24.779 42.6,25.5 42.78,26.16 43.14,26.76 43.56,27.3 44.1,27.72 44.7,28.02 45.36,28.26 
	46.08,28.319 46.8,28.26 47.46,28.02 48.06,27.72 48.6,27.3 49.02,26.76 49.32,26.16 49.56,25.5 49.62,24.779 49.62,17.699 
	49.56,16.979 49.32,16.319 49.02,15.72 48.6,15.18 48.06,14.76 47.46,14.399 46.8,14.22 46.08,14.16 "/>
<polyline points="46.14,14.399 45.42,14.46 44.76,14.64 44.82,14.64 44.22,15 44.28,14.939 43.74,15.359 43.32,15.899 43.38,15.84 
	43.02,16.439 43.02,16.38 42.84,17.04 42.78,17.76 42.78,17.699 42.78,24.779 42.84,25.5 42.84,25.439 43.02,26.1 43.02,26.04 
	43.38,26.64 43.32,26.64 43.74,27.18 43.74,27.12 44.28,27.54 44.22,27.54 44.82,27.84 44.82,27.779 45.48,28.02 45.42,28.02 
	46.14,28.08 46.08,28.08 46.8,28.02 46.74,28.02 47.4,27.779 47.34,27.84 47.94,27.54 48.48,27.12 48.42,27.18 48.84,26.64 
	49.14,26.04 49.08,26.1 49.32,25.439 49.32,25.5 49.38,24.779 49.38,17.699 49.38,17.76 49.32,17.04 49.32,17.1 49.08,16.439 
	49.14,16.439 48.84,15.84 48.84,15.899 48.42,15.359 48.48,15.359 47.94,14.939 47.94,15 47.34,14.64 47.4,14.64 46.74,14.46 
	46.8,14.46 46.08,14.399 46.14,13.92 46.86,13.979 47.52,14.16 47.58,14.22 48.18,14.58 48.24,14.58 48.78,15 48.78,15.06 
	49.2,15.6 49.26,15.6 49.56,16.199 49.56,16.26 49.8,16.92 49.8,16.979 49.86,17.699 49.86,24.84 49.8,25.56 49.8,25.62 
	49.56,26.279 49.26,26.88 49.2,26.939 48.78,27.479 48.24,27.899 48.18,27.96 47.58,28.26 46.92,28.5 46.86,28.5 46.14,28.56 
	46.08,28.56 45.36,28.5 45.3,28.5 44.64,28.26 44.58,28.26 43.98,27.96 43.98,27.899 43.44,27.479 43.38,27.479 42.96,26.939 
	42.96,26.88 42.6,26.279 42.54,26.22 42.36,25.56 42.3,24.84 42.3,17.699 42.36,16.979 42.36,16.92 42.54,16.26 42.6,16.199 
	42.96,15.6 43.38,15.06 43.44,15 43.98,14.58 44.58,14.22 44.64,14.16 45.3,13.979 45.36,13.979 46.08,13.92 "/>
<polyline points="46.08,14.399 46.14,14.399 46.08,13.92 46.14,13.92 "/>
<polyline points="108.96,21.24 108.96,17.939 109.26,18 119.64,21 120.48,21.24 119.64,21.479 109.26,24.42 108.96,24.479 
	108.96,24.18 109.14,23.939 119.52,21 119.64,21.479 119.52,21.479 109.14,18.479 109.26,18 109.44,18.24 109.44,21.24 "/>
<rect x="108.96" y="21.24" width="0.479" height="2.938"/>
<rect x="63.54" y="21" width="0.238" height="0.479"/>
<rect x="63.78" y="21" width="45.422" height="0.479"/>
<rect x="14.16" y="63.779" width="42.54" height="14.16"/>
<rect x="14.16" y="63.54" width="42.778" height="0.479"/>
<rect x="56.46" y="63.779" width="0.479" height="14.4"/>
<rect x="13.92" y="77.699" width="42.78" height="0.479"/>
<rect x="13.92" y="63.54" width="0.479" height="14.397"/>
<text transform="matrix(1 0 0 1 21.241 72.9602)" fill="#FFFFFF" font-family="'ProductusBook'" font-size="7.98">p-1.5.1</text>
<rect x="127.56" y="21.24" fill="#D9D9D9" width="42.54" height="14.158"/>
<rect x="127.56" y="21" width="42.78" height="0.479"/>
<rect x="169.86" y="21.24" width="0.48" height="14.398"/>
<rect x="127.32" y="35.16" width="42.78" height="0.479"/>
<rect x="127.32" y="21" width="0.48" height="14.397"/>
<text transform="matrix(1 0 0 1 134.6399 30.4797)" font-family="'ProductusOSGiBookc'" font-size="7.98">s</text>
<text transform="matrix(1 0 0 1 177.1809 18.8401)" font-family="'ProductusSemibold'" font-size="7.98">C</text>
<rect x="127.56" y="7.08" width="42.54" height="14.159"/>
<rect x="127.56" y="6.84" width="42.78" height="0.479"/>
<rect x="169.86" y="7.08" width="0.48" height="14.397"/>
<rect x="127.32" y="21" width="42.78" height="0.479"/>
<rect x="127.32" y="6.84" width="0.48" height="14.399"/>
<text transform="matrix(1 0 0 1 134.6399 16.26)" fill="#FFFFFF" font-family="'ProductusBook'" font-size="7.98">r</text>
</svg>
