<?xml version="1.0" encoding="utf-8"?>
<!-- Generator: Adobe Illustrator 16.0.0, SVG Export Plug-In . SVG Version: 6.00 Build 0)  -->
<!DOCTYPE svg PUBLIC "-//W3C//DTD SVG 1.1//EN" "http://www.w3.org/Graphics/SVG/1.1/DTD/svg11.dtd">
<svg version="1.1" id="Layer_1" xmlns="http://www.w3.org/2000/svg" xmlns:xlink="http://www.w3.org/1999/xlink" x="0px" y="0px"
	 width="297.9px" height="517.86px" viewBox="0 0 297.9 517.86" style="enable-background:new 0 0 297.9 517.86;"
	 xml:space="preserve">
<polyline points="35.52,0.48 34.74,0.54 34.08,0.66 33.36,0.78 33.42,0.78 32.82,1.02 32.16,1.32 31.56,1.68 31.62,1.62 31.08,2.04 
	30.12,3 30.18,2.94 29.82,3.48 29.46,4.08 29.16,4.68 28.92,5.34 28.92,5.28 28.74,6 28.62,6.66 28.56,7.38 28.56,7.32 28.62,8.04 
	28.74,8.76 28.74,8.7 28.92,9.36 29.16,10.02 29.46,10.68 29.46,10.62 30.18,11.7 30.12,11.7 30.6,12.24 30.6,12.18 31.08,12.6 
	31.62,13.02 31.56,13.02 32.16,13.38 32.82,13.68 33.42,13.92 33.36,13.86 34.08,14.04 34.74,14.16 34.68,14.16 78.66,14.16 
	79.38,14.04 79.32,14.04 79.98,13.86 80.64,13.62 80.58,13.68 81.18,13.38 81.42,13.8 80.82,14.1 80.16,14.34 80.1,14.34 
	79.44,14.52 78.72,14.64 34.68,14.64 34.02,14.52 33.96,14.52 33.24,14.34 32.64,14.1 31.98,13.8 31.92,13.8 31.32,13.44 
	31.32,13.38 30.78,12.96 30.3,12.54 30.24,12.54 29.76,12 29.76,11.94 29.04,10.86 28.74,10.2 28.68,10.2 28.44,9.54 28.44,9.48 
	28.26,8.82 28.14,8.1 28.08,7.38 28.08,7.32 28.14,6.6 28.26,5.94 28.26,5.88 28.44,5.16 28.68,4.5 28.74,4.44 29.04,3.84 
	29.4,3.24 29.76,2.7 29.76,2.64 30.72,1.68 30.78,1.68 31.32,1.26 31.92,0.9 31.98,0.9 32.64,0.6 33.24,0.36 33.3,0.3 34.02,0.18 
	34.68,0.06 35.46,0 "/>
<polyline points="81.18,13.38 81.78,13.02 82.86,12.18 82.8,12.24 83.64,11.16 84,10.62 84,10.68 84.3,10.02 84.24,10.02 
	84.48,9.36 84.66,8.7 84.66,8.76 84.78,8.04 84.78,6.6 84.78,6.66 84.66,6 84.48,5.28 84.48,5.34 84.24,4.68 84.3,4.68 84,4.08 
	83.64,3.48 83.64,3.54 83.22,3 82.8,2.52 82.86,2.52 82.32,2.04 81.78,1.62 81.78,1.68 81.18,1.32 80.58,1.02 80.64,1.02 
	79.98,0.78 80.04,0.78 79.38,0.66 78.66,0.54 77.94,0.48 35.46,0.48 35.52,0.48 35.46,0 78,0 78.72,0.06 79.44,0.18 80.1,0.3 
	80.16,0.3 80.82,0.54 80.82,0.6 81.42,0.9 82.02,1.26 82.08,1.26 82.62,1.68 83.16,2.16 83.16,2.22 83.58,2.7 84,3.24 84.06,3.24 
	84.42,3.84 84.72,4.44 84.72,4.5 84.96,5.16 85.14,5.88 85.14,5.94 85.26,6.6 85.26,8.1 85.14,8.82 84.96,9.48 84.96,9.54 
	84.72,10.2 84.42,10.86 84.06,11.4 84,11.46 83.16,12.54 82.08,13.38 82.02,13.44 81.42,13.8 "/>
<polyline points="56.82,28.86 28.44,43.02 28.2,43.02 28.44,42.6 56.82,56.76 56.82,57.18 56.58,56.76 84.9,42.6 85.14,42.6 
	85.62,42.84 85.14,43.02 56.7,57.24 56.58,57.18 28.2,43.02 27.84,42.84 28.2,42.6 56.58,28.44 "/>
<polyline points="84.9,43.02 56.58,28.86 56.58,28.44 56.7,28.38 56.82,28.44 85.14,42.6 "/>
<text transform="matrix(1 0 0 1 48.48 43.98)"><tspan x="0" y="0" style="font-family:'ProductusOSGiBookc'; font-size:7.98;">j</tspan><tspan x="1.516" y="0" style="font-family:'ProductusOSGiBookc'; font-size:7.98;">a</tspan><tspan x="4.7" y="0" style="font-family:'ProductusOSGiBookc'; font-size:7.98;">v</tspan><tspan x="7.876" y="0" style="font-family:'ProductusOSGiBookc'; font-size:7.98;">a</tspan><tspan x="11.124" y="0" style="font-family:'ProductusOSGiBookc'; font-size:7.98;">.</tspan><tspan x="12.672" y="0" style="font-family:'ProductusOSGiBookc'; font-size:7.98;">*</tspan><tspan x="16.75" y="0" style="font-family:'ProductusOSGiBookc'; font-size:7.98;">?</tspan></text>
<rect x="113.4" y="28.38" width="56.939" height="0.48"/>
<rect x="169.86" y="28.62" width="0.479" height="28.56"/>
<rect x="113.16" y="56.7" width="56.94" height="0.48"/>
<rect x="113.16" y="28.38" width="0.48" height="28.56"/>
<rect x="84.78" y="42.54" width="0.24" height="0.48"/>
<rect x="85.02" y="42.54" width="28.62" height="0.48"/>
<rect x="56.46" y="14.16" width="0.48" height="0.24"/>
<rect x="56.46" y="14.4" width="0.48" height="14.46"/>
<text transform="matrix(1 0 0 1 118.5601 35.9399)"><tspan x="0" y="0" style="font-family:'ProductusOSGiBookc'; font-size:7.98;">De</tspan><tspan x="8.387" y="0" style="font-family:'ProductusOSGiBookc'; font-size:7.98;">l</tspan><tspan x="9.895" y="0" style="font-family:'ProductusOSGiBookc'; font-size:7.98;">egat</tspan><tspan x="22.463" y="0" style="font-family:'ProductusOSGiBookc'; font-size:7.98;">e</tspan><tspan x="25.887" y="0" style="font-family:'ProductusOSGiBookc'; font-size:7.98;"> </tspan><tspan x="27.507" y="0" style="font-family:'ProductusOSGiBookc'; font-size:7.98;">t</tspan><tspan x="29.845" y="0" style="font-family:'ProductusOSGiBookc'; font-size:7.98;">o</tspan></text>
<text transform="matrix(1 0 0 1 118.5601 45.6597)"><tspan x="0" y="0" style="font-family:'ProductusOSGiBookc'; font-size:7.98;">pa</tspan><tspan x="6.958" y="0" style="font-family:'ProductusOSGiBookc'; font-size:7.98;">r</tspan><tspan x="9.001" y="0" style="font-family:'ProductusOSGiBookc'; font-size:7.98;">en</tspan><tspan x="16.135" y="0" style="font-family:'ProductusOSGiBookc'; font-size:7.98;">t</tspan><tspan x="18.417" y="0" style="font-family:'ProductusOSGiBookc'; font-size:7.98;"> </tspan><tspan x="20.038" y="0" style="font-family:'ProductusOSGiBookc'; font-size:7.98;">cla</tspan><tspan x="27.938" y="0" style="font-family:'ProductusOSGiBookc'; font-size:7.98;">s</tspan><tspan x="30.699" y="0" style="font-family:'ProductusOSGiBookc'; font-size:7.98;">s</tspan><tspan x="33.507" y="0" style="font-family:'ProductusOSGiBookc'; font-size:7.98;"> </tspan><tspan x="35.127" y="0" style="font-family:'ProductusOSGiBookc'; font-size:7.98;">l</tspan><tspan x="36.635" y="0" style="font-family:'ProductusOSGiBookc'; font-size:7.98;">o</tspan><tspan x="40.41" y="0" style="font-family:'ProductusOSGiBookc'; font-size:7.98;">ade</tspan><tspan x="50.847" y="0" style="font-family:'ProductusOSGiBookc'; font-size:7.98;">r</tspan></text>
<text transform="matrix(1 0 0 1 90.1802 40.1997)"><tspan x="0" y="0" style="font-family:'ProductusOSGiBookc'; font-size:7.98;">y</tspan><tspan x="3" y="0" style="font-family:'ProductusOSGiBookc'; font-size:7.98;">e</tspan><tspan x="6.479" y="0" style="font-family:'ProductusOSGiBookc'; font-size:7.98;">s</tspan></text>
<polyline points="56.76,142.2 28.44,156.42 28.2,156.42 28.44,156 56.76,170.16 56.76,170.58 56.52,170.16 84.9,156 85.14,156 
	85.62,156.24 85.14,156.42 56.76,170.58 56.64,170.64 27.84,156.24 28.2,156 56.52,141.78 "/>
<polyline points="84.9,156.42 56.52,142.2 56.52,141.78 56.64,141.72 56.76,141.78 85.14,156 "/>
<text transform="matrix(1 0 0 1 41.8804 158.04)"><tspan x="0" y="0" style="font-family:'ProductusOSGiBookc'; font-size:7.98;">i</tspan><tspan x="1.524" y="0" style="font-family:'ProductusOSGiBookc'; font-size:7.98;">m</tspan><tspan x="7.278" y="0" style="font-family:'ProductusOSGiBookc'; font-size:7.98;">p</tspan><tspan x="10.933" y="0" style="font-family:'ProductusOSGiBookc'; font-size:7.98;">o</tspan><tspan x="14.707" y="0" style="font-family:'ProductusOSGiBookc'; font-size:7.98;">r</tspan><tspan x="16.917" y="0" style="font-family:'ProductusOSGiBookc'; font-size:7.98;">te</tspan><tspan x="22.735" y="0" style="font-family:'ProductusOSGiBookc'; font-size:7.98;">d</tspan><tspan x="26.158" y="0" style="font-family:'ProductusOSGiBookc'; font-size:7.98;">?</tspan></text>
<rect x="113.34" y="141.72" width="56.94" height="0.48"/>
<rect x="169.8" y="141.96" width="0.48" height="28.62"/>
<rect x="113.1" y="170.1" width="56.94" height="0.48"/>
<rect x="113.1" y="141.72" width="0.48" height="28.62"/>
<rect x="84.78" y="155.94" width="0.24" height="0.48"/>
<rect x="85.02" y="155.94" width="28.56" height="0.48"/>
<rect x="56.46" y="106.32" width="0.48" height="0.24"/>
<rect x="56.46" y="106.56" width="0.48" height="35.64"/>
<text transform="matrix(1 0 0 1 118.5601 149.3398)"><tspan x="0" y="0" style="font-family:'ProductusOSGiBookc'; font-size:7.98;">D</tspan><tspan x="4.86" y="0" style="font-family:'ProductusOSGiBookc'; font-size:7.98;">e</tspan><tspan x="8.339" y="0" style="font-family:'ProductusOSGiBookc'; font-size:7.98;">leg</tspan><tspan x="16.846" y="0" style="font-family:'ProductusOSGiBookc'; font-size:7.98;">a</tspan><tspan x="20.085" y="0" style="font-family:'ProductusOSGiBookc'; font-size:7.98;">te</tspan><tspan x="25.918" y="0" style="font-family:'ProductusOSGiBookc'; font-size:7.98;"> </tspan><tspan x="27.539" y="0" style="font-family:'ProductusOSGiBookc'; font-size:7.98;">t</tspan><tspan x="29.885" y="0" style="font-family:'ProductusOSGiBookc'; font-size:7.98;">o</tspan></text>
<text transform="matrix(1 0 0 1 118.5601 159.0596)"><tspan x="0" y="0" style="font-family:'ProductusOSGiBookc'; font-size:7.98;">w</tspan><tspan x="5.035" y="0" style="font-family:'ProductusOSGiBookc'; font-size:7.98;">i</tspan><tspan x="6.543" y="0" style="font-family:'ProductusOSGiBookc'; font-size:7.98;">r</tspan><tspan x="8.586" y="0" style="font-family:'ProductusOSGiBookc'; font-size:7.98;">e</tspan><tspan x="11.826" y="0" style="font-family:'ProductusOSGiBookc'; font-size:7.98;">’</tspan><tspan x="13.087" y="0" style="font-family:'ProductusOSGiBookc'; font-size:7.98;">s</tspan><tspan x="15.904" y="0" style="font-family:'ProductusOSGiBookc'; font-size:7.98;"> </tspan><tspan x="17.524" y="0" style="font-family:'ProductusOSGiBookc'; font-size:7.98;">exporter</tspan></text>
<text transform="matrix(1 0 0 1 90.1802 153.5996)"><tspan x="0" y="0" style="font-family:'ProductusOSGiBookc'; font-size:7.98;">y</tspan><tspan x="3" y="0" style="font-family:'ProductusOSGiBookc'; font-size:7.98;">e</tspan><tspan x="6.479" y="0" style="font-family:'ProductusOSGiBookc'; font-size:7.98;">s</tspan></text>
<text transform="matrix(1 0 0 1 59.52 69.2998)"><tspan x="0" y="0" style="font-family:'ProductusOSGiBookc'; font-size:7.98;">n</tspan><tspan x="3.655" y="0" style="font-family:'ProductusOSGiBookc'; font-size:7.98;">o</tspan></text>
<polyline points="56.82,454.08 28.44,468.24 28.2,468.24 28.44,467.82 56.82,481.98 56.82,482.4 56.58,481.98 84.9,467.82 
	85.14,467.82 85.62,468.06 85.14,468.24 56.7,482.459 56.58,482.4 28.2,468.24 27.84,468.06 28.2,467.82 56.58,453.66 "/>
<polyline points="84.9,468.24 56.58,454.08 56.58,453.66 56.7,453.6 85.14,467.82 "/>
<text transform="matrix(1 0 0 1 44.6401 465.6001)"><tspan x="0" y="0" style="font-family:'ProductusOSGiBookc'; font-size:7.98;">dyna</tspan><tspan x="13.741" y="0" style="font-family:'ProductusOSGiBookc'; font-size:7.98;">m</tspan><tspan x="19.495" y="0" style="font-family:'ProductusOSGiBookc'; font-size:7.98;">i</tspan><tspan x="21.003" y="0" style="font-family:'ProductusOSGiBookc'; font-size:7.98;">c</tspan></text>
<rect x="84.78" y="467.76" width="0.24" height="0.479"/>
<rect x="85.02" y="467.76" width="28.62" height="0.479"/>
<rect x="56.4" y="170.1" width="0.48" height="0.24"/>
<rect x="56.4" y="170.34" width="0.48" height="28.56"/>
<text transform="matrix(1 0 0 1 59.52 182.6997)"><tspan x="0" y="0" style="font-family:'ProductusOSGiBookc'; font-size:7.98;">n</tspan><tspan x="3.655" y="0" style="font-family:'ProductusOSGiBookc'; font-size:7.98;">o</tspan></text>
<text transform="matrix(1 0 0 1 45.48 475.3198)"><tspan x="0" y="0" style="font-family:'ProductusOSGiBookc'; font-size:7.98;">i</tspan><tspan x="1.524" y="0" style="font-family:'ProductusOSGiBookc'; font-size:7.98;">m</tspan><tspan x="7.278" y="0" style="font-family:'ProductusOSGiBookc'; font-size:7.98;">p</tspan><tspan x="10.933" y="0" style="font-family:'ProductusOSGiBookc'; font-size:7.98;">o</tspan><tspan x="14.707" y="0" style="font-family:'ProductusOSGiBookc'; font-size:7.98;">r</tspan><tspan x="16.917" y="0" style="font-family:'ProductusOSGiBookc'; font-size:7.98;">t</tspan><tspan x="19.024" y="0" style="font-family:'ProductusOSGiBookc'; font-size:7.98;">?</tspan></text>
<rect x="29.04" y="198.42" width="56.94" height="0.48"/>
<rect x="85.5" y="198.66" width="0.48" height="28.62"/>
<rect x="28.8" y="226.8" width="56.94" height="0.48"/>
<rect x="28.8" y="198.42" width="0.48" height="28.62"/>
<text transform="matrix(1 0 0 1 34.2002 206.04)"><tspan x="0" y="0" style="font-family:'ProductusOSGiBookc'; font-size:7.98;">S</tspan><tspan x="3.695" y="0" style="font-family:'ProductusOSGiBookc'; font-size:7.98;">e</tspan><tspan x="7.174" y="0" style="font-family:'ProductusOSGiBookc'; font-size:7.98;">a</tspan><tspan x="10.422" y="0" style="font-family:'ProductusOSGiBookc'; font-size:7.98;">r</tspan><tspan x="12.465" y="0" style="font-family:'ProductusOSGiBookc'; font-size:7.98;">c</tspan><tspan x="15.529" y="0" style="font-family:'ProductusOSGiBookc'; font-size:7.98;">h</tspan><tspan x="19.184" y="0" style="font-family:'ProductusOSGiBookc'; font-size:7.98;"> </tspan><tspan x="20.804" y="0" style="font-family:'ProductusOSGiBookc'; font-size:7.98;">R</tspan><tspan x="24.291" y="0" style="font-family:'ProductusOSGiBookc'; font-size:7.98;">e</tspan><tspan x="27.77" y="0" style="font-family:'ProductusOSGiBookc'; font-size:7.98;">qu</tspan><tspan x="35.104" y="0" style="font-family:'ProductusOSGiBookc'; font-size:7.98;">i</tspan><tspan x="36.611" y="0" style="font-family:'ProductusOSGiBookc'; font-size:7.98;">r</tspan><tspan x="38.654" y="0" style="font-family:'ProductusOSGiBookc'; font-size:7.98;">e</tspan><tspan x="42.142" y="0" style="font-family:'ProductusOSGiBookc'; font-size:7.98;">d</tspan></text>
<text transform="matrix(1 0 0 1 34.2002 215.7593)"><tspan x="0" y="0" style="font-family:'ProductusOSGiBookc'; font-size:7.98;">bundl</tspan><tspan x="16.199" y="0" style="font-family:'ProductusOSGiBookc'; font-size:7.98;">es</tspan></text>
<polyline points="142.56,198.9 114.18,213.12 113.94,213.12 114.18,212.7 142.56,226.86 142.56,227.28 142.32,226.86 170.641,212.7 
	170.88,212.7 171.36,212.94 170.88,213.12 142.44,227.34 142.32,227.28 113.94,213.12 113.58,212.94 113.94,212.7 142.32,198.48 "/>
<polyline points="170.641,213.12 142.32,198.9 142.32,198.48 142.44,198.42 142.56,198.48 170.88,212.7 "/>
<text transform="matrix(1 0 0 1 133.2603 214.7397)"><tspan x="0" y="0" style="font-family:'ProductusOSGiBookc'; font-size:7.98;">foun</tspan><tspan x="13.079" y="0" style="font-family:'ProductusOSGiBookc'; font-size:7.98;">d</tspan><tspan x="16.502" y="0" style="font-family:'ProductusOSGiBookc'; font-size:7.98;">?</tspan></text>
<rect x="85.5" y="212.64" width="0.24" height="0.48"/>
<rect x="85.74" y="212.64" width="28.56" height="0.48"/>
<rect x="29.04" y="262.2" width="56.94" height="0.48"/>
<rect x="85.5" y="262.44" width="0.48" height="28.62"/>
<rect x="28.8" y="290.58" width="56.94" height="0.48"/>
<rect x="28.8" y="262.2" width="0.48" height="28.62"/>
<text transform="matrix(1 0 0 1 34.2002 269.8198)"><tspan x="0" y="0" style="font-family:'ProductusOSGiBookc'; font-size:7.98;">Se</tspan><tspan x="7.166" y="0" style="font-family:'ProductusOSGiBookc'; font-size:7.98;">a</tspan><tspan x="10.406" y="0" style="font-family:'ProductusOSGiBookc'; font-size:7.98;">r</tspan><tspan x="12.449" y="0" style="font-family:'ProductusOSGiBookc'; font-size:7.98;">ch</tspan><tspan x="19.176" y="0" style="font-family:'ProductusOSGiBookc'; font-size:7.98;"> </tspan><tspan x="20.795" y="0" style="font-family:'ProductusOSGiBookc'; font-size:7.98;">bundl</tspan><tspan x="36.995" y="0" style="font-family:'ProductusOSGiBookc'; font-size:7.98;">e</tspan></text>
<text transform="matrix(1 0 0 1 34.2002 279.5396)"><tspan x="0" y="0" style="font-family:'ProductusOSGiBookc'; font-size:7.98;">class</tspan><tspan x="13.518" y="0" style="font-family:'ProductusOSGiBookc'; font-size:7.98;"> </tspan><tspan x="15.138" y="0" style="font-family:'ProductusOSGiBookc'; font-size:7.98;">p</tspan><tspan x="18.8" y="0" style="font-family:'ProductusOSGiBookc'; font-size:7.98;">at</tspan><tspan x="24.426" y="0" style="font-family:'ProductusOSGiBookc'; font-size:7.98;">h</tspan></text>
<rect x="142.2" y="226.8" width="0.48" height="14.64"/>
<rect x="57.18" y="240.96" width="85.26" height="0.48"/>
<rect x="57.18" y="241.2" width="0.48" height="21.48"/>
<text transform="matrix(1 0 0 1 175.6797 210.54)"><tspan x="0" y="0" style="font-family:'ProductusOSGiBookc'; font-size:7.98;">y</tspan><tspan x="3" y="0" style="font-family:'ProductusOSGiBookc'; font-size:7.98;">e</tspan><tspan x="6.479" y="0" style="font-family:'ProductusOSGiBookc'; font-size:7.98;">s</tspan></text>
<text transform="matrix(1 0 0 1 127.9199 238.8599)"><tspan x="0" y="0" style="font-family:'ProductusOSGiBookc'; font-size:7.98;">n</tspan><tspan x="3.655" y="0" style="font-family:'ProductusOSGiBookc'; font-size:7.98;">o</tspan></text>
<rect x="169.86" y="155.94" width="28.8" height="0.48"/>
<rect x="170.521" y="212.64" width="28.859" height="0.48"/>
<polyline points="226.86,28.86 198.54,43.02 198.3,43.02 198.54,42.6 226.86,56.76 226.86,57.18 226.62,56.76 255,42.6 255.24,42.6 
	255.72,42.84 255.24,43.02 226.86,57.18 226.74,57.24 197.82,42.78 198.3,42.6 226.62,28.44 "/>
<polyline points="255,43.02 226.62,28.86 226.62,28.44 226.74,28.38 226.86,28.44 255.24,42.6 "/>
<text transform="matrix(1 0 0 1 217.1406 43.98)"><tspan x="0" y="0" style="font-family:'ProductusOSGiBookc'; font-size:7.98;">foun</tspan><tspan x="13.079" y="0" style="font-family:'ProductusOSGiBookc'; font-size:7.98;">d</tspan><tspan x="16.502" y="0" style="font-family:'ProductusOSGiBookc'; font-size:7.98;">?</tspan></text>
<rect x="254.88" y="42.54" width="28.8" height="0.48"/>
<text transform="matrix(1 0 0 1 260.2803 40.2002)"><tspan x="0" y="0" style="font-family:'ProductusOSGiBookc'; font-size:7.98;">y</tspan><tspan x="3" y="0" style="font-family:'ProductusOSGiBookc'; font-size:7.98;">e</tspan><tspan x="6.479" y="0" style="font-family:'ProductusOSGiBookc'; font-size:7.98;">s</tspan></text>
<rect x="169.86" y="42.54" width="28.8" height="0.48"/>
<polyline points="226.86,142.2 198.54,156.42 198.3,156.42 198.54,156 226.86,170.16 226.86,170.58 226.62,170.16 255,156 
	255.24,156 255.72,156.24 255.24,156.42 226.86,170.58 226.74,170.64 197.94,156.24 198.3,156 226.62,141.78 "/>
<polyline points="255,156.42 226.62,142.2 226.62,141.78 226.74,141.72 226.86,141.78 255.24,156 "/>
<text transform="matrix(1 0 0 1 218.2197 157.3198)"><tspan x="0" y="0" style="font-family:'ProductusOSGiBookc'; font-size:7.98;">foun</tspan><tspan x="13.079" y="0" style="font-family:'ProductusOSGiBookc'; font-size:7.98;">d</tspan><tspan x="16.502" y="0" style="font-family:'ProductusOSGiBookc'; font-size:7.98;">?</tspan></text>
<rect x="254.88" y="155.94" width="28.8" height="0.48"/>
<text transform="matrix(1 0 0 1 233.5205 175.0801)"><tspan x="0" y="0" style="font-family:'ProductusOSGiBookc'; font-size:7.98;">n</tspan><tspan x="3.654" y="0" style="font-family:'ProductusOSGiBookc'; font-size:7.98;">o</tspan></text>
<text transform="matrix(1 0 0 1 259.9805 153.8394)"><tspan x="0" y="0" style="font-family:'ProductusOSGiBookc'; font-size:7.98;">y</tspan><tspan x="3" y="0" style="font-family:'ProductusOSGiBookc'; font-size:7.98;">e</tspan><tspan x="6.479" y="0" style="font-family:'ProductusOSGiBookc'; font-size:7.98;">s</tspan></text>
<polyline points="142.56,326.459 114.18,340.68 113.94,340.68 114.18,340.26 142.56,354.419 142.56,354.839 142.32,354.419 
	170.641,340.26 170.88,340.26 171.36,340.5 170.88,340.68 142.44,354.9 142.32,354.839 113.94,340.68 113.58,340.5 113.94,340.26 
	142.32,326.04 "/>
<polyline points="170.641,340.68 142.32,326.459 142.32,326.04 142.44,325.98 142.56,326.04 170.88,340.26 "/>
<text transform="matrix(1 0 0 1 133.8003 340.9194)"><tspan x="0" y="0" style="font-family:'ProductusOSGiBookc'; font-size:7.98;">f</tspan><tspan x="2.019" y="0" style="font-family:'ProductusOSGiBookc'; font-size:7.98;">o</tspan><tspan x="5.746" y="0" style="font-family:'ProductusOSGiBookc'; font-size:7.98;">un</tspan><tspan x="13.087" y="0" style="font-family:'ProductusOSGiBookc'; font-size:7.98;">d</tspan><tspan x="16.51" y="0" style="font-family:'ProductusOSGiBookc'; font-size:7.98;">?</tspan></text>
<rect x="85.5" y="340.2" width="28.8" height="0.48"/>
<text transform="matrix(1 0 0 1 145.6201 361.4399)"><tspan x="0" y="0" style="font-family:'ProductusOSGiBookc'; font-size:7.98;">n</tspan><tspan x="3.606" y="0" style="font-family:'ProductusOSGiBookc'; font-size:7.98;">o</tspan></text>
<text transform="matrix(1 0 0 1 175.6797 338.1001)"><tspan x="0" y="0" style="font-family:'ProductusOSGiBookc'; font-size:7.98;">y</tspan><tspan x="2.944" y="0" style="font-family:'ProductusOSGiBookc'; font-size:7.98;">e</tspan><tspan x="6.424" y="0" style="font-family:'ProductusOSGiBookc'; font-size:7.98;">s</tspan></text>
<polyline points="297.36,42.78 297.36,42.06 297.36,42.12 297.24,41.4 297.061,40.74 297.061,40.8 296.82,40.14 296.88,40.14 
	296.58,39.54 296.22,38.94 296.22,39 295.38,37.92 295.44,37.92 294.36,37.08 294.36,37.14 293.82,36.78 293.88,36.78 293.22,36.48 
	292.561,36.24 291.9,36.06 291.96,36.06 291.24,35.94 289.8,35.94 289.86,35.94 289.141,36.06 288.48,36.24 288.54,36.24 
	287.88,36.48 287.28,36.78 286.68,37.14 286.74,37.08 286.2,37.5 285.72,37.92 285.24,38.46 284.82,39 284.88,38.94 284.521,39.54 
	284.22,40.14 283.98,40.8 283.98,40.74 283.86,41.4 283.74,42.12 283.68,42.84 283.68,42.78 283.74,43.5 283.86,44.22 283.98,44.88 
	283.98,44.82 284.22,45.48 284.22,45.42 284.521,46.02 284.88,46.62 284.82,46.62 285.24,47.16 285.24,47.1 286.2,48.06 
	285.9,48.42 285.84,48.42 284.88,47.46 284.46,46.92 284.46,46.86 284.101,46.26 283.8,45.66 283.74,45.66 283.5,45 283.5,44.94 
	283.38,44.28 283.26,43.56 283.2,42.84 283.2,42.78 283.26,42.06 283.38,41.34 283.5,40.68 283.5,40.62 283.74,39.96 283.8,39.9 
	284.101,39.3 284.46,38.7 284.88,38.16 285.36,37.62 285.42,37.56 285.9,37.14 286.44,36.72 287.04,36.36 287.641,36.06 287.7,36 
	288.36,35.76 289.021,35.58 289.08,35.58 289.8,35.46 291.3,35.46 292.021,35.58 292.68,35.76 292.74,35.76 293.4,36 293.4,36.06 
	294.061,36.36 294.601,36.72 294.66,36.72 295.74,37.56 295.74,37.62 296.58,38.7 296.641,38.7 297,39.3 297.3,39.9 297.3,39.96 
	297.54,40.62 297.72,41.28 297.72,41.34 297.84,42.06 297.84,42.78 "/>
<polyline points="286.2,48.06 286.74,48.48 286.68,48.48 287.28,48.84 287.88,49.14 287.88,49.08 288.54,49.32 288.48,49.32 
	289.141,49.5 289.86,49.56 290.58,49.62 290.521,49.62 291.24,49.56 291.96,49.5 291.9,49.5 292.561,49.32 293.22,49.08 
	293.22,49.14 293.88,48.84 293.82,48.84 294.36,48.48 294.9,48.06 295.44,47.58 295.38,47.64 295.8,47.16 296.22,46.62 
	296.58,46.02 296.88,45.42 296.82,45.48 297.061,44.82 297.24,44.16 297.24,44.22 297.36,43.5 297.36,42.78 297.84,42.78 
	297.84,43.56 297.72,44.28 297.54,44.94 297.54,45 297.3,45.66 297,46.26 296.641,46.86 296.58,46.92 296.16,47.46 295.74,47.94 
	295.2,48.42 294.66,48.84 294.601,48.9 294.061,49.26 293.4,49.56 292.74,49.8 292.68,49.8 292.021,49.98 291.3,50.04 290.58,50.1 
	290.521,50.1 289.8,50.04 289.08,49.98 289.021,49.98 288.36,49.8 287.7,49.56 287.641,49.56 287.04,49.26 286.44,48.9 
	286.44,48.84 285.9,48.42 "/>
<polyline style="fill-rule:evenodd;clip-rule:evenodd;" points="233.88,7.32 233.82,6.6 233.7,5.94 233.521,5.22 233.28,4.56 
	232.98,3.96 232.62,3.36 232.26,2.82 231.3,1.86 230.7,1.44 230.16,1.08 229.5,0.78 228.9,0.6 228.18,0.42 227.521,0.3 226.74,0.24 
	226.021,0.3 225.36,0.42 224.641,0.6 223.98,0.78 223.38,1.08 222.78,1.44 222.24,1.86 221.28,2.82 220.86,3.36 220.26,4.56 
	220.021,5.22 219.84,5.94 219.72,6.6 219.66,7.32 219.72,8.04 219.84,8.76 220.021,9.42 220.26,10.08 220.561,10.74 220.86,11.28 
	221.28,11.82 221.76,12.36 222.24,12.78 222.78,13.2 223.38,13.56 223.98,13.86 224.641,14.1 225.36,14.28 226.021,14.4 
	227.521,14.4 228.18,14.28 228.9,14.1 229.5,13.86 230.16,13.56 230.7,13.2 231.3,12.78 231.78,12.36 232.26,11.82 232.98,10.74 
	233.28,10.08 233.521,9.42 233.7,8.76 233.82,8.04 233.88,7.32 "/>
<polyline points="233.641,7.38 233.58,6.66 233.46,6 233.28,5.28 233.28,5.34 233.04,4.68 233.101,4.68 232.8,4.08 232.44,3.48 
	232.08,2.94 232.08,3 231.12,2.04 231.18,2.1 230.58,1.68 230.04,1.32 230.101,1.32 229.44,1.02 228.84,0.84 228.12,0.66 
	228.18,0.66 227.521,0.54 226.74,0.48 226.8,0.48 226.08,0.54 225.42,0.66 224.7,0.84 224.04,1.02 224.101,1.02 223.5,1.32 
	222.9,1.68 222.96,1.62 222.42,2.04 221.46,3 221.04,3.54 221.101,3.48 220.5,4.68 220.26,5.34 220.26,5.28 220.08,6 219.96,6.66 
	219.9,7.38 219.9,7.32 219.96,8.04 220.08,8.76 220.08,8.7 220.26,9.36 220.5,10.02 220.8,10.68 220.8,10.62 221.101,11.16 
	221.04,11.16 221.46,11.7 221.94,12.24 221.94,12.18 222.42,12.6 222.12,12.96 221.641,12.54 221.58,12.54 221.101,12 220.68,11.46 
	220.68,11.4 220.38,10.86 220.08,10.2 220.021,10.2 219.78,9.54 219.78,9.48 219.601,8.82 219.48,8.1 219.42,7.38 219.42,7.32 
	219.48,6.6 219.601,5.94 219.601,5.88 219.78,5.16 220.021,4.5 220.08,4.44 220.68,3.24 221.101,2.7 221.101,2.64 222.061,1.68 
	222.12,1.68 222.66,1.26 223.26,0.9 223.86,0.6 223.92,0.54 224.58,0.36 225.3,0.18 225.36,0.18 226.021,0.06 226.74,0 226.8,0 
	227.58,0.06 228.24,0.18 228.96,0.36 229.561,0.54 229.62,0.6 230.28,0.9 230.82,1.26 230.88,1.26 231.48,1.68 232.44,2.64 
	232.5,2.7 232.86,3.24 233.22,3.84 233.521,4.44 233.521,4.5 233.76,5.16 233.94,5.88 233.94,5.94 234.061,6.6 234.12,7.32 "/>
<polyline points="222.42,12.6 222.96,13.02 222.9,13.02 223.5,13.38 224.101,13.68 224.101,13.62 224.76,13.86 224.7,13.86 
	225.42,14.04 226.08,14.16 226.021,14.16 227.521,14.16 228.18,14.04 228.12,14.04 228.84,13.86 228.84,13.92 229.44,13.68 
	230.101,13.38 230.04,13.38 230.58,13.02 231.18,12.6 231.66,12.18 231.601,12.24 232.08,11.7 232.8,10.62 232.8,10.68 
	233.101,10.02 233.04,10.02 233.28,9.36 233.46,8.7 233.46,8.76 233.58,8.04 233.641,7.32 233.641,7.38 234.12,7.32 234.12,7.38 
	234.061,8.1 233.94,8.82 233.76,9.48 233.76,9.54 233.521,10.2 233.22,10.86 232.5,11.94 232.44,12 231.96,12.54 231.48,12.96 
	231.48,13.02 230.88,13.44 230.82,13.44 230.28,13.8 229.62,14.1 229.021,14.34 228.96,14.34 228.24,14.52 227.58,14.64 
	226.021,14.64 225.36,14.52 225.3,14.52 224.58,14.34 223.92,14.1 223.86,14.1 223.26,13.8 222.66,13.44 222.66,13.38 222.12,12.96 
	"/>
<rect x="226.5" y="14.16" width="0.48" height="14.7"/>
<text transform="matrix(1 0 0 1 233.5205 21.7798)"><tspan x="0" y="0" style="font-family:'ProductusOSGiBookc'; font-size:7.98;">n</tspan><tspan x="3.654" y="0" style="font-family:'ProductusOSGiBookc'; font-size:7.98;">o</tspan></text>
<polyline points="297.42,156.24 297.36,155.52 297.24,154.8 297.061,154.14 297.061,154.2 296.82,153.54 296.88,153.54 
	296.58,152.88 295.86,151.8 295.86,151.86 295.38,151.32 295.44,151.32 294.96,150.9 294.96,150.96 294.36,150.54 293.82,150.18 
	293.88,150.18 293.22,149.88 292.62,149.64 291.9,149.46 291.96,149.46 291.3,149.34 289.8,149.34 289.86,149.34 289.2,149.46 
	288.48,149.64 288.54,149.64 287.88,149.88 287.28,150.18 286.68,150.54 286.74,150.48 286.2,150.9 285.72,151.32 285.24,151.86 
	285.3,151.8 284.58,152.88 284.28,153.54 284.04,154.2 284.04,154.14 283.86,154.8 283.74,155.52 283.68,156.24 283.68,156.18 
	283.74,156.9 283.86,157.62 283.86,157.56 284.04,158.22 284.28,158.88 284.28,158.82 284.58,159.42 284.94,160.02 285.3,160.56 
	285.24,160.5 286.2,161.46 285.9,161.82 285.84,161.82 284.88,160.86 284.88,160.8 284.521,160.26 284.16,159.66 283.86,159.06 
	283.8,159.06 283.561,158.4 283.561,158.34 283.38,157.68 283.26,156.96 283.2,156.24 283.2,156.18 283.26,155.46 283.38,154.74 
	283.38,154.68 283.561,154.02 283.8,153.36 283.86,153.36 284.16,152.7 284.16,152.64 284.88,151.56 285.36,151.02 285.42,150.96 
	285.9,150.54 286.44,150.12 287.04,149.76 287.641,149.46 287.7,149.4 288.36,149.16 289.08,148.98 289.141,148.98 289.8,148.86 
	291.36,148.86 292.021,148.98 292.74,149.16 292.8,149.22 293.4,149.46 294.061,149.76 294.601,150.12 294.66,150.12 295.26,150.54 
	295.74,150.96 295.74,151.02 296.22,151.56 296.28,151.56 297,152.64 297,152.7 297.3,153.36 297.54,154.02 297.72,154.68 
	297.72,154.74 297.84,155.46 297.9,156.18 "/>
<polyline points="286.2,161.46 286.74,161.88 286.68,161.88 287.28,162.24 287.88,162.54 287.88,162.48 288.54,162.72 
	288.48,162.72 289.2,162.84 289.86,162.96 290.58,163.02 290.521,163.02 291.3,162.96 291.96,162.84 292.68,162.72 292.62,162.78 
	293.22,162.54 293.88,162.24 293.82,162.24 294.36,161.88 294.96,161.46 294.9,161.46 295.86,160.5 295.86,160.56 296.22,160.02 
	296.58,159.42 296.88,158.82 296.82,158.88 297.061,158.22 297.24,157.56 297.24,157.62 297.36,156.9 297.42,156.18 297.42,156.24 
	297.9,156.18 297.9,156.24 297.84,156.96 297.72,157.68 297.54,158.34 297.54,158.4 297.3,159.06 297,159.66 296.641,160.26 
	296.28,160.8 295.26,161.82 295.26,161.88 294.66,162.3 294.601,162.3 294.061,162.66 293.4,162.96 292.8,163.2 292.74,163.2 
	292.021,163.32 291.36,163.44 290.58,163.5 290.521,163.5 289.8,163.44 289.141,163.32 288.42,163.2 288.36,163.2 287.7,162.96 
	287.641,162.96 287.04,162.66 286.44,162.3 286.44,162.24 285.9,161.82 "/>
<rect x="226.5" y="170.1" width="0.48" height="14.64"/>
<polyline style="fill-rule:evenodd;clip-rule:evenodd;fill:#FFFFFF;" points="213.3,212.88 213.24,212.16 213.12,211.44 213,210.78 
	212.76,210.12 212.46,209.46 212.101,208.92 211.68,208.38 211.2,207.84 210.72,207.36 210.18,207 209.58,206.64 208.98,206.34 
	208.32,206.1 207.66,205.92 206.94,205.8 205.5,205.8 204.78,205.92 204.12,206.1 203.46,206.34 202.8,206.64 201.72,207.36 
	201.18,207.84 200.34,208.92 199.98,209.46 199.68,210.12 199.44,210.78 199.26,211.44 199.141,212.16 199.141,213.6 199.26,214.26 
	199.44,214.98 199.68,215.64 199.98,216.24 200.34,216.84 200.76,217.38 201.18,217.86 201.72,218.34 202.26,218.76 202.8,219.06 
	203.46,219.36 204.12,219.6 204.78,219.78 205.5,219.9 206.22,219.96 206.94,219.9 207.66,219.78 208.32,219.6 208.98,219.36 
	210.18,218.76 210.72,218.34 211.68,217.38 212.101,216.84 212.46,216.24 212.76,215.64 213,214.98 213.12,214.26 213.24,213.6 
	213.3,212.88 "/>
<polyline points="213.061,212.94 213,212.22 212.88,211.5 212.76,210.84 212.76,210.9 212.521,210.24 212.58,210.24 212.28,209.58 
	211.92,209.04 211.92,209.1 211.5,208.56 211.021,208.02 210.54,207.54 210.601,207.6 210.061,207.24 209.46,206.88 208.86,206.58 
	208.92,206.58 208.26,206.34 207.601,206.16 207.66,206.16 206.94,206.04 205.5,206.04 205.561,206.04 204.84,206.16 204.18,206.34 
	204.24,206.34 203.58,206.58 202.92,206.88 201.84,207.6 201.9,207.54 201.36,208.02 200.521,209.1 200.58,209.04 200.22,209.58 
	199.92,210.24 199.68,210.9 199.68,210.84 199.5,211.5 199.38,212.22 199.38,212.16 199.38,213.6 199.5,214.26 199.5,214.2 
	199.68,214.92 199.92,215.58 199.92,215.52 200.22,216.12 200.58,216.72 200.521,216.72 200.94,217.26 201.36,217.74 201.36,217.68 
	201.9,218.16 201.601,218.52 201.061,218.04 201,218.04 200.58,217.56 200.16,217.02 200.16,216.96 199.8,216.36 199.5,215.76 
	199.44,215.76 199.2,215.1 199.2,215.04 199.021,214.32 198.9,213.66 198.9,212.16 199.021,211.44 199.021,211.38 199.2,210.72 
	199.44,210.06 199.5,210.06 199.8,209.4 199.8,209.34 200.16,208.8 201,207.72 201.061,207.66 201.601,207.18 202.68,206.46 
	202.74,206.46 203.4,206.16 203.4,206.1 204.061,205.86 204.72,205.68 204.78,205.68 205.5,205.56 207,205.56 207.72,205.68 
	208.38,205.86 208.44,205.86 209.101,206.1 209.101,206.16 209.7,206.46 210.3,206.82 210.84,207.18 210.9,207.18 211.38,207.66 
	211.38,207.72 211.86,208.26 212.28,208.8 212.34,208.8 212.7,209.34 212.7,209.4 213,210.06 213.24,210.72 213.24,210.78 
	213.36,211.44 213.48,212.16 213.54,212.88 "/>
<polyline points="201.9,218.16 202.44,218.58 202.38,218.58 202.92,218.88 203.58,219.18 203.58,219.12 204.24,219.36 
	204.18,219.36 204.84,219.54 205.561,219.66 206.28,219.72 206.22,219.72 206.94,219.66 207.66,219.54 207.601,219.54 
	208.26,219.36 208.92,219.12 208.86,219.18 210.061,218.58 210.601,218.16 210.54,218.16 211.5,217.2 211.5,217.26 211.92,216.72 
	212.28,216.12 212.58,215.52 212.521,215.58 212.76,214.92 212.76,214.98 212.88,214.26 213,213.6 213.061,212.88 213.061,212.94 
	213.54,212.88 213.54,212.94 213.48,213.66 213.36,214.32 213.24,215.04 213.24,215.1 213,215.76 212.7,216.36 212.34,216.96 
	212.28,217.02 211.86,217.56 210.9,218.52 210.36,218.94 210.3,219 209.101,219.6 208.44,219.84 208.38,219.84 207.72,220.02 
	207,220.14 206.28,220.2 206.22,220.2 205.5,220.14 204.78,220.02 204.72,220.02 204.061,219.84 203.4,219.6 202.74,219.3 
	202.68,219.3 202.141,219 202.141,218.94 201.601,218.52 "/>
<polyline style="fill-rule:evenodd;clip-rule:evenodd;" points="63.78,510.48 63.72,509.76 63.6,509.1 63.42,508.379 63.24,507.72 
	62.94,507.12 62.58,506.52 62.16,505.98 61.2,505.02 60.66,504.66 60.06,504.299 59.46,504 58.8,503.76 58.08,503.58 57.42,503.459 
	56.7,503.4 55.98,503.459 55.26,503.58 54.6,503.76 53.94,504 53.28,504.299 52.2,505.02 51.66,505.5 51.24,505.98 50.82,506.52 
	50.46,507.12 50.16,507.72 49.92,508.379 49.74,509.1 49.62,509.76 49.62,511.26 49.74,511.919 49.92,512.64 50.16,513.24 
	50.46,513.9 50.82,514.5 51.24,515.04 51.66,515.52 52.2,516 53.28,516.72 53.94,517.02 54.6,517.26 55.26,517.44 55.98,517.56 
	56.7,517.62 57.42,517.56 58.08,517.44 58.8,517.26 59.46,517.02 60.06,516.72 60.66,516.36 61.2,516 62.16,515.04 62.58,514.5 
	62.94,513.9 63.24,513.24 63.42,512.64 63.6,511.919 63.72,511.26 63.78,510.48 "/>
<polyline points="63.54,510.54 63.48,509.82 63.36,509.16 63.18,508.44 63,507.78 63.06,507.839 62.76,507.24 62.4,506.64 
	62.4,506.7 61.98,506.16 61.02,505.2 61.08,505.26 60.54,504.9 59.94,504.54 59.34,504.24 59.4,504.24 58.74,504 58.02,503.82 
	58.08,503.82 57.42,503.7 56.7,503.64 56.76,503.64 56.04,503.7 55.32,503.82 54.66,504 54.72,504 54.06,504.24 53.4,504.54 
	52.32,505.26 52.38,505.2 51.84,505.68 51.42,506.16 51,506.7 51.06,506.64 50.7,507.24 50.4,507.839 50.16,508.5 50.16,508.44 
	49.98,509.16 49.86,509.82 49.86,509.76 49.86,511.26 49.98,511.919 49.98,511.86 50.16,512.58 50.4,513.18 50.7,513.839 
	50.7,513.78 51.06,514.379 51,514.379 51.42,514.919 51.84,515.4 51.84,515.339 52.38,515.82 52.32,515.82 52.08,516.24 
	52.08,516.18 51.54,515.7 51.48,515.7 51.06,515.22 50.64,514.68 50.64,514.62 50.28,514.02 49.98,513.36 49.74,512.76 49.68,512.7 
	49.5,511.98 49.38,511.32 49.38,509.76 49.5,509.1 49.5,509.04 49.68,508.32 49.92,507.66 49.98,507.6 50.28,507 50.64,506.4 
	51.06,505.86 51.48,505.379 51.54,505.32 52.08,504.839 53.16,504.12 53.22,504.12 53.88,503.82 53.88,503.76 54.54,503.52 
	55.2,503.339 55.26,503.339 55.98,503.22 56.7,503.16 56.76,503.16 57.48,503.22 58.14,503.339 58.86,503.52 58.92,503.52 
	59.58,503.76 59.58,503.82 60.18,504.12 60.78,504.48 61.32,504.839 61.38,504.839 62.34,505.799 62.34,505.86 62.76,506.4 
	62.82,506.4 63.18,507 63.48,507.6 63.48,507.66 63.66,508.32 63.84,509.04 63.84,509.1 63.96,509.76 64.02,510.48 "/>
<polyline points="52.32,515.82 53.4,516.54 54.06,516.839 54.06,516.78 54.72,517.02 54.66,517.02 55.32,517.2 56.04,517.32 
	56.76,517.379 56.7,517.379 57.42,517.32 58.08,517.2 58.02,517.2 58.74,517.02 59.4,516.78 59.34,516.839 59.94,516.54 
	60.54,516.18 61.08,515.82 61.02,515.82 61.98,514.86 61.98,514.919 62.4,514.379 62.76,513.78 62.76,513.839 63.06,513.18 
	63,513.18 63.18,512.58 63.36,511.86 63.36,511.919 63.48,511.26 63.54,510.48 63.54,510.54 64.02,510.48 64.02,510.54 
	63.96,511.32 63.84,511.98 63.66,512.7 63.48,513.299 63.48,513.36 63.18,514.02 62.82,514.62 62.76,514.68 62.34,515.22 
	61.32,516.24 60.78,516.6 60.18,516.959 59.58,517.26 58.92,517.5 58.86,517.5 58.14,517.68 57.48,517.799 56.76,517.86 
	56.7,517.86 55.98,517.799 55.26,517.68 55.2,517.68 54.54,517.5 53.88,517.26 53.22,516.959 53.16,516.959 52.08,516.24 "/>
<polyline style="fill-rule:evenodd;clip-rule:evenodd;" points="233.88,191.58 233.82,190.86 233.7,190.14 233.521,189.48 
	233.28,188.82 232.98,188.22 232.62,187.62 232.26,187.08 231.3,186.12 230.7,185.7 230.16,185.34 229.5,185.04 228.9,184.8 
	228.18,184.68 227.521,184.56 226.74,184.5 226.021,184.56 225.36,184.68 224.641,184.8 223.98,185.04 223.38,185.34 222.78,185.7 
	222.24,186.12 221.28,187.08 220.86,187.62 220.26,188.82 220.021,189.48 219.84,190.14 219.72,190.86 219.66,191.58 219.72,192.3 
	219.84,193.02 220.021,193.68 220.26,194.34 220.561,195 220.86,195.54 221.28,196.08 221.76,196.62 222.24,197.04 222.78,197.46 
	223.38,197.82 223.98,198.12 224.641,198.36 225.36,198.54 226.021,198.66 227.521,198.66 228.18,198.54 228.9,198.36 229.5,198.12 
	230.16,197.82 230.7,197.46 231.3,197.04 231.78,196.62 232.26,196.08 232.98,195 233.28,194.34 233.521,193.68 233.7,193.02 
	233.82,192.3 233.88,191.58 "/>
<polyline points="233.641,191.64 233.58,190.92 233.46,190.2 233.28,189.54 233.28,189.6 233.04,188.94 233.101,188.94 
	232.8,188.34 232.44,187.74 232.08,187.2 232.08,187.26 231.12,186.3 231.18,186.36 230.58,185.94 230.04,185.58 230.101,185.58 
	229.44,185.28 228.84,185.04 228.9,185.04 228.18,184.92 227.521,184.8 226.74,184.74 226.8,184.74 226.08,184.8 225.42,184.92 
	224.7,185.04 224.76,185.04 224.101,185.28 223.5,185.58 222.9,185.94 222.96,185.88 222.42,186.3 221.46,187.26 221.04,187.8 
	221.101,187.74 220.5,188.94 220.26,189.6 220.26,189.54 220.08,190.2 219.96,190.92 219.9,191.64 219.9,191.58 219.96,192.3 
	220.08,193.02 220.08,192.96 220.26,193.62 220.5,194.28 220.8,194.94 220.8,194.88 221.101,195.42 221.04,195.42 221.46,195.96 
	221.94,196.5 221.94,196.44 222.42,196.86 222.12,197.22 221.641,196.8 221.58,196.8 221.101,196.26 220.68,195.72 220.68,195.66 
	220.38,195.12 220.08,194.46 220.021,194.46 219.78,193.8 219.78,193.74 219.601,193.08 219.48,192.36 219.42,191.64 219.42,191.58 
	219.48,190.86 219.601,190.14 219.601,190.08 219.78,189.42 220.021,188.76 220.08,188.7 220.68,187.5 221.101,186.96 
	221.101,186.9 222.061,185.94 222.12,185.94 222.66,185.52 223.26,185.16 223.86,184.86 223.92,184.8 224.58,184.56 224.641,184.56 
	225.36,184.44 226.021,184.32 226.74,184.26 226.8,184.26 227.58,184.32 228.24,184.44 228.96,184.56 229.021,184.62 229.62,184.86 
	230.28,185.16 230.82,185.52 230.88,185.52 231.48,185.94 232.5,186.96 232.86,187.5 233.22,188.1 233.521,188.7 233.521,188.76 
	233.76,189.42 233.94,190.08 233.94,190.14 234.061,190.86 234.12,191.58 "/>
<polyline points="222.42,196.86 222.96,197.28 222.9,197.28 223.5,197.64 224.101,197.94 224.101,197.88 224.76,198.12 
	224.7,198.12 225.42,198.3 226.08,198.42 226.021,198.42 227.521,198.42 228.18,198.3 228.12,198.3 228.84,198.12 228.84,198.18 
	229.44,197.94 230.101,197.64 230.04,197.64 230.58,197.28 231.18,196.86 231.66,196.44 231.601,196.5 232.08,195.96 232.8,194.88 
	232.8,194.94 233.101,194.28 233.04,194.28 233.28,193.62 233.46,192.96 233.46,193.02 233.58,192.3 233.641,191.58 233.641,191.64 
	234.12,191.58 234.12,191.64 234.061,192.36 233.94,193.08 233.76,193.74 233.76,193.8 233.521,194.46 233.22,195.12 232.5,196.2 
	232.44,196.26 231.96,196.8 231.48,197.22 231.48,197.28 230.88,197.7 230.82,197.7 230.28,198.06 229.62,198.36 229.021,198.6 
	228.96,198.6 228.24,198.78 227.58,198.9 226.021,198.9 225.36,198.78 225.3,198.78 224.58,198.6 223.92,198.36 223.86,198.36 
	223.26,198.06 222.66,197.7 222.66,197.64 222.12,197.22 "/>
<rect x="170.521" y="340.2" width="28.859" height="0.48"/>
<polyline style="fill-rule:evenodd;clip-rule:evenodd;fill:#FFFFFF;" points="213.3,340.44 213.24,339.72 213.12,339 213,338.339 
	212.76,337.68 212.46,337.02 212.101,336.48 211.68,335.94 211.2,335.4 210.72,334.98 210.18,334.56 209.58,334.2 208.98,333.9 
	208.32,333.66 207.66,333.48 206.94,333.36 205.5,333.36 204.78,333.48 204.12,333.66 203.46,333.9 202.8,334.2 202.26,334.56 
	201.18,335.4 200.34,336.48 199.98,337.02 199.68,337.68 199.44,338.339 199.26,339 199.141,339.72 199.141,341.16 199.26,341.879 
	199.44,342.54 199.68,343.2 199.98,343.799 200.34,344.4 200.76,344.94 201.18,345.419 201.72,345.9 202.26,346.32 202.8,346.68 
	203.46,346.98 204.12,347.22 204.78,347.339 205.5,347.459 206.22,347.52 206.94,347.459 207.66,347.339 208.32,347.22 
	208.98,346.98 209.58,346.68 210.18,346.32 210.72,345.9 211.68,344.94 212.101,344.4 212.46,343.799 212.76,343.2 213,342.54 
	213.12,341.879 213.24,341.16 213.3,340.44 "/>
<polyline points="213.061,340.5 213,339.78 212.88,339.06 212.76,338.4 212.76,338.459 212.521,337.799 212.58,337.799 
	212.28,337.14 211.92,336.6 211.92,336.66 211.5,336.12 211.021,335.58 211.08,335.58 210.601,335.16 210.061,334.74 
	210.061,334.799 209.46,334.44 208.86,334.14 208.92,334.14 208.26,333.9 207.601,333.72 207.66,333.72 206.94,333.6 205.5,333.6 
	205.561,333.6 204.84,333.72 204.18,333.9 204.24,333.9 203.58,334.14 202.92,334.44 202.38,334.799 202.44,334.74 201.36,335.58 
	200.521,336.66 200.58,336.6 200.22,337.14 199.92,337.799 199.68,338.459 199.68,338.4 199.5,339.06 199.38,339.78 199.38,339.72 
	199.38,341.16 199.5,341.879 199.5,341.82 199.68,342.48 199.92,343.14 199.92,343.08 200.22,343.68 200.58,344.28 200.521,344.28 
	200.94,344.82 201.36,345.299 201.36,345.24 201.9,345.72 201.601,346.08 201.061,345.6 201,345.6 200.58,345.12 200.16,344.58 
	200.16,344.52 199.8,343.919 199.5,343.32 199.44,343.32 199.2,342.66 199.2,342.6 199.021,341.94 198.9,341.22 198.9,339.72 
	199.021,339 199.021,338.94 199.2,338.28 199.44,337.62 199.5,337.62 199.8,336.959 199.8,336.9 200.16,336.36 201,335.28 
	201.061,335.22 202.141,334.379 202.68,334.02 202.74,334.02 203.4,333.72 203.4,333.66 204.061,333.419 204.72,333.24 
	204.78,333.24 205.5,333.12 207,333.12 207.72,333.24 208.38,333.419 208.44,333.419 209.101,333.66 209.101,333.72 209.7,334.02 
	210.3,334.379 210.36,334.379 210.9,334.799 211.38,335.22 211.38,335.28 211.86,335.82 212.28,336.36 212.34,336.36 212.7,336.9 
	212.7,336.959 213,337.62 213.24,338.28 213.24,338.339 213.36,339 213.48,339.72 213.54,340.44 "/>
<polyline points="201.9,345.72 202.44,346.14 202.38,346.14 202.92,346.5 203.58,346.799 203.58,346.74 204.24,346.98 
	204.18,346.98 204.84,347.1 205.561,347.22 206.28,347.28 206.22,347.28 206.94,347.22 207.66,347.1 208.32,346.98 208.26,346.98 
	208.92,346.74 208.86,346.799 209.46,346.5 210.061,346.14 210.601,345.72 210.54,345.72 211.5,344.76 211.5,344.82 211.92,344.28 
	212.28,343.68 212.58,343.08 212.521,343.14 212.76,342.48 212.76,342.54 212.88,341.879 213,341.16 213.061,340.44 213.061,340.5 
	213.54,340.44 213.54,340.5 213.48,341.22 213.36,341.94 213.24,342.6 213.24,342.66 213,343.32 212.7,343.919 212.34,344.52 
	212.28,344.58 211.86,345.12 210.9,346.08 210.36,346.5 210.3,346.56 209.7,346.919 209.101,347.22 208.44,347.459 208.38,347.459 
	207.72,347.58 207,347.7 206.28,347.76 206.22,347.76 205.5,347.7 204.78,347.58 204.12,347.459 204.061,347.459 203.4,347.22 
	202.74,346.919 202.68,346.919 202.141,346.56 202.141,346.5 201.601,346.08 "/>
<text transform="matrix(1 0 0 1 49.7402 8.8799)"><tspan x="0" y="0" style="font-family:'ProductusOSGiBookc'; font-size:7.98;">S</tspan><tspan x="3.703" y="0" style="font-family:'ProductusOSGiBookc'; font-size:7.98;">t</tspan><tspan x="5.985" y="0" style="font-family:'ProductusOSGiBookc'; font-size:7.98;">ar</tspan><tspan x="11.531" y="0" style="font-family:'ProductusOSGiBookc'; font-size:7.98;">t</tspan></text>
<polyline style="fill-rule:evenodd;clip-rule:evenodd;" points="270,262.44 269.94,261.72 269.82,261.06 269.641,260.34 
	269.4,259.68 269.16,259.08 268.8,258.48 268.38,257.94 267.42,256.98 266.88,256.56 265.68,255.96 265.021,255.72 264.3,255.54 
	263.641,255.42 262.92,255.36 262.2,255.42 261.48,255.54 260.82,255.72 260.16,255.96 259.5,256.26 258.96,256.56 258.42,256.98 
	257.88,257.46 257.46,257.94 257.04,258.48 256.68,259.08 256.38,259.68 256.141,260.34 255.96,261.06 255.84,261.72 255.84,263.22 
	255.96,263.88 256.141,264.6 256.38,265.2 256.68,265.86 257.04,266.4 257.46,267 257.88,267.48 258.42,267.96 259.5,268.68 
	260.16,268.98 260.82,269.22 261.48,269.4 262.2,269.52 262.92,269.58 263.641,269.52 264.3,269.4 265.021,269.22 265.68,268.98 
	266.28,268.68 266.88,268.32 267.42,267.96 268.38,267 268.8,266.4 269.16,265.86 269.4,265.2 269.641,264.6 269.82,263.88 
	269.94,263.22 270,262.44 "/>
<polyline points="269.76,262.5 269.7,261.78 269.58,261.12 269.4,260.4 269.4,260.46 269.16,259.8 269.22,259.8 268.98,259.2 
	268.62,258.6 268.62,258.66 268.2,258.12 267.24,257.16 267.3,257.16 266.76,256.74 266.76,256.8 265.561,256.2 265.62,256.2 
	264.96,255.96 264.24,255.78 264.3,255.78 263.641,255.66 262.92,255.6 262.98,255.6 262.26,255.66 261.54,255.78 260.88,255.96 
	260.94,255.96 260.28,256.2 259.62,256.5 259.08,256.8 259.141,256.74 258.601,257.16 258.061,257.64 257.641,258.12 257.22,258.66 
	257.28,258.6 256.92,259.2 256.62,259.8 256.38,260.46 256.38,260.4 256.2,261.12 256.08,261.78 256.08,261.72 256.08,263.22 
	256.2,263.88 256.2,263.82 256.38,264.54 256.62,265.14 256.92,265.8 256.92,265.74 257.28,266.28 257.7,266.88 257.641,266.88 
	258.061,267.36 258.061,267.3 258.601,267.78 258.54,267.78 258.3,268.2 258.3,268.14 257.76,267.66 257.7,267.66 257.28,267.18 
	256.86,266.58 256.86,266.52 256.5,265.98 256.2,265.32 255.96,264.72 255.9,264.66 255.72,263.94 255.601,263.28 255.601,261.72 
	255.72,261.06 255.72,261 255.9,260.28 256.141,259.62 256.2,259.56 256.5,258.96 256.86,258.36 257.28,257.82 257.7,257.34 
	257.76,257.28 258.3,256.8 258.84,256.38 259.38,256.08 259.44,256.08 260.101,255.78 260.101,255.72 260.76,255.48 261.42,255.3 
	261.48,255.3 262.2,255.18 262.92,255.12 262.98,255.12 263.7,255.18 264.36,255.3 265.08,255.48 265.141,255.48 265.8,255.72 
	265.8,255.78 267,256.38 267.061,256.38 267.601,256.8 268.561,257.76 268.561,257.82 268.98,258.36 269.04,258.36 269.4,258.96 
	269.4,259.02 269.641,259.62 269.88,260.28 270.061,261 270.061,261.06 270.18,261.72 270.24,262.44 "/>
<polyline points="258.54,267.78 259.62,268.5 260.28,268.8 260.28,268.74 260.94,268.98 260.88,268.98 261.54,269.16 262.26,269.28 
	262.98,269.34 262.92,269.34 263.641,269.28 264.3,269.16 264.24,269.16 264.96,268.98 265.62,268.74 265.561,268.8 266.16,268.5 
	266.76,268.14 267.3,267.78 267.24,267.78 268.2,266.82 268.2,266.88 268.62,266.28 268.98,265.74 268.92,265.8 269.16,265.14 
	269.22,265.14 269.46,264.54 269.4,264.54 269.58,263.82 269.58,263.88 269.7,263.22 269.76,262.44 269.76,262.5 270.24,262.44 
	270.24,262.5 270.18,263.28 270.061,263.94 269.88,264.66 269.88,264.72 269.641,265.32 269.4,265.98 269.04,266.52 269.04,266.58 
	268.62,267.18 268.561,267.18 267.54,268.2 267,268.56 266.4,268.92 265.8,269.22 265.141,269.46 265.08,269.46 264.36,269.64 
	263.7,269.76 262.98,269.82 262.92,269.82 262.2,269.76 261.48,269.64 261.42,269.64 260.76,269.46 260.101,269.22 259.44,268.92 
	259.38,268.92 258.3,268.2 "/>
<polyline style="fill-rule:evenodd;clip-rule:evenodd;fill:#FFFFFF;" points="270,283.74 269.94,283.02 269.82,282.3 
	269.641,281.64 269.16,280.32 268.8,279.78 268.38,279.24 267.9,278.7 267.42,278.28 266.88,277.86 266.28,277.5 265.68,277.2 
	265.021,276.96 264.3,276.78 263.641,276.66 262.2,276.66 261.48,276.78 260.82,276.96 260.16,277.2 259.5,277.5 258.96,277.86 
	257.88,278.7 257.04,279.78 256.68,280.32 256.38,280.98 256.141,281.64 255.96,282.3 255.84,283.02 255.84,284.459 255.96,285.18 
	256.141,285.839 256.38,286.5 256.68,287.1 257.04,287.7 257.46,288.24 257.88,288.72 258.42,289.2 258.96,289.62 259.5,289.98 
	260.16,290.28 260.82,290.52 261.48,290.7 262.2,290.76 262.92,290.82 263.641,290.76 264.3,290.64 265.021,290.52 265.68,290.28 
	266.28,289.98 266.88,289.62 267.42,289.2 268.38,288.24 268.8,287.7 269.16,287.1 269.4,286.5 269.641,285.839 269.82,285.18 
	269.94,284.459 270,283.74 "/>
<polyline points="269.76,283.799 269.7,283.08 269.58,282.36 269.4,281.7 269.4,281.76 268.92,280.44 268.98,280.44 268.62,279.9 
	268.62,279.96 268.2,279.42 267.72,278.88 267.78,278.88 267.3,278.46 266.76,278.04 266.76,278.1 266.16,277.74 265.561,277.44 
	265.62,277.44 264.96,277.2 264.24,277.02 264.3,277.02 263.641,276.9 262.2,276.9 262.26,276.9 261.54,277.02 260.88,277.2 
	260.94,277.2 260.28,277.44 259.62,277.74 259.08,278.1 259.141,278.04 258.061,278.88 257.22,279.96 257.28,279.9 256.92,280.44 
	256.62,281.1 256.38,281.76 256.38,281.7 256.2,282.36 256.08,283.08 256.08,283.02 256.08,284.459 256.2,285.18 256.2,285.12 
	256.38,285.78 256.62,286.44 256.62,286.379 256.92,286.98 257.28,287.58 257.22,287.58 257.641,288.12 258.061,288.6 
	258.061,288.54 258.601,289.02 258.3,289.379 257.76,288.9 257.7,288.9 257.28,288.419 256.86,287.879 256.86,287.82 256.5,287.22 
	256.2,286.62 256.141,286.62 255.9,285.959 255.9,285.9 255.72,285.24 255.601,284.52 255.601,283.02 255.72,282.3 255.72,282.24 
	255.9,281.58 256.141,280.92 256.2,280.92 256.5,280.26 256.5,280.2 256.86,279.66 257.7,278.58 257.76,278.52 258.84,277.68 
	259.38,277.32 259.44,277.32 260.101,277.02 260.101,276.96 260.76,276.72 261.42,276.54 261.48,276.54 262.2,276.42 263.7,276.42 
	264.36,276.54 265.08,276.72 265.141,276.72 265.8,276.96 265.8,277.02 266.4,277.32 267,277.68 267.061,277.68 267.601,278.1 
	268.08,278.52 268.08,278.58 268.561,279.12 268.98,279.66 269.04,279.66 269.4,280.2 269.4,280.26 269.88,281.58 270.061,282.24 
	270.061,282.3 270.18,283.02 270.24,283.74 "/>
<polyline points="258.601,289.02 259.141,289.44 259.08,289.44 259.62,289.799 260.28,290.1 260.28,290.04 260.94,290.28 
	260.88,290.28 261.54,290.459 262.98,290.58 262.92,290.58 263.641,290.52 264.3,290.4 265.021,290.28 264.96,290.28 265.62,290.04 
	265.561,290.1 266.16,289.799 266.76,289.44 267.3,289.02 267.24,289.02 268.2,288.06 268.2,288.12 268.62,287.58 268.98,286.98 
	268.98,287.04 269.22,286.44 269.16,286.44 269.4,285.78 269.58,285.12 269.58,285.18 269.7,284.459 269.76,283.74 269.76,283.799 
	270.24,283.74 270.24,283.799 270.18,284.52 270.061,285.24 269.88,285.9 269.88,285.959 269.641,286.62 269.4,287.22 
	269.04,287.82 268.98,287.879 268.561,288.419 267.601,289.379 267.061,289.799 267,289.86 266.4,290.22 265.8,290.52 
	265.141,290.76 265.08,290.76 264.36,290.879 263.7,291 262.98,291.06 262.92,291.06 262.2,291 261.48,290.94 261.42,290.94 
	260.76,290.76 260.101,290.52 259.44,290.22 259.38,290.22 258.84,289.86 258.84,289.799 258.3,289.379 "/>
<text transform="matrix(1 0 0 1 275.04 262.9199)"><tspan x="0" y="0" style="font-family:'ProductusOSGiBookc'; font-size:7.98;">F</tspan><tspan x="3" y="0" style="font-family:'ProductusOSGiBookc'; font-size:7.98;">a</tspan><tspan x="6.296" y="0" style="font-family:'ProductusOSGiBookc'; font-size:7.98;">i</tspan><tspan x="7.805" y="0" style="font-family:'ProductusOSGiBookc'; font-size:7.98;">l</tspan><tspan x="9.36" y="0" style="font-family:'ProductusOSGiBookc'; font-size:7.98;">u</tspan><tspan x="13.015" y="0" style="font-family:'ProductusOSGiBookc'; font-size:7.98;">r</tspan><tspan x="15.058" y="0" style="font-family:'ProductusOSGiBookc'; font-size:7.98;">e</tspan></text>
<text transform="matrix(1 0 0 1 275.04 284.1606)"><tspan x="0" y="0" style="font-family:'ProductusOSGiBookc'; font-size:7.98;">Su</tspan><tspan x="7.325" y="0" style="font-family:'ProductusOSGiBookc'; font-size:7.98;">c</tspan><tspan x="10.445" y="0" style="font-family:'ProductusOSGiBookc'; font-size:7.98;">cess</tspan></text>
<rect x="29.04" y="325.98" width="56.94" height="0.479"/>
<rect x="85.5" y="326.22" width="0.48" height="28.619"/>
<rect x="28.8" y="354.36" width="56.94" height="0.479"/>
<rect x="28.8" y="325.98" width="0.48" height="28.62"/>
<text transform="matrix(1 0 0 1 34.2002 333.6001)"><tspan x="0" y="0" style="font-family:'ProductusOSGiBookc'; font-size:7.98;">Sea</tspan><tspan x="10.454" y="0" style="font-family:'ProductusOSGiBookc'; font-size:7.98;">r</tspan><tspan x="12.497" y="0" style="font-family:'ProductusOSGiBookc'; font-size:7.98;">ch</tspan><tspan x="19.224" y="0" style="font-family:'ProductusOSGiBookc'; font-size:7.98;"> </tspan><tspan x="20.843" y="0" style="font-family:'ProductusOSGiBookc'; font-size:7.98;">frag</tspan><tspan x="31.824" y="0" style="font-family:'ProductusOSGiBookc'; font-size:7.98;">m</tspan><tspan x="37.529" y="0" style="font-family:'ProductusOSGiBookc'; font-size:7.98;">ent</tspan><tspan x="47.001" y="0" style="font-family:'ProductusOSGiBookc'; font-size:7.98;">s</tspan></text>
<text transform="matrix(1 0 0 1 34.2002 343.3198)"><tspan x="0" y="0" style="font-family:'ProductusOSGiBookc'; font-size:7.98;">bundle</tspan><tspan x="19.678" y="0" style="font-family:'ProductusOSGiBookc'; font-size:7.98;"> </tspan><tspan x="21.242" y="0" style="font-family:'ProductusOSGiBookc'; font-size:7.98;">c</tspan><tspan x="24.362" y="0" style="font-family:'ProductusOSGiBookc'; font-size:7.98;">l</tspan><tspan x="25.871" y="0" style="font-family:'ProductusOSGiBookc'; font-size:7.98;">ass</tspan><tspan x="34.776" y="0" style="font-family:'ProductusOSGiBookc'; font-size:7.98;"> </tspan><tspan x="36.34" y="0" style="font-family:'ProductusOSGiBookc'; font-size:7.98;">pat</tspan><tspan x="45.637" y="0" style="font-family:'ProductusOSGiBookc'; font-size:7.98;">h</tspan></text>
<polyline points="142.56,262.68 114.18,276.9 113.94,276.9 114.18,276.48 142.56,290.64 142.56,291.06 142.32,290.64 
	170.641,276.48 170.88,276.48 171.36,276.72 170.88,276.9 142.44,291.12 142.32,291.06 113.94,276.9 113.58,276.72 113.94,276.48 
	142.32,262.26 "/>
<polyline points="170.641,276.9 142.32,262.68 142.32,262.26 142.44,262.2 142.56,262.26 170.88,276.48 "/>
<text transform="matrix(1 0 0 1 133.8003 277.1401)"><tspan x="0" y="0" style="font-family:'ProductusOSGiBookc'; font-size:7.98;">f</tspan><tspan x="2.019" y="0" style="font-family:'ProductusOSGiBookc'; font-size:7.98;">o</tspan><tspan x="5.746" y="0" style="font-family:'ProductusOSGiBookc'; font-size:7.98;">un</tspan><tspan x="13.087" y="0" style="font-family:'ProductusOSGiBookc'; font-size:7.98;">d</tspan><tspan x="16.51" y="0" style="font-family:'ProductusOSGiBookc'; font-size:7.98;">?</tspan></text>
<rect x="85.5" y="276.42" width="28.8" height="0.48"/>
<text transform="matrix(1 0 0 1 145.6201 297.6597)"><tspan x="0" y="0" style="font-family:'ProductusOSGiBookc'; font-size:7.98;">n</tspan><tspan x="3.606" y="0" style="font-family:'ProductusOSGiBookc'; font-size:7.98;">o</tspan></text>
<text transform="matrix(1 0 0 1 175.6797 274.3198)"><tspan x="0" y="0" style="font-family:'ProductusOSGiBookc'; font-size:7.98;">y</tspan><tspan x="2.944" y="0" style="font-family:'ProductusOSGiBookc'; font-size:7.98;">e</tspan><tspan x="6.424" y="0" style="font-family:'ProductusOSGiBookc'; font-size:7.98;">s</tspan></text>
<rect x="170.521" y="276.42" width="28.859" height="0.48"/>
<polyline style="fill-rule:evenodd;clip-rule:evenodd;fill:#FFFFFF;" points="213.3,276.66 213.24,275.94 213.12,275.22 213,274.56 
	212.76,273.9 212.46,273.24 212.101,272.7 211.68,272.16 211.2,271.62 210.72,271.2 210.18,270.78 209.58,270.42 208.98,270.12 
	208.32,269.88 207.66,269.7 206.94,269.58 205.5,269.58 204.78,269.7 204.12,269.88 203.46,270.12 202.8,270.42 202.26,270.78 
	201.18,271.62 200.34,272.7 199.98,273.24 199.68,273.9 199.44,274.56 199.26,275.22 199.141,275.94 199.141,277.38 199.26,278.04 
	199.44,278.76 199.68,279.42 199.98,280.02 200.34,280.62 200.76,281.16 201.18,281.64 201.72,282.12 202.26,282.54 202.8,282.9 
	203.46,283.2 204.12,283.38 204.78,283.56 205.5,283.68 206.22,283.74 206.94,283.68 207.66,283.56 208.32,283.38 208.98,283.2 
	209.58,282.9 210.18,282.54 210.72,282.12 211.68,281.16 212.101,280.62 212.46,280.02 212.76,279.42 213,278.76 213.12,278.04 
	213.24,277.38 213.3,276.66 "/>
<polyline points="213.061,276.72 213,276 212.88,275.28 212.76,274.62 212.76,274.68 212.521,274.02 212.58,274.02 212.28,273.36 
	211.92,272.82 211.92,272.88 211.5,272.34 211.021,271.8 211.08,271.8 210.601,271.38 210.061,270.96 210.061,271.02 209.46,270.66 
	208.86,270.36 208.92,270.36 208.26,270.12 207.601,269.94 207.66,269.94 206.94,269.82 205.5,269.82 205.561,269.82 204.84,269.94 
	204.18,270.12 204.24,270.12 203.58,270.36 202.92,270.66 202.38,271.02 202.44,270.96 201.36,271.8 200.521,272.88 200.58,272.82 
	200.22,273.36 199.92,274.02 199.68,274.68 199.68,274.62 199.5,275.28 199.38,276 199.38,275.94 199.38,277.38 199.5,278.04 
	199.5,277.98 199.68,278.7 199.92,279.36 199.92,279.3 200.22,279.9 200.58,280.5 200.521,280.5 200.94,281.04 201.36,281.52 
	201.36,281.46 201.9,281.94 201.601,282.3 201.061,281.82 201,281.82 200.58,281.34 200.16,280.8 200.16,280.74 199.8,280.14 
	199.5,279.54 199.44,279.54 199.2,278.88 199.2,278.82 199.021,278.1 198.9,277.44 198.9,275.94 199.021,275.22 199.021,275.16 
	199.2,274.5 199.44,273.84 199.5,273.84 199.8,273.18 199.8,273.12 200.16,272.58 201,271.5 201.061,271.44 202.141,270.6 
	202.68,270.24 202.74,270.24 203.4,269.94 203.4,269.88 204.061,269.64 204.72,269.46 204.78,269.46 205.5,269.34 207,269.34 
	207.72,269.46 208.38,269.64 208.44,269.64 209.101,269.88 209.101,269.94 209.7,270.24 210.3,270.6 210.36,270.6 210.9,271.02 
	211.38,271.44 211.38,271.5 211.86,272.04 212.28,272.58 212.34,272.58 212.7,273.12 212.7,273.18 213,273.84 213.24,274.5 
	213.24,274.56 213.36,275.22 213.48,275.94 213.54,276.66 "/>
<polyline points="201.9,281.94 202.44,282.36 202.38,282.36 202.92,282.72 203.58,283.02 203.521,282.96 204.84,283.32 
	205.561,283.44 206.28,283.5 206.22,283.5 206.94,283.44 207.66,283.32 207.601,283.32 208.92,282.96 208.86,283.02 209.46,282.72 
	210.061,282.36 210.601,281.94 210.54,281.94 211.5,280.98 211.5,281.04 211.92,280.5 212.28,279.9 212.58,279.3 212.521,279.36 
	212.76,278.7 212.76,278.76 212.88,278.04 213,277.38 213.061,276.66 213.061,276.72 213.54,276.66 213.54,276.72 213.48,277.44 
	213.36,278.1 213.24,278.82 213.24,278.88 213,279.54 212.7,280.14 212.34,280.74 212.28,280.8 211.86,281.34 210.9,282.3 
	210.36,282.72 210.3,282.78 209.7,283.14 209.101,283.44 209.04,283.44 208.38,283.62 207.72,283.799 207,283.919 206.28,283.98 
	206.22,283.98 205.5,283.919 204.78,283.799 204.72,283.799 204.061,283.62 203.4,283.44 202.74,283.14 202.68,283.14 
	202.141,282.78 202.141,282.72 201.601,282.3 "/>
<rect x="142.2" y="290.58" width="0.48" height="14.641"/>
<rect x="57.12" y="304.74" width="85.32" height="0.48"/>
<rect x="57.12" y="304.98" width="0.48" height="21.479"/>
<rect x="141.48" y="354.36" width="0.48" height="14.64"/>
<rect x="56.46" y="368.52" width="85.26" height="0.479"/>
<rect x="56.46" y="368.76" width="0.48" height="21.539"/>
<rect x="169.86" y="467.76" width="28.8" height="0.479"/>
<text transform="matrix(1 0 0 1 63.7803 493.98)"><tspan x="0" y="0" style="font-family:'ProductusOSGiBookc'; font-size:7.98;">n</tspan><tspan x="3.655" y="0" style="font-family:'ProductusOSGiBookc'; font-size:7.98;">o</tspan></text>
<rect x="56.46" y="481.919" width="0.48" height="21.721"/>
<rect x="113.4" y="453.6" width="56.939" height="0.479"/>
<rect x="169.86" y="453.839" width="0.479" height="28.561"/>
<rect x="113.16" y="481.919" width="56.94" height="0.48"/>
<rect x="113.16" y="453.6" width="0.48" height="28.56"/>
<text transform="matrix(1 0 0 1 118.5601 461.1597)"><tspan x="0" y="0" style="font-family:'ProductusOSGiBookc'; font-size:7.98;">D</tspan><tspan x="4.916" y="0" style="font-family:'ProductusOSGiBookc'; font-size:7.98;">e</tspan><tspan x="8.339" y="0" style="font-family:'ProductusOSGiBookc'; font-size:7.98;">lega</tspan><tspan x="20.141" y="0" style="font-family:'ProductusOSGiBookc'; font-size:7.98;">t</tspan><tspan x="22.423" y="0" style="font-family:'ProductusOSGiBookc'; font-size:7.98;">e</tspan><tspan x="25.903" y="0" style="font-family:'ProductusOSGiBookc'; font-size:7.98;"> t</tspan><tspan x="29.861" y="0" style="font-family:'ProductusOSGiBookc'; font-size:7.98;">o</tspan></text>
<text transform="matrix(1 0 0 1 118.5601 470.8794)"><tspan x="0" y="0" style="font-family:'ProductusOSGiBookc'; font-size:7.98;">w</tspan><tspan x="5.035" y="0" style="font-family:'ProductusOSGiBookc'; font-size:7.98;">i</tspan><tspan x="6.543" y="0" style="font-family:'ProductusOSGiBookc'; font-size:7.98;">r</tspan><tspan x="8.586" y="0" style="font-family:'ProductusOSGiBookc'; font-size:7.98;">e</tspan><tspan x="11.89" y="0" style="font-family:'ProductusOSGiBookc'; font-size:7.98;">’</tspan><tspan x="13.095" y="0" style="font-family:'ProductusOSGiBookc'; font-size:7.98;">s</tspan><tspan x="15.912" y="0" style="font-family:'ProductusOSGiBookc'; font-size:7.98;"> </tspan><tspan x="17.532" y="0" style="font-family:'ProductusOSGiBookc'; font-size:7.98;">exporter</tspan></text>
<polyline points="226.86,454.08 198.54,468.24 198.3,468.24 198.54,467.82 226.86,481.98 226.86,482.4 226.62,481.98 255,467.82 
	255.24,467.82 255.72,468.06 255.24,468.24 226.86,482.4 226.74,482.459 197.82,468 198.3,467.82 226.62,453.66 "/>
<polyline points="255,468.24 226.62,454.08 226.62,453.66 226.74,453.6 226.86,453.66 255.24,467.82 "/>
<text transform="matrix(1 0 0 1 219.0605 468.48)"><tspan x="0" y="0" style="font-family:'ProductusOSGiBookc'; font-size:7.98;">fou</tspan><tspan x="9.448" y="0" style="font-family:'ProductusOSGiBookc'; font-size:7.98;">n</tspan><tspan x="13.055" y="0" style="font-family:'ProductusOSGiBookc'; font-size:7.98;">d</tspan></text>
<text transform="matrix(1 0 0 1 262.2002 465.6597)"><tspan x="0" y="0" style="font-family:'ProductusOSGiBookc'; font-size:7.98;">y</tspan><tspan x="3" y="0" style="font-family:'ProductusOSGiBookc'; font-size:7.98;">e</tspan><tspan x="6.479" y="0" style="font-family:'ProductusOSGiBookc'; font-size:7.98;">s</tspan></text>
<rect x="254.88" y="467.76" width="28.8" height="0.479"/>
<polyline style="fill-rule:evenodd;clip-rule:evenodd;fill:#FFFFFF;" points="297.66,468 297.601,467.28 297.48,466.56 297.3,465.9 
	297.061,465.24 296.76,464.58 296.04,463.5 295.561,462.959 295.08,462.54 294.48,462.12 293.94,461.76 293.28,461.459 
	292.68,461.22 291.96,461.04 291.3,460.919 289.8,460.919 289.141,461.04 288.42,461.22 287.76,461.459 287.16,461.76 
	286.561,462.12 286.021,462.54 285.54,462.959 285.061,463.5 284.34,464.58 284.04,465.24 283.8,465.9 283.62,466.56 283.5,467.28 
	283.44,468 283.5,468.72 283.62,469.44 283.8,470.1 284.04,470.76 284.34,471.36 284.7,471.959 285.061,472.5 286.021,473.459 
	286.561,473.879 287.16,474.24 287.76,474.54 288.42,474.78 289.141,474.9 289.8,475.02 290.521,475.08 291.3,475.02 291.96,474.9 
	292.68,474.78 293.28,474.54 293.94,474.24 294.48,473.879 295.08,473.459 296.04,472.5 296.4,471.959 296.76,471.36 
	297.061,470.76 297.3,470.1 297.48,469.44 297.601,468.72 297.66,468 "/>
<polyline points="297.42,468.06 297.36,467.339 297.24,466.62 297.061,465.959 297.061,466.02 296.82,465.36 296.88,465.36 
	296.58,464.7 295.86,463.62 295.86,463.68 295.38,463.14 295.44,463.14 294.96,462.72 294.96,462.78 294.36,462.36 293.82,462 
	293.88,462 293.22,461.7 292.62,461.459 291.9,461.28 291.96,461.28 291.3,461.16 289.8,461.16 289.86,461.16 289.2,461.28 
	288.48,461.459 288.54,461.459 287.88,461.7 287.28,462 286.68,462.36 286.74,462.299 286.2,462.72 285.72,463.14 285.24,463.68 
	285.3,463.62 284.58,464.7 284.28,465.36 284.04,466.02 284.04,465.959 283.86,466.62 283.74,467.339 283.68,468.06 283.68,468 
	283.74,468.72 283.86,469.44 283.86,469.379 284.04,470.04 284.28,470.7 284.28,470.64 284.58,471.24 284.94,471.839 285.3,472.379 
	285.24,472.32 286.2,473.28 285.9,473.64 285.84,473.64 284.88,472.68 284.88,472.62 284.521,472.08 284.16,471.48 283.86,470.879 
	283.8,470.879 283.561,470.22 283.561,470.16 283.38,469.5 283.26,468.78 283.2,468.06 283.2,468 283.26,467.28 283.38,466.56 
	283.38,466.5 283.561,465.839 283.8,465.18 283.86,465.18 284.16,464.52 284.16,464.459 284.88,463.379 285.36,462.839 
	285.42,462.78 285.9,462.36 286.44,461.94 287.04,461.58 287.641,461.28 287.7,461.22 288.36,460.98 289.08,460.799 
	289.141,460.799 289.8,460.68 291.36,460.68 292.021,460.799 292.74,460.98 292.8,461.04 293.4,461.28 294.061,461.58 
	294.601,461.94 294.66,461.94 295.26,462.36 295.74,462.78 295.74,462.839 296.22,463.379 296.28,463.379 297,464.459 297,464.52 
	297.3,465.18 297.54,465.839 297.72,466.5 297.72,466.56 297.84,467.28 297.9,468 "/>
<polyline points="286.2,473.28 286.74,473.7 286.68,473.7 287.28,474.06 287.88,474.36 287.88,474.299 288.54,474.54 288.48,474.54 
	289.2,474.66 289.86,474.78 290.58,474.839 290.521,474.839 291.3,474.78 291.96,474.66 292.68,474.54 292.62,474.6 293.22,474.36 
	293.88,474.06 293.82,474.06 294.36,473.7 294.96,473.28 294.9,473.28 295.86,472.32 295.86,472.379 296.22,471.839 296.58,471.24 
	296.88,470.64 296.82,470.7 297.061,470.04 297.24,469.379 297.24,469.44 297.36,468.72 297.42,468 297.42,468.06 297.9,468 
	297.9,468.06 297.84,468.78 297.72,469.5 297.54,470.16 297.54,470.22 297.3,470.879 297,471.48 296.641,472.08 296.28,472.62 
	295.26,473.64 295.26,473.7 294.66,474.12 294.601,474.12 294.061,474.48 293.4,474.78 292.8,475.02 292.74,475.02 292.021,475.14 
	291.36,475.26 290.58,475.32 290.521,475.32 289.8,475.26 289.141,475.14 288.42,475.02 288.36,475.02 287.7,474.78 287.641,474.78 
	287.04,474.48 286.44,474.12 286.44,474.06 285.9,473.64 "/>
<polyline style="fill-rule:evenodd;clip-rule:evenodd;" points="233.521,510.48 233.46,509.76 233.4,509.1 233.22,508.379 
	232.98,507.72 232.68,507.12 232.32,506.52 231.9,505.98 230.94,505.02 230.4,504.66 229.8,504.299 229.2,504 228.54,503.76 
	227.88,503.58 227.16,503.459 226.44,503.4 225.72,503.459 225,503.58 224.34,503.76 223.68,504 223.08,504.299 222.48,504.66 
	221.94,505.02 221.4,505.5 220.98,505.98 220.561,506.52 220.2,507.12 219.9,507.72 219.66,508.379 219.48,509.1 219.36,509.76 
	219.36,511.26 219.48,511.919 219.66,512.64 219.9,513.24 220.2,513.9 220.561,514.5 220.98,515.04 221.4,515.52 221.94,516 
	222.48,516.36 223.08,516.72 223.68,517.02 224.34,517.26 225,517.44 225.72,517.56 226.44,517.62 227.16,517.56 227.88,517.44 
	228.54,517.26 229.2,517.02 229.8,516.72 230.4,516.36 230.94,516 231.9,515.04 232.32,514.5 232.68,513.9 232.98,513.24 
	233.22,512.64 233.4,511.919 233.46,511.26 233.521,510.48 "/>
<polyline points="233.28,510.54 233.22,509.82 233.16,509.16 232.98,508.44 232.98,508.5 232.74,507.839 232.8,507.839 
	232.5,507.24 232.141,506.64 232.141,506.7 231.72,506.16 230.76,505.2 230.82,505.26 230.28,504.9 229.68,504.54 229.08,504.24 
	229.141,504.24 228.48,504 227.82,503.82 227.88,503.82 227.16,503.7 226.44,503.64 226.5,503.64 225.78,503.7 225.061,503.82 
	224.4,504 224.46,504 223.8,504.24 223.2,504.54 222.601,504.9 222.061,505.26 222.12,505.2 221.58,505.68 221.16,506.16 
	220.74,506.7 220.8,506.64 220.44,507.24 220.141,507.839 219.9,508.5 219.9,508.44 219.72,509.16 219.601,509.82 219.601,509.76 
	219.601,511.26 219.72,511.919 219.72,511.86 219.9,512.58 220.141,513.18 220.44,513.839 220.44,513.78 220.8,514.379 
	220.74,514.379 221.16,514.919 221.58,515.4 221.58,515.339 222.12,515.82 222.061,515.82 221.82,516.24 221.82,516.18 
	221.28,515.7 221.22,515.7 220.8,515.22 220.38,514.68 220.38,514.62 220.021,514.02 219.72,513.36 219.48,512.76 219.42,512.7 
	219.24,511.98 219.12,511.32 219.12,509.76 219.24,509.1 219.24,509.04 219.42,508.32 219.66,507.66 219.72,507.6 220.021,507 
	220.38,506.4 220.8,505.86 221.22,505.379 221.28,505.32 221.82,504.839 222.36,504.48 222.96,504.12 223.561,503.82 223.62,503.76 
	224.28,503.52 224.94,503.339 225,503.339 225.72,503.22 226.44,503.16 226.5,503.16 227.22,503.22 227.94,503.339 228.601,503.52 
	228.66,503.52 229.32,503.76 229.32,503.82 229.92,504.12 230.521,504.48 231.061,504.839 231.12,504.839 232.08,505.799 
	232.08,505.86 232.5,506.4 232.561,506.4 232.92,507 233.22,507.6 233.22,507.66 233.46,508.32 233.641,509.04 233.641,509.1 
	233.7,509.76 233.76,510.48 "/>
<polyline points="222.061,515.82 222.601,516.18 223.2,516.54 223.8,516.839 223.8,516.78 224.46,517.02 224.4,517.02 
	225.061,517.2 225.78,517.32 226.5,517.379 226.44,517.379 227.16,517.32 227.88,517.2 227.82,517.2 228.48,517.02 229.141,516.78 
	229.08,516.839 229.68,516.54 230.28,516.18 230.82,515.82 230.76,515.82 231.72,514.86 231.72,514.919 232.141,514.379 
	232.5,513.78 232.5,513.839 232.8,513.18 233.04,512.58 232.98,512.58 233.16,511.86 233.16,511.919 233.22,511.26 233.28,510.48 
	233.28,510.54 233.76,510.48 233.76,510.54 233.7,511.32 233.641,511.98 233.46,512.7 233.46,512.76 233.22,513.36 232.92,514.02 
	232.561,514.62 232.5,514.68 232.08,515.22 231.061,516.24 230.521,516.6 229.92,516.959 229.32,517.26 228.66,517.5 228.601,517.5 
	227.94,517.68 227.22,517.799 226.5,517.86 226.44,517.86 225.72,517.799 225,517.68 224.94,517.68 224.28,517.5 223.62,517.26 
	223.561,517.26 222.96,516.959 222.36,516.6 221.82,516.24 "/>
<text transform="matrix(1 0 0 1 233.5205 493.98)"><tspan x="0" y="0" style="font-family:'ProductusOSGiBookc'; font-size:7.98;">n</tspan><tspan x="3.654" y="0" style="font-family:'ProductusOSGiBookc'; font-size:7.98;">o</tspan></text>
<rect x="226.2" y="481.919" width="0.479" height="21.721"/>
<polyline points="56.82,78.42 28.44,92.64 28.2,92.64 28.44,92.22 56.82,106.38 56.82,106.8 56.58,106.38 84.9,92.22 85.14,92.22 
	85.62,92.46 85.14,92.64 56.7,106.86 56.58,106.8 28.2,92.64 27.84,92.46 28.2,92.22 56.58,78 "/>
<polyline points="84.9,92.64 56.58,78.42 56.58,78 56.7,77.94 56.82,78 85.14,92.22 "/>
<text transform="matrix(1 0 0 1 49.9199 87.1196)"><tspan x="0" y="0" style="font-family:'ProductusOSGiBookc'; font-size:7.98;">boo</tspan><tspan x="11.14" y="0" style="font-family:'ProductusOSGiBookc'; font-size:7.98;">t</tspan></text>
<rect x="56.46" y="56.7" width="0.48" height="21.72"/>
<text transform="matrix(1 0 0 1 40.0801 96.8398)"><tspan x="0" y="0" style="font-family:'ProductusOSGiBookc'; font-size:7.98;">delegatio</tspan><tspan x="26.493" y="0" style="font-family:'ProductusOSGiBookc'; font-size:7.98;">n</tspan><tspan x="29.797" y="0" style="font-family:'ProductusOSGiBookc'; font-size:7.98;">?</tspan></text>
<rect x="113.4" y="77.94" width="56.939" height="0.48"/>
<rect x="169.86" y="78.18" width="0.479" height="28.62"/>
<rect x="113.16" y="106.32" width="56.94" height="0.48"/>
<rect x="113.16" y="77.94" width="0.48" height="28.62"/>
<rect x="84.78" y="92.16" width="28.86" height="0.48"/>
<text transform="matrix(1 0 0 1 118.5601 85.5601)"><tspan x="0" y="0" style="font-family:'ProductusOSGiBookc'; font-size:7.98;">De</tspan><tspan x="8.387" y="0" style="font-family:'ProductusOSGiBookc'; font-size:7.98;">l</tspan><tspan x="9.895" y="0" style="font-family:'ProductusOSGiBookc'; font-size:7.98;">egat</tspan><tspan x="22.463" y="0" style="font-family:'ProductusOSGiBookc'; font-size:7.98;">e</tspan><tspan x="25.887" y="0" style="font-family:'ProductusOSGiBookc'; font-size:7.98;"> </tspan><tspan x="27.507" y="0" style="font-family:'ProductusOSGiBookc'; font-size:7.98;">t</tspan><tspan x="29.845" y="0" style="font-family:'ProductusOSGiBookc'; font-size:7.98;">o</tspan></text>
<text transform="matrix(1 0 0 1 118.5601 95.2798)"><tspan x="0" y="0" style="font-family:'ProductusOSGiBookc'; font-size:7.98;">pa</tspan><tspan x="6.958" y="0" style="font-family:'ProductusOSGiBookc'; font-size:7.98;">r</tspan><tspan x="9.001" y="0" style="font-family:'ProductusOSGiBookc'; font-size:7.98;">en</tspan><tspan x="16.135" y="0" style="font-family:'ProductusOSGiBookc'; font-size:7.98;">t</tspan><tspan x="18.417" y="0" style="font-family:'ProductusOSGiBookc'; font-size:7.98;"> </tspan><tspan x="20.038" y="0" style="font-family:'ProductusOSGiBookc'; font-size:7.98;">cla</tspan><tspan x="27.938" y="0" style="font-family:'ProductusOSGiBookc'; font-size:7.98;">s</tspan><tspan x="30.699" y="0" style="font-family:'ProductusOSGiBookc'; font-size:7.98;">s</tspan><tspan x="33.507" y="0" style="font-family:'ProductusOSGiBookc'; font-size:7.98;"> </tspan><tspan x="35.127" y="0" style="font-family:'ProductusOSGiBookc'; font-size:7.98;">l</tspan><tspan x="36.635" y="0" style="font-family:'ProductusOSGiBookc'; font-size:7.98;">o</tspan><tspan x="40.41" y="0" style="font-family:'ProductusOSGiBookc'; font-size:7.98;">ade</tspan><tspan x="50.847" y="0" style="font-family:'ProductusOSGiBookc'; font-size:7.98;">r</tspan></text>
<text transform="matrix(1 0 0 1 90.1802 89.8198)"><tspan x="0" y="0" style="font-family:'ProductusOSGiBookc'; font-size:7.98;">y</tspan><tspan x="3" y="0" style="font-family:'ProductusOSGiBookc'; font-size:7.98;">e</tspan><tspan x="6.479" y="0" style="font-family:'ProductusOSGiBookc'; font-size:7.98;">s</tspan></text>
<polyline points="226.86,78.42 198.54,92.64 198.3,92.64 198.54,92.22 226.86,106.38 226.86,106.8 226.62,106.38 255,92.22 
	255.24,92.22 255.72,92.46 255.24,92.64 226.86,106.8 226.74,106.86 197.94,92.46 198.3,92.22 226.62,78 "/>
<polyline points="255,92.64 226.62,78.42 226.62,78 226.74,77.94 226.86,78 255.24,92.22 "/>
<text transform="matrix(1 0 0 1 217.1406 93.54)"><tspan x="0" y="0" style="font-family:'ProductusOSGiBookc'; font-size:7.98;">foun</tspan><tspan x="13.079" y="0" style="font-family:'ProductusOSGiBookc'; font-size:7.98;">d</tspan><tspan x="16.502" y="0" style="font-family:'ProductusOSGiBookc'; font-size:7.98;">?</tspan></text>
<rect x="254.88" y="92.16" width="0.24" height="0.48"/>
<rect x="255.12" y="92.16" width="28.56" height="0.48"/>
<text transform="matrix(1 0 0 1 260.2803 89.8198)"><tspan x="0" y="0" style="font-family:'ProductusOSGiBookc'; font-size:7.98;">y</tspan><tspan x="3" y="0" style="font-family:'ProductusOSGiBookc'; font-size:7.98;">e</tspan><tspan x="6.479" y="0" style="font-family:'ProductusOSGiBookc'; font-size:7.98;">s</tspan></text>
<rect x="169.86" y="92.16" width="0.24" height="0.48"/>
<rect x="170.101" y="92.16" width="28.56" height="0.48"/>
<polyline points="297.36,92.4 297.36,91.68 297.36,91.74 297.24,91.02 297.061,90.36 297.061,90.42 296.82,89.76 296.88,89.76 
	296.58,89.1 296.22,88.56 296.22,88.62 295.38,87.54 295.44,87.54 294.36,86.7 294.36,86.76 293.82,86.4 293.88,86.4 293.22,86.1 
	292.561,85.86 291.9,85.68 291.96,85.68 291.24,85.56 289.8,85.56 289.86,85.56 289.141,85.68 288.48,85.86 288.54,85.86 
	287.88,86.1 287.28,86.4 286.68,86.76 286.74,86.7 286.2,87.12 285.72,87.54 285.24,88.08 284.82,88.62 284.88,88.56 284.521,89.1 
	284.22,89.76 283.98,90.42 283.98,90.36 283.86,91.02 283.74,91.74 283.68,92.46 283.68,92.4 283.74,93.12 283.86,93.78 
	283.98,94.5 283.98,94.44 284.22,95.1 284.22,95.04 284.521,95.64 284.88,96.24 284.82,96.24 285.24,96.78 285.24,96.72 
	286.2,97.68 285.9,98.04 285.84,98.04 284.88,97.08 284.46,96.54 284.46,96.48 284.101,95.88 283.8,95.28 283.74,95.28 283.5,94.62 
	283.5,94.56 283.38,93.84 283.26,93.18 283.2,92.46 283.2,92.4 283.26,91.68 283.38,90.96 283.5,90.3 283.5,90.24 283.74,89.58 
	283.8,89.58 284.101,88.92 284.101,88.86 284.46,88.32 284.88,87.78 285.36,87.24 285.42,87.18 285.9,86.76 286.44,86.34 
	287.04,85.98 287.641,85.68 287.7,85.62 288.36,85.38 289.021,85.2 289.08,85.2 289.8,85.08 291.3,85.08 292.021,85.2 292.68,85.38 
	292.74,85.38 293.4,85.62 293.4,85.68 294.061,85.98 294.601,86.34 294.66,86.34 295.74,87.18 295.74,87.24 296.58,88.32 
	296.641,88.32 297,88.86 297,88.92 297.3,89.58 297.54,90.24 297.72,90.9 297.72,90.96 297.84,91.68 297.84,92.4 "/>
<polyline points="286.2,97.68 286.74,98.1 286.68,98.1 287.28,98.46 287.88,98.76 287.82,98.7 288.48,98.88 289.141,99.06 
	289.86,99.18 290.58,99.24 290.521,99.24 291.24,99.18 291.96,99.06 291.9,99.06 292.561,98.88 293.22,98.7 293.22,98.76 
	293.88,98.46 293.82,98.46 294.36,98.1 294.9,97.68 295.44,97.2 295.38,97.26 295.8,96.78 296.22,96.24 296.58,95.64 296.88,95.04 
	296.82,95.1 297.061,94.44 297.24,93.72 297.24,93.78 297.36,93.12 297.36,92.4 297.84,92.4 297.84,93.18 297.72,93.84 
	297.54,94.56 297.54,94.62 297.3,95.28 297,95.88 296.641,96.48 296.58,96.54 296.16,97.08 295.74,97.56 295.2,98.04 294.66,98.46 
	294.601,98.52 294.061,98.88 293.4,99.18 293.34,99.18 292.68,99.36 292.021,99.54 291.3,99.66 290.58,99.72 290.521,99.72 
	289.8,99.66 289.08,99.54 289.021,99.54 288.36,99.36 287.7,99.18 287.641,99.18 287.04,98.88 286.44,98.52 286.44,98.46 
	285.9,98.04 "/>
<rect x="226.5" y="106.32" width="0.48" height="14.64"/>
<rect x="56.46" y="120.48" width="170.28" height="0.48"/>
<text transform="matrix(1 0 0 1 229.5605 117.7197)"><tspan x="0" y="0" style="font-family:'ProductusOSGiBookc'; font-size:7.98;">n</tspan><tspan x="3.654" y="0" style="font-family:'ProductusOSGiBookc'; font-size:7.98;">o</tspan></text>
<text transform="matrix(1 0 0 1 0 44.1001)" style="font-family:'Proforma-Book'; font-size:9;">1</text>
<text transform="matrix(1 0 0 1 0 97.1396)" style="font-family:'Proforma-Book'; font-size:9;">2</text>
<text transform="matrix(1 0 0 1 0 157.5)" style="font-family:'Proforma-Book'; font-size:9;">3</text>
<text transform="matrix(1 0 0 1 0 217.6196)" style="font-family:'Proforma-Book'; font-size:9;">4</text>
<text transform="matrix(1 0 0 1 0 281.4004)" style="font-family:'Proforma-Book'; font-size:9;">5</text>
<text transform="matrix(1 0 0 1 2.5806 338.1001)" style="font-family:'Proforma-Book'; font-size:9;">6</text>
<text transform="matrix(1 0 0 1 2.5806 468.6001)" style="font-family:'Proforma-Book'; font-size:9;">8</text>
<text transform="matrix(1 0 0 1 223.6807 448.5601)" style="font-family:'Proforma-Book'; font-size:9;">9</text>
<polyline points="56.82,390.299 28.44,404.459 28.2,404.459 28.44,404.04 56.82,418.2 56.82,418.62 56.58,418.2 84.9,404.04 
	85.14,404.04 85.62,404.28 85.14,404.459 56.7,418.68 56.58,418.62 28.2,404.459 27.84,404.28 28.2,404.04 56.58,389.879 "/>
<polyline points="84.9,404.459 56.58,390.299 56.58,389.879 56.7,389.82 85.14,404.04 "/>
<text transform="matrix(1 0 0 1 61.6201 428.0396)"><tspan x="0" y="0" style="font-family:'ProductusOSGiBookc'; font-size:7.98;">n</tspan><tspan x="3.655" y="0" style="font-family:'ProductusOSGiBookc'; font-size:7.98;">o</tspan></text>
<rect x="84.78" y="403.98" width="0.24" height="0.479"/>
<rect x="85.02" y="403.98" width="28.62" height="0.479"/>
<text transform="matrix(1 0 0 1 44.7603 400.98)"><tspan x="0" y="0" style="font-family:'ProductusOSGiBookc'; font-size:7.98;">p</tspan><tspan x="3.703" y="0" style="font-family:'ProductusOSGiBookc'; font-size:7.98;">a</tspan><tspan x="6.942" y="0" style="font-family:'ProductusOSGiBookc'; font-size:7.98;">c</tspan><tspan x="10.047" y="0" style="font-family:'ProductusOSGiBookc'; font-size:7.98;">k</tspan><tspan x="13.167" y="0" style="font-family:'ProductusOSGiBookc'; font-size:7.98;">ag</tspan><tspan x="19.982" y="0" style="font-family:'ProductusOSGiBookc'; font-size:7.98;">e</tspan></text>
<text transform="matrix(1 0 0 1 42.0605 410.6401)"><tspan x="0" y="0" style="font-family:'ProductusOSGiBookc'; font-size:7.98;">expor</tspan><tspan x="16.111" y="0" style="font-family:'ProductusOSGiBookc'; font-size:7.98;">t</tspan><tspan x="18.394" y="0" style="font-family:'ProductusOSGiBookc'; font-size:7.98;">e</tspan><tspan x="21.873" y="0" style="font-family:'ProductusOSGiBookc'; font-size:7.98;">d</tspan><tspan x="25.36" y="0" style="font-family:'ProductusOSGiBookc'; font-size:7.98;">?</tspan></text>
<rect x="56.46" y="418.14" width="0.48" height="0.239"/>
<rect x="56.46" y="418.379" width="0.48" height="14.16"/>
<rect x="56.46" y="432.54" width="0.48" height="21.54"/>
<polyline style="fill-rule:evenodd;clip-rule:evenodd;" points="127.56,404.22 127.5,403.5 127.38,402.78 127.26,402.12 
	127.02,401.459 126.72,400.799 126.36,400.26 125.94,399.72 125.46,399.18 124.98,398.76 124.44,398.339 123.84,397.98 
	123.24,397.68 122.58,397.44 121.92,397.26 121.2,397.14 119.76,397.14 119.04,397.26 118.38,397.44 117.72,397.68 117.06,397.98 
	116.52,398.339 115.44,399.18 114.6,400.26 114.24,400.799 113.94,401.459 113.7,402.12 113.52,402.78 113.4,403.5 113.4,404.94 
	113.52,405.66 113.7,406.32 113.94,406.98 114.24,407.58 114.6,408.18 115.02,408.72 115.44,409.2 115.98,409.68 116.52,410.1 
	117.06,410.459 117.72,410.76 118.38,411 119.04,411.12 119.76,411.24 120.48,411.299 121.2,411.24 121.92,411.12 122.58,411 
	123.24,410.76 123.84,410.459 124.44,410.1 124.98,409.68 125.94,408.72 126.36,408.18 126.72,407.58 127.02,406.98 127.26,406.32 
	127.38,405.66 127.5,404.94 127.56,404.22 "/>
<polyline points="127.32,404.28 127.26,403.56 127.14,402.839 127.02,402.18 127.02,402.24 126.78,401.58 126.84,401.58 
	126.54,400.919 126.18,400.379 126.18,400.44 125.76,399.9 125.28,399.36 125.34,399.36 124.86,398.94 124.32,398.52 124.32,398.58 
	123.72,398.22 123.12,397.919 123.18,397.919 122.52,397.68 121.86,397.5 121.92,397.5 121.2,397.379 119.76,397.379 
	119.82,397.379 119.1,397.5 118.44,397.68 118.5,397.68 117.84,397.919 117.18,398.22 116.64,398.58 116.7,398.52 115.62,399.36 
	114.78,400.44 114.84,400.379 114.48,400.919 114.18,401.58 113.94,402.24 113.94,402.18 113.76,402.839 113.64,403.56 
	113.64,403.5 113.64,404.94 113.76,405.66 113.76,405.6 113.94,406.26 114.18,406.919 114.18,406.86 114.48,407.459 114.84,408.06 
	114.78,408.06 115.2,408.6 115.62,409.08 115.62,409.02 116.16,409.5 115.86,409.86 115.32,409.379 115.26,409.379 114.84,408.9 
	114.42,408.36 114.42,408.299 114.06,407.7 113.76,407.1 113.7,407.1 113.46,406.44 113.46,406.379 113.28,405.72 113.16,405 
	113.16,403.5 113.28,402.78 113.28,402.72 113.46,402.06 113.7,401.4 113.76,401.4 114.06,400.74 114.06,400.68 114.42,400.14 
	115.26,399.06 115.32,399 116.4,398.16 116.94,397.799 117,397.799 117.66,397.5 117.66,397.44 118.32,397.2 118.98,397.02 
	119.04,397.02 119.76,396.9 121.26,396.9 121.98,397.02 122.64,397.2 122.7,397.2 123.36,397.44 123.36,397.5 123.96,397.799 
	124.56,398.16 124.62,398.16 125.16,398.58 125.64,399 125.64,399.06 126.12,399.6 126.54,400.14 126.6,400.14 126.96,400.68 
	126.96,400.74 127.26,401.4 127.5,402.06 127.5,402.12 127.62,402.78 127.74,403.5 127.8,404.22 "/>
<polyline points="116.16,409.5 116.7,409.919 116.64,409.919 117.18,410.28 117.84,410.58 117.84,410.52 118.5,410.76 
	118.44,410.76 119.1,410.879 119.82,411 120.54,411.06 120.48,411.06 121.2,411 121.92,410.879 122.58,410.76 122.52,410.76 
	123.18,410.52 123.12,410.58 123.72,410.28 124.32,409.919 124.86,409.5 124.8,409.5 125.76,408.54 125.76,408.6 126.18,408.06 
	126.54,407.459 126.84,406.86 126.78,406.919 127.02,406.26 127.02,406.32 127.14,405.66 127.26,404.94 127.32,404.22 
	127.32,404.28 127.8,404.22 127.8,404.28 127.74,405 127.62,405.72 127.5,406.379 127.5,406.44 127.26,407.1 126.96,407.7 
	126.6,408.299 126.54,408.36 126.12,408.9 125.16,409.86 124.62,410.28 124.56,410.339 123.96,410.7 123.36,411 122.7,411.24 
	122.64,411.24 121.98,411.36 121.26,411.48 120.54,411.54 120.48,411.54 119.76,411.48 119.04,411.36 118.38,411.24 118.32,411.24 
	117.66,411 117,410.7 116.94,410.7 116.4,410.339 116.4,410.28 115.86,409.86 "/>
<text transform="matrix(1 0 0 1 2.5801 405.5396)" style="font-family:'Proforma-Book'; font-size:9;">7</text>
<text transform="matrix(1 0 0 1 95.8203 400.98)"><tspan x="0" y="0" style="font-family:'ProductusOSGiBookc'; font-size:7.98;">y</tspan><tspan x="3" y="0" style="font-family:'ProductusOSGiBookc'; font-size:7.98;">e</tspan><tspan x="6.479" y="0" style="font-family:'ProductusOSGiBookc'; font-size:7.98;">s</tspan></text>
</svg>
