<?xml version="1.0" encoding="utf-8"?>
<!-- Generator: Adobe Illustrator 16.0.0, SVG Export Plug-In . SVG Version: 6.00 Build 0)  -->
<!DOCTYPE svg PUBLIC "-//W3C//DTD SVG 1.1//EN" "http://www.w3.org/Graphics/SVG/1.1/DTD/svg11.dtd">
<svg version="1.1" id="Layer_1" xmlns="http://www.w3.org/2000/svg" xmlns:xlink="http://www.w3.org/1999/xlink" x="0px" y="0px"
	 width="227.28px" height="184.74px" viewBox="0 0 227.28 184.74" style="enable-background:new 0 0 227.28 184.74;"
	 xml:space="preserve">
<polyline style="fill-rule:evenodd;clip-rule:evenodd;fill:#B3B3B3;" points="0.24,0.24 42.78,0.24 42.78,42.78 184.5,42.78 
	184.5,142.02 0.24,142.02 "/>
<polyline points="85.02,42.78 84.96,40.62 84.84,38.46 84.84,38.52 84.54,36.36 84.18,34.26 83.7,32.22 83.1,30.18 83.1,30.24 
	82.44,28.26 82.5,28.26 81.78,26.34 79.98,22.62 78.96,20.88 77.82,19.14 76.68,17.46 76.68,17.52 75.42,15.9 74.04,14.34 
	72.66,12.9 71.16,11.46 71.22,11.46 69.66,10.14 68.1,8.88 68.1,8.94 66.42,7.74 64.68,6.66 62.88,5.64 61.08,4.68 61.14,4.68 
	59.28,3.84 57.3,3.06 55.32,2.4 53.34,1.86 51.24,1.38 49.2,0.96 49.26,0.96 47.1,0.72 44.94,0.54 42.78,0.48 40.56,0.54 
	40.62,0.54 38.46,0.72 36.36,0.96 34.26,1.38 32.22,1.86 30.18,2.4 30.24,2.4 28.26,3.06 26.34,3.84 24.42,4.68 24.18,4.26 
	24.24,4.26 26.16,3.42 28.08,2.64 28.08,2.58 30.06,1.92 32.1,1.38 34.14,0.9 36.24,0.48 36.3,0.48 38.4,0.24 40.56,0.06 42.78,0 
	44.94,0.06 45,0.06 47.16,0.24 49.32,0.48 51.36,0.9 53.46,1.38 55.44,1.92 55.5,1.92 57.48,2.58 57.48,2.64 59.46,3.42 61.32,4.26 
	63.12,5.22 64.92,6.24 66.66,7.32 66.72,7.32 68.4,8.52 69.96,9.78 71.52,11.1 73.02,12.54 74.4,13.98 74.4,14.04 75.78,15.6 
	77.04,17.22 77.1,17.22 78.24,18.9 79.38,20.64 80.4,22.38 80.4,22.44 82.2,26.16 82.92,28.08 83.58,30.06 84.18,32.1 84.66,34.14 
	84.66,34.2 85.02,36.3 85.32,38.46 85.44,40.62 85.5,42.78 "/>
<polyline points="24.42,4.68 22.62,5.64 20.82,6.66 19.08,7.74 19.14,7.68 17.52,8.88 15.9,10.14 14.34,11.46 11.46,14.34 
	10.14,15.9 8.88,17.52 8.94,17.52 7.74,19.2 7.74,19.14 6.66,20.88 5.64,22.62 4.68,24.48 3.84,26.34 3.06,28.26 2.4,30.24 
	2.4,30.18 1.8,32.22 1.32,34.26 0.96,36.36 0.72,38.52 0.54,40.68 0.54,40.62 0.48,42.78 0.54,44.94 0.72,47.1 0.96,49.26 
	1.32,51.36 1.32,51.3 1.8,53.34 2.4,55.38 3.06,57.36 3.84,59.28 4.68,61.14 4.68,61.08 5.64,62.94 6.66,64.68 7.74,66.42 
	8.94,68.1 8.88,68.1 10.14,69.72 11.46,71.22 11.46,71.16 12.9,72.66 14.34,74.1 15.9,75.42 15.6,75.78 14.04,74.46 13.98,74.46 
	12.54,73.02 11.1,71.52 9.78,70.02 8.52,68.4 7.32,66.72 7.32,66.66 6.24,64.92 5.22,63.18 4.26,61.32 3.42,59.46 2.64,57.54 
	2.58,57.54 1.92,55.56 1.92,55.5 1.32,53.46 0.84,51.42 0.48,49.32 0.24,47.16 0.06,45 0.06,44.94 0,42.78 0.06,40.62 0.24,38.46 
	0.48,36.3 0.84,34.2 0.84,34.14 1.32,32.1 1.92,30.06 2.58,28.08 2.64,28.08 3.42,26.16 4.26,24.3 4.26,24.24 5.22,22.38 
	6.24,20.64 7.32,18.9 8.52,17.22 9.78,15.6 11.1,14.04 11.1,13.98 13.98,11.1 14.04,11.1 15.6,9.78 17.22,8.52 18.84,7.32 
	20.58,6.24 22.38,5.22 24.18,4.26 "/>
<polyline points="15.9,75.42 17.52,76.68 19.14,77.88 19.08,77.88 20.82,78.96 22.62,79.98 24.42,80.94 26.34,81.78 28.26,82.56 
	28.26,82.5 30.24,83.16 30.18,83.16 32.22,83.7 34.26,84.18 36.36,84.6 38.46,84.84 40.62,85.02 40.56,85.02 42.78,85.08 
	44.94,85.02 47.1,84.84 49.26,84.6 49.2,84.6 51.24,84.18 53.34,83.7 55.32,83.16 57.3,82.5 57.3,82.56 59.28,81.78 61.14,80.94 
	61.08,80.94 62.88,79.98 64.68,78.96 66.42,77.88 68.1,76.68 69.66,75.42 71.22,74.1 71.16,74.1 72.66,72.66 72.66,72.72 
	75.42,69.72 76.68,68.1 77.82,66.42 78.96,64.68 79.98,62.94 79.98,63 81.78,59.28 82.5,57.36 82.44,57.36 83.16,55.38 83.7,53.34 
	84.18,53.46 83.64,55.5 83.64,55.56 82.92,57.54 82.2,59.46 80.4,63.18 79.38,64.92 78.24,66.66 77.1,68.34 77.04,68.4 75.78,70.02 
	73.02,73.02 71.52,74.46 69.96,75.78 68.4,77.04 68.4,77.1 66.72,78.3 66.66,78.3 64.92,79.38 63.12,80.4 61.32,81.36 59.46,82.2 
	57.48,82.98 55.5,83.64 55.44,83.64 53.46,84.18 51.36,84.66 49.32,85.08 47.16,85.32 45,85.5 44.94,85.5 42.78,85.56 40.56,85.5 
	38.4,85.32 36.3,85.08 36.24,85.08 34.14,84.66 32.1,84.18 30.06,83.64 28.08,82.98 26.16,82.2 24.24,81.36 24.18,81.36 22.38,80.4 
	20.58,79.38 18.84,78.3 18.84,78.24 17.22,77.04 15.6,75.78 "/>
<polyline points="83.7,53.34 84.18,51.3 84.18,51.36 84.54,49.26 84.84,47.1 84.96,44.94 85.02,42.78 85.5,42.78 85.44,44.94 
	85.32,47.1 85.32,47.16 85.02,49.32 84.66,51.42 84.18,53.46 "/>
<text transform="matrix(1 0 0 1.0522 14.4004 40.4404)"><tspan x="0" y="0" style="font-family:'ProductusOSGiBookc'; font-size:7.5841;">p</tspan><tspan x="3.481" y="0" style="font-family:'ProductusOSGiBookc'; font-size:7.5841;">r</tspan><tspan x="5.635" y="0" style="font-family:'ProductusOSGiBookc'; font-size:7.5841;">ivate</tspan></text>
<text transform="matrix(1 0 0 1.0522 46.8604 28.8604)" style="font-family:'ProductusOSGiBookc'; font-size:7.5841;">public</text>
<rect x="42.54" width="0.48" height="0.24"/>
<rect x="42.54" y="0.24" width="0.48" height="85.32"/>
<rect x="42.54" y="42.54" width="0.24" height="0.48"/>
<rect x="42.78" y="42.54" width="42.72" height="0.48"/>
<polyline points="226.8,42.78 226.74,40.62 226.74,40.68 226.56,38.52 226.26,36.36 225.9,34.26 225.42,32.22 224.88,30.18 
	224.88,30.24 224.22,28.26 224.28,28.26 223.5,26.34 222.661,24.48 221.701,22.62 220.68,20.88 219.6,19.14 219.6,19.2 218.4,17.52 
	217.14,15.9 215.82,14.34 214.38,12.9 212.88,11.46 212.94,11.46 211.44,10.14 209.82,8.88 209.82,8.94 208.14,7.74 206.4,6.66 
	204.661,5.64 202.8,4.68 202.86,4.68 201,3.84 199.081,3.06 197.1,2.4 195.06,1.86 193.02,1.38 190.92,0.96 190.98,0.96 
	188.82,0.72 186.661,0.54 184.5,0.48 182.34,0.54 182.4,0.54 180.24,0.72 178.081,0.96 175.98,1.38 173.94,1.86 171.9,2.4 
	171.96,2.4 169.98,3.06 168.06,3.84 166.201,4.68 165.96,4.26 166.02,4.26 167.88,3.42 169.8,2.64 169.8,2.58 171.78,1.92 
	173.82,1.38 175.86,0.9 177.96,0.48 178.02,0.48 180.18,0.24 182.34,0.06 184.5,0 186.661,0.06 186.72,0.06 188.88,0.24 
	191.041,0.48 193.14,0.9 195.18,1.38 197.22,1.92 197.28,1.92 199.26,2.58 199.26,2.64 201.18,3.42 203.041,4.26 204.9,5.22 
	206.64,6.24 208.38,7.32 208.44,7.32 210.121,8.52 211.74,9.78 213.24,11.1 214.74,12.54 216.18,13.98 216.18,14.04 217.5,15.6 
	218.76,17.22 218.82,17.22 220.02,18.9 221.1,20.64 222.121,22.38 223.081,24.24 223.081,24.3 223.92,26.16 224.701,28.08 
	225.36,30.06 225.9,32.1 226.38,34.14 226.38,34.2 226.74,36.3 227.041,38.46 227.22,40.62 227.28,42.78 "/>
<polyline points="166.201,4.68 164.34,5.64 162.541,6.66 160.86,7.74 160.92,7.74 159.24,8.94 159.24,8.88 157.621,10.14 
	156.06,11.46 153.18,14.34 151.86,15.9 150.6,17.52 150.661,17.52 149.46,19.2 149.46,19.14 148.38,20.88 147.36,22.62 146.4,24.48 
	145.56,26.34 144.78,28.26 144.121,30.24 144.121,30.18 143.581,32.22 143.1,34.26 142.68,36.36 142.44,38.52 142.26,40.68 
	142.26,40.62 142.201,42.78 142.26,44.94 142.44,47.1 142.68,49.26 142.68,49.2 143.1,51.3 143.581,53.34 144.121,55.38 
	144.78,57.36 145.56,59.28 146.4,61.14 146.4,61.08 147.36,62.94 148.38,64.68 149.46,66.42 150.661,68.1 150.6,68.1 151.86,69.72 
	153.18,71.22 153.18,71.16 154.621,72.66 156.06,74.1 157.621,75.42 157.32,75.78 155.76,74.46 155.701,74.46 154.26,73.02 
	152.82,71.52 151.5,70.02 150.24,68.4 149.041,66.72 149.041,66.66 147.96,64.92 146.94,63.18 145.98,61.32 145.14,59.46 
	144.36,57.54 144.3,57.54 143.64,55.56 143.64,55.5 143.1,53.46 142.621,51.42 142.201,49.32 141.96,47.16 141.78,45 141.78,44.94 
	141.72,42.78 141.78,40.62 141.96,38.46 142.201,36.3 142.201,36.24 142.621,34.14 143.1,32.1 143.64,30.06 144.3,28.08 
	144.36,28.08 145.14,26.16 145.98,24.3 145.98,24.24 146.94,22.38 147.96,20.64 149.041,18.9 150.24,17.22 151.5,15.6 152.82,14.04 
	152.82,13.98 155.701,11.1 155.76,11.1 157.32,9.78 158.94,8.52 160.621,7.32 162.3,6.24 164.1,5.22 165.96,4.26 "/>
<polyline points="157.621,75.42 159.24,76.68 160.92,77.88 160.86,77.88 162.541,78.96 164.34,79.98 166.201,80.94 168.06,81.78 
	169.98,82.56 169.98,82.5 171.96,83.16 171.9,83.16 173.94,83.7 175.98,84.18 178.081,84.6 180.24,84.84 182.4,85.02 182.34,85.02 
	184.5,85.08 186.661,85.02 188.82,84.84 190.98,84.6 190.92,84.6 193.02,84.18 195.06,83.7 197.1,83.16 199.081,82.5 199.081,82.56 
	201,81.78 202.86,80.94 202.8,80.94 204.661,79.98 206.4,78.96 208.14,77.88 209.82,76.68 211.44,75.42 212.94,74.1 212.88,74.1 
	214.38,72.66 215.82,71.16 215.82,71.22 217.14,69.72 218.4,68.1 219.6,66.42 220.68,64.68 221.701,62.94 222.661,61.08 
	222.661,61.14 223.5,59.28 224.28,57.36 224.22,57.36 224.88,55.38 225.42,53.34 225.9,53.46 225.36,55.5 225.36,55.56 
	224.701,57.54 223.92,59.46 223.081,61.32 222.121,63.18 221.1,64.92 220.02,66.66 220.02,66.72 218.82,68.4 218.76,68.4 
	217.5,70.02 216.18,71.52 214.74,73.02 213.24,74.46 211.74,75.78 210.121,77.04 210.121,77.1 208.44,78.3 208.38,78.3 
	206.64,79.38 204.9,80.4 203.041,81.36 201.18,82.2 199.26,82.98 197.28,83.64 197.22,83.64 195.18,84.18 193.14,84.66 
	191.041,85.08 188.88,85.32 186.72,85.5 186.661,85.5 184.5,85.56 182.34,85.5 180.18,85.32 178.02,85.08 177.96,85.08 
	175.86,84.66 173.82,84.18 171.78,83.64 169.8,82.98 167.88,82.2 166.02,81.36 165.96,81.36 164.1,80.4 162.3,79.38 160.621,78.3 
	158.94,77.1 158.94,77.04 157.32,75.78 "/>
<polyline points="225.42,53.34 225.9,51.3 225.9,51.36 226.26,49.26 226.56,47.1 226.74,44.94 226.8,42.78 227.28,42.78 
	227.22,44.94 227.22,45 227.041,47.16 226.74,49.32 226.38,51.42 225.9,53.46 "/>
<rect x="184.26" y="42.54" width="0.479" height="0.24"/>
<rect x="184.26" y="42.78" width="0.479" height="42.78"/>
<rect x="141.72" y="42.54" width="0.24" height="0.48"/>
<rect x="141.96" y="42.54" width="42.779" height="0.48"/>
<text transform="matrix(1 0 0 1.0522 153.1206 61.6802)"><tspan x="0" y="0" style="font-family:'ProductusOSGiBookc'; font-size:7.5841;">p</tspan><tspan x="3.474" y="0" style="font-family:'ProductusOSGiBookc'; font-size:7.5841;">u</tspan><tspan x="6.894" y="0" style="font-family:'ProductusOSGiBookc'; font-size:7.5841;">b</tspan><tspan x="10.375" y="0" style="font-family:'ProductusOSGiBookc'; font-size:7.5841;">l</tspan><tspan x="11.869" y="0" style="font-family:'ProductusOSGiBookc'; font-size:7.5841;">i</tspan><tspan x="13.317" y="0" style="font-family:'ProductusOSGiBookc'; font-size:7.5841;">c</tspan></text>
<text transform="matrix(1 0 0 1.0522 194.1597 35.9399)"><tspan x="0" y="0" style="font-family:'ProductusOSGiBookc'; font-size:7.5841;">p</tspan><tspan x="3.481" y="0" style="font-family:'ProductusOSGiBookc'; font-size:7.5841;">r</tspan><tspan x="5.635" y="0" style="font-family:'ProductusOSGiBookc'; font-size:7.5841;">ivate</tspan></text>
<polyline points="226.8,142.02 226.74,139.8 226.74,139.86 226.56,137.7 226.26,135.6 225.9,133.5 225.42,131.4 224.88,129.42 
	224.88,129.48 224.22,127.5 224.28,127.5 223.5,125.58 222.661,123.66 221.701,121.86 220.68,120.06 219.6,118.32 219.6,118.38 
	218.4,116.76 217.14,115.14 215.82,113.58 214.38,112.08 214.44,112.08 212.94,110.7 211.44,109.38 209.82,108.12 209.82,108.18 
	208.14,106.98 204.661,104.82 204.72,104.82 202.86,103.92 201,103.08 199.081,102.3 197.1,101.64 195.06,101.04 193.02,100.56 
	193.081,100.56 190.98,100.2 188.82,99.96 186.661,99.78 184.5,99.72 182.34,99.78 182.4,99.78 180.24,99.96 178.081,100.2 
	175.98,100.56 173.94,101.04 171.9,101.64 171.96,101.64 169.98,102.3 168.06,103.08 166.201,103.92 166.02,103.5 167.88,102.66 
	169.8,101.88 169.8,101.82 171.78,101.16 173.82,100.56 175.86,100.08 175.92,100.08 178.02,99.72 180.18,99.48 182.34,99.3 
	184.5,99.24 186.661,99.3 186.72,99.3 188.88,99.48 191.041,99.72 193.14,100.08 195.18,100.56 197.22,101.16 197.28,101.16 
	199.26,101.82 199.26,101.88 201.18,102.66 203.041,103.5 204.9,104.4 208.38,106.56 208.44,106.56 210.121,107.76 211.74,109.02 
	213.24,110.34 214.74,111.72 216.18,113.22 216.18,113.28 217.5,114.84 218.76,116.46 219.96,118.08 220.02,118.08 221.1,119.82 
	222.121,121.62 223.081,123.42 223.081,123.48 223.92,125.4 224.701,127.32 225.36,129.3 225.9,131.28 226.38,133.38 226.38,133.44 
	226.74,135.54 227.041,137.64 227.22,139.8 227.28,142.02 "/>
<polyline points="166.201,103.92 164.34,104.82 162.541,105.9 160.86,106.98 160.92,106.98 159.24,108.18 159.24,108.12 
	157.621,109.38 156.06,110.7 154.621,112.08 153.18,113.58 151.86,115.14 150.6,116.76 149.4,118.38 149.46,118.32 148.38,120.06 
	147.36,121.86 146.4,123.66 145.56,125.58 144.78,127.5 144.121,129.48 144.121,129.42 143.581,131.4 143.1,133.5 142.68,135.6 
	142.44,137.7 142.26,139.86 142.26,139.8 142.201,142.02 142.26,144.18 142.44,146.34 142.68,148.5 142.68,148.44 143.1,150.48 
	143.581,152.58 144.121,154.56 144.78,156.54 145.56,158.46 146.4,160.38 146.4,160.32 147.36,162.12 148.38,163.92 149.46,165.66 
	150.661,167.34 150.6,167.34 151.86,168.9 153.18,170.46 153.18,170.4 154.621,171.9 156.06,173.28 157.621,174.6 157.32,174.96 
	155.76,173.64 155.701,173.64 154.26,172.26 152.82,170.76 151.5,169.2 150.24,167.64 149.041,165.96 149.041,165.9 147.96,164.16 
	146.94,162.36 145.98,160.56 145.14,158.64 144.36,156.72 144.3,156.72 143.64,154.74 143.64,154.68 143.1,152.7 142.621,150.6 
	142.201,148.56 141.96,146.4 141.78,144.24 141.78,144.18 141.72,142.02 141.78,139.8 141.96,137.64 142.201,135.54 142.201,135.48 
	142.621,133.38 143.1,131.28 143.64,129.3 144.3,127.32 144.36,127.32 145.14,125.4 145.98,123.48 145.98,123.42 146.94,121.62 
	147.96,119.82 149.041,118.08 150.24,116.46 151.5,114.84 152.82,113.28 152.82,113.22 154.26,111.72 155.701,110.34 155.76,110.34 
	157.32,109.02 158.94,107.76 160.621,106.56 162.3,105.48 164.1,104.4 164.161,104.4 166.02,103.5 "/>
<polyline points="157.621,174.6 159.24,175.92 159.18,175.92 162.541,178.2 164.34,179.22 168.06,181.02 169.98,181.74 
	169.98,181.68 171.96,182.34 171.9,182.34 173.94,182.94 175.98,183.42 178.081,183.78 180.24,184.08 180.18,184.08 182.34,184.2 
	184.5,184.26 186.661,184.2 188.82,184.08 190.98,183.78 193.081,183.42 193.02,183.42 195.06,182.94 197.1,182.34 199.081,181.68 
	199.081,181.74 201,181.02 204.72,179.22 204.661,179.22 206.4,178.2 208.14,177.06 209.82,175.86 211.44,174.6 212.94,173.28 
	214.44,171.9 214.38,171.9 215.82,170.4 215.82,170.46 217.14,168.9 218.4,167.34 219.6,165.66 220.68,163.92 221.701,162.12 
	222.661,160.32 222.661,160.38 223.5,158.46 224.28,156.54 224.22,156.54 224.88,154.56 225.42,152.58 225.9,152.7 225.36,154.68 
	225.36,154.74 224.701,156.72 223.92,158.64 223.081,160.56 222.121,162.36 221.1,164.16 220.02,165.9 220.02,165.96 218.82,167.64 
	218.76,167.64 217.5,169.2 216.18,170.76 214.74,172.26 213.24,173.64 211.74,174.96 210.121,176.22 210.121,176.28 208.44,177.48 
	208.38,177.48 206.64,178.62 204.9,179.64 201.18,181.44 199.26,182.16 197.28,182.82 197.22,182.82 195.18,183.42 193.14,183.9 
	191.041,184.26 188.88,184.56 188.82,184.56 186.661,184.68 184.5,184.74 182.34,184.68 180.18,184.56 178.02,184.26 175.92,183.9 
	175.86,183.9 173.82,183.42 171.78,182.82 169.8,182.16 167.88,181.44 164.161,179.64 164.1,179.64 162.3,178.62 158.94,176.34 
	158.94,176.28 157.32,174.96 "/>
<polyline points="225.42,152.58 225.9,150.48 225.9,150.54 226.26,148.5 226.56,146.34 226.74,144.18 226.8,142.02 227.28,142.02 
	227.22,144.18 227.22,144.24 227.041,146.4 226.74,148.56 226.38,150.6 225.9,152.7 "/>
<rect x="184.26" y="99.24" width="0.479" height="43.02"/>
<rect x="141.72" y="141.78" width="43.02" height="0.48"/>
<text transform="matrix(1 0 0 1.0522 153.1206 132.5405)"><tspan x="0" y="0" style="font-family:'ProductusOSGiBookc'; font-size:7.5841;">p</tspan><tspan x="3.474" y="0" style="font-family:'ProductusOSGiBookc'; font-size:7.5841;">u</tspan><tspan x="6.894" y="0" style="font-family:'ProductusOSGiBookc'; font-size:7.5841;">b</tspan><tspan x="10.375" y="0" style="font-family:'ProductusOSGiBookc'; font-size:7.5841;">l</tspan><tspan x="11.869" y="0" style="font-family:'ProductusOSGiBookc'; font-size:7.5841;">i</tspan><tspan x="13.317" y="0" style="font-family:'ProductusOSGiBookc'; font-size:7.5841;">c</tspan></text>
<text transform="matrix(1 0 0 1.0522 194.1597 139.6802)"><tspan x="0" y="0" style="font-family:'ProductusOSGiBookc'; font-size:7.5841;">p</tspan><tspan x="3.481" y="0" style="font-family:'ProductusOSGiBookc'; font-size:7.5841;">r</tspan><tspan x="5.635" y="0" style="font-family:'ProductusOSGiBookc'; font-size:7.5841;">ivate</tspan></text>
<text transform="matrix(1 0 0 1.0522 49.8604 61.6802)" style="font-family:'ProductusOSGiBookc'; font-size:7.5841;">public</text>
<text transform="matrix(1 0 0 1 5.1602 54.54)"><tspan x="0" y="0" style="font-family:'ProductusSemibold'; font-size:7.98;">B</tspan><tspan x="4.317" y="0" style="font-family:'ProductusSemibold'; font-size:7.98;">un</tspan><tspan x="12.839" y="0" style="font-family:'ProductusSemibold'; font-size:7.98;">d</tspan><tspan x="17.212" y="0" style="font-family:'ProductusSemibold'; font-size:7.98;">le</tspan><tspan x="23.493" y="0" style="font-family:'ProductusSemibold'; font-size:7.98;"> </tspan><tspan x="25.472" y="0" style="font-family:'ProductusSemibold'; font-size:7.98;">A</tspan><tspan x="30.507" y="0" style="font-family:'ProductusSemibold'; font-size:7.98;"> </tspan></text>
<text transform="matrix(1 0 0 1 163.2603 19.1401)"><tspan x="0" y="0" style="font-family:'ProductusSemibold'; font-size:7.98;">B</tspan><tspan x="4.27" y="0" style="font-family:'ProductusSemibold'; font-size:7.98;">u</tspan><tspan x="8.586" y="0" style="font-family:'ProductusSemibold'; font-size:7.98;">ndle</tspan><tspan x="23.444" y="0" style="font-family:'ProductusSemibold'; font-size:7.98;"> </tspan><tspan x="25.479" y="0" style="font-family:'ProductusSemibold'; font-size:7.98;">B</tspan></text>
<text transform="matrix(1 0 0 1 191.5806 153.7803)"><tspan x="0" y="0" style="font-family:'ProductusSemibold'; font-size:7.98;">B</tspan><tspan x="4.317" y="0" style="font-family:'ProductusSemibold'; font-size:7.98;">und</tspan><tspan x="17.133" y="0" style="font-family:'ProductusSemibold'; font-size:7.98;">l</tspan><tspan x="19.351" y="0" style="font-family:'ProductusSemibold'; font-size:7.98;">e</tspan><tspan x="23.484" y="0" style="font-family:'ProductusSemibold'; font-size:7.98;"> </tspan><tspan x="25.464" y="0" style="font-family:'ProductusSemibold'; font-size:7.98;">C</tspan></text>
<text transform="matrix(1 0 0 1.0522 16.98 111.3003)"><tspan x="0" y="0" style="font-family:'ProductusOSGiBookc'; font-size:7.5841;">C</tspan><tspan x="4.141" y="0" style="font-family:'ProductusOSGiBookc'; font-size:7.5841;">l</tspan><tspan x="5.582" y="0" style="font-family:'ProductusOSGiBookc'; font-size:7.5841;">ass</tspan><tspan x="14.023" y="0" style="font-family:'ProductusOSGiBookc'; font-size:7.5841;"> </tspan><tspan x="15.524" y="0" style="font-family:'ProductusOSGiBookc'; font-size:7.5841;">S</tspan><tspan x="19.059" y="0" style="font-family:'ProductusOSGiBookc'; font-size:7.5841;">pace</tspan><tspan x="31.868" y="0" style="font-family:'ProductusOSGiBookc'; font-size:7.5841;"> </tspan><tspan x="33.423" y="0" style="font-family:'ProductusOSGiBookc'; font-size:7.5841;">f</tspan><tspan x="35.289" y="0" style="font-family:'ProductusOSGiBookc'; font-size:7.5841;">o</tspan><tspan x="38.883" y="0" style="font-family:'ProductusOSGiBookc'; font-size:7.5841;">r</tspan><tspan x="40.992" y="0" style="font-family:'ProductusOSGiBookc'; font-size:7.5841;"> </tspan><tspan x="42.493" y="0" style="font-family:'ProductusOSGiBookc'; font-size:7.5841;">bundle</tspan><tspan x="61.149" y="0" style="font-family:'ProductusOSGiBookc'; font-size:7.5841;"> </tspan><tspan x="62.651" y="0" style="font-family:'ProductusOSGiBookc'; font-size:7.5841;">A</tspan></text>
<text transform="matrix(1 0 0 1 5.1602 64.6201)"><tspan x="0" y="0" style="font-family:'ProductusSemibold'; font-size:7.98;"> </tspan><tspan x="2.035" y="0" style="font-family:'ProductusSemibold'; font-size:7.98;"> </tspan><tspan x="4.014" y="0" style="font-family:'ProductusSemibold'; font-size:7.98;"> </tspan></text>
</svg>
