<?xml version="1.0" encoding="utf-8"?>
<!-- Generator: Adobe Illustrator 16.0.0, SVG Export Plug-In . SVG Version: 6.00 Build 0)  -->
<!DOCTYPE svg PUBLIC "-//W3C//DTD SVG 1.1//EN" "http://www.w3.org/Graphics/SVG/1.1/DTD/svg11.dtd">
<svg version="1.1" id="Layer_1" xmlns="http://www.w3.org/2000/svg" xmlns:xlink="http://www.w3.org/1999/xlink" x="0px" y="0px"
	 width="290.7px" height="170.1px" viewBox="0 0 290.7 170.1" style="enable-background:new 0 0 290.7 170.1;" xml:space="preserve"
	>
<rect x="234" y="113.4" style="fill:#B3B3B3;" width="56.7" height="42.54"/>
<rect x="120.6" y="113.4" style="fill:#B3B3B3;" width="56.7" height="56.699"/>
<rect x="0.12" y="113.4" style="fill:#B3B3B3;" width="56.7" height="28.319"/>
<rect x="177.3" y="49.62" style="fill:#B3B3B3;" width="56.7" height="56.7"/>
<rect x="177.3" style="fill:#B3B3B3;" width="56.7" height="42.54"/>
<rect x="35.58" style="fill:#B3B3B3;" width="56.64" height="42.54"/>
<rect x="184.38" y="7.08" width="42.54" height="14.22"/>
<rect x="184.38" y="6.84" width="42.78" height="0.48"/>
<rect x="226.68" y="7.08" width="0.48" height="14.46"/>
<rect x="184.14" y="21.06" width="42.78" height="0.48"/>
<rect x="184.14" y="6.84" width="0.48" height="14.46"/>
<text transform="matrix(1 0 0 1 191.46 16.3203)" style="fill:#FFFFFF; font-family:'ProductusBook'; font-size:7.98;">p</text>
<rect x="184.38" y="21.3" style="fill:#FFFFFF;" width="42.54" height="14.16"/>
<rect x="184.38" y="21.06" width="42.78" height="0.48"/>
<rect x="226.68" y="21.3" width="0.48" height="14.4"/>
<rect x="184.14" y="35.22" width="42.78" height="0.48"/>
<rect x="184.14" y="21.06" width="0.48" height="14.4"/>
<text transform="matrix(1 0 0 1 191.46 30.4805)" style="font-family:'ProductusOSGiBookc'; font-size:7.98;">q</text>
<rect x="42.66" y="7.08" style="fill:#FFFFFF;" width="42.48" height="14.22"/>
<rect x="42.66" y="6.84" width="42.72" height="0.48"/>
<rect x="84.9" y="7.08" width="0.48" height="14.46"/>
<rect x="42.42" y="21.06" width="42.72" height="0.48"/>
<rect x="42.42" y="6.84" width="0.48" height="14.46"/>
<text transform="matrix(1 0 0 1 49.7402 16.3203)" style="font-family:'ProductusOSGiBookc'; font-size:7.98;">p</text>
<polyline style="fill-rule:evenodd;clip-rule:evenodd;fill:#FFFFFF;" points="216.24,14.16 215.58,14.28 214.86,14.46 214.26,14.82 
	213.78,15.24 213.36,15.72 213,16.32 212.82,17.04 212.7,17.7 212.7,24.84 212.82,25.5 213,26.22 213.36,26.82 213.78,27.3 
	214.26,27.78 214.86,28.08 215.58,28.26 216.24,28.38 216.96,28.26 217.62,28.08 218.28,27.78 218.76,27.3 219.18,26.82 
	219.54,26.22 219.72,25.5 219.84,24.84 219.84,17.7 219.72,17.04 219.54,16.32 219.18,15.72 218.76,15.24 218.28,14.82 
	217.62,14.46 216.96,14.28 216.24,14.16 "/>
<polyline points="216.3,14.4 215.64,14.521 214.92,14.7 214.98,14.7 214.38,15.06 214.44,15 213.96,15.42 213.54,15.9 
	213.601,15.84 213.24,16.44 213.24,16.38 213.061,17.1 212.94,17.76 212.94,17.7 212.94,24.84 213.061,25.5 213.061,25.44 
	213.24,26.16 213.24,26.1 213.601,26.7 213.54,26.7 213.96,27.18 213.96,27.12 214.44,27.6 214.38,27.6 214.98,27.9 214.92,27.84 
	215.64,28.021 216.3,28.14 216.24,28.14 216.96,28.021 216.9,28.021 217.561,27.84 217.561,27.9 218.22,27.6 218.101,27.6 
	218.58,27.12 218.58,27.18 219,26.7 219.36,26.1 219.3,26.16 219.48,25.44 219.48,25.5 219.601,24.84 219.601,17.7 219.601,17.76 
	219.48,17.1 219.3,16.38 219.36,16.44 219,15.84 219,15.9 218.58,15.42 218.64,15.42 218.16,15 218.16,15.06 217.5,14.7 
	217.561,14.7 216.9,14.521 216.96,14.521 216.24,14.4 216.3,13.92 217.021,14.04 217.68,14.22 217.74,14.28 218.4,14.64 
	218.46,14.64 218.94,15.06 218.94,15.12 219.36,15.6 219.42,15.6 219.78,16.2 219.78,16.26 219.96,16.98 219.96,17.04 220.08,17.7 
	220.08,24.9 219.96,25.56 219.78,26.28 219.78,26.34 219.42,26.94 219.36,27 218.94,27.48 218.4,28.021 217.74,28.32 217.68,28.32 
	217.021,28.5 216.3,28.62 216.24,28.62 215.58,28.5 215.521,28.5 214.8,28.32 214.74,28.32 214.14,28.021 213.601,27.48 213.18,27 
	213.18,26.94 212.82,26.34 212.76,26.28 212.58,25.56 212.46,24.9 212.46,17.7 212.58,17.04 212.58,16.98 212.76,16.26 212.82,16.2 
	213.18,15.6 213.601,15.12 213.66,15.06 214.14,14.64 214.74,14.28 214.8,14.22 215.521,14.04 215.58,14.04 216.24,13.92 "/>
<polyline points="216.24,14.4 216.3,14.4 216.24,13.92 216.3,13.92 "/>
<rect x="42.66" y="21.3" style="fill:#FFFFFF;" width="42.48" height="14.16"/>
<rect x="42.66" y="21.06" width="42.72" height="0.48"/>
<rect x="84.9" y="21.3" width="0.48" height="14.4"/>
<rect x="42.42" y="35.22" width="42.72" height="0.48"/>
<rect x="42.42" y="21.06" width="0.48" height="14.4"/>
<text transform="matrix(1 0 0 1 49.7402 30.4805)" style="font-family:'ProductusOSGiBookc'; font-size:7.98;">t</text>
<rect x="84.9" y="13.92" width="99.72" height="0.48"/>
<rect x="184.38" y="56.7" width="42.54" height="14.16"/>
<rect x="184.38" y="56.46" width="42.78" height="0.48"/>
<rect x="226.68" y="56.7" width="0.48" height="14.399"/>
<rect x="184.14" y="70.62" width="42.78" height="0.479"/>
<rect x="184.14" y="56.46" width="0.48" height="14.4"/>
<text transform="matrix(1 0 0 1 191.46 65.9404)" style="fill:#FFFFFF; font-family:'ProductusBook'; font-size:7.98;">q</text>
<rect x="184.38" y="70.86" style="fill:#FFFFFF;" width="42.54" height="14.22"/>
<rect x="184.38" y="70.62" width="42.78" height="0.479"/>
<rect x="226.68" y="70.86" width="0.48" height="14.46"/>
<rect x="184.14" y="84.84" width="42.78" height="0.48"/>
<rect x="184.14" y="70.62" width="0.48" height="14.46"/>
<text transform="matrix(1 0 0 1 191.46 80.1006)" style="font-family:'ProductusOSGiBookc'; font-size:7.98;">r</text>
<rect x="184.38" y="85.08" style="fill:#FFFFFF;" width="42.54" height="14.16"/>
<rect x="184.38" y="84.84" width="42.78" height="0.48"/>
<rect x="226.68" y="85.08" width="0.48" height="14.4"/>
<rect x="184.14" y="99" width="42.78" height="0.48"/>
<rect x="184.14" y="84.84" width="0.48" height="14.4"/>
<text transform="matrix(1 0 0 1 191.46 94.2598)" style="font-family:'ProductusOSGiBookc'; font-size:7.98;">s</text>
<rect x="127.68" y="120.48" width="42.54" height="14.159"/>
<rect x="127.68" y="120.24" width="42.78" height="0.479"/>
<rect x="169.98" y="120.48" width="0.479" height="14.399"/>
<rect x="127.44" y="134.4" width="42.78" height="0.479"/>
<rect x="127.44" y="120.24" width="0.48" height="14.399"/>
<text transform="matrix(1 0 0 1 134.7598 129.7197)" style="fill:#FFFFFF; font-family:'ProductusBook'; font-size:7.98;">s</text>
<rect x="127.68" y="134.64" width="42.54" height="14.221"/>
<rect x="127.68" y="134.4" width="42.78" height="0.479"/>
<rect x="169.98" y="134.64" width="0.479" height="14.46"/>
<rect x="127.44" y="148.62" width="42.78" height="0.479"/>
<rect x="127.44" y="134.4" width="0.48" height="14.46"/>
<text transform="matrix(1 0 0 1 134.7598 143.8799)" style="fill:#FFFFFF; font-family:'ProductusBook'; font-size:7.98;">t</text>
<rect x="241.08" y="120.48" width="42.54" height="14.159"/>
<rect x="241.08" y="120.24" width="42.78" height="0.479"/>
<rect x="283.38" y="120.48" width="0.48" height="14.399"/>
<rect x="240.84" y="134.4" width="42.78" height="0.479"/>
<rect x="240.84" y="120.24" width="0.48" height="14.399"/>
<text transform="matrix(1 0 0 1 248.1602 129.7197)" style="fill:#FFFFFF; font-family:'ProductusBook'; font-size:7.98;">r</text>
<rect x="241.08" y="134.64" style="fill:#FFFFFF;" width="42.54" height="14.221"/>
<rect x="241.08" y="134.4" width="42.78" height="0.479"/>
<rect x="283.38" y="134.64" width="0.48" height="14.46"/>
<rect x="240.84" y="148.62" width="42.78" height="0.479"/>
<rect x="240.84" y="134.4" width="0.48" height="14.46"/>
<text transform="matrix(1 0 0 1 248.1602 143.8799)" style="font-family:'ProductusOSGiBookc'; font-size:7.98;">t</text>
<rect x="127.68" y="148.86" style="fill:#FFFFFF;" width="42.54" height="14.16"/>
<rect x="127.68" y="148.62" width="42.78" height="0.479"/>
<rect x="169.98" y="148.86" width="0.479" height="14.399"/>
<rect x="127.44" y="162.78" width="42.78" height="0.479"/>
<rect x="127.44" y="148.62" width="0.48" height="14.4"/>
<text transform="matrix(1 0 0 1 134.7598 158.04)" style="font-family:'ProductusOSGiBookc'; font-size:7.98;">t</text>
<polyline style="fill-rule:evenodd;clip-rule:evenodd;fill:#FFFFFF;" points="159.601,127.56 158.88,127.62 158.22,127.86 
	157.62,128.16 157.08,128.64 156.66,129.12 156.3,129.72 156.12,130.38 156.061,131.1 156.061,152.4 156.12,153.12 156.3,153.78 
	156.66,154.38 157.08,154.86 157.62,155.34 158.22,155.64 158.88,155.88 159.601,155.94 160.26,155.88 160.98,155.64 161.58,155.34 
	162.54,154.38 162.84,153.78 163.021,153.12 163.14,152.4 163.14,131.1 163.021,130.38 162.84,129.72 162.54,129.12 161.58,128.16 
	160.98,127.86 160.26,127.62 159.601,127.56 "/>
<polyline points="159.66,127.8 158.94,127.86 159,127.86 158.34,128.1 157.74,128.4 157.8,128.34 157.26,128.82 156.84,129.3 
	156.9,129.24 156.54,129.84 156.54,129.78 156.36,130.44 156.3,131.16 156.3,131.1 156.3,152.4 156.36,153.12 156.36,153.06 
	156.54,153.72 156.54,153.66 156.9,154.26 156.84,154.26 157.26,154.74 157.26,154.68 157.8,155.16 157.74,155.16 158.34,155.46 
	158.34,155.4 159,155.64 158.94,155.64 159.66,155.7 159.601,155.7 160.26,155.64 160.2,155.64 160.92,155.4 160.86,155.46 
	161.46,155.16 161.4,155.16 162.36,154.2 162.36,154.26 162.66,153.66 162.601,153.72 162.78,153.06 162.78,153.12 162.9,152.4 
	162.9,131.1 162.9,131.16 162.78,130.44 162.601,129.78 162.66,129.84 162.36,129.24 162.36,129.3 161.4,128.34 161.46,128.4 
	160.86,128.1 160.92,128.1 160.2,127.86 160.26,127.86 159.601,127.8 159.66,127.32 160.32,127.38 160.38,127.38 161.101,127.62 
	161.101,127.68 161.7,127.98 161.76,127.98 162.78,129 163.08,129.6 163.08,129.66 163.26,130.32 163.26,130.38 163.38,131.1 
	163.38,152.46 163.26,153.18 163.08,153.84 163.08,153.9 162.78,154.5 161.7,155.58 161.101,155.88 160.38,156.12 160.32,156.12 
	159.66,156.18 159.601,156.18 158.88,156.12 158.82,156.12 158.16,155.88 158.101,155.88 157.5,155.58 157.5,155.521 156.96,155.04 
	156.9,155.04 156.48,154.56 156.48,154.5 156.12,153.9 156.061,153.84 155.88,153.18 155.82,152.46 155.82,131.1 155.88,130.38 
	155.88,130.32 156.061,129.66 156.12,129.6 156.48,129 156.9,128.521 156.96,128.46 157.5,127.98 158.101,127.68 158.16,127.62 
	158.82,127.38 158.88,127.38 159.601,127.32 "/>
<polyline points="159.601,127.8 159.66,127.8 159.601,127.32 159.66,127.32 "/>
<polyline style="fill-rule:evenodd;clip-rule:evenodd;fill:#FFFFFF;" points="216.24,63.78 215.58,63.84 214.86,64.08 214.26,64.38 
	213.78,64.86 213.36,65.34 213,65.94 212.82,66.6 212.7,67.32 212.7,88.62 212.82,89.34 213,90 213.36,90.6 213.78,91.08 
	214.26,91.56 214.86,91.86 215.58,92.04 216.24,92.16 216.96,92.04 217.62,91.86 218.28,91.56 218.76,91.08 219.18,90.6 219.54,90 
	219.72,89.34 219.84,88.62 219.84,67.32 219.72,66.6 219.54,65.94 219.18,65.34 218.76,64.86 218.28,64.38 217.62,64.08 
	216.96,63.84 216.24,63.78 "/>
<polyline points="216.3,64.021 215.64,64.08 215.7,64.08 214.98,64.32 214.38,64.62 214.44,64.56 213.96,65.04 213.54,65.521 
	213.601,65.46 213.24,66.06 213.24,66 213.061,66.66 212.94,67.38 212.94,67.32 212.94,88.62 213.061,89.34 213.061,89.28 
	213.24,89.94 213.24,89.88 213.601,90.48 213.54,90.48 213.96,90.96 213.96,90.9 214.44,91.38 214.38,91.38 214.98,91.68 
	214.92,91.62 215.64,91.8 216.3,91.92 216.24,91.92 216.96,91.8 216.9,91.8 217.561,91.62 217.561,91.68 218.22,91.38 
	218.101,91.38 218.58,90.9 218.58,90.96 219,90.48 219.36,89.88 219.3,89.94 219.48,89.28 219.48,89.34 219.601,88.62 
	219.601,67.32 219.601,67.38 219.48,66.66 219.3,66 219.36,66.06 219,65.46 219,65.521 218.58,65.04 218.101,64.56 218.22,64.62 
	217.561,64.32 216.9,64.08 216.96,64.08 216.24,64.021 216.3,63.54 217.021,63.6 217.08,63.6 217.74,63.84 217.74,63.9 218.4,64.2 
	218.46,64.2 218.94,64.68 218.94,64.74 219.36,65.22 219.42,65.22 219.78,65.82 219.78,65.88 219.96,66.54 219.96,66.6 
	220.08,67.32 220.08,88.68 219.96,89.4 219.78,90.06 219.78,90.12 219.42,90.72 219.36,90.78 218.94,91.26 218.4,91.8 217.74,92.1 
	217.68,92.1 217.021,92.28 216.3,92.4 216.24,92.4 215.58,92.28 215.521,92.28 214.8,92.1 214.74,92.1 214.14,91.8 213.601,91.26 
	213.18,90.78 213.18,90.72 212.82,90.12 212.76,90.06 212.58,89.4 212.46,88.68 212.46,67.32 212.58,66.6 212.58,66.54 
	212.76,65.88 212.82,65.82 213.18,65.22 213.601,64.74 213.601,64.68 214.08,64.2 214.14,64.2 214.74,63.9 214.8,63.84 
	215.521,63.6 215.58,63.6 216.24,63.54 "/>
<polyline points="216.24,64.021 216.3,64.021 216.24,63.54 216.3,63.54 "/>
<polyline style="fill-rule:evenodd;clip-rule:evenodd;fill:#FFFFFF;" points="272.94,127.56 272.22,127.62 271.561,127.86 
	270.96,128.16 270,129.12 269.7,129.72 269.521,130.38 269.4,131.1 269.4,138.18 269.521,138.9 269.7,139.56 270,140.16 
	270.48,140.7 270.96,141.12 271.561,141.48 272.22,141.66 272.94,141.72 273.66,141.66 274.32,141.48 274.92,141.12 275.46,140.7 
	275.88,140.16 276.24,139.56 276.42,138.9 276.48,138.18 276.48,131.1 276.42,130.38 276.24,129.72 275.88,129.12 275.46,128.64 
	274.92,128.16 274.32,127.86 273.66,127.62 272.94,127.56 "/>
<polyline points="273,127.8 272.28,127.86 272.34,127.86 271.68,128.1 271.08,128.4 271.14,128.34 270.18,129.3 270.24,129.24 
	269.94,129.84 269.94,129.78 269.76,130.44 269.64,131.16 269.64,131.1 269.64,138.18 269.76,138.9 269.76,138.84 269.94,139.5 
	269.94,139.44 270.24,140.04 270.18,140.04 270.66,140.58 270.66,140.521 271.14,140.94 271.08,140.94 271.68,141.3 271.62,141.24 
	272.28,141.42 273,141.48 272.94,141.48 273.66,141.42 273.601,141.42 274.26,141.24 274.2,141.3 274.8,140.94 275.34,140.521 
	275.28,140.58 275.7,140.04 276.061,139.44 276,139.5 276.18,138.84 276.18,138.9 276.24,138.18 276.24,131.1 276.24,131.16 
	276.18,130.44 276,129.78 276.061,129.84 275.7,129.24 275.7,129.3 275.28,128.82 275.34,128.82 274.8,128.34 274.8,128.4 
	274.2,128.1 274.26,128.1 273.601,127.86 273.66,127.86 272.94,127.8 273,127.32 273.72,127.38 273.78,127.38 274.44,127.62 
	274.44,127.68 275.04,127.98 275.101,127.98 275.64,128.46 275.64,128.521 276.061,129 276.12,129 276.48,129.6 276.48,129.66 
	276.66,130.32 276.66,130.38 276.72,131.1 276.72,138.24 276.66,138.96 276.48,139.62 276.48,139.68 276.12,140.28 276.061,140.34 
	275.64,140.88 275.101,141.3 275.04,141.36 274.44,141.72 274.38,141.72 273.72,141.9 273,141.96 272.94,141.96 272.22,141.9 
	272.16,141.9 271.5,141.72 271.44,141.72 270.84,141.36 270.84,141.3 270.36,140.88 270.3,140.88 269.82,140.34 269.82,140.28 
	269.521,139.68 269.46,139.62 269.28,138.96 269.16,138.24 269.16,131.1 269.28,130.38 269.28,130.32 269.46,129.66 269.521,129.6 
	269.82,129 269.82,128.94 270.78,127.98 270.84,127.98 271.44,127.68 271.5,127.62 272.16,127.38 272.22,127.38 272.94,127.32 "/>
<polyline points="272.94,127.8 273,127.8 272.94,127.32 273,127.32 "/>
<rect x="205.38" y="35.22" width="0.48" height="0.24"/>
<rect x="205.38" y="35.46" width="0.48" height="28.561"/>
<rect x="148.68" y="91.92" width="35.94" height="0.48"/>
<rect x="148.68" y="92.16" width="0.48" height="28.56"/>
<rect x="226.68" y="77.7" width="35.881" height="0.479"/>
<rect x="262.08" y="77.94" width="0.48" height="42.779"/>
<rect x="241.08" y="141.48" width="0.24" height="0.479"/>
<rect x="169.98" y="141.48" width="71.1" height="0.479"/>
<rect x="63.66" y="35.22" width="0.48" height="106.74"/>
<rect x="63.9" y="141.48" width="64.02" height="0.479"/>
<rect x="7.2" y="120.48" width="42.54" height="14.159"/>
<rect x="7.2" y="120.24" width="42.78" height="0.479"/>
<rect x="49.5" y="120.48" width="0.48" height="14.399"/>
<rect x="6.96" y="134.4" width="42.78" height="0.479"/>
<rect x="6.96" y="120.24" width="0.48" height="14.399"/>
<text transform="matrix(1 0 0 1 14.2803 129.7197)" style="fill:#FFFFFF; font-family:'ProductusBook'; font-size:7.98;">t</text>
<g>
	<text transform="matrix(1 0 0 1 229.6807 14.7607)" style="font-family:'ProductusSemibold'; font-size:7.98;">B</text>
	<text transform="matrix(1 0 0 1 35.5806 14.7607)" style="font-family:'ProductusSemibold'; font-size:7.98;">A</text>
</g>
<text transform="matrix(1 0 0 1 229.0205 61.3799)" style="font-family:'ProductusSemibold'; font-size:7.98;">C</text>
<g>
	<text transform="matrix(1 0 0 1 236.1006 125.1602)" style="font-family:'ProductusSemibold'; font-size:7.98;">E</text>
	<text transform="matrix(1 0 0 1 120.6001 125.1602)" style="font-family:'ProductusSemibold'; font-size:7.98;">D</text>
</g>
<text transform="matrix(1 0 0 1 0 128.7598)" style="font-family:'ProductusSemibold'; font-size:7.98;">F</text>
</svg>
