<?xml version="1.0" encoding="utf-8"?>
<!-- Generator: Adobe Illustrator 16.0.0, SVG Export Plug-In . SVG Version: 6.00 Build 0)  -->
<!DOCTYPE svg PUBLIC "-//W3C//DTD SVG 1.1//EN" "http://www.w3.org/Graphics/SVG/1.1/DTD/svg11.dtd">
<svg version="1.1" id="Layer_1" xmlns="http://www.w3.org/2000/svg" xmlns:xlink="http://www.w3.org/1999/xlink" x="0px" y="0px"
	 width="283.68px" height="44.748px" viewBox="0 0 283.68 44.748" style="enable-background:new 0 0 283.68 44.748;"
	 xml:space="preserve">
<rect x="113.4" y="1.968" style="fill:#B3B3B3;" width="56.7" height="42.54"/>
<text transform="matrix(1 0 0 1 114 15.8877)" style="font-family:'ProductusSemibold'; font-size:7.98;">A</text>
<rect x="120.48" y="23.208" width="42.54" height="14.16"/>
<rect x="120.48" y="22.968" width="42.78" height="0.479"/>
<rect x="162.779" y="23.208" width="0.48" height="14.399"/>
<rect x="120.24" y="37.128" width="42.78" height="0.479"/>
<rect x="120.24" y="22.968" width="0.48" height="14.4"/>
<text transform="matrix(1 0 0 1 127.5596 32.4482)" style="fill:#FFFFFF; font-family:'ProductusBook'; font-size:7.98;">p</text>
<rect x="120.48" y="9.048" style="fill:#FFFFFF;" width="42.54" height="14.16"/>
<rect x="120.48" y="8.808" width="42.78" height="0.48"/>
<rect x="162.779" y="9.048" width="0.48" height="14.399"/>
<rect x="120.24" y="22.968" width="42.78" height="0.479"/>
<rect x="120.24" y="8.808" width="0.48" height="14.4"/>
<text transform="matrix(1 0 0 1 127.5596 18.2881)" style="font-family:'ProductusOSGiBookc'; font-size:7.98;">p</text>
<rect x="240.96" y="16.128" style="fill:#D9D9D9;" width="42.479" height="14.16"/>
<rect x="240.96" y="15.888" width="42.72" height="0.48"/>
<rect x="283.2" y="16.128" width="0.479" height="14.399"/>
<rect x="240.72" y="30.048" width="42.72" height="0.479"/>
<rect x="240.72" y="15.888" width="0.48" height="14.4"/>
<text transform="matrix(1 0 0 1 248.04 25.3682)" style="font-family:'ProductusOSGiBookc'; font-size:7.98;">s</text>
<rect x="240.96" y="1.968" style="fill:#D9D9D9;" width="42.479" height="14.16"/>
<rect x="240.96" y="1.728" width="42.72" height="0.48"/>
<rect x="283.2" y="1.968" width="0.479" height="14.4"/>
<rect x="240.72" y="15.888" width="42.72" height="0.48"/>
<rect x="240.72" y="1.728" width="0.48" height="14.4"/>
<text transform="matrix(1 0 0 1 248.04 11.208)" style="font-family:'ProductusOSGiBookc'; font-size:7.98;">q</text>
<text transform="matrix(1 0 0 1 234.6602 10.9678)" style="font-family:'ProductusSemibold'; font-size:7.98;">B</text>
<polyline points="181.62,23.208 181.62,26.508 180.96,26.328 170.04,23.208 180.96,20.088 181.62,19.907 181.62,20.567 
	181.26,21.048 172.02,23.688 171.72,22.728 172.02,22.728 181.26,25.368 180.96,26.328 180.6,25.848 180.6,23.208 "/>
<rect x="180.6" y="20.567" width="1.021" height="2.641"/>
<polyline style="fill-rule:evenodd;clip-rule:evenodd;" points="181.14,23.208 181.14,25.848 171.899,23.208 181.14,20.567 "/>
<rect x="240.96" y="22.968" width="0.24" height="0.479"/>
<rect x="181.38" y="22.968" width="59.58" height="0.479"/>
<rect x="240.96" y="30.288" style="fill:#D9D9D9;" width="42.479" height="14.22"/>
<rect x="240.96" y="30.048" width="42.72" height="0.479"/>
<rect x="283.2" y="30.288" width="0.479" height="14.46"/>
<rect x="240.72" y="44.268" width="42.72" height="0.48"/>
<rect x="240.72" y="30.048" width="0.48" height="14.46"/>
<text transform="matrix(1 0 0 1 248.04 39.5273)" style="font-family:'ProductusOSGiBookc'; font-size:7.98;">t</text>
<rect y="1.968" style="fill:#B3B3B3;" width="56.7" height="28.32"/>
<polyline points="101.88,16.128 101.88,12.828 102.18,12.888 112.56,15.888 113.4,16.128 112.56,16.368 102.18,19.368 
	101.88,19.428 101.88,19.128 102.06,18.888 112.44,15.888 112.56,16.368 112.44,16.368 102.06,13.368 102.18,12.888 102.36,13.128 
	102.36,16.128 "/>
<rect x="101.88" y="16.128" width="0.48" height="3"/>
<rect x="56.7" y="15.888" width="45.12" height="0.48"/>
<text transform="matrix(1 0 0 1 0 6.6475)" style="font-family:'ProductusSemibold'; font-size:7.98;">C</text>
<rect x="7.08" y="9.048" width="42.54" height="14.16"/>
<rect x="7.08" y="8.808" width="42.78" height="0.48"/>
<rect x="49.38" y="9.048" width="0.48" height="14.399"/>
<rect x="6.84" y="22.968" width="42.78" height="0.479"/>
<rect x="6.84" y="8.808" width="0.48" height="14.4"/>
<text transform="matrix(1 0 0 1 14.1597 18.2881)" style="fill:#FFFFFF; font-family:'ProductusBook'; font-size:7.98;">q</text>
<text transform="matrix(1 0 0 1 198.4199 16.1279)"><tspan x="0" y="0" style="font-family:'ProductusOSGiBookc'; font-size:7.98;">A,</tspan><tspan x="5.602" y="0" style="font-family:'ProductusOSGiBookc'; font-size:7.98;"> </tspan><tspan x="7.214" y="0" style="font-family:'ProductusOSGiBookc'; font-size:7.98;">fra</tspan><tspan x="14.707" y="0" style="font-family:'ProductusOSGiBookc'; font-size:7.98;">g</tspan><tspan x="18.187" y="0" style="font-family:'ProductusOSGiBookc'; font-size:7.98;">ment</tspan></text>
<text transform="matrix(1 0 0 1 172.0791 35.0273)"><tspan x="0" y="0" style="font-family:'ProductusOSGiBookc'; font-size:7.98;">B</tspan><tspan x="3.487" y="0" style="font-family:'ProductusOSGiBookc'; font-size:7.98;">,</tspan><tspan x="5.1" y="0" style="font-family:'ProductusOSGiBookc'; font-size:7.98;"> </tspan><tspan x="6.663" y="0" style="font-family:'ProductusOSGiBookc'; font-size:7.98;">h</tspan><tspan x="10.318" y="0" style="font-family:'ProductusOSGiBookc'; font-size:7.98;">os</tspan><tspan x="16.909" y="0" style="font-family:'ProductusOSGiBookc'; font-size:7.98;">t</tspan></text>
<text transform="matrix(1 0 0 1 83.0991 11.4473)"><tspan x="0" y="0" style="font-family:'ProductusOSGiBookc'; font-size:7.98;">C</tspan><tspan x="4.381" y="0" style="font-family:'ProductusOSGiBookc'; font-size:7.98;">,</tspan><tspan x="5.945" y="0" style="font-family:'ProductusOSGiBookc'; font-size:7.98;"> </tspan><tspan x="7.565" y="0" style="font-family:'ProductusOSGiBookc'; font-size:7.98;">p</tspan><tspan x="11.236" y="0" style="font-family:'ProductusOSGiBookc'; font-size:7.98;">r</tspan><tspan x="13.279" y="0" style="font-family:'ProductusOSGiBookc'; font-size:7.98;">o</tspan><tspan x="16.885" y="0" style="font-family:'ProductusOSGiBookc'; font-size:7.98;">vid</tspan><tspan x="25.256" y="0" style="font-family:'ProductusOSGiBookc'; font-size:7.98;">e</tspan></text>
<text transform="matrix(1 0 0 1 59.519 23.5078)"><tspan x="0" y="0" style="font-family:'ProductusOSGiBookc'; font-size:7.98;">A</tspan><tspan x="4.03" y="0" style="font-family:'ProductusOSGiBookc'; font-size:7.98;">,</tspan><tspan x="5.65" y="0" style="font-family:'ProductusOSGiBookc'; font-size:7.98;"> </tspan><tspan x="7.214" y="0" style="font-family:'ProductusOSGiBookc'; font-size:7.98;">r</tspan><tspan x="9.257" y="0" style="font-family:'ProductusOSGiBookc'; font-size:7.98;">e</tspan><tspan x="12.736" y="0" style="font-family:'ProductusOSGiBookc'; font-size:7.98;">qu</tspan><tspan x="20.021" y="0" style="font-family:'ProductusOSGiBookc'; font-size:7.98;">i</tspan><tspan x="21.578" y="0" style="font-family:'ProductusOSGiBookc'; font-size:7.98;">r</tspan><tspan x="23.62" y="0" style="font-family:'ProductusOSGiBookc'; font-size:7.98;">e</tspan></text>
</svg>
