<?xml version="1.0" encoding="utf-8"?>
<!-- Generator: Adobe Illustrator 16.0.0, SVG Export Plug-In . SVG Version: 6.00 Build 0)  -->
<!DOCTYPE svg PUBLIC "-//W3C//DTD SVG 1.1//EN" "http://www.w3.org/Graphics/SVG/1.1/DTD/svg11.dtd">
<svg version="1.1" id="Layer_1" xmlns="http://www.w3.org/2000/svg" xmlns:xlink="http://www.w3.org/1999/xlink" x="0px" y="0px"
	 width="392.429px" height="134.641px" viewBox="0 0 392.429 134.641" style="enable-background:new 0 0 392.429 134.641;"
	 xml:space="preserve">
<rect x="158.639" y="85.021" style="fill:#808080;" width="56.7" height="49.62"/>
<rect x="158.639" style="fill:#808080;" width="56.7" height="42.48"/>
<polyline style="fill-rule:evenodd;clip-rule:evenodd;fill:#FFFFFF;" points="186.959,14.16 186.959,13.44 186.839,12.72 
	186.659,12.06 186.419,11.4 186.119,10.74 185.76,10.2 184.919,9.12 183.839,8.28 183.239,7.92 182.64,7.62 181.979,7.38 
	181.319,7.2 180.6,7.08 179.159,7.08 178.439,7.2 177.779,7.38 177.119,7.62 176.52,7.92 175.919,8.28 175.379,8.7 174.899,9.12 
	174.419,9.66 173.999,10.2 173.64,10.74 173.339,11.4 173.1,12.06 172.919,12.72 172.799,14.16 172.919,15.6 173.1,16.26 
	173.339,16.92 173.64,17.521 173.999,18.12 174.419,18.66 175.379,19.62 175.919,20.04 176.52,20.4 177.119,20.7 177.779,20.94 
	178.439,21.06 179.159,21.18 179.879,21.24 180.6,21.18 181.319,21.06 181.979,20.94 182.64,20.7 183.239,20.4 183.839,20.04 
	184.379,19.62 184.919,19.14 185.339,18.66 185.76,18.12 186.119,17.521 186.419,16.92 186.659,16.26 186.839,15.6 186.959,14.88 
	186.959,14.16 "/>
<polyline points="186.72,14.16 186.72,13.44 186.72,13.5 186.6,12.78 186.419,12.12 186.419,12.18 186.18,11.521 186.239,11.521 
	185.939,10.86 185.579,10.32 185.579,10.38 184.739,9.3 184.799,9.3 183.72,8.46 183.72,8.521 183.119,8.16 182.52,7.86 
	182.579,7.86 181.919,7.62 181.26,7.44 181.319,7.44 180.6,7.32 179.159,7.32 179.22,7.32 178.499,7.44 177.839,7.62 177.899,7.62 
	177.239,7.86 176.64,8.16 176.039,8.521 176.1,8.46 175.56,8.88 175.079,9.3 174.6,9.84 174.18,10.38 174.239,10.32 173.879,10.86 
	173.579,11.521 173.339,12.18 173.339,12.12 173.159,12.78 173.039,14.22 173.039,14.16 173.159,15.6 173.159,15.54 173.339,16.2 
	173.579,16.86 173.579,16.8 173.879,17.4 174.239,18 174.18,18 174.6,18.54 174.6,18.48 175.56,19.44 175.26,19.8 175.199,19.8 
	174.239,18.84 173.819,18.3 173.819,18.24 173.459,17.64 173.159,17.04 173.1,17.04 172.859,16.38 172.859,16.32 172.68,15.66 
	172.56,14.22 172.56,14.16 172.68,12.72 172.68,12.66 172.859,12 173.1,11.34 173.159,11.34 173.459,10.68 173.459,10.62 
	173.819,10.08 174.239,9.54 174.72,9 174.779,8.94 175.26,8.521 175.799,8.1 176.399,7.74 176.999,7.44 177.06,7.38 177.72,7.14 
	178.379,6.96 178.439,6.96 179.159,6.84 180.659,6.84 181.379,6.96 182.039,7.14 182.1,7.14 182.76,7.38 182.76,7.44 183.359,7.74 
	183.959,8.1 184.02,8.1 185.1,8.94 185.1,9 185.939,10.08 185.999,10.08 186.359,10.62 186.359,10.68 186.659,11.34 186.899,12 
	187.079,12.66 187.079,12.72 187.199,13.44 187.199,14.16 "/>
<polyline points="175.56,19.44 176.1,19.86 176.039,19.86 176.64,20.22 177.239,20.521 177.239,20.46 177.899,20.7 177.839,20.7 
	178.499,20.82 179.22,20.94 179.939,21 179.879,21 180.6,20.94 181.319,20.82 181.979,20.7 181.919,20.7 182.579,20.46 
	182.52,20.521 183.119,20.22 183.72,19.86 184.26,19.44 184.799,18.96 184.739,19.021 185.159,18.54 185.579,18 185.939,17.4 
	186.239,16.8 186.18,16.86 186.419,16.2 186.6,15.54 186.6,15.6 186.72,14.88 186.72,14.16 187.199,14.16 187.199,14.94 
	187.079,15.66 186.899,16.32 186.899,16.38 186.659,17.04 186.359,17.64 185.999,18.24 185.939,18.3 185.52,18.84 185.1,19.32 
	184.56,19.8 184.02,20.22 183.959,20.28 183.359,20.64 182.76,20.94 182.1,21.18 182.039,21.18 181.379,21.3 180.659,21.42 
	179.939,21.48 179.879,21.48 179.159,21.42 178.439,21.3 177.779,21.18 177.72,21.18 177.06,20.94 176.999,20.94 176.399,20.64 
	175.799,20.28 175.799,20.22 175.26,19.8 "/>
<text transform="matrix(1 0 0 1.0522 328.7393 44.04)"><tspan x="0" y="0" style="font-family:'ProductusOSGiBookc'; font-size:7.5841;">Capabilit</tspan><tspan x="23.896" y="0" style="font-family:'ProductusOSGiBookc'; font-size:7.5841;">y</tspan></text>
<text transform="matrix(1 0 0 1.0522 328.7393 23.6401)"><tspan x="0" y="0" style="font-family:'ProductusOSGiBookc'; font-size:7.5841;">R</tspan><tspan x="3.307" y="0" style="font-family:'ProductusOSGiBookc'; font-size:7.5841;">equi</tspan><tspan x="15.001" y="0" style="font-family:'ProductusOSGiBookc'; font-size:7.5841;">r</tspan><tspan x="16.928" y="0" style="font-family:'ProductusOSGiBookc'; font-size:7.5841;">eme</tspan><tspan x="28.963" y="0" style="font-family:'ProductusOSGiBookc'; font-size:7.5841;">n</tspan><tspan x="32.384" y="0" style="font-family:'ProductusOSGiBookc'; font-size:7.5841;">t</tspan></text>
<rect x="16.919" style="fill:#808080;" width="56.64" height="49.561"/>
<polyline style="fill-rule:evenodd;clip-rule:evenodd;" points="59.399,14.16 59.399,13.44 59.279,12.72 59.099,12.06 58.859,11.4 
	58.559,10.74 58.199,10.2 57.359,9.12 56.279,8.28 55.679,7.92 55.079,7.62 54.419,7.38 53.759,7.2 53.039,7.08 51.599,7.08 
	50.879,7.2 50.219,7.38 49.559,7.62 48.959,7.92 48.359,8.28 47.819,8.7 47.339,9.12 46.859,9.66 46.439,10.2 46.079,10.74 
	45.779,11.4 45.539,12.06 45.359,12.72 45.239,14.16 45.359,15.6 45.539,16.26 45.779,16.92 46.079,17.521 46.439,18.12 
	46.859,18.66 47.819,19.62 48.359,20.04 48.959,20.4 49.559,20.7 50.219,20.94 50.879,21.06 51.599,21.18 52.319,21.24 
	53.039,21.18 53.759,21.06 54.419,20.94 55.079,20.7 55.679,20.4 56.279,20.04 56.819,19.62 57.359,19.14 57.779,18.66 
	58.199,18.12 58.559,17.521 58.859,16.92 59.099,16.26 59.279,15.6 59.399,14.88 59.399,14.16 "/>
<polyline points="59.159,14.16 59.159,13.44 59.159,13.5 59.039,12.78 58.859,12.12 58.859,12.18 58.619,11.521 58.679,11.521 
	58.379,10.86 58.02,10.32 58.02,10.38 57.179,9.3 57.239,9.3 56.159,8.46 56.159,8.521 55.559,8.16 54.959,7.86 55.02,7.86 
	54.359,7.62 53.699,7.44 53.759,7.44 53.039,7.32 51.599,7.32 51.659,7.32 50.939,7.44 50.279,7.62 50.339,7.62 49.679,7.86 
	49.079,8.16 48.479,8.521 48.539,8.46 48,8.88 47.52,9.3 47.039,9.84 46.619,10.38 46.679,10.32 46.319,10.86 46.02,11.521 
	45.779,12.18 45.779,12.12 45.599,12.78 45.479,14.22 45.479,14.16 45.599,15.6 45.599,15.54 45.779,16.2 46.02,16.86 46.02,16.8 
	46.319,17.4 46.679,18 46.619,18 47.039,18.54 47.039,18.48 48,19.44 47.699,19.8 47.639,19.8 46.679,18.84 46.259,18.3 
	46.259,18.24 45.899,17.64 45.599,17.04 45.539,17.04 45.299,16.38 45.299,16.32 45.119,15.66 45,14.22 45,14.16 45.119,12.72 
	45.119,12.66 45.299,12 45.539,11.34 45.599,11.34 45.899,10.68 45.899,10.62 46.259,10.08 46.679,9.54 47.159,9 47.219,8.94 
	47.699,8.521 48.239,8.1 48.839,7.74 49.439,7.44 49.5,7.38 50.159,7.14 50.819,6.96 50.879,6.96 51.599,6.84 53.099,6.84 
	53.819,6.96 54.479,7.14 54.539,7.14 55.199,7.38 55.199,7.44 55.799,7.74 56.399,8.1 56.459,8.1 57.539,8.94 57.539,9 
	58.379,10.08 58.439,10.08 58.799,10.62 58.799,10.68 59.099,11.34 59.339,12 59.52,12.66 59.52,12.72 59.639,13.44 59.639,14.16 
	"/>
<polyline points="48,19.44 48.539,19.86 48.479,19.86 49.079,20.22 49.679,20.521 49.679,20.46 50.339,20.7 50.279,20.7 
	50.939,20.82 51.659,20.94 52.379,21 52.319,21 53.039,20.94 53.759,20.82 54.419,20.7 54.359,20.7 55.02,20.46 54.959,20.521 
	55.559,20.22 56.159,19.86 56.699,19.44 57.239,18.96 57.179,19.021 57.599,18.54 58.02,18 58.379,17.4 58.679,16.8 58.619,16.86 
	58.859,16.2 59.039,15.54 59.039,15.6 59.159,14.88 59.159,14.16 59.639,14.16 59.639,14.94 59.52,15.66 59.339,16.32 59.339,16.38 
	59.099,17.04 58.799,17.64 58.439,18.24 58.379,18.3 57.959,18.84 57.539,19.32 57,19.8 56.459,20.22 56.399,20.28 55.799,20.64 
	55.199,20.94 54.539,21.18 54.479,21.18 53.819,21.3 53.099,21.42 52.379,21.48 52.319,21.48 51.599,21.42 50.879,21.3 
	50.219,21.18 50.159,21.18 49.5,20.94 49.439,20.94 48.839,20.64 48.239,20.28 48.239,20.22 47.699,19.8 "/>
<rect x="59.159" y="13.92" width="14.64" height="0.48"/>
<rect x="158.399" y="13.92" width="14.64" height="0.48"/>
<rect x="73.319" y="13.92" width="1.26" height="0.48"/>
<rect x="78.659" y="13.92" width="1.98" height="0.48"/>
<rect x="84.719" y="13.92" width="1.98" height="0.48"/>
<rect x="90.779" y="13.92" width="2.04" height="0.48"/>
<rect x="96.899" y="13.92" width="1.98" height="0.48"/>
<rect x="102.959" y="13.92" width="1.98" height="0.48"/>
<rect x="109.02" y="13.92" width="1.98" height="0.48"/>
<rect x="115.079" y="13.92" width="2.04" height="0.48"/>
<rect x="121.199" y="13.92" width="1.98" height="0.48"/>
<rect x="127.259" y="13.92" width="1.98" height="0.48"/>
<rect x="133.319" y="13.92" width="2.04" height="0.48"/>
<rect x="139.379" y="13.92" width="2.04" height="0.48"/>
<rect x="145.5" y="13.92" width="1.98" height="0.48"/>
<rect x="151.559" y="13.92" width="1.98" height="0.48"/>
<rect x="157.619" y="13.92" width="1.26" height="0.48"/>
<polyline style="fill-rule:evenodd;clip-rule:evenodd;fill:#FFFFFF;" points="321.6,21.24 321.6,20.521 321.479,19.8 321.299,19.14 
	321.06,18.48 320.76,17.88 320.399,17.28 319.56,16.2 318.479,15.36 317.939,15 317.279,14.7 316.619,14.46 315.959,14.28 
	315.239,14.16 313.799,14.16 313.14,14.28 312.419,14.46 311.76,14.7 311.159,15 310.56,15.36 310.02,15.78 309.539,16.2 
	309.06,16.74 308.64,17.28 308.279,17.88 308.039,18.48 307.799,19.14 307.619,19.8 307.499,20.521 307.439,21.24 307.499,21.96 
	307.619,22.68 307.799,23.34 308.039,24 308.279,24.6 308.64,25.2 309.06,25.74 310.02,26.7 310.56,27.12 311.159,27.48 
	311.76,27.78 312.419,28.021 313.14,28.2 313.799,28.26 314.52,28.32 315.959,28.2 316.619,28.021 317.279,27.78 317.939,27.48 
	318.479,27.12 319.02,26.7 319.56,26.22 319.979,25.74 320.399,25.2 320.76,24.6 321.06,24 321.299,23.34 321.479,22.68 
	321.6,21.96 321.6,21.24 "/>
<polyline points="321.359,21.24 321.359,20.521 321.359,20.58 321.239,19.86 321.06,19.2 321.06,19.26 320.819,18.6 320.879,18.6 
	320.579,18 320.22,17.4 320.22,17.46 319.379,16.38 319.439,16.38 318.359,15.54 318.359,15.6 317.819,15.24 317.879,15.24 
	317.22,14.94 316.56,14.7 315.899,14.521 315.959,14.521 315.239,14.4 313.799,14.4 313.859,14.4 313.199,14.521 312.479,14.7 
	312.539,14.7 311.879,14.94 311.279,15.24 310.68,15.6 310.739,15.54 310.199,15.96 309.72,16.38 309.239,16.92 308.819,17.46 
	308.879,17.4 308.52,18 308.279,18.6 308.039,19.26 308.039,19.2 307.859,19.86 307.739,20.58 307.68,21.3 307.68,21.24 
	307.739,21.96 307.859,22.68 307.859,22.62 308.039,23.28 308.279,23.94 308.52,24.54 308.52,24.48 308.879,25.08 308.819,25.08 
	309.239,25.62 309.239,25.56 310.199,26.521 309.899,26.88 309.839,26.88 308.879,25.92 308.459,25.38 308.459,25.32 308.1,24.72 
	307.859,24.12 307.799,24.12 307.56,23.46 307.56,23.4 307.379,22.74 307.26,22.021 307.199,21.3 307.199,21.24 307.26,20.521 
	307.379,19.8 307.379,19.74 307.56,19.08 307.799,18.42 307.859,18.42 308.1,17.82 308.1,17.76 308.459,17.16 308.879,16.62 
	309.359,16.08 309.419,16.021 309.899,15.6 310.439,15.18 311.039,14.82 311.64,14.521 311.699,14.46 312.359,14.22 313.079,14.04 
	313.14,14.04 313.799,13.92 315.299,13.92 316.02,14.04 316.68,14.22 316.739,14.22 317.399,14.46 317.399,14.521 318.06,14.82 
	318.6,15.18 318.659,15.18 319.739,16.021 319.739,16.08 320.579,17.16 320.64,17.16 320.999,17.76 321.299,18.36 321.299,18.42 
	321.539,19.08 321.72,19.74 321.72,19.8 321.839,20.521 321.839,21.24 "/>
<polyline points="310.199,26.521 310.739,26.94 310.68,26.94 311.279,27.3 311.879,27.6 311.879,27.54 312.539,27.78 312.479,27.78 
	313.199,27.96 313.859,28.021 314.579,28.08 314.52,28.08 315.959,27.96 315.899,27.96 316.56,27.78 317.22,27.54 317.22,27.6 
	317.879,27.3 317.819,27.3 318.359,26.94 318.899,26.521 319.439,26.04 319.379,26.1 319.799,25.62 320.22,25.08 320.579,24.48 
	320.879,23.88 320.819,23.94 321.06,23.28 321.239,22.62 321.239,22.68 321.359,21.96 321.359,21.24 321.839,21.24 321.839,22.021 
	321.72,22.74 321.539,23.4 321.539,23.46 321.299,24.12 320.999,24.72 320.64,25.32 320.579,25.38 320.159,25.92 319.739,26.4 
	319.199,26.88 318.659,27.3 318.6,27.36 318.06,27.72 317.399,28.021 316.739,28.26 316.68,28.26 316.02,28.44 315.299,28.5 
	314.579,28.56 314.52,28.56 313.799,28.5 313.14,28.44 313.079,28.44 312.359,28.26 311.699,28.021 311.64,28.021 311.039,27.72 
	310.439,27.36 310.439,27.3 309.899,26.88 "/>
<polyline style="fill-rule:evenodd;clip-rule:evenodd;" points="321.6,42.48 321.6,41.76 321.479,41.04 321.299,40.38 
	321.06,39.721 320.76,39.12 320.399,38.521 319.979,37.98 319.56,37.5 319.02,37.021 318.479,36.601 317.939,36.24 317.279,35.94 
	316.619,35.7 315.959,35.58 315.239,35.46 314.52,35.4 313.799,35.46 313.14,35.58 312.419,35.7 311.76,35.94 311.159,36.24 
	310.56,36.601 310.02,37.021 309.06,37.98 308.64,38.521 308.279,39.12 308.039,39.721 307.799,40.38 307.619,41.04 307.499,41.76 
	307.439,42.48 307.499,43.2 307.619,43.92 307.799,44.58 308.279,45.9 308.64,46.44 309.06,46.98 309.539,47.521 310.02,47.94 
	310.56,48.36 311.159,48.721 311.76,49.021 312.419,49.26 313.14,49.44 313.799,49.561 315.239,49.561 315.959,49.44 316.619,49.26 
	317.279,49.021 317.939,48.721 318.479,48.36 319.56,47.521 320.399,46.44 320.76,45.9 321.06,45.24 321.299,44.58 321.479,43.92 
	321.6,43.2 321.6,42.48 "/>
<polyline points="321.359,42.48 321.359,41.76 321.359,41.82 321.239,41.101 321.06,40.44 321.06,40.5 320.819,39.84 320.879,39.84 
	320.579,39.24 320.22,38.641 320.22,38.7 319.799,38.16 319.379,37.681 319.439,37.681 318.899,37.2 318.359,36.78 318.359,36.84 
	317.819,36.48 317.879,36.48 317.22,36.181 316.56,35.94 316.619,35.94 315.959,35.82 315.239,35.7 314.52,35.641 314.579,35.641 
	313.859,35.7 313.199,35.82 312.479,35.94 312.539,35.94 311.879,36.181 311.279,36.48 310.68,36.84 310.739,36.78 310.199,37.2 
	309.239,38.16 308.819,38.7 308.879,38.641 308.52,39.24 308.279,39.84 308.039,40.5 308.039,40.44 307.859,41.101 307.739,41.82 
	307.68,42.54 307.68,42.48 307.739,43.2 307.859,43.92 307.859,43.86 308.039,44.521 308.52,45.84 308.52,45.78 308.879,46.32 
	308.819,46.32 309.239,46.86 309.72,47.4 309.72,47.34 310.199,47.76 309.899,48.12 309.419,47.7 309.359,47.7 308.879,47.16 
	308.459,46.62 308.459,46.561 308.1,46.021 308.039,46.021 307.56,44.7 307.56,44.641 307.379,43.98 307.26,43.26 307.199,42.54 
	307.199,42.48 307.26,41.76 307.379,41.04 307.379,40.98 307.56,40.32 307.799,39.66 307.859,39.66 308.1,39.061 308.1,39 
	308.459,38.4 308.879,37.86 308.879,37.8 309.839,36.84 309.899,36.84 310.439,36.42 311.039,36.061 311.64,35.76 311.699,35.7 
	312.359,35.46 312.419,35.46 313.14,35.34 313.799,35.221 314.52,35.16 314.579,35.16 315.299,35.221 316.02,35.34 316.68,35.46 
	316.739,35.46 317.399,35.7 317.399,35.76 318.06,36.061 318.6,36.42 318.659,36.42 319.199,36.84 319.739,37.32 319.739,37.38 
	320.159,37.86 320.579,38.4 320.64,38.4 320.999,39 321.299,39.601 321.299,39.66 321.539,40.32 321.72,40.98 321.72,41.04 
	321.839,41.76 321.839,42.48 "/>
<polyline points="310.199,47.76 310.739,48.181 310.68,48.181 311.279,48.54 311.879,48.84 311.879,48.78 312.539,49.021 
	312.479,49.021 313.199,49.2 313.859,49.32 313.799,49.32 315.239,49.32 315.959,49.2 315.899,49.2 316.56,49.021 317.22,48.78 
	317.22,48.84 317.879,48.54 317.819,48.54 318.359,48.181 319.439,47.34 319.379,47.4 320.22,46.32 320.579,45.78 320.579,45.84 
	320.879,45.181 320.819,45.181 321.06,44.521 321.239,43.86 321.239,43.92 321.359,43.2 321.359,42.48 321.839,42.48 321.839,43.26 
	321.72,43.98 321.539,44.641 321.539,44.7 321.299,45.36 320.999,46.021 320.64,46.561 320.579,46.62 319.739,47.7 318.659,48.54 
	318.6,48.601 318.06,48.96 317.399,49.26 316.739,49.5 316.68,49.5 316.02,49.681 315.299,49.8 313.799,49.8 313.14,49.681 
	313.079,49.681 312.359,49.5 311.699,49.26 311.64,49.26 311.039,48.96 310.439,48.601 310.439,48.54 309.899,48.12 "/>
<rect x="307.439" y="56.641" style="fill:#808080;" width="14.16" height="14.22"/>
<rect x="307.199" y="84.78" width="14.64" height="0.479"/>
<text transform="matrix(1 0 0 1.0522 328.7393 86.2207)"><tspan x="0" y="0" style="font-family:'ProductusOSGiBookc'; font-size:7.5841;">Requi</tspan><tspan x="15.047" y="0" style="font-family:'ProductusOSGiBookc'; font-size:7.5841;">r</tspan><tspan x="16.973" y="0" style="font-family:'ProductusOSGiBookc'; font-size:7.5841;">ement</tspan><tspan x="34.689" y="0" style="font-family:'ProductusOSGiBookc'; font-size:7.5841;">/</tspan><tspan x="36.79" y="0" style="font-family:'ProductusOSGiBookc'; font-size:7.5841;">C</tspan><tspan x="40.87" y="0" style="font-family:'ProductusOSGiBookc'; font-size:7.5841;">apab</tspan><tspan x="54.073" y="0" style="font-family:'ProductusOSGiBookc'; font-size:7.5841;">i</tspan><tspan x="55.567" y="0" style="font-family:'ProductusOSGiBookc'; font-size:7.5841;">lity</tspan></text>
<rect x="307.199" y="98.94" width="1.26" height="0.479"/>
<rect x="311.399" y="98.94" width="1.68" height="0.479"/>
<rect x="316.02" y="98.94" width="0.24" height="0.479"/>
<rect x="316.26" y="98.94" width="1.38" height="0.479"/>
<rect x="320.64" y="98.94" width="0.239" height="0.479"/>
<rect x="320.879" y="98.94" width="0.96" height="0.479"/>
<text transform="matrix(1 0 0 1.0522 328.7393 100.4404)"><tspan x="0" y="0" style="font-family:'ProductusOSGiBookc'; font-size:7.5841;">Runtim</tspan><tspan x="19.438" y="0" style="font-family:'ProductusOSGiBookc'; font-size:7.5841;">e</tspan></text>
<rect x="16.919" y="85.021" style="fill:#808080;" width="56.64" height="49.62"/>
<polyline style="fill-rule:evenodd;clip-rule:evenodd;" points="186.959,99.181 186.959,98.46 186.839,97.74 186.659,97.08 
	186.419,96.42 186.119,95.82 185.76,95.221 185.339,94.681 184.919,94.2 184.379,93.721 183.839,93.3 183.239,92.94 182.64,92.641 
	181.979,92.4 181.319,92.221 180.6,92.16 179.879,92.101 178.439,92.221 177.779,92.4 177.119,92.641 176.52,92.94 175.919,93.3 
	175.379,93.721 174.419,94.681 173.999,95.221 173.64,95.82 173.339,96.42 173.1,97.08 172.919,97.74 172.799,99.181 
	172.919,100.62 173.1,101.28 173.339,101.94 173.64,102.54 173.999,103.141 174.419,103.681 174.899,104.221 175.379,104.641 
	175.919,105.061 176.52,105.42 177.119,105.721 177.779,105.96 178.439,106.141 179.159,106.26 180.6,106.26 181.319,106.141 
	181.979,105.96 182.64,105.721 183.239,105.42 183.839,105.061 184.919,104.221 185.76,103.141 186.119,102.54 186.419,101.94 
	186.659,101.28 186.839,100.62 186.959,99.9 186.959,99.181 "/>
<polyline points="186.72,99.181 186.72,98.46 186.72,98.521 186.6,97.8 186.419,97.141 186.419,97.2 186.18,96.54 186.239,96.54 
	185.939,95.94 185.579,95.34 185.579,95.4 185.159,94.86 184.739,94.38 184.799,94.38 184.26,93.9 183.72,93.48 183.72,93.54 
	183.119,93.181 182.52,92.88 182.579,92.88 181.919,92.641 181.26,92.46 181.319,92.46 180.6,92.4 179.879,92.34 179.939,92.34 
	179.22,92.4 178.499,92.46 177.839,92.641 177.899,92.641 177.239,92.88 176.64,93.181 176.039,93.54 176.1,93.48 175.56,93.9 
	174.6,94.86 174.18,95.4 174.239,95.34 173.879,95.94 173.579,96.54 173.339,97.2 173.339,97.141 173.159,97.8 173.039,99.24 
	173.039,99.181 173.159,100.62 173.159,100.561 173.339,101.221 173.579,101.88 173.579,101.82 173.879,102.42 174.239,103.021 
	174.18,103.021 174.6,103.561 175.079,104.101 175.079,104.04 175.56,104.46 175.26,104.82 174.779,104.4 174.72,104.4 
	174.239,103.86 173.819,103.32 173.819,103.26 173.459,102.66 173.159,102.061 173.1,102.061 172.859,101.4 172.859,101.34 
	172.68,100.681 172.56,99.24 172.56,99.181 172.68,97.74 172.68,97.681 172.859,97.021 173.1,96.36 173.159,96.3 173.459,95.7 
	173.819,95.101 174.239,94.561 174.239,94.5 175.199,93.54 175.26,93.54 175.799,93.12 176.399,92.76 176.999,92.46 177.06,92.4 
	177.72,92.16 178.379,91.98 178.439,91.98 179.879,91.86 179.939,91.86 181.379,91.98 182.039,92.16 182.1,92.16 182.76,92.4 
	182.76,92.46 183.359,92.76 183.959,93.12 184.02,93.12 184.56,93.54 185.1,94.021 185.1,94.08 185.52,94.561 185.939,95.101 
	185.999,95.101 186.359,95.7 186.659,96.3 186.659,96.36 186.899,97.021 187.079,97.681 187.079,97.74 187.199,98.46 
	187.199,99.181 "/>
<polyline points="175.56,104.46 176.1,104.88 176.039,104.88 176.64,105.24 177.239,105.54 177.239,105.48 177.899,105.721 
	177.839,105.721 178.499,105.9 179.22,106.021 179.159,106.021 180.6,106.021 181.319,105.9 181.26,105.9 181.919,105.721 
	182.579,105.48 182.52,105.54 183.119,105.24 183.72,104.88 184.799,104.04 184.739,104.101 185.579,103.021 185.939,102.42 
	186.239,101.82 186.18,101.88 186.419,101.221 186.6,100.561 186.6,100.62 186.72,99.9 186.72,99.181 187.199,99.181 187.199,99.96 
	187.079,100.681 186.899,101.34 186.899,101.4 186.659,102.061 186.359,102.66 185.999,103.26 185.939,103.32 185.1,104.4 
	184.02,105.24 183.959,105.3 183.359,105.66 182.76,105.96 182.1,106.2 182.039,106.2 181.379,106.38 180.659,106.5 179.159,106.5 
	178.439,106.38 178.379,106.38 177.72,106.2 177.06,105.96 176.999,105.96 176.399,105.66 175.799,105.3 175.799,105.24 
	175.26,104.82 "/>
<polyline style="fill-rule:evenodd;clip-rule:evenodd;fill:#FFFFFF;" points="38.159,99.181 38.099,98.46 37.979,97.74 
	37.859,97.08 37.619,96.42 37.319,95.82 36.959,95.221 36.539,94.681 35.579,93.721 35.039,93.3 34.439,92.94 33.839,92.641 
	33.179,92.4 32.52,92.221 31.079,92.101 29.639,92.221 28.979,92.4 28.319,92.641 27.659,92.94 27.119,93.3 26.579,93.721 
	26.039,94.2 25.619,94.681 25.199,95.221 24.839,95.82 24.539,96.42 24.299,97.08 24.119,97.74 24,98.46 24,99.9 24.119,100.62 
	24.299,101.28 24.539,101.94 24.839,102.54 25.199,103.141 26.039,104.221 27.119,105.061 27.659,105.42 28.319,105.721 
	28.979,105.96 29.639,106.141 30.359,106.26 31.799,106.26 32.52,106.141 33.179,105.96 33.839,105.721 34.439,105.42 
	35.039,105.061 35.579,104.641 36.059,104.221 36.539,103.681 36.959,103.141 37.319,102.54 37.619,101.94 37.859,101.28 
	37.979,100.62 38.099,99.9 38.159,99.181 "/>
<polyline points="37.919,99.24 37.859,98.521 37.739,97.8 37.619,97.141 37.619,97.2 37.379,96.54 37.439,96.54 37.139,95.94 
	36.779,95.34 36.779,95.4 36.359,94.86 35.399,93.9 35.459,93.9 34.919,93.48 34.919,93.54 34.319,93.181 33.719,92.88 
	33.779,92.88 33.119,92.641 32.459,92.46 32.52,92.46 31.799,92.4 31.079,92.34 31.139,92.34 30.419,92.4 29.699,92.46 
	29.039,92.641 29.099,92.641 28.439,92.88 27.779,93.181 27.239,93.54 27.299,93.48 26.759,93.9 26.219,94.38 25.799,94.86 
	25.379,95.4 25.439,95.34 25.079,95.94 24.779,96.54 24.539,97.2 24.539,97.141 24.359,97.8 24.239,98.521 24.239,98.46 
	24.239,99.9 24.359,100.62 24.359,100.561 24.539,101.221 24.779,101.88 24.779,101.82 25.079,102.42 25.439,103.021 
	25.379,103.021 26.219,104.101 26.219,104.04 26.759,104.46 26.459,104.82 25.919,104.4 25.859,104.4 25.02,103.32 25.02,103.26 
	24.659,102.66 24.359,102.061 24.299,102.061 24.059,101.4 24.059,101.34 23.879,100.681 23.759,99.96 23.759,98.46 23.879,97.74 
	23.879,97.681 24.059,97.021 24.299,96.36 24.359,96.3 24.659,95.7 25.02,95.101 25.439,94.561 25.859,94.08 25.919,94.021 
	26.459,93.54 27,93.12 27.539,92.76 27.599,92.76 28.259,92.46 28.259,92.4 28.919,92.16 29.579,91.98 29.639,91.98 31.079,91.86 
	31.139,91.86 32.579,91.98 33.239,92.16 33.299,92.16 33.959,92.4 33.959,92.46 34.559,92.76 35.159,93.12 35.219,93.12 
	35.759,93.54 36.719,94.5 36.719,94.561 37.139,95.101 37.199,95.101 37.559,95.7 37.859,96.3 37.859,96.36 38.099,97.021 
	38.099,97.08 38.219,97.74 38.339,98.46 38.399,99.181 "/>
<polyline points="26.759,104.46 27.299,104.88 27.239,104.88 27.779,105.24 28.439,105.54 28.439,105.48 29.099,105.721 
	29.039,105.721 29.699,105.9 30.419,106.021 30.359,106.021 31.799,106.021 32.52,105.9 32.459,105.9 33.119,105.721 33.779,105.48 
	33.719,105.54 34.319,105.24 34.919,104.88 35.459,104.46 35.939,104.04 35.879,104.101 36.359,103.561 36.779,103.021 
	37.139,102.42 37.439,101.82 37.379,101.88 37.619,101.221 37.619,101.28 37.739,100.62 37.859,99.9 37.919,99.181 37.919,99.24 
	38.399,99.181 38.399,99.24 38.339,99.96 38.219,100.681 38.099,101.34 38.099,101.4 37.859,102.061 37.559,102.66 37.199,103.26 
	37.139,103.32 36.719,103.86 36.239,104.4 35.759,104.82 35.219,105.24 35.159,105.3 34.559,105.66 33.959,105.96 33.299,106.2 
	33.239,106.2 32.579,106.38 31.859,106.5 30.359,106.5 29.639,106.38 29.579,106.38 28.919,106.2 28.259,105.96 27.599,105.66 
	27.539,105.66 27,105.3 27,105.24 26.459,104.82 "/>
<polyline style="fill-rule:evenodd;clip-rule:evenodd;" points="38.159,35.4 38.099,34.681 37.979,33.96 37.859,33.3 37.619,32.641 
	37.319,32.04 36.959,31.44 36.539,30.9 35.579,29.94 35.039,29.521 34.439,29.16 33.839,28.86 33.179,28.62 32.52,28.44 
	31.079,28.32 29.639,28.44 28.979,28.62 28.319,28.86 27.659,29.16 27.119,29.521 26.579,29.94 26.039,30.42 25.619,30.9 
	25.199,31.44 24.839,32.04 24.539,32.641 24.299,33.3 24.119,33.96 24,34.681 24,36.12 24.119,36.84 24.299,37.5 24.539,38.16 
	24.839,38.76 25.199,39.36 26.039,40.44 27.119,41.28 27.659,41.641 28.319,41.94 28.979,42.181 29.639,42.36 30.359,42.48 
	31.799,42.48 32.52,42.36 33.179,42.181 33.839,41.94 34.439,41.641 35.039,41.28 35.579,40.86 36.059,40.44 36.539,39.9 
	36.959,39.36 37.319,38.76 37.619,38.16 37.859,37.5 37.979,36.84 38.099,36.12 38.159,35.4 "/>
<polyline points="37.919,35.46 37.859,34.74 37.739,34.021 37.619,33.36 37.619,33.42 37.379,32.76 37.439,32.76 37.139,32.16 
	36.779,31.561 36.779,31.62 36.359,31.08 35.399,30.12 35.459,30.12 34.919,29.7 34.919,29.76 34.319,29.4 33.719,29.1 33.779,29.1 
	33.119,28.86 32.459,28.68 32.52,28.68 31.079,28.56 31.139,28.56 29.699,28.68 29.039,28.86 29.099,28.86 28.439,29.1 27.779,29.4 
	27.239,29.76 27.299,29.7 26.759,30.12 26.219,30.6 25.799,31.08 25.379,31.62 25.439,31.561 25.079,32.16 24.779,32.76 
	24.539,33.42 24.539,33.36 24.359,34.021 24.239,34.74 24.239,34.681 24.239,36.12 24.359,36.84 24.359,36.78 24.539,37.44 
	24.779,38.101 24.779,38.04 25.079,38.641 25.439,39.24 25.379,39.24 26.219,40.32 26.219,40.26 26.759,40.681 26.459,41.04 
	25.919,40.62 25.859,40.62 25.02,39.54 25.02,39.48 24.659,38.88 24.359,38.28 24.299,38.28 24.059,37.62 24.059,37.561 
	23.879,36.9 23.759,36.181 23.759,34.681 23.879,33.96 23.879,33.9 24.059,33.24 24.299,32.58 24.359,32.521 24.659,31.92 
	25.02,31.32 25.439,30.78 25.859,30.3 25.919,30.24 26.459,29.76 27,29.34 27.539,28.98 27.599,28.98 28.259,28.68 28.259,28.62 
	28.919,28.38 29.579,28.2 29.639,28.2 31.079,28.08 31.139,28.08 32.579,28.2 33.239,28.38 33.299,28.38 33.959,28.62 33.959,28.68 
	34.559,28.98 35.159,29.34 35.219,29.34 35.759,29.76 36.719,30.72 36.719,30.78 37.139,31.32 37.199,31.32 37.559,31.92 
	37.859,32.521 37.859,32.58 38.099,33.24 38.099,33.3 38.219,33.96 38.339,34.681 38.399,35.4 "/>
<polyline points="26.759,40.681 27.299,41.101 27.239,41.101 27.779,41.46 28.439,41.76 28.439,41.7 29.099,41.94 29.039,41.94 
	29.699,42.12 30.419,42.24 30.359,42.24 31.799,42.24 32.52,42.12 32.459,42.12 33.119,41.94 33.779,41.7 33.719,41.76 
	34.319,41.46 34.919,41.101 35.459,40.681 35.939,40.26 35.879,40.32 36.359,39.78 36.779,39.24 37.139,38.641 37.439,38.04 
	37.379,38.101 37.619,37.44 37.619,37.5 37.739,36.84 37.859,36.12 37.919,35.4 37.919,35.46 38.399,35.4 38.399,35.46 
	38.339,36.181 38.219,36.9 38.099,37.561 38.099,37.62 37.859,38.28 37.559,38.88 37.199,39.48 37.139,39.54 36.719,40.08 
	36.239,40.62 35.759,41.04 35.219,41.46 35.159,41.521 34.559,41.88 33.959,42.181 33.299,42.42 33.239,42.42 32.579,42.601 
	31.859,42.721 30.359,42.721 29.639,42.601 29.579,42.601 28.919,42.42 28.259,42.181 27.599,41.88 27.539,41.88 27,41.521 
	27,41.46 26.459,41.04 "/>
<rect x="30.839" y="84.78" width="0.48" height="7.56"/>
<rect x="30.839" y="42.24" width="0.48" height="7.56"/>
<rect x="30.839" y="49.32" width="0.48" height="1.26"/>
<rect x="30.839" y="54.54" width="0.48" height="1.92"/>
<rect x="30.839" y="60.42" width="0.48" height="1.98"/>
<rect x="30.839" y="66.3" width="0.48" height="1.98"/>
<rect x="30.839" y="72.24" width="0.48" height="1.92"/>
<rect x="30.839" y="78.12" width="0.48" height="1.98"/>
<rect x="30.839" y="84" width="0.48" height="1.26"/>
<polyline style="fill-rule:evenodd;clip-rule:evenodd;fill:#FFFFFF;" points="59.399,35.4 59.399,34.681 59.279,33.96 59.099,33.3 
	58.859,32.641 58.559,32.04 58.199,31.44 57.779,30.9 57.359,30.42 56.819,29.94 56.279,29.521 55.679,29.16 55.079,28.86 
	54.419,28.62 53.759,28.44 52.319,28.32 50.879,28.44 50.219,28.62 49.559,28.86 48.959,29.16 48.359,29.521 47.819,29.94 
	46.859,30.9 46.439,31.44 46.079,32.04 45.779,32.641 45.539,33.3 45.359,33.96 45.239,35.4 45.359,36.84 45.539,37.5 45.779,38.16 
	46.079,38.76 46.439,39.36 46.859,39.9 47.339,40.44 47.819,40.86 48.359,41.28 48.959,41.641 49.559,41.94 50.219,42.181 
	50.879,42.36 51.599,42.48 53.039,42.48 53.759,42.36 54.419,42.181 55.079,41.94 55.679,41.641 56.279,41.28 57.359,40.44 
	58.199,39.36 58.559,38.76 58.859,38.16 59.099,37.5 59.279,36.84 59.399,36.12 59.399,35.4 "/>
<polyline points="59.159,35.4 59.159,34.681 59.159,34.74 59.039,34.021 58.859,33.36 58.859,33.42 58.619,32.76 58.679,32.76 
	58.379,32.16 58.02,31.561 58.02,31.62 57.599,31.08 57.179,30.6 57.239,30.6 56.699,30.12 56.159,29.7 56.159,29.76 55.559,29.4 
	54.959,29.1 55.02,29.1 54.359,28.86 53.699,28.68 53.759,28.68 52.319,28.56 52.379,28.56 50.939,28.68 50.279,28.86 50.339,28.86 
	49.679,29.1 49.079,29.4 48.479,29.76 48.539,29.7 48,30.12 47.039,31.08 46.619,31.62 46.679,31.561 46.319,32.16 46.02,32.76 
	45.779,33.42 45.779,33.36 45.599,34.021 45.479,35.46 45.479,35.4 45.599,36.84 45.599,36.78 45.779,37.44 46.02,38.101 
	46.02,38.04 46.319,38.641 46.679,39.24 46.619,39.24 47.039,39.78 47.52,40.32 47.52,40.26 48,40.681 47.699,41.04 47.219,40.62 
	47.159,40.62 46.679,40.08 46.259,39.54 46.259,39.48 45.899,38.88 45.599,38.28 45.539,38.28 45.299,37.62 45.299,37.561 
	45.119,36.9 45,35.46 45,35.4 45.119,33.96 45.119,33.9 45.299,33.24 45.539,32.58 45.599,32.521 45.899,31.92 46.259,31.32 
	46.679,30.78 46.679,30.72 47.639,29.76 47.699,29.76 48.239,29.34 48.839,28.98 49.439,28.68 49.5,28.62 50.159,28.38 50.819,28.2 
	50.879,28.2 52.319,28.08 52.379,28.08 53.819,28.2 54.479,28.38 54.539,28.38 55.199,28.62 55.199,28.68 55.799,28.98 
	56.399,29.34 56.459,29.34 57,29.76 57.539,30.24 57.539,30.3 57.959,30.78 58.379,31.32 58.439,31.32 58.799,31.92 59.099,32.521 
	59.099,32.58 59.339,33.24 59.52,33.9 59.52,33.96 59.639,34.681 59.639,35.4 "/>
<polyline points="48,40.681 48.539,41.101 48.479,41.101 49.079,41.46 49.679,41.76 49.679,41.7 50.339,41.94 50.279,41.94 
	50.939,42.12 51.659,42.24 51.599,42.24 53.039,42.24 53.759,42.12 53.699,42.12 54.359,41.94 55.02,41.7 54.959,41.76 
	55.559,41.46 56.159,41.101 57.239,40.26 57.179,40.32 58.02,39.24 58.379,38.641 58.679,38.04 58.619,38.101 58.859,37.44 
	59.039,36.78 59.039,36.84 59.159,36.12 59.159,35.4 59.639,35.4 59.639,36.181 59.52,36.9 59.339,37.561 59.339,37.62 
	59.099,38.28 58.799,38.88 58.439,39.48 58.379,39.54 57.539,40.62 56.459,41.46 56.399,41.521 55.799,41.88 55.199,42.181 
	54.539,42.42 54.479,42.42 53.819,42.601 53.099,42.721 51.599,42.721 50.879,42.601 50.819,42.601 50.159,42.42 49.5,42.181 
	49.439,42.181 48.839,41.88 48.239,41.521 48.239,41.46 47.699,41.04 "/>
<rect x="52.079" y="49.32" width="0.48" height="1.26"/>
<rect x="52.079" y="54.54" width="0.48" height="1.92"/>
<rect x="52.079" y="60.42" width="0.48" height="1.98"/>
<rect x="52.079" y="66.3" width="0.48" height="1.98"/>
<rect x="52.079" y="72.24" width="0.48" height="1.92"/>
<rect x="52.079" y="78.12" width="0.48" height="1.98"/>
<rect x="52.079" y="84" width="0.48" height="1.26"/>
<rect x="52.079" y="42.24" width="0.48" height="7.56"/>
<rect x="52.079" y="84.78" width="0.48" height="14.64"/>
<rect x="52.319" y="98.94" width="120.72" height="0.479"/>
<polyline style="fill-rule:evenodd;clip-rule:evenodd;fill:#FFFFFF;" points="186.959,120.42 186.959,119.7 186.839,119.04 
	186.659,118.32 186.419,117.721 186.119,117.061 185.76,116.46 185.339,115.92 184.919,115.44 184.379,114.96 183.839,114.601 
	183.239,114.24 182.64,113.94 181.979,113.7 181.319,113.521 180.6,113.4 179.879,113.34 179.159,113.4 178.439,113.521 
	177.779,113.7 177.119,113.94 176.52,114.24 175.919,114.601 175.379,114.96 174.419,115.92 173.999,116.46 173.64,117.061 
	173.339,117.721 173.1,118.32 172.919,119.04 172.859,119.7 172.799,120.42 172.859,121.2 172.919,121.86 173.1,122.58 
	173.339,123.181 173.64,123.84 173.999,124.44 174.419,124.98 175.379,125.94 175.919,126.3 176.52,126.66 177.119,126.96 
	177.779,127.2 178.439,127.38 179.159,127.5 179.879,127.561 180.6,127.5 181.319,127.38 181.979,127.2 182.64,126.96 
	183.239,126.66 183.839,126.3 184.379,125.94 184.919,125.46 185.339,124.98 185.76,124.44 186.119,123.84 186.419,123.181 
	186.659,122.58 186.839,121.86 186.959,121.2 186.959,120.42 "/>
<polyline points="186.72,120.42 186.72,119.7 186.72,119.76 186.6,119.101 186.419,118.38 186.479,118.44 186.239,117.84 
	185.939,117.181 185.579,116.58 185.579,116.641 185.159,116.101 184.739,115.62 184.799,115.62 184.26,115.141 184.26,115.2 
	183.72,114.84 183.119,114.48 182.52,114.181 182.579,114.181 181.919,113.94 181.26,113.76 181.319,113.76 180.6,113.641 
	179.879,113.58 179.939,113.58 179.22,113.641 178.499,113.76 177.839,113.94 177.899,113.94 177.239,114.181 176.64,114.48 
	176.039,114.84 175.499,115.2 175.56,115.141 174.6,116.101 174.18,116.641 174.239,116.58 173.879,117.181 173.579,117.84 
	173.339,118.44 173.339,118.38 173.159,119.101 173.1,119.76 173.039,120.48 173.039,120.42 173.1,121.2 173.159,121.86 
	173.159,121.8 173.339,122.521 173.579,123.12 173.879,123.78 173.879,123.721 174.239,124.32 174.18,124.32 174.6,124.86 
	174.6,124.8 175.56,125.76 175.499,125.76 175.26,126.181 174.239,125.16 173.819,124.62 173.819,124.561 173.459,123.96 
	173.159,123.3 172.919,122.7 172.859,122.641 172.68,121.92 172.619,121.26 172.56,120.48 172.56,120.42 172.619,119.7 
	172.68,119.04 172.68,118.98 172.859,118.26 172.919,118.26 173.159,117.66 173.459,117 173.459,116.94 173.819,116.34 
	174.239,115.8 174.239,115.74 175.199,114.78 175.26,114.78 175.799,114.42 176.399,114.061 176.999,113.76 177.06,113.7 
	177.72,113.46 178.379,113.28 178.439,113.28 179.159,113.16 179.879,113.101 179.939,113.101 180.659,113.16 181.379,113.28 
	182.039,113.46 182.1,113.46 182.76,113.7 182.76,113.76 183.359,114.061 183.959,114.42 184.499,114.78 184.56,114.78 
	185.1,115.26 185.1,115.32 185.52,115.8 185.939,116.34 185.999,116.34 186.359,116.94 186.359,117 186.659,117.66 186.899,118.26 
	187.079,118.98 187.079,119.04 187.199,119.7 187.199,120.42 "/>
<polyline points="175.499,125.76 176.039,126.12 176.64,126.48 177.239,126.78 177.239,126.721 177.899,126.96 177.839,126.96 
	178.499,127.141 179.22,127.26 179.939,127.32 179.879,127.32 180.6,127.26 181.319,127.141 181.26,127.141 181.919,126.96 
	182.579,126.721 182.52,126.78 183.119,126.48 183.72,126.12 184.26,125.76 184.799,125.28 184.739,125.34 185.159,124.86 
	185.579,124.32 185.939,123.721 185.939,123.78 186.239,123.12 186.479,122.521 186.419,122.521 186.6,121.8 186.6,121.86 
	186.72,121.2 186.72,120.42 187.199,120.42 187.199,121.26 187.079,121.92 186.899,122.641 186.899,122.7 186.659,123.3 
	186.359,123.96 185.999,124.561 185.939,124.62 185.52,125.16 185.1,125.641 184.56,126.12 184.499,126.181 183.959,126.54 
	183.359,126.9 182.76,127.2 182.1,127.44 182.039,127.44 181.379,127.62 180.659,127.74 179.939,127.8 179.879,127.8 
	179.159,127.74 178.439,127.62 178.379,127.62 177.72,127.44 177.06,127.2 176.999,127.2 176.399,126.9 175.799,126.54 
	175.26,126.181 "/>
<polyline style="fill-rule:evenodd;clip-rule:evenodd;" points="59.399,120.42 59.399,119.7 59.279,119.04 59.099,118.32 
	58.859,117.721 58.559,117.061 58.199,116.46 57.779,115.92 57.359,115.44 56.819,114.96 56.279,114.601 55.679,114.24 
	55.079,113.94 54.419,113.7 53.759,113.521 53.039,113.4 52.319,113.34 51.599,113.4 50.879,113.521 50.219,113.7 49.559,113.94 
	48.959,114.24 48.359,114.601 47.819,114.96 46.859,115.92 46.439,116.46 46.079,117.061 45.779,117.721 45.539,118.32 
	45.359,119.04 45.299,119.7 45.239,120.42 45.299,121.2 45.359,121.86 45.539,122.58 45.779,123.181 46.079,123.84 46.439,124.44 
	46.859,124.98 47.819,125.94 48.359,126.3 48.959,126.66 49.559,126.96 50.219,127.2 50.879,127.38 51.599,127.5 52.319,127.561 
	53.039,127.5 53.759,127.38 54.419,127.2 55.079,126.96 55.679,126.66 56.279,126.3 56.819,125.94 57.359,125.46 57.779,124.98 
	58.199,124.44 58.559,123.84 58.859,123.181 59.099,122.58 59.279,121.86 59.399,121.2 59.399,120.42 "/>
<polyline points="59.159,120.42 59.159,119.7 59.159,119.76 59.039,119.101 58.859,118.38 58.919,118.44 58.679,117.84 
	58.379,117.181 58.02,116.58 58.02,116.641 57.599,116.101 57.179,115.62 57.239,115.62 56.699,115.141 56.699,115.2 56.159,114.84 
	55.559,114.48 54.959,114.181 55.02,114.181 54.359,113.94 53.699,113.76 53.759,113.76 53.039,113.641 52.319,113.58 
	52.379,113.58 51.659,113.641 50.939,113.76 50.279,113.94 50.339,113.94 49.679,114.181 49.079,114.48 48.479,114.84 47.939,115.2 
	48,115.141 47.039,116.101 46.619,116.641 46.679,116.58 46.319,117.181 46.02,117.84 45.779,118.44 45.779,118.38 45.599,119.101 
	45.539,119.76 45.479,120.48 45.479,120.42 45.539,121.2 45.599,121.86 45.599,121.8 45.779,122.521 46.02,123.12 46.319,123.78 
	46.319,123.721 46.679,124.32 46.619,124.32 47.039,124.86 47.039,124.8 48,125.76 47.939,125.76 47.699,126.181 46.679,125.16 
	46.259,124.62 46.259,124.561 45.899,123.96 45.599,123.3 45.359,122.7 45.299,122.641 45.119,121.92 45.059,121.26 45,120.48 
	45,120.42 45.059,119.7 45.119,119.04 45.119,118.98 45.299,118.26 45.359,118.26 45.599,117.66 45.899,117 45.899,116.94 
	46.259,116.34 46.679,115.8 46.679,115.74 47.639,114.78 47.699,114.78 48.239,114.42 48.839,114.061 49.439,113.76 49.5,113.7 
	50.159,113.46 50.819,113.28 50.879,113.28 51.599,113.16 52.319,113.101 52.379,113.101 53.099,113.16 53.819,113.28 
	54.479,113.46 54.539,113.46 55.199,113.7 55.199,113.76 55.799,114.061 56.399,114.42 56.939,114.78 57,114.78 57.539,115.26 
	57.539,115.32 57.959,115.8 58.379,116.34 58.439,116.34 58.799,116.94 58.799,117 59.099,117.66 59.339,118.26 59.52,118.98 
	59.52,119.04 59.639,119.7 59.639,120.42 "/>
<polyline points="47.939,125.76 48.479,126.12 49.079,126.48 49.679,126.78 49.679,126.721 50.339,126.96 50.279,126.96 
	50.939,127.141 51.659,127.26 52.379,127.32 52.319,127.32 53.039,127.26 53.759,127.141 53.699,127.141 54.359,126.96 
	55.02,126.721 54.959,126.78 55.559,126.48 56.159,126.12 56.699,125.76 57.239,125.28 57.179,125.34 57.599,124.86 58.02,124.32 
	58.379,123.721 58.379,123.78 58.679,123.12 58.919,122.521 58.859,122.521 59.039,121.8 59.039,121.86 59.159,121.2 59.159,120.42 
	59.639,120.42 59.639,121.26 59.52,121.92 59.339,122.641 59.339,122.7 59.099,123.3 58.799,123.96 58.439,124.561 58.379,124.62 
	57.959,125.16 57.539,125.641 57,126.12 56.939,126.181 56.399,126.54 55.799,126.9 55.199,127.2 54.539,127.44 54.479,127.44 
	53.819,127.62 53.099,127.74 52.379,127.8 52.319,127.8 51.599,127.74 50.879,127.62 50.819,127.62 50.159,127.44 49.5,127.2 
	49.439,127.2 48.839,126.9 48.239,126.54 47.699,126.181 "/>
<rect x="59.159" y="120.181" width="14.64" height="0.479"/>
<rect x="158.399" y="120.181" width="14.64" height="0.479"/>
<rect x="73.319" y="120.181" width="0.24" height="0.479"/>
<rect x="73.559" y="120.181" width="1.02" height="0.479"/>
<rect x="78.659" y="120.181" width="0.24" height="0.479"/>
<rect x="78.899" y="120.181" width="1.74" height="0.479"/>
<rect x="84.719" y="120.181" width="0.24" height="0.479"/>
<rect x="84.959" y="120.181" width="1.74" height="0.479"/>
<rect x="90.779" y="120.181" width="0.24" height="0.479"/>
<rect x="91.02" y="120.181" width="1.8" height="0.479"/>
<rect x="96.899" y="120.181" width="0.24" height="0.479"/>
<rect x="97.139" y="120.181" width="1.74" height="0.479"/>
<rect x="102.959" y="120.181" width="0.24" height="0.479"/>
<rect x="103.199" y="120.181" width="1.74" height="0.479"/>
<rect x="109.02" y="120.181" width="0.24" height="0.479"/>
<rect x="109.259" y="120.181" width="1.74" height="0.479"/>
<rect x="115.079" y="120.181" width="0.24" height="0.479"/>
<rect x="115.319" y="120.181" width="1.8" height="0.479"/>
<rect x="121.199" y="120.181" width="0.24" height="0.479"/>
<rect x="121.439" y="120.181" width="1.74" height="0.479"/>
<rect x="127.259" y="120.181" width="0.24" height="0.479"/>
<rect x="127.5" y="120.181" width="1.74" height="0.479"/>
<rect x="133.319" y="120.181" width="0.24" height="0.479"/>
<rect x="133.559" y="120.181" width="1.8" height="0.479"/>
<rect x="139.379" y="120.181" width="0.24" height="0.479"/>
<rect x="139.619" y="120.181" width="1.8" height="0.479"/>
<rect x="145.5" y="120.181" width="0.24" height="0.479"/>
<rect x="145.739" y="120.181" width="1.74" height="0.479"/>
<rect x="151.559" y="120.181" width="0.24" height="0.479"/>
<rect x="151.799" y="120.181" width="1.74" height="0.479"/>
<rect x="157.619" y="120.181" width="0.24" height="0.479"/>
<rect x="157.859" y="120.181" width="1.02" height="0.479"/>
<text transform="matrix(1 0 0 1.0522 217.4395 96.8408)"><tspan x="0" y="0" style="font-family:'ProductusOSGiBookc'; font-size:7.5841;">f</tspan><tspan x="1.865" y="0" style="font-family:'ProductusOSGiBookc'; font-size:7.5841;">r</tspan><tspan x="4.02" y="0" style="font-family:'ProductusOSGiBookc'; font-size:7.5841;">a</tspan><tspan x="7.137" y="0" style="font-family:'ProductusOSGiBookc'; font-size:7.5841;">g</tspan><tspan x="10.383" y="0" style="font-family:'ProductusOSGiBookc'; font-size:7.5841;">m</tspan><tspan x="15.836" y="0" style="font-family:'ProductusOSGiBookc'; font-size:7.5841;">e</tspan><tspan x="19.135" y="0" style="font-family:'ProductusOSGiBookc'; font-size:7.5841;">n</tspan><tspan x="22.608" y="0" style="font-family:'ProductusOSGiBookc'; font-size:7.5841;">t</tspan></text>
<text transform="matrix(1 0 0 1.0522 0 96.8408)"><tspan x="0" y="0" style="font-family:'ProductusOSGiBookc'; font-size:7.5841;">h</tspan><tspan x="3.489" y="0" style="font-family:'ProductusOSGiBookc'; font-size:7.5841;">o</tspan><tspan x="7.03" y="0" style="font-family:'ProductusOSGiBookc'; font-size:7.5841;">s</tspan><tspan x="9.715" y="0" style="font-family:'ProductusOSGiBookc'; font-size:7.5841;">t</tspan></text>
<text transform="matrix(1 0 0 1.0522 328.7393 64.0205)"><tspan x="0" y="0" style="font-family:'ProductusOSGiBookc'; font-size:7.5841;">B</tspan><tspan x="3.359" y="0" style="font-family:'ProductusOSGiBookc'; font-size:7.5841;">u</tspan><tspan x="6.78" y="0" style="font-family:'ProductusOSGiBookc'; font-size:7.5841;">ndl</tspan><tspan x="15.229" y="0" style="font-family:'ProductusOSGiBookc'; font-size:7.5841;">e</tspan></text>
</svg>
