<?xml version="1.0" encoding="utf-8"?>
<!-- Generator: Adobe Illustrator 16.0.0, SVG Export Plug-In . SVG Version: 6.00 Build 0)  -->
<!DOCTYPE svg PUBLIC "-//W3C//DTD SVG 1.1//EN" "http://www.w3.org/Graphics/SVG/1.1/DTD/svg11.dtd">
<svg version="1.1" id="Layer_1" xmlns="http://www.w3.org/2000/svg" xmlns:xlink="http://www.w3.org/1999/xlink" x="0px" y="0px"
	 width="170.1px" height="113.4px" viewBox="0 0 170.1 113.4" style="enable-background:new 0 0 170.1 113.4;" xml:space="preserve"
	>
<rect y="42.54" style="fill:#B3B3B3;" width="56.7" height="28.32"/>
<rect x="113.4" y="85.08" style="fill:#B3B3B3;" width="56.64" height="28.32"/>
<rect x="113.4" y="42.54" style="fill:#B3B3B3;" width="56.64" height="28.32"/>
<rect x="56.7" style="fill:#B3B3B3;" width="56.7" height="28.38"/>
<text transform="matrix(1 0 0 1 57.2998 14.7598)" style="font-family:'ProductusSemibold'; font-size:7.98;">A</text>
<text transform="matrix(1 0 0 1 1.3799 55.02)" style="font-family:'ProductusSemibold'; font-size:7.98;">B</text>
<polyline points="111.24,35.64 113.22,33 113.4,33.18 119.94,41.82 120.479,42.54 119.64,42.24 109.5,38.4 109.26,38.28 
	109.44,38.04 109.74,37.92 119.88,41.76 119.64,42.24 119.58,42.18 113.04,33.54 113.4,33.18 113.4,33.48 111.6,35.88 "/>
<polyline points="109.44,38.04 111.24,35.64 111.6,35.88 109.8,38.28 "/>
<polyline points="92.28,21.06 92.1,20.94 91.8,21.3 91.979,21.42 "/>
<polyline points="111.42,35.4 111.6,35.52 111.3,35.88 111.12,35.76 "/>
<polyline points="92.28,21.06 91.979,21.42 111.12,35.76 111.42,35.4 "/>
<polyline points="58.8,35.64 60.78,38.28 60.54,38.4 50.46,42.24 49.62,42.54 56.64,33.18 56.82,33 57,33.24 57,33.54 50.52,42.18 
	50.16,41.82 50.22,41.76 60.3,37.92 60.54,38.4 60.24,38.28 58.44,35.88 "/>
<polyline points="57,33.24 58.8,35.64 58.44,35.88 56.64,33.48 "/>
<polyline points="78.12,21.42 78.3,21.3 78,20.94 77.82,21.06 "/>
<polyline points="58.98,35.76 58.8,35.88 58.5,35.52 58.68,35.4 "/>
<polyline points="78.12,21.42 77.82,21.06 58.68,35.4 58.98,35.76 "/>
<text transform="matrix(1 0 0 1 165.0596 55.6797)" style="font-family:'ProductusSemibold'; font-size:7.98;">C</text>
<polyline points="141.72,73.5 145.02,73.5 144.96,73.8 141.96,84.18 141.72,85.02 141.479,84.18 138.479,73.8 138.42,73.5 
	138.72,73.5 138.96,73.68 141.96,84.06 141.479,84.18 141.479,84.06 144.479,73.68 144.96,73.8 144.72,73.98 141.72,73.98 "/>
<rect x="138.72" y="73.5" width="3" height="0.48"/>
<rect x="141.479" y="70.62" width="0.48" height="3.12"/>
<text transform="matrix(1 0 0 1 165.1201 96.8398)" style="font-family:'ProductusSemibold'; font-size:7.98;">D</text>
<rect x="63.78" y="7.08" width="42.48" height="14.16"/>
<rect x="63.78" y="6.84" width="42.72" height="0.48"/>
<rect x="106.02" y="7.08" width="0.48" height="14.4"/>
<rect x="63.54" y="21" width="42.72" height="0.48"/>
<rect x="63.54" y="6.84" width="0.48" height="14.4"/>
<text transform="matrix(1 0 0 1 70.8599 16.3198)" style="fill:#FFFFFF; font-family:'ProductusBook'; font-size:7.98;">p</text>
<rect x="7.08" y="49.62" width="42.48" height="14.16"/>
<rect x="7.08" y="49.38" width="42.72" height="0.48"/>
<rect x="49.32" y="49.62" width="0.48" height="14.4"/>
<rect x="6.84" y="63.54" width="42.72" height="0.48"/>
<rect x="6.84" y="49.38" width="0.48" height="14.4"/>
<text transform="matrix(1 0 0 1 14.1602 58.8599)" style="fill:#FFFFFF; font-family:'ProductusBook'; font-size:7.98;">p</text>
<rect x="120.479" y="49.62" width="42.48" height="14.16"/>
<rect x="120.479" y="49.38" width="42.721" height="0.48"/>
<rect x="162.72" y="49.62" width="0.48" height="14.4"/>
<rect x="120.24" y="63.54" width="42.72" height="0.48"/>
<rect x="120.24" y="49.38" width="0.479" height="14.4"/>
<text transform="matrix(1 0 0 1 127.5596 58.8599)" style="fill:#FFFFFF; font-family:'ProductusBook'; font-size:7.98;">p</text>
<rect x="120.479" y="92.16" width="42.48" height="14.16"/>
<rect x="120.479" y="91.92" width="42.721" height="0.48"/>
<rect x="162.72" y="92.16" width="0.48" height="14.4"/>
<rect x="120.24" y="106.08" width="42.72" height="0.48"/>
<rect x="120.24" y="91.92" width="0.479" height="14.4"/>
<text transform="matrix(1 0 0 1 127.5596 101.3398)" style="fill:#FFFFFF; font-family:'ProductusBook'; font-size:7.98;">p</text>
</svg>
