<?xml version="1.0" encoding="utf-8"?>
<!-- Generator: Adobe Illustrator 16.0.1, SVG Export Plug-In . SVG Version: 6.00 Build 0)  -->
<!DOCTYPE svg PUBLIC "-//W3C//DTD SVG 1.1//EN" "http://www.w3.org/Graphics/SVG/1.1/DTD/svg11.dtd">
<svg version="1.1" id="Layer_1" xmlns="http://www.w3.org/2000/svg" xmlns:xlink="http://www.w3.org/1999/xlink" x="0px" y="0px"
	 width="184.26px" height="99.24px" viewBox="0 0 184.26 99.24" enable-background="new 0 0 184.26 99.24" xml:space="preserve">
<rect y="70.86" fill="#B3B3B3" width="56.7" height="28.38"/>
<rect x="127.56" fill="#B3B3B3" width="56.7" height="28.38"/>
<rect fill="#B3B3B3" width="56.7" height="42.54"/>
<text transform="matrix(1 0 0 1 1.3198 11.9395)" font-family="'ProductusSemibold'" font-size="7.98">A</text>
<text transform="matrix(1 0 0 1 1.3794 83.3398)" font-family="'ProductusSemibold'" font-size="7.98">D</text>
<text transform="matrix(1 0 0 1 179.2197 13.1396)" font-family="'ProductusSemibold'" font-size="7.98">B</text>
<polyline points="116.04,92.16 116.04,88.86 116.34,88.92 126.72,91.92 127.56,92.16 126.72,92.399 116.34,95.34 116.04,95.399 
	116.04,95.101 116.22,94.86 126.601,91.92 126.72,92.399 126.601,92.399 116.22,89.399 116.34,88.92 116.521,89.16 116.521,92.16 
	"/>
<rect x="116.04" y="92.16" width="0.479" height="2.94"/>
<rect x="56.46" y="91.92" width="59.76" height="0.479"/>
<rect x="134.64" y="7.08" width="42.48" height="14.22"/>
<rect x="134.64" y="6.84" width="42.721" height="0.48"/>
<rect x="176.88" y="7.08" width="0.479" height="14.46"/>
<rect x="134.399" y="21.06" width="42.721" height="0.48"/>
<rect x="134.399" y="6.84" width="0.479" height="14.46"/>
<text transform="matrix(1 0 0 1 141.7197 16.3203)" fill="#FFFFFF" font-family="'ProductusBook'" font-size="7.98">q</text>
<rect x="7.08" y="7.08" fill="#FFFFFF" width="42.48" height="14.22"/>
<rect x="7.08" y="6.84" width="42.72" height="0.48"/>
<rect x="49.319" y="7.08" width="0.48" height="14.46"/>
<rect x="6.84" y="21.06" width="42.72" height="0.48"/>
<rect x="6.84" y="6.84" width="0.48" height="14.46"/>
<text transform="matrix(1 0 0 1 14.1597 16.3203)" font-family="'ProductusOSGiBookc'" font-size="7.98">q</text>
<polyline points="118.56,28.44 116.7,26.16 116.58,25.8 116.76,25.74 126.72,21.6 127.56,21.3 127.021,22.02 120.778,30.78 
	120.601,31.02 120.42,30.78 120.42,30.48 126.66,21.72 127.021,22.02 126.96,22.08 117,26.22 116.76,25.74 117.06,25.86 
	118.92,28.2 "/>
<polyline points="120.42,30.78 118.56,28.44 118.92,28.2 120.778,30.48 "/>
<polyline points="56.58,77.819 56.399,77.94 56.7,78.3 56.88,78.181 "/>
<polyline points="118.438,28.32 118.62,28.2 118.92,28.56 118.74,28.68 "/>
<polyline points="56.58,77.819 56.88,78.181 118.74,28.68 118.438,28.32 "/>
<rect x="7.08" y="21.3" width="42.48" height="14.16"/>
<rect x="7.08" y="21.06" width="42.72" height="0.48"/>
<rect x="49.319" y="21.3" width="0.48" height="14.4"/>
<rect x="6.84" y="35.22" width="42.72" height="0.48"/>
<rect x="6.84" y="21.06" width="0.48" height="14.4"/>
<text transform="matrix(1 0 0 1 14.1597 30.4805)" fill="#FFFFFF" font-family="'ProductusBook'" font-size="7.98">p</text>
<polyline fill="#FFFFFF" points="38.939,14.16 38.22,14.28 37.56,14.46 36.96,14.82 36.42,15.24 36,15.78 35.7,16.38 35.46,17.04 
	35.399,17.76 35.399,24.84 35.46,25.56 35.7,26.22 36,26.82 36.42,27.3 36.96,27.78 37.56,28.08 38.22,28.26 38.939,28.38 
	39.66,28.26 40.319,28.08 40.92,27.78 41.46,27.3 41.88,26.82 42.24,26.22 42.42,25.56 42.479,24.84 42.479,17.76 42.42,17.04 
	42.24,16.38 41.88,15.78 41.46,15.24 40.92,14.82 40.319,14.46 39.66,14.28 38.939,14.16 "/>
<polyline points="39,14.4 38.279,14.52 37.62,14.7 37.68,14.7 37.08,15.06 37.14,15 36.6,15.42 36.18,15.96 36.24,15.9 35.939,16.5 
	35.7,17.16 35.7,17.1 35.64,17.82 35.64,17.76 35.64,24.84 35.7,25.56 35.7,25.5 35.939,26.16 35.939,26.1 36.24,26.7 36.18,26.7 
	36.6,27.18 36.6,27.12 37.14,27.6 37.08,27.6 37.68,27.9 37.62,27.84 38.279,28.02 39,28.14 38.939,28.14 39.66,28.02 39.6,28.02 
	40.26,27.84 40.2,27.9 40.8,27.6 41.34,27.12 41.279,27.18 41.7,26.7 42.06,26.1 42,26.16 42.18,25.5 42.18,25.56 42.24,24.84 
	42.24,17.76 42.24,17.82 42.18,17.1 42,16.44 42.06,16.5 41.7,15.9 41.7,15.96 41.279,15.42 41.34,15.42 40.8,15 40.8,15.06 
	40.2,14.7 40.26,14.7 39.6,14.52 39.66,14.52 38.939,14.4 39,13.92 39.72,14.04 40.38,14.22 40.439,14.28 41.04,14.64 41.1,14.64 
	41.64,15.06 41.64,15.12 42.06,15.66 42.12,15.66 42.479,16.26 42.479,16.32 42.66,16.98 42.66,17.04 42.72,17.76 42.72,24.9 
	42.66,25.62 42.479,26.28 42.479,26.34 42.12,26.94 42.06,27 41.64,27.48 41.1,27.96 41.04,28.02 40.439,28.32 40.38,28.32 
	39.72,28.5 39,28.62 38.939,28.62 38.22,28.5 38.16,28.5 37.5,28.32 37.439,28.32 36.84,28.02 36.84,27.96 36.3,27.48 36.24,27.48 
	35.819,27 35.819,26.94 35.52,26.34 35.46,26.34 35.22,25.68 35.22,25.62 35.16,24.9 35.16,17.76 35.22,17.04 35.22,16.98 
	35.46,16.32 35.52,16.26 35.819,15.66 36.24,15.12 36.3,15.06 36.84,14.64 37.439,14.28 37.5,14.22 38.16,14.04 38.22,14.04 
	38.939,13.92 "/>
<polyline points="38.939,14.4 39,14.4 38.939,13.92 39,13.92 "/>
<rect x="127.56" y="70.86" fill="#B3B3B3" width="56.7" height="28.38"/>
<text transform="matrix(1 0 0 1 179.2197 84.0605)" font-family="'ProductusSemibold'" font-size="7.98">C</text>
<rect x="134.64" y="78" width="42.48" height="14.16"/>
<rect x="134.64" y="77.76" width="42.721" height="0.48"/>
<rect x="176.88" y="78" width="0.479" height="14.399"/>
<rect x="134.399" y="91.92" width="42.721" height="0.479"/>
<rect x="134.399" y="77.76" width="0.479" height="14.4"/>
<text transform="matrix(1 0 0 1 141.7197 87.1797)" fill="#FFFFFF" font-family="'ProductusBook'" font-size="7.98">q</text>
<rect x="49.319" y="13.92" width="85.561" height="0.48"/>
<rect x="7.08" y="78" fill="#FFFFFF" width="42.48" height="14.16"/>
<rect x="7.08" y="77.76" width="42.72" height="0.48"/>
<rect x="49.319" y="78" width="0.48" height="14.399"/>
<rect x="6.84" y="91.92" width="42.72" height="0.479"/>
<rect x="6.84" y="77.76" width="0.48" height="14.4"/>
<text transform="matrix(1 0 0 1 14.1597 87.1797)" font-family="'ProductusOSGiBookc'" font-size="7.98">p</text>
<rect x="28.08" y="78" width="0.48" height="0.24"/>
<rect x="28.08" y="35.22" width="0.48" height="42.78"/>
<polyline fill="#FF0000" points="86.46,72.479 87.479,72.36 85.8,59.88 84.779,60 "/>
<polyline fill="#FF0000" points="82.979,72.3 83.939,72.479 85.74,60 85.74,59.7 85.02,58.08 84.779,59.819 "/>
<polyline fill="#FF0000" points="85.74,59.7 84.779,60.12 89.819,71.64 90.779,71.22 "/>
<polyline fill="#FF0000" points="88.439,76.86 87.779,77.64 97.438,85.74 98.101,84.96 "/>
<polyline fill="#FF0000" points="91.2,74.64 90.359,75.181 97.38,85.62 97.62,85.8 99.24,86.521 98.22,85.08 "/>
<polyline fill="#FF0000" points="97.62,85.8 98.04,84.899 86.58,79.74 86.16,80.64 "/>
<polyline fill="#FF0000" points="87.779,77.58 88.14,77.94 88.859,77.22 88.5,76.86 "/>
<polyline fill="#FF0000" points="87.779,77.58 87.54,77.34 87.359,77.101 87.359,77.04 87.24,76.8 87.24,76.86 87.06,76.56 
	87,76.44 86.819,75.899 86.819,75.84 87.84,75.66 87.779,75.601 87.96,76.14 87.96,76.021 88.14,76.319 88.26,76.56 88.2,76.5 
	88.38,76.74 88.319,76.681 88.5,76.86 "/>
<polyline fill="#FF0000" points="86.819,75.84 86.7,75.24 86.7,75.181 87.72,75.06 87.84,75.66 "/>
<polyline fill="#FF0000" points="86.46,72.479 86.399,72 87.42,71.88 87.479,72.36 "/>
<polyline fill="#FF0000" points="86.7,75.181 87.72,75.06 87.479,72.36 86.46,72.479 "/>
<text transform="matrix(1 0 0 1 99.1797 55.1396)" enable-background="new    "><tspan x="0" y="0" font-family="'ProductusOSGiBookc'" font-size="9">Potential</tspan><tspan x="0" y="10.8" font-family="'ProductusOSGiBookc'" font-size="9">conflict</tspan></text>
<text transform="matrix(1 0 0 1 62.7598 64.9805)" font-family="'ProductusOSGiBookc'" font-size="9">1</text>
<text transform="matrix(1 0 0 1 70.8594 89.5195)" font-family="'ProductusOSGiBookc'" font-size="9">2</text>
</svg>
