<?xml version="1.0" encoding="utf-8"?>
<!-- Generator: Adobe Illustrator 16.0.1, SVG Export Plug-In . SVG Version: 6.00 Build 0)  -->
<!DOCTYPE svg PUBLIC "-//W3C//DTD SVG 1.1//EN" "http://www.w3.org/Graphics/SVG/1.1/DTD/svg11.dtd">
<svg version="1.1" id="Layer_1" xmlns="http://www.w3.org/2000/svg" xmlns:xlink="http://www.w3.org/1999/xlink" x="0px" y="0px"
	 width="260.389px" height="70.859px" viewBox="0 0 260.389 70.859" enable-background="new 0 0 260.389 70.859"
	 xml:space="preserve">
<rect x="196.379" y="42.54" fill="#B3B3B3" width="56.642" height="28.319"/>
<rect x="196.379" y="0" fill="#B3B3B3" width="56.642" height="28.319"/>
<rect x="4.979" y="0" fill="#B3B3B3" width="56.7" height="28.319"/>
<rect x="33.12" y="21" width="0.48" height="35.939"/>
<rect x="33.36" y="56.46" width="170.34" height="0.479"/>
<text transform="matrix(1 0 0 1 255.1199 13.8606)" font-family="'ProductusSemibold'" font-size="7.98">B</text>
<text transform="matrix(1 0 0 1 -2.441406e-04 14.761)" font-family="'ProductusSemibold'" font-size="7.98">A</text>
<rect x="54.36" y="13.92" width="0.24" height="0.479"/>
<rect x="54.6" y="13.92" width="149.1" height="0.479"/>
<text transform="matrix(1 0 0 1 255.8386 54.301)" font-family="'ProductusSemibold'" font-size="7.98">C</text>
<polyline fill="#FF0000" points="145.74,62.76 144.719,63.781 146.82,65.88 147.839,64.86 "/>
<polyline fill="#FF0000" points="159.9,48.6 160.919,47.58 163.02,49.68 162,50.7 "/>
<polyline fill="#FF0000" points="145.74,62.76 147.839,64.86 162,50.7 159.9,48.6 "/>
<polyline fill="#FF0000" points="147.839,48.6 146.82,47.58 144.719,49.68 145.74,50.7 "/>
<polyline fill="#FF0000" points="162,62.76 163.02,63.781 160.919,65.88 159.9,64.86 "/>
<polyline fill="#FF0000" points="147.839,48.6 145.74,50.7 159.9,64.86 162,62.76 "/>
<text transform="matrix(1 0 0 1 110.8196 11.8206)" font-family="'ProductusOSGiBookc'" font-size="7.98"> version=[1,2)</text>
<rect x="12.12" y="7.08" fill="#FFFFFF" width="42.48" height="14.16"/>
<rect x="12.12" y="6.84" width="42.72" height="0.479"/>
<rect x="54.36" y="7.08" width="0.479" height="14.399"/>
<rect x="11.88" y="21" width="42.721" height="0.479"/>
<rect x="11.88" y="6.84" width="0.48" height="14.4"/>
<text transform="matrix(1 0 0 1 19.1995 16.3206)" font-family="'ProductusOSGiBookc'" font-size="7.98">p</text>
<rect x="203.459" y="7.08" width="42.48" height="14.16"/>
<rect x="203.459" y="6.84" width="42.721" height="0.479"/>
<rect x="245.7" y="7.08" width="0.479" height="14.399"/>
<rect x="203.219" y="21" width="42.722" height="0.479"/>
<rect x="203.219" y="6.84" width="0.48" height="14.4"/>
<text transform="matrix(1 0 0 1 210.5398 16.3206)" fill="#FFFFFF" font-family="'ProductusBook'" font-size="7.98">p-1.5.1</text>
<rect x="203.459" y="49.62" width="42.48" height="14.16"/>
<rect x="203.459" y="49.38" width="42.721" height="0.479"/>
<rect x="245.7" y="49.62" width="0.479" height="14.399"/>
<rect x="203.219" y="63.54" width="42.722" height="0.479"/>
<rect x="203.219" y="49.38" width="0.48" height="14.4"/>
<text transform="matrix(1 0 0 1 210.5398 58.8606)" fill="#FFFFFF" font-family="'ProductusBook'" font-size="7.98">p-2.4.3</text>
</svg>
