<?xml version="1.0" encoding="utf-8"?>
<!-- Generator: Adobe Illustrator 16.0.0, SVG Export Plug-In . SVG Version: 6.00 Build 0)  -->
<!DOCTYPE svg PUBLIC "-//W3C//DTD SVG 1.1//EN" "http://www.w3.org/Graphics/SVG/1.1/DTD/svg11.dtd">
<svg version="1.1" id="Layer_1" xmlns="http://www.w3.org/2000/svg" xmlns:xlink="http://www.w3.org/1999/xlink" x="0px" y="0px"
	 width="274.922px" height="112.667px" viewBox="0 0 274.922 112.667" style="enable-background:new 0 0 274.922 112.667;"
	 xml:space="preserve">
<text transform="matrix(1 0 0 1 233.8799 65.687)" style="font-family:'ProductusOSGiBookc'; font-size:7.98;">ex</text>
<text transform="matrix(1 0 0 1 240.3125 65.687)" style="font-family:'ProductusOSGiBookc'; font-size:7.98;">p</text>
<text transform="matrix(1 0 0 1 244.0293 65.687)" style="font-family:'ProductusOSGiBookc'; font-size:7.98;">o</text>
<text transform="matrix(1 0 0 1 247.7568 65.687)" style="font-family:'ProductusOSGiBookc'; font-size:7.98;">rt</text>
<rect x="169.859" y="8.987" width="0.24" height="0.48"/>
<rect x="170.1" y="8.987" width="42.78" height="0.48"/>
<text transform="matrix(1 0 0 1 233.8799 8.7476)" style="font-family:'ProductusOSGiBookc'; font-size:7.98;">wi</text>
<text transform="matrix(1 0 0 1 240.4805 8.7476)" style="font-family:'ProductusOSGiBookc'; font-size:7.98;">r</text>
<text transform="matrix(1 0 0 1 242.5234 8.7476)" style="font-family:'ProductusOSGiBookc'; font-size:7.98;">e</text>
<text transform="matrix(1 0 0 1 170.0996 45.7671)" style="font-family:'ProductusSemibold'; font-size:7.98;">B</text>
<text transform="matrix(1 0 0 1 233.8799 47.0269)" style="font-family:'ProductusOSGiBookc'; font-size:7.98;">bundle </text>
<text transform="matrix(1 0 0 1 255.2178 47.0269)" style="font-family:'ProductusOSGiBookc'; font-size:7.98;">n</text>
<text transform="matrix(1 0 0 1 258.8242 47.0269)" style="font-family:'ProductusOSGiBookc'; font-size:7.98;">am</text>
<text transform="matrix(1 0 0 1 267.8594 47.0269)" style="font-family:'ProductusOSGiBookc'; font-size:7.98;">e</text>
<rect x="170.1" y="16.307" style="fill:#FFFFFF;" width="42.541" height="14.16"/>
<rect x="170.1" y="16.067" width="42.78" height="0.48"/>
<rect x="212.398" y="16.307" width="0.479" height="14.4"/>
<rect x="169.859" y="30.228" width="42.779" height="0.48"/>
<rect x="169.859" y="16.067" width="0.479" height="14.4"/>
<text transform="matrix(1 0 0 1 177.1797 25.5474)" style="font-family:'ProductusOSGiBookc'; font-size:7.98;">p-1.</text>
<text transform="matrix(1 0 0 1 188.207 25.5474)" style="font-family:'ProductusOSGiBookc'; font-size:7.98;">2</text>
<text transform="matrix(1 0 0 1 191.8633 25.5474)" style="font-family:'ProductusOSGiBookc'; font-size:7.98;">.3</text>
<text transform="matrix(1 0 0 1 169.3193 6.646)" style="font-family:'ProductusOSGiBookc'; font-size:7.98;"> </text>
<text transform="matrix(1 0 0 1 170.9316 6.646)" style="font-family:'ProductusOSGiBookc'; font-size:7.98;">v</text>
<text transform="matrix(1 0 0 1 173.9316 6.646)" style="font-family:'ProductusOSGiBookc'; font-size:7.98;">e</text>
<text transform="matrix(1 0 0 1 177.4111 6.646)" style="font-family:'ProductusOSGiBookc'; font-size:7.98;">r</text>
<text transform="matrix(1 0 0 1 179.6289 6.646)" style="font-family:'ProductusOSGiBookc'; font-size:7.98;">s</text>
<text transform="matrix(1 0 0 1 182.3906 6.646)" style="font-family:'ProductusOSGiBookc'; font-size:7.98;">i</text>
<text transform="matrix(1 0 0 1 183.9463 6.646)" style="font-family:'ProductusOSGiBookc'; font-size:7.98;">o</text>
<text transform="matrix(1 0 0 1 187.7207 6.646)" style="font-family:'ProductusOSGiBookc'; font-size:7.98;">n</text>
<text transform="matrix(1 0 0 1 191.377 6.646)" style="font-family:'ProductusOSGiBookc'; font-size:7.98;">=</text>
<text transform="matrix(1 0 0 1 195.1582 6.646)" style="font-family:'ProductusOSGiBookc'; font-size:7.98;">[</text>
<text transform="matrix(1 0 0 1 197.6719 6.646)" style="font-family:'ProductusOSGiBookc'; font-size:7.98;">1</text>
<text transform="matrix(1 0 0 1 200.793 6.646)" style="font-family:'ProductusOSGiBookc'; font-size:7.98;">,2)</text>
<text transform="matrix(1 0 0 1 233.8789 27.1675)" style="font-family:'ProductusOSGiBookc'; font-size:7.98;">i</text>
<text transform="matrix(1 0 0 1 235.4189 27.1675)" style="font-family:'ProductusOSGiBookc'; font-size:7.98;">m</text>
<text transform="matrix(1 0 0 1 241.125 27.1675)" style="font-family:'ProductusOSGiBookc'; font-size:7.98;">por</text>
<text transform="matrix(1 0 0 1 250.7881 27.1675)" style="font-family:'ProductusOSGiBookc'; font-size:7.98;">t</text>
<polyline style="fill:#FFFFFF;" points="10.62,16.307 9.96,16.367 9.3,16.607 8.64,16.907 8.16,17.328 7.74,17.867 7.38,18.467 
	7.2,19.127 7.08,19.847 7.08,26.927 7.2,27.647 7.38,28.307 7.74,28.907 8.16,29.447 8.64,29.867 9.3,30.228 9.96,30.407 
	10.62,30.467 11.34,30.407 12,30.228 12.66,29.867 13.14,29.447 13.56,28.907 13.92,28.307 14.1,27.647 14.22,26.927 14.22,19.847 
	14.1,19.127 13.92,18.467 13.56,17.867 13.14,17.328 12.66,16.907 12,16.607 11.34,16.367 10.62,16.307 "/>
<polyline points="10.68,16.547 10.02,16.607 10.08,16.607 9.42,16.847 8.76,17.147 8.82,17.087 8.34,17.507 7.92,18.047 
	7.98,17.987 7.62,18.587 7.62,18.527 7.44,19.188 7.32,19.907 7.32,19.847 7.32,26.927 7.44,27.647 7.44,27.587 7.62,28.248 
	7.62,28.188 7.98,28.788 7.92,28.788 8.34,29.328 8.34,29.268 8.82,29.688 8.76,29.688 9.42,30.047 9.36,29.987 10.02,30.167 
	10.68,30.228 10.62,30.228 11.34,30.167 11.28,30.167 11.94,29.987 11.88,30.047 12.54,29.688 13.02,29.268 12.96,29.328 
	13.38,28.788 13.74,28.188 13.68,28.248 13.86,27.587 13.86,27.647 13.98,26.927 13.98,19.847 13.98,19.907 13.86,19.188 
	13.68,18.527 13.74,18.587 13.38,17.987 13.38,18.047 12.96,17.507 13.02,17.507 12.54,17.087 12.6,17.147 11.94,16.847 
	11.28,16.607 11.34,16.607 10.62,16.547 10.68,16.067 11.4,16.127 11.46,16.127 12.12,16.367 12.12,16.427 12.78,16.728 
	12.84,16.728 13.32,17.147 13.32,17.208 13.74,17.748 13.8,17.748 14.16,18.347 14.16,18.407 14.34,19.067 14.34,19.127 
	14.46,19.847 14.46,26.987 14.34,27.708 14.16,28.367 14.16,28.427 13.8,29.027 13.74,29.087 13.32,29.627 12.84,30.047 
	12.78,30.107 12.12,30.467 12.06,30.467 11.4,30.647 10.68,30.708 10.62,30.708 9.96,30.647 9.9,30.647 9.24,30.467 9.18,30.467 
	8.52,30.107 8.52,30.047 8.04,29.627 7.98,29.627 7.56,29.087 7.56,29.027 7.2,28.427 7.14,28.367 6.96,27.708 6.84,26.987 
	6.84,19.847 6.96,19.127 6.96,19.067 7.14,18.407 7.2,18.347 7.56,17.748 7.98,17.208 8.04,17.147 8.52,16.728 8.58,16.728 
	9.24,16.427 9.24,16.367 9.9,16.127 9.96,16.127 10.62,16.067 "/>
<polyline points="10.62,16.547 10.68,16.547 10.62,16.067 10.68,16.067 "/>
<text transform="matrix(1 0 0 1 63.7798 28.1265)" style="font-family:'ProductusOSGiBookc'; font-size:7.98;">use</text>
<text transform="matrix(1 0 0 1 73.7227 28.1265)" style="font-family:'ProductusOSGiBookc'; font-size:7.98;">s</text>
<rect x="7.08" y="37.547" style="fill:#FFFFFF;" width="42.54" height="14.22"/>
<rect x="6.84" y="37.307" width="0.48" height="2.28"/>
<rect x="7.08" y="37.307" width="2.04" height="0.48"/>
<rect x="13.38" y="37.307" width="4.26" height="0.48"/>
<rect x="21.96" y="37.307" width="4.26" height="0.48"/>
<rect x="30.48" y="37.307" width="4.32" height="0.48"/>
<rect x="39.06" y="37.307" width="4.26" height="0.48"/>
<rect x="47.64" y="37.307" width="2.22" height="0.48"/>
<rect x="49.38" y="37.547" width="0.48" height="2.04"/>
<rect x="49.38" y="42.947" width="0.48" height="3.42"/>
<rect x="49.38" y="49.728" width="0.48" height="2.28"/>
<rect x="47.64" y="51.527" width="1.98" height="0.48"/>
<rect x="39.06" y="51.527" width="4.26" height="0.48"/>
<rect x="30.48" y="51.527" width="4.32" height="0.48"/>
<rect x="21.96" y="51.527" width="4.26" height="0.48"/>
<rect x="13.38" y="51.527" width="4.26" height="0.48"/>
<rect x="6.84" y="51.527" width="2.28" height="0.48"/>
<rect x="6.84" y="49.728" width="0.48" height="2.04"/>
<rect x="6.84" y="42.947" width="0.48" height="3.42"/>
<text transform="matrix(1 0 0 1 14.2197 46.7866)" style="font-family:'ProductusOSGiBookc'; font-size:7.98;">p</text>
<text transform="matrix(1 0 0 1 63.7798 44.9253)" style="font-family:'ProductusOSGiBookc'; font-size:7.98;">optio</text>
<text transform="matrix(1 0 0 1 78.9019 44.9253)" style="font-family:'ProductusOSGiBookc'; font-size:7.98;">n</text>
<text transform="matrix(1 0 0 1 82.5088 44.9253)" style="font-family:'ProductusOSGiBookc'; font-size:7.98;">al</text>
<text transform="matrix(1 0 0 1 87.3516 44.9253)" style="font-family:'ProductusOSGiBookc'; font-size:7.98;"> </text>
<text transform="matrix(1 0 0 1 88.916 44.9253)" style="font-family:'ProductusOSGiBookc'; font-size:7.98;">impor</text>
<text transform="matrix(1 0 0 1 105.8887 44.9253)" style="font-family:'ProductusOSGiBookc'; font-size:7.98;">t</text>
<rect x="7.08" y="58.847" style="fill:#D9D9D9;" width="42.54" height="14.16"/>
<rect x="7.08" y="58.607" width="42.78" height="0.48"/>
<rect x="49.38" y="58.847" width="0.48" height="14.4"/>
<rect x="6.84" y="72.767" width="42.78" height="0.48"/>
<rect x="6.84" y="58.607" width="0.48" height="14.4"/>
<text transform="matrix(1 0 0 1 14.2197 68.0874)" style="font-family:'ProductusOSGiBookc'; font-size:7.98;">p</text>
<text transform="matrix(1 0 0 1 63.7798 66.1675)" style="font-family:'ProductusOSGiBookc'; font-size:7.98;">p</text>
<text transform="matrix(1 0 0 1 67.4429 66.1675)" style="font-family:'ProductusOSGiBookc'; font-size:7.98;">r</text>
<text transform="matrix(1 0 0 1 69.7168 66.1675)" style="font-family:'ProductusOSGiBookc'; font-size:7.98;">iva</text>
<text transform="matrix(1 0 0 1 77.6807 66.1675)" style="font-family:'ProductusOSGiBookc'; font-size:7.98;">t</text>
<text transform="matrix(1 0 0 1 79.9629 66.1675)" style="font-family:'ProductusOSGiBookc'; font-size:7.98;">e</text>
<text transform="matrix(1 0 0 1 83.4336 66.1675)" style="font-family:'ProductusOSGiBookc'; font-size:7.98;"> </text>
<text transform="matrix(1 0 0 1 85.0459 66.1675)" style="font-family:'ProductusOSGiBookc'; font-size:7.98;">pac</text>
<text transform="matrix(1 0 0 1 95.0527 66.1675)" style="font-family:'ProductusOSGiBookc'; font-size:7.98;">k</text>
<text transform="matrix(1 0 0 1 98.2368 66.1675)" style="font-family:'ProductusOSGiBookc'; font-size:7.98;">age</text>
<polyline points="38.1,7.067 38.1,3.828 38.4,3.887 48.78,6.828 49.62,7.067 48.78,7.307 38.4,10.307 38.1,10.367 38.1,10.067 
	38.28,9.828 48.66,6.828 48.78,7.307 48.66,7.307 38.28,4.367 38.4,3.887 38.58,4.127 38.58,7.067 "/>
<rect x="38.1" y="7.067" width="0.48" height="3"/>
<rect x="6.84" y="6.828" width="31.5" height="0.48"/>
<text transform="matrix(1 0 0 1 63.7798 9.7056)" style="font-family:'ProductusOSGiBookc'; font-size:7.98;">r</text>
<text transform="matrix(1 0 0 1 65.8228 9.7056)" style="font-family:'ProductusOSGiBookc'; font-size:7.98;">e</text>
<text transform="matrix(1 0 0 1 69.3018 9.7056)" style="font-family:'ProductusOSGiBookc'; font-size:7.98;">qui</text>
<text transform="matrix(1 0 0 1 78.1826 9.7056)" style="font-family:'ProductusOSGiBookc'; font-size:7.98;">r</text>
<text transform="matrix(1 0 0 1 80.2256 9.7056)" style="font-family:'ProductusOSGiBookc'; font-size:7.98;">e</text>
<text transform="matrix(1 0 0 1 83.7139 9.7056)" style="font-family:'ProductusOSGiBookc'; font-size:7.98;"> </text>
<text transform="matrix(1 0 0 1 85.2778 9.7056)" style="font-family:'ProductusOSGiBookc'; font-size:7.98;">bund</text>
<text transform="matrix(1 0 0 1 99.9678 9.7056)" style="font-family:'ProductusOSGiBookc'; font-size:7.98;">l</text>
<text transform="matrix(1 0 0 1 101.4766 9.7056)" style="font-family:'ProductusOSGiBookc'; font-size:7.98;">e</text>
<rect x="170.1" y="58.847" width="42.541" height="14.16"/>
<rect x="170.1" y="58.607" width="42.78" height="0.48"/>
<rect x="212.398" y="58.847" width="0.479" height="14.4"/>
<rect x="169.859" y="72.767" width="42.779" height="0.48"/>
<rect x="169.859" y="58.607" width="0.479" height="14.4"/>
<text transform="matrix(1 0 0 1 177.1797 68.0874)" style="fill:#FFFFFF; font-family:'ProductusBook'; font-size:7.98;">q</text>
<text transform="matrix(1 0 0 1 180.8984 68.0874)" style="fill:#FFFFFF; font-family:'ProductusBook'; font-size:7.98;">-</text>
<text transform="matrix(1 0 0 1 183.6035 68.0874)" style="fill:#FFFFFF; font-family:'ProductusBook'; font-size:7.98;">2</text>
<text transform="matrix(1 0 0 1 187.2578 68.0874)" style="fill:#FFFFFF; font-family:'ProductusBook'; font-size:7.98;">.</text>
<text transform="matrix(1 0 0 1 188.8223 68.0874)" style="fill:#FFFFFF; font-family:'ProductusBook'; font-size:7.98;">2</text>
<text transform="matrix(1 0 0 1 192.4775 68.0874)" style="fill:#FFFFFF; font-family:'ProductusBook'; font-size:7.98;">.</text>
<text transform="matrix(1 0 0 1 194.041 68.0874)" style="fill:#FFFFFF; font-family:'ProductusBook'; font-size:7.98;">2</text>
<text transform="matrix(1 0 0 1 63.7798 96.1675)" style="font-family:'ProductusOSGiBookc'; font-size:7.98;">bu</text>
<text transform="matrix(1 0 0 1 71.145 96.1675)" style="font-family:'ProductusOSGiBookc'; font-size:7.98;">n</text>
<text transform="matrix(1 0 0 1 74.752 96.1675)" style="font-family:'ProductusOSGiBookc'; font-size:7.98;">d</text>
<text transform="matrix(1 0 0 1 78.4707 96.1675)" style="font-family:'ProductusOSGiBookc'; font-size:7.98;">l</text>
<text transform="matrix(1 0 0 1 79.979 96.1675)" style="font-family:'ProductusOSGiBookc'; font-size:7.98;">e</text>
<rect y="84.347" style="fill:#B3B3B3;" width="56.7" height="28.32"/>
<polyline points="202.5,86.387 202.5,83.087 203.16,83.267 212.34,85.908 214.02,86.387 212.34,86.869 203.16,89.507 202.5,89.687 
	202.5,89.028 202.859,88.546 212.04,85.908 212.34,86.869 212.04,86.869 202.859,84.227 203.16,83.267 203.52,83.748 203.52,86.387 
	"/>
<rect x="202.5" y="86.387" width="1.02" height="2.641"/>
<polyline points="202.979,86.387 202.979,83.748 212.16,86.387 202.979,89.028 "/>
<rect x="171.24" y="86.147" width="31.439" height="0.479"/>
<text transform="matrix(1 0 0 1 234.5996 89.0874)" style="font-family:'ProductusOSGiBookc'; font-size:7.98;">fragment</text>
<text transform="matrix(1 0 0 1 260.7812 89.0874)" style="font-family:'ProductusOSGiBookc'; font-size:7.98;"> </text>
<text transform="matrix(1 0 0 1 262.4014 89.0874)" style="font-family:'ProductusOSGiBookc'; font-size:7.98;">h</text>
<text transform="matrix(1 0 0 1 266.0566 89.0874)" style="font-family:'ProductusOSGiBookc'; font-size:7.98;">o</text>
<text transform="matrix(1 0 0 1 269.7832 89.0874)" style="font-family:'ProductusOSGiBookc'; font-size:7.98;">s</text>
<text transform="matrix(1 0 0 1 272.5918 89.0874)" style="font-family:'ProductusOSGiBookc'; font-size:7.98;">t</text>
</svg>
