<?xml version="1.0" encoding="utf-8"?>
<!-- Generator: Adobe Illustrator 16.0.1, SVG Export Plug-In . SVG Version: 6.00 Build 0)  -->
<!DOCTYPE svg PUBLIC "-//W3C//DTD SVG 1.1//EN" "http://www.w3.org/Graphics/SVG/1.1/DTD/svg11.dtd">
<svg version="1.1" id="Layer_1" xmlns="http://www.w3.org/2000/svg" xmlns:xlink="http://www.w3.org/1999/xlink" x="0px" y="0px"
	 width="230.879px" height="69.125px" viewBox="0 0 230.879 69.125" enable-background="new 0 0 230.879 69.125"
	 xml:space="preserve">
<rect x="2.64" y="2.04" width="55.2" height="27"/>
<rect x="2.64" y="1.8" width="55.44" height="0.48"/>
<rect x="57.6" y="2.04" width="0.48" height="27.24"/>
<rect x="2.4" y="28.8" width="55.44" height="0.48"/>
<rect x="2.4" y="1.8" width="0.48" height="27.24"/>
<rect x="0.24" y="0.24" fill="#FFFFFF" width="55.2" height="27"/>
<rect x="0.24" width="55.44" height="0.479"/>
<rect x="55.2" y="0.24" width="0.48" height="27.24"/>
<rect y="27" width="55.44" height="0.479"/>
<rect width="0.48" height="27.24"/>
<text transform="matrix(1 0 0 1 2.6401 7.3804)" enable-background="new    "><tspan x="0" y="0" font-family="'ProductusSemibold'" font-size="7.98">Service</tspan><tspan x="0" y="9.576" font-family="'ProductusSemibold'" font-size="7.98">Tracker</tspan></text>
<text transform="matrix(1 0 0 1 94.5601 28.8003)" font-family="'ProductusBook'" font-size="7.98">customized by</text>
<rect x="175.44" y="2.04" width="55.2" height="27"/>
<rect x="175.44" y="1.8" width="55.439" height="0.48"/>
<rect x="230.4" y="2.04" width="0.479" height="27.24"/>
<rect x="175.2" y="28.8" width="55.44" height="0.48"/>
<rect x="175.2" y="1.8" width="0.48" height="27.24"/>
<rect x="173.042" y="0.24" fill="#FFFFFF" width="55.199" height="27"/>
<rect x="173.042" width="55.438" height="0.479"/>
<rect x="228" y="0.24" width="0.479" height="27.24"/>
<rect x="172.799" y="27" width="55.439" height="0.479"/>
<rect x="172.799" width="0.479" height="27.24"/>
<text transform="matrix(1 0 0 1 175.4399 7.2002)" enable-background="new    "><tspan x="0" y="0" font-family="'ProductusSemibold'" font-size="7.98">Service</tspan><tspan x="0" y="9.576" font-family="'ProductusSemibold'" font-size="7.98">Tracker</tspan><tspan x="0" y="19.152" font-family="'ProductusSemibold'" font-size="7.98">Customizer</tspan></text>
<polyline points="161.52,7.44 161.52,4.14 162.18,4.32 173.1,7.44 162.18,10.56 161.52,10.74 161.52,10.08 161.879,9.6 171.12,6.96 
	171.42,7.92 171.12,7.92 161.879,5.28 162.18,4.32 162.542,4.8 162.542,7.44 "/>
<rect x="161.52" y="7.44" width="1.021" height="2.64"/>
<polyline points="162,7.44 162,4.8 171.241,7.44 162,10.08 "/>
<rect x="57.84" y="7.2" width="103.68" height="0.48"/>
<rect x="57.84" y="21.6" width="115.2" height="0.48"/>
<text transform="matrix(1 0 0 1 60.3599 28.8003)" font-family="'ProductusBook'" font-size="7.98">1</text>
<text transform="matrix(1 0 0 1 161.1997 27.7212)" font-family="'ProductusBook'" font-size="7.98">0..1</text>
<rect x="2.64" y="40.081" width="55.2" height="27"/>
<rect x="2.64" y="39.84" width="55.44" height="0.479"/>
<rect x="57.6" y="40.081" width="0.48" height="27.239"/>
<rect x="2.4" y="66.84" width="55.44" height="0.479"/>
<rect x="2.4" y="39.84" width="0.48" height="27.24"/>
<rect x="0.24" y="38.28" fill="#FFFFFF" width="55.2" height="27"/>
<rect x="0.24" y="38.04" width="55.44" height="0.479"/>
<rect x="55.2" y="38.28" width="0.48" height="27.24"/>
<rect y="65.04" width="55.44" height="0.479"/>
<rect y="38.04" width="0.48" height="27.24"/>
<text transform="matrix(1 0 0 1 2.6401 45.3608)" enable-background="new    "><tspan x="0" y="0" font-family="'ProductusSemibold'" font-size="7.98">Bundle</tspan><tspan x="0" y="9.576" font-family="'ProductusSemibold'" font-size="7.98">Tracker</tspan></text>
<text transform="matrix(1 0 0 1 94.5601 66.7798)" font-family="'ProductusBook'" font-size="7.98">customized by</text>
<rect x="175.44" y="40.081" width="55.2" height="27"/>
<rect x="175.44" y="39.84" width="55.439" height="0.479"/>
<rect x="230.4" y="40.081" width="0.479" height="27.239"/>
<rect x="175.2" y="66.84" width="55.44" height="0.479"/>
<rect x="175.2" y="39.84" width="0.48" height="27.24"/>
<rect x="173.042" y="38.28" fill="#FFFFFF" width="55.199" height="27"/>
<rect x="173.042" y="38.04" width="55.438" height="0.479"/>
<rect x="228" y="38.28" width="0.479" height="27.24"/>
<rect x="172.799" y="65.04" width="55.439" height="0.479"/>
<rect x="172.799" y="38.04" width="0.479" height="27.24"/>
<text transform="matrix(1 0 0 1 175.6802 45.2407)" enable-background="new    "><tspan x="0" y="0" font-family="'ProductusSemibold'" font-size="7.98">Bundle</tspan><tspan x="0" y="9.576" font-family="'ProductusSemibold'" font-size="7.98">Tracker</tspan><tspan x="0" y="19.152" font-family="'ProductusSemibold'" font-size="7.98">Customizer</tspan></text>
<polyline points="161.52,45.48 161.52,42.12 162.18,42.299 171.42,45 173.1,45.48 162.18,48.6 161.52,48.78 161.52,48.12 
	161.879,47.64 171.12,45 171.42,45.959 171.12,45.959 161.879,43.26 162.18,42.299 162.542,42.78 162.542,45.48 "/>
<rect x="161.52" y="45.48" width="1.021" height="2.64"/>
<polyline points="162,45.48 162,42.78 171.241,45.48 162,48.12 "/>
<rect x="57.84" y="45.241" width="103.68" height="0.479"/>
<rect x="57.84" y="59.64" width="115.2" height="0.479"/>
<text transform="matrix(1 0 0 1 60.3599 66.7798)" font-family="'ProductusBook'" font-size="7.98">1</text>
<text transform="matrix(1 0 0 1 161.1997 65.7612)" font-family="'ProductusBook'" font-size="7.98">0..1</text>
</svg>
