<?xml version="1.0" encoding="utf-8"?>
<!-- Generator: Adobe Illustrator 16.0.0, SVG Export Plug-In . SVG Version: 6.00 Build 0)  -->
<!DOCTYPE svg PUBLIC "-//W3C//DTD SVG 1.1//EN" "http://www.w3.org/Graphics/SVG/1.1/DTD/svg11.dtd">
<svg version="1.1" id="Layer_1" xmlns="http://www.w3.org/2000/svg" xmlns:xlink="http://www.w3.org/1999/xlink" x="0px" y="0px"
	 width="230.88px" height="69.126px" viewBox="0 0 230.88 69.126" style="enable-background:new 0 0 230.88 69.126;"
	 xml:space="preserve">
<rect x="2.64" y="2.04" width="55.2" height="27"/>
<rect x="2.64" y="1.8" width="55.44" height="0.48"/>
<rect x="57.6" y="2.04" width="0.48" height="27.24"/>
<rect x="2.4" y="28.8" width="55.44" height="0.48"/>
<rect x="2.4" y="1.8" width="0.48" height="27.24"/>
<rect x="0.24" y="0.24" style="fill:#FFFFFF;" width="55.2" height="27"/>
<rect x="0.24" width="55.44" height="0.479"/>
<rect x="55.2" y="0.24" width="0.48" height="27.24"/>
<rect y="27" width="55.44" height="0.479"/>
<rect width="0.48" height="27.24"/>
<text transform="matrix(1 0 0 1 2.6401 7.3799)"><tspan x="0" y="0" style="font-family:'ProductusSemibold'; font-size:7.98;">Serv</tspan><tspan x="15.401" y="0" style="font-family:'ProductusSemibold'; font-size:7.98;">i</tspan><tspan x="17.62" y="0" style="font-family:'ProductusSemibold'; font-size:7.98;">c</tspan><tspan x="21.274" y="0" style="font-family:'ProductusSemibold'; font-size:7.98;">e</tspan></text>
<text transform="matrix(1 0 0 1 2.6401 15.9004)"><tspan x="0" y="0" style="font-family:'ProductusSemibold'; font-size:7.98;">T</tspan><tspan x="3.902" y="0" style="font-family:'ProductusSemibold'; font-size:7.98;">r</tspan><tspan x="6.895" y="0" style="font-family:'ProductusSemibold'; font-size:7.98;">a</tspan><tspan x="10.789" y="0" style="font-family:'ProductusSemibold'; font-size:7.98;">c</tspan><tspan x="14.507" y="0" style="font-family:'ProductusSemibold'; font-size:7.98;">k</tspan><tspan x="18.346" y="0" style="font-family:'ProductusSemibold'; font-size:7.98;">e</tspan><tspan x="22.479" y="0" style="font-family:'ProductusSemibold'; font-size:7.98;">r</tspan></text>
<text transform="matrix(1 0 0 1 94.5601 28.7998)"><tspan x="0" y="0" style="font-family:'ProductusBook'; font-size:7.98;">c</tspan><tspan x="3.08" y="0" style="font-family:'ProductusBook'; font-size:7.98;">u</tspan><tspan x="6.799" y="0" style="font-family:'ProductusBook'; font-size:7.98;">s</tspan><tspan x="9.608" y="0" style="font-family:'ProductusBook'; font-size:7.98;">t</tspan><tspan x="12.001" y="0" style="font-family:'ProductusBook'; font-size:7.98;">omize</tspan><tspan x="29.613" y="0" style="font-family:'ProductusBook'; font-size:7.98;">d</tspan><tspan x="33.332" y="0" style="font-family:'ProductusBook'; font-size:7.98;"> </tspan><tspan x="34.944" y="0" style="font-family:'ProductusBook'; font-size:7.98;">b</tspan><tspan x="38.551" y="0" style="font-family:'ProductusBook'; font-size:7.98;">y</tspan></text>
<rect x="175.44" y="2.04" width="55.2" height="27"/>
<rect x="175.44" y="1.8" width="55.44" height="0.48"/>
<rect x="230.4" y="2.04" width="0.48" height="27.24"/>
<rect x="175.2" y="28.8" width="55.44" height="0.48"/>
<rect x="175.2" y="1.8" width="0.48" height="27.24"/>
<rect x="173.041" y="0.24" style="fill:#FFFFFF;" width="55.199" height="27"/>
<rect x="173.041" width="55.439" height="0.479"/>
<rect x="228" y="0.24" width="0.479" height="27.24"/>
<rect x="172.8" y="27" width="55.439" height="0.479"/>
<rect x="172.8" width="0.479" height="27.24"/>
<text transform="matrix(1 0 0 1 175.4399 7.3799)"><tspan x="0" y="0" style="font-family:'ProductusSemibold'; font-size:7.98;">Serv</tspan><tspan x="15.401" y="0" style="font-family:'ProductusSemibold'; font-size:7.98;">i</tspan><tspan x="17.619" y="0" style="font-family:'ProductusSemibold'; font-size:7.98;">c</tspan><tspan x="21.274" y="0" style="font-family:'ProductusSemibold'; font-size:7.98;">e</tspan></text>
<text transform="matrix(1 0 0 1 175.4399 15.9004)"><tspan x="0" y="0" style="font-family:'ProductusSemibold'; font-size:7.98;">T</tspan><tspan x="3.902" y="0" style="font-family:'ProductusSemibold'; font-size:7.98;">ra</tspan><tspan x="10.853" y="0" style="font-family:'ProductusSemibold'; font-size:7.98;">c</tspan><tspan x="14.507" y="0" style="font-family:'ProductusSemibold'; font-size:7.98;">k</tspan><tspan x="18.346" y="0" style="font-family:'ProductusSemibold'; font-size:7.98;">e</tspan><tspan x="22.479" y="0" style="font-family:'ProductusSemibold'; font-size:7.98;">r</tspan></text>
<text transform="matrix(1 0 0 1 175.4399 24.4204)"><tspan x="0" y="0" style="font-family:'ProductusSemibold'; font-size:7.98;">C</tspan><tspan x="4.859" y="0" style="font-family:'ProductusSemibold'; font-size:7.98;">u</tspan><tspan x="9.177" y="0" style="font-family:'ProductusSemibold'; font-size:7.98;">s</tspan><tspan x="12.473" y="0" style="font-family:'ProductusSemibold'; font-size:7.98;">t</tspan><tspan x="15.593" y="0" style="font-family:'ProductusSemibold'; font-size:7.98;">o</tspan><tspan x="19.966" y="0" style="font-family:'ProductusSemibold'; font-size:7.98;">m</tspan><tspan x="26.325" y="0" style="font-family:'ProductusSemibold'; font-size:7.98;">i</tspan><tspan x="28.479" y="0" style="font-family:'ProductusSemibold'; font-size:7.98;">z</tspan><tspan x="32.254" y="0" style="font-family:'ProductusSemibold'; font-size:7.98;">e</tspan><tspan x="36.388" y="0" style="font-family:'ProductusSemibold'; font-size:7.98;">r</tspan></text>
<polyline points="161.52,7.44 161.52,4.14 162.18,4.32 173.1,7.44 162.18,10.56 161.52,10.74 161.52,10.08 161.88,9.6 171.12,6.96 
	171.42,7.92 171.12,7.92 161.88,5.28 162.18,4.32 162.541,4.8 162.541,7.44 "/>
<rect x="161.52" y="7.44" width="1.021" height="2.64"/>
<polyline style="fill-rule:evenodd;clip-rule:evenodd;" points="162,7.44 162,4.8 171.24,7.44 162,10.08 "/>
<rect x="57.84" y="7.2" width="103.68" height="0.48"/>
<rect x="57.84" y="21.6" width="115.2" height="0.48"/>
<text transform="matrix(1 0 0 1 60.3599 28.7998)" style="font-family:'ProductusBook'; font-size:7.98;">1</text>
<text transform="matrix(1 0 0 1 163.1997 27.7202)" style="font-family:'ProductusBook'; font-size:7.98;">0,1</text>
<rect x="2.64" y="40.08" width="55.2" height="27"/>
<rect x="2.64" y="39.84" width="55.44" height="0.48"/>
<rect x="57.6" y="40.08" width="0.48" height="27.24"/>
<rect x="2.4" y="66.84" width="55.44" height="0.48"/>
<rect x="2.4" y="39.84" width="0.48" height="27.24"/>
<rect x="0.24" y="38.28" style="fill:#FFFFFF;" width="55.2" height="27"/>
<rect x="0.24" y="38.04" width="55.44" height="0.479"/>
<rect x="55.2" y="38.28" width="0.48" height="27.24"/>
<rect y="65.04" width="55.44" height="0.479"/>
<rect y="38.04" width="0.48" height="27.24"/>
<text transform="matrix(1 0 0 1 2.6401 45.3599)"><tspan x="0" y="0" style="font-family:'ProductusSemibold'; font-size:7.98;">B</tspan><tspan x="4.261" y="0" style="font-family:'ProductusSemibold'; font-size:7.98;">u</tspan><tspan x="8.578" y="0" style="font-family:'ProductusSemibold'; font-size:7.98;">nd</tspan><tspan x="17.141" y="0" style="font-family:'ProductusSemibold'; font-size:7.98;">l</tspan><tspan x="19.359" y="0" style="font-family:'ProductusSemibold'; font-size:7.98;">e</tspan></text>
<text transform="matrix(1 0 0 1 2.6401 53.8799)"><tspan x="0" y="0" style="font-family:'ProductusSemibold'; font-size:7.98;">T</tspan><tspan x="3.902" y="0" style="font-family:'ProductusSemibold'; font-size:7.98;">r</tspan><tspan x="6.895" y="0" style="font-family:'ProductusSemibold'; font-size:7.98;">a</tspan><tspan x="10.789" y="0" style="font-family:'ProductusSemibold'; font-size:7.98;">c</tspan><tspan x="14.507" y="0" style="font-family:'ProductusSemibold'; font-size:7.98;">k</tspan><tspan x="18.346" y="0" style="font-family:'ProductusSemibold'; font-size:7.98;">e</tspan><tspan x="22.479" y="0" style="font-family:'ProductusSemibold'; font-size:7.98;">r</tspan></text>
<text transform="matrix(1 0 0 1 94.5601 66.7798)"><tspan x="0" y="0" style="font-family:'ProductusBook'; font-size:7.98;">c</tspan><tspan x="3.08" y="0" style="font-family:'ProductusBook'; font-size:7.98;">u</tspan><tspan x="6.799" y="0" style="font-family:'ProductusBook'; font-size:7.98;">s</tspan><tspan x="9.608" y="0" style="font-family:'ProductusBook'; font-size:7.98;">t</tspan><tspan x="12.001" y="0" style="font-family:'ProductusBook'; font-size:7.98;">omize</tspan><tspan x="29.613" y="0" style="font-family:'ProductusBook'; font-size:7.98;">d</tspan><tspan x="33.332" y="0" style="font-family:'ProductusBook'; font-size:7.98;"> </tspan><tspan x="34.944" y="0" style="font-family:'ProductusBook'; font-size:7.98;">b</tspan><tspan x="38.551" y="0" style="font-family:'ProductusBook'; font-size:7.98;">y</tspan></text>
<rect x="175.44" y="40.08" width="55.2" height="27"/>
<rect x="175.44" y="39.84" width="55.44" height="0.48"/>
<rect x="230.4" y="40.08" width="0.48" height="27.24"/>
<rect x="175.2" y="66.84" width="55.44" height="0.48"/>
<rect x="175.2" y="39.84" width="0.48" height="27.24"/>
<rect x="173.041" y="38.28" style="fill:#FFFFFF;" width="55.199" height="27"/>
<rect x="173.041" y="38.04" width="55.439" height="0.479"/>
<rect x="228" y="38.28" width="0.479" height="27.24"/>
<rect x="172.8" y="65.04" width="55.439" height="0.479"/>
<rect x="172.8" y="38.04" width="0.479" height="27.24"/>
<text transform="matrix(1 0 0 1 175.4399 45.3599)"><tspan x="0" y="0" style="font-family:'ProductusSemibold'; font-size:7.98;">B</tspan><tspan x="4.262" y="0" style="font-family:'ProductusSemibold'; font-size:7.98;">u</tspan><tspan x="8.578" y="0" style="font-family:'ProductusSemibold'; font-size:7.98;">nd</tspan><tspan x="17.141" y="0" style="font-family:'ProductusSemibold'; font-size:7.98;">l</tspan><tspan x="19.359" y="0" style="font-family:'ProductusSemibold'; font-size:7.98;">e</tspan></text>
<text transform="matrix(1 0 0 1 175.4399 53.8799)"><tspan x="0" y="0" style="font-family:'ProductusSemibold'; font-size:7.98;">T</tspan><tspan x="3.902" y="0" style="font-family:'ProductusSemibold'; font-size:7.98;">ra</tspan><tspan x="10.853" y="0" style="font-family:'ProductusSemibold'; font-size:7.98;">c</tspan><tspan x="14.507" y="0" style="font-family:'ProductusSemibold'; font-size:7.98;">k</tspan><tspan x="18.346" y="0" style="font-family:'ProductusSemibold'; font-size:7.98;">e</tspan><tspan x="22.479" y="0" style="font-family:'ProductusSemibold'; font-size:7.98;">r</tspan></text>
<text transform="matrix(1 0 0 1 175.4399 62.4004)"><tspan x="0" y="0" style="font-family:'ProductusSemibold'; font-size:7.98;">C</tspan><tspan x="4.859" y="0" style="font-family:'ProductusSemibold'; font-size:7.98;">u</tspan><tspan x="9.177" y="0" style="font-family:'ProductusSemibold'; font-size:7.98;">s</tspan><tspan x="12.473" y="0" style="font-family:'ProductusSemibold'; font-size:7.98;">t</tspan><tspan x="15.593" y="0" style="font-family:'ProductusSemibold'; font-size:7.98;">o</tspan><tspan x="19.966" y="0" style="font-family:'ProductusSemibold'; font-size:7.98;">m</tspan><tspan x="26.325" y="0" style="font-family:'ProductusSemibold'; font-size:7.98;">i</tspan><tspan x="28.479" y="0" style="font-family:'ProductusSemibold'; font-size:7.98;">z</tspan><tspan x="32.254" y="0" style="font-family:'ProductusSemibold'; font-size:7.98;">e</tspan><tspan x="36.388" y="0" style="font-family:'ProductusSemibold'; font-size:7.98;">r</tspan></text>
<polyline points="161.52,45.48 161.52,42.12 162.18,42.3 171.42,45 173.1,45.48 162.18,48.6 161.52,48.78 161.52,48.12 
	161.88,47.64 171.12,45 171.42,45.96 171.12,45.96 161.88,43.26 162.18,42.3 162.541,42.78 162.541,45.48 "/>
<rect x="161.52" y="45.48" width="1.021" height="2.64"/>
<polyline style="fill-rule:evenodd;clip-rule:evenodd;" points="162,45.48 162,42.78 171.24,45.48 162,48.12 "/>
<rect x="57.84" y="45.24" width="103.68" height="0.48"/>
<rect x="57.84" y="59.64" width="115.2" height="0.48"/>
<text transform="matrix(1 0 0 1 60.3599 66.7798)" style="font-family:'ProductusBook'; font-size:7.98;">1</text>
<text transform="matrix(1 0 0 1 163.1997 65.7603)" style="font-family:'ProductusBook'; font-size:7.98;">0,1</text>
</svg>
