<?xml version="1.0" encoding="utf-8"?>
<!-- Generator: Adobe Illustrator 21.1.0, SVG Export Plug-In . SVG Version: 6.00 Build 0)  -->
<!DOCTYPE svg PUBLIC "-//W3C//DTD SVG 1.1//EN" "http://www.w3.org/Graphics/SVG/1.1/DTD/svg11.dtd">
<svg
        version="1.1"
        id="Layer_1"
        xmlns="http://www.w3.org/2000/svg"
        xmlns:xlink="http://www.w3.org/1999/xlink"
        width="196.6px"
        height="104.7px"
        xml:space="preserve">
<style type="text/css">
	.st0{fill:#E6E6E6;}
	.st1{fill:#FFFFFF;}
	.st2{font-family:'ProductusBook';}
	.st3{font-size:7.98px;}
	.st4{enable-background:new    ;}
</style>
<rect class="st0" width="196.6" height="43.2"/>
<rect x="39.1" y="28.3" width="0.5" height="4.3"/>
<rect x="39.1" y="38.6" width="0.5" height="8.1"/>
<rect x="39.1" y="52.8" width="0.5" height="8.1"/>
<rect x="39.1" y="67" width="0.5" height="8.1"/>
<rect x="136.7" y="7.4" width="54.3" height="27"/>
<rect x="136.7" y="7.2" width="54.5" height="0.5"/>
<rect x="190.7" y="7.4" width="0.5" height="27.2"/>
<rect x="136.4" y="34.2" width="54.5" height="0.5"/>
<rect x="136.4" y="7.2" width="0.5" height="27.2"/>
<rect x="134.3" y="5.6" class="st1" width="54.4" height="27"/>
<rect x="134.3" y="5.4" width="54.6" height="0.5"/>
<rect x="188.4" y="5.6" width="0.5" height="27.2"/>
<rect x="134" y="32.4" width="54.6" height="0.5"/>
<rect x="134" y="5.4" width="0.5" height="27.2"/>
<text transform="matrix(0.9504 0 0 1 136.6891 12.7482)" class="st2 st3">Configuration</text>
<text transform="matrix(0.9504 0 0 1 136.6891 22.3244)" class="st2 st3">PID</text>
<polyline class="st1" points="5.7,35.6 5.7,7.3 48.5,7.3 48.5,27.5 "/>
<rect x="5.4" y="7.1" width="0.5" height="28.6"/>
<rect x="5.7" y="7.1" width="43.1" height="0.5"/>
<polyline points="48.7,7.3 48.7,27.7 48.6,27.7 5.7,35.9 5.4,35.9 5.4,35.6 5.7,35.4 48.5,27.3 48.6,27.7 48.3,27.5 48.3,7.3 "/>
<text transform="matrix(1 0 0 1 7.6796 15.6304)" class="st2 st3">Configuration</text>
<text transform="matrix(1 0 0 1 7.6796 25.2056)" class="st2 st3">Resource</text>
<rect x="7.6" y="77.7" width="54.3" height="27"/>
<rect x="7.6" y="77.4" width="54.5" height="0.5"/>
<rect x="61.7" y="77.7" width="0.5" height="27.2"/>
<rect x="7.4" y="104.4" width="54.5" height="0.5"/>
<rect x="7.4" y="77.4" width="0.5" height="27.2"/>
<rect x="5.2" y="75.9" class="st1" width="54.4" height="27"/>
<rect x="5.2" y="75.6" width="54.6" height="0.5"/>
<rect x="59.3" y="75.9" width="0.5" height="27.2"/>
<rect x="5" y="102.6" width="54.6" height="0.5"/>
<rect x="5" y="75.6" width="0.5" height="27.2"/>
<text transform="matrix(0.9504 0 0 1 7.6306 83.0081)" class="st2 st3">Configurator</text>
<text transform="matrix(0.9504 0 0 1 7.6306 92.5833)" class="st2 st3">Implementation</text>
<rect x="61.2" y="85.5" width="81.4" height="0.4"/>
<text transform="matrix(1 0 0 1 67.5886 83.2285)" class="st4"><tspan x="0" y="0" class="st2 st3">creates</tspan><tspan x="0" y="9.6" class="st2 st3">updates</tspan><tspan x="0" y="19.2" class="st2 st3">deletes configurations</tspan></text>
<text transform="matrix(-6.123234e-17 1 -1 -6.123234e-17 42.0992 45.65)" class="st2 st3">reads</text>
<text transform="matrix(1 0 0 1 5.4058 95.7269)" class="st2 st3"> </text>
<text transform="matrix(1 0 0 1 80.8993 18.4599)" class="st2 st3">declares</text>
<text transform="matrix(1 0 0 1 123.6684 25.7092)" class="st2 st3">1..n </text>
<rect x="136.8" y="77.4" width="54.3" height="27"/>
<rect x="136.8" y="77.2" width="54.5" height="0.5"/>
<rect x="190.8" y="77.4" width="0.5" height="27.2"/>
<rect x="136.5" y="104.2" width="54.5" height="0.5"/>
<rect x="136.5" y="77.2" width="0.5" height="27.2"/>
<rect x="134.4" y="75.6" class="st1" width="54.4" height="27"/>
<rect x="134.4" y="75.4" width="54.6" height="0.5"/>
<rect x="188.5" y="75.6" width="0.5" height="27.2"/>
<rect x="134.1" y="102.4" width="54.6" height="0.5"/>
<rect x="134.1" y="75.4" width="0.5" height="27.2"/>
<text transform="matrix(0.9504 0 0 1 136.7698 82.7692)" class="st2 st3">Configuration</text>
<text transform="matrix(0.9504 0 0 1 136.7698 92.3454)" class="st2 st3">Admin Service</text>
<polyline points="191.1,89.8 176.9,104 191.1,104 "/>
<polyline points="191.2,90 177.1,104.2 176.9,104.3 176.3,104.3 176.7,103.8 190.9,89.6 "/>
<rect x="176.9" y="103.8" width="14.4" height="0.5"/>
<polyline points="190.8,104 190.8,89.8 190.9,89.6 191.3,89.2 191.3,104 "/>
<text transform="matrix(1 0 0 1 40.44 73.1495)" class="st2 st3">0..n </text>
<g>
	<polyline class="st1" points="95.7,92.9 109.8,85.8 95.7,78.7 	"/>
	<polyline points="95.6,92.8 109.7,85.6 110,85.6 109.7,86 95.6,79 95.4,78.7 95.4,78.4 110.3,85.8 110,86 95.8,93.2 	"/>
	<polyline points="95.9,78.7 95.9,92.9 95.8,93.2 95.4,93.4 95.4,78.7 	"/>
	<rect x="109.6" y="85.6" width="0.2" height="0.5"/>
</g>
<rect x="48.5" y="19" width="85.5" height="0.4"/>
</svg>
