<?xml version="1.0" encoding="utf-8"?>
<!-- Generator: Adobe Illustrator 16.0.0, SVG Export Plug-In . SVG Version: 6.00 Build 0)  -->
<!DOCTYPE svg PUBLIC "-//W3C//DTD SVG 1.1//EN" "http://www.w3.org/Graphics/SVG/1.1/DTD/svg11.dtd">
<svg version="1.1" id="Layer_1" xmlns="http://www.w3.org/2000/svg" xmlns:xlink="http://www.w3.org/1999/xlink" x="0px" y="0px"
	 width="291.06px" height="37.547px" viewBox="0 0 291.06 37.547" style="enable-background:new 0 0 291.06 37.547;"
	 xml:space="preserve">
<rect x="123.06" y="10.727" width="54.36" height="26.58"/>
<rect x="123.06" y="10.486" width="54.6" height="0.48"/>
<rect x="177.18" y="10.727" width="0.479" height="26.82"/>
<rect x="122.82" y="37.066" width="54.601" height="0.48"/>
<rect x="122.82" y="10.486" width="0.48" height="26.82"/>
<rect x="120.72" y="8.986" style="fill:#FFFFFF;" width="54.3" height="26.58"/>
<rect x="120.72" y="8.747" width="54.541" height="0.479"/>
<rect x="174.78" y="8.986" width="0.48" height="26.82"/>
<rect x="120.48" y="35.327" width="54.54" height="0.479"/>
<rect x="120.48" y="8.747" width="0.48" height="26.819"/>
<text transform="matrix(1 0 0 1 123.0601 16.0664)"><tspan x="0" y="0" style="font-family:'ProductusOSGiBookc'; font-size:7.98;">&lt;&lt;</tspan><tspan x="5.873" y="0" style="font-family:'ProductusOSGiBookc'; font-size:7.98;">i</tspan><tspan x="7.381" y="0" style="font-family:'ProductusOSGiBookc'; font-size:7.98;">nte</tspan><tspan x="16.853" y="0" style="font-family:'ProductusOSGiBookc'; font-size:7.98;">r</tspan><tspan x="19.071" y="0" style="font-family:'ProductusOSGiBookc'; font-size:7.98;">f</tspan><tspan x="21.074" y="0" style="font-family:'ProductusOSGiBookc'; font-size:7.98;">a</tspan><tspan x="24.354" y="0" style="font-family:'ProductusOSGiBookc'; font-size:7.98;">c</tspan><tspan x="27.475" y="0" style="font-family:'ProductusOSGiBookc'; font-size:7.98;">e</tspan><tspan x="30.954" y="0" style="font-family:'ProductusOSGiBookc'; font-size:7.98;">&gt;</tspan><tspan x="33.834" y="0" style="font-family:'ProductusOSGiBookc'; font-size:7.98;">&gt;</tspan></text>
<text transform="matrix(1 0 0 1 123.0601 24.5869)"><tspan x="0" y="0" style="font-family:'ProductusSemibold'; font-size:7.98;">Mo</tspan><tspan x="11.044" y="0" style="font-family:'ProductusSemibold'; font-size:7.98;">ni</tspan><tspan x="17.452" y="0" style="font-family:'ProductusSemibold'; font-size:7.98;">tor</tspan><tspan x="27.93" y="0" style="font-family:'ProductusSemibold'; font-size:7.98;"> </tspan></text>
<text transform="matrix(1 0 0 1 123.0601 33.1074)"><tspan x="0" y="0" style="font-family:'ProductusSemibold'; font-size:7.98;">A</tspan><tspan x="4.86" y="0" style="font-family:'ProductusSemibold'; font-size:7.98;">dm</tspan><tspan x="15.529" y="0" style="font-family:'ProductusSemibold'; font-size:7.98;">i</tspan><tspan x="17.747" y="0" style="font-family:'ProductusSemibold'; font-size:7.98;">n</tspan></text>
<rect x="2.58" y="10.727" width="54.36" height="26.58"/>
<rect x="2.58" y="10.486" width="54.6" height="0.48"/>
<rect x="56.7" y="10.727" width="0.48" height="26.82"/>
<rect x="2.34" y="37.066" width="54.6" height="0.48"/>
<rect x="2.34" y="10.486" width="0.48" height="26.82"/>
<rect x="0.24" y="8.986" style="fill:#FFFFFF;" width="54.3" height="26.58"/>
<rect x="0.24" y="8.747" width="54.54" height="0.479"/>
<rect x="54.3" y="8.986" width="0.48" height="26.82"/>
<rect y="35.327" width="54.54" height="0.479"/>
<rect y="8.747" width="0.48" height="26.819"/>
<text transform="matrix(1 0 0 1 2.5801 16.0664)"><tspan x="0" y="0" style="font-family:'ProductusOSGiBookc'; font-size:7.98;">Loca</tspan><tspan x="13.191" y="0" style="font-family:'ProductusOSGiBookc'; font-size:7.98;">l</tspan><tspan x="14.699" y="0" style="font-family:'ProductusOSGiBookc'; font-size:7.98;"> </tspan></text>
<text transform="matrix(1 0 0 1 2.5801 24.5869)"><tspan x="0" y="0" style="font-family:'ProductusOSGiBookc'; font-size:7.98;">A</tspan><tspan x="3.902" y="0" style="font-family:'ProductusOSGiBookc'; font-size:7.98;">d</tspan><tspan x="7.565" y="0" style="font-family:'ProductusOSGiBookc'; font-size:7.98;">m</tspan><tspan x="13.271" y="0" style="font-family:'ProductusOSGiBookc'; font-size:7.98;">i</tspan><tspan x="14.827" y="0" style="font-family:'ProductusOSGiBookc'; font-size:7.98;">n</tspan><tspan x="18.481" y="0" style="font-family:'ProductusOSGiBookc'; font-size:7.98;">i</tspan><tspan x="20.037" y="0" style="font-family:'ProductusOSGiBookc'; font-size:7.98;">s</tspan><tspan x="22.798" y="0" style="font-family:'ProductusOSGiBookc'; font-size:7.98;">t</tspan><tspan x="25.136" y="0" style="font-family:'ProductusOSGiBookc'; font-size:7.98;">r</tspan><tspan x="27.355" y="0" style="font-family:'ProductusOSGiBookc'; font-size:7.98;">a</tspan><tspan x="30.65" y="0" style="font-family:'ProductusOSGiBookc'; font-size:7.98;">t</tspan><tspan x="32.989" y="0" style="font-family:'ProductusOSGiBookc'; font-size:7.98;">o</tspan><tspan x="36.763" y="0" style="font-family:'ProductusOSGiBookc'; font-size:7.98;">r</tspan></text>
<rect x="236.459" y="10.727" width="54.36" height="26.58"/>
<rect x="236.459" y="10.486" width="54.601" height="0.48"/>
<rect x="290.58" y="10.727" width="0.48" height="26.82"/>
<rect x="236.22" y="37.066" width="54.6" height="0.48"/>
<rect x="236.22" y="10.486" width="0.479" height="26.82"/>
<rect x="234.12" y="8.986" style="fill:#FFFFFF;" width="54.301" height="26.58"/>
<rect x="234.12" y="8.747" width="54.54" height="0.479"/>
<rect x="288.18" y="8.986" width="0.479" height="26.82"/>
<rect x="233.88" y="35.327" width="54.54" height="0.479"/>
<rect x="233.88" y="8.747" width="0.479" height="26.819"/>
<text transform="matrix(1 0 0 1 236.4595 16.0664)"><tspan x="0" y="0" style="font-family:'ProductusSemibold'; font-size:7.98;">M</tspan><tspan x="6.671" y="0" style="font-family:'ProductusSemibold'; font-size:7.98;">o</tspan><tspan x="11.044" y="0" style="font-family:'ProductusSemibold'; font-size:7.98;">nit</tspan><tspan x="20.556" y="0" style="font-family:'ProductusSemibold'; font-size:7.98;">o</tspan><tspan x="24.929" y="0" style="font-family:'ProductusSemibold'; font-size:7.98;">ra</tspan><tspan x="31.831" y="0" style="font-family:'ProductusSemibold'; font-size:7.98;">b</tspan><tspan x="36.148" y="0" style="font-family:'ProductusSemibold'; font-size:7.98;">l</tspan><tspan x="38.303" y="0" style="font-family:'ProductusSemibold'; font-size:7.98;">e</tspan></text>
<polyline style="fill-rule:evenodd;clip-rule:evenodd;" points="177.42,23.146 163.2,37.307 177.42,37.307 "/>
<polyline points="177.66,23.146 177.66,23.267 177.6,23.327 163.38,37.486 163.2,37.547 162.6,37.547 163.02,37.127 177.24,22.967 
	177.6,23.327 177.18,23.146 "/>
<rect x="163.2" y="37.066" width="14.46" height="0.48"/>
<rect x="177.18" y="23.146" width="0.479" height="14.16"/>
<polyline style="fill-rule:evenodd;clip-rule:evenodd;" points="290.82,23.146 276.6,37.307 290.82,37.307 "/>
<polyline points="291.06,23.146 291.06,23.267 291,23.327 276.78,37.486 276.6,37.547 276,37.547 276.42,37.127 290.64,22.967 
	291,23.327 290.58,23.146 "/>
<rect x="276.6" y="37.066" width="14.46" height="0.48"/>
<rect x="290.58" y="23.146" width="0.48" height="14.16"/>
<rect x="56.7" y="22.907" width="64.26" height="0.479"/>
<rect x="177.18" y="22.907" width="57.18" height="0.479"/>
<rect x="205.5" y="19.187" width="0.48" height="4.2"/>
<rect x="205.5" y="5.627" width="0.48" height="0.24"/>
<rect x="205.5" y="1.667" width="0.48" height="3.96"/>
<text transform="matrix(1 0 0 1 110.1001 20.8066)"><tspan x="0" y="0" style="font-family:'ProductusBook'; font-size:7.98;">0..</tspan><tspan x="7.078" y="0" style="font-family:'ProductusBook'; font-size:7.98;">n</tspan></text>
<g>
	<text transform="matrix(1 0 0 1 230.4595 20.8066)" style="font-family:'ProductusBook'; font-size:7.98;">n</text>
	<text transform="matrix(1 0 0 1 228.8267 20.8066)" style="font-family:'ProductusBook'; font-size:7.98;">.</text>
	<text transform="matrix(1 0 0 1 227.2661 20.8066)" style="font-family:'ProductusBook'; font-size:7.98;">.</text>
	<text transform="matrix(1 0 0 1 223.3198 20.8066)" style="font-family:'ProductusBook'; font-size:7.98;">0</text>
	<text transform="matrix(1 0 0 1 66.1797 20.8066)" style="font-family:'ProductusBook'; font-size:7.98;">n</text>
	<text transform="matrix(1 0 0 1 64.5469 20.8066)" style="font-family:'ProductusBook'; font-size:7.98;">.</text>
	<text transform="matrix(1 0 0 1 62.9868 20.8066)" style="font-family:'ProductusBook'; font-size:7.98;">.</text>
	<text transform="matrix(1 0 0 1 59.04 20.8066)" style="font-family:'ProductusBook'; font-size:7.98;">0</text>
</g>
<text transform="matrix(1 0 0 1 180.7798 20.8066)" style="font-family:'ProductusBook'; font-size:7.98;">1</text>
<text transform="matrix(1 0 0 1 209.1001 6.6475)"><tspan x="0" y="0" style="font-family:'ProductusBook'; font-size:7.98;">n</tspan><tspan x="3.694" y="0" style="font-family:'ProductusBook'; font-size:7.98;">a</tspan><tspan x="6.998" y="0" style="font-family:'ProductusBook'; font-size:7.98;">m</tspan><tspan x="12.775" y="0" style="font-family:'ProductusBook'; font-size:7.98;">e</tspan></text>
</svg>
