<?xml version="1.0" encoding="utf-8"?>
<!-- Generator: Adobe Illustrator 16.0.1, SVG Export Plug-In . SVG Version: 6.00 Build 0)  -->
<!DOCTYPE svg PUBLIC "-//W3C//DTD SVG 1.1//EN" "http://www.w3.org/Graphics/SVG/1.1/DTD/svg11.dtd">
<svg version="1.1" id="Layer_1" xmlns="http://www.w3.org/2000/svg" xmlns:xlink="http://www.w3.org/1999/xlink" x="0px" y="0px"
	 width="347.52px" height="185.641px" viewBox="0 0 347.52 185.641" enable-background="new 0 0 347.52 185.641"
	 xml:space="preserve">
<rect x="64.02" y="142.44" fill="#E6E6E6" width="141.78" height="43.2"/>
<rect x="205.8" y="0.719" fill="#E6E6E6" width="141.72" height="43.2"/>
<rect x="28.62" y="0" fill="#E6E6E6" width="70.86" height="43.2"/>
<text transform="matrix(1 0 0 1 82.2598 57.7195)" font-family="'ProductusBook'" font-size="7.98">administrates</text>
<rect x="73.5" y="80.4" width="54.3" height="26.58"/>
<rect x="73.5" y="80.16" width="54.54" height="0.48"/>
<rect x="127.56" y="80.4" width="0.48" height="26.819"/>
<rect x="73.26" y="106.74" width="54.54" height="0.479"/>
<rect x="73.26" y="80.16" width="0.48" height="26.82"/>
<rect x="71.1" y="78.66" fill="#FFFFFF" width="54.36" height="26.58"/>
<rect x="71.1" y="78.42" width="54.6" height="0.48"/>
<rect x="125.22" y="78.66" width="0.48" height="26.82"/>
<rect x="70.86" y="105" width="54.6" height="0.48"/>
<rect x="70.86" y="78.42" width="0.48" height="26.82"/>
<text transform="matrix(1 0 0 1 73.5 85.74)" font-family="'ProductusOSGiBookc'" font-size="7.98">&lt;&lt;interface&gt;&gt;</text>
<text transform="matrix(1 0 0 1 73.5 93.2605)" enable-background="new    "><tspan x="0" y="0" font-family="'ProductusSemibold'" font-size="7.98">Monitor</tspan><tspan x="0" y="9.576" font-family="'ProductusSemibold'" font-size="7.98">Admin</tspan></text>
<rect x="144.36" y="151.32" width="54.3" height="26.58"/>
<rect x="144.36" y="151.08" width="54.541" height="0.48"/>
<rect x="198.419" y="151.32" width="0.479" height="26.82"/>
<rect x="144.12" y="177.66" width="54.54" height="0.48"/>
<rect x="144.12" y="151.08" width="0.48" height="26.82"/>
<rect x="142.02" y="149.52" fill="#FFFFFF" width="54.3" height="26.58"/>
<rect x="142.02" y="149.28" width="54.541" height="0.479"/>
<rect x="196.08" y="149.52" width="0.48" height="26.819"/>
<rect x="141.78" y="175.86" width="54.541" height="0.479"/>
<rect x="141.78" y="149.28" width="0.48" height="26.82"/>
<text transform="matrix(1 0 0 1 144.3599 156.6599)" enable-background="new    "><tspan x="0" y="0" font-family="'ProductusOSGiBookc'" font-size="7.98">Monitor Admin</tspan><tspan x="0" y="9.576" font-family="'ProductusOSGiBookc'" font-size="7.98">Impl</tspan></text>
<polyline points="170.34,118.5 167.04,118.5 167.22,117.84 169.86,108.66 170.34,106.98 170.82,108.66 173.46,117.84 173.64,118.5 
	172.98,118.5 172.5,118.14 169.86,108.96 170.82,108.66 170.82,108.96 168.18,118.14 167.22,117.84 167.7,117.48 170.34,117.48 "/>
<rect x="170.34" y="117.48" width="2.64" height="1.02"/>
<polyline points="170.34,118.02 167.7,118.02 170.34,108.84 172.98,118.02 "/>
<rect x="170.1" y="149.52" width="0.48" height="0.239"/>
<rect x="170.1" y="118.32" width="0.48" height="31.2"/>
<rect x="215.221" y="80.4" width="54.358" height="26.58"/>
<rect x="215.221" y="80.16" width="54.6" height="0.48"/>
<rect x="269.34" y="80.4" width="0.479" height="26.819"/>
<rect x="214.98" y="106.74" width="54.6" height="0.479"/>
<rect x="214.98" y="80.16" width="0.479" height="26.82"/>
<rect x="212.88" y="78.66" fill="#FFFFFF" width="54.3" height="26.58"/>
<rect x="212.88" y="78.42" width="54.539" height="0.48"/>
<rect x="266.939" y="78.66" width="0.479" height="26.82"/>
<rect x="212.641" y="105" width="54.539" height="0.48"/>
<rect x="212.641" y="78.42" width="0.479" height="26.82"/>
<text transform="matrix(1 0 0 1 215.2207 85.74)" font-family="'ProductusOSGiBookc'" font-size="7.98">&lt;&lt;interface&gt;&gt;</text>
<text transform="matrix(1 0 0 1 215.2207 94.2605)" font-family="'ProductusSemibold'" font-size="7.98">Monitorable</text>
<rect x="215.221" y="9.54" width="54.358" height="26.58"/>
<rect x="215.221" y="9.3" width="54.6" height="0.48"/>
<rect x="269.34" y="9.54" width="0.479" height="26.82"/>
<rect x="214.98" y="35.88" width="54.6" height="0.48"/>
<rect x="214.98" y="9.3" width="0.479" height="26.82"/>
<rect x="212.88" y="7.8" fill="#FFFFFF" width="54.3" height="26.58"/>
<rect x="212.88" y="7.56" width="54.539" height="0.479"/>
<rect x="266.939" y="7.8" width="0.479" height="26.82"/>
<rect x="212.641" y="34.14" width="54.539" height="0.479"/>
<rect x="212.641" y="7.56" width="0.479" height="26.819"/>
<text transform="matrix(1 0 0 1 215.2207 14.8796)" enable-background="new    "><tspan x="0" y="0" font-family="'ProductusOSGiBookc'" font-size="7.98">Status Variable</tspan><tspan x="0" y="9.576" font-family="'ProductusOSGiBookc'" font-size="7.98">Provider</tspan></text>
<polyline points="241.2,67.14 244.5,67.14 244.32,67.8 241.2,78.719 238.08,67.8 237.9,67.14 238.561,67.14 239.04,67.5 
	241.68,76.74 240.721,77.04 240.721,76.74 243.359,67.5 244.32,67.8 243.84,68.16 241.2,68.16 "/>
<rect x="238.561" y="67.14" width="2.64" height="1.02"/>
<polyline points="241.2,67.62 243.84,67.62 241.2,76.86 238.561,67.62 "/>
<rect x="240.959" y="35.88" width="0.48" height="0.24"/>
<rect x="240.959" y="36.12" width="0.48" height="31.26"/>
<rect x="2.64" y="80.4" width="54.3" height="26.58"/>
<rect x="2.64" y="80.16" width="54.54" height="0.48"/>
<rect x="56.7" y="80.4" width="0.48" height="26.819"/>
<rect x="2.4" y="106.74" width="54.54" height="0.479"/>
<rect x="2.4" y="80.16" width="0.48" height="26.82"/>
<rect x="0.24" y="78.66" fill="#FFFFFF" width="54.36" height="26.58"/>
<rect x="0.24" y="78.42" width="54.6" height="0.48"/>
<rect x="54.36" y="78.66" width="0.48" height="26.82"/>
<rect y="105" width="54.6" height="0.48"/>
<rect y="78.42" width="0.48" height="26.82"/>
<text transform="matrix(1 0 0 1 2.6401 85.74)" font-family="'ProductusOSGiBookc'" font-size="7.98">&lt;&lt;interface&gt;&gt;</text>
<text transform="matrix(1 0 0 1 2.6401 93.2605)" enable-background="new    "><tspan x="0" y="0" font-family="'ProductusSemibold'" font-size="7.98">Monitoring</tspan><tspan x="0" y="9.576" font-family="'ProductusSemibold'" font-size="7.98">Job</tspan></text>
<polyline points="198.66,92.82 184.5,106.98 198.66,106.98 "/>
<polyline points="198.9,92.82 198.9,92.94 198.84,93 184.68,107.16 184.5,107.219 183.9,107.219 198.48,92.64 198.84,93 
	198.419,92.82 "/>
<rect x="184.5" y="106.74" width="14.4" height="0.479"/>
<rect x="198.419" y="92.82" width="0.479" height="14.16"/>
<polyline points="269.58,92.82 255.359,106.98 269.58,106.98 "/>
<polyline points="269.82,92.82 269.82,92.94 269.76,93 255.54,107.16 255.359,107.219 254.76,107.219 255.18,106.8 269.4,92.64 
	269.76,93 269.34,92.82 "/>
<rect x="255.359" y="106.74" width="14.461" height="0.479"/>
<rect x="269.34" y="92.82" width="0.479" height="14.16"/>
<rect x="198.419" y="163.44" width="43.021" height="0.479"/>
<rect x="240.959" y="106.74" width="0.48" height="56.94"/>
<rect x="73.5" y="151.32" width="54.3" height="26.58"/>
<rect x="73.5" y="151.08" width="54.54" height="0.48"/>
<rect x="127.56" y="151.32" width="0.48" height="26.82"/>
<rect x="73.26" y="177.66" width="54.54" height="0.48"/>
<rect x="73.26" y="151.08" width="0.48" height="26.82"/>
<rect x="71.1" y="149.52" fill="#FFFFFF" width="54.36" height="26.58"/>
<rect x="71.1" y="149.28" width="54.6" height="0.479"/>
<rect x="125.22" y="149.52" width="0.48" height="26.819"/>
<rect x="70.86" y="175.86" width="54.6" height="0.479"/>
<rect x="70.86" y="149.28" width="0.48" height="26.82"/>
<text transform="matrix(1 0 0 1 73.5 156.6599)" enable-background="new    "><tspan x="0" y="0" font-family="'ProductusOSGiBookc'" font-size="7.98">Monitoring</tspan><tspan x="0" y="9.576" font-family="'ProductusOSGiBookc'" font-size="7.98">Job Impl</tspan></text>
<rect x="38.04" y="9.54" width="54.36" height="26.58"/>
<rect x="38.04" y="9.3" width="54.6" height="0.48"/>
<rect x="92.16" y="9.54" width="0.48" height="26.82"/>
<rect x="37.8" y="35.88" width="54.6" height="0.48"/>
<rect x="37.8" y="9.3" width="0.48" height="26.82"/>
<rect x="35.7" y="7.8" fill="#FFFFFF" width="54.3" height="26.58"/>
<rect x="35.7" y="7.56" width="54.54" height="0.479"/>
<rect x="89.76" y="7.8" width="0.48" height="26.82"/>
<rect x="35.46" y="34.14" width="54.54" height="0.479"/>
<rect x="35.46" y="7.56" width="0.48" height="26.819"/>
<text transform="matrix(1 0 0 1 38.04 14.8796)" enable-background="new    "><tspan x="0" y="0" font-family="'ProductusOSGiBookc'" font-size="7.98">Local</tspan><tspan x="0" y="9.576" font-family="'ProductusOSGiBookc'" font-size="7.98">Administrator</tspan></text>
<rect x="148.86" y="163.44" width="0.48" height="1.2"/>
<rect x="286.08" y="80.4" width="54.36" height="26.58"/>
<rect x="286.08" y="80.16" width="54.601" height="0.48"/>
<rect x="340.2" y="80.4" width="0.479" height="26.819"/>
<rect x="285.84" y="106.74" width="54.601" height="0.479"/>
<rect x="285.84" y="80.16" width="0.479" height="26.82"/>
<rect x="283.74" y="78.66" fill="#FFFFFF" width="54.3" height="26.58"/>
<rect x="283.74" y="78.42" width="54.54" height="0.48"/>
<rect x="337.8" y="78.66" width="0.479" height="26.82"/>
<rect x="283.5" y="105" width="54.54" height="0.48"/>
<rect x="283.5" y="78.42" width="0.48" height="26.82"/>
<text transform="matrix(1 0 0 1 286.0801 85.74)" font-family="'ProductusOSGiBookc'" font-size="7.98">&lt;&lt;class&gt;&gt;</text>
<text transform="matrix(1 0 0 1 286.0801 93.2605)" enable-background="new    "><tspan x="0" y="0" font-family="'ProductusSemibold'" font-size="7.98">Status</tspan><tspan x="0" y="9.576" font-family="'ProductusSemibold'" font-size="7.98">Variable</tspan></text>
<rect x="269.34" y="92.58" width="14.641" height="0.48"/>
<text transform="matrix(1 0 0 1 271.2598 98.9998)" font-family="'ProductusBook'" font-size="7.98">1</text>
<text transform="matrix(1 0 0 1 273.2598 91.1394)" font-family="'ProductusBook'" font-size="7.98">1..n</text>
<text transform="matrix(1 0 0 1 229.0391 112.7185)" font-family="'ProductusBook'" font-size="7.98">0..n</text>
<text transform="matrix(1 0 0 1 199.8008 161.3386)" font-family="'ProductusBook'" font-size="7.98">1</text>
<rect x="144.36" y="80.4" width="54.3" height="26.58"/>
<rect x="144.36" y="80.16" width="54.541" height="0.48"/>
<rect x="198.419" y="80.4" width="0.479" height="26.819"/>
<rect x="144.12" y="106.74" width="54.54" height="0.479"/>
<rect x="144.12" y="80.16" width="0.48" height="26.82"/>
<rect x="142.02" y="78.66" fill="#FFFFFF" width="54.3" height="26.58"/>
<rect x="142.02" y="78.42" width="54.541" height="0.48"/>
<rect x="196.08" y="78.66" width="0.48" height="26.82"/>
<rect x="141.78" y="105" width="54.541" height="0.48"/>
<rect x="141.78" y="78.42" width="0.48" height="26.82"/>
<text transform="matrix(1 0 0 1 144.3599 85.74)" font-family="'ProductusOSGiBookc'" font-size="7.98">&lt;&lt;interface&gt;&gt;</text>
<text transform="matrix(1 0 0 1 144.3599 93.2605)" enable-background="new    "><tspan x="0" y="0" font-family="'ProductusSemibold'" font-size="7.98">Monitor</tspan><tspan x="0" y="9.576" font-family="'ProductusSemibold'" font-size="7.98">Listener</tspan></text>
<rect x="77.94" y="35.88" width="0.48" height="43.021"/>
<polyline points="28.62,118.5 25.32,118.5 25.5,117.84 28.14,108.66 28.62,106.98 29.1,108.66 31.74,117.84 31.92,118.5 
	31.26,118.5 30.78,118.14 28.14,108.96 29.1,108.66 29.1,108.96 26.46,118.14 25.5,117.84 25.98,117.48 28.62,117.48 "/>
<rect x="28.62" y="117.48" width="2.64" height="1.02"/>
<polyline points="28.62,118.02 25.98,118.02 28.62,108.84 31.26,118.02 "/>
<rect x="28.38" y="163.44" width="42.96" height="0.479"/>
<rect x="28.38" y="118.32" width="0.48" height="45.36"/>
<text transform="matrix(1 0 0 1 246.1797 161.3396)" font-family="'ProductusBook'" font-size="7.98">tracks</text>
<rect x="127.56" y="163.44" width="14.7" height="0.479"/>
<text transform="matrix(1 0 0 1 191.5801 55.0193)" font-family="'ProductusBook'" font-size="7.98">notifies</text>
<text transform="matrix(1 0 0 1 137.2002 168.4197)" font-family="'ProductusBook'" font-size="7.98">1</text>
<text transform="matrix(1 0 0 1 127.8003 160.5593)" font-family="'ProductusBook'" font-size="7.98">0..n</text>
<polyline points="126.9,92.82 113.64,106.98 126.9,106.98 "/>
<polyline points="127.14,92.82 127.14,92.94 127.08,93 113.82,107.16 113.64,107.219 113.1,107.219 113.46,106.86 126.72,92.7 
	127.08,93 126.66,92.82 "/>
<rect x="113.64" y="106.74" width="13.5" height="0.479"/>
<rect x="126.66" y="92.82" width="0.48" height="14.16"/>
<rect x="42.54" y="35.88" width="0.48" height="4.261"/>
<rect x="42.54" y="46.26" width="0.48" height="8.101"/>
<rect x="42.54" y="60.48" width="0.48" height="8.04"/>
<rect x="42.54" y="74.64" width="0.48" height="4.26"/>
<rect x="170.1" y="57.18" width="0.48" height="21.72"/>
<rect x="170.34" y="57.18" width="56.939" height="0.479"/>
<rect x="226.8" y="35.88" width="0.479" height="21.54"/>
<polyline points="99.48,118.5 96.18,118.5 96.36,117.84 99,108.66 99.48,106.98 99.96,108.66 102.6,117.84 102.78,118.5 
	102.12,118.5 101.64,118.14 99,108.96 99.96,108.66 99.96,108.96 97.32,118.14 96.36,117.84 96.84,117.48 99.48,117.48 "/>
<rect x="99.48" y="117.48" width="2.64" height="1.02"/>
<polyline points="99.48,118.02 96.84,118.02 99.48,108.84 102.12,118.02 "/>
<rect x="155.94" y="128.04" width="0.48" height="21.72"/>
<rect x="99.24" y="128.04" width="56.94" height="0.48"/>
<rect x="99.24" y="118.32" width="0.48" height="9.96"/>
<polyline points="198.66,92.82 184.5,106.98 198.66,106.98 "/>
<polyline points="198.9,92.82 198.9,92.94 198.84,93 184.68,107.16 184.5,107.219 183.9,107.219 198.48,92.64 198.84,93 
	198.419,92.82 "/>
<rect x="184.5" y="106.74" width="14.4" height="0.479"/>
<rect x="198.419" y="92.82" width="0.479" height="14.16"/>
<text transform="matrix(1 0 0 1 73.98 76.0798)" font-family="'ProductusBook'" font-size="7.98">1</text>
<text transform="matrix(1 0 0 1 67.6196 42.9597)" font-family="'ProductusBook'" font-size="7.98">1..n</text>
</svg>
