<?xml version="1.0" encoding="utf-8"?>
<!-- Generator: Adobe Illustrator 16.0.1, SVG Export Plug-In . SVG Version: 6.00 Build 0)  -->
<!DOCTYPE svg PUBLIC "-//W3C//DTD SVG 1.1//EN" "http://www.w3.org/Graphics/SVG/1.1/DTD/svg11.dtd">
<svg version="1.1" id="Layer_1" xmlns="http://www.w3.org/2000/svg" xmlns:xlink="http://www.w3.org/1999/xlink" x="0px" y="0px"
	 width="283.98px" height="113.82px" viewBox="0 0 283.98 113.82" enable-background="new 0 0 283.98 113.82" xml:space="preserve">
<rect x="116.04" y="1.98" width="54.301" height="26.58"/>
<rect x="116.04" y="1.74" width="54.54" height="0.479"/>
<rect x="170.1" y="1.98" width="0.479" height="26.819"/>
<rect x="115.8" y="28.32" width="54.54" height="0.479"/>
<rect x="115.8" y="1.74" width="0.479" height="26.819"/>
<rect x="113.64" y="0.24" fill="#FFFFFF" width="54.359" height="26.52"/>
<rect x="113.64" y="0" width="54.6" height="0.48"/>
<rect x="167.76" y="0.24" width="0.479" height="26.76"/>
<rect x="113.4" y="26.52" width="54.601" height="0.479"/>
<rect x="113.4" y="0" width="0.479" height="26.76"/>
<text transform="matrix(1 0 0 1 116.0393 7.3201)" font-family="'ProductusOSGiBookc'" font-size="7.98">&lt;&lt;service&gt;&gt;</text>
<text transform="matrix(1 0 0 1 116.0393 14.8396)" enable-background="new    "><tspan x="0" y="0" font-family="'ProductusSemibold'" font-size="7.98">Monitor</tspan><tspan x="0" y="9.576" font-family="'ProductusSemibold'" font-size="7.98">Admin</tspan></text>
<polyline points="170.34,14.4 156.18,28.56 170.34,28.56 "/>
<polyline points="170.58,14.4 170.58,14.52 156.36,28.74 156.18,28.8 155.58,28.8 170.16,14.219 170.52,14.58 170.1,14.4 "/>
<rect x="156.18" y="28.32" width="14.398" height="0.479"/>
<rect x="170.1" y="14.4" width="0.479" height="14.16"/>
<rect x="2.64" y="1.98" width="54.3" height="26.58"/>
<rect x="2.64" y="1.74" width="54.54" height="0.479"/>
<rect x="56.7" y="1.98" width="0.48" height="26.819"/>
<rect x="2.4" y="28.32" width="54.54" height="0.479"/>
<rect x="2.4" y="1.74" width="0.479" height="26.819"/>
<rect x="0.24" y="0.24" fill="#FFFFFF" width="54.36" height="26.52"/>
<rect x="0.24" y="0" width="54.6" height="0.48"/>
<rect x="54.36" y="0.24" width="0.479" height="26.76"/>
<rect x="0" y="26.52" width="54.601" height="0.479"/>
<rect x="0" y="0" width="0.48" height="26.76"/>
<text transform="matrix(1 0 0 1 2.6399 7.3201)" enable-background="new    "><tspan x="0" y="0" font-family="'ProductusOSGiBookc'" font-size="7.98">Local</tspan><tspan x="0" y="9.576" font-family="'ProductusOSGiBookc'" font-size="7.98">Administrator</tspan></text>
<rect x="229.38" y="1.98" width="54.359" height="26.58"/>
<rect x="229.38" y="1.74" width="54.601" height="0.479"/>
<rect x="283.5" y="1.98" width="0.479" height="26.819"/>
<rect x="229.14" y="28.32" width="54.6" height="0.479"/>
<rect x="229.14" y="1.74" width="0.479" height="26.819"/>
<rect x="227.04" y="0.24" fill="#FFFFFF" width="54.36" height="26.52"/>
<rect x="227.04" y="0" width="54.602" height="0.48"/>
<rect x="281.16" y="0.24" width="0.48" height="26.76"/>
<rect x="226.8" y="26.52" width="54.601" height="0.479"/>
<rect x="226.8" y="0" width="0.479" height="26.76"/>
<text transform="matrix(1 0 0 1 229.3806 7.3201)" font-family="'ProductusOSGiBookc'" font-size="7.98">&lt;&lt;service&gt;&gt;</text>
<text transform="matrix(1 0 0 1 229.3806 15.8396)" font-family="'ProductusSemibold'" font-size="7.98">Monitorable</text>
<polyline points="282.84,14.4 269.58,28.56 282.84,28.56 "/>
<polyline points="283.08,14.4 283.08,14.52 283.02,14.58 269.76,28.74 269.58,28.8 269.04,28.8 269.4,28.44 282.66,14.28 
	283.02,14.58 282.6,14.4 "/>
<rect x="269.58" y="28.32" width="13.5" height="0.479"/>
<rect x="282.6" y="14.4" width="0.479" height="14.16"/>
<rect x="28.38" y="28.32" width="0.48" height="0.239"/>
<rect x="28.38" y="28.56" width="0.48" height="85.261"/>
<rect x="141.78" y="28.32" width="0.479" height="0.239"/>
<rect x="141.78" y="28.56" width="0.479" height="85.261"/>
<rect x="255.18" y="28.32" width="0.479" height="0.239"/>
<rect x="255.18" y="28.56" width="0.479" height="85.261"/>
<rect x="136.8" y="42.48" width="4.681" height="0.479"/>
<polyline points="137.16,39.96 136.92,40.38 141.36,42.96 141.6,42.96 142.02,42.719 141.6,42.54 "/>
<polyline points="141.6,42.96 141.36,42.54 136.92,45.12 137.16,45.54 "/>
<rect x="28.38" y="42.48" width="0.24" height="0.479"/>
<rect x="28.62" y="42.48" width="108.419" height="0.479"/>
<text transform="matrix(1 0 0 1 67.4397 40.3796)" font-family="'ProductusBook'" font-size="7.98">getStatusVariable(path)</text>
<rect x="250.2" y="92.1" width="4.681" height="0.479"/>
<polyline points="250.56,89.58 250.32,90 254.76,92.58 255,92.58 255.42,92.34 255,92.16 "/>
<polyline points="255,92.58 254.76,92.16 250.32,94.74 250.56,95.16 "/>
<rect x="148.86" y="92.1" width="0.24" height="0.479"/>
<rect x="149.1" y="92.1" width="101.34" height="0.479"/>
<text transform="matrix(1 0 0 1 181.3806 89.9998)" font-family="'ProductusBook'" font-size="7.98">getStatusVariable(name)</text>
<rect x="142.02" y="35.64" fill="#FFFFFF" width="7.08" height="63.779"/>
<rect x="142.02" y="35.4" width="7.319" height="0.479"/>
<rect x="148.86" y="35.64" width="0.479" height="64.021"/>
<rect x="141.78" y="99.18" width="7.32" height="0.479"/>
<rect x="141.78" y="35.4" width="0.479" height="64.02"/>
<rect x="149.58" y="70.86" width="4.682" height="0.479"/>
<polyline points="153.9,73.8 154.14,73.38 149.7,70.86 149.46,70.86 149.04,71.1 149.46,71.28 "/>
<polyline points="149.46,70.86 149.7,71.28 154.14,68.7 153.9,68.28 "/>
<rect x="148.86" y="49.56" width="21.72" height="0.479"/>
<rect x="170.1" y="49.8" width="0.479" height="21.54"/>
<rect x="154.02" y="70.86" width="16.319" height="0.479"/>
<text transform="matrix(1 0 0 1 181.3806 54.5398)" enable-background="new    "><tspan x="0" y="0" font-family="'ProductusBook'" font-size="7.98">use path to find</tspan><tspan x="0" y="9.576" font-family="'ProductusBook'" font-size="7.98">appropriate</tspan><tspan x="0" y="19.152" font-family="'ProductusBook'" font-size="7.98">Monitorable service</tspan></text>
</svg>
