<?xml version="1.0" encoding="utf-8"?>
<!-- Generator: Adobe Illustrator 16.0.0, SVG Export Plug-In . SVG Version: 6.00 Build 0)  -->
<!DOCTYPE svg PUBLIC "-//W3C//DTD SVG 1.1//EN" "http://www.w3.org/Graphics/SVG/1.1/DTD/svg11.dtd">
<svg version="1.1" id="Layer_1" xmlns="http://www.w3.org/2000/svg" xmlns:xlink="http://www.w3.org/1999/xlink" x="0px" y="0px"
	 width="333.6px" height="206.808px" viewBox="0 0 333.6 206.808" style="enable-background:new 0 0 333.6 206.808;"
	 xml:space="preserve">
<rect x="94.74" y="15.228" width="54.36" height="26.58"/>
<rect x="94.74" y="14.987" width="54.6" height="0.48"/>
<rect x="148.86" y="15.228" width="0.48" height="26.819"/>
<rect x="94.5" y="41.567" width="54.6" height="0.479"/>
<rect x="94.5" y="14.987" width="0.48" height="26.82"/>
<rect x="92.4" y="13.487" style="fill:#FFFFFF;" width="54.3" height="26.52"/>
<rect x="92.4" y="13.247" width="54.54" height="0.48"/>
<rect x="146.46" y="13.487" width="0.48" height="26.76"/>
<rect x="92.16" y="39.768" width="54.54" height="0.479"/>
<rect x="92.16" y="13.247" width="0.48" height="26.76"/>
<text transform="matrix(1 0 0 1 94.7402 20.5674)"><tspan x="0" y="0" style="font-family:'ProductusOSGiBookc'; font-size:7.98;">&lt;&lt;serv</tspan><tspan x="17.548" y="0" style="font-family:'ProductusOSGiBookc'; font-size:7.98;">i</tspan><tspan x="19.056" y="0" style="font-family:'ProductusOSGiBookc'; font-size:7.98;">c</tspan><tspan x="22.176" y="0" style="font-family:'ProductusOSGiBookc'; font-size:7.98;">e</tspan><tspan x="25.599" y="0" style="font-family:'ProductusOSGiBookc'; font-size:7.98;">&gt;</tspan><tspan x="28.536" y="0" style="font-family:'ProductusOSGiBookc'; font-size:7.98;">&gt;</tspan></text>
<text transform="matrix(1 0 0 1 94.7402 29.0879)"><tspan x="0" y="0" style="font-family:'ProductusSemibold'; font-size:7.98;">Mon</tspan><tspan x="15.329" y="0" style="font-family:'ProductusSemibold'; font-size:7.98;">i</tspan><tspan x="17.484" y="0" style="font-family:'ProductusSemibold'; font-size:7.98;">tor</tspan><tspan x="27.961" y="0" style="font-family:'ProductusSemibold'; font-size:7.98;"> </tspan></text>
<text transform="matrix(1 0 0 1 94.7402 37.5479)"><tspan x="0" y="0" style="font-family:'ProductusSemibold'; font-size:7.98;">A</tspan><tspan x="4.852" y="0" style="font-family:'ProductusSemibold'; font-size:7.98;">d</tspan><tspan x="9.225" y="0" style="font-family:'ProductusSemibold'; font-size:7.98;">m</tspan><tspan x="15.577" y="0" style="font-family:'ProductusSemibold'; font-size:7.98;">i</tspan><tspan x="17.731" y="0" style="font-family:'ProductusSemibold'; font-size:7.98;">n</tspan></text>
<polyline style="fill-rule:evenodd;clip-rule:evenodd;" points="149.1,27.647 134.94,41.808 149.1,41.808 "/>
<polyline points="149.34,27.647 149.34,27.768 135.12,41.987 134.94,42.047 134.34,42.047 148.92,27.468 149.28,27.827 
	148.86,27.647 "/>
<rect x="134.94" y="41.567" width="14.4" height="0.479"/>
<rect x="148.86" y="27.647" width="0.48" height="14.16"/>
<rect x="2.64" y="15.228" width="54.3" height="26.58"/>
<rect x="2.64" y="14.987" width="54.54" height="0.48"/>
<rect x="56.7" y="15.228" width="0.48" height="26.819"/>
<rect x="2.4" y="41.567" width="54.54" height="0.479"/>
<rect x="2.4" y="14.987" width="0.48" height="26.82"/>
<rect x="0.24" y="13.487" style="fill:#FFFFFF;" width="54.36" height="26.52"/>
<rect x="0.24" y="13.247" width="54.6" height="0.48"/>
<rect x="54.36" y="13.487" width="0.48" height="26.76"/>
<rect y="39.768" width="54.6" height="0.479"/>
<rect y="13.247" width="0.48" height="26.76"/>
<text transform="matrix(1 0 0 1.0522 2.6401 20.5674)"><tspan x="0" y="0" style="font-family:'ProductusOSGiBookc'; font-size:7.5841;">&lt;</tspan><tspan x="2.776" y="0" style="font-family:'ProductusOSGiBookc'; font-size:7.5841;">&lt;</tspan><tspan x="5.589" y="0" style="font-family:'ProductusOSGiBookc'; font-size:7.5841;">servi</tspan><tspan x="18.072" y="0" style="font-family:'ProductusOSGiBookc'; font-size:7.5841;">c</tspan><tspan x="21.007" y="0" style="font-family:'ProductusOSGiBookc'; font-size:7.5841;">e&gt;</tspan><tspan x="27.075" y="0" style="font-family:'ProductusOSGiBookc'; font-size:7.5841;">&gt;</tspan></text>
<text transform="matrix(1 0 0 1 2.6401 29.0869)"><tspan x="0" y="0" style="font-family:'ProductusSemibold'; font-size:7.98;">Mo</tspan><tspan x="11.044" y="0" style="font-family:'ProductusSemibold'; font-size:7.98;">ni</tspan><tspan x="17.452" y="0" style="font-family:'ProductusSemibold'; font-size:7.98;">tor</tspan><tspan x="27.929" y="0" style="font-family:'ProductusSemibold'; font-size:7.98;">a</tspan><tspan x="31.823" y="0" style="font-family:'ProductusSemibold'; font-size:7.98;">bl</tspan><tspan x="38.327" y="0" style="font-family:'ProductusSemibold'; font-size:7.98;">e</tspan></text>
<polyline style="fill-rule:evenodd;clip-rule:evenodd;" points="56.04,27.647 42.78,41.808 56.04,41.808 "/>
<polyline points="56.28,27.647 56.28,27.768 56.22,27.827 42.96,41.987 42.78,42.047 42.24,42.047 42.6,41.688 55.86,27.527 
	56.22,27.827 55.8,27.647 "/>
<rect x="42.78" y="41.567" width="13.5" height="0.479"/>
<rect x="55.8" y="27.647" width="0.48" height="14.16"/>
<rect x="28.38" y="41.567" width="0.48" height="0.24"/>
<rect x="28.38" y="41.808" width="0.48" height="163.26"/>
<rect x="120.48" y="41.567" width="0.48" height="0.24"/>
<rect x="120.48" y="41.808" width="0.48" height="163.26"/>
<rect x="304.74" y="41.567" width="0.479" height="0.24"/>
<rect x="304.74" y="41.808" width="0.479" height="163.26"/>
<rect x="207.66" y="98.268" width="4.74" height="0.479"/>
<polyline points="208.08,95.747 207.84,96.167 212.28,98.747 212.521,98.747 212.94,98.507 212.521,98.327 "/>
<polyline points="212.521,98.747 212.28,98.327 207.84,100.907 208.08,101.327 "/>
<rect x="120.48" y="98.268" width="0.24" height="0.479"/>
<rect x="120.72" y="98.268" width="87.18" height="0.479"/>
<text transform="matrix(1 0 0 1 145.9199 95.5068)"><tspan x="0" y="0" style="font-family:'ProductusBook'; font-size:7.98;">s</tspan><tspan x="2.873" y="0" style="font-family:'ProductusBook'; font-size:7.98;">en</tspan><tspan x="10.023" y="0" style="font-family:'ProductusBook'; font-size:7.98;">d</tspan><tspan x="13.741" y="0" style="font-family:'ProductusBook'; font-size:7.98;">E</tspan><tspan x="16.981" y="0" style="font-family:'ProductusBook'; font-size:7.98;">v</tspan><tspan x="20.102" y="0" style="font-family:'ProductusBook'; font-size:7.98;">e</tspan><tspan x="23.589" y="0" style="font-family:'ProductusBook'; font-size:7.98;">n</tspan><tspan x="27.308" y="0" style="font-family:'ProductusBook'; font-size:7.98;">t</tspan></text>
<rect x="186.9" y="15.228" width="54.3" height="26.58"/>
<rect x="186.9" y="14.987" width="54.54" height="0.48"/>
<rect x="240.96" y="15.228" width="0.48" height="26.819"/>
<rect x="186.66" y="41.567" width="54.54" height="0.479"/>
<rect x="186.66" y="14.987" width="0.479" height="26.82"/>
<rect x="184.5" y="13.487" style="fill:#FFFFFF;" width="54.36" height="26.52"/>
<rect x="184.5" y="13.247" width="54.6" height="0.48"/>
<rect x="238.62" y="13.487" width="0.479" height="26.76"/>
<rect x="184.26" y="39.768" width="54.601" height="0.479"/>
<rect x="184.26" y="13.247" width="0.48" height="26.76"/>
<text transform="matrix(1 0 0 1 186.9004 20.5674)"><tspan x="0" y="0" style="font-family:'ProductusOSGiBookc'; font-size:7.98;">&lt;&lt;</tspan><tspan x="5.873" y="0" style="font-family:'ProductusOSGiBookc'; font-size:7.98;">s</tspan><tspan x="8.634" y="0" style="font-family:'ProductusOSGiBookc'; font-size:7.98;">ervice&gt;</tspan><tspan x="28.527" y="0" style="font-family:'ProductusOSGiBookc'; font-size:7.98;">&gt;</tspan></text>
<text transform="matrix(1 0 0 1 186.9004 29.0879)"><tspan x="0" y="0" style="font-family:'ProductusSemibold'; font-size:7.98;">E</tspan><tspan x="3.838" y="0" style="font-family:'ProductusSemibold'; font-size:7.98;">v</tspan><tspan x="7.732" y="0" style="font-family:'ProductusSemibold'; font-size:7.98;">ent</tspan><tspan x="19.224" y="0" style="font-family:'ProductusSemibold'; font-size:7.98;"> </tspan><tspan x="21.258" y="0" style="font-family:'ProductusSemibold'; font-size:7.98;">A</tspan><tspan x="26.11" y="0" style="font-family:'ProductusSemibold'; font-size:7.98;">dmi</tspan><tspan x="38.941" y="0" style="font-family:'ProductusSemibold'; font-size:7.98;">n</tspan></text>
<polyline style="fill-rule:evenodd;clip-rule:evenodd;" points="240.3,27.647 227.04,41.808 240.3,41.808 "/>
<polyline points="240.54,27.647 240.54,27.768 240.48,27.827 227.22,41.987 227.04,42.047 226.5,42.047 226.86,41.688 
	240.12,27.527 240.48,27.827 240.06,27.647 "/>
<rect x="227.04" y="41.567" width="13.5" height="0.479"/>
<rect x="240.06" y="27.647" width="0.48" height="14.16"/>
<rect x="212.64" y="41.567" width="0.48" height="0.24"/>
<rect x="212.64" y="41.808" width="0.48" height="163.26"/>
<rect x="279" y="15.228" width="54.36" height="26.58"/>
<rect x="279" y="14.987" width="54.6" height="0.48"/>
<rect x="333.12" y="15.228" width="0.479" height="26.819"/>
<rect x="278.76" y="41.567" width="54.601" height="0.479"/>
<rect x="278.76" y="14.987" width="0.48" height="26.82"/>
<rect x="276.66" y="13.487" style="fill:#FFFFFF;" width="54.3" height="26.52"/>
<rect x="276.66" y="13.247" width="54.54" height="0.48"/>
<rect x="330.72" y="13.487" width="0.48" height="26.76"/>
<rect x="276.42" y="39.768" width="54.54" height="0.479"/>
<rect x="276.42" y="13.247" width="0.48" height="26.76"/>
<text transform="matrix(1 0 0 1 279 20.5674)"><tspan x="0" y="0" style="font-family:'ProductusOSGiBookc'; font-size:7.98;">&lt;&lt;serv</tspan><tspan x="17.548" y="0" style="font-family:'ProductusOSGiBookc'; font-size:7.98;">i</tspan><tspan x="19.056" y="0" style="font-family:'ProductusOSGiBookc'; font-size:7.98;">c</tspan><tspan x="22.176" y="0" style="font-family:'ProductusOSGiBookc'; font-size:7.98;">e</tspan><tspan x="25.6" y="0" style="font-family:'ProductusOSGiBookc'; font-size:7.98;">&gt;</tspan><tspan x="28.536" y="0" style="font-family:'ProductusOSGiBookc'; font-size:7.98;">&gt;</tspan></text>
<text transform="matrix(1 0 0 1 279 29.0879)"><tspan x="0" y="0" style="font-family:'ProductusSemibold'; font-size:7.98;">Eve</tspan><tspan x="11.866" y="0" style="font-family:'ProductusSemibold'; font-size:7.98;">n</tspan><tspan x="16.184" y="0" style="font-family:'ProductusSemibold'; font-size:7.98;">t</tspan></text>
<text transform="matrix(1 0 0 1 279 37.5479)"><tspan x="0" y="0" style="font-family:'ProductusSemibold'; font-size:7.98;">H</tspan><tspan x="5.458" y="0" style="font-family:'ProductusSemibold'; font-size:7.98;">a</tspan><tspan x="9.416" y="0" style="font-family:'ProductusSemibold'; font-size:7.98;">n</tspan><tspan x="13.67" y="0" style="font-family:'ProductusSemibold'; font-size:7.98;">d</tspan><tspan x="17.986" y="0" style="font-family:'ProductusSemibold'; font-size:7.98;">l</tspan><tspan x="20.141" y="0" style="font-family:'ProductusSemibold'; font-size:7.98;">e</tspan><tspan x="24.274" y="0" style="font-family:'ProductusSemibold'; font-size:7.98;">r</tspan></text>
<polyline style="fill-rule:evenodd;clip-rule:evenodd;" points="333.36,27.647 319.2,41.808 333.36,41.808 "/>
<polyline points="333.6,27.647 333.6,27.768 319.38,41.987 319.2,42.047 318.6,42.047 333.18,27.468 333.54,27.827 333.12,27.647 
	"/>
<rect x="319.2" y="41.567" width="14.399" height="0.479"/>
<rect x="333.12" y="27.647" width="0.479" height="14.16"/>
<text transform="matrix(1 0 0 1 286.2002 6.6475)"><tspan x="0" y="0" style="font-family:'ProductusBook'; font-size:7.98;">local</tspan><tspan x="13.311" y="0" style="font-family:'ProductusBook'; font-size:7.98;"> </tspan><tspan x="14.931" y="0" style="font-family:'ProductusBook'; font-size:7.98;">admin</tspan></text>
<text transform="matrix(1 0 0 1 9.8398 6.6475)"><tspan x="0" y="0" style="font-family:'ProductusBook'; font-size:7.98;">Stat</tspan><tspan x="11.77" y="0" style="font-family:'ProductusBook'; font-size:7.98;">u</tspan><tspan x="15.489" y="0" style="font-family:'ProductusBook'; font-size:7.98;">s</tspan><tspan x="18.306" y="0" style="font-family:'ProductusBook'; font-size:7.98;"> </tspan><tspan x="19.87" y="0" style="font-family:'ProductusBook'; font-size:7.98;">V</tspan><tspan x="23.533" y="0" style="font-family:'ProductusBook'; font-size:7.98;">a</tspan><tspan x="26.836" y="0" style="font-family:'ProductusBook'; font-size:7.98;">ri</tspan><tspan x="30.667" y="0" style="font-family:'ProductusBook'; font-size:7.98;">a</tspan><tspan x="34.026" y="0" style="font-family:'ProductusBook'; font-size:7.98;">b</tspan><tspan x="37.689" y="0" style="font-family:'ProductusBook'; font-size:7.98;">l</tspan><tspan x="39.253" y="0" style="font-family:'ProductusBook'; font-size:7.98;">e</tspan><tspan x="42.788" y="0" style="font-family:'ProductusBook'; font-size:7.98;"> </tspan><tspan x="44.4" y="0" style="font-family:'ProductusBook'; font-size:7.98;">Pr</tspan><tspan x="49.97" y="0" style="font-family:'ProductusBook'; font-size:7.98;">o</tspan><tspan x="53.632" y="0" style="font-family:'ProductusBook'; font-size:7.98;">v</tspan><tspan x="56.873" y="0" style="font-family:'ProductusBook'; font-size:7.98;">id</tspan><tspan x="62.131" y="0" style="font-family:'ProductusBook'; font-size:7.98;">e</tspan><tspan x="65.667" y="0" style="font-family:'ProductusBook'; font-size:7.98;">r</tspan></text>
<rect x="299.82" y="105.348" width="4.68" height="0.479"/>
<polyline points="300.18,102.827 299.94,103.247 304.38,105.827 304.62,105.827 305.04,105.587 304.62,105.407 "/>
<polyline points="304.62,105.827 304.38,105.407 299.94,107.987 300.18,108.407 "/>
<rect x="226.8" y="105.348" width="0.24" height="0.479"/>
<rect x="227.04" y="105.348" width="73.02" height="0.479"/>
<rect x="226.8" y="98.268" width="0.48" height="0.239"/>
<rect x="226.8" y="98.507" width="0.48" height="14.4"/>
<text transform="matrix(1 0 0 1 233.8799 103.2471)"><tspan x="0" y="0" style="font-family:'ProductusBook'; font-size:7.98;">c</tspan><tspan x="3.072" y="0" style="font-family:'ProductusBook'; font-size:7.98;">h</tspan><tspan x="6.791" y="0" style="font-family:'ProductusBook'; font-size:7.98;">an</tspan><tspan x="13.749" y="0" style="font-family:'ProductusBook'; font-size:7.98;">n</tspan><tspan x="17.468" y="0" style="font-family:'ProductusBook'; font-size:7.98;">el</tspan><tspan x="22.503" y="0" style="font-family:'ProductusBook'; font-size:7.98;">E</tspan><tspan x="25.807" y="0" style="font-family:'ProductusBook'; font-size:7.98;">v</tspan><tspan x="28.871" y="0" style="font-family:'ProductusBook'; font-size:7.98;">e</tspan><tspan x="32.406" y="0" style="font-family:'ProductusBook'; font-size:7.98;">n</tspan><tspan x="36.069" y="0" style="font-family:'ProductusBook'; font-size:7.98;">t</tspan><tspan x="38.463" y="0" style="font-family:'ProductusBook'; font-size:7.98;">(</tspan><tspan x="40.569" y="0" style="font-family:'ProductusBook'; font-size:7.98;">e</tspan><tspan x="44.057" y="0" style="font-family:'ProductusBook'; font-size:7.98;">v</tspan><tspan x="47.177" y="0" style="font-family:'ProductusBook'; font-size:7.98;">e</tspan><tspan x="50.712" y="0" style="font-family:'ProductusBook'; font-size:7.98;">nt</tspan><tspan x="56.737" y="0" style="font-family:'ProductusBook'; font-size:7.98;">)</tspan></text>
<text transform="matrix(1 0 0 1 219.6592 89.5674)"><tspan x="0" y="0" style="font-family:'ProductusBook'; font-size:7.98;">a</tspan><tspan x="3.359" y="0" style="font-family:'ProductusBook'; font-size:7.98;">s</tspan><tspan x="6.177" y="0" style="font-family:'ProductusBook'; font-size:7.98;">y</tspan><tspan x="9.36" y="0" style="font-family:'ProductusBook'; font-size:7.98;">n</tspan><tspan x="13.079" y="0" style="font-family:'ProductusBook'; font-size:7.98;">c</tspan></text>
<rect x="115.56" y="77.027" width="4.68" height="0.479"/>
<polyline points="115.92,74.507 115.68,74.928 120.12,77.507 120.36,77.507 120.66,77.327 120.36,77.087 "/>
<polyline points="120.36,77.507 120.12,77.087 115.68,79.607 115.92,80.027 "/>
<rect x="78" y="77.027" width="0.24" height="0.479"/>
<rect x="78.24" y="77.027" width="3.96" height="0.479"/>
<rect x="87.36" y="77.027" width="0.24" height="0.479"/>
<rect x="87.6" y="77.027" width="6.72" height="0.479"/>
<rect x="99.48" y="77.027" width="0.24" height="0.479"/>
<rect x="99.72" y="77.027" width="6.72" height="0.479"/>
<rect x="111.54" y="77.027" width="0.24" height="0.479"/>
<rect x="111.78" y="77.027" width="4.02" height="0.479"/>
<text transform="matrix(1 0 0 1 78.2402 76.0674)"><tspan x="0" y="0" style="font-family:'ProductusBook'; font-size:7.98;">t</tspan><tspan x="2.346" y="0" style="font-family:'ProductusBook'; font-size:7.98;">i</tspan><tspan x="3.958" y="0" style="font-family:'ProductusBook'; font-size:7.98;">me</tspan></text>
<rect x="121.26" y="55.728" width="4.68" height="0.479"/>
<polyline points="125.58,58.728 125.82,58.308 121.38,55.728 121.14,55.728 120.72,55.968 121.14,56.147 "/>
<polyline points="121.14,55.728 121.38,56.147 125.82,53.567 125.58,53.147 "/>
<rect x="304.98" y="55.728" width="0.239" height="0.479"/>
<rect x="125.7" y="55.728" width="179.28" height="0.479"/>
<rect x="5.88" y="61.547" style="fill:#FFFFFF;" width="1.5" height="3"/>
<rect x="7.38" y="61.547" style="fill:#FFFFFF;" width="320.4" height="3"/>
<text transform="matrix(1 0 0 1 233.8799 103.2471)"><tspan x="0" y="0" style="font-family:'ProductusBook'; font-size:7.98;">c</tspan><tspan x="3.072" y="0" style="font-family:'ProductusBook'; font-size:7.98;">h</tspan><tspan x="6.791" y="0" style="font-family:'ProductusBook'; font-size:7.98;">an</tspan><tspan x="13.749" y="0" style="font-family:'ProductusBook'; font-size:7.98;">n</tspan><tspan x="17.468" y="0" style="font-family:'ProductusBook'; font-size:7.98;">el</tspan><tspan x="22.503" y="0" style="font-family:'ProductusBook'; font-size:7.98;">E</tspan><tspan x="25.807" y="0" style="font-family:'ProductusBook'; font-size:7.98;">v</tspan><tspan x="28.871" y="0" style="font-family:'ProductusBook'; font-size:7.98;">e</tspan><tspan x="32.406" y="0" style="font-family:'ProductusBook'; font-size:7.98;">n</tspan><tspan x="36.069" y="0" style="font-family:'ProductusBook'; font-size:7.98;">t</tspan><tspan x="38.463" y="0" style="font-family:'ProductusBook'; font-size:7.98;">(</tspan><tspan x="40.569" y="0" style="font-family:'ProductusBook'; font-size:7.98;">e</tspan><tspan x="44.057" y="0" style="font-family:'ProductusBook'; font-size:7.98;">v</tspan><tspan x="47.177" y="0" style="font-family:'ProductusBook'; font-size:7.98;">e</tspan><tspan x="50.712" y="0" style="font-family:'ProductusBook'; font-size:7.98;">nt</tspan><tspan x="56.737" y="0" style="font-family:'ProductusBook'; font-size:7.98;">)</tspan></text>
<text transform="matrix(1 0 0 1 231.7793 53.6279)"><tspan x="0" y="0" style="font-family:'ProductusBook'; font-size:7.98;">s</tspan><tspan x="2.809" y="0" style="font-family:'ProductusBook'; font-size:7.98;">t</tspan><tspan x="5.203" y="0" style="font-family:'ProductusBook'; font-size:7.98;">ar</tspan><tspan x="10.765" y="0" style="font-family:'ProductusBook'; font-size:7.98;">tS</tspan><tspan x="16.877" y="0" style="font-family:'ProductusBook'; font-size:7.98;">c</tspan><tspan x="19.957" y="0" style="font-family:'ProductusBook'; font-size:7.98;">h</tspan><tspan x="23.676" y="0" style="font-family:'ProductusBook'; font-size:7.98;">e</tspan><tspan x="27.171" y="0" style="font-family:'ProductusBook'; font-size:7.98;">d</tspan><tspan x="30.89" y="0" style="font-family:'ProductusBook'; font-size:7.98;">u</tspan><tspan x="34.561" y="0" style="font-family:'ProductusBook'; font-size:7.98;">l</tspan><tspan x="36.173" y="0" style="font-family:'ProductusBook'; font-size:7.98;">e</tspan><tspan x="39.668" y="0" style="font-family:'ProductusBook'; font-size:7.98;">d</tspan><tspan x="43.387" y="0" style="font-family:'ProductusBook'; font-size:7.98;">Jo</tspan><tspan x="48.741" y="0" style="font-family:'ProductusBook'; font-size:7.98;">b</tspan><tspan x="52.46" y="0" style="font-family:'ProductusBook'; font-size:7.98;">(</tspan><tspan x="54.798" y="0" style="font-family:'ProductusBook'; font-size:7.98;">.</tspan><tspan x="56.418" y="0" style="font-family:'ProductusBook'; font-size:7.98;">.</tspan><tspan x="58.029" y="0" style="font-family:'ProductusBook'; font-size:7.98;">.</tspan><tspan x="59.594" y="0" style="font-family:'ProductusBook'; font-size:7.98;">)</tspan></text>
<rect x="29.1" y="91.188" width="4.74" height="0.479"/>
<polyline points="33.42,94.188 33.66,93.768 29.22,91.188 28.98,91.188 28.56,91.428 28.98,91.607 "/>
<polyline points="28.98,91.188 29.22,91.607 33.66,89.027 33.42,88.607 "/>
<rect x="120.72" y="91.188" width="0.24" height="0.479"/>
<rect x="33.6" y="91.188" width="87.12" height="0.479"/>
<text transform="matrix(1 0 0 1 46.4399 88.6074)"><tspan x="0" y="0" style="font-family:'ProductusBook'; font-size:7.98;">g</tspan><tspan x="3.304" y="0" style="font-family:'ProductusBook'; font-size:7.98;">e</tspan><tspan x="6.839" y="0" style="font-family:'ProductusBook'; font-size:7.98;">t</tspan><tspan x="9.185" y="0" style="font-family:'ProductusBook'; font-size:7.98;">S</tspan><tspan x="12.903" y="0" style="font-family:'ProductusBook'; font-size:7.98;">tat</tspan><tspan x="20.995" y="0" style="font-family:'ProductusBook'; font-size:7.98;">u</tspan><tspan x="24.658" y="0" style="font-family:'ProductusBook'; font-size:7.98;">s</tspan><tspan x="27.482" y="0" style="font-family:'ProductusBook'; font-size:7.98;">V</tspan><tspan x="31.146" y="0" style="font-family:'ProductusBook'; font-size:7.98;">aria</tspan><tspan x="41.631" y="0" style="font-family:'ProductusBook'; font-size:7.98;">b</tspan><tspan x="45.293" y="0" style="font-family:'ProductusBook'; font-size:7.98;">l</tspan><tspan x="46.914" y="0" style="font-family:'ProductusBook'; font-size:7.98;">e</tspan><tspan x="50.401" y="0" style="font-family:'ProductusBook'; font-size:7.98;">()</tspan></text>
<rect x="118.74" y="82.367" width="4.02" height="1.98"/>
<rect x="118.74" y="84.348" width="4.02" height="23.22"/>
<rect x="303" y="96.527" width="4.021" height="1.979"/>
<rect x="303" y="98.507" width="4.021" height="23.221"/>
<rect x="115.56" y="162.047" width="4.68" height="0.48"/>
<polyline points="115.92,159.527 115.68,159.947 120.12,162.527 120.36,162.527 120.78,162.287 120.36,162.107 "/>
<polyline points="120.36,162.527 120.12,162.107 115.68,164.688 115.92,165.107 "/>
<rect x="28.38" y="162.047" width="0.24" height="0.48"/>
<rect x="28.62" y="162.047" width="87.18" height="0.48"/>
<text transform="matrix(1 0 0 1 58.6802 160.0068)"><tspan x="0" y="0" style="font-family:'ProductusBook'; font-size:7.98;">u</tspan><tspan x="3.663" y="0" style="font-family:'ProductusBook'; font-size:7.98;">pdat</tspan><tspan x="16.774" y="0" style="font-family:'ProductusBook'; font-size:7.98;">e</tspan><tspan x="20.261" y="0" style="font-family:'ProductusBook'; font-size:7.98;">(</tspan><tspan x="22.607" y="0" style="font-family:'ProductusBook'; font-size:7.98;">)</tspan></text>
<rect x="207.66" y="169.127" width="4.74" height="0.48"/>
<polyline points="208.08,166.607 207.84,167.027 212.28,169.607 212.521,169.607 212.94,169.367 212.521,169.188 "/>
<polyline points="212.521,169.607 212.28,169.188 207.84,171.768 208.08,172.188 "/>
<rect x="120.48" y="169.127" width="0.24" height="0.48"/>
<rect x="120.72" y="169.127" width="87.18" height="0.48"/>
<text transform="matrix(1 0 0 1 145.0801 164.9268)"><tspan x="0" y="0" style="font-family:'ProductusBook'; font-size:7.98;">send</tspan><tspan x="13.726" y="0" style="font-family:'ProductusBook'; font-size:7.98;">E</tspan><tspan x="16.965" y="0" style="font-family:'ProductusBook'; font-size:7.98;">v</tspan><tspan x="20.086" y="0" style="font-family:'ProductusBook'; font-size:7.98;">en</tspan><tspan x="27.283" y="0" style="font-family:'ProductusBook'; font-size:7.98;">t</tspan><tspan x="29.629" y="0" style="font-family:'ProductusBook'; font-size:7.98;">()</tspan></text>
<rect x="299.82" y="190.367" width="4.68" height="0.48"/>
<polyline points="300.18,187.907 299.94,188.327 304.38,190.848 304.62,190.848 305.04,190.607 304.62,190.428 "/>
<polyline points="304.62,190.848 304.38,190.428 299.94,193.007 300.18,193.428 "/>
<rect x="226.8" y="190.367" width="0.24" height="0.48"/>
<rect x="227.04" y="190.367" width="73.02" height="0.48"/>
<rect x="226.8" y="183.287" width="0.48" height="0.24"/>
<rect x="226.8" y="183.527" width="0.48" height="14.46"/>
<text transform="matrix(1 0 0 1 233.8799 185.627)"><tspan x="0" y="0" style="font-family:'ProductusBook'; font-size:7.98;">c</tspan><tspan x="3.072" y="0" style="font-family:'ProductusBook'; font-size:7.98;">h</tspan><tspan x="6.791" y="0" style="font-family:'ProductusBook'; font-size:7.98;">an</tspan><tspan x="13.749" y="0" style="font-family:'ProductusBook'; font-size:7.98;">n</tspan><tspan x="17.468" y="0" style="font-family:'ProductusBook'; font-size:7.98;">el</tspan><tspan x="22.503" y="0" style="font-family:'ProductusBook'; font-size:7.98;">E</tspan><tspan x="25.807" y="0" style="font-family:'ProductusBook'; font-size:7.98;">v</tspan><tspan x="28.871" y="0" style="font-family:'ProductusBook'; font-size:7.98;">e</tspan><tspan x="32.406" y="0" style="font-family:'ProductusBook'; font-size:7.98;">n</tspan><tspan x="36.069" y="0" style="font-family:'ProductusBook'; font-size:7.98;">t</tspan><tspan x="38.463" y="0" style="font-family:'ProductusBook'; font-size:7.98;">(</tspan><tspan x="40.569" y="0" style="font-family:'ProductusBook'; font-size:7.98;">e</tspan><tspan x="44.057" y="0" style="font-family:'ProductusBook'; font-size:7.98;">v</tspan><tspan x="47.177" y="0" style="font-family:'ProductusBook'; font-size:7.98;">e</tspan><tspan x="50.712" y="0" style="font-family:'ProductusBook'; font-size:7.98;">nt</tspan><tspan x="56.737" y="0" style="font-family:'ProductusBook'; font-size:7.98;">)</tspan></text>
<text transform="matrix(1 0 0 1 219.6592 171.9473)"><tspan x="0" y="0" style="font-family:'ProductusBook'; font-size:7.98;">a</tspan><tspan x="3.359" y="0" style="font-family:'ProductusBook'; font-size:7.98;">s</tspan><tspan x="6.177" y="0" style="font-family:'ProductusBook'; font-size:7.98;">y</tspan><tspan x="9.36" y="0" style="font-family:'ProductusBook'; font-size:7.98;">n</tspan><tspan x="13.079" y="0" style="font-family:'ProductusBook'; font-size:7.98;">c</tspan></text>
<text transform="matrix(1 0 0 1 233.8799 185.627)"><tspan x="0" y="0" style="font-family:'ProductusBook'; font-size:7.98;">c</tspan><tspan x="3.072" y="0" style="font-family:'ProductusBook'; font-size:7.98;">h</tspan><tspan x="6.791" y="0" style="font-family:'ProductusBook'; font-size:7.98;">an</tspan><tspan x="13.749" y="0" style="font-family:'ProductusBook'; font-size:7.98;">n</tspan><tspan x="17.468" y="0" style="font-family:'ProductusBook'; font-size:7.98;">el</tspan><tspan x="22.503" y="0" style="font-family:'ProductusBook'; font-size:7.98;">E</tspan><tspan x="25.807" y="0" style="font-family:'ProductusBook'; font-size:7.98;">v</tspan><tspan x="28.871" y="0" style="font-family:'ProductusBook'; font-size:7.98;">e</tspan><tspan x="32.406" y="0" style="font-family:'ProductusBook'; font-size:7.98;">n</tspan><tspan x="36.069" y="0" style="font-family:'ProductusBook'; font-size:7.98;">t</tspan><tspan x="38.463" y="0" style="font-family:'ProductusBook'; font-size:7.98;">(</tspan><tspan x="40.569" y="0" style="font-family:'ProductusBook'; font-size:7.98;">e</tspan><tspan x="44.057" y="0" style="font-family:'ProductusBook'; font-size:7.98;">v</tspan><tspan x="47.177" y="0" style="font-family:'ProductusBook'; font-size:7.98;">e</tspan><tspan x="50.712" y="0" style="font-family:'ProductusBook'; font-size:7.98;">nt</tspan><tspan x="56.737" y="0" style="font-family:'ProductusBook'; font-size:7.98;">)</tspan></text>
<rect x="303" y="188.627" width="4.021" height="1.98"/>
<rect x="303" y="190.607" width="4.021" height="16.2"/>
<rect x="121.26" y="147.888" width="4.68" height="0.479"/>
<polyline points="125.58,150.888 125.82,150.468 121.38,147.888 121.14,147.888 120.72,148.127 121.14,148.308 "/>
<polyline points="121.14,147.888 121.38,148.308 125.82,145.728 125.58,145.308 "/>
<rect x="304.98" y="147.888" width="0.239" height="0.479"/>
<rect x="125.7" y="147.888" width="179.28" height="0.479"/>
<rect x="118.74" y="160.308" width="4.02" height="1.979"/>
<rect x="118.74" y="162.287" width="4.02" height="23.22"/>
<rect x="5.88" y="135.287" style="fill:#FFFFFF;" width="1.5" height="3"/>
<rect x="7.38" y="135.287" style="fill:#FFFFFF;" width="320.4" height="3"/>
<text transform="matrix(1 0 0 1 219.96 145.667)"><tspan x="0" y="0" style="font-family:'ProductusBook'; font-size:7.98;">start</tspan><tspan x="13.19" y="0" style="font-family:'ProductusBook'; font-size:7.98;">J</tspan><tspan x="14.755" y="0" style="font-family:'ProductusBook'; font-size:7.98;">ob(..</tspan><tspan x="27.81" y="0" style="font-family:'ProductusBook'; font-size:7.98;">.</tspan><tspan x="29.374" y="0" style="font-family:'ProductusBook'; font-size:7.98;">)</tspan></text>
<rect x="121.26" y="126.587" width="4.68" height="0.48"/>
<polyline points="125.58,129.587 125.82,129.167 121.38,126.587 121.14,126.587 120.84,126.768 121.14,127.007 "/>
<polyline points="121.14,126.587 121.38,127.007 125.82,124.487 125.58,124.067 "/>
<rect x="304.98" y="126.587" width="0.239" height="0.48"/>
<rect x="125.7" y="126.587" width="179.28" height="0.48"/>
<text transform="matrix(1 0 0 1 198.7197 124.4873)"><tspan x="0" y="0" style="font-family:'ProductusBook'; font-size:7.98;">s</tspan><tspan x="2.817" y="0" style="font-family:'ProductusBook'; font-size:7.98;">t</tspan><tspan x="5.163" y="0" style="font-family:'ProductusBook'; font-size:7.98;">o</tspan><tspan x="9.001" y="0" style="font-family:'ProductusBook'; font-size:7.98;">p</tspan><tspan x="12.664" y="0" style="font-family:'ProductusBook'; font-size:7.98;"> </tspan><tspan x="14.276" y="0" style="font-family:'ProductusBook'; font-size:7.98;">(</tspan><tspan x="16.383" y="0" style="font-family:'ProductusBook'; font-size:7.98;">v</tspan><tspan x="19.614" y="0" style="font-family:'ProductusBook'; font-size:7.98;">ia</tspan><tspan x="24.49" y="0" style="font-family:'ProductusBook'; font-size:7.98;"> </tspan><tspan x="26.103" y="0" style="font-family:'ProductusBook'; font-size:7.98;">MonitorJo</tspan><tspan x="54.813" y="0" style="font-family:'ProductusBook'; font-size:7.98;">b</tspan><tspan x="58.237" y="0" style="font-family:'ProductusBook'; font-size:7.98;">)</tspan></text>
</svg>
