<?xml version="1.0" encoding="utf-8"?>
<!-- Generator: Adobe Illustrator 16.0.1, SVG Export Plug-In . SVG Version: 6.00 Build 0)  -->
<!DOCTYPE svg PUBLIC "-//W3C//DTD SVG 1.1//EN" "http://www.w3.org/Graphics/SVG/1.1/DTD/svg11.dtd">
<svg version="1.1" id="Layer_1" xmlns="http://www.w3.org/2000/svg" xmlns:xlink="http://www.w3.org/1999/xlink" x="0px" y="0px"
	 width="333.6px" height="206.809px" viewBox="0 0 333.6 206.809" enable-background="new 0 0 333.6 206.809" xml:space="preserve">
<rect x="94.74" y="15.228" width="54.36" height="26.58"/>
<rect x="94.74" y="14.987" width="54.6" height="0.479"/>
<rect x="148.86" y="15.228" width="0.48" height="26.818"/>
<rect x="94.5" y="41.567" width="54.6" height="0.479"/>
<rect x="94.5" y="14.987" width="0.48" height="26.82"/>
<rect x="92.4" y="13.487" fill="#FFFFFF" width="54.3" height="26.52"/>
<rect x="92.4" y="13.247" width="54.54" height="0.48"/>
<rect x="146.46" y="13.487" width="0.48" height="26.76"/>
<rect x="92.16" y="39.768" width="54.54" height="0.479"/>
<rect x="92.16" y="13.247" width="0.48" height="26.76"/>
<text transform="matrix(1 0 0 1 94.7402 20.5671)" font-family="'ProductusOSGiBookc'" font-size="7.98">&lt;&lt;service&gt;&gt;</text>
<text transform="matrix(1 0 0 1 94.7402 28.0876)" enable-background="new    "><tspan x="0" y="0" font-family="'ProductusSemibold'" font-size="7.98">Monitor</tspan><tspan x="0" y="9.576" font-family="'ProductusSemibold'" font-size="7.98">Admin</tspan></text>
<polyline points="149.1,27.647 134.94,41.808 149.1,41.808 "/>
<polyline points="149.34,27.647 149.34,27.768 135.12,41.987 134.94,42.047 134.34,42.047 148.92,27.468 149.28,27.827 
	148.86,27.647 "/>
<rect x="134.94" y="41.567" width="14.4" height="0.479"/>
<rect x="148.86" y="27.647" width="0.48" height="14.16"/>
<rect x="2.64" y="15.228" width="54.3" height="26.58"/>
<rect x="2.64" y="14.987" width="54.54" height="0.479"/>
<rect x="56.7" y="15.228" width="0.48" height="26.818"/>
<rect x="2.4" y="41.567" width="54.54" height="0.479"/>
<rect x="2.4" y="14.987" width="0.48" height="26.82"/>
<rect x="0.24" y="13.487" fill="#FFFFFF" width="54.36" height="26.52"/>
<rect x="0.24" y="13.247" width="54.6" height="0.48"/>
<rect x="54.36" y="13.487" width="0.48" height="26.76"/>
<rect y="39.768" width="54.6" height="0.479"/>
<rect y="13.247" width="0.48" height="26.76"/>
<text transform="matrix(0.9504 0 0 1 2.6401 20.5671)" font-family="'ProductusOSGiBookc'" font-size="7.98">&lt;&lt;service&gt;&gt;</text>
<text transform="matrix(1 0 0 1 2.6401 29.0867)" font-family="'ProductusSemibold'" font-size="7.98">Monitorable</text>
<polyline points="56.04,27.647 42.78,41.808 56.04,41.808 "/>
<polyline points="56.28,27.647 56.28,27.768 56.22,27.827 42.96,41.987 42.78,42.047 42.24,42.047 42.6,41.688 55.86,27.527 
	56.22,27.827 55.8,27.647 "/>
<rect x="42.78" y="41.567" width="13.5" height="0.479"/>
<rect x="55.8" y="27.647" width="0.48" height="14.16"/>
<rect x="28.38" y="41.567" width="0.48" height="0.24"/>
<rect x="28.38" y="41.808" width="0.48" height="163.26"/>
<rect x="120.48" y="41.567" width="0.48" height="0.24"/>
<rect x="120.48" y="41.808" width="0.48" height="163.26"/>
<rect x="304.74" y="41.567" width="0.479" height="0.24"/>
<rect x="304.74" y="41.808" width="0.479" height="163.26"/>
<rect x="207.66" y="98.268" width="4.739" height="0.479"/>
<polyline points="208.08,95.747 207.84,96.167 212.28,98.747 212.521,98.747 212.94,98.507 212.521,98.327 "/>
<polyline points="212.521,98.747 212.28,98.327 207.84,100.907 208.08,101.327 "/>
<rect x="120.48" y="98.268" width="0.24" height="0.479"/>
<rect x="120.72" y="98.268" width="87.179" height="0.479"/>
<text transform="matrix(1 0 0 1 145.9199 95.5066)" font-family="'ProductusBook'" font-size="7.98">sendEvent</text>
<rect x="186.899" y="15.228" width="54.301" height="26.58"/>
<rect x="186.899" y="14.987" width="54.541" height="0.479"/>
<rect x="240.96" y="15.228" width="0.48" height="26.818"/>
<rect x="186.66" y="41.567" width="54.54" height="0.479"/>
<rect x="186.66" y="14.987" width="0.479" height="26.82"/>
<rect x="184.5" y="13.487" fill="#FFFFFF" width="54.36" height="26.52"/>
<rect x="184.5" y="13.247" width="54.601" height="0.48"/>
<rect x="238.62" y="13.487" width="0.479" height="26.76"/>
<rect x="184.26" y="39.768" width="54.601" height="0.479"/>
<rect x="184.26" y="13.247" width="0.48" height="26.76"/>
<text transform="matrix(1 0 0 1 186.9004 20.5671)" font-family="'ProductusOSGiBookc'" font-size="7.98">&lt;&lt;service&gt;&gt;</text>
<text transform="matrix(1 0 0 1 186.9004 29.0876)" font-family="'ProductusSemibold'" font-size="7.98">Event Admin</text>
<polyline points="240.3,27.647 227.04,41.808 240.3,41.808 "/>
<polyline points="240.54,27.647 240.54,27.768 240.479,27.827 227.22,41.987 227.04,42.047 226.5,42.047 226.86,41.688 
	240.12,27.527 240.479,27.827 240.06,27.647 "/>
<rect x="227.04" y="41.567" width="13.5" height="0.479"/>
<rect x="240.06" y="27.647" width="0.48" height="14.16"/>
<rect x="212.64" y="41.567" width="0.48" height="0.24"/>
<rect x="212.64" y="41.808" width="0.48" height="163.26"/>
<rect x="279" y="15.228" width="54.36" height="26.58"/>
<rect x="279" y="14.987" width="54.6" height="0.479"/>
<rect x="333.12" y="15.228" width="0.479" height="26.818"/>
<rect x="278.76" y="41.567" width="54.602" height="0.479"/>
<rect x="278.76" y="14.987" width="0.48" height="26.82"/>
<rect x="276.66" y="13.487" fill="#FFFFFF" width="54.3" height="26.52"/>
<rect x="276.66" y="13.247" width="54.54" height="0.48"/>
<rect x="330.72" y="13.487" width="0.48" height="26.76"/>
<rect x="276.42" y="39.768" width="54.54" height="0.479"/>
<rect x="276.42" y="13.247" width="0.479" height="26.76"/>
<text transform="matrix(1 0 0 1 279 20.5671)" font-family="'ProductusOSGiBookc'" font-size="7.98">&lt;&lt;service&gt;&gt;</text>
<text transform="matrix(1 0 0 1 279 28.0876)" enable-background="new    "><tspan x="0" y="0" font-family="'ProductusSemibold'" font-size="7.98">Event</tspan><tspan x="0" y="9.576" font-family="'ProductusSemibold'" font-size="7.98">Handler</tspan></text>
<polyline points="333.36,27.647 319.2,41.808 333.36,41.808 "/>
<polyline points="333.6,27.647 333.6,27.768 319.38,41.987 319.2,42.047 318.6,42.047 333.18,27.468 333.54,27.827 333.12,27.647 
	"/>
<rect x="319.2" y="41.567" width="14.398" height="0.479"/>
<rect x="333.12" y="27.647" width="0.479" height="14.16"/>
<text transform="matrix(1 0 0 1 286.2002 6.6472)" font-family="'ProductusBook'" font-size="7.98">local admin</text>
<text transform="matrix(1 0 0 1 9.8398 6.6472)" font-family="'ProductusBook'" font-size="7.98">Status Variable Provider</text>
<rect x="299.819" y="105.348" width="4.681" height="0.479"/>
<polyline points="300.181,102.827 299.94,103.247 304.38,105.827 304.62,105.827 305.04,105.587 304.62,105.407 "/>
<polyline points="304.62,105.827 304.38,105.407 299.94,107.987 300.181,108.407 "/>
<rect x="226.8" y="105.348" width="0.24" height="0.479"/>
<rect x="227.04" y="105.348" width="73.02" height="0.479"/>
<rect x="226.8" y="98.268" width="0.48" height="0.238"/>
<rect x="226.8" y="98.507" width="0.48" height="14.4"/>
<text transform="matrix(1 0 0 1 233.8799 103.2468)" font-family="'ProductusBook'" font-size="7.98">c</text>
<text transform="matrix(1 0 0 1 236.9521 103.2468)" font-family="'ProductusBook'" font-size="7.98">h</text>
<text transform="matrix(1 0 0 1 240.6709 103.2468)" font-family="'ProductusBook'" font-size="7.98">an</text>
<text transform="matrix(1 0 0 1 247.6289 103.2468)" font-family="'ProductusBook'" font-size="7.98">n</text>
<text transform="matrix(1 0 0 1 251.3477 103.2468)" font-family="'ProductusBook'" font-size="7.98">el</text>
<text transform="matrix(1 0 0 1 256.3828 103.2468)" font-family="'ProductusBook'" font-size="7.98">E</text>
<text transform="matrix(1 0 0 1 259.6865 103.2468)" font-family="'ProductusBook'" font-size="7.98">v</text>
<text transform="matrix(1 0 0 1 262.751 103.2468)" font-family="'ProductusBook'" font-size="7.98">e</text>
<text transform="matrix(1 0 0 1 266.2861 103.2468)" font-family="'ProductusBook'" font-size="7.98">n</text>
<text transform="matrix(1 0 0 1 269.9482 103.2468)" font-family="'ProductusBook'" font-size="7.98">t</text>
<text transform="matrix(1 0 0 1 272.3428 103.2468)" font-family="'ProductusBook'" font-size="7.98">(</text>
<text transform="matrix(1 0 0 1 274.4482 103.2468)" font-family="'ProductusBook'" font-size="7.98">e</text>
<text transform="matrix(1 0 0 1 277.9365 103.2468)" font-family="'ProductusBook'" font-size="7.98">v</text>
<text transform="matrix(1 0 0 1 281.0566 103.2468)" font-family="'ProductusBook'" font-size="7.98">e</text>
<text transform="matrix(1 0 0 1 284.5918 103.2468)" font-family="'ProductusBook'" font-size="7.98">nt</text>
<text transform="matrix(1 0 0 1 290.6162 103.2468)" font-family="'ProductusBook'" font-size="7.98">)</text>
<text transform="matrix(1 0 0 1 219.6592 89.5671)" font-family="'ProductusBook'" font-size="7.98">async</text>
<rect x="115.56" y="77.027" width="4.68" height="0.479"/>
<polyline points="115.92,74.507 115.68,74.927 120.12,77.507 120.36,77.507 120.66,77.327 120.36,77.087 "/>
<polyline points="120.36,77.507 120.12,77.087 115.68,79.607 115.92,80.027 "/>
<rect x="78" y="77.027" width="0.24" height="0.479"/>
<rect x="78.24" y="77.027" width="3.96" height="0.479"/>
<rect x="87.36" y="77.027" width="0.24" height="0.479"/>
<rect x="87.6" y="77.027" width="6.72" height="0.479"/>
<rect x="99.48" y="77.027" width="0.24" height="0.479"/>
<rect x="99.72" y="77.027" width="6.72" height="0.479"/>
<rect x="111.54" y="77.027" width="0.24" height="0.479"/>
<rect x="111.78" y="77.027" width="4.02" height="0.479"/>
<text transform="matrix(1 0 0 1 78.2402 76.0671)" font-family="'ProductusBook'" font-size="7.98">time</text>
<rect x="121.26" y="55.728" width="4.68" height="0.479"/>
<polyline points="125.58,58.728 125.82,58.308 121.38,55.728 121.14,55.728 120.72,55.968 121.14,56.147 "/>
<polyline points="121.14,55.728 121.38,56.147 125.82,53.567 125.58,53.147 "/>
<rect x="304.979" y="55.728" width="0.24" height="0.479"/>
<rect x="125.7" y="55.728" width="179.279" height="0.479"/>
<rect x="5.88" y="61.547" fill="#FFFFFF" width="1.5" height="3"/>
<rect x="7.38" y="61.547" fill="#FFFFFF" width="320.4" height="3"/>
<text transform="matrix(1 0 0 1 233.8799 103.2468)" font-family="'ProductusBook'" font-size="7.98">channelEvent(event)</text>
<text transform="matrix(1 0 0 1 231.7793 53.6277)" font-family="'ProductusBook'" font-size="7.98">startScheduledJob(...)</text>
<rect x="29.1" y="91.188" width="4.74" height="0.479"/>
<polyline points="33.42,94.188 33.66,93.768 29.22,91.188 28.98,91.188 28.56,91.427 28.98,91.607 "/>
<polyline points="28.98,91.188 29.22,91.607 33.66,89.027 33.42,88.607 "/>
<rect x="120.72" y="91.188" width="0.24" height="0.479"/>
<rect x="33.6" y="91.188" width="87.12" height="0.479"/>
<text transform="matrix(1 0 0 1 46.4399 88.6072)" font-family="'ProductusBook'" font-size="7.98">getStatusVariable()</text>
<rect x="118.74" y="82.367" width="4.02" height="1.98"/>
<rect x="118.74" y="84.348" width="4.02" height="23.22"/>
<rect x="303" y="96.527" width="4.021" height="1.979"/>
<rect x="303" y="98.507" width="4.021" height="23.222"/>
<rect x="115.56" y="162.047" width="4.68" height="0.48"/>
<polyline points="115.92,159.527 115.68,159.947 120.12,162.527 120.36,162.527 120.78,162.287 120.36,162.107 "/>
<polyline points="120.36,162.527 120.12,162.107 115.68,164.688 115.92,165.107 "/>
<rect x="28.38" y="162.047" width="0.24" height="0.48"/>
<rect x="28.62" y="162.047" width="87.18" height="0.48"/>
<text transform="matrix(1 0 0 1 58.6802 160.0066)" font-family="'ProductusBook'" font-size="7.98">update()</text>
<rect x="207.66" y="169.127" width="4.739" height="0.48"/>
<polyline points="208.08,166.607 207.84,167.027 212.28,169.607 212.521,169.607 212.94,169.367 212.521,169.188 "/>
<polyline points="212.521,169.607 212.28,169.188 207.84,171.768 208.08,172.188 "/>
<rect x="120.48" y="169.127" width="0.24" height="0.48"/>
<rect x="120.72" y="169.127" width="87.179" height="0.48"/>
<text transform="matrix(1 0 0 1 145.0801 164.9265)" font-family="'ProductusBook'" font-size="7.98">sendEvent()</text>
<rect x="299.819" y="190.367" width="4.681" height="0.48"/>
<polyline points="300.181,187.907 299.94,188.327 304.38,190.848 304.62,190.848 305.04,190.607 304.62,190.427 "/>
<polyline points="304.62,190.848 304.38,190.427 299.94,193.007 300.181,193.427 "/>
<rect x="226.8" y="190.367" width="0.24" height="0.48"/>
<rect x="227.04" y="190.367" width="73.02" height="0.48"/>
<rect x="226.8" y="183.287" width="0.48" height="0.24"/>
<rect x="226.8" y="183.527" width="0.48" height="14.46"/>
<text transform="matrix(1 0 0 1 233.8799 185.6267)" font-family="'ProductusBook'" font-size="7.98">c</text>
<text transform="matrix(1 0 0 1 236.9521 185.6267)" font-family="'ProductusBook'" font-size="7.98">h</text>
<text transform="matrix(1 0 0 1 240.6709 185.6267)" font-family="'ProductusBook'" font-size="7.98">an</text>
<text transform="matrix(1 0 0 1 247.6289 185.6267)" font-family="'ProductusBook'" font-size="7.98">n</text>
<text transform="matrix(1 0 0 1 251.3477 185.6267)" font-family="'ProductusBook'" font-size="7.98">el</text>
<text transform="matrix(1 0 0 1 256.3828 185.6267)" font-family="'ProductusBook'" font-size="7.98">E</text>
<text transform="matrix(1 0 0 1 259.6865 185.6267)" font-family="'ProductusBook'" font-size="7.98">v</text>
<text transform="matrix(1 0 0 1 262.751 185.6267)" font-family="'ProductusBook'" font-size="7.98">e</text>
<text transform="matrix(1 0 0 1 266.2861 185.6267)" font-family="'ProductusBook'" font-size="7.98">n</text>
<text transform="matrix(1 0 0 1 269.9482 185.6267)" font-family="'ProductusBook'" font-size="7.98">t</text>
<text transform="matrix(1 0 0 1 272.3428 185.6267)" font-family="'ProductusBook'" font-size="7.98">(</text>
<text transform="matrix(1 0 0 1 274.4482 185.6267)" font-family="'ProductusBook'" font-size="7.98">e</text>
<text transform="matrix(1 0 0 1 277.9365 185.6267)" font-family="'ProductusBook'" font-size="7.98">v</text>
<text transform="matrix(1 0 0 1 281.0566 185.6267)" font-family="'ProductusBook'" font-size="7.98">e</text>
<text transform="matrix(1 0 0 1 284.5918 185.6267)" font-family="'ProductusBook'" font-size="7.98">nt</text>
<text transform="matrix(1 0 0 1 290.6162 185.6267)" font-family="'ProductusBook'" font-size="7.98">)</text>
<text transform="matrix(1 0 0 1 219.6592 171.947)" font-family="'ProductusBook'" font-size="7.98">async</text>
<text transform="matrix(1 0 0 1 233.8799 185.6267)" font-family="'ProductusBook'" font-size="7.98">channelEvent(event)</text>
<rect x="303" y="188.627" width="4.021" height="1.98"/>
<rect x="303" y="190.607" width="4.021" height="16.2"/>
<rect x="121.26" y="147.888" width="4.68" height="0.479"/>
<polyline points="125.58,150.888 125.82,150.468 121.38,147.888 121.14,147.888 120.72,148.127 121.14,148.308 "/>
<polyline points="121.14,147.888 121.38,148.308 125.82,145.728 125.58,145.308 "/>
<rect x="304.979" y="147.888" width="0.24" height="0.479"/>
<rect x="125.7" y="147.888" width="179.279" height="0.479"/>
<rect x="118.74" y="160.308" width="4.02" height="1.979"/>
<rect x="118.74" y="162.287" width="4.02" height="23.22"/>
<rect x="5.88" y="135.287" fill="#FFFFFF" width="1.5" height="3"/>
<rect x="7.38" y="135.287" fill="#FFFFFF" width="320.4" height="3"/>
<text transform="matrix(1 0 0 1 219.96 145.6667)" font-family="'ProductusBook'" font-size="7.98">startJob(...)</text>
<rect x="121.26" y="126.587" width="4.68" height="0.48"/>
<polyline points="125.58,129.587 125.82,129.167 121.38,126.587 121.14,126.587 120.84,126.768 121.14,127.007 "/>
<polyline points="121.14,126.587 121.38,127.007 125.82,124.487 125.58,124.067 "/>
<rect x="304.979" y="126.587" width="0.24" height="0.48"/>
<rect x="125.7" y="126.587" width="179.279" height="0.48"/>
<text transform="matrix(1 0 0 1 198.7197 124.4871)" font-family="'ProductusBook'" font-size="7.98">stop (via MonitorJob)</text>
</svg>
