<?xml version="1.0" encoding="utf-8"?>
<!-- Generator: Adobe Illustrator 16.0.1, SVG Export Plug-In . SVG Version: 6.00 Build 0)  -->
<!DOCTYPE svg PUBLIC "-//W3C//DTD SVG 1.1//EN" "http://www.w3.org/Graphics/SVG/1.1/DTD/svg11.dtd">
<svg version="1.1" id="Layer_1" xmlns="http://www.w3.org/2000/svg" xmlns:xlink="http://www.w3.org/1999/xlink" x="0px" y="0px"
	 width="339.24px" height="91.668px" viewBox="0 0 339.24 91.668" enable-background="new 0 0 339.24 91.668" xml:space="preserve">
<rect x="100.44" y="15.228" width="54.3" height="26.58"/>
<rect x="100.44" y="14.988" width="54.54" height="0.48"/>
<rect x="154.5" y="15.228" width="0.48" height="26.82"/>
<rect x="100.2" y="41.567" width="54.54" height="0.48"/>
<rect x="100.2" y="14.988" width="0.48" height="26.82"/>
<rect x="98.04" y="13.428" fill="#FFFFFF" width="54.36" height="26.58"/>
<rect x="98.04" y="13.188" width="54.6" height="0.48"/>
<rect x="152.16" y="13.428" width="0.48" height="26.82"/>
<rect x="97.8" y="39.768" width="54.6" height="0.48"/>
<rect x="97.8" y="13.188" width="0.48" height="26.82"/>
<text transform="matrix(1 0 0 1 100.4399 20.5674)" font-family="'ProductusOSGiBookc'" font-size="7.98">&lt;&lt;service&gt;&gt;</text>
<text transform="matrix(1 0 0 1 100.4399 29.0273)" font-family="'ProductusSemibold'" font-size="7.98">MonitorListener</text>
<polyline points="154.74,27.587 140.58,41.808 154.74,41.808 "/>
<polyline points="154.98,27.587 154.98,27.708 154.92,27.768 140.76,41.987 140.58,42.048 139.98,42.048 140.4,41.628 
	154.56,27.408 154.92,27.768 154.5,27.587 "/>
<rect x="140.58" y="41.567" width="14.4" height="0.48"/>
<rect x="154.5" y="27.587" width="0.48" height="14.22"/>
<rect x="8.28" y="15.228" width="54.36" height="26.58"/>
<rect x="8.28" y="14.988" width="54.6" height="0.48"/>
<rect x="62.4" y="15.228" width="0.48" height="26.82"/>
<rect x="8.04" y="41.567" width="54.6" height="0.48"/>
<rect x="8.04" y="14.988" width="0.48" height="26.82"/>
<rect x="5.94" y="13.428" fill="#FFFFFF" width="54.3" height="26.58"/>
<rect x="5.94" y="13.188" width="54.54" height="0.48"/>
<rect x="60" y="13.428" width="0.48" height="26.82"/>
<rect x="5.7" y="39.768" width="54.54" height="0.48"/>
<rect x="5.7" y="13.188" width="0.48" height="26.82"/>
<text transform="matrix(0.9504 0 0 1 8.2798 20.5674)" font-family="'ProductusOSGiBookc'" font-size="7.98">&lt;&lt;service&gt;&gt;</text>
<text transform="matrix(1 0 0 1 8.2798 29.0273)" font-family="'ProductusSemibold'" font-size="7.98">Monitorable</text>
<polyline points="61.68,27.587 48.42,41.808 61.68,41.808 "/>
<polyline points="61.92,27.587 61.92,27.708 61.86,27.768 48.6,41.987 48.42,42.048 47.88,42.048 48.24,41.688 61.5,27.468 
	61.86,27.768 61.44,27.587 "/>
<rect x="48.42" y="41.567" width="13.5" height="0.48"/>
<rect x="61.44" y="27.587" width="0.48" height="14.22"/>
<rect x="34.02" y="41.567" width="0.48" height="0.24"/>
<rect x="34.02" y="41.808" width="0.48" height="49.86"/>
<rect x="126.18" y="41.567" width="0.48" height="0.24"/>
<rect x="126.18" y="41.808" width="0.48" height="49.86"/>
<rect x="310.44" y="41.567" width="0.479" height="0.24"/>
<rect x="310.44" y="41.808" width="0.479" height="49.86"/>
<rect x="121.2" y="55.729" width="4.68" height="0.479"/>
<polyline points="121.56,53.208 121.32,53.628 125.76,56.208 126,56.208 126.42,55.968 126,55.788 "/>
<polyline points="126,56.208 125.76,55.788 121.32,58.367 121.56,58.788 "/>
<rect x="34.02" y="55.729" width="0.24" height="0.479"/>
<rect x="34.26" y="55.729" width="87.18" height="0.479"/>
<text transform="matrix(1 0 0 1 49.7402 53.6279)" font-family="'ProductusBook'" font-size="7.98">update(StatusVariable)</text>
<rect x="213.36" y="62.809" width="4.68" height="0.479"/>
<polyline points="213.72,60.288 213.479,60.708 217.92,63.288 218.16,63.288 218.58,63.048 218.16,62.867 "/>
<polyline points="218.16,63.288 217.92,62.867 213.479,65.447 213.72,65.867 "/>
<rect x="126.18" y="62.809" width="0.24" height="0.479"/>
<rect x="126.42" y="62.809" width="87.181" height="0.479"/>
<text transform="matrix(1 0 0 1 151.6201 60.708)" font-family="'ProductusBook'" font-size="7.98">sendEvent</text>
<polyline points="192.54,15.228 246.899,15.228 246.899,41.808 192.54,41.808 "/>
<rect x="192.54" y="14.988" width="54.602" height="0.48"/>
<rect x="246.66" y="15.228" width="0.479" height="26.82"/>
<rect x="192.3" y="41.567" width="54.6" height="0.48"/>
<rect x="192.3" y="14.988" width="0.479" height="26.82"/>
<rect x="190.2" y="13.428" fill="#FFFFFF" width="54.301" height="26.58"/>
<rect x="190.2" y="13.188" width="54.54" height="0.48"/>
<rect x="244.26" y="13.428" width="0.479" height="26.82"/>
<rect x="189.96" y="39.768" width="54.54" height="0.48"/>
<rect x="189.96" y="13.188" width="0.479" height="26.82"/>
<text transform="matrix(1 0 0 1 192.54 20.5674)" font-family="'ProductusOSGiBookc'" font-size="7.98">&lt;&lt;service&gt;&gt;</text>
<text transform="matrix(1 0 0 1 192.54 29.0273)" font-family="'ProductusSemibold'" font-size="7.98">Event Admin</text>
<polyline points="245.94,27.587 232.681,41.808 245.94,41.808 "/>
<polyline points="246.181,27.587 246.181,27.708 246.12,27.768 232.86,41.987 232.681,42.048 232.14,42.048 232.5,41.688 
	245.76,27.468 246.12,27.768 245.7,27.587 "/>
<rect x="232.681" y="41.567" width="13.5" height="0.48"/>
<rect x="245.7" y="27.587" width="0.48" height="14.22"/>
<rect x="218.28" y="41.567" width="0.479" height="0.24"/>
<rect x="218.28" y="41.808" width="0.479" height="49.86"/>
<rect x="284.7" y="15.228" width="54.301" height="26.58"/>
<rect x="284.7" y="14.988" width="54.54" height="0.48"/>
<rect x="338.76" y="15.228" width="0.479" height="26.82"/>
<rect x="284.46" y="41.567" width="54.54" height="0.48"/>
<rect x="284.46" y="14.988" width="0.479" height="26.82"/>
<rect x="282.3" y="13.428" fill="#FFFFFF" width="54.359" height="26.58"/>
<rect x="282.3" y="13.188" width="54.601" height="0.48"/>
<rect x="336.42" y="13.428" width="0.479" height="26.82"/>
<rect x="282.06" y="39.768" width="54.601" height="0.48"/>
<rect x="282.06" y="13.188" width="0.479" height="26.82"/>
<text transform="matrix(1 0 0 1 284.7002 20.5674)" font-family="'ProductusOSGiBookc'" font-size="7.98">&lt;&lt;service&gt;&gt;</text>
<text transform="matrix(1 0 0 1 284.7002 29.0273)" font-family="'ProductusSemibold'" font-size="7.98">Event Handler</text>
<polyline points="339,27.587 324.84,41.808 339,41.808 "/>
<polyline points="339.24,27.587 339.24,27.708 339.18,27.768 325.02,41.987 324.84,42.048 324.24,42.048 324.66,41.628 
	338.82,27.408 339.18,27.768 338.76,27.587 "/>
<rect x="324.84" y="41.567" width="14.399" height="0.48"/>
<rect x="338.76" y="27.587" width="0.479" height="14.22"/>
<text transform="matrix(1 0 0 1 283.7393 6.6475)" font-family="'ProductusBook'" font-size="7.98">local administrator</text>
<text transform="matrix(1 0 0 1 0 6.6475)" font-family="'ProductusBook'" font-size="7.98">Status Variable Provider</text>
<text transform="matrix(1 0 0 1 97.8901 6.6475)" font-family="'ProductusBook'" font-size="7.98">Monitor Admin impl</text>
<rect x="305.46" y="76.968" width="4.68" height="0.479"/>
<polyline points="305.819,74.508 305.58,74.928 310.02,77.447 310.26,77.447 310.68,77.208 310.26,77.027 "/>
<polyline points="310.26,77.447 310.02,77.027 305.58,79.607 305.819,80.027 "/>
<rect x="232.44" y="76.968" width="0.24" height="0.479"/>
<rect x="232.681" y="76.968" width="73.02" height="0.479"/>
<rect x="232.44" y="62.809" width="0.479" height="0.239"/>
<rect x="232.44" y="63.048" width="0.479" height="28.62"/>
<text transform="matrix(1 0 0 1 239.5205 74.8672)" font-family="'ProductusBook'" font-size="7.98">handleEvent(event)</text>
<text transform="matrix(1 0 0 1 225.3604 61.1875)" font-family="'ProductusBook'" font-size="7.98">async</text>
<rect x="124.44" y="53.986" width="4.02" height="1.98"/>
<rect x="124.44" y="55.968" width="4.02" height="16.14"/>
</svg>
