<?xml version="1.0" encoding="utf-8"?>
<!-- Generator: Adobe Illustrator 16.0.0, SVG Export Plug-In . SVG Version: 6.00 Build 0)  -->
<!DOCTYPE svg PUBLIC "-//W3C//DTD SVG 1.1//EN" "http://www.w3.org/Graphics/SVG/1.1/DTD/svg11.dtd">
<svg version="1.1" id="Layer_1" xmlns="http://www.w3.org/2000/svg" xmlns:xlink="http://www.w3.org/1999/xlink" x="0px" y="0px"
	 width="339.24px" height="91.668px" viewBox="0 0 339.24 91.668" style="enable-background:new 0 0 339.24 91.668;"
	 xml:space="preserve">
<rect x="100.44" y="15.228" width="54.3" height="26.58"/>
<rect x="100.44" y="14.988" width="54.54" height="0.48"/>
<rect x="154.5" y="15.228" width="0.48" height="26.82"/>
<rect x="100.2" y="41.567" width="54.54" height="0.48"/>
<rect x="100.2" y="14.988" width="0.48" height="26.82"/>
<rect x="98.04" y="13.428" style="fill:#FFFFFF;" width="54.36" height="26.58"/>
<rect x="98.04" y="13.188" width="54.6" height="0.48"/>
<rect x="152.16" y="13.428" width="0.48" height="26.82"/>
<rect x="97.8" y="39.768" width="54.6" height="0.48"/>
<rect x="97.8" y="13.188" width="0.48" height="26.82"/>
<text transform="matrix(1 0 0 1 100.4399 20.5674)"><tspan x="0" y="0" style="font-family:'ProductusOSGiBookc'; font-size:7.98;">&lt;&lt;serv</tspan><tspan x="17.548" y="0" style="font-family:'ProductusOSGiBookc'; font-size:7.98;">i</tspan><tspan x="19.056" y="0" style="font-family:'ProductusOSGiBookc'; font-size:7.98;">c</tspan><tspan x="22.176" y="0" style="font-family:'ProductusOSGiBookc'; font-size:7.98;">e</tspan><tspan x="25.655" y="0" style="font-family:'ProductusOSGiBookc'; font-size:7.98;">&gt;</tspan><tspan x="28.536" y="0" style="font-family:'ProductusOSGiBookc'; font-size:7.98;">&gt;</tspan></text>
<text transform="matrix(1 0 0 1 100.4399 29.0278)"><tspan x="0" y="0" style="font-family:'ProductusSemibold'; font-size:7.98;">Mon</tspan><tspan x="15.329" y="0" style="font-family:'ProductusSemibold'; font-size:7.98;">i</tspan><tspan x="17.484" y="0" style="font-family:'ProductusSemibold'; font-size:7.98;">to</tspan><tspan x="24.961" y="0" style="font-family:'ProductusSemibold'; font-size:7.98;">r</tspan></text>
<text transform="matrix(1 0 0 1 100.4399 37.5479)"><tspan x="0" y="0" style="font-family:'ProductusSemibold'; font-size:7.98;">Listene</tspan><tspan x="24.865" y="0" style="font-family:'ProductusSemibold'; font-size:7.98;">r</tspan></text>
<polyline style="fill-rule:evenodd;clip-rule:evenodd;" points="154.74,27.587 140.58,41.808 154.74,41.808 "/>
<polyline points="154.98,27.587 154.98,27.708 154.92,27.768 140.76,41.987 140.58,42.048 139.98,42.048 140.4,41.628 
	154.56,27.408 154.92,27.768 154.5,27.587 "/>
<rect x="140.58" y="41.567" width="14.4" height="0.48"/>
<rect x="154.5" y="27.587" width="0.48" height="14.22"/>
<rect x="8.28" y="15.228" width="54.36" height="26.58"/>
<rect x="8.28" y="14.988" width="54.6" height="0.48"/>
<rect x="62.4" y="15.228" width="0.48" height="26.82"/>
<rect x="8.04" y="41.567" width="54.6" height="0.48"/>
<rect x="8.04" y="14.988" width="0.48" height="26.82"/>
<rect x="5.94" y="13.428" style="fill:#FFFFFF;" width="54.3" height="26.58"/>
<rect x="5.94" y="13.188" width="54.54" height="0.48"/>
<rect x="60" y="13.428" width="0.48" height="26.82"/>
<rect x="5.7" y="39.768" width="54.54" height="0.48"/>
<rect x="5.7" y="13.188" width="0.48" height="26.82"/>
<text transform="matrix(1 0 0 1.0522 8.2798 20.5674)"><tspan x="0" y="0" style="font-family:'ProductusOSGiBookc'; font-size:7.5841;">&lt;</tspan><tspan x="2.776" y="0" style="font-family:'ProductusOSGiBookc'; font-size:7.5841;">&lt;</tspan><tspan x="5.589" y="0" style="font-family:'ProductusOSGiBookc'; font-size:7.5841;">servi</tspan><tspan x="18.072" y="0" style="font-family:'ProductusOSGiBookc'; font-size:7.5841;">c</tspan><tspan x="21.007" y="0" style="font-family:'ProductusOSGiBookc'; font-size:7.5841;">e&gt;</tspan><tspan x="27.075" y="0" style="font-family:'ProductusOSGiBookc'; font-size:7.5841;">&gt;</tspan></text>
<text transform="matrix(1 0 0 1 8.2798 29.0278)"><tspan x="0" y="0" style="font-family:'ProductusSemibold'; font-size:7.98;">Mo</tspan><tspan x="11.044" y="0" style="font-family:'ProductusSemibold'; font-size:7.98;">ni</tspan><tspan x="17.452" y="0" style="font-family:'ProductusSemibold'; font-size:7.98;">tora</tspan><tspan x="31.896" y="0" style="font-family:'ProductusSemibold'; font-size:7.98;">b</tspan><tspan x="36.148" y="0" style="font-family:'ProductusSemibold'; font-size:7.98;">l</tspan><tspan x="38.367" y="0" style="font-family:'ProductusSemibold'; font-size:7.98;">e</tspan></text>
<polyline style="fill-rule:evenodd;clip-rule:evenodd;" points="61.68,27.587 48.42,41.808 61.68,41.808 "/>
<polyline points="61.92,27.587 61.92,27.708 61.86,27.768 48.6,41.987 48.42,42.048 47.88,42.048 48.24,41.688 61.5,27.468 
	61.86,27.768 61.44,27.587 "/>
<rect x="48.42" y="41.567" width="13.5" height="0.48"/>
<rect x="61.44" y="27.587" width="0.48" height="14.22"/>
<rect x="34.02" y="41.567" width="0.48" height="0.24"/>
<rect x="34.02" y="41.808" width="0.48" height="49.86"/>
<rect x="126.18" y="41.567" width="0.48" height="0.24"/>
<rect x="126.18" y="41.808" width="0.48" height="49.86"/>
<rect x="310.44" y="41.567" width="0.48" height="0.24"/>
<rect x="310.44" y="41.808" width="0.48" height="49.86"/>
<rect x="121.2" y="55.728" width="4.68" height="0.48"/>
<polyline points="121.56,53.208 121.32,53.628 125.76,56.208 126,56.208 126.42,55.968 126,55.788 "/>
<polyline points="126,56.208 125.76,55.788 121.32,58.367 121.56,58.788 "/>
<rect x="34.02" y="55.728" width="0.24" height="0.48"/>
<rect x="34.26" y="55.728" width="87.18" height="0.48"/>
<text transform="matrix(1 0 0 1 49.7402 53.6279)"><tspan x="0" y="0" style="font-family:'ProductusBook'; font-size:7.98;">u</tspan><tspan x="3.695" y="0" style="font-family:'ProductusBook'; font-size:7.98;">p</tspan><tspan x="7.357" y="0" style="font-family:'ProductusBook'; font-size:7.98;">date(</tspan><tspan x="22.663" y="0" style="font-family:'ProductusBook'; font-size:7.98;">S</tspan><tspan x="26.326" y="0" style="font-family:'ProductusBook'; font-size:7.98;">tatus</tspan><tspan x="40.969" y="0" style="font-family:'ProductusBook'; font-size:7.98;">V</tspan><tspan x="44.576" y="0" style="font-family:'ProductusBook'; font-size:7.98;">a</tspan><tspan x="47.903" y="0" style="font-family:'ProductusBook'; font-size:7.98;">r</tspan><tspan x="50.129" y="0" style="font-family:'ProductusBook'; font-size:7.98;">iabl</tspan><tspan x="60.336" y="0" style="font-family:'ProductusBook'; font-size:7.98;">e</tspan><tspan x="63.576" y="0" style="font-family:'ProductusBook'; font-size:7.98;">)</tspan></text>
<rect x="213.36" y="62.808" width="4.68" height="0.48"/>
<polyline points="213.72,60.288 213.48,60.708 217.92,63.288 218.16,63.288 218.58,63.048 218.16,62.867 "/>
<polyline points="218.16,63.288 217.92,62.867 213.48,65.447 213.72,65.867 "/>
<rect x="126.18" y="62.808" width="0.24" height="0.48"/>
<rect x="126.42" y="62.808" width="87.18" height="0.48"/>
<text transform="matrix(1 0 0 1 151.6201 60.708)"><tspan x="0" y="0" style="font-family:'ProductusBook'; font-size:7.98;">send</tspan><tspan x="13.693" y="0" style="font-family:'ProductusBook'; font-size:7.98;">E</tspan><tspan x="16.934" y="0" style="font-family:'ProductusBook'; font-size:7.98;">v</tspan><tspan x="20.053" y="0" style="font-family:'ProductusBook'; font-size:7.98;">ent</tspan></text>
<polyline points="192.54,15.228 246.9,15.228 246.9,41.808 192.54,41.808 "/>
<rect x="192.54" y="14.988" width="54.601" height="0.48"/>
<rect x="246.66" y="15.228" width="0.48" height="26.82"/>
<rect x="192.3" y="41.567" width="54.6" height="0.48"/>
<rect x="192.3" y="14.988" width="0.479" height="26.82"/>
<rect x="190.2" y="13.428" style="fill:#FFFFFF;" width="54.301" height="26.58"/>
<rect x="190.2" y="13.188" width="54.54" height="0.48"/>
<rect x="244.26" y="13.428" width="0.479" height="26.82"/>
<rect x="189.96" y="39.768" width="54.54" height="0.48"/>
<rect x="189.96" y="13.188" width="0.479" height="26.82"/>
<text transform="matrix(1 0 0 1 192.5396 20.5674)"><tspan x="0" y="0" style="font-family:'ProductusOSGiBookc'; font-size:7.98;">&lt;&lt;ser</tspan><tspan x="14.388" y="0" style="font-family:'ProductusOSGiBookc'; font-size:7.98;">v</tspan><tspan x="17.516" y="0" style="font-family:'ProductusOSGiBookc'; font-size:7.98;">i</tspan><tspan x="19.071" y="0" style="font-family:'ProductusOSGiBookc'; font-size:7.98;">ce&gt;</tspan><tspan x="28.56" y="0" style="font-family:'ProductusOSGiBookc'; font-size:7.98;">&gt;</tspan></text>
<text transform="matrix(1 0 0 1 192.5396 29.0278)"><tspan x="0" y="0" style="font-family:'ProductusSemibold'; font-size:7.98;">E</tspan><tspan x="3.838" y="0" style="font-family:'ProductusSemibold'; font-size:7.98;">v</tspan><tspan x="7.732" y="0" style="font-family:'ProductusSemibold'; font-size:7.98;">ent</tspan><tspan x="19.224" y="0" style="font-family:'ProductusSemibold'; font-size:7.98;"> </tspan><tspan x="21.258" y="0" style="font-family:'ProductusSemibold'; font-size:7.98;">A</tspan><tspan x="26.11" y="0" style="font-family:'ProductusSemibold'; font-size:7.98;">dmi</tspan><tspan x="38.941" y="0" style="font-family:'ProductusSemibold'; font-size:7.98;">n</tspan></text>
<polyline style="fill-rule:evenodd;clip-rule:evenodd;" points="245.94,27.587 232.68,41.808 245.94,41.808 "/>
<polyline points="246.18,27.587 246.18,27.708 246.12,27.768 232.86,41.987 232.68,42.048 232.14,42.048 232.5,41.688 
	245.76,27.468 246.12,27.768 245.7,27.587 "/>
<rect x="232.68" y="41.567" width="13.5" height="0.48"/>
<rect x="245.7" y="27.587" width="0.48" height="14.22"/>
<rect x="218.28" y="41.567" width="0.48" height="0.24"/>
<rect x="218.28" y="41.808" width="0.48" height="49.86"/>
<rect x="284.7" y="15.228" width="54.301" height="26.58"/>
<rect x="284.7" y="14.988" width="54.54" height="0.48"/>
<rect x="338.76" y="15.228" width="0.479" height="26.82"/>
<rect x="284.46" y="41.567" width="54.54" height="0.48"/>
<rect x="284.46" y="14.988" width="0.479" height="26.82"/>
<rect x="282.3" y="13.428" style="fill:#FFFFFF;" width="54.359" height="26.58"/>
<rect x="282.3" y="13.188" width="54.6" height="0.48"/>
<rect x="336.42" y="13.428" width="0.479" height="26.82"/>
<rect x="282.06" y="39.768" width="54.6" height="0.48"/>
<rect x="282.06" y="13.188" width="0.479" height="26.82"/>
<text transform="matrix(1 0 0 1 284.6997 20.5674)"><tspan x="0" y="0" style="font-family:'ProductusOSGiBookc'; font-size:7.98;">&lt;&lt;serv</tspan><tspan x="17.548" y="0" style="font-family:'ProductusOSGiBookc'; font-size:7.98;">i</tspan><tspan x="19.056" y="0" style="font-family:'ProductusOSGiBookc'; font-size:7.98;">c</tspan><tspan x="22.176" y="0" style="font-family:'ProductusOSGiBookc'; font-size:7.98;">e</tspan><tspan x="25.655" y="0" style="font-family:'ProductusOSGiBookc'; font-size:7.98;">&gt;</tspan><tspan x="28.536" y="0" style="font-family:'ProductusOSGiBookc'; font-size:7.98;">&gt;</tspan></text>
<text transform="matrix(1 0 0 1 284.6997 29.0278)"><tspan x="0" y="0" style="font-family:'ProductusSemibold'; font-size:7.98;">Ev</tspan><tspan x="7.796" y="0" style="font-family:'ProductusSemibold'; font-size:7.98;">e</tspan><tspan x="11.874" y="0" style="font-family:'ProductusSemibold'; font-size:7.98;">n</tspan><tspan x="16.191" y="0" style="font-family:'ProductusSemibold'; font-size:7.98;">t</tspan><tspan x="19.312" y="0" style="font-family:'ProductusSemibold'; font-size:7.98;"> </tspan><tspan x="21.29" y="0" style="font-family:'ProductusSemibold'; font-size:7.98;">H</tspan><tspan x="26.685" y="0" style="font-family:'ProductusSemibold'; font-size:7.98;">a</tspan><tspan x="30.643" y="0" style="font-family:'ProductusSemibold'; font-size:7.98;">n</tspan><tspan x="34.96" y="0" style="font-family:'ProductusSemibold'; font-size:7.98;">d</tspan><tspan x="39.276" y="0" style="font-family:'ProductusSemibold'; font-size:7.98;">l</tspan><tspan x="41.432" y="0" style="font-family:'ProductusSemibold'; font-size:7.98;">e</tspan><tspan x="45.564" y="0" style="font-family:'ProductusSemibold'; font-size:7.98;">r</tspan></text>
<polyline style="fill-rule:evenodd;clip-rule:evenodd;" points="339,27.587 324.84,41.808 339,41.808 "/>
<polyline points="339.24,27.587 339.24,27.708 339.18,27.768 325.02,41.987 324.84,42.048 324.24,42.048 324.66,41.628 
	338.82,27.408 339.18,27.768 338.76,27.587 "/>
<rect x="324.84" y="41.567" width="14.399" height="0.48"/>
<rect x="338.76" y="27.587" width="0.479" height="14.22"/>
<text transform="matrix(1 0 0 1 283.7397 6.6475)"><tspan x="0" y="0" style="font-family:'ProductusBook'; font-size:7.98;">l</tspan><tspan x="1.564" y="0" style="font-family:'ProductusBook'; font-size:7.98;">o</tspan><tspan x="5.402" y="0" style="font-family:'ProductusBook'; font-size:7.98;">c</tspan><tspan x="8.49" y="0" style="font-family:'ProductusBook'; font-size:7.98;">a</tspan><tspan x="11.851" y="0" style="font-family:'ProductusBook'; font-size:7.98;">l</tspan><tspan x="13.414" y="0" style="font-family:'ProductusBook'; font-size:7.98;"> </tspan><tspan x="14.979" y="0" style="font-family:'ProductusBook'; font-size:7.98;">a</tspan><tspan x="18.338" y="0" style="font-family:'ProductusBook'; font-size:7.98;">d</tspan><tspan x="22.001" y="0" style="font-family:'ProductusBook'; font-size:7.98;">m</tspan><tspan x="27.754" y="0" style="font-family:'ProductusBook'; font-size:7.98;">i</tspan><tspan x="29.374" y="0" style="font-family:'ProductusBook'; font-size:7.98;">nistrator</tspan></text>
<text transform="matrix(1 0 0 1 0 6.6475)"><tspan x="0" y="0" style="font-family:'ProductusBook'; font-size:7.98;">Status</tspan><tspan x="18.266" y="0" style="font-family:'ProductusBook'; font-size:7.98;"> </tspan><tspan x="19.886" y="0" style="font-family:'ProductusBook'; font-size:7.98;">V</tspan><tspan x="23.493" y="0" style="font-family:'ProductusBook'; font-size:7.98;">a</tspan><tspan x="26.852" y="0" style="font-family:'ProductusBook'; font-size:7.98;">r</tspan><tspan x="29.079" y="0" style="font-family:'ProductusBook'; font-size:7.98;">i</tspan><tspan x="30.69" y="0" style="font-family:'ProductusBook'; font-size:7.98;">able</tspan><tspan x="42.772" y="0" style="font-family:'ProductusBook'; font-size:7.98;"> </tspan><tspan x="44.384" y="0" style="font-family:'ProductusBook'; font-size:7.98;">Pr</tspan><tspan x="49.954" y="0" style="font-family:'ProductusBook'; font-size:7.98;">o</tspan><tspan x="53.617" y="0" style="font-family:'ProductusBook'; font-size:7.98;">v</tspan><tspan x="56.849" y="0" style="font-family:'ProductusBook'; font-size:7.98;">ide</tspan><tspan x="65.61" y="0" style="font-family:'ProductusBook'; font-size:7.98; letter-spacing:30;">r</tspan><tspan x="97.89" y="0" style="font-family:'ProductusBook'; font-size:7.98;">M</tspan><tspan x="103.827" y="0" style="font-family:'ProductusBook'; font-size:7.98;">onitor</tspan><tspan x="121.279" y="0" style="font-family:'ProductusBook'; font-size:7.98;"> </tspan><tspan x="122.898" y="0" style="font-family:'ProductusBook'; font-size:7.98;">A</tspan><tspan x="126.865" y="0" style="font-family:'ProductusBook'; font-size:7.98;">d</tspan><tspan x="130.527" y="0" style="font-family:'ProductusBook'; font-size:7.98;">m</tspan><tspan x="136.281" y="0" style="font-family:'ProductusBook'; font-size:7.98;">i</tspan><tspan x="137.893" y="0" style="font-family:'ProductusBook'; font-size:7.98;">n</tspan><tspan x="141.572" y="0" style="font-family:'ProductusBook'; font-size:7.98;"> </tspan><tspan x="143.191" y="0" style="font-family:'ProductusBook'; font-size:7.98;">impl</tspan></text>
<rect x="305.46" y="76.968" width="4.68" height="0.479"/>
<polyline points="305.82,74.508 305.58,74.928 310.02,77.447 310.26,77.447 310.68,77.208 310.26,77.027 "/>
<polyline points="310.26,77.447 310.02,77.027 305.58,79.607 305.82,80.027 "/>
<rect x="232.44" y="76.968" width="0.24" height="0.479"/>
<rect x="232.68" y="76.968" width="73.02" height="0.479"/>
<rect x="232.44" y="62.808" width="0.48" height="0.24"/>
<rect x="232.44" y="63.048" width="0.48" height="28.62"/>
<text transform="matrix(1 0 0 1 239.52 74.8672)"><tspan x="0" y="0" style="font-family:'ProductusBook'; font-size:7.98;">ha</tspan><tspan x="6.958" y="0" style="font-family:'ProductusBook'; font-size:7.98;">n</tspan><tspan x="10.677" y="0" style="font-family:'ProductusBook'; font-size:7.98;">d</tspan><tspan x="14.396" y="0" style="font-family:'ProductusBook'; font-size:7.98;">le</tspan><tspan x="19.431" y="0" style="font-family:'ProductusBook'; font-size:7.98;">E</tspan><tspan x="22.671" y="0" style="font-family:'ProductusBook'; font-size:7.98;">v</tspan><tspan x="25.791" y="0" style="font-family:'ProductusBook'; font-size:7.98;">e</tspan><tspan x="29.326" y="0" style="font-family:'ProductusBook'; font-size:7.98;">n</tspan><tspan x="32.989" y="0" style="font-family:'ProductusBook'; font-size:7.98;">t</tspan><tspan x="35.383" y="0" style="font-family:'ProductusBook'; font-size:7.98;">(</tspan><tspan x="37.489" y="0" style="font-family:'ProductusBook'; font-size:7.98;">e</tspan><tspan x="40.977" y="0" style="font-family:'ProductusBook'; font-size:7.98;">v</tspan><tspan x="44.097" y="0" style="font-family:'ProductusBook'; font-size:7.98;">e</tspan><tspan x="47.584" y="0" style="font-family:'ProductusBook'; font-size:7.98;">n</tspan><tspan x="51.303" y="0" style="font-family:'ProductusBook'; font-size:7.98;">t</tspan><tspan x="53.585" y="0" style="font-family:'ProductusBook'; font-size:7.98;">)</tspan></text>
<text transform="matrix(1 0 0 1 225.3599 61.1875)" style="font-family:'ProductusBook'; font-size:7.98;">async</text>
<rect x="124.44" y="53.987" width="4.02" height="1.98"/>
<rect x="124.44" y="55.968" width="4.02" height="16.14"/>
</svg>
