<?xml version="1.0" encoding="utf-8"?>
<!-- Generator: Adobe Illustrator 16.0.0, SVG Export Plug-In . SVG Version: 6.00 Build 0)  -->
<!DOCTYPE svg PUBLIC "-//W3C//DTD SVG 1.1//EN" "http://www.w3.org/Graphics/SVG/1.1/DTD/svg11.dtd">
<svg version="1.1" id="Layer_1" xmlns="http://www.w3.org/2000/svg" xmlns:xlink="http://www.w3.org/1999/xlink" x="0px" y="0px"
	 width="319.14px" height="277.32px" viewBox="0 0 319.14 277.32" style="enable-background:new 0 0 319.14 277.32;"
	 xml:space="preserve">
<rect x="248.279" style="fill:#E6E6E6;" width="70.86" height="43.2"/>
<rect x="2.58" y="193.08" width="54.3" height="26.58"/>
<rect x="2.58" y="192.84" width="54.54" height="0.48"/>
<rect x="56.64" y="193.08" width="0.48" height="26.82"/>
<rect x="2.34" y="219.42" width="54.54" height="0.48"/>
<rect x="2.34" y="192.84" width="0.48" height="26.82"/>
<rect x="0.24" y="191.34" style="fill:#FFFFFF;" width="54.3" height="26.58"/>
<rect x="0.24" y="191.1" width="54.54" height="0.48"/>
<rect x="54.3" y="191.34" width="0.48" height="26.82"/>
<rect y="217.68" width="54.54" height="0.48"/>
<rect y="191.1" width="0.48" height="26.82"/>
<text transform="matrix(1 0 0 1 2.5796 198.4199)"><tspan x="0" y="0" style="font-family:'ProductusOSGiBookc'; font-size:7.98;">&lt;&lt;i</tspan><tspan x="7.413" y="0" style="font-family:'ProductusOSGiBookc'; font-size:7.98;">n</tspan><tspan x="11.02" y="0" style="font-family:'ProductusOSGiBookc'; font-size:7.98;">terface&gt;</tspan><tspan x="33.842" y="0" style="font-family:'ProductusOSGiBookc'; font-size:7.98;">&gt;</tspan></text>
<text transform="matrix(1 0 0 1 2.5796 206.9404)"><tspan x="0" y="0" style="font-family:'ProductusSemibold'; font-size:7.98;">C</tspan><tspan x="4.74" y="0" style="font-family:'ProductusSemibold'; font-size:7.98;">on</tspan><tspan x="13.318" y="0" style="font-family:'ProductusSemibold'; font-size:7.98;">d</tspan><tspan x="17.691" y="0" style="font-family:'ProductusSemibold'; font-size:7.98;">itio</tspan><tspan x="29.445" y="0" style="font-family:'ProductusSemibold'; font-size:7.98;">n</tspan><tspan x="33.762" y="0" style="font-family:'ProductusSemibold'; font-size:7.98;">a</tspan><tspan x="37.72" y="0" style="font-family:'ProductusSemibold'; font-size:7.98;">l</tspan><tspan x="39.883" y="0" style="font-family:'ProductusSemibold'; font-size:7.98;"> </tspan></text>
<text transform="matrix(1 0 0 1 2.5796 215.4609)"><tspan x="0" y="0" style="font-family:'ProductusSemibold'; font-size:7.98;">P</tspan><tspan x="3.958" y="0" style="font-family:'ProductusSemibold'; font-size:7.98;">er</tspan><tspan x="11.084" y="0" style="font-family:'ProductusSemibold'; font-size:7.98;">m</tspan><tspan x="17.436" y="0" style="font-family:'ProductusSemibold'; font-size:7.98;">.</tspan><tspan x="19.71" y="0" style="font-family:'ProductusSemibold'; font-size:7.98;"> </tspan><tspan x="21.689" y="0" style="font-family:'ProductusSemibold'; font-size:7.98;">A</tspan><tspan x="26.541" y="0" style="font-family:'ProductusSemibold'; font-size:7.98;">d</tspan><tspan x="30.858" y="0" style="font-family:'ProductusSemibold'; font-size:7.98;">m</tspan><tspan x="37.218" y="0" style="font-family:'ProductusSemibold'; font-size:7.98;">i</tspan><tspan x="39.373" y="0" style="font-family:'ProductusSemibold'; font-size:7.98;">n</tspan></text>
<text transform="matrix(1 0 0 1 105.1196 58.5)"><tspan x="0" y="0" style="font-family:'ProductusBook'; font-size:7.98;">selec</tspan><tspan x="14.516" y="0" style="font-family:'ProductusBook'; font-size:7.98;">t</tspan><tspan x="16.861" y="0" style="font-family:'ProductusBook'; font-size:7.98;">s</tspan><tspan x="19.734" y="0" style="font-family:'ProductusBook'; font-size:7.98;"> </tspan><tspan x="21.298" y="0" style="font-family:'ProductusBook'; font-size:7.98;">b</tspan><tspan x="24.905" y="0" style="font-family:'ProductusBook'; font-size:7.98;">y</tspan></text>
<polyline style="fill-rule:evenodd;clip-rule:evenodd;" points="56.88,205.5 42.72,219.66 56.88,219.66 "/>
<polyline points="57.06,205.68 42.9,219.84 42.72,219.9 42.12,219.9 56.7,205.32 "/>
<rect x="42.72" y="219.42" width="14.4" height="0.48"/>
<polyline points="56.64,219.66 56.64,205.5 56.7,205.32 57.12,204.9 57.12,219.66 "/>
<rect x="172.68" y="137.1" width="54.3" height="26.58"/>
<rect x="172.68" y="136.86" width="54.54" height="0.479"/>
<rect x="226.74" y="137.1" width="0.479" height="26.82"/>
<rect x="172.439" y="163.439" width="54.54" height="0.48"/>
<rect x="172.439" y="136.86" width="0.48" height="26.819"/>
<rect x="170.279" y="135.3" style="fill:#FFFFFF;" width="54.36" height="26.58"/>
<rect x="170.279" y="135.06" width="54.601" height="0.48"/>
<rect x="224.399" y="135.3" width="0.48" height="26.82"/>
<rect x="170.04" y="161.64" width="54.6" height="0.48"/>
<rect x="170.04" y="135.06" width="0.479" height="26.82"/>
<text transform="matrix(1 0 0 1 172.6797 142.4404)"><tspan x="0" y="0" style="font-family:'ProductusOSGiBookc'; font-size:7.98;">&lt;&lt;</tspan><tspan x="5.873" y="0" style="font-family:'ProductusOSGiBookc'; font-size:7.98;">i</tspan><tspan x="7.381" y="0" style="font-family:'ProductusOSGiBookc'; font-size:7.98;">nte</tspan><tspan x="16.854" y="0" style="font-family:'ProductusOSGiBookc'; font-size:7.98;">r</tspan><tspan x="19.071" y="0" style="font-family:'ProductusOSGiBookc'; font-size:7.98;">f</tspan><tspan x="21.074" y="0" style="font-family:'ProductusOSGiBookc'; font-size:7.98;">a</tspan><tspan x="24.354" y="0" style="font-family:'ProductusOSGiBookc'; font-size:7.98;">c</tspan><tspan x="27.475" y="0" style="font-family:'ProductusOSGiBookc'; font-size:7.98;">e</tspan><tspan x="30.954" y="0" style="font-family:'ProductusOSGiBookc'; font-size:7.98;">&gt;</tspan><tspan x="33.834" y="0" style="font-family:'ProductusOSGiBookc'; font-size:7.98;">&gt;</tspan></text>
<text transform="matrix(1 0 0 1 172.6797 150.9004)"><tspan x="0" y="0" style="font-family:'ProductusSemibold'; font-size:7.98;">C</tspan><tspan x="4.74" y="0" style="font-family:'ProductusSemibold'; font-size:7.98;">ond</tspan><tspan x="17.636" y="0" style="font-family:'ProductusSemibold'; font-size:7.98;">i</tspan><tspan x="19.854" y="0" style="font-family:'ProductusSemibold'; font-size:7.98;">t</tspan><tspan x="22.974" y="0" style="font-family:'ProductusSemibold'; font-size:7.98;">ion</tspan><tspan x="33.715" y="0" style="font-family:'ProductusSemibold'; font-size:7.98;"> </tspan><tspan x="35.574" y="0" style="font-family:'ProductusSemibold'; font-size:7.98;">I</tspan><tspan x="37.848" y="0" style="font-family:'ProductusSemibold'; font-size:7.98;">n</tspan><tspan x="42.102" y="0" style="font-family:'ProductusSemibold'; font-size:7.98;">f</tspan><tspan x="44.854" y="0" style="font-family:'ProductusSemibold'; font-size:7.98;">o</tspan></text>
<rect x="257.7" y="137.1" width="54.359" height="26.58"/>
<rect x="257.7" y="136.86" width="54.6" height="0.479"/>
<rect x="311.819" y="137.1" width="0.48" height="26.82"/>
<rect x="257.46" y="163.439" width="54.6" height="0.48"/>
<rect x="257.46" y="136.86" width="0.479" height="26.819"/>
<rect x="255.359" y="135.3" style="fill:#FFFFFF;" width="54.301" height="26.58"/>
<rect x="255.359" y="135.06" width="54.54" height="0.48"/>
<rect x="309.42" y="135.3" width="0.479" height="26.82"/>
<rect x="255.12" y="161.64" width="54.54" height="0.48"/>
<rect x="255.12" y="135.06" width="0.479" height="26.82"/>
<text transform="matrix(1 0 0 1 257.7002 142.4404)"><tspan x="0" y="0" style="font-family:'ProductusOSGiBookc'; font-size:7.98;">&lt;&lt;interface&gt;</tspan><tspan x="33.891" y="0" style="font-family:'ProductusOSGiBookc'; font-size:7.98;">&gt;</tspan></text>
<text transform="matrix(1 0 0 1 257.7002 150.9004)"><tspan x="0" y="0" style="font-family:'ProductusSemibold'; font-size:7.98;">C</tspan><tspan x="4.74" y="0" style="font-family:'ProductusSemibold'; font-size:7.98;">on</tspan><tspan x="13.318" y="0" style="font-family:'ProductusSemibold'; font-size:7.98;">d</tspan><tspan x="17.691" y="0" style="font-family:'ProductusSemibold'; font-size:7.98;">iti</tspan><tspan x="25.128" y="0" style="font-family:'ProductusSemibold'; font-size:7.98;">o</tspan><tspan x="29.501" y="0" style="font-family:'ProductusSemibold'; font-size:7.98;">n</tspan></text>
<rect x="257.88" y="193.8" width="57.899" height="26.58"/>
<rect x="257.88" y="193.56" width="58.14" height="0.48"/>
<rect x="315.54" y="193.8" width="0.479" height="26.82"/>
<rect x="257.64" y="220.14" width="58.14" height="0.48"/>
<rect x="257.64" y="193.56" width="0.48" height="26.82"/>
<rect x="255.359" y="192" style="fill:#FFFFFF;" width="57.9" height="26.58"/>
<rect x="255.359" y="191.76" width="58.141" height="0.48"/>
<rect x="313.02" y="192" width="0.48" height="26.82"/>
<rect x="255.12" y="218.34" width="58.14" height="0.48"/>
<rect x="255.12" y="191.76" width="0.479" height="26.82"/>
<text transform="matrix(1 0 0 1 257.8799 199.1396)"><tspan x="0" y="0" style="font-family:'ProductusOSGiBookc'; font-size:7.98;">&lt;&lt;</tspan><tspan x="5.873" y="0" style="font-family:'ProductusOSGiBookc'; font-size:7.98;">i</tspan><tspan x="7.381" y="0" style="font-family:'ProductusOSGiBookc'; font-size:7.98;">nte</tspan><tspan x="16.854" y="0" style="font-family:'ProductusOSGiBookc'; font-size:7.98;">r</tspan><tspan x="19.071" y="0" style="font-family:'ProductusOSGiBookc'; font-size:7.98;">f</tspan><tspan x="21.074" y="0" style="font-family:'ProductusOSGiBookc'; font-size:7.98;">a</tspan><tspan x="24.354" y="0" style="font-family:'ProductusOSGiBookc'; font-size:7.98;">c</tspan><tspan x="27.475" y="0" style="font-family:'ProductusOSGiBookc'; font-size:7.98;">e</tspan><tspan x="30.954" y="0" style="font-family:'ProductusOSGiBookc'; font-size:7.98;">&gt;</tspan><tspan x="33.834" y="0" style="font-family:'ProductusOSGiBookc'; font-size:7.98;">&gt;</tspan></text>
<text transform="matrix(1 0 0 1 257.8799 207.6006)"><tspan x="0" y="0" style="font-family:'ProductusSemibold'; font-size:7.98;">P</tspan><tspan x="3.958" y="0" style="font-family:'ProductusSemibold'; font-size:7.98;">ermission</tspan><tspan x="37.122" y="0" style="font-family:'ProductusSemibold'; font-size:7.98;"> </tspan><tspan x="38.854" y="0" style="font-family:'ProductusSemibold'; font-size:7.98;">In</tspan><tspan x="45.381" y="0" style="font-family:'ProductusSemibold'; font-size:7.98;">f</tspan><tspan x="48.078" y="0" style="font-family:'ProductusSemibold'; font-size:7.98;">o</tspan></text>
<rect x="56.64" y="205.92" width="28.86" height="0.48"/>
<rect x="141.72" y="205.92" width="28.8" height="0.48"/>
<rect x="2.58" y="250.5" width="54.3" height="26.58"/>
<rect x="2.58" y="250.26" width="54.54" height="0.48"/>
<rect x="56.64" y="250.5" width="0.48" height="26.82"/>
<rect x="2.34" y="276.84" width="54.54" height="0.48"/>
<rect x="2.34" y="250.26" width="0.48" height="26.82"/>
<rect x="0.24" y="248.7" style="fill:#FFFFFF;" width="54.3" height="26.58"/>
<rect x="0.24" y="248.46" width="54.54" height="0.479"/>
<rect x="54.3" y="248.7" width="0.48" height="26.819"/>
<rect y="275.04" width="54.54" height="0.479"/>
<rect y="248.46" width="0.48" height="26.82"/>
<text transform="matrix(1 0 0 1 2.5796 255.8398)"><tspan x="0" y="0" style="font-family:'ProductusOSGiBookc'; font-size:7.98;">C</tspan><tspan x="4.206" y="0" style="font-family:'ProductusOSGiBookc'; font-size:7.98;">o</tspan><tspan x="7.932" y="0" style="font-family:'ProductusOSGiBookc'; font-size:7.98;">nditi</tspan><tspan x="20.715" y="0" style="font-family:'ProductusOSGiBookc'; font-size:7.98;">o</tspan><tspan x="24.442" y="0" style="font-family:'ProductusOSGiBookc'; font-size:7.98;">nal</tspan><tspan x="32.949" y="0" style="font-family:'ProductusOSGiBookc'; font-size:7.98;"> </tspan></text>
<text transform="matrix(1 0 0 1 2.5796 264.3008)"><tspan x="0" y="0" style="font-family:'ProductusOSGiBookc'; font-size:7.98;">P</tspan><tspan x="3" y="0" style="font-family:'ProductusOSGiBookc'; font-size:7.98;">e</tspan><tspan x="6.479" y="0" style="font-family:'ProductusOSGiBookc'; font-size:7.98;">rm</tspan><tspan x="14.452" y="0" style="font-family:'ProductusOSGiBookc'; font-size:7.98;">i</tspan><tspan x="15.959" y="0" style="font-family:'ProductusOSGiBookc'; font-size:7.98;">ss</tspan><tspan x="21.594" y="0" style="font-family:'ProductusOSGiBookc'; font-size:7.98;">i</tspan><tspan x="23.102" y="0" style="font-family:'ProductusOSGiBookc'; font-size:7.98;">on</tspan><tspan x="30.539" y="0" style="font-family:'ProductusOSGiBookc'; font-size:7.98;"> </tspan></text>
<text transform="matrix(1 0 0 1 2.5796 272.8203)"><tspan x="0" y="0" style="font-family:'ProductusOSGiBookc'; font-size:7.98;">A</tspan><tspan x="3.902" y="0" style="font-family:'ProductusOSGiBookc'; font-size:7.98;">d</tspan><tspan x="7.565" y="0" style="font-family:'ProductusOSGiBookc'; font-size:7.98;">m</tspan><tspan x="13.318" y="0" style="font-family:'ProductusOSGiBookc'; font-size:7.98;">i</tspan><tspan x="14.827" y="0" style="font-family:'ProductusOSGiBookc'; font-size:7.98;">n</tspan><tspan x="18.481" y="0" style="font-family:'ProductusOSGiBookc'; font-size:7.98;"> </tspan><tspan x="20.101" y="0" style="font-family:'ProductusOSGiBookc'; font-size:7.98;">I</tspan><tspan x="21.657" y="0" style="font-family:'ProductusOSGiBookc'; font-size:7.98;">m</tspan><tspan x="27.363" y="0" style="font-family:'ProductusOSGiBookc'; font-size:7.98;">p</tspan><tspan x="31.026" y="0" style="font-family:'ProductusOSGiBookc'; font-size:7.98;">l</tspan><tspan x="32.582" y="0" style="font-family:'ProductusOSGiBookc'; font-size:7.98;">.</tspan></text>
<polyline points="28.56,231.18 25.26,231.18 25.44,230.52 28.08,221.34 28.56,219.66 29.04,221.34 31.68,230.52 31.86,231.18 
	31.2,231.18 30.72,230.82 28.08,221.64 29.04,221.34 29.04,221.64 26.4,230.82 25.44,230.52 25.92,230.16 28.56,230.16 "/>
<rect x="28.56" y="230.16" width="2.64" height="1.02"/>
<polyline style="fill-rule:evenodd;clip-rule:evenodd;" points="28.56,230.7 25.92,230.7 28.56,221.52 31.2,230.7 "/>
<rect x="28.32" y="231" width="0.48" height="17.939"/>
<rect x="257.7" y="250.5" width="54.359" height="26.58"/>
<rect x="257.7" y="250.26" width="54.6" height="0.48"/>
<rect x="311.819" y="250.5" width="0.48" height="26.82"/>
<rect x="257.46" y="276.84" width="54.6" height="0.48"/>
<rect x="257.46" y="250.26" width="0.479" height="26.82"/>
<rect x="255.359" y="248.7" style="fill:#FFFFFF;" width="54.301" height="26.58"/>
<rect x="255.359" y="248.46" width="54.54" height="0.479"/>
<rect x="309.42" y="248.7" width="0.479" height="26.819"/>
<rect x="255.12" y="275.04" width="54.54" height="0.479"/>
<rect x="255.12" y="248.46" width="0.479" height="26.82"/>
<text transform="matrix(1 0 0 1 257.7002 255.8398)"><tspan x="0" y="0" style="font-family:'ProductusOSGiBookc'; font-size:7.98;">P</tspan><tspan x="3" y="0" style="font-family:'ProductusOSGiBookc'; font-size:7.98;">e</tspan><tspan x="6.479" y="0" style="font-family:'ProductusOSGiBookc'; font-size:7.98;">rm</tspan><tspan x="14.451" y="0" style="font-family:'ProductusOSGiBookc'; font-size:7.98;">i</tspan><tspan x="15.96" y="0" style="font-family:'ProductusOSGiBookc'; font-size:7.98;">ssi</tspan><tspan x="23.142" y="0" style="font-family:'ProductusOSGiBookc'; font-size:7.98;">o</tspan><tspan x="26.868" y="0" style="font-family:'ProductusOSGiBookc'; font-size:7.98;">n</tspan></text>
<rect x="2.58" y="8.82" width="54.3" height="26.58"/>
<rect x="2.58" y="8.58" width="54.54" height="0.479"/>
<rect x="56.64" y="8.82" width="0.48" height="26.819"/>
<rect x="2.34" y="35.16" width="54.54" height="0.479"/>
<rect x="2.34" y="8.58" width="0.48" height="26.82"/>
<rect x="0.24" y="7.08" style="fill:#FFFFFF;" width="54.3" height="26.58"/>
<rect x="0.24" y="6.84" width="54.54" height="0.48"/>
<rect x="54.3" y="7.08" width="0.48" height="26.82"/>
<rect y="33.42" width="54.54" height="0.48"/>
<rect y="6.84" width="0.48" height="26.82"/>
<text transform="matrix(1 0 0 1 2.5796 14.1602)"><tspan x="0" y="0" style="font-family:'ProductusOSGiBookc'; font-size:7.98;">M</tspan><tspan x="5.849" y="0" style="font-family:'ProductusOSGiBookc'; font-size:7.98;">a</tspan><tspan x="9.097" y="0" style="font-family:'ProductusOSGiBookc'; font-size:7.98;">nage</tspan><tspan x="23.014" y="0" style="font-family:'ProductusOSGiBookc'; font-size:7.98;">r</tspan><tspan x="25.232" y="0" style="font-family:'ProductusOSGiBookc'; font-size:7.98;"> </tspan><tspan x="26.852" y="0" style="font-family:'ProductusOSGiBookc'; font-size:7.98;">I</tspan><tspan x="28.416" y="0" style="font-family:'ProductusOSGiBookc'; font-size:7.98;">m</tspan><tspan x="34.122" y="0" style="font-family:'ProductusOSGiBookc'; font-size:7.98;">p</tspan><tspan x="37.785" y="0" style="font-family:'ProductusOSGiBookc'; font-size:7.98;">l</tspan><tspan x="39.341" y="0" style="font-family:'ProductusOSGiBookc'; font-size:7.98;">.</tspan></text>
<rect x="28.32" y="35.16" width="0.48" height="156.42"/>
<rect x="87.6" y="250.5" width="54.36" height="26.58"/>
<rect x="87.6" y="250.26" width="54.601" height="0.48"/>
<rect x="141.72" y="250.5" width="0.48" height="26.82"/>
<rect x="87.36" y="276.84" width="54.6" height="0.48"/>
<rect x="87.36" y="250.26" width="0.48" height="26.82"/>
<rect x="85.26" y="248.7" style="fill:#FFFFFF;" width="54.3" height="26.58"/>
<rect x="85.26" y="248.46" width="54.54" height="0.479"/>
<rect x="139.319" y="248.7" width="0.48" height="26.819"/>
<rect x="85.02" y="275.04" width="54.54" height="0.479"/>
<rect x="85.02" y="248.46" width="0.48" height="26.82"/>
<text transform="matrix(1 0 0 1 87.5996 255.8398)"><tspan x="0" y="0" style="font-family:'ProductusOSGiBookc'; font-size:7.98;">B</tspan><tspan x="3.487" y="0" style="font-family:'ProductusOSGiBookc'; font-size:7.98;">undleP</tspan><tspan x="22.734" y="0" style="font-family:'ProductusOSGiBookc'; font-size:7.98;">r</tspan><tspan x="24.777" y="0" style="font-family:'ProductusOSGiBookc'; font-size:7.98;">otect</tspan><tspan x="39.771" y="0" style="font-family:'ProductusOSGiBookc'; font-size:7.98;">i</tspan><tspan x="41.279" y="0" style="font-family:'ProductusOSGiBookc'; font-size:7.98;">on</tspan><tspan x="48.701" y="0" style="font-family:'ProductusOSGiBookc'; font-size:7.98;"> </tspan></text>
<text transform="matrix(1 0 0 1 87.5996 264.3008)"><tspan x="0" y="0" style="font-family:'ProductusOSGiBookc'; font-size:7.98;">D</tspan><tspan x="4.86" y="0" style="font-family:'ProductusOSGiBookc'; font-size:7.98;">o</tspan><tspan x="8.634" y="0" style="font-family:'ProductusOSGiBookc'; font-size:7.98;">m</tspan><tspan x="14.388" y="0" style="font-family:'ProductusOSGiBookc'; font-size:7.98;">a</tspan><tspan x="17.627" y="0" style="font-family:'ProductusOSGiBookc'; font-size:7.98;">i</tspan><tspan x="19.184" y="0" style="font-family:'ProductusOSGiBookc'; font-size:7.98;">n</tspan></text>
<rect x="87.6" y="80.4" width="54.36" height="26.579"/>
<rect x="87.6" y="80.16" width="54.601" height="0.479"/>
<rect x="141.72" y="80.4" width="0.48" height="26.819"/>
<rect x="87.36" y="106.74" width="54.6" height="0.479"/>
<rect x="87.36" y="80.16" width="0.48" height="26.819"/>
<rect x="85.26" y="78.6" style="fill:#FFFFFF;" width="54.3" height="26.58"/>
<rect x="85.26" y="78.36" width="54.54" height="0.479"/>
<rect x="139.319" y="78.6" width="0.48" height="26.82"/>
<rect x="85.02" y="104.939" width="54.54" height="0.48"/>
<rect x="85.02" y="78.36" width="0.48" height="26.819"/>
<text transform="matrix(1 0 0 1 87.5996 85.7402)"><tspan x="0" y="0" style="font-family:'ProductusOSGiBookc'; font-size:7.98;">&lt;</tspan><tspan x="2.889" y="0" style="font-family:'ProductusOSGiBookc'; font-size:7.98;">&lt;</tspan><tspan x="5.825" y="0" style="font-family:'ProductusOSGiBookc'; font-size:7.98;">c</tspan><tspan x="8.945" y="0" style="font-family:'ProductusOSGiBookc'; font-size:7.98;">l</tspan><tspan x="10.453" y="0" style="font-family:'ProductusOSGiBookc'; font-size:7.98;">as</tspan><tspan x="16.566" y="0" style="font-family:'ProductusOSGiBookc'; font-size:7.98;">s</tspan><tspan x="19.327" y="0" style="font-family:'ProductusOSGiBookc'; font-size:7.98;">&gt;</tspan><tspan x="22.264" y="0" style="font-family:'ProductusOSGiBookc'; font-size:7.98;">&gt;</tspan></text>
<text transform="matrix(1 0 0 1 87.5996 94.2002)"><tspan x="0" y="0" style="font-family:'ProductusSemibold'; font-size:7.98;">Bu</tspan><tspan x="8.53" y="0" style="font-family:'ProductusSemibold'; font-size:7.98;">n</tspan><tspan x="12.848" y="0" style="font-family:'ProductusSemibold'; font-size:7.98;">dle</tspan><tspan x="23.445" y="0" style="font-family:'ProductusSemibold'; font-size:7.98;"> </tspan><tspan x="25.424" y="0" style="font-family:'ProductusSemibold'; font-size:7.98;">L</tspan><tspan x="28.958" y="0" style="font-family:'ProductusSemibold'; font-size:7.98;">oc</tspan><tspan x="36.922" y="0" style="font-family:'ProductusSemibold'; font-size:7.98;">.</tspan><tspan x="39.196" y="0" style="font-family:'ProductusSemibold'; font-size:7.98;"> </tspan></text>
<text transform="matrix(1 0 0 1 87.5996 102.7207)"><tspan x="0" y="0" style="font-family:'ProductusSemibold'; font-size:7.98;">C</tspan><tspan x="4.676" y="0" style="font-family:'ProductusSemibold'; font-size:7.98;">o</tspan><tspan x="8.993" y="0" style="font-family:'ProductusSemibold'; font-size:7.98;">n</tspan><tspan x="13.311" y="0" style="font-family:'ProductusSemibold'; font-size:7.98;">d</tspan><tspan x="17.627" y="0" style="font-family:'ProductusSemibold'; font-size:7.98;">i</tspan><tspan x="19.782" y="0" style="font-family:'ProductusSemibold'; font-size:7.98;">t</tspan><tspan x="22.902" y="0" style="font-family:'ProductusSemibold'; font-size:7.98;">i</tspan><tspan x="25.12" y="0" style="font-family:'ProductusSemibold'; font-size:7.98;">o</tspan><tspan x="29.438" y="0" style="font-family:'ProductusSemibold'; font-size:7.98;">n</tspan></text>
<rect x="172.68" y="250.5" width="54.3" height="26.58"/>
<rect x="172.68" y="250.26" width="54.54" height="0.48"/>
<rect x="226.74" y="250.5" width="0.479" height="26.82"/>
<rect x="172.439" y="276.84" width="54.54" height="0.48"/>
<rect x="172.439" y="250.26" width="0.48" height="26.82"/>
<rect x="170.279" y="248.7" style="fill:#FFFFFF;" width="54.36" height="26.58"/>
<rect x="170.279" y="248.46" width="54.601" height="0.479"/>
<rect x="224.399" y="248.7" width="0.48" height="26.819"/>
<rect x="170.04" y="275.04" width="54.6" height="0.479"/>
<rect x="170.04" y="248.46" width="0.479" height="26.82"/>
<text transform="matrix(1 0 0 1 172.6797 255.8398)"><tspan x="0" y="0" style="font-family:'ProductusOSGiBookc'; font-size:7.98;">P</tspan><tspan x="3.248" y="0" style="font-family:'ProductusOSGiBookc'; font-size:7.98;">r</tspan><tspan x="5.291" y="0" style="font-family:'ProductusOSGiBookc'; font-size:7.98;">otect</tspan><tspan x="20.285" y="0" style="font-family:'ProductusOSGiBookc'; font-size:7.98;">i</tspan><tspan x="21.793" y="0" style="font-family:'ProductusOSGiBookc'; font-size:7.98;">on</tspan><tspan x="29.214" y="0" style="font-family:'ProductusOSGiBookc'; font-size:7.98;"> </tspan></text>
<text transform="matrix(1 0 0 1 172.6797 264.3008)"><tspan x="0" y="0" style="font-family:'ProductusOSGiBookc'; font-size:7.98;">Do</tspan><tspan x="8.69" y="0" style="font-family:'ProductusOSGiBookc'; font-size:7.98;">m</tspan><tspan x="14.396" y="0" style="font-family:'ProductusOSGiBookc'; font-size:7.98;">a</tspan><tspan x="17.691" y="0" style="font-family:'ProductusOSGiBookc'; font-size:7.98;">i</tspan><tspan x="19.199" y="0" style="font-family:'ProductusOSGiBookc'; font-size:7.98;">n</tspan></text>
<rect x="120.66" style="fill:#E6E6E6;" width="70.92" height="43.2"/>
<rect x="130.14" y="9.54" width="54.36" height="26.58"/>
<rect x="130.14" y="9.3" width="54.601" height="0.48"/>
<rect x="184.26" y="9.54" width="0.48" height="26.82"/>
<rect x="129.899" y="35.88" width="54.601" height="0.48"/>
<rect x="129.899" y="9.3" width="0.48" height="26.82"/>
<rect x="127.8" y="7.74" style="fill:#FFFFFF;" width="54.3" height="26.58"/>
<rect x="127.8" y="7.5" width="54.54" height="0.479"/>
<rect x="181.859" y="7.74" width="0.48" height="26.819"/>
<rect x="127.56" y="34.08" width="54.54" height="0.479"/>
<rect x="127.56" y="7.5" width="0.48" height="26.82"/>
<text transform="matrix(1 0 0 1 130.1396 14.8799)"><tspan x="0" y="0" style="font-family:'ProductusOSGiBookc'; font-size:7.98;">a </tspan><tspan x="4.907" y="0" style="font-family:'ProductusOSGiBookc'; font-size:7.98;">B</tspan><tspan x="8.395" y="0" style="font-family:'ProductusOSGiBookc'; font-size:7.98;">undl</tspan><tspan x="20.947" y="0" style="font-family:'ProductusOSGiBookc'; font-size:7.98;">e</tspan></text>
<rect x="283.5" y="244.74" width="0.479" height="4.199"/>
<rect x="283.5" y="230.46" width="0.479" height="8.1"/>
<rect x="283.5" y="220.14" width="0.479" height="4.2"/>
<rect x="226.74" y="149.28" width="4.26" height="0.479"/>
<rect x="237.12" y="149.28" width="8.1" height="0.479"/>
<rect x="251.34" y="149.28" width="4.26" height="0.479"/>
<rect x="172.68" y="80.4" width="54.3" height="26.579"/>
<rect x="172.68" y="80.16" width="54.54" height="0.479"/>
<rect x="226.74" y="80.4" width="0.479" height="26.819"/>
<rect x="172.439" y="106.74" width="54.54" height="0.479"/>
<rect x="172.439" y="80.16" width="0.48" height="26.819"/>
<rect x="170.279" y="78.6" style="fill:#FFFFFF;" width="54.36" height="26.58"/>
<rect x="170.279" y="78.36" width="54.601" height="0.479"/>
<rect x="224.399" y="78.6" width="0.48" height="26.82"/>
<rect x="170.04" y="104.939" width="54.6" height="0.48"/>
<rect x="170.04" y="78.36" width="0.479" height="26.819"/>
<text transform="matrix(1 0 0 1 172.6797 85.7402)"><tspan x="0" y="0" style="font-family:'ProductusOSGiBookc'; font-size:7.98;">&lt;&lt;cl</tspan><tspan x="10.485" y="0" style="font-family:'ProductusOSGiBookc'; font-size:7.98;">a</tspan><tspan x="13.726" y="0" style="font-family:'ProductusOSGiBookc'; font-size:7.98;">ss&gt;</tspan><tspan x="22.279" y="0" style="font-family:'ProductusOSGiBookc'; font-size:7.98;">&gt;</tspan></text>
<text transform="matrix(1 0 0 1 172.6797 94.2002)"><tspan x="0" y="0" style="font-family:'ProductusSemibold'; font-size:7.98;">B</tspan><tspan x="4.27" y="0" style="font-family:'ProductusSemibold'; font-size:7.98;">u</tspan><tspan x="8.586" y="0" style="font-family:'ProductusSemibold'; font-size:7.98;">ndle</tspan><tspan x="23.444" y="0" style="font-family:'ProductusSemibold'; font-size:7.98;"> </tspan><tspan x="24.705" y="0" style="font-family:'ProductusSemibold'; font-size:7.98;">Signe</tspan><tspan x="43.506" y="0" style="font-family:'ProductusSemibold'; font-size:7.98;">r</tspan><tspan x="46.091" y="0" style="font-family:'ProductusSemibold'; font-size:7.98;">.</tspan><tspan x="48.31" y="0" style="font-family:'ProductusSemibold'; font-size:7.98;"> </tspan></text>
<text transform="matrix(1 0 0 1 172.6797 102.7207)"><tspan x="0" y="0" style="font-family:'ProductusSemibold'; font-size:7.98;">C</tspan><tspan x="4.74" y="0" style="font-family:'ProductusSemibold'; font-size:7.98;">o</tspan><tspan x="9.058" y="0" style="font-family:'ProductusSemibold'; font-size:7.98;">n</tspan><tspan x="13.311" y="0" style="font-family:'ProductusSemibold'; font-size:7.98;">d</tspan><tspan x="17.628" y="0" style="font-family:'ProductusSemibold'; font-size:7.98;">i</tspan><tspan x="19.846" y="0" style="font-family:'ProductusSemibold'; font-size:7.98;">t</tspan><tspan x="22.966" y="0" style="font-family:'ProductusSemibold'; font-size:7.98;">i</tspan><tspan x="25.12" y="0" style="font-family:'ProductusSemibold'; font-size:7.98;">o</tspan><tspan x="29.438" y="0" style="font-family:'ProductusSemibold'; font-size:7.98;">n</tspan></text>
<polyline points="158.76,262.86 158.76,259.56 159.42,259.74 170.34,262.86 159.42,265.979 158.76,266.16 158.76,265.5 
	159.12,265.02 168.359,262.38 168.66,263.34 168.359,263.34 159.12,260.7 159.42,259.74 159.779,260.22 159.779,262.86 "/>
<rect x="158.76" y="262.86" width="1.02" height="2.64"/>
<polyline style="fill-rule:evenodd;clip-rule:evenodd;" points="159.24,262.86 159.24,260.22 168.479,262.86 159.24,265.5 "/>
<rect x="141.72" y="262.62" width="17.28" height="0.479"/>
<rect x="113.34" y="106.74" width="0.48" height="7.56"/>
<rect x="113.58" y="113.82" width="170.34" height="0.479"/>
<rect x="283.439" y="106.74" width="0.48" height="7.319"/>
<polyline points="283.68,123.78 286.979,123.78 286.8,124.439 283.68,135.36 280.56,124.439 280.38,123.78 281.04,123.78 
	281.52,124.14 284.16,133.38 283.2,133.68 283.2,133.38 285.84,124.14 286.8,124.439 286.319,124.8 283.68,124.8 "/>
<rect x="281.04" y="123.78" width="2.64" height="1.02"/>
<polyline style="fill-rule:evenodd;clip-rule:evenodd;" points="283.68,124.26 286.319,124.26 283.68,133.5 281.04,124.26 "/>
<rect x="283.439" y="35.88" width="0.48" height="88.14"/>
<rect x="177.12" y="42.96" width="0.479" height="4.2"/>
<rect x="177.12" y="55.56" width="0.479" height="10.681"/>
<rect x="177.12" y="74.64" width="0.479" height="4.2"/>
<rect x="198.42" y="163.439" width="0.479" height="28.801"/>
<text transform="matrix(1 0 0 1 110.0396 68.2803)" style="font-family:'ProductusBook'; font-size:7.98;">location</text>
<text transform="matrix(1 0 0 1 180.2402 57.6602)"><tspan x="0" y="0" style="font-family:'ProductusBook'; font-size:7.98;">selects</tspan><tspan x="19.727" y="0" style="font-family:'ProductusBook'; font-size:7.98;"> </tspan><tspan x="21.29" y="0" style="font-family:'ProductusBook'; font-size:7.98;">b</tspan><tspan x="24.897" y="0" style="font-family:'ProductusBook'; font-size:7.98;">y</tspan></text>
<text transform="matrix(1 0 0 1 180.2402 67.3799)"><tspan x="0" y="0" style="font-family:'ProductusBook'; font-size:7.98;">si</tspan><tspan x="4.413" y="0" style="font-family:'ProductusBook'; font-size:7.98;">g</tspan><tspan x="7.948" y="0" style="font-family:'ProductusBook'; font-size:7.98;">n</tspan><tspan x="11.61" y="0" style="font-family:'ProductusBook'; font-size:7.98;">e</tspan><tspan x="15.13" y="0" style="font-family:'ProductusBook'; font-size:7.98;">r</tspan></text>
<text transform="matrix(1 0 0 1 201.9004 171.1797)" style="font-family:'ProductusBook'; font-size:7.98;">*</text>
<text transform="matrix(1 0 0 1 201.7197 189.4795)" style="font-family:'ProductusBook'; font-size:7.98;">1</text>
<text transform="matrix(1 0 0 1 58.6797 204.3594)" style="font-family:'ProductusBook'; font-size:7.98;">1</text>
<text transform="matrix(1 0 0 1 80.4595 204.54)" style="font-family:'ProductusBook'; font-size:7.98;">*</text>
<rect x="191.34" y="106.74" width="0.479" height="7.56"/>
<rect x="257.7" y="9.54" width="54.359" height="26.58"/>
<rect x="257.7" y="9.3" width="54.6" height="0.48"/>
<rect x="311.819" y="9.54" width="0.48" height="26.82"/>
<rect x="257.46" y="35.88" width="54.6" height="0.48"/>
<rect x="257.46" y="9.3" width="0.479" height="26.82"/>
<rect x="255.359" y="7.74" style="fill:#FFFFFF;" width="54.301" height="26.58"/>
<rect x="255.359" y="7.5" width="54.54" height="0.479"/>
<rect x="309.42" y="7.74" width="0.479" height="26.819"/>
<rect x="255.12" y="34.08" width="54.54" height="0.479"/>
<rect x="255.12" y="7.5" width="0.479" height="26.82"/>
<text transform="matrix(1 0 0 1 257.7002 14.8799)"><tspan x="0" y="0" style="font-family:'ProductusOSGiBookc'; font-size:7.98;">User</tspan><tspan x="13.135" y="0" style="font-family:'ProductusOSGiBookc'; font-size:7.98;"> </tspan><tspan x="14.747" y="0" style="font-family:'ProductusOSGiBookc'; font-size:7.98;">C</tspan><tspan x="18.889" y="0" style="font-family:'ProductusOSGiBookc'; font-size:7.98;">o</tspan><tspan x="22.663" y="0" style="font-family:'ProductusOSGiBookc'; font-size:7.98;">ndit</tspan><tspan x="33.866" y="0" style="font-family:'ProductusOSGiBookc'; font-size:7.98;">i</tspan><tspan x="35.375" y="0" style="font-family:'ProductusOSGiBookc'; font-size:7.98;">o</tspan><tspan x="39.149" y="0" style="font-family:'ProductusOSGiBookc'; font-size:7.98;">n</tspan><tspan x="42.804" y="0" style="font-family:'ProductusOSGiBookc'; font-size:7.98;"> </tspan></text>
<text transform="matrix(1 0 0 1 257.7002 23.3408)"><tspan x="0" y="0" style="font-family:'ProductusOSGiBookc'; font-size:7.98;">Imp</tspan><tspan x="10.956" y="0" style="font-family:'ProductusOSGiBookc'; font-size:7.98;">l</tspan></text>
<text transform="matrix(1 0 0 1 30.6602 141.4805)"><tspan x="0" y="0" style="font-family:'ProductusBook'; font-size:7.98;">admi</tspan><tspan x="14.324" y="0" style="font-family:'ProductusBook'; font-size:7.98;">n</tspan><tspan x="18.042" y="0" style="font-family:'ProductusBook'; font-size:7.98;">isters</tspan></text>
<text transform="matrix(1 0 0 1 200.8799 179.7607)"><tspan x="0" y="0" style="font-family:'ProductusBook'; font-size:7.98;">ha</tspan><tspan x="6.975" y="0" style="font-family:'ProductusBook'; font-size:7.98;">s</tspan></text>
<text transform="matrix(1 0 0 1 65.0396 213.2402)"><tspan x="0" y="0" style="font-family:'ProductusBook'; font-size:7.98;">h</tspan><tspan x="3.719" y="0" style="font-family:'ProductusBook'; font-size:7.98;">a</tspan><tspan x="7.022" y="0" style="font-family:'ProductusBook'; font-size:7.98;">s</tspan></text>
<text transform="matrix(1 0 0 1 229.0791 147.1201)"><tspan x="0" y="0" style="font-family:'ProductusBook'; font-size:7.98;">e</tspan><tspan x="3.535" y="0" style="font-family:'ProductusBook'; font-size:7.98;">n</tspan><tspan x="7.198" y="0" style="font-family:'ProductusBook'; font-size:7.98;">c</tspan><tspan x="10.198" y="0" style="font-family:'ProductusBook'; font-size:7.98;">o</tspan><tspan x="14.037" y="0" style="font-family:'ProductusBook'; font-size:7.98;">d</tspan><tspan x="17.699" y="0" style="font-family:'ProductusBook'; font-size:7.98;">e</tspan><tspan x="21.234" y="0" style="font-family:'ProductusBook'; font-size:7.98;">s</tspan></text>
<text transform="matrix(1 0 0 1 288 234.8408)"><tspan x="0" y="0" style="font-family:'ProductusBook'; font-size:7.98;">e</tspan><tspan x="3.535" y="0" style="font-family:'ProductusBook'; font-size:7.98;">n</tspan><tspan x="7.198" y="0" style="font-family:'ProductusBook'; font-size:7.98;">c</tspan><tspan x="10.198" y="0" style="font-family:'ProductusBook'; font-size:7.98;">o</tspan><tspan x="14.037" y="0" style="font-family:'ProductusBook'; font-size:7.98;">d</tspan><tspan x="17.699" y="0" style="font-family:'ProductusBook'; font-size:7.98;">e</tspan><tspan x="21.234" y="0" style="font-family:'ProductusBook'; font-size:7.98;">s</tspan></text>
<rect x="134.64" y="42.96" width="0.48" height="0.24"/>
<rect x="134.64" y="43.2" width="0.48" height="3.96"/>
<rect x="134.64" y="55.56" width="0.48" height="0.24"/>
<rect x="134.64" y="55.8" width="0.48" height="10.44"/>
<rect x="134.64" y="74.64" width="0.48" height="0.24"/>
<rect x="134.64" y="74.88" width="0.48" height="3.96"/>
<rect x="87.6" y="193.8" width="54.36" height="26.58"/>
<rect x="87.6" y="193.56" width="54.601" height="0.48"/>
<rect x="141.72" y="193.8" width="0.48" height="26.82"/>
<rect x="87.36" y="220.14" width="54.6" height="0.48"/>
<rect x="87.36" y="193.56" width="0.48" height="26.82"/>
<rect x="85.26" y="192" style="fill:#FFFFFF;" width="54.3" height="26.58"/>
<rect x="85.26" y="191.76" width="54.54" height="0.48"/>
<rect x="139.319" y="192" width="0.48" height="26.82"/>
<rect x="85.02" y="218.34" width="54.54" height="0.48"/>
<rect x="85.02" y="191.76" width="0.48" height="26.82"/>
<text transform="matrix(1 0 0 1 87.5996 199.1396)"><tspan x="0" y="0" style="font-family:'ProductusOSGiBookc'; font-size:7.98;">&lt;</tspan><tspan x="2.881" y="0" style="font-family:'ProductusOSGiBookc'; font-size:7.98;">&lt;</tspan><tspan x="5.817" y="0" style="font-family:'ProductusOSGiBookc'; font-size:7.98;">i</tspan><tspan x="7.373" y="0" style="font-family:'ProductusOSGiBookc'; font-size:7.98;">nte</tspan><tspan x="16.845" y="0" style="font-family:'ProductusOSGiBookc'; font-size:7.98;">r</tspan><tspan x="19.063" y="0" style="font-family:'ProductusOSGiBookc'; font-size:7.98;">f</tspan><tspan x="21.051" y="0" style="font-family:'ProductusOSGiBookc'; font-size:7.98;">a</tspan><tspan x="24.346" y="0" style="font-family:'ProductusOSGiBookc'; font-size:7.98;">c</tspan><tspan x="27.411" y="0" style="font-family:'ProductusOSGiBookc'; font-size:7.98;">e&gt;</tspan><tspan x="33.826" y="0" style="font-family:'ProductusOSGiBookc'; font-size:7.98;">&gt;</tspan></text>
<text transform="matrix(1 0 0 1 87.5996 207.6006)"><tspan x="0" y="0" style="font-family:'ProductusSemibold'; font-size:7.98;">C</tspan><tspan x="4.676" y="0" style="font-family:'ProductusSemibold'; font-size:7.98;">o</tspan><tspan x="8.993" y="0" style="font-family:'ProductusSemibold'; font-size:7.98;">n</tspan><tspan x="13.311" y="0" style="font-family:'ProductusSemibold'; font-size:7.98;">d</tspan><tspan x="17.627" y="0" style="font-family:'ProductusSemibold'; font-size:7.98;">.</tspan><tspan x="19.83" y="0" style="font-family:'ProductusSemibold'; font-size:7.98;"> </tspan><tspan x="21.809" y="0" style="font-family:'ProductusSemibold'; font-size:7.98;">P</tspan><tspan x="25.823" y="0" style="font-family:'ProductusSemibold'; font-size:7.98;">e</tspan><tspan x="29.956" y="0" style="font-family:'ProductusSemibold'; font-size:7.98;">r</tspan><tspan x="32.917" y="0" style="font-family:'ProductusSemibold'; font-size:7.98;">m</tspan><tspan x="39.333" y="0" style="font-family:'ProductusSemibold'; font-size:7.98;">.</tspan><tspan x="41.535" y="0" style="font-family:'ProductusSemibold'; font-size:7.98;"> </tspan></text>
<text transform="matrix(1 0 0 1 87.5996 216.1211)"><tspan x="0" y="0" style="font-family:'ProductusSemibold'; font-size:7.98;">U</tspan><tspan x="5.115" y="0" style="font-family:'ProductusSemibold'; font-size:7.98;">p</tspan><tspan x="9.432" y="0" style="font-family:'ProductusSemibold'; font-size:7.98;">d</tspan><tspan x="13.733" y="0" style="font-family:'ProductusSemibold'; font-size:7.98;">a</tspan><tspan x="17.691" y="0" style="font-family:'ProductusSemibold'; font-size:7.98;">t</tspan><tspan x="20.867" y="0" style="font-family:'ProductusSemibold'; font-size:7.98;">e</tspan></text>
<rect x="172.68" y="193.8" width="54.3" height="26.58"/>
<rect x="172.68" y="193.56" width="54.54" height="0.48"/>
<rect x="226.74" y="193.8" width="0.479" height="26.82"/>
<rect x="172.439" y="220.14" width="54.54" height="0.48"/>
<rect x="172.439" y="193.56" width="0.48" height="26.82"/>
<rect x="170.279" y="192" style="fill:#FFFFFF;" width="54.36" height="26.58"/>
<rect x="170.279" y="191.76" width="54.601" height="0.48"/>
<rect x="224.399" y="192" width="0.48" height="26.82"/>
<rect x="170.04" y="218.34" width="54.6" height="0.48"/>
<rect x="170.04" y="191.76" width="0.479" height="26.82"/>
<text transform="matrix(1 0 0 1 172.6797 199.1396)"><tspan x="0" y="0" style="font-family:'ProductusOSGiBookc'; font-size:7.98;">&lt;&lt;</tspan><tspan x="5.873" y="0" style="font-family:'ProductusOSGiBookc'; font-size:7.98;">i</tspan><tspan x="7.381" y="0" style="font-family:'ProductusOSGiBookc'; font-size:7.98;">nte</tspan><tspan x="16.854" y="0" style="font-family:'ProductusOSGiBookc'; font-size:7.98;">r</tspan><tspan x="19.071" y="0" style="font-family:'ProductusOSGiBookc'; font-size:7.98;">f</tspan><tspan x="21.074" y="0" style="font-family:'ProductusOSGiBookc'; font-size:7.98;">a</tspan><tspan x="24.354" y="0" style="font-family:'ProductusOSGiBookc'; font-size:7.98;">c</tspan><tspan x="27.475" y="0" style="font-family:'ProductusOSGiBookc'; font-size:7.98;">e</tspan><tspan x="30.954" y="0" style="font-family:'ProductusOSGiBookc'; font-size:7.98;">&gt;</tspan><tspan x="33.834" y="0" style="font-family:'ProductusOSGiBookc'; font-size:7.98;">&gt;</tspan></text>
<text transform="matrix(1 0 0 1 172.6797 207.6006)"><tspan x="0" y="0" style="font-family:'ProductusSemibold'; font-size:7.98;">C</tspan><tspan x="4.74" y="0" style="font-family:'ProductusSemibold'; font-size:7.98;">o</tspan><tspan x="9.058" y="0" style="font-family:'ProductusSemibold'; font-size:7.98;">n</tspan><tspan x="13.311" y="0" style="font-family:'ProductusSemibold'; font-size:7.98;">d</tspan><tspan x="17.628" y="0" style="font-family:'ProductusSemibold'; font-size:7.98;">.</tspan><tspan x="19.901" y="0" style="font-family:'ProductusSemibold'; font-size:7.98;"> </tspan><tspan x="21.881" y="0" style="font-family:'ProductusSemibold'; font-size:7.98;">P</tspan><tspan x="25.831" y="0" style="font-family:'ProductusSemibold'; font-size:7.98;">er</tspan><tspan x="32.957" y="0" style="font-family:'ProductusSemibold'; font-size:7.98;">m</tspan><tspan x="39.316" y="0" style="font-family:'ProductusSemibold'; font-size:7.98;">.</tspan></text>
<text transform="matrix(1 0 0 1 172.6797 216.1211)"><tspan x="0" y="0" style="font-family:'ProductusSemibold'; font-size:7.98;">I</tspan><tspan x="2.21" y="0" style="font-family:'ProductusSemibold'; font-size:7.98;">n</tspan><tspan x="6.527" y="0" style="font-family:'ProductusSemibold'; font-size:7.98;">f</tspan><tspan x="9.225" y="0" style="font-family:'ProductusSemibold'; font-size:7.98;">o</tspan></text>
<rect x="226.74" y="205.92" width="0.239" height="0.48"/>
<rect x="226.979" y="205.92" width="28.62" height="0.48"/>
<text transform="matrix(1 0 0 1 228.7793 204.3604)" style="font-family:'ProductusBook'; font-size:7.98;">1</text>
<text transform="matrix(1 0 0 1 250.5596 204.54)" style="font-family:'ProductusBook'; font-size:7.98;">*</text>
<text transform="matrix(1 0 0 1 235.1396 213.2402)"><tspan x="0" y="0" style="font-family:'ProductusBook'; font-size:7.98;">h</tspan><tspan x="3.663" y="0" style="font-family:'ProductusBook'; font-size:7.98;">a</tspan><tspan x="7.022" y="0" style="font-family:'ProductusBook'; font-size:7.98;">s</tspan></text>
<text transform="matrix(1 0 0 1 143.7598 204.3604)" style="font-family:'ProductusBook'; font-size:7.98;">1</text>
<text transform="matrix(1 0 0 1 165.54 204.54)" style="font-family:'ProductusBook'; font-size:7.98;">*</text>
<text transform="matrix(1 0 0 1 150.0596 213.2402)"><tspan x="0" y="0" style="font-family:'ProductusBook'; font-size:7.98;">p</tspan><tspan x="3.671" y="0" style="font-family:'ProductusBook'; font-size:7.98;">l</tspan><tspan x="5.291" y="0" style="font-family:'ProductusBook'; font-size:7.98;">an</tspan><tspan x="12.233" y="0" style="font-family:'ProductusBook'; font-size:7.98;">n</tspan><tspan x="15.952" y="0" style="font-family:'ProductusBook'; font-size:7.98;">e</tspan><tspan x="19.439" y="0" style="font-family:'ProductusBook'; font-size:7.98;">d</tspan></text>
</svg>
