<?xml version="1.0" encoding="utf-8"?>
<!-- Generator: Adobe Illustrator 16.0.1, SVG Export Plug-In . SVG Version: 6.00 Build 0)  -->
<!DOCTYPE svg PUBLIC "-//W3C//DTD SVG 1.1//EN" "http://www.w3.org/Graphics/SVG/1.1/DTD/svg11.dtd">
<svg version="1.1" id="Layer_1" xmlns="http://www.w3.org/2000/svg" xmlns:xlink="http://www.w3.org/1999/xlink" x="0px" y="0px"
	 width="283.98px" height="85.5px" viewBox="0 0 283.98 85.5" enable-background="new 0 0 283.98 85.5" xml:space="preserve">
<rect x="186.9" y="2.04" width="54.3" height="26.58"/>
<rect x="186.9" y="1.8" width="54.54" height="0.479"/>
<rect x="240.959" y="2.04" width="0.48" height="26.819"/>
<rect x="186.66" y="28.38" width="54.54" height="0.479"/>
<rect x="186.66" y="1.8" width="0.48" height="26.82"/>
<rect x="184.5" y="0.24" fill="#FFFFFF" width="54.36" height="26.579"/>
<rect x="184.5" width="54.602" height="0.479"/>
<rect x="238.62" y="0.24" width="0.48" height="26.819"/>
<rect x="184.26" y="26.58" width="54.601" height="0.479"/>
<rect x="184.26" width="0.479" height="26.819"/>
<text transform="matrix(1 0 0 1 186.9001 7.3203)" font-family="'ProductusOSGiBookc'" font-size="7.98">&lt;&lt;interface&gt;&gt;</text>
<text transform="matrix(1 0 0 1 186.9001 14.8398)" enable-background="new    "><tspan x="0" y="0" font-family="'ProductusSemibold'" font-size="7.98">Conditional</tspan><tspan x="0" y="9.576" font-family="'ProductusSemibold'" font-size="7.98">Perm. Info</tspan></text>
<rect x="152.52" y="58.74" width="54.3" height="26.52"/>
<rect x="152.52" y="58.5" width="54.54" height="0.479"/>
<rect x="206.58" y="58.74" width="0.48" height="26.76"/>
<rect x="152.28" y="85.02" width="54.54" height="0.48"/>
<rect x="152.28" y="58.5" width="0.479" height="26.76"/>
<rect x="150.18" y="56.939" fill="#FFFFFF" width="54.3" height="26.58"/>
<rect x="150.18" y="56.7" width="54.54" height="0.479"/>
<rect x="204.24" y="56.939" width="0.48" height="26.819"/>
<rect x="149.94" y="83.279" width="54.54" height="0.479"/>
<rect x="149.94" y="56.7" width="0.479" height="26.819"/>
<text transform="matrix(1 0 0 1 152.5193 64.0195)" font-family="'ProductusOSGiBookc'" font-size="7.98">&lt;&lt;class&gt;&gt;</text>
<text transform="matrix(1 0 0 1 152.5193 71.54)" enable-background="new    "><tspan x="0" y="0" font-family="'ProductusSemibold'" font-size="7.98">Conditional</tspan><tspan x="0" y="9.576" font-family="'ProductusSemibold'" font-size="7.98">Info</tspan></text>
<rect x="230.4" y="58.74" width="53.34" height="26.52"/>
<rect x="230.4" y="58.5" width="53.58" height="0.479"/>
<rect x="283.5" y="58.74" width="0.48" height="26.76"/>
<rect x="230.16" y="85.02" width="53.58" height="0.48"/>
<rect x="230.16" y="58.5" width="0.48" height="26.76"/>
<rect x="228.12" y="56.939" fill="#FFFFFF" width="53.28" height="26.58"/>
<rect x="228.12" y="56.7" width="53.521" height="0.479"/>
<rect x="281.16" y="56.939" width="0.48" height="26.819"/>
<rect x="227.879" y="83.279" width="53.521" height="0.479"/>
<rect x="227.879" y="56.7" width="0.48" height="26.819"/>
<text transform="matrix(1 0 0 1 230.4001 64.0195)" font-family="'ProductusOSGiBookc'" font-size="7.98">&lt;&lt;class&gt;&gt;</text>
<text transform="matrix(1 0 0 1 230.4001 71.54)" enable-background="new    "><tspan x="0" y="0" font-family="'ProductusSemibold'" font-size="7.98">Permission</tspan><tspan x="0" y="9.576" font-family="'ProductusSemibold'" font-size="7.98">Info</tspan></text>
<polyline points="205.98,28.8 206.16,28.62 205.8,28.26 205.62,28.439 "/>
<polyline points="177.6,57.12 177.419,57.3 177.06,56.939 177.24,56.76 "/>
<polyline points="205.98,28.8 205.62,28.439 177.24,56.76 177.6,57.12 "/>
<polyline points="220.14,28.439 219.959,28.319 219.66,28.68 219.839,28.8 "/>
<polyline points="255.54,56.76 255.72,56.88 255.419,57.24 255.24,57.12 "/>
<polyline points="220.14,28.439 219.839,28.8 255.24,57.12 255.54,56.76 "/>
<rect x="2.64" y="2.04" width="54.3" height="26.58"/>
<rect x="2.64" y="1.8" width="54.54" height="0.479"/>
<rect x="56.7" y="2.04" width="0.48" height="26.819"/>
<rect x="2.4" y="28.38" width="54.54" height="0.479"/>
<rect x="2.4" y="1.8" width="0.479" height="26.82"/>
<rect x="0.24" y="0.24" fill="#FFFFFF" width="54.36" height="26.579"/>
<rect x="0.24" width="54.6" height="0.479"/>
<rect x="54.36" y="0.24" width="0.479" height="26.819"/>
<rect x="0" y="26.58" width="54.601" height="0.479"/>
<rect x="0" width="0.48" height="26.819"/>
<text transform="matrix(1 0 0 1 2.6394 7.3203)" font-family="'ProductusOSGiBookc'" font-size="7.98">&lt;&lt;interface&gt;&gt;</text>
<text transform="matrix(1 0 0 1 2.6394 14.8398)" enable-background="new    "><tspan x="0" y="0" font-family="'ProductusSemibold'" font-size="7.98">Conditional</tspan><tspan x="0" y="9.576" font-family="'ProductusSemibold'" font-size="7.98">Perm. Admin</tspan></text>
<polyline points="42.78,28.62 49.86,21.479 56.94,14.399 56.94,28.62 "/>
<polyline points="42.6,28.439 56.76,14.22 57.18,13.8 57.18,14.399 57.12,14.58 42.96,28.8 "/>
<rect x="56.7" y="14.399" width="0.48" height="14.46"/>
<polyline points="56.94,28.859 42.18,28.859 42.6,28.439 42.78,28.38 56.94,28.38 "/>
<rect x="56.7" y="14.16" width="0.24" height="0.479"/>
<rect x="56.94" y="14.16" width="35.7" height="0.479"/>
<text transform="matrix(1 0 0 1 87.4197 12.0596)" font-family="'ProductusBook'" font-size="7.98">*</text>
<text transform="matrix(1 0 0 1 59.7595 12.0596)" font-family="'ProductusBook'" font-size="7.98">1</text>
<text transform="matrix(1 0 0 1 174.24 54.5996)" font-family="'ProductusBook'" font-size="7.98">*</text>
<text transform="matrix(1 0 0 1 174.24 54.5996)" font-family="'ProductusBook'" font-size="7.98">*</text>
<text transform="matrix(1 0 0 1 230.9392 33.8398)" font-family="'ProductusBook'" font-size="7.98">1</text>
<text transform="matrix(1 0 0 1 259.4998 55.1396)" font-family="'ProductusBook'" font-size="7.98">*</text>
<rect x="127.56" y="14.16" width="0.479" height="0.239"/>
<rect x="127.56" y="14.399" width="0.479" height="1.98"/>
<rect x="127.56" y="19.8" width="0.479" height="0.24"/>
<rect x="127.56" y="20.04" width="0.479" height="3.3"/>
<rect x="127.56" y="26.76" width="0.479" height="0.24"/>
<rect x="94.74" y="2.04" width="54.36" height="26.58"/>
<rect x="94.74" y="1.8" width="54.6" height="0.479"/>
<rect x="148.86" y="2.04" width="0.479" height="26.819"/>
<rect x="94.5" y="28.38" width="54.601" height="0.479"/>
<rect x="94.5" y="1.8" width="0.48" height="26.82"/>
<rect x="92.4" y="0.24" fill="#FFFFFF" width="54.3" height="26.579"/>
<rect x="92.4" width="54.54" height="0.479"/>
<rect x="146.459" y="0.24" width="0.48" height="26.819"/>
<rect x="92.16" y="26.58" width="54.54" height="0.479"/>
<rect x="92.16" width="0.48" height="26.819"/>
<text transform="matrix(1 0 0 1 94.7395 7.3203)" font-family="'ProductusOSGiBookc'" font-size="7.98">&lt;&lt;interface&gt;&gt;</text>
<text transform="matrix(1 0 0 1 94.7395 14.8398)" enable-background="new    "><tspan x="0" y="0" font-family="'ProductusSemibold'" font-size="7.98">Conditional</tspan><tspan x="0" y="9.576" font-family="'ProductusSemibold'" font-size="7.98">Perm. Update</tspan></text>
<rect x="148.86" y="14.16" width="0.24" height="0.479"/>
<rect x="149.1" y="14.16" width="35.64" height="0.479"/>
<text transform="matrix(1 0 0 1 179.7595 12.0596)" font-family="'ProductusBook'" font-size="7.98">*</text>
<text transform="matrix(1 0 0 1 152.0388 12.0596)" font-family="'ProductusBook'" font-size="7.98">1</text>
<text transform="matrix(1 0 0 1 192.3591 33.8398)" font-family="'ProductusBook'" font-size="7.98">1</text>
</svg>
