<?xml version="1.0" encoding="utf-8"?>
<!-- Generator: Adobe Illustrator 16.0.0, SVG Export Plug-In . SVG Version: 6.00 Build 0)  -->
<!DOCTYPE svg PUBLIC "-//W3C//DTD SVG 1.1//EN" "http://www.w3.org/Graphics/SVG/1.1/DTD/svg11.dtd">
<svg version="1.1" id="Layer_1" xmlns="http://www.w3.org/2000/svg" xmlns:xlink="http://www.w3.org/1999/xlink" x="0px" y="0px"
	 width="283.98px" height="85.5px" viewBox="0 0 283.98 85.5" style="enable-background:new 0 0 283.98 85.5;" xml:space="preserve"
	>
<rect x="186.9" y="2.04" width="54.3" height="26.58"/>
<rect x="186.9" y="1.8" width="54.54" height="0.479"/>
<rect x="240.959" y="2.04" width="0.48" height="26.819"/>
<rect x="186.66" y="28.38" width="54.54" height="0.479"/>
<rect x="186.66" y="1.8" width="0.48" height="26.82"/>
<rect x="184.5" y="0.24" style="fill:#FFFFFF;" width="54.36" height="26.579"/>
<rect x="184.5" width="54.601" height="0.479"/>
<rect x="238.62" y="0.24" width="0.48" height="26.819"/>
<rect x="184.26" y="26.58" width="54.6" height="0.479"/>
<rect x="184.26" width="0.479" height="26.819"/>
<text transform="matrix(1 0 0 1 186.8999 7.3203)"><tspan x="0" y="0" style="font-family:'ProductusOSGiBookc'; font-size:7.98;">&lt;&lt;in</tspan><tspan x="11.067" y="0" style="font-family:'ProductusOSGiBookc'; font-size:7.98;">t</tspan><tspan x="13.35" y="0" style="font-family:'ProductusOSGiBookc'; font-size:7.98;">erface&gt;</tspan><tspan x="33.834" y="0" style="font-family:'ProductusOSGiBookc'; font-size:7.98;">&gt;</tspan></text>
<text transform="matrix(1 0 0 1 186.8999 15.8398)"><tspan x="0" y="0" style="font-family:'ProductusSemibold'; font-size:7.98;">C</tspan><tspan x="4.74" y="0" style="font-family:'ProductusSemibold'; font-size:7.98;">on</tspan><tspan x="13.318" y="0" style="font-family:'ProductusSemibold'; font-size:7.98;">d</tspan><tspan x="17.691" y="0" style="font-family:'ProductusSemibold'; font-size:7.98;">itio</tspan><tspan x="29.445" y="0" style="font-family:'ProductusSemibold'; font-size:7.98;">n</tspan><tspan x="33.763" y="0" style="font-family:'ProductusSemibold'; font-size:7.98;">a</tspan><tspan x="37.721" y="0" style="font-family:'ProductusSemibold'; font-size:7.98;">l</tspan><tspan x="39.883" y="0" style="font-family:'ProductusSemibold'; font-size:7.98;"> </tspan></text>
<text transform="matrix(1 0 0 1 186.8999 24.3604)"><tspan x="0" y="0" style="font-family:'ProductusSemibold'; font-size:7.98;">P</tspan><tspan x="3.958" y="0" style="font-family:'ProductusSemibold'; font-size:7.98;">er</tspan><tspan x="11.084" y="0" style="font-family:'ProductusSemibold'; font-size:7.98;">m</tspan><tspan x="17.444" y="0" style="font-family:'ProductusSemibold'; font-size:7.98;">i</tspan><tspan x="19.662" y="0" style="font-family:'ProductusSemibold'; font-size:7.98;">s</tspan><tspan x="23.021" y="0" style="font-family:'ProductusSemibold'; font-size:7.98;">.</tspan><tspan x="25.24" y="0" style="font-family:'ProductusSemibold'; font-size:7.98;"> </tspan><tspan x="27.219" y="0" style="font-family:'ProductusSemibold'; font-size:7.98;">I</tspan><tspan x="29.438" y="0" style="font-family:'ProductusSemibold'; font-size:7.98;">n</tspan><tspan x="33.755" y="0" style="font-family:'ProductusSemibold'; font-size:7.98;">f</tspan><tspan x="36.452" y="0" style="font-family:'ProductusSemibold'; font-size:7.98;">o</tspan></text>
<rect x="152.52" y="58.74" width="54.3" height="26.52"/>
<rect x="152.52" y="58.5" width="54.54" height="0.479"/>
<rect x="206.58" y="58.74" width="0.48" height="26.76"/>
<rect x="152.28" y="85.02" width="54.54" height="0.48"/>
<rect x="152.28" y="58.5" width="0.48" height="26.76"/>
<rect x="150.18" y="56.939" style="fill:#FFFFFF;" width="54.3" height="26.58"/>
<rect x="150.18" y="56.7" width="54.54" height="0.479"/>
<rect x="204.24" y="56.939" width="0.48" height="26.82"/>
<rect x="149.94" y="83.279" width="54.54" height="0.48"/>
<rect x="149.94" y="56.7" width="0.479" height="26.819"/>
<text transform="matrix(1 0 0 1 152.52 64.0195)"><tspan x="0" y="0" style="font-family:'ProductusOSGiBookc'; font-size:7.98;">&lt;</tspan><tspan x="2.889" y="0" style="font-family:'ProductusOSGiBookc'; font-size:7.98;">&lt;</tspan><tspan x="5.825" y="0" style="font-family:'ProductusOSGiBookc'; font-size:7.98;">c</tspan><tspan x="8.945" y="0" style="font-family:'ProductusOSGiBookc'; font-size:7.98;">l</tspan><tspan x="10.453" y="0" style="font-family:'ProductusOSGiBookc'; font-size:7.98;">as</tspan><tspan x="16.566" y="0" style="font-family:'ProductusOSGiBookc'; font-size:7.98;">s</tspan><tspan x="19.327" y="0" style="font-family:'ProductusOSGiBookc'; font-size:7.98;">&gt;</tspan><tspan x="22.264" y="0" style="font-family:'ProductusOSGiBookc'; font-size:7.98;">&gt;</tspan></text>
<text transform="matrix(1 0 0 1 152.52 72.54)"><tspan x="0" y="0" style="font-family:'ProductusSemibold'; font-size:7.98;">C</tspan><tspan x="4.676" y="0" style="font-family:'ProductusSemibold'; font-size:7.98;">o</tspan><tspan x="8.993" y="0" style="font-family:'ProductusSemibold'; font-size:7.98;">n</tspan><tspan x="13.311" y="0" style="font-family:'ProductusSemibold'; font-size:7.98;">dit</tspan><tspan x="22.902" y="0" style="font-family:'ProductusSemibold'; font-size:7.98;">i</tspan><tspan x="25.12" y="0" style="font-family:'ProductusSemibold'; font-size:7.98;">onal</tspan><tspan x="39.803" y="0" style="font-family:'ProductusSemibold'; font-size:7.98;"> </tspan></text>
<text transform="matrix(1 0 0 1 152.52 81.0605)"><tspan x="0" y="0" style="font-family:'ProductusSemibold'; font-size:7.98;">In</tspan><tspan x="6.479" y="0" style="font-family:'ProductusSemibold'; font-size:7.98;">f</tspan><tspan x="9.232" y="0" style="font-family:'ProductusSemibold'; font-size:7.98;">o</tspan></text>
<rect x="230.4" y="58.74" width="53.34" height="26.52"/>
<rect x="230.4" y="58.5" width="53.58" height="0.479"/>
<rect x="283.5" y="58.74" width="0.48" height="26.76"/>
<rect x="230.16" y="85.02" width="53.58" height="0.48"/>
<rect x="230.16" y="58.5" width="0.48" height="26.76"/>
<rect x="228.12" y="56.939" style="fill:#FFFFFF;" width="53.28" height="26.58"/>
<rect x="228.12" y="56.7" width="53.521" height="0.479"/>
<rect x="281.16" y="56.939" width="0.48" height="26.82"/>
<rect x="227.879" y="83.279" width="53.521" height="0.48"/>
<rect x="227.879" y="56.7" width="0.48" height="26.819"/>
<text transform="matrix(1 0 0 1 230.3999 64.0195)"><tspan x="0" y="0" style="font-family:'ProductusOSGiBookc'; font-size:7.98;">&lt;&lt;cl</tspan><tspan x="10.485" y="0" style="font-family:'ProductusOSGiBookc'; font-size:7.98;">a</tspan><tspan x="13.726" y="0" style="font-family:'ProductusOSGiBookc'; font-size:7.98;">ss&gt;</tspan><tspan x="22.279" y="0" style="font-family:'ProductusOSGiBookc'; font-size:7.98;">&gt;</tspan></text>
<text transform="matrix(1 0 0 1 230.3999 72.54)"><tspan x="0" y="0" style="font-family:'ProductusSemibold'; font-size:7.98;">P</tspan><tspan x="3.958" y="0" style="font-family:'ProductusSemibold'; font-size:7.98;">ermission</tspan><tspan x="37.122" y="0" style="font-family:'ProductusSemibold'; font-size:7.98;"> </tspan></text>
<text transform="matrix(1 0 0 1 230.3999 81.0605)"><tspan x="0" y="0" style="font-family:'ProductusSemibold'; font-size:7.98;">I</tspan><tspan x="2.274" y="0" style="font-family:'ProductusSemibold'; font-size:7.98;">n</tspan><tspan x="6.527" y="0" style="font-family:'ProductusSemibold'; font-size:7.98;">f</tspan><tspan x="9.225" y="0" style="font-family:'ProductusSemibold'; font-size:7.98;">o</tspan></text>
<polyline points="205.98,28.8 206.16,28.62 205.8,28.26 205.62,28.439 "/>
<polyline points="177.6,57.12 177.419,57.3 177.06,56.939 177.24,56.76 "/>
<polyline points="205.98,28.8 205.62,28.439 177.24,56.76 177.6,57.12 "/>
<polyline points="220.14,28.439 219.959,28.319 219.66,28.68 219.839,28.8 "/>
<polyline points="255.54,56.76 255.72,56.88 255.419,57.24 255.24,57.12 "/>
<polyline points="220.14,28.439 219.839,28.8 255.24,57.12 255.54,56.76 "/>
<rect x="2.64" y="2.04" width="54.3" height="26.58"/>
<rect x="2.64" y="1.8" width="54.54" height="0.479"/>
<rect x="56.7" y="2.04" width="0.48" height="26.819"/>
<rect x="2.4" y="28.38" width="54.54" height="0.479"/>
<rect x="2.4" y="1.8" width="0.48" height="26.82"/>
<rect x="0.24" y="0.24" style="fill:#FFFFFF;" width="54.36" height="26.579"/>
<rect x="0.24" width="54.6" height="0.479"/>
<rect x="54.36" y="0.24" width="0.48" height="26.819"/>
<rect y="26.58" width="54.6" height="0.479"/>
<rect width="0.48" height="26.819"/>
<text transform="matrix(1 0 0 1 2.6396 7.3203)"><tspan x="0" y="0" style="font-family:'ProductusOSGiBookc'; font-size:7.98;">&lt;&lt;in</tspan><tspan x="11.068" y="0" style="font-family:'ProductusOSGiBookc'; font-size:7.98;">t</tspan><tspan x="13.35" y="0" style="font-family:'ProductusOSGiBookc'; font-size:7.98;">erface&gt;</tspan><tspan x="33.834" y="0" style="font-family:'ProductusOSGiBookc'; font-size:7.98;">&gt;</tspan></text>
<text transform="matrix(1 0 0 1 2.6396 15.8398)"><tspan x="0" y="0" style="font-family:'ProductusSemibold'; font-size:7.98;">C</tspan><tspan x="4.74" y="0" style="font-family:'ProductusSemibold'; font-size:7.98;">on</tspan><tspan x="13.318" y="0" style="font-family:'ProductusSemibold'; font-size:7.98;">d</tspan><tspan x="17.691" y="0" style="font-family:'ProductusSemibold'; font-size:7.98;">itio</tspan><tspan x="29.445" y="0" style="font-family:'ProductusSemibold'; font-size:7.98;">n</tspan><tspan x="33.762" y="0" style="font-family:'ProductusSemibold'; font-size:7.98;">a</tspan><tspan x="37.72" y="0" style="font-family:'ProductusSemibold'; font-size:7.98;">l</tspan><tspan x="39.883" y="0" style="font-family:'ProductusSemibold'; font-size:7.98;"> </tspan></text>
<text transform="matrix(1 0 0 1 2.6396 24.3604)"><tspan x="0" y="0" style="font-family:'ProductusSemibold'; font-size:7.98;">P</tspan><tspan x="3.958" y="0" style="font-family:'ProductusSemibold'; font-size:7.98;">er</tspan><tspan x="11.084" y="0" style="font-family:'ProductusSemibold'; font-size:7.98;">m</tspan><tspan x="17.436" y="0" style="font-family:'ProductusSemibold'; font-size:7.98;">i</tspan><tspan x="19.654" y="0" style="font-family:'ProductusSemibold'; font-size:7.98;">s</tspan><tspan x="23.014" y="0" style="font-family:'ProductusSemibold'; font-size:7.98;">.</tspan><tspan x="25.232" y="0" style="font-family:'ProductusSemibold'; font-size:7.98;"> </tspan><tspan x="27.147" y="0" style="font-family:'ProductusSemibold'; font-size:7.98;">A</tspan><tspan x="31.999" y="0" style="font-family:'ProductusSemibold'; font-size:7.98;">d</tspan><tspan x="36.372" y="0" style="font-family:'ProductusSemibold'; font-size:7.98;">m</tspan><tspan x="42.732" y="0" style="font-family:'ProductusSemibold'; font-size:7.98;">i</tspan><tspan x="44.887" y="0" style="font-family:'ProductusSemibold'; font-size:7.98;">n</tspan></text>
<polyline style="fill-rule:evenodd;clip-rule:evenodd;" points="42.78,28.62 49.86,21.479 56.94,14.399 56.94,28.62 "/>
<polyline points="42.6,28.439 56.76,14.22 57.18,13.8 57.18,14.399 57.12,14.58 42.96,28.8 "/>
<rect x="56.7" y="14.399" width="0.48" height="14.46"/>
<polyline points="56.94,28.859 42.18,28.859 42.6,28.439 42.78,28.38 56.94,28.38 "/>
<rect x="56.7" y="14.16" width="0.24" height="0.479"/>
<rect x="56.94" y="14.16" width="35.7" height="0.479"/>
<text transform="matrix(1 0 0 1 87.4199 12.0596)" style="font-family:'ProductusBook'; font-size:7.98;">*</text>
<text transform="matrix(1 0 0 1 59.7598 12.0596)" style="font-family:'ProductusBook'; font-size:7.98;">1</text>
<text transform="matrix(1 0 0 1 174.2397 54.5996)" style="font-family:'ProductusBook'; font-size:7.98;">*</text>
<text transform="matrix(1 0 0 1 174.2397 54.5996)" style="font-family:'ProductusBook'; font-size:7.98;">*</text>
<text transform="matrix(1 0 0 1 230.9399 33.8398)" style="font-family:'ProductusBook'; font-size:7.98;">1</text>
<text transform="matrix(1 0 0 1 259.4995 55.1396)" style="font-family:'ProductusBook'; font-size:7.98;">*</text>
<rect x="127.56" y="14.16" width="0.479" height="0.239"/>
<rect x="127.56" y="14.399" width="0.479" height="1.98"/>
<rect x="127.56" y="19.8" width="0.479" height="0.24"/>
<rect x="127.56" y="20.04" width="0.479" height="3.3"/>
<rect x="127.56" y="26.76" width="0.479" height="0.24"/>
<rect x="127.56" y="27" width="0.479" height="3.3"/>
<rect x="127.56" y="33.66" width="0.479" height="0.239"/>
<rect x="127.56" y="33.899" width="0.479" height="2.04"/>
<rect x="94.74" y="2.04" width="54.36" height="26.58"/>
<rect x="94.74" y="1.8" width="54.6" height="0.479"/>
<rect x="148.86" y="2.04" width="0.479" height="26.819"/>
<rect x="94.5" y="28.38" width="54.6" height="0.479"/>
<rect x="94.5" y="1.8" width="0.48" height="26.82"/>
<rect x="92.4" y="0.24" style="fill:#FFFFFF;" width="54.3" height="26.579"/>
<rect x="92.4" width="54.54" height="0.479"/>
<rect x="146.459" y="0.24" width="0.48" height="26.819"/>
<rect x="92.16" y="26.58" width="54.54" height="0.479"/>
<rect x="92.16" width="0.48" height="26.819"/>
<text transform="matrix(1 0 0 1 94.7397 7.3203)"><tspan x="0" y="0" style="font-family:'ProductusOSGiBookc'; font-size:7.98;">&lt;&lt;</tspan><tspan x="5.857" y="0" style="font-family:'ProductusOSGiBookc'; font-size:7.98;">i</tspan><tspan x="7.365" y="0" style="font-family:'ProductusOSGiBookc'; font-size:7.98;">nterface&gt;&gt;</tspan></text>
<text transform="matrix(1 0 0 1 94.7397 15.8398)"><tspan x="0" y="0" style="font-family:'ProductusSemibold'; font-size:7.98;">C</tspan><tspan x="4.676" y="0" style="font-family:'ProductusSemibold'; font-size:7.98;">o</tspan><tspan x="9.049" y="0" style="font-family:'ProductusSemibold'; font-size:7.98;">ndi</tspan><tspan x="19.79" y="0" style="font-family:'ProductusSemibold'; font-size:7.98;">t</tspan><tspan x="22.966" y="0" style="font-family:'ProductusSemibold'; font-size:7.98;">iona</tspan><tspan x="37.648" y="0" style="font-family:'ProductusSemibold'; font-size:7.98;">l</tspan><tspan x="39.867" y="0" style="font-family:'ProductusSemibold'; font-size:7.98;"> </tspan></text>
<text transform="matrix(1 0 0 1 94.7397 24.3604)"><tspan x="0" y="0" style="font-family:'ProductusSemibold'; font-size:7.98;">P</tspan><tspan x="3.958" y="0" style="font-family:'ProductusSemibold'; font-size:7.98;">er</tspan><tspan x="11.084" y="0" style="font-family:'ProductusSemibold'; font-size:7.98;">m.</tspan><tspan x="19.654" y="0" style="font-family:'ProductusSemibold'; font-size:7.98;"> </tspan><tspan x="21.634" y="0" style="font-family:'ProductusSemibold'; font-size:7.98;">Up</tspan><tspan x="31.105" y="0" style="font-family:'ProductusSemibold'; font-size:7.98;">d</tspan><tspan x="35.423" y="0" style="font-family:'ProductusSemibold'; font-size:7.98;">a</tspan><tspan x="39.381" y="0" style="font-family:'ProductusSemibold'; font-size:7.98;">t</tspan><tspan x="42.501" y="0" style="font-family:'ProductusSemibold'; font-size:7.98;">e</tspan></text>
<rect x="148.86" y="14.16" width="0.24" height="0.479"/>
<rect x="149.1" y="14.16" width="35.64" height="0.479"/>
<text transform="matrix(1 0 0 1 179.7603 12.0596)" style="font-family:'ProductusBook'; font-size:7.98;">*</text>
<text transform="matrix(1 0 0 1 152.0396 12.0596)" style="font-family:'ProductusBook'; font-size:7.98;">1</text>
<text transform="matrix(1 0 0 1 192.3599 33.8398)" style="font-family:'ProductusBook'; font-size:7.98;">1</text>
</svg>
