<?xml version="1.0" encoding="utf-8"?>
<!-- Generator: Adobe Illustrator 16.0.0, SVG Export Plug-In . SVG Version: 6.00 Build 0)  -->
<!DOCTYPE svg PUBLIC "-//W3C//DTD SVG 1.1//EN" "http://www.w3.org/Graphics/SVG/1.1/DTD/svg11.dtd">
<svg version="1.1" id="Layer_1" xmlns="http://www.w3.org/2000/svg" xmlns:xlink="http://www.w3.org/1999/xlink" x="0px" y="0px"
	 width="312.3px" height="142.506px" viewBox="0 0 312.3 142.506" style="enable-background:new 0 0 312.3 142.506;"
	 xml:space="preserve">
<rect x="219.96" y="28.56" style="fill:#FFFFFF;" width="92.1" height="99.24"/>
<rect x="219.72" y="28.32" width="0.48" height="1.26"/>
<rect x="219.96" y="28.32" width="0.96" height="0.48"/>
<rect x="224.76" y="28.32" width="1.92" height="0.48"/>
<rect x="230.52" y="28.32" width="1.92" height="0.48"/>
<rect x="236.28" y="28.32" width="1.92" height="0.48"/>
<rect x="242.04" y="28.32" width="1.92" height="0.48"/>
<rect x="247.8" y="28.32" width="1.92" height="0.48"/>
<rect x="253.56" y="28.32" width="1.86" height="0.48"/>
<rect x="259.26" y="28.32" width="1.92" height="0.48"/>
<rect x="265.02" y="28.32" width="1.92" height="0.48"/>
<rect x="270.78" y="28.32" width="1.92" height="0.48"/>
<rect x="276.54" y="28.32" width="1.92" height="0.48"/>
<rect x="282.3" y="28.32" width="1.92" height="0.48"/>
<rect x="288.06" y="28.32" width="1.92" height="0.48"/>
<rect x="293.82" y="28.32" width="1.92" height="0.48"/>
<rect x="299.58" y="28.32" width="1.92" height="0.48"/>
<rect x="305.28" y="28.32" width="1.92" height="0.48"/>
<rect x="311.04" y="28.32" width="1.26" height="0.48"/>
<rect x="311.82" y="28.56" width="0.479" height="1.02"/>
<rect x="311.82" y="33.48" width="0.479" height="1.92"/>
<rect x="311.82" y="39.3" width="0.479" height="1.92"/>
<rect x="311.82" y="45.12" width="0.479" height="1.98"/>
<rect x="311.82" y="50.94" width="0.479" height="1.98"/>
<rect x="311.82" y="56.82" width="0.479" height="1.92"/>
<rect x="311.82" y="62.64" width="0.479" height="1.92"/>
<rect x="311.82" y="68.46" width="0.479" height="1.92"/>
<rect x="311.82" y="74.28" width="0.479" height="1.98"/>
<rect x="311.82" y="80.101" width="0.479" height="1.979"/>
<rect x="311.82" y="85.98" width="0.479" height="1.92"/>
<rect x="311.82" y="91.8" width="0.479" height="1.92"/>
<rect x="311.82" y="97.62" width="0.479" height="1.92"/>
<rect x="311.82" y="103.44" width="0.479" height="1.979"/>
<rect x="311.82" y="109.26" width="0.479" height="1.98"/>
<rect x="311.82" y="115.141" width="0.479" height="1.92"/>
<rect x="311.82" y="120.96" width="0.479" height="1.92"/>
<rect x="311.82" y="126.78" width="0.479" height="1.26"/>
<rect x="311.04" y="127.561" width="1.02" height="0.479"/>
<rect x="305.28" y="127.561" width="1.92" height="0.479"/>
<rect x="299.58" y="127.561" width="1.92" height="0.479"/>
<rect x="293.82" y="127.561" width="1.92" height="0.479"/>
<rect x="288.06" y="127.561" width="1.92" height="0.479"/>
<rect x="282.3" y="127.561" width="1.92" height="0.479"/>
<rect x="276.54" y="127.561" width="1.92" height="0.479"/>
<rect x="270.78" y="127.561" width="1.92" height="0.479"/>
<rect x="265.02" y="127.561" width="1.92" height="0.479"/>
<rect x="259.26" y="127.561" width="1.92" height="0.479"/>
<rect x="253.56" y="127.561" width="1.92" height="0.479"/>
<rect x="247.8" y="127.561" width="1.92" height="0.479"/>
<rect x="242.04" y="127.561" width="1.92" height="0.479"/>
<rect x="236.28" y="127.561" width="1.92" height="0.479"/>
<rect x="230.52" y="127.561" width="1.92" height="0.479"/>
<rect x="224.76" y="127.561" width="1.92" height="0.479"/>
<rect x="219.72" y="127.561" width="1.2" height="0.479"/>
<rect x="219.72" y="126.78" width="0.48" height="1.02"/>
<rect x="219.72" y="120.96" width="0.48" height="1.92"/>
<rect x="219.72" y="115.141" width="0.48" height="1.92"/>
<rect x="219.72" y="109.32" width="0.48" height="1.92"/>
<rect x="219.72" y="103.44" width="0.48" height="1.979"/>
<rect x="219.72" y="97.62" width="0.48" height="1.98"/>
<rect x="219.72" y="91.8" width="0.48" height="1.92"/>
<rect x="219.72" y="85.98" width="0.48" height="1.92"/>
<rect x="219.72" y="80.101" width="0.48" height="1.979"/>
<rect x="219.72" y="74.28" width="0.48" height="1.98"/>
<rect x="219.72" y="68.46" width="0.48" height="1.92"/>
<rect x="219.72" y="62.64" width="0.48" height="1.92"/>
<rect x="219.72" y="56.82" width="0.48" height="1.92"/>
<rect x="219.72" y="50.94" width="0.48" height="1.98"/>
<rect x="219.72" y="45.12" width="0.48" height="1.98"/>
<rect x="219.72" y="39.3" width="0.48" height="1.92"/>
<rect x="219.72" y="33.48" width="0.48" height="1.92"/>
<polyline style="fill-rule:evenodd;clip-rule:evenodd;" points="21.48,78.18 21.48,77.46 21.36,76.74 21.18,76.08 20.94,75.42 
	20.64,74.82 20.28,74.22 19.86,73.68 19.44,73.2 18.9,72.72 18.36,72.3 17.76,71.94 17.16,71.64 16.5,71.4 15.84,71.22 15.12,71.16 
	14.4,71.1 13.68,71.16 12.96,71.22 12.3,71.4 11.64,71.64 11.04,71.94 10.44,72.3 9.9,72.72 8.94,73.68 8.52,74.22 8.16,74.82 
	7.86,75.42 7.62,76.08 7.44,76.74 7.32,78.18 7.44,79.62 7.62,80.28 7.86,80.94 8.16,81.54 8.52,82.141 8.94,82.68 9.42,83.22 
	9.9,83.641 10.44,84.061 11.04,84.42 11.64,84.72 12.3,84.96 12.96,85.141 13.68,85.26 15.12,85.26 15.84,85.141 16.5,84.96 
	17.16,84.72 17.76,84.42 18.36,84.061 19.44,83.22 20.28,82.141 20.64,81.54 20.94,80.94 21.18,80.28 21.36,79.62 21.48,78.9 
	21.48,78.18 "/>
<polyline style="fill:#FFFFFF;" points="21.24,78.18 21.24,77.46 21.24,77.52 21.12,76.8 20.94,76.14 20.94,76.2 20.7,75.54 
	20.76,75.54 20.46,74.94 20.1,74.34 20.1,74.4 19.68,73.86 19.26,73.38 19.32,73.38 18.78,72.9 18.24,72.48 18.24,72.54 
	17.64,72.18 17.04,71.88 17.1,71.88 16.44,71.64 15.78,71.46 15.84,71.46 14.4,71.34 14.46,71.34 13.02,71.46 12.36,71.64 
	12.42,71.64 11.76,71.88 11.16,72.18 10.56,72.54 10.62,72.48 10.08,72.9 9.12,73.86 8.7,74.4 8.76,74.34 8.4,74.94 8.1,75.54 
	7.86,76.2 7.86,76.14 7.68,76.8 7.56,78.24 7.56,78.18 7.68,79.62 7.68,79.561 7.86,80.22 8.1,80.88 8.1,80.82 8.4,81.42 
	8.76,82.021 8.7,82.021 9.12,82.561 9.6,83.101 9.6,83.04 10.08,83.46 9.78,83.82 9.3,83.4 9.24,83.4 8.76,82.86 8.34,82.32 
	8.34,82.26 7.98,81.66 7.68,81.061 7.62,81.061 7.38,80.4 7.38,80.34 7.2,79.68 7.08,78.24 7.08,78.18 7.2,76.74 7.2,76.68 
	7.38,76.02 7.62,75.36 7.68,75.3 7.98,74.7 8.34,74.1 8.76,73.56 8.76,73.5 9.72,72.54 9.78,72.54 10.32,72.12 10.92,71.76 
	11.52,71.46 11.58,71.4 12.24,71.16 12.9,70.98 12.96,70.98 14.4,70.86 14.46,70.86 15.9,70.98 16.56,71.16 16.62,71.16 17.28,71.4 
	17.28,71.46 17.88,71.76 18.48,72.12 18.54,72.12 19.08,72.54 19.62,73.02 19.62,73.08 20.04,73.56 20.46,74.1 20.52,74.1 
	20.88,74.7 21.18,75.3 21.18,75.36 21.42,76.02 21.6,76.68 21.6,76.74 21.72,77.46 21.72,78.18 "/>
<polyline style="fill:#FFFFFF;" points="10.08,83.46 10.62,83.88 10.56,83.88 11.16,84.24 11.76,84.54 11.76,84.48 12.42,84.72 
	12.36,84.72 13.02,84.9 13.74,85.021 13.68,85.021 15.12,85.021 15.84,84.9 15.78,84.9 16.44,84.72 17.1,84.48 17.04,84.54 
	17.64,84.24 18.24,83.88 19.32,83.04 19.26,83.101 20.1,82.021 20.46,81.42 20.76,80.82 20.7,80.88 20.94,80.22 21.12,79.561 
	21.12,79.62 21.24,78.9 21.24,78.18 21.72,78.18 21.72,78.96 21.6,79.68 21.42,80.34 21.42,80.4 21.18,81.061 20.88,81.66 
	20.52,82.26 20.46,82.32 19.62,83.4 18.54,84.24 18.48,84.3 17.88,84.66 17.28,84.96 16.62,85.2 16.56,85.2 15.9,85.38 15.18,85.5 
	13.68,85.5 12.96,85.38 12.9,85.38 12.24,85.2 11.58,84.96 11.52,84.96 10.92,84.66 10.32,84.3 10.32,84.24 9.78,83.82 "/>
<rect x="149.04" y="56.94" style="fill:#E6E6E6;" width="35.46" height="35.399"/>
<rect x="149.04" y="56.7" width="35.7" height="0.48"/>
<rect x="184.26" y="56.94" width="0.48" height="35.64"/>
<rect x="148.8" y="92.101" width="35.7" height="0.479"/>
<rect x="148.8" y="56.7" width="0.48" height="35.64"/>
<polyline style="fill-rule:evenodd;clip-rule:evenodd;fill:#FFFFFF;" points="46.32,3.24 46.26,2.64 46.02,2.1 45.72,1.56 
	44.76,0.72 44.16,0.48 43.5,0.3 42.78,0.24 42.06,0.3 41.4,0.48 40.8,0.72 40.26,1.14 39.84,1.56 39.48,2.1 39.3,2.64 39.24,3.24 
	39.3,3.9 39.48,4.44 39.84,4.98 40.26,5.4 40.8,5.76 41.4,6.06 42.06,6.24 42.78,6.3 43.5,6.24 44.16,6.06 44.76,5.76 45.24,5.4 
	45.72,4.98 46.02,4.44 46.26,3.9 46.32,3.24 "/>
<polyline points="46.08,3.3 46.02,2.7 46.08,2.76 45.84,2.22 45.54,1.68 45.6,1.74 44.64,0.9 44.7,0.96 44.1,0.72 43.44,0.54 
	43.5,0.54 42.78,0.48 42.84,0.48 42.12,0.54 41.46,0.72 41.52,0.72 40.92,0.96 40.98,0.9 40.44,1.32 40.02,1.74 40.08,1.68 
	39.72,2.22 39.54,2.76 39.54,2.7 39.48,3.3 39.48,3.24 39.54,3.9 39.54,3.84 39.72,4.38 39.72,4.32 40.08,4.86 40.02,4.8 
	40.44,5.22 40.38,5.22 40.92,5.58 41.52,5.88 41.46,5.82 42.12,6 42.84,6.06 42.78,6.06 43.5,6 43.44,6 44.1,5.82 44.04,5.88 
	44.64,5.58 45.12,5.22 45.6,4.8 45.54,4.86 45.84,4.32 45.84,4.38 46.08,3.84 46.02,3.9 46.08,3.24 46.56,3.3 46.5,3.96 46.5,4.02 
	46.26,4.56 45.96,5.1 45.9,5.16 45.42,5.58 44.94,5.94 44.88,6 44.28,6.3 44.22,6.3 43.56,6.48 42.84,6.54 42.78,6.54 42.06,6.48 
	42,6.48 41.34,6.3 41.28,6.3 40.68,6 40.14,5.64 39.66,5.16 39.66,5.1 39.3,4.56 39.24,4.56 39.06,4.02 39.06,3.96 39,3.3 39,3.24 
	39.06,2.64 39.06,2.58 39.24,2.04 39.3,1.98 39.66,1.44 39.66,1.38 40.08,0.96 40.14,0.96 40.68,0.54 40.74,0.54 41.34,0.3 
	41.34,0.24 42,0.06 42.06,0.06 42.78,0 42.84,0 43.56,0.06 44.22,0.24 44.28,0.3 44.88,0.54 44.94,0.54 45.9,1.38 45.96,1.44 
	46.26,1.98 46.26,2.04 46.5,2.58 46.5,2.64 46.56,3.24 "/>
<polyline points="46.08,3.24 46.08,3.3 46.56,3.24 46.56,3.3 "/>
<rect x="42.54" y="6.06" width="0.48" height="9.6"/>
<polyline points="42.96,15.24 42.78,15.12 42.48,15.48 42.66,15.6 "/>
<polyline points="50.04,21.3 50.22,21.42 49.92,21.78 49.74,21.66 "/>
<polyline points="42.96,15.24 42.66,15.6 49.74,21.66 50.04,21.3 "/>
<polyline points="42.96,15.6 43.14,15.48 42.84,15.12 42.66,15.24 "/>
<polyline points="35.88,21.66 35.7,21.78 35.4,21.42 35.58,21.3 "/>
<polyline points="42.96,15.6 42.66,15.24 35.58,21.3 35.88,21.66 "/>
<rect x="35.46" y="9.12" width="14.64" height="0.48"/>
<rect x="21.24" y="77.94" width="43.02" height="0.48"/>
<polyline style="fill-rule:evenodd;clip-rule:evenodd;fill:#FFFFFF;" points="166.8,3.24 166.68,2.64 166.5,2.1 166.2,1.56 
	165.24,0.72 164.64,0.48 163.979,0.3 163.26,0.24 162.54,0.3 161.88,0.48 161.28,0.72 160.74,1.14 160.32,1.56 159.96,2.1 
	159.78,2.64 159.72,3.24 159.78,3.9 159.96,4.44 160.32,4.98 160.74,5.4 161.28,5.76 161.88,6.06 162.54,6.24 163.26,6.3 
	163.979,6.24 164.64,6.06 165.24,5.76 165.72,5.4 166.2,4.98 166.5,4.44 166.68,3.9 166.8,3.24 "/>
<polyline points="166.56,3.3 166.439,2.7 166.439,2.76 166.26,2.22 166.32,2.22 166.02,1.68 166.08,1.74 165.12,0.9 165.18,0.96 
	164.58,0.72 163.92,0.54 163.979,0.54 163.26,0.48 163.32,0.48 162.6,0.54 161.939,0.72 162,0.72 161.4,0.96 161.46,0.9 
	160.92,1.32 160.5,1.74 160.56,1.68 160.2,2.22 160.02,2.76 160.02,2.7 159.96,3.3 159.96,3.24 160.02,3.9 160.02,3.84 160.2,4.38 
	160.2,4.32 160.56,4.86 160.5,4.8 160.92,5.22 160.86,5.22 161.4,5.58 162,5.88 161.939,5.82 162.6,6 163.32,6.06 163.26,6.06 
	163.979,6 163.92,6 164.58,5.82 164.52,5.88 165.12,5.58 165.6,5.22 166.08,4.8 166.02,4.86 166.32,4.32 166.26,4.38 166.439,3.84 
	166.439,3.9 166.56,3.24 167.04,3.3 166.92,3.96 166.92,4.02 166.74,4.56 166.439,5.1 166.38,5.16 165.9,5.58 165.42,5.94 165.36,6 
	164.76,6.3 164.7,6.3 164.04,6.48 163.32,6.54 163.26,6.54 162.54,6.48 162.479,6.48 161.82,6.3 161.76,6.3 161.16,6 160.62,5.64 
	160.14,5.16 160.14,5.1 159.78,4.56 159.72,4.56 159.54,4.02 159.54,3.96 159.479,3.3 159.479,3.24 159.54,2.64 159.54,2.58 
	159.72,2.04 159.78,1.98 160.14,1.44 160.14,1.38 160.56,0.96 160.62,0.96 161.16,0.54 161.22,0.54 161.82,0.3 161.82,0.24 
	162.479,0.06 162.54,0.06 163.26,0 163.32,0 164.04,0.06 164.7,0.24 164.76,0.3 165.36,0.54 165.42,0.54 166.38,1.38 166.439,1.44 
	166.74,1.98 166.74,2.04 166.92,2.58 167.04,3.18 "/>
<polyline points="166.56,3.24 166.56,3.3 167.04,3.18 167.04,3.3 "/>
<rect x="163.02" y="6.06" width="0.48" height="9.6"/>
<polyline points="163.439,15.24 163.26,15.12 162.96,15.48 163.14,15.6 "/>
<polyline points="170.52,21.3 170.7,21.42 170.4,21.78 170.22,21.66 "/>
<polyline points="163.439,15.24 163.14,15.6 170.22,21.66 170.52,21.3 "/>
<polyline points="163.439,15.6 163.62,15.48 163.32,15.12 163.14,15.24 "/>
<polyline points="156.3,21.66 156.12,21.78 155.82,21.42 156,21.3 "/>
<polyline points="163.439,15.6 163.14,15.24 156,21.3 156.3,21.66 "/>
<rect x="155.88" y="9.12" width="14.7" height="0.48"/>
<rect x="99.24" y="77.94" width="50.041" height="0.48"/>
<polyline style="fill-rule:evenodd;clip-rule:evenodd;fill:#808080;" points="257.58,51.3 256.56,50.28 255.96,49.86 255.36,49.56 
	254.7,49.32 254.04,49.14 252.72,49.02 251.28,49.14 249.9,49.5 248.52,50.04 247.26,50.76 246.72,51.18 246.12,51.66 245.16,52.62 
	244.439,53.7 244.14,54.24 243.96,54.78 243.78,55.38 243.72,55.98 243.78,56.52 243.84,57.12 244.08,57.66 244.38,58.26 
	244.8,58.8 245.28,59.34 245.939,59.94 247.56,61.92 248.4,63.24 249.06,64.68 249.54,66.06 249.84,67.5 249.9,68.88 249.72,70.26 
	249.6,70.92 249.36,71.58 249.06,72.24 248.76,72.84 248.34,73.44 247.92,73.98 247.38,74.58 246.84,75.06 246.18,75.54 
	245.46,76.02 244.68,76.44 243.84,76.86 243,77.16 241.979,77.52 240.96,77.76 239.88,78 239.1,78.06 238.14,78 235.56,77.76 
	232.56,77.46 229.62,77.28 228.3,77.28 227.16,77.4 226.26,77.58 225.9,77.76 225.66,78 225.479,78.24 225.36,78.54 225.36,78.9 
	225.479,79.26 225.72,79.74 226.08,80.22 226.56,80.82 227.16,81.42 234.54,91.141 235.62,92.22 236.16,92.641 236.64,93 
	237.18,93.36 238.26,93.72 238.8,93.78 239.34,93.78 239.82,93.66 240.36,93.42 240.9,93.061 241.38,92.58 241.86,91.98 242.4,91.2 
	243.36,89.521 244.08,88.8 244.86,88.141 245.76,87.54 246.78,87 247.74,86.641 248.76,86.34 249.78,86.16 250.74,86.16 
	251.58,86.28 252.3,86.58 252.6,86.82 252.84,87.061 253.08,87.42 253.26,87.72 253.38,88.141 253.439,88.62 253.38,89.101 
	253.32,89.7 252.96,90.96 252.54,92.46 252.3,93.9 252.3,95.34 252.42,96.84 252.72,98.22 253.26,99.601 253.86,100.86 
	254.64,102.061 255.6,103.141 256.14,103.68 256.68,104.16 257.88,105 259.2,105.66 260.64,106.2 262.2,106.5 263.88,106.62 
	265.62,106.5 267,106.26 267.6,106.08 268.14,105.84 268.56,105.601 268.92,105.3 269.22,104.94 269.46,104.641 269.82,103.86 
	270,103.021 270.06,102.12 270,101.101 269.76,99.12 269.64,97.08 269.7,96.12 269.939,95.16 270.3,94.32 270.6,93.9 270.9,93.54 
	271.56,92.94 272.28,92.521 273.06,92.16 273.9,91.92 274.74,91.8 275.58,91.74 276.479,91.8 277.38,91.92 278.22,92.101 
	279.06,92.4 279.84,92.7 281.28,93.54 281.88,94.021 282.36,94.561 282.78,95.101 283.439,96 284.16,96.72 285,97.32 285.9,97.8 
	286.86,98.16 287.88,98.34 288.84,98.46 289.86,98.46 290.82,98.28 291.72,98.04 292.56,97.68 293.34,97.26 293.939,96.72 
	294.479,96.061 294.9,95.28 295.08,94.5 295.439,93.061 296.1,91.62 296.88,90.18 297.9,88.8 298.979,87.42 300.18,86.04 
	302.46,83.521 303.479,82.38 304.38,81.24 305.1,80.28 305.52,79.32 305.64,78.96 305.7,78.54 305.64,78.18 305.52,77.88 
	305.28,77.58 304.92,77.34 304.5,77.1 303.9,76.92 298.5,75.48 295.86,74.7 293.34,73.68 292.14,73.14 290.939,72.54 289.8,71.82 
	288.72,71.04 287.7,70.2 286.74,69.24 285.84,68.22 285.06,67.08 284.64,66.42 284.34,65.7 284.1,65.04 283.92,64.44 283.86,63.78 
	283.86,63.12 284.1,61.92 284.46,60.66 285.06,59.46 285.72,58.26 286.439,57.12 287.939,54.72 288.6,53.52 289.14,52.26 
	289.5,51.06 289.62,50.4 289.62,49.08 289.5,48.42 289.38,47.7 289.08,47.04 288.54,46.02 287.939,45.06 287.16,44.22 286.32,43.5 
	285.36,42.9 284.4,42.36 283.38,42 282.36,41.76 281.34,41.7 280.32,41.76 279.36,41.94 278.46,42.36 277.62,42.9 277.2,43.26 
	276.84,43.68 276.54,44.1 276.24,44.58 275.7,45.72 275.1,47.16 274.38,48.6 273.54,49.98 272.58,51.3 271.5,52.5 270.36,53.58 
	269.16,54.48 267.84,55.26 266.52,55.8 265.8,55.98 265.14,56.1 264.42,56.16 263.7,56.16 262.979,56.04 262.32,55.92 261.6,55.68 
	260.88,55.32 260.22,54.96 259.5,54.42 258.78,53.82 258.12,53.16 257.46,52.38 256.8,51.48 "/>
<polyline points="257.4,51.48 257.58,51.66 257.939,51.3 257.76,51.12 "/>
<polyline points="257.4,51.48 256.38,50.46 256.439,50.52 255.84,50.1 255.24,49.8 255.3,49.8 254.64,49.56 253.979,49.38 
	254.04,49.38 252.72,49.26 252.78,49.26 251.34,49.38 249.96,49.74 250.02,49.74 248.64,50.28 247.38,51 247.439,50.94 246.9,51.36 
	246.3,51.84 245.34,52.8 245.4,52.74 244.68,53.82 244.38,54.36 244.2,54.9 244.2,54.84 244.02,55.44 243.96,56.04 243.96,55.98 
	244.02,56.52 244.08,57.12 244.08,57.06 244.32,57.6 244.32,57.54 244.62,58.14 244.56,58.14 244.979,58.68 245.46,59.22 
	245.46,59.16 246.12,59.76 246.12,59.82 247.74,61.8 247.8,61.8 248.64,63.12 248.64,63.18 249.3,64.62 249.78,66 250.08,67.44 
	250.08,67.5 250.14,68.88 250.14,68.94 249.96,70.32 249.84,70.98 249.84,71.04 249.6,71.7 249.3,72.36 249,72.96 249,73.02 
	248.58,72.72 248.88,72.12 248.88,72.18 249.18,71.52 249.12,71.52 249.36,70.86 249.36,70.92 249.479,70.26 249.66,68.88 
	249.6,67.5 249.6,67.56 249.3,66.12 249.3,66.18 248.82,64.8 248.88,64.8 248.22,63.36 247.38,62.04 247.38,62.1 245.76,60.12 
	245.82,60.12 245.16,59.52 245.1,59.52 244.62,58.98 244.2,58.44 244.2,58.38 243.9,57.78 243.66,57.24 243.6,57.18 243.54,56.58 
	243.479,56.04 243.479,55.98 243.54,55.38 243.54,55.32 243.72,54.72 243.9,54.18 243.96,54.12 244.26,53.58 244.979,52.5 
	244.979,52.44 245.939,51.48 246,51.48 246.6,51 247.14,50.58 248.4,49.86 248.46,49.86 249.84,49.32 249.84,49.26 251.22,48.9 
	251.28,48.9 252.72,48.78 252.78,48.78 254.1,48.9 254.76,49.08 254.82,49.08 255.479,49.32 255.479,49.38 256.08,49.68 
	256.14,49.68 256.74,50.1 257.76,51.12 "/>
<polyline points="249,73.02 248.58,73.62 248.52,73.62 248.1,74.16 247.56,74.76 247.02,75.24 246.36,75.72 246.3,75.78 
	245.58,76.26 244.8,76.68 243.96,77.1 243.12,77.4 242.1,77.76 242.04,77.76 241.02,78 239.939,78.24 239.16,78.3 239.1,78.3 
	238.14,78.24 235.56,78 232.56,77.7 229.62,77.52 228.3,77.52 228.36,77.52 227.22,77.64 226.32,77.82 226.38,77.82 226.02,78 
	226.08,77.94 225.84,78.18 225.66,78.42 225.72,78.36 225.6,78.66 225.6,78.54 225.6,78.9 225.6,78.84 225.72,79.2 225.72,79.14 
	225.96,79.62 225.9,79.62 226.26,80.101 226.74,80.7 226.74,80.641 227.34,81.24 227.34,81.3 234.72,91.021 234.72,90.96 
	235.8,92.04 236.34,92.46 236.82,92.82 236.76,92.82 237.3,93.18 237.3,93.12 238.38,93.48 238.32,93.48 238.86,93.54 238.8,93.54 
	239.34,93.54 239.28,93.54 239.76,93.42 239.76,93.48 240.3,93.24 240.24,93.24 240.479,93.66 239.939,93.9 239.88,93.9 
	239.4,94.021 238.8,94.021 238.26,93.96 238.2,93.96 237.12,93.601 237.06,93.601 236.52,93.24 236.52,93.18 236.04,92.82 
	235.5,92.4 235.439,92.4 234.36,91.32 226.979,81.601 226.38,81 225.9,80.4 225.54,79.92 225.54,79.86 225.3,79.38 225.24,79.38 
	225.12,79.02 225.12,78.54 225.18,78.48 225.3,78.18 225.3,78.12 225.479,77.88 225.479,77.82 225.72,77.58 225.78,77.58 
	226.14,77.4 226.2,77.34 227.1,77.16 227.16,77.16 228.3,77.04 229.62,77.04 232.56,77.22 232.62,77.22 235.62,77.52 238.2,77.76 
	238.14,77.76 239.1,77.82 239.88,77.76 239.82,77.76 240.9,77.52 241.92,77.28 242.939,76.92 243.78,76.62 243.72,76.68 
	244.56,76.26 245.34,75.84 246.06,75.36 246.72,74.88 247.26,74.4 247.2,74.46 247.74,73.86 248.16,73.32 248.58,72.72 "/>
<polyline points="240.24,93.24 240.78,92.88 240.72,92.88 241.2,92.4 241.2,92.46 241.68,91.86 242.22,91.08 243.18,89.4 
	243.18,89.34 243.9,88.62 243.96,88.62 244.74,87.96 245.64,87.36 246.66,86.82 246.72,86.82 247.68,86.46 247.68,86.4 
	248.7,86.101 248.76,86.101 249.78,85.92 250.8,85.92 251.64,86.04 251.7,86.101 252.42,86.4 252.479,86.4 252.78,86.641 
	253.08,86.94 253.32,87.3 253.5,87.601 253.5,87.66 253.62,88.08 253.62,88.141 253.68,88.62 253.68,88.68 253.62,89.16 
	253.56,89.76 253.2,91.021 252.78,92.521 252.54,93.96 252.54,93.9 252.54,95.34 252.66,96.84 252.66,96.78 252.96,98.16 
	253.5,99.54 254.1,100.8 254.1,100.74 254.88,101.94 254.82,101.94 255.78,103.021 255.78,102.96 256.32,103.5 256.86,103.98 
	258.06,104.82 258,104.82 259.32,105.48 260.76,106.021 260.7,105.96 262.26,106.26 263.939,106.38 263.88,106.38 263.939,106.86 
	263.88,106.86 262.2,106.74 262.14,106.74 260.58,106.44 259.14,105.9 259.08,105.9 257.76,105.24 256.56,104.4 256.56,104.34 
	256.02,103.86 255.96,103.86 255.42,103.32 254.46,102.24 254.46,102.18 253.68,100.98 253.08,99.72 252.54,98.34 252.479,98.28 
	252.18,96.9 252.06,95.4 252.06,93.9 252.3,92.46 252.3,92.4 252.72,90.9 253.08,89.641 253.08,89.7 253.14,89.101 253.2,88.62 
	253.2,88.68 253.14,88.2 253.02,87.78 253.08,87.84 252.9,87.54 252.66,87.18 252.66,87.24 252.42,87 252.479,87 252.18,86.76 
	252.24,86.82 251.52,86.521 251.58,86.521 250.74,86.4 249.78,86.4 249.84,86.4 248.82,86.58 247.8,86.88 247.86,86.88 246.9,87.24 
	245.88,87.78 244.979,88.38 245.04,88.32 244.26,88.98 243.54,89.7 243.6,89.641 242.64,91.32 242.64,91.38 242.1,92.16 
	242.04,92.16 241.56,92.76 241.02,93.3 240.479,93.66 "/>
<polyline points="263.88,106.38 265.62,106.26 267,106.021 266.939,106.021 267.54,105.84 267.54,105.9 268.08,105.66 
	268.02,105.66 268.439,105.42 268.8,105.12 268.74,105.18 269.04,104.82 269.28,104.521 269.28,104.58 269.64,103.8 269.58,103.8 
	269.76,102.96 269.76,103.021 269.82,102.12 269.76,101.101 269.76,101.16 269.52,99.18 269.52,99.12 269.4,97.08 269.46,96.12 
	269.46,96.061 269.7,95.101 269.76,95.101 270.12,94.26 270.12,94.2 270.42,93.78 270.72,93.42 270.78,93.36 271.439,92.76 
	272.16,92.34 272.22,92.34 273,91.98 273,91.92 273.84,91.68 273.9,91.68 274.74,91.561 275.58,91.5 275.64,91.5 276.54,91.561 
	277.439,91.68 278.28,91.86 278.34,91.86 279.18,92.16 279.18,92.22 279.96,92.521 281.4,93.36 281.46,93.36 282.06,93.84 
	282.06,93.9 282.54,94.44 282.96,94.98 283.62,95.88 283.62,95.82 284.34,96.54 285.18,97.141 285.12,97.141 286.02,97.62 
	286.979,97.98 286.92,97.92 286.86,98.4 286.8,98.4 285.84,98.04 285.78,98.04 284.88,97.561 284.04,96.96 283.26,96.18 
	282.6,95.28 282.18,94.74 281.7,94.2 281.76,94.2 281.16,93.72 281.16,93.78 279.72,92.94 279.78,92.94 279,92.641 278.16,92.34 
	277.32,92.16 277.38,92.16 276.479,92.04 275.58,91.98 275.64,91.98 274.8,92.04 273.96,92.16 273.12,92.4 273.18,92.4 272.4,92.76 
	271.68,93.18 271.74,93.12 271.08,93.72 270.78,94.08 270.84,94.08 270.54,94.5 270.54,94.44 270.18,95.28 270.18,95.22 
	269.939,96.18 269.939,96.12 269.88,97.08 270,99.12 270.24,101.101 270.3,102.12 270.3,102.18 270.24,103.08 270.06,103.92 
	270.06,103.98 269.7,104.76 269.64,104.82 269.4,105.12 269.1,105.48 268.74,105.78 268.68,105.84 268.26,106.08 267.72,106.32 
	267.66,106.32 267.06,106.5 265.68,106.74 263.939,106.86 "/>
<polyline points="286.92,97.92 287.939,98.101 288.9,98.22 288.84,98.22 289.86,98.22 290.82,98.04 290.76,98.04 291.66,97.8 
	291.66,97.86 292.5,97.5 292.439,97.5 293.22,97.08 293.82,96.54 293.76,96.601 294.3,95.94 294.72,95.16 294.66,95.22 
	294.84,94.44 295.2,93 295.26,93 295.92,91.561 295.92,91.5 296.7,90.061 297.72,88.68 298.8,87.3 300,85.92 302.28,83.4 
	303.3,82.26 304.2,81.12 304.92,80.16 304.92,80.22 305.34,79.26 305.28,79.26 305.4,78.9 305.4,78.96 305.46,78.54 305.46,78.6 
	305.4,78.24 305.46,78.3 305.34,78 305.34,78.06 305.1,77.76 305.16,77.82 304.8,77.58 304.38,77.34 304.439,77.34 303.84,77.16 
	298.439,75.72 295.8,74.94 293.28,73.92 292.08,73.38 292.02,73.38 290.82,72.78 289.68,72.06 289.68,72 288.6,71.22 287.58,70.38 
	287.52,70.38 286.56,69.42 285.66,68.4 286.08,68.1 286.02,68.1 286.92,69.12 286.92,69.06 287.88,70.02 288.9,70.86 289.979,71.64 
	289.92,71.64 291.06,72.36 292.26,72.96 293.46,73.5 295.979,74.52 295.92,74.46 298.56,75.24 303.96,76.68 304.56,76.86 
	304.62,76.92 305.04,77.16 305.4,77.4 305.46,77.46 305.7,77.76 305.76,77.82 305.88,78.12 305.88,78.18 305.939,78.54 
	305.939,78.6 305.88,79.02 305.88,79.08 305.76,79.44 305.34,80.4 305.28,80.46 304.56,81.42 303.66,82.561 302.64,83.7 
	300.36,86.22 299.16,87.601 298.08,88.98 297.06,90.36 297.12,90.3 296.34,91.74 295.68,93.18 295.68,93.12 295.32,94.561 
	295.14,95.34 295.14,95.4 294.72,96.18 294.66,96.24 294.12,96.9 293.52,97.44 293.46,97.5 292.68,97.92 291.84,98.28 291.78,98.28 
	290.88,98.521 289.92,98.7 288.84,98.7 287.88,98.58 286.86,98.4 "/>
<polyline points="285.66,68.4 284.88,67.26 284.88,67.2 284.46,66.54 284.16,65.82 284.1,65.82 283.86,65.16 283.86,65.1 
	283.68,64.5 283.62,63.84 283.62,63.06 283.86,61.86 284.22,60.6 284.28,60.54 284.88,59.34 285.54,58.14 286.26,57 287.76,54.6 
	288.42,53.4 288.42,53.46 288.96,52.2 288.9,52.2 289.26,51 289.26,51.06 289.38,50.4 289.38,49.08 289.38,49.14 289.26,48.48 
	289.14,47.76 289.2,47.82 288.9,47.16 288.36,46.14 287.76,45.18 287.76,45.24 286.979,44.4 287.04,44.4 286.2,43.68 286.2,43.74 
	285.24,43.14 284.28,42.6 284.34,42.6 283.32,42.24 282.3,42 282.36,42 281.34,41.94 280.32,42 280.38,42 279.42,42.18 
	279.479,42.18 278.58,42.6 277.74,43.14 277.8,43.08 277.38,43.44 277.02,43.86 277.08,43.86 276.78,44.28 276.78,44.22 
	276.479,44.7 275.939,45.84 275.34,47.28 274.92,47.04 274.92,47.1 275.52,45.66 276.06,44.52 276.06,44.46 276.36,43.98 
	276.66,43.56 277.02,43.14 277.08,43.08 277.5,42.72 278.34,42.18 278.4,42.18 279.3,41.76 279.36,41.7 280.32,41.52 281.34,41.46 
	282.36,41.52 282.42,41.52 283.439,41.76 283.5,41.76 284.52,42.12 284.52,42.18 285.479,42.72 286.439,43.32 286.5,43.32 
	287.34,44.04 287.34,44.1 288.12,44.94 288.18,44.94 288.78,45.9 289.32,46.92 289.32,46.98 289.62,47.64 289.62,47.7 289.74,48.42 
	289.86,49.08 289.86,50.46 289.74,51.12 289.38,52.32 289.38,52.38 288.84,53.64 288.18,54.84 286.68,57.24 285.96,58.38 
	285.3,59.58 284.7,60.78 284.7,60.72 284.34,61.98 284.1,63.18 284.1,63.12 284.1,63.78 284.16,64.44 284.16,64.38 284.34,64.98 
	284.58,65.64 284.88,66.36 284.88,66.3 285.3,66.96 286.08,68.1 "/>
<polyline points="275.34,47.28 274.62,48.72 273.78,50.1 273.72,50.16 272.76,51.48 271.68,52.68 270.54,53.76 269.34,54.66 
	269.28,54.72 267.96,55.5 266.64,56.04 266.58,56.04 265.86,56.22 265.2,56.34 264.479,56.4 263.7,56.4 262.979,56.28 262.32,56.16 
	262.26,56.16 261.54,55.92 261.479,55.92 260.76,55.56 260.1,55.2 260.1,55.14 259.38,54.6 258.66,54 258.6,54 257.939,53.34 
	257.28,52.56 257.64,52.26 258.3,53.04 258.3,52.98 258.96,53.64 259.68,54.24 260.4,54.78 260.34,54.78 261,55.14 261.72,55.5 
	261.72,55.44 262.439,55.68 262.38,55.68 263.04,55.8 263.76,55.92 263.7,55.92 264.42,55.92 265.14,55.86 265.8,55.74 
	265.74,55.74 266.46,55.56 266.46,55.62 267.78,55.08 267.72,55.08 269.04,54.3 270.24,53.4 270.18,53.4 271.32,52.32 271.32,52.38 
	272.4,51.18 273.36,49.86 274.2,48.48 274.92,47.04 "/>
<polyline points="256.62,51.66 256.5,51.48 256.86,51.18 256.979,51.36 "/>
<polyline points="257.28,52.56 257.64,52.26 256.979,51.36 256.62,51.66 "/>
<rect x="227.04" y="99.42" style="fill:#FFFFFF;" width="9.42" height="14.221"/>
<rect x="227.04" y="99.18" width="9.66" height="0.48"/>
<rect x="236.22" y="99.42" width="0.48" height="14.46"/>
<rect x="226.8" y="113.4" width="9.66" height="0.479"/>
<rect x="226.8" y="99.18" width="0.48" height="14.461"/>
<polyline style="fill-rule:evenodd;clip-rule:evenodd;" points="276.6,78.18 276.6,77.46 276.479,76.74 276.3,76.08 276.06,75.42 
	275.76,74.82 275.4,74.22 274.979,73.68 274.56,73.2 274.02,72.72 273.479,72.3 272.939,71.94 272.28,71.64 271.62,71.4 
	270.96,71.22 270.24,71.16 269.52,71.1 268.8,71.16 268.14,71.22 267.42,71.4 266.76,71.64 266.16,71.94 265.56,72.3 265.02,72.72 
	264.06,73.68 263.64,74.22 263.28,74.82 263.04,75.42 262.8,76.08 262.62,76.74 262.5,77.46 262.439,78.18 262.5,78.9 262.62,79.62 
	262.8,80.28 263.04,80.94 263.28,81.54 263.64,82.141 264.06,82.68 264.54,83.22 265.02,83.641 265.56,84.061 266.16,84.42 
	266.76,84.72 267.42,84.96 268.14,85.141 268.8,85.26 270.24,85.26 270.96,85.141 271.62,84.96 272.28,84.72 272.939,84.42 
	273.479,84.061 274.56,83.22 275.4,82.141 275.76,81.54 276.06,80.94 276.3,80.28 276.479,79.62 276.6,78.9 276.6,78.18 "/>
<polyline points="276.36,78.18 276.36,77.46 276.36,77.52 276.24,76.8 276.06,76.14 276.06,76.2 275.82,75.54 275.88,75.54 
	275.58,74.94 275.22,74.34 275.22,74.4 274.8,73.86 274.38,73.38 274.439,73.38 273.9,72.9 273.36,72.48 273.36,72.54 272.82,72.18 
	272.88,72.18 272.22,71.88 271.56,71.64 270.9,71.46 270.96,71.46 270.24,71.4 269.52,71.34 269.58,71.34 268.86,71.4 268.2,71.46 
	267.479,71.64 267.54,71.64 266.88,71.88 266.28,72.18 265.68,72.54 265.74,72.48 265.2,72.9 264.24,73.86 263.82,74.4 
	263.88,74.34 263.52,74.94 263.28,75.54 263.04,76.2 263.04,76.14 262.86,76.8 262.74,77.52 262.68,78.24 262.68,78.18 262.74,78.9 
	262.86,79.62 262.86,79.561 263.04,80.22 263.28,80.88 263.52,81.48 263.52,81.42 263.88,82.021 263.82,82.021 264.24,82.561 
	264.72,83.101 264.72,83.04 265.2,83.46 264.9,83.82 264.42,83.4 264.36,83.4 263.88,82.86 263.46,82.32 263.46,82.26 263.1,81.66 
	262.86,81.061 262.8,81.061 262.56,80.4 262.56,80.34 262.38,79.68 262.26,78.96 262.2,78.24 262.2,78.18 262.26,77.46 
	262.38,76.74 262.38,76.68 262.56,76.02 262.8,75.36 262.86,75.36 263.1,74.76 263.1,74.7 263.46,74.1 263.88,73.56 263.88,73.5 
	264.84,72.54 264.9,72.54 265.439,72.12 266.04,71.76 266.64,71.46 266.7,71.4 267.36,71.16 268.08,70.98 268.14,70.98 268.8,70.92 
	269.52,70.86 269.58,70.86 270.3,70.92 271.02,70.98 271.68,71.16 271.74,71.16 272.4,71.4 272.4,71.46 273.06,71.76 273.6,72.12 
	273.66,72.12 274.2,72.54 274.74,73.02 274.74,73.08 275.16,73.56 275.58,74.1 275.64,74.1 276,74.7 276.3,75.3 276.3,75.36 
	276.54,76.02 276.72,76.68 276.72,76.74 276.84,77.46 276.84,78.18 "/>
<polyline points="265.2,83.46 265.74,83.88 265.68,83.88 266.28,84.24 266.88,84.54 266.88,84.48 267.54,84.72 267.479,84.72 
	268.2,84.9 268.86,85.021 268.8,85.021 270.24,85.021 270.96,84.9 270.9,84.9 271.56,84.72 272.22,84.48 272.22,84.54 272.88,84.24 
	272.82,84.24 273.36,83.88 274.439,83.04 274.38,83.101 275.22,82.021 275.58,81.42 275.88,80.82 275.82,80.88 276.06,80.22 
	276.24,79.561 276.24,79.62 276.36,78.9 276.36,78.18 276.84,78.18 276.84,78.96 276.72,79.68 276.54,80.34 276.54,80.4 
	276.3,81.061 276,81.66 275.64,82.26 275.58,82.32 274.74,83.4 273.66,84.24 273.6,84.3 273.06,84.66 272.4,84.96 271.74,85.2 
	271.68,85.2 271.02,85.38 270.3,85.5 268.8,85.5 268.14,85.38 268.08,85.38 267.36,85.2 266.7,84.96 266.64,84.96 266.04,84.66 
	265.439,84.3 265.439,84.24 264.9,83.82 "/>
<rect x="184.26" y="77.94" width="78.42" height="0.48"/>
<polyline style="fill-rule:evenodd;clip-rule:evenodd;" points="177.42,78.18 177.36,77.46 177.24,76.74 177.12,76.08 176.88,75.42 
	176.58,74.82 176.22,74.22 175.8,73.68 174.84,72.72 174.3,72.3 173.7,71.94 173.1,71.64 172.439,71.4 171.78,71.22 171.06,71.16 
	170.34,71.1 169.62,71.16 168.9,71.22 168.24,71.4 167.58,71.64 166.92,71.94 166.38,72.3 165.84,72.72 165.3,73.2 164.88,73.68 
	164.46,74.22 164.1,74.82 163.8,75.42 163.56,76.08 163.38,76.74 163.26,77.46 163.26,78.9 163.38,79.62 163.56,80.28 163.8,80.94 
	164.1,81.54 164.46,82.141 165.3,83.22 166.38,84.061 166.92,84.42 167.58,84.72 168.24,84.96 168.9,85.141 169.62,85.26 
	171.06,85.26 171.78,85.141 172.439,84.96 173.1,84.72 173.7,84.42 174.3,84.061 174.84,83.641 175.32,83.22 175.8,82.68 
	176.22,82.141 176.58,81.54 176.88,80.94 177.12,80.28 177.24,79.62 177.36,78.9 177.42,78.18 "/>
<polyline style="fill:#FFFFFF;" points="177.18,78.24 177.12,77.52 177,76.8 176.88,76.14 176.88,76.2 176.64,75.54 176.7,75.54 
	176.4,74.94 176.04,74.34 176.04,74.4 175.62,73.86 174.66,72.9 174.72,72.9 174.18,72.48 174.18,72.54 173.58,72.18 172.979,71.88 
	173.04,71.88 172.38,71.64 171.72,71.46 171.78,71.46 170.34,71.34 170.4,71.34 169.68,71.4 168.96,71.46 168.3,71.64 168.36,71.64 
	167.7,71.88 167.04,72.18 166.5,72.54 166.56,72.48 166.02,72.9 165.479,73.38 165.06,73.86 164.64,74.4 164.7,74.34 164.34,74.94 
	164.04,75.54 163.8,76.2 163.8,76.14 163.62,76.8 163.5,77.52 163.5,77.46 163.5,78.9 163.62,79.62 163.62,79.561 163.8,80.22 
	164.04,80.88 164.04,80.82 164.34,81.42 164.7,82.021 164.64,82.021 165.479,83.101 165.479,83.04 166.02,83.46 165.72,83.82 
	165.18,83.4 165.12,83.4 164.28,82.32 164.28,82.26 163.92,81.66 163.62,81.061 163.56,81.061 163.32,80.4 163.32,80.34 
	163.14,79.68 163.02,78.96 163.02,77.46 163.14,76.74 163.14,76.68 163.32,76.02 163.56,75.36 163.62,75.3 163.92,74.7 164.28,74.1 
	164.7,73.56 165.12,73.08 165.18,73.02 165.72,72.54 166.26,72.12 166.8,71.76 166.86,71.76 167.52,71.46 167.52,71.4 168.18,71.16 
	168.84,70.98 168.9,70.98 170.34,70.86 170.4,70.86 171.84,70.98 172.5,71.16 172.56,71.16 173.22,71.4 173.22,71.46 173.82,71.76 
	174.42,72.12 174.479,72.12 175.02,72.54 175.979,73.5 175.979,73.56 176.4,74.1 176.46,74.1 176.82,74.7 177.12,75.3 177.12,75.36 
	177.36,76.02 177.36,76.08 177.479,76.74 177.6,77.46 177.66,78.18 "/>
<polyline style="fill:#FFFFFF;" points="166.02,83.46 166.56,83.88 166.5,83.88 167.04,84.24 167.7,84.54 167.7,84.48 168.36,84.72 
	168.3,84.72 168.96,84.9 169.68,85.021 169.62,85.021 171.06,85.021 171.78,84.9 171.72,84.9 172.38,84.72 173.04,84.48 
	172.979,84.54 173.58,84.24 174.18,83.88 174.72,83.46 175.2,83.04 175.14,83.101 175.62,82.561 176.04,82.021 176.4,81.42 
	176.7,80.82 176.64,80.88 176.88,80.22 176.88,80.28 177,79.62 177.12,78.9 177.18,78.18 177.18,78.24 177.66,78.18 177.66,78.24 
	177.6,78.96 177.479,79.68 177.36,80.34 177.36,80.4 177.12,81.061 176.82,81.66 176.46,82.26 176.4,82.32 175.979,82.86 
	175.5,83.4 175.02,83.82 174.479,84.24 174.42,84.3 173.82,84.66 173.22,84.96 172.56,85.2 172.5,85.2 171.84,85.38 171.12,85.5 
	169.62,85.5 168.9,85.38 168.84,85.38 168.18,85.2 167.52,84.96 166.86,84.66 166.8,84.66 166.26,84.3 166.26,84.24 165.72,83.82 
	"/>
<rect x="156.12" y="64.02" style="fill:#FFFFFF;" width="9.479" height="14.16"/>
<rect x="156.12" y="63.78" width="9.72" height="0.48"/>
<rect x="165.36" y="64.02" width="0.479" height="14.4"/>
<rect x="155.88" y="77.94" width="9.72" height="0.48"/>
<rect x="155.88" y="63.78" width="0.48" height="14.4"/>
<rect x="64.02" y="56.94" style="fill:#E6E6E6;" width="35.46" height="35.399"/>
<rect x="64.02" y="56.7" width="35.7" height="0.48"/>
<rect x="99.24" y="56.94" width="0.48" height="35.64"/>
<rect x="63.78" y="92.101" width="35.7" height="0.479"/>
<rect x="63.78" y="56.7" width="0.48" height="35.64"/>
<polyline style="fill-rule:evenodd;clip-rule:evenodd;" points="92.34,78.18 92.34,77.46 92.22,76.74 92.04,76.08 91.8,75.42 
	91.5,74.82 91.14,74.22 90.72,73.68 90.3,73.2 89.76,72.72 89.22,72.3 88.68,71.94 88.02,71.64 87.36,71.4 86.7,71.22 85.98,71.16 
	85.26,71.1 84.54,71.16 83.88,71.22 83.16,71.4 82.5,71.64 81.9,71.94 81.3,72.3 80.76,72.72 79.8,73.68 79.38,74.22 79.02,74.82 
	78.78,75.42 78.54,76.08 78.36,76.74 78.24,77.46 78.18,78.18 78.24,78.9 78.36,79.62 78.54,80.28 78.78,80.94 79.02,81.54 
	79.38,82.141 79.8,82.68 80.28,83.22 80.76,83.641 81.3,84.061 81.9,84.42 82.5,84.72 83.16,84.96 83.88,85.141 84.54,85.26 
	85.98,85.26 86.7,85.141 87.36,84.96 88.02,84.72 88.68,84.42 89.22,84.061 90.3,83.22 91.14,82.141 91.5,81.54 91.8,80.94 
	92.04,80.28 92.22,79.62 92.34,78.9 92.34,78.18 "/>
<polyline style="fill:#FFFFFF;" points="92.1,78.18 92.1,77.46 92.1,77.52 91.98,76.8 91.8,76.14 91.8,76.2 91.56,75.54 
	91.62,75.54 91.32,74.94 90.96,74.34 90.96,74.4 90.54,73.86 90.12,73.38 90.18,73.38 89.64,72.9 89.1,72.48 89.1,72.54 
	88.56,72.18 88.62,72.18 87.96,71.88 87.3,71.64 86.64,71.46 86.7,71.46 85.26,71.34 85.32,71.34 84.6,71.4 83.94,71.46 
	83.22,71.64 83.28,71.64 82.62,71.88 82.02,72.18 81.42,72.54 81.48,72.48 80.94,72.9 79.98,73.86 79.56,74.4 79.62,74.34 
	79.26,74.94 79.02,75.54 78.78,76.2 78.78,76.14 78.6,76.8 78.48,77.52 78.42,78.24 78.42,78.18 78.48,78.9 78.6,79.62 78.6,79.561 
	78.78,80.22 79.02,80.88 79.26,81.48 79.26,81.42 79.62,82.021 79.56,82.021 79.98,82.561 80.46,83.101 80.46,83.04 80.94,83.46 
	80.64,83.82 80.16,83.4 80.1,83.4 79.62,82.86 79.2,82.32 79.2,82.26 78.84,81.66 78.6,81.061 78.54,81.061 78.3,80.4 78.3,80.34 
	78.12,79.68 78,78.96 77.94,78.24 77.94,78.18 78,77.46 78.12,76.74 78.12,76.68 78.3,76.02 78.54,75.36 78.6,75.36 78.84,74.76 
	78.84,74.7 79.2,74.1 79.62,73.56 79.62,73.5 80.58,72.54 80.64,72.54 81.18,72.12 81.78,71.76 82.38,71.46 82.44,71.4 83.1,71.16 
	83.82,70.98 83.88,70.98 84.54,70.92 85.26,70.86 85.32,70.86 86.76,70.98 87.42,71.16 87.48,71.16 88.14,71.4 88.14,71.46 
	88.8,71.76 89.34,72.12 89.4,72.12 89.94,72.54 90.48,73.02 90.48,73.08 90.9,73.56 91.32,74.1 91.38,74.1 91.74,74.7 92.04,75.3 
	92.04,75.36 92.28,76.02 92.46,76.68 92.46,76.74 92.58,77.46 92.58,78.18 "/>
<polyline style="fill:#FFFFFF;" points="80.94,83.46 81.48,83.88 81.42,83.88 82.02,84.24 82.62,84.54 82.62,84.48 83.28,84.72 
	83.22,84.72 83.94,84.9 84.6,85.021 84.54,85.021 85.98,85.021 86.7,84.9 86.64,84.9 87.3,84.72 87.96,84.48 87.96,84.54 
	88.62,84.24 88.56,84.24 89.1,83.88 90.18,83.04 90.12,83.101 90.96,82.021 91.32,81.42 91.62,80.82 91.56,80.88 91.8,80.22 
	91.98,79.561 91.98,79.62 92.1,78.9 92.1,78.18 92.58,78.18 92.58,78.96 92.46,79.68 92.28,80.34 92.28,80.4 92.04,81.061 
	91.74,81.66 91.38,82.26 91.32,82.32 90.48,83.4 89.4,84.24 89.34,84.3 88.8,84.66 88.14,84.96 87.48,85.2 87.42,85.2 86.76,85.38 
	86.04,85.5 84.54,85.5 83.88,85.38 83.82,85.38 83.1,85.2 82.44,84.96 82.38,84.96 81.78,84.66 81.18,84.3 81.18,84.24 80.64,83.82 
	"/>
<rect x="0.24" y="64.02" style="fill:#FFFFFF;" width="9.42" height="14.16"/>
<rect x="0.24" y="63.78" width="9.66" height="0.48"/>
<rect x="9.42" y="64.02" width="0.48" height="14.4"/>
<rect y="77.94" width="9.66" height="0.48"/>
<rect y="63.78" width="0.48" height="14.4"/>
<polyline points="236.4,106.26 236.16,106.32 236.34,106.8 236.58,106.74 "/>
<polyline points="237.12,106.021 237.36,105.96 237.54,106.44 237.3,106.5 "/>
<polyline points="236.4,106.26 236.58,106.74 237.3,106.5 237.12,106.021 "/>
<polyline style="fill-rule:evenodd;clip-rule:evenodd;" points="240.6,104.7 240.36,104.76 240.54,105.24 240.78,105.18 "/>
<polyline style="fill-rule:evenodd;clip-rule:evenodd;" points="241.8,104.28 242.04,104.22 242.22,104.7 241.979,104.76 "/>
<polyline style="fill-rule:evenodd;clip-rule:evenodd;" points="240.6,104.7 240.78,105.18 241.979,104.76 241.8,104.28 "/>
<polyline style="fill-rule:evenodd;clip-rule:evenodd;" points="245.28,102.96 245.04,103.021 245.22,103.5 245.46,103.44 "/>
<polyline style="fill-rule:evenodd;clip-rule:evenodd;" points="246.42,102.54 246.66,102.48 246.84,102.96 246.6,103.021 "/>
<polyline style="fill-rule:evenodd;clip-rule:evenodd;" points="245.28,102.96 245.46,103.44 246.6,103.021 246.42,102.54 "/>
<polyline style="fill-rule:evenodd;clip-rule:evenodd;" points="249.96,101.22 249.72,101.28 249.9,101.76 250.14,101.7 "/>
<polyline style="fill-rule:evenodd;clip-rule:evenodd;" points="251.1,100.8 251.34,100.74 251.52,101.22 251.28,101.28 "/>
<polyline style="fill-rule:evenodd;clip-rule:evenodd;" points="249.96,101.22 250.14,101.7 251.28,101.28 251.1,100.8 "/>
<polyline points="254.58,99.54 254.4,99.601 254.58,100.021 254.76,99.96 "/>
<polyline points="255.3,99.24 255.479,99.18 255.66,99.601 255.479,99.66 "/>
<polyline points="254.58,99.54 254.76,99.96 255.479,99.66 255.3,99.24 "/>
<text transform="matrix(1 0 0 1 197.7598 85.5605)"><tspan x="0" y="0" style="font-family:'ProductusBook'; font-size:7.98;">i</tspan><tspan x="1.556" y="0" style="font-family:'ProductusBook'; font-size:7.98;">n</tspan><tspan x="5.274" y="0" style="font-family:'ProductusBook'; font-size:7.98;">s</tspan><tspan x="8.084" y="0" style="font-family:'ProductusBook'; font-size:7.98;">t</tspan><tspan x="10.462" y="0" style="font-family:'ProductusBook'; font-size:7.98;">a</tspan><tspan x="13.821" y="0" style="font-family:'ProductusBook'; font-size:7.98;">l</tspan><tspan x="15.385" y="0" style="font-family:'ProductusBook'; font-size:7.98;">l</tspan><tspan x="16.941" y="0" style="font-family:'ProductusBook'; font-size:7.98;">s</tspan></text>
<text transform="matrix(1 0 0 1 113.6396 85.5605)"><tspan x="0" y="0" style="font-family:'ProductusBook'; font-size:7.98;">a</tspan><tspan x="3.344" y="0" style="font-family:'ProductusBook'; font-size:7.98;">u</tspan><tspan x="7.006" y="0" style="font-family:'ProductusBook'; font-size:7.98;">d</tspan><tspan x="10.733" y="0" style="font-family:'ProductusBook'; font-size:7.98;">i</tspan><tspan x="12.297" y="0" style="font-family:'ProductusBook'; font-size:7.98;">t</tspan><tspan x="14.644" y="0" style="font-family:'ProductusBook'; font-size:7.98;">s</tspan></text>
<text transform="matrix(1 0 0 1 28.5591 85.5605)"><tspan x="0" y="0" style="font-family:'ProductusBook'; font-size:7.98;">d</tspan><tspan x="3.719" y="0" style="font-family:'ProductusBook'; font-size:7.98;">e</tspan><tspan x="7.206" y="0" style="font-family:'ProductusBook'; font-size:7.98;">v</tspan><tspan x="10.334" y="0" style="font-family:'ProductusBook'; font-size:7.98;">e</tspan><tspan x="13.821" y="0" style="font-family:'ProductusBook'; font-size:7.98;">lo</tspan><tspan x="19.216" y="0" style="font-family:'ProductusBook'; font-size:7.98;">p</tspan><tspan x="22.878" y="0" style="font-family:'ProductusBook'; font-size:7.98;">s</tspan></text>
<text transform="matrix(-6.123234e-17 -1 1 -6.123234e-17 227.3398 67.9805)"><tspan x="0" y="0" style="font-family:'ProductusBook'; font-size:7.98;">F</tspan><tspan x="3.08" y="0" style="font-family:'ProductusBook'; font-size:7.98;">r</tspan><tspan x="5.354" y="0" style="font-family:'ProductusBook'; font-size:7.98;">a</tspan><tspan x="8.634" y="0" style="font-family:'ProductusBook'; font-size:7.98;">m</tspan><tspan x="14.388" y="0" style="font-family:'ProductusBook'; font-size:7.98;">e</tspan><tspan x="17.923" y="0" style="font-family:'ProductusBook'; font-size:7.98;">w</tspan><tspan x="22.966" y="0" style="font-family:'ProductusBook'; font-size:7.98;">o</tspan><tspan x="26.749" y="0" style="font-family:'ProductusBook'; font-size:7.98;">r</tspan><tspan x="29.022" y="0" style="font-family:'ProductusBook'; font-size:7.98;">k</tspan></text>
<rect x="71.1" y="64.02" style="fill:#FFFFFF;" width="9.48" height="14.16"/>
<rect x="71.1" y="63.78" width="9.72" height="0.48"/>
<rect x="80.34" y="64.02" width="0.48" height="14.4"/>
<rect x="70.86" y="77.94" width="9.72" height="0.48"/>
<rect x="70.86" y="63.78" width="0.48" height="14.4"/>
<rect x="0.24" y="120.72" style="fill:#FFFFFF;" width="7.08" height="7.08"/>
<rect x="0.24" y="120.48" width="7.32" height="0.479"/>
<rect x="7.08" y="120.72" width="0.48" height="7.32"/>
<rect y="127.561" width="7.32" height="0.479"/>
<rect y="120.48" width="0.48" height="7.319"/>
<polyline style="fill-rule:evenodd;clip-rule:evenodd;" points="99.48,124.26 99.36,123.54 99.18,122.88 98.82,122.28 98.4,121.74 
	97.92,121.32 97.32,120.96 96.6,120.78 95.94,120.72 95.22,120.78 94.56,120.96 93.9,121.32 93.42,121.74 93,122.28 92.64,122.88 
	92.46,123.54 92.34,124.26 92.46,124.98 92.64,125.641 93,126.24 93.42,126.78 93.9,127.2 94.56,127.5 95.22,127.74 95.94,127.8 
	96.6,127.74 97.32,127.5 97.92,127.2 98.4,126.78 98.82,126.24 99.18,125.641 99.36,124.98 99.48,124.26 "/>
<polyline style="fill:#FFFFFF;" points="99.24,124.32 99.12,123.601 98.94,122.94 99,123 98.64,122.4 98.64,122.46 98.22,121.92 
	98.28,121.92 97.8,121.5 97.8,121.561 97.2,121.2 97.26,121.2 96.54,121.021 96.6,121.021 95.94,120.96 96,120.96 95.28,121.021 
	94.62,121.2 94.68,121.2 94.02,121.561 94.08,121.5 93.6,121.92 93.18,122.46 93.24,122.4 92.88,123 92.88,122.94 92.7,123.601 
	92.58,124.32 92.58,124.26 92.7,124.98 92.7,124.92 92.88,125.58 92.88,125.521 93.24,126.12 93.18,126.12 93.6,126.66 
	93.6,126.601 94.08,127.021 94.02,127.021 94.68,127.32 94.68,127.26 95.34,127.5 95.28,127.5 96,127.561 95.94,127.561 96.6,127.5 
	96.54,127.5 97.26,127.26 97.2,127.32 97.8,127.021 98.28,126.601 98.22,126.66 98.64,126.12 99,125.521 98.94,125.58 99.12,124.92 
	99.12,124.98 99.24,124.26 99.72,124.32 99.6,125.04 99.42,125.7 99.42,125.76 99.06,126.36 99,126.42 98.58,126.96 98.1,127.38 
	98.04,127.44 97.44,127.74 96.72,127.98 96.66,127.98 96,128.04 95.94,128.04 95.22,127.98 95.16,127.98 94.5,127.74 93.84,127.44 
	93.78,127.38 93.3,126.96 93.24,126.96 92.82,126.42 92.82,126.36 92.46,125.76 92.4,125.7 92.22,125.04 92.1,124.32 92.1,124.26 
	92.22,123.54 92.22,123.48 92.4,122.82 92.46,122.76 92.82,122.16 93.24,121.62 93.3,121.561 93.78,121.141 94.44,120.78 
	94.5,120.72 95.16,120.54 95.22,120.54 95.94,120.48 96,120.48 96.66,120.54 97.38,120.72 97.44,120.78 98.04,121.141 98.1,121.141 
	98.58,121.561 98.58,121.62 99,122.16 99.06,122.16 99.42,122.76 99.42,122.82 99.6,123.48 99.6,123.54 99.72,124.26 "/>
<polyline style="fill:#FFFFFF;" points="99.24,124.26 99.24,124.32 99.72,124.26 99.72,124.32 "/>
<rect x="0.24" y="134.88" style="fill:#E6E6E6;" width="7.08" height="7.08"/>
<rect x="0.24" y="134.641" width="7.32" height="0.479"/>
<rect x="7.08" y="134.88" width="0.48" height="7.32"/>
<rect y="141.72" width="7.32" height="0.48"/>
<rect y="134.641" width="0.48" height="7.319"/>
<text transform="matrix(1 0 0 1 20.1001 128.1006)"><tspan x="0" y="0" style="font-family:'ProductusBook'; font-size:7.98;">local</tspan><tspan x="13.311" y="0" style="font-family:'ProductusBook'; font-size:7.98;"> </tspan><tspan x="14.93" y="0" style="font-family:'ProductusBook'; font-size:7.98;">p</tspan><tspan x="18.625" y="0" style="font-family:'ProductusBook'; font-size:7.98;">e</tspan><tspan x="22.16" y="0" style="font-family:'ProductusBook'; font-size:7.98;">rmissio</tspan><tspan x="42.725" y="0" style="font-family:'ProductusBook'; font-size:7.98;">n</tspan><tspan x="46.443" y="0" style="font-family:'ProductusBook'; font-size:7.98;">s</tspan></text>
<text transform="matrix(1 0 0 1 19.3799 140.1602)"><tspan x="0" y="0" style="font-family:'ProductusBook'; font-size:7.98;">b</tspan><tspan x="3.727" y="0" style="font-family:'ProductusBook'; font-size:7.98;">u</tspan><tspan x="7.389" y="0" style="font-family:'ProductusBook'; font-size:7.98;">n</tspan><tspan x="11.092" y="0" style="font-family:'ProductusBook'; font-size:7.98;">d</tspan><tspan x="14.755" y="0" style="font-family:'ProductusBook'; font-size:7.98;">l</tspan><tspan x="16.343" y="0" style="font-family:'ProductusBook'; font-size:7.98;">e</tspan><tspan x="19.83" y="0" style="font-family:'ProductusBook'; font-size:7.98;">,</tspan><tspan x="21.45" y="0" style="font-family:'ProductusBook'; font-size:7.98;"> </tspan><tspan x="23.014" y="0" style="font-family:'ProductusBook'; font-size:7.98;">u</tspan><tspan x="26.717" y="0" style="font-family:'ProductusBook'; font-size:7.98;">n</tspan><tspan x="30.379" y="0" style="font-family:'ProductusBook'; font-size:7.98;">s</tspan><tspan x="33.22" y="0" style="font-family:'ProductusBook'; font-size:7.98;">ig</tspan><tspan x="38.264" y="0" style="font-family:'ProductusBook'; font-size:7.98;">n</tspan><tspan x="41.982" y="0" style="font-family:'ProductusBook'; font-size:7.98;">e</tspan><tspan x="45.47" y="0" style="font-family:'ProductusBook'; font-size:7.98;">d</tspan></text>
<text transform="matrix(1 0 0 1 106.8599 125.9404)"><tspan x="0" y="0" style="font-family:'ProductusBook'; font-size:7.98;">c</tspan><tspan x="3" y="0" style="font-family:'ProductusBook'; font-size:7.98;">ode,</tspan><tspan x="15.577" y="0" style="font-family:'ProductusBook'; font-size:7.98;"> </tspan><tspan x="17.188" y="0" style="font-family:'ProductusBook'; font-size:7.98;">cl</tspan><tspan x="21.841" y="0" style="font-family:'ProductusBook'; font-size:7.98;">a</tspan><tspan x="25.201" y="0" style="font-family:'ProductusBook'; font-size:7.98;">sses</tspan></text>
<rect x="42.54" y="14.16" width="0.48" height="1.26"/>
<rect x="42.54" y="19.26" width="0.48" height="1.92"/>
<rect x="42.54" y="25.02" width="0.48" height="1.98"/>
<rect x="42.54" y="30.84" width="0.48" height="1.92"/>
<rect x="42.54" y="36.66" width="0.48" height="1.92"/>
<rect x="42.54" y="42.42" width="0.48" height="1.92"/>
<rect x="42.54" y="48.24" width="0.48" height="1.92"/>
<rect x="42.54" y="54" width="0.48" height="1.92"/>
<rect x="42.54" y="59.82" width="0.48" height="1.92"/>
<rect x="42.54" y="65.58" width="0.48" height="1.98"/>
<rect x="42.54" y="71.4" width="0.48" height="1.92"/>
<rect x="42.54" y="77.22" width="0.48" height="1.2"/>
<polyline points="163.5,21.6 163.62,21.42 163.2,21.18 163.08,21.36 "/>
<polyline points="163.08,22.26 162.96,22.44 162.54,22.2 162.66,22.02 "/>
<polyline points="163.5,21.6 163.08,21.36 162.66,22.02 163.08,22.26 "/>
<polyline style="fill-rule:evenodd;clip-rule:evenodd;" points="160.68,26.1 160.8,25.92 160.38,25.68 160.26,25.86 "/>
<polyline style="fill-rule:evenodd;clip-rule:evenodd;" points="159.84,27.42 159.72,27.6 159.3,27.36 159.42,27.18 "/>
<polyline style="fill-rule:evenodd;clip-rule:evenodd;" points="160.68,26.1 160.26,25.86 159.42,27.18 159.84,27.42 "/>
<polyline style="fill-rule:evenodd;clip-rule:evenodd;" points="157.439,31.26 157.56,31.08 157.14,30.84 157.02,31.02 "/>
<polyline style="fill-rule:evenodd;clip-rule:evenodd;" points="156.66,32.58 156.54,32.76 156.12,32.52 156.24,32.34 "/>
<polyline style="fill-rule:evenodd;clip-rule:evenodd;" points="157.439,31.26 157.02,31.02 156.24,32.34 156.66,32.58 "/>
<polyline style="fill-rule:evenodd;clip-rule:evenodd;" points="154.2,36.42 154.32,36.24 153.9,36 153.78,36.18 "/>
<polyline style="fill-rule:evenodd;clip-rule:evenodd;" points="153.42,37.68 153.3,37.86 152.88,37.62 153,37.44 "/>
<polyline style="fill-rule:evenodd;clip-rule:evenodd;" points="154.2,36.42 153.78,36.18 153,37.44 153.42,37.68 "/>
<polyline style="fill-rule:evenodd;clip-rule:evenodd;" points="151.02,41.58 151.14,41.4 150.72,41.16 150.6,41.34 "/>
<polyline style="fill-rule:evenodd;clip-rule:evenodd;" points="150.18,42.84 150.06,43.02 149.64,42.78 149.76,42.6 "/>
<polyline style="fill-rule:evenodd;clip-rule:evenodd;" points="151.02,41.58 150.6,41.34 149.76,42.6 150.18,42.84 "/>
<polyline style="fill-rule:evenodd;clip-rule:evenodd;" points="147.78,46.74 147.9,46.56 147.479,46.32 147.36,46.5 "/>
<polyline style="fill-rule:evenodd;clip-rule:evenodd;" points="146.939,48 146.82,48.18 146.4,47.94 146.52,47.76 "/>
<polyline style="fill-rule:evenodd;clip-rule:evenodd;" points="147.78,46.74 147.36,46.5 146.52,47.76 146.939,48 "/>
<polyline style="fill-rule:evenodd;clip-rule:evenodd;" points="144.54,51.9 144.66,51.72 144.24,51.48 144.12,51.66 "/>
<polyline style="fill-rule:evenodd;clip-rule:evenodd;" points="143.76,53.16 143.64,53.34 143.22,53.1 143.34,52.92 "/>
<polyline style="fill-rule:evenodd;clip-rule:evenodd;" points="144.54,51.9 144.12,51.66 143.34,52.92 143.76,53.16 "/>
<polyline style="fill-rule:evenodd;clip-rule:evenodd;" points="141.3,57.06 141.42,56.88 141,56.64 140.88,56.82 "/>
<polyline style="fill-rule:evenodd;clip-rule:evenodd;" points="140.52,58.32 140.4,58.5 139.979,58.26 140.1,58.08 "/>
<polyline style="fill-rule:evenodd;clip-rule:evenodd;" points="141.3,57.06 140.88,56.82 140.1,58.08 140.52,58.32 "/>
<polyline style="fill-rule:evenodd;clip-rule:evenodd;" points="138.12,62.22 138.24,62.04 137.82,61.8 137.7,61.98 "/>
<polyline style="fill-rule:evenodd;clip-rule:evenodd;" points="137.28,63.48 137.16,63.66 136.74,63.42 136.86,63.24 "/>
<polyline style="fill-rule:evenodd;clip-rule:evenodd;" points="138.12,62.22 137.7,61.98 136.86,63.24 137.28,63.48 "/>
<polyline style="fill-rule:evenodd;clip-rule:evenodd;" points="134.88,67.38 135,67.2 134.58,66.96 134.46,67.14 "/>
<polyline style="fill-rule:evenodd;clip-rule:evenodd;" points="134.1,68.64 133.979,68.82 133.56,68.58 133.68,68.4 "/>
<polyline style="fill-rule:evenodd;clip-rule:evenodd;" points="134.88,67.38 134.46,67.14 133.68,68.4 134.1,68.64 "/>
<polyline style="fill-rule:evenodd;clip-rule:evenodd;" points="131.64,72.48 131.76,72.3 131.34,72.06 131.22,72.24 "/>
<polyline style="fill-rule:evenodd;clip-rule:evenodd;" points="130.86,73.8 130.74,73.98 130.32,73.74 130.439,73.56 "/>
<polyline style="fill-rule:evenodd;clip-rule:evenodd;" points="131.64,72.48 131.22,72.24 130.439,73.56 130.86,73.8 "/>
<polyline points="128.46,77.64 128.58,77.46 128.16,77.22 128.04,77.4 "/>
<polyline points="128.04,78.3 127.92,78.48 127.5,78.24 127.62,78.06 "/>
<polyline points="128.46,77.64 128.04,77.4 127.62,78.06 128.04,78.3 "/>
<polyline points="163.5,21.36 163.38,21.18 162.96,21.48 163.08,21.66 "/>
<polyline points="163.92,21.96 164.04,22.14 163.62,22.44 163.5,22.26 "/>
<polyline points="163.5,21.36 163.08,21.66 163.5,22.26 163.92,21.96 "/>
<polyline style="fill-rule:evenodd;clip-rule:evenodd;" points="166.5,25.5 166.38,25.32 166.02,25.62 166.14,25.8 "/>
<polyline style="fill-rule:evenodd;clip-rule:evenodd;" points="167.4,26.7 167.52,26.88 167.16,27.18 167.04,27 "/>
<polyline style="fill-rule:evenodd;clip-rule:evenodd;" points="166.5,25.5 166.14,25.8 167.04,27 167.4,26.7 "/>
<polyline style="fill-rule:evenodd;clip-rule:evenodd;" points="170.04,30.24 169.92,30.06 169.56,30.36 169.68,30.54 "/>
<polyline style="fill-rule:evenodd;clip-rule:evenodd;" points="170.939,31.44 171.06,31.62 170.7,31.92 170.58,31.74 "/>
<polyline style="fill-rule:evenodd;clip-rule:evenodd;" points="170.04,30.24 169.68,30.54 170.58,31.74 170.939,31.44 "/>
<polyline style="fill-rule:evenodd;clip-rule:evenodd;" points="173.58,34.98 173.46,34.8 173.1,35.1 173.22,35.28 "/>
<polyline style="fill-rule:evenodd;clip-rule:evenodd;" points="174.479,36.12 174.6,36.3 174.24,36.6 174.12,36.42 "/>
<polyline style="fill-rule:evenodd;clip-rule:evenodd;" points="173.58,34.98 173.22,35.28 174.12,36.42 174.479,36.12 "/>
<polyline style="fill-rule:evenodd;clip-rule:evenodd;" points="177.12,39.66 177,39.48 176.64,39.78 176.76,39.96 "/>
<polyline style="fill-rule:evenodd;clip-rule:evenodd;" points="178.02,40.86 178.14,41.04 177.78,41.34 177.66,41.16 "/>
<polyline style="fill-rule:evenodd;clip-rule:evenodd;" points="177.12,39.66 176.76,39.96 177.66,41.16 178.02,40.86 "/>
<polyline style="fill-rule:evenodd;clip-rule:evenodd;" points="180.78,44.4 180.66,44.22 180.24,44.52 180.36,44.7 "/>
<polyline style="fill-rule:evenodd;clip-rule:evenodd;" points="181.62,45.6 181.74,45.78 181.32,46.08 181.2,45.9 "/>
<polyline style="fill-rule:evenodd;clip-rule:evenodd;" points="180.78,44.4 180.36,44.7 181.2,45.9 181.62,45.6 "/>
<polyline style="fill-rule:evenodd;clip-rule:evenodd;" points="184.26,49.14 184.14,48.96 183.78,49.26 183.9,49.44 "/>
<polyline style="fill-rule:evenodd;clip-rule:evenodd;" points="185.1,50.28 185.22,50.46 184.86,50.76 184.74,50.58 "/>
<polyline style="fill-rule:evenodd;clip-rule:evenodd;" points="184.26,49.14 183.9,49.44 184.74,50.58 185.1,50.28 "/>
<polyline style="fill-rule:evenodd;clip-rule:evenodd;" points="187.86,53.82 187.74,53.64 187.32,53.94 187.439,54.12 "/>
<polyline style="fill-rule:evenodd;clip-rule:evenodd;" points="188.7,55.02 188.82,55.2 188.4,55.5 188.28,55.32 "/>
<polyline style="fill-rule:evenodd;clip-rule:evenodd;" points="187.86,53.82 187.439,54.12 188.28,55.32 188.7,55.02 "/>
<polyline style="fill-rule:evenodd;clip-rule:evenodd;" points="191.4,58.56 191.28,58.38 190.86,58.68 190.979,58.86 "/>
<polyline style="fill-rule:evenodd;clip-rule:evenodd;" points="192.24,59.76 192.36,59.94 191.939,60.24 191.82,60.06 "/>
<polyline style="fill-rule:evenodd;clip-rule:evenodd;" points="191.4,58.56 190.979,58.86 191.82,60.06 192.24,59.76 "/>
<polyline style="fill-rule:evenodd;clip-rule:evenodd;" points="194.939,63.3 194.82,63.12 194.4,63.42 194.52,63.6 "/>
<polyline style="fill-rule:evenodd;clip-rule:evenodd;" points="195.78,64.5 195.9,64.68 195.479,64.98 195.36,64.8 "/>
<polyline style="fill-rule:evenodd;clip-rule:evenodd;" points="194.939,63.3 194.52,63.6 195.36,64.8 195.78,64.5 "/>
<polyline style="fill-rule:evenodd;clip-rule:evenodd;" points="198.42,68.04 198.3,67.86 197.939,68.16 198.06,68.34 "/>
<polyline style="fill-rule:evenodd;clip-rule:evenodd;" points="199.26,69.18 199.38,69.36 199.02,69.66 198.9,69.48 "/>
<polyline style="fill-rule:evenodd;clip-rule:evenodd;" points="198.42,68.04 198.06,68.34 198.9,69.48 199.26,69.18 "/>
<polyline style="fill-rule:evenodd;clip-rule:evenodd;" points="201.96,72.72 201.84,72.54 201.479,72.84 201.6,73.02 "/>
<polyline style="fill-rule:evenodd;clip-rule:evenodd;" points="202.86,73.92 202.979,74.1 202.62,74.4 202.5,74.22 "/>
<polyline style="fill-rule:evenodd;clip-rule:evenodd;" points="201.96,72.72 201.6,73.02 202.5,74.22 202.86,73.92 "/>
<polyline points="205.56,77.46 205.439,77.28 205.02,77.58 205.14,77.76 "/>
<polyline points="205.979,78.06 206.1,78.24 205.68,78.54 205.56,78.36 "/>
<polyline points="205.56,77.46 205.14,77.76 205.56,78.36 205.979,78.06 "/>
<text transform="matrix(-6.123234e-17 -1 1 -6.123234e-17 48.7197 50.1611)"><tspan x="0" y="0" style="font-family:'ProductusBook'; font-size:7.98;">d</tspan><tspan x="3.71" y="0" style="font-family:'ProductusBook'; font-size:7.98;">e</tspan><tspan x="7.198" y="0" style="font-family:'ProductusBook'; font-size:7.98;">v</tspan><tspan x="10.318" y="0" style="font-family:'ProductusBook'; font-size:7.98;">e</tspan><tspan x="13.853" y="0" style="font-family:'ProductusBook'; font-size:7.98;">l</tspan><tspan x="15.425" y="0" style="font-family:'ProductusBook'; font-size:7.98;">o</tspan><tspan x="19.224" y="0" style="font-family:'ProductusBook'; font-size:7.98;">p</tspan><tspan x="22.926" y="0" style="font-family:'ProductusBook'; font-size:7.98;">e</tspan><tspan x="26.414" y="0" style="font-family:'ProductusBook'; font-size:7.98;">r</tspan></text>
<text transform="matrix(-6.123234e-17 -1 1 -6.123234e-17 135.1797 50.1602)"><tspan x="0" y="0" style="font-family:'ProductusBook'; font-size:7.98;">o</tspan><tspan x="3.807" y="0" style="font-family:'ProductusBook'; font-size:7.98;">p</tspan><tspan x="7.518" y="0" style="font-family:'ProductusBook'; font-size:7.98;">e</tspan><tspan x="11.044" y="0" style="font-family:'ProductusBook'; font-size:7.98;">r</tspan><tspan x="13.271" y="0" style="font-family:'ProductusBook'; font-size:7.98;">a</tspan><tspan x="16.63" y="0" style="font-family:'ProductusBook'; font-size:7.98;">t</tspan><tspan x="18.977" y="0" style="font-family:'ProductusBook'; font-size:7.98;">o</tspan><tspan x="22.814" y="0" style="font-family:'ProductusBook'; font-size:7.98;">r</tspan></text>
<text transform="matrix(1 0 0 1 28.5601 95.2803)"><tspan x="0" y="0" style="font-family:'ProductusBook'; font-size:7.98;">a</tspan><tspan x="3.296" y="0" style="font-family:'ProductusBook'; font-size:7.98;">n</tspan><tspan x="7.014" y="0" style="font-family:'ProductusBook'; font-size:7.98;">d</tspan><tspan x="10.693" y="0" style="font-family:'ProductusBook'; font-size:7.98;"> </tspan><tspan x="12.313" y="0" style="font-family:'ProductusBook'; font-size:7.98;">sh</tspan><tspan x="18.777" y="0" style="font-family:'ProductusBook'; font-size:7.98;">i</tspan><tspan x="20.396" y="0" style="font-family:'ProductusBook'; font-size:7.98;">p</tspan><tspan x="24.06" y="0" style="font-family:'ProductusBook'; font-size:7.98;">s</tspan></text>
<polyline style="fill-rule:evenodd;clip-rule:evenodd;fill:#808080;" points="94.44,136.74 94.2,136.62 93.84,136.561 93.48,136.62 
	93.12,136.74 92.82,136.86 92.7,137.101 92.64,137.28 92.82,137.521 93.12,137.76 93.36,138 93.42,138.24 93.42,138.48 93.3,138.72 
	93.06,138.96 92.64,139.141 92.16,139.2 90.78,139.141 90.48,139.141 90.24,139.2 90.24,139.32 90.48,139.561 91.44,140.46 
	91.74,140.58 91.98,140.7 92.28,140.641 92.52,140.34 92.7,140.22 92.94,140.101 93.42,139.98 93.66,139.98 93.84,140.04 
	93.9,140.22 93.84,140.4 93.78,140.7 93.78,140.94 93.9,141.24 94.32,141.66 94.68,141.78 95.1,141.84 95.52,141.84 95.88,141.78 
	96.06,141.66 96.12,141.54 96.12,141.36 96.06,141 96.12,140.82 96.24,140.641 96.6,140.521 97.08,140.521 97.5,140.641 
	97.8,140.82 97.98,140.94 98.22,141.061 98.7,141.12 99.18,141 99.42,140.76 99.54,140.46 99.78,140.22 100.38,139.74 100.8,139.32 
	100.8,139.2 100.56,139.141 99.18,138.84 98.58,138.601 98.28,138.42 98.1,138.24 97.92,137.94 97.98,137.76 98.1,137.521 
	98.28,137.28 98.64,136.86 98.7,136.62 98.64,136.38 98.46,136.2 98.22,136.021 97.74,135.9 97.44,135.9 97.2,135.96 97.02,136.08 
	96.84,136.26 96.66,136.5 96.42,136.74 96.12,136.98 95.82,137.101 95.46,137.22 95.1,137.16 94.74,137.04 94.38,136.8 "/>
<polyline points="94.32,136.98 94.5,137.101 94.74,136.68 94.56,136.561 "/>
<polyline points="94.32,136.98 94.08,136.86 94.2,136.86 93.84,136.8 93.9,136.8 93.54,136.86 93.6,136.86 93.24,136.98 
	92.94,137.101 93.06,136.98 92.94,137.22 92.88,137.4 92.82,137.16 93,137.4 93,137.34 93.3,137.58 93.54,137.82 93.6,137.94 
	93.66,138.18 93.66,138.601 93.54,138.84 93.18,139.2 92.76,139.38 92.7,139.38 92.22,139.44 92.16,139.44 90.78,139.38 
	90.48,139.38 90.54,139.38 90.3,139.44 90.48,139.2 90.48,139.32 90.42,139.141 90.66,139.38 91.62,140.28 91.56,140.28 
	91.86,140.4 92.1,140.521 91.92,140.46 92.22,140.4 92.1,140.521 92.34,140.22 92.4,140.16 92.58,140.04 92.82,139.92 92.88,139.86 
	93.36,139.74 93.78,139.74 93.96,139.8 94.08,139.98 94.14,140.16 94.14,140.34 94.08,140.521 94.08,140.46 94.02,140.76 
	94.02,140.7 94.02,140.94 94.02,140.88 94.14,141.18 94.08,141.061 94.5,141.48 94.44,141.42 94.8,141.54 94.74,141.54 
	95.16,141.601 95.1,141.601 95.52,141.601 95.58,142.08 95.1,142.08 94.68,142.021 94.62,142.021 94.26,141.9 94.14,141.84 
	93.72,141.42 93.72,141.36 93.6,141.061 93.54,140.94 93.54,140.641 93.6,140.34 93.66,140.16 93.66,140.34 93.6,140.16 
	93.78,140.28 93.6,140.22 93.66,140.22 93.42,140.22 93.48,140.22 93,140.34 93.06,140.34 92.82,140.46 92.64,140.58 92.7,140.521 
	92.46,140.82 92.34,140.88 92.04,140.94 91.86,140.94 91.62,140.82 91.68,140.82 91.38,140.7 91.32,140.641 90.36,139.74 
	90.3,139.74 90.06,139.5 90,139.32 90,139.2 90.18,138.96 90.42,138.9 90.78,138.9 92.16,138.96 92.64,138.9 92.58,138.96 
	93,138.78 92.88,138.78 93.12,138.54 93.12,138.601 93.24,138.36 93.18,138.48 93.18,138.24 93.18,138.3 93.12,138.061 
	93.18,138.18 92.94,137.94 93,137.94 92.7,137.7 92.64,137.7 92.46,137.46 92.4,137.22 92.46,137.04 92.52,136.98 92.64,136.74 
	92.76,136.68 93.06,136.561 93.06,136.5 93.42,136.38 93.48,136.38 93.84,136.32 93.9,136.32 94.26,136.38 94.32,136.44 
	94.56,136.561 "/>
<polyline points="95.52,141.601 95.88,141.54 95.76,141.601 95.94,141.48 95.88,141.54 95.94,141.42 95.88,141.54 95.88,141.36 
	95.88,141.42 95.82,141.061 95.82,140.94 95.88,140.76 95.94,140.7 96.06,140.521 96.18,140.4 96.54,140.28 97.14,140.28 
	97.56,140.4 97.62,140.46 97.92,140.641 98.1,140.76 98.34,140.88 98.28,140.82 98.76,140.88 98.64,140.88 99.12,140.76 99,140.82 
	99.24,140.58 99.24,140.7 99.36,140.4 99.36,140.28 99.6,140.04 99.66,140.04 100.26,139.561 100.2,139.561 100.62,139.141 
	100.56,139.32 100.56,139.2 100.74,139.44 100.5,139.38 99.12,139.08 98.52,138.84 98.46,138.84 98.16,138.66 97.92,138.42 
	97.92,138.36 97.74,138.061 97.68,137.88 97.74,137.7 97.8,137.641 97.92,137.4 98.1,137.16 98.46,136.74 98.4,136.8 98.46,136.561 
	98.46,136.68 98.4,136.44 98.46,136.561 98.28,136.38 98.34,136.38 98.1,136.2 98.16,136.26 97.68,136.141 97.74,136.141 
	97.44,136.141 97.5,136.141 97.26,136.2 97.32,136.2 97.14,136.32 97.2,136.26 96.84,135.9 96.9,135.9 97.08,135.78 97.14,135.72 
	97.38,135.66 97.8,135.66 98.28,135.78 98.4,135.84 98.64,136.021 98.82,136.2 98.88,136.32 98.94,136.561 98.94,136.68 
	98.88,136.92 98.82,137.04 98.46,137.46 98.28,137.7 98.34,137.641 98.22,137.88 98.16,138.061 98.16,137.82 98.34,138.12 
	98.28,138.061 98.46,138.24 98.4,138.24 98.7,138.42 99.3,138.66 99.24,138.601 100.62,138.9 100.86,138.96 101.04,139.2 
	101.04,139.32 100.98,139.5 100.56,139.92 99.96,140.4 99.72,140.641 99.78,140.58 99.66,140.88 99.36,141.18 99.24,141.24 
	98.76,141.36 98.7,141.36 98.22,141.3 98.1,141.3 97.86,141.18 97.68,141.061 97.38,140.88 97.44,140.88 97.02,140.76 97.08,140.76 
	96.6,140.76 96.72,140.76 96.36,140.88 96.48,140.76 96.36,140.94 96.3,141.12 96.3,141 96.36,141.36 96.36,141.66 96.3,141.78 
	96.18,141.9 96,142.021 95.94,142.021 95.58,142.08 "/>
<polyline points="97.2,136.26 97.02,136.44 96.84,136.68 96.6,136.92 96.3,137.16 96.24,137.22 95.94,137.34 95.58,137.46 
	95.46,137.46 95.1,137.4 95.04,137.4 94.68,137.28 94.62,137.28 94.86,136.86 94.86,136.8 95.22,136.92 95.16,136.92 95.52,136.98 
	95.4,136.98 95.76,136.86 95.76,136.92 96.06,136.8 96,136.8 96.3,136.561 96.24,136.561 96.48,136.32 96.48,136.38 96.66,136.141 
	96.66,136.08 96.84,135.9 "/>
<polyline points="94.26,137.04 94.08,136.92 94.32,136.5 94.5,136.62 "/>
<polyline points="94.62,137.28 94.86,136.86 94.5,136.62 94.26,137.04 "/>
<text transform="matrix(1 0 0 1 106.5601 139.6201)"><tspan x="0" y="0" style="font-family:'ProductusBook'; font-size:7.98;">secu</tspan><tspan x="13.119" y="0" style="font-family:'ProductusBook'; font-size:7.98;">r</tspan><tspan x="15.345" y="0" style="font-family:'ProductusBook'; font-size:7.98;">i</tspan><tspan x="16.965" y="0" style="font-family:'ProductusBook'; font-size:7.98;">t</tspan><tspan x="19.312" y="0" style="font-family:'ProductusBook'; font-size:7.98;">y</tspan><tspan x="22.551" y="0" style="font-family:'ProductusBook'; font-size:7.98;"> </tspan><tspan x="24.163" y="0" style="font-family:'ProductusBook'; font-size:7.98;">s</tspan><tspan x="26.988" y="0" style="font-family:'ProductusBook'; font-size:7.98;">c</tspan><tspan x="29.989" y="0" style="font-family:'ProductusBook'; font-size:7.98;">op</tspan><tspan x="37.482" y="0" style="font-family:'ProductusBook'; font-size:7.98;">e</tspan></text>
</svg>
