<?xml version="1.0" encoding="utf-8"?>
<!-- Generator: Adobe Illustrator 16.0.0, SVG Export Plug-In . SVG Version: 6.00 Build 0)  -->
<!DOCTYPE svg PUBLIC "-//W3C//DTD SVG 1.1//EN" "http://www.w3.org/Graphics/SVG/1.1/DTD/svg11.dtd">
<svg version="1.1" id="Layer_1" xmlns="http://www.w3.org/2000/svg" xmlns:xlink="http://www.w3.org/1999/xlink" x="0px" y="0px"
	 width="312.3px" height="149.587px" viewBox="0 0 312.3 149.587" style="enable-background:new 0 0 312.3 149.587;"
	 xml:space="preserve">
<rect x="219.96" y="35.64" style="fill:#FFFFFF;" width="92.101" height="99.24"/>
<rect x="219.72" y="35.4" width="0.48" height="1.26"/>
<rect x="219.96" y="35.4" width="0.96" height="0.48"/>
<rect x="224.76" y="35.4" width="1.92" height="0.48"/>
<rect x="230.521" y="35.4" width="1.92" height="0.48"/>
<rect x="236.28" y="35.4" width="1.92" height="0.48"/>
<rect x="242.04" y="35.4" width="1.92" height="0.48"/>
<rect x="247.8" y="35.4" width="1.92" height="0.48"/>
<rect x="253.561" y="35.4" width="1.92" height="0.48"/>
<rect x="259.32" y="35.4" width="1.859" height="0.48"/>
<rect x="265.021" y="35.4" width="1.92" height="0.48"/>
<rect x="270.78" y="35.4" width="1.92" height="0.48"/>
<rect x="276.54" y="35.4" width="1.92" height="0.48"/>
<rect x="282.3" y="35.4" width="1.92" height="0.48"/>
<rect x="288.061" y="35.4" width="1.92" height="0.48"/>
<rect x="293.82" y="35.4" width="1.92" height="0.48"/>
<rect x="299.58" y="35.4" width="1.92" height="0.48"/>
<rect x="305.34" y="35.4" width="1.92" height="0.48"/>
<rect x="311.04" y="35.4" width="1.26" height="0.48"/>
<rect x="311.82" y="35.64" width="0.479" height="1.02"/>
<rect x="311.82" y="40.56" width="0.479" height="1.92"/>
<rect x="311.82" y="46.38" width="0.479" height="1.92"/>
<rect x="311.82" y="52.2" width="0.479" height="1.92"/>
<rect x="311.82" y="58.021" width="0.479" height="1.979"/>
<rect x="311.82" y="63.84" width="0.479" height="1.98"/>
<rect x="311.82" y="69.72" width="0.479" height="1.92"/>
<rect x="311.82" y="75.54" width="0.479" height="1.92"/>
<rect x="311.82" y="81.36" width="0.479" height="1.98"/>
<rect x="311.82" y="87.18" width="0.479" height="1.98"/>
<rect x="311.82" y="93.06" width="0.479" height="1.92"/>
<rect x="311.82" y="98.88" width="0.479" height="1.92"/>
<rect x="311.82" y="104.7" width="0.479" height="1.92"/>
<rect x="311.82" y="110.521" width="0.479" height="1.98"/>
<rect x="311.82" y="116.34" width="0.479" height="1.98"/>
<rect x="311.82" y="122.22" width="0.479" height="1.92"/>
<rect x="311.82" y="128.04" width="0.479" height="1.92"/>
<rect x="311.82" y="133.86" width="0.479" height="1.26"/>
<rect x="311.04" y="134.64" width="1.021" height="0.48"/>
<rect x="305.34" y="134.64" width="1.92" height="0.48"/>
<rect x="299.58" y="134.64" width="1.92" height="0.48"/>
<rect x="293.82" y="134.64" width="1.92" height="0.48"/>
<rect x="288.061" y="134.64" width="1.92" height="0.48"/>
<rect x="282.3" y="134.64" width="1.92" height="0.48"/>
<rect x="276.54" y="134.64" width="1.92" height="0.48"/>
<rect x="270.78" y="134.64" width="1.92" height="0.48"/>
<rect x="265.021" y="134.64" width="1.92" height="0.48"/>
<rect x="259.32" y="134.64" width="1.859" height="0.48"/>
<rect x="253.561" y="134.64" width="1.92" height="0.48"/>
<rect x="247.8" y="134.64" width="1.92" height="0.48"/>
<rect x="242.04" y="134.64" width="1.92" height="0.48"/>
<rect x="236.28" y="134.64" width="1.92" height="0.48"/>
<rect x="230.521" y="134.64" width="1.92" height="0.48"/>
<rect x="224.76" y="134.64" width="1.92" height="0.48"/>
<rect x="219.72" y="134.64" width="1.2" height="0.48"/>
<rect x="219.72" y="133.86" width="0.48" height="1.02"/>
<rect x="219.72" y="128.04" width="0.48" height="1.92"/>
<rect x="219.72" y="122.22" width="0.48" height="1.92"/>
<rect x="219.72" y="116.34" width="0.48" height="1.98"/>
<rect x="219.72" y="110.521" width="0.48" height="1.98"/>
<rect x="219.72" y="104.7" width="0.48" height="1.92"/>
<rect x="219.72" y="98.88" width="0.48" height="1.92"/>
<rect x="219.72" y="93.06" width="0.48" height="1.92"/>
<rect x="219.72" y="87.18" width="0.48" height="1.98"/>
<rect x="219.72" y="81.36" width="0.48" height="1.98"/>
<rect x="219.72" y="75.54" width="0.48" height="1.92"/>
<rect x="219.72" y="69.72" width="0.48" height="1.92"/>
<rect x="219.72" y="63.84" width="0.48" height="1.98"/>
<rect x="219.72" y="58.021" width="0.48" height="1.979"/>
<rect x="219.72" y="52.2" width="0.48" height="1.92"/>
<rect x="219.72" y="46.38" width="0.48" height="1.92"/>
<rect x="219.72" y="40.56" width="0.48" height="1.92"/>
<polyline style="fill-rule:evenodd;clip-rule:evenodd;" points="21.48,85.26 21.48,84.54 21.36,83.82 21.18,83.16 20.94,82.5 
	20.64,81.9 20.28,81.3 19.44,80.22 18.36,79.38 17.82,79.021 17.16,78.72 16.5,78.48 15.84,78.3 15.12,78.18 13.68,78.18 
	13.02,78.3 12.3,78.48 11.64,78.72 11.04,79.021 10.44,79.38 9.9,79.8 9.42,80.22 8.94,80.76 8.52,81.3 8.16,81.9 7.86,82.5 
	7.5,83.82 7.38,84.54 7.32,85.26 7.38,85.98 7.5,86.7 7.86,88.021 8.16,88.62 8.52,89.22 8.94,89.76 9.9,90.72 10.44,91.14 
	11.04,91.5 11.64,91.8 12.3,92.04 13.02,92.22 13.68,92.28 14.4,92.34 15.84,92.22 16.5,92.04 17.16,91.8 17.82,91.5 18.36,91.14 
	18.9,90.72 19.44,90.24 19.86,89.76 20.28,89.22 20.64,88.62 20.94,88.021 21.18,87.36 21.36,86.7 21.48,85.98 21.48,85.26 "/>
<polyline style="fill:#FFFFFF;" points="21.24,85.26 21.24,84.54 21.24,84.6 21.12,83.88 20.94,83.22 20.94,83.28 20.7,82.62 
	20.76,82.62 20.46,82.021 20.1,81.42 20.1,81.48 19.26,80.4 19.32,80.4 18.24,79.56 18.24,79.62 17.7,79.26 17.76,79.26 17.1,78.96 
	16.44,78.72 15.78,78.54 15.84,78.54 15.12,78.42 13.68,78.42 13.74,78.42 13.08,78.54 12.36,78.72 12.42,78.72 11.76,78.96 
	11.16,79.26 10.56,79.62 10.62,79.56 10.08,79.98 9.6,80.4 9.12,80.94 8.7,81.48 8.76,81.42 8.4,82.021 8.1,82.62 8.1,82.56 
	7.74,83.88 7.62,84.6 7.56,85.32 7.56,85.26 7.62,85.98 7.74,86.7 7.74,86.64 8.1,87.96 8.1,87.9 8.4,88.5 8.76,89.1 8.7,89.1 
	9.12,89.64 9.12,89.58 10.08,90.54 9.78,90.9 9.72,90.9 8.76,89.94 8.34,89.4 8.34,89.34 7.98,88.74 7.68,88.14 7.62,88.08 
	7.26,86.76 7.14,86.04 7.08,85.32 7.08,85.26 7.14,84.54 7.26,83.82 7.26,83.76 7.62,82.44 7.68,82.38 7.98,81.78 8.34,81.18 
	8.76,80.64 9.24,80.1 9.3,80.04 9.78,79.62 10.32,79.2 10.92,78.84 11.52,78.54 11.58,78.48 12.24,78.24 12.96,78.06 13.02,78.06 
	13.68,77.94 15.18,77.94 15.9,78.06 16.56,78.24 16.62,78.24 17.28,78.48 17.28,78.54 17.94,78.84 18.48,79.2 18.54,79.2 
	19.62,80.04 19.62,80.1 20.46,81.18 20.52,81.18 20.88,81.78 21.18,82.38 21.18,82.44 21.42,83.1 21.6,83.76 21.6,83.82 
	21.72,84.54 21.72,85.26 "/>
<polyline style="fill:#FFFFFF;" points="10.08,90.54 10.62,90.96 10.56,90.96 11.16,91.32 11.76,91.62 11.76,91.56 12.42,91.8 
	12.36,91.8 13.08,91.98 13.74,92.04 14.46,92.1 14.4,92.1 15.84,91.98 15.78,91.98 16.44,91.8 17.1,91.56 17.1,91.62 17.76,91.32 
	17.7,91.32 18.24,90.96 18.78,90.54 19.32,90.06 19.26,90.12 19.68,89.64 20.1,89.1 20.46,88.5 20.76,87.9 20.7,87.96 20.94,87.3 
	21.12,86.64 21.12,86.7 21.24,85.98 21.24,85.26 21.72,85.26 21.72,86.04 21.6,86.76 21.42,87.42 21.42,87.48 21.18,88.14 
	20.88,88.74 20.52,89.34 20.46,89.4 20.04,89.94 19.62,90.42 19.08,90.9 18.54,91.32 18.48,91.38 17.94,91.74 17.28,92.04 
	16.62,92.28 16.56,92.28 15.9,92.46 14.46,92.58 14.4,92.58 13.68,92.521 13.02,92.46 12.96,92.46 12.24,92.28 11.58,92.04 
	11.52,92.04 10.92,91.74 10.32,91.38 10.32,91.32 9.78,90.9 "/>
<rect x="149.04" y="64.021" style="fill:#999999;" width="35.46" height="35.4"/>
<rect x="149.04" y="63.78" width="35.7" height="0.48"/>
<rect x="184.26" y="64.021" width="0.48" height="35.64"/>
<rect x="148.8" y="99.18" width="35.7" height="0.48"/>
<rect x="148.8" y="63.78" width="0.48" height="35.64"/>
<polyline style="fill-rule:evenodd;clip-rule:evenodd;fill:#FFFFFF;" points="46.32,3.24 46.26,2.64 46.02,2.04 45.72,1.56 
	45.3,1.08 44.76,0.72 44.16,0.48 43.5,0.3 42.78,0.24 42.06,0.3 41.4,0.48 40.8,0.72 40.26,1.08 39.84,1.56 39.48,2.04 39.3,2.64 
	39.24,3.24 39.3,3.84 39.48,4.44 39.84,4.92 40.26,5.4 40.8,5.76 41.4,6.06 42.06,6.24 42.78,6.3 43.5,6.24 44.16,6.06 44.76,5.76 
	45.3,5.4 45.72,4.92 46.02,4.44 46.26,3.84 46.32,3.24 "/>
<polyline points="46.08,3.3 46.02,2.7 46.08,2.76 45.84,2.16 45.54,1.68 45.54,1.74 45.12,1.26 45.18,1.32 44.64,0.96 44.7,0.96 
	44.1,0.72 43.44,0.54 43.5,0.54 42.78,0.48 42.84,0.48 42.12,0.54 41.46,0.72 41.52,0.72 40.92,0.96 40.38,1.32 40.44,1.26 
	40.02,1.74 39.66,2.22 39.72,2.1 39.54,2.7 39.48,3.3 39.48,3.24 39.54,3.84 39.54,3.78 39.72,4.38 39.66,4.32 40.02,4.8 
	40.44,5.28 40.38,5.22 40.92,5.58 41.52,5.88 41.46,5.82 42.12,6 42.84,6.06 42.78,6.06 43.5,6 43.44,6 44.1,5.82 44.04,5.88 
	44.64,5.58 45.18,5.22 45.12,5.28 45.54,4.8 45.84,4.32 45.84,4.38 46.08,3.78 46.02,3.84 46.08,3.24 46.56,3.3 46.5,3.9 46.5,3.96 
	46.26,4.56 45.96,5.04 45.9,5.1 45.48,5.58 45.42,5.64 44.88,6 44.28,6.3 44.22,6.3 43.56,6.48 42.84,6.54 42.78,6.54 42.06,6.48 
	42,6.48 41.34,6.3 41.28,6.3 40.68,6 40.14,5.64 40.08,5.58 39.66,5.1 39.3,4.62 39.24,4.5 39.06,3.9 39,3.3 39,3.24 39.06,2.64 
	39.06,2.58 39.24,1.98 39.3,1.92 39.66,1.44 40.08,0.96 40.14,0.9 40.68,0.54 40.74,0.54 41.34,0.3 41.34,0.24 42,0.06 42.06,0.06 
	42.78,0 42.84,0 43.56,0.06 44.22,0.24 44.28,0.3 44.88,0.54 45.42,0.9 45.48,0.96 45.9,1.44 45.96,1.44 46.26,1.92 46.26,1.98 
	46.5,2.58 46.5,2.64 46.56,3.24 "/>
<polyline points="46.08,3.24 46.08,3.3 46.56,3.24 46.56,3.3 "/>
<rect x="42.54" y="6.06" width="0.48" height="9.6"/>
<polyline points="42.96,15.24 42.78,15.12 42.48,15.48 42.66,15.6 "/>
<polyline points="50.04,21.3 50.22,21.42 49.92,21.78 49.74,21.66 "/>
<polyline points="42.96,15.24 42.66,15.6 49.74,21.66 50.04,21.3 "/>
<polyline points="42.96,15.6 43.14,15.48 42.84,15.12 42.66,15.24 "/>
<polyline points="35.88,21.66 35.7,21.78 35.4,21.42 35.58,21.3 "/>
<polyline points="42.96,15.6 42.66,15.24 35.58,21.3 35.88,21.66 "/>
<rect x="35.46" y="9.06" width="14.64" height="0.48"/>
<rect x="21.24" y="85.021" width="43.02" height="0.48"/>
<polyline style="fill-rule:evenodd;clip-rule:evenodd;fill:#FFFFFF;" points="131.34,3.24 131.28,2.64 131.1,2.04 130.74,1.56 
	130.32,1.08 129.78,0.72 129.18,0.48 128.521,0.3 127.8,0.24 127.08,0.3 126.42,0.48 125.82,0.72 125.28,1.08 124.86,1.56 
	124.561,2.04 124.32,2.64 124.26,3.24 124.32,3.84 124.561,4.44 124.86,4.92 125.28,5.4 125.82,5.76 126.42,6.06 127.08,6.24 
	127.8,6.3 128.521,6.24 129.18,6.06 129.78,5.76 130.32,5.4 130.74,4.92 131.1,4.44 131.28,3.84 131.34,3.24 "/>
<polyline points="131.1,3.3 131.04,2.7 130.86,2.1 130.92,2.22 130.561,1.74 130.14,1.26 130.2,1.32 129.66,0.96 129.72,0.96 
	129.12,0.72 128.46,0.54 128.521,0.54 127.8,0.48 127.86,0.48 127.14,0.54 126.48,0.72 126.54,0.72 125.94,0.96 125.4,1.32 
	125.46,1.26 125.04,1.74 125.1,1.68 124.8,2.16 124.561,2.76 124.561,2.7 124.5,3.3 124.5,3.24 124.561,3.84 124.561,3.78 
	124.8,4.38 124.8,4.32 125.1,4.8 125.04,4.8 125.46,5.28 125.4,5.22 125.94,5.58 126.54,5.88 126.48,5.82 127.14,6 127.86,6.06 
	127.8,6.06 128.521,6 128.46,6 129.12,5.82 129.061,5.88 129.66,5.58 130.2,5.22 130.14,5.28 130.561,4.8 130.92,4.32 130.86,4.38 
	131.04,3.78 131.04,3.84 131.1,3.24 131.58,3.3 131.521,3.9 131.34,4.5 131.28,4.62 130.92,5.1 130.5,5.58 130.44,5.64 129.9,6 
	129.3,6.3 129.24,6.3 128.58,6.48 127.86,6.54 127.8,6.54 127.08,6.48 127.021,6.48 126.36,6.3 126.3,6.3 125.7,6 125.16,5.64 
	125.1,5.58 124.68,5.1 124.68,5.04 124.38,4.56 124.14,3.96 124.08,3.9 124.021,3.3 124.021,3.24 124.08,2.64 124.14,2.58 
	124.38,1.98 124.38,1.92 124.68,1.44 125.1,0.96 125.16,0.9 125.7,0.54 125.76,0.54 126.36,0.3 126.36,0.24 127.021,0.06 
	127.08,0.06 127.8,0 127.86,0 128.58,0.06 129.24,0.24 129.3,0.3 129.9,0.54 130.44,0.9 130.5,0.96 130.92,1.44 131.28,1.92 
	131.34,1.98 131.521,2.58 131.521,2.64 131.58,3.24 "/>
<polyline points="131.1,3.24 131.1,3.3 131.58,3.24 131.58,3.3 "/>
<rect x="127.561" y="6.06" width="0.479" height="9.6"/>
<polyline points="127.98,15.24 127.8,15.12 127.5,15.48 127.68,15.6 "/>
<polyline points="135.061,21.3 135.24,21.42 134.94,21.78 134.76,21.66 "/>
<polyline points="127.98,15.24 127.68,15.6 134.76,21.66 135.061,21.3 "/>
<polyline points="127.98,15.6 128.16,15.48 127.86,15.12 127.68,15.24 "/>
<polyline points="120.9,21.66 120.72,21.78 120.42,21.42 120.6,21.3 "/>
<polyline points="127.98,15.6 127.68,15.24 120.6,21.3 120.9,21.66 "/>
<rect x="120.48" y="9.06" width="0.239" height="0.48"/>
<rect x="120.72" y="9.06" width="14.4" height="0.48"/>
<rect x="99.24" y="85.021" width="50.04" height="0.48"/>
<polyline style="fill-rule:evenodd;clip-rule:evenodd;fill:#F7F7F7;" points="257.58,58.38 257.1,57.84 256.561,57.36 255.96,56.94 
	255.36,56.64 254.7,56.4 254.1,56.22 253.38,56.16 252.72,56.1 251.28,56.22 249.9,56.58 248.521,57.12 247.26,57.84 246.72,58.26 
	246.18,58.74 245.64,59.16 244.8,60.24 244.44,60.78 244.14,61.32 243.96,61.86 243.78,62.46 243.72,63 243.84,64.2 244.08,64.74 
	244.38,65.34 244.8,65.88 245.28,66.42 245.94,67.021 246.54,67.68 247.561,69 248.4,70.32 249.12,71.76 249.6,73.14 249.84,74.58 
	249.9,75.96 249.78,77.34 249.6,78 249.12,79.32 248.76,79.92 248.34,80.521 247.92,81.06 246.84,82.14 246.18,82.62 245.46,83.1 
	244.68,83.521 243.9,83.88 243,84.24 242.04,84.6 239.88,85.08 239.16,85.14 238.14,85.08 235.561,84.84 232.561,84.54 
	229.62,84.36 228.3,84.36 227.16,84.48 226.26,84.66 225.9,84.84 225.66,85.08 225.48,85.32 225.36,85.62 225.42,85.92 
	225.48,86.34 225.72,86.82 226.08,87.3 226.561,87.84 227.16,88.5 234.54,98.22 235.62,99.24 236.16,99.72 236.7,100.08 
	237.18,100.38 237.72,100.62 238.26,100.8 238.8,100.86 239.34,100.86 239.82,100.68 240.36,100.5 240.9,100.14 241.38,99.66 
	241.92,99.06 242.4,98.28 243.36,96.6 244.08,95.88 244.86,95.22 245.76,94.62 246.78,94.08 247.8,93.72 248.82,93.42 249.78,93.24 
	250.74,93.24 251.58,93.36 252.3,93.66 252.6,93.9 252.84,94.14 253.08,94.44 253.26,94.8 253.38,95.22 253.44,95.7 253.44,96.18 
	253.32,96.78 252.96,98.04 252.54,99.48 252.36,100.98 252.3,102.42 252.42,103.86 252.78,105.3 253.26,106.68 253.86,107.94 
	254.7,109.14 255.6,110.22 256.14,110.76 256.68,111.24 257.88,112.08 259.2,112.74 260.7,113.28 262.2,113.58 263.88,113.7 
	265.62,113.58 267.061,113.34 267.6,113.16 268.14,112.92 268.561,112.68 268.92,112.38 269.22,112.021 269.46,111.72 
	269.82,110.94 270,110.1 270.061,109.14 270,108.18 269.76,106.2 269.64,104.16 269.7,103.2 269.94,102.24 270.3,101.4 
	270.6,100.98 270.9,100.62 271.561,100.021 272.28,99.6 273.061,99.24 273.9,99 274.74,98.88 275.58,98.82 276.48,98.88 277.38,99 
	278.22,99.18 279.061,99.48 279.84,99.78 281.28,100.62 281.88,101.1 282.36,101.64 282.78,102.18 283.44,103.08 284.16,103.8 
	285,104.4 285.96,104.88 286.92,105.24 287.88,105.42 288.9,105.54 289.86,105.54 290.82,105.36 291.72,105.12 292.561,104.76 
	293.34,104.34 294,103.74 294.48,103.14 294.9,102.36 295.08,101.58 295.44,100.14 296.1,98.7 296.94,97.26 297.9,95.88 
	298.98,94.5 300.18,93.12 302.46,90.6 303.48,89.4 304.38,88.32 305.1,87.3 305.521,86.4 305.64,85.98 305.7,85.62 305.64,85.26 
	305.521,84.96 305.28,84.66 304.92,84.42 304.5,84.18 303.9,84 298.5,82.56 295.86,81.78 293.34,80.76 292.14,80.22 290.94,79.62 
	289.8,78.9 288.72,78.12 287.7,77.28 286.74,76.32 285.84,75.3 285.061,74.16 284.64,73.5 284.34,72.78 284.1,72.12 283.98,71.46 
	283.86,70.86 283.92,70.2 284.1,68.94 284.46,67.74 285.061,66.54 285.72,65.34 286.44,64.2 287.94,61.8 288.6,60.6 289.14,59.34 
	289.5,58.08 289.62,57.48 289.68,56.82 289.561,55.5 289.38,54.78 289.08,54.12 288.6,53.04 287.94,52.14 287.16,51.3 286.32,50.58 
	285.36,49.92 284.4,49.44 283.38,49.08 282.36,48.84 281.34,48.72 280.32,48.78 279.36,49.021 278.46,49.44 277.62,49.98 
	276.84,50.76 276.54,51.18 276.24,51.66 275.7,52.8 275.16,54.24 274.44,55.68 273.54,57.06 272.58,58.38 271.5,59.58 270.36,60.66 
	269.16,61.56 267.84,62.34 266.521,62.88 265.8,63.06 265.14,63.18 264.42,63.24 263.7,63.24 263.04,63.12 262.32,63 261.6,62.76 
	260.88,62.4 260.22,61.98 259.5,61.5 258.84,60.9 258.12,60.24 257.46,59.46 256.8,58.56 "/>
<polyline points="257.4,58.56 257.521,58.74 257.88,58.44 257.76,58.26 "/>
<polyline points="257.4,58.56 256.92,58.021 256.98,58.021 256.44,57.54 256.44,57.6 255.84,57.18 255.24,56.88 255.3,56.88 
	254.64,56.64 254.04,56.46 254.1,56.46 253.38,56.4 252.72,56.34 252.78,56.34 251.34,56.46 249.96,56.82 250.021,56.82 
	248.64,57.36 247.38,58.08 247.44,58.021 246.9,58.44 246.36,58.92 245.82,59.34 244.98,60.42 245.04,60.36 244.68,60.9 
	244.38,61.44 244.2,61.98 244.2,61.92 244.021,62.521 243.96,63.06 243.96,63 244.08,64.2 244.08,64.14 244.32,64.68 244.32,64.62 
	244.62,65.22 244.561,65.22 244.98,65.76 245.46,66.3 245.46,66.24 246.12,66.84 246.12,66.9 246.72,67.56 247.74,68.88 
	247.8,68.88 248.64,70.2 249.36,71.64 249.36,71.7 249.84,73.08 249.84,73.14 250.08,74.58 250.14,75.96 250.14,76.021 
	250.021,77.4 249.84,78.06 249.84,78.12 249.36,79.44 249,80.04 249,80.1 248.58,79.8 248.94,79.2 248.88,79.26 249.36,77.94 
	249.54,77.28 249.54,77.34 249.66,75.96 249.6,74.58 249.6,74.64 249.36,73.2 249.36,73.26 248.88,71.88 248.94,71.88 248.22,70.44 
	247.38,69.12 247.38,69.18 246.36,67.86 245.76,67.2 245.82,67.2 245.16,66.6 245.1,66.6 244.62,66.06 244.2,65.521 244.2,65.46 
	243.9,64.86 243.66,64.32 243.6,64.26 243.48,63.06 243.48,63 243.54,62.46 243.54,62.4 243.72,61.8 243.9,61.26 243.96,61.2 
	244.26,60.66 244.62,60.12 245.46,59.04 245.521,58.98 246.061,58.56 246.6,58.08 247.14,57.66 248.4,56.94 248.46,56.94 
	249.84,56.4 249.84,56.34 251.22,55.98 251.28,55.98 252.72,55.86 252.78,55.86 253.44,55.92 254.16,55.98 254.76,56.16 
	254.82,56.16 255.48,56.4 255.48,56.46 256.08,56.76 256.14,56.76 256.74,57.18 257.28,57.66 257.28,57.72 257.76,58.26 "/>
<polyline points="249,80.1 248.58,80.7 248.521,80.7 248.1,81.24 247.021,82.32 246.36,82.8 246.3,82.86 245.58,83.34 244.8,83.76 
	244.021,84.12 243.12,84.48 242.16,84.84 242.1,84.84 239.94,85.32 239.22,85.38 239.16,85.38 238.14,85.32 235.561,85.08 
	232.561,84.78 229.62,84.6 228.3,84.6 228.36,84.6 227.22,84.72 226.32,84.9 226.38,84.9 226.021,85.08 226.08,85.021 225.84,85.26 
	225.66,85.5 225.72,85.44 225.6,85.74 225.6,85.56 225.66,85.86 225.66,85.92 225.72,86.34 225.72,86.22 225.96,86.7 225.9,86.7 
	226.26,87.18 226.74,87.72 227.34,88.38 234.72,98.1 234.72,98.04 235.8,99.06 236.34,99.54 236.28,99.54 236.82,99.9 237.3,100.2 
	237.84,100.44 237.84,100.38 238.38,100.56 238.32,100.56 238.86,100.62 238.8,100.62 239.34,100.62 239.28,100.68 239.76,100.5 
	239.76,100.44 240.3,100.26 240.24,100.32 240.48,100.74 239.94,100.92 239.46,101.1 238.8,101.1 238.26,101.04 238.2,101.04 
	237.66,100.86 237.12,100.62 237.061,100.62 236.58,100.32 236.04,99.96 236.04,99.9 235.5,99.42 234.42,98.4 234.36,98.4 
	226.98,88.68 226.38,88.021 225.9,87.48 225.54,87 225.54,86.94 225.3,86.46 225.24,86.4 225.18,85.98 225.12,85.68 225.18,85.56 
	225.3,85.26 225.3,85.2 225.48,84.96 225.48,84.9 225.72,84.66 225.78,84.66 226.14,84.48 226.2,84.42 227.1,84.24 227.16,84.24 
	228.3,84.12 229.62,84.12 232.561,84.3 232.62,84.3 235.62,84.6 238.2,84.84 238.14,84.84 239.16,84.9 239.88,84.84 239.82,84.84 
	241.98,84.36 241.98,84.42 242.94,84.06 243.84,83.7 244.62,83.34 244.561,83.34 245.34,82.92 246.061,82.44 246.72,81.96 
	246.66,81.96 247.74,80.88 247.74,80.94 248.16,80.4 248.58,79.8 "/>
<polyline points="240.24,100.32 240.78,99.96 240.72,99.96 241.2,99.48 241.2,99.54 241.74,98.94 242.22,98.16 243.18,96.48 
	243.18,96.42 243.9,95.7 243.96,95.7 244.74,95.04 245.64,94.44 246.66,93.9 246.72,93.84 247.74,93.48 248.76,93.18 248.82,93.18 
	249.78,93 250.8,93 251.64,93.12 251.7,93.18 252.42,93.48 252.48,93.48 252.78,93.72 253.021,93.96 253.021,94.021 253.26,94.32 
	253.32,94.32 253.5,94.68 253.5,94.74 253.62,95.16 253.62,95.22 253.68,95.7 253.68,96.24 253.561,96.84 253.2,98.1 252.78,99.54 
	252.6,101.04 252.6,100.98 252.54,102.42 252.66,103.86 252.66,103.8 253.021,105.24 253.5,106.62 254.1,107.88 254.1,107.82 
	254.94,109.021 254.88,109.021 255.78,110.1 255.78,110.04 256.32,110.58 256.86,111.06 258.061,111.9 258,111.9 259.32,112.56 
	259.32,112.5 260.82,113.04 260.76,113.04 262.26,113.34 263.94,113.46 263.88,113.46 263.94,113.94 263.88,113.94 262.2,113.82 
	262.14,113.82 260.64,113.521 259.14,112.98 259.08,112.98 257.76,112.32 256.561,111.48 256.561,111.42 256.021,110.94 
	255.96,110.94 255.42,110.4 254.521,109.32 253.68,108.12 253.68,108.06 253.08,106.8 253.021,106.8 252.54,105.42 252.54,105.36 
	252.18,103.92 252.061,102.48 252.061,102.42 252.12,100.98 252.3,99.48 252.3,99.42 252.72,97.98 253.08,96.72 253.2,96.12 
	253.2,96.18 253.2,95.7 253.2,95.76 253.14,95.28 253.021,94.86 253.08,94.92 252.9,94.56 252.9,94.62 252.66,94.32 252.42,94.08 
	252.48,94.08 252.18,93.84 252.24,93.9 251.521,93.6 251.58,93.6 250.74,93.48 249.78,93.48 249.84,93.48 248.88,93.66 
	247.86,93.96 247.92,93.96 246.9,94.32 245.88,94.86 244.98,95.46 245.04,95.4 244.26,96.06 243.54,96.78 243.6,96.72 242.64,98.4 
	242.16,99.18 242.1,99.24 241.561,99.84 241.021,100.38 240.48,100.74 "/>
<polyline points="263.88,113.46 265.62,113.34 267.061,113.1 267,113.1 267.54,112.92 267.54,112.98 268.08,112.74 268.021,112.74 
	268.44,112.5 268.8,112.2 268.74,112.26 269.04,111.9 269.28,111.6 269.28,111.66 269.64,110.88 269.58,110.88 269.76,110.04 
	269.76,110.1 269.82,109.14 269.76,108.18 269.76,108.24 269.521,106.26 269.521,106.2 269.4,104.16 269.46,103.2 269.46,103.14 
	269.7,102.18 269.76,102.18 270.12,101.34 270.12,101.28 270.42,100.86 270.72,100.5 270.78,100.44 271.44,99.84 272.16,99.42 
	272.22,99.42 273,99.06 273,99 273.84,98.76 273.9,98.76 274.74,98.64 275.58,98.58 275.64,98.58 276.54,98.64 277.44,98.76 
	278.28,98.94 278.34,98.94 279.18,99.24 279.18,99.3 279.96,99.6 281.4,100.44 281.46,100.44 282.061,100.92 282.061,100.98 
	282.54,101.521 282.96,102.06 283.62,102.96 283.62,102.9 284.34,103.62 285.18,104.22 285.12,104.22 286.08,104.7 287.04,105.06 
	286.98,105 286.92,105.48 286.86,105.48 285.9,105.12 285.84,105.12 284.88,104.64 284.04,104.04 283.26,103.26 282.6,102.36 
	282.18,101.82 281.7,101.28 281.76,101.28 281.16,100.8 281.16,100.86 279.72,100.021 279.78,100.021 279,99.72 278.16,99.42 
	277.32,99.24 277.38,99.24 276.48,99.12 275.58,99.06 275.64,99.06 274.8,99.12 273.96,99.24 273.12,99.48 273.18,99.48 
	272.4,99.84 271.68,100.26 271.74,100.2 271.08,100.8 270.78,101.16 270.84,101.16 270.54,101.58 270.54,101.521 270.18,102.36 
	270.18,102.3 269.94,103.26 269.94,103.2 269.88,104.16 270,106.2 270.24,108.18 270.3,109.14 270.24,110.1 270.24,110.16 
	270.061,111 270.061,111.06 269.7,111.84 269.64,111.9 269.4,112.2 269.1,112.56 268.74,112.86 268.68,112.92 268.26,113.16 
	267.72,113.4 267.18,113.58 267.12,113.58 265.68,113.82 263.94,113.94 "/>
<polyline points="286.98,105 287.94,105.18 288.96,105.3 288.9,105.3 289.86,105.3 290.82,105.12 290.76,105.12 291.66,104.88 
	291.66,104.94 292.5,104.58 292.44,104.58 293.22,104.16 293.88,103.56 293.82,103.62 294.3,103.021 294.72,102.24 294.66,102.3 
	294.84,101.521 295.2,100.08 295.26,100.08 295.92,98.64 295.92,98.58 296.76,97.14 297.72,95.76 298.8,94.38 300,93 302.28,90.48 
	303.3,89.28 304.2,88.2 304.92,87.18 304.92,87.24 305.34,86.34 305.28,86.34 305.4,85.92 305.4,85.98 305.46,85.62 305.46,85.68 
	305.4,85.32 305.46,85.38 305.34,85.08 305.34,85.14 305.1,84.84 305.16,84.9 304.8,84.66 304.38,84.42 304.44,84.42 303.84,84.24 
	298.44,82.8 295.8,82.021 293.28,81 292.08,80.46 292.021,80.46 290.82,79.86 289.68,79.14 289.68,79.08 288.6,78.3 287.58,77.46 
	287.521,77.46 286.561,76.5 285.66,75.48 286.08,75.18 286.021,75.18 286.92,76.2 286.92,76.14 287.88,77.1 288.9,77.94 
	289.98,78.72 289.92,78.72 291.061,79.44 292.26,80.04 293.46,80.58 295.98,81.6 295.92,81.54 298.561,82.32 303.96,83.76 
	304.561,83.94 304.62,84 305.04,84.24 305.4,84.48 305.46,84.54 305.7,84.84 305.76,84.9 305.88,85.2 305.88,85.26 305.94,85.62 
	305.94,85.68 305.88,86.04 305.76,86.46 305.76,86.521 305.34,87.42 305.34,87.48 304.62,88.5 304.561,88.5 303.66,89.58 
	302.64,90.78 300.36,93.3 299.16,94.68 298.08,96.06 298.14,96.06 297.18,97.44 297.18,97.38 296.34,98.82 295.68,100.26 
	295.68,100.2 295.32,101.64 295.14,102.42 295.14,102.48 294.72,103.26 294.66,103.32 294.18,103.92 293.521,104.521 293.46,104.58 
	292.68,105 291.84,105.36 291.78,105.36 290.88,105.6 289.92,105.78 288.9,105.78 287.88,105.66 286.92,105.48 "/>
<polyline points="285.66,75.48 284.88,74.34 284.88,74.28 284.46,73.62 284.16,72.9 284.1,72.9 283.86,72.24 283.86,72.18 
	283.74,71.521 283.62,70.92 283.62,70.86 283.68,70.2 283.86,68.94 283.86,68.88 284.22,67.68 284.28,67.62 284.88,66.42 
	285.54,65.22 286.26,64.08 287.76,61.68 288.42,60.48 288.42,60.54 288.96,59.28 288.9,59.28 289.26,58.021 289.38,57.42 
	289.38,57.48 289.44,56.82 289.44,56.88 289.32,55.56 289.14,54.84 289.2,54.9 288.9,54.24 288.42,53.16 288.42,53.22 287.76,52.32 
	286.98,51.48 287.04,51.48 286.2,50.76 286.2,50.82 285.24,50.16 284.28,49.68 284.34,49.68 283.32,49.32 282.3,49.08 282.36,49.08 
	281.34,48.96 280.32,49.021 280.38,49.021 279.42,49.26 279.48,49.26 278.58,49.68 277.74,50.22 277.8,50.16 277.021,50.94 
	277.08,50.94 276.78,51.36 276.78,51.3 276.48,51.78 275.94,52.92 275.4,54.36 274.98,54.12 274.98,54.18 275.521,52.74 
	276.061,51.6 276.061,51.54 276.36,51.06 276.66,50.64 276.66,50.58 277.44,49.8 277.5,49.8 278.34,49.26 278.4,49.26 279.3,48.84 
	279.3,48.78 280.26,48.54 280.32,48.54 281.34,48.48 281.4,48.48 282.42,48.6 283.44,48.84 283.5,48.84 284.521,49.2 284.521,49.26 
	285.48,49.74 285.54,49.74 286.5,50.4 287.34,51.12 287.34,51.18 288.12,52.021 288.78,52.92 288.84,52.98 289.32,54.06 
	289.62,54.72 289.8,55.44 289.8,55.5 289.92,56.82 289.92,56.88 289.86,57.54 289.74,58.14 289.38,59.4 289.38,59.46 288.84,60.72 
	288.18,61.92 286.68,64.32 285.96,65.46 285.3,66.66 284.7,67.86 284.7,67.8 284.34,69 284.16,70.26 284.1,70.92 284.1,70.8 
	284.22,71.4 284.22,71.46 284.34,72.12 284.34,72.06 284.58,72.72 284.88,73.44 284.88,73.38 285.3,74.04 286.08,75.18 "/>
<polyline points="275.4,54.36 274.68,55.8 273.78,57.18 273.72,57.24 272.76,58.56 271.68,59.76 270.54,60.84 269.34,61.74 
	269.28,61.8 267.96,62.58 266.64,63.12 266.58,63.12 265.86,63.3 265.2,63.42 264.48,63.48 263.7,63.48 263.04,63.36 262.32,63.24 
	262.26,63.24 261.54,63 261.48,63 260.76,62.64 260.1,62.22 259.38,61.74 259.38,61.68 258.72,61.08 258,60.42 257.94,60.42 
	257.28,59.64 257.64,59.34 258.3,60.12 258.3,60.06 259.021,60.72 259.68,61.32 259.62,61.32 260.34,61.8 261,62.22 261.72,62.58 
	261.72,62.521 262.44,62.76 262.38,62.76 263.1,62.88 263.76,63 263.7,63 264.42,63 265.14,62.94 265.8,62.82 265.74,62.82 
	266.46,62.64 266.46,62.7 267.78,62.16 267.72,62.16 269.04,61.38 270.24,60.48 270.18,60.48 271.32,59.4 271.32,59.46 272.4,58.26 
	273.36,56.94 274.26,55.56 274.98,54.12 "/>
<polyline points="256.62,58.74 256.5,58.56 256.86,58.26 256.98,58.44 "/>
<polyline points="257.28,59.64 257.64,59.34 256.98,58.44 256.62,58.74 "/>
<rect x="227.04" y="106.5" style="fill:#FFFFFF;" width="9.42" height="14.22"/>
<rect x="227.04" y="106.26" width="9.66" height="0.48"/>
<rect x="236.22" y="106.5" width="0.48" height="14.46"/>
<rect x="226.8" y="120.48" width="9.66" height="0.48"/>
<rect x="226.8" y="106.26" width="0.48" height="14.46"/>
<polyline style="fill-rule:evenodd;clip-rule:evenodd;" points="276.66,71.1 276.6,70.38 276.48,69.66 276.3,69 276.061,68.34 
	275.76,67.68 275.04,66.6 274.561,66.06 274.08,65.64 273.48,65.22 272.94,64.86 272.28,64.56 271.68,64.32 270.96,64.14 
	270.3,64.021 268.8,64.021 268.14,64.14 267.42,64.32 266.76,64.56 266.16,64.86 265.561,65.22 265.021,65.64 264.54,66.06 
	264.061,66.6 263.34,67.68 263.04,68.34 262.8,69 262.62,69.66 262.5,70.38 262.44,71.1 262.5,71.82 262.62,72.54 262.8,73.2 
	263.04,73.86 263.34,74.46 263.7,75.06 264.061,75.6 265.021,76.56 265.561,76.98 266.16,77.34 266.76,77.64 267.42,77.88 
	268.14,78 268.8,78.12 269.521,78.18 270.3,78.12 270.96,78 271.68,77.88 272.28,77.64 272.94,77.34 273.48,76.98 274.08,76.56 
	275.04,75.6 275.4,75.06 275.76,74.46 276.061,73.86 276.3,73.2 276.48,72.54 276.6,71.82 276.66,71.1 "/>
<polyline points="276.42,71.16 276.36,70.44 276.24,69.72 276.061,69.06 276.061,69.12 275.82,68.46 275.88,68.46 275.58,67.8 
	274.86,66.72 274.86,66.78 274.38,66.24 274.44,66.24 273.96,65.82 273.96,65.88 273.36,65.46 272.82,65.1 272.88,65.1 272.22,64.8 
	271.62,64.56 270.9,64.38 270.96,64.38 270.3,64.26 268.8,64.26 268.86,64.26 268.2,64.38 267.48,64.56 267.54,64.56 266.88,64.8 
	266.28,65.1 265.68,65.46 265.74,65.4 265.2,65.82 264.72,66.24 264.24,66.78 264.3,66.72 263.58,67.8 263.28,68.46 263.04,69.12 
	263.04,69.06 262.86,69.72 262.74,70.44 262.68,71.16 262.68,71.1 262.74,71.82 262.86,72.54 262.86,72.48 263.04,73.14 
	263.28,73.8 263.28,73.74 263.58,74.34 263.94,74.94 264.3,75.48 264.24,75.42 265.2,76.38 264.9,76.74 264.84,76.74 263.88,75.78 
	263.88,75.72 263.521,75.18 263.16,74.58 262.86,73.98 262.8,73.98 262.561,73.32 262.561,73.26 262.38,72.6 262.26,71.88 
	262.2,71.16 262.2,71.1 262.26,70.38 262.38,69.66 262.38,69.6 262.561,68.94 262.8,68.28 262.86,68.28 263.16,67.62 263.16,67.56 
	263.88,66.48 264.36,65.94 264.42,65.88 264.9,65.46 265.44,65.04 266.04,64.68 266.64,64.38 266.7,64.32 267.36,64.08 268.08,63.9 
	268.14,63.9 268.8,63.78 270.36,63.78 271.021,63.9 271.74,64.08 271.8,64.14 272.4,64.38 273.061,64.68 273.6,65.04 273.66,65.04 
	274.26,65.46 274.74,65.88 274.74,65.94 275.22,66.48 275.28,66.48 276,67.56 276,67.62 276.3,68.28 276.54,68.94 276.72,69.6 
	276.72,69.66 276.84,70.38 276.9,71.1 "/>
<polyline points="265.2,76.38 265.74,76.8 265.68,76.8 266.28,77.16 266.88,77.46 266.88,77.4 267.54,77.64 267.48,77.64 
	268.2,77.76 268.86,77.88 269.58,77.94 269.521,77.94 270.3,77.88 270.96,77.76 271.68,77.64 271.62,77.7 272.22,77.46 
	272.88,77.16 272.82,77.16 273.36,76.8 273.96,76.38 273.9,76.38 274.86,75.42 274.86,75.48 275.22,74.94 275.58,74.34 
	275.88,73.74 275.82,73.8 276.061,73.14 276.24,72.48 276.24,72.54 276.36,71.82 276.42,71.1 276.42,71.16 276.9,71.1 276.9,71.16 
	276.84,71.88 276.72,72.6 276.54,73.26 276.54,73.32 276.3,73.98 276,74.58 275.64,75.18 275.28,75.72 274.26,76.74 274.26,76.8 
	273.66,77.22 273.6,77.22 273.061,77.58 272.4,77.88 271.8,78.12 271.74,78.12 271.021,78.24 270.36,78.36 269.58,78.42 
	269.521,78.42 268.8,78.36 268.14,78.24 267.42,78.12 267.36,78.12 266.7,77.88 266.64,77.88 266.04,77.58 265.44,77.22 
	265.44,77.16 264.9,76.74 "/>
<rect x="184.26" y="85.021" width="43.021" height="0.48"/>
<polyline style="fill-rule:evenodd;clip-rule:evenodd;" points="177.42,85.26 177.3,83.82 177.12,83.16 176.88,82.5 176.58,81.9 
	176.22,81.3 175.8,80.76 175.32,80.22 174.84,79.8 174.3,79.38 173.7,79.021 173.1,78.72 172.44,78.48 171.78,78.3 171.061,78.18 
	169.62,78.18 168.9,78.3 168.24,78.48 167.58,78.72 166.98,79.021 166.38,79.38 165.3,80.22 164.46,81.3 164.1,81.9 163.8,82.5 
	163.561,83.16 163.38,83.82 163.26,84.54 163.26,85.98 163.38,86.7 163.561,87.36 163.8,88.021 164.1,88.62 164.46,89.22 
	164.88,89.76 165.3,90.24 165.84,90.72 166.38,91.14 166.98,91.5 167.58,91.8 168.24,92.04 168.9,92.22 169.62,92.28 170.34,92.34 
	171.061,92.28 171.78,92.22 172.44,92.04 173.1,91.8 173.7,91.5 174.3,91.14 174.84,90.72 175.8,89.76 176.22,89.22 176.58,88.62 
	176.88,88.021 177.12,87.36 177.3,86.7 177.42,85.26 "/>
<polyline style="fill:#FFFFFF;" points="177.18,85.32 177.061,83.88 176.88,83.22 176.88,83.28 176.64,82.62 176.7,82.62 
	176.4,82.021 176.04,81.42 176.04,81.48 175.62,80.94 175.14,80.4 175.2,80.4 174.72,79.98 174.18,79.56 174.18,79.62 173.58,79.26 
	172.98,78.96 173.04,78.96 172.38,78.72 171.72,78.54 171.78,78.54 171.061,78.42 169.62,78.42 169.68,78.42 168.96,78.54 
	168.3,78.72 168.36,78.72 167.7,78.96 167.1,79.26 166.5,79.62 166.561,79.56 165.48,80.4 164.64,81.48 164.7,81.42 164.34,82.021 
	164.04,82.62 163.8,83.28 163.8,83.22 163.62,83.88 163.5,84.6 163.5,84.54 163.5,85.98 163.62,86.7 163.62,86.64 163.8,87.3 
	164.04,87.96 164.04,87.9 164.34,88.5 164.7,89.1 164.64,89.1 165.061,89.64 165.48,90.12 165.48,90.06 166.021,90.54 165.72,90.9 
	165.18,90.42 165.12,90.42 164.7,89.94 164.28,89.4 164.28,89.34 163.92,88.74 163.62,88.14 163.561,88.14 163.32,87.48 
	163.32,87.42 163.14,86.76 163.021,86.04 163.021,84.54 163.14,83.82 163.14,83.76 163.32,83.1 163.561,82.44 163.62,82.38 
	163.92,81.78 164.28,81.18 165.12,80.1 165.18,80.04 166.26,79.2 166.86,78.84 167.46,78.54 167.521,78.48 168.18,78.24 
	168.84,78.06 168.9,78.06 169.62,77.94 171.12,77.94 171.84,78.06 172.5,78.24 172.561,78.24 173.22,78.48 173.22,78.54 
	173.82,78.84 174.42,79.2 174.48,79.2 175.021,79.62 175.5,80.04 175.5,80.1 175.98,80.64 176.4,81.18 176.46,81.18 176.82,81.78 
	177.12,82.38 177.12,82.44 177.36,83.1 177.54,83.76 177.54,83.82 177.66,85.26 "/>
<polyline style="fill:#FFFFFF;" points="166.021,90.54 166.561,90.96 166.5,90.96 167.1,91.32 167.7,91.62 167.7,91.56 168.36,91.8 
	168.3,91.8 168.96,91.98 170.4,92.1 170.34,92.1 171.061,92.04 171.78,91.98 171.72,91.98 172.38,91.8 173.04,91.56 172.98,91.62 
	173.58,91.32 174.18,90.96 174.72,90.54 174.66,90.54 175.62,89.58 175.62,89.64 176.04,89.1 176.4,88.5 176.7,87.9 176.64,87.96 
	176.88,87.3 177.061,86.64 177.061,86.7 177.18,85.26 177.18,85.32 177.66,85.26 177.66,85.32 177.54,86.76 177.36,87.42 
	177.36,87.48 177.12,88.14 176.82,88.74 176.46,89.34 176.4,89.4 175.98,89.94 175.021,90.9 174.48,91.32 174.42,91.38 
	173.82,91.74 173.22,92.04 172.561,92.28 172.5,92.28 171.84,92.46 171.12,92.521 170.4,92.58 170.34,92.58 169.62,92.521 
	168.9,92.46 168.84,92.46 168.18,92.28 167.521,92.04 167.46,92.04 166.86,91.74 166.26,91.38 166.26,91.32 165.72,90.9 "/>
<rect x="156.18" y="71.1" style="fill:#FFFFFF;" width="9.42" height="14.16"/>
<rect x="156.18" y="70.86" width="9.66" height="0.48"/>
<rect x="165.36" y="71.1" width="0.479" height="14.4"/>
<rect x="155.94" y="85.021" width="9.659" height="0.48"/>
<rect x="155.94" y="70.86" width="0.479" height="14.4"/>
<rect x="64.02" y="64.021" style="fill:#E6E6E6;" width="35.46" height="35.4"/>
<rect x="64.02" y="63.78" width="35.7" height="0.48"/>
<rect x="99.24" y="64.021" width="0.48" height="35.64"/>
<rect x="63.78" y="99.18" width="35.7" height="0.48"/>
<rect x="63.78" y="63.78" width="0.48" height="35.64"/>
<polyline style="fill-rule:evenodd;clip-rule:evenodd;" points="92.4,85.26 92.34,84.54 92.22,83.82 92.04,83.16 91.8,82.5 
	91.5,81.9 91.14,81.3 90.78,80.76 90.3,80.22 89.82,79.8 89.22,79.38 88.68,79.021 88.02,78.72 87.42,78.48 86.7,78.3 86.04,78.18 
	84.54,78.18 83.88,78.3 83.16,78.48 82.5,78.72 81.9,79.021 81.3,79.38 80.76,79.8 80.28,80.22 79.8,80.76 79.44,81.3 79.08,81.9 
	78.78,82.5 78.54,83.16 78.36,83.82 78.24,84.54 78.18,85.26 78.24,85.98 78.36,86.7 78.54,87.36 78.78,88.021 79.08,88.62 
	79.44,89.22 79.8,89.76 80.76,90.72 81.3,91.14 81.9,91.5 82.5,91.8 83.16,92.04 83.88,92.22 84.54,92.28 85.26,92.34 86.04,92.28 
	86.7,92.22 87.42,92.04 88.02,91.8 88.68,91.5 89.22,91.14 89.82,90.72 90.78,89.76 91.14,89.22 91.5,88.62 91.8,88.021 
	92.04,87.36 92.22,86.7 92.34,85.98 92.4,85.26 "/>
<polyline style="fill:#FFFFFF;" points="92.16,85.32 92.1,84.6 91.98,83.88 91.8,83.22 91.8,83.28 91.56,82.62 91.62,82.62 
	91.32,82.021 90.96,81.42 90.6,80.88 90.6,80.94 90.12,80.4 90.18,80.4 89.7,79.98 89.7,80.04 89.1,79.62 88.56,79.26 88.62,79.26 
	87.96,78.96 87.36,78.72 86.64,78.54 86.7,78.54 86.04,78.42 84.54,78.42 84.6,78.42 83.94,78.54 83.22,78.72 83.28,78.72 
	82.62,78.96 82.02,79.26 81.42,79.62 81.48,79.56 80.94,79.98 80.46,80.4 79.98,80.94 80.04,80.88 79.68,81.42 79.32,82.021 
	79.02,82.62 78.78,83.28 78.78,83.22 78.6,83.88 78.48,84.6 78.42,85.32 78.42,85.26 78.48,85.98 78.6,86.7 78.6,86.64 78.78,87.3 
	79.02,87.96 79.02,87.9 79.32,88.5 79.68,89.1 80.04,89.64 79.98,89.58 80.94,90.54 80.64,90.9 80.58,90.9 79.62,89.94 79.62,89.88 
	79.26,89.34 78.9,88.74 78.6,88.14 78.54,88.14 78.3,87.48 78.3,87.42 78.12,86.76 78,86.04 77.94,85.32 77.94,85.26 78,84.54 
	78.12,83.82 78.12,83.76 78.3,83.1 78.54,82.44 78.6,82.38 78.9,81.78 79.26,81.18 79.62,80.64 80.1,80.1 80.16,80.04 80.64,79.62 
	81.18,79.2 81.78,78.84 82.38,78.54 82.44,78.48 83.1,78.24 83.82,78.06 83.88,78.06 84.54,77.94 86.1,77.94 86.76,78.06 
	87.48,78.24 87.54,78.3 88.14,78.54 88.8,78.84 89.34,79.2 89.4,79.2 90,79.62 90.48,80.04 90.48,80.1 90.96,80.64 91.02,80.64 
	91.38,81.18 91.74,81.78 92.04,82.38 92.04,82.44 92.28,83.1 92.46,83.76 92.46,83.82 92.58,84.54 92.64,85.26 "/>
<polyline style="fill:#FFFFFF;" points="80.94,90.54 81.48,90.96 81.42,90.96 82.02,91.32 82.62,91.62 82.62,91.56 83.28,91.8 
	83.22,91.8 83.94,91.98 84.6,92.04 85.32,92.1 85.26,92.1 86.04,92.04 86.7,91.98 86.64,91.98 87.36,91.8 87.36,91.86 87.96,91.62 
	88.62,91.32 88.56,91.32 89.1,90.96 89.7,90.54 89.64,90.54 90.6,89.58 90.6,89.64 90.96,89.1 91.32,88.5 91.62,87.9 91.56,87.96 
	91.8,87.3 91.98,86.64 91.98,86.7 92.1,85.98 92.16,85.26 92.16,85.32 92.64,85.26 92.64,85.32 92.58,86.04 92.46,86.76 
	92.28,87.42 92.28,87.48 92.04,88.14 91.74,88.74 91.38,89.34 91.02,89.88 90,90.9 90,90.96 89.4,91.38 89.34,91.38 88.8,91.74 
	88.14,92.04 87.54,92.28 87.48,92.28 86.76,92.46 86.1,92.521 85.32,92.58 85.26,92.58 84.54,92.521 83.88,92.46 83.82,92.46 
	83.1,92.28 82.44,92.04 82.38,92.04 81.78,91.74 81.18,91.38 81.18,91.32 80.64,90.9 "/>
<rect x="0.24" y="71.1" style="fill:#FFFFFF;" width="9.48" height="14.16"/>
<rect x="0.24" y="70.86" width="9.72" height="0.48"/>
<rect x="9.48" y="71.1" width="0.48" height="14.4"/>
<rect y="85.021" width="9.72" height="0.48"/>
<rect y="70.86" width="0.48" height="14.4"/>
<polyline points="236.4,113.34 236.16,113.4 236.34,113.88 236.58,113.82 "/>
<polyline points="237.12,113.1 237.36,113.04 237.54,113.521 237.3,113.58 "/>
<polyline points="236.4,113.34 236.58,113.82 237.3,113.58 237.12,113.1 "/>
<polyline style="fill-rule:evenodd;clip-rule:evenodd;" points="240.6,111.78 240.36,111.84 240.54,112.32 240.78,112.26 "/>
<polyline style="fill-rule:evenodd;clip-rule:evenodd;" points="241.8,111.36 242.04,111.3 242.22,111.78 241.98,111.84 "/>
<polyline style="fill-rule:evenodd;clip-rule:evenodd;" points="240.6,111.78 240.78,112.26 241.98,111.84 241.8,111.36 "/>
<polyline style="fill-rule:evenodd;clip-rule:evenodd;" points="245.28,110.04 245.04,110.1 245.22,110.58 245.46,110.521 "/>
<polyline style="fill-rule:evenodd;clip-rule:evenodd;" points="246.42,109.62 246.66,109.56 246.84,110.04 246.6,110.1 "/>
<polyline style="fill-rule:evenodd;clip-rule:evenodd;" points="245.28,110.04 245.46,110.521 246.6,110.1 246.42,109.62 "/>
<polyline style="fill-rule:evenodd;clip-rule:evenodd;" points="249.96,108.3 249.72,108.36 249.9,108.84 250.14,108.78 "/>
<polyline style="fill-rule:evenodd;clip-rule:evenodd;" points="251.1,107.88 251.34,107.82 251.521,108.3 251.28,108.36 "/>
<polyline style="fill-rule:evenodd;clip-rule:evenodd;" points="249.96,108.3 250.14,108.78 251.28,108.36 251.1,107.88 "/>
<polyline points="254.64,106.62 254.46,106.68 254.64,107.1 254.82,107.04 "/>
<polyline points="255.3,106.32 255.48,106.26 255.66,106.68 255.48,106.74 "/>
<polyline points="254.64,106.62 254.82,107.04 255.48,106.74 255.3,106.32 "/>
<text transform="matrix(1 0 0 1 256.5 85.2603)" style="font-family:'ProductusBook'; font-size:7.98;">local </text>
<text transform="matrix(1 0 0 1 256.5 94.98)"><tspan x="0" y="0" style="font-family:'ProductusBook'; font-size:7.98;">permiss</tspan><tspan x="22.416" y="0" style="font-family:'ProductusBook'; font-size:7.98;">i</tspan><tspan x="24.027" y="0" style="font-family:'ProductusBook'; font-size:7.98;">ons</tspan></text>
<text transform="matrix(1 0 0 1 197.7598 92.6401)"><tspan x="0" y="0" style="font-family:'ProductusBook'; font-size:7.98;">i</tspan><tspan x="1.556" y="0" style="font-family:'ProductusBook'; font-size:7.98;">n</tspan><tspan x="5.274" y="0" style="font-family:'ProductusBook'; font-size:7.98;">s</tspan><tspan x="8.084" y="0" style="font-family:'ProductusBook'; font-size:7.98;">t</tspan><tspan x="10.462" y="0" style="font-family:'ProductusBook'; font-size:7.98;">a</tspan><tspan x="13.821" y="0" style="font-family:'ProductusBook'; font-size:7.98;">l</tspan><tspan x="15.385" y="0" style="font-family:'ProductusBook'; font-size:7.98;">l</tspan><tspan x="16.941" y="0" style="font-family:'ProductusBook'; font-size:7.98;">s</tspan></text>
<text transform="matrix(1 0 0 1 113.6396 92.6401)"><tspan x="0" y="0" style="font-family:'ProductusBook'; font-size:7.98;">a</tspan><tspan x="3.344" y="0" style="font-family:'ProductusBook'; font-size:7.98;">u</tspan><tspan x="7.006" y="0" style="font-family:'ProductusBook'; font-size:7.98;">d</tspan><tspan x="10.733" y="0" style="font-family:'ProductusBook'; font-size:7.98;">i</tspan><tspan x="12.297" y="0" style="font-family:'ProductusBook'; font-size:7.98;">t</tspan><tspan x="14.707" y="0" style="font-family:'ProductusBook'; font-size:7.98;">s</tspan><tspan x="17.523" y="0" style="font-family:'ProductusBook'; font-size:7.98;"> </tspan><tspan x="19.088" y="0" style="font-family:'ProductusBook'; font-size:7.98;">a</tspan><tspan x="22.432" y="0" style="font-family:'ProductusBook'; font-size:7.98;">n</tspan><tspan x="26.094" y="0" style="font-family:'ProductusBook'; font-size:7.98;">d</tspan></text>
<text transform="matrix(1 0 0 1 113.6396 102.3599)"><tspan x="0" y="0" style="font-family:'ProductusBook'; font-size:7.98;">si</tspan><tspan x="4.381" y="0" style="font-family:'ProductusBook'; font-size:7.98;">g</tspan><tspan x="7.916" y="0" style="font-family:'ProductusBook'; font-size:7.98;">n</tspan><tspan x="11.579" y="0" style="font-family:'ProductusBook'; font-size:7.98;">s</tspan></text>
<text transform="matrix(1 0 0 1 28.6201 92.6401)"><tspan x="0" y="0" style="font-family:'ProductusBook'; font-size:7.98;">d</tspan><tspan x="3.719" y="0" style="font-family:'ProductusBook'; font-size:7.98;">e</tspan><tspan x="7.206" y="0" style="font-family:'ProductusBook'; font-size:7.98;">v</tspan><tspan x="10.326" y="0" style="font-family:'ProductusBook'; font-size:7.98;">e</tspan><tspan x="13.813" y="0" style="font-family:'ProductusBook'; font-size:7.98;">lo</tspan><tspan x="19.208" y="0" style="font-family:'ProductusBook'; font-size:7.98;">p</tspan><tspan x="22.871" y="0" style="font-family:'ProductusBook'; font-size:7.98;">s</tspan></text>
<rect x="71.1" y="71.1" style="fill:#FFFFFF;" width="9.48" height="14.16"/>
<rect x="71.1" y="70.86" width="9.72" height="0.48"/>
<rect x="80.34" y="71.1" width="0.48" height="14.4"/>
<rect x="70.86" y="85.021" width="9.72" height="0.48"/>
<rect x="70.86" y="70.86" width="0.48" height="14.4"/>
<rect x="0.24" y="127.8" style="fill:#FFFFFF;" width="7.08" height="7.08"/>
<rect x="0.24" y="127.56" width="7.32" height="0.48"/>
<rect x="7.08" y="127.8" width="0.48" height="7.32"/>
<rect y="134.64" width="7.32" height="0.48"/>
<rect y="127.56" width="0.48" height="7.32"/>
<polyline style="fill-rule:evenodd;clip-rule:evenodd;" points="99.48,131.34 99.36,130.62 99.18,129.96 98.88,129.36 98.4,128.82 
	97.92,128.4 97.32,128.04 96.66,127.86 95.94,127.8 95.22,127.86 94.56,128.04 93.96,128.4 93.42,128.82 93,129.36 92.64,129.96 
	92.46,130.62 92.4,131.34 92.46,132.06 92.64,132.72 93,133.32 93.42,133.8 93.96,134.28 94.56,134.58 95.22,134.82 95.94,134.88 
	96.66,134.82 97.32,134.58 97.92,134.28 98.88,133.32 99.18,132.72 99.36,132.06 99.48,131.34 "/>
<polyline style="fill:#FFFFFF;" points="99.24,131.4 99.12,130.68 98.94,130.021 99,130.08 98.7,129.48 98.7,129.54 98.22,129 
	98.28,129 97.8,128.58 97.8,128.64 97.2,128.28 97.26,128.28 96.6,128.1 96.66,128.1 95.94,128.04 96,128.04 95.28,128.1 
	94.62,128.28 94.68,128.28 94.08,128.64 94.14,128.58 93.6,129 93.18,129.54 93.24,129.48 92.88,130.08 92.88,130.021 92.7,130.68 
	92.64,131.4 92.64,131.34 92.7,132.06 92.7,132 92.88,132.66 92.88,132.6 93.24,133.2 93.18,133.2 93.6,133.68 93.6,133.62 
	94.14,134.1 94.08,134.1 94.68,134.4 94.68,134.34 95.34,134.58 95.28,134.58 96,134.64 95.94,134.64 96.66,134.58 96.6,134.58 
	97.26,134.34 97.2,134.4 97.8,134.1 97.74,134.1 98.7,133.14 98.7,133.2 99,132.6 98.94,132.66 99.12,132 99.12,132.06 
	99.24,131.34 99.72,131.4 99.6,132.12 99.42,132.78 99.42,132.84 99.12,133.44 98.04,134.521 97.44,134.82 96.78,135.06 
	96.72,135.06 96,135.12 95.94,135.12 95.22,135.06 95.16,135.06 94.5,134.82 94.44,134.82 93.84,134.521 93.84,134.46 93.3,133.98 
	93.24,133.98 92.82,133.5 92.82,133.44 92.46,132.84 92.4,132.78 92.22,132.12 92.16,131.4 92.16,131.34 92.22,130.62 92.22,130.56 
	92.4,129.9 92.46,129.84 92.82,129.24 93.24,128.7 93.3,128.64 93.84,128.22 94.44,127.86 94.5,127.8 95.16,127.62 95.22,127.62 
	95.94,127.56 96,127.56 96.72,127.62 97.38,127.8 97.44,127.86 98.04,128.22 98.1,128.22 98.58,128.64 98.58,128.7 99.06,129.24 
	99.12,129.24 99.42,129.84 99.42,129.9 99.6,130.56 99.6,130.62 99.72,131.34 "/>
<polyline style="fill:#FFFFFF;" points="99.24,131.34 99.24,131.4 99.72,131.34 99.72,131.4 "/>
<rect x="0.24" y="141.96" style="fill:#E6E6E6;" width="7.08" height="7.08"/>
<rect x="0.24" y="141.72" width="7.32" height="0.48"/>
<rect x="7.08" y="141.96" width="0.48" height="7.32"/>
<rect y="148.8" width="7.32" height="0.48"/>
<rect y="141.72" width="0.48" height="7.32"/>
<rect x="92.4" y="141.96" style="fill:#999999;" width="7.08" height="7.08"/>
<rect x="92.4" y="141.72" width="7.32" height="0.48"/>
<rect x="99.24" y="141.96" width="0.48" height="7.32"/>
<rect x="92.16" y="148.8" width="7.32" height="0.48"/>
<rect x="92.16" y="141.72" width="0.48" height="7.32"/>
<polyline style="fill-rule:evenodd;clip-rule:evenodd;fill:#FFFFFF;" points="209.28,3.24 209.22,2.64 209.04,2.04 208.68,1.56 
	208.26,1.08 207.72,0.72 207.12,0.48 206.46,0.3 205.74,0.24 205.08,0.3 204.36,0.48 203.76,0.72 203.28,1.08 202.8,1.56 
	202.5,2.04 202.32,2.64 202.2,3.24 202.32,3.84 202.5,4.44 202.8,4.92 203.28,5.4 203.76,5.76 204.36,6.06 205.08,6.24 205.74,6.3 
	206.46,6.24 207.12,6.06 207.72,5.76 208.26,5.4 208.68,4.92 209.04,4.44 209.22,3.84 209.28,3.24 "/>
<polyline points="209.04,3.3 208.98,2.7 208.8,2.1 208.86,2.22 208.5,1.74 208.08,1.26 208.14,1.32 207.6,0.96 207.66,0.96 
	207.061,0.72 206.4,0.54 206.46,0.54 205.74,0.48 205.8,0.48 205.14,0.54 204.42,0.72 204.48,0.72 203.88,0.96 203.94,0.9 
	203.46,1.26 202.98,1.74 203.04,1.68 202.74,2.16 202.74,2.1 202.561,2.7 202.44,3.3 202.44,3.18 202.561,3.78 202.74,4.38 
	202.74,4.32 203.04,4.8 202.98,4.74 203.46,5.22 203.94,5.58 203.88,5.58 204.48,5.88 204.42,5.82 205.14,6 205.8,6.06 205.74,6.06 
	206.46,6 206.4,6 207.061,5.82 207,5.88 207.6,5.58 208.14,5.22 208.08,5.28 208.5,4.8 208.86,4.32 208.8,4.38 208.98,3.78 
	208.98,3.84 209.04,3.24 209.521,3.3 209.46,3.9 209.28,4.5 209.22,4.62 208.86,5.1 208.44,5.58 208.38,5.64 207.84,6 207.24,6.3 
	207.18,6.3 206.521,6.48 205.8,6.54 205.74,6.54 205.08,6.48 205.021,6.48 204.3,6.3 204.24,6.3 203.64,6 203.64,5.94 203.16,5.58 
	203.1,5.58 202.62,5.1 202.62,5.04 202.32,4.56 202.26,4.5 202.08,3.9 201.96,3.3 201.96,3.18 202.08,2.58 202.26,1.98 202.32,1.92 
	202.62,1.44 202.62,1.38 203.1,0.9 203.16,0.9 203.64,0.54 203.7,0.54 204.3,0.3 204.3,0.24 205.021,0.06 205.08,0.06 205.74,0 
	205.8,0 206.521,0.06 207.18,0.24 207.24,0.3 207.84,0.54 208.38,0.9 208.44,0.96 208.86,1.44 209.22,1.92 209.28,1.98 209.46,2.58 
	209.46,2.64 209.521,3.24 "/>
<polyline points="209.04,3.24 209.04,3.3 209.521,3.24 209.521,3.3 "/>
<rect x="205.5" y="6.06" width="0.48" height="9.6"/>
<polyline points="205.92,15.24 205.74,15.12 205.44,15.48 205.62,15.6 "/>
<polyline points="213.061,21.3 213.24,21.42 212.94,21.78 212.76,21.66 "/>
<polyline points="205.92,15.24 205.62,15.6 212.76,21.66 213.061,21.3 "/>
<polyline points="205.92,15.6 206.1,15.48 205.8,15.12 205.62,15.24 "/>
<polyline points="198.84,21.66 198.66,21.78 198.36,21.42 198.54,21.3 "/>
<polyline points="205.92,15.6 205.62,15.24 198.54,21.3 198.84,21.66 "/>
<rect x="198.42" y="9.06" width="14.7" height="0.48"/>
<text transform="matrix(1 0 0 1 20.1602 135.1802)"><tspan x="0" y="0" style="font-family:'ProductusBook'; font-size:7.98;">local</tspan><tspan x="13.311" y="0" style="font-family:'ProductusBook'; font-size:7.98;"> </tspan><tspan x="14.93" y="0" style="font-family:'ProductusBook'; font-size:7.98;">permissi</tspan><tspan x="38.91" y="0" style="font-family:'ProductusBook'; font-size:7.98;">o</tspan><tspan x="42.749" y="0" style="font-family:'ProductusBook'; font-size:7.98;">n</tspan><tspan x="46.411" y="0" style="font-family:'ProductusBook'; font-size:7.98;">s</tspan></text>
<text transform="matrix(1 0 0 1 19.3804 147.2407)"><tspan x="0" y="0" style="font-family:'ProductusBook'; font-size:7.98;">b</tspan><tspan x="3.727" y="0" style="font-family:'ProductusBook'; font-size:7.98;">u</tspan><tspan x="7.389" y="0" style="font-family:'ProductusBook'; font-size:7.98;">nd</tspan><tspan x="14.811" y="0" style="font-family:'ProductusBook'; font-size:7.98;">l</tspan><tspan x="16.375" y="0" style="font-family:'ProductusBook'; font-size:7.98;">e</tspan><tspan x="19.862" y="0" style="font-family:'ProductusBook'; font-size:7.98;">,</tspan><tspan x="21.482" y="0" style="font-family:'ProductusBook'; font-size:7.98;"> </tspan><tspan x="23.046" y="0" style="font-family:'ProductusBook'; font-size:7.98;">u</tspan><tspan x="26.749" y="0" style="font-family:'ProductusBook'; font-size:7.98;">n</tspan><tspan x="30.412" y="0" style="font-family:'ProductusBook'; font-size:7.98;">s</tspan><tspan x="33.252" y="0" style="font-family:'ProductusBook'; font-size:7.98;">i</tspan><tspan x="34.816" y="0" style="font-family:'ProductusBook'; font-size:7.98;">g</tspan><tspan x="38.319" y="0" style="font-family:'ProductusBook'; font-size:7.98;">n</tspan><tspan x="41.982" y="0" style="font-family:'ProductusBook'; font-size:7.98;">e</tspan><tspan x="45.509" y="0" style="font-family:'ProductusBook'; font-size:7.98;">d</tspan></text>
<text transform="matrix(1 0 0 1 106.9204 133.02)"><tspan x="0" y="0" style="font-family:'ProductusBook'; font-size:7.98;">c</tspan><tspan x="3" y="0" style="font-family:'ProductusBook'; font-size:7.98;">o</tspan><tspan x="6.783" y="0" style="font-family:'ProductusBook'; font-size:7.98;">de,</tspan><tspan x="15.553" y="0" style="font-family:'ProductusBook'; font-size:7.98;"> </tspan><tspan x="17.172" y="0" style="font-family:'ProductusBook'; font-size:7.98;">c</tspan><tspan x="20.253" y="0" style="font-family:'ProductusBook'; font-size:7.98;">l</tspan><tspan x="21.873" y="0" style="font-family:'ProductusBook'; font-size:7.98;">asse</tspan><tspan x="34.29" y="0" style="font-family:'ProductusBook'; font-size:7.98;">s</tspan></text>
<text transform="matrix(1 0 0 1 106.5605 146.7002)"><tspan x="0" y="0" style="font-family:'ProductusBook'; font-size:7.98;">bundl</tspan><tspan x="16.358" y="0" style="font-family:'ProductusBook'; font-size:7.98;">e</tspan><tspan x="19.846" y="0" style="font-family:'ProductusBook'; font-size:7.98;">,</tspan><tspan x="21.45" y="0" style="font-family:'ProductusBook'; font-size:7.98;"> </tspan><tspan x="23.07" y="0" style="font-family:'ProductusBook'; font-size:7.98;">signe</tspan><tspan x="38.152" y="0" style="font-family:'ProductusBook'; font-size:7.98;">d</tspan></text>
<rect x="42.54" y="21.24" width="0.48" height="1.2"/>
<rect x="42.54" y="26.34" width="0.48" height="1.92"/>
<rect x="42.54" y="32.1" width="0.48" height="1.98"/>
<rect x="42.54" y="37.92" width="0.48" height="1.92"/>
<rect x="42.54" y="43.68" width="0.48" height="1.98"/>
<rect x="42.54" y="49.5" width="0.48" height="1.92"/>
<rect x="42.54" y="55.32" width="0.48" height="1.92"/>
<rect x="42.54" y="61.08" width="0.48" height="1.92"/>
<rect x="42.54" y="66.9" width="0.48" height="1.92"/>
<rect x="42.54" y="72.66" width="0.48" height="1.92"/>
<rect x="42.54" y="78.48" width="0.48" height="1.92"/>
<rect x="42.54" y="84.24" width="0.48" height="1.26"/>
<rect x="127.561" y="21.24" width="0.479" height="1.2"/>
<rect x="127.561" y="26.34" width="0.479" height="1.92"/>
<rect x="127.561" y="32.1" width="0.479" height="0.24"/>
<rect x="127.561" y="32.34" width="0.479" height="1.74"/>
<rect x="127.561" y="37.92" width="0.479" height="0.24"/>
<rect x="127.561" y="38.16" width="0.479" height="1.68"/>
<rect x="127.561" y="43.68" width="0.479" height="0.24"/>
<rect x="127.561" y="43.92" width="0.479" height="1.74"/>
<rect x="127.561" y="49.5" width="0.479" height="1.92"/>
<rect x="127.561" y="55.32" width="0.479" height="1.92"/>
<rect x="127.561" y="61.08" width="0.479" height="1.92"/>
<rect x="127.561" y="66.9" width="0.479" height="1.92"/>
<rect x="127.561" y="72.66" width="0.479" height="1.92"/>
<rect x="127.561" y="78.48" width="0.479" height="1.92"/>
<rect x="127.561" y="84.24" width="0.479" height="1.26"/>
<rect x="205.5" y="21.24" width="0.48" height="1.2"/>
<rect x="205.5" y="26.34" width="0.48" height="1.92"/>
<rect x="205.5" y="32.1" width="0.48" height="1.98"/>
<rect x="205.5" y="37.92" width="0.48" height="1.92"/>
<rect x="205.5" y="43.68" width="0.48" height="1.98"/>
<rect x="205.5" y="49.5" width="0.48" height="1.92"/>
<rect x="205.5" y="55.32" width="0.48" height="1.92"/>
<rect x="205.5" y="61.08" width="0.48" height="1.92"/>
<rect x="205.5" y="66.9" width="0.48" height="1.92"/>
<rect x="205.5" y="72.66" width="0.48" height="1.92"/>
<rect x="205.5" y="78.48" width="0.48" height="1.92"/>
<rect x="205.5" y="84.24" width="0.48" height="1.26"/>
<text transform="matrix(-6.123234e-17 -1 1 -6.123234e-17 48.7197 57.2407)"><tspan x="0" y="0" style="font-family:'ProductusBook'; font-size:7.98;">d</tspan><tspan x="3.71" y="0" style="font-family:'ProductusBook'; font-size:7.98;">e</tspan><tspan x="7.198" y="0" style="font-family:'ProductusBook'; font-size:7.98;">v</tspan><tspan x="10.318" y="0" style="font-family:'ProductusBook'; font-size:7.98;">e</tspan><tspan x="13.853" y="0" style="font-family:'ProductusBook'; font-size:7.98;">l</tspan><tspan x="15.433" y="0" style="font-family:'ProductusBook'; font-size:7.98;">o</tspan><tspan x="19.224" y="0" style="font-family:'ProductusBook'; font-size:7.98;">p</tspan><tspan x="22.935" y="0" style="font-family:'ProductusBook'; font-size:7.98;">e</tspan><tspan x="26.421" y="0" style="font-family:'ProductusBook'; font-size:7.98;">r</tspan></text>
<text transform="matrix(-6.123234e-17 -1 1 -6.123234e-17 135.1797 57.2402)"><tspan x="0" y="0" style="font-family:'ProductusBook'; font-size:7.98;">op</tspan><tspan x="7.509" y="0" style="font-family:'ProductusBook'; font-size:7.98;">e</tspan><tspan x="11.036" y="0" style="font-family:'ProductusBook'; font-size:7.98;">r</tspan><tspan x="13.263" y="0" style="font-family:'ProductusBook'; font-size:7.98;">a</tspan><tspan x="16.622" y="0" style="font-family:'ProductusBook'; font-size:7.98;">t</tspan><tspan x="18.968" y="0" style="font-family:'ProductusBook'; font-size:7.98;">o</tspan><tspan x="22.807" y="0" style="font-family:'ProductusBook'; font-size:7.98;">r</tspan></text>
<text transform="matrix(-6.123234e-17 -1 1 -6.123234e-17 203.4004 57.2402)"><tspan x="0" y="0" style="font-family:'ProductusBook'; font-size:7.98;">e</tspan><tspan x="3.535" y="0" style="font-family:'ProductusBook'; font-size:7.98;">n</tspan><tspan x="7.198" y="0" style="font-family:'ProductusBook'; font-size:7.98;">d</tspan><tspan x="10.925" y="0" style="font-family:'ProductusBook'; font-size:7.98;"> </tspan><tspan x="12.536" y="0" style="font-family:'ProductusBook'; font-size:7.98;">u</tspan><tspan x="16.199" y="0" style="font-family:'ProductusBook'; font-size:7.98;">s</tspan><tspan x="19.017" y="0" style="font-family:'ProductusBook'; font-size:7.98;">e</tspan><tspan x="22.551" y="0" style="font-family:'ProductusBook'; font-size:7.98;">r</tspan></text>
<text transform="matrix(1 0 0 1 228.9004 44.0405)"><tspan x="0" y="0" style="font-family:'ProductusSemibold'; font-size:7.98;">OSGi</tspan><tspan x="17.556" y="0" style="font-family:'ProductusSemibold'; font-size:7.98;"> </tspan><tspan x="19.591" y="0" style="font-family:'ProductusSemibold'; font-size:7.98;">fram</tspan><tspan x="35.614" y="0" style="font-family:'ProductusSemibold'; font-size:7.98;">e</tspan><tspan x="39.691" y="0" style="font-family:'ProductusSemibold'; font-size:7.98;">w</tspan><tspan x="45.988" y="0" style="font-family:'ProductusSemibold'; font-size:7.98;">or</tspan><tspan x="53.297" y="0" style="font-family:'ProductusSemibold'; font-size:7.98;">k</tspan></text>
<text transform="matrix(1 0 0 1 28.6206 102.3604)"><tspan x="0" y="0" style="font-family:'ProductusBook'; font-size:7.98;">a</tspan><tspan x="3.296" y="0" style="font-family:'ProductusBook'; font-size:7.98;">n</tspan><tspan x="7.014" y="0" style="font-family:'ProductusBook'; font-size:7.98;">d</tspan><tspan x="10.701" y="0" style="font-family:'ProductusBook'; font-size:7.98;"> </tspan><tspan x="12.313" y="0" style="font-family:'ProductusBook'; font-size:7.98;">s</tspan><tspan x="15.122" y="0" style="font-family:'ProductusBook'; font-size:7.98;">h</tspan><tspan x="18.84" y="0" style="font-family:'ProductusBook'; font-size:7.98;">ip</tspan><tspan x="24.067" y="0" style="font-family:'ProductusBook'; font-size:7.98;">s</tspan></text>
</svg>
