<?xml version="1.0" encoding="utf-8"?>
<!-- Generator: Adobe Illustrator 16.0.0, SVG Export Plug-In . SVG Version: 6.00 Build 0)  -->
<!DOCTYPE svg PUBLIC "-//W3C//DTD SVG 1.1//EN" "http://www.w3.org/Graphics/SVG/1.1/DTD/svg11.dtd">
<svg version="1.1" id="Layer_1" xmlns="http://www.w3.org/2000/svg" xmlns:xlink="http://www.w3.org/1999/xlink" x="0px" y="0px"
	 width="304.981px" height="170.58px" viewBox="0 0 304.981 170.58" style="enable-background:new 0 0 304.981 170.58;"
	 xml:space="preserve">
<rect x="30.721" y="143.76" width="54.36" height="26.58"/>
<rect x="30.721" y="143.52" width="54.6" height="0.48"/>
<rect x="84.841" y="143.76" width="0.48" height="26.82"/>
<rect x="30.481" y="170.1" width="54.6" height="0.48"/>
<rect x="30.481" y="143.52" width="0.48" height="26.82"/>
<rect x="28.381" y="141.96" style="fill:#FFFFFF;" width="54.3" height="26.58"/>
<rect x="28.381" y="141.72" width="54.54" height="0.48"/>
<rect x="82.441" y="141.96" width="0.48" height="26.82"/>
<rect x="28.141" y="168.3" width="54.54" height="0.48"/>
<rect x="28.141" y="141.72" width="0.48" height="26.82"/>
<text transform="matrix(1 0 0 1 30.7207 149.1001)"><tspan x="0" y="0" style="font-family:'ProductusOSGiBookc'; font-size:7.98;">Se</tspan><tspan x="7.182" y="0" style="font-family:'ProductusOSGiBookc'; font-size:7.98;">c</tspan><tspan x="10.246" y="0" style="font-family:'ProductusOSGiBookc'; font-size:7.98;">u</tspan><tspan x="13.901" y="0" style="font-family:'ProductusOSGiBookc'; font-size:7.98;">ri</tspan><tspan x="17.683" y="0" style="font-family:'ProductusOSGiBookc'; font-size:7.98;">t</tspan><tspan x="19.965" y="0" style="font-family:'ProductusOSGiBookc'; font-size:7.98;">y</tspan><tspan x="23.142" y="0" style="font-family:'ProductusOSGiBookc'; font-size:7.98;">M</tspan><tspan x="28.967" y="0" style="font-family:'ProductusOSGiBookc'; font-size:7.98;">anage</tspan><tspan x="46.179" y="0" style="font-family:'ProductusOSGiBookc'; font-size:7.98;">r</tspan></text>
<rect x="144.121" y="79.98" width="54.36" height="26.58"/>
<rect x="144.121" y="79.74" width="54.601" height="0.48"/>
<rect x="198.241" y="79.98" width="0.48" height="26.82"/>
<rect x="143.88" y="106.32" width="54.601" height="0.48"/>
<rect x="143.88" y="79.74" width="0.48" height="26.82"/>
<rect x="141.781" y="78.18" style="fill:#FFFFFF;" width="54.3" height="26.58"/>
<rect x="141.781" y="77.94" width="54.54" height="0.48"/>
<rect x="195.84" y="78.18" width="0.48" height="26.82"/>
<rect x="141.541" y="104.52" width="54.54" height="0.479"/>
<rect x="141.541" y="77.94" width="0.48" height="26.82"/>
<text transform="matrix(1 0 0 1 144.1206 85.3198)"><tspan x="0" y="0" style="font-family:'ProductusOSGiBookc'; font-size:7.98;">A</tspan><tspan x="3.902" y="0" style="font-family:'ProductusOSGiBookc'; font-size:7.98;">c</tspan><tspan x="6.967" y="0" style="font-family:'ProductusOSGiBookc'; font-size:7.98;">c</tspan><tspan x="10.087" y="0" style="font-family:'ProductusOSGiBookc'; font-size:7.98;">e</tspan><tspan x="13.565" y="0" style="font-family:'ProductusOSGiBookc'; font-size:7.98;">s</tspan><tspan x="16.327" y="0" style="font-family:'ProductusOSGiBookc'; font-size:7.98;">s</tspan><tspan x="19.144" y="0" style="font-family:'ProductusOSGiBookc'; font-size:7.98;"> </tspan><tspan x="20.764" y="0" style="font-family:'ProductusOSGiBookc'; font-size:7.98;">C</tspan><tspan x="24.905" y="0" style="font-family:'ProductusOSGiBookc'; font-size:7.98;">o</tspan><tspan x="28.68" y="0" style="font-family:'ProductusOSGiBookc'; font-size:7.98;">nt</tspan><tspan x="34.673" y="0" style="font-family:'ProductusOSGiBookc'; font-size:7.98;">r</tspan><tspan x="36.715" y="0" style="font-family:'ProductusOSGiBookc'; font-size:7.98;">o</tspan><tspan x="40.489" y="0" style="font-family:'ProductusOSGiBookc'; font-size:7.98;">l</tspan><tspan x="41.998" y="0" style="font-family:'ProductusOSGiBookc'; font-size:7.98;">l</tspan><tspan x="43.554" y="0" style="font-family:'ProductusOSGiBookc'; font-size:7.98;">e</tspan><tspan x="47.033" y="0" style="font-family:'ProductusOSGiBookc'; font-size:7.98;">r</tspan></text>
<rect x="30.721" y="79.98" width="54.36" height="26.58"/>
<rect x="30.721" y="79.74" width="54.6" height="0.48"/>
<rect x="84.841" y="79.98" width="0.48" height="26.82"/>
<rect x="30.481" y="106.32" width="54.6" height="0.48"/>
<rect x="30.481" y="79.74" width="0.48" height="26.82"/>
<rect x="28.381" y="78.18" style="fill:#FFFFFF;" width="54.3" height="26.58"/>
<rect x="28.381" y="77.94" width="54.54" height="0.48"/>
<rect x="82.441" y="78.18" width="0.48" height="26.82"/>
<rect x="28.141" y="104.52" width="54.54" height="0.479"/>
<rect x="28.141" y="77.94" width="0.48" height="26.82"/>
<text transform="matrix(1 0 0 1.0522 30.7207 85.3198)"><tspan x="0" y="0" style="font-family:'ProductusOSGiBookc'; font-size:7.5841;">F</tspan><tspan x="2.897" y="0" style="font-family:'ProductusOSGiBookc'; font-size:7.5841;">r</tspan><tspan x="4.998" y="0" style="font-family:'ProductusOSGiBookc'; font-size:7.5841;">a</tspan><tspan x="8.115" y="0" style="font-family:'ProductusOSGiBookc'; font-size:7.5841;">m</tspan><tspan x="13.568" y="0" style="font-family:'ProductusOSGiBookc'; font-size:7.5841;">e</tspan><tspan x="16.753" y="0" style="font-family:'ProductusOSGiBookc'; font-size:7.5841;">w</tspan><tspan x="21.379" y="0" style="font-family:'ProductusOSGiBookc'; font-size:7.5841;">o</tspan><tspan x="24.914" y="0" style="font-family:'ProductusOSGiBookc'; font-size:7.5841;">r</tspan><tspan x="27.067" y="0" style="font-family:'ProductusOSGiBookc'; font-size:7.5841;">k</tspan><tspan x="30.131" y="0" style="font-family:'ProductusOSGiBookc'; font-size:7.5841;"> S</tspan><tspan x="35.114" y="0" style="font-family:'ProductusOSGiBookc'; font-size:7.5841;">e</tspan><tspan x="38.413" y="0" style="font-family:'ProductusOSGiBookc'; font-size:7.5841;">c</tspan><tspan x="41.348" y="0" style="font-family:'ProductusOSGiBookc'; font-size:7.5841;">.</tspan><tspan x="42.842" y="0" style="font-family:'ProductusOSGiBookc'; font-size:7.5841;"> </tspan></text>
<text transform="matrix(1 0 0 1.0522 30.7207 93.8403)"><tspan x="0" y="0" style="font-family:'ProductusOSGiBookc'; font-size:7.5841;">M</tspan><tspan x="5.559" y="0" style="font-family:'ProductusOSGiBookc'; font-size:7.5841;">a</tspan><tspan x="8.684" y="0" style="font-family:'ProductusOSGiBookc'; font-size:7.5841;">n</tspan><tspan x="12.165" y="0" style="font-family:'ProductusOSGiBookc'; font-size:7.5841;">a</tspan><tspan x="15.229" y="0" style="font-family:'ProductusOSGiBookc'; font-size:7.5841;">g</tspan><tspan x="18.588" y="0" style="font-family:'ProductusOSGiBookc'; font-size:7.5841;">e</tspan><tspan x="21.887" y="0" style="font-family:'ProductusOSGiBookc'; font-size:7.5841;">r</tspan><tspan x="23.988" y="0" style="font-family:'ProductusOSGiBookc'; font-size:7.5841;"> </tspan><tspan x="25.49" y="0" style="font-family:'ProductusOSGiBookc'; font-size:7.5841;">I</tspan><tspan x="26.976" y="0" style="font-family:'ProductusOSGiBookc'; font-size:7.5841;">m</tspan><tspan x="32.376" y="0" style="font-family:'ProductusOSGiBookc'; font-size:7.5841;">p</tspan><tspan x="35.865" y="0" style="font-family:'ProductusOSGiBookc'; font-size:7.5841;">l</tspan></text>
<polyline points="56.701,130.5 60,130.5 59.821,131.16 57.181,140.34 56.701,142.02 56.221,140.34 53.581,131.16 53.401,130.5 
	54.061,130.5 54.541,130.86 57.181,140.04 56.221,140.34 56.221,140.04 58.861,130.86 59.821,131.16 59.341,131.52 56.701,131.52 
	"/>
<rect x="54.061" y="130.5" width="2.64" height="1.02"/>
<polyline style="fill-rule:evenodd;clip-rule:evenodd;" points="56.701,130.98 59.341,130.98 56.701,140.16 54.061,130.98 "/>
<rect x="56.461" y="106.32" width="0.48" height="24.36"/>
<rect x="87.421" y="2.04" width="54.36" height="26.58"/>
<rect x="87.421" y="1.8" width="54.6" height="0.48"/>
<rect x="141.541" y="2.04" width="0.48" height="26.82"/>
<rect x="87.181" y="28.38" width="54.6" height="0.48"/>
<rect x="87.181" y="1.8" width="0.48" height="26.82"/>
<rect x="85.081" y="0.24" style="fill:#FFFFFF;" width="54.3" height="26.58"/>
<rect x="85.081" width="54.54" height="0.48"/>
<rect x="139.141" y="0.24" width="0.48" height="26.82"/>
<rect x="84.841" y="26.58" width="54.54" height="0.48"/>
<rect x="84.841" width="0.48" height="26.82"/>
<text transform="matrix(1 0 0 1 87.4209 7.3799)"><tspan x="0" y="0" style="font-family:'ProductusOSGiBookc'; font-size:7.98;">A</tspan><tspan x="3.902" y="0" style="font-family:'ProductusOSGiBookc'; font-size:7.98;">c</tspan><tspan x="6.966" y="0" style="font-family:'ProductusOSGiBookc'; font-size:7.98;">c</tspan><tspan x="10.086" y="0" style="font-family:'ProductusOSGiBookc'; font-size:7.98;">e</tspan><tspan x="13.566" y="0" style="font-family:'ProductusOSGiBookc'; font-size:7.98;">s</tspan><tspan x="16.327" y="0" style="font-family:'ProductusOSGiBookc'; font-size:7.98;">s</tspan><tspan x="19.144" y="0" style="font-family:'ProductusOSGiBookc'; font-size:7.98;"> </tspan><tspan x="20.764" y="0" style="font-family:'ProductusOSGiBookc'; font-size:7.98;">C</tspan><tspan x="24.905" y="0" style="font-family:'ProductusOSGiBookc'; font-size:7.98;">o</tspan><tspan x="28.68" y="0" style="font-family:'ProductusOSGiBookc'; font-size:7.98;">nt</tspan><tspan x="34.672" y="0" style="font-family:'ProductusOSGiBookc'; font-size:7.98;">r</tspan><tspan x="36.715" y="0" style="font-family:'ProductusOSGiBookc'; font-size:7.98;">o</tspan><tspan x="40.49" y="0" style="font-family:'ProductusOSGiBookc'; font-size:7.98;">l</tspan><tspan x="41.998" y="0" style="font-family:'ProductusOSGiBookc'; font-size:7.98;"> </tspan></text>
<text transform="matrix(1 0 0 1 87.4209 15.8403)"><tspan x="0" y="0" style="font-family:'ProductusOSGiBookc'; font-size:7.98;">C</tspan><tspan x="4.206" y="0" style="font-family:'ProductusOSGiBookc'; font-size:7.98;">o</tspan><tspan x="7.98" y="0" style="font-family:'ProductusOSGiBookc'; font-size:7.98;">n</tspan><tspan x="11.587" y="0" style="font-family:'ProductusOSGiBookc'; font-size:7.98;">te</tspan><tspan x="17.404" y="0" style="font-family:'ProductusOSGiBookc'; font-size:7.98;">x</tspan><tspan x="20.396" y="0" style="font-family:'ProductusOSGiBookc'; font-size:7.98;">t</tspan></text>
<rect x="250.441" y="79.98" width="54.3" height="26.58"/>
<rect x="250.441" y="79.74" width="54.54" height="0.48"/>
<rect x="304.5" y="79.98" width="0.48" height="26.82"/>
<rect x="250.201" y="106.32" width="54.54" height="0.48"/>
<rect x="250.201" y="79.74" width="0.48" height="26.82"/>
<rect x="248.041" y="78.18" style="fill:#FFFFFF;" width="54.36" height="26.58"/>
<rect x="248.041" y="77.94" width="54.601" height="0.48"/>
<rect x="302.161" y="78.18" width="0.48" height="26.82"/>
<rect x="247.8" y="104.52" width="54.601" height="0.479"/>
<rect x="247.8" y="77.94" width="0.48" height="26.82"/>
<text transform="matrix(1 0 0 1 250.4409 85.3198)"><tspan x="0" y="0" style="font-family:'ProductusOSGiBookc'; font-size:7.98;">P</tspan><tspan x="3.248" y="0" style="font-family:'ProductusOSGiBookc'; font-size:7.98;">r</tspan><tspan x="5.291" y="0" style="font-family:'ProductusOSGiBookc'; font-size:7.98;">otect</tspan><tspan x="20.285" y="0" style="font-family:'ProductusOSGiBookc'; font-size:7.98;">i</tspan><tspan x="21.793" y="0" style="font-family:'ProductusOSGiBookc'; font-size:7.98;">on</tspan><tspan x="29.214" y="0" style="font-family:'ProductusOSGiBookc'; font-size:7.98;"> </tspan></text>
<text transform="matrix(1 0 0 1 250.4409 93.8403)"><tspan x="0" y="0" style="font-family:'ProductusOSGiBookc'; font-size:7.98;">Do</tspan><tspan x="8.69" y="0" style="font-family:'ProductusOSGiBookc'; font-size:7.98;">m</tspan><tspan x="14.396" y="0" style="font-family:'ProductusOSGiBookc'; font-size:7.98;">a</tspan><tspan x="17.691" y="0" style="font-family:'ProductusOSGiBookc'; font-size:7.98;">i</tspan><tspan x="19.199" y="0" style="font-family:'ProductusOSGiBookc'; font-size:7.98;">n</tspan></text>
<rect x="84.841" y="92.16" width="57.18" height="0.48"/>
<rect x="250.441" y="2.04" width="54.3" height="26.58"/>
<rect x="250.441" y="1.8" width="54.54" height="0.48"/>
<rect x="304.5" y="2.04" width="0.48" height="26.82"/>
<rect x="250.201" y="28.38" width="54.54" height="0.48"/>
<rect x="250.201" y="1.8" width="0.48" height="26.82"/>
<rect x="248.041" y="0.24" style="fill:#FFFFFF;" width="54.36" height="26.58"/>
<rect x="248.041" width="54.601" height="0.48"/>
<rect x="302.161" y="0.24" width="0.48" height="26.82"/>
<rect x="247.8" y="26.58" width="54.601" height="0.48"/>
<rect x="247.8" width="0.48" height="26.82"/>
<text transform="matrix(1 0 0 1.0522 250.4409 7.3799)"><tspan x="0" y="0" style="font-family:'ProductusOSGiBookc'; font-size:7.5841;">B</tspan><tspan x="3.353" y="0" style="font-family:'ProductusOSGiBookc'; font-size:7.5841;">u</tspan><tspan x="6.772" y="0" style="font-family:'ProductusOSGiBookc'; font-size:7.5841;">ndle</tspan><tspan x="18.505" y="0" style="font-family:'ProductusOSGiBookc'; font-size:7.5841;"> P</tspan><tspan x="23.07" y="0" style="font-family:'ProductusOSGiBookc'; font-size:7.5841;">r</tspan><tspan x="24.997" y="0" style="font-family:'ProductusOSGiBookc'; font-size:7.5841;">ote</tspan><tspan x="34.105" y="0" style="font-family:'ProductusOSGiBookc'; font-size:7.5841;">c</tspan><tspan x="36.987" y="0" style="font-family:'ProductusOSGiBookc'; font-size:7.5841;">t</tspan><tspan x="39.209" y="0" style="font-family:'ProductusOSGiBookc'; font-size:7.5841;">i</tspan><tspan x="40.649" y="0" style="font-family:'ProductusOSGiBookc'; font-size:7.5841;">on</tspan><tspan x="47.703" y="0" style="font-family:'ProductusOSGiBookc'; font-size:7.5841;"> </tspan></text>
<text transform="matrix(1 0 0 1.0522 250.4409 15.8403)"><tspan x="0" y="0" style="font-family:'ProductusOSGiBookc'; font-size:7.5841;">D</tspan><tspan x="4.672" y="0" style="font-family:'ProductusOSGiBookc'; font-size:7.5841;">o</tspan><tspan x="8.214" y="0" style="font-family:'ProductusOSGiBookc'; font-size:7.5841;">ma</tspan><tspan x="16.799" y="0" style="font-family:'ProductusOSGiBookc'; font-size:7.5841;">i</tspan><tspan x="18.239" y="0" style="font-family:'ProductusOSGiBookc'; font-size:7.5841;">n</tspan><tspan x="21.713" y="0" style="font-family:'ProductusOSGiBookc'; font-size:7.5841;"> </tspan><tspan x="23.215" y="0" style="font-family:'ProductusOSGiBookc'; font-size:7.5841;">I</tspan><tspan x="24.701" y="0" style="font-family:'ProductusOSGiBookc'; font-size:7.5841;">m</tspan><tspan x="30.101" y="0" style="font-family:'ProductusOSGiBookc'; font-size:7.5841;">p</tspan><tspan x="33.597" y="0" style="font-family:'ProductusOSGiBookc'; font-size:7.5841;">l</tspan></text>
<rect x="113.161" y="28.38" width="0.48" height="0.24"/>
<rect x="113.161" y="28.62" width="0.48" height="0.96"/>
<rect x="113.161" y="33.48" width="0.48" height="0.24"/>
<rect x="113.161" y="33.72" width="0.48" height="1.68"/>
<rect x="113.161" y="39.24" width="0.48" height="0.24"/>
<rect x="113.161" y="39.48" width="0.48" height="1.68"/>
<rect x="113.161" y="45.06" width="0.48" height="0.24"/>
<rect x="113.161" y="45.3" width="0.48" height="1.68"/>
<rect x="113.161" y="50.82" width="0.48" height="0.24"/>
<rect x="113.161" y="51.06" width="0.48" height="1.68"/>
<rect x="113.161" y="56.64" width="0.48" height="0.24"/>
<rect x="113.161" y="56.88" width="0.48" height="1.68"/>
<rect x="113.161" y="62.4" width="0.48" height="0.24"/>
<rect x="113.161" y="62.64" width="0.48" height="1.68"/>
<rect x="113.161" y="68.22" width="0.48" height="0.24"/>
<rect x="113.161" y="68.46" width="0.48" height="1.68"/>
<rect x="113.161" y="73.98" width="0.48" height="0.24"/>
<rect x="113.161" y="74.22" width="0.48" height="1.74"/>
<rect x="113.161" y="79.8" width="0.48" height="0.24"/>
<rect x="113.161" y="80.04" width="0.48" height="1.68"/>
<rect x="113.161" y="85.62" width="0.48" height="0.24"/>
<rect x="113.161" y="85.86" width="0.48" height="1.68"/>
<rect x="113.161" y="91.38" width="0.48" height="0.24"/>
<rect x="113.161" y="91.62" width="0.48" height="1.02"/>
<rect x="6.841" y="92.16" width="21.78" height="0.48"/>
<rect x="6.841" y="92.4" width="0.48" height="64.02"/>
<rect x="7.081" y="155.94" width="21.54" height="0.48"/>
<text transform="matrix(1 0 0 1 4.882812e-04 120.7197)"><tspan x="0" y="0" style="font-family:'ProductusOSGiBookc'; font-size:7.98;">a</tspan><tspan x="3.24" y="0" style="font-family:'ProductusOSGiBookc'; font-size:7.98;">c</tspan><tspan x="6.36" y="0" style="font-family:'ProductusOSGiBookc'; font-size:7.98;">t</tspan><tspan x="8.65" y="0" style="font-family:'ProductusOSGiBookc'; font-size:7.98;">i</tspan><tspan x="10.206" y="0" style="font-family:'ProductusOSGiBookc'; font-size:7.98;">v</tspan><tspan x="13.207" y="0" style="font-family:'ProductusOSGiBookc'; font-size:7.98;">e</tspan><tspan x="16.686" y="0" style="font-family:'ProductusOSGiBookc'; font-size:7.98;"> </tspan><tspan x="18.306" y="0" style="font-family:'ProductusOSGiBookc'; font-size:7.98;">s</tspan><tspan x="21.067" y="0" style="font-family:'ProductusOSGiBookc'; font-size:7.98;">e</tspan><tspan x="24.546" y="0" style="font-family:'ProductusOSGiBookc'; font-size:7.98;">c</tspan><tspan x="27.666" y="0" style="font-family:'ProductusOSGiBookc'; font-size:7.98;">u</tspan><tspan x="31.273" y="0" style="font-family:'ProductusOSGiBookc'; font-size:7.98;">r</tspan><tspan x="33.547" y="0" style="font-family:'ProductusOSGiBookc'; font-size:7.98;">i</tspan><tspan x="35.055" y="0" style="font-family:'ProductusOSGiBookc'; font-size:7.98;">t</tspan><tspan x="37.393" y="0" style="font-family:'ProductusOSGiBookc'; font-size:7.98;">y</tspan></text>
<text transform="matrix(1 0 0 1 4.882812e-04 130.4395)"><tspan x="0" y="0" style="font-family:'ProductusOSGiBookc'; font-size:7.98;">m</tspan><tspan x="5.722" y="0" style="font-family:'ProductusOSGiBookc'; font-size:7.98;">a</tspan><tspan x="9.017" y="0" style="font-family:'ProductusOSGiBookc'; font-size:7.98;">n</tspan><tspan x="12.664" y="0" style="font-family:'ProductusOSGiBookc'; font-size:7.98;">a</tspan><tspan x="15.96" y="0" style="font-family:'ProductusOSGiBookc'; font-size:7.98;">g</tspan><tspan x="19.439" y="0" style="font-family:'ProductusOSGiBookc'; font-size:7.98;">e</tspan><tspan x="22.918" y="0" style="font-family:'ProductusOSGiBookc'; font-size:7.98;">r</tspan></text>
<text transform="matrix(1 0 0 1 102.1206 97.6792)" style="font-family:'ProductusOSGiBookc'; font-size:7.98;">check</text>
<text transform="matrix(1 0 0 1 184.2603 12.5391)"><tspan x="0" y="0" style="font-family:'ProductusOSGiBookc'; font-size:7.98;">for</tspan><tspan x="7.972" y="0" style="font-family:'ProductusOSGiBookc'; font-size:7.98;"> </tspan><tspan x="9.536" y="0" style="font-family:'ProductusOSGiBookc'; font-size:7.98;">each</tspan><tspan x="22.998" y="0" style="font-family:'ProductusOSGiBookc'; font-size:7.98;"> </tspan><tspan x="24.618" y="0" style="font-family:'ProductusOSGiBookc'; font-size:7.98;">caller</tspan></text>
<text transform="matrix(1 0 0 1 233.8804 21.7793)"><tspan x="0" y="0" style="font-family:'ProductusOSGiBookc'; font-size:7.98;">1</tspan><tspan x="3.176" y="0" style="font-family:'ProductusOSGiBookc'; font-size:7.98;">..*</tspan></text>
<text transform="matrix(1 0 0 1 87.1201 97.8589)"><tspan x="0" y="0" style="font-family:'ProductusOSGiBookc'; font-size:7.98; letter-spacing:47;">1</tspan><tspan x="50.816" y="0" style="font-family:'ProductusOSGiBookc'; font-size:7.98;">1</tspan></text>
<text transform="matrix(1 0 0 1 0 57.2388)"><tspan x="0" y="0" style="font-family:'ProductusOSGiBookc'; font-size:7.98;">check</tspan><tspan x="16.518" y="0" style="font-family:'ProductusOSGiBookc'; font-size:7.98;">P</tspan><tspan x="19.519" y="0" style="font-family:'ProductusOSGiBookc'; font-size:7.98;">ermis</tspan><tspan x="35.303" y="0" style="font-family:'ProductusOSGiBookc'; font-size:7.98;">s</tspan><tspan x="38.064" y="0" style="font-family:'ProductusOSGiBookc'; font-size:7.98;">io</tspan><tspan x="43.371" y="0" style="font-family:'ProductusOSGiBookc'; font-size:7.98;">n</tspan></text>
<text transform="matrix(1 0 0 1 145.3198 20.5791)" style="font-family:'ProductusOSGiBookc'; font-size:7.98;">1</text>
<text transform="matrix(1 0 0 1 102.1201 107.3989)"><tspan x="0" y="0" style="font-family:'ProductusOSGiBookc'; font-size:7.98;">P</tspan><tspan x="3" y="0" style="font-family:'ProductusOSGiBookc'; font-size:7.98;">e</tspan><tspan x="6.479" y="0" style="font-family:'ProductusOSGiBookc'; font-size:7.98;">r</tspan><tspan x="8.698" y="0" style="font-family:'ProductusOSGiBookc'; font-size:7.98;">m</tspan><tspan x="14.404" y="0" style="font-family:'ProductusOSGiBookc'; font-size:7.98;">i</tspan><tspan x="15.959" y="0" style="font-family:'ProductusOSGiBookc'; font-size:7.98;">s</tspan><tspan x="18.777" y="0" style="font-family:'ProductusOSGiBookc'; font-size:7.98;">s</tspan><tspan x="21.538" y="0" style="font-family:'ProductusOSGiBookc'; font-size:7.98;">i</tspan><tspan x="23.094" y="0" style="font-family:'ProductusOSGiBookc'; font-size:7.98;">o</tspan><tspan x="26.868" y="0" style="font-family:'ProductusOSGiBookc'; font-size:7.98;">n</tspan></text>
<rect x="141.541" y="14.16" width="0.24" height="0.48"/>
<rect x="141.781" y="14.16" width="106.5" height="0.48"/>
<polyline points="276.42,66.72 279.721,66.72 279.541,67.38 276.901,76.56 276.42,78.24 275.941,76.56 273.3,67.38 273.121,66.72 
	273.781,66.72 274.26,67.08 276.901,76.26 275.941,76.56 275.941,76.26 278.581,67.08 279.541,67.38 279.061,67.74 276.42,67.74 "/>
<rect x="273.781" y="66.72" width="2.64" height="1.02"/>
<polyline style="fill-rule:evenodd;clip-rule:evenodd;" points="276.42,67.2 279.061,67.2 276.42,76.38 273.781,67.2 "/>
<rect x="276.181" y="28.38" width="0.479" height="0.24"/>
<rect x="276.181" y="28.62" width="0.479" height="38.28"/>
<text transform="matrix(1 0 0 1 120.481 54.6001)"><tspan x="0" y="0" style="font-family:'ProductusOSGiBookc'; font-size:7.98;">cur</tspan><tspan x="8.929" y="0" style="font-family:'ProductusOSGiBookc'; font-size:7.98;">r</tspan><tspan x="10.972" y="0" style="font-family:'ProductusOSGiBookc'; font-size:7.98;">ent</tspan></text>
<text transform="matrix(1 0 0 1 120.481 64.3198)"><tspan x="0" y="0" style="font-family:'ProductusOSGiBookc'; font-size:7.98;">c</tspan><tspan x="3.072" y="0" style="font-family:'ProductusOSGiBookc'; font-size:7.98;">a</tspan><tspan x="6.312" y="0" style="font-family:'ProductusOSGiBookc'; font-size:7.98;">ll</tspan><tspan x="9.392" y="0" style="font-family:'ProductusOSGiBookc'; font-size:7.98;"> </tspan><tspan x="10.956" y="0" style="font-family:'ProductusOSGiBookc'; font-size:7.98;">stac</tspan><tspan x="22.463" y="0" style="font-family:'ProductusOSGiBookc'; font-size:7.98;">k</tspan></text>
</svg>
