<?xml version="1.0" encoding="utf-8"?>
<!-- Generator: Adobe Illustrator 16.0.0, SVG Export Plug-In . SVG Version: 6.00 Build 0)  -->
<!DOCTYPE svg PUBLIC "-//W3C//DTD SVG 1.1//EN" "http://www.w3.org/Graphics/SVG/1.1/DTD/svg11.dtd">
<svg version="1.1" id="Layer_1" xmlns="http://www.w3.org/2000/svg" xmlns:xlink="http://www.w3.org/1999/xlink" x="0px" y="0px"
	 width="298.141px" height="106.8px" viewBox="0 0 298.141 106.8" style="enable-background:new 0 0 298.141 106.8;"
	 xml:space="preserve">
<rect x="14.4" y="7.08" width="149.1" height="0.48"/>
<rect x="163.021" y="7.32" width="0.479" height="56.94"/>
<rect x="14.16" y="63.78" width="149.1" height="0.48"/>
<rect x="14.16" y="7.08" width="0.48" height="56.94"/>
<rect x="0.24" y="21.3" width="85.26" height="0.48"/>
<rect x="85.02" y="21.54" width="0.48" height="56.88"/>
<rect y="77.94" width="85.26" height="0.48"/>
<rect y="21.3" width="0.48" height="56.88"/>
<rect x="14.4" y="21.3" width="71.1" height="0.48"/>
<rect x="85.02" y="21.54" width="0.48" height="42.72"/>
<rect x="14.16" y="63.78" width="71.1" height="0.48"/>
<rect x="14.16" y="21.3" width="0.48" height="42.72"/>
<text transform="matrix(1 0 0 1 96.9004 33.3599)"><tspan x="0" y="0" style="font-family:'ProductusOSGiBookc'; font-size:7.98;">sys</tspan><tspan x="8.802" y="0" style="font-family:'ProductusOSGiBookc'; font-size:7.98;">t</tspan><tspan x="11.084" y="0" style="font-family:'ProductusOSGiBookc'; font-size:7.98;">em per</tspan><tspan x="31.321" y="0" style="font-family:'ProductusOSGiBookc'; font-size:7.98;">m</tspan><tspan x="37.026" y="0" style="font-family:'ProductusOSGiBookc'; font-size:7.98;">iss</tspan><tspan x="44.209" y="0" style="font-family:'ProductusOSGiBookc'; font-size:7.98;">i</tspan><tspan x="45.717" y="0" style="font-family:'ProductusOSGiBookc'; font-size:7.98;">on</tspan><tspan x="53.154" y="0" style="font-family:'ProductusOSGiBookc'; font-size:7.98;">s</tspan></text>
<text transform="matrix(1 0 0 1 25.2002 72.7798)"><tspan x="0" y="0" style="font-family:'ProductusOSGiBookc'; font-size:7.98;">l</tspan><tspan x="1.548" y="0" style="font-family:'ProductusOSGiBookc'; font-size:7.98;">o</tspan><tspan x="5.274" y="0" style="font-family:'ProductusOSGiBookc'; font-size:7.98;">c</tspan><tspan x="8.355" y="0" style="font-family:'ProductusOSGiBookc'; font-size:7.98;">a</tspan><tspan x="11.595" y="0" style="font-family:'ProductusOSGiBookc'; font-size:7.98;">l</tspan><tspan x="13.143" y="0" style="font-family:'ProductusOSGiBookc'; font-size:7.98;"> </tspan><tspan x="14.763" y="0" style="font-family:'ProductusOSGiBookc'; font-size:7.98;">per</tspan><tspan x="24.163" y="0" style="font-family:'ProductusOSGiBookc'; font-size:7.98;">m</tspan><tspan x="29.869" y="0" style="font-family:'ProductusOSGiBookc'; font-size:7.98;">iss</tspan><tspan x="37.05" y="0" style="font-family:'ProductusOSGiBookc'; font-size:7.98;">i</tspan><tspan x="38.559" y="0" style="font-family:'ProductusOSGiBookc'; font-size:7.98;">on</tspan><tspan x="45.996" y="0" style="font-family:'ProductusOSGiBookc'; font-size:7.98;">s</tspan></text>
<rect x="14.4" y="21.3" width="71.1" height="0.48"/>
<rect x="85.02" y="21.54" width="0.48" height="42.72"/>
<rect x="14.16" y="63.78" width="71.1" height="0.48"/>
<rect x="14.16" y="21.3" width="0.48" height="42.72"/>
<text transform="matrix(1 0 0 1 30.3003 44.3999)"><tspan x="0" y="0" style="fill:#FFFFFF; font-family:'ProductusBook'; font-size:7.98;">e</tspan><tspan x="3.535" y="0" style="fill:#FFFFFF; font-family:'ProductusBook'; font-size:7.98;">f</tspan><tspan x="5.338" y="0" style="fill:#FFFFFF; font-family:'ProductusBook'; font-size:7.98;">f</tspan><tspan x="7.325" y="0" style="fill:#FFFFFF; font-family:'ProductusBook'; font-size:7.98;">e</tspan><tspan x="10.812" y="0" style="fill:#FFFFFF; font-family:'ProductusBook'; font-size:7.98;">c</tspan><tspan x="13.933" y="0" style="fill:#FFFFFF; font-family:'ProductusBook'; font-size:7.98;">t</tspan><tspan x="16.279" y="0" style="fill:#FFFFFF; font-family:'ProductusBook'; font-size:7.98;">i</tspan><tspan x="17.843" y="0" style="fill:#FFFFFF; font-family:'ProductusBook'; font-size:7.98;">v</tspan><tspan x="20.963" y="0" style="fill:#FFFFFF; font-family:'ProductusBook'; font-size:7.98;">e</tspan></text>
<text transform="matrix(1 0 0 1 184.1406 18.48)"><tspan x="0" y="0" style="font-family:'ProductusOSGiBookc'; font-size:7.98;">l</tspan><tspan x="1.548" y="0" style="font-family:'ProductusOSGiBookc'; font-size:7.98;">o</tspan><tspan x="5.314" y="0" style="font-family:'ProductusOSGiBookc'; font-size:7.98;">cat</tspan><tspan x="14.036" y="0" style="font-family:'ProductusOSGiBookc'; font-size:7.98;">i</tspan><tspan x="15.545" y="0" style="font-family:'ProductusOSGiBookc'; font-size:7.98;">o</tspan><tspan x="19.319" y="0" style="font-family:'ProductusOSGiBookc'; font-size:7.98;">n</tspan></text>
<polyline points="156.061,35.46 155.82,35.52 155.94,36 156.181,35.94 "/>
<polyline points="159.721,34.56 159.96,34.5 160.08,34.98 159.84,35.04 "/>
<polyline points="156.061,35.46 156.181,35.94 159.84,35.04 159.721,34.56 "/>
<polyline style="fill-rule:evenodd;clip-rule:evenodd;" points="166.32,32.88 166.08,32.94 166.2,33.42 166.44,33.36 "/>
<polyline style="fill-rule:evenodd;clip-rule:evenodd;" points="173.94,30.96 174.181,30.9 174.3,31.38 174.061,31.44 "/>
<polyline style="fill-rule:evenodd;clip-rule:evenodd;" points="166.32,32.88 166.44,33.36 174.061,31.44 173.94,30.96 "/>
<polyline style="fill-rule:evenodd;clip-rule:evenodd;" points="180.54,29.34 180.3,29.4 180.42,29.88 180.66,29.82 "/>
<polyline style="fill-rule:evenodd;clip-rule:evenodd;" points="188.16,27.42 188.4,27.36 188.521,27.84 188.28,27.9 "/>
<polyline style="fill-rule:evenodd;clip-rule:evenodd;" points="180.54,29.34 180.66,29.82 188.28,27.9 188.16,27.42 "/>
<polyline style="fill-rule:evenodd;clip-rule:evenodd;" points="194.82,25.74 194.58,25.8 194.7,26.28 194.94,26.22 "/>
<polyline style="fill-rule:evenodd;clip-rule:evenodd;" points="202.44,23.88 202.681,23.82 202.8,24.3 202.561,24.36 "/>
<polyline style="fill-rule:evenodd;clip-rule:evenodd;" points="194.82,25.74 194.94,26.22 202.561,24.36 202.44,23.88 "/>
<polyline style="fill-rule:evenodd;clip-rule:evenodd;" points="209.04,22.2 208.8,22.26 208.92,22.74 209.16,22.68 "/>
<polyline style="fill-rule:evenodd;clip-rule:evenodd;" points="216.66,20.28 216.9,20.22 217.021,20.7 216.78,20.76 "/>
<polyline style="fill-rule:evenodd;clip-rule:evenodd;" points="209.04,22.2 209.16,22.68 216.78,20.76 216.66,20.28 "/>
<polyline style="fill-rule:evenodd;clip-rule:evenodd;" points="223.26,18.66 223.021,18.72 223.141,19.2 223.38,19.14 "/>
<polyline style="fill-rule:evenodd;clip-rule:evenodd;" points="230.88,16.74 231.12,16.68 231.24,17.16 231,17.22 "/>
<polyline style="fill-rule:evenodd;clip-rule:evenodd;" points="223.26,18.66 223.38,19.14 231,17.22 230.88,16.74 "/>
<polyline points="237.48,15.12 237.24,15.18 237.36,15.66 237.601,15.6 "/>
<polyline points="241.141,14.16 241.38,14.1 241.5,14.58 241.26,14.64 "/>
<polyline points="237.48,15.12 237.601,15.6 241.26,14.64 241.141,14.16 "/>
<polyline points="156.181,35.46 155.94,35.4 155.82,35.88 156.061,35.94 "/>
<polyline points="159.84,36.36 160.08,36.42 159.96,36.9 159.721,36.84 "/>
<polyline points="156.181,35.46 156.061,35.94 159.721,36.84 159.84,36.36 "/>
<polyline style="fill-rule:evenodd;clip-rule:evenodd;" points="166.44,37.98 166.2,37.92 166.08,38.4 166.32,38.46 "/>
<polyline style="fill-rule:evenodd;clip-rule:evenodd;" points="174.061,39.9 174.3,39.96 174.181,40.44 173.94,40.38 "/>
<polyline style="fill-rule:evenodd;clip-rule:evenodd;" points="166.44,37.98 166.32,38.46 173.94,40.38 174.061,39.9 "/>
<polyline style="fill-rule:evenodd;clip-rule:evenodd;" points="180.66,41.58 180.42,41.52 180.3,42 180.54,42.06 "/>
<polyline style="fill-rule:evenodd;clip-rule:evenodd;" points="188.28,43.5 188.521,43.56 188.4,44.04 188.16,43.98 "/>
<polyline style="fill-rule:evenodd;clip-rule:evenodd;" points="180.66,41.58 180.54,42.06 188.16,43.98 188.28,43.5 "/>
<polyline style="fill-rule:evenodd;clip-rule:evenodd;" points="194.94,45.12 194.7,45.06 194.58,45.54 194.82,45.6 "/>
<polyline style="fill-rule:evenodd;clip-rule:evenodd;" points="202.561,47.04 202.8,47.1 202.681,47.58 202.44,47.52 "/>
<polyline style="fill-rule:evenodd;clip-rule:evenodd;" points="194.94,45.12 194.82,45.6 202.44,47.52 202.561,47.04 "/>
<polyline style="fill-rule:evenodd;clip-rule:evenodd;" points="209.16,48.66 208.92,48.6 208.8,49.08 209.04,49.14 "/>
<polyline style="fill-rule:evenodd;clip-rule:evenodd;" points="216.78,50.58 217.021,50.64 216.9,51.12 216.66,51.06 "/>
<polyline style="fill-rule:evenodd;clip-rule:evenodd;" points="209.16,48.66 209.04,49.14 216.66,51.06 216.78,50.58 "/>
<polyline style="fill-rule:evenodd;clip-rule:evenodd;" points="223.38,52.26 223.141,52.2 223.021,52.68 223.26,52.74 "/>
<polyline style="fill-rule:evenodd;clip-rule:evenodd;" points="231,54.12 231.24,54.18 231.12,54.66 230.88,54.6 "/>
<polyline style="fill-rule:evenodd;clip-rule:evenodd;" points="223.38,52.26 223.26,52.74 230.88,54.6 231,54.12 "/>
<polyline points="237.601,55.8 237.36,55.74 237.24,56.22 237.48,56.28 "/>
<polyline points="241.26,56.7 241.5,56.76 241.38,57.24 241.141,57.18 "/>
<polyline points="237.601,55.8 237.48,56.28 241.141,57.18 241.26,56.7 "/>
<rect x="7.08" y="102.54" width="0.48" height="4.26"/>
<rect x="7.08" y="88.32" width="0.48" height="8.1"/>
<rect x="7.08" y="81.96" width="0.48" height="0.24"/>
<rect x="7.08" y="77.94" width="0.48" height="4.02"/>
<text transform="matrix(1 0 0 1 10.0801 94.5)"><tspan x="0" y="0" style="font-family:'ProductusOSGiBookc'; font-size:7.98;">Bundle</tspan><tspan x="19.574" y="0" style="font-family:'ProductusOSGiBookc'; font-size:7.98;"> </tspan><tspan x="21.139" y="0" style="font-family:'ProductusOSGiBookc'; font-size:7.98;">P</tspan><tspan x="24.139" y="0" style="font-family:'ProductusOSGiBookc'; font-size:7.98;">e</tspan><tspan x="27.618" y="0" style="font-family:'ProductusOSGiBookc'; font-size:7.98;">rmi</tspan><tspan x="37.138" y="0" style="font-family:'ProductusOSGiBookc'; font-size:7.98;">s</tspan><tspan x="39.899" y="0" style="font-family:'ProductusOSGiBookc'; font-size:7.98;">si</tspan><tspan x="44.264" y="0" style="font-family:'ProductusOSGiBookc'; font-size:7.98;">o</tspan><tspan x="47.991" y="0" style="font-family:'ProductusOSGiBookc'; font-size:7.98;">n</tspan></text>
<text transform="matrix(1 0 0 1 10.0801 104.2202)"><tspan x="0" y="0" style="font-family:'ProductusOSGiBookc'; font-size:7.98;">R</tspan><tspan x="3.487" y="0" style="font-family:'ProductusOSGiBookc'; font-size:7.98;">e</tspan><tspan x="6.966" y="0" style="font-family:'ProductusOSGiBookc'; font-size:7.98;">so</tspan><tspan x="13.558" y="0" style="font-family:'ProductusOSGiBookc'; font-size:7.98;">u</tspan><tspan x="17.212" y="0" style="font-family:'ProductusOSGiBookc'; font-size:7.98;">r</tspan><tspan x="19.255" y="0" style="font-family:'ProductusOSGiBookc'; font-size:7.98;">ce</tspan></text>
<text transform="matrix(1 0 0 1 30.2998 54.1201)"><tspan x="0" y="0" style="fill:#FFFFFF; font-family:'ProductusBook'; font-size:7.98;">pe</tspan><tspan x="7.198" y="0" style="fill:#FFFFFF; font-family:'ProductusBook'; font-size:7.98;">r</tspan><tspan x="9.424" y="0" style="fill:#FFFFFF; font-family:'ProductusBook'; font-size:7.98;">m</tspan><tspan x="15.242" y="0" style="fill:#FFFFFF; font-family:'ProductusBook'; font-size:7.98;">issions</tspan></text>
<text transform="matrix(1 0 0 1 184.1396 56.5806)"><tspan x="0" y="0" style="font-family:'ProductusOSGiBookc'; font-size:7.98;">C</tspan><tspan x="4.205" y="0" style="font-family:'ProductusOSGiBookc'; font-size:7.98;">o</tspan><tspan x="7.979" y="0" style="font-family:'ProductusOSGiBookc'; font-size:7.98;">n</tspan><tspan x="11.587" y="0" style="font-family:'ProductusOSGiBookc'; font-size:7.98;">d</tspan><tspan x="15.306" y="0" style="font-family:'ProductusOSGiBookc'; font-size:7.98;">i</tspan><tspan x="16.798" y="0" style="font-family:'ProductusOSGiBookc'; font-size:7.98;">t</tspan><tspan x="19.136" y="0" style="font-family:'ProductusOSGiBookc'; font-size:7.98;">i</tspan><tspan x="20.691" y="0" style="font-family:'ProductusOSGiBookc'; font-size:7.98;">o</tspan><tspan x="24.466" y="0" style="font-family:'ProductusOSGiBookc'; font-size:7.98;">n</tspan><tspan x="28.073" y="0" style="font-family:'ProductusOSGiBookc'; font-size:7.98;">[</tspan><tspan x="30.587" y="0" style="font-family:'ProductusOSGiBookc'; font-size:7.98;">]</tspan></text>
<rect x="243.54" y="2.04" width="54.36" height="26.58"/>
<rect x="243.54" y="1.8" width="54.601" height="0.48"/>
<rect x="297.66" y="2.04" width="0.48" height="26.82"/>
<rect x="243.3" y="28.38" width="54.601" height="0.48"/>
<rect x="243.3" y="1.8" width="0.48" height="26.82"/>
<rect x="241.2" y="0.24" style="fill:#FFFFFF;" width="54.3" height="26.58"/>
<rect x="241.2" width="54.54" height="0.48"/>
<rect x="295.26" y="0.24" width="0.48" height="26.82"/>
<rect x="240.96" y="26.58" width="54.54" height="0.48"/>
<rect x="240.96" width="0.48" height="26.82"/>
<text transform="matrix(1 0 0 1 243.54 7.3799)"><tspan x="0" y="0" style="font-family:'ProductusOSGiBookc'; font-size:7.98;">P</tspan><tspan x="3" y="0" style="font-family:'ProductusOSGiBookc'; font-size:7.98;">er</tspan><tspan x="8.706" y="0" style="font-family:'ProductusOSGiBookc'; font-size:7.98;">m</tspan><tspan x="14.412" y="0" style="font-family:'ProductusOSGiBookc'; font-size:7.98;">iss</tspan><tspan x="21.569" y="0" style="font-family:'ProductusOSGiBookc'; font-size:7.98;">i</tspan><tspan x="23.078" y="0" style="font-family:'ProductusOSGiBookc'; font-size:7.98;">on</tspan><tspan x="30.499" y="0" style="font-family:'ProductusOSGiBookc'; font-size:7.98;"> </tspan></text>
<text transform="matrix(1 0 0 1 243.54 15.8403)"><tspan x="0" y="0" style="font-family:'ProductusOSGiBookc'; font-size:7.98;">A</tspan><tspan x="3.902" y="0" style="font-family:'ProductusOSGiBookc'; font-size:7.98;">d</tspan><tspan x="7.565" y="0" style="font-family:'ProductusOSGiBookc'; font-size:7.98;">m</tspan><tspan x="13.271" y="0" style="font-family:'ProductusOSGiBookc'; font-size:7.98;">i</tspan><tspan x="14.826" y="0" style="font-family:'ProductusOSGiBookc'; font-size:7.98;">n</tspan></text>
<rect x="243.54" y="44.52" width="54.36" height="26.58"/>
<rect x="243.54" y="44.28" width="54.601" height="0.48"/>
<rect x="297.66" y="44.52" width="0.48" height="26.82"/>
<rect x="243.3" y="70.86" width="54.601" height="0.48"/>
<rect x="243.3" y="44.28" width="0.48" height="26.82"/>
<rect x="241.2" y="42.78" style="fill:#FFFFFF;" width="54.3" height="26.58"/>
<rect x="241.2" y="42.54" width="54.54" height="0.48"/>
<rect x="295.26" y="42.78" width="0.48" height="26.82"/>
<rect x="240.96" y="69.12" width="54.54" height="0.48"/>
<rect x="240.96" y="42.54" width="0.48" height="26.82"/>
<text transform="matrix(1 0 0 1 243.54 49.8599)"><tspan x="0" y="0" style="font-family:'ProductusOSGiBookc'; font-size:7.98;">C</tspan><tspan x="4.142" y="0" style="font-family:'ProductusOSGiBookc'; font-size:7.98;">o</tspan><tspan x="7.916" y="0" style="font-family:'ProductusOSGiBookc'; font-size:7.98;">ndit</tspan><tspan x="19.12" y="0" style="font-family:'ProductusOSGiBookc'; font-size:7.98;">i</tspan><tspan x="20.628" y="0" style="font-family:'ProductusOSGiBookc'; font-size:7.98;">o</tspan><tspan x="24.402" y="0" style="font-family:'ProductusOSGiBookc'; font-size:7.98;">na</tspan><tspan x="31.345" y="0" style="font-family:'ProductusOSGiBookc'; font-size:7.98;">l</tspan><tspan x="32.853" y="0" style="font-family:'ProductusOSGiBookc'; font-size:7.98;"> </tspan></text>
<text transform="matrix(1 0 0 1 243.54 58.3804)"><tspan x="0" y="0" style="font-family:'ProductusOSGiBookc'; font-size:7.98;">P</tspan><tspan x="3" y="0" style="font-family:'ProductusOSGiBookc'; font-size:7.98;">er</tspan><tspan x="8.706" y="0" style="font-family:'ProductusOSGiBookc'; font-size:7.98;">m</tspan><tspan x="14.412" y="0" style="font-family:'ProductusOSGiBookc'; font-size:7.98;">iss</tspan><tspan x="21.569" y="0" style="font-family:'ProductusOSGiBookc'; font-size:7.98;">i</tspan><tspan x="23.078" y="0" style="font-family:'ProductusOSGiBookc'; font-size:7.98;">on</tspan><tspan x="30.499" y="0" style="font-family:'ProductusOSGiBookc'; font-size:7.98;"> </tspan></text>
<text transform="matrix(1 0 0 1 243.54 66.9004)"><tspan x="0" y="0" style="font-family:'ProductusOSGiBookc'; font-size:7.98;">A</tspan><tspan x="3.902" y="0" style="font-family:'ProductusOSGiBookc'; font-size:7.98;">d</tspan><tspan x="7.565" y="0" style="font-family:'ProductusOSGiBookc'; font-size:7.98;">m</tspan><tspan x="13.271" y="0" style="font-family:'ProductusOSGiBookc'; font-size:7.98;">i</tspan><tspan x="14.826" y="0" style="font-family:'ProductusOSGiBookc'; font-size:7.98;">n</tspan></text>
<text transform="matrix(1 0 0 1 184.1406 37.5605)"><tspan x="0" y="0" style="font-family:'ProductusOSGiBookc'; font-size:7.98;">or</tspan><tspan x="5.993" y="0" style="font-family:'ProductusOSGiBookc'; font-size:7.98;"> </tspan><tspan x="7.604" y="0" style="font-family:'ProductusOSGiBookc'; font-size:7.98;">ot</tspan><tspan x="13.709" y="0" style="font-family:'ProductusOSGiBookc'; font-size:7.98;">h</tspan><tspan x="17.316" y="0" style="font-family:'ProductusOSGiBookc'; font-size:7.98;">er</tspan><tspan x="23.021" y="0" style="font-family:'ProductusOSGiBookc'; font-size:7.98;">w</tspan><tspan x="28.121" y="0" style="font-family:'ProductusOSGiBookc'; font-size:7.98;">i</tspan><tspan x="29.629" y="0" style="font-family:'ProductusOSGiBookc'; font-size:7.98;">s</tspan><tspan x="32.446" y="0" style="font-family:'ProductusOSGiBookc'; font-size:7.98;">e</tspan></text>
</svg>
