<?xml version="1.0" encoding="utf-8"?>
<!-- Generator: Adobe Illustrator 16.0.0, SVG Export Plug-In . SVG Version: 6.00 Build 0)  -->
<!DOCTYPE svg PUBLIC "-//W3C//DTD SVG 1.1//EN" "http://www.w3.org/Graphics/SVG/1.1/DTD/svg11.dtd">
<svg version="1.1" id="Layer_1" xmlns="http://www.w3.org/2000/svg" xmlns:xlink="http://www.w3.org/1999/xlink" x="0px" y="0px"
	 width="313.382px" height="99.173px" viewBox="0 0 313.382 99.173" style="enable-background:new 0 0 313.382 99.173;"
	 xml:space="preserve">
<rect x="0.24" y="2.087" style="fill:#FFFFFF;" width="163.02" height="85.08"/>
<rect x="0.24" y="1.847" width="163.26" height="0.48"/>
<rect x="163.02" y="2.087" width="0.48" height="85.32"/>
<rect y="86.927" width="163.26" height="0.48"/>
<rect y="1.847" width="0.48" height="85.32"/>
<polyline style="fill-rule:evenodd;clip-rule:evenodd;fill:#FFFFFF;" points="99.48,37.547 99.42,36.107 99.24,34.667 98.94,33.227 
	98.52,31.847 98.04,30.467 97.38,29.147 96.66,27.827 95.82,26.507 94.92,25.247 93.9,24.047 92.82,22.847 91.62,21.707 
	90.3,20.567 88.92,19.547 87.48,18.467 85.98,17.507 84.36,16.547 82.68,15.647 80.94,14.807 79.14,14.027 77.28,13.307 
	75.36,12.647 73.38,11.987 71.34,11.447 69.24,10.907 64.92,10.067 62.7,9.767 60.42,9.527 58.14,9.347 55.8,9.227 51.06,9.227 
	48.72,9.347 46.38,9.527 44.1,9.767 41.88,10.067 37.56,10.907 35.46,11.447 33.42,11.987 31.44,12.647 29.52,13.307 27.66,14.027 
	25.86,14.807 24.12,15.707 22.44,16.547 20.82,17.507 19.32,18.467 17.88,19.547 16.5,20.567 15.18,21.707 13.98,22.847 
	12.9,24.047 11.88,25.247 10.98,26.507 10.14,27.827 9.42,29.147 8.76,30.467 8.28,31.847 7.86,33.227 7.56,34.667 7.38,36.107 
	7.32,37.547 7.38,38.987 7.56,40.427 7.86,41.867 8.28,43.247 8.76,44.627 9.42,46.007 10.14,47.327 10.98,48.587 11.88,49.847 
	12.9,51.047 13.98,52.247 15.18,53.387 16.5,54.527 17.88,55.607 19.32,56.627 20.82,57.587 22.44,58.547 24.12,59.447 
	25.86,60.287 27.66,61.067 29.52,61.787 31.44,62.507 33.42,63.107 35.46,63.647 37.56,64.187 41.88,65.027 44.1,65.327 
	46.38,65.567 48.72,65.747 51.06,65.867 53.4,65.927 55.8,65.867 58.14,65.747 60.42,65.567 62.7,65.327 64.92,65.027 69.24,64.187 
	71.34,63.647 73.38,63.107 75.36,62.507 77.28,61.787 79.14,61.067 80.94,60.287 82.68,59.447 84.36,58.547 85.98,57.587 
	87.48,56.627 88.92,55.607 90.3,54.527 91.62,53.387 92.82,52.247 93.9,51.047 94.92,49.847 95.82,48.587 96.66,47.327 
	97.38,46.007 98.04,44.627 98.52,43.247 98.94,41.867 99.24,40.427 99.42,38.987 99.48,37.547 "/>
<polyline points="99.24,37.547 99.18,36.107 99.18,36.167 99,34.727 98.7,33.287 98.28,31.907 98.28,31.967 97.8,30.587 
	97.86,30.587 97.2,29.267 96.48,27.947 95.64,26.627 95.64,26.687 94.74,25.427 93.72,24.227 92.64,23.027 91.44,21.887 
	91.5,21.887 90.18,20.747 88.8,19.727 87.36,18.647 87.36,18.707 85.86,17.747 84.24,16.787 82.56,15.887 82.62,15.887 
	80.88,15.047 79.08,14.267 77.22,13.547 75.3,12.887 73.32,12.227 71.28,11.687 69.18,11.147 64.86,10.307 64.92,10.307 
	62.7,10.007 60.42,9.767 58.14,9.587 55.8,9.467 51.06,9.467 48.72,9.587 48.78,9.587 46.44,9.767 44.16,10.007 41.94,10.307 
	37.62,11.147 35.52,11.687 33.48,12.227 33.54,12.227 33.36,11.747 35.4,11.207 37.5,10.667 41.82,9.827 41.88,9.827 44.1,9.527 
	46.38,9.287 48.72,9.107 51.06,8.987 55.8,8.987 58.14,9.107 58.2,9.107 60.48,9.287 62.76,9.527 64.98,9.827 69.3,10.667 
	71.4,11.207 73.44,11.747 73.5,11.747 75.48,12.407 77.4,13.067 77.4,13.127 79.26,13.847 81.06,14.627 82.8,15.467 84.48,16.367 
	86.1,17.327 87.6,18.287 87.66,18.287 89.1,19.367 90.48,20.387 91.8,21.527 93,22.667 93,22.727 94.08,23.927 95.1,25.127 
	95.16,25.127 96.06,26.387 96.9,27.707 97.62,29.027 98.28,30.347 98.28,30.407 98.76,31.787 99.18,33.167 99.48,34.607 
	99.48,34.667 99.66,36.107 99.72,37.547 "/>
<polyline points="33.54,12.227 31.56,12.887 29.64,13.547 27.78,14.267 25.98,15.047 24.24,15.947 22.56,16.787 20.94,17.747 
	19.44,18.707 19.5,18.647 18.06,19.727 16.68,20.747 15.36,21.887 14.16,23.027 13.08,24.227 12.06,25.427 12.12,25.427 
	11.22,26.687 11.22,26.627 10.38,27.947 9.66,29.267 9,30.587 8.52,31.967 8.52,31.907 8.1,33.287 7.8,34.727 7.62,36.167 
	7.62,36.107 7.56,37.547 7.62,38.987 7.8,40.427 7.8,40.367 8.1,41.807 8.52,43.187 9,44.567 9.66,45.947 9.66,45.887 10.38,47.207 
	11.22,48.467 12.12,49.727 12.06,49.727 13.08,50.927 14.16,52.127 14.16,52.067 15.36,53.207 16.68,54.347 18.06,55.427 
	19.5,56.447 19.44,56.447 20.94,57.407 22.56,58.367 24.24,59.267 24.06,59.687 24,59.687 22.32,58.787 20.7,57.827 19.2,56.867 
	17.76,55.847 17.76,55.787 16.38,54.707 15.06,53.567 15,53.567 13.8,52.427 12.72,51.227 11.7,50.027 10.8,48.767 10.8,48.707 
	9.96,47.447 9.24,46.127 8.58,44.747 8.52,44.747 8.04,43.367 8.04,43.307 7.62,41.927 7.32,40.487 7.14,39.047 7.14,38.987 
	7.08,37.547 7.14,36.107 7.32,34.667 7.32,34.607 7.62,33.167 8.04,31.787 8.52,30.407 8.58,30.347 9.24,29.027 9.96,27.707 
	10.8,26.387 11.7,25.127 12.72,23.927 13.8,22.727 13.8,22.667 15,21.527 15.06,21.527 16.38,20.387 17.76,19.367 19.2,18.287 
	20.7,17.327 22.32,16.367 24,15.527 25.74,14.627 25.8,14.627 27.6,13.847 29.46,13.127 29.46,13.067 31.38,12.407 33.36,11.747 "/>
<polyline points="24.24,59.267 25.98,60.107 27.78,60.887 29.64,61.607 31.56,62.327 31.5,62.267 33.48,62.867 35.52,63.407 
	37.62,63.947 41.94,64.787 44.16,65.087 46.44,65.327 48.78,65.507 48.72,65.507 51.06,65.627 53.4,65.687 55.8,65.627 
	58.14,65.507 60.42,65.327 62.7,65.087 64.92,64.787 64.86,64.787 69.18,63.947 71.28,63.407 73.32,62.867 75.3,62.267 75.3,62.327 
	77.22,61.607 79.08,60.887 80.88,60.107 82.62,59.267 82.56,59.267 84.24,58.367 85.86,57.407 87.36,56.447 88.8,55.427 
	90.18,54.347 91.5,53.207 91.44,53.207 92.64,52.067 92.64,52.127 93.72,50.927 94.74,49.727 95.64,48.467 96.48,47.207 
	97.2,45.887 97.2,45.947 97.86,44.567 97.8,44.567 98.28,44.747 97.62,46.127 96.9,47.447 96.06,48.707 96.06,48.767 95.16,50.027 
	95.1,50.027 94.08,51.227 93,52.427 91.8,53.567 90.48,54.707 89.1,55.787 89.1,55.847 87.66,56.867 87.6,56.867 86.1,57.827 
	84.48,58.787 82.8,59.687 81.06,60.527 79.26,61.307 77.4,62.027 75.48,62.747 75.42,62.747 73.44,63.347 71.4,63.887 69.3,64.427 
	64.98,65.267 62.76,65.567 60.48,65.807 58.2,65.987 58.14,65.987 55.8,66.107 53.4,66.167 51.06,66.107 48.72,65.987 46.38,65.807 
	44.1,65.567 41.88,65.267 41.82,65.267 37.5,64.427 35.4,63.887 33.36,63.347 31.38,62.747 29.46,62.027 27.6,61.307 25.8,60.527 
	24.06,59.687 "/>
<polyline points="97.8,44.567 98.28,43.187 98.7,41.807 99,40.367 99,40.427 99.18,38.987 99.24,37.547 99.72,37.547 99.66,38.987 
	99.66,39.047 99.48,40.487 99.18,41.927 98.76,43.307 98.76,43.367 98.28,44.747 "/>
<polyline points="155.94,30.527 155.82,29.447 155.64,28.367 155.7,28.427 155.28,27.347 154.74,26.327 154.08,25.247 
	154.08,25.307 153.3,24.347 152.34,23.327 152.4,23.327 151.32,22.367 150.12,21.407 150.12,21.467 148.8,20.567 147.3,19.667 
	145.74,18.827 144.06,17.987 144.12,17.987 142.32,17.207 140.46,16.427 138.479,15.647 136.38,14.987 134.16,14.327 131.88,13.667 
	129.54,13.067 124.56,11.987 124.62,11.987 119.4,11.087 113.82,10.427 108.06,9.887 102.06,9.527 95.94,9.467 89.76,9.527 
	83.76,9.887 83.82,9.887 78.06,10.427 72.54,11.087 67.26,11.987 62.28,13.067 59.94,13.667 57.66,14.327 55.5,14.987 53.4,15.647 
	53.46,15.647 51.48,16.427 49.56,17.207 47.76,17.987 46.08,18.827 44.52,19.667 44.28,19.247 45.84,18.407 47.52,17.567 
	47.58,17.567 49.38,16.787 51.3,16.007 53.28,15.227 53.28,15.167 55.38,14.507 57.54,13.847 59.82,13.187 62.16,12.587 
	67.14,11.507 67.2,11.507 72.48,10.607 78,9.947 83.76,9.407 89.76,9.047 95.94,8.987 102.06,9.047 108.06,9.407 108.12,9.407 
	113.88,9.947 119.46,10.607 124.68,11.507 129.66,12.587 132,13.187 134.28,13.847 136.5,14.507 138.6,15.167 138.66,15.227 
	140.64,16.007 142.5,16.787 144.3,17.567 145.979,18.407 147.54,19.247 149.04,20.147 149.1,20.147 150.42,21.047 151.62,22.007 
	152.7,22.967 152.7,23.027 153.66,24.047 154.44,25.007 154.5,25.007 155.16,26.087 155.7,27.107 155.7,27.167 156.12,28.247 
	156.12,28.307 156.3,29.387 156.42,30.467 "/>
<polyline points="44.52,19.667 43.08,20.567 43.14,20.567 41.82,21.467 41.82,21.407 40.62,22.367 39.54,23.327 38.58,24.347 
	37.74,25.307 37.8,25.247 37.14,26.327 36.6,27.347 36.24,28.427 36.24,28.367 36,29.447 36,29.387 35.94,30.467 36,31.547 
	36,31.487 36.24,32.567 36.6,33.647 36.6,33.587 37.14,34.607 37.8,35.687 37.74,35.687 38.58,36.647 39.54,37.667 39.54,37.607 
	40.62,38.567 41.82,39.527 43.14,40.427 43.08,40.427 44.52,41.327 46.08,42.167 47.76,43.007 49.56,43.787 51.48,44.567 
	53.46,45.347 53.4,45.287 55.5,45.947 57.66,46.607 59.94,47.267 62.28,47.867 67.26,48.947 72.54,49.787 78.06,50.507 
	83.82,51.047 83.76,51.047 89.76,51.347 95.94,51.467 102.06,51.347 108.06,51.047 113.82,50.507 119.4,49.787 119.46,50.267 
	113.88,50.987 108.12,51.527 108.06,51.527 102.06,51.827 95.94,51.947 89.76,51.827 83.76,51.527 78,50.987 72.48,50.267 
	67.2,49.427 67.14,49.427 62.16,48.347 59.82,47.747 57.54,47.087 55.38,46.427 53.28,45.767 51.3,44.987 49.38,44.207 
	47.58,43.427 47.52,43.427 45.84,42.587 44.28,41.747 42.84,40.847 41.52,39.947 41.52,39.887 40.32,38.927 39.24,37.967 
	39.18,37.967 38.22,36.947 37.38,35.987 37.38,35.927 36.72,34.847 36.18,33.827 36.12,33.827 35.76,32.747 35.76,32.687 
	35.52,31.607 35.52,31.547 35.46,30.467 35.52,29.387 35.52,29.327 35.76,28.247 36.12,27.167 36.18,27.107 36.72,26.087 
	37.38,25.007 38.22,24.047 39.18,23.027 39.24,22.967 40.32,22.007 41.52,21.047 42.84,20.147 44.28,19.247 "/>
<polyline points="119.4,49.787 124.62,48.947 124.56,48.947 129.54,47.867 131.88,47.267 134.16,46.607 136.38,45.947 
	138.479,45.287 138.479,45.347 140.46,44.567 142.32,43.787 144.12,43.007 144.06,43.007 145.74,42.167 147.3,41.327 148.8,40.427 
	150.12,39.527 151.32,38.567 152.4,37.607 152.34,37.667 153.3,36.647 154.08,35.687 154.74,34.607 155.28,33.587 155.28,33.647 
	155.7,32.567 155.64,32.627 155.82,31.547 155.94,30.467 155.94,30.527 156.42,30.467 156.42,30.527 156.3,31.607 156.12,32.687 
	156.12,32.747 155.7,33.827 155.16,34.847 154.5,35.927 154.44,35.987 153.66,36.947 152.7,37.967 151.62,38.927 150.42,39.887 
	150.42,39.947 149.1,40.847 149.04,40.847 147.54,41.747 145.979,42.587 144.3,43.427 142.5,44.207 140.64,44.987 138.66,45.767 
	138.6,45.767 136.5,46.427 134.28,47.087 132,47.747 129.66,48.347 124.68,49.427 119.46,50.267 "/>
<polyline style="fill-rule:evenodd;clip-rule:evenodd;fill:#FFFFFF;" points="92.4,30.467 92.28,29.027 92.1,28.307 91.86,27.587 
	91.62,26.927 90.9,25.607 90.42,24.947 89.94,24.347 89.4,23.687 88.8,23.087 88.14,22.547 86.7,21.467 85.14,20.447 83.34,19.547 
	81.42,18.707 79.38,17.987 77.22,17.387 74.94,16.907 72.6,16.607 70.14,16.367 67.56,16.307 65.04,16.367 62.58,16.607 
	60.18,16.907 57.9,17.387 55.74,17.987 53.7,18.707 51.78,19.547 50.04,20.447 48.42,21.467 46.98,22.547 46.38,23.087 
	45.78,23.687 45.24,24.347 44.7,24.947 43.86,26.267 43.26,27.587 42.9,29.027 42.78,29.747 42.78,31.187 42.9,31.907 43.26,33.347 
	43.86,34.667 44.7,35.987 45.24,36.587 45.78,37.247 46.38,37.787 47.04,38.387 48.42,39.467 50.04,40.487 51.78,41.387 
	53.7,42.227 55.74,42.947 57.9,43.547 60.18,44.027 62.58,44.327 65.04,44.567 67.56,44.627 70.14,44.567 72.6,44.327 74.94,44.027 
	77.22,43.547 79.38,42.947 81.42,42.227 83.34,41.387 85.14,40.487 86.7,39.467 88.14,38.387 88.8,37.787 89.4,37.247 89.94,36.587 
	90.42,35.987 90.9,35.327 91.62,34.007 91.86,33.347 92.1,32.627 92.28,31.907 92.4,30.467 "/>
<polyline points="92.16,30.527 92.04,29.087 91.86,28.367 91.86,28.427 91.62,27.707 91.38,27.047 91.44,27.047 90.72,25.727 
	90.72,25.787 90.24,25.127 89.76,24.527 89.22,23.867 88.62,23.267 88.68,23.267 88.02,22.727 86.58,21.647 86.58,21.707 
	85.02,20.687 83.22,19.787 83.28,19.787 81.36,18.947 79.32,18.227 77.16,17.627 74.88,17.147 74.94,17.147 72.6,16.847 
	70.14,16.607 67.56,16.547 65.04,16.607 65.1,16.607 62.64,16.847 60.24,17.147 57.96,17.627 55.8,18.227 55.86,18.227 
	53.82,18.947 51.9,19.787 50.16,20.687 48.54,21.707 48.6,21.647 47.16,22.727 46.56,23.267 45.96,23.867 45.42,24.527 
	44.88,25.127 44.94,25.067 44.1,26.387 43.5,27.707 43.5,27.647 43.32,28.367 42.84,28.247 43.02,27.527 43.08,27.527 43.68,26.207 
	43.68,26.147 44.52,24.827 45.06,24.227 45.6,23.567 45.6,23.507 46.2,22.907 46.26,22.907 46.86,22.367 48.3,21.287 49.92,20.267 
	51.66,19.367 51.72,19.367 53.64,18.527 53.64,18.467 55.68,17.747 57.84,17.147 60.12,16.667 60.18,16.667 62.58,16.367 
	65.04,16.127 67.56,16.067 70.14,16.127 70.2,16.127 72.66,16.367 75,16.667 77.28,17.147 79.44,17.747 79.5,17.747 81.54,18.467 
	81.54,18.527 83.46,19.367 85.26,20.267 86.82,21.287 86.88,21.287 88.32,22.367 88.98,22.907 89.58,23.507 89.58,23.567 
	90.12,24.227 90.6,24.827 91.08,25.487 91.14,25.487 91.86,26.807 91.86,26.867 92.1,27.527 92.34,28.247 92.52,28.967 
	92.52,29.027 92.64,30.467 "/>
<polyline points="43.32,28.367 43.14,29.087 43.02,29.807 43.02,29.747 43.02,31.187 43.14,31.907 43.14,31.847 43.5,33.287 
	44.1,34.607 44.1,34.547 44.94,35.867 44.88,35.867 45.42,36.467 45.96,37.127 45.96,37.067 46.56,37.607 47.22,38.207 48.6,39.287 
	48.54,39.287 50.16,40.307 51.9,41.207 53.82,42.047 53.82,41.987 55.86,42.707 55.8,42.707 57.96,43.307 60.24,43.787 
	62.64,44.087 65.1,44.327 65.04,44.327 67.56,44.387 70.14,44.327 72.6,44.087 74.94,43.787 74.88,43.787 77.16,43.307 
	79.32,42.707 81.36,41.987 81.36,42.047 83.28,41.207 83.22,41.207 85.02,40.307 86.58,39.287 88.02,38.207 88.68,37.607 
	89.28,37.067 89.22,37.127 89.76,36.467 90.24,35.867 90.72,35.207 91.08,34.547 91.5,34.787 91.14,35.447 91.08,35.507 
	90.6,36.167 90.12,36.767 89.58,37.427 88.98,37.967 88.32,38.567 86.88,39.647 86.82,39.707 85.26,40.727 83.46,41.627 
	81.54,42.467 79.5,43.187 79.44,43.187 77.28,43.787 75,44.267 72.66,44.567 70.2,44.807 70.14,44.807 67.56,44.867 65.04,44.807 
	62.58,44.567 60.18,44.267 60.12,44.267 57.84,43.787 55.68,43.187 53.64,42.467 51.72,41.627 51.66,41.627 49.92,40.727 
	48.3,39.707 48.3,39.647 46.92,38.567 46.26,37.967 45.66,37.427 45.6,37.427 45.06,36.767 44.52,36.167 44.52,36.107 43.68,34.787 
	43.08,33.467 43.02,33.407 42.66,31.967 42.54,31.247 42.54,29.747 42.66,29.027 42.66,28.967 42.84,28.247 "/>
<polyline points="91.08,34.547 91.44,33.887 91.38,33.947 91.62,33.287 91.86,32.567 92.04,31.847 92.04,31.907 92.16,30.467 
	92.16,30.527 92.64,30.467 92.64,30.527 92.52,31.967 92.34,32.687 92.34,32.747 92.1,33.467 91.86,34.127 91.5,34.787 "/>
<text transform="matrix(1 0 0 1 55.6201 32.3872)"><tspan x="0" y="0" style="font-family:'ProductusBook'; font-size:7.98;">u</tspan><tspan x="3.695" y="0" style="font-family:'ProductusBook'; font-size:7.98;">n</tspan><tspan x="7.357" y="0" style="font-family:'ProductusBook'; font-size:7.98;">s</tspan><tspan x="10.19" y="0" style="font-family:'ProductusBook'; font-size:7.98;">ig</tspan><tspan x="15.233" y="0" style="font-family:'ProductusBook'; font-size:7.98;">n</tspan><tspan x="18.952" y="0" style="font-family:'ProductusBook'; font-size:7.98;">e</tspan><tspan x="22.439" y="0" style="font-family:'ProductusBook'; font-size:7.98;">d</tspan></text>
<text transform="matrix(1 0 0 1 21.5396 48.5874)"><tspan x="0" y="0" style="font-family:'ProductusBook'; font-size:7.98;">signed</tspan><tspan x="18.737" y="0" style="font-family:'ProductusBook'; font-size:7.98;"> </tspan><tspan x="20.357" y="0" style="font-family:'ProductusBook'; font-size:7.98;">b</tspan><tspan x="23.963" y="0" style="font-family:'ProductusBook'; font-size:7.98;">y</tspan><tspan x="27.204" y="0" style="font-family:'ProductusBook'; font-size:7.98;"> </tspan></text>
<text transform="matrix(1 0 0 1 56.9399 84.8281)"><tspan x="0" y="0" style="font-family:'ProductusBook'; font-size:7.98;">sig</tspan><tspan x="7.86" y="0" style="font-family:'ProductusBook'; font-size:7.98;">n</tspan><tspan x="11.579" y="0" style="font-family:'ProductusBook'; font-size:7.98;">e</tspan><tspan x="15.082" y="0" style="font-family:'ProductusBook'; font-size:7.98;">d </tspan><tspan x="20.42" y="0" style="font-family:'ProductusBook'; font-size:7.98;">b</tspan><tspan x="24.027" y="0" style="font-family:'ProductusBook'; font-size:7.98;">y</tspan><tspan x="27.211" y="0" style="font-family:'ProductusBook'; font-size:7.98;"> </tspan><tspan x="28.823" y="0" style="font-family:'ProductusBook'; font-size:7.98;">O</tspan><tspan x="34.05" y="0" style="font-family:'ProductusBook'; font-size:7.98;">p</tspan><tspan x="37.769" y="0" style="font-family:'ProductusBook'; font-size:7.98;">era</tspan><tspan x="46.85" y="0" style="font-family:'ProductusBook'; font-size:7.98;">t</tspan><tspan x="49.244" y="0" style="font-family:'ProductusBook'; font-size:7.98;">or</tspan></text>
<text transform="matrix(1 0 0 1 27.2397 58.3677)"><tspan x="0" y="0" style="font-family:'ProductusBook'; font-size:7.98;">A</tspan><tspan x="3.846" y="0" style="font-family:'ProductusBook'; font-size:7.98;">C</tspan><tspan x="8.228" y="0" style="font-family:'ProductusBook'; font-size:7.98;">M</tspan><tspan x="14.165" y="0" style="font-family:'ProductusBook'; font-size:7.98;">E</tspan></text>
<text transform="matrix(1 0 0 1 106.1396 30.7681)"><tspan x="0" y="0" style="font-family:'ProductusBook'; font-size:7.98;">signed</tspan><tspan x="18.736" y="0" style="font-family:'ProductusBook'; font-size:7.98;"> </tspan><tspan x="20.301" y="0" style="font-family:'ProductusBook'; font-size:7.98;">b</tspan><tspan x="23.908" y="0" style="font-family:'ProductusBook'; font-size:7.98;">y</tspan><tspan x="27.14" y="0" style="font-family:'ProductusBook'; font-size:7.98;"> </tspan></text>
<text transform="matrix(1 0 0 1 111.8398 40.4878)"><tspan x="0" y="0" style="font-family:'ProductusBook'; font-size:7.98;">D</tspan><tspan x="4.804" y="0" style="font-family:'ProductusBook'; font-size:7.98;">a</tspan><tspan x="8.164" y="0" style="font-family:'ProductusBook'; font-size:7.98;">f</tspan><tspan x="9.967" y="0" style="font-family:'ProductusBook'; font-size:7.98;">fy</tspan></text>
<polyline style="fill-rule:evenodd;clip-rule:evenodd;fill:#FFFFFF;" points="239.46,5.147 239.4,4.547 239.28,3.947 239.16,3.467 
	238.92,2.987 238.68,2.627 238.38,2.327 238.02,2.207 237.66,2.087 237.3,2.207 237,2.327 236.7,2.627 236.4,2.987 236.04,3.947 
	235.92,4.547 235.92,5.747 236.04,6.347 236.4,7.307 236.7,7.667 237,7.967 237.3,8.147 237.66,8.207 238.02,8.147 238.38,7.967 
	238.68,7.667 238.92,7.307 239.16,6.827 239.28,6.347 239.4,5.747 239.46,5.147 "/>
<polyline points="239.22,5.207 239.16,4.607 239.04,4.007 238.92,3.527 238.979,3.587 238.74,3.107 238.5,2.747 238.5,2.807 
	238.2,2.507 238.32,2.567 237.6,2.327 237.78,2.327 237.42,2.447 237.12,2.567 237.18,2.507 236.88,2.807 236.58,3.167 
	236.64,3.107 236.28,4.067 236.28,4.007 236.16,4.607 236.16,4.547 236.16,5.747 236.16,5.687 236.28,6.287 236.64,7.247 
	236.58,7.187 236.88,7.547 236.88,7.487 237.18,7.787 237.12,7.787 237.42,7.967 237.36,7.907 237.72,7.967 237.66,7.967 
	238.02,7.907 237.9,7.967 238.26,7.787 238.2,7.787 238.5,7.487 238.5,7.547 238.74,7.187 238.979,6.707 238.92,6.767 239.04,6.287 
	239.16,5.687 239.16,5.747 239.22,5.147 239.7,5.207 239.64,5.807 239.52,6.407 239.4,6.887 239.4,6.947 239.16,7.427 238.92,7.787 
	238.56,8.147 238.5,8.207 238.14,8.387 238.08,8.387 237.72,8.447 237.66,8.447 237.3,8.387 237.18,8.387 236.88,8.207 
	236.52,7.847 236.22,7.487 236.22,7.427 235.86,6.467 235.8,6.407 235.68,5.807 235.68,4.487 235.8,3.887 235.86,3.887 
	236.22,2.927 236.22,2.867 236.52,2.507 236.52,2.447 236.82,2.147 236.94,2.147 237.24,2.027 237.24,1.967 237.6,1.847 
	237.78,1.847 238.5,2.087 238.56,2.147 238.92,2.507 239.16,2.867 239.4,3.347 239.4,3.407 239.52,3.887 239.64,4.487 239.64,4.547 
	239.7,5.147 "/>
<polyline points="239.22,5.147 239.22,5.207 239.7,5.147 239.7,5.207 "/>
<rect x="237.42" y="7.967" width="0.48" height="9.6"/>
<polyline points="237.9,17.207 237.78,17.027 237.36,17.267 237.479,17.447 "/>
<polyline points="241.44,23.267 241.56,23.447 241.14,23.687 241.02,23.507 "/>
<polyline points="237.9,17.207 237.479,17.447 241.02,23.507 241.44,23.267 "/>
<polyline points="237.9,17.447 238.02,17.267 237.6,17.027 237.479,17.207 "/>
<polyline points="234.36,23.507 234.24,23.687 233.82,23.447 233.94,23.267 "/>
<polyline points="237.9,17.447 237.479,17.207 233.94,23.267 234.36,23.507 "/>
<rect x="233.88" y="10.967" width="7.561" height="0.48"/>
<polyline style="fill-rule:evenodd;clip-rule:evenodd;fill:#FFFFFF;" points="239.46,61.847 239.4,61.247 239.28,60.647 
	239.16,60.167 238.92,59.687 238.68,59.327 238.38,59.027 238.02,58.847 237.66,58.787 237.3,58.847 237,59.027 236.7,59.327 
	236.4,59.687 236.04,60.647 235.92,61.247 235.92,62.447 236.04,63.047 236.4,64.007 236.7,64.367 237,64.667 237.3,64.847 
	237.66,64.907 238.02,64.847 238.38,64.667 238.68,64.367 238.92,64.007 239.16,63.527 239.28,63.047 239.4,62.447 239.46,61.847 
	"/>
<polyline points="239.22,61.907 239.16,61.307 239.04,60.707 238.92,60.227 238.979,60.287 238.74,59.807 238.5,59.447 
	238.5,59.507 238.2,59.207 238.26,59.267 237.9,59.087 238.02,59.087 237.66,59.027 237.72,59.027 237.36,59.087 237.42,59.087 
	237.12,59.267 237.18,59.207 236.88,59.507 236.58,59.867 236.64,59.807 236.28,60.767 236.28,60.707 236.16,61.307 236.16,61.247 
	236.16,62.447 236.16,62.387 236.28,62.987 236.64,63.947 236.58,63.887 236.88,64.247 236.88,64.187 237.18,64.487 237.12,64.487 
	237.42,64.667 237.36,64.607 237.72,64.667 237.66,64.667 238.02,64.607 237.9,64.667 238.26,64.487 238.2,64.487 238.5,64.187 
	238.5,64.247 238.74,63.887 238.979,63.407 238.92,63.467 239.04,62.987 239.16,62.387 239.16,62.447 239.22,61.847 239.7,61.907 
	239.64,62.507 239.52,63.107 239.4,63.587 239.4,63.647 239.16,64.127 238.92,64.487 238.56,64.847 238.5,64.907 238.14,65.087 
	238.08,65.087 237.72,65.147 237.66,65.147 237.3,65.087 237.18,65.087 236.88,64.907 236.52,64.547 236.22,64.187 236.22,64.127 
	235.86,63.167 235.8,63.107 235.68,62.507 235.68,61.187 235.8,60.587 235.86,60.587 236.22,59.627 236.22,59.567 236.52,59.207 
	236.52,59.147 236.82,58.847 236.88,58.847 237.18,58.667 237.3,58.607 237.66,58.547 237.72,58.547 238.08,58.607 238.14,58.667 
	238.5,58.847 238.56,58.847 238.92,59.207 239.16,59.567 239.4,60.047 239.4,60.107 239.52,60.587 239.64,61.187 239.64,61.247 
	239.7,61.847 "/>
<polyline points="239.22,61.847 239.22,61.907 239.7,61.847 239.7,61.907 "/>
<rect x="237.42" y="64.667" width="0.48" height="9.6"/>
<polyline points="237.9,73.907 237.78,73.727 237.36,73.967 237.479,74.147 "/>
<polyline points="241.44,79.967 241.56,80.147 241.14,80.387 241.02,80.207 "/>
<polyline points="237.9,73.907 237.479,74.147 241.02,80.207 241.44,79.967 "/>
<polyline points="237.9,74.147 238.02,73.967 237.6,73.727 237.479,73.907 "/>
<polyline points="234.36,80.207 234.24,80.387 233.82,80.147 233.94,79.967 "/>
<polyline points="237.9,74.147 237.479,73.907 233.94,79.967 234.36,80.207 "/>
<rect x="233.88" y="67.667" width="7.561" height="0.48"/>
<polyline style="fill-rule:evenodd;clip-rule:evenodd;fill:#FFFFFF;" points="296.16,33.527 296.1,32.867 295.979,32.327 
	295.8,31.787 295.62,31.367 295.32,31.007 295.02,30.707 294.72,30.527 294.36,30.467 294,30.527 293.64,30.707 293.34,31.007 
	293.1,31.367 292.86,31.787 292.62,32.867 292.56,33.527 292.62,34.127 292.86,35.207 293.34,36.047 293.64,36.287 294,36.467 
	294.36,36.527 294.72,36.467 295.02,36.287 295.32,36.047 295.62,35.627 295.8,35.207 295.979,34.667 296.1,34.127 296.16,33.527 
	"/>
<polyline points="295.92,33.587 295.86,32.927 295.74,32.387 295.74,32.447 295.56,31.907 295.62,31.907 295.44,31.487 
	295.44,31.547 295.14,31.187 294.84,30.887 294.9,30.947 294.6,30.767 294.72,30.767 294.36,30.707 294.42,30.707 294.06,30.767 
	294.12,30.767 293.76,30.947 293.82,30.887 293.52,31.187 293.58,31.127 293.34,31.487 293.1,31.907 293.1,31.847 292.86,32.927 
	292.8,33.587 292.8,33.527 292.86,34.127 292.86,34.067 293.1,35.147 293.1,35.087 293.58,35.927 293.52,35.867 293.82,36.107 
	293.76,36.107 294.12,36.287 294.06,36.227 294.42,36.287 294.36,36.287 294.72,36.227 294.6,36.287 294.9,36.107 295.2,35.867 
	295.14,35.927 295.44,35.507 295.44,35.567 295.62,35.147 295.56,35.147 295.74,34.607 295.86,34.067 295.86,34.127 295.92,33.527 
	296.4,33.587 296.34,34.187 296.22,34.727 296.22,34.787 296.04,35.327 295.86,35.747 295.86,35.807 295.56,36.227 295.5,36.227 
	295.2,36.467 295.14,36.527 294.84,36.707 294.78,36.707 294.42,36.767 294.36,36.767 294,36.707 293.88,36.707 293.52,36.527 
	293.52,36.467 293.22,36.227 293.16,36.167 292.68,35.327 292.62,35.267 292.38,34.187 292.32,33.587 292.32,33.527 292.38,32.867 
	292.38,32.807 292.62,31.727 292.68,31.667 292.92,31.247 293.16,30.887 293.16,30.827 293.46,30.527 293.52,30.527 294,30.287 
	294.36,30.227 294.42,30.227 294.78,30.287 294.84,30.347 295.14,30.527 295.2,30.527 295.5,30.827 295.5,30.887 295.8,31.247 
	295.86,31.307 296.04,31.727 296.22,32.267 296.34,32.807 296.34,32.867 296.4,33.527 "/>
<polyline points="295.92,33.527 295.92,33.587 296.4,33.527 296.4,33.587 "/>
<rect x="294.12" y="36.287" width="0.479" height="9.6"/>
<polyline points="294.6,45.527 294.479,45.347 294.06,45.587 294.18,45.767 "/>
<polyline points="298.14,51.587 298.26,51.767 297.84,52.007 297.72,51.827 "/>
<polyline points="294.6,45.527 294.18,45.767 297.72,51.827 298.14,51.587 "/>
<polyline points="294.6,45.767 294.72,45.587 294.3,45.347 294.18,45.527 "/>
<polyline points="291.06,51.827 290.94,52.007 290.52,51.767 290.64,51.587 "/>
<polyline points="294.6,45.767 294.18,45.527 290.64,51.587 291.06,51.827 "/>
<rect x="290.58" y="39.347" width="7.56" height="0.48"/>
<polyline points="145.44,19.487 147.06,20.927 147.78,21.467 146.88,21.767 142.8,23.087 141.96,23.387 142.14,22.487 
	143.22,17.447 143.88,18.047 144.06,18.527 143.16,22.727 142.14,22.487 142.5,22.127 146.58,20.807 146.88,21.767 146.4,21.707 
	144.78,20.267 "/>
<polyline points="143.88,18.047 145.44,19.487 144.78,20.267 143.22,18.827 "/>
<polyline style="fill-rule:evenodd;clip-rule:evenodd;" points="145.14,19.847 146.76,21.287 142.68,22.607 143.58,18.407 "/>
<polyline points="145.32,19.307 146.16,18.467 146.22,18.467 147.3,17.687 147.54,18.107 147.6,18.047 146.52,18.827 145.68,19.667 
	"/>
<polyline points="147.3,17.687 148.5,16.907 148.74,17.327 147.54,18.107 "/>
<polyline points="148.5,16.907 148.74,17.327 149.04,17.147 148.8,16.727 "/>
<polyline points="154.86,14.327 156.9,13.727 157.02,14.207 154.979,14.807 "/>
<polyline points="156.9,13.727 161.22,12.767 161.28,12.767 161.34,13.247 157.02,14.207 "/>
<polyline points="161.28,12.767 161.34,13.247 163.32,12.887 163.26,12.407 "/>
<polyline points="169.68,11.447 171.42,11.207 171.479,11.687 169.74,11.927 "/>
<polyline points="171.42,11.207 177.12,10.607 177.12,11.087 177.18,11.087 171.479,11.687 "/>
<polyline points="177.12,10.607 177.12,11.087 178.2,11.027 178.2,10.547 "/>
<polyline points="184.68,10.067 184.68,10.547 189.78,10.247 189.78,9.767 "/>
<polyline points="189.78,9.767 189.78,10.247 193.26,10.127 193.26,9.647 "/>
<polyline points="199.68,9.407 199.68,9.887 203.64,9.767 203.64,9.287 "/>
<polyline points="203.64,9.287 203.64,9.767 208.32,9.647 208.32,9.167 "/>
<polyline points="214.74,9.107 214.74,9.587 218.58,9.527 218.58,9.047 "/>
<polyline points="218.58,9.047 218.58,9.527 223.38,9.467 223.38,8.987 "/>
<rect x="229.8" y="8.987" width="4.32" height="0.48"/>
<polyline points="68.1,61.967 66.78,63.707 66.3,64.427 65.94,63.527 64.32,59.567 63.9,58.727 64.86,58.907 69.12,59.447 
	70.02,59.507 69.42,60.287 69,60.467 64.74,59.927 64.86,58.907 65.28,59.207 66.9,63.167 65.94,63.527 66,63.047 67.32,61.367 "/>
<polyline points="69.42,60.287 68.1,61.967 67.32,61.367 68.64,59.687 "/>
<polyline style="fill-rule:evenodd;clip-rule:evenodd;" points="67.74,61.667 66.42,63.407 64.8,59.447 69.06,59.987 "/>
<rect x="222.9" y="72.767" width="4.14" height="0.48"/>
<rect x="208.32" y="72.707" width="8.279" height="0.48"/>
<rect x="198.54" y="72.707" width="3.54" height="0.48"/>
<rect x="193.74" y="72.707" width="4.8" height="0.48"/>
<polyline points="187.5,73.127 187.5,72.647 179.16,72.587 179.16,73.067 "/>
<polyline points="172.92,73.067 172.92,72.587 171.54,72.527 171.54,73.007 "/>
<polyline points="171.54,73.007 171.54,72.527 164.64,72.407 164.64,72.887 "/>
<polyline points="158.4,72.827 158.4,72.347 150.06,72.167 150.06,72.647 "/>
<polyline points="143.82,72.527 143.82,72.047 135.479,71.807 135.479,72.287 "/>
<polyline points="129.24,72.047 129.24,71.567 123.84,71.327 123.84,71.807 "/>
<polyline points="123.84,71.807 123.84,71.327 120.96,71.147 120.96,71.627 "/>
<polyline points="114.72,71.267 114.72,70.787 113.58,70.727 113.64,70.727 113.58,71.207 "/>
<polyline points="113.58,71.207 113.64,70.727 106.5,70.187 106.44,70.667 "/>
<polyline points="100.2,70.067 100.26,69.587 95.7,69.107 95.64,69.587 "/>
<polyline points="95.64,69.587 95.7,69.107 91.98,68.567 91.92,69.047 "/>
<polyline points="85.74,68.087 81.36,67.247 81.48,66.767 85.86,67.607 "/>
<polyline points="81.36,67.247 78.42,66.587 78.54,66.107 81.48,66.767 "/>
<polyline points="78.42,66.587 78.54,66.107 77.7,65.867 77.58,66.347 "/>
<polyline points="71.64,64.307 71.28,64.127 71.52,63.707 71.88,63.887 "/>
<polyline points="71.28,64.127 69.48,63.227 69.78,62.807 69.72,62.807 71.52,63.707 "/>
<polyline points="69.48,63.227 69.78,62.807 68.34,61.787 68.04,62.207 "/>
<polyline points="168.42,44.627 168.42,47.687 167.64,47.207 163.92,45.047 163.14,44.627 163.979,44.147 167.7,42.047 
	168.42,41.627 168.42,42.527 168.18,42.947 164.46,45.047 163.979,44.147 164.46,44.147 168.18,46.307 167.64,47.207 167.4,46.787 
	167.4,44.627 "/>
<rect x="167.4" y="42.527" width="1.02" height="2.1"/>
<polyline style="fill-rule:evenodd;clip-rule:evenodd;" points="167.94,44.627 167.94,46.787 164.22,44.627 167.94,42.527 "/>
<rect x="168.18" y="44.387" width="4.261" height="0.48"/>
<rect x="178.26" y="44.387" width="7.74" height="0.48"/>
<rect x="191.82" y="44.387" width="7.739" height="0.48"/>
<rect x="205.38" y="44.387" width="7.74" height="0.48"/>
<rect x="218.94" y="44.387" width="7.8" height="0.48"/>
<rect x="232.56" y="44.387" width="7.74" height="0.48"/>
<rect x="246.12" y="44.387" width="7.74" height="0.48"/>
<rect x="259.68" y="44.387" width="7.74" height="0.48"/>
<rect x="273.24" y="44.387" width="7.739" height="0.48"/>
<rect x="286.8" y="44.387" width="4.26" height="0.48"/>
<polyline points="245.82,18.647 244.86,20.567 244.44,21.347 243.96,20.567 241.62,16.967 241.14,16.247 242.1,16.187 
	246.36,15.947 247.2,15.887 246.78,16.727 246.36,16.967 242.1,17.207 242.1,16.187 242.52,16.427 244.86,20.027 243.96,20.567 
	243.96,20.087 244.92,18.167 "/>
<polyline points="246.78,16.727 245.82,18.647 244.92,18.167 245.88,16.247 "/>
<polyline style="fill-rule:evenodd;clip-rule:evenodd;" points="245.4,18.407 244.44,20.327 242.1,16.727 246.36,16.487 "/>
<polyline points="283.62,37.787 283.8,37.907 284.04,37.487 283.86,37.367 "/>
<polyline points="280.26,36.107 280.08,35.987 280.32,35.567 280.5,35.687 "/>
<polyline points="283.62,37.787 283.86,37.367 280.5,35.687 280.26,36.107 "/>
<polyline style="fill-rule:evenodd;clip-rule:evenodd;" points="274.38,33.167 274.56,33.287 274.8,32.867 274.62,32.747 "/>
<polyline style="fill-rule:evenodd;clip-rule:evenodd;" points="267.6,29.807 267.42,29.687 267.66,29.267 267.84,29.387 "/>
<polyline style="fill-rule:evenodd;clip-rule:evenodd;" points="274.38,33.167 274.62,32.747 267.84,29.387 267.6,29.807 "/>
<polyline style="fill-rule:evenodd;clip-rule:evenodd;" points="261.72,26.867 261.9,26.987 262.14,26.567 261.96,26.447 "/>
<polyline style="fill-rule:evenodd;clip-rule:evenodd;" points="254.94,23.447 254.76,23.327 255,22.907 255.18,23.027 "/>
<polyline style="fill-rule:evenodd;clip-rule:evenodd;" points="261.72,26.867 261.96,26.447 255.18,23.027 254.94,23.447 "/>
<polyline points="249.06,20.507 249.24,20.627 249.479,20.207 249.3,20.087 "/>
<polyline points="245.76,18.827 245.58,18.707 245.82,18.287 246,18.407 "/>
<polyline points="249.06,20.507 249.3,20.087 246,18.407 245.76,18.827 "/>
<polyline points="245.82,70.667 246.78,72.527 247.14,73.307 246.36,73.247 242.1,73.007 241.14,73.007 241.68,72.227 
	244.02,68.687 244.44,67.967 244.86,68.747 244.86,69.227 242.52,72.767 241.68,72.227 242.1,71.987 246.36,72.227 246.36,73.247 
	245.88,73.007 244.92,71.147 "/>
<polyline points="244.86,68.747 245.82,70.667 244.92,71.147 243.96,69.227 "/>
<polyline style="fill-rule:evenodd;clip-rule:evenodd;" points="245.4,70.907 246.36,72.767 242.1,72.527 244.44,68.987 "/>
<polyline points="283.86,51.947 284.04,51.827 283.8,51.407 283.62,51.527 "/>
<polyline points="280.5,53.627 280.32,53.747 280.08,53.327 280.26,53.207 "/>
<polyline points="283.86,51.947 283.62,51.527 280.26,53.207 280.5,53.627 "/>
<polyline style="fill-rule:evenodd;clip-rule:evenodd;" points="274.62,56.567 274.8,56.447 274.56,56.027 274.38,56.147 "/>
<polyline style="fill-rule:evenodd;clip-rule:evenodd;" points="267.84,59.987 267.66,60.107 267.42,59.687 267.6,59.567 "/>
<polyline style="fill-rule:evenodd;clip-rule:evenodd;" points="274.62,56.567 274.38,56.147 267.6,59.567 267.84,59.987 "/>
<polyline style="fill-rule:evenodd;clip-rule:evenodd;" points="261.96,62.927 262.14,62.807 261.9,62.387 261.72,62.507 "/>
<polyline style="fill-rule:evenodd;clip-rule:evenodd;" points="255.18,66.287 255,66.407 254.76,65.987 254.94,65.867 "/>
<polyline style="fill-rule:evenodd;clip-rule:evenodd;" points="261.96,62.927 261.72,62.507 254.94,65.867 255.18,66.287 "/>
<polyline points="249.3,69.227 249.479,69.107 249.24,68.687 249.06,68.807 "/>
<polyline points="246,70.907 245.82,71.027 245.58,70.607 245.76,70.487 "/>
<polyline points="249.3,69.227 249.06,68.807 245.76,70.487 246,70.907 "/>
<text transform="matrix(1 0 0 1 262.0195 24.5874)"><tspan x="0" y="0" style="font-family:'ProductusBook'; font-size:7.98;">s</tspan><tspan x="2.817" y="0" style="font-family:'ProductusBook'; font-size:7.98;">e</tspan><tspan x="6.352" y="0" style="font-family:'ProductusBook'; font-size:7.98;">nd</tspan><tspan x="13.726" y="0" style="font-family:'ProductusBook'; font-size:7.98;"> </tspan><tspan x="15.289" y="0" style="font-family:'ProductusBook'; font-size:7.98;">certi</tspan><tspan x="28.089" y="0" style="font-family:'ProductusBook'; font-size:7.98;">f</tspan><tspan x="30.013" y="0" style="font-family:'ProductusBook'; font-size:7.98;">icate</tspan></text>
<text transform="matrix(1 0 0 1 269.5801 63.5273)"><tspan x="0" y="0" style="font-family:'ProductusBook'; font-size:7.98;">se</tspan><tspan x="6.32" y="0" style="font-family:'ProductusBook'; font-size:7.98;">n</tspan><tspan x="10.039" y="0" style="font-family:'ProductusBook'; font-size:7.98;">d</tspan><tspan x="13.701" y="0" style="font-family:'ProductusBook'; font-size:7.98;"> </tspan><tspan x="15.313" y="0" style="font-family:'ProductusBook'; font-size:7.98;">c</tspan><tspan x="18.313" y="0" style="font-family:'ProductusBook'; font-size:7.98;">e</tspan><tspan x="21.849" y="0" style="font-family:'ProductusBook'; font-size:7.98;">r</tspan><tspan x="24.075" y="0" style="font-family:'ProductusBook'; font-size:7.98;">t</tspan><tspan x="26.47" y="0" style="font-family:'ProductusBook'; font-size:7.98;">i</tspan><tspan x="28.033" y="0" style="font-family:'ProductusBook'; font-size:7.98;">f</tspan><tspan x="29.956" y="0" style="font-family:'ProductusBook'; font-size:7.98;">icate</tspan></text>
<text transform="matrix(1 0 0 1 233.9404 41.4473)"><tspan x="0" y="0" style="font-family:'ProductusBook'; font-size:7.98;">s</tspan><tspan x="2.817" y="0" style="font-family:'ProductusBook'; font-size:7.98;">et</tspan><tspan x="8.714" y="0" style="font-family:'ProductusBook'; font-size:7.98;"> </tspan><tspan x="10.334" y="0" style="font-family:'ProductusBook'; font-size:7.98;">s</tspan><tspan x="13.159" y="0" style="font-family:'ProductusBook'; font-size:7.98;">y</tspan><tspan x="16.375" y="0" style="font-family:'ProductusBook'; font-size:7.98;">s</tspan><tspan x="19.247" y="0" style="font-family:'ProductusBook'; font-size:7.98;">t</tspan><tspan x="21.594" y="0" style="font-family:'ProductusBook'; font-size:7.98;">em</tspan></text>
<text transform="matrix(1 0 0 1 233.9404 51.167)" style="font-family:'ProductusBook'; font-size:7.98;">permissions</text>
<text transform="matrix(1 0 0 1 244.0801 6.6475)"><tspan x="0" y="0" style="font-family:'ProductusBook'; font-size:7.98;">D</tspan><tspan x="4.804" y="0" style="font-family:'ProductusBook'; font-size:7.98;">a</tspan><tspan x="8.163" y="0" style="font-family:'ProductusBook'; font-size:7.98;">f</tspan><tspan x="9.967" y="0" style="font-family:'ProductusBook'; font-size:7.98;">f</tspan><tspan x="12.002" y="0" style="font-family:'ProductusBook'; font-size:7.98;">y</tspan><tspan x="15.186" y="0" style="font-family:'ProductusBook'; font-size:7.98;"> </tspan><tspan x="16.798" y="0" style="font-family:'ProductusBook'; font-size:7.98;">I</tspan><tspan x="18.417" y="0" style="font-family:'ProductusBook'; font-size:7.98;">n</tspan><tspan x="22.08" y="0" style="font-family:'ProductusBook'; font-size:7.98;">c</tspan><tspan x="25.2" y="0" style="font-family:'ProductusBook'; font-size:7.98;">.</tspan></text>
<text transform="matrix(1 0 0 1 242.9395 84.8276)"><tspan x="0" y="0" style="font-family:'ProductusBook'; font-size:7.98;">A</tspan><tspan x="3.847" y="0" style="font-family:'ProductusBook'; font-size:7.98;">C</tspan><tspan x="8.283" y="0" style="font-family:'ProductusBook'; font-size:7.98;">M</tspan><tspan x="14.164" y="0" style="font-family:'ProductusBook'; font-size:7.98;">E</tspan></text>
<text transform="matrix(1 0 0 1 177.4199 80.3877)"><tspan x="0" y="0" style="font-family:'ProductusBook'; font-size:7.98;">sign</tspan><tspan x="11.571" y="0" style="font-family:'ProductusBook'; font-size:7.98;"> </tspan><tspan x="13.135" y="0" style="font-family:'ProductusBook'; font-size:7.98;">&amp;</tspan><tspan x="18.026" y="0" style="font-family:'ProductusBook'; font-size:7.98;"> </tspan><tspan x="19.639" y="0" style="font-family:'ProductusBook'; font-size:7.98;">depl</tspan><tspan x="32.127" y="0" style="font-family:'ProductusBook'; font-size:7.98;">o</tspan><tspan x="35.79" y="0" style="font-family:'ProductusBook'; font-size:7.98;">y</tspan></text>
<text transform="matrix(1 0 0 1 177.4199 16.6074)"><tspan x="0" y="0" style="font-family:'ProductusBook'; font-size:7.98;">sign</tspan><tspan x="11.571" y="0" style="font-family:'ProductusBook'; font-size:7.98;"> </tspan><tspan x="13.135" y="0" style="font-family:'ProductusBook'; font-size:7.98;">&amp;</tspan><tspan x="18.026" y="0" style="font-family:'ProductusBook'; font-size:7.98;"> </tspan><tspan x="19.639" y="0" style="font-family:'ProductusBook'; font-size:7.98;">depl</tspan><tspan x="32.127" y="0" style="font-family:'ProductusBook'; font-size:7.98;">o</tspan><tspan x="35.79" y="0" style="font-family:'ProductusBook'; font-size:7.98;">y</tspan></text>
<text transform="matrix(1 0 0 1 56.9404 96.8271)"><tspan x="0" y="0" style="font-family:'ProductusBook'; font-size:7.98;">sand</tspan><tspan x="13.534" y="0" style="font-family:'ProductusBook'; font-size:7.98;">b</tspan><tspan x="17.197" y="0" style="font-family:'ProductusBook'; font-size:7.98;">o</tspan><tspan x="21.035" y="0" style="font-family:'ProductusBook'; font-size:7.98;">xe</tspan><tspan x="27.586" y="0" style="font-family:'ProductusBook'; font-size:7.98;">s</tspan></text>
</svg>
