<?xml version="1.0" encoding="utf-8"?>
<!-- Generator: Adobe Illustrator 16.0.1, SVG Export Plug-In . SVG Version: 6.00 Build 0)  -->
<!DOCTYPE svg PUBLIC "-//W3C//DTD SVG 1.1//EN" "http://www.w3.org/Graphics/SVG/1.1/DTD/svg11.dtd">
<svg version="1.1" id="Layer_1" xmlns="http://www.w3.org/2000/svg" xmlns:xlink="http://www.w3.org/1999/xlink" x="0px" y="0px"
	 width="234.043px" height="128.04px" viewBox="0 0 234.043 128.04" enable-background="new 0 0 234.043 128.04"
	 xml:space="preserve">
<polyline fill="#F7F7F7" points="7.26,49.86 35.64,49.86 56.88,21.54 85.26,21.54 106.5,49.86 134.82,49.86 134.82,127.799 
	7.26,127.799 "/>
<polyline points="7.26,49.62 35.64,49.62 35.82,50.04 35.46,49.74 56.7,21.42 56.82,21.3 85.32,21.3 85.44,21.42 106.68,49.74 
	106.5,50.1 106.379,50.1 106.32,50.04 85.08,21.72 85.44,21.42 85.26,21.78 56.88,21.78 56.88,21.3 57.06,21.72 35.82,50.04 
	35.76,50.1 7.26,50.1 "/>
<rect x="106.5" y="49.62" width="28.561" height="0.48"/>
<rect x="134.581" y="49.86" width="0.479" height="78.18"/>
<rect x="7.02" y="127.56" width="127.8" height="0.479"/>
<rect x="7.02" y="49.62" width="0.48" height="78.179"/>
<polyline fill="#E6E6E6" points="141.959,3.78 141.84,3.6 141.54,3.42 140.52,3.06 138.72,2.76 136.379,2.4 133.379,2.1 129.84,1.8 
	121.2,1.32 110.7,0.84 98.64,0.54 85.32,0.3 71.04,0.24 56.76,0.3 43.5,0.54 31.44,0.84 20.94,1.32 12.3,1.8 8.76,2.1 5.76,2.4 
	3.36,2.76 1.62,3.06 0.54,3.42 0.3,3.6 0.18,3.78 0.3,3.96 0.54,4.14 1.62,4.5 3.36,4.86 5.76,5.16 8.76,5.46 12.3,5.76 20.94,6.3 
	31.44,6.72 43.5,7.08 56.76,7.26 71.04,7.32 85.32,7.26 98.64,7.08 110.7,6.72 121.2,6.3 129.84,5.76 133.379,5.46 136.379,5.16 
	138.72,4.86 140.52,4.5 141.54,4.14 141.84,3.96 141.959,3.78 "/>
<path d="M141.78,3.9l-0.119-0.18l0.061,0.12l-0.301-0.18h0.061l-1.021-0.36h0.062l-1.8-0.3l-2.342-0.36l-3-0.3l-3.539-0.3
	L121.2,1.56l-10.5-0.48l-12.06-0.3L85.32,0.54L71.04,0.48L56.76,0.54L43.5,0.78l-12.06,0.3l-10.5,0.48L12.3,2.04h0.06l-3.54,0.3
	l-3,0.3L3.42,3L1.68,3.3h0.06L0.66,3.66L0.72,3.6L0.48,3.78L0.54,3.72L0.42,3.9V3.66l0.12,0.18L0.48,3.78l0.24,0.18L0.66,3.9
	l1.08,0.36H1.68l1.74,0.36l2.4,0.3l3,0.3l3.54,0.3H12.3l8.64,0.54c33.177,1.415,67.083,1.414,100.26,0l8.641-0.54L129.9,6h-0.06
	L121.2,6.54l-10.5,0.42C78.224,7.865,44.73,8.018,12.3,6L8.76,5.7l-3-0.3l-2.4-0.3H3.3L1.56,4.74L0.48,4.38L0.42,4.32L0.18,4.14
	L0.12,4.08L0,3.9V3.66l0.12-0.18l0.06-0.06l0.24-0.18l0.06-0.06l1.08-0.36h0.06l1.74-0.3l2.4-0.36l3-0.3l3.54-0.3l8.64-0.48
	l10.5-0.48L43.5,0.3l13.26-0.24L71.04,0c21.763,0.325,46.092-0.121,67.74,2.52l1.801,0.3h0.061l1.02,0.36v0.06l0.301,0.18
	l0.119,0.06l0.121,0.18"/>
<polyline points="129.84,5.52 133.379,5.22 136.379,4.92 138.72,4.62 138.661,4.62 140.459,4.26 141.48,3.9 141.418,3.96 
	141.72,3.78 141.661,3.84 141.78,3.66 141.78,3.9 142.2,3.66 142.2,3.9 142.081,4.08 141.959,4.2 141.661,4.38 140.64,4.74 
	140.581,4.74 138.78,5.1 136.44,5.4 133.44,5.7 129.9,6 "/>
<text transform="matrix(1 0 0 1 185.1597 7.2007)" font-family="'ProductusBook'" font-size="7.98">Network</text>
<path fill="#B3B3B3" d="M85.26,32.16l-0.12-0.36l-0.18-0.36c-3.293-3.746-25.412-3.91-28.02,0.36l-0.06,0.36l0.06,0.36
	c2.873,4.281,24.549,4.061,28.02,0.36l0.18-0.36L85.26,32.16"/>
<path d="M85.02,32.28l-0.12-0.36h0.06l-0.18-0.36v0.06l-0.36-0.36l0.06,0.06L84,31.02l-0.6-0.3h0.06l-0.72-0.3L81,29.88l-2.1-0.42
	h0.06l-2.4-0.36l-2.64-0.18l-2.88-0.06l-2.82,0.06h0.06l-2.7,0.18l-2.4,0.36l-2.1,0.42l-1.68,0.54h0.06l-0.72,0.3l-0.6,0.3
	l-0.48,0.3l0.06-0.06l-0.36,0.36l0.06-0.06l-0.24,0.36v-0.06l-0.06,0.36v-0.06l0.06,0.36V32.4l0.24,0.36l-0.06-0.06l0.36,0.3
	l0.48,0.36h-0.06l0.6,0.3l0.72,0.3L59.4,33.9l1.68,0.48l2.1,0.48l2.4,0.3l2.7,0.24h-0.06l2.82,0.06l2.88-0.06l2.64-0.24l2.4-0.3
	H78.9l2.1-0.48l1.74-0.48v0.06l0.72-0.3H83.4l0.6-0.3L84.48,33l0.3,0.36l-0.48,0.36l-0.06,0.061c-2.759,1.454-7.248,1.871-10.26,2.1
	h-0.06l-2.88,0.06c-3.874-0.026-8.828-0.336-12.48-1.86H58.5l-0.6-0.3V33.72l-0.48-0.36l-0.36-0.3c-0.224-0.251-0.461-0.54-0.42-0.9
	l0.06-0.36l0.06-0.12c0.441-0.855,0.885-0.926,1.74-1.38h0.06l0.72-0.3v-0.06l1.68-0.54l2.1-0.42c4.71-0.809,11.179-0.835,15.96,0
	l2.1,0.42l1.74,0.54L82.92,30l0.72,0.3l0.6,0.3l0.48,0.3h0.06l0.42,0.42l0.18,0.36v0.06l0.12,0.36"/>
<polyline points="84.48,33 84.84,32.7 84.78,32.76 84.96,32.4 84.9,32.46 85.02,32.1 85.02,32.28 85.5,32.1 85.5,32.28 85.38,32.64 
	85.2,33 85.14,33.06 84.78,33.36 "/>
<path fill="#B3B3B3" d="M85.26,60.48l-0.12-0.36l-0.18-0.36c-3.327-3.724-25.368-3.894-28.02,0.36l-0.06,0.36l0.06,0.36
	c2.608,4.27,24.727,4.106,28.02,0.36l0.18-0.36L85.26,60.48"/>
<path d="M85.02,60.6l-0.12-0.36h0.06l-0.18-0.36l0.06,0.06l-0.36-0.3L84,59.28v0.06l-0.6-0.3h0.06l-0.72-0.3L81,58.2l-2.1-0.42h0.06
	l-2.4-0.3l-2.64-0.24l-2.88-0.06l-2.82,0.06h0.06l-2.7,0.24l-2.4,0.3l-2.1,0.42l-1.68,0.54h0.06l-0.72,0.3l-0.6,0.3l0.06-0.06
	l-0.48,0.36l-0.36,0.3l0.06-0.06l-0.24,0.36v-0.06l-0.06,0.36v-0.06l0.06,0.36v-0.12l0.24,0.36l-0.06-0.06l0.36,0.36h-0.06l0.48,0.3
	l0.6,0.3l0.72,0.3l-0.06-0.06l1.68,0.54l2.1,0.42l2.4,0.36l2.7,0.18h-0.06l2.82,0.06l2.88-0.06l2.64-0.18l2.4-0.36H78.9l2.1-0.42
	l1.74-0.54v0.06l0.72-0.3H83.4l0.6-0.3l0.48-0.3h-0.06l0.36,0.36l-0.06,0.06l-0.48,0.3c-5.43,2.852-19.268,2.751-24.96,0.6
	l-0.72-0.3H58.5l-0.6-0.3l-0.48-0.3L57,61.38v-0.06l-0.24-0.36L56.7,60.9l-0.06-0.36v-0.06c0.004-0.754,0.743-1.161,1.26-1.56
	l0.6-0.3h0.06l0.72-0.3v-0.06l1.68-0.54l2.1-0.42c5.433-0.796,10.547-0.832,15.96,0l2.1,0.42l1.74,0.54l0.06,0.06l0.72,0.3l0.6,0.3
	h0.06l0.48,0.36l0.36,0.3l0.06,0.06L85.38,60v0.06l0.12,0.36"/>
<polyline points="84.42,61.38 84.78,61.02 84.78,61.08 84.96,60.72 84.9,60.78 85.02,60.42 85.02,60.6 85.5,60.42 85.5,60.6 
	85.38,60.96 85.2,61.32 84.78,61.74 "/>
<path fill="#B3B3B3" d="M85.26,88.86L85.14,88.5l-0.18-0.36c-3.133-3.739-25.553-3.907-28.02,0.36l-0.06,0.359l0.06,0.359
	c2.873,4.281,24.549,4.062,28.02,0.361l0.18-0.361L85.26,88.86"/>
<path d="M85.02,88.98l-0.12-0.36h0.06l-0.18-0.359v0.06l-0.36-0.36l0.06,0.061L84,87.719l-0.6-0.359h0.06l-0.72-0.24L81,86.581
	l-2.1-0.42h0.06l-2.4-0.361l-2.64-0.18l-2.88-0.06l-2.82,0.06h0.06l-2.7,0.18l-2.4,0.361l-2.1,0.42L59.4,87.12h0.06l-0.72,0.24
	l-0.6,0.359l-0.48,0.301l0.06-0.061l-0.36,0.36l0.06-0.06l-0.24,0.359v-0.06l-0.06,0.36V88.86l0.06,0.36V89.1l0.24,0.359l-0.06-0.06
	l0.36,0.3l0.48,0.36h-0.06l0.6,0.3l0.72,0.301L59.4,90.6l1.68,0.48l2.1,0.479l2.4,0.3l2.7,0.24h-0.06l2.82,0.061l2.88-0.061
	l2.64-0.24l2.4-0.3H78.9l2.1-0.479l1.74-0.48v0.061l0.72-0.301H83.4l0.6-0.3l0.48-0.36l0.3,0.36l-0.48,0.36l-0.06,0.06
	c-2.759,1.454-7.248,1.872-10.26,2.101h-0.06l-2.88,0.06c-3.874-0.026-8.828-0.337-12.48-1.86H58.5l-0.6-0.3v-0.06l-0.48-0.36
	l-0.36-0.3c-0.966-0.887-0.088-2.061,0.84-2.461l0.6-0.359l0.06-0.061c6.143-2.402,18.103-2.395,24.3-0.239h0.06l0.72,0.239v0.061
	l0.6,0.359l0.48,0.301h0.06l0.42,0.42l0.18,0.359v0.061l0.12,0.359"/>
<polyline points="84.48,89.7 84.84,89.4 84.78,89.459 84.96,89.1 84.9,89.161 85.02,88.799 85.02,88.98 85.5,88.799 85.5,88.98 
	85.38,89.34 85.2,89.7 85.14,89.76 84.78,90.06 "/>
<text transform="matrix(1 0 0 1 185.1597 35.5806)" font-family="'ProductusBook'" font-size="7.98">UPnP root device</text>
<text transform="matrix(1 0 0 1 185.1597 63.9009)" font-family="'ProductusBook'" font-size="7.98">UPnP device</text>
<text transform="matrix(1 0 0 1 185.1597 92.2808)" font-family="'ProductusBook'" font-size="7.98">UPnP service</text>
<text transform="matrix(1 0 0 1 185.1597 120.6011)" font-family="'ProductusBook'" font-size="7.98">UPnP Action</text>
<path fill="#B3B3B3" d="M85.26,117.18l-0.12-0.36l-0.18-0.36c-3.327-3.724-25.368-3.894-28.02,0.36l-0.06,0.36l0.06,0.359
	c2.608,4.271,24.727,4.106,28.02,0.36l0.18-0.36L85.26,117.18"/>
<path d="M85.02,117.299l-0.12-0.359h0.06l-0.18-0.359l0.06,0.06l-0.36-0.3L84,115.98v0.06l-0.6-0.299h0.06l-0.72-0.301L81,114.9
	l-2.1-0.42h0.06l-2.4-0.3l-2.64-0.24l-2.88-0.061l-2.82,0.061h0.06l-2.7,0.24l-2.4,0.3l-2.1,0.42l-1.68,0.54h0.06l-0.72,0.301
	l-0.6,0.299l0.06-0.06l-0.48,0.36l-0.36,0.3l0.06-0.06l-0.24,0.359v-0.061l-0.06,0.361v-0.061l0.06,0.359v-0.119l0.24,0.359
	l-0.06-0.06l0.36,0.36h-0.06l0.48,0.299l0.6,0.301l0.72,0.3l-0.06-0.06l1.68,0.539l2.1,0.42l2.4,0.361l2.7,0.18h-0.06l2.82,0.06
	l2.88-0.06l2.64-0.18l2.4-0.361H78.9l2.1-0.42l1.74-0.539v0.06l0.72-0.3H83.4l0.6-0.301l0.48-0.299h-0.06l0.36,0.359l-0.06,0.061
	l-0.48,0.299c-5.43,2.852-19.268,2.752-24.96,0.601l-0.72-0.3H58.5l-0.6-0.301l-0.48-0.299l-0.42-0.42v-0.061l-0.24-0.359
	L56.7,117.6l-0.06-0.359v-0.061c0.004-0.754,0.743-1.161,1.26-1.561l0.6-0.3h0.06l0.72-0.3v-0.061l1.68-0.539l2.1-0.42
	c5.433-0.797,10.547-0.832,15.96,0l2.1,0.42l1.74,0.539l0.06,0.061l0.72,0.3l0.6,0.3h0.06l0.48,0.36l0.36,0.3l0.06,0.061l0.18,0.359
	v0.061l0.12,0.359"/>
<polyline points="84.42,118.081 84.78,117.719 84.78,117.78 84.96,117.42 84.9,117.48 85.02,117.12 85.02,117.299 85.5,117.12 
	85.5,117.299 85.38,117.661 85.2,118.02 84.78,118.44 "/>
<rect x="70.8" y="7.32" width="0.48" height="21.3"/>
<rect x="70.8" y="35.7" width="0.48" height="21.24"/>
<rect x="70.8" y="64.02" width="0.48" height="21.3"/>
<rect x="70.8" y="92.4" width="0.48" height="21.24"/>
<path fill="#B3B3B3" d="M127.741,32.16l-0.061-0.36l-0.182-0.36c-3.234-3.728-25.486-3.928-28.02,0.36l-0.061,0.36l0.061,0.36
	c2.673,4.269,24.648,4.058,28.02,0.36l0.182-0.36L127.741,32.16"/>
<path d="M127.5,32.22l-0.061-0.36l0.061,0.06l-0.181-0.36v0.06l-0.36-0.36l0.062,0.06l-0.479-0.3l-0.601-0.3H126l-0.721-0.3
	l-1.74-0.54l-2.1-0.42h0.061l-2.4-0.36l-2.641-0.18l-2.88-0.06l-2.819,0.06h0.06l-2.7,0.18l-2.399,0.36l-2.101,0.42l-1.74,0.54
	h0.061l-0.72,0.3l-0.601,0.3h0.061l-0.42,0.3v-0.06l-0.36,0.36l0.06-0.06l-0.239,0.36v-0.06l-0.061,0.36v-0.06l0.061,0.36V32.4
	l0.239,0.36L99.9,32.7l0.36,0.3l0.42,0.36h-0.061l0.601,0.3l0.72,0.3l-0.061-0.06l1.74,0.48l2.101,0.48l2.399,0.3l2.7,0.24h-0.06
	l2.819,0.06l2.88-0.06l2.641-0.24l2.399-0.3h-0.061l2.1-0.48l1.74-0.48v0.06l0.721-0.3h-0.061l0.6-0.3l0.48-0.36l0.3,0.36
	l-0.479,0.36l-0.061,0.062c-2.759,1.454-7.248,1.871-10.26,2.1h-0.061l-2.88,0.06c-3.902-0.02-8.854-0.355-12.54-1.86h-0.06
	l-0.601-0.3V33.72l-0.42-0.36c-0.353-0.234-0.841-0.737-0.779-1.2l0.06-0.36l0.061-0.12c0.338-0.715,0.97-1.051,1.68-1.38h0.06
	l0.721-0.3v-0.06l1.739-0.54l2.101-0.42c4.71-0.809,11.179-0.835,15.96,0l2.1,0.42l1.74,0.54l0.061,0.06l0.721,0.3l0.6,0.3l0.48,0.3
	h0.06l0.421,0.42l0.18,0.36v0.12l0.061,0.36"/>
<polyline points="127.02,33 127.379,32.7 127.32,32.76 127.5,32.4 127.44,32.52 127.5,32.16 127.5,32.22 127.98,32.16 127.98,32.22 
	127.918,32.58 127.918,32.64 127.741,33 127.68,33.06 127.32,33.36 "/>
<path fill="#B3B3B3" d="M42.72,33.12l-0.06-0.48l-0.24-0.42c-3.107-4.851-25.742-4.87-27.96,0.42l-0.06,0.48l0.06,0.42
	c2.203,5.319,24.631,5.311,27.96,0.48l0.24-0.48L42.72,33.12"/>
<path d="M42.48,33.18l-0.06-0.48l0.06,0.06l-0.24-0.42v0.06l-0.36-0.48h0.06l-0.48-0.42v0.06l-0.6-0.36l-0.66-0.36h0.06l-0.84-0.36
	l-0.9-0.3l-2.1-0.6h0.06l-2.4-0.36l-2.7-0.3l-2.82-0.06l-2.88,0.06h0.06l-2.64,0.3l-2.4,0.36l-2.1,0.6l-0.96,0.3h0.06l-0.78,0.36
	L16.2,31.2l-0.6,0.36l0.06-0.06l-0.48,0.42l-0.36,0.48l0.06-0.06l-0.18,0.42V32.7l-0.06,0.479v-0.06l0.06,0.42v-0.06l0.18,0.48
	l-0.06-0.06l0.36,0.42v-0.06l0.48,0.42H15.6l0.6,0.36l0.72,0.42l0.78,0.3l0.96,0.36l-0.06-0.06l2.1,0.54l2.4,0.42l2.64,0.24h-0.06
	l2.88,0.12l2.82-0.12l2.7-0.24l2.4-0.42h-0.06l2.1-0.54v0.06l0.9-0.36V35.7l0.18,0.479l-0.9,0.36h-0.06
	c-3.383,1.04-6.593,1.222-10.08,1.32l-2.88-0.12l-2.64-0.24l-2.4-0.42h-0.06l-2.1-0.54l-0.96-0.36l-0.78-0.3h-0.06l-0.72-0.42
	l-0.6-0.36v-0.06l-0.48-0.42h-0.06l-0.36-0.42v-0.06l-0.18-0.48l-0.06-0.06l-0.06-0.42v-0.06l0.06-0.48l0.06-0.06
	c0.302-1.116,1.419-1.714,2.4-2.16h0.06l0.78-0.36V30l0.96-0.3l2.1-0.6h0.06l2.4-0.36l2.64-0.3l2.88-0.06l2.82,0.06h0.06l2.7,0.3
	l2.4,0.36l2.1,0.6h0.06l0.9,0.3v0.06l0.84,0.36c0.991,0.584,1.573,0.672,2.16,1.68h0.06l0.24,0.42v0.12l0.06,0.48"/>
<path d="M39.42,35.7l0.84-0.3l-0.06,0.06l0.66-0.42l0.6-0.36l0.48-0.42l-0.06,0.06l0.36-0.42l0.24-0.48l-0.06,0.12l0.06-0.42v0.06
	l0.48-0.06v0.06c-0.033,1.356-1.54,2.073-2.52,2.7l-0.84,0.3"/>
<polyline points="71.16,7.56 70.92,7.14 28.44,28.44 28.68,28.86 "/>
<polyline points="71.16,7.14 70.92,7.56 113.459,28.86 113.7,28.44 "/>
<polyline points="71.16,35.94 70.92,35.52 67.38,37.32 67.62,37.74 "/>
<polyline points="61.38,40.86 61.14,40.44 52.8,44.58 53.04,45 "/>
<polyline points="46.8,48.12 46.56,47.7 38.22,51.84 38.46,52.26 "/>
<polyline points="32.22,55.38 31.98,54.96 28.44,56.76 28.68,57.18 "/>
<polyline points="71.16,35.52 70.92,35.94 74.52,37.74 74.76,37.32 "/>
<polyline points="81,40.44 80.76,40.86 89.1,45 89.34,44.58 "/>
<polyline points="95.58,47.7 95.34,48.12 103.62,52.26 103.86,51.84 "/>
<polyline points="110.1,54.96 109.86,55.38 113.459,57.18 113.7,56.76 "/>
<polyline points="71.16,64.26 70.92,63.84 67.38,65.64 67.62,66.06 "/>
<polyline points="61.38,69.18 61.14,68.76 52.8,72.9 53.04,73.32 "/>
<polyline points="46.8,76.44 46.56,76.02 38.22,80.219 38.46,80.64 "/>
<polyline points="32.22,83.76 31.98,83.34 28.44,85.14 28.68,85.56 "/>
<polyline points="71.16,63.84 70.92,64.26 74.52,66.06 74.76,65.64 "/>
<polyline points="81,68.76 80.76,69.18 89.1,73.32 89.34,72.9 "/>
<polyline points="95.58,76.02 95.34,76.44 103.62,80.64 103.86,80.219 "/>
<polyline points="110.1,83.34 109.86,83.76 113.459,85.56 113.7,85.14 "/>
<polyline points="71.16,92.64 70.92,92.219 67.38,94.02 67.62,94.44 "/>
<polyline points="61.38,97.56 61.14,97.14 52.8,101.28 53.04,101.7 "/>
<polyline points="46.8,104.82 46.56,104.4 38.22,108.54 38.46,108.959 "/>
<polyline points="32.22,112.081 31.98,111.661 28.44,113.459 28.68,113.879 "/>
<polyline points="71.16,92.219 70.92,92.64 74.52,94.44 74.76,94.02 "/>
<polyline points="81,97.14 80.76,97.56 89.1,101.7 89.34,101.28 "/>
<polyline points="95.58,104.4 95.34,104.82 103.62,108.959 103.86,108.54 "/>
<polyline points="110.1,111.661 109.86,112.081 113.459,113.879 113.7,113.459 "/>
</svg>
