<?xml version="1.0" encoding="utf-8"?>
<!-- Generator: Adobe Illustrator 16.0.1, SVG Export Plug-In . SVG Version: 6.00 Build 0)  -->
<!DOCTYPE svg PUBLIC "-//W3C//DTD SVG 1.1//EN" "http://www.w3.org/Graphics/SVG/1.1/DTD/svg11.dtd">
<svg version="1.1" id="Layer_1" xmlns="http://www.w3.org/2000/svg" xmlns:xlink="http://www.w3.org/1999/xlink" x="0px" y="0px"
	 width="234.3px" height="106.74px" viewBox="0 0 234.3 106.74" enable-background="new 0 0 234.3 106.74" xml:space="preserve">
<path fill="#FFFFFF" d="M234.06,71.101l-0.12-2.221l-0.3-2.1c-5.715-23.729-38.641-22.014-42,2.1l-0.061,2.221l0.061,2.159
	c3.251,24.113,36.396,25.831,42,2.101l0.3-2.101L234.06,71.101"/>
<path d="M233.82,71.101l-0.119-2.221v0.061l-0.302-2.101l-0.539-2.04l0.06,0.061l-0.719-1.92l-0.841-1.859l-1.08-1.74v0.059
	l-0.601-0.84l-0.66-0.841l-0.659-0.778l-0.659-0.722h0.059l-0.779-0.72l-0.779-0.66l-0.779-0.6v0.06l-0.84-0.6l-1.74-1.08h0.06
	l-1.858-0.9L219.06,51l-2.04-0.48h0.062l-2.102-0.359l-2.159-0.12l-2.159,0.12h0.06l-2.101,0.359L206.58,51h0.061l-1.979,0.72
	l-1.861,0.9l-1.739,1.08h0.062l-0.84,0.6v-0.06l-0.781,0.6l-0.779,0.66l-0.78,0.72l-0.659,0.721l-0.66,0.779l-0.66,0.84h0.061
	l-0.6,0.842V59.34l-1.08,1.74l-0.9,1.86l-0.658,1.92V64.8l-0.541,2.04l-0.359,2.101V68.88l-0.061,2.221l0.061,2.159l-0.48,0.062
	V73.26c-0.188-3.349-0.062-5.436,0.9-8.579l0.66-1.921h0.06l0.899-1.858V60.84L195,59.101l0.601-0.841l0.659-0.84l0.66-0.78
	l0.66-0.72l0.061-0.06c1.471-1.422,3.143-2.652,4.92-3.66h0.061l1.859-0.9v-0.06l1.98-0.721l2.039-0.479h0.061l2.102-0.36
	l2.159-0.12l2.159,0.12h0.061l2.101,0.36l2.04,0.479h0.061l1.979,0.721v0.06l1.86,0.9c2.994,1.693,4.918,3.293,6.959,6.06h0.061
	l0.602,0.841c1.789,2.541,3.271,6.666,3.479,9.779l0.119,2.221"/>
<path d="M191.88,73.26l0.359,2.101V75.3l0.54,2.04l0.659,1.979l0.9,1.859v-0.06l1.08,1.739l0.6,0.841h-0.061l1.32,1.56l0.659,0.721
	v-0.06l0.78,0.72l1.561,1.32l0.84,0.6h-0.061l1.74,1.021l1.859,0.9V90.42l1.979,0.72h-0.06l2.039,0.541l2.1,0.301h-0.059
	l2.159,0.119l2.159-0.119l2.102-0.301h-0.062l2.04-0.541l1.98-0.72v0.062l1.858-0.9h-0.06l1.74-1.021l0.84-0.6l1.56-1.32l0.78-0.72
	l-0.061,0.062l0.66-0.722l1.318-1.56l0.602-0.84l1.08-1.74v0.061l0.84-1.859h-0.061l0.721-1.98l0.539-2.04v0.062l0.301-2.102
	l0.12-2.16h0.479l-0.121,2.16v0.061l-0.299,2.101l-0.541,2.04v0.061l-0.72,1.979l-0.84,1.86l-1.073,1.738v0.061L230.1,84h-0.06
	c-1.483,1.853-2.467,2.834-4.32,4.319v0.061l-0.84,0.602h-0.061c-2.906,1.888-6.316,3.172-9.779,3.479h-0.062l-2.159,0.12
	l-2.16-0.12l-2.101-0.3h-0.06l-2.041-0.54l-1.979-0.721L202.621,90h-0.062l-1.739-1.021l-0.841-0.601v-0.06
	c-2.465-1.896-4.597-4.198-6.06-6.961l-0.9-1.859h-0.061l-0.66-1.98v-0.06l-0.539-2.04l-0.36-2.1"/>
<rect x="2.58" y="58.681" width="54.3" height="26.579"/>
<rect x="2.58" y="58.44" width="54.54" height="0.479"/>
<rect x="56.64" y="58.681" width="0.48" height="26.819"/>
<rect x="2.34" y="85.021" width="54.54" height="0.479"/>
<rect x="2.34" y="58.44" width="0.48" height="26.818"/>
<rect x="0.24" y="56.88" fill="#FFFFFF" width="54.3" height="26.58"/>
<rect x="0.24" y="56.64" width="54.54" height="0.48"/>
<rect x="54.3" y="56.88" width="0.48" height="26.82"/>
<rect y="83.22" width="54.54" height="0.48"/>
<rect y="56.64" width="0.48" height="26.82"/>
<text transform="matrix(0.9504 0 0 1 2.5801 64.0195)" font-family="'ProductusOSGiBookc'" font-size="7.98">&lt;&lt;service&gt;&gt;</text>
<text transform="matrix(1 0 0 1 2.5801 71.54)" enable-background="new    "><tspan x="0" y="0" font-family="'ProductusSemibold'" font-size="7.98">UPnP Event</tspan><tspan x="0" y="9.576" font-family="'ProductusSemibold'" font-size="7.98">Listener</tspan></text>
<rect x="2.58" y="1.98" width="54.3" height="26.58"/>
<rect x="2.58" y="1.74" width="54.54" height="0.479"/>
<rect x="56.64" y="1.98" width="0.48" height="26.82"/>
<rect x="2.34" y="28.32" width="54.54" height="0.479"/>
<rect x="2.34" y="1.74" width="0.48" height="26.819"/>
<rect x="0.24" y="0.24" fill="#FFFFFF" width="54.3" height="26.52"/>
<rect x="0.24" width="54.54" height="0.48"/>
<rect x="54.3" y="0.24" width="0.48" height="26.76"/>
<rect y="26.52" width="54.54" height="0.48"/>
<rect width="0.48" height="26.76"/>
<text transform="matrix(1 0 0 1 2.5801 7.3203)" font-family="'ProductusOSGiBookc'" font-size="7.98">Local Device</text>
<rect x="101.82" y="58.681" width="54.301" height="26.579"/>
<rect x="101.82" y="58.44" width="54.54" height="0.479"/>
<rect x="155.88" y="58.681" width="0.479" height="26.819"/>
<rect x="101.58" y="85.021" width="54.541" height="0.479"/>
<rect x="101.58" y="58.44" width="0.479" height="26.818"/>
<rect x="99.42" y="56.88" fill="#FFFFFF" width="54.36" height="26.58"/>
<rect x="99.42" y="56.64" width="54.6" height="0.48"/>
<rect x="153.541" y="56.88" width="0.479" height="26.82"/>
<rect x="99.18" y="83.22" width="54.601" height="0.48"/>
<rect x="99.18" y="56.64" width="0.48" height="26.82"/>
<text transform="matrix(1 0 0 1 101.8203 64.0195)" font-family="'ProductusOSGiBookc'" font-size="7.98">UPnP Base Driver</text>
<rect x="28.32" y="28.32" width="0.48" height="0.239"/>
<rect x="28.32" y="28.56" width="0.48" height="28.561"/>
<text transform="matrix(1 0 0 1 34.1997 43.0195)" font-family="'ProductusBook'" font-size="7.98">send events to</text>
<polyline points="68.4,71.101 68.4,74.399 67.74,74.22 58.56,71.58 56.88,71.101 58.56,70.62 67.74,67.979 68.4,67.8 68.4,68.46 
	68.04,68.94 58.86,71.58 58.56,70.62 58.86,70.62 68.04,73.26 67.74,74.22 67.38,73.74 67.38,71.101 "/>
<rect x="67.38" y="68.46" width="1.02" height="2.641"/>
<polyline points="67.92,71.101 67.92,73.74 58.74,71.101 67.92,68.46 "/>
<rect x="68.22" y="70.86" width="0.24" height="0.479"/>
<rect x="68.46" y="70.86" width="31.2" height="0.479"/>
<rect x="127.56" y="85.021" width="0.48" height="21.721"/>
<rect x="28.32" y="106.26" width="99.48" height="0.48"/>
<rect x="28.32" y="85.021" width="0.48" height="21.479"/>
<rect x="187.08" y="63.78" width="10.68" height="0.479"/>
<polyline points="187.439,60.78 187.32,61.26 197.701,64.26 197.82,64.26 198.66,64.021 197.82,63.78 "/>
<polyline points="197.82,64.26 197.701,63.78 187.32,66.72 187.439,67.2 "/>
<rect x="155.88" y="63.78" width="0.24" height="0.479"/>
<rect x="156.121" y="63.78" width="31.199" height="0.479"/>
<text transform="matrix(1 0 0 1 46.6797 104.1602)" font-family="'ProductusBook'" font-size="7.98">get events from</text>
<rect x="157.02" y="77.94" width="10.62" height="0.479"/>
<polyline points="167.339,81.36 167.46,80.88 157.08,77.94 156.96,77.94 156.121,78.181 156.96,78.42 "/>
<polyline points="156.96,77.94 157.08,78.42 167.46,75.42 167.339,74.94 "/>
<rect x="198.66" y="77.94" width="0.239" height="0.479"/>
<rect x="167.399" y="77.94" width="31.261" height="0.479"/>
<text transform="matrix(1 0 0 1 201.1206 66.54)" enable-background="new    "><tspan x="0" y="0" font-family="'ProductusBook'" font-size="7.98">multicast</tspan><tspan x="0" y="9.576" font-family="'ProductusBook'" font-size="7.98">network</tspan></text>
<text transform="matrix(1 0 0 1 164.7593 84.8398)" font-family="'ProductusBook'" font-size="7.98">receive</text>
<text transform="matrix(1 0 0 1 168.1792 60.7803)" font-family="'ProductusBook'" font-size="7.98">send</text>
<text transform="matrix(1 0 0 1 129.4194 91.4404)" font-family="'ProductusBook'" font-size="7.98">0,1</text>
<text transform="matrix(1 0 0 1 18.2407 92.0996)" font-family="'ProductusBook'" font-size="7.98">0..n</text>
<text transform="matrix(1 0 0 1 17.1611 55.0801)" font-family="'ProductusBook'" font-size="7.98">0..n</text>
<text transform="matrix(1 0 0 1 24.6006 33.1201)" font-family="'ProductusBook'" font-size="7.98">1</text>
<polyline points="42.72,85.26 56.88,71.101 56.88,85.26 "/>
<polyline points="42.54,85.08 57.12,70.5 57.12,71.101 57.06,71.28 42.9,85.44 "/>
<rect x="56.64" y="71.101" width="0.48" height="14.399"/>
<polyline points="56.88,85.5 42.12,85.5 42.54,85.08 42.72,85.021 56.88,85.021 "/>
</svg>
