<?xml version="1.0" encoding="utf-8"?>
<!-- Generator: Adobe Illustrator 16.0.0, SVG Export Plug-In . SVG Version: 6.00 Build 0)  -->
<!DOCTYPE svg PUBLIC "-//W3C//DTD SVG 1.1//EN" "http://www.w3.org/Graphics/SVG/1.1/DTD/svg11.dtd">
<svg version="1.1" id="Layer_1" xmlns="http://www.w3.org/2000/svg" xmlns:xlink="http://www.w3.org/1999/xlink" x="0px" y="0px"
	 width="234.3px" height="106.74px" viewBox="0 0 234.3 106.74" style="enable-background:new 0 0 234.3 106.74;"
	 xml:space="preserve">
	<path style="fill-rule:evenodd;clip-rule:evenodd;fill:#FFFFFF;" d="M234.06,71.1l-0.12-2.22l-0.3-2.1
		c-5.715-23.729-38.64-22.014-42,2.1l-0.06,2.22l0.06,2.16c3.251,24.113,36.397,25.831,42,2.101l0.3-2.101L234.06,71.1"/>
	<path d="M233.82,71.1l-0.12-2.22v0.061l-0.301-2.101l-0.539-2.04l0.06,0.061l-0.72-1.92l-0.84-1.86l-1.08-1.74V59.4l-0.601-0.841
		l-0.66-0.84l-0.659-0.779l-0.66-0.721h0.06l-0.78-0.72l-0.779-0.66l-0.78-0.6v0.06l-0.84-0.6l-1.74-1.08h0.06l-1.859-0.9
		L219.06,51l-2.04-0.48h0.061l-2.101-0.359l-2.159-0.12l-2.16,0.12h0.06l-2.1,0.359L206.58,51h0.06l-1.979,0.72l-1.86,0.9
		l-1.74,1.08h0.061l-0.84,0.6v-0.06l-0.78,0.6l-0.78,0.66l-0.78,0.72l-0.659,0.721l-0.66,0.779l-0.66,0.84h0.06l-0.6,0.841V59.34
		l-1.08,1.74l-0.9,1.86l-0.659,1.92V64.8l-0.54,2.04l-0.36,2.101V68.88l-0.06,2.22l0.06,2.16l-0.48,0.061V73.26
		c-0.187-3.349-0.063-5.436,0.9-8.58l0.66-1.92h0.06l0.9-1.859V60.84L195,59.1l0.6-0.84l0.66-0.84l0.66-0.78l0.66-0.72l0.06-0.06
		c1.471-1.422,3.142-2.652,4.92-3.66h0.061l1.859-0.9v-0.06l1.98-0.721l2.04-0.479h0.06l2.101-0.36l2.16-0.12l2.159,0.12h0.061
		l2.1,0.36l2.04,0.479h0.061l1.979,0.721v0.06l1.86,0.9c2.995,1.693,4.919,3.293,6.96,6.06h0.06l0.601,0.84
		c1.79,2.542,3.271,6.666,3.479,9.78l0.12,2.22"/>
	<path d="M191.88,73.26l0.36,2.101V75.3l0.54,2.04l0.659,1.98l0.9,1.859v-0.06l1.08,1.74l0.6,0.84h-0.06l1.32,1.56l0.659,0.721
		V85.92l0.78,0.72l1.561,1.32l0.84,0.6h-0.061l1.74,1.021l1.86,0.9V90.42l1.979,0.72h-0.06l2.04,0.54l2.1,0.301h-0.06l2.16,0.119
		l2.159-0.119l2.101-0.301h-0.061l2.04-0.54l1.98-0.72v0.061l1.859-0.9h-0.06l1.74-1.021l0.84-0.6l1.56-1.32l0.78-0.72l-0.06,0.061
		l0.66-0.721l1.319-1.56l0.601-0.84l1.08-1.74v0.06l0.84-1.859h-0.061l0.721-1.98l0.539-2.04v0.061l0.301-2.101l0.12-2.16h0.479
		l-0.12,2.16v0.061l-0.3,2.1l-0.54,2.04v0.06l-0.72,1.98l-0.84,1.86L230.7,83.1v0.061L230.1,84h-0.06
		c-1.483,1.852-2.467,2.834-4.32,4.32v0.06l-0.84,0.601h-0.06c-2.907,1.888-6.316,3.172-9.78,3.479h-0.061l-2.159,0.12l-2.16-0.12
		l-2.101-0.3h-0.06l-2.04-0.54l-1.98-0.72L202.62,90h-0.061l-1.739-1.02l-0.841-0.601v-0.06c-2.465-1.896-4.596-4.198-6.06-6.96
		l-0.9-1.86h-0.06l-0.66-1.98v-0.06l-0.54-2.04l-0.36-2.1"/>
	<rect x="2.58" y="58.68" width="54.3" height="26.58"/>
	<rect x="2.58" y="58.44" width="54.54" height="0.479"/>
	<rect x="56.64" y="58.68" width="0.48" height="26.82"/>
	<rect x="2.34" y="85.02" width="54.54" height="0.48"/>
	<rect x="2.34" y="58.44" width="0.48" height="26.819"/>
	<rect x="0.24" y="56.88" style="fill:#FFFFFF;" width="54.3" height="26.58"/>
	<rect x="0.24" y="56.64" width="54.54" height="0.48"/>
	<rect x="54.3" y="56.88" width="0.48" height="26.82"/>
	<rect y="83.22" width="54.54" height="0.48"/>
	<rect y="56.64" width="0.48" height="26.82"/>
	<text transform="matrix(1 0 0 1.0522 2.5801 64.0195)"><tspan x="0" y="0" style="font-family:'ProductusOSGiBookc'; font-size:7.5841;">&lt;</tspan><tspan x="2.776" y="0" style="font-family:'ProductusOSGiBookc'; font-size:7.5841;">&lt;</tspan><tspan x="5.589" y="0" style="font-family:'ProductusOSGiBookc'; font-size:7.5841;">servi</tspan><tspan x="18.072" y="0" style="font-family:'ProductusOSGiBookc'; font-size:7.5841;">c</tspan><tspan x="21.007" y="0" style="font-family:'ProductusOSGiBookc'; font-size:7.5841;">e&gt;</tspan><tspan x="27.075" y="0" style="font-family:'ProductusOSGiBookc'; font-size:7.5841;">&gt;</tspan></text>
	<text transform="matrix(1 0 0 1 2.5801 72.54)"><tspan x="0" y="0" style="font-family:'ProductusSemibold'; font-size:7.98;">UPn</tspan><tspan x="13.614" y="0" style="font-family:'ProductusSemibold'; font-size:7.98;">P</tspan><tspan x="17.779" y="0" style="font-family:'ProductusSemibold'; font-size:7.98;"> </tspan><tspan x="19.758" y="0" style="font-family:'ProductusSemibold'; font-size:7.98;">E</tspan><tspan x="23.597" y="0" style="font-family:'ProductusSemibold'; font-size:7.98;">v</tspan><tspan x="27.491" y="0" style="font-family:'ProductusSemibold'; font-size:7.98;">e</tspan><tspan x="31.624" y="0" style="font-family:'ProductusSemibold'; font-size:7.98;">nt</tspan><tspan x="39.045" y="0" style="font-family:'ProductusSemibold'; font-size:7.98;"> </tspan></text>
	<text transform="matrix(1 0 0 1 2.5801 81)"><tspan x="0" y="0" style="font-family:'ProductusSemibold'; font-size:7.98;">Listene</tspan><tspan x="24.809" y="0" style="font-family:'ProductusSemibold'; font-size:7.98;">r</tspan></text>
	<rect x="2.58" y="1.98" width="54.3" height="26.58"/>
	<rect x="2.58" y="1.74" width="54.54" height="0.48"/>
	<rect x="56.64" y="1.98" width="0.48" height="26.82"/>
	<rect x="2.34" y="28.32" width="54.54" height="0.479"/>
	<rect x="2.34" y="1.74" width="0.48" height="26.819"/>
	<rect x="0.24" y="0.24" style="fill:#FFFFFF;" width="54.3" height="26.52"/>
	<rect x="0.24" width="54.54" height="0.48"/>
	<rect x="54.3" y="0.24" width="0.48" height="26.76"/>
	<rect y="26.52" width="54.54" height="0.48"/>
	<rect width="0.48" height="26.76"/>
	<text transform="matrix(1 0 0 1 2.5801 7.3198)"><tspan x="0" y="0" style="font-family:'ProductusOSGiBookc'; font-size:7.98;">Loca</tspan><tspan x="13.191" y="0" style="font-family:'ProductusOSGiBookc'; font-size:7.98;">l</tspan><tspan x="14.699" y="0" style="font-family:'ProductusOSGiBookc'; font-size:7.98;"> </tspan><tspan x="16.319" y="0" style="font-family:'ProductusOSGiBookc'; font-size:7.98;">D</tspan><tspan x="21.234" y="0" style="font-family:'ProductusOSGiBookc'; font-size:7.98;">e</tspan><tspan x="24.538" y="0" style="font-family:'ProductusOSGiBookc'; font-size:7.98;">vic</tspan><tspan x="32.334" y="0" style="font-family:'ProductusOSGiBookc'; font-size:7.98;">e</tspan></text>
	<rect x="101.82" y="58.68" width="54.3" height="26.58"/>
	<rect x="101.82" y="58.44" width="54.54" height="0.479"/>
	<rect x="155.88" y="58.68" width="0.48" height="26.82"/>
	<rect x="101.58" y="85.02" width="54.54" height="0.48"/>
	<rect x="101.58" y="58.44" width="0.479" height="26.819"/>
	<rect x="99.42" y="56.88" style="fill:#FFFFFF;" width="54.36" height="26.58"/>
	<rect x="99.42" y="56.64" width="54.6" height="0.48"/>
	<rect x="153.54" y="56.88" width="0.479" height="26.82"/>
	<rect x="99.18" y="83.22" width="54.601" height="0.48"/>
	<rect x="99.18" y="56.64" width="0.48" height="26.82"/>
	<text transform="matrix(1 0 0 1 101.8203 64.0195)"><tspan x="0" y="0" style="font-family:'ProductusOSGiBookc'; font-size:7.98;">U</tspan><tspan x="4.62" y="0" style="font-family:'ProductusOSGiBookc'; font-size:7.98;">P</tspan><tspan x="7.916" y="0" style="font-family:'ProductusOSGiBookc'; font-size:7.98;">n</tspan><tspan x="11.522" y="0" style="font-family:'ProductusOSGiBookc'; font-size:7.98;">P</tspan><tspan x="14.818" y="0" style="font-family:'ProductusOSGiBookc'; font-size:7.98;"> </tspan><tspan x="16.383" y="0" style="font-family:'ProductusOSGiBookc'; font-size:7.98;">Base</tspan><tspan x="29.485" y="0" style="font-family:'ProductusOSGiBookc'; font-size:7.98;"> </tspan><tspan x="31.05" y="0" style="font-family:'ProductusOSGiBookc'; font-size:7.98;">Dri</tspan><tspan x="39.724" y="0" style="font-family:'ProductusOSGiBookc'; font-size:7.98;">v</tspan><tspan x="42.724" y="0" style="font-family:'ProductusOSGiBookc'; font-size:7.98;">e</tspan><tspan x="46.203" y="0" style="font-family:'ProductusOSGiBookc'; font-size:7.98;">r</tspan></text>
	<rect x="28.32" y="28.32" width="0.48" height="0.239"/>
	<rect x="28.32" y="28.56" width="0.48" height="28.561"/>
	<text transform="matrix(1 0 0 1 34.1997 43.0195)"><tspan x="0" y="0" style="font-family:'ProductusBook'; font-size:7.98;">s</tspan><tspan x="2.833" y="0" style="font-family:'ProductusBook'; font-size:7.98;">e</tspan><tspan x="6.32" y="0" style="font-family:'ProductusBook'; font-size:7.98;">n</tspan><tspan x="10.015" y="0" style="font-family:'ProductusBook'; font-size:7.98;">d</tspan><tspan x="13.678" y="0" style="font-family:'ProductusBook'; font-size:7.98;"> </tspan><tspan x="15.297" y="0" style="font-family:'ProductusBook'; font-size:7.98;">e</tspan><tspan x="18.785" y="0" style="font-family:'ProductusBook'; font-size:7.98;">v</tspan><tspan x="21.905" y="0" style="font-family:'ProductusBook'; font-size:7.98;">e</tspan><tspan x="25.424" y="0" style="font-family:'ProductusBook'; font-size:7.98;">n</tspan><tspan x="29.087" y="0" style="font-family:'ProductusBook'; font-size:7.98;">ts</tspan><tspan x="34.313" y="0" style="font-family:'ProductusBook'; font-size:7.98;"> </tspan><tspan x="35.877" y="0" style="font-family:'ProductusBook'; font-size:7.98;">t</tspan><tspan x="38.271" y="0" style="font-family:'ProductusBook'; font-size:7.98;">o</tspan></text>
	<polyline points="68.4,71.1 68.4,74.4 67.74,74.22 58.56,71.58 56.88,71.1 58.56,70.62 67.74,67.98 68.4,67.8 68.4,68.46 
		68.04,68.94 58.86,71.58 58.56,70.62 58.86,70.62 68.04,73.26 67.74,74.22 67.38,73.74 67.38,71.1 	"/>
	<rect x="67.38" y="68.46" width="1.02" height="2.64"/>
	<polyline style="fill-rule:evenodd;clip-rule:evenodd;" points="67.92,71.1 67.92,73.74 58.74,71.1 67.92,68.46 	"/>
	<rect x="68.22" y="70.86" width="0.24" height="0.479"/>
	<rect x="68.46" y="70.86" width="31.2" height="0.479"/>
	<rect x="127.56" y="85.02" width="0.48" height="21.721"/>
	<rect x="28.32" y="106.26" width="99.48" height="0.48"/>
	<rect x="28.32" y="85.02" width="0.48" height="21.48"/>
	<rect x="187.08" y="63.78" width="10.68" height="0.479"/>
	<polyline points="187.439,60.78 187.32,61.26 197.7,64.26 197.82,64.26 198.66,64.02 197.82,63.78 	"/>
	<polyline points="197.82,64.26 197.7,63.78 187.32,66.72 187.439,67.2 	"/>
	<rect x="155.88" y="63.78" width="0.24" height="0.479"/>
	<rect x="156.12" y="63.78" width="31.2" height="0.479"/>
	<text transform="matrix(1 0 0 1 46.6797 104.1602)"><tspan x="0" y="0" style="font-family:'ProductusBook'; font-size:7.98;">g</tspan><tspan x="3.304" y="0" style="font-family:'ProductusBook'; font-size:7.98;">e</tspan><tspan x="6.791" y="0" style="font-family:'ProductusBook'; font-size:7.98;">t </tspan><tspan x="10.797" y="0" style="font-family:'ProductusBook'; font-size:7.98;">e</tspan><tspan x="14.284" y="0" style="font-family:'ProductusBook'; font-size:7.98;">v</tspan><tspan x="17.404" y="0" style="font-family:'ProductusBook'; font-size:7.98;">e</tspan><tspan x="20.923" y="0" style="font-family:'ProductusBook'; font-size:7.98;">n</tspan><tspan x="24.586" y="0" style="font-family:'ProductusBook'; font-size:7.98;">ts</tspan><tspan x="29.813" y="0" style="font-family:'ProductusBook'; font-size:7.98;"> </tspan><tspan x="31.377" y="0" style="font-family:'ProductusBook'; font-size:7.98;">fr</tspan><tspan x="35.71" y="0" style="font-family:'ProductusBook'; font-size:7.98;">o</tspan><tspan x="39.5" y="0" style="font-family:'ProductusBook'; font-size:7.98;">m</tspan></text>
	<rect x="157.02" y="77.94" width="10.62" height="0.479"/>
	<polyline points="167.34,81.36 167.46,80.88 157.08,77.94 156.96,77.94 156.12,78.18 156.96,78.42 	"/>
	<polyline points="156.96,77.94 157.08,78.42 167.46,75.42 167.34,74.94 	"/>
	<rect x="198.66" y="77.94" width="0.239" height="0.479"/>
	<rect x="167.399" y="77.94" width="31.261" height="0.479"/>
	<text transform="matrix(1 0 0 1 201.1201 66.54)"><tspan x="0" y="0" style="font-family:'ProductusBook'; font-size:7.98;">mu</tspan><tspan x="9.433" y="0" style="font-family:'ProductusBook'; font-size:7.98;">l</tspan><tspan x="11.044" y="0" style="font-family:'ProductusBook'; font-size:7.98;">t</tspan><tspan x="13.391" y="0" style="font-family:'ProductusBook'; font-size:7.98;">icast</tspan></text>
	<text transform="matrix(1 0 0 1 164.7598 84.8398)"><tspan x="0" y="0" style="font-family:'ProductusBook'; font-size:7.98;">re</tspan><tspan x="5.77" y="0" style="font-family:'ProductusBook'; font-size:7.98;">c</tspan><tspan x="8.834" y="0" style="font-family:'ProductusBook'; font-size:7.98;">e</tspan><tspan x="12.321" y="0" style="font-family:'ProductusBook'; font-size:7.98;">i</tspan><tspan x="13.885" y="0" style="font-family:'ProductusBook'; font-size:7.98;">v</tspan><tspan x="17.005" y="0" style="font-family:'ProductusBook'; font-size:7.98;">e</tspan></text>
	<text transform="matrix(1 0 0 1 201.1201 76.2598)"><tspan x="0" y="0" style="font-family:'ProductusBook'; font-size:7.98;">n</tspan><tspan x="3.679" y="0" style="font-family:'ProductusBook'; font-size:7.98;">e</tspan><tspan x="7.214" y="0" style="font-family:'ProductusBook'; font-size:7.98;">t</tspan><tspan x="9.607" y="0" style="font-family:'ProductusBook'; font-size:7.98;">w</tspan><tspan x="14.651" y="0" style="font-family:'ProductusBook'; font-size:7.98;">ork</tspan></text>
	<text transform="matrix(1 0 0 1 168.1797 60.7803)"><tspan x="0" y="0" style="font-family:'ProductusBook'; font-size:7.98;">s</tspan><tspan x="2.873" y="0" style="font-family:'ProductusBook'; font-size:7.98;">en</tspan><tspan x="10.022" y="0" style="font-family:'ProductusBook'; font-size:7.98;">d</tspan></text>
	<text transform="matrix(1 0 0 1 129.4199 91.4404)"><tspan x="0" y="0" style="font-family:'ProductusBook'; font-size:7.98;">0</tspan><tspan x="3.958" y="0" style="font-family:'ProductusBook'; font-size:7.98;">,</tspan><tspan x="5.522" y="0" style="font-family:'ProductusBook'; font-size:7.98;">1</tspan></text>
	<text transform="matrix(1 0 0 1 18.2407 92.0996)"><tspan x="0" y="0" style="font-family:'ProductusBook'; font-size:7.98;">0</tspan><tspan x="3.942" y="0" style="font-family:'ProductusBook'; font-size:7.98;">.</tspan><tspan x="5.506" y="0" style="font-family:'ProductusBook'; font-size:7.98;">.</tspan><tspan x="7.134" y="0" style="font-family:'ProductusBook'; font-size:7.98;">n</tspan></text>
	<text transform="matrix(1 0 0 1 17.1611 55.0801)"><tspan x="0" y="0" style="font-family:'ProductusBook'; font-size:7.98;">0</tspan><tspan x="3.942" y="0" style="font-family:'ProductusBook'; font-size:7.98;">.</tspan><tspan x="5.506" y="0" style="font-family:'ProductusBook'; font-size:7.98;">.</tspan><tspan x="7.134" y="0" style="font-family:'ProductusBook'; font-size:7.98;">n</tspan></text>
	<text transform="matrix(1 0 0 1 24.6006 33.1201)" style="font-family:'ProductusBook'; font-size:7.98;">1</text>
	<polyline style="fill-rule:evenodd;clip-rule:evenodd;" points="42.72,85.26 56.88,71.1 56.88,85.26 	"/>
	<polyline points="42.54,85.08 57.12,70.5 57.12,71.1 57.06,71.28 42.9,85.44 	"/>
	<rect x="56.64" y="71.1" width="0.48" height="14.4"/>
	<polyline points="56.88,85.5 42.12,85.5 42.54,85.08 42.72,85.02 56.88,85.02 	"/>
</svg>
