<?xml version="1.0" encoding="utf-8"?>
<!-- Generator: Adobe Illustrator 16.0.1, SVG Export Plug-In . SVG Version: 6.00 Build 0)  -->
<!DOCTYPE svg PUBLIC "-//W3C//DTD SVG 1.1//EN" "http://www.w3.org/Graphics/SVG/1.1/DTD/svg11.dtd">
<svg version="1.1" id="Layer_1" xmlns="http://www.w3.org/2000/svg" xmlns:xlink="http://www.w3.org/1999/xlink" x="0px" y="0px"
	 width="333.361px" height="269.281px" viewBox="0 0 333.361 269.281" enable-background="new 0 0 333.361 269.281"
	 xml:space="preserve">
<rect fill="#E6E6E6" width="70.92" height="42.479"/>
<rect x="94.5" y="65.52" width="54.361" height="26.58"/>
<rect x="94.5" y="65.28" width="54.6" height="0.479"/>
<rect x="148.62" y="65.52" width="0.479" height="26.819"/>
<rect x="94.26" y="91.86" width="54.601" height="0.479"/>
<rect x="94.26" y="65.28" width="0.48" height="26.82"/>
<rect x="92.16" y="63.78" fill="#FFFFFF" width="54.3" height="26.58"/>
<rect x="92.16" y="63.54" width="54.541" height="0.479"/>
<rect x="146.221" y="63.78" width="0.479" height="26.82"/>
<rect x="91.92" y="90.12" width="54.54" height="0.479"/>
<rect x="91.92" y="63.54" width="0.48" height="26.819"/>
<text transform="matrix(0.9504 0 0 1 94.502 70.8594)" font-family="'ProductusOSGiBookc'" font-size="7.98">&lt;&lt;interface&gt;&gt;</text>
<text transform="matrix(1 0 0 1 94.5 79.3789)" font-family="'ProductusSemibold'" font-size="7.98">UPnP Service</text>
<rect x="9.48" y="8.4" width="54.3" height="27"/>
<rect x="9.48" y="8.16" width="54.54" height="0.479"/>
<rect x="63.54" y="8.4" width="0.48" height="27.239"/>
<rect x="9.24" y="35.16" width="54.54" height="0.479"/>
<rect x="9.24" y="8.16" width="0.48" height="27.239"/>
<rect x="7.14" y="6.6" fill="#FFFFFF" width="54.3" height="27"/>
<rect x="7.14" y="6.36" width="54.54" height="0.479"/>
<rect x="61.2" y="6.6" width="0.48" height="27.239"/>
<rect x="6.9" y="33.36" width="54.54" height="0.479"/>
<rect x="6.9" y="6.36" width="0.48" height="27.24"/>
<text transform="matrix(0.9504 0 0 1 9.4819 13.7393)" font-family="'ProductusOSGiBookc'" font-size="7.98">a listener</text>
<polyline points="35.46,52.26 38.76,52.26 38.58,52.92 35.46,63.84 32.34,52.92 32.16,52.26 32.82,52.26 33.3,52.62 35.94,61.86 
	34.98,62.16 34.98,61.86 37.62,52.62 38.58,52.92 38.1,53.28 35.46,53.28 "/>
<rect x="32.82" y="52.26" width="2.64" height="1.021"/>
<polyline points="35.46,52.74 38.1,52.74 35.46,61.98 32.82,52.74 "/>
<rect x="35.22" y="35.4" width="0.48" height="16.859"/>
<polyline points="318.958,77.701 304.561,92.1 318.958,92.1 "/>
<polyline points="319.141,77.88 304.742,92.28 304.561,92.34 303.958,92.34 318.781,77.52 "/>
<rect x="304.561" y="91.86" width="14.641" height="0.479"/>
<polyline points="318.718,92.1 318.718,77.701 318.781,77.52 319.2,77.1 319.2,92.1 "/>
<rect x="172.499" y="143.52" width="54.302" height="26.58"/>
<rect x="172.499" y="143.281" width="54.539" height="0.479"/>
<rect x="226.559" y="143.52" width="0.479" height="26.817"/>
<rect x="172.26" y="169.859" width="54.541" height="0.479"/>
<rect x="172.26" y="143.281" width="0.479" height="26.818"/>
<rect x="170.1" y="141.718" fill="#FFFFFF" width="54.356" height="26.58"/>
<rect x="170.1" y="141.48" width="54.602" height="0.479"/>
<rect x="224.221" y="141.718" width="0.479" height="26.82"/>
<rect x="169.861" y="168.061" width="54.6" height="0.479"/>
<rect x="169.861" y="141.48" width="0.479" height="26.816"/>
<text transform="matrix(0.9504 0 0 1 172.5029 148.8594)" font-family="'ProductusOSGiBookc'" font-size="7.98">&lt;&lt;interface&gt;&gt;</text>
<text transform="matrix(1 0 0 1 172.5 157.3203)" font-family="'ProductusSemibold'" font-size="7.98">UPnP Action</text>
<rect x="94.5" y="143.52" width="54.361" height="26.58"/>
<rect x="94.5" y="143.281" width="54.6" height="0.479"/>
<rect x="148.62" y="143.52" width="0.479" height="26.817"/>
<rect x="94.26" y="169.859" width="54.601" height="0.479"/>
<rect x="94.26" y="143.281" width="0.48" height="26.818"/>
<rect x="92.16" y="141.718" fill="#FFFFFF" width="54.3" height="26.58"/>
<rect x="92.16" y="141.48" width="54.541" height="0.479"/>
<rect x="146.221" y="141.718" width="0.479" height="26.82"/>
<rect x="91.92" y="168.061" width="54.54" height="0.479"/>
<rect x="91.92" y="141.48" width="0.48" height="26.816"/>
<text transform="matrix(0.9504 0 0 1 94.502 148.8594)" font-family="'ProductusOSGiBookc'" font-size="7.98">&lt;&lt;interface&gt;&gt;</text>
<text transform="matrix(1 0 0 1 94.5 157.3203)" font-family="'ProductusSemibold'" font-size="7.98">UPnP State</text>
<text transform="matrix(1 0 0 1 94.5 166.8965)" font-family="'ProductusSemibold'" font-size="7.98">Variable</text>
<rect x="9.48" y="65.52" width="54.3" height="26.58"/>
<rect x="9.48" y="65.28" width="54.54" height="0.479"/>
<rect x="63.54" y="65.52" width="0.48" height="26.819"/>
<rect x="9.24" y="91.86" width="54.54" height="0.479"/>
<rect x="9.24" y="65.28" width="0.48" height="26.82"/>
<rect x="7.14" y="63.78" fill="#FFFFFF" width="54.3" height="26.58"/>
<rect x="7.14" y="63.54" width="54.54" height="0.479"/>
<rect x="61.2" y="63.78" width="0.48" height="26.82"/>
<rect x="6.9" y="90.12" width="54.54" height="0.479"/>
<rect x="6.9" y="63.54" width="0.48" height="26.819"/>
<text transform="matrix(0.9504 0 0 1 9.4819 70.8594)" font-family="'ProductusOSGiBookc'" font-size="7.98">&lt;&lt;interface&gt;&gt;</text>
<text transform="matrix(1 0 0 1 9.48 78.3789)" font-family="'ProductusSemibold'" font-size="7.98">UPnP Event</text>
<text transform="matrix(1 0 0 1 9.48 87.9551)" font-family="'ProductusSemibold'" font-size="7.98">Listener</text>
<rect x="243.361" y="143.52" width="54.301" height="26.58"/>
<rect x="243.361" y="143.281" width="54.541" height="0.479"/>
<rect x="297.419" y="143.52" width="0.48" height="26.817"/>
<rect x="243.118" y="169.859" width="54.541" height="0.479"/>
<rect x="243.118" y="143.281" width="0.479" height="26.818"/>
<rect x="240.958" y="141.718" fill="#FFFFFF" width="54.361" height="26.58"/>
<rect x="240.958" y="141.48" width="54.604" height="0.479"/>
<rect x="295.079" y="141.718" width="0.48" height="26.82"/>
<rect x="240.721" y="168.061" width="54.604" height="0.479"/>
<rect x="240.721" y="141.48" width="0.479" height="26.816"/>
<text transform="matrix(0.9504 0 0 1 243.3623 148.8594)" font-family="'ProductusOSGiBookc'" font-size="7.98">&lt;&lt;interface&gt;&gt;</text>
<text transform="matrix(1 0 0 1 243.3594 157.3203)" font-family="'ProductusSemibold'" font-size="7.98">UPnPIcon</text>
<polyline points="63.78,77.701 49.38,92.1 63.78,92.1 "/>
<polyline points="63.96,77.88 49.56,92.28 49.38,92.34 48.78,92.34 63.6,77.52 "/>
<rect x="49.38" y="91.86" width="14.64" height="0.479"/>
<polyline points="63.54,92.1 63.54,77.701 63.6,77.52 64.02,77.1 64.02,92.1 "/>
<rect x="170.1" fill="#E6E6E6" width="70.856" height="42.479"/>
<polyline points="179.579,8.4 233.881,8.4 233.881,35.4 179.579,35.4 "/>
<rect x="179.579" y="8.16" width="54.539" height="0.479"/>
<rect x="233.639" y="8.4" width="0.479" height="27.239"/>
<rect x="179.34" y="35.16" width="54.541" height="0.479"/>
<rect x="179.34" y="8.16" width="0.479" height="27.239"/>
<rect x="177.18" y="6.6" fill="#FFFFFF" width="54.356" height="27"/>
<rect x="177.18" y="6.36" width="54.602" height="0.479"/>
<rect x="231.301" y="6.6" width="0.479" height="27.239"/>
<rect x="176.941" y="33.36" width="54.6" height="0.479"/>
<rect x="176.941" y="6.36" width="0.479" height="27.24"/>
<text transform="matrix(0.9504 0 0 1 179.583 13.7393)" font-family="'ProductusOSGiBookc'" font-size="7.98">A  UPnP device</text>
<text transform="matrix(0.9504 0 0 1 179.583 23.3154)" font-family="'ProductusOSGiBookc'" font-size="7.98">implementer</text>
<rect x="255.178" fill="#E6E6E6" width="70.86" height="42.479"/>
<rect x="264.602" y="8.4" width="54.354" height="27"/>
<rect x="264.602" y="8.16" width="54.6" height="0.479"/>
<rect x="318.718" y="8.4" width="0.48" height="27.239"/>
<rect x="264.361" y="35.16" width="54.6" height="0.479"/>
<rect x="264.361" y="8.16" width="0.479" height="27.239"/>
<rect x="262.26" y="6.6" fill="#FFFFFF" width="54.305" height="27"/>
<rect x="262.26" y="6.36" width="54.538" height="0.479"/>
<rect x="316.322" y="6.6" width="0.479" height="27.239"/>
<rect x="262.021" y="33.36" width="54.539" height="0.479"/>
<rect x="262.021" y="6.36" width="0.479" height="27.24"/>
<text transform="matrix(0.9504 0 0 1 264.6025 13.7393)" enable-background="new    "><tspan x="0" y="0" font-family="'ProductusOSGiBookc'" font-size="7.98">A UPnP control</tspan><tspan x="0" y="9.576" font-family="'ProductusOSGiBookc'" font-size="7.98">point</tspan></text>
<rect x="7.14" y="226.74" fill="#E6E6E6" width="325.979" height="42.541"/>
<rect x="264.602" y="235.201" width="54.354" height="27"/>
<rect x="264.602" y="234.96" width="54.6" height="0.479"/>
<rect x="318.718" y="235.201" width="0.48" height="27.238"/>
<rect x="264.361" y="261.96" width="54.6" height="0.479"/>
<rect x="264.361" y="234.96" width="0.479" height="27.24"/>
<rect x="262.26" y="233.4" fill="#FFFFFF" width="54.305" height="27"/>
<rect x="262.26" y="233.16" width="54.538" height="0.479"/>
<rect x="316.322" y="233.4" width="0.479" height="27.238"/>
<rect x="262.021" y="260.16" width="54.539" height="0.479"/>
<rect x="262.021" y="233.16" width="0.479" height="27.238"/>
<text transform="matrix(0.9504 0 0 1 264.6025 240.5391)" font-family="'ProductusOSGiBookc'" font-size="7.98">A  UPnP device</text>
<text transform="matrix(0.9504 0 0 1 264.6025 250.1152)" font-family="'ProductusOSGiBookc'" font-size="7.98">implementation</text>
<polyline points="304.742,103.62 301.441,103.62 301.618,102.96 304.259,93.78 304.742,92.1 305.218,93.78 307.861,102.96 
	308.038,103.62 307.378,103.62 306.902,103.26 304.259,94.08 305.218,93.78 305.218,94.08 302.579,103.26 301.618,102.96 
	302.102,102.6 304.742,102.6 "/>
<rect x="304.742" y="102.6" width="2.639" height="1.021"/>
<polyline points="304.742,103.139 302.102,103.139 304.742,93.96 307.378,103.139 "/>
<rect x="304.499" y="103.679" width="0.48" height="130.199"/>
<rect x="148.861" y="77.701" width="113.398" height="0.479"/>
<rect x="106.079" y="92.1" width="0.48" height="49.62"/>
<rect x="285.659" y="34.92" width="0.48" height="28.319"/>
<rect x="205.322" y="35.4" width="0.479" height="14.46"/>
<rect x="205.559" y="49.38" width="71.104" height="0.479"/>
<rect x="276.178" y="49.62" width="0.479" height="14.159"/>
<text transform="matrix(1 0 0 1 142.8008 132.4199)" font-family="'ProductusBook'" font-size="7.98">in parameter</text>
<text transform="matrix(1 0 0 1 149.2793 175.6191)" font-family="'ProductusBook'" font-size="7.98">out parm</text>
<text transform="matrix(1 0 0 1 94.6797 118.1387)" font-family="'ProductusBook'" font-size="7.98">has</text>
<text transform="matrix(1 0 0 1 102.1792 97.8594)" font-family="'ProductusBook'" font-size="7.98">1</text>
<text transform="matrix(1 0 0 1 94.2593 139.7979)" font-family="'ProductusBook'" font-size="7.98">1..n</text>
<text transform="matrix(1 0 0 1 208.0801 139.498)" font-family="'ProductusBook'" font-size="7.98">0..n</text>
<text transform="matrix(1 0 0 1 136.9194 97.8594)" font-family="'ProductusBook'" font-size="7.98">1</text>
<rect x="134.46" y="134.4" width="0.48" height="7.318"/>
<rect x="134.7" y="134.4" width="56.938" height="0.479"/>
<rect x="191.159" y="134.639" width="0.479" height="7.079"/>
<rect x="134.46" y="170.1" width="0.48" height="7.317"/>
<rect x="134.7" y="176.939" width="56.938" height="0.479"/>
<rect x="191.159" y="170.1" width="0.479" height="7.08"/>
<text transform="matrix(1 0 0 1 193.8594 139.7979)" font-family="'ProductusBook'" font-size="7.98">1</text>
<text transform="matrix(1 0 0 1 123.4199 139.9199)" font-family="'ProductusBook'" font-size="7.98">0..n</text>
<rect x="134.46" y="92.1" width="0.48" height="14.46"/>
<rect x="134.7" y="106.08" width="85.258" height="0.479"/>
<rect x="219.48" y="106.32" width="0.479" height="35.398"/>
<text transform="matrix(1 0 0 1 257.8203 76.1396)" font-family="'ProductusBook'" font-size="7.98">1</text>
<text transform="matrix(1 0 0 1 150.9609 76.5586)" font-family="'ProductusBook'" font-size="7.98">1..n</text>
<rect x="137.04" y="235.201" width="54.361" height="27"/>
<rect x="137.04" y="234.96" width="54.601" height="0.479"/>
<rect x="191.159" y="235.201" width="0.479" height="27.238"/>
<rect x="136.8" y="261.96" width="54.602" height="0.479"/>
<rect x="136.8" y="234.96" width="0.48" height="27.24"/>
<rect x="134.7" y="233.4" fill="#FFFFFF" width="54.299" height="27"/>
<rect x="134.7" y="233.16" width="54.541" height="0.479"/>
<rect x="188.76" y="233.4" width="0.479" height="27.238"/>
<rect x="134.46" y="260.16" width="54.541" height="0.479"/>
<rect x="134.46" y="233.16" width="0.48" height="27.238"/>
<text transform="matrix(0.9504 0 0 1 137.042 240.5391)" font-family="'ProductusOSGiBookc'" font-size="7.98">UPnP Base Driver</text>
<text transform="matrix(0.9504 0 0 1 137.042 250.1152)" font-family="'ProductusOSGiBookc'" font-size="7.98">Implementation</text>
<text transform="matrix(0.9504 0 0 1 183.0225 240.5391)" font-family="'ProductusOSGiBookc'" font-size="7.98"> </text>
<rect x="49.38" y="92.1" width="0.48" height="4.021"/>
<rect x="49.38" y="103.08" width="0.48" height="9.3"/>
<rect x="49.38" y="119.339" width="0.48" height="9.301"/>
<rect x="49.38" y="135.6" width="0.48" height="9.301"/>
<rect x="49.38" y="151.919" width="0.48" height="4.201"/>
<rect x="49.62" y="155.639" width="4.02" height="0.479"/>
<rect x="59.7" y="155.639" width="8.16" height="0.479"/>
<rect x="73.92" y="155.639" width="8.16" height="0.479"/>
<rect x="88.14" y="155.639" width="4.02" height="0.479"/>
<text transform="matrix(-6.123234e-17 1 -1 -6.123234e-17 52.1377 104.3398)" font-family="'ProductusBook'" font-size="7.98">associated with</text>
<text transform="matrix(1 0 0 1 166.9199 104.0996)" font-family="'ProductusBook'" font-size="7.98">has</text>
<text transform="matrix(1 0 0 1 202.7988 76.1396)" font-family="'ProductusBook'" font-size="7.98">has</text>
<text transform="matrix(1 0 0 1 231.1797 55.3203)" font-family="'ProductusBook'" font-size="7.98">registers</text>
<text transform="matrix(1 0 0 1 287.3398 54.2988)" font-family="'ProductusBook'" font-size="7.98">gets</text>
<text transform="matrix(1 0 0 1 41.6992 55.3203)" font-family="'ProductusBook'" font-size="7.98">reg</text>
<text transform="matrix(1 0 0 1 50.9482 55.3203)" font-family="'ProductusBook'" font-size="7.98">i</text>
<text transform="matrix(1 0 0 1 52.5684 55.3203)" font-family="'ProductusBook'" font-size="7.98">s</text>
<text transform="matrix(1 0 0 1 55.3853 55.3203)" font-family="'ProductusBook'" font-size="7.98">t</text>
<text transform="matrix(1 0 0 1 57.731 55.3203)" font-family="'ProductusBook'" font-size="7.98">ers</text>
<rect x="21.06" y="92.1" width="0.48" height="156.181"/>
<rect x="21.3" y="247.798" width="113.4" height="0.479"/>
<text transform="matrix(-6.123234e-17 1 -1 -6.123234e-17 23.6377 122.6992)" font-family="'ProductusBook'" font-size="7.98">receives events from</text>
<rect x="191.402" y="247.798" width="70.855" height="0.479"/>
<text transform="matrix(1 0 0 1 22.98 97.0186)" font-family="'ProductusBook'" font-size="7.98">0..n</text>
<text transform="matrix(1 0 0 1 250.6094 245.6992)" font-family="'ProductusBook'" font-size="7.98">0..n</text>
<rect x="276.178" y="92.1" width="0.479" height="49.62"/>
<text transform="matrix(1 0 0 1 264.9004 118.1396)" font-family="'ProductusBook'" font-size="7.98">has</text>
<text transform="matrix(1 0 0 1 278.8789 139.3789)" font-family="'ProductusBook'" font-size="7.98">1..n</text>
<text transform="matrix(1 0 0 1 277.8594 96.8398)" font-family="'ProductusBook'" font-size="7.98">1</text>
<text transform="matrix(1 0 0 1 80.5205 154.3789)" font-family="'ProductusBook'" font-size="7.98">0..n</text>
<text transform="matrix(1 0 0 1 51.3003 96.8398)" font-family="'ProductusBook'" font-size="7.98">1</text>
<text transform="matrix(1 0 0 1 193.4395 175.5)" font-family="'ProductusBook'" font-size="7.98">1</text>
<text transform="matrix(1 0 0 1 122.9995 175.6191)" font-family="'ProductusBook'" font-size="7.98">0..n</text>
<rect x="264.602" y="65.52" width="54.354" height="26.58"/>
<rect x="264.602" y="65.28" width="54.6" height="0.479"/>
<rect x="318.718" y="65.52" width="0.48" height="26.819"/>
<rect x="264.361" y="91.86" width="54.6" height="0.479"/>
<rect x="264.361" y="65.28" width="0.479" height="26.82"/>
<rect x="262.26" y="63.78" fill="#FFFFFF" width="54.305" height="26.58"/>
<rect x="262.26" y="63.54" width="54.538" height="0.479"/>
<rect x="316.322" y="63.78" width="0.479" height="26.82"/>
<rect x="262.021" y="90.12" width="54.539" height="0.479"/>
<rect x="262.021" y="63.54" width="0.479" height="26.819"/>
<text transform="matrix(0.9504 0 0 1 264.6025 70.8594)" font-family="'ProductusOSGiBookc'" font-size="7.98">&lt;&lt;interface&gt;&gt;</text>
<text transform="matrix(1 0 0 1 264.5996 80.3789)" font-family="'ProductusSemibold'" font-size="7.98">UPnP Device</text>
<text transform="matrix(1 0 0 1 310.3203 55.5586)" font-family="'ProductusBook'" font-size="7.98">child</text>
<rect x="304.499" y="49.38" width="0.48" height="14.641"/>
<rect x="304.742" y="49.38" width="28.619" height="0.479"/>
<rect x="332.878" y="49.62" width="0.48" height="28.56"/>
<rect x="318.718" y="77.701" width="14.4" height="0.479"/>
<text transform="matrix(1 0 0 1 320.8789 76.7988)" font-family="'ProductusBook'" font-size="7.98">0..n</text>
<text transform="matrix(1 0 0 1 295.9199 61.9189)" font-family="'ProductusBook'" font-size="7.98">0,1</text>
<rect x="66.18" y="193.08" width="54.3" height="26.58"/>
<rect x="66.18" y="192.839" width="54.54" height="0.479"/>
<rect x="120.24" y="193.08" width="0.48" height="26.818"/>
<rect x="65.94" y="219.419" width="54.54" height="0.479"/>
<rect x="65.94" y="192.839" width="0.48" height="26.82"/>
<rect x="63.78" y="191.339" fill="#FFFFFF" width="54.36" height="26.58"/>
<rect x="63.78" y="191.1" width="54.6" height="0.479"/>
<rect x="117.9" y="191.339" width="0.48" height="26.82"/>
<rect x="63.54" y="217.68" width="54.6" height="0.479"/>
<rect x="63.54" y="191.1" width="0.48" height="26.817"/>
<text transform="matrix(0.9504 0 0 1 66.1821 198.4199)" font-family="'ProductusOSGiBookc'" font-size="7.98">&lt;&lt;interface&gt;&gt;</text>
<text transform="matrix(1 0 0 1 66.1802 206.9395)" font-family="'ProductusSemibold'" font-size="7.98">UPnP Local</text>
<text transform="matrix(1 0 0 1 66.1802 216.5156)" font-family="'ProductusSemibold'" font-size="7.98">State Variable</text>
<polyline points="106.32,181.561 103.02,181.561 103.2,180.9 105.84,171.718 106.32,170.041 106.8,171.718 109.441,180.9 
	109.62,181.561 108.96,181.561 108.48,181.201 105.84,172.02 106.8,171.718 106.8,172.02 104.159,181.201 103.2,180.9 
	103.68,180.541 106.32,180.541 "/>
<rect x="106.32" y="180.541" width="2.641" height="1.021"/>
<polyline points="106.32,181.08 103.68,181.08 106.32,171.9 108.96,181.08 "/>
<rect x="106.079" y="181.378" width="0.48" height="10.201"/>
<rect x="63.54" y="77.701" width="14.7" height="0.479"/>
<rect x="77.76" y="21" width="0.48" height="56.939"/>
<rect x="78" y="21" width="99.42" height="0.479"/>
<text transform="matrix(1 0 0 1 98.1001 19.2598)" font-family="'ProductusBook'" font-size="7.98">receives events from</text>
<text transform="matrix(1 0 0 1 66.48 76.1396)" font-family="'ProductusBook'" font-size="7.98">0..n</text>
<text transform="matrix(1 0 0 1 164.7598 20.0996)" font-family="'ProductusBook'" font-size="7.98">0..n</text>
<text transform="matrix(1 0 0 1 127.71 245.6992)" font-family="'ProductusBook'" font-size="7.98">1</text>
<text transform="matrix(1 0 0 1 193.8594 245.6992)" font-family="'ProductusBook'" font-size="7.98">1</text>
</svg>
