<?xml version="1.0" encoding="utf-8"?>
<!-- Generator: Adobe Illustrator 16.0.0, SVG Export Plug-In . SVG Version: 6.00 Build 0)  -->
<!DOCTYPE svg PUBLIC "-//W3C//DTD SVG 1.1//EN" "http://www.w3.org/Graphics/SVG/1.1/DTD/svg11.dtd">
<svg version="1.1" id="Layer_1" xmlns="http://www.w3.org/2000/svg" xmlns:xlink="http://www.w3.org/1999/xlink" x="0px" y="0px"
	 width="354.54px" height="120.288px" viewBox="0 0 354.54 120.288" style="enable-background:new 0 0 354.54 120.288;"
	 xml:space="preserve">
<text transform="matrix(1 0 0 1 0 6.6475)"><tspan x="0" y="0" style="font-family:'ProductusOSGiBookc'; font-size:7.98;">i</tspan><tspan x="1.508" y="0" style="font-family:'ProductusOSGiBookc'; font-size:7.98;">n</tspan><tspan x="5.163" y="0" style="font-family:'ProductusOSGiBookc'; font-size:7.98;">i</tspan><tspan x="6.719" y="0" style="font-family:'ProductusOSGiBookc'; font-size:7.98;">t</tspan><tspan x="9.057" y="0" style="font-family:'ProductusOSGiBookc'; font-size:7.98;">i</tspan><tspan x="10.565" y="0" style="font-family:'ProductusOSGiBookc'; font-size:7.98;">a</tspan><tspan x="13.861" y="0" style="font-family:'ProductusOSGiBookc'; font-size:7.98;">t</tspan><tspan x="16.199" y="0" style="font-family:'ProductusOSGiBookc'; font-size:7.98;">o</tspan><tspan x="19.973" y="0" style="font-family:'ProductusOSGiBookc'; font-size:7.98;">r</tspan></text>
<rect x="13.92" y="13.487" width="0.48" height="0.24"/>
<rect x="13.92" y="13.728" width="0.48" height="106.56"/>
<rect x="98.94" y="13.487" width="0.48" height="0.24"/>
<rect x="98.94" y="13.728" width="0.48" height="106.56"/>
<text transform="matrix(1 0 0 1 78.54 8.1475)"><tspan x="0" y="0" style="font-family:'ProductusOSGiBookc'; font-size:7.98;">C</tspan><tspan x="4.142" y="0" style="font-family:'ProductusOSGiBookc'; font-size:7.98;">o</tspan><tspan x="7.916" y="0" style="font-family:'ProductusOSGiBookc'; font-size:7.98;">o</tspan><tspan x="11.659" y="0" style="font-family:'ProductusOSGiBookc'; font-size:7.98;">r</tspan><tspan x="13.933" y="0" style="font-family:'ProductusOSGiBookc'; font-size:7.98;">di</tspan><tspan x="19.096" y="0" style="font-family:'ProductusOSGiBookc'; font-size:7.98;">n</tspan><tspan x="22.75" y="0" style="font-family:'ProductusOSGiBookc'; font-size:7.98;">a</tspan><tspan x="26.046" y="0" style="font-family:'ProductusOSGiBookc'; font-size:7.98;">t</tspan><tspan x="28.384" y="0" style="font-family:'ProductusOSGiBookc'; font-size:7.98;">o</tspan><tspan x="32.159" y="0" style="font-family:'ProductusOSGiBookc'; font-size:7.98; letter-spacing:47;">r</tspan><tspan x="81.778" y="0" style="font-family:'ProductusOSGiBookc'; font-size:7.98;">C</tspan><tspan x="85.983" y="0" style="font-family:'ProductusOSGiBookc'; font-size:7.98;">o</tspan><tspan x="89.727" y="0" style="font-family:'ProductusOSGiBookc'; font-size:7.98;">o</tspan><tspan x="93.501" y="0" style="font-family:'ProductusOSGiBookc'; font-size:7.98;">rd</tspan><tspan x="99.351" y="0" style="font-family:'ProductusOSGiBookc'; font-size:7.98;">i</tspan><tspan x="100.906" y="0" style="font-family:'ProductusOSGiBookc'; font-size:7.98;">n</tspan><tspan x="104.561" y="0" style="font-family:'ProductusOSGiBookc'; font-size:7.98;">a</tspan><tspan x="107.856" y="0" style="font-family:'ProductusOSGiBookc'; font-size:7.98;">t</tspan><tspan x="110.194" y="0" style="font-family:'ProductusOSGiBookc'; font-size:7.98;">i</tspan><tspan x="111.711" y="0" style="font-family:'ProductusOSGiBookc'; font-size:7.98;">o</tspan><tspan x="115.485" y="0" style="font-family:'ProductusOSGiBookc'; font-size:7.98; letter-spacing:48;">n</tspan><tspan x="167.802" y="0" style="font-family:'ProductusOSGiBookc'; font-size:7.98;">C</tspan><tspan x="171.943" y="0" style="font-family:'ProductusOSGiBookc'; font-size:7.98;">o</tspan><tspan x="175.718" y="0" style="font-family:'ProductusOSGiBookc'; font-size:7.98;">l</tspan><tspan x="177.227" y="0" style="font-family:'ProductusOSGiBookc'; font-size:7.98;">l</tspan><tspan x="178.782" y="0" style="font-family:'ProductusOSGiBookc'; font-size:7.98;">a</tspan><tspan x="182.078" y="0" style="font-family:'ProductusOSGiBookc'; font-size:7.98;">b</tspan><tspan x="185.732" y="0" style="font-family:'ProductusOSGiBookc'; font-size:7.98;">o</tspan><tspan x="189.507" y="0" style="font-family:'ProductusOSGiBookc'; font-size:7.98;">r</tspan><tspan x="191.709" y="0" style="font-family:'ProductusOSGiBookc'; font-size:7.98;">a</tspan><tspan x="195.005" y="0" style="font-family:'ProductusOSGiBookc'; font-size:7.98;">t</tspan><tspan x="197.343" y="0" style="font-family:'ProductusOSGiBookc'; font-size:7.98;">o</tspan><tspan x="201.07" y="0" style="font-family:'ProductusOSGiBookc'; font-size:7.98;">r</tspan></text>
<rect x="354.06" y="56.027" width="0.48" height="0.24"/>
<rect x="354.06" y="56.268" width="0.48" height="64.02"/>
<rect x="184.02" y="27.647" width="0.48" height="0.24"/>
<rect x="184.02" y="27.888" width="0.48" height="92.4"/>
<rect x="269.04" y="13.487" width="0.479" height="0.24"/>
<rect x="269.04" y="13.728" width="0.479" height="106.56"/>
<text transform="matrix(1 0 0 1 322.7998 8.1475)"><tspan x="0" y="0" style="font-family:'ProductusOSGiBookc'; font-size:7.98;">P</tspan><tspan x="3.128" y="0" style="font-family:'ProductusOSGiBookc'; font-size:7.98;">a</tspan><tspan x="6.424" y="0" style="font-family:'ProductusOSGiBookc'; font-size:7.98;">r</tspan><tspan x="8.643" y="0" style="font-family:'ProductusOSGiBookc'; font-size:7.98;">t</tspan><tspan x="10.98" y="0" style="font-family:'ProductusOSGiBookc'; font-size:7.98;">i</tspan><tspan x="12.488" y="0" style="font-family:'ProductusOSGiBookc'; font-size:7.98;">c</tspan><tspan x="15.553" y="0" style="font-family:'ProductusOSGiBookc'; font-size:7.98;">i</tspan><tspan x="17.108" y="0" style="font-family:'ProductusOSGiBookc'; font-size:7.98;">p</tspan><tspan x="20.771" y="0" style="font-family:'ProductusOSGiBookc'; font-size:7.98;">a</tspan><tspan x="24.067" y="0" style="font-family:'ProductusOSGiBookc'; font-size:7.98;">n</tspan><tspan x="27.722" y="0" style="font-family:'ProductusOSGiBookc'; font-size:7.98;">t</tspan></text>
<rect x="94.02" y="20.567" width="4.68" height="0.48"/>
<polyline points="94.38,18.048 94.14,18.468 98.58,21.048 98.82,21.048 99.24,20.808 98.82,20.627 "/>
<polyline points="98.82,21.048 98.58,20.627 94.14,23.208 94.38,23.627 "/>
<rect x="13.92" y="20.567" width="0.24" height="0.48"/>
<rect x="14.16" y="20.567" width="80.1" height="0.48"/>
<text transform="matrix(1 0 0 1 21.2397 18.4678)"><tspan x="0" y="0" style="font-family:'ProductusOSGiBookc'; font-size:7.98;">b</tspan><tspan x="3.695" y="0" style="font-family:'ProductusOSGiBookc'; font-size:7.98;">e</tspan><tspan x="7.174" y="0" style="font-family:'ProductusOSGiBookc'; font-size:7.98;">g</tspan><tspan x="10.597" y="0" style="font-family:'ProductusOSGiBookc'; font-size:7.98;">in</tspan><tspan x="15.824" y="0" style="font-family:'ProductusOSGiBookc'; font-size:7.98;">()</tspan></text>
<text transform="matrix(1 0 0 1 106.2598 25.5474)"><tspan x="0" y="0" style="font-family:'ProductusOSGiBookc'; font-size:7.98;">n</tspan><tspan x="3.646" y="0" style="font-family:'ProductusOSGiBookc'; font-size:7.98;">e</tspan><tspan x="6.95" y="0" style="font-family:'ProductusOSGiBookc'; font-size:7.98;">w()</tspan></text>
<rect x="179.04" y="27.647" width="4.68" height="0.48"/>
<polyline points="179.399,25.127 179.16,25.548 183.6,28.127 183.84,28.127 184.26,27.888 183.84,27.708 "/>
<polyline points="183.84,28.127 183.6,27.708 179.16,30.288 179.399,30.708 "/>
<rect x="98.94" y="27.647" width="0.24" height="0.48"/>
<rect x="99.18" y="27.647" width="80.101" height="0.48"/>
<rect x="264.06" y="48.948" width="4.74" height="0.48"/>
<polyline points="264.479,46.428 264.24,46.848 268.68,49.428 268.92,49.428 269.22,49.248 268.92,49.008 "/>
<polyline points="268.92,49.428 268.68,49.008 264.24,51.527 264.479,51.948 "/>
<rect x="13.92" y="48.948" width="0.24" height="0.48"/>
<rect x="14.16" y="48.948" width="250.14" height="0.48"/>
<rect x="99.72" y="70.188" width="4.68" height="0.48"/>
<polyline points="104.04,73.188 104.28,72.768 99.84,70.188 99.6,70.188 99.18,70.428 99.6,70.607 "/>
<polyline points="99.6,70.188 99.84,70.607 104.28,68.027 104.04,67.607 "/>
<rect x="269.28" y="70.188" width="0.239" height="0.48"/>
<rect x="104.16" y="70.188" width="165.121" height="0.48"/>
<text transform="matrix(1 0 0 1 21.2397 46.9077)"><tspan x="0" y="0" style="font-family:'ProductusOSGiBookc'; font-size:7.98;">w</tspan><tspan x="4.924" y="0" style="font-family:'ProductusOSGiBookc'; font-size:7.98;">o</tspan><tspan x="8.65" y="0" style="font-family:'ProductusOSGiBookc'; font-size:7.98;">r</tspan><tspan x="10.869" y="0" style="font-family:'ProductusOSGiBookc'; font-size:7.98;">k</tspan><tspan x="14.108" y="0" style="font-family:'ProductusOSGiBookc'; font-size:7.98;">(</tspan><tspan x="16.447" y="0" style="font-family:'ProductusOSGiBookc'; font-size:7.98;">)</tspan></text>
<text transform="matrix(1 0 0 1 221.5801 68.0874)"><tspan x="0" y="0" style="font-family:'ProductusOSGiBookc'; font-size:7.98;">add</tspan><tspan x="10.629" y="0" style="font-family:'ProductusOSGiBookc'; font-size:7.98;">P</tspan><tspan x="13.758" y="0" style="font-family:'ProductusOSGiBookc'; font-size:7.98;">art</tspan><tspan x="21.609" y="0" style="font-family:'ProductusOSGiBookc'; font-size:7.98;">i</tspan><tspan x="23.118" y="0" style="font-family:'ProductusOSGiBookc'; font-size:7.98;">cpa</tspan><tspan x="33.148" y="0" style="font-family:'ProductusOSGiBookc'; font-size:7.98;">n</tspan><tspan x="36.755" y="0" style="font-family:'ProductusOSGiBookc'; font-size:7.98;">t(</tspan><tspan x="41.384" y="0" style="font-family:'ProductusOSGiBookc'; font-size:7.98;">)</tspan></text>
<rect x="349.14" y="56.027" width="4.68" height="0.48"/>
<polyline points="349.5,53.508 349.26,53.928 353.7,56.508 353.939,56.508 354.359,56.268 353.939,56.087 "/>
<polyline points="353.939,56.508 353.7,56.087 349.26,58.667 349.5,59.087 "/>
<rect x="269.04" y="56.027" width="0.24" height="0.48"/>
<rect x="269.28" y="56.027" width="80.1" height="0.48"/>
<text transform="matrix(1 0 0 1 275.9395 53.9873)"><tspan x="0" y="0" style="font-family:'ProductusOSGiBookc'; font-size:7.98;">n</tspan><tspan x="3.646" y="0" style="font-family:'ProductusOSGiBookc'; font-size:7.98;">e</tspan><tspan x="7.015" y="0" style="font-family:'ProductusOSGiBookc'; font-size:7.98;">w()</tspan></text>
<rect x="179.04" y="98.508" width="4.68" height="0.479"/>
<polyline points="179.399,96.048 179.16,96.468 183.6,98.987 183.84,98.987 184.26,98.748 183.84,98.567 "/>
<polyline points="183.84,98.987 183.6,98.567 179.16,101.147 179.399,101.567 "/>
<rect x="13.92" y="98.508" width="0.24" height="0.479"/>
<rect x="14.16" y="98.508" width="165.121" height="0.479"/>
<text transform="matrix(1 0 0 1 21.2397 96.5273)" style="font-family:'ProductusOSGiBookc'; font-size:7.98;">end()</text>
<rect x="349.14" y="105.647" width="4.68" height="0.48"/>
<polyline points="349.5,103.127 349.26,103.548 353.7,106.127 353.939,106.127 354.24,105.948 353.939,105.708 "/>
<polyline points="353.939,106.127 353.7,105.708 349.26,108.228 349.5,108.647 "/>
<rect x="184.02" y="105.647" width="0.24" height="0.48"/>
<rect x="184.26" y="105.647" width="165.12" height="0.48"/>
<text transform="matrix(1 0 0 1 186.1797 103.6074)" style="font-family:'ProductusOSGiBookc'; font-size:7.98;">ended()</text>
<rect x="12.66" y="91.667" width="3" height="1.5"/>
<rect x="12.66" y="47.688" width="3" height="43.98"/>
<rect x="97.68" y="19.308" width="3" height="1.5"/>
<rect x="97.68" y="20.808" width="3" height="15.66"/>
<rect x="12.66" y="112.968" width="3" height="1.5"/>
<rect x="12.66" y="97.248" width="3" height="15.72"/>
<rect x="12.66" y="19.308" width="3" height="1.5"/>
<rect x="12.66" y="20.808" width="3" height="15.66"/>
<rect x="267.78" y="91.667" width="3" height="1.5"/>
<rect x="267.78" y="47.688" width="3" height="43.98"/>
<rect x="182.76" y="97.248" width="3" height="1.5"/>
<rect x="182.76" y="98.748" width="3" height="8.64"/>
<rect x="179.04" y="84.348" width="4.68" height="0.48"/>
<polyline points="179.399,81.828 179.16,82.248 183.6,84.828 183.84,84.828 184.26,84.587 183.84,84.408 "/>
<polyline points="183.84,84.828 183.6,84.408 179.16,86.987 179.399,87.408 "/>
<rect x="98.94" y="84.348" width="0.24" height="0.48"/>
<rect x="99.18" y="84.348" width="80.101" height="0.48"/>
<text transform="matrix(1 0 0 1 127.5596 82.2476)"><tspan x="0" y="0" style="font-family:'ProductusOSGiBookc'; font-size:7.98;">a</tspan><tspan x="3.28" y="0" style="font-family:'ProductusOSGiBookc'; font-size:7.98;">dd</tspan><tspan x="10.621" y="0" style="font-family:'ProductusOSGiBookc'; font-size:7.98;">P</tspan><tspan x="13.75" y="0" style="font-family:'ProductusOSGiBookc'; font-size:7.98;">a</tspan><tspan x="17.029" y="0" style="font-family:'ProductusOSGiBookc'; font-size:7.98;">rticpan</tspan><tspan x="36.819" y="0" style="font-family:'ProductusOSGiBookc'; font-size:7.98;">t</tspan><tspan x="39.102" y="0" style="font-family:'ProductusOSGiBookc'; font-size:7.98;">(</tspan><tspan x="41.439" y="0" style="font-family:'ProductusOSGiBookc'; font-size:7.98;">)</tspan></text>
<rect x="97.68" y="91.667" width="3" height="1.5"/>
<rect x="97.68" y="68.928" width="3" height="22.74"/>
</svg>
