<?xml version="1.0" encoding="utf-8"?>
<!-- Generator: Adobe Illustrator 16.0.1, SVG Export Plug-In . SVG Version: 6.00 Build 0)  -->
<!DOCTYPE svg PUBLIC "-//W3C//DTD SVG 1.1//EN" "http://www.w3.org/Graphics/SVG/1.1/DTD/svg11.dtd">
<svg version="1.1" id="Layer_1" xmlns="http://www.w3.org/2000/svg" xmlns:xlink="http://www.w3.org/1999/xlink" x="0px" y="0px"
	 width="328.828px" height="248.04px" viewBox="0 0 328.828 248.04" enable-background="new 0 0 328.828 248.04"
	 xml:space="preserve">
<rect fill="#B3B3B3" width="198.48" height="248.04"/>
<rect x="14.22" y="42.48" fill="#E6E6E6" width="170.04" height="56.7"/>
<rect x="14.22" y="184.26" fill="#E6E6E6" width="170.04" height="56.699"/>
<rect x="73.26" y="8.4" width="54.3" height="27"/>
<rect x="73.26" y="8.16" width="54.54" height="0.48"/>
<rect x="127.32" y="8.4" width="0.48" height="27.24"/>
<rect x="73.02" y="35.16" width="54.54" height="0.48"/>
<rect x="73.02" y="8.16" width="0.48" height="27.24"/>
<rect x="70.92" y="6.6" fill="#FFFFFF" width="54.3" height="27"/>
<rect x="70.92" y="6.36" width="54.54" height="0.48"/>
<rect x="124.98" y="6.6" width="0.48" height="27.24"/>
<rect x="70.68" y="33.36" width="54.54" height="0.48"/>
<rect x="70.68" y="6.36" width="0.48" height="27.24"/>
<text transform="matrix(0.9504 0 0 1 73.2603 13.7407)" font-family="'ProductusOSGiBookc'" font-size="7.98">create(...)</text>
<rect x="99" y="35.4" width="0.48" height="163.021"/>
<rect x="73.26" y="199.741" width="54.3" height="27"/>
<rect x="73.26" y="199.5" width="54.54" height="0.479"/>
<rect x="127.32" y="199.741" width="0.48" height="27.239"/>
<rect x="73.02" y="226.5" width="54.54" height="0.479"/>
<rect x="73.02" y="199.5" width="0.48" height="27.24"/>
<rect x="70.92" y="197.94" fill="#FFFFFF" width="54.3" height="27"/>
<rect x="70.92" y="197.7" width="54.54" height="0.48"/>
<rect x="124.98" y="197.94" width="0.48" height="27.24"/>
<rect x="70.68" y="224.7" width="54.54" height="0.48"/>
<rect x="70.68" y="197.7" width="0.48" height="27.24"/>
<text transform="matrix(0.9504 0 0 1 73.2603 205.0806)" font-family="'ProductusOSGiBookc'" font-size="7.98">end(...)</text>
<polyline points="99.3,49.32 99.24,49.8 148.86,54.54 149.1,54.3 149.1,54.061 148.92,54.061 "/>
<rect x="148.62" y="54.3" width="0.48" height="9.48"/>
<rect x="263.16" y="127.32" width="10.619" height="0.479"/>
<polyline points="273.48,130.741 273.6,130.26 263.221,127.32 263.1,127.32 262.26,127.561 263.1,127.799 "/>
<polyline points="263.1,127.32 263.221,127.799 273.6,124.799 273.48,124.32 "/>
<rect x="273.779" y="127.32" width="4.021" height="0.479"/>
<rect x="284.34" y="127.32" width="8.76" height="0.479"/>
<rect x="299.641" y="127.32" width="8.76" height="0.479"/>
<rect x="314.94" y="127.32" width="4.021" height="0.479"/>
<text transform="matrix(0.9504 0 0 1 148.8599 11.8208)" font-family="'ProductusOSGiBookc'" font-size="7.98">method body</text>
<text transform="matrix(0.9504 0 0 1 21.0605 50.0415)" font-family="'ProductusOSGiBookc'" font-size="7.98">try</text>
<text transform="matrix(0.9504 0 0 1 14.2202 168.0015)" font-family="'ProductusOSGiBookc'" font-size="7.98">finall</text>
<text transform="matrix(0.9504 0 0 1 27.021 168.0015)" font-family="'ProductusOSGiBookc'" font-size="7.98">y</text>
<text transform="matrix(0.9504 0 0 1 273.4199 122.1411)" font-family="'ProductusOSGiBookc'" font-size="7.98">asynchronous failure</text>
<rect x="14.22" y="113.4" fill="#E6E6E6" width="70.86" height="56.64"/>
<polyline points="99.3,49.8 99.24,49.32 49.62,54.061 49.38,54.061 49.38,54.3 49.68,54.54 "/>
<rect x="49.38" y="54.3" width="0.48" height="9.48"/>
<text transform="matrix(0.9504 0 0 1 21.0601 120.9604)" font-family="'ProductusOSGiBookc'" font-size="7.98">catch</text>
<rect x="49.38" y="63.78" width="0.48" height="63.78"/>
<polyline points="99.24,163.2 99.3,162.719 49.68,158.04 49.38,158.28 49.38,158.521 49.62,158.521 "/>
<rect x="49.38" y="148.799" width="0.48" height="9.48"/>
<rect x="23.64" y="128.879" width="54.36" height="27"/>
<rect x="23.64" y="128.64" width="54.6" height="0.479"/>
<rect x="77.76" y="128.879" width="0.48" height="27.24"/>
<rect x="23.4" y="155.64" width="54.6" height="0.479"/>
<rect x="23.4" y="128.64" width="0.48" height="27.239"/>
<rect x="21.3" y="127.081" fill="#FFFFFF" width="54.3" height="27"/>
<rect x="21.3" y="126.84" width="54.54" height="0.479"/>
<rect x="75.36" y="127.081" width="0.48" height="27.239"/>
<rect x="21.06" y="153.84" width="54.54" height="0.479"/>
<rect x="21.06" y="126.84" width="0.48" height="27.24"/>
<text transform="matrix(0.9504 0 0 1 23.6401 134.2212)" font-family="'ProductusOSGiBookc'" font-size="7.98">fail(...)</text>
<polyline points="99.24,91.86 99.3,92.34 148.92,87.6 149.1,87.6 149.1,87.36 148.86,87.12 "/>
<rect x="148.62" y="77.94" width="0.48" height="9.42"/>
<rect x="122.88" y="58.5" width="54.3" height="27"/>
<rect x="122.88" y="58.26" width="54.541" height="0.48"/>
<rect x="176.939" y="58.5" width="0.48" height="27.24"/>
<rect x="122.64" y="85.26" width="54.54" height="0.48"/>
<rect x="122.64" y="58.26" width="0.48" height="27.24"/>
<rect x="120.48" y="56.7" fill="#FFFFFF" width="54.36" height="27"/>
<rect x="120.48" y="56.46" width="54.6" height="0.48"/>
<rect x="174.6" y="56.7" width="0.479" height="27.24"/>
<rect x="120.24" y="83.46" width="54.6" height="0.48"/>
<rect x="120.24" y="56.46" width="0.48" height="27.24"/>
<text transform="matrix(0.9504 0 0 1 122.8799 63.8403)" font-family="'ProductusOSGiBookc'" font-size="7.98">fail(...)</text>
<rect x="207.9" y="115.2" width="54.359" height="27"/>
<rect x="207.9" y="114.96" width="54.601" height="0.48"/>
<rect x="262.02" y="115.2" width="0.48" height="27.24"/>
<rect x="207.66" y="141.959" width="54.602" height="0.48"/>
<rect x="207.66" y="114.96" width="0.48" height="27.24"/>
<rect x="205.561" y="113.4" fill="#FFFFFF" width="54.299" height="27"/>
<rect x="205.561" y="113.16" width="54.539" height="0.48"/>
<rect x="259.62" y="113.4" width="0.479" height="27.24"/>
<rect x="205.32" y="140.161" width="54.539" height="0.479"/>
<rect x="205.32" y="113.16" width="0.479" height="27.24"/>
<text transform="matrix(0.9504 0 0 1 207.9004 120.481)" font-family="'ProductusOSGiBookc'" font-size="7.98">fail(...)</text>
<text transform="matrix(0.9504 0 0 1 21.0605 192.5415)" font-family="'ProductusOSGiBookc'" font-size="7.98">finally</text>
</svg>
