<?xml version="1.0" encoding="utf-8"?>
<!-- Generator: Adobe Illustrator 16.0.0, SVG Export Plug-In . SVG Version: 6.00 Build 0)  -->
<!DOCTYPE svg PUBLIC "-//W3C//DTD SVG 1.1//EN" "http://www.w3.org/Graphics/SVG/1.1/DTD/svg11.dtd">
<svg version="1.1" id="Layer_1" xmlns="http://www.w3.org/2000/svg" xmlns:xlink="http://www.w3.org/1999/xlink" x="0px" y="0px"
	 width="325.98px" height="142.44px" viewBox="0 0 325.98 142.44" style="enable-background:new 0 0 325.98 142.44;"
	 xml:space="preserve">
<rect x="127.56" y="99.9" style="fill:#E6E6E6;" width="71.701" height="42.54"/>
<rect x="254.28" style="fill:#E6E6E6;" width="71.7" height="43.2"/>
<rect x="264.54" y="9.6" width="54.36" height="27"/>
<rect x="264.54" y="9.36" width="54.601" height="0.48"/>
<rect x="318.66" y="9.6" width="0.48" height="27.24"/>
<rect x="264.299" y="36.36" width="54.601" height="0.48"/>
<rect x="264.299" y="9.36" width="0.48" height="27.24"/>
<rect x="262.2" y="7.8" style="fill:#FFFFFF;" width="54.3" height="27"/>
<rect x="262.2" y="7.56" width="54.54" height="0.48"/>
<rect x="316.26" y="7.8" width="0.479" height="27.24"/>
<rect x="261.959" y="34.56" width="54.54" height="0.48"/>
<rect x="261.959" y="7.56" width="0.48" height="27.24"/>
<text transform="matrix(1 0 0 1.0522 264.5396 14.9399)"><tspan x="0" y="0" style="font-family:'ProductusOSGiBookc'; font-size:7.5841;">P</tspan><tspan x="3.019" y="0" style="font-family:'ProductusOSGiBookc'; font-size:7.5841;">a</tspan><tspan x="6.067" y="0" style="font-family:'ProductusOSGiBookc'; font-size:7.5841;">r</tspan><tspan x="8.221" y="0" style="font-family:'ProductusOSGiBookc'; font-size:7.5841;">t</tspan><tspan x="10.436" y="0" style="font-family:'ProductusOSGiBookc'; font-size:7.5841;">i</tspan><tspan x="11.876" y="0" style="font-family:'ProductusOSGiBookc'; font-size:7.5841;">c</tspan><tspan x="14.758" y="0" style="font-family:'ProductusOSGiBookc'; font-size:7.5841;">i</tspan><tspan x="16.252" y="0" style="font-family:'ProductusOSGiBookc'; font-size:7.5841;">pa</tspan><tspan x="22.851" y="0" style="font-family:'ProductusOSGiBookc'; font-size:7.5841;">n</tspan><tspan x="26.271" y="0" style="font-family:'ProductusOSGiBookc'; font-size:7.5841;">t</tspan><tspan x="28.485" y="0" style="font-family:'ProductusOSGiBookc'; font-size:7.5841;"> </tspan><tspan x="30.04" y="0" style="font-family:'ProductusOSGiBookc'; font-size:7.5841;">I</tspan><tspan x="31.48" y="0" style="font-family:'ProductusOSGiBookc'; font-size:7.5841;">m</tspan><tspan x="36.934" y="0" style="font-family:'ProductusOSGiBookc'; font-size:7.5841;">pl</tspan></text>
<polyline style="fill-rule:evenodd;clip-rule:evenodd;fill:#FFFFFF;" points="155.879,71.58 162.959,85.74 170.04,71.58 "/>
<polyline points="156.12,71.46 163.2,85.62 163.2,85.86 162.78,85.62 169.86,71.46 170.04,71.34 170.459,71.34 163.2,85.86 
	162.959,86.28 162.78,85.86 155.7,71.7 "/>
<polyline points="170.04,71.82 155.879,71.82 155.7,71.7 155.52,71.34 170.04,71.34 "/>
<rect y="0.72" style="fill:#E6E6E6;" width="71.7" height="43.2"/>
<rect x="10.26" y="9.12" width="54.3" height="27"/>
<rect x="10.26" y="8.88" width="54.54" height="0.48"/>
<rect x="64.32" y="9.12" width="0.48" height="27.24"/>
<rect x="10.02" y="35.88" width="54.54" height="0.48"/>
<rect x="10.02" y="8.88" width="0.48" height="27.24"/>
<rect x="7.92" y="7.32" style="fill:#FFFFFF;" width="54.3" height="27"/>
<rect x="7.92" y="7.08" width="54.54" height="0.48"/>
<rect x="61.98" y="7.32" width="0.48" height="27.24"/>
<rect x="7.68" y="34.08" width="54.54" height="0.48"/>
<rect x="7.68" y="7.08" width="0.48" height="27.24"/>
<text transform="matrix(1 0 0 1.0522 10.2598 14.46)"><tspan x="0" y="0" style="font-family:'ProductusOSGiBookc'; font-size:7.5841;">Initiat</tspan><tspan x="15.395" y="0" style="font-family:'ProductusOSGiBookc'; font-size:7.5841;">o</tspan><tspan x="18.99" y="0" style="font-family:'ProductusOSGiBookc'; font-size:7.5841;">r</tspan></text>
<rect x="136.98" y="109.02" width="54.359" height="27"/>
<rect x="136.98" y="108.78" width="54.6" height="0.48"/>
<rect x="191.1" y="109.02" width="0.479" height="27.24"/>
<rect x="136.74" y="135.78" width="54.6" height="0.48"/>
<rect x="136.74" y="108.78" width="0.48" height="27.24"/>
<rect x="134.64" y="107.22" style="fill:#FFFFFF;" width="54.3" height="27"/>
<rect x="134.64" y="106.98" width="54.541" height="0.48"/>
<rect x="188.7" y="107.22" width="0.48" height="27.24"/>
<rect x="134.4" y="133.98" width="54.54" height="0.48"/>
<rect x="134.4" y="106.98" width="0.48" height="27.24"/>
<text transform="matrix(1 0 0 1.0522 136.98 114.3599)"><tspan x="0" y="0" style="font-family:'ProductusOSGiBookc'; font-size:7.5841;">C</tspan><tspan x="3.966" y="0" style="font-family:'ProductusOSGiBookc'; font-size:7.5841;">o</tspan><tspan x="7.508" y="0" style="font-family:'ProductusOSGiBookc'; font-size:7.5841;">ordinator</tspan><tspan x="32.604" y="0" style="font-family:'ProductusOSGiBookc'; font-size:7.5841;"> </tspan><tspan x="34.105" y="0" style="font-family:'ProductusOSGiBookc'; font-size:7.5841;">Impl</tspan></text>
<rect x="162.72" y="85.5" width="0.479" height="21.78"/>
<rect x="35.16" y="35.88" width="0.48" height="21.78"/>
<rect x="35.4" y="57.18" width="127.8" height="0.48"/>
<rect x="162.72" y="57.42" width="0.479" height="14.4"/>
<rect x="290.28" y="35.88" width="0.48" height="21.78"/>
<rect x="162.72" y="57.18" width="127.8" height="0.48"/>
<rect x="162.72" y="57.42" width="0.479" height="14.4"/>
<text transform="matrix(1 0 0 1.0522 177.1802 76.3198)"><tspan x="0" y="0" style="font-family:'ProductusOSGiBookc'; font-size:7.5841;">C</tspan><tspan x="3.967" y="0" style="font-family:'ProductusOSGiBookc'; font-size:7.5841;">o</tspan><tspan x="7.562" y="0" style="font-family:'ProductusOSGiBookc'; font-size:7.5841;">o</tspan><tspan x="11.103" y="0" style="font-family:'ProductusOSGiBookc'; font-size:7.5841;">r</tspan><tspan x="13.204" y="0" style="font-family:'ProductusOSGiBookc'; font-size:7.5841;">d</tspan><tspan x="16.685" y="0" style="font-family:'ProductusOSGiBookc'; font-size:7.5841;">i</tspan><tspan x="18.179" y="0" style="font-family:'ProductusOSGiBookc'; font-size:7.5841;">n</tspan><tspan x="21.6" y="0" style="font-family:'ProductusOSGiBookc'; font-size:7.5841;">at</tspan><tspan x="26.931" y="0" style="font-family:'ProductusOSGiBookc'; font-size:7.5841;">o</tspan><tspan x="30.525" y="0" style="font-family:'ProductusOSGiBookc'; font-size:7.5841;">r</tspan></text>
<rect x="136.98" y="9.6" width="54.359" height="27"/>
<rect x="136.98" y="9.36" width="54.6" height="0.48"/>
<rect x="191.1" y="9.6" width="0.479" height="27.24"/>
<rect x="136.74" y="36.36" width="54.6" height="0.48"/>
<rect x="136.74" y="9.36" width="0.48" height="27.24"/>
<rect x="134.64" y="7.8" style="fill:#FFFFFF;" width="54.3" height="27"/>
<rect x="134.64" y="7.56" width="54.541" height="0.48"/>
<rect x="188.7" y="7.8" width="0.48" height="27.24"/>
<rect x="134.4" y="34.56" width="54.54" height="0.48"/>
<rect x="134.4" y="7.56" width="0.48" height="27.24"/>
<text transform="matrix(1 0 0 1.0522 136.98 14.9399)"><tspan x="0" y="0" style="font-family:'ProductusOSGiBookc'; font-size:7.5841;">&lt;</tspan><tspan x="2.776" y="0" style="font-family:'ProductusOSGiBookc'; font-size:7.5841;">&lt;</tspan><tspan x="5.589" y="0" style="font-family:'ProductusOSGiBookc'; font-size:7.5841;">interfa</tspan><tspan x="23.093" y="0" style="font-family:'ProductusOSGiBookc'; font-size:7.5841;">c</tspan><tspan x="26.028" y="0" style="font-family:'ProductusOSGiBookc'; font-size:7.5841;">e&gt;</tspan><tspan x="32.095" y="0" style="font-family:'ProductusOSGiBookc'; font-size:7.5841;">&gt;</tspan></text>
<text transform="matrix(1 0 0 1.0522 136.98 23.4004)"><tspan x="0" y="0" style="font-family:'ProductusOSGiBookc'; font-size:7.5841;">C</tspan><tspan x="3.966" y="0" style="font-family:'ProductusOSGiBookc'; font-size:7.5841;">o</tspan><tspan x="7.508" y="0" style="font-family:'ProductusOSGiBookc'; font-size:7.5841;">ord</tspan><tspan x="16.692" y="0" style="font-family:'ProductusOSGiBookc'; font-size:7.5841;">i</tspan><tspan x="18.134" y="0" style="font-family:'ProductusOSGiBookc'; font-size:7.5841;">nat</tspan><tspan x="26.953" y="0" style="font-family:'ProductusOSGiBookc'; font-size:7.5841;">i</tspan><tspan x="28.395" y="0" style="font-family:'ProductusOSGiBookc'; font-size:7.5841;">o</tspan><tspan x="31.974" y="0" style="font-family:'ProductusOSGiBookc'; font-size:7.5841;">n</tspan></text>
<rect x="258.18" y="21.72" width="4.26" height="0.48"/>
<rect x="244.02" y="21.72" width="8.1" height="0.48"/>
<rect x="229.799" y="21.72" width="8.101" height="0.48"/>
<rect x="215.64" y="21.72" width="8.04" height="0.48"/>
<rect x="201.419" y="21.72" width="8.101" height="0.48"/>
<rect x="191.1" y="21.72" width="4.199" height="0.48"/>
<rect x="130.62" y="21.72" width="4.26" height="0.48"/>
<rect x="124.32" y="21.72" width="0.24" height="0.48"/>
<rect x="116.46" y="21.72" width="7.86" height="0.48"/>
<rect x="110.1" y="21.72" width="0.24" height="0.48"/>
<rect x="102.24" y="21.72" width="7.86" height="0.48"/>
<rect x="95.88" y="21.72" width="0.24" height="0.48"/>
<rect x="88.08" y="21.72" width="7.8" height="0.48"/>
<rect x="81.72" y="21.72" width="0.24" height="0.48"/>
<rect x="73.86" y="21.72" width="7.86" height="0.48"/>
<rect x="67.5" y="21.72" width="0.24" height="0.48"/>
<rect x="63.54" y="21.72" width="3.96" height="0.48"/>
</svg>
