<?xml version="1.0" encoding="utf-8"?>
<!-- Generator: Adobe Illustrator 21.1.0, SVG Export Plug-In . SVG Version: 6.00 Build 0)  -->
<!DOCTYPE svg PUBLIC "-//W3C//DTD SVG 1.1//EN" "http://www.w3.org/Graphics/SVG/1.1/DTD/svg11.dtd">
<svg version="1.1" id="Layer_1" xmlns="http://www.w3.org/2000/svg" xmlns:xlink="http://www.w3.org/1999/xlink" x="0px" y="0px"
	 viewBox="0 0 231.2 273.9" style="enable-background:new 0 0 231.2 273.9;" xml:space="preserve">
<style type="text/css">
	.st0{fill:none;stroke:#000000;stroke-width:0.5228;stroke-linejoin:round;}
	.st1{fill:#FFFFFF;}
	.st2{font-family:'ProductusBook';}
	.st3{font-size:9px;}
	.st4{font-size:8px;}
</style>
<polygon points="28.2,24.3 2.1,24.3 2.1,2.1 54.4,2.1 54.4,24.3 "/>
<polygon class="st0" points="28.2,24.3 2.1,24.3 2.1,2.1 54.4,2.1 54.4,24.3 "/>
<polygon class="st1" points="26.4,22.5 0.3,22.5 0.3,0.3 52.5,0.3 52.5,22.5 "/>
<polygon class="st0" points="26.4,22.5 0.3,22.5 0.3,0.3 52.5,0.3 52.5,22.5 "/>
<polygon points="115.9,24.3 89.8,24.3 89.8,2.1 142.1,2.1 142.1,24.3 "/>
<polygon class="st0" points="115.9,24.3 89.8,24.3 89.8,2.1 142.1,2.1 142.1,24.3 "/>
<polygon class="st1" points="114.1,22.5 88,22.5 88,0.3 140.2,0.3 140.2,22.5 "/>
<polygon class="st0" points="114.1,22.5 88,22.5 88,0.3 140.2,0.3 140.2,22.5 "/>
<polygon points="204.8,24.3 178.7,24.3 178.7,2.1 231,2.1 231,24.3 "/>
<polygon class="st0" points="204.8,24.3 178.7,24.3 178.7,2.1 231,2.1 231,24.3 "/>
<polygon class="st1" points="203,22.5 176.8,22.5 176.8,0.3 229.1,0.3 229.1,22.5 "/>
<polygon class="st0" points="203,22.5 176.8,22.5 176.8,0.3 229.1,0.3 229.1,22.5 "/>
<line class="st0" x1="140.2" y1="11.4" x2="176.8" y2="11.4"/>
<line class="st0" x1="52.5" y1="11.4" x2="88" y2="11.4"/>
<polygon points="204.8,59.2 178.7,59.2 178.7,37 231,37 231,59.2 "/>
<polygon class="st0" points="204.8,59.2 178.7,59.2 178.7,37 231,37 231,59.2 "/>
<polygon class="st1" points="203,57.4 176.8,57.4 176.8,35.2 229.1,35.2 229.1,57.4 "/>
<polygon class="st0" points="203,57.4 176.8,57.4 176.8,35.2 229.1,35.2 229.1,57.4 "/>
<polyline class="st0" points="140.2,11.4 155.2,11.4 155.2,46.3 176.8,46.3 "/>
<polygon points="204.8,94.1 178.7,94.1 178.7,71.9 231,71.9 231,94.1 "/>
<polygon class="st0" points="204.8,94.1 178.7,94.1 178.7,71.9 231,71.9 231,94.1 "/>
<polygon class="st1" points="203,92.3 176.8,92.3 176.8,70.1 229.1,70.1 229.1,92.3 "/>
<polygon class="st0" points="203,92.3 176.8,92.3 176.8,70.1 229.1,70.1 229.1,92.3 "/>
<polygon points="204.8,129 178.7,129 178.7,106.8 231,106.8 231,129 "/>
<polygon class="st0" points="204.8,129 178.7,129 178.7,106.8 231,106.8 231,129 "/>
<polygon class="st1" points="203,127.2 176.8,127.2 176.8,105 229.1,105 229.1,127.2 "/>
<polygon class="st0" points="203,127.2 176.8,127.2 176.8,105 229.1,105 229.1,127.2 "/>
<polygon points="204.8,165.5 178.7,165.5 178.7,143.3 231,143.3 231,165.5 "/>
<polygon class="st0" points="204.8,165.5 178.7,165.5 178.7,143.3 231,143.3 231,165.5 "/>
<polygon class="st1" points="203,163.6 176.8,163.6 176.8,141.4 229.1,141.4 229.1,163.6 "/>
<polygon class="st0" points="203,163.6 176.8,163.6 176.8,141.4 229.1,141.4 229.1,163.6 "/>
<polygon points="115.9,59.2 89.8,59.2 89.8,37 142.1,37 142.1,59.2 "/>
<polygon class="st0" points="115.9,59.2 89.8,59.2 89.8,37 142.1,37 142.1,59.2 "/>
<polygon class="st1" points="114.1,57.4 88,57.4 88,35.2 140.2,35.2 140.2,57.4 "/>
<polygon class="st0" points="114.1,57.4 88,57.4 88,35.2 140.2,35.2 140.2,57.4 "/>
<polyline class="st0" points="26.4,22.5 26.4,46.3 88,46.3 "/>
<polygon points="115.9,94.1 89.8,94.1 89.8,71.9 142.1,71.9 142.1,94.1 "/>
<polygon class="st0" points="115.9,94.1 89.8,94.1 89.8,71.9 142.1,71.9 142.1,94.1 "/>
<polygon class="st1" points="114.1,92.3 88,92.3 88,70.1 140.2,70.1 140.2,92.3 "/>
<polygon class="st0" points="114.1,92.3 88,92.3 88,70.1 140.2,70.1 140.2,92.3 "/>
<polygon points="115.9,129 89.8,129 89.8,106.8 142.1,106.8 142.1,129 "/>
<polygon class="st0" points="115.9,129 89.8,129 89.8,106.8 142.1,106.8 142.1,129 "/>
<polygon class="st1" points="114.1,127.2 88,127.2 88,105 140.2,105 140.2,127.2 "/>
<polygon class="st0" points="114.1,127.2 88,127.2 88,105 140.2,105 140.2,127.2 "/>
<polygon points="115.9,165.5 89.8,165.5 89.8,143.3 142.1,143.3 142.1,165.5 "/>
<polygon class="st0" points="115.9,165.5 89.8,165.5 89.8,143.3 142.1,143.3 142.1,165.5 "/>
<polygon class="st1" points="114.1,163.6 88,163.6 88,141.4 140.2,141.4 140.2,163.6 "/>
<polygon class="st0" points="114.1,163.6 88,163.6 88,141.4 140.2,141.4 140.2,163.6 "/>
<polygon points="115.9,202.1 89.8,202.1 89.8,179.8 142.1,179.8 142.1,202.1 "/>
<polygon class="st0" points="115.9,202.1 89.8,202.1 89.8,179.8 142.1,179.8 142.1,202.1 "/>
<polygon class="st1" points="114.1,200.2 88,200.2 88,178 140.2,178 140.2,200.2 "/>
<polygon class="st0" points="114.1,200.2 88,200.2 88,178 140.2,178 140.2,200.2 "/>
<polyline class="st0" points="140.2,11.4 155.1,11.4 155.1,81.2 176.8,81.2 "/>
<polyline class="st0" points="140.2,11.4 155.1,11.4 155.1,116.1 176.8,116.1 "/>
<polyline class="st0" points="140.2,11.4 155.1,11.4 155.1,152.5 176.8,152.5 "/>
<polyline class="st0" points="26.4,22.5 26.4,22.5 26.4,81.2 88,81.2 "/>
<polyline class="st0" points="26.4,22.5 26.4,22.5 26.4,116.1 88,116.1 "/>
<polyline class="st0" points="26.4,22.5 26.4,22.5 26.4,152.5 88,152.5 "/>
<polyline class="st0" points="26.4,22.5 26.4,22.5 26.4,189.1 88,189.1 "/>
<polygon points="115.9,238.3 89.8,238.3 89.8,216.1 142.1,216.1 142.1,238.3 "/>
<polygon class="st0" points="115.9,238.3 89.8,238.3 89.8,216.1 142.1,216.1 142.1,238.3 "/>
<polygon class="st1" points="114.1,236.4 88,236.4 88,214.2 140.2,214.2 140.2,236.4 "/>
<polygon class="st0" points="114.1,236.4 88,236.4 88,214.2 140.2,214.2 140.2,236.4 "/>
<polyline class="st0" points="26.1,30.2 26.4,30.2 26.4,225.3 88,225.3 "/>
<text transform="matrix(1 0 0 1 3.9458 13.2007)" class="st2 st3">Runtime DTO</text>
<text transform="matrix(1 0 0 1 75.6719 9.812)" class="st2 st4">0..n</text>
<text transform="matrix(1 0 0 1 75.6719 44.6089)" class="st2 st4">0..n</text>
<text transform="matrix(1 0 0 1 75.6719 79.6089)" class="st2 st4">0..n</text>
<text transform="matrix(1 0 0 1 75.6719 114.4048)" class="st2 st4">0..n</text>
<text transform="matrix(1 0 0 1 75.6719 150.8716)" class="st2 st4">0..n</text>
<text transform="matrix(1 0 0 1 75.6719 187.4692)" class="st2 st4">0..n</text>
<text transform="matrix(1 0 0 1 75.6719 223.6743)" class="st2 st4">0..n</text>
<text transform="matrix(1 0 0 1 165.0044 9.812)" class="st2 st4">0..n</text>
<text transform="matrix(1 0 0 1 165.0044 44.6089)" class="st2 st4">0..n</text>
<text transform="matrix(1 0 0 1 165.0044 79.5068)" class="st2 st4">0..n</text>
<text transform="matrix(1 0 0 1 165.0044 114.4048)" class="st2 st4">0..n</text>
<text transform="matrix(1 0 0 1 165.0044 150.8716)" class="st2 st4">0..n</text>
<text transform="matrix(1 0 0 1 89.793 9.7109)" class="st2 st3">Servlet</text>
<text transform="matrix(1 0 0 1 89.793 20.5109)" class="st2 st3">Context DTO</text>
<text transform="matrix(1 0 0 1 89.7925 43.6855)" class="st2 st3">Failed Servlet</text>
<text transform="matrix(1 0 0 1 89.7925 54.4855)" class="st2 st3">Context DTO</text>
<text transform="matrix(1 0 0 1 89.7925 79.5068)" class="st2 st3">Failed</text>
<text transform="matrix(1 0 0 1 89.7925 90.3068)" class="st2 st3">Servlet DTO</text>
<text transform="matrix(1 0 0 1 89.7925 114.4048)" class="st2 st3">Failed</text>
<text transform="matrix(1 0 0 1 89.7925 125.2048)" class="st2 st3">Resource DTO</text>
<text transform="matrix(1 0 0 1 89.7925 150.8716)" class="st2 st3">Failed</text>
<text transform="matrix(1 0 0 1 89.7925 161.6716)" class="st2 st3">Filter DTO</text>
<text transform="matrix(1 0 0 1 89.7925 186.4692)" class="st2 st3">Failed Error</text>
<text transform="matrix(1 0 0 1 89.7925 197.2692)" class="st2 st3">Page DTO</text>
<text transform="matrix(1 0 0 1 89.7925 223.6743)" class="st2 st3">Failed</text>
<text transform="matrix(1 0 0 1 89.7925 234.4733)" class="st2 st3">Listener DTO</text>
<text transform="matrix(1 0 0 1 178.6724 13.2012)" class="st2 st3">Servlet DTO</text>
<text transform="matrix(1 0 0 1 178.6724 48.0986)" class="st2 st3">Resource DTO</text>
<text transform="matrix(1 0 0 1 178.6724 81.1675)" class="st2 st3">Filter DTO</text>
<text transform="matrix(1 0 0 1 178.6724 117.8955)" class="st2 st3">Error Page DTO</text>
<text transform="matrix(1 0 0 1 178.6724 154.3618)" class="st2 st3">Listener DTO</text>
<polygon points="204.8,200.5 178.7,200.5 178.7,178.3 231,178.3 231,200.5 "/>
<polygon class="st0" points="204.8,200.5 178.7,200.5 178.7,178.3 231,178.3 231,200.5 "/>
<polygon class="st1" points="203,198.6 176.8,198.6 176.8,176.4 229.1,176.4 229.1,198.6 "/>
<polygon class="st0" points="203,198.6 176.8,198.6 176.8,176.4 229.1,176.4 229.1,198.6 "/>
<text transform="matrix(1 0 0 1 165.0044 185.8716)" class="st2 st4">0..n</text>
<text transform="matrix(1 0 0 1 178.6724 185.3618)" class="st2 st3">Pre-Processor</text>
<text transform="matrix(1 0 0 1 178.6724 196.1618)" class="st2 st3">DTO</text>
<polyline class="st0" points="155.1,11.4 155.2,11.4 155.2,187.5 176.2,187.5 "/>
<polygon points="115.9,273.9 89.8,273.9 89.8,251.7 142.1,251.7 142.1,273.9 "/>
<polygon class="st0" points="115.9,273.9 89.8,273.9 89.8,251.7 142.1,251.7 142.1,273.9 "/>
<polygon class="st1" points="114.1,271.9 88,271.9 88,249.8 140.2,249.8 140.2,271.9 "/>
<polygon class="st0" points="114.1,271.9 88,271.9 88,249.8 140.2,249.8 140.2,271.9 "/>
<polyline class="st0" points="26.1,65.8 26.4,65.8 26.4,260.9 88,260.9 "/>
<text transform="matrix(1 0 0 1 75.6719 259.2243)" class="st2 st4">0..n</text>
<text transform="matrix(1 0 0 1 89.7925 259.2243)" class="st2 st3">Failed Pre-</text>
<text transform="matrix(1 0 0 1 89.7925 270.0233)" class="st2 st3">Processor DTO</text>
</svg>
