<?xml version="1.0" encoding="utf-8"?>
<!-- Generator: Adobe Illustrator 16.0.4, SVG Export Plug-In . SVG Version: 6.00 Build 0)  -->
<!DOCTYPE svg PUBLIC "-//W3C//DTD SVG 1.1//EN" "http://www.w3.org/Graphics/SVG/1.1/DTD/svg11.dtd">
<svg version="1.1" id="Layer_1" xmlns="http://www.w3.org/2000/svg" xmlns:xlink="http://www.w3.org/1999/xlink" x="0px" y="0px"
	 width="231.215px" height="238.536px" viewBox="0 0 231.215 238.536" style="enable-background:new 0 0 231.215 238.536;"
	 xml:space="preserve">
<polygon points="28.232,24.311 2.091,24.311 2.091,2.091 54.373,2.091 54.373,24.311 "/>
<polygon style="fill:none;stroke:#000000;stroke-width:0.5228;stroke-linejoin:round;" points="28.232,24.311 2.091,24.311 
	2.091,2.091 54.373,2.091 54.373,24.311 "/>
<polygon style="fill:#FFFFFF;" points="26.402,22.481 0.261,22.481 0.261,0.261 52.543,0.261 52.543,22.481 "/>
<polygon style="fill:none;stroke:#000000;stroke-width:0.5228;stroke-linejoin:round;" points="26.402,22.481 0.261,22.481 
	0.261,0.261 52.543,0.261 52.543,22.481 "/>
<polygon points="115.935,24.311 89.793,24.311 89.793,2.091 142.077,2.091 142.077,24.311 "/>
<polygon style="fill:none;stroke:#000000;stroke-width:0.5228;stroke-linejoin:round;" points="115.935,24.311 89.793,24.311 
	89.793,2.091 142.077,2.091 142.077,24.311 "/>
<polygon style="fill:#FFFFFF;" points="114.104,22.481 87.964,22.481 87.964,0.261 140.247,0.261 140.247,22.481 "/>
<polygon style="fill:none;stroke:#000000;stroke-width:0.5228;stroke-linejoin:round;" points="114.104,22.481 87.964,22.481 
	87.964,0.261 140.247,0.261 140.247,22.481 "/>
<polygon points="204.813,24.311 178.672,24.311 178.672,2.091 230.956,2.091 230.956,24.311 "/>
<polygon style="fill:none;stroke:#000000;stroke-width:0.5228;stroke-linejoin:round;" points="204.813,24.311 178.672,24.311 
	178.672,2.091 230.956,2.091 230.956,24.311 "/>
<polygon style="fill:#FFFFFF;" points="202.984,22.481 176.842,22.481 176.842,0.261 229.125,0.261 229.125,22.481 "/>
<polygon style="fill:none;stroke:#000000;stroke-width:0.5228;stroke-linejoin:round;" points="202.984,22.481 176.842,22.481 
	176.842,0.261 229.125,0.261 229.125,22.481 "/>
<line style="fill:none;stroke:#000000;stroke-width:0.5228;stroke-linejoin:round;" x1="140.247" y1="11.371" x2="176.842" y2="11.371"/>
<line style="fill:none;stroke:#000000;stroke-width:0.5228;stroke-linejoin:round;" x1="52.543" y1="11.371" x2="87.964" y2="11.371"/>
<polygon points="204.813,59.209 178.672,59.209 178.672,36.989 230.956,36.989 230.956,59.209 "/>
<polygon style="fill:none;stroke:#000000;stroke-width:0.5228;stroke-linejoin:round;" points="204.813,59.209 178.672,59.209 
	178.672,36.989 230.956,36.989 230.956,59.209 "/>
<polygon style="fill:#FFFFFF;" points="202.984,57.379 176.842,57.379 176.842,35.159 229.125,35.159 229.125,57.379 "/>
<polygon style="fill:none;stroke:#000000;stroke-width:0.5228;stroke-linejoin:round;" points="202.984,57.379 176.842,57.379 
	176.842,35.159 229.125,35.159 229.125,57.379 "/>
<polyline style="fill:none;stroke:#000000;stroke-width:0.5228;stroke-linejoin:round;" points="140.247,11.371 155.198,11.371 
	155.198,46.269 176.842,46.269 "/>
<polygon points="204.813,94.107 178.672,94.107 178.672,71.887 230.956,71.887 230.956,94.107 "/>
<polygon style="fill:none;stroke:#000000;stroke-width:0.5228;stroke-linejoin:round;" points="204.813,94.107 178.672,94.107 
	178.672,71.887 230.956,71.887 230.956,94.107 "/>
<polygon style="fill:#FFFFFF;" points="202.984,92.277 176.842,92.277 176.842,70.058 229.125,70.058 229.125,92.277 "/>
<polygon style="fill:none;stroke:#000000;stroke-width:0.5228;stroke-linejoin:round;" points="202.984,92.277 176.842,92.277 
	176.842,70.058 229.125,70.058 229.125,92.277 "/>
<polygon points="204.813,129.004 178.672,129.004 178.672,106.786 230.956,106.786 230.956,129.004 "/>
<polygon style="fill:none;stroke:#000000;stroke-width:0.5228;stroke-linejoin:round;" points="204.813,129.004 178.672,129.004 
	178.672,106.785 230.956,106.785 230.956,129.004 "/>
<polygon style="fill:#FFFFFF;" points="202.984,127.174 176.842,127.174 176.842,104.956 229.125,104.956 229.125,127.174 "/>
<polygon style="fill:none;stroke:#000000;stroke-width:0.5228;stroke-linejoin:round;" points="202.984,127.174 176.842,127.174 
	176.842,104.956 229.125,104.956 229.125,127.174 "/>
<polygon points="204.813,165.472 178.672,165.472 178.672,143.252 230.956,143.252 230.956,165.472 "/>
<polygon style="fill:none;stroke:#000000;stroke-width:0.5228;stroke-linejoin:round;" points="204.813,165.472 178.672,165.472 
	178.672,143.252 230.956,143.252 230.956,165.472 "/>
<polygon style="fill:#FFFFFF;" points="202.984,163.642 176.842,163.642 176.842,141.422 229.125,141.422 229.125,163.642 "/>
<polygon style="fill:none;stroke:#000000;stroke-width:0.5228;stroke-linejoin:round;" points="202.984,163.642 176.842,163.642 
	176.842,141.422 229.125,141.422 229.125,163.642 "/>
<polygon points="115.935,59.209 89.793,59.209 89.793,36.989 142.077,36.989 142.077,59.209 "/>
<polygon style="fill:none;stroke:#000000;stroke-width:0.5228;stroke-linejoin:round;" points="115.935,59.209 89.793,59.209 
	89.793,36.989 142.077,36.989 142.077,59.209 "/>
<polygon style="fill:#FFFFFF;" points="114.104,57.379 87.964,57.379 87.964,35.159 140.247,35.159 140.247,57.379 "/>
<polygon style="fill:none;stroke:#000000;stroke-width:0.5228;stroke-linejoin:round;" points="114.104,57.379 87.964,57.379 
	87.964,35.159 140.247,35.159 140.247,57.379 "/>
<polyline style="fill:none;stroke:#000000;stroke-width:0.5228;stroke-linejoin:round;" points="26.402,22.481 26.402,46.269 
	87.964,46.269 "/>
<polygon points="115.935,94.107 89.793,94.107 89.793,71.887 142.077,71.887 142.077,94.107 "/>
<polygon style="fill:none;stroke:#000000;stroke-width:0.5228;stroke-linejoin:round;" points="115.935,94.107 89.793,94.107 
	89.793,71.887 142.077,71.887 142.077,94.107 "/>
<polygon style="fill:#FFFFFF;" points="114.104,92.277 87.964,92.277 87.964,70.058 140.247,70.058 140.247,92.277 "/>
<polygon style="fill:none;stroke:#000000;stroke-width:0.5228;stroke-linejoin:round;" points="114.104,92.277 87.964,92.277 
	87.964,70.058 140.247,70.058 140.247,92.277 "/>
<polygon points="115.935,129.004 89.793,129.004 89.793,106.786 142.077,106.786 142.077,129.004 "/>
<polygon style="fill:none;stroke:#000000;stroke-width:0.5228;stroke-linejoin:round;" points="115.935,129.004 89.793,129.004 
	89.793,106.785 142.077,106.785 142.077,129.004 "/>
<polygon style="fill:#FFFFFF;" points="114.104,127.174 87.964,127.174 87.964,104.956 140.247,104.956 140.247,127.174 "/>
<polygon style="fill:none;stroke:#000000;stroke-width:0.5228;stroke-linejoin:round;" points="114.104,127.174 87.964,127.174 
	87.964,104.956 140.247,104.956 140.247,127.174 "/>
<polygon points="115.935,165.472 89.793,165.472 89.793,143.252 142.077,143.252 142.077,165.472 "/>
<polygon style="fill:none;stroke:#000000;stroke-width:0.5228;stroke-linejoin:round;" points="115.935,165.472 89.793,165.472 
	89.793,143.252 142.077,143.252 142.077,165.472 "/>
<polygon style="fill:#FFFFFF;" points="114.104,163.642 87.964,163.642 87.964,141.422 140.247,141.422 140.247,163.642 "/>
<polygon style="fill:none;stroke:#000000;stroke-width:0.5228;stroke-linejoin:round;" points="114.104,163.642 87.964,163.642 
	87.964,141.422 140.247,141.422 140.247,163.642 "/>
<polygon points="115.935,202.069 89.793,202.069 89.793,179.849 142.077,179.849 142.077,202.069 "/>
<polygon style="fill:none;stroke:#000000;stroke-width:0.5228;stroke-linejoin:round;" points="115.935,202.069 89.793,202.069 
	89.793,179.849 142.077,179.849 142.077,202.069 "/>
<polygon style="fill:#FFFFFF;" points="114.104,200.239 87.964,200.239 87.964,178.02 140.247,178.02 140.247,200.239 "/>
<polygon style="fill:none;stroke:#000000;stroke-width:0.5228;stroke-linejoin:round;" points="114.104,200.239 87.964,200.239 
	87.964,178.02 140.247,178.02 140.247,200.239 "/>
<polyline style="fill:none;stroke:#000000;stroke-width:0.5228;stroke-linejoin:round;" points="140.247,11.371 155.146,11.371 
	155.146,81.167 176.842,81.167 "/>
<polyline style="fill:none;stroke:#000000;stroke-width:0.5228;stroke-linejoin:round;" points="140.247,11.371 155.146,11.371 
	155.146,116.065 176.842,116.065 "/>
<polyline style="fill:none;stroke:#000000;stroke-width:0.5228;stroke-linejoin:round;" points="140.247,11.371 155.146,11.371 
	155.146,152.532 176.842,152.532 "/>
<polyline style="fill:none;stroke:#000000;stroke-width:0.5228;stroke-linejoin:round;" points="26.402,22.481 26.402,22.481 
	26.402,81.167 87.964,81.167 "/>
<polyline style="fill:none;stroke:#000000;stroke-width:0.5228;stroke-linejoin:round;" points="26.402,22.481 26.402,22.481 
	26.402,116.065 87.964,116.065 "/>
<polyline style="fill:none;stroke:#000000;stroke-width:0.5228;stroke-linejoin:round;" points="26.402,22.481 26.402,22.481 
	26.402,152.532 87.964,152.532 "/>
<polyline style="fill:none;stroke:#000000;stroke-width:0.5228;stroke-linejoin:round;" points="26.402,22.481 26.402,22.481 
	26.402,189.129 87.964,189.129 "/>
<polygon points="115.935,238.274 89.793,238.274 89.793,216.055 142.077,216.055 142.077,238.274 "/>
<polygon style="fill:none;stroke:#000000;stroke-width:0.5228;stroke-linejoin:round;" points="115.935,238.274 89.793,238.274 
	89.793,216.055 142.077,216.055 142.077,238.274 "/>
<polygon style="fill:#FFFFFF;" points="114.104,236.444 87.964,236.444 87.964,214.225 140.247,214.225 140.247,236.444 "/>
<polygon style="fill:none;stroke:#000000;stroke-width:0.5228;stroke-linejoin:round;" points="114.104,236.444 87.964,236.444 
	87.964,214.225 140.247,214.225 140.247,236.444 "/>
<polyline style="fill:none;stroke:#000000;stroke-width:0.5228;stroke-linejoin:round;" points="26.141,30.245 26.402,30.245 
	26.402,225.334 87.964,225.334 "/>
<text transform="matrix(1 0 0 1 3.9458 13.2007)" style="font-family:'ProductusBook'; font-size:9;">Runtime DTO</text>
<text transform="matrix(1 0 0 1 75.6719 9.812)" style="font-family:'ProductusBook'; font-size:8;">0..n</text>
<text transform="matrix(1 0 0 1 75.6719 44.6089)" style="font-family:'ProductusBook'; font-size:8;">0..n</text>
<text transform="matrix(1 0 0 1 75.6719 79.6089)" style="font-family:'ProductusBook'; font-size:8;">0..n</text>
<text transform="matrix(1 0 0 1 75.6719 114.4048)" style="font-family:'ProductusBook'; font-size:8;">0..n</text>
<text transform="matrix(1 0 0 1 75.6719 150.8716)" style="font-family:'ProductusBook'; font-size:8;">0..n</text>
<text transform="matrix(1 0 0 1 75.6719 187.4692)" style="font-family:'ProductusBook'; font-size:8;">0..n</text>
<text transform="matrix(1 0 0 1 75.6719 223.6743)" style="font-family:'ProductusBook'; font-size:8;">0..n</text>
<text transform="matrix(1 0 0 1 165.0044 9.812)" style="font-family:'ProductusBook'; font-size:8;">0..n</text>
<text transform="matrix(1 0 0 1 165.0044 44.6089)" style="font-family:'ProductusBook'; font-size:8;">0..n</text>
<text transform="matrix(1 0 0 1 165.0044 79.5068)" style="font-family:'ProductusBook'; font-size:8;">0..n</text>
<text transform="matrix(1 0 0 1 165.0044 114.4048)" style="font-family:'ProductusBook'; font-size:8;">0..n</text>
<text transform="matrix(1 0 0 1 165.0044 150.8716)" style="font-family:'ProductusBook'; font-size:8;">0..n</text>
<text transform="matrix(1 0 0 1 89.793 9.7109)" style="enable-background:new    ;"><tspan x="0" y="0" style="font-family:'ProductusBook'; font-size:9;">Servlet</tspan><tspan x="0" y="10.8" style="font-family:'ProductusBook'; font-size:9;">Context DTO</tspan></text>
<text transform="matrix(1 0 0 1 89.7925 43.6855)" style="enable-background:new    ;"><tspan x="0" y="0" style="font-family:'ProductusBook'; font-size:9;">Failed Servlet</tspan><tspan x="0" y="10.8" style="font-family:'ProductusBook'; font-size:9;">Context DTO</tspan></text>
<text transform="matrix(1 0 0 1 89.7925 79.5068)" style="enable-background:new    ;"><tspan x="0" y="0" style="font-family:'ProductusBook'; font-size:9;">Failed</tspan><tspan x="0" y="10.8" style="font-family:'ProductusBook'; font-size:9;">Servlet DTO</tspan></text>
<text transform="matrix(1 0 0 1 89.7925 114.4048)" style="enable-background:new    ;"><tspan x="0" y="0" style="font-family:'ProductusBook'; font-size:9;">Failed</tspan><tspan x="0" y="10.8" style="font-family:'ProductusBook'; font-size:9;">Resource DTO</tspan></text>
<text transform="matrix(1 0 0 1 89.7925 150.8716)" style="enable-background:new    ;"><tspan x="0" y="0" style="font-family:'ProductusBook'; font-size:9;">Failed</tspan><tspan x="0" y="10.8" style="font-family:'ProductusBook'; font-size:9;">Filter DTO</tspan></text>
<text transform="matrix(1 0 0 1 89.7925 186.4692)" style="enable-background:new    ;"><tspan x="0" y="0" style="font-family:'ProductusBook'; font-size:9;">Failed Error</tspan><tspan x="0" y="10.8" style="font-family:'ProductusBook'; font-size:9;">Page DTO</tspan></text>
<text transform="matrix(1 0 0 1 89.7925 223.6743)" style="enable-background:new    ;"><tspan x="0" y="0" style="font-family:'ProductusBook'; font-size:9;">Failed</tspan><tspan x="0" y="10.799" style="font-family:'ProductusBook'; font-size:9;">Listener DTO</tspan></text>
<text transform="matrix(1 0 0 1 178.6724 13.2012)" style="font-family:'ProductusBook'; font-size:9;">Servlet DTO</text>
<text transform="matrix(1 0 0 1 178.6724 48.0986)" style="font-family:'ProductusBook'; font-size:9;">Resource DTO</text>
<text transform="matrix(1 0 0 1 178.6724 81.1675)" style="font-family:'ProductusBook'; font-size:9;">Filter DTO</text>
<text transform="matrix(1 0 0 1 178.6724 117.8955)" style="font-family:'ProductusBook'; font-size:9;">Error Page DTO</text>
<text transform="matrix(1 0 0 1 178.6724 154.3618)" style="font-family:'ProductusBook'; font-size:9;">Listener DTO</text>
</svg>
