<?xml version="1.0" encoding="utf-8"?>
<!-- Generator: Adobe Illustrator 16.0.0, SVG Export Plug-In . SVG Version: 6.00 Build 0)  -->
<!DOCTYPE svg PUBLIC "-//W3C//DTD SVG 1.1//EN" "http://www.w3.org/Graphics/SVG/1.1/DTD/svg11.dtd">
<svg version="1.1" id="Layer_1" xmlns="http://www.w3.org/2000/svg" xmlns:xlink="http://www.w3.org/1999/xlink" x="0px" y="0px"
	 width="184.74px" height="66.413px" viewBox="0 0 184.74 66.413" style="enable-background:new 0 0 184.74 66.413;"
	 xml:space="preserve">
<text transform="matrix(1 0 0 1 82.2002 6.6475)"><tspan x="0" y="0" style="font-family:'ProductusBook'; font-size:7.98;">latit</tspan><tspan x="11.235" y="0" style="font-family:'ProductusBook'; font-size:7.98;">u</tspan><tspan x="14.898" y="0" style="font-family:'ProductusBook'; font-size:7.98;">d</tspan><tspan x="18.601" y="0" style="font-family:'ProductusBook'; font-size:7.98;">e</tspan></text>
<rect x="2.58" y="32.027" width="54.359" height="26.58"/>
<rect x="2.58" y="31.787" width="54.6" height="0.48"/>
<rect x="56.7" y="32.027" width="0.479" height="26.82"/>
<rect x="2.34" y="58.367" width="54.6" height="0.48"/>
<rect x="2.34" y="31.787" width="0.48" height="26.82"/>
<rect x="0.24" y="30.287" style="fill:#FFFFFF;" width="54.3" height="26.58"/>
<rect x="0.24" y="30.048" width="54.541" height="0.479"/>
<rect x="54.3" y="30.287" width="0.48" height="26.82"/>
<rect y="56.627" width="54.54" height="0.48"/>
<rect y="30.048" width="0.48" height="26.819"/>
<text transform="matrix(1 0 0 1 2.5801 37.3672)"><tspan x="0" y="0" style="font-family:'ProductusSemibold'; font-size:7.98;">P</tspan><tspan x="3.958" y="0" style="font-family:'ProductusSemibold'; font-size:7.98;">o</tspan><tspan x="8.331" y="0" style="font-family:'ProductusSemibold'; font-size:7.98;">s</tspan><tspan x="11.69" y="0" style="font-family:'ProductusSemibold'; font-size:7.98;">i</tspan><tspan x="13.845" y="0" style="font-family:'ProductusSemibold'; font-size:7.98;">t</tspan><tspan x="16.965" y="0" style="font-family:'ProductusSemibold'; font-size:7.98;">i</tspan><tspan x="19.12" y="0" style="font-family:'ProductusSemibold'; font-size:7.98;">o</tspan><tspan x="23.437" y="0" style="font-family:'ProductusSemibold'; font-size:7.98;">n</tspan></text>
<rect x="130.14" y="32.027" width="54.36" height="26.58"/>
<rect x="130.14" y="31.787" width="54.601" height="0.48"/>
<rect x="184.26" y="32.027" width="0.48" height="26.82"/>
<rect x="129.899" y="58.367" width="54.601" height="0.48"/>
<rect x="129.899" y="31.787" width="0.48" height="26.82"/>
<rect x="127.8" y="30.287" style="fill:#FFFFFF;" width="54.3" height="26.58"/>
<rect x="127.8" y="30.048" width="54.54" height="0.479"/>
<rect x="181.86" y="30.287" width="0.479" height="26.82"/>
<rect x="127.56" y="56.627" width="54.54" height="0.48"/>
<rect x="127.56" y="30.048" width="0.48" height="26.819"/>
<text transform="matrix(1 0 0 1.0522 130.1396 37.3672)"><tspan x="0" y="0" style="font-family:'ProductusOSGiBookc'; font-size:7.5841;">Measu</tspan><tspan x="18.088" y="0" style="font-family:'ProductusOSGiBookc'; font-size:7.5841;">r</tspan><tspan x="20.014" y="0" style="font-family:'ProductusOSGiBookc'; font-size:7.5841;">eme</tspan><tspan x="32.05" y="0" style="font-family:'ProductusOSGiBookc'; font-size:7.5841;">n</tspan><tspan x="35.471" y="0" style="font-family:'ProductusOSGiBookc'; font-size:7.5841;">t</tspan></text>
<rect x="56.7" y="37.127" width="0.239" height="0.48"/>
<rect x="56.939" y="37.127" width="71.101" height="0.48"/>
<rect x="56.7" y="51.287" width="0.239" height="0.48"/>
<rect x="56.939" y="51.287" width="71.101" height="0.48"/>
<rect x="42.48" y="22.968" width="0.48" height="7.56"/>
<rect x="42.72" y="22.968" width="99.48" height="0.479"/>
<rect x="141.72" y="23.207" width="0.48" height="7.32"/>
<rect x="28.32" y="8.808" width="0.48" height="21.72"/>
<rect x="28.56" y="8.808" width="127.8" height="0.479"/>
<rect x="155.88" y="9.048" width="0.48" height="21.479"/>
<rect x="42.48" y="58.367" width="0.48" height="7.561"/>
<rect x="42.72" y="65.447" width="99.48" height="0.48"/>
<rect x="141.72" y="58.367" width="0.48" height="7.32"/>
<text transform="matrix(1 0 0 1 79.5596 20.8672)"><tspan x="0" y="0" style="font-family:'ProductusBook'; font-size:7.98;">lo</tspan><tspan x="5.331" y="0" style="font-family:'ProductusBook'; font-size:7.98;">n</tspan><tspan x="9.049" y="0" style="font-family:'ProductusBook'; font-size:7.98;">g</tspan><tspan x="12.528" y="0" style="font-family:'ProductusBook'; font-size:7.98;">it</tspan><tspan x="16.454" y="0" style="font-family:'ProductusBook'; font-size:7.98;">u</tspan><tspan x="20.173" y="0" style="font-family:'ProductusBook'; font-size:7.98;">d</tspan><tspan x="23.892" y="0" style="font-family:'ProductusBook'; font-size:7.98;">e</tspan></text>
<text transform="matrix(1 0 0 1 82.1992 35.0273)"><tspan x="0" y="0" style="font-family:'ProductusBook'; font-size:7.98;">altit</tspan><tspan x="11.235" y="0" style="font-family:'ProductusBook'; font-size:7.98;">u</tspan><tspan x="14.898" y="0" style="font-family:'ProductusBook'; font-size:7.98;">d</tspan><tspan x="18.601" y="0" style="font-family:'ProductusBook'; font-size:7.98;">e</tspan></text>
<text transform="matrix(1 0 0 1 86.04 49.1865)"><tspan x="0" y="0" style="font-family:'ProductusBook'; font-size:7.98;">trac</tspan><tspan x="11.076" y="0" style="font-family:'ProductusBook'; font-size:7.98;">k</tspan></text>
<text transform="matrix(1 0 0 1 84.5996 63.3467)"><tspan x="0" y="0" style="font-family:'ProductusBook'; font-size:7.98;">spee</tspan><tspan x="13.55" y="0" style="font-family:'ProductusBook'; font-size:7.98;">d</tspan></text>
<text transform="matrix(1 0 0 1 24.7188 28.4268)"><tspan x="0" y="0" style="font-family:'ProductusBook'; font-size:7.98; letter-spacing:10;">1</tspan><tspan x="13.438" y="0" style="font-family:'ProductusBook'; font-size:7.98;">1</tspan></text>
<text transform="matrix(1 0 0 1 59.3994 34.7871)" style="font-family:'ProductusBook'; font-size:7.98;">1</text>
<text transform="matrix(1 0 0 1 59.6992 49.1865)" style="font-family:'ProductusBook'; font-size:7.98;">1</text>
<text transform="matrix(1 0 0 1 37.7988 64.0674)" style="font-family:'ProductusBook'; font-size:7.98;">1</text>
<text transform="matrix(1 0 0 1 157.5586 28.4268)" style="font-family:'ProductusBook'; font-size:7.98;">1</text>
<text transform="matrix(1 0 0 1 138.0586 28.4268)" style="font-family:'ProductusBook'; font-size:7.98;">1</text>
<text transform="matrix(1 0 0 1 123.1787 35.0273)" style="font-family:'ProductusBook'; font-size:7.98;">1</text>
<text transform="matrix(1 0 0 1 123.5381 49.1865)" style="font-family:'ProductusBook'; font-size:7.98;">1</text>
<text transform="matrix(1 0 0 1 137.3984 64.0674)" style="font-family:'ProductusBook'; font-size:7.98;">1</text>
</svg>
