<?xml version="1.0" encoding="utf-8"?>
<!-- Generator: Adobe Illustrator 16.0.1, SVG Export Plug-In . SVG Version: 6.00 Build 0)  -->
<!DOCTYPE svg PUBLIC "-//W3C//DTD SVG 1.1//EN" "http://www.w3.org/Graphics/SVG/1.1/DTD/svg11.dtd">
<svg version="1.1" id="Layer_1" xmlns="http://www.w3.org/2000/svg" xmlns:xlink="http://www.w3.org/1999/xlink" x="0px" y="0px"
	 width="258.709px" height="198.9px" viewBox="0 0 258.709 198.9" enable-background="new 0 0 258.709 198.9" xml:space="preserve">
<polyline fill="#F7F7F7" points="159.481,7.32 159.481,6.96 159.36,6.6 159.181,6.24 158.94,5.88 158.642,5.58 158.22,5.219 
	157.26,4.56 156.062,3.96 154.681,3.36 153.062,2.82 151.201,2.34 149.161,1.86 147,1.44 144.661,1.08 142.201,0.78 139.562,0.54 
	136.86,0.42 134.041,0.3 131.161,0.24 128.281,0.3 125.46,0.42 122.701,0.54 120.121,0.78 117.661,1.08 115.321,1.44 113.101,1.86 
	111.121,2.34 109.26,2.82 107.641,3.36 106.26,3.96 105.061,4.56 104.101,5.219 103.68,5.58 103.38,5.88 103.141,6.24 102.96,6.6 
	102.84,6.96 102.781,7.32 102.84,7.68 102.96,8.04 103.141,8.4 103.38,8.76 103.68,9.12 104.101,9.42 105.061,10.08 106.26,10.74 
	107.641,11.28 109.26,11.82 111.121,12.36 113.101,12.78 115.321,13.2 117.661,13.56 120.121,13.86 122.701,14.1 125.46,14.28 
	128.281,14.4 134.041,14.4 136.86,14.28 139.562,14.1 142.201,13.86 144.661,13.56 147,13.2 149.161,12.78 151.201,12.36 
	153.062,11.82 154.681,11.28 156.062,10.74 157.26,10.08 158.22,9.42 158.642,9.12 158.94,8.76 159.181,8.4 159.36,8.04 
	159.481,7.68 159.481,7.32 "/>
<polyline points="159.241,7.32 159.241,6.96 159.241,7.08 159.121,6.719 159.181,6.719 159,6.36 158.76,6 158.76,6.06 158.46,5.76 
	158.521,5.76 158.101,5.4 158.101,5.46 157.142,4.8 155.94,4.2 156,4.2 154.621,3.6 153,3.06 151.142,2.58 149.101,2.1 146.94,1.68 
	147,1.68 144.661,1.32 142.201,1.02 139.562,0.78 136.86,0.66 134.041,0.54 131.161,0.48 128.281,0.54 125.46,0.66 122.701,0.78 
	122.76,0.78 120.18,1.02 117.72,1.32 115.38,1.68 113.161,2.1 111.18,2.58 109.321,3.06 109.38,3.06 107.76,3.6 106.38,4.2 
	105.18,4.8 105.241,4.8 104.281,5.46 104.281,5.4 103.861,5.76 103.561,6.06 103.621,6 103.38,6.36 103.201,6.719 103.081,7.08 
	103.081,7.02 103.021,7.38 103.021,7.32 103.081,7.68 103.081,7.62 103.201,7.98 103.201,7.92 103.38,8.28 102.96,8.52 
	102.781,8.16 102.72,8.16 102.601,7.8 102.601,7.74 102.541,7.38 102.541,7.32 102.601,6.96 102.601,6.9 102.72,6.54 102.781,6.48 
	102.96,6.12 103.201,5.76 103.201,5.7 103.5,5.4 103.561,5.4 103.981,5.04 104.941,4.38 106.141,3.78 106.201,3.78 107.581,3.18 
	107.581,3.12 109.201,2.58 111.061,2.1 113.041,1.62 113.101,1.62 115.321,1.2 117.661,0.84 120.121,0.54 122.701,0.3 125.46,0.18 
	128.281,0.06 131.161,0 134.041,0.06 136.86,0.18 139.562,0.3 139.621,0.3 142.26,0.54 144.72,0.84 147.062,1.2 149.22,1.62 
	151.26,2.1 153.121,2.58 153.181,2.58 154.8,3.12 154.8,3.18 156.181,3.78 157.38,4.38 157.44,4.38 158.401,5.04 158.821,5.4 
	159.121,5.7 159.181,5.76 159.42,6.12 159.601,6.48 159.601,6.54 159.72,6.9 159.72,7.32 "/>
<polyline points="103.38,8.28 103.621,8.64 103.561,8.64 103.861,9 103.861,8.94 104.281,9.24 105.241,9.9 105.18,9.9 106.38,10.56 
	107.76,11.1 107.76,11.04 109.38,11.58 109.321,11.58 111.18,12.12 113.161,12.54 115.38,12.96 117.72,13.32 120.18,13.62 
	122.76,13.86 125.521,14.04 125.46,14.04 128.281,14.16 134.041,14.16 136.86,14.04 139.562,13.86 142.201,13.62 144.661,13.32 
	147,12.96 146.94,12.96 149.101,12.54 151.142,12.12 153,11.58 154.621,11.04 154.621,11.1 156,10.56 155.94,10.56 157.142,9.9 
	158.101,9.24 158.521,8.94 158.46,9 158.76,8.64 159,8.28 159.181,7.92 159.121,7.98 159.241,7.62 159.241,7.68 159.241,7.32 
	159.72,7.32 159.72,7.8 159.601,8.16 159.42,8.52 159.181,8.88 159.121,8.94 158.821,9.3 158.821,9.36 158.401,9.66 157.44,10.32 
	157.38,10.32 156.181,10.98 154.8,11.52 153.181,12.06 153.121,12.06 151.26,12.6 149.22,13.02 147.062,13.44 144.72,13.8 
	142.26,14.1 139.621,14.34 136.92,14.52 136.86,14.52 134.041,14.64 128.281,14.64 125.46,14.52 122.701,14.34 120.121,14.1 
	117.661,13.8 115.321,13.44 113.101,13.02 113.041,13.02 111.061,12.6 109.201,12.06 107.581,11.52 106.201,10.98 106.141,10.98 
	104.941,10.32 103.981,9.66 103.561,9.36 103.5,9.3 103.201,8.94 103.201,8.88 102.96,8.52 "/>
<polyline points="131.161,23.4 134.22,23.4 133.741,24.18 131.581,27.9 131.161,28.74 130.681,27.9 128.521,24.18 128.041,23.4 
	129,23.4 129.42,23.64 131.581,27.36 130.681,27.9 130.681,27.36 132.84,23.64 133.741,24.18 133.321,24.42 131.161,24.42 "/>
<rect x="129" y="23.4" width="2.16" height="1.02"/>
<polyline points="131.161,23.88 133.321,23.88 131.161,27.6 129,23.88 "/>
<rect x="130.92" y="14.4" width="0.479" height="9"/>
<polyline points="60.361,135.12 31.98,142.2 31.98,141.719 60.361,148.86 60.361,149.34 60.241,148.86 88.561,141.719 88.561,142.2 
	88.681,141.719 88.681,142.2 60.361,149.34 60.241,149.34 31.861,142.2 31.861,141.719 60.241,134.64 "/>
<polyline points="88.561,142.2 60.241,135.12 60.241,134.64 60.361,134.64 88.681,141.719 "/>
<text transform="matrix(1 0 0 1 116.521 9.0603)" font-family="'ProductusBook'" font-size="7.98">move to R</text>
<polyline points="60.301,87.18 63.241,87.18 62.821,87.9 60.721,91.62 60.241,92.4 59.821,91.68 57.661,87.96 57.181,87.18 
	58.141,87.18 58.561,87.42 60.721,91.14 59.821,91.68 59.821,91.14 61.92,87.42 62.821,87.9 62.401,88.2 60.301,88.2 "/>
<rect x="58.141" y="87.18" width="2.16" height="1.02"/>
<polyline points="60.301,87.66 62.401,87.66 60.301,91.38 58.141,87.66 "/>
<rect x="60.061" y="78.18" width="0.48" height="9"/>
<text transform="matrix(1 0 0 1 71.8809 33.5398)" font-family="'ProductusBook'" font-size="7.98">A&lt;R</text>
<rect x="31.92" y="92.16" width="56.94" height="0.48"/>
<rect x="88.381" y="92.4" width="0.48" height="28.56"/>
<rect x="31.681" y="120.48" width="56.94" height="0.479"/>
<rect x="31.681" y="92.16" width="0.48" height="28.56"/>
<text transform="matrix(1 0 0 1 48.4458 99.7791)" enable-background="new    "><tspan x="0" y="0" font-family="'ProductusBook'" font-size="7.98">Start All</tspan><tspan x="-9.736" y="9.576" font-family="'ProductusBook'" font-size="7.98">bundles where</tspan><tspan x="4.105" y="19.152" font-family="'ProductusBook'" font-size="7.98">B = A</tspan></text>
<rect x="31.92" y="63.78" width="56.94" height="0.479"/>
<rect x="88.381" y="64.02" width="0.48" height="14.399"/>
<rect x="31.681" y="77.94" width="56.94" height="0.479"/>
<rect x="31.681" y="63.78" width="0.48" height="14.4"/>
<text transform="matrix(1 0 0 1 49.2007 73.0193)" font-family="'ProductusBook'" font-size="7.98">A = A+1</text>
<polyline points="202.021,58.86 205.081,58.86 204.601,59.64 202.44,63.36 202.021,64.14 201.541,63.3 199.44,59.58 199.021,58.86 
	199.92,58.86 200.34,59.1 202.44,62.82 201.541,63.3 201.541,62.82 203.701,59.1 204.601,59.64 204.181,59.88 202.021,59.88 "/>
<rect x="199.92" y="58.86" width="2.101" height="1.02"/>
<polyline points="202.021,59.34 204.181,59.34 202.021,63.06 199.92,59.34 "/>
<rect x="159.241" y="35.46" width="43.02" height="0.48"/>
<rect x="201.781" y="35.7" width="0.479" height="23.4"/>
<polyline points="60.301,58.86 63.241,58.86 62.821,59.58 60.721,63.3 60.241,64.08 59.821,63.36 57.661,59.64 57.181,58.86 
	58.141,58.86 58.561,59.1 60.721,62.82 59.821,63.36 59.821,62.82 61.92,59.1 62.821,59.58 62.401,59.88 60.301,59.88 "/>
<rect x="58.141" y="58.86" width="2.16" height="1.02"/>
<polyline points="60.301,59.34 62.401,59.34 60.301,63.06 58.141,59.34 "/>
<rect x="60.061" y="35.46" width="42.96" height="0.48"/>
<rect x="60.061" y="35.7" width="0.48" height="23.4"/>
<polyline fill="#F7F7F7" points="159.481,191.58 159.481,191.219 159.36,190.86 159.181,190.5 158.94,190.14 158.642,189.84 
	158.22,189.48 157.26,188.82 156.062,188.219 154.681,187.62 153.062,187.08 151.201,186.6 149.161,186.12 147,185.7 
	144.661,185.34 142.201,185.04 139.562,184.8 136.86,184.68 134.041,184.56 131.161,184.5 128.281,184.56 125.46,184.68 
	122.701,184.8 120.121,185.04 117.661,185.34 115.321,185.7 113.101,186.12 111.121,186.6 109.26,187.08 107.641,187.62 
	106.26,188.219 105.061,188.82 104.101,189.48 103.68,189.84 103.38,190.14 103.141,190.5 102.96,190.86 102.84,191.219 
	102.781,191.58 102.84,191.94 102.96,192.3 103.141,192.66 103.38,193.02 103.68,193.38 104.101,193.68 105.061,194.34 106.26,195 
	107.641,195.54 109.26,196.08 111.121,196.62 113.101,197.04 115.321,197.46 117.661,197.82 120.121,198.12 122.701,198.36 
	125.46,198.54 128.281,198.66 134.041,198.66 136.86,198.54 139.562,198.36 142.201,198.12 144.661,197.82 147,197.46 
	149.161,197.04 151.201,196.62 153.062,196.08 154.681,195.54 156.062,195 157.26,194.34 158.22,193.68 158.642,193.38 
	158.94,193.02 159.181,192.66 159.36,192.3 159.481,191.94 159.481,191.58 "/>
<polyline points="159.241,191.58 159.241,191.219 159.241,191.34 159.121,190.98 159.181,190.98 159,190.62 158.76,190.26 
	158.76,190.32 158.46,190.02 158.521,190.02 158.101,189.66 158.101,189.719 157.142,189.06 155.94,188.46 156,188.46 
	154.621,187.86 153,187.32 151.142,186.84 149.101,186.36 146.94,185.94 147,185.94 144.661,185.58 142.201,185.28 139.562,185.04 
	136.86,184.92 134.041,184.8 131.161,184.74 128.281,184.8 125.46,184.92 122.701,185.04 122.76,185.04 120.18,185.28 
	117.72,185.58 115.38,185.94 113.161,186.36 111.18,186.84 109.321,187.32 109.38,187.32 107.76,187.86 106.38,188.46 
	105.18,189.06 105.241,189.06 104.281,189.719 104.281,189.66 103.861,190.02 103.561,190.32 103.621,190.26 103.38,190.62 
	103.201,190.98 103.081,191.34 103.081,191.28 103.021,191.64 103.021,191.58 103.081,191.94 103.081,191.88 103.201,192.24 
	103.201,192.18 103.38,192.54 102.96,192.78 102.781,192.42 102.72,192.42 102.601,192.06 102.601,192 102.541,191.64 
	102.541,191.58 102.601,191.219 102.601,191.16 102.72,190.8 102.781,190.74 102.96,190.38 103.201,190.02 103.201,189.96 
	103.5,189.66 103.561,189.66 103.981,189.3 104.941,188.64 106.141,188.04 106.201,188.04 107.581,187.44 107.581,187.38 
	109.201,186.84 111.061,186.36 113.041,185.88 113.101,185.88 115.321,185.46 117.661,185.1 120.121,184.8 122.701,184.56 
	125.46,184.44 128.281,184.32 131.161,184.26 134.041,184.32 136.86,184.44 139.562,184.56 139.621,184.56 142.26,184.8 
	144.72,185.1 147.062,185.46 149.22,185.88 151.26,186.36 153.121,186.84 153.181,186.84 154.8,187.38 154.8,187.44 156.181,188.04 
	157.38,188.64 157.44,188.64 158.401,189.3 158.821,189.66 159.181,190.02 159.42,190.38 159.601,190.74 159.601,190.8 
	159.72,191.16 159.72,191.58 "/>
<polyline points="103.38,192.54 103.621,192.9 103.561,192.9 103.861,193.26 103.861,193.2 104.281,193.5 105.241,194.16 
	105.18,194.16 106.38,194.82 107.76,195.36 107.76,195.3 109.38,195.84 109.321,195.84 111.18,196.38 113.161,196.8 115.38,197.219 
	117.72,197.58 120.18,197.88 122.76,198.12 125.521,198.3 125.46,198.3 128.281,198.42 134.041,198.42 136.86,198.3 139.562,198.12 
	142.201,197.88 144.661,197.58 147,197.219 146.94,197.219 149.101,196.8 151.142,196.38 153,195.84 154.621,195.3 154.621,195.36 
	156,194.82 155.94,194.82 157.142,194.16 158.101,193.5 158.521,193.2 158.46,193.26 158.76,192.9 159,192.54 159.181,192.18 
	159.121,192.24 159.241,191.88 159.241,191.94 159.241,191.58 159.72,191.58 159.72,192.06 159.601,192.42 159.42,192.78 
	159.181,193.14 159.121,193.2 158.821,193.56 158.821,193.62 158.401,193.92 157.44,194.58 157.38,194.58 156.181,195.24 
	154.8,195.78 153.181,196.32 153.121,196.32 151.26,196.86 149.22,197.28 147.062,197.7 144.72,198.06 142.26,198.36 139.621,198.6 
	136.92,198.78 136.86,198.78 134.041,198.9 128.281,198.9 125.46,198.78 122.701,198.6 120.121,198.36 117.661,198.06 
	115.321,197.7 113.101,197.28 113.041,197.28 111.061,196.86 109.201,196.32 107.581,195.78 106.201,195.24 106.141,195.24 
	104.941,194.58 103.981,193.92 103.561,193.62 103.5,193.56 103.201,193.2 103.201,193.14 102.96,192.78 "/>
<text transform="matrix(1 0 0 1 123.481 193.3201)" font-family="'ProductusBook'" font-size="7.98">A==R</text>
<polyline points="202.021,101.4 205.081,101.4 204.601,102.18 202.44,105.84 202.021,106.62 201.541,105.78 199.44,102.12 
	199.021,101.4 199.92,101.4 200.34,101.64 202.44,105.3 201.541,105.78 201.541,105.3 203.701,101.64 204.601,102.18 
	204.181,102.42 202.021,102.42 "/>
<rect x="199.92" y="101.4" width="2.101" height="1.02"/>
<polyline points="202.021,101.88 204.181,101.88 202.021,105.54 199.92,101.88 "/>
<rect x="201.781" y="92.4" width="0.479" height="8.939"/>
<rect x="173.701" y="106.32" width="56.94" height="0.479"/>
<rect x="230.161" y="106.56" width="0.48" height="14.399"/>
<rect x="173.46" y="120.48" width="56.939" height="0.479"/>
<rect x="173.46" y="106.32" width="0.48" height="14.399"/>
<text transform="matrix(1 0 0 1 191.5811 115.5603)" font-family="'ProductusBook'" font-size="7.98">A = A-1</text>
<text transform="matrix(1 0 0 1 184.2607 33.9587)" font-family="'ProductusBook'" font-size="7.98">A&gt;R</text>
<polyline points="131.22,28.86 102.84,35.94 102.84,35.46 131.22,42.54 131.22,43.02 131.101,42.54 159.42,35.46 159.42,35.94 
	159.541,35.46 159.541,35.94 131.22,43.02 131.101,43.02 102.72,35.94 102.72,35.46 131.101,28.38 "/>
<polyline points="159.42,35.94 131.101,28.86 131.101,28.38 131.22,28.38 159.541,35.46 "/>
<polyline points="202.081,135.12 173.76,142.2 173.76,141.719 202.081,148.86 202.081,149.34 201.96,148.86 230.34,141.719 
	230.34,142.2 230.46,141.719 230.46,142.2 202.081,149.34 201.96,149.34 173.642,142.2 173.642,141.719 201.96,134.64 "/>
<polyline points="230.34,142.2 201.96,135.12 201.96,134.64 202.081,134.64 230.46,141.719 "/>
<polyline points="60.301,129.719 63.241,129.719 62.821,130.44 60.721,134.16 60.241,134.94 59.821,134.219 57.661,130.5 
	57.181,129.719 58.141,129.719 58.561,129.96 60.721,133.68 59.821,134.219 59.821,133.68 61.92,129.96 62.821,130.44 
	62.401,130.74 60.301,130.74 "/>
<rect x="58.141" y="129.719" width="2.16" height="1.021"/>
<polyline points="60.301,130.2 62.401,130.2 60.301,133.92 58.141,130.2 "/>
<rect x="60.061" y="120.719" width="0.48" height="9"/>
<polyline points="202.021,129.719 205.081,129.719 204.601,130.5 202.44,134.219 202.021,135 201.541,134.16 199.44,130.44 
	199.021,129.719 199.92,129.719 200.34,129.96 202.44,133.68 201.541,134.16 201.541,133.68 203.701,129.96 204.601,130.5 
	204.181,130.74 202.021,130.74 "/>
<rect x="199.92" y="129.719" width="2.101" height="1.021"/>
<polyline points="202.021,130.2 204.181,130.2 202.021,133.92 199.92,130.2 "/>
<rect x="201.781" y="120.719" width="0.479" height="9"/>
<rect x="173.701" y="63.78" width="56.94" height="0.479"/>
<rect x="230.161" y="64.02" width="0.48" height="28.62"/>
<rect x="173.46" y="92.16" width="56.939" height="0.48"/>
<rect x="173.46" y="63.78" width="0.48" height="28.62"/>
<text transform="matrix(1 0 0 1 190.6445 71.4001)" enable-background="new    "><tspan x="0" y="0" font-family="'ProductusBook'" font-size="7.98">Stop All</tspan><tspan x="-9.976" y="9.576" font-family="'ProductusBook'" font-size="7.98">bundles where</tspan><tspan x="3.866" y="19.152" font-family="'ProductusBook'" font-size="7.98">B = A</tspan></text>
<rect x="88.381" y="141.719" width="43.021" height="0.48"/>
<rect x="130.92" y="141.96" width="0.479" height="21.54"/>
<rect x="130.92" y="141.719" width="43.021" height="0.48"/>
<rect x="130.92" y="141.96" width="0.479" height="21.54"/>
<polyline points="131.161,150.96 134.22,150.96 133.741,151.74 131.581,155.46 131.161,156.3 130.681,155.46 128.521,151.74 
	128.041,150.96 129,150.96 129.42,151.2 131.581,154.92 130.681,155.46 130.681,154.92 132.84,151.2 133.741,151.74 133.321,151.98 
	131.161,151.98 "/>
<rect x="129" y="150.96" width="2.16" height="1.021"/>
<polyline points="131.161,151.44 133.321,151.44 131.161,155.16 129,151.44 "/>
<rect x="130.92" y="42.78" width="0.479" height="108.18"/>
<text transform="matrix(1 0 0 1 132.8408 68.7595)" font-family="'ProductusBook'" font-size="7.98">A==R</text>
<text transform="matrix(1 0 0 1 152.4014 139.6189)" font-family="'ProductusBook'" font-size="7.98">A==R</text>
<text transform="matrix(1 0 0 1 95.7002 140.2791)" font-family="'ProductusBook'" font-size="7.98">A==R</text>
<text transform="matrix(1 0 0 1 0 142.3191)" font-family="'ProductusBook'" font-size="7.98">A&lt;R</text>
<rect x="230.161" y="141.719" width="14.64" height="0.48"/>
<rect x="244.321" y="56.7" width="0.479" height="85.26"/>
<rect x="201.781" y="56.7" width="42.78" height="0.48"/>
<rect x="17.521" y="141.719" width="14.64" height="0.48"/>
<rect x="17.521" y="56.7" width="0.48" height="85.26"/>
<rect x="17.761" y="56.7" width="42.78" height="0.48"/>
<text transform="matrix(1 0 0 1 248.04 142.3201)" font-family="'ProductusBook'" font-size="7.98">A&gt;R</text>
<rect x="102.781" y="156.18" fill="#FFFFFF" width="56.701" height="14.159"/>
<rect x="102.781" y="155.94" width="56.939" height="0.479"/>
<rect x="159.241" y="156.18" width="0.479" height="14.399"/>
<rect x="102.541" y="170.1" width="56.94" height="0.479"/>
<rect x="102.541" y="155.94" width="0.48" height="14.399"/>
<text transform="matrix(1 0 0 1 111.9009 165.1794)" font-family="'ProductusBook'" font-size="7.98">publish event</text>
<polyline points="131.161,179.34 134.22,179.34 133.741,180.12 131.581,183.84 131.161,184.68 130.681,183.84 128.521,180.12 
	128.041,179.34 129,179.34 129.42,179.58 131.581,183.3 130.681,183.84 130.681,183.3 132.84,179.58 133.741,180.12 133.321,180.36 
	131.161,180.36 "/>
<rect x="129" y="179.34" width="2.16" height="1.021"/>
<polyline points="131.161,179.82 133.321,179.82 131.161,183.54 129,179.82 "/>
<rect x="130.92" y="170.34" width="0.479" height="9"/>
</svg>
