<?xml version="1.0" encoding="utf-8"?>
<!-- Generator: Adobe Illustrator 16.0.1, SVG Export Plug-In . SVG Version: 6.00 Build 0)  -->
<!DOCTYPE svg PUBLIC "-//W3C//DTD SVG 1.1//EN" "http://www.w3.org/Graphics/SVG/1.1/DTD/svg11.dtd">
<svg version="1.1" id="Layer_1" xmlns="http://www.w3.org/2000/svg" xmlns:xlink="http://www.w3.org/1999/xlink" x="0px" y="0px"
	 width="225.721px" height="71.34px" viewBox="0 0 225.721 71.34" enable-background="new 0 0 225.721 71.34" xml:space="preserve">
<rect x="56.7" y="56.7" width="0.24" height="0.479"/>
<rect x="56.94" y="56.7" width="71.1" height="0.479"/>
<polyline fill="#F7F7F7" points="130.68,42.779 130.08,42.84 129.54,43.02 129.06,43.26 128.64,43.62 128.28,44.04 128.04,44.52 
	127.86,45.061 127.8,45.6 127.8,68.279 127.86,68.88 128.04,69.359 128.28,69.898 128.64,70.26 129.06,70.62 129.54,70.92 
	130.08,71.04 130.68,71.1 181.68,71.1 182.28,71.04 182.76,70.92 183.24,70.62 183.66,70.26 184.021,69.898 184.32,69.359 
	184.44,68.88 184.5,68.279 184.5,45.6 184.44,45.061 184.32,44.52 184.021,44.04 183.66,43.62 183.24,43.26 182.76,43.02 
	182.28,42.84 181.68,42.779 130.68,42.779 "/>
<polyline points="130.74,43.02 130.14,43.08 130.2,43.08 129.66,43.26 129.18,43.5 129.24,43.439 128.82,43.8 128.46,44.22 
	128.521,44.16 128.28,44.641 128.1,45.18 128.1,45.12 128.04,45.66 128.04,45.6 128.04,68.279 128.1,68.88 128.1,68.818 
	128.28,69.3 128.521,69.84 128.46,69.72 128.82,70.08 129.24,70.439 129.18,70.439 129.66,70.74 129.6,70.68 130.14,70.8 
	130.74,70.859 130.68,70.859 181.68,70.859 182.28,70.8 182.22,70.8 182.7,70.68 182.64,70.74 183.12,70.439 183.54,70.08 
	183.48,70.08 183.84,69.72 183.84,69.779 184.14,69.24 184.08,69.3 184.2,68.818 184.2,68.88 184.26,68.279 184.26,45.6 
	184.26,45.66 184.2,45.12 184.08,44.58 184.14,44.641 183.84,44.16 183.84,44.22 183.48,43.8 183.54,43.8 183.12,43.439 
	183.12,43.5 182.64,43.26 182.7,43.26 182.22,43.08 182.28,43.08 181.68,43.02 130.68,43.02 130.68,42.54 181.74,42.54 182.34,42.6 
	182.4,42.66 182.88,42.84 183.36,43.08 183.42,43.08 183.84,43.439 183.84,43.5 184.2,43.92 184.26,43.92 184.56,44.398 
	184.56,44.46 184.68,45 184.68,45.061 184.74,45.6 184.74,68.34 184.68,68.939 184.56,69.42 184.56,69.479 184.26,70.02 
	183.84,70.439 183.42,70.8 183.36,70.859 182.88,71.16 182.82,71.16 182.34,71.279 181.74,71.34 130.68,71.34 130.08,71.279 
	130.021,71.279 129.48,71.16 129.42,71.16 128.94,70.859 128.94,70.8 128.521,70.439 128.46,70.439 128.1,70.08 128.1,70.02 
	127.86,69.479 127.68,69 127.62,68.939 127.56,68.34 127.56,45.6 127.62,45.061 127.62,45 127.8,44.46 127.86,44.398 128.1,43.92 
	128.46,43.5 128.521,43.439 128.94,43.08 129.42,42.84 129.48,42.779 130.021,42.6 130.08,42.6 130.68,42.54 "/>
<polyline points="130.68,43.02 130.74,43.02 130.68,42.54 "/>
<text transform="matrix(1 0 0 1 129.24 49.5596)" font-family="'ProductusBook'" font-size="7.98">Handler</text>
<rect x="120.48" y="14.16" width="0.239" height="0.479"/>
<rect x="120.72" y="14.16" width="71.101" height="0.479"/>
<text transform="matrix(1 0 0 1 200.0398 14.7002)" font-family="'ProductusBook'" font-size="7.98">a Service</text>
<polyline fill="#F7F7F7" points="66.9,1.439 66.3,1.5 65.76,1.62 65.28,1.92 64.86,2.22 64.5,2.64 64.26,3.18 64.08,3.66 
	64.02,4.26 64.02,26.939 64.08,27.479 64.26,28.02 64.5,28.5 64.86,28.92 65.28,29.279 65.76,29.52 66.3,29.7 66.9,29.76 
	117.9,29.76 118.5,29.7 118.98,29.52 119.46,29.279 119.88,28.92 120.24,28.5 120.54,28.02 120.66,27.479 120.72,26.939 
	120.72,4.26 120.66,3.66 120.54,3.18 120.24,2.64 119.88,2.22 119.46,1.92 118.98,1.62 118.5,1.5 117.9,1.439 66.9,1.439 "/>
<polyline points="66.96,1.68 66.36,1.74 65.82,1.859 65.88,1.859 65.4,2.16 65.46,2.16 65.04,2.46 65.04,2.399 64.68,2.819 
	64.74,2.76 64.5,3.3 64.32,3.779 64.32,3.72 64.26,4.319 64.26,4.26 64.26,26.939 64.32,27.479 64.32,27.42 64.5,27.96 64.5,27.899 
	64.74,28.38 64.68,28.38 65.04,28.8 65.04,28.74 65.46,29.1 65.4,29.1 65.88,29.34 65.88,29.279 66.42,29.46 66.36,29.46 
	66.96,29.52 66.9,29.52 117.9,29.52 118.5,29.46 118.44,29.52 118.92,29.34 118.86,29.34 119.34,29.1 119.76,28.74 119.7,28.8 
	120.06,28.38 120.36,27.899 120.3,27.96 120.42,27.42 120.42,27.479 120.48,26.939 120.48,4.26 120.48,4.319 120.42,3.72 
	120.3,3.24 120.36,3.3 120.06,2.76 120.06,2.819 119.7,2.399 119.76,2.46 119.34,2.16 118.86,1.859 118.92,1.859 118.44,1.74 
	118.5,1.74 117.9,1.68 66.9,1.68 66.9,1.2 117.96,1.2 118.56,1.26 119.04,1.38 119.1,1.439 119.58,1.74 119.64,1.74 120.06,2.04 
	120.06,2.1 120.42,2.52 120.48,2.52 120.78,3.06 120.78,3.12 120.9,3.6 120.9,3.66 120.96,4.26 120.96,27 120.9,27.54 120.78,28.08 
	120.78,28.14 120.48,28.62 120.42,28.68 120.06,29.1 119.64,29.46 119.58,29.52 119.1,29.76 118.62,29.939 118.56,29.939 117.96,30 
	66.9,30 66.3,29.939 66.24,29.939 65.7,29.76 65.64,29.76 65.16,29.52 65.16,29.46 64.74,29.1 64.68,29.1 64.32,28.68 64.32,28.62 
	64.08,28.14 64.02,28.14 63.84,27.6 63.84,27.54 63.78,27 63.78,4.26 63.84,3.66 63.9,3.6 64.08,3.12 64.32,2.58 64.32,2.52 
	64.68,2.1 64.74,2.04 65.16,1.74 65.64,1.439 65.7,1.38 66.24,1.26 66.3,1.26 66.9,1.2 "/>
<polyline points="66.9,1.68 66.96,1.68 66.9,1.2 "/>
<text transform="matrix(1 0 0 1 65.4597 8.1602)" font-family="'ProductusBook'" font-size="7.98">Target Bundle</text>
<rect x="191.34" width="0.48" height="0.24"/>
<rect x="191.34" y="0.24" width="0.48" height="35.699"/>
<polyline fill="#FFFFFF" points="184.5,7.319 191.58,21.54 198.72,7.319 "/>
<polyline points="184.74,7.2 191.82,21.42 191.82,21.66 191.4,21.42 198.54,7.2 198.72,7.08 199.14,7.08 198.96,7.439 191.82,21.66 
	191.58,22.08 191.4,21.66 184.32,7.439 "/>
<polyline points="198.72,7.56 184.5,7.56 184.32,7.439 184.14,7.08 198.72,7.08 "/>
<rect x="155.94" y="14.16" width="0.479" height="0.239"/>
<rect x="155.94" y="14.399" width="0.479" height="2.04"/>
<rect x="155.94" y="19.859" width="0.479" height="0.24"/>
<rect x="155.94" y="20.1" width="0.479" height="3.3"/>
<rect x="155.94" y="26.819" width="0.479" height="0.24"/>
<rect x="155.94" y="27.06" width="0.479" height="3.3"/>
<rect x="155.94" y="33.779" width="0.479" height="0.24"/>
<rect x="155.94" y="34.02" width="0.479" height="3.3"/>
<rect x="155.94" y="40.8" width="0.479" height="0.24"/>
<rect x="155.94" y="41.04" width="0.479" height="1.979"/>
<text transform="matrix(1 0 0 1 73.4998 43.0801)" font-family="'ProductusBook'" font-size="7.98">Listener Hook</text>
<polyline fill="#FFFFFF" points="85.32,64.02 99.48,56.939 85.32,49.859 "/>
<polyline points="85.2,63.84 99.36,56.76 99.6,56.76 99.36,57.18 85.2,50.1 85.08,49.859 85.08,49.5 100.08,57 99.6,57.18 
	85.44,64.26 "/>
<polyline points="85.56,49.859 85.56,64.02 85.44,64.26 85.08,64.439 85.08,49.859 "/>
<polyline fill="#F7F7F7" points="3.12,42.779 2.52,42.84 1.98,43.02 1.5,43.26 1.08,43.62 0.72,44.04 0.48,44.52 0.3,45.061 
	0.24,45.6 0.24,68.279 0.3,68.88 0.48,69.359 0.72,69.898 1.08,70.26 1.5,70.62 1.98,70.92 2.52,71.04 3.12,71.1 54.12,71.1 
	54.72,71.04 55.2,70.92 55.68,70.62 56.1,70.26 56.46,69.898 56.76,69.359 56.88,68.88 56.94,68.279 56.94,45.6 56.88,45.061 
	56.76,44.52 56.46,44.04 56.1,43.62 55.68,43.26 55.2,43.02 54.72,42.84 54.12,42.779 3.12,42.779 "/>
<polyline points="3.18,43.02 2.58,43.08 2.64,43.08 2.1,43.26 1.62,43.5 1.68,43.439 1.26,43.8 0.9,44.22 0.96,44.16 0.72,44.641 
	0.54,45.18 0.54,45.12 0.48,45.66 0.48,45.6 0.48,68.279 0.54,68.88 0.54,68.818 0.72,69.3 0.96,69.84 0.9,69.72 1.26,70.08 
	1.68,70.439 1.62,70.439 2.1,70.74 2.04,70.68 2.58,70.8 3.18,70.859 3.12,70.859 54.12,70.859 54.72,70.8 54.66,70.8 55.14,70.68 
	55.08,70.74 55.56,70.439 55.98,70.08 55.92,70.08 56.28,69.72 56.28,69.779 56.58,69.24 56.52,69.3 56.64,68.818 56.64,68.88 
	56.7,68.279 56.7,45.6 56.7,45.66 56.64,45.12 56.52,44.58 56.58,44.641 56.28,44.16 56.28,44.22 55.92,43.8 55.98,43.8 
	55.56,43.439 55.56,43.5 55.08,43.26 55.14,43.26 54.66,43.08 54.72,43.08 54.12,43.02 3.12,43.02 3.12,42.54 54.18,42.54 
	54.78,42.6 54.84,42.66 55.32,42.84 55.8,43.08 55.86,43.08 56.28,43.439 56.28,43.5 56.64,43.92 56.7,43.92 57,44.398 57,44.46 
	57.12,45 57.12,45.061 57.18,45.6 57.18,68.34 57.12,68.939 57,69.42 57,69.479 56.7,70.02 56.28,70.439 55.86,70.8 55.8,70.859 
	55.32,71.16 55.26,71.16 54.78,71.279 54.18,71.34 3.12,71.34 2.52,71.279 2.46,71.279 1.92,71.16 1.86,71.16 1.38,70.859 
	1.38,70.8 0.96,70.439 0.9,70.439 0.54,70.08 0.54,70.02 0.3,69.479 0.12,69 0.06,68.939 0,68.34 0,45.6 0.06,45.061 0.06,45 
	0.24,44.46 0.3,44.398 0.54,43.92 0.9,43.5 0.96,43.439 1.38,43.08 1.86,42.84 1.92,42.779 2.46,42.6 2.52,42.6 3.12,42.54 "/>
<polyline points="3.12,43.02 3.18,43.02 3.12,42.54 "/>
<text transform="matrix(1 0 0 1 1.6799 49.5596)" font-family="'ProductusBook'" font-size="7.98">Framework</text>
</svg>
