<?xml version="1.0" encoding="utf-8"?>
<!-- Generator: Adobe Illustrator 16.0.0, SVG Export Plug-In . SVG Version: 6.00 Build 0)  -->
<!DOCTYPE svg PUBLIC "-//W3C//DTD SVG 1.1//EN" "http://www.w3.org/Graphics/SVG/1.1/DTD/svg11.dtd">
<svg version="1.1" id="Layer_1" xmlns="http://www.w3.org/2000/svg" xmlns:xlink="http://www.w3.org/1999/xlink" x="0px" y="0px"
	 width="255.6px" height="43.254px" viewBox="0 0 255.6 43.254" style="enable-background:new 0 0 255.6 43.254;"
	 xml:space="preserve">
<polyline style="fill-rule:evenodd;clip-rule:evenodd;fill:#F7F7F7;" points="3.06,6.348 2.46,6.408 1.92,6.588 1.44,6.828 
	1.02,7.188 0.72,7.608 0.42,8.088 0.3,8.628 0.24,9.228 0.24,31.908 0.3,32.448 0.42,32.988 0.72,33.468 1.02,33.888 1.44,34.248 
	1.92,34.488 2.46,34.668 3.06,34.728 54.06,34.728 54.66,34.668 55.2,34.488 55.68,34.248 56.1,33.888 56.4,33.468 56.7,32.988 
	56.88,32.448 56.94,31.908 56.94,9.228 56.88,8.628 56.7,8.088 56.4,7.608 56.1,7.188 55.68,6.828 55.2,6.588 54.66,6.408 
	54.06,6.348 3.06,6.348 "/>
<polyline points="3.12,6.588 2.52,6.648 2.58,6.648 2.04,6.828 1.56,7.068 1.62,7.008 1.2,7.368 1.26,7.368 0.96,7.788 0.96,7.728 
	0.66,8.208 0.66,8.148 0.54,8.688 0.48,9.288 0.48,9.228 0.48,31.908 0.54,32.448 0.54,32.388 0.66,32.928 0.66,32.868 0.96,33.348 
	1.26,33.768 1.2,33.708 1.62,34.068 1.56,34.068 2.04,34.308 2.04,34.248 2.58,34.428 2.52,34.428 3.12,34.488 3.06,34.488 
	54.06,34.488 54.66,34.428 54.6,34.428 55.14,34.248 55.08,34.308 55.56,34.068 55.98,33.708 55.92,33.768 56.22,33.348 
	56.52,32.868 56.46,32.928 56.64,32.388 56.64,32.448 56.7,31.908 56.7,9.228 56.7,9.288 56.64,8.688 56.64,8.748 56.46,8.208 
	56.52,8.208 56.22,7.728 56.22,7.788 55.92,7.368 55.98,7.368 55.56,7.008 55.56,7.068 55.08,6.828 55.14,6.828 54.6,6.648 
	54.66,6.648 54.06,6.588 3.06,6.588 3.06,6.108 54.12,6.108 54.72,6.168 54.78,6.168 55.32,6.348 55.32,6.408 55.8,6.648 
	55.86,6.648 56.28,7.008 56.34,7.068 56.64,7.488 56.94,7.968 56.94,8.028 57.12,8.568 57.12,8.628 57.18,9.228 57.18,31.968 
	57.12,32.508 57.12,32.568 56.94,33.108 56.64,33.588 56.64,33.648 56.34,34.068 56.28,34.068 55.86,34.428 55.8,34.488 
	55.32,34.728 54.78,34.908 54.72,34.908 54.12,34.968 3.06,34.968 2.46,34.908 2.4,34.908 1.86,34.728 1.8,34.728 1.32,34.488 
	1.32,34.428 0.9,34.068 0.84,34.068 0.54,33.648 0.54,33.588 0.24,33.108 0.18,33.048 0.06,32.508 0,31.968 0,9.228 0.06,8.628 
	0.06,8.568 0.18,8.028 0.24,7.968 0.54,7.488 0.84,7.068 0.9,7.008 1.32,6.648 1.8,6.408 1.86,6.348 2.4,6.168 2.46,6.168 
	3.06,6.108 "/>
<polyline points="3.06,6.588 3.12,6.588 3.06,6.108 "/>
<text transform="matrix(1 0 0 1 1.6201 13.1284)"><tspan x="0" y="0" style="font-family:'ProductusBook'; font-size:7.98;">B</tspan><tspan x="3.599" y="0" style="font-family:'ProductusBook'; font-size:7.98;">un</tspan><tspan x="10.924" y="0" style="font-family:'ProductusBook'; font-size:7.98;">d</tspan><tspan x="14.643" y="0" style="font-family:'ProductusBook'; font-size:7.98;">l</tspan><tspan x="16.191" y="0" style="font-family:'ProductusBook'; font-size:7.98;">e</tspan><tspan x="19.727" y="0" style="font-family:'ProductusBook'; font-size:7.98;"> </tspan><tspan x="21.291" y="0" style="font-family:'ProductusBook'; font-size:7.98;">A</tspan></text>
<text transform="matrix(1 0 0 1 1.6201 27.1084)"><tspan x="0" y="0" style="font-family:'ProductusBook'; font-size:7.98;">P</tspan><tspan x="3.248" y="0" style="font-family:'ProductusBook'; font-size:7.98;">u</tspan><tspan x="6.911" y="0" style="font-family:'ProductusBook'; font-size:7.98;">blis</tspan><tspan x="16.558" y="0" style="font-family:'ProductusBook'; font-size:7.98;">h</tspan><tspan x="20.277" y="0" style="font-family:'ProductusBook'; font-size:7.98;">e</tspan><tspan x="23.764" y="0" style="font-family:'ProductusBook'; font-size:7.98;">r</tspan></text>
<polyline style="fill-rule:evenodd;clip-rule:evenodd;fill:#F7F7F7;" points="201.479,6.348 200.939,6.408 200.4,6.588 
	199.92,6.828 199.5,7.188 199.14,7.608 198.9,8.088 198.72,8.628 198.66,9.228 198.66,31.908 198.72,32.448 198.9,32.988 
	199.14,33.468 199.5,33.888 199.92,34.248 200.4,34.488 200.939,34.668 201.479,34.728 252.54,34.728 253.08,34.668 253.62,34.488 
	254.1,34.248 254.52,33.888 254.88,33.468 255.12,32.988 255.3,32.448 255.36,31.908 255.36,9.228 255.3,8.628 255.12,8.088 
	254.88,7.608 254.52,7.188 254.1,6.828 253.62,6.588 253.08,6.408 252.54,6.348 201.479,6.348 "/>
<polyline points="201.54,6.588 201,6.648 201.06,6.648 200.52,6.828 200.04,7.068 200.1,7.008 199.68,7.368 199.32,7.788 
	199.38,7.728 199.14,8.208 198.96,8.748 198.96,8.688 198.9,9.288 198.9,9.228 198.9,31.908 198.96,32.448 198.96,32.388 
	199.14,32.928 199.14,32.868 199.38,33.348 199.32,33.348 199.68,33.768 199.68,33.708 200.1,34.068 200.04,34.068 200.52,34.308 
	200.52,34.248 201.06,34.428 201,34.428 201.54,34.488 201.479,34.488 252.54,34.488 253.08,34.428 253.02,34.428 253.56,34.248 
	253.5,34.308 253.979,34.068 254.4,33.708 254.34,33.768 254.7,33.348 254.939,32.868 254.88,32.928 255.06,32.388 255.06,32.448 
	255.12,31.908 255.12,9.228 255.12,9.288 255.06,8.688 255.06,8.748 254.88,8.208 254.939,8.208 254.7,7.728 254.7,7.788 
	254.34,7.368 254.4,7.368 253.979,7.008 253.979,7.068 253.5,6.828 253.56,6.828 253.02,6.648 253.08,6.648 252.54,6.588 
	201.479,6.588 201.479,6.108 252.6,6.108 253.14,6.168 253.2,6.168 253.74,6.348 253.74,6.408 254.22,6.648 254.28,6.648 
	254.7,7.008 254.7,7.068 255.06,7.488 255.12,7.488 255.36,7.968 255.36,8.028 255.54,8.568 255.54,8.628 255.6,9.228 255.6,31.968 
	255.54,32.508 255.54,32.568 255.36,33.108 255.12,33.588 255.06,33.648 254.7,34.068 254.28,34.428 254.22,34.488 253.74,34.728 
	253.2,34.908 253.14,34.908 252.6,34.968 201.479,34.968 200.939,34.908 200.88,34.908 200.34,34.728 200.28,34.728 199.8,34.488 
	199.8,34.428 199.38,34.068 199.32,34.068 198.96,33.648 198.96,33.588 198.72,33.108 198.66,33.108 198.479,32.568 198.479,32.508 
	198.42,31.968 198.42,9.228 198.479,8.628 198.479,8.568 198.66,8.028 198.72,7.968 198.96,7.488 199.32,7.068 199.38,7.008 
	199.8,6.648 200.28,6.408 200.34,6.348 200.88,6.168 200.939,6.168 201.479,6.108 "/>
<polyline points="201.479,6.588 201.54,6.588 201.479,6.108 "/>
<text transform="matrix(1 0 0 1 200.0996 13.1284)"><tspan x="0" y="0" style="font-family:'ProductusBook'; font-size:7.98;">B</tspan><tspan x="3.591" y="0" style="font-family:'ProductusBook'; font-size:7.98;">u</tspan><tspan x="7.254" y="0" style="font-family:'ProductusBook'; font-size:7.98;">n</tspan><tspan x="10.956" y="0" style="font-family:'ProductusBook'; font-size:7.98;">d</tspan><tspan x="14.619" y="0" style="font-family:'ProductusBook'; font-size:7.98;">le </tspan><tspan x="21.354" y="0" style="font-family:'ProductusBook'; font-size:7.98;">B</tspan></text>
<text transform="matrix(1 0 0 1 200.0996 27.1084)"><tspan x="0" y="0" style="font-family:'ProductusBook'; font-size:7.98;">C</tspan><tspan x="4.205" y="0" style="font-family:'ProductusBook'; font-size:7.98;">o</tspan><tspan x="7.988" y="0" style="font-family:'ProductusBook'; font-size:7.98;">n</tspan><tspan x="11.65" y="0" style="font-family:'ProductusBook'; font-size:7.98;">s</tspan><tspan x="14.523" y="0" style="font-family:'ProductusBook'; font-size:7.98;">u</tspan><tspan x="18.187" y="0" style="font-family:'ProductusBook'; font-size:7.98;">m</tspan><tspan x="23.939" y="0" style="font-family:'ProductusBook'; font-size:7.98;">e</tspan><tspan x="27.475" y="0" style="font-family:'ProductusBook'; font-size:7.98;">r</tspan></text>
<rect x="56.7" y="20.328" width="0.24" height="0.48"/>
<rect x="56.94" y="20.328" width="141.96" height="0.48"/>
<rect x="127.56" y="20.328" width="0.48" height="21.72"/>
<rect x="127.8" y="41.568" width="99.42" height="0.48"/>
<rect x="226.74" y="34.488" width="0.479" height="7.32"/>
<polyline style="fill-rule:evenodd;clip-rule:evenodd;fill:#FFFFFF;" points="134.88,13.428 120.72,20.568 134.88,27.648 "/>
<polyline points="135,13.668 120.84,20.808 120.6,20.808 120.84,20.388 135,27.468 135.12,27.648 135.12,28.068 120.24,20.628 
	120.6,20.388 134.76,13.248 "/>
<polyline points="134.64,27.648 134.64,13.428 134.76,13.248 135.12,13.068 135.12,27.648 "/>
<text transform="matrix(1 0 0 1 109.9199 18.1685)"><tspan x="0" y="0" style="font-family:'ProductusBook'; font-size:7.98;">0..</tspan><tspan x="7.126" y="0" style="font-family:'ProductusBook'; font-size:7.98;">n</tspan></text>
<text transform="matrix(1 0 0 1 59.04 18.1685)"><tspan x="0" y="0" style="font-family:'ProductusBook'; font-size:7.98;">0..</tspan><tspan x="7.078" y="0" style="font-family:'ProductusBook'; font-size:7.98;">n</tspan></text>
<text transform="matrix(1 0 0 1 81.54 18.1685)"><tspan x="0" y="0" style="font-family:'ProductusSemibold'; font-size:7.98;">r</tspan><tspan x="2.881" y="0" style="font-family:'ProductusSemibold'; font-size:7.98;">e</tspan><tspan x="7.015" y="0" style="font-family:'ProductusSemibold'; font-size:7.98;">g</tspan><tspan x="11.028" y="0" style="font-family:'ProductusSemibold'; font-size:7.98;">i</tspan><tspan x="13.246" y="0" style="font-family:'ProductusSemibold'; font-size:7.98;">s</tspan><tspan x="16.542" y="0" style="font-family:'ProductusSemibold'; font-size:7.98;">t</tspan><tspan x="19.662" y="0" style="font-family:'ProductusSemibold'; font-size:7.98;">e</tspan><tspan x="23.796" y="0" style="font-family:'ProductusSemibold'; font-size:7.98; letter-spacing:58;">r</tspan><tspan x="84.516" y="0" style="font-family:'ProductusSemibold'; font-size:7.98;">f</tspan><tspan x="87.141" y="0" style="font-family:'ProductusSemibold'; font-size:7.98;">i</tspan><tspan x="89.295" y="0" style="font-family:'ProductusSemibold'; font-size:7.98;">n</tspan><tspan x="93.612" y="0" style="font-family:'ProductusSemibold'; font-size:7.98;">d</tspan></text>
<text transform="matrix(1 0 0 1 187.8594 17.9878)"><tspan x="0" y="0" style="font-family:'ProductusBook'; font-size:7.98;">0</tspan><tspan x="3.942" y="0" style="font-family:'ProductusBook'; font-size:7.98;">.</tspan><tspan x="5.506" y="0" style="font-family:'ProductusBook'; font-size:7.98;">.</tspan><tspan x="7.134" y="0" style="font-family:'ProductusBook'; font-size:7.98;">n</tspan></text>
<text transform="matrix(1 0 0 1 137.04 17.9878)"><tspan x="0" y="0" style="font-family:'ProductusBook'; font-size:7.98;">0..</tspan><tspan x="7.126" y="0" style="font-family:'ProductusBook'; font-size:7.98;">n</tspan></text>
<text transform="matrix(1 0 0 1 163.2002 39.4678)"><tspan x="0" y="0" style="font-family:'ProductusSemibold'; font-size:7.98;">liste</tspan><tspan x="14.93" y="0" style="font-family:'ProductusSemibold'; font-size:7.98;">n</tspan></text>
<text transform="matrix(1 0 0 1 120.1201 6.6475)"><tspan x="0" y="0" style="font-family:'ProductusSemibold'; font-size:7.98;">s</tspan><tspan x="3.352" y="0" style="font-family:'ProductusSemibold'; font-size:7.98;">e</tspan><tspan x="7.43" y="0" style="font-family:'ProductusSemibold'; font-size:7.98;">rvic</tspan><tspan x="20.309" y="0" style="font-family:'ProductusSemibold'; font-size:7.98;">e</tspan></text>
<text transform="matrix(1 0 0 1 81.54 27.9478)"><tspan x="0" y="0" style="font-family:'ProductusSemibold'; font-size:7.98;">mod</tspan><tspan x="14.962" y="0" style="font-family:'ProductusSemibold'; font-size:7.98;">i</tspan><tspan x="17.181" y="0" style="font-family:'ProductusSemibold'; font-size:7.98;">f</tspan><tspan x="19.894" y="0" style="font-family:'ProductusSemibold'; font-size:7.98; letter-spacing:60;">y</tspan><tspan x="84.508" y="0" style="font-family:'ProductusSemibold'; font-size:7.98;">g</tspan><tspan x="88.466" y="0" style="font-family:'ProductusSemibold'; font-size:7.98;">e</tspan><tspan x="92.6" y="0" style="font-family:'ProductusSemibold'; font-size:7.98;">t</tspan></text>
<text transform="matrix(1 0 0 1 129.9004 32.3877)"><tspan x="0" y="0" style="font-family:'ProductusBook'; font-size:7.98;">0..</tspan><tspan x="7.126" y="0" style="font-family:'ProductusBook'; font-size:7.98;">n</tspan></text>
<text transform="matrix(1 0 0 1 230.3408 40.9082)"><tspan x="0" y="0" style="font-family:'ProductusBook'; font-size:7.98;">0..</tspan><tspan x="7.126" y="0" style="font-family:'ProductusBook'; font-size:7.98;">n</tspan></text>
</svg>
