<?xml version="1.0" encoding="utf-8"?>
<!-- Generator: Adobe Illustrator 24.1.2, SVG Export Plug-In . SVG Version: 6.00 Build 0)  -->
<svg version="1.1" id="Layer_1" xmlns="http://www.w3.org/2000/svg" xmlns:xlink="http://www.w3.org/1999/xlink" x="0px" y="0px"
	 viewBox="0 0 415.4 294.8" style="enable-background:new 0 0 415.4 294.8;" xml:space="preserve">
<style type="text/css">
	.st0{fill:none;stroke:#000000;stroke-miterlimit:10;}
	.st1{stroke:#000000;stroke-miterlimit:10;}
	.st2{fill:#FFFFFF;stroke:#000000;stroke-miterlimit:10;}
	.st3{font-family:'ProductusSemibold';}
	.st4{font-size:9.2777px;}
	.st5{font-family:'ProductusBook';}
	.st6{fill-opacity:0;}
</style>
<circle class="st0" cx="164.5" cy="44.6" r="14.7"/>
<g>
	<rect x="167" y="9.3" class="st1" width="76.6" height="34.2"/>
	<rect x="164.5" y="7.1" class="st2" width="76.6" height="34.2"/>
	<text transform="matrix(1 0 0 1 168.1937 17.3141)" class="st3 st4">Feature</text>
</g>
<g>
	<rect x="12.4" y="170.1" class="st1" width="76.6" height="34.2"/>
	<rect x="10" y="167.9" class="st2" width="76.6" height="34.2"/>
	<text transform="matrix(1 0 0 1 13.6555 178.0692)" class="st3 st4">Framework</text>
	<text transform="matrix(1 0 0 1 13.6555 189.1692)" class="st3 st4">Property</text>
</g>
<g>
	<rect x="11.2" y="85.4" class="st1" width="76.6" height="34.2"/>
	<rect x="8.8" y="83.2" class="st2" width="76.6" height="34.2"/>
	<text transform="matrix(1 0 0 1 12.435 93.4429)" class="st3 st4">Configuration</text>
</g>
<g>
	<rect x="10" y="8.2" class="st1" width="76.6" height="34.2"/>
	<rect x="7.6" y="6" class="st2" width="76.6" height="34.2"/>
	<text transform="matrix(1 0 0 1 11.2145 16.2096)" class="st3 st4">Bundle</text>
</g>
<g>
	<rect x="322.7" y="171.2" class="st1" width="76.6" height="34.2"/>
	<rect x="320.3" y="169" class="st2" width="76.6" height="34.2"/>
	<text transform="matrix(1 0 0 1 323.9524 179.1737)" class="st3 st4">Artifact</text>
	<text transform="matrix(1 0 0 1 323.9524 190.2737)" class="st3 st4">Extension</text>
</g>
<g>
	<rect x="324" y="10.4" class="st1" width="76.6" height="34.2"/>
	<rect x="321.5" y="8.2" class="st2" width="76.6" height="34.2"/>
	<text transform="matrix(1 0 0 1 325.1729 18.4186)" class="st3 st4">Text Extension</text>
</g>
<g>
	<rect x="322.7" y="86.5" class="st1" width="76.6" height="34.2"/>
	<rect x="320.3" y="84.3" class="st2" width="76.6" height="34.2"/>
	<text transform="matrix(1 0 0 1 323.9523 94.5474)" class="st3 st4">JSON Extension</text>
</g>
<path class="st0" d="M341.3,159.9"/>
<line class="st0" x1="87.8" y1="23.1" x2="163.3" y2="23.1"/>
<polyline class="st0" points="89.1,101.4 201.6,101.4 201.6,44.6 "/>
<line class="st0" x1="242.7" y1="23.1" x2="321.5" y2="23.1"/>
<polyline class="st0" points="320.3,100.3 201.6,101.4 201.6,184.9 89.1,184.9 "/>
<polyline class="st0" points="320.3,184.9 201.6,184.9 201.6,268.4 319.1,268.4 "/>
<text transform="matrix(1 0 0 1 145.3354 20.8933)" class="st5 st4">0..n </text>
<text transform="matrix(1 0 0 1 204.6255 54.498)" class="st5 st4">0..n </text>
<text transform="matrix(1 0 0 1 245.9385 20.8938)" class="st5 st4">0..n </text>
<circle class="st6" cx="142.1" cy="74.6" r="14.7"/>
<text transform="matrix(1 0 0 1 132.7941 56.8743)" class="st5 st4">0..1</text>
<text transform="matrix(1 0 0 1 132.7941 67.9743)" class="st5 st4">prototype </text>
<g>
	<rect x="12.4" y="252.4" class="st1" width="76.6" height="34.2"/>
	<rect x="10" y="250.2" class="st2" width="76.6" height="34.2"/>
	<text transform="matrix(1 0 0 1 13.6555 260.3692)" class="st3 st4">Requirement</text>
</g>
<g>
	<rect x="321.5" y="251.3" class="st1" width="76.6" height="34.2"/>
	<rect x="319.1" y="249.1" class="st2" width="76.6" height="34.2"/>
	<text transform="matrix(1 0 0 1 322.7555 259.2692)" class="st3 st4">Capability</text>
</g>
<line class="st0" x1="201.6" y1="268.4" x2="89.1" y2="268.4"/>
<path class="st0" d="M518.7-10"/>
</svg>
