<?xml version="1.0" encoding="utf-8"?>
<!-- Generator: Adobe Illustrator 16.0.0, SVG Export Plug-In . SVG Version: 6.00 Build 0)  -->
<!DOCTYPE svg PUBLIC "-//W3C//DTD SVG 1.1//EN" "http://www.w3.org/Graphics/SVG/1.1/DTD/svg11.dtd">
<svg version="1.1" id="Layer_1" xmlns="http://www.w3.org/2000/svg" xmlns:xlink="http://www.w3.org/1999/xlink" x="0px" y="0px"
	 width="261.752px" height="83.758px" viewBox="0 0 261.752 83.758" style="enable-background:new 0 0 261.752 83.758;"
	 xml:space="preserve">
<rect x="0.24" y="14.4" style="fill:#FFFFFF;" width="56.7" height="14.16"/>
<rect x="0.24" y="14.16" width="56.94" height="0.48"/>
<rect x="56.7" y="14.4" width="0.48" height="14.4"/>
<rect y="28.32" width="56.94" height="0.48"/>
<rect y="14.16" width="0.48" height="14.4"/>
<text transform="matrix(1 0 0 1 3 22.9199)"><tspan x="0" y="0" style="font-family:'ProductusOSGiBookc'; font-size:7.98;">Loca</tspan><tspan x="13.191" y="0" style="font-family:'ProductusOSGiBookc'; font-size:7.98;">l</tspan><tspan x="14.699" y="0" style="font-family:'ProductusOSGiBookc'; font-size:7.98;"> </tspan><tspan x="16.311" y="0" style="font-family:'ProductusOSGiBookc'; font-size:7.98;">M</tspan><tspan x="22.136" y="0" style="font-family:'ProductusOSGiBookc'; font-size:7.98;">anage</tspan><tspan x="39.349" y="0" style="font-family:'ProductusOSGiBookc'; font-size:7.98;">r</tspan></text>
<polyline style="fill:#FFFFFF;" points="156.18,0.24 212.88,0.24 212.88,14.4 156.18,14.4 "/>
<rect x="156.18" width="56.94" height="0.48"/>
<rect x="212.64" y="0.24" width="0.48" height="14.4"/>
<rect x="155.94" y="14.16" width="56.939" height="0.48"/>
<rect x="155.94" width="0.479" height="14.4"/>
<text transform="matrix(1 0 0 1 158.9404 8.7603)"><tspan x="0" y="0" style="font-family:'ProductusOSGiBookc'; font-size:7.98;">P</tspan><tspan x="3.256" y="0" style="font-family:'ProductusOSGiBookc'; font-size:7.98;">r</tspan><tspan x="5.299" y="0" style="font-family:'ProductusOSGiBookc'; font-size:7.98;">o</tspan><tspan x="9.025" y="0" style="font-family:'ProductusOSGiBookc'; font-size:7.98;">t</tspan><tspan x="11.363" y="0" style="font-family:'ProductusOSGiBookc'; font-size:7.98;">ocol</tspan><tspan x="23.54" y="0" style="font-family:'ProductusOSGiBookc'; font-size:7.98;"> </tspan><tspan x="25.104" y="0" style="font-family:'ProductusOSGiBookc'; font-size:7.98;">A</tspan><tspan x="29.007" y="0" style="font-family:'ProductusOSGiBookc'; font-size:7.98;">d</tspan><tspan x="32.67" y="0" style="font-family:'ProductusOSGiBookc'; font-size:7.98;">apte</tspan><tspan x="45.478" y="0" style="font-family:'ProductusOSGiBookc'; font-size:7.98;">r</tspan></text>
<rect x="0.24" y="28.56" style="fill:#FFFFFF;" width="56.7" height="14.16"/>
<rect x="0.24" y="28.32" width="56.94" height="0.48"/>
<rect x="56.7" y="28.56" width="0.48" height="14.4"/>
<rect y="42.48" width="56.94" height="0.48"/>
<rect y="28.32" width="0.48" height="14.4"/>
<text transform="matrix(1 0 0 1 3 37.0801)"><tspan x="0" y="0" style="font-family:'ProductusOSGiBookc'; font-size:7.98;">D</tspan><tspan x="4.908" y="0" style="font-family:'ProductusOSGiBookc'; font-size:7.98;">m</tspan><tspan x="10.613" y="0" style="font-family:'ProductusOSGiBookc'; font-size:7.98;">t</tspan><tspan x="12.951" y="0" style="font-family:'ProductusOSGiBookc'; font-size:7.98;"> </tspan><tspan x="14.571" y="0" style="font-family:'ProductusOSGiBookc'; font-size:7.98;">A</tspan><tspan x="18.474" y="0" style="font-family:'ProductusOSGiBookc'; font-size:7.98;">d</tspan><tspan x="22.136" y="0" style="font-family:'ProductusOSGiBookc'; font-size:7.98;">m</tspan><tspan x="27.842" y="0" style="font-family:'ProductusOSGiBookc'; font-size:7.98;">i</tspan><tspan x="29.398" y="0" style="font-family:'ProductusOSGiBookc'; font-size:7.98;">n</tspan></text>
<polyline style="fill:#FFFFFF;" points="156.18,14.4 212.88,14.4 212.88,28.56 156.18,28.56 "/>
<rect x="156.18" y="14.16" width="56.94" height="0.48"/>
<rect x="212.64" y="14.4" width="0.48" height="14.4"/>
<rect x="155.94" y="28.32" width="56.939" height="0.48"/>
<rect x="155.94" y="14.16" width="0.479" height="14.4"/>
<text transform="matrix(1 0 0 1 158.9404 25.0801)"><tspan x="0" y="0" style="font-family:'ProductusOSGiBookc'; font-size:7.98;">D</tspan><tspan x="4.916" y="0" style="font-family:'ProductusOSGiBookc'; font-size:7.98;">mt</tspan><tspan x="13.016" y="0" style="font-family:'ProductusOSGiBookc'; font-size:7.98;"> </tspan><tspan x="14.627" y="0" style="font-family:'ProductusOSGiBookc'; font-size:7.98;">A</tspan><tspan x="18.474" y="0" style="font-family:'ProductusOSGiBookc'; font-size:7.98;">d</tspan><tspan x="22.137" y="0" style="font-family:'ProductusOSGiBookc'; font-size:7.98;">mi</tspan><tspan x="29.438" y="0" style="font-family:'ProductusOSGiBookc'; font-size:7.98;">n</tspan></text>
<rect x="0.24" y="42.72" style="fill:#FFFFFF;" width="56.7" height="14.22"/>
<rect x="0.24" y="42.48" width="56.94" height="0.48"/>
<rect x="56.7" y="42.72" width="0.48" height="14.46"/>
<rect y="56.7" width="56.94" height="0.48"/>
<rect y="42.48" width="0.48" height="14.46"/>
<text transform="matrix(1 0 0 1 3 51.2397)"><tspan x="0" y="0" style="font-family:'ProductusOSGiBookc'; font-size:7.98;">Plugi</tspan><tspan x="13.446" y="0" style="font-family:'ProductusOSGiBookc'; font-size:7.98;">n</tspan></text>
<rect x="0.24" y="56.94" style="fill:#FFFFFF;" width="56.7" height="14.16"/>
<rect x="0.24" y="56.7" width="56.94" height="0.48"/>
<rect x="56.7" y="56.94" width="0.48" height="14.4"/>
<rect y="70.86" width="56.94" height="0.48"/>
<rect y="56.7" width="0.48" height="14.4"/>
<text transform="matrix(1 0 0 1 3 65.46)"><tspan x="0" y="0" style="font-family:'ProductusOSGiBookc'; font-size:7.98;">P</tspan><tspan x="3.248" y="0" style="font-family:'ProductusOSGiBookc'; font-size:7.98;">r</tspan><tspan x="5.291" y="0" style="font-family:'ProductusOSGiBookc'; font-size:7.98;">o</tspan><tspan x="8.833" y="0" style="font-family:'ProductusOSGiBookc'; font-size:7.98;">x</tspan><tspan x="11.778" y="0" style="font-family:'ProductusOSGiBookc'; font-size:7.98;">ied</tspan><tspan x="20.468" y="0" style="font-family:'ProductusOSGiBookc'; font-size:7.98;"> </tspan><tspan x="22.08" y="0" style="font-family:'ProductusOSGiBookc'; font-size:7.98;">S</tspan><tspan x="25.743" y="0" style="font-family:'ProductusOSGiBookc'; font-size:7.98;">ervic</tspan><tspan x="39.221" y="0" style="font-family:'ProductusOSGiBookc'; font-size:7.98;">e</tspan></text>
<polyline style="fill:#FFFFFF;" points="156.18,42.72 212.88,42.72 212.88,56.94 156.18,56.94 "/>
<rect x="156.18" y="42.48" width="56.94" height="0.48"/>
<rect x="212.64" y="42.72" width="0.48" height="14.46"/>
<rect x="155.94" y="56.7" width="56.939" height="0.48"/>
<rect x="155.94" y="42.48" width="0.479" height="14.46"/>
<text transform="matrix(1 0 0 1 158.9404 51.2397)"><tspan x="0" y="0" style="font-family:'ProductusOSGiBookc'; font-size:7.98;">P</tspan><tspan x="3.296" y="0" style="font-family:'ProductusOSGiBookc'; font-size:7.98;">l</tspan><tspan x="4.804" y="0" style="font-family:'ProductusOSGiBookc'; font-size:7.98;">u</tspan><tspan x="8.458" y="0" style="font-family:'ProductusOSGiBookc'; font-size:7.98;">g</tspan><tspan x="11.938" y="0" style="font-family:'ProductusOSGiBookc'; font-size:7.98;">i</tspan><tspan x="13.446" y="0" style="font-family:'ProductusOSGiBookc'; font-size:7.98;">n</tspan></text>
<polyline style="fill:#FFFFFF;" points="156.18,56.94 212.88,56.94 212.88,71.1 156.18,71.1 "/>
<rect x="156.18" y="56.7" width="56.94" height="0.48"/>
<rect x="212.64" y="56.94" width="0.48" height="14.4"/>
<rect x="155.94" y="70.86" width="56.939" height="0.48"/>
<rect x="155.94" y="56.7" width="0.479" height="14.4"/>
<text transform="matrix(1 0 0 1 158.9404 65.46)"><tspan x="0" y="0" style="font-family:'ProductusOSGiBookc'; font-size:7.98;">P</tspan><tspan x="3.256" y="0" style="font-family:'ProductusOSGiBookc'; font-size:7.98;">r</tspan><tspan x="5.299" y="0" style="font-family:'ProductusOSGiBookc'; font-size:7.98;">o</tspan><tspan x="8.842" y="0" style="font-family:'ProductusOSGiBookc'; font-size:7.98;">x</tspan><tspan x="11.786" y="0" style="font-family:'ProductusOSGiBookc'; font-size:7.98;">ied</tspan><tspan x="20.5" y="0" style="font-family:'ProductusOSGiBookc'; font-size:7.98;"> </tspan><tspan x="22.064" y="0" style="font-family:'ProductusOSGiBookc'; font-size:7.98;">Ser</tspan><tspan x="31.48" y="0" style="font-family:'ProductusOSGiBookc'; font-size:7.98;">v</tspan><tspan x="34.608" y="0" style="font-family:'ProductusOSGiBookc'; font-size:7.98;">ic</tspan><tspan x="39.236" y="0" style="font-family:'ProductusOSGiBookc'; font-size:7.98;">e</tspan></text>
<polyline style="fill:#FFFFFF;" points="156.18,28.56 212.88,28.56 212.88,42.72 156.18,42.72 "/>
<rect x="156.18" y="28.32" width="56.94" height="0.48"/>
<rect x="212.64" y="28.56" width="0.48" height="14.4"/>
<rect x="155.94" y="42.48" width="56.939" height="0.48"/>
<rect x="155.94" y="28.32" width="0.479" height="14.4"/>
<text transform="matrix(1 0 0 1 158.9404 37.0801)"><tspan x="0" y="0" style="font-family:'ProductusOSGiBookc'; font-size:7.98;">P</tspan><tspan x="3.296" y="0" style="font-family:'ProductusOSGiBookc'; font-size:7.98;">r</tspan><tspan x="5.514" y="0" style="font-family:'ProductusOSGiBookc'; font-size:7.98;">i</tspan><tspan x="7.022" y="0" style="font-family:'ProductusOSGiBookc'; font-size:7.98;">n</tspan><tspan x="10.677" y="0" style="font-family:'ProductusOSGiBookc'; font-size:7.98;">c</tspan><tspan x="13.741" y="0" style="font-family:'ProductusOSGiBookc'; font-size:7.98;">i</tspan><tspan x="15.297" y="0" style="font-family:'ProductusOSGiBookc'; font-size:7.98;">p</tspan><tspan x="18.96" y="0" style="font-family:'ProductusOSGiBookc'; font-size:7.98;">a</tspan><tspan x="22.256" y="0" style="font-family:'ProductusOSGiBookc'; font-size:7.98;">l</tspan></text>
<rect x="0.24" y="0.24" style="fill:#FFFFFF;" width="56.7" height="14.16"/>
<rect x="0.24" width="56.94" height="0.48"/>
<rect x="56.7" y="0.24" width="0.48" height="14.4"/>
<rect y="14.16" width="56.94" height="0.48"/>
<rect width="0.48" height="14.4"/>
<text transform="matrix(1 0 0 1 3 8.7603)"><tspan x="0" y="0" style="font-family:'ProductusOSGiBookc'; font-size:7.98;">S</tspan><tspan x="3.679" y="0" style="font-family:'ProductusOSGiBookc'; font-size:7.98;">o</tspan><tspan x="7.453" y="0" style="font-family:'ProductusOSGiBookc'; font-size:7.98;">m</tspan><tspan x="13.207" y="0" style="font-family:'ProductusOSGiBookc'; font-size:7.98;">e</tspan><tspan x="16.686" y="0" style="font-family:'ProductusOSGiBookc'; font-size:7.98;"> </tspan><tspan x="18.25" y="0" style="font-family:'ProductusOSGiBookc'; font-size:7.98;">ca</tspan><tspan x="24.594" y="0" style="font-family:'ProductusOSGiBookc'; font-size:7.98;">l</tspan><tspan x="26.15" y="0" style="font-family:'ProductusOSGiBookc'; font-size:7.98;">l</tspan><tspan x="27.658" y="0" style="font-family:'ProductusOSGiBookc'; font-size:7.98;">er</tspan></text>
<rect x="146.94" y="15.78" width="1.5" height="3"/>
<rect x="148.44" y="15.78" width="72.359" height="3"/>
<polyline points="219.96,47.16 216.66,47.16 216.84,46.5 219.48,37.32 219.96,35.64 220.44,37.32 223.08,46.5 223.26,47.16 
	222.6,47.16 222.12,46.8 219.48,37.62 220.44,37.32 220.44,37.62 217.8,46.8 216.84,46.5 217.32,46.14 219.96,46.14 "/>
<rect x="219.96" y="46.14" width="2.64" height="1.02"/>
<polyline style="fill-rule:evenodd;clip-rule:evenodd;" points="219.96,46.68 217.32,46.68 219.96,37.5 222.6,46.68 "/>
<rect x="219.72" y="71.1" width="0.48" height="0.24"/>
<rect x="219.72" y="46.98" width="0.48" height="24.12"/>
<text transform="matrix(1 0 0 1 231.6602 54.6001)"><tspan x="0" y="0" style="font-family:'ProductusOSGiBookc'; font-size:7.98;">securit</tspan><tspan x="19.119" y="0" style="font-family:'ProductusOSGiBookc'; font-size:7.98;">y</tspan></text>
<text transform="matrix(1 0 0 1 231.6602 64.2598)"><tspan x="0" y="0" style="font-family:'ProductusOSGiBookc'; font-size:7.98;">c</tspan><tspan x="3.12" y="0" style="font-family:'ProductusOSGiBookc'; font-size:7.98;">h</tspan><tspan x="6.727" y="0" style="font-family:'ProductusOSGiBookc'; font-size:7.98;">e</tspan><tspan x="10.206" y="0" style="font-family:'ProductusOSGiBookc'; font-size:7.98;">c</tspan><tspan x="13.326" y="0" style="font-family:'ProductusOSGiBookc'; font-size:7.98;">k</tspan></text>
<text transform="matrix(1 0 0 1 227.04 18.96)"><tspan x="0" y="0" style="font-family:'ProductusOSGiBookc'; font-size:7.98;">doPri</tspan><tspan x="14.451" y="0" style="font-family:'ProductusOSGiBookc'; font-size:7.98;">v</tspan><tspan x="17.579" y="0" style="font-family:'ProductusOSGiBookc'; font-size:7.98;">i</tspan><tspan x="19.119" y="0" style="font-family:'ProductusOSGiBookc'; font-size:7.98;">l</tspan><tspan x="20.628" y="0" style="font-family:'ProductusOSGiBookc'; font-size:7.98;">ege</tspan><tspan x="31.05" y="0" style="font-family:'ProductusOSGiBookc'; font-size:7.98;">d</tspan></text>
<polyline points="64.02,47.16 60.72,47.16 60.9,46.5 63.54,37.32 64.02,35.7 64.5,37.32 67.2,46.5 67.38,47.16 66.72,47.16 
	66.24,46.8 63.54,37.62 64.5,37.32 64.5,37.62 61.86,46.8 60.9,46.5 61.38,46.14 64.02,46.14 "/>
<rect x="64.02" y="46.14" width="2.7" height="1.02"/>
<polyline style="fill-rule:evenodd;clip-rule:evenodd;" points="64.02,46.68 61.38,46.68 64.02,37.5 66.72,46.68 "/>
<rect x="63.78" y="71.1" width="0.48" height="0.24"/>
<rect x="63.78" y="46.98" width="0.48" height="24.12"/>
<text transform="matrix(1 0 0 1 75.7202 54.6001)"><tspan x="0" y="0" style="font-family:'ProductusOSGiBookc'; font-size:7.98;">secur</tspan><tspan x="15.202" y="0" style="font-family:'ProductusOSGiBookc'; font-size:7.98;">i</tspan><tspan x="16.709" y="0" style="font-family:'ProductusOSGiBookc'; font-size:7.98;">ty</tspan></text>
<text transform="matrix(1 0 0 1 75.7202 64.2598)" style="font-family:'ProductusOSGiBookc'; font-size:7.98;">check</text>
<g>
	<text transform="matrix(1 0 0 1 204.4004 81.4199)" style="font-family:'ProductusOSGiBookc'; font-size:7.98;">r</text>
	<text transform="matrix(1 0 0 1 200.9189 81.4199)" style="font-family:'ProductusOSGiBookc'; font-size:7.98;">e</text>
	<text transform="matrix(1 0 0 1 198.5781 81.4199)" style="font-family:'ProductusOSGiBookc'; font-size:7.98;">t</text>
	<text transform="matrix(1 0 0 1 194.9053 81.4199)" style="font-family:'ProductusOSGiBookc'; font-size:7.98;">p</text>
	<text transform="matrix(1 0 0 1 191.6152 81.4199)" style="font-family:'ProductusOSGiBookc'; font-size:7.98;">a</text>
	<text transform="matrix(1 0 0 1 187.9551 81.4199)" style="font-family:'ProductusOSGiBookc'; font-size:7.98;">d</text>
	<text transform="matrix(1 0 0 1 184.0557 81.4199)" style="font-family:'ProductusOSGiBookc'; font-size:7.98;">A</text>
	<text transform="matrix(1 0 0 1 182.4951 81.4199)" style="font-family:'ProductusOSGiBookc'; font-size:7.98;"> </text>
	<text transform="matrix(1 0 0 1 180.9531 81.4199)" style="font-family:'ProductusOSGiBookc'; font-size:7.98;">l</text>
	<text transform="matrix(1 0 0 1 177.1836 81.4199)" style="font-family:'ProductusOSGiBookc'; font-size:7.98;">o</text>
	<text transform="matrix(1 0 0 1 174.1094 81.4199)" style="font-family:'ProductusOSGiBookc'; font-size:7.98;">c</text>
	<text transform="matrix(1 0 0 1 170.3398 81.4199)" style="font-family:'ProductusOSGiBookc'; font-size:7.98;">o</text>
	<text transform="matrix(1 0 0 1 168 81.4199)" style="font-family:'ProductusOSGiBookc'; font-size:7.98;">t</text>
	<text transform="matrix(1 0 0 1 164.2793 81.4199)" style="font-family:'ProductusOSGiBookc'; font-size:7.98;">o</text>
	<text transform="matrix(1 0 0 1 162.2402 81.4199)" style="font-family:'ProductusOSGiBookc'; font-size:7.98;">r</text>
	<text transform="matrix(1 0 0 1 158.9404 81.4199)" style="font-family:'ProductusOSGiBookc'; font-size:7.98;">P</text>
	<text transform="matrix(1 0 0 1 46.02 81.4199)" style="font-family:'ProductusOSGiBookc'; font-size:7.98;">r</text>
	<text transform="matrix(1 0 0 1 42.5381 81.4199)" style="font-family:'ProductusOSGiBookc'; font-size:7.98;">e</text>
	<text transform="matrix(1 0 0 1 39.0723 81.4199)" style="font-family:'ProductusOSGiBookc'; font-size:7.98;">g</text>
	<text transform="matrix(1 0 0 1 35.7822 81.4199)" style="font-family:'ProductusOSGiBookc'; font-size:7.98;">a</text>
	<text transform="matrix(1 0 0 1 32.125 81.4199)" style="font-family:'ProductusOSGiBookc'; font-size:7.98;">n</text>
	<text transform="matrix(1 0 0 1 28.835 81.4199)" style="font-family:'ProductusOSGiBookc'; font-size:7.98;">a</text>
	<text transform="matrix(1 0 0 1 22.9912 81.4199)" style="font-family:'ProductusOSGiBookc'; font-size:7.98;">M</text>
	<text transform="matrix(1 0 0 1 21.3711 81.4199)" style="font-family:'ProductusOSGiBookc'; font-size:7.98;"> </text>
	<text transform="matrix(1 0 0 1 19.8286 81.4199)" style="font-family:'ProductusOSGiBookc'; font-size:7.98;">l</text>
	<text transform="matrix(1 0 0 1 16.5386 81.4199)" style="font-family:'ProductusOSGiBookc'; font-size:7.98;">a</text>
	<text transform="matrix(1 0 0 1 13.4639 81.4199)" style="font-family:'ProductusOSGiBookc'; font-size:7.98;">c</text>
	<text transform="matrix(1 0 0 1 9.6948 81.4199)" style="font-family:'ProductusOSGiBookc'; font-size:7.98;">o</text>
	<text transform="matrix(1 0 0 1 6.6602 81.4199)" style="font-family:'ProductusOSGiBookc'; font-size:7.98;">L</text>
</g>
<text transform="matrix(1 0 0 1 6.6602 81.4199)"><tspan x="0" y="0" style="font-family:'ProductusOSGiBookc'; font-size:7.98;">Loca</tspan><tspan x="13.191" y="0" style="font-family:'ProductusOSGiBookc'; font-size:7.98;">l</tspan><tspan x="14.699" y="0" style="font-family:'ProductusOSGiBookc'; font-size:7.98;"> </tspan><tspan x="16.311" y="0" style="font-family:'ProductusOSGiBookc'; font-size:7.98;">M</tspan><tspan x="22.136" y="0" style="font-family:'ProductusOSGiBookc'; font-size:7.98;">anage</tspan><tspan x="39.349" y="0" style="font-family:'ProductusOSGiBookc'; font-size:7.98;">r</tspan></text>
</svg>
