<?xml version="1.0" encoding="utf-8"?>
<!-- Generator: Adobe Illustrator 16.0.1, SVG Export Plug-In . SVG Version: 6.00 Build 0)  -->
<!DOCTYPE svg PUBLIC "-//W3C//DTD SVG 1.1//EN" "http://www.w3.org/Graphics/SVG/1.1/DTD/svg11.dtd">
<svg version="1.1" id="Layer_1" xmlns="http://www.w3.org/2000/svg" xmlns:xlink="http://www.w3.org/1999/xlink" x="0px" y="0px"
	 width="262.68px" height="169.547px" viewBox="0 0 262.68 169.547" enable-background="new 0 0 262.68 169.547"
	 xml:space="preserve">
<rect x="0.24" y="6.347" fill="#F2F2F2" width="262.199" height="162.959"/>
<rect x="0.24" y="6.107" fill="#F2F2F2" width="262.439" height="0.48"/>
<rect x="262.2" y="6.347" fill="#F2F2F2" width="0.479" height="163.2"/>
<rect x="0" y="169.066" fill="#F2F2F2" width="262.439" height="0.48"/>
<rect x="0" y="6.107" fill="#F2F2F2" width="0.479" height="163.2"/>
<rect x="120.72" y="48.828" fill="#E6E6E6" width="134.64" height="113.4"/>
<rect x="127.8" y="91.368" fill="#BFBFBF" width="85.02" height="63.78"/>
<rect x="127.8" y="91.127" fill="#BFBFBF" width="85.26" height="0.48"/>
<rect x="212.581" y="91.368" fill="#BFBFBF" width="0.479" height="64.021"/>
<rect x="127.56" y="154.908" fill="#BFBFBF" width="85.26" height="0.479"/>
<rect x="127.56" y="91.127" fill="#BFBFBF" width="0.48" height="64.02"/>
<polyline points="170.46,62.868 170.28,62.748 170.041,63.167 170.22,63.288 "/>
<polyline points="241.32,105.348 241.5,105.467 241.26,105.887 241.081,105.768 "/>
<polyline points="170.46,62.868 170.22,63.288 241.081,105.768 241.32,105.348 "/>
<polyline points="113.76,20.748 113.94,20.627 113.7,20.208 113.52,20.328 "/>
<polyline points="42.84,63.288 42.66,63.408 42.42,62.987 42.6,62.868 "/>
<polyline points="113.76,20.748 113.52,20.328 42.6,62.868 42.84,63.288 "/>
<polyline points="170.22,63.228 170.4,63.348 170.7,62.987 170.52,62.868 "/>
<polyline points="113.52,20.688 113.34,20.567 113.64,20.208 113.82,20.328 "/>
<polyline points="170.22,63.228 170.52,62.868 113.82,20.328 113.52,20.688 "/>
<rect x="170.1" y="69.887" width="0.48" height="0.24"/>
<rect x="170.1" y="70.127" width="0.48" height="28.561"/>
<polyline points="170.52,105.708 170.7,105.527 170.34,105.167 170.161,105.348 "/>
<polyline points="142.14,134.087 141.96,134.268 141.6,133.908 141.78,133.729 "/>
<polyline points="170.52,105.708 170.161,105.348 141.78,133.729 142.14,134.087 "/>
<rect x="170.1" y="105.288" width="0.48" height="0.239"/>
<rect x="170.1" y="105.527" width="0.48" height="28.619"/>
<polyline points="170.52,105.348 170.34,105.167 169.98,105.527 170.161,105.708 "/>
<polyline points="198.84,133.729 199.02,133.908 198.661,134.268 198.48,134.087 "/>
<polyline points="170.52,105.348 170.161,105.708 198.48,134.087 198.84,133.729 "/>
<text transform="matrix(1 0 0 1 112.0203 6.6475)" font-family="'ProductusBook'" font-size="7.98">.</text>
<path fill="#808080" d="M120.72,20.507l-0.06-0.72l-0.12-0.72c-1.875-7.94-12.886-7.34-13.98,0.72l-0.06,0.72l0.06,0.72
	c1.11,8.05,12.092,8.641,13.98,0.72l0.12-0.72L120.72,20.507"/>
<path d="M120.48,20.567l-0.06-0.72l-0.12-0.72l-0.18-0.66v0.06l-0.24-0.66h0.06l-0.6-1.2v0.06l-0.42-0.54l-0.48-0.54h0.062
	l-0.48-0.42l-0.54-0.42v0.06l-0.6-0.36l-0.602-0.3h0.062l-0.66-0.24l-0.72-0.18h0.06l-0.66-0.12h-1.438h0.06l-0.72,0.12l-0.72,0.18
	h0.06l-0.6,0.24l-0.66,0.3l-0.54,0.36h0.06l-0.6,0.42v-0.06l-0.48,0.42l-0.479,0.54l0.06-0.06L108,16.667l-0.36,0.6l-0.3,0.6
	l-0.24,0.66v-0.06l-0.18,0.66l-0.12,0.72l-0.062,0.72v-0.06l0.062,0.72l0.12,0.72v-0.06l0.18,0.66l0.24,0.66v-0.06l0.3,0.6l0.36,0.6
	l0.358,0.54l-0.06-0.06l0.96,0.96l-0.3,0.42l-0.062-0.06c-1.028-0.994-0.958-0.931-1.68-2.16l-0.3-0.6h-0.062l-0.238-0.66v-0.06
	c-0.486-1.517-0.453-2.813,0-4.32l0.238-0.66l0.062-0.06l0.3-0.6l0.36-0.6l0.358-0.54l0.48-0.54l0.06-0.06l0.48-0.42l0.6-0.42
	l0.54-0.36h0.062l0.658-0.3l0.602-0.24v-0.06l0.72-0.18h0.061l0.721-0.12h1.5l0.66,0.12l0.72,0.18h0.06l0.66,0.24v0.06l0.602,0.3
	c1.226,0.624,1.766,1.253,2.579,2.34h0.061l0.3,0.6c0.445,0.809,0.738,1.839,0.84,2.76l0.062,0.72"/>
<path d="M109.26,25.788l0.6,0.42h-0.06l0.54,0.36l0.66,0.3l0.6,0.24l-0.06-0.06l0.72,0.18l1.439,0.12h-0.061l0.72-0.06l0.66-0.06
	h-0.06l0.72-0.18l0.66-0.24l-0.062,0.06l0.602-0.3l0.6-0.36l0.54-0.42h-0.06l0.96-0.96v0.06l0.42-0.54l0.6-1.2l-0.06,0.06l0.24-0.66
	l0.18-0.66v0.06l0.12-0.72l0.06-0.72v0.06l0.48-0.06v0.06c-0.178,5.945-6.435,9.2-11.4,6.06l-0.6-0.42"/>
<rect x="134.88" y="126.828" fill="#F7F7F7" width="14.16" height="14.16"/>
<rect x="134.88" y="126.587" width="14.398" height="0.479"/>
<rect x="148.8" y="126.828" width="0.479" height="14.4"/>
<rect x="134.64" y="140.748" width="14.4" height="0.48"/>
<rect x="134.64" y="126.587" width="0.48" height="14.399"/>
<path fill="#B3B3B3" d="M49.86,63.047l-0.06-0.72l-0.12-0.72c-1.835-7.872-12.878-7.446-13.979,0.72l-0.061,0.72l0.061,0.72
	c1.099,8.085,12.188,8.536,13.979,0.66l0.12-0.66L49.86,63.047"/>
<path d="M49.62,63.107l-0.061-0.72l-0.12-0.72l-0.18-0.72l0.06,0.06l-0.239-0.6l-0.301-0.66l-0.359-0.54l-0.36-0.6v0.06l-0.96-0.96
	l0.061,0.06l-0.601-0.36l-0.54-0.36h0.061l-0.66-0.3l-0.601-0.24l-0.72-0.18h0.061l-0.66-0.12l-0.78-0.06h0.06l-0.72,0.06
	l-0.66,0.12l-0.72,0.18h0.061l-0.66,0.24l-0.601,0.3l-0.6,0.36l-0.54,0.36l0.06-0.06l-0.96,0.96l0.061-0.06l-0.36,0.6l-0.36,0.54
	l-0.3,0.66l-0.239,0.6v-0.06l-0.181,0.72l-0.12,0.72l-0.06,0.72v-0.06l0.06,0.72l0.12,0.66v-0.06l0.181,0.72l0.239,0.66v-0.06
	l0.3,0.6l0.36,0.6l0.36,0.54l-0.061-0.06l0.96,0.96l-0.3,0.36h-0.06l-0.96-0.96v-0.06l-0.36-0.54l-0.36-0.6l-0.3-0.6H36l-0.24-0.66
	v-0.06l-0.18-0.72l-0.12-0.66l-0.061-0.72v-0.06l0.061-0.72l0.12-0.72v-0.06l0.18-0.72h0.06l0.24-0.6
	c2.78-7.049,13.259-5.44,13.98,2.1l0.06,0.72"/>
<path d="M38.4,68.328l0.54,0.42h-0.06l1.2,0.6v-0.06l0.66,0.24H40.68l0.72,0.18l0.66,0.12l0.72,0.06h-0.06l0.78-0.06l0.66-0.12H44.1
	l0.72-0.18v0.06l0.601-0.24l0.66-0.3H46.02l0.54-0.3l0.601-0.42H47.1l0.96-0.96v0.06l0.36-0.54l0.359-0.6l0.301-0.6l-0.061,0.06
	l0.24-0.66l0.18-0.72v0.06l0.12-0.66l0.061-0.72v0.06l0.479-0.06v0.06c-0.126,2.25-0.915,4.096-2.64,5.58v0.06l-0.601,0.42H46.8
	c-1.129,0.657-1.959,0.955-3.24,1.14l-0.78,0.06h-0.06L42,70.308l-0.66-0.12H41.28l-0.72-0.18l-0.66-0.24h-0.06l-1.2-0.6v-0.06
	l-0.54-0.42"/>
<path fill="#B3B3B3" d="M177.42,105.527l-0.062-0.721l-0.12-0.72c-1.883-7.899-12.896-7.321-13.979,0.72l-0.061,0.721l0.061,0.72
	c1.12,8.095,12.08,8.646,13.979,0.72l0.12-0.72L177.42,105.527"/>
<path d="M177.18,105.587l-0.06-0.72l-0.12-0.721l-0.182-0.66v0.061l-0.238-0.66h0.06l-0.3-0.6l-0.36-0.6l-0.358-0.541v0.061
	l-0.96-0.96h0.06l-0.54-0.42v0.06l-0.6-0.359l-0.602-0.301h0.062l-0.66-0.24h0.06l-0.72-0.119l-0.66-0.12l-0.72-0.06h0.06
	l-0.778,0.06l-0.66,0.12l-0.721,0.119h0.061l-0.601,0.24l-0.659,0.301l-0.602,0.359l0.062-0.06l-0.54,0.42l-0.96,0.96l0.06-0.061
	l-0.359,0.541l-0.359,0.6l-0.3,0.6l-0.24,0.66v-0.061l-0.18,0.66l-0.12,0.721l-0.062,0.72v-0.06l0.062,0.72l0.12,0.72v-0.06
	l0.18,0.659l0.24,0.66l0.3,0.66v-0.06l0.72,1.08H165l0.479,0.54v-0.061l0.48,0.42l-0.3,0.36l-0.48-0.42h-0.06l-0.48-0.54v-0.061
	l-0.72-1.08l-0.3-0.659h-0.062l-0.24-0.66v-0.06l-0.18-0.66c-0.237-1.211-0.237-1.729,0-2.94v-0.06l0.18-0.66
	c0.261-0.842,0.827-1.736,1.32-2.46v-0.06l0.96-0.961h0.062c0.752-0.686,1.536-0.947,2.46-1.32l0.06-0.06l0.72-0.12
	c1.089-0.238,1.795-0.238,2.88,0l0.722,0.12h0.06l0.66,0.24v0.06l0.6,0.301c2.143,1.065,3.538,3.34,3.78,5.699l0.062,0.721"/>
<path d="M165.96,110.809l0.54,0.42h-0.062l0.602,0.359l0.659,0.301l0.601,0.239l-0.062-0.06l0.722,0.18l0.66,0.12h-0.062h1.5
	l0.66-0.12h-0.06l0.72-0.18l0.66-0.24l-0.062,0.061l0.602-0.301l0.6-0.359l0.54-0.42l0.479-0.42l-0.06,0.06l0.48-0.54l0.72-1.08
	v0.061l0.3-0.66h-0.06l0.238-0.66l0.182-0.66v0.06l0.12-0.72l0.06-0.721v0.061l0.48-0.061v0.061l-0.062,0.721l-0.12,0.719
	l-0.18,0.66v0.061l-0.24,0.66l-0.3,0.66l-0.72,1.08l-0.062,0.06l-0.479,0.54l-0.48,0.42l-0.54,0.42l-0.06,0.061l-0.602,0.359
	l-0.6,0.301c-2.029,0.832-4.423,0.754-6.36-0.301h-0.06l-0.602-0.359v-0.061l-0.539-0.42"/>
<rect x="163.2" y="126.828" fill="#F7F7F7" width="14.221" height="14.16"/>
<rect x="163.2" y="126.587" width="14.461" height="0.479"/>
<rect x="177.18" y="126.828" width="0.48" height="14.4"/>
<rect x="162.96" y="140.748" width="14.46" height="0.48"/>
<rect x="162.96" y="126.587" width="0.479" height="14.399"/>
<rect x="191.581" y="126.828" fill="#F7F7F7" width="14.159" height="14.16"/>
<rect x="191.581" y="126.587" width="14.398" height="0.479"/>
<rect x="205.5" y="126.828" width="0.479" height="14.4"/>
<rect x="191.34" y="140.748" width="14.398" height="0.48"/>
<rect x="191.34" y="126.587" width="0.479" height="14.399"/>
<text transform="matrix(1 0 0 1 40.8606 64.9082)" font-family="'ProductusSemibold'" font-size="7.98">X</text>
<text transform="matrix(1 0 0 1 168.5413 107.2676)" font-family="'ProductusSemibold'" font-size="7.98">B</text>
<text transform="matrix(1 0 0 1 139.9807 135.707)" font-family="'ProductusBook'" font-size="7.98" letter-spacing="24">p</text>
<text transform="matrix(1 0 0 1 168.717 135.707)" font-family="'ProductusBook'" font-size="7.98" letter-spacing="23">q</text>
<text transform="matrix(1 0 0 1 197.093 135.707)" font-family="'ProductusBook'" font-size="7.98">r</text>
<path fill="#B3B3B3" d="M177.42,63.047l-0.062-0.72l-0.12-0.72c-1.854-7.941-12.909-7.376-13.979,0.72l-0.061,0.72l0.061,0.72
	c1.09,8.06,12.196,8.562,13.979,0.66l0.12-0.66L177.42,63.047"/>
<path d="M177.18,63.107l-0.06-0.72l-0.12-0.72l-0.182-0.72l0.062,0.06l-0.24-0.6l-0.3-0.66l-0.36-0.54l-0.358-0.6v0.06l-0.96-0.96
	l0.06,0.06l-0.54-0.36l-0.6-0.36l-0.602-0.3h0.062l-0.66-0.24l-0.72-0.18h0.06l-0.66-0.12l-0.72-0.06h0.06l-0.778,0.06l-0.66,0.12
	l-0.721,0.18h0.061l-0.601,0.24l-0.659,0.3l-0.602,0.36l-0.54,0.36l0.062-0.06l-0.96,0.96l0.06-0.06l-0.359,0.6l-0.359,0.54
	l-0.3,0.66l-0.24,0.6v-0.06l-0.18,0.72l-0.12,0.72l-0.062,0.72v-0.06l0.062,0.72l0.12,0.66v-0.06l0.18,0.72l0.24,0.66v-0.06l0.3,0.6
	l0.359,0.6l0.359,0.54l-0.06-0.06l0.96,0.96l-0.3,0.36H165.6l-0.96-0.96v-0.06l-0.36-0.54l-0.358-0.6l-0.3-0.6h-0.062l-0.24-0.66
	v-0.06l-0.18-0.72l-0.12-0.66l-0.06-0.72v-0.06l0.06-0.72l0.12-0.72v-0.06l0.18-0.72h0.062l0.24-0.6
	c0.879-2.085,1.791-3.046,3.898-3.9l0.602-0.24v-0.06l0.72-0.18h0.06l0.66-0.12l0.78-0.06h0.06l0.722,0.06l0.658,0.12l0.722,0.18
	h0.06l0.66,0.24v0.06l0.6,0.3c2.199,1.023,3.52,3.339,3.78,5.7l0.062,0.72"/>
<path d="M165.96,68.328l0.54,0.42h-0.062l0.602,0.3l0.659,0.3l0.601,0.24l-0.062-0.06l0.722,0.18l0.66,0.12l0.778,0.06h-0.06
	l0.72-0.06l0.66-0.12h-0.06l0.72-0.18l0.66-0.24l-0.062,0.06l1.2-0.6l0.54-0.42h-0.06l0.96-0.96v0.06l0.358-0.54l0.36-0.6l0.3-0.6
	l-0.06,0.06l0.238-0.66l0.182-0.72v0.06l0.12-0.66l0.06-0.72v0.06l0.48-0.06v0.06l-0.062,0.72c-0.329,2.345-1.295,3.921-3.18,5.34
	l-1.2,0.6c-2.158,0.867-4.295,0.771-6.36-0.3h-0.06l-0.602-0.3v-0.06l-0.539-0.42"/>
<text transform="matrix(1 0 0 1 168.1213 64.8477)" font-family="'ProductusSemibold'" font-size="7.98">A</text>
<text transform="matrix(1 0 0 1 127.8005 20.748)" font-family="'ProductusOSGiBookc'" font-size="7.98">* -&gt; Get,Add,Replace</text>
<text transform="matrix(1 0 0 1 180.5413 62.8076)" font-family="'ProductusOSGiBookc'" font-size="7.98">S1 -&gt; Get,Replace</text>
<text transform="matrix(1 0 0 1 171.5999 97.4268)" font-family="'ProductusOSGiBookc'" font-size="7.98">* -&gt; Get</text>
<rect x="234.121" y="98.447" fill="#F7F7F7" width="14.158" height="14.16"/>
<rect x="234.121" y="98.208" width="14.398" height="0.479"/>
<rect x="248.041" y="98.447" width="0.479" height="14.4"/>
<rect x="233.88" y="112.368" width="14.398" height="0.479"/>
<rect x="233.88" y="98.208" width="0.479" height="14.399"/>
<text transform="matrix(1 0 0 1 239.8206 107.4473)" font-family="'ProductusOSGiBookc'" font-size="7.98">t</text>
</svg>
