<?xml version="1.0" encoding="utf-8"?>
<!-- Generator: Adobe Illustrator 16.0.1, SVG Export Plug-In . SVG Version: 6.00 Build 0)  -->
<!DOCTYPE svg PUBLIC "-//W3C//DTD SVG 1.1//EN" "http://www.w3.org/Graphics/SVG/1.1/DTD/svg11.dtd">
<svg version="1.1" id="Layer_1" xmlns="http://www.w3.org/2000/svg" xmlns:xlink="http://www.w3.org/1999/xlink" x="0px" y="0px"
	 width="81.277px" height="105.768px" viewBox="0 0 81.277 105.768" enable-background="new 0 0 81.277 105.768"
	 xml:space="preserve">
<rect x="7.08" y="34.667" width="0.48" height="0.24"/>
<rect x="7.08" y="13.187" width="0.48" height="21.479"/>
<rect x="7.08" y="48.587" width="0.48" height="0.24"/>
<rect x="7.08" y="48.827" width="0.48" height="14.46"/>
<rect x="7.08" y="76.967" width="0.48" height="0.24"/>
<rect x="7.08" y="77.207" width="0.48" height="14.4"/>
<text transform="matrix(1 0 0 1 19.9197 6.6472)" font-family="'ProductusBook'" font-size="7.98">.</text>
<path fill="#808080" d="M14.4,13.427v-0.72l-0.12-0.72c-1.881-7.879-12.878-7.41-13.98,0.72l-0.06,0.72l0.06,0.722
	c1.098,8.104,12.109,8.557,13.98,0.72l0.12-0.72V13.427"/>
<path d="M14.16,13.427v-0.72v0.061l-0.12-0.721l-0.18-0.659v0.061l-0.24-0.66h0.061l-0.301-0.66l-0.72-1.08v0.062l-0.479-0.54h0.061
	l-0.479-0.42v0.06l-0.601-0.42l-0.54-0.359h0.061l-0.659-0.301l-0.66-0.239L8.7,6.707h0.06l-0.72-0.12H6.6h0.06L6,6.707L5.28,6.887
	h0.06L4.68,7.127l-0.601,0.3l-0.6,0.36l0.06-0.061L3,8.147L2.52,8.567l-0.48,0.54l-0.42,0.54L1.68,9.586l-0.301,0.54l-0.3,0.66
	l-0.24,0.66v-0.062l-0.18,0.66l-0.12,0.721l-0.06,0.721v-0.062l0.06,0.722l0.12,0.72v-0.061l0.18,0.659l0.24,0.66v-0.06l0.601,1.199
	H1.62l0.42,0.54v-0.061L3,18.707l-0.3,0.36H2.64l-0.96-0.96l-0.421-0.54v-0.062l-0.6-1.199H0.6l-0.24-0.659v-0.062l-0.18-0.66
	l-0.12-0.72L0,13.487v-0.062l0.061-0.72l0.12-0.72v-0.062l0.18-0.659l0.24-0.659h0.06l0.3-0.66V9.887
	c0.669-1.354,2.104-2.593,3.48-3.181l0.06-0.06l0.66-0.24c1.31-0.398,3.019-0.461,4.32,0h0.06l0.66,0.24v0.06l0.66,0.3
	c0.959,0.604,1.46,0.859,2.16,1.801h0.06l0.36,0.54c0.617,0.815,1.1,2.327,1.199,3.359v0.72"/>
<path d="M3,18.707l0.54,0.42H3.48l0.6,0.36l0.601,0.3v-0.061l0.659,0.239H5.28L6,20.087l0.66,0.12l0.72,0.061H7.32l0.72-0.061
	l0.72-0.12l0.66-0.12H9.36l0.66-0.239v0.061l0.659-0.3h-0.061l0.54-0.36l0.6-0.42H11.7l0.96-0.96v0.061l0.36-0.54l0.358-0.601
	l0.301-0.6l-0.061,0.06l0.24-0.66l0.18-0.659v0.061l0.12-0.72v-0.722h0.479v0.722c-0.214,1.958-1.076,3.636-2.579,4.92v0.06
	l-0.602,0.42H11.4c-1.112,0.815-2.001,0.955-3.301,1.141L7.379,20.75H7.32L6.6,20.687l-0.66-0.12l-0.72-0.12H5.16l-0.66-0.24H4.44
	l-0.601-0.3l-0.6-0.36v-0.06l-0.54-0.42"/>
<rect x="0.24" y="91.367" fill="#F7F7F7" width="14.16" height="14.16"/>
<rect x="0.24" y="91.127" width="14.399" height="0.48"/>
<rect x="14.16" y="91.367" width="0.479" height="14.399"/>
<rect x="0" y="105.287" width="14.4" height="0.479"/>
<rect x="0" y="91.127" width="0.48" height="14.4"/>
<path fill="#B3B3B3" d="M14.4,70.127v-0.72l-0.12-0.721c-1.881-7.879-12.878-7.409-13.98,0.721l-0.06,0.72l0.06,0.721
	c1.053,8.078,12.206,8.548,13.98,0.659l0.12-0.659V70.127"/>
<path d="M14.16,70.127v-0.72v0.06l-0.12-0.72l-0.18-0.66v0.062l-0.24-0.66h0.061l-0.301-0.66l-0.72-1.08v0.061l-0.479-0.54h0.061
	l-0.479-0.42v0.061l-0.601-0.42l-0.54-0.36h0.061l-0.659-0.3l-0.66-0.24l-0.66-0.18h0.061l-0.721-0.12H6.6h0.06L6,63.407l-0.72,0.18
	h0.06l-0.659,0.24l-0.601,0.3l-0.6,0.36l0.06-0.062L3,64.847l-0.479,0.42l-0.48,0.54l-0.42,0.54l0.061-0.061l-0.301,0.54l-0.3,0.66
	l-0.24,0.66v-0.062l-0.18,0.66l-0.12,0.72l-0.06,0.721v-0.061l0.06,0.721l0.12,0.659v-0.06l0.18,0.72l0.24,0.66v-0.061l0.601,1.199
	H1.62l0.42,0.54v-0.06L3,75.407l-0.3,0.359H2.64l-0.96-0.96l-0.421-0.54v-0.061l-0.6-1.2H0.6l-0.24-0.659v-0.061l-0.18-0.72
	l-0.12-0.66L0,70.187v-0.061l0.061-0.72l0.12-0.721v-0.061l0.18-0.66l0.24-0.659h0.06l0.3-0.659v-0.062
	c0.669-1.354,2.104-2.592,3.48-3.18l0.06-0.062l0.66-0.238c1.31-0.398,3.019-0.462,4.32,0h0.06l0.66,0.238v0.062l0.66,0.3
	c0.959,0.603,1.46,0.859,2.16,1.8h0.06l0.36,0.54c0.617,0.816,1.1,2.329,1.199,3.36v0.72"/>
<path d="M3,75.407l0.54,0.42H3.48l0.6,0.359l0.601,0.239v-0.06l0.659,0.24H5.28L6,76.787l0.66,0.12l0.72,0.06H7.32l0.72-0.06
	l0.72-0.12H8.7l0.66-0.18l1.319-0.48l-0.061,0.061l0.54-0.359l0.6-0.42H11.7l0.96-0.96v0.06l0.36-0.54l0.358-0.6l0.301-0.601
	l-0.061,0.061l0.24-0.66l0.18-0.72v0.06l0.12-0.659v-0.721h0.479v0.721c-0.239,2.001-1.049,3.598-2.579,4.92v0.061l-0.602,0.42H11.4
	l-0.54,0.36l-1.32,0.479H9.48l-0.66,0.181L8.1,77.387L7.38,77.448H7.32c-1.187-0.047-2.34-0.356-3.42-0.84H3.84l-0.6-0.36v-0.061
	l-0.54-0.42"/>
<text transform="matrix(1 0 0 1 5.5798 71.8064)" font-family="'ProductusSemibold'" font-size="7.98">B</text>
<text transform="matrix(1 0 0 1 5.9402 99.6462)" font-family="'ProductusBook'" font-size="7.98">t</text>
<path fill="#B3B3B3" d="M14.4,41.747v-0.72l-0.12-0.721c-1.905-7.864-12.861-7.392-13.98,0.721l-0.06,0.72l0.06,0.72
	c1.103,8.131,12.1,8.601,13.98,0.721l0.12-0.721V41.747"/>
<path d="M14.16,41.747v-0.72v0.06l-0.12-0.72l-0.18-0.66v0.061l-0.24-0.659h0.061l-0.301-0.602l-0.358-0.6l-0.36-0.54v0.06
	l-0.96-0.96l0.061,0.062l-0.601-0.42l-0.54-0.36h0.061l-0.659-0.3l-0.66-0.24l-0.66-0.18h0.061l-1.439-0.12h0.06l-0.72,0.06
	L6,35.027l-0.72,0.18h0.06l-0.659,0.24l-0.601,0.3l-0.6,0.36l0.06-0.062L3,36.467l-0.96,0.96l-0.42,0.54l0.061-0.06l-0.601,1.2
	l-0.24,0.659v-0.061l-0.18,0.66l-0.12,0.72l-0.06,0.721v-0.061l0.06,0.72l0.12,0.721v-0.061l0.18,0.66l0.24,0.66l0.3,0.66v-0.062
	l0.301,0.54H1.62l0.42,0.54l0.48,0.54v-0.06L3,47.027l-0.3,0.358l-0.479-0.42H2.16l-0.479-0.54l-0.421-0.54v-0.06l-0.3-0.54
	l-0.3-0.66H0.6l-0.24-0.66v-0.06l-0.18-0.66c-0.237-1.211-0.237-1.729,0-2.939v-0.061l0.18-0.66c0.211-0.634,0.881-2.042,1.32-2.46
	v-0.06l0.96-0.96H2.7c0.602-0.535,1.675-1.133,2.46-1.381l0.72-0.181H5.94c1.388-0.162,1.491-0.139,2.88,0l0.66,0.181h0.06
	l0.66,0.239v0.062l0.66,0.3c2.248,1.246,3.458,3.163,3.779,5.7v0.72"/>
<path d="M3,47.027l0.54,0.42H3.48l0.6,0.359l0.601,0.301v-0.062l0.659,0.24H5.28L6,48.467l0.66,0.12H6.6H8.04l0.72-0.12H8.7
	l0.66-0.18l0.66-0.24v0.062l0.659-0.301h-0.061l0.54-0.359l0.6-0.42l0.48-0.42l-0.061,0.06l0.479-0.54l0.72-1.08v0.062l0.301-0.66
	h-0.061l0.24-0.66l0.18-0.66v0.061l0.12-0.721v-0.72h0.479v0.72c-0.189,1.887-1.093,3.723-2.579,4.921v0.061l-0.602,0.42H11.4
	c-0.795,0.648-2.278,1.077-3.301,1.2H6.6l-0.659-0.12H5.88l-0.72-0.181L4.5,48.527H4.44L3.84,48.226l-0.6-0.359v-0.061L2.7,47.385"
	/>
<text transform="matrix(1 0 0 1 5.1599 43.6072)" font-family="'ProductusSemibold'" font-size="7.98">A</text>
<text transform="matrix(1 0 0 1 21.5398 13.6667)" font-family="'ProductusOSGiBookc'" font-size="7.98">* -&gt; Get,Add,Replace</text>
<text transform="matrix(1 0 0 1 21.5398 42.947)" font-family="'ProductusOSGiBookc'" font-size="7.98">S1 -&gt; Get,Replace</text>
<text transform="matrix(1 0 0 1 21.5398 71.9871)" font-family="'ProductusOSGiBookc'" font-size="7.98">S1 -&gt; Get</text>
<text transform="matrix(1 0 0 1 21.5398 99.6472)" font-family="'ProductusOSGiBookc'" font-size="7.98">S1 -&gt; Get,Replace</text>
</svg>
