<?xml version="1.0" encoding="utf-8"?>
<!-- Generator: Adobe Illustrator 16.0.0, SVG Export Plug-In . SVG Version: 6.00 Build 0)  -->
<!DOCTYPE svg PUBLIC "-//W3C//DTD SVG 1.1//EN" "http://www.w3.org/Graphics/SVG/1.1/DTD/svg11.dtd">
<svg version="1.1" id="Layer_1" xmlns="http://www.w3.org/2000/svg" xmlns:xlink="http://www.w3.org/1999/xlink" x="0px" y="0px"
	 width="283.919px" height="142.2px" viewBox="0 0 283.919 142.2" style="enable-background:new 0 0 283.919 142.2;"
	 xml:space="preserve">
<rect x="172.68" y="115.44" width="54.3" height="26.52"/>
<rect x="172.68" y="115.2" width="54.54" height="0.48"/>
<rect x="226.74" y="115.44" width="0.48" height="26.76"/>
<rect x="172.44" y="141.72" width="54.54" height="0.48"/>
<rect x="172.44" y="115.2" width="0.479" height="26.76"/>
<rect x="170.28" y="113.641" style="fill:#FFFFFF;" width="54.36" height="26.579"/>
<rect x="170.28" y="113.4" width="54.6" height="0.479"/>
<rect x="224.4" y="113.641" width="0.479" height="26.819"/>
<rect x="170.04" y="139.98" width="54.601" height="0.479"/>
<rect x="170.04" y="113.4" width="0.48" height="26.819"/>
<text transform="matrix(1 0 0 1.0522 172.6802 120.7197)"><tspan x="0" y="0" style="font-family:'ProductusOSGiBookc'; font-size:7.5841;">&lt;</tspan><tspan x="2.775" y="0" style="font-family:'ProductusOSGiBookc'; font-size:7.5841;">&lt;</tspan><tspan x="5.589" y="0" style="font-family:'ProductusOSGiBookc'; font-size:7.5841;">servi</tspan><tspan x="18.072" y="0" style="font-family:'ProductusOSGiBookc'; font-size:7.5841;">c</tspan><tspan x="21.008" y="0" style="font-family:'ProductusOSGiBookc'; font-size:7.5841;">e&gt;</tspan><tspan x="27.074" y="0" style="font-family:'ProductusOSGiBookc'; font-size:7.5841;">&gt;</tspan></text>
<text transform="matrix(1 0 0 1 172.6802 129.2402)"><tspan x="0" y="0" style="font-family:'ProductusSemibold'; font-size:7.98;">Dmt</tspan><tspan x="14.858" y="0" style="font-family:'ProductusSemibold'; font-size:7.98;"> </tspan><tspan x="16.838" y="0" style="font-family:'ProductusSemibold'; font-size:7.98;">A</tspan><tspan x="21.689" y="0" style="font-family:'ProductusSemibold'; font-size:7.98;">d</tspan><tspan x="26.007" y="0" style="font-family:'ProductusSemibold'; font-size:7.98;">m</tspan><tspan x="32.422" y="0" style="font-family:'ProductusSemibold'; font-size:7.98;">i</tspan><tspan x="34.577" y="0" style="font-family:'ProductusSemibold'; font-size:7.98;">n</tspan></text>
<rect x="115.98" y="58.74" width="54.3" height="26.58"/>
<rect x="115.98" y="58.5" width="54.54" height="0.48"/>
<rect x="170.04" y="58.74" width="0.48" height="26.82"/>
<rect x="115.74" y="85.08" width="54.54" height="0.48"/>
<rect x="115.74" y="58.5" width="0.48" height="26.82"/>
<rect x="113.64" y="56.94" style="fill:#FFFFFF;" width="54.3" height="26.58"/>
<rect x="113.64" y="56.7" width="54.541" height="0.48"/>
<rect x="167.7" y="56.94" width="0.48" height="26.819"/>
<rect x="113.4" y="83.28" width="54.54" height="0.479"/>
<rect x="113.4" y="56.7" width="0.48" height="26.82"/>
<text transform="matrix(1 0 0 1.0522 115.98 64.0801)"><tspan x="0" y="0" style="font-family:'ProductusOSGiBookc'; font-size:7.5841;">P</tspan><tspan x="3.064" y="0" style="font-family:'ProductusOSGiBookc'; font-size:7.5841;">r</tspan><tspan x="4.99" y="0" style="font-family:'ProductusOSGiBookc'; font-size:7.5841;">ot</tspan><tspan x="10.822" y="0" style="font-family:'ProductusOSGiBookc'; font-size:7.5841;">o</tspan><tspan x="14.364" y="0" style="font-family:'ProductusOSGiBookc'; font-size:7.5841;">co</tspan><tspan x="20.894" y="0" style="font-family:'ProductusOSGiBookc'; font-size:7.5841;">l </tspan><tspan x="23.836" y="0" style="font-family:'ProductusOSGiBookc'; font-size:7.5841;">A</tspan><tspan x="27.56" y="0" style="font-family:'ProductusOSGiBookc'; font-size:7.5841;">d</tspan><tspan x="31.041" y="0" style="font-family:'ProductusOSGiBookc'; font-size:7.5841;">ap</tspan><tspan x="37.685" y="0" style="font-family:'ProductusOSGiBookc'; font-size:7.5841;">t</tspan><tspan x="39.846" y="0" style="font-family:'ProductusOSGiBookc'; font-size:7.5841;">e</tspan><tspan x="43.146" y="0" style="font-family:'ProductusOSGiBookc'; font-size:7.5841;">r</tspan><tspan x="45.276" y="0" style="font-family:'ProductusOSGiBookc'; font-size:7.5841;"> </tspan></text>
<text transform="matrix(1 0 0 1.0522 115.98 72.54)"><tspan x="0" y="0" style="font-family:'ProductusOSGiBookc'; font-size:7.5841;">I</tspan><tspan x="1.456" y="0" style="font-family:'ProductusOSGiBookc'; font-size:7.5841;">m</tspan><tspan x="6.909" y="0" style="font-family:'ProductusOSGiBookc'; font-size:7.5841;">p</tspan><tspan x="10.375" y="0" style="font-family:'ProductusOSGiBookc'; font-size:7.5841;">l</tspan></text>
<text transform="matrix(1 0 0 1 56.9399 94.5)"><tspan x="0" y="0" style="font-family:'ProductusOSGiBookc'; font-size:7.98;">r</tspan><tspan x="2.043" y="0" style="font-family:'ProductusOSGiBookc'; font-size:7.98;">e</tspan><tspan x="5.522" y="0" style="font-family:'ProductusOSGiBookc'; font-size:7.98;">m</tspan><tspan x="11.228" y="0" style="font-family:'ProductusOSGiBookc'; font-size:7.98;">ote</tspan><tspan x="20.835" y="0" style="font-family:'ProductusOSGiBookc'; font-size:7.98;"> </tspan><tspan x="22.399" y="0" style="font-family:'ProductusOSGiBookc'; font-size:7.98;">man</tspan><tspan x="35.096" y="0" style="font-family:'ProductusOSGiBookc'; font-size:7.98;">a</tspan><tspan x="38.335" y="0" style="font-family:'ProductusOSGiBookc'; font-size:7.98;">g</tspan><tspan x="41.871" y="0" style="font-family:'ProductusOSGiBookc'; font-size:7.98;">e</tspan><tspan x="45.294" y="0" style="font-family:'ProductusOSGiBookc'; font-size:7.98;">men</tspan><tspan x="58.181" y="0" style="font-family:'ProductusOSGiBookc'; font-size:7.98;">t</tspan></text>
<polyline style="fill-rule:evenodd;clip-rule:evenodd;" points="226.98,127.8 212.82,141.96 226.98,141.96 "/>
<polyline points="227.16,127.98 213,142.141 212.82,142.2 212.22,142.2 226.8,127.62 "/>
<rect x="212.82" y="141.72" width="14.4" height="0.48"/>
<polyline points="226.74,141.96 226.74,127.8 226.8,127.62 227.22,127.2 227.22,141.96 "/>
<rect x="172.68" y="2.04" width="54.3" height="26.58"/>
<rect x="172.68" y="1.8" width="54.54" height="0.48"/>
<rect x="226.74" y="2.04" width="0.48" height="26.82"/>
<rect x="172.44" y="28.38" width="54.54" height="0.48"/>
<rect x="172.44" y="1.8" width="0.479" height="26.82"/>
<rect x="170.28" y="0.24" style="fill:#FFFFFF;" width="54.36" height="26.58"/>
<rect x="170.28" width="54.6" height="0.48"/>
<rect x="224.4" y="0.24" width="0.479" height="26.82"/>
<rect x="170.04" y="26.58" width="54.601" height="0.48"/>
<rect x="170.04" width="0.48" height="26.82"/>
<text transform="matrix(1 0 0 1.0522 172.6802 7.3799)"><tspan x="0" y="0" style="font-family:'ProductusOSGiBookc'; font-size:7.5841;">&lt;</tspan><tspan x="2.775" y="0" style="font-family:'ProductusOSGiBookc'; font-size:7.5841;">&lt;</tspan><tspan x="5.589" y="0" style="font-family:'ProductusOSGiBookc'; font-size:7.5841;">inte</tspan><tspan x="15.994" y="0" style="font-family:'ProductusOSGiBookc'; font-size:7.5841;">r</tspan><tspan x="18.148" y="0" style="font-family:'ProductusOSGiBookc'; font-size:7.5841;">f</tspan><tspan x="20.014" y="0" style="font-family:'ProductusOSGiBookc'; font-size:7.5841;">a</tspan><tspan x="23.123" y="0" style="font-family:'ProductusOSGiBookc'; font-size:7.5841;">c</tspan><tspan x="26.059" y="0" style="font-family:'ProductusOSGiBookc'; font-size:7.5841;">e&gt;</tspan><tspan x="32.126" y="0" style="font-family:'ProductusOSGiBookc'; font-size:7.5841;">&gt;</tspan></text>
<text transform="matrix(1 0 0 1 172.6802 15.8398)"><tspan x="0" y="0" style="font-family:'ProductusSemibold'; font-size:7.98;">Dmt</tspan><tspan x="14.858" y="0" style="font-family:'ProductusSemibold'; font-size:7.98;"> </tspan><tspan x="16.838" y="0" style="font-family:'ProductusSemibold'; font-size:7.98;">Sessio</tspan><tspan x="38.398" y="0" style="font-family:'ProductusSemibold'; font-size:7.98;">n</tspan></text>
<rect x="198.419" y="28.38" width="0.48" height="0.24"/>
<rect x="198.419" y="28.62" width="0.48" height="1.98"/>
<rect x="198.419" y="34.561" width="0.48" height="0.239"/>
<rect x="198.419" y="34.8" width="0.48" height="3.66"/>
<rect x="198.419" y="42.42" width="0.48" height="0.24"/>
<rect x="198.419" y="42.66" width="0.48" height="3.66"/>
<rect x="198.419" y="50.28" width="0.48" height="0.24"/>
<rect x="198.419" y="50.521" width="0.48" height="3.66"/>
<rect x="198.419" y="58.141" width="0.48" height="0.239"/>
<rect x="198.419" y="58.38" width="0.48" height="3.66"/>
<rect x="198.419" y="66" width="0.48" height="0.24"/>
<rect x="198.419" y="66.24" width="0.48" height="3.66"/>
<rect x="198.419" y="73.86" width="0.48" height="0.24"/>
<rect x="198.419" y="74.101" width="0.48" height="3.72"/>
<rect x="198.419" y="81.72" width="0.48" height="0.24"/>
<rect x="198.419" y="81.96" width="0.48" height="3.721"/>
<rect x="198.419" y="89.58" width="0.48" height="0.24"/>
<rect x="198.419" y="89.82" width="0.48" height="3.72"/>
<rect x="198.419" y="97.5" width="0.48" height="0.24"/>
<rect x="198.419" y="97.74" width="0.48" height="1.979"/>
<rect x="229.379" y="58.74" width="54.301" height="26.58"/>
<rect x="229.379" y="58.5" width="54.54" height="0.48"/>
<rect x="283.44" y="58.74" width="0.479" height="26.82"/>
<rect x="229.14" y="85.08" width="54.54" height="0.48"/>
<rect x="229.14" y="58.5" width="0.479" height="26.82"/>
<rect x="226.98" y="56.94" style="fill:#FFFFFF;" width="54.359" height="26.58"/>
<rect x="226.98" y="56.7" width="54.6" height="0.48"/>
<rect x="281.1" y="56.94" width="0.479" height="26.819"/>
<rect x="226.74" y="83.28" width="54.6" height="0.479"/>
<rect x="226.74" y="56.7" width="0.48" height="26.82"/>
<text transform="matrix(1 0 0 1.0522 229.3794 64.0801)"><tspan x="0" y="0" style="font-family:'ProductusOSGiBookc'; font-size:7.5841;">Local</tspan><tspan x="13.932" y="0" style="font-family:'ProductusOSGiBookc'; font-size:7.5841;"> </tspan><tspan x="15.486" y="0" style="font-family:'ProductusOSGiBookc'; font-size:7.5841;">Manager </tspan></text>
<text transform="matrix(1 0 0 1.0522 229.3794 72.54)"><tspan x="0" y="0" style="font-family:'ProductusOSGiBookc'; font-size:7.5841;">I</tspan><tspan x="1.456" y="0" style="font-family:'ProductusOSGiBookc'; font-size:7.5841;">m</tspan><tspan x="6.909" y="0" style="font-family:'ProductusOSGiBookc'; font-size:7.5841;">p</tspan><tspan x="10.375" y="0" style="font-family:'ProductusOSGiBookc'; font-size:7.5841;">l</tspan></text>
<rect x="141.72" y="85.08" width="0.479" height="14.64"/>
<rect x="141.959" y="99.24" width="56.94" height="0.479"/>
<rect x="198.419" y="99.48" width="0.48" height="14.399"/>
<rect x="255.12" y="85.08" width="0.48" height="14.64"/>
<rect x="198.419" y="99.24" width="56.94" height="0.479"/>
<rect x="2.58" y="58.74" width="54.36" height="26.58"/>
<rect x="2.58" y="58.5" width="54.6" height="0.48"/>
<rect x="56.7" y="58.74" width="0.48" height="26.82"/>
<rect x="2.34" y="85.08" width="54.6" height="0.48"/>
<rect x="2.34" y="58.5" width="0.48" height="26.82"/>
<rect x="0.24" y="56.94" style="fill:#FFFFFF;" width="54.3" height="26.58"/>
<rect x="0.24" y="56.7" width="54.54" height="0.48"/>
<rect x="54.3" y="56.94" width="0.48" height="26.819"/>
<rect y="83.28" width="54.54" height="0.479"/>
<rect y="56.7" width="0.48" height="26.82"/>
<text transform="matrix(1 0 0 1.0522 2.5796 64.0801)"><tspan x="0" y="0" style="font-family:'ProductusOSGiBookc'; font-size:7.5841;">R</tspan><tspan x="3.314" y="0" style="font-family:'ProductusOSGiBookc'; font-size:7.5841;">e</tspan><tspan x="6.613" y="0" style="font-family:'ProductusOSGiBookc'; font-size:7.5841;">m</tspan><tspan x="12.066" y="0" style="font-family:'ProductusOSGiBookc'; font-size:7.5841;">o</tspan><tspan x="15.608" y="0" style="font-family:'ProductusOSGiBookc'; font-size:7.5841;">te</tspan><tspan x="21.122" y="0" style="font-family:'ProductusOSGiBookc'; font-size:7.5841;"> </tspan><tspan x="22.623" y="0" style="font-family:'ProductusOSGiBookc'; font-size:7.5841;">S</tspan><tspan x="26.157" y="0" style="font-family:'ProductusOSGiBookc'; font-size:7.5841;">e</tspan><tspan x="29.456" y="0" style="font-family:'ProductusOSGiBookc'; font-size:7.5841;">r</tspan><tspan x="31.557" y="0" style="font-family:'ProductusOSGiBookc'; font-size:7.5841;">v</tspan><tspan x="34.378" y="0" style="font-family:'ProductusOSGiBookc'; font-size:7.5841;">er</tspan></text>
<rect x="56.7" y="70.86" width="0.24" height="0.479"/>
<rect x="56.94" y="70.86" width="14.4" height="0.479"/>
<rect x="70.86" y="70.86" width="0.24" height="0.479"/>
<rect x="71.1" y="70.86" width="1.98" height="0.479"/>
<rect x="76.5" y="70.86" width="0.24" height="0.479"/>
<rect x="76.74" y="70.86" width="3.3" height="0.479"/>
<rect x="83.4" y="70.86" width="0.24" height="0.479"/>
<rect x="83.64" y="70.86" width="3.3" height="0.479"/>
<rect x="90.36" y="70.86" width="0.24" height="0.479"/>
<rect x="90.6" y="70.86" width="1.98" height="0.479"/>
<text transform="matrix(1 0 0 1 56.9399 104.2197)"><tspan x="0" y="0" style="font-family:'ProductusOSGiBookc'; font-size:7.98;">p</tspan><tspan x="3.671" y="0" style="font-family:'ProductusOSGiBookc'; font-size:7.98;">r</tspan><tspan x="5.714" y="0" style="font-family:'ProductusOSGiBookc'; font-size:7.98;">o</tspan><tspan x="9.48" y="0" style="font-family:'ProductusOSGiBookc'; font-size:7.98;">t</tspan><tspan x="11.762" y="0" style="font-family:'ProductusOSGiBookc'; font-size:7.98;">oco</tspan><tspan x="22.368" y="0" style="font-family:'ProductusOSGiBookc'; font-size:7.98;">l</tspan></text>
<rect x="99.18" y="70.86" width="0.24" height="0.479"/>
<rect x="99.42" y="70.86" width="14.46" height="0.479"/>
<rect x="170.28" y="14.16" width="0.24" height="0.48"/>
<rect x="168.3" y="14.16" width="1.979" height="0.48"/>
<rect x="164.64" y="14.16" width="0.239" height="0.48"/>
<rect x="161.339" y="14.16" width="3.301" height="0.48"/>
<rect x="157.68" y="14.16" width="0.239" height="0.48"/>
<rect x="154.379" y="14.16" width="3.301" height="0.48"/>
<rect x="150.66" y="14.16" width="0.24" height="0.48"/>
<rect x="147.419" y="14.16" width="3.24" height="0.48"/>
<rect x="141.72" y="14.16" width="2.22" height="0.48"/>
<rect x="141.72" y="14.4" width="0.479" height="2.04"/>
<rect x="141.72" y="20.76" width="0.479" height="0.24"/>
<rect x="141.72" y="21" width="0.479" height="3.96"/>
<rect x="141.72" y="29.28" width="0.479" height="0.24"/>
<rect x="141.72" y="29.521" width="0.479" height="4.02"/>
<rect x="141.72" y="37.86" width="0.479" height="0.24"/>
<rect x="141.72" y="38.101" width="0.479" height="3.96"/>
<rect x="141.72" y="46.38" width="0.479" height="0.24"/>
<rect x="141.72" y="46.62" width="0.479" height="4.021"/>
<rect x="141.72" y="54.96" width="0.479" height="0.24"/>
<rect x="141.72" y="55.2" width="0.479" height="1.98"/>
<text transform="matrix(1 0 0 1 115.8599 35.9404)"><tspan x="0" y="0" style="font-family:'ProductusOSGiBookc'; font-size:7.98;">princi</tspan><tspan x="15.656" y="0" style="font-family:'ProductusOSGiBookc'; font-size:7.98;">p</tspan><tspan x="19.375" y="0" style="font-family:'ProductusOSGiBookc'; font-size:7.98;">a</tspan><tspan x="22.615" y="0" style="font-family:'ProductusOSGiBookc'; font-size:7.98;">l</tspan></text>
<rect x="83.76" y="55.44" width="3" height="1.5"/>
<rect x="83.76" y="56.94" width="3" height="4.02"/>
<rect x="83.76" y="67.08" width="3" height="1.5"/>
<rect x="83.76" y="68.58" width="3" height="6.601"/>
<rect x="83.76" y="81.3" width="3" height="1.5"/>
<rect x="83.76" y="82.8" width="3" height="4.021"/>
</svg>
