<?xml version="1.0" encoding="utf-8"?>
<!-- Generator: Adobe Illustrator 16.0.1, SVG Export Plug-In . SVG Version: 6.00 Build 0)  -->
<!DOCTYPE svg PUBLIC "-//W3C//DTD SVG 1.1//EN" "http://www.w3.org/Graphics/SVG/1.1/DTD/svg11.dtd">
<svg version="1.1" id="Layer_1" xmlns="http://www.w3.org/2000/svg" xmlns:xlink="http://www.w3.org/1999/xlink" x="0px" y="0px"
	 width="326.46px" height="142.68px" viewBox="0 0 326.46 142.68" enable-background="new 0 0 326.46 142.68" xml:space="preserve">
<rect x="73.44" y="62.1" width="54.36" height="26.58"/>
<rect x="73.44" y="61.86" width="54.6" height="0.48"/>
<rect x="127.56" y="62.1" width="0.48" height="26.82"/>
<rect x="73.2" y="88.44" width="54.6" height="0.48"/>
<rect x="73.2" y="61.86" width="0.48" height="26.82"/>
<rect x="71.1" y="60.36" fill="#FFFFFF" width="54.36" height="26.58"/>
<rect x="71.1" y="60.12" width="54.6" height="0.479"/>
<rect x="125.22" y="60.36" width="0.48" height="26.82"/>
<rect x="70.86" y="86.7" width="54.6" height="0.479"/>
<rect x="70.86" y="60.12" width="0.48" height="26.819"/>
<text transform="matrix(0.9504 0 0 1 73.4399 67.4397)" font-family="'ProductusOSGiBookc'" font-size="7.98">&lt;&lt;service&gt;&gt;</text>
<text transform="matrix(1 0 0 1 73.4399 75.9602)" font-family="'ProductusSemibold'" font-size="7.98">Dmt Admin</text>
<rect x="172.68" y="33.781" width="54.36" height="26.579"/>
<rect x="172.68" y="33.541" width="54.601" height="0.479"/>
<rect x="226.8" y="33.781" width="0.479" height="26.819"/>
<rect x="172.439" y="60.12" width="54.602" height="0.479"/>
<rect x="172.439" y="33.541" width="0.48" height="26.818"/>
<rect x="170.339" y="31.98" fill="#FFFFFF" width="54.301" height="26.58"/>
<rect x="170.339" y="31.74" width="54.541" height="0.479"/>
<rect x="224.399" y="31.98" width="0.479" height="26.82"/>
<rect x="170.1" y="58.32" width="54.54" height="0.48"/>
<rect x="170.1" y="31.74" width="0.479" height="26.819"/>
<text transform="matrix(0.9504 0 0 1 172.6792 39.1194)" font-family="'ProductusOSGiBookc'" font-size="7.98">&lt;&lt;service&gt;&gt;</text>
<text transform="matrix(1 0 0 1 172.6792 47.5813)" font-family="'ProductusSemibold'" font-size="7.98">Data Plugin</text>
<rect x="172.68" y="90.48" width="54.36" height="26.58"/>
<rect x="172.68" y="90.24" width="54.601" height="0.479"/>
<rect x="226.8" y="90.48" width="0.479" height="26.82"/>
<rect x="172.439" y="116.82" width="54.602" height="0.48"/>
<rect x="172.439" y="90.24" width="0.48" height="26.819"/>
<rect x="170.339" y="88.68" fill="#FFFFFF" width="54.301" height="26.58"/>
<rect x="170.339" y="88.44" width="54.541" height="0.48"/>
<rect x="224.399" y="88.68" width="0.479" height="26.82"/>
<rect x="170.1" y="115.02" width="54.54" height="0.48"/>
<rect x="170.1" y="88.44" width="0.479" height="26.82"/>
<text transform="matrix(0.9504 0 0 1 172.6792 95.8206)" font-family="'ProductusOSGiBookc'" font-size="7.98">&lt;&lt;service&gt;&gt;</text>
<text transform="matrix(1 0 0 1 172.6792 104.2795)" font-family="'ProductusSemibold'" font-size="7.98">Exec Plugin</text>
<rect x="73.44" y="5.4" width="54.36" height="26.58"/>
<rect x="73.44" y="5.16" width="54.6" height="0.479"/>
<rect x="127.56" y="5.4" width="0.48" height="26.82"/>
<rect x="73.2" y="31.74" width="54.6" height="0.479"/>
<rect x="73.2" y="5.16" width="0.48" height="26.819"/>
<rect x="71.1" y="3.66" fill="#FFFFFF" width="54.36" height="26.58"/>
<rect x="71.1" y="3.42" width="54.6" height="0.479"/>
<rect x="125.22" y="3.66" width="0.48" height="26.819"/>
<rect x="70.86" y="30" width="54.6" height="0.479"/>
<rect x="70.86" y="3.42" width="0.48" height="26.82"/>
<text transform="matrix(0.9504 0 0 1 73.4399 10.7405)" font-family="'ProductusOSGiBookc'" font-size="7.98">Client</text>
<rect x="99.24" y="60.36" width="0.48" height="0.24"/>
<rect x="99.24" y="31.74" width="0.48" height="28.619"/>
<rect x="271.919" y="33.781" width="54.301" height="26.579"/>
<rect x="271.919" y="33.541" width="54.541" height="0.479"/>
<rect x="325.978" y="33.781" width="0.48" height="26.819"/>
<rect x="271.68" y="60.12" width="54.54" height="0.479"/>
<rect x="271.68" y="33.541" width="0.479" height="26.818"/>
<rect x="269.52" y="31.98" fill="#FFFFFF" width="54.36" height="26.58"/>
<rect x="269.52" y="31.74" width="54.601" height="0.479"/>
<rect x="323.64" y="31.98" width="0.48" height="26.82"/>
<rect x="269.28" y="58.32" width="54.601" height="0.48"/>
<rect x="269.28" y="31.74" width="0.479" height="26.819"/>
<text transform="matrix(0.9504 0 0 1 271.9194 39.1194)" font-family="'ProductusOSGiBookc'" font-size="7.98">Data Plugin Impl</text>
<rect x="271.919" y="90.48" width="54.301" height="26.58"/>
<rect x="271.919" y="90.24" width="54.541" height="0.479"/>
<rect x="325.978" y="90.48" width="0.48" height="26.82"/>
<rect x="271.68" y="116.82" width="54.54" height="0.48"/>
<rect x="271.68" y="90.24" width="0.479" height="26.819"/>
<rect x="269.52" y="88.68" fill="#FFFFFF" width="54.36" height="26.58"/>
<rect x="269.52" y="88.44" width="54.601" height="0.48"/>
<rect x="323.64" y="88.68" width="0.48" height="26.82"/>
<rect x="269.28" y="115.02" width="54.601" height="0.48"/>
<rect x="269.28" y="88.44" width="0.479" height="26.82"/>
<text transform="matrix(0.9504 0 0 1 271.9194 95.8206)" font-family="'ProductusOSGiBookc'" font-size="7.98">Exec Plugin Impl</text>
<polyline points="233.939,46.2 233.939,50.16 233.22,49.74 227.759,46.62 226.979,46.14 227.701,45.72 233.16,42.541 233.939,42.06 
	233.939,43.02 233.701,43.44 228.24,46.62 227.701,45.72 228.24,45.72 233.701,48.84 233.22,49.74 232.919,49.32 232.919,46.2 "/>
<rect x="232.919" y="43.02" width="1.021" height="3.181"/>
<polyline points="233.46,46.2 233.46,49.32 228,46.2 233.46,43.02 "/>
<rect x="269.52" y="45.96" width="0.239" height="0.479"/>
<rect x="233.701" y="45.96" width="35.818" height="0.479"/>
<polyline points="233.939,102.84 233.939,106.92 233.16,106.44 227.701,103.26 226.919,102.84 233.22,99.24 233.939,98.82 
	233.939,99.72 233.701,100.14 228.24,103.26 227.759,102.36 228.24,102.36 233.701,105.541 233.16,106.44 232.919,106.02 
	232.919,102.84 "/>
<rect x="232.919" y="99.72" width="1.021" height="3.12"/>
<polyline points="233.46,102.84 233.46,106.02 228,102.84 233.46,99.72 "/>
<rect x="269.52" y="102.6" width="0.239" height="0.48"/>
<rect x="233.701" y="102.6" width="35.818" height="0.48"/>
<rect x="127.56" y="74.281" width="0.24" height="0.479"/>
<rect x="127.8" y="74.281" width="28.56" height="0.479"/>
<polyline points="156.359,74.4 156.24,74.22 155.819,74.46 155.939,74.64 "/>
<polyline points="170.58,95.64 170.701,95.82 170.28,96.06 170.16,95.88 "/>
<polyline points="156.359,74.4 155.939,74.64 170.16,95.88 170.58,95.64 "/>
<text transform="matrix(1 0 0 1 131.3999 72.1799)" font-family="'ProductusOSGiBookc'" font-size="7.98">forward</text>
<text transform="matrix(1 0 0 1 101.5801 46.4397)" font-family="'ProductusOSGiBookc'" font-size="7.98">request</text>
<polyline points="227.041,46.2 212.819,60.36 227.041,60.36 "/>
<polyline points="227.22,46.38 213,60.541 212.819,60.6 212.22,60.6 212.64,60.18 226.859,46.02 "/>
<rect x="212.819" y="60.12" width="14.461" height="0.479"/>
<polyline points="226.8,60.36 226.8,46.2 226.859,46.02 227.28,45.6 227.28,60.36 "/>
<polyline points="227.041,102.84 212.819,117.06 227.041,117.06 "/>
<polyline points="227.22,103.02 213,117.24 212.819,117.3 212.22,117.3 226.859,102.66 "/>
<rect x="212.819" y="116.82" width="14.461" height="0.48"/>
<polyline points="226.8,117.06 226.8,102.84 226.859,102.66 227.28,102.24 227.28,117.06 "/>
<polyline points="127.8,74.52 113.64,88.68 127.8,88.68 "/>
<polyline points="127.98,74.7 113.82,88.86 113.64,88.92 113.04,88.92 127.62,74.34 "/>
<rect x="113.64" y="88.44" width="14.4" height="0.48"/>
<polyline points="127.56,88.68 127.56,74.52 127.62,74.34 128.04,73.92 128.04,88.68 "/>
<rect x="2.58" y="33.781" width="54.36" height="26.579"/>
<rect x="2.58" y="33.541" width="54.6" height="0.479"/>
<rect x="56.7" y="33.781" width="0.48" height="26.819"/>
<rect x="2.34" y="60.12" width="54.6" height="0.479"/>
<rect x="2.34" y="33.541" width="0.48" height="26.818"/>
<rect x="0.24" y="31.98" fill="#FFFFFF" width="54.3" height="26.58"/>
<rect x="0.24" y="31.74" width="54.54" height="0.479"/>
<rect x="54.3" y="31.98" width="0.48" height="26.82"/>
<rect y="58.32" width="54.54" height="0.48"/>
<rect y="31.74" width="0.48" height="26.819"/>
<text transform="matrix(0.9504 0 0 1 2.5796 39.1194)" font-family="'ProductusOSGiBookc'" font-size="7.98">&lt;&lt;service&gt;&gt;</text>
<text transform="matrix(1 0 0 1 2.5796 47.5813)" font-family="'ProductusSemibold'" font-size="7.98">Dmt Session</text>
<rect x="56.7" y="45.96" width="0.24" height="0.479"/>
<rect x="56.94" y="45.96" width="1.98" height="0.479"/>
<rect x="63.24" y="45.96" width="0.24" height="0.479"/>
<rect x="63.48" y="45.96" width="4.02" height="0.479"/>
<rect x="71.82" y="45.96" width="0.24" height="0.479"/>
<rect x="72.06" y="45.96" width="3.96" height="0.479"/>
<rect x="80.34" y="45.96" width="0.24" height="0.479"/>
<rect x="80.58" y="45.96" width="4.02" height="0.479"/>
<rect x="88.92" y="45.96" width="0.24" height="0.479"/>
<rect x="89.16" y="45.96" width="3.96" height="0.479"/>
<rect x="97.44" y="45.96" width="0.24" height="0.479"/>
<rect x="97.68" y="45.96" width="2.04" height="0.479"/>
<rect x="147.54" y="0" width="3" height="1.5"/>
<rect x="147.54" y="1.5" width="3" height="1.979"/>
<rect x="147.54" y="7.5" width="3" height="1.5"/>
<rect x="147.54" y="9" width="3" height="2.46"/>
<rect x="147.54" y="15.48" width="3" height="1.5"/>
<rect x="147.54" y="16.98" width="3" height="2.46"/>
<rect x="147.54" y="23.4" width="3" height="1.5"/>
<rect x="147.54" y="24.9" width="3" height="2.521"/>
<rect x="147.54" y="31.38" width="3" height="1.5"/>
<rect x="147.54" y="32.88" width="3" height="2.52"/>
<rect x="147.54" y="39.36" width="3" height="1.5"/>
<rect x="147.54" y="40.86" width="3" height="2.521"/>
<rect x="147.54" y="47.34" width="3" height="1.5"/>
<rect x="147.54" y="48.84" width="3" height="2.52"/>
<rect x="147.54" y="55.32" width="3" height="1.5"/>
<rect x="147.54" y="56.82" width="3" height="2.521"/>
<rect x="147.54" y="63.3" width="3" height="1.5"/>
<rect x="147.54" y="64.8" width="3" height="1.979"/>
<rect x="147.54" y="75.9" width="3" height="1.5"/>
<rect x="147.54" y="77.4" width="3" height="1.98"/>
<rect x="147.54" y="83.34" width="3" height="1.5"/>
<rect x="147.54" y="84.84" width="3" height="2.52"/>
<rect x="147.54" y="91.32" width="3" height="1.5"/>
<rect x="147.54" y="92.82" width="3" height="2.521"/>
<rect x="147.54" y="99.3" width="3" height="1.5"/>
<rect x="147.54" y="100.8" width="3" height="2.52"/>
<rect x="147.54" y="107.281" width="3" height="1.5"/>
<rect x="147.54" y="108.781" width="3" height="2.46"/>
<rect x="147.54" y="115.26" width="3" height="1.5"/>
<rect x="147.54" y="116.76" width="3" height="2.46"/>
<rect x="147.54" y="123.24" width="3" height="1.5"/>
<rect x="147.54" y="124.74" width="3" height="2.46"/>
<rect x="147.54" y="131.16" width="3" height="1.5"/>
<rect x="147.54" y="132.66" width="3" height="2.521"/>
<rect x="147.54" y="139.14" width="3" height="1.5"/>
<rect x="147.54" y="140.64" width="3" height="2.04"/>
<polyline points="155.939,74.4 155.819,74.581 156.24,74.82 156.359,74.64 "/>
<polyline points="170.16,46.081 170.28,45.9 170.701,46.14 170.58,46.32 "/>
<polyline points="155.939,74.4 156.359,74.64 170.58,46.32 170.16,46.081 "/>
</svg>
