<?xml version="1.0" encoding="utf-8"?>
<!-- Generator: Adobe Illustrator 16.0.0, SVG Export Plug-In . SVG Version: 6.00 Build 0)  -->
<!DOCTYPE svg PUBLIC "-//W3C//DTD SVG 1.1//EN" "http://www.w3.org/Graphics/SVG/1.1/DTD/svg11.dtd">
<svg version="1.1" id="Layer_1" xmlns="http://www.w3.org/2000/svg" xmlns:xlink="http://www.w3.org/1999/xlink" x="0px" y="0px"
	 width="326.46px" height="142.68px" viewBox="0 0 326.46 142.68" style="enable-background:new 0 0 326.46 142.68;"
	 xml:space="preserve">
<rect x="73.44" y="62.1" width="54.36" height="26.58"/>
<rect x="73.44" y="61.86" width="54.6" height="0.48"/>
<rect x="127.56" y="62.1" width="0.48" height="26.82"/>
<rect x="73.2" y="88.44" width="54.6" height="0.48"/>
<rect x="73.2" y="61.86" width="0.48" height="26.82"/>
<rect x="71.1" y="60.36" style="fill:#FFFFFF;" width="54.36" height="26.58"/>
<rect x="71.1" y="60.12" width="54.6" height="0.48"/>
<rect x="125.22" y="60.36" width="0.48" height="26.82"/>
<rect x="70.86" y="86.7" width="54.6" height="0.48"/>
<rect x="70.86" y="60.12" width="0.48" height="26.82"/>
<text transform="matrix(1 0 0 1.0522 73.4399 67.4399)"><tspan x="0" y="0" style="font-family:'ProductusOSGiBookc'; font-size:7.5841;">&lt;&lt;</tspan><tspan x="5.551" y="0" style="font-family:'ProductusOSGiBookc'; font-size:7.5841;">s</tspan><tspan x="8.251" y="0" style="font-family:'ProductusOSGiBookc'; font-size:7.5841;">e</tspan><tspan x="11.535" y="0" style="font-family:'ProductusOSGiBookc'; font-size:7.5841;">rvi</tspan><tspan x="18.072" y="0" style="font-family:'ProductusOSGiBookc'; font-size:7.5841;">c</tspan><tspan x="21.007" y="0" style="font-family:'ProductusOSGiBookc'; font-size:7.5841;">e</tspan><tspan x="24.307" y="0" style="font-family:'ProductusOSGiBookc'; font-size:7.5841;">&gt;</tspan><tspan x="27.082" y="0" style="font-family:'ProductusOSGiBookc'; font-size:7.5841;">&gt;</tspan></text>
<text transform="matrix(1 0 0 1 73.4399 75.9604)"><tspan x="0" y="0" style="font-family:'ProductusSemibold'; font-size:7.98;">Dmt</tspan><tspan x="14.858" y="0" style="font-family:'ProductusSemibold'; font-size:7.98;"> </tspan><tspan x="16.837" y="0" style="font-family:'ProductusSemibold'; font-size:7.98;">A</tspan><tspan x="21.689" y="0" style="font-family:'ProductusSemibold'; font-size:7.98;">d</tspan><tspan x="26.006" y="0" style="font-family:'ProductusSemibold'; font-size:7.98;">m</tspan><tspan x="32.422" y="0" style="font-family:'ProductusSemibold'; font-size:7.98;">i</tspan><tspan x="34.577" y="0" style="font-family:'ProductusSemibold'; font-size:7.98;">n</tspan></text>
<rect x="172.68" y="33.78" width="54.36" height="26.58"/>
<rect x="172.68" y="33.541" width="54.601" height="0.479"/>
<rect x="226.8" y="33.78" width="0.48" height="26.82"/>
<rect x="172.439" y="60.12" width="54.601" height="0.48"/>
<rect x="172.439" y="33.541" width="0.48" height="26.819"/>
<rect x="170.34" y="31.98" style="fill:#FFFFFF;" width="54.3" height="26.58"/>
<rect x="170.34" y="31.74" width="54.54" height="0.48"/>
<rect x="224.399" y="31.98" width="0.48" height="26.82"/>
<rect x="170.1" y="58.32" width="54.54" height="0.48"/>
<rect x="170.1" y="31.74" width="0.48" height="26.82"/>
<text transform="matrix(1 0 0 1.0522 172.6797 39.1196)"><tspan x="0" y="0" style="font-family:'ProductusOSGiBookc'; font-size:7.5841;">&lt;</tspan><tspan x="2.806" y="0" style="font-family:'ProductusOSGiBookc'; font-size:7.5841;">&lt;</tspan><tspan x="5.566" y="0" style="font-family:'ProductusOSGiBookc'; font-size:7.5841;">s</tspan><tspan x="8.214" y="0" style="font-family:'ProductusOSGiBookc'; font-size:7.5841;">e</tspan><tspan x="11.513" y="0" style="font-family:'ProductusOSGiBookc'; font-size:7.5841;">rv</tspan><tspan x="16.662" y="0" style="font-family:'ProductusOSGiBookc'; font-size:7.5841;">i</tspan><tspan x="18.103" y="0" style="font-family:'ProductusOSGiBookc'; font-size:7.5841;">c</tspan><tspan x="20.984" y="0" style="font-family:'ProductusOSGiBookc'; font-size:7.5841;">e&gt;</tspan><tspan x="27.112" y="0" style="font-family:'ProductusOSGiBookc'; font-size:7.5841;">&gt;</tspan></text>
<text transform="matrix(1 0 0 1 172.6797 47.5806)"><tspan x="0" y="0" style="font-family:'ProductusSemibold'; font-size:7.98;">Data</tspan><tspan x="16.431" y="0" style="font-family:'ProductusSemibold'; font-size:7.98;"> </tspan><tspan x="18.466" y="0" style="font-family:'ProductusSemibold'; font-size:7.98;">P</tspan><tspan x="22.623" y="0" style="font-family:'ProductusSemibold'; font-size:7.98;">lugi</tspan><tspan x="35.287" y="0" style="font-family:'ProductusSemibold'; font-size:7.98;">n</tspan></text>
<rect x="172.68" y="90.48" width="54.36" height="26.58"/>
<rect x="172.68" y="90.24" width="54.601" height="0.48"/>
<rect x="226.8" y="90.48" width="0.48" height="26.82"/>
<rect x="172.439" y="116.82" width="54.601" height="0.48"/>
<rect x="172.439" y="90.24" width="0.48" height="26.82"/>
<rect x="170.34" y="88.68" style="fill:#FFFFFF;" width="54.3" height="26.58"/>
<rect x="170.34" y="88.44" width="54.54" height="0.48"/>
<rect x="224.399" y="88.68" width="0.48" height="26.82"/>
<rect x="170.1" y="115.02" width="54.54" height="0.48"/>
<rect x="170.1" y="88.44" width="0.48" height="26.82"/>
<text transform="matrix(1 0 0 1.0522 172.6797 95.8198)"><tspan x="0" y="0" style="font-family:'ProductusOSGiBookc'; font-size:7.5841;">&lt;</tspan><tspan x="2.806" y="0" style="font-family:'ProductusOSGiBookc'; font-size:7.5841;">&lt;</tspan><tspan x="5.566" y="0" style="font-family:'ProductusOSGiBookc'; font-size:7.5841;">s</tspan><tspan x="8.214" y="0" style="font-family:'ProductusOSGiBookc'; font-size:7.5841;">e</tspan><tspan x="11.513" y="0" style="font-family:'ProductusOSGiBookc'; font-size:7.5841;">rv</tspan><tspan x="16.662" y="0" style="font-family:'ProductusOSGiBookc'; font-size:7.5841;">i</tspan><tspan x="18.103" y="0" style="font-family:'ProductusOSGiBookc'; font-size:7.5841;">c</tspan><tspan x="20.984" y="0" style="font-family:'ProductusOSGiBookc'; font-size:7.5841;">e&gt;</tspan><tspan x="27.112" y="0" style="font-family:'ProductusOSGiBookc'; font-size:7.5841;">&gt;</tspan></text>
<text transform="matrix(1 0 0 1 172.6797 104.2798)"><tspan x="0" y="0" style="font-family:'ProductusSemibold'; font-size:7.98;">E</tspan><tspan x="3.95" y="0" style="font-family:'ProductusSemibold'; font-size:7.98;">x</tspan><tspan x="7.725" y="0" style="font-family:'ProductusSemibold'; font-size:7.98;">ec</tspan><tspan x="15.568" y="0" style="font-family:'ProductusSemibold'; font-size:7.98;"> </tspan><tspan x="17.604" y="0" style="font-family:'ProductusSemibold'; font-size:7.98;">P</tspan><tspan x="21.737" y="0" style="font-family:'ProductusSemibold'; font-size:7.98;">l</tspan><tspan x="23.892" y="0" style="font-family:'ProductusSemibold'; font-size:7.98;">u</tspan><tspan x="28.192" y="0" style="font-family:'ProductusSemibold'; font-size:7.98;">g</tspan><tspan x="32.206" y="0" style="font-family:'ProductusSemibold'; font-size:7.98;">i</tspan><tspan x="34.361" y="0" style="font-family:'ProductusSemibold'; font-size:7.98;">n</tspan></text>
<rect x="73.44" y="5.4" width="54.36" height="26.58"/>
<rect x="73.44" y="5.16" width="54.6" height="0.48"/>
<rect x="127.56" y="5.4" width="0.48" height="26.82"/>
<rect x="73.2" y="31.74" width="54.6" height="0.48"/>
<rect x="73.2" y="5.16" width="0.48" height="26.82"/>
<rect x="71.1" y="3.66" style="fill:#FFFFFF;" width="54.36" height="26.58"/>
<rect x="71.1" y="3.42" width="54.6" height="0.48"/>
<rect x="125.22" y="3.66" width="0.48" height="26.82"/>
<rect x="70.86" y="30" width="54.6" height="0.479"/>
<rect x="70.86" y="3.42" width="0.48" height="26.82"/>
<text transform="matrix(1 0 0 1.0522 73.4399 10.7402)"><tspan x="0" y="0" style="font-family:'ProductusOSGiBookc'; font-size:7.5841;">C</tspan><tspan x="4.156" y="0" style="font-family:'ProductusOSGiBookc'; font-size:7.5841;">l</tspan><tspan x="5.65" y="0" style="font-family:'ProductusOSGiBookc'; font-size:7.5841;">i</tspan><tspan x="7.083" y="0" style="font-family:'ProductusOSGiBookc'; font-size:7.5841;">e</tspan><tspan x="10.382" y="0" style="font-family:'ProductusOSGiBookc'; font-size:7.5841;">n</tspan><tspan x="13.856" y="0" style="font-family:'ProductusOSGiBookc'; font-size:7.5841;">t</tspan></text>
<rect x="99.24" y="60.36" width="0.48" height="0.24"/>
<rect x="99.24" y="31.74" width="0.48" height="28.62"/>
<rect x="271.92" y="33.78" width="54.3" height="26.58"/>
<rect x="271.92" y="33.541" width="54.54" height="0.479"/>
<rect x="325.979" y="33.78" width="0.48" height="26.82"/>
<rect x="271.68" y="60.12" width="54.54" height="0.48"/>
<rect x="271.68" y="33.541" width="0.48" height="26.819"/>
<rect x="269.52" y="31.98" style="fill:#FFFFFF;" width="54.36" height="26.58"/>
<rect x="269.52" y="31.74" width="54.601" height="0.48"/>
<rect x="323.64" y="31.98" width="0.48" height="26.82"/>
<rect x="269.28" y="58.32" width="54.6" height="0.48"/>
<rect x="269.28" y="31.74" width="0.479" height="26.82"/>
<text transform="matrix(1 0 0 1.0522 271.9199 39.1196)"><tspan x="0" y="0" style="font-family:'ProductusOSGiBookc'; font-size:7.5841;">Da</tspan><tspan x="7.789" y="0" style="font-family:'ProductusOSGiBookc'; font-size:7.5841;">t</tspan><tspan x="10.019" y="0" style="font-family:'ProductusOSGiBookc'; font-size:7.5841;">a</tspan><tspan x="13.082" y="0" style="font-family:'ProductusOSGiBookc'; font-size:7.5841;"> </tspan><tspan x="14.637" y="0" style="font-family:'ProductusOSGiBookc'; font-size:7.5841;">Pl</tspan><tspan x="19.142" y="0" style="font-family:'ProductusOSGiBookc'; font-size:7.5841;">u</tspan><tspan x="22.623" y="0" style="font-family:'ProductusOSGiBookc'; font-size:7.5841;">g</tspan><tspan x="25.914" y="0" style="font-family:'ProductusOSGiBookc'; font-size:7.5841;">i</tspan><tspan x="27.355" y="0" style="font-family:'ProductusOSGiBookc'; font-size:7.5841;">n</tspan><tspan x="30.829" y="0" style="font-family:'ProductusOSGiBookc'; font-size:7.5841;"> </tspan><tspan x="32.33" y="0" style="font-family:'ProductusOSGiBookc'; font-size:7.5841;">I</tspan><tspan x="33.816" y="0" style="font-family:'ProductusOSGiBookc'; font-size:7.5841;">m</tspan><tspan x="39.217" y="0" style="font-family:'ProductusOSGiBookc'; font-size:7.5841;">p</tspan><tspan x="42.713" y="0" style="font-family:'ProductusOSGiBookc'; font-size:7.5841;">l</tspan></text>
<rect x="271.92" y="90.48" width="54.3" height="26.58"/>
<rect x="271.92" y="90.24" width="54.54" height="0.48"/>
<rect x="325.979" y="90.48" width="0.48" height="26.82"/>
<rect x="271.68" y="116.82" width="54.54" height="0.48"/>
<rect x="271.68" y="90.24" width="0.48" height="26.82"/>
<rect x="269.52" y="88.68" style="fill:#FFFFFF;" width="54.36" height="26.58"/>
<rect x="269.52" y="88.44" width="54.601" height="0.48"/>
<rect x="323.64" y="88.68" width="0.48" height="26.82"/>
<rect x="269.28" y="115.02" width="54.6" height="0.48"/>
<rect x="269.28" y="88.44" width="0.479" height="26.82"/>
<text transform="matrix(1 0 0 1.0522 271.9199 95.8198)"><tspan x="0" y="0" style="font-family:'ProductusOSGiBookc'; font-size:7.5841;">E</tspan><tspan x="3.23" y="0" style="font-family:'ProductusOSGiBookc'; font-size:7.5841;">x</tspan><tspan x="5.695" y="0" style="font-family:'ProductusOSGiBookc'; font-size:7.5841;">ec</tspan><tspan x="11.938" y="0" style="font-family:'ProductusOSGiBookc'; font-size:7.5841;"> P</tspan><tspan x="16.503" y="0" style="font-family:'ProductusOSGiBookc'; font-size:7.5841;">l</tspan><tspan x="17.997" y="0" style="font-family:'ProductusOSGiBookc'; font-size:7.5841;">u</tspan><tspan x="21.478" y="0" style="font-family:'ProductusOSGiBookc'; font-size:7.5841;">g</tspan><tspan x="24.724" y="0" style="font-family:'ProductusOSGiBookc'; font-size:7.5841;">i</tspan><tspan x="26.194" y="0" style="font-family:'ProductusOSGiBookc'; font-size:7.5841;">n</tspan><tspan x="29.615" y="0" style="font-family:'ProductusOSGiBookc'; font-size:7.5841;"> </tspan><tspan x="31.17" y="0" style="font-family:'ProductusOSGiBookc'; font-size:7.5841;">I</tspan><tspan x="32.61" y="0" style="font-family:'ProductusOSGiBookc'; font-size:7.5841;">mp</tspan><tspan x="41.56" y="0" style="font-family:'ProductusOSGiBookc'; font-size:7.5841;">l</tspan></text>
<polyline points="233.939,46.2 233.939,50.16 233.22,49.74 227.76,46.62 226.979,46.14 227.7,45.72 233.16,42.541 233.939,42.06 
	233.939,43.02 233.7,43.44 228.24,46.62 227.7,45.72 228.24,45.72 233.7,48.84 233.22,49.74 232.92,49.32 232.92,46.2 "/>
<rect x="232.92" y="43.02" width="1.02" height="3.18"/>
<polyline style="fill-rule:evenodd;clip-rule:evenodd;" points="233.46,46.2 233.46,49.32 228,46.2 233.46,43.02 "/>
<rect x="269.52" y="45.96" width="0.24" height="0.479"/>
<rect x="233.7" y="45.96" width="35.819" height="0.479"/>
<polyline points="233.939,102.84 233.939,106.92 233.16,106.44 227.7,103.26 226.92,102.84 233.22,99.24 233.939,98.82 
	233.939,99.72 233.7,100.14 228.24,103.26 227.76,102.36 228.24,102.36 233.7,105.541 233.16,106.44 232.92,106.02 232.92,102.84 
	"/>
<rect x="232.92" y="99.72" width="1.02" height="3.12"/>
<polyline style="fill-rule:evenodd;clip-rule:evenodd;" points="233.46,102.84 233.46,106.02 228,102.84 233.46,99.72 "/>
<rect x="269.52" y="102.6" width="0.24" height="0.48"/>
<rect x="233.7" y="102.6" width="35.819" height="0.48"/>
<rect x="127.56" y="74.28" width="0.24" height="0.48"/>
<rect x="127.8" y="74.28" width="28.56" height="0.48"/>
<polyline points="156.359,74.4 156.24,74.22 155.819,74.46 155.939,74.64 "/>
<polyline points="170.58,95.64 170.7,95.82 170.28,96.06 170.16,95.88 "/>
<polyline points="156.359,74.4 155.939,74.64 170.16,95.88 170.58,95.64 "/>
<text transform="matrix(1 0 0 1 131.3999 72.1802)" style="font-family:'ProductusOSGiBookc'; font-size:7.98;">forward</text>
<text transform="matrix(1 0 0 1 101.5801 46.4399)"><tspan x="0" y="0" style="font-family:'ProductusOSGiBookc'; font-size:7.98;">r</tspan><tspan x="2.043" y="0" style="font-family:'ProductusOSGiBookc'; font-size:7.98;">e</tspan><tspan x="5.466" y="0" style="font-family:'ProductusOSGiBookc'; font-size:7.98;">q</tspan><tspan x="9.185" y="0" style="font-family:'ProductusOSGiBookc'; font-size:7.98;">u</tspan><tspan x="12.792" y="0" style="font-family:'ProductusOSGiBookc'; font-size:7.98;">e</tspan><tspan x="16.271" y="0" style="font-family:'ProductusOSGiBookc'; font-size:7.98;">s</tspan><tspan x="19.088" y="0" style="font-family:'ProductusOSGiBookc'; font-size:7.98;">t</tspan></text>
<polyline style="fill-rule:evenodd;clip-rule:evenodd;" points="227.04,46.2 212.819,60.36 227.04,60.36 "/>
<polyline points="227.22,46.38 213,60.541 212.819,60.6 212.22,60.6 212.64,60.18 226.859,46.02 "/>
<rect x="212.819" y="60.12" width="14.461" height="0.48"/>
<polyline points="226.8,60.36 226.8,46.2 226.859,46.02 227.28,45.6 227.28,60.36 "/>
<polyline style="fill-rule:evenodd;clip-rule:evenodd;" points="227.04,102.84 212.819,117.06 227.04,117.06 "/>
<polyline points="227.22,103.02 213,117.24 212.819,117.3 212.22,117.3 226.859,102.66 "/>
<rect x="212.819" y="116.82" width="14.461" height="0.48"/>
<polyline points="226.8,117.06 226.8,102.84 226.859,102.66 227.28,102.24 227.28,117.06 "/>
<polyline style="fill-rule:evenodd;clip-rule:evenodd;" points="127.8,74.52 113.64,88.68 127.8,88.68 "/>
<polyline points="127.98,74.7 113.82,88.86 113.64,88.92 113.04,88.92 127.62,74.34 "/>
<rect x="113.64" y="88.44" width="14.4" height="0.48"/>
<polyline points="127.56,88.68 127.56,74.52 127.62,74.34 128.04,73.92 128.04,88.68 "/>
<rect x="2.58" y="33.78" width="54.36" height="26.58"/>
<rect x="2.58" y="33.541" width="54.6" height="0.479"/>
<rect x="56.7" y="33.78" width="0.48" height="26.82"/>
<rect x="2.34" y="60.12" width="54.6" height="0.48"/>
<rect x="2.34" y="33.541" width="0.48" height="26.819"/>
<rect x="0.24" y="31.98" style="fill:#FFFFFF;" width="54.3" height="26.58"/>
<rect x="0.24" y="31.74" width="54.54" height="0.48"/>
<rect x="54.3" y="31.98" width="0.48" height="26.82"/>
<rect y="58.32" width="54.54" height="0.48"/>
<rect y="31.74" width="0.48" height="26.82"/>
<text transform="matrix(1 0 0 1.0522 2.5796 39.1196)"><tspan x="0" y="0" style="font-family:'ProductusOSGiBookc'; font-size:7.5841;">&lt;&lt;</tspan><tspan x="5.551" y="0" style="font-family:'ProductusOSGiBookc'; font-size:7.5841;">s</tspan><tspan x="8.251" y="0" style="font-family:'ProductusOSGiBookc'; font-size:7.5841;">e</tspan><tspan x="11.535" y="0" style="font-family:'ProductusOSGiBookc'; font-size:7.5841;">rvi</tspan><tspan x="18.072" y="0" style="font-family:'ProductusOSGiBookc'; font-size:7.5841;">c</tspan><tspan x="21.007" y="0" style="font-family:'ProductusOSGiBookc'; font-size:7.5841;">e</tspan><tspan x="24.307" y="0" style="font-family:'ProductusOSGiBookc'; font-size:7.5841;">&gt;</tspan><tspan x="27.082" y="0" style="font-family:'ProductusOSGiBookc'; font-size:7.5841;">&gt;</tspan></text>
<text transform="matrix(1 0 0 1 2.5796 47.5806)"><tspan x="0" y="0" style="font-family:'ProductusSemibold'; font-size:7.98;">D</tspan><tspan x="5.338" y="0" style="font-family:'ProductusSemibold'; font-size:7.98;">m</tspan><tspan x="11.754" y="0" style="font-family:'ProductusSemibold'; font-size:7.98;">t</tspan><tspan x="14.875" y="0" style="font-family:'ProductusSemibold'; font-size:7.98;"> </tspan><tspan x="16.854" y="0" style="font-family:'ProductusSemibold'; font-size:7.98;">Sessio</tspan><tspan x="38.415" y="0" style="font-family:'ProductusSemibold'; font-size:7.98;">n</tspan></text>
<rect x="56.7" y="45.96" width="0.24" height="0.479"/>
<rect x="56.94" y="45.96" width="1.98" height="0.479"/>
<rect x="63.24" y="45.96" width="0.24" height="0.479"/>
<rect x="63.48" y="45.96" width="4.02" height="0.479"/>
<rect x="71.82" y="45.96" width="0.24" height="0.479"/>
<rect x="72.06" y="45.96" width="3.96" height="0.479"/>
<rect x="80.34" y="45.96" width="0.24" height="0.479"/>
<rect x="80.58" y="45.96" width="4.02" height="0.479"/>
<rect x="88.92" y="45.96" width="0.24" height="0.479"/>
<rect x="89.16" y="45.96" width="3.96" height="0.479"/>
<rect x="97.44" y="45.96" width="0.24" height="0.479"/>
<rect x="97.68" y="45.96" width="2.04" height="0.479"/>
<rect x="147.54" width="3" height="1.5"/>
<rect x="147.54" y="1.5" width="3" height="1.98"/>
<rect x="147.54" y="7.5" width="3" height="1.5"/>
<rect x="147.54" y="9" width="3" height="2.46"/>
<rect x="147.54" y="15.48" width="3" height="1.5"/>
<rect x="147.54" y="16.98" width="3" height="2.46"/>
<rect x="147.54" y="23.4" width="3" height="1.5"/>
<rect x="147.54" y="24.9" width="3" height="2.521"/>
<rect x="147.54" y="31.38" width="3" height="1.5"/>
<rect x="147.54" y="32.88" width="3" height="2.52"/>
<rect x="147.54" y="39.36" width="3" height="1.5"/>
<rect x="147.54" y="40.86" width="3" height="2.521"/>
<rect x="147.54" y="47.34" width="3" height="1.5"/>
<rect x="147.54" y="48.84" width="3" height="2.52"/>
<rect x="147.54" y="55.32" width="3" height="1.5"/>
<rect x="147.54" y="56.82" width="3" height="2.521"/>
<rect x="147.54" y="63.3" width="3" height="1.5"/>
<rect x="147.54" y="64.8" width="3" height="1.979"/>
<rect x="147.54" y="75.9" width="3" height="1.5"/>
<rect x="147.54" y="77.4" width="3" height="1.98"/>
<rect x="147.54" y="83.34" width="3" height="1.5"/>
<rect x="147.54" y="84.84" width="3" height="2.52"/>
<rect x="147.54" y="91.32" width="3" height="1.5"/>
<rect x="147.54" y="92.82" width="3" height="2.521"/>
<rect x="147.54" y="99.3" width="3" height="1.5"/>
<rect x="147.54" y="100.8" width="3" height="2.52"/>
<rect x="147.54" y="107.28" width="3" height="1.5"/>
<rect x="147.54" y="108.78" width="3" height="2.46"/>
<rect x="147.54" y="115.26" width="3" height="1.5"/>
<rect x="147.54" y="116.76" width="3" height="2.46"/>
<rect x="147.54" y="123.24" width="3" height="1.5"/>
<rect x="147.54" y="124.74" width="3" height="2.46"/>
<rect x="147.54" y="131.16" width="3" height="1.5"/>
<rect x="147.54" y="132.66" width="3" height="2.521"/>
<rect x="147.54" y="139.14" width="3" height="1.5"/>
<rect x="147.54" y="140.64" width="3" height="2.04"/>
<polyline points="155.939,74.4 155.819,74.581 156.24,74.82 156.359,74.64 "/>
<polyline points="170.16,46.081 170.28,45.9 170.7,46.14 170.58,46.32 "/>
<polyline points="155.939,74.4 156.359,74.64 170.58,46.32 170.16,46.081 "/>
</svg>
