<?xml version="1.0" encoding="utf-8"?>
<!-- Generator: Adobe Illustrator 16.0.1, SVG Export Plug-In . SVG Version: 6.00 Build 0)  -->
<!DOCTYPE svg PUBLIC "-//W3C//DTD SVG 1.1//EN" "http://www.w3.org/Graphics/SVG/1.1/DTD/svg11.dtd">
<svg version="1.1" id="Layer_1" xmlns="http://www.w3.org/2000/svg" xmlns:xlink="http://www.w3.org/1999/xlink" x="0px" y="0px"
	 width="126.537px" height="118.547px" viewBox="0 0 126.537 118.547" enable-background="new 0 0 126.537 118.547"
	 xml:space="preserve">
<rect x="77.101" y="68.448" width="0.479" height="0.239"/>
<rect x="77.101" y="68.688" width="0.479" height="28.621"/>
<rect x="77.101" y="96.828" width="0.479" height="0.24"/>
<rect x="77.101" y="97.066" width="0.479" height="1.98"/>
<rect x="77.101" y="102.467" width="0.479" height="0.24"/>
<rect x="77.101" y="102.708" width="0.479" height="3.24"/>
<rect x="77.101" y="109.368" width="0.479" height="0.239"/>
<rect x="77.101" y="109.607" width="0.479" height="3.3"/>
<rect x="77.101" y="116.328" width="0.479" height="0.24"/>
<rect x="77.101" y="116.566" width="0.479" height="1.98"/>
<rect x="98.34" y="96.828" width="0.479" height="0.24"/>
<rect x="98.34" y="97.066" width="0.479" height="1.98"/>
<rect x="98.34" y="102.467" width="0.479" height="0.24"/>
<rect x="98.34" y="102.708" width="0.479" height="3.24"/>
<rect x="98.34" y="109.368" width="0.479" height="0.239"/>
<rect x="98.34" y="109.607" width="0.479" height="3.3"/>
<rect x="98.34" y="116.328" width="0.479" height="0.24"/>
<rect x="98.34" y="116.566" width="0.479" height="1.98"/>
<rect x="55.8" y="96.828" width="0.479" height="0.24"/>
<rect x="55.8" y="97.066" width="0.479" height="1.98"/>
<rect x="55.8" y="102.467" width="0.479" height="0.24"/>
<rect x="55.8" y="102.708" width="0.479" height="3.24"/>
<rect x="55.8" y="109.368" width="0.479" height="0.239"/>
<rect x="55.8" y="109.607" width="0.479" height="3.3"/>
<rect x="55.8" y="116.328" width="0.479" height="0.24"/>
<rect x="55.8" y="116.566" width="0.479" height="1.98"/>
<polyline points="77.521,68.566 77.399,68.389 77.041,68.688 77.16,68.868 "/>
<polyline points="98.76,96.948 98.88,97.127 98.521,97.428 98.399,97.248 "/>
<polyline points="77.521,68.566 77.16,68.868 98.399,97.248 98.76,96.948 "/>
<polyline points="77.521,68.868 77.64,68.688 77.28,68.389 77.16,68.566 "/>
<polyline points="56.22,97.248 56.1,97.428 55.74,97.127 55.86,96.948 "/>
<polyline points="77.521,68.868 77.16,68.566 55.86,96.948 56.22,97.248 "/>
<polyline points="56.22,40.547 56.4,40.368 56.041,40.007 55.86,40.188 "/>
<polyline points="27.9,68.868 27.72,69.047 27.36,68.688 27.54,68.507 "/>
<polyline points="56.22,40.547 55.86,40.188 27.54,68.507 27.9,68.868 "/>
<polyline points="56.22,40.248 56.1,40.067 55.74,40.368 55.86,40.547 "/>
<polyline points="77.521,68.566 77.64,68.748 77.28,69.047 77.16,68.868 "/>
<polyline points="56.22,40.248 55.86,40.547 77.16,68.868 77.521,68.566 "/>
<polyline points="27.9,11.808 27.72,11.627 27.36,11.988 27.54,12.167 "/>
<polyline points="56.22,40.188 56.4,40.368 56.041,40.728 55.86,40.547 "/>
<polyline points="27.9,11.808 27.54,12.167 55.86,40.547 56.22,40.188 "/>
<path fill="#E6E6E6" d="M34.8,11.988l-0.06-0.72l-0.06-0.72c-2.015-7.911-12.853-7.337-14.04,0.72v1.44
	c1.19,8.071,12.019,8.655,14.04,0.72l0.06-0.72L34.8,11.988"/>
<path d="M34.56,12.047l-0.06-0.72l-0.06-0.72l-0.18-0.66v0.06l-0.24-0.66h0.06l-0.3-0.6l-0.36-0.6v0.06L33,7.667l-0.96-0.96h0.06
	l-0.54-0.42v0.06l-0.6-0.36l-0.6-0.3h0.06l-0.66-0.24l-0.66-0.18h0.06l-1.44-0.12h0.06l-1.44,0.12l-0.66,0.18h0.06l-0.66,0.24
	l-0.6,0.3l-0.6,0.36l0.06-0.06l-0.54,0.42l-0.54,0.48l-0.42,0.48l-0.42,0.54l0.06-0.06l-0.36,0.6l-0.3,0.6l-0.24,0.66v-0.06
	L21,10.607l-0.12,0.72v-0.06v1.44l0.12,0.72v-0.06l0.18,0.66l0.24,0.66v-0.06l0.3,0.6l0.36,0.6h-0.06l0.84,1.08v-0.06l0.54,0.42
	l-0.3,0.36l-0.54-0.42H22.5l-0.84-1.08v-0.06l-0.36-0.6l-0.3-0.6h-0.06l-0.24-0.66v-0.06c-0.748-2.309-0.207-4.948,1.38-6.78
	l0.42-0.48l0.06-0.06c1.937-1.979,4.684-2.605,7.32-1.86h0.06l0.66,0.24v0.06l0.6,0.3c1.022,0.48,1.955,1.418,2.58,2.34h0.06
	l0.36,0.6c0.401,0.746,0.813,1.903,0.78,2.76l0.06,0.72"/>
<path d="M23.4,17.268l0.54,0.42h-0.06l0.6,0.36l0.6,0.3v-0.06l0.66,0.24h-0.06l0.66,0.18l0.72,0.12H27h1.44l0.72-0.12H29.1
	l0.66-0.18l0.66-0.24l-0.06,0.06l0.6-0.3l0.6-0.36l0.54-0.42l0.48-0.42l-0.06,0.06l0.48-0.54l0.42-0.54l0.36-0.6l0.3-0.6l-0.06,0.06
	l0.24-0.66l0.18-0.66v0.06l0.06-0.72l0.06-0.72v0.06l0.48-0.06v0.06c-0.007,5.533-5.909,9.009-10.8,6.42l-0.6-0.36v-0.06l-0.54-0.42
	"/>
<text transform="matrix(1 0 0 1 39.0601 6.6475)" font-family="'ProductusBook'" font-size="7.98">.</text>
<text transform="matrix(1 0 0 1 27.7197 12.5879)" font-family="'ProductusSemibold'" font-size="7.98">.</text>
<path fill="#E6E6E6" d="M84.42,68.688l-0.062-0.72l-0.119-0.72c-1.889-7.921-12.87-7.33-13.979,0.72l-0.061,0.72l0.061,0.721
	c1.097,8.06,12.104,8.66,13.979,0.72l0.119-0.72L84.42,68.688"/>
<path d="M84.181,68.748l-0.062-0.721L84,67.309l-0.181-0.66v0.06l-0.24-0.66h0.061l-0.6-1.2v0.061l-0.421-0.54l-0.96-0.96h0.061
	l-0.539-0.42v0.06l-0.602-0.36l-0.6-0.299h0.061l-0.66-0.24l-0.721-0.181h0.061l-0.66-0.06l-0.72-0.061h0.06l-1.438,0.12
	l-0.722,0.181H75.3l-0.601,0.24l-0.659,0.299l-0.54,0.36h0.06l-0.6,0.42v-0.06L72,64.368l0.06-0.06L71.7,64.848l-0.359,0.601
	l-0.3,0.6l-0.24,0.66v-0.06l-0.181,0.66l-0.119,0.719l-0.061,0.721v-0.061l0.061,0.721l0.119,0.72v-0.06l0.181,0.66l0.24,0.66
	v-0.061l0.3,0.6l0.359,0.6l0.359,0.541H72l0.479,0.539v-0.06l0.479,0.42l-0.301,0.421v-0.061c-0.956-0.705-1.124-1.141-1.739-2.16
	l-0.301-0.6h-0.061l-0.24-0.66v-0.061c-0.564-1.732-0.422-3.309,0.24-4.979l0.061-0.06l0.301-0.601l0.359-0.601l0.359-0.539v-0.061
	l0.961-0.96h0.06l0.601-0.42l0.54-0.36h0.06l0.66-0.3l0.601-0.239v-0.061l0.721-0.18h0.06l1.44-0.12h0.06l0.721,0.06l0.66,0.061
	l0.721,0.18h0.061l0.66,0.24v0.06l0.6,0.3c1.021,0.48,1.955,1.418,2.58,2.34h0.061l0.301,0.601c0.443,0.81,0.736,1.839,0.84,2.76
	l0.06,0.72"/>
<path d="M72.96,73.967l0.6,0.42H73.5l0.54,0.36l0.659,0.3l0.601,0.24l-0.061-0.061l0.721,0.181l0.721,0.12H76.62h1.439l0.66-0.12
	h-0.06l0.721-0.181l0.66-0.24l-0.062,0.061l0.601-0.3l0.601-0.36l0.541-0.42l0.479-0.42l-0.061,0.061l0.479-0.541l0.421-0.539
	l0.6-1.2l-0.061,0.06l0.24-0.66L84,70.066v0.061l0.119-0.72l0.062-0.72v0.06l0.479-0.06v0.06c-0.156,5.914-6.451,9.251-11.399,6.06
	l-0.601-0.42"/>
<text transform="matrix(1 0 0 1 27.7202 12.5879)" font-family="'ProductusSemibold'" font-size="7.98">.</text>
<text transform="matrix(1 0 0 1 70.2002 40.9082)" font-family="'ProductusSemibold'" font-size="7.98">Gateway</text>
<rect x="20.64" y="61.607" fill="#F7F7F7" width="14.16" height="14.16"/>
<rect x="20.64" y="61.368" width="14.4" height="0.479"/>
<rect x="34.56" y="61.607" width="0.48" height="14.399"/>
<rect x="20.4" y="75.527" width="14.4" height="0.479"/>
<rect x="20.4" y="61.368" width="0.48" height="14.399"/>
<text transform="matrix(1 0 0 1 0 69.8271)" font-family="'ProductusSemibold'" font-size="7.98">Name</text>
<path fill="#E6E6E6" d="M63.12,40.368v-0.72L63,38.928c-1.874-7.908-13-7.347-13.98,0.72l-0.06,0.72l0.06,0.72
	c0.971,8.03,12.176,8.583,13.98,0.66l0.119-0.66L63.12,40.368"/>
<path d="M62.88,40.368v-0.72v0.06l-0.12-0.72l-0.181-0.66v0.06l-0.239-0.66h0.06l-0.3-0.66l-0.36-0.54v0.06l-0.84-1.08h0.061
	l-1.08-0.84v0.06l-0.54-0.36h0.06l-0.66-0.3l-0.66-0.24l-0.659-0.18h0.06l-0.72-0.12h-1.44h0.061l-0.721,0.12L54,33.828h0.06
	l-0.66,0.24l-0.6,0.3l-0.6,0.36l0.06-0.06l-0.54,0.42l-0.48,0.42l-0.48,0.54l-0.42,0.54l0.06-0.06l-0.36,0.54l-0.3,0.66l-0.24,0.66
	v-0.06l-0.12,0.66l-0.12,0.72l-0.06,0.72v-0.06l0.06,0.72l0.12,0.66l0.12,0.72v-0.06l0.24,0.66v-0.06l0.3,0.6l0.36,0.6h-0.06
	l0.42,0.54v-0.06l0.96,0.96l-0.3,0.36h-0.06l-0.96-0.96l-0.42-0.54v-0.06l-0.36-0.6l-0.3-0.6h-0.06l-0.24-0.66v-0.06l-0.12-0.72
	l-0.12-0.66l-0.06-0.72v-0.06l0.06-0.72l0.12-0.72l0.12-0.66v-0.06l0.24-0.66h0.06l0.3-0.66v-0.06c0.85-1.387,2.034-2.529,3.54-3.18
	l0.06-0.06l0.66-0.24c1.219-0.412,3.1-0.447,4.32,0h0.061l0.66,0.24v0.06l0.659,0.3c1.397,0.882,1.562,0.991,2.521,2.34h0.06
	l0.36,0.54v0.06l0.3,0.66l0.24,0.66l0.18,0.66v0.06l0.12,0.72v0.72"/>
<path d="M51.72,45.647l0.54,0.42H52.2l0.6,0.36l0.6,0.24v-0.06l0.66,0.24H54l0.66,0.18l0.721,0.12l0.72,0.06h-0.06l0.72-0.06
	l0.72-0.12h-0.06l0.659-0.18l1.32-0.48l-0.06,0.06l0.54-0.36l0.54-0.42l0.54-0.48l-0.061,0.06l0.42-0.48l0.42-0.54l0.36-0.6l0.3-0.6
	l-0.06,0.06l0.239-0.66l0.181-0.72v0.06l0.12-0.66v-0.72h0.479v0.78c-0.312,2.359-1.343,3.922-3.24,5.34l-0.54,0.36l-0.659,0.24
	c-2.33,0.895-4.04,0.741-6.3-0.24h-0.06l-0.6-0.36v-0.06l-0.54-0.42"/>
<text transform="matrix(1 0 0 1 87.1201 69.8271)" font-family="'ProductusSemibold'" font-size="7.98">Interface</text>
<path fill="#E6E6E6" d="M63.12,97.066v-0.779L63,95.627c-1.843-7.895-12.956-7.371-13.98,0.66l-0.06,0.779l0.06,0.721
	c0.95,7.974,12.14,8.619,13.98,0.66l0.119-0.66L63.12,97.066"/>
<path d="M62.88,97.066v-0.779v0.061l-0.12-0.66l-0.181-0.721l0.061,0.061l-0.24-0.601l-0.3-0.659l-0.36-0.541v0.061l-0.42-0.6
	l-0.42-0.48h0.061l-0.54-0.48v0.061l-1.08-0.721h0.06l-0.66-0.299l-0.66-0.24l-0.659-0.18h0.06l-0.72-0.121l-0.72-0.06h0.06
	l-0.72,0.06l-0.721,0.121L54,90.527h0.06l-0.66,0.24l-0.6,0.299l-0.6,0.36l-0.54,0.36l0.06-0.061l-0.96,0.961h0.06l-0.42,0.6v-0.061
	l-0.36,0.541l-0.3,0.659l-0.24,0.601v-0.061l-0.12,0.721l-0.12,0.66l-0.06,0.779v-0.061l0.06,0.721l0.12,0.66l0.12,0.72v-0.06
	l0.24,0.66v-0.061l0.3,0.6l0.36,0.601h-0.06l0.42,0.54v-0.061l0.96,0.961l-0.3,0.359h-0.06l-0.96-0.96l-0.42-0.54v-0.061l-0.36-0.6
	l-0.3-0.6h-0.06l-0.24-0.66v-0.061l-0.12-0.72c-0.239-1.084-0.239-1.792,0-2.88l0.12-0.72l0.06-0.06
	c0.455-1.189,0.559-1.433,1.32-2.461v-0.06l0.96-0.96h0.06c0.724-0.493,1.618-1.061,2.46-1.32l0.661-0.18h0.06
	c1.211-0.237,1.729-0.237,2.94,0l0.659,0.18h0.061l0.66,0.24v0.061l0.659,0.299c1.004,0.688,1.363,0.742,2.101,1.74h0.06l0.42,0.601
	c0.65,0.892,1.062,2.2,1.2,3.3v0.779"/>
<path d="M51.72,102.348l0.54,0.42H52.2l1.2,0.601v-0.06l0.66,0.239H54l0.66,0.181l0.721,0.119l0.72,0.061h-0.06l0.72-0.061
	l0.72-0.119h-0.06l0.659-0.181l0.66-0.239v0.06l0.66-0.3h-0.06l0.54-0.301l0.54-0.42l0.54-0.479l-0.061,0.06l0.42-0.479l0.42-0.54
	l0.36-0.6l0.3-0.601l-0.06,0.06l0.239-0.66l0.181-0.719v0.06l0.12-0.66v-0.72h0.479v0.72c-0.551,5.256-6.167,8.146-10.8,5.7
	l-0.6-0.301v-0.06l-0.54-0.42"/>
<path fill="#E6E6E6" d="M105.66,97.066l-0.06-0.779l-0.061-0.66c-1.932-7.893-12.833-7.393-14.04,0.66v1.5
	c1.146,8.058,12.176,8.546,14.04,0.66l0.061-0.66L105.66,97.066"/>
<path d="M105.42,97.127l-0.062-0.779l-0.06-0.66l-0.181-0.721l0.061,0.061l-0.24-0.601l-0.299-0.659l-0.361-0.541v0.061l-0.42-0.6
	l-0.959-0.961l0.061,0.061l-0.54-0.36l-0.601-0.36l-0.6-0.299h0.059l-0.659-0.24l-0.659-0.18h0.061L99.3,90.227l-0.721-0.06h0.061
	l-0.72,0.06l-0.721,0.121l-0.659,0.18h0.061l-0.66,0.24l-0.601,0.299l-0.601,0.36l-0.54,0.36l0.061-0.061l-0.54,0.48l-0.42,0.48
	h0.061l-0.42,0.6v-0.061l-0.36,0.541l-0.3,0.659l-0.239,0.601v-0.061l-0.181,0.721l-0.121,0.66v-0.061v1.5l0.121,0.66v-0.061
	l0.181,0.721l0.239,0.66v-0.061l0.3,0.6l0.36,0.601H92.88l0.42,0.54l0.42,0.479v-0.06l0.54,0.48l-0.3,0.359l-0.54-0.48h-0.06
	l-0.42-0.479l-0.42-0.54v-0.061l-0.36-0.6l-0.3-0.6H91.8l-0.24-0.66v-0.061l-0.18-0.72l-0.12-0.659v-1.561l0.12-0.66v-0.061
	l0.18-0.719h0.061l0.24-0.601l0.3-0.66v-0.06l0.36-0.541l0.42-0.6l0.42-0.479l0.061-0.06l0.54-0.48l0.54-0.36l0.6-0.36l0.601-0.299
	l0.062-0.061c1.67-0.662,3.246-0.807,4.979-0.24h0.061l0.66,0.24v0.061l0.6,0.299c2.119,1.039,3.66,3.261,3.78,5.641l0.06,0.779"/>
<path d="M94.26,102.348l0.54,0.42h-0.06l1.2,0.601v-0.06l0.66,0.239H96.54l0.659,0.181l0.721,0.119l0.72,0.061h-0.06l0.721-0.061
	l0.72-0.119h-0.06l0.659-0.181l0.66-0.239l-0.061,0.06l1.2-0.601l0.54-0.42h-0.061l0.961-0.959v0.06l0.42-0.54l0.359-0.6
	l0.301-0.601l-0.061,0.06l0.239-0.66l0.181-0.719v0.06l0.061-0.66l0.061-0.72v0.06l0.479-0.06v0.06
	c0.023,5.543-5.981,8.948-10.799,6.36l-0.601-0.301v-0.06l-0.54-0.42"/>
<text transform="matrix(1 0 0 1 109.6201 97.6074)" font-family="'ProductusSemibold'" font-size="7.98">WAN</text>
<text transform="matrix(1 0 0 1 31.2603 97.6074)" font-family="'ProductusSemibold'" font-size="7.98">LAN</text>
<path fill="#E6E6E6" d="M84.42,97.066l-0.062-0.779l-0.119-0.66c-1.818-7.909-12.842-7.383-13.979,0.66l-0.061,0.779l0.061,0.721
	c1.083,8.055,12.23,8.557,13.979,0.66l0.119-0.66L84.42,97.066"/>
<path d="M84.181,97.127l-0.062-0.779L84,95.688l-0.181-0.72l0.061,0.06l-0.24-0.6l-0.3-0.66l-0.3-0.539v0.06l-0.421-0.601
	l-0.96-0.959l0.061,0.06l-0.539-0.36l-0.602-0.359l-0.6-0.301h0.061l-0.66-0.24l-0.721-0.18h0.061l-0.66-0.119l-0.72-0.061h0.06
	l-0.719,0.061l-0.721,0.119l-0.721,0.18H75.3l-0.601,0.24l-0.659,0.301l-0.54,0.359l-0.601,0.36l0.061-0.06L72,92.688l0.06-0.06
	L71.7,93.229l-0.359,0.539l-0.3,0.66l-0.24,0.6v-0.06l-0.181,0.72l-0.119,0.66l-0.061,0.78v-0.06l0.061,0.72l0.119,0.66v-0.06
	l0.181,0.719l0.24,0.66v-0.06l0.3,0.601l0.359,0.6l0.359,0.54l-0.06-0.06l0.96,0.959l-0.301,0.42l-0.061-0.06
	c-1.029-0.994-0.957-0.931-1.68-2.16l-0.301-0.6h-0.061l-0.24-0.66v-0.06l-0.18-0.721l-0.119-0.66l-0.061-0.72v-0.06l0.061-0.78
	l0.119-0.66v-0.06l0.18-0.721h0.062l0.239-0.6c0.906-2.137,1.764-2.993,3.9-3.9l0.6-0.24v-0.06l0.721-0.18h0.061l0.72-0.12
	l0.721-0.061h0.06l0.721,0.061l0.66,0.12l0.721,0.18h0.061l0.66,0.24v0.06l0.6,0.301c2.273,1.11,3.43,3.187,3.779,5.64l0.061,0.78"
	/>
<path d="M72.96,102.348l0.6,0.42H73.5l0.54,0.301l0.659,0.3l0.601,0.239l-0.061-0.06l0.721,0.181l0.721,0.119l0.719,0.061h-0.06
	l0.72-0.061l0.66-0.119h-0.06l0.721-0.181l0.66-0.239l-0.062,0.06l1.201-0.601l0.539-0.42h-0.06l0.96-0.959v0.06l0.421-0.54
	l0.601-1.2l-0.062,0.06l0.239-0.66L84,98.389v0.06l0.119-0.66l0.062-0.72v0.06l0.479-0.06v0.06c-0.193,5.97-6.377,9.09-11.399,6.06
	l-0.601-0.42"/>
<text transform="matrix(1 0 0 1 78.7197 111.7676)" font-family="'ProductusSemibold'" font-size="7.98">VPN</text>
</svg>
