<?xml version="1.0" encoding="utf-8"?>
<!-- Generator: Adobe Illustrator 16.0.0, SVG Export Plug-In . SVG Version: 6.00 Build 0)  -->
<!DOCTYPE svg PUBLIC "-//W3C//DTD SVG 1.1//EN" "http://www.w3.org/Graphics/SVG/1.1/DTD/svg11.dtd">
<svg version="1.1" id="Layer_1" xmlns="http://www.w3.org/2000/svg" xmlns:xlink="http://www.w3.org/1999/xlink" x="0px" y="0px"
	 width="214.573px" height="198.899px" viewBox="0 0 214.573 198.899" style="enable-background:new 0 0 214.573 198.899;"
	 xml:space="preserve">
<rect x="2.58" y="2.04" width="54.359" height="27"/>
<rect x="2.58" y="1.8" width="54.6" height="0.48"/>
<rect x="56.7" y="2.04" width="0.479" height="27.24"/>
<rect x="2.34" y="28.8" width="54.6" height="0.48"/>
<rect x="2.34" y="1.8" width="0.48" height="27.24"/>
<rect x="0.24" y="0.24" style="fill:#FFFFFF;" width="54.36" height="27"/>
<rect x="0.24" width="54.6" height="0.48"/>
<rect x="54.359" y="0.24" width="0.48" height="27.24"/>
<rect y="27" width="54.6" height="0.48"/>
<rect width="0.48" height="27.24"/>
<text transform="matrix(1 0 0 1 2.5801 7.3799)"><tspan x="0" y="0" style="font-family:'ProductusSemibold'; font-size:7.98;">R</tspan><tspan x="4.253" y="0" style="font-family:'ProductusSemibold'; font-size:7.98;">e</tspan><tspan x="8.387" y="0" style="font-family:'ProductusSemibold'; font-size:7.98;">mot</tspan><tspan x="22.168" y="0" style="font-family:'ProductusSemibold'; font-size:7.98;">e</tspan></text>
<text transform="matrix(1 0 0 1.0522 2.5801 15.8398)"><tspan x="0" y="0" style="font-family:'ProductusOSGiBookc'; font-size:7.5841;">Ma</tspan><tspan x="8.646" y="0" style="font-family:'ProductusOSGiBookc'; font-size:7.5841;">n</tspan><tspan x="12.119" y="0" style="font-family:'ProductusOSGiBookc'; font-size:7.5841;">a</tspan><tspan x="15.236" y="0" style="font-family:'ProductusOSGiBookc'; font-size:7.5841;">g</tspan><tspan x="18.535" y="0" style="font-family:'ProductusOSGiBookc'; font-size:7.5841;">er</tspan></text>
<rect x="2.58" y="58.26" width="54.359" height="27"/>
<rect x="2.58" y="58.02" width="54.6" height="0.48"/>
<rect x="56.7" y="58.26" width="0.479" height="27.24"/>
<rect x="2.34" y="85.02" width="54.6" height="0.48"/>
<rect x="2.34" y="58.02" width="0.48" height="27.24"/>
<rect x="0.24" y="56.46" style="fill:#FFFFFF;" width="54.36" height="27"/>
<rect x="0.24" y="56.22" width="54.6" height="0.48"/>
<rect x="54.359" y="56.46" width="0.48" height="27.24"/>
<rect y="83.22" width="54.6" height="0.48"/>
<rect y="56.22" width="0.48" height="27.24"/>
<text transform="matrix(1 0 0 1 2.5801 63.5996)"><tspan x="0" y="0" style="font-family:'ProductusSemibold'; font-size:7.98;">Protoc</tspan><tspan x="22.471" y="0" style="font-family:'ProductusSemibold'; font-size:7.98;">o</tspan><tspan x="26.844" y="0" style="font-family:'ProductusSemibold'; font-size:7.98;">l</tspan></text>
<text transform="matrix(1 0 0 1.0522 2.5801 72.1196)"><tspan x="0" y="0" style="font-family:'ProductusOSGiBookc'; font-size:7.5841;">A</tspan><tspan x="3.663" y="0" style="font-family:'ProductusOSGiBookc'; font-size:7.5841;">dapter</tspan></text>
<rect x="2.58" y="114.96" width="54.359" height="27"/>
<rect x="2.58" y="114.72" width="54.6" height="0.48"/>
<rect x="56.7" y="114.96" width="0.479" height="27.24"/>
<rect x="2.34" y="141.72" width="54.6" height="0.48"/>
<rect x="2.34" y="114.72" width="0.48" height="27.24"/>
<rect x="0.24" y="113.16" style="fill:#FFFFFF;" width="54.36" height="27"/>
<rect x="0.24" y="112.92" width="54.6" height="0.479"/>
<rect x="54.359" y="113.16" width="0.48" height="27.239"/>
<rect y="139.92" width="54.6" height="0.479"/>
<rect y="112.92" width="0.48" height="27.24"/>
<text transform="matrix(1 0 0 1 2.5801 120.2998)"><tspan x="0" y="0" style="font-family:'ProductusSemibold'; font-size:7.98;">D</tspan><tspan x="5.362" y="0" style="font-family:'ProductusSemibold'; font-size:7.98;">m</tspan><tspan x="11.778" y="0" style="font-family:'ProductusSemibold'; font-size:7.98;">t </tspan><tspan x="16.861" y="0" style="font-family:'ProductusSemibold'; font-size:7.98;">A</tspan><tspan x="21.721" y="0" style="font-family:'ProductusSemibold'; font-size:7.98;">d</tspan><tspan x="26.038" y="0" style="font-family:'ProductusSemibold'; font-size:7.98;">m</tspan><tspan x="32.383" y="0" style="font-family:'ProductusSemibold'; font-size:7.98;">i</tspan><tspan x="34.601" y="0" style="font-family:'ProductusSemibold'; font-size:7.98;">n</tspan></text>
<rect x="2.58" y="171.66" width="54.359" height="27"/>
<rect x="2.58" y="171.42" width="54.6" height="0.479"/>
<rect x="56.7" y="171.66" width="0.479" height="27.239"/>
<rect x="2.34" y="198.42" width="54.6" height="0.479"/>
<rect x="2.34" y="171.42" width="0.48" height="27.24"/>
<rect x="0.24" y="169.859" style="fill:#FFFFFF;" width="54.36" height="27"/>
<rect x="0.24" y="169.62" width="54.6" height="0.479"/>
<rect x="54.359" y="169.859" width="0.48" height="27.24"/>
<rect y="196.62" width="54.6" height="0.479"/>
<rect y="169.62" width="0.48" height="27.239"/>
<text transform="matrix(1 0 0 1 2.5801 177)"><tspan x="0" y="0" style="font-family:'ProductusSemibold'; font-size:7.98;">Pl</tspan><tspan x="6.296" y="0" style="font-family:'ProductusSemibold'; font-size:7.98;">u</tspan><tspan x="10.613" y="0" style="font-family:'ProductusSemibold'; font-size:7.98;">g</tspan><tspan x="14.627" y="0" style="font-family:'ProductusSemibold'; font-size:7.98;">i</tspan><tspan x="16.781" y="0" style="font-family:'ProductusSemibold'; font-size:7.98;">n</tspan></text>
<rect x="28.38" y="141.72" width="0.479" height="0.24"/>
<rect x="28.38" y="141.96" width="0.479" height="28.56"/>
<polyline points="89.1,88.92 89.22,88.74 88.8,88.5 88.68,88.68 "/>
<polyline points="81.96,103.08 81.84,103.26 81.42,103.02 81.54,102.84 "/>
<polyline points="89.1,88.92 88.68,88.68 81.54,102.84 81.96,103.08 "/>
<polyline points="89.1,88.68 88.979,88.5 88.56,88.74 88.68,88.92 "/>
<polyline points="96.18,102.84 96.3,103.02 95.88,103.26 95.76,103.08 "/>
<polyline points="89.1,88.68 88.68,88.92 95.76,103.08 96.18,102.84 "/>
<polyline points="96.18,103.08 96.3,102.9 95.88,102.66 95.76,102.84 "/>
<polyline points="89.1,117.3 88.979,117.479 88.56,117.24 88.68,117.06 "/>
<polyline points="96.18,103.08 95.76,102.84 88.68,117.06 89.1,117.3 "/>
<polyline points="96.18,102.84 96.06,102.66 95.64,102.9 95.76,103.08 "/>
<polyline points="103.26,117.06 103.38,117.24 102.96,117.479 102.84,117.3 "/>
<polyline points="96.18,102.84 95.76,103.08 102.84,117.3 103.26,117.06 "/>
<path style="fill-rule:evenodd;clip-rule:evenodd;fill:#B3B3B3;" d="M85.26,102.96l-0.06-0.72l-0.181-0.66
	c-1.546-3.18-5.954-2.744-6.72,0.66l-0.12,0.72l0.12,0.72c0.706,3.441,5.269,3.843,6.72,0.66l0.181-0.66L85.26,102.96"/>
<path d="M85.02,103.02l-0.06-0.72l-0.18-0.66l0.06,0.06l-0.36-0.6v0.06l-0.42-0.48h0.061l-0.54-0.48v0.06l-0.601-0.3h0.061
	l-0.66-0.24h0.06l-0.72-0.06h0.061l-0.66,0.06h0.06l-0.72,0.24l-0.601,0.3l0.061-0.06l-0.96,0.96l0.06-0.06l-0.3,0.6v-0.06
	l-0.18,0.66l-0.12,0.72v-0.06l0.12,0.72v-0.06l0.18,0.66v-0.06l0.3,0.6h-0.06l0.479,0.54v-0.06l0.48,0.42h-0.061l0.601,0.36
	l-0.061-0.061l0.721,0.181l0.66,0.06H81.72l0.72-0.06h-0.06l0.66-0.181l-0.061,0.061l0.601-0.36l0.54-0.42l-0.061,0.06l0.42-0.54
	l0.36-0.6l-0.06,0.06l0.18-0.66v0.06l0.06-0.72l0.48,0.06l-0.061,0.72l-0.18,0.66v0.06l-0.36,0.6l-0.06,0.061l-0.42,0.54l-0.54,0.42
	l-0.06,0.06l-0.601,0.36h-0.06c-0.899,0.345-1.975,0.295-2.88,0H80.22l-0.6-0.36v-0.06l-0.48-0.42h-0.06l-0.48-0.54v-0.061l-0.3-0.6
	l-0.06-0.06l-0.181-0.66l-0.12-0.72v-0.06l0.12-0.72v-0.06l0.181-0.66l0.06-0.06l0.3-0.6v-0.06l0.96-0.96h0.061l0.6-0.3l0.061-0.06
	L81,99.24h0.06l0.66-0.06h0.061l0.72,0.06h0.06l0.66,0.24v0.06l0.601,0.3h0.06l0.54,0.48v0.06l0.42,0.48h0.06l0.36,0.6v0.06
	l0.18,0.66v0.06l0.061,0.72"/>
<polyline points="85.02,102.96 85.02,103.02 85.5,102.96 85.5,103.02 "/>
<path style="fill-rule:evenodd;clip-rule:evenodd;fill:#B3B3B3;" d="M92.399,88.8l-0.119-0.72L92.1,87.42
	c-1.365-3.191-6-2.716-6.72,0.66l-0.12,0.72l0.12,0.72c0.72,3.376,5.354,3.851,6.72,0.66l0.181-0.66L92.399,88.8"/>
<path d="M92.16,88.86l-0.12-0.72l-0.181-0.66l0.061,0.06l-0.3-0.6V87l-0.48-0.54H91.2l-0.48-0.42v0.06l-0.6-0.3h0.06l-0.72-0.24
	h0.06l-0.66-0.06h0.061l-0.72,0.06h0.06L87.6,85.8L87,86.1l0.06-0.06l-0.54,0.42L86.1,87l0.061-0.06l-0.36,0.6v-0.06l-0.18,0.66
	l-0.12,0.72V88.8l0.12,0.72v-0.06l0.18,0.66v-0.06l0.36,0.6H86.1l0.42,0.54v-0.06l0.54,0.42H87l0.6,0.3V91.8l0.66,0.24H88.2
	l0.72,0.06h-0.061l0.66-0.06h-0.06l0.72-0.24l-0.06,0.06l0.6-0.3l0.48-0.42L91.14,91.2l0.48-0.54l0.3-0.6l-0.061,0.06l0.181-0.66
	v0.06l0.12-0.72l0.479,0.06l-0.12,0.72l-0.18,0.66v0.06l-0.3,0.6l-0.061,0.06L91.5,91.5l-0.48,0.42l-0.06,0.06l-0.601,0.3
	l-0.72,0.24c-0.752,0.089-1.524,0.128-2.22-0.24h-0.061l-0.6-0.3v-0.06c-3.505-2.34-1.188-7.528,2.88-6.84l0.72,0.24v0.06l0.601,0.3
	h0.06l0.48,0.42v0.06l0.479,0.54h0.061l0.3,0.6v0.06l0.18,0.66v0.06l0.12,0.72"/>
<polyline points="92.16,88.8 92.16,88.86 92.64,88.8 92.64,88.86 "/>
<path style="fill-rule:evenodd;clip-rule:evenodd;fill:#B3B3B3;" d="M99.479,102.96l-0.06-0.72l-0.24-0.66
	c-1.517-3.266-5.941-2.651-6.72,0.66l-0.061,0.72l0.061,0.72c0.733,3.395,5.345,3.886,6.72,0.66l0.24-0.66L99.479,102.96"/>
<path d="M99.24,103.02l-0.061-0.72v0.06l-0.24-0.66H99l-0.3-0.6v0.06l-0.96-0.96l0.06,0.06l-0.6-0.3h0.06l-0.66-0.24h0.061
	l-0.721-0.06H96l-0.72,0.06h0.06l-0.66,0.24l-0.6,0.3l0.06-0.06l-0.54,0.48l-0.42,0.48l0.061-0.06l-0.36,0.6v-0.06l-0.18,0.66
	l-0.061,0.72v-0.06l0.061,0.72v-0.06l0.18,0.66v-0.06l0.36,0.6H93.18l0.42,0.54v-0.06l0.54,0.42h-0.06l0.6,0.36l-0.06-0.061
	l0.66,0.181l0.72,0.06h-0.061l0.721-0.06H96.6l0.66-0.181l-0.06,0.061l0.6-0.36l0.48-0.42l-0.061,0.06l0.48-0.54l0.3-0.6
	l-0.061,0.06l0.24-0.66v0.06l0.061-0.72l0.479,0.06l-0.06,0.72v0.06c-0.421,1.274-0.614,1.464-1.62,2.34l-0.601,0.36h-0.06
	c-0.814,0.326-2.051,0.314-2.88,0h-0.061l-0.6-0.36v-0.06c-3.495-2.391-1.159-7.536,2.94-6.84l0.659,0.24v0.06l0.601,0.3h0.06
	l1.021,1.02l0.3,0.6v0.06l0.24,0.66v0.06l0.06,0.72"/>
<polyline points="99.24,102.96 99.24,103.02 99.72,102.96 99.72,103.02 "/>
<path style="fill-rule:evenodd;clip-rule:evenodd;fill:#B3B3B3;" d="M92.399,117.18l-0.119-0.72L92.1,115.8
	c-1.454-3.278-5.955-2.72-6.72,0.66l-0.12,0.72l0.12,0.66c0.638,3.353,5.291,3.934,6.72,0.72l0.181-0.72L92.399,117.18"/>
<path d="M92.16,117.24l-0.12-0.721l-0.181-0.66l0.061,0.061l-0.3-0.601v0.061l-0.48-0.54H91.2l-0.48-0.42v0.06l-0.6-0.359h0.06
	l-0.72-0.181h0.06l-0.66-0.12h0.061l-0.72,0.12l-0.66,0.181h0.06l-0.6,0.359l0.06-0.06l-0.54,0.42l-0.42,0.54l0.061-0.061
	l-0.36,0.601v-0.061l-0.18,0.66l-0.12,0.721v-0.061l0.12,0.66v-0.061l0.18,0.721v-0.061l0.36,0.601H86.1l0.42,0.479v-0.06
	l0.54,0.479H87l0.6,0.301l-0.06-0.061l0.66,0.18l0.72,0.12h-0.061l0.66-0.12h-0.06l0.72-0.18l-0.06,0.061l0.6-0.301h-0.06l0.96-0.96
	v0.061l0.3-0.601l-0.061,0.061l0.181-0.721v0.061l0.12-0.66l0.479,0.061l-0.12,0.659l-0.18,0.721v0.06l-0.3,0.6l-1.08,1.08
	l-0.601,0.301H90.3c-1.316,0.4-1.615,0.368-2.88,0h-0.061l-0.6-0.301v-0.06c-4.826-3.629,1.591-10.046,5.22-5.22h0.061l0.3,0.6
	v0.061l0.18,0.659v0.061l0.12,0.72"/>
<polyline points="92.16,117.18 92.16,117.24 92.64,117.18 92.64,117.24 "/>
<path style="fill-rule:evenodd;clip-rule:evenodd;fill:#B3B3B3;" d="M106.56,117.18l-0.06-0.72l-0.24-0.66
	c-1.375-3.261-5.964-2.742-6.72,0.66l-0.061,0.72l0.061,0.66c0.627,3.372,5.369,3.92,6.72,0.72l0.24-0.72L106.56,117.18"/>
<path d="M106.32,117.24l-0.061-0.721v0.061l-0.24-0.66h0.061l-0.3-0.601v0.061l-0.421-0.54h0.061l-0.54-0.42v0.06l-0.6-0.359h0.06
	l-0.66-0.181h0.061l-0.721-0.12h0.061l-0.721,0.12l-0.659,0.181h0.06l-0.6,0.359l0.06-0.06l-0.54,0.42l-0.42,0.54l0.061-0.061
	l-0.36,0.601v-0.061l-0.18,0.66l-0.061,0.721v-0.061l0.061,0.66v-0.061l0.18,0.721v-0.061l0.36,0.601h-0.061l0.42,0.479v-0.06
	l0.54,0.479h-0.06l0.6,0.301l-0.06-0.061l0.659,0.18l0.721,0.12h-0.061l0.721-0.12h-0.061l0.66-0.18l-0.06,0.061l0.6-0.301
	l0.54-0.479l-0.061,0.06l0.421-0.479l0.3-0.601l-0.061,0.061l0.24-0.721v0.061l0.061-0.66l0.479,0.061l-0.06,0.659v0.061
	c-0.378,1.306-0.621,1.521-1.62,2.399l-0.601,0.301h-0.06c-1.312,0.426-1.625,0.354-2.88,0h-0.061l-0.6-0.301v-0.06
	c-4.831-3.57,1.671-10.092,5.22-5.22h0.061l0.3,0.6v0.061l0.24,0.659v0.061l0.06,0.72"/>
<polyline points="106.32,117.18 106.32,117.24 106.8,117.18 106.8,117.24 "/>
<polyline points="89.1,25.14 89.22,24.96 88.8,24.72 88.68,24.9 "/>
<polyline points="81.96,39.3 81.84,39.48 81.42,39.24 81.54,39.06 "/>
<polyline points="89.1,25.14 88.68,24.9 81.54,39.06 81.96,39.3 "/>
<polyline points="89.1,24.9 88.979,24.72 88.56,24.96 88.68,25.14 "/>
<polyline points="96.18,39.06 96.3,39.24 95.88,39.48 95.76,39.3 "/>
<polyline points="89.1,24.9 88.68,25.14 95.76,39.3 96.18,39.06 "/>
<polyline points="96.18,39.3 96.3,39.12 95.88,38.88 95.76,39.06 "/>
<polyline points="89.1,53.46 88.979,53.64 88.56,53.4 88.68,53.22 "/>
<polyline points="96.18,39.3 95.76,39.06 88.68,53.22 89.1,53.46 "/>
<polyline points="96.18,39.06 96.06,38.88 95.64,39.12 95.76,39.3 "/>
<polyline points="103.26,53.22 103.38,53.4 102.96,53.64 102.84,53.46 "/>
<polyline points="96.18,39.06 95.76,39.3 102.84,53.46 103.26,53.22 "/>
<rect x="85.26" y="21.48" style="fill:#1A1A1A;" width="7.14" height="7.08"/>
<rect x="85.26" y="21.24" width="7.38" height="0.48"/>
<rect x="92.16" y="21.48" width="0.479" height="7.32"/>
<rect x="85.02" y="28.32" width="7.38" height="0.48"/>
<rect x="85.02" y="21.24" width="0.48" height="7.32"/>
<rect x="78.18" y="35.64" style="fill:#1A1A1A;" width="7.08" height="7.08"/>
<rect x="78.18" y="35.4" width="7.32" height="0.48"/>
<rect x="85.02" y="35.64" width="0.48" height="7.32"/>
<rect x="77.939" y="42.48" width="7.32" height="0.48"/>
<rect x="77.939" y="35.4" width="0.48" height="7.32"/>
<rect x="92.399" y="35.64" style="fill:#1A1A1A;" width="7.08" height="7.08"/>
<rect x="92.399" y="35.4" width="7.32" height="0.48"/>
<rect x="99.24" y="35.64" width="0.479" height="7.32"/>
<rect x="92.16" y="42.48" width="7.319" height="0.48"/>
<rect x="92.16" y="35.4" width="0.479" height="7.32"/>
<rect x="85.26" y="49.8" style="fill:#1A1A1A;" width="7.14" height="7.14"/>
<rect x="85.26" y="49.56" width="7.38" height="0.48"/>
<rect x="92.16" y="49.8" width="0.479" height="7.38"/>
<rect x="85.02" y="56.7" width="7.38" height="0.48"/>
<rect x="85.02" y="49.56" width="0.48" height="7.38"/>
<rect x="99.479" y="49.8" style="fill:#1A1A1A;" width="7.08" height="7.14"/>
<rect x="99.479" y="49.56" width="7.32" height="0.48"/>
<rect x="106.32" y="49.8" width="0.479" height="7.38"/>
<rect x="99.24" y="56.7" width="7.319" height="0.48"/>
<rect x="99.24" y="49.56" width="0.479" height="7.38"/>
<polyline points="89.1,145.62 89.22,145.439 88.8,145.2 88.68,145.38 "/>
<polyline points="81.96,159.779 81.84,159.96 81.42,159.72 81.54,159.54 "/>
<polyline points="89.1,145.62 88.68,145.38 81.54,159.54 81.96,159.779 "/>
<polyline points="89.1,145.38 88.979,145.2 88.56,145.439 88.68,145.62 "/>
<polyline points="96.18,159.54 96.3,159.72 95.88,159.96 95.76,159.779 "/>
<polyline points="89.1,145.38 88.68,145.62 95.76,159.779 96.18,159.54 "/>
<path style="fill-rule:evenodd;clip-rule:evenodd;fill:#B3B3B3;" d="M92.399,145.5l-0.119-0.721L92.1,144.12
	c-1.365-3.191-6-2.717-6.72,0.659l-0.12,0.721l0.12,0.72c0.72,3.376,5.354,3.851,6.72,0.66l0.181-0.66L92.399,145.5"/>
<path d="M92.16,145.56l-0.12-0.72l-0.181-0.66l0.061,0.061l-0.3-0.601v0.061l-0.48-0.54H91.2l-0.48-0.42v0.06l-0.6-0.3h0.06
	l-0.72-0.24h0.06l-0.66-0.06h0.061l-0.72,0.06h0.06l-0.66,0.24l-0.6,0.3l0.06-0.06l-0.54,0.42l-0.42,0.54l0.061-0.061l-0.36,0.601
	v-0.061l-0.18,0.66l-0.12,0.72v-0.06l0.12,0.72v-0.06l0.18,0.659v-0.06l0.36,0.6H86.1l0.42,0.54v-0.06l0.54,0.42H87l0.6,0.3v-0.06
	l0.66,0.24H88.2l0.72,0.06h-0.061l0.66-0.06h-0.06l0.72-0.24l-0.06,0.06l0.6-0.3l0.48-0.42l-0.061,0.06l0.48-0.54l0.3-0.6
	l-0.061,0.06l0.181-0.659v0.06l0.12-0.72l0.479,0.06l-0.12,0.72l-0.18,0.66V147l-0.3,0.6l-0.061,0.061L91.5,148.2l-0.48,0.42
	l-0.06,0.06l-0.601,0.3l-0.72,0.24c-0.752,0.089-1.524,0.128-2.22-0.24h-0.061l-0.6-0.3v-0.06c-3.505-2.341-1.188-7.528,2.88-6.841
	l0.72,0.24v0.061l0.601,0.3h0.06l0.48,0.42v0.06l0.479,0.54h0.061l0.3,0.601v0.06l0.18,0.66v0.06l0.12,0.721"/>
<polyline points="92.16,145.5 92.16,145.56 92.64,145.5 92.64,145.56 "/>
<path style="fill-rule:evenodd;clip-rule:evenodd;fill:#B3B3B3;" d="M85.26,159.66l-0.06-0.721l-0.181-0.66
	c-1.438-3.151-6.022-2.765-6.72,0.66l-0.12,0.721l0.12,0.72c0.706,3.44,5.269,3.844,6.72,0.66l0.181-0.66L85.26,159.66"/>
<path d="M85.02,159.72L84.96,159l-0.18-0.66l0.06,0.06l-0.36-0.6v0.06l-0.42-0.54h0.061l-0.54-0.42v0.061l-0.601-0.3h0.061
	l-0.66-0.24h0.06l-0.72-0.061h0.061l-0.66,0.061h0.06l-0.72,0.24l-0.601,0.3l0.061-0.061l-0.48,0.42l-0.479,0.54l0.06-0.06l-0.3,0.6
	v-0.06L78.54,159l-0.12,0.72v-0.06l0.12,0.72v-0.061l0.18,0.66v-0.06l0.3,0.6h-0.06l0.479,0.54V162l0.48,0.42h-0.061l0.601,0.359
	l-0.061-0.06l0.721,0.18l0.66,0.061H81.72l0.72-0.061h-0.06l0.66-0.18l-0.061,0.06l0.601-0.359l0.54-0.42l-0.061,0.06l0.42-0.54
	l0.36-0.6l-0.06,0.06l0.18-0.66v0.061l0.06-0.72l0.48,0.06l-0.061,0.72l-0.18,0.66v0.061l-0.36,0.6l-0.06,0.06l-0.42,0.54
	l-0.54,0.42l-0.06,0.061l-0.601,0.36h-0.06c-0.899,0.345-1.975,0.295-2.88,0H80.22l-0.6-0.36v-0.061l-0.48-0.42h-0.06l-0.48-0.54
	v-0.06l-0.3-0.6l-0.06-0.061l-0.181-0.66l-0.12-0.72v-0.06l0.12-0.721v-0.06l0.181-0.66l0.06-0.06
	c0.662-1.601,2.503-2.567,4.2-2.221h0.06l0.66,0.24v0.061l0.601,0.3h0.06l0.54,0.42v0.06l0.42,0.54h0.06l0.36,0.601v0.06l0.18,0.66
	v0.06l0.061,0.721"/>
<polyline points="85.02,159.66 85.02,159.72 85.5,159.66 85.5,159.72 "/>
<path style="fill-rule:evenodd;clip-rule:evenodd;fill:#B3B3B3;" d="M99.479,159.66l-0.06-0.721l-0.24-0.66
	c-1.358-3.195-6.004-2.712-6.72,0.66l-0.061,0.721l0.061,0.72c0.733,3.394,5.345,3.886,6.72,0.66l0.24-0.66L99.479,159.66"/>
<path d="M99.24,159.72L99.18,159v0.06l-0.24-0.66H99l-0.3-0.6v0.06l-0.48-0.54h0.061l-0.48-0.42v0.061l-0.6-0.3h0.06l-0.66-0.24
	h0.061l-0.721-0.061H96l-0.72,0.061h0.06l-0.66,0.24l-0.6,0.3l0.06-0.061l-0.54,0.42l-0.42,0.54l0.061-0.06l-0.36,0.6v-0.06
	L92.7,159l-0.061,0.72v-0.06l0.061,0.72v-0.061l0.18,0.66v-0.06l0.36,0.6H93.18l0.42,0.54V162l0.54,0.42h-0.06l0.6,0.359l-0.06-0.06
	l0.66,0.18L96,162.96h-0.061l0.721-0.061H96.6l0.66-0.18l-0.06,0.06l0.6-0.359l0.48-0.42l-0.061,0.06l0.48-0.54l0.3-0.6l-0.061,0.06
	l0.24-0.66v0.061l0.061-0.72l0.479,0.06l-0.06,0.72v0.061c-0.421,1.273-0.614,1.464-1.62,2.34l-0.601,0.36h-0.06
	c-0.814,0.325-2.051,0.314-2.88,0h-0.061l-0.6-0.36v-0.061c-3.483-2.373-1.182-7.561,2.94-6.84l0.659,0.24v0.061l0.601,0.3h0.06
	l0.48,0.42v0.06l0.479,0.54h0.061l0.3,0.601v0.06l0.24,0.66v0.06l0.06,0.721"/>
<polyline points="99.24,159.66 99.24,159.72 99.72,159.66 99.72,159.72 "/>
<rect x="28.38" y="28.32" width="0.479" height="0.24"/>
<rect x="28.38" y="28.56" width="0.479" height="28.62"/>
<rect x="28.38" y="85.02" width="0.479" height="0.24"/>
<rect x="28.38" y="85.26" width="0.479" height="28.56"/>
<rect x="28.38" y="42.48" width="0.24" height="0.48"/>
<rect x="28.62" y="42.48" width="3.96" height="0.48"/>
<rect x="38.7" y="42.48" width="0.239" height="0.48"/>
<rect x="38.939" y="42.48" width="7.86" height="0.48"/>
<rect x="52.92" y="42.48" width="0.24" height="0.48"/>
<rect x="53.16" y="42.48" width="7.859" height="0.48"/>
<rect x="67.14" y="42.48" width="0.24" height="0.48"/>
<rect x="67.38" y="42.48" width="3.96" height="0.48"/>
<rect x="28.38" y="99.18" width="0.24" height="0.48"/>
<rect x="28.62" y="99.18" width="3.96" height="0.48"/>
<rect x="38.7" y="99.18" width="0.239" height="0.48"/>
<rect x="38.939" y="99.18" width="7.86" height="0.48"/>
<rect x="52.92" y="99.18" width="0.24" height="0.48"/>
<rect x="53.16" y="99.18" width="7.859" height="0.48"/>
<rect x="67.14" y="99.18" width="0.24" height="0.48"/>
<rect x="67.38" y="99.18" width="3.96" height="0.48"/>
<rect x="28.38" y="155.88" width="0.24" height="0.479"/>
<rect x="28.62" y="155.88" width="3.96" height="0.479"/>
<rect x="38.7" y="155.88" width="0.239" height="0.479"/>
<rect x="38.939" y="155.88" width="7.86" height="0.479"/>
<rect x="52.92" y="155.88" width="0.24" height="0.479"/>
<rect x="53.16" y="155.88" width="7.859" height="0.479"/>
<rect x="67.14" y="155.88" width="0.24" height="0.479"/>
<rect x="67.38" y="155.88" width="3.96" height="0.479"/>
<text transform="matrix(1 0 0 1 116.1602 29.9399)"><tspan x="0" y="0" style="font-family:'Proforma-Book'; font-size:9;">protoco</tspan><tspan x="29.061" y="0" style="font-family:'Proforma-Book'; font-size:9;">l</tspan></text>
<text transform="matrix(1 0 0 1 116.1602 40.6797)"><tspan x="0" y="0" style="font-family:'Proforma-Book'; font-size:9;">o</tspan><tspan x="4.635" y="0" style="font-family:'Proforma-Book'; font-size:9;">b</tspan><tspan x="9.369" y="0" style="font-family:'Proforma-Book'; font-size:9;">j</tspan><tspan x="11.718" y="0" style="font-family:'Proforma-Book'; font-size:9;">e</tspan><tspan x="15.795" y="0" style="font-family:'Proforma-Book'; font-size:9;">ct</tspan><tspan x="22.697" y="0" style="font-family:'Proforma-Book'; font-size:9;"> </tspan><tspan x="24.497" y="0" style="font-family:'Proforma-Book'; font-size:9;">mod</tspan><tspan x="41.472" y="0" style="font-family:'Proforma-Book'; font-size:9;">e</tspan><tspan x="45.548" y="0" style="font-family:'Proforma-Book'; font-size:9;">l</tspan><tspan x="48.186" y="0" style="font-family:'Proforma-Book'; font-size:9;">s</tspan></text>
<text transform="matrix(1 0 0 1 116.1602 98.4595)"><tspan x="0" y="0" style="font-family:'Proforma-Book'; font-size:9;">Dmt</tspan><tspan x="17.01" y="0" style="font-family:'Proforma-Book'; font-size:9;"> </tspan><tspan x="18.81" y="0" style="font-family:'Proforma-Book'; font-size:9;">Ad</tspan><tspan x="29.564" y="0" style="font-family:'Proforma-Book'; font-size:9;">m</tspan><tspan x="37.188" y="0" style="font-family:'Proforma-Book'; font-size:9;">i</tspan><tspan x="39.878" y="0" style="font-family:'Proforma-Book'; font-size:9;">n</tspan><tspan x="45.035" y="0" style="font-family:'Proforma-Book'; font-size:9;"> </tspan><tspan x="46.781" y="0" style="font-family:'Proforma-Book'; font-size:9;">object</tspan><tspan x="69.461" y="0" style="font-family:'Proforma-Book'; font-size:9;"> </tspan><tspan x="71.261" y="0" style="font-family:'Proforma-Book'; font-size:9;">model</tspan><tspan x="94.957" y="0" style="font-family:'Proforma-Book'; font-size:9;">s</tspan></text>
<text transform="matrix(1 0 0 1 116.1602 155.459)"><tspan x="0" y="0" style="font-family:'Proforma-Book'; font-size:9;">Dmt</tspan><tspan x="17.01" y="0" style="font-family:'Proforma-Book'; font-size:9;"> </tspan><tspan x="18.81" y="0" style="font-family:'Proforma-Book'; font-size:9;">Ad</tspan><tspan x="29.564" y="0" style="font-family:'Proforma-Book'; font-size:9;">m</tspan><tspan x="37.188" y="0" style="font-family:'Proforma-Book'; font-size:9;">i</tspan><tspan x="39.878" y="0" style="font-family:'Proforma-Book'; font-size:9;">n</tspan><tspan x="45.035" y="0" style="font-family:'Proforma-Book'; font-size:9;"> </tspan><tspan x="46.781" y="0" style="font-family:'Proforma-Book'; font-size:9;">object</tspan><tspan x="69.461" y="0" style="font-family:'Proforma-Book'; font-size:9;"> </tspan><tspan x="71.261" y="0" style="font-family:'Proforma-Book'; font-size:9;">mode</tspan><tspan x="92.312" y="0" style="font-family:'Proforma-Book'; font-size:9;">l</tspan></text>
</svg>
