<?xml version="1.0" encoding="utf-8"?>
<!-- Generator: Adobe Illustrator 16.0.0, SVG Export Plug-In . SVG Version: 6.00 Build 0)  -->
<!DOCTYPE svg PUBLIC "-//W3C//DTD SVG 1.1//EN" "http://www.w3.org/Graphics/SVG/1.1/DTD/svg11.dtd">
<svg version="1.1" id="Layer_1" xmlns="http://www.w3.org/2000/svg" xmlns:xlink="http://www.w3.org/1999/xlink" x="0px" y="0px"
	 width="337.22px" height="112.674px" viewBox="0 0 337.22 112.674" style="enable-background:new 0 0 337.22 112.674;"
	 xml:space="preserve">
<polyline points="163.425,10.848 163.604,10.667 163.245,10.308 163.064,10.487 "/>
<polyline points="135.105,39.167 134.925,39.348 134.565,38.987 134.745,38.808 "/>
<polyline points="163.425,10.848 163.064,10.487 134.745,38.808 135.105,39.167 "/>
<polyline points="163.425,10.487 163.245,10.308 162.885,10.667 163.064,10.848 "/>
<polyline points="191.805,38.808 191.985,38.988 191.625,39.348 191.445,39.167 "/>
<polyline points="163.425,10.487 163.064,10.848 191.445,39.167 191.805,38.808 "/>
<polyline points="163.365,10.427 163.125,10.368 162.945,10.848 163.185,10.908 "/>
<polyline points="248.445,38.748 248.685,38.808 248.505,39.288 248.265,39.228 "/>
<polyline points="163.365,10.427 163.185,10.908 248.265,39.228 248.445,38.748 "/>
<polyline points="163.365,10.908 163.604,10.848 163.425,10.368 163.185,10.427 "/>
<polyline points="78.345,39.228 78.105,39.288 77.925,38.808 78.165,38.748 "/>
<polyline points="163.365,10.908 163.185,10.427 78.165,38.748 78.345,39.228 "/>
<polyline points="191.805,39.167 191.985,38.987 191.625,38.627 191.445,38.808 "/>
<polyline points="163.425,67.547 163.245,67.728 162.885,67.368 163.064,67.188 "/>
<polyline points="191.805,39.167 191.445,38.808 163.064,67.188 163.425,67.547 "/>
<polyline points="191.805,38.808 191.625,38.627 191.265,38.988 191.445,39.167 "/>
<polyline points="220.125,67.188 220.305,67.368 219.945,67.728 219.765,67.547 "/>
<polyline points="191.805,38.808 191.445,39.167 219.765,67.547 220.125,67.188 "/>
<polyline points="220.125,67.547 220.305,67.368 219.945,67.007 219.765,67.188 "/>
<polyline points="191.805,95.868 191.625,96.047 191.265,95.688 191.445,95.507 "/>
<polyline points="220.125,67.547 219.765,67.188 191.445,95.507 191.805,95.868 "/>
<rect x="219.705" y="67.127" width="0.479" height="0.24"/>
<rect x="219.705" y="67.368" width="0.479" height="28.56"/>
<polyline points="220.125,67.188 219.945,67.007 219.585,67.368 219.765,67.547 "/>
<polyline points="248.505,95.507 248.685,95.688 248.325,96.047 248.145,95.868 "/>
<polyline points="220.125,67.188 219.765,67.547 248.145,95.868 248.505,95.507 "/>
<text transform="matrix(1 0 0 1 301.8447 8.2676)"><tspan x="0" y="0" style="font-family:'ProductusOSGiBookc'; font-size:7.98;">r</tspan><tspan x="2.043" y="0" style="font-family:'ProductusOSGiBookc'; font-size:7.98;">o</tspan><tspan x="5.817" y="0" style="font-family:'ProductusOSGiBookc'; font-size:7.98;">o</tspan><tspan x="9.544" y="0" style="font-family:'ProductusOSGiBookc'; font-size:7.98;">t</tspan><tspan x="11.882" y="0" style="font-family:'ProductusOSGiBookc'; font-size:7.98;"> </tspan><tspan x="13.502" y="0" style="font-family:'ProductusOSGiBookc'; font-size:7.98;">n</tspan><tspan x="17.156" y="0" style="font-family:'ProductusOSGiBookc'; font-size:7.98;">o</tspan><tspan x="20.931" y="0" style="font-family:'ProductusOSGiBookc'; font-size:7.98;">de</tspan></text>
<text transform="matrix(1 0 0 1 175.8447 6.6475)" style="font-family:'ProductusBook'; font-size:7.98;">.</text>
<text transform="matrix(1 0 0 1 200.8643 41.4478)"><tspan x="0" y="0" style="font-family:'ProductusSemibold'; font-size:7.98;">V</tspan><tspan x="4.501" y="0" style="font-family:'ProductusSemibold'; font-size:7.98;">e</tspan><tspan x="8.634" y="0" style="font-family:'ProductusSemibold'; font-size:7.98;">n</tspan><tspan x="12.888" y="0" style="font-family:'ProductusSemibold'; font-size:7.98;">do</tspan><tspan x="21.521" y="0" style="font-family:'ProductusSemibold'; font-size:7.98;">r</tspan></text>
<path style="fill-rule:evenodd;clip-rule:evenodd;fill:#808080;" d="M170.325,10.667v-0.72l-0.12-0.72
	c-1.908-7.886-12.857-7.409-13.98,0.72l-0.06,0.72l0.06,0.72c1.119,8.111,12.075,8.585,13.98,0.72l0.12-0.72V10.667"/>
<path d="M170.085,10.667v-0.72v0.06l-0.12-0.72l-0.18-0.66v0.06l-0.24-0.66h0.06l-0.3-0.6l-0.359-0.6l-0.36-0.54v0.06l-0.48-0.54
	h0.061l-0.48-0.42v0.06l-0.6-0.42l-0.54-0.36h0.06l-0.659-0.3l-0.66-0.24l-0.66-0.18h0.06l-0.72-0.12h-1.44h0.061l-0.66,0.12
	l-0.72,0.18h0.06l-0.66,0.24l-0.6,0.3l-0.6,0.36l0.06-0.06l-0.54,0.42l-0.48,0.42l-0.48,0.54l-0.42,0.54l0.06-0.06l-0.6,1.2
	l-0.24,0.66v-0.06l-0.18,0.66l-0.12,0.72l-0.06,0.72v-0.06l0.06,0.72l0.12,0.72v-0.06l0.18,0.66l0.24,0.66v-0.06l0.6,1.2h-0.06
	l0.42,0.54v-0.06l0.96,0.96l-0.3,0.36h-0.06l-0.96-0.96l-0.42-0.54v-0.06l-0.6-1.2h-0.06l-0.24-0.66v-0.06
	c-0.81-2.305-0.154-4.908,1.32-6.78l0.48-0.54l0.06-0.06c1.864-1.868,4.738-2.624,7.26-1.8h0.06l0.66,0.24v0.06l0.66,0.3
	c0.959,0.602,1.46,0.859,2.16,1.8h0.06l0.36,0.54c0.677,0.997,1.061,2.166,1.199,3.36v0.72"/>
<path d="M158.925,15.948l0.54,0.42h-0.06l0.6,0.36l0.6,0.3v-0.06l0.66,0.24h-0.06l0.72,0.18l0.66,0.06l0.72,0.06h-0.06l1.439-0.12
	h-0.06l0.66-0.18l0.66-0.24v0.06l0.659-0.3h-0.06l0.54-0.36l0.6-0.42h-0.06l0.96-0.96v0.06l0.36-0.54l0.359-0.6l0.3-0.6l-0.06,0.06
	l0.24-0.66l0.18-0.66v0.06l0.12-0.72v-0.72h0.479v0.72c-0.213,1.958-1.075,3.636-2.579,4.92v0.06l-0.601,0.42h-0.06
	c-0.644,0.559-2.42,1.184-3.301,1.14l-0.72,0.06h-0.06l-0.721-0.06l-0.659-0.06h-0.061l-0.72-0.18l-0.66-0.24h-0.06l-0.6-0.3
	l-0.6-0.36v-0.06l-0.54-0.42"/>
<rect x="184.545" y="88.607" style="fill:#F7F7F7;" width="14.16" height="14.16"/>
<rect x="184.545" y="88.368" width="14.4" height="0.48"/>
<rect x="198.465" y="88.607" width="0.48" height="14.4"/>
<rect x="184.305" y="102.527" width="14.4" height="0.48"/>
<rect x="184.305" y="88.368" width="0.48" height="14.4"/>
<path style="fill-rule:evenodd;clip-rule:evenodd;fill:#B3B3B3;" d="M142.005,38.987l-0.12-1.44
	c-1.981-7.883-12.875-7.331-14.04,0.72v1.44c1.14,8.068,12.079,8.638,14.04,0.72L142.005,38.987"/>
<path d="M141.765,39.047l-0.12-1.44l-0.18-0.66v0.06l-0.24-0.66h0.06l-0.3-0.6l-0.36-0.6v0.06l-0.42-0.54l-0.96-0.96h0.06
	l-0.54-0.42v0.06l-0.6-0.36l-0.6-0.3h0.06l-0.66-0.24h0.06l-0.66-0.12l-0.72-0.12l-0.72-0.06h0.06l-0.72,0.06l-0.72,0.12l-0.66,0.12
	h0.06l-0.66,0.24l-0.6,0.3l-0.6,0.36l0.06-0.06l-0.54,0.42l-0.54,0.48l-0.42,0.48l-0.42,0.54l0.06-0.06l-0.36,0.6l-0.3,0.6
	l-0.24,0.66v-0.06l-0.18,0.66l-0.12,0.72v-0.06v1.44l0.12,0.72v-0.06l0.18,0.66l0.24,0.66l0.3,0.66v-0.06l0.36,0.54h-0.06l0.84,1.08
	v-0.06l0.54,0.42l-0.3,0.36l-0.54-0.42h-0.06l-0.84-1.08v-0.06l-0.36-0.54l-0.3-0.66h-0.06l-0.24-0.66v-0.06
	c-0.748-2.309-0.207-4.948,1.38-6.78l0.42-0.48l0.06-0.06c1.948-1.991,4.663-2.558,7.32-1.86h0.06l0.66,0.24v0.06l0.6,0.3
	c1.022,0.48,1.954,1.418,2.58,2.34h0.06l0.36,0.6c0.401,0.746,0.813,1.903,0.78,2.76l0.06,0.72"/>
<path d="M130.605,44.268l0.54,0.42h-0.06l0.6,0.36l0.6,0.3v-0.06l0.66,0.24h-0.06l0.66,0.18l0.72,0.12h-0.06h1.44l0.72-0.12h-0.06
	l0.66-0.18l0.66-0.24l-0.06,0.06l0.6-0.3l0.6-0.36l0.54-0.42l0.48-0.42l-0.06,0.06l0.48-0.54l0.42-0.54l0.36-0.54v0.06l0.3-0.66
	h-0.06l0.24-0.66l0.18-0.66v0.06l0.12-1.44v0.06l0.48-0.06v0.06c0.008,5.531-5.919,9.009-10.8,6.42l-0.6-0.36v-0.06l-0.54-0.42"/>
<path style="fill-rule:evenodd;clip-rule:evenodd;fill:#B3B3B3;" d="M198.705,38.987l-0.061-0.72l-0.06-0.72
	c-1.981-7.883-12.875-7.331-14.04,0.72v1.44c1.14,8.068,12.079,8.638,14.04,0.72l0.06-0.72L198.705,38.987"/>
<path d="M198.465,39.047l-0.12-1.44l-0.18-0.66v0.06l-0.24-0.66h0.061l-0.301-0.6l-0.359-0.6v0.06l-0.42-0.54l-0.96-0.96h0.06
	l-0.54-0.42v0.06l-0.6-0.36l-0.601-0.3h0.061l-0.66-0.24h0.06l-0.66-0.12l-0.72-0.12l-0.72-0.06h0.06l-0.72,0.06l-0.72,0.12
	l-0.66,0.12h0.06l-0.659,0.24l-0.601,0.3l-0.6,0.36l0.06-0.06l-0.54,0.42l-0.54,0.48l-0.42,0.48l-0.42,0.54l0.061-0.06l-0.36,0.6
	l-0.3,0.6l-0.24,0.66v-0.06l-0.18,0.66l-0.12,0.72v-0.06v1.44l0.12,0.72v-0.06l0.18,0.66l0.24,0.66l0.3,0.66v-0.06l0.36,0.54h-0.061
	l0.84,1.08v-0.06l0.54,0.42l-0.3,0.36l-0.54-0.42h-0.06l-0.841-1.08v-0.06l-0.359-0.54l-0.3-0.66h-0.061l-0.24-0.66v-0.06
	c-0.748-2.309-0.207-4.948,1.381-6.78l0.42-0.48l0.06-0.06c1.948-1.991,4.663-2.558,7.32-1.86h0.06l0.66,0.24v0.06l0.6,0.3
	c1.022,0.48,1.955,1.418,2.58,2.34h0.061l0.359,0.6c0.401,0.746,0.813,1.903,0.78,2.76l0.061,0.72"/>
<path d="M187.305,44.268l0.54,0.42h-0.06l0.6,0.36l0.601,0.3v-0.06l0.659,0.24h-0.06l0.66,0.18l0.72,0.12h-0.06h1.439l0.72-0.12
	h-0.06l0.66-0.18l0.66-0.24l-0.061,0.06l0.601-0.3l0.6-0.36l0.54-0.42l0.48-0.42l-0.061,0.06l0.48-0.54l0.42-0.54l0.359-0.54v0.06
	l0.301-0.66h-0.061l0.24-0.66l0.18-0.66v0.06l0.12-1.44v0.06l0.48-0.06v0.06c0.008,5.531-5.92,9.009-10.801,6.42l-0.6-0.36v-0.06
	l-0.54-0.42"/>
<path style="fill-rule:evenodd;clip-rule:evenodd;fill:#B3B3B3;" d="M255.405,38.987l-0.061-0.72l-0.12-0.72
	c-1.777-7.885-12.913-7.305-13.979,0.72v1.44c1.038,8.038,12.223,8.643,13.979,0.72l0.12-0.72L255.405,38.987"/>
<path d="M255.165,39.047l-0.061-0.72l-0.119-0.72l-0.12-0.66v0.06l-0.24-0.66h0.06l-0.3-0.6l-0.36-0.6v0.06l-0.42-0.54l-0.96-0.96
	h0.061l-0.54-0.42v0.06l-0.601-0.36l-0.6-0.3h0.06l-0.659-0.24h0.06l-0.66-0.12l-0.72-0.12l-0.72-0.06h0.06l-0.72,0.06l-0.72,0.12
	l-0.66,0.12h0.06l-0.66,0.24l-0.66,0.3l-0.539,0.36l0.06-0.06l-0.54,0.42l-0.54,0.48l-0.42,0.48l-0.42,0.54l0.06-0.06l-0.359,0.6
	l-0.301,0.6l-0.239,0.66v-0.06l-0.181,0.66l-0.119,0.72v-0.06v1.44l0.119,0.72v-0.06l0.181,0.66l0.239,0.66l0.301,0.66v-0.06
	l0.359,0.54h-0.06l0.84,1.08v-0.06l0.54,0.42l-0.3,0.36l-0.54-0.42h-0.061l-0.84-1.08v-0.06l-0.359-0.54l-0.301-0.66h-0.06
	l-0.24-0.66v-0.06c-0.447-1.22-0.412-3.101,0-4.32l0.24-0.66l0.06-0.06c0.651-1.506,1.793-2.69,3.181-3.54h0.06l0.66-0.3v-0.06
	l0.66-0.24h0.06l0.66-0.12l0.72-0.12l0.721-0.06h0.06l0.72,0.06l0.721,0.12l0.66,0.12h0.06l0.66,0.24v0.06l0.6,0.3
	c1.022,0.48,1.954,1.418,2.58,2.34h0.061l0.359,0.6c0.566,1.035,0.591,1.603,0.78,2.76l0.06,0.72"/>
<path d="M244.005,44.268l0.54,0.42h-0.06l0.539,0.36l0.66,0.3v-0.06l0.66,0.24h-0.06l0.66,0.18l0.72,0.12h-0.061h1.44l0.72-0.12
	h-0.06l0.66-0.18l0.659-0.24l-0.06,0.06l0.6-0.3l0.601-0.36l0.54-0.42l0.479-0.42l-0.06,0.06l0.479-0.54l0.42-0.54l0.36-0.54v0.06
	l0.3-0.66h-0.06l0.24-0.66v0.06l0.12-0.66l0.119-0.72l0.061-0.72v0.06l0.479-0.06v0.06l-0.06,0.72
	c-0.211,2.417-1.285,3.887-3.18,5.34l-0.601,0.36l-0.6,0.3c-2.027,0.846-4.417,0.737-6.36-0.3h-0.06l-0.54-0.36v-0.06l-0.54-0.42"/>
<path style="fill-rule:evenodd;clip-rule:evenodd;fill:#B3B3B3;" d="M85.305,38.987v-0.72l-0.12-0.72
	c-1.953-7.878-12.881-7.335-14.04,0.72v1.44c1.148,8.071,12.085,8.643,14.04,0.72l0.12-0.72V38.987"/>
<path d="M85.065,38.987v-0.72v0.06l-0.12-0.72l-0.18-0.66v0.06l-0.24-0.66h0.06l-0.3-0.6l-0.36-0.6v0.06l-0.42-0.54l-0.42-0.48h0.06
	l-0.54-0.48l-0.54-0.42v0.06l-0.6-0.36l-0.6-0.3h0.06l-0.66-0.24h0.06l-0.66-0.12l-0.72-0.12l-0.72-0.06h0.06l-0.72,0.06l-0.72,0.12
	l-0.66,0.12h0.06l-0.66,0.24l-0.6,0.3l-0.6,0.36l0.06-0.06l-0.54,0.42l-0.54,0.48l-0.42,0.48l-0.42,0.54l0.06-0.06l-0.36,0.6
	l-0.3,0.6l-0.24,0.66v-0.06l-0.18,0.66l-0.12,0.72v-0.06v1.44l0.12,0.72v-0.06l0.18,0.66l0.24,0.66l0.3,0.66v-0.06l0.36,0.54h-0.06
	l0.84,1.08v-0.06l0.54,0.42l-0.3,0.36l-0.54-0.42h-0.06l-0.84-1.08v-0.06l-0.36-0.54l-0.3-0.66h-0.06l-0.24-0.66v-0.06
	c-0.748-2.309-0.207-4.948,1.38-6.78l0.42-0.48l0.06-0.06c1.948-1.991,4.663-2.558,7.32-1.86h0.06l0.66,0.24v0.06l0.6,0.3
	c1.225,0.625,1.775,1.255,2.58,2.34h0.06l0.36,0.6c0.445,0.809,0.738,1.839,0.84,2.76v0.72"/>
<path d="M73.905,44.268l0.54,0.42h-0.06l0.6,0.36l0.6,0.3v-0.06l0.66,0.24h-0.06l0.66,0.18l0.72,0.12h-0.06h1.44l0.72-0.12h-0.06
	l0.66-0.18l0.66-0.24l-0.06,0.06l0.6-0.3l0.6-0.36l1.08-0.84l-0.06,0.06l0.84-1.08l0.36-0.54v0.06l0.3-0.66h-0.06l0.24-0.66
	l0.18-0.66v0.06l0.12-0.72v-0.72h0.48v0.72c-0.546,5.236-6.133,8.211-10.8,5.76l-0.6-0.36v-0.06l-0.54-0.42"/>
<path style="fill-rule:evenodd;clip-rule:evenodd;fill:#B3B3B3;" d="M170.325,67.368v-0.72l-0.12-0.72
	c-1.881-7.878-12.878-7.41-13.98,0.72l-0.06,0.72l0.06,0.72c1.097,8.105,12.109,8.557,13.98,0.72l0.12-0.72V67.368"/>
<path d="M170.085,67.368v-0.72v0.06l-0.12-0.72l-0.18-0.66v0.06l-0.24-0.66h0.06l-0.3-0.66l-0.72-1.08v0.06l-0.48-0.54h0.061
	l-0.48-0.42v0.06l-0.6-0.42l-0.54-0.36h0.06l-0.659-0.3l-0.66-0.24l-0.66-0.18h0.06l-0.72-0.12h-1.44h0.061l-0.66,0.12l-0.72,0.18
	h0.06l-0.66,0.24l-0.6,0.3l-0.6,0.36l0.06-0.06l-0.54,0.42l-0.48,0.42l-0.48,0.54l-0.42,0.54l0.06-0.06l-0.3,0.54l-0.3,0.66
	l-0.24,0.66v-0.06l-0.18,0.66l-0.12,0.72l-0.06,0.72v-0.06l0.06,0.72l0.12,0.72v-0.06l0.18,0.66l0.24,0.66v-0.06l0.6,1.2h-0.06
	l0.42,0.54v-0.06l0.96,0.96l-0.3,0.36h-0.06l-0.96-0.96l-0.42-0.54v-0.06l-0.6-1.2h-0.06l-0.24-0.66v-0.06l-0.18-0.66l-0.12-0.72
	l-0.06-0.72v-0.06l0.06-0.72l0.12-0.72v-0.06l0.18-0.66l0.24-0.66h0.06l0.3-0.66v-0.06c0.669-1.354,2.103-2.592,3.48-3.18l0.06-0.06
	l0.66-0.24c1.309-0.398,3.018-0.461,4.32,0h0.06l0.66,0.24v0.06l0.66,0.3c0.959,0.602,1.46,0.859,2.16,1.8h0.06l0.36,0.54
	c0.617,0.816,1.1,2.329,1.199,3.36v0.72"/>
<path d="M158.925,72.647l0.54,0.42h-0.06l0.6,0.36l0.6,0.3v-0.06l0.66,0.24h-0.06l0.72,0.12l0.66,0.12l0.72,0.06h-0.06l0.72-0.06
	l0.72-0.12l0.66-0.12h-0.06l0.66-0.24v0.06l0.659-0.3h-0.06l0.54-0.36l0.6-0.42h-0.06l0.96-0.96v0.06l0.36-0.54l0.359-0.6l0.3-0.6
	l-0.06,0.06l0.24-0.66l0.18-0.66v0.06l0.12-0.72v-0.72h0.479v0.72c-0.213,1.958-1.075,3.636-2.579,4.92v0.06l-0.601,0.42h-0.06
	c-1.111,0.815-2.001,0.955-3.301,1.14l-0.72,0.06h-0.06l-0.721-0.06l-0.659-0.12l-0.72-0.12h-0.06l-0.66-0.24h-0.06l-0.6-0.3
	l-0.6-0.36v-0.06l-0.54-0.42"/>
<path style="fill-rule:evenodd;clip-rule:evenodd;fill:#B3B3B3;" d="M227.024,67.368v-0.72l-0.119-0.72
	c-1.874-7.908-12.999-7.347-13.98,0.72l-0.06,0.72l0.06,0.72c0.993,8.014,12.054,8.63,13.98,0.72l0.119-0.72V67.368"/>
<path d="M226.785,67.368v-0.72v0.06l-0.12-0.72l-0.18-0.66v0.06l-0.24-0.66h0.06l-0.3-0.66l-0.36-0.54v0.06l-0.84-1.08h0.061
	l-1.08-0.84v0.06l-0.54-0.36h0.06l-0.66-0.3l-0.659-0.24l-0.66-0.18h0.06l-0.72-0.12h-1.44h0.061l-0.721,0.12l-0.659,0.18h0.06
	l-0.66,0.24l-0.6,0.3l-0.601,0.36l0.061-0.06l-0.54,0.42l-0.48,0.42l-0.479,0.54l-0.42,0.54l0.06-0.06l-0.359,0.54l-0.301,0.66
	l-0.239,0.66v-0.06l-0.12,0.66l-0.12,0.72l-0.061,0.72v-0.06l0.061,0.72l0.12,0.72l0.12,0.66v-0.06l0.239,0.66v-0.06l0.301,0.6
	l0.359,0.6h-0.06l0.42,0.54v-0.06l0.96,0.96l-0.3,0.36h-0.061l-0.96-0.96l-0.42-0.54v-0.06l-0.36-0.6l-0.3-0.6h-0.06l-0.24-0.66
	v-0.06l-0.12-0.66l-0.12-0.72l-0.06-0.72v-0.06l0.06-0.72l0.12-0.72l0.12-0.66v-0.06l0.24-0.66h0.06l0.3-0.66v-0.06
	c0.851-1.387,2.034-2.529,3.54-3.18l0.061-0.06l0.66-0.24c1.219-0.412,3.099-0.447,4.319,0h0.061l0.66,0.24v0.06l0.66,0.3
	c1.396,0.882,1.562,0.991,2.52,2.34h0.06l0.36,0.54v0.06l0.3,0.66l0.24,0.66l0.18,0.66v0.06l0.12,0.72v0.72"/>
<path d="M215.625,72.647l0.54,0.42h-0.061l0.601,0.36l0.6,0.3v-0.06l0.66,0.24h-0.06l0.659,0.12l0.721,0.12l0.72,0.06h-0.06
	l0.72-0.06l0.72-0.12l0.66-0.12h-0.06l0.659-0.24v0.06l0.66-0.3h-0.06l0.54-0.36l0.54-0.42l0.54-0.48l-0.061,0.06l0.42-0.48
	l0.42-0.54l0.36-0.6l0.3-0.6l-0.06,0.06l0.24-0.66l0.18-0.66v0.06l0.12-0.72v-0.72h0.479v0.72c-0.621,5.315-6.036,8.104-10.8,5.76
	l-0.6-0.36v-0.06l-0.54-0.42"/>
<rect x="212.865" y="88.607" style="fill:#F7F7F7;" width="14.159" height="14.16"/>
<rect x="212.865" y="88.368" width="14.399" height="0.48"/>
<rect x="226.785" y="88.607" width="0.479" height="14.4"/>
<rect x="212.625" y="102.527" width="14.399" height="0.48"/>
<rect x="212.625" y="88.368" width="0.479" height="14.4"/>
<rect x="241.245" y="88.607" style="fill:#F7F7F7;" width="14.16" height="14.16"/>
<rect x="241.245" y="88.368" width="14.399" height="0.48"/>
<rect x="255.165" y="88.607" width="0.479" height="14.4"/>
<rect x="241.005" y="102.527" width="14.4" height="0.48"/>
<rect x="241.005" y="88.368" width="0.48" height="14.4"/>
<text transform="matrix(1 0 0 1 258.165 41.4478)"><tspan x="0" y="0" style="font-family:'ProductusSemibold'; font-size:7.98;">Op</tspan><tspan x="10.007" y="0" style="font-family:'ProductusSemibold'; font-size:7.98;">era</tspan><tspan x="21.091" y="0" style="font-family:'ProductusSemibold'; font-size:7.98;">t</tspan><tspan x="24.211" y="0" style="font-family:'ProductusSemibold'; font-size:7.98;">o</tspan><tspan x="28.528" y="0" style="font-family:'ProductusSemibold'; font-size:7.98;">r</tspan></text>
<text transform="matrix(1 0 0 1 110.2651 69.0479)"><tspan x="0" y="0" style="font-family:'ProductusSemibold'; font-size:7.98;">Sc</tspan><tspan x="7.924" y="0" style="font-family:'ProductusSemibold'; font-size:7.98;">r</tspan><tspan x="10.86" y="0" style="font-family:'ProductusSemibold'; font-size:7.98;">e</tspan><tspan x="14.994" y="0" style="font-family:'ProductusSemibold'; font-size:7.98;">e</tspan><tspan x="19.12" y="0" style="font-family:'ProductusSemibold'; font-size:7.98;">nS</tspan><tspan x="27.658" y="0" style="font-family:'ProductusSemibold'; font-size:7.98;">a</tspan><tspan x="31.552" y="0" style="font-family:'ProductusSemibold'; font-size:7.98;">v</tspan><tspan x="35.446" y="0" style="font-family:'ProductusSemibold'; font-size:7.98;">er</tspan><tspan x="42.572" y="0" style="font-family:'ProductusSemibold'; font-size:7.98;">s</tspan></text>
<text transform="matrix(1 0 0 1 144.165 41.4478)"><tspan x="0" y="0" style="font-family:'ProductusSemibold'; font-size:7.98;">OSG</tspan><tspan x="15.409" y="0" style="font-family:'ProductusSemibold'; font-size:7.98;">i</tspan></text>
<text transform="matrix(1 0 0 1 89.5649 41.4478)"><tspan x="0" y="0" style="font-family:'ProductusSemibold'; font-size:7.98;">O</tspan><tspan x="5.825" y="0" style="font-family:'ProductusSemibold'; font-size:7.98;">M</tspan><tspan x="12.48" y="0" style="font-family:'ProductusSemibold'; font-size:7.98;">A</tspan><tspan x="17.508" y="0" style="font-family:'ProductusSemibold'; font-size:7.98;"> </tspan><tspan x="19.487" y="0" style="font-family:'ProductusSemibold'; font-size:7.98;">D</tspan><tspan x="24.889" y="0" style="font-family:'ProductusSemibold'; font-size:7.98;">M</tspan></text>
<text transform="matrix(1 0 0 1 231.0449 69.0479)"><tspan x="0" y="0" style="font-family:'ProductusSemibold'; font-size:7.98;">R</tspan><tspan x="4.421" y="0" style="font-family:'ProductusSemibold'; font-size:7.98;">i</tspan><tspan x="6.575" y="0" style="font-family:'ProductusSemibold'; font-size:7.98;">ngS</tspan><tspan x="19.168" y="0" style="font-family:'ProductusSemibold'; font-size:7.98;">i</tspan><tspan x="21.322" y="0" style="font-family:'ProductusSemibold'; font-size:7.98;">g</tspan><tspan x="25.359" y="0" style="font-family:'ProductusSemibold'; font-size:7.98;">n</tspan><tspan x="29.613" y="0" style="font-family:'ProductusSemibold'; font-size:7.98;">al</tspan><tspan x="35.766" y="0" style="font-family:'ProductusSemibold'; font-size:7.98;">s</tspan></text>
<text transform="matrix(1 0 0 1 184.665 110.3276)"><tspan x="0" y="0" style="font-family:'ProductusBook'; font-size:7.98;">B</tspan><tspan x="3.551" y="0" style="font-family:'ProductusBook'; font-size:7.98;">a</tspan><tspan x="6.91" y="0" style="font-family:'ProductusBook'; font-size:7.98;">c</tspan><tspan x="9.982" y="0" style="font-family:'ProductusBook'; font-size:7.98; letter-spacing:15;">h</tspan><tspan x="28.76" y="0" style="font-family:'ProductusBook'; font-size:7.98;">P</tspan><tspan x="31.888" y="0" style="font-family:'ProductusBook'; font-size:7.98;">o</tspan><tspan x="35.67" y="0" style="font-family:'ProductusBook'; font-size:7.98;">p</tspan><tspan x="39.389" y="0" style="font-family:'ProductusBook'; font-size:7.98;">c</tspan><tspan x="42.39" y="0" style="font-family:'ProductusBook'; font-size:7.98;">o</tspan><tspan x="46.228" y="0" style="font-family:'ProductusBook'; font-size:7.98;">r</tspan><tspan x="48.454" y="0" style="font-family:'ProductusBook'; font-size:7.98; letter-spacing:4;">n</tspan><tspan x="57.089" y="0" style="font-family:'ProductusBook'; font-size:7.98;">S</tspan><tspan x="60.807" y="0" style="font-family:'ProductusBook'; font-size:7.98;">i</tspan><tspan x="62.355" y="0" style="font-family:'ProductusBook'; font-size:7.98;">n</tspan><tspan x="66.074" y="0" style="font-family:'ProductusBook'; font-size:7.98;">a</tspan><tspan x="69.369" y="0" style="font-family:'ProductusBook'; font-size:7.98;">t</tspan><tspan x="71.764" y="0" style="font-family:'ProductusBook'; font-size:7.98;">r</tspan><tspan x="74.014" y="0" style="font-family:'ProductusBook'; font-size:7.98;">a</tspan></text>
<polyline points="274.725,6.348 274.725,9.408 273.945,8.927 270.285,6.768 269.505,6.348 270.345,5.868 274.005,3.768 
	274.725,3.348 274.725,4.248 274.485,4.667 270.825,6.768 270.345,5.868 270.825,5.868 274.485,8.027 273.945,8.927 273.705,8.507 
	273.705,6.348 "/>
<rect x="273.705" y="4.248" width="1.02" height="2.1"/>
<polyline style="fill-rule:evenodd;clip-rule:evenodd;" points="274.245,6.348 274.245,8.507 270.585,6.348 274.245,4.248 "/>
<rect x="274.545" y="6.107" width="16.5" height="0.48"/>
<text transform="matrix(1 0 0 1 300.3447 57.8872)"><tspan x="0" y="0" style="font-family:'ProductusOSGiBookc'; font-size:7.98;">in</tspan><tspan x="5.211" y="0" style="font-family:'ProductusOSGiBookc'; font-size:7.98;">t</tspan><tspan x="7.493" y="0" style="font-family:'ProductusOSGiBookc'; font-size:7.98;">e</tspan><tspan x="10.972" y="0" style="font-family:'ProductusOSGiBookc'; font-size:7.98;">r</tspan><tspan x="13.207" y="0" style="font-family:'ProductusOSGiBookc'; font-size:7.98;">i</tspan><tspan x="14.715" y="0" style="font-family:'ProductusOSGiBookc'; font-size:7.98;">or</tspan><tspan x="20.724" y="0" style="font-family:'ProductusOSGiBookc'; font-size:7.98;"> </tspan><tspan x="22.344" y="0" style="font-family:'ProductusOSGiBookc'; font-size:7.98;">n</tspan><tspan x="25.95" y="0" style="font-family:'ProductusOSGiBookc'; font-size:7.98;">od</tspan><tspan x="33.403" y="0" style="font-family:'ProductusOSGiBookc'; font-size:7.98;">e</tspan></text>
<polyline points="274.485,50.567 273.825,52.607 273.585,53.448 272.925,52.728 270.104,49.488 269.505,48.828 270.465,48.647 
	274.665,47.808 275.445,47.627 275.205,48.527 274.845,48.828 270.645,49.667 270.465,48.647 270.885,48.828 273.705,52.067 
	272.925,52.728 272.805,52.248 273.465,50.208 "/>
<polyline points="275.205,48.527 274.485,50.567 273.465,50.208 274.185,48.167 "/>
<polyline style="fill-rule:evenodd;clip-rule:evenodd;" points="274.005,50.387 273.345,52.427 270.524,49.188 274.725,48.348 "/>
<polyline points="290.745,56.208 290.985,56.268 291.165,55.788 290.925,55.728 "/>
<polyline points="274.425,50.748 274.185,50.688 274.365,50.208 274.604,50.268 "/>
<polyline points="290.745,56.208 290.925,55.728 274.604,50.268 274.425,50.748 "/>
<text transform="matrix(1 0 0 1 300.0449 85.5474)"><tspan x="0" y="0" style="font-family:'ProductusOSGiBookc'; font-size:7.98;">l</tspan><tspan x="1.508" y="0" style="font-family:'ProductusOSGiBookc'; font-size:7.98;">e</tspan><tspan x="4.987" y="0" style="font-family:'ProductusOSGiBookc'; font-size:7.98;">a</tspan><tspan x="8.283" y="0" style="font-family:'ProductusOSGiBookc'; font-size:7.98;">f</tspan><tspan x="10.271" y="0" style="font-family:'ProductusOSGiBookc'; font-size:7.98;"> </tspan><tspan x="11.89" y="0" style="font-family:'ProductusOSGiBookc'; font-size:7.98;">n</tspan><tspan x="15.545" y="0" style="font-family:'ProductusOSGiBookc'; font-size:7.98;">o</tspan><tspan x="19.271" y="0" style="font-family:'ProductusOSGiBookc'; font-size:7.98;">d</tspan><tspan x="22.99" y="0" style="font-family:'ProductusOSGiBookc'; font-size:7.98;">e</tspan></text>
<polyline points="281.564,89.748 282.285,91.788 282.585,92.627 281.625,92.448 277.425,91.547 276.645,91.308 277.185,90.708 
	280.005,87.527 280.604,86.808 280.905,87.708 280.785,88.188 277.965,91.368 277.185,90.708 277.665,90.527 281.865,91.428 
	281.625,92.448 281.265,92.147 280.545,90.107 "/>
<polyline points="280.905,87.708 281.564,89.748 280.545,90.107 279.885,88.067 "/>
<polyline style="fill-rule:evenodd;clip-rule:evenodd;" points="281.085,89.927 281.805,91.967 277.604,91.067 280.425,87.888 "/>
<polyline points="298.064,84.587 298.305,84.527 298.125,84.047 297.885,84.107 "/>
<polyline points="281.685,89.987 281.445,90.047 281.265,89.567 281.505,89.507 "/>
<polyline points="298.064,84.587 297.885,84.107 281.505,89.507 281.685,89.987 "/>
<rect x="0.285" y="63.047" style="fill:#F7F7F7;" width="7.08" height="7.08"/>
<rect x="0.285" y="62.808" width="7.32" height="0.48"/>
<rect x="7.125" y="63.047" width="0.48" height="7.32"/>
<rect x="0.045" y="69.888" width="7.32" height="0.48"/>
<rect x="0.045" y="62.808" width="0.48" height="7.32"/>
<path style="fill-rule:evenodd;clip-rule:evenodd;fill:#B3B3B3;" d="M7.365,80.808l-0.06-0.72l-0.24-0.66
	c-1.311-3.212-5.993-2.752-6.72,0.66l-0.06,0.72l0.06,0.66c0.627,3.372,5.369,3.92,6.72,0.72l0.24-0.72L7.365,80.808"/>
<path d="M7.125,80.868l-0.06-0.72v0.06l-0.24-0.66h0.06l-0.3-0.6v0.06l-0.42-0.54h0.06l-0.54-0.42v0.06l-0.6-0.36h0.06l-0.66-0.18
	h0.06l-0.72-0.06h0.06l-0.72,0.06l-0.66,0.18h0.06l-0.6,0.36l0.06-0.06l-0.54,0.42l-0.42,0.54l0.06-0.06l-0.36,0.6v-0.06l-0.18,0.66
	l-0.06,0.72v-0.06l0.06,0.66v-0.06l0.18,0.72v-0.06l0.36,0.6h-0.06l0.42,0.48v-0.06l0.54,0.48h-0.06l0.6,0.3l-0.06-0.06l0.66,0.18
	l0.72,0.12h-0.06l0.72-0.12h-0.06l0.66-0.18l-0.06,0.06l0.6-0.3l0.54-0.48l-0.06,0.06l0.42-0.48l0.3-0.6l-0.06,0.06l0.24-0.72v0.06
	l0.06-0.66l0.48,0.06l-0.06,0.66v0.06c-0.378,1.306-0.621,1.521-1.62,2.4l-0.6,0.3h-0.06c-1.311,0.426-1.625,0.354-2.88,0h-0.06
	l-0.6-0.3v-0.06c-4.836-3.591,1.666-10.049,5.22-5.22h0.06l0.3,0.6v0.06l0.24,0.66v0.06l0.06,0.72"/>
<polyline points="7.125,80.808 7.125,80.868 7.605,80.808 7.605,80.868 "/>
<text transform="matrix(1 0 0 1 14.4448 67.7876)"><tspan x="0" y="0" style="font-family:'ProductusOSGiBookc'; font-size:7.98;">lea</tspan><tspan x="8.307" y="0" style="font-family:'ProductusOSGiBookc'; font-size:7.98;">f</tspan><tspan x="10.294" y="0" style="font-family:'ProductusOSGiBookc'; font-size:7.98;"> </tspan><tspan x="11.914" y="0" style="font-family:'ProductusOSGiBookc'; font-size:7.98;">n</tspan><tspan x="15.521" y="0" style="font-family:'ProductusOSGiBookc'; font-size:7.98;">o</tspan><tspan x="19.295" y="0" style="font-family:'ProductusOSGiBookc'; font-size:7.98;">d</tspan><tspan x="22.966" y="0" style="font-family:'ProductusOSGiBookc'; font-size:7.98;">e</tspan></text>
<text transform="matrix(1 0 0 1 14.4448 82.0078)"><tspan x="0" y="0" style="font-family:'ProductusOSGiBookc'; font-size:7.98;">inter</tspan><tspan x="13.278" y="0" style="font-family:'ProductusOSGiBookc'; font-size:7.98;">i</tspan><tspan x="14.787" y="0" style="font-family:'ProductusOSGiBookc'; font-size:7.98;">or</tspan><tspan x="20.795" y="0" style="font-family:'ProductusOSGiBookc'; font-size:7.98;"> </tspan><tspan x="22.415" y="0" style="font-family:'ProductusOSGiBookc'; font-size:7.98;">n</tspan><tspan x="26.078" y="0" style="font-family:'ProductusOSGiBookc'; font-size:7.98;">o</tspan><tspan x="29.805" y="0" style="font-family:'ProductusOSGiBookc'; font-size:7.98;">d</tspan><tspan x="33.483" y="0" style="font-family:'ProductusOSGiBookc'; font-size:7.98;">e</tspan></text>
</svg>
