<?xml version="1.0" encoding="utf-8"?>
<!-- Generator: Adobe Illustrator 16.0.1, SVG Export Plug-In . SVG Version: 6.00 Build 0)  -->
<!DOCTYPE svg PUBLIC "-//W3C//DTD SVG 1.1//EN" "http://www.w3.org/Graphics/SVG/1.1/DTD/svg11.dtd">
<svg version="1.1" id="Layer_1" xmlns="http://www.w3.org/2000/svg" xmlns:xlink="http://www.w3.org/1999/xlink" x="0px" y="0px"
	 width="212.532px" height="134.146px" viewBox="0 0 212.532 134.146" enable-background="new 0 0 212.532 134.146"
	 xml:space="preserve">
<polyline points="120.891,98.268 120.711,98.087 120.351,98.448 120.531,98.627 "/>
<polyline points="149.271,126.647 149.452,126.828 149.09,127.188 148.911,127.007 "/>
<polyline points="120.891,98.268 120.531,98.627 148.911,127.007 149.271,126.647 "/>
<polyline points="120.891,98.627 121.071,98.448 120.711,98.087 120.531,98.268 "/>
<polyline points="92.571,127.007 92.391,127.188 92.031,126.828 92.211,126.647 "/>
<polyline points="120.891,98.627 120.531,98.268 92.211,126.647 92.571,127.007 "/>
<polyline points="92.511,13.188 92.271,13.127 92.091,13.607 92.332,13.667 "/>
<polyline points="177.532,41.507 177.771,41.567 177.59,42.047 177.351,41.987 "/>
<polyline points="92.511,13.188 92.332,13.667 177.351,41.987 177.532,41.507 "/>
<polyline points="92.511,13.667 92.751,13.607 92.571,13.127 92.332,13.188 "/>
<polyline points="7.431,41.987 7.191,42.047 7.011,41.567 7.251,41.507 "/>
<polyline points="92.511,13.667 92.332,13.188 7.251,41.507 7.431,41.987 "/>
<polyline points="92.571,13.248 92.391,13.067 92.031,13.427 92.211,13.607 "/>
<polyline points="120.891,41.567 121.071,41.748 120.711,42.107 120.531,41.927 "/>
<polyline points="92.571,13.248 92.211,13.607 120.531,41.927 120.891,41.567 "/>
<polyline points="63.891,34.487 63.711,34.607 64.011,34.967 64.191,34.848 "/>
<polyline points="92.271,13.248 92.451,13.127 92.751,13.487 92.571,13.607 "/>
<polyline points="63.891,34.487 64.191,34.848 92.571,13.607 92.271,13.248 "/>
<rect x="120.471" y="48.587" width="0.479" height="0.24"/>
<rect x="120.471" y="48.828" width="0.479" height="14.46"/>
<text transform="matrix(1 0 0 1 83.6909 6.6477)" font-family="'ProductusBook'" font-size="7.98">.</text>
<path fill="#808080" d="M99.471,13.427l-0.061-0.72l-0.119-0.721c-1.759-7.923-12.944-7.311-13.98,0.721v1.439
	c1.093,8.039,12.175,8.626,13.98,0.721l0.119-0.721L99.471,13.427"/>
<path d="M99.231,13.487l-0.06-0.72l-0.12-0.72l-0.12-0.66v0.061l-0.24-0.66h0.061l-0.301-0.601l-0.359-0.6v0.06l-0.42-0.54
	l-0.48-0.54h0.061l-0.48-0.42l-0.54-0.42v0.061l-0.6-0.36l-0.601-0.3h0.061l-0.66-0.24l-0.66-0.18h0.061l-0.721-0.12h-1.439h0.06
	l-0.72,0.12l-0.66,0.18h0.06l-0.659,0.24l-0.66,0.3l-0.54,0.36l0.06-0.061l-1.08,0.84l-0.84,1.08l0.061-0.06l-0.36,0.6l-0.3,0.601
	l-0.24,0.66v-0.061l-0.18,0.66l-0.12,0.72v-0.06v1.439l0.12,0.721v-0.061l0.18,0.66l0.24,0.66v-0.061l0.3,0.601l0.36,0.6h-0.061
	l0.42,0.54l0.42,0.48v-0.061l0.54,0.48l-0.3,0.359l-0.54-0.479h-0.06l-0.42-0.48l-0.42-0.54v-0.06l-0.36-0.6l-0.3-0.601h-0.061
	l-0.24-0.66v-0.06c-0.446-1.22-0.411-3.102,0-4.32l0.24-0.66l0.061-0.06c0.765-1.645,1.645-2.605,3.18-3.54h0.06l0.66-0.3V6.647
	l0.66-0.239l0.66-0.181h0.06l0.721-0.12h1.5l0.72,0.12l0.66,0.181h0.06l0.66,0.239v0.061l0.6,0.3c1.227,0.624,1.767,1.253,2.58,2.34
	h0.061l0.359,0.601c0.566,1.034,0.592,1.603,0.78,2.76l0.061,0.72"/>
<path d="M88.071,18.708l0.54,0.42h-0.06l0.54,0.359l0.66,0.301v-0.061l0.659,0.24h-0.06l0.66,0.18l1.439,0.12h-0.06l1.44-0.12
	h-0.061l0.66-0.18l0.66-0.24l-0.061,0.061l0.601-0.301l0.6-0.359l0.54-0.42h-0.06l0.96-0.96v0.06l0.42-0.54l0.359-0.6l0.301-0.601
	l-0.061,0.061l0.24-0.66v0.06l0.12-0.659l0.12-0.721l0.06-0.72v0.06l0.48-0.06v0.06l-0.061,0.721
	c-0.225,2.468-1.287,3.824-3.18,5.34l-0.601,0.36l-0.6,0.3c-1.89,0.786-4.549,0.724-6.36-0.3h-0.06l-0.54-0.36v-0.061l-0.54-0.42"/>
<rect x="170.333" y="91.368" fill="#F7F7F7" width="14.158" height="14.159"/>
<rect x="170.333" y="91.127" width="14.398" height="0.479"/>
<rect x="184.25" y="91.368" width="0.479" height="14.399"/>
<rect x="170.09" y="105.288" width="14.4" height="0.479"/>
<rect x="170.09" y="91.127" width="0.479" height="14.399"/>
<path fill="#B3B3B3" d="M127.792,70.127v-0.72l-0.119-0.721c-1.842-7.897-13.045-7.334-13.98,0.721l-0.061,0.72l0.061,0.72
	c0.971,8.027,12.09,8.602,13.98,0.72l0.119-0.72V70.127"/>
<path d="M127.551,70.127v-0.72v0.06l-0.12-0.72l-0.181-0.66v0.06l-0.239-0.66h0.06l-0.3-0.659l-0.36-0.54v0.06l-0.84-1.08h0.061
	l-1.08-0.84v0.06l-0.6-0.359l-0.601-0.3h0.06l-0.658-0.24l-0.66-0.18h0.06l-0.72-0.12h-1.439h0.061l-0.721,0.12l-0.66,0.18h0.061
	l-0.66,0.24l-0.6,0.3l-0.602,0.359l0.062-0.06l-0.54,0.42l-0.48,0.42l-0.479,0.54l-0.42,0.54l0.061-0.06l-0.359,0.54l-0.301,0.659
	l-0.24,0.66v-0.06l-0.18,0.66l-0.061,0.72l-0.061,0.72v-0.06l0.061,0.72l0.061,0.72v-0.06l0.18,0.66l0.24,0.66v-0.061l0.301,0.601
	l0.359,0.6h-0.061l0.42,0.54v-0.06l0.96,0.96l-0.3,0.359h-0.061l-0.961-0.96l-0.42-0.54v-0.06l-0.359-0.601l-0.301-0.6h-0.06
	l-0.24-0.66v-0.06l-0.18-0.66l-0.062-0.72l-0.06-0.721v-0.06l0.06-0.72l0.062-0.721v-0.06l0.18-0.66l0.24-0.66h0.06l0.301-0.66
	v-0.06c0.851-1.387,2.033-2.529,3.541-3.18l0.06-0.061l0.66-0.24c1.219-0.412,3.1-0.446,4.319,0h0.061l0.66,0.24v0.061l0.6,0.3
	c1.385,0.769,1.676,1.066,2.58,2.34h0.061l0.359,0.54v0.06l0.301,0.66l0.239,0.66l0.181,0.66v0.06l0.119,0.721v0.72"/>
<path d="M116.391,75.408l0.54,0.42h-0.062l0.602,0.359l0.6,0.3v-0.06l0.66,0.24h-0.061l0.66,0.12l0.721,0.12l0.72,0.06h-0.06
	l0.72-0.06l0.72-0.12l0.66-0.12h-0.061l0.66-0.24l-0.061,0.06l0.6-0.3l0.602-0.359l0.539-0.42l0.541-0.48l-0.062,0.06l0.421-0.479
	l0.42-0.54l0.359-0.6l0.3-0.601l-0.06,0.061l0.24-0.66l0.18-0.66v0.06l0.119-0.72v-0.72h0.479v0.72
	c-0.608,5.295-6.042,8.11-10.8,5.76l-0.6-0.359v-0.061l-0.541-0.42"/>
<text transform="matrix(1 0 0 1 118.9712 71.8674)" font-family="'ProductusSemibold'" font-size="7.98">Q</text>
<text transform="matrix(1 0 0 1 175.9712 99.6477)" font-family="'ProductusBook'" font-size="7.98">z</text>
<path fill="#B3B3B3" d="M127.792,41.748v-0.721l-0.119-0.72c-1.892-7.881-13.01-7.307-13.98,0.72l-0.061,0.721l0.061,0.72
	c0.938,8.054,12.139,8.618,13.98,0.72l0.119-0.72V41.748"/>
<path d="M127.551,41.748v-0.721v0.061l-0.12-0.72l-0.181-0.66v0.06l-0.239-0.66h0.06l-0.3-0.6l-0.36-0.6v0.06l-0.42-0.54
	l-0.42-0.479h0.061l-0.539-0.48l-0.541-0.42v0.06l-0.6-0.359l-0.601-0.3h0.06l-0.658-0.24h0.06l-0.66-0.12l-0.72-0.12l-0.721-0.06
	h0.061l-0.721,0.06l-0.719,0.12l-0.66,0.12h0.06l-0.66,0.24l-0.6,0.3l-0.601,0.359l0.061-0.06l-0.54,0.42l-0.96,0.96l-0.42,0.54
	l0.06-0.06l-0.358,0.6l-0.301,0.6l-0.24,0.66v-0.06l-0.18,0.66l-0.061,0.72l-0.061,0.72v-0.06l0.061,0.72l0.061,0.72v-0.06
	l0.18,0.66l0.24,0.66l0.301,0.659v-0.06l0.358,0.54h-0.06l0.42,0.54l0.479,0.54v-0.061l0.48,0.42l-0.301,0.36l-0.479-0.42h-0.06
	l-0.48-0.54l-0.42-0.54v-0.06l-0.359-0.54l-0.301-0.66h-0.06l-0.24-0.66v-0.06l-0.181-0.66c-0.148-1.416-0.148-1.524,0-2.94v-0.06
	l0.181-0.66c0.248-0.785,0.845-1.858,1.38-2.46v-0.061l0.96-0.96h0.062c0.601-0.534,1.675-1.132,2.459-1.38h0.061l0.66-0.12
	c1.211-0.236,1.729-0.236,2.939,0l0.66,0.12h0.061l0.66,0.24v0.06l0.6,0.301c1.227,0.625,1.775,1.255,2.58,2.34h0.061l0.359,0.6
	c0.445,0.81,0.738,1.839,0.84,2.76v0.721"/>
<path d="M116.391,47.027l0.54,0.421h-0.062l0.602,0.359l0.6,0.3v-0.06l0.66,0.24h-0.061l0.66,0.18l0.721,0.12h-0.061h1.439
	l0.72-0.12h-0.06l0.66-0.18l0.658-0.24l-0.06,0.06l0.601-0.3l0.6-0.359l1.08-0.841l-0.061,0.061l0.84-1.08l0.36-0.54v0.06l0.3-0.659
	h-0.061l0.24-0.66l0.181-0.66v0.06l0.12-0.72v-0.72h0.479v0.72c-0.546,5.236-6.133,8.211-10.8,5.76l-0.601-0.359v-0.061l-0.539-0.42
	"/>
<text transform="matrix(1 0 0 1 118.4907 43.6077)" font-family="'ProductusSemibold'" font-size="7.98">P</text>
<path fill="#B3B3B3" d="M184.491,41.748v-0.721l-0.119-0.72c-1.891-7.881-13.01-7.307-13.979,0.72l-0.06,0.721l0.06,0.72
	c0.937,8.054,12.14,8.618,13.979,0.72l0.119-0.72V41.748"/>
<path d="M184.25,41.748v-0.721v0.061l-0.119-0.72l-0.182-0.66v0.06l-0.238-0.66h0.06l-0.3-0.6l-0.36-0.6v0.06l-0.42-0.54
	l-0.42-0.479h0.062l-0.541-0.48l-0.539-0.42v0.06l-0.602-0.359l-0.6-0.3h0.06l-0.659-0.24h0.061l-0.66-0.12l-0.721-0.12l-0.721-0.06
	h0.062l-0.72,0.06l-0.721,0.12l-0.66,0.12h0.061l-0.66,0.24l-0.6,0.3l-0.602,0.359l0.061-0.06l-0.539,0.42l-0.961,0.96l-0.42,0.54
	l0.061-0.06l-0.359,0.6l-0.301,0.6l-0.24,0.66v-0.06l-0.18,0.66l-0.119,1.439v-0.06l0.119,1.439v-0.06l0.18,0.66l0.24,0.66
	l0.301,0.659v-0.06l0.359,0.54h-0.061l0.42,0.54l0.479,0.54v-0.061l0.479,0.42l-0.299,0.36l-0.48-0.42h-0.061l-0.479-0.54
	l-0.42-0.54v-0.06l-0.36-0.54l-0.3-0.66h-0.06l-0.24-0.66v-0.06l-0.18-0.66c-0.149-1.416-0.149-1.524,0-2.94v-0.06l0.18-0.66
	c0.248-0.785,0.845-1.858,1.38-2.46v-0.061l0.96-0.96h0.061c0.603-0.534,1.676-1.132,2.461-1.38h0.06l0.66-0.12
	c1.211-0.236,1.729-0.236,2.938,0l0.66,0.12h0.061l0.66,0.24v0.06l0.601,0.301c1.226,0.625,1.774,1.255,2.58,2.34h0.06l0.36,0.6
	c0.444,0.81,0.737,1.839,0.84,2.76v0.721"/>
<path d="M173.09,47.027l0.541,0.421h-0.062l0.601,0.359l0.601,0.3v-0.06l0.66,0.24h-0.062l0.66,0.18l0.721,0.12h-0.061h1.439
	l0.721-0.12h-0.061l0.66-0.18l0.659-0.24l-0.06,0.06l0.6-0.3l0.602-0.359l1.08-0.841l-0.062,0.061l0.84-1.08l0.36-0.54v0.06
	l0.3-0.659h-0.06l0.238-0.66l0.182-0.66v0.06l0.119-0.72v-0.72h0.479v0.72c-0.546,5.236-6.133,8.211-10.8,5.76l-0.6-0.359v-0.061
	l-0.541-0.42"/>
<text transform="matrix(1 0 0 1 175.1909 43.6077)" font-family="'ProductusSemibold'" font-size="7.98">X</text>
<rect x="177.17" y="76.967" width="0.479" height="0.24"/>
<rect x="177.17" y="77.208" width="0.479" height="14.399"/>
<path fill="#B3B3B3" d="M184.491,70.127v-0.72l-0.119-0.721c-1.842-7.897-13.045-7.334-13.979,0.721l-0.06,0.72l0.06,0.72
	c0.971,8.027,12.09,8.602,13.979,0.72l0.119-0.72V70.127"/>
<path d="M184.25,70.127v-0.72v0.06l-0.119-0.72l-0.182-0.66v0.06l-0.238-0.66h0.06l-0.3-0.659l-0.36-0.54v0.06l-0.84-1.08h0.062
	l-1.08-0.84v0.06l-0.602-0.359l-0.6-0.3h0.06l-0.659-0.24l-0.66-0.18h0.061l-0.721-0.12h-1.439h0.061l-0.721,0.12l-0.66,0.18h0.062
	l-0.66,0.24l-0.601,0.3l-0.601,0.359l0.062-0.06l-0.541,0.42l-0.479,0.42l-0.479,0.54l-0.42,0.54l0.061-0.06l-0.359,0.54
	l-0.301,0.659l-0.24,0.66v-0.06l-0.18,0.66l-0.061,0.72l-0.061,0.72v-0.06l0.12,1.439v-0.06l0.181,0.66l0.239,0.66v-0.061l0.3,0.601
	l0.36,0.6h-0.06l0.42,0.54v-0.06l0.959,0.96l-0.299,0.359h-0.062l-0.96-0.96l-0.42-0.54v-0.06l-0.359-0.601l-0.301-0.6h-0.061
	l-0.239-0.66v-0.06l-0.181-0.66l-0.061-0.72l-0.061-0.721v-0.06l0.061-0.72l0.061-0.721v-0.06l0.181-0.66l0.239-0.66h0.061
	l0.301-0.66v-0.06c0.85-1.387,2.033-2.529,3.539-3.18l0.061-0.061l0.66-0.24c1.22-0.412,3.1-0.446,4.319,0h0.062l0.66,0.24v0.061
	l0.6,0.3c1.385,0.769,1.676,1.066,2.58,2.34h0.061l0.359,0.54v0.06l0.3,0.66l0.24,0.66l0.18,0.66v0.06l0.12,0.721v0.72"/>
<path d="M173.09,75.408l0.541,0.42h-0.062l0.601,0.359l0.601,0.3v-0.06l0.66,0.24h-0.062l0.66,0.12l0.721,0.12l0.721,0.06h-0.061
	l0.721-0.06l0.72-0.12l0.659-0.12h-0.061l0.66-0.24l-0.061,0.06l0.601-0.3l0.601-0.359l0.541-0.42l0.539-0.48l-0.061,0.06
	l0.42-0.479l0.42-0.54l0.359-0.6l0.301-0.601l-0.061,0.061l0.24-0.66l0.18-0.66v0.06l0.121-0.72v-0.72h0.479v0.72
	c-0.609,5.295-6.042,8.11-10.8,5.76l-0.601-0.359v-0.061l-0.539-0.42"/>
<text transform="matrix(1 0 0 1 175.1909 71.927)" font-family="'ProductusSemibold'" font-size="7.98">Y</text>
<rect x="177.17" y="48.587" width="0.479" height="0.24"/>
<rect x="177.17" y="48.828" width="0.479" height="14.46"/>
<rect x="7.071" y="48.587" width="0.48" height="0.24"/>
<rect x="7.071" y="48.828" width="0.48" height="14.46"/>
<rect x="63.771" y="48.587" width="0.48" height="0.24"/>
<rect x="63.771" y="48.828" width="0.48" height="14.46"/>
<path fill="#B3B3B3" d="M14.391,70.127v-0.72l-0.12-0.721c-1.88-7.894-12.957-7.362-13.98,0.721l-0.06,0.72l0.06,0.72
	c1.061,8.06,12.05,8.596,13.98,0.72l0.12-0.72V70.127"/>
<path d="M14.151,70.127v-0.72v0.06l-0.12-0.72l-0.18-0.66v0.06l-0.24-0.66h0.06l-0.3-0.659l-0.36-0.54v0.06l-0.84-1.08h0.06
	l-1.08-0.84v0.06l-0.54-0.359h0.06l-0.66-0.3l-0.66-0.24l-0.66-0.18h0.06l-0.72-0.12h-1.44h0.06l-0.66,0.12l-0.72,0.18h0.06
	l-0.66,0.24l-0.6,0.3l-0.6,0.359l0.06-0.06l-0.54,0.42l-0.48,0.42l-0.48,0.54l-0.42,0.54l0.06-0.06l-0.36,0.54l-0.48,1.319v-0.06
	l-0.18,0.66l-0.12,0.72l-0.06,0.72v-0.06l0.06,0.72l0.12,0.72v-0.06l0.18,0.66l0.24,0.66l0.24,0.6v-0.06l0.36,0.6h-0.06l0.42,0.54
	v-0.06l0.96,0.96l-0.3,0.359h-0.06l-0.96-0.96l-0.42-0.54v-0.06l-0.36-0.601l-0.24-0.6h-0.06l-0.24-0.66v-0.06
	c-0.785-2.053-0.176-5.206,1.32-6.78l0.48-0.54l0.06-0.06c1.864-1.868,4.738-2.623,7.26-1.801h0.06l0.66,0.24v0.061l0.66,0.3
	c1.397,0.882,1.563,0.991,2.52,2.34h0.06l0.36,0.54v0.06l0.3,0.66l0.24,0.66l0.18,0.66v0.06l0.12,0.721v0.72"/>
<path d="M2.991,75.408l0.54,0.42h-0.06l0.6,0.359l0.6,0.3v-0.06l0.66,0.24h-0.06l0.72,0.12l0.66,0.12l0.72,0.06h-0.06l0.72-0.06
	l0.72-0.12l0.66-0.12h-0.06l0.66-0.24v0.06l0.66-0.3h-0.06l0.54-0.359l0.54-0.42l0.54-0.48l-0.06,0.06l0.42-0.479l0.42-0.54
	l0.36-0.6l0.3-0.601l-0.06,0.061l0.24-0.66l0.18-0.66v0.06l0.12-0.72v-0.72h0.48v0.72c-0.623,5.312-6.021,8.103-10.8,5.76
	l-0.6-0.359v-0.061l-0.54-0.42"/>
<text transform="matrix(1 0 0 1 5.5713 71.8674)" font-family="'ProductusSemibold'" font-size="7.98">B</text>
<path fill="#B3B3B3" d="M14.391,41.748v-0.721l-0.12-0.72c-1.93-7.876-12.919-7.339-13.98,0.72l-0.06,0.721l0.06,0.72
	c1.023,8.083,12.1,8.614,13.98,0.72l0.12-0.72V41.748"/>
<path d="M14.151,41.748v-0.721v0.061l-0.12-0.72l-0.18-0.66v0.06l-0.24-0.66h0.06l-0.3-0.6l-0.36-0.6v0.06l-0.42-0.54l-0.42-0.479
	h0.06l-0.54-0.48l-0.54-0.42v0.06l-0.54-0.359h0.06l-0.66-0.3l-0.66-0.24h0.06l-0.66-0.12l-0.72-0.12l-0.72-0.06h0.06l-0.72,0.06
	l-0.66,0.12l-0.72,0.12h0.06l-0.66,0.24l-0.6,0.3l-0.6,0.359l0.06-0.06l-0.54,0.42l-0.96,0.96l-0.42,0.54l0.06-0.06l-0.36,0.6
	l-0.24,0.6l-0.24,0.66v-0.06l-0.18,0.66l-0.12,0.72l-0.06,0.72v-0.06l0.06,0.72l0.12,0.72v-0.06l0.18,0.66l0.48,1.319v-0.06
	l0.36,0.54h-0.06l0.42,0.54l0.48,0.54v-0.061l0.48,0.42l-0.3,0.36l-0.48-0.42h-0.06l-0.48-0.54l-0.42-0.54v-0.06l-0.36-0.54h-0.06
	l-0.24-0.66c-0.674-1.762-0.796-3.229-0.24-5.04l0.24-0.66h0.06l0.24-0.6v-0.061c0.672-1.252,1.688-2.268,2.94-2.939l0.6-0.301
	l0.06-0.06c1.582-0.604,3.34-0.678,4.98-0.24h0.06l0.66,0.24v0.06l0.66,0.301c1.218,0.719,1.685,1.207,2.52,2.34h0.06l0.36,0.6
	c0.445,0.81,0.738,1.839,0.84,2.76v0.721"/>
<path d="M2.991,47.027l0.54,0.421h-0.06l0.6,0.359l0.6,0.3v-0.06l0.66,0.24h-0.06l0.72,0.18l0.66,0.12h-0.06h1.44l0.72-0.12h-0.06
	l0.66-0.18l0.66-0.24v0.06l0.66-0.3h-0.06l0.54-0.359l1.08-0.841l-0.06,0.061l0.84-1.08l0.36-0.54v0.06l0.3-0.659h-0.06l0.24-0.66
	l0.18-0.66v0.06l0.12-0.72v-0.72h0.48v0.72c-0.562,5.244-6.092,8.202-10.8,5.76l-0.6-0.359v-0.061l-0.54-0.42"/>
<text transform="matrix(1 0 0 1 5.0913 43.6077)" font-family="'ProductusSemibold'" font-size="7.98">A</text>
<path fill="#B3B3B3" d="M71.091,41.748v-0.721l-0.12-0.72c-1.926-7.91-12.987-7.294-13.98,0.72l-0.06,0.721l0.06,0.72
	c0.981,8.067,12.106,8.628,13.98,0.72l0.12-0.72V41.748"/>
<path d="M70.851,41.748v-0.721v0.061l-0.12-0.72l-0.18-0.66v0.06l-0.24-0.66h0.06l-0.3-0.6l-0.359-0.6v0.06l-0.42-0.54l-0.42-0.479
	h0.06l-0.54-0.48l-0.54-0.42v0.06l-0.54-0.359h0.06l-0.66-0.3l-0.66-0.24h0.06l-0.66-0.12l-0.72-0.12l-0.72-0.06h0.06l-0.72,0.06
	l-0.72,0.12l-0.66,0.12h0.06l-0.66,0.24l-0.6,0.3l-0.6,0.359l0.06-0.06l-0.54,0.42l-0.96,0.96l-0.42,0.54l0.06-0.06l-0.36,0.6
	l-0.3,0.6l-0.24,0.66v-0.06l-0.12,0.66l-0.12,0.72l-0.06,0.72v-0.06l0.06,0.72l0.12,0.72l0.12,0.66v-0.06l0.24,0.66l0.3,0.659v-0.06
	l0.36,0.54h-0.06l0.42,0.54l0.48,0.54v-0.061l0.48,0.42l-0.3,0.36l-0.48-0.42h-0.06l-0.48-0.54l-0.42-0.54v-0.06l-0.36-0.54
	l-0.3-0.66h-0.06l-0.24-0.66v-0.06l-0.12-0.66c-0.237-1.211-0.237-1.729,0-2.94l0.12-0.66v-0.06c0.248-0.785,0.845-1.858,1.38-2.46
	v-0.061l0.96-0.96h0.06c0.601-0.534,1.675-1.132,2.46-1.38h0.06l0.66-0.12c1.211-0.236,1.729-0.236,2.94,0l0.66,0.12h0.06l0.66,0.24
	v0.06l0.66,0.301c1.218,0.719,1.685,1.207,2.52,2.34h0.061l0.359,0.6c0.445,0.81,0.738,1.839,0.841,2.76v0.721"/>
<path d="M59.691,47.027l0.54,0.421h-0.06l0.6,0.359l0.6,0.3v-0.06l0.66,0.24h-0.06l0.66,0.18l0.72,0.12h-0.06h1.44l0.72-0.12h-0.06
	l0.66-0.18l0.66-0.24v0.06l0.66-0.3h-0.06l0.54-0.359l1.08-0.841l-0.06,0.061l0.84-1.08l0.359-0.54v0.06l0.3-0.659h-0.06l0.24-0.66
	l0.18-0.66v0.06l0.12-0.72v-0.72h0.48v0.72c-0.557,5.247-6.12,8.208-10.8,5.76l-0.6-0.359v-0.061l-0.54-0.42"/>
<text transform="matrix(1 0 0 1 61.791 43.6077)" font-family="'ProductusSemibold'" font-size="7.98">M</text>
<rect x="56.931" y="63.047" fill="#F7F7F7" width="14.16" height="14.16"/>
<rect x="56.931" y="62.808" width="14.4" height="0.48"/>
<rect x="70.851" y="63.047" width="0.48" height="14.4"/>
<rect x="56.691" y="76.967" width="14.4" height="0.48"/>
<rect x="56.691" y="62.808" width="0.48" height="14.4"/>
<text transform="matrix(1 0 0 1 62.5713 71.2678)" font-family="'ProductusBook'" font-size="7.98">n1</text>
<path fill="#B3B3B3" d="M127.792,98.448v-0.721l-0.119-0.72c-1.918-7.901-12.982-7.322-13.98,0.72l-0.061,0.721l0.061,0.72
	c0.938,8.051,12.141,8.615,13.98,0.72l0.119-0.72V98.448"/>
<path d="M127.551,98.448v-0.721v0.061l-0.12-0.721l-0.181-0.659v0.06l-0.239-0.66h0.06l-0.3-0.6l-0.36-0.601v0.061l-0.42-0.54
	l-0.42-0.48h0.061l-0.539-0.479l-0.541-0.42v0.06l-0.6-0.36l-0.601-0.3h0.06l-0.658-0.239l-0.66-0.181h0.06l-1.438-0.12h0.06
	l-1.438,0.12l-0.66,0.181h0.06l-0.659,0.239l-0.601,0.3l-0.601,0.36l0.061-0.06l-0.54,0.42l-0.96,0.96l-0.42,0.54l0.061-0.061
	l-0.359,0.601l-0.301,0.6l-0.24,0.66v-0.06l-0.18,0.659l-0.061,0.721l-0.061,0.72v-0.06l0.061,0.72l0.061,0.72v-0.06l0.18,0.659
	l0.24,0.66v-0.06l0.301,0.6l0.359,0.601h-0.061l0.42,0.54l0.479,0.54v-0.061l0.48,0.42l-0.301,0.36l-0.479-0.42h-0.06l-0.48-0.54
	l-0.42-0.54v-0.061l-0.359-0.6l-0.301-0.6h-0.06l-0.24-0.66v-0.061l-0.18-0.659c-0.149-1.416-0.149-1.524,0-2.94v-0.06l0.18-0.66
	c0.248-0.785,0.845-1.858,1.38-2.46v-0.061l0.961-0.96h0.061c0.602-0.535,1.675-1.132,2.46-1.38l0.659-0.18h0.061
	c1.416-0.149,1.523-0.149,2.939,0l0.66,0.18h0.061l0.66,0.24v0.06l0.6,0.3c1.227,0.625,1.775,1.256,2.58,2.341h0.061l0.359,0.6
	c0.445,0.809,0.738,1.839,0.84,2.76v0.721"/>
<path d="M116.391,103.728l0.54,0.42h-0.062l0.602,0.36l0.6,0.3v-0.06l0.66,0.239h-0.061l0.66,0.181l0.721,0.12h-0.061h1.439
	l0.72-0.12h-0.06l0.66-0.181l0.658-0.239l-0.06,0.06l0.601-0.3l0.6-0.36l1.08-0.84l-0.061,0.061l0.84-1.08l0.36-0.601l0.3-0.6
	l-0.061,0.06l0.24-0.66l0.181-0.659v0.06l0.12-0.72v-0.72h0.479v0.72c-0.564,5.241-6.121,8.21-10.8,5.76l-0.601-0.36v-0.06
	l-0.539-0.42"/>
<text transform="matrix(1 0 0 1 118.9712 100.1877)" font-family="'ProductusSemibold'" font-size="7.98">R</text>
<rect x="85.311" y="119.748" fill="#F7F7F7" width="14.16" height="14.16"/>
<rect x="85.311" y="119.507" width="14.4" height="0.479"/>
<rect x="99.231" y="119.748" width="0.48" height="14.399"/>
<rect x="85.071" y="133.667" width="14.4" height="0.479"/>
<rect x="85.071" y="119.507" width="0.48" height="14.4"/>
<text transform="matrix(1 0 0 1 90.9507 127.967)" font-family="'ProductusBook'" font-size="7.98">s1</text>
<rect x="142.011" y="119.748" fill="#F7F7F7" width="14.159" height="14.16"/>
<rect x="142.011" y="119.507" width="14.399" height="0.479"/>
<rect x="155.931" y="119.748" width="0.479" height="14.399"/>
<rect x="141.771" y="133.667" width="14.399" height="0.479"/>
<rect x="141.771" y="119.507" width="0.479" height="14.4"/>
<text transform="matrix(1 0 0 1 147.6509 127.967)" font-family="'ProductusBook'" font-size="7.98">s2</text>
<rect x="120.471" y="76.967" width="0.479" height="0.24"/>
<rect x="120.471" y="77.208" width="0.479" height="14.399"/>
<text transform="matrix(1 0 0 1 190.2515 98.7483)" font-family="'ProductusBook'" font-size="7.98">value=1</text>
</svg>
