<?xml version="1.0" encoding="utf-8"?>
<!-- Generator: Adobe Illustrator 16.0.1, SVG Export Plug-In . SVG Version: 6.00 Build 0)  -->
<!DOCTYPE svg PUBLIC "-//W3C//DTD SVG 1.1//EN" "http://www.w3.org/Graphics/SVG/1.1/DTD/svg11.dtd">
<svg version="1.1" id="Layer_1" xmlns="http://www.w3.org/2000/svg" xmlns:xlink="http://www.w3.org/1999/xlink" x="0px" y="0px"
	 width="337.219px" height="112.674px" viewBox="0 0 337.219 112.674" enable-background="new 0 0 337.219 112.674"
	 xml:space="preserve">
<polyline points="163.425,10.848 163.604,10.667 163.245,10.308 163.064,10.487 "/>
<polyline points="135.105,39.167 134.925,39.348 134.565,38.987 134.745,38.808 "/>
<polyline points="163.425,10.848 163.064,10.487 134.745,38.808 135.105,39.167 "/>
<polyline points="163.425,10.487 163.245,10.308 162.885,10.667 163.064,10.848 "/>
<polyline points="191.805,38.808 191.985,38.988 191.625,39.348 191.445,39.167 "/>
<polyline points="163.425,10.487 163.064,10.848 191.445,39.167 191.805,38.808 "/>
<polyline points="163.365,10.427 163.125,10.368 162.945,10.848 163.185,10.908 "/>
<polyline points="248.445,38.748 248.685,38.808 248.504,39.288 248.265,39.228 "/>
<polyline points="163.365,10.427 163.185,10.908 248.265,39.228 248.445,38.748 "/>
<polyline points="163.365,10.908 163.604,10.848 163.425,10.368 163.185,10.427 "/>
<polyline points="78.345,39.228 78.105,39.288 77.925,38.808 78.165,38.748 "/>
<polyline points="163.365,10.908 163.185,10.427 78.165,38.748 78.345,39.228 "/>
<polyline points="191.805,39.167 191.985,38.987 191.625,38.627 191.445,38.808 "/>
<polyline points="163.425,67.547 163.245,67.728 162.885,67.368 163.064,67.188 "/>
<polyline points="191.805,39.167 191.445,38.808 163.064,67.188 163.425,67.547 "/>
<polyline points="191.805,38.808 191.625,38.627 191.265,38.988 191.445,39.167 "/>
<polyline points="220.125,67.188 220.305,67.368 219.945,67.728 219.765,67.547 "/>
<polyline points="191.805,38.808 191.445,39.167 219.765,67.547 220.125,67.188 "/>
<polyline points="220.125,67.547 220.305,67.368 219.945,67.007 219.765,67.188 "/>
<polyline points="191.805,95.868 191.625,96.047 191.265,95.688 191.445,95.507 "/>
<polyline points="220.125,67.547 219.765,67.188 191.445,95.507 191.805,95.868 "/>
<rect x="219.706" y="67.127" width="0.479" height="0.24"/>
<rect x="219.706" y="67.368" width="0.479" height="28.56"/>
<polyline points="220.125,67.188 219.945,67.007 219.584,67.368 219.765,67.547 "/>
<polyline points="248.504,95.507 248.685,95.688 248.325,96.047 248.145,95.868 "/>
<polyline points="220.125,67.188 219.765,67.547 248.145,95.868 248.504,95.507 "/>
<text transform="matrix(1 0 0 1 301.8442 8.2676)" font-family="'ProductusOSGiBookc'" font-size="7.98">root node</text>
<text transform="matrix(1 0 0 1 175.8442 6.6475)" font-family="'ProductusBook'" font-size="7.98">.</text>
<text transform="matrix(1 0 0 1 200.8638 41.4482)" font-family="'ProductusSemibold'" font-size="7.98">Vendor</text>
<path fill="#808080" d="M170.325,10.667v-0.72l-0.119-0.72c-1.909-7.886-12.857-7.409-13.98,0.72l-0.06,0.72l0.06,0.72
	c1.119,8.111,12.075,8.585,13.98,0.72l0.119-0.72V10.667"/>
<path d="M170.084,10.667v-0.72v0.06l-0.119-0.72l-0.18-0.66v0.06l-0.24-0.66h0.06l-0.3-0.6l-0.359-0.6l-0.36-0.54v0.06l-0.48-0.54
	h0.061l-0.48-0.42v0.06l-0.6-0.42l-0.54-0.36h0.06l-0.659-0.3l-0.66-0.24l-0.66-0.18h0.06l-0.72-0.12h-1.44h0.061l-0.66,0.12
	l-0.72,0.18h0.06l-0.66,0.24l-0.6,0.3l-0.6,0.36l0.06-0.06l-0.54,0.42l-0.48,0.42l-0.48,0.54l-0.42,0.54l0.06-0.06l-0.6,1.2
	l-0.24,0.66v-0.06l-0.18,0.66l-0.12,0.72l-0.06,0.72v-0.06l0.06,0.72l0.12,0.72v-0.06l0.18,0.66l0.24,0.66v-0.06l0.6,1.2h-0.06
	l0.42,0.54v-0.06l0.96,0.96l-0.3,0.36h-0.06l-0.96-0.96l-0.42-0.54v-0.06l-0.6-1.2h-0.06l-0.24-0.66v-0.06
	c-0.81-2.305-0.154-4.908,1.32-6.78l0.48-0.54l0.06-0.06c1.864-1.868,4.738-2.624,7.26-1.8h0.06l0.66,0.24v0.06l0.66,0.3
	c0.959,0.602,1.46,0.859,2.16,1.8h0.06l0.361,0.54c0.676,0.997,1.061,2.166,1.198,3.36v0.72"/>
<path d="M158.925,15.948l0.54,0.42h-0.06l0.6,0.36l0.6,0.3v-0.06l0.66,0.24h-0.06l0.72,0.18l0.66,0.06l0.72,0.06h-0.06l1.439-0.12
	h-0.06l0.66-0.18l0.66-0.24v0.06l0.659-0.3h-0.06l0.54-0.36l0.6-0.42h-0.06l0.96-0.96v0.06l0.36-0.54l0.359-0.6l0.3-0.6l-0.061,0.06
	l0.24-0.66l0.18-0.66v0.06l0.121-0.72v-0.72h0.479v0.72c-0.213,1.958-1.075,3.636-2.579,4.92v0.06l-0.601,0.42h-0.06
	c-0.644,0.559-2.42,1.184-3.301,1.14l-0.72,0.06h-0.06l-0.721-0.06l-0.659-0.06h-0.061l-0.72-0.18l-0.66-0.24h-0.06l-0.6-0.3
	l-0.6-0.36v-0.06l-0.54-0.42"/>
<rect x="184.545" y="88.606" fill="#F7F7F7" width="14.16" height="14.16"/>
<rect x="184.545" y="88.368" width="14.399" height="0.48"/>
<rect x="198.465" y="88.606" width="0.479" height="14.4"/>
<rect x="184.305" y="102.526" width="14.4" height="0.48"/>
<rect x="184.305" y="88.368" width="0.48" height="14.4"/>
<path fill="#B3B3B3" d="M142.005,38.987l-0.12-1.44c-1.981-7.883-12.875-7.331-14.04,0.72v1.44c1.14,8.068,12.079,8.638,14.04,0.72
	L142.005,38.987"/>
<path d="M141.765,39.047l-0.12-1.44l-0.18-0.66v0.06l-0.24-0.66h0.06l-0.3-0.6l-0.36-0.6v0.06l-0.42-0.54l-0.96-0.96h0.06
	l-0.54-0.42v0.06l-0.6-0.36l-0.6-0.3h0.06l-0.66-0.24h0.06l-0.66-0.12l-0.72-0.12l-0.72-0.06h0.06l-0.72,0.06l-0.72,0.12l-0.66,0.12
	h0.06l-0.66,0.24l-0.6,0.3l-0.6,0.36l0.06-0.06l-0.54,0.42l-0.54,0.48l-0.42,0.48l-0.42,0.54l0.06-0.06l-0.36,0.6l-0.3,0.6
	l-0.24,0.66v-0.06l-0.18,0.66l-0.12,0.72v-0.06v1.44l0.12,0.72v-0.06l0.18,0.66l0.24,0.66l0.3,0.66v-0.06l0.36,0.54h-0.06l0.84,1.08
	v-0.06l0.54,0.42l-0.3,0.36l-0.54-0.42h-0.06l-0.84-1.08v-0.06l-0.36-0.54l-0.3-0.66h-0.06l-0.24-0.66v-0.06
	c-0.748-2.309-0.207-4.948,1.38-6.78l0.42-0.48l0.06-0.06c1.948-1.991,4.663-2.558,7.32-1.86h0.06l0.66,0.24v0.06l0.6,0.3
	c1.022,0.48,1.954,1.418,2.58,2.34h0.06l0.36,0.6c0.401,0.746,0.813,1.903,0.78,2.76l0.06,0.72"/>
<path d="M130.605,44.268l0.54,0.42h-0.06l0.6,0.36l0.6,0.3v-0.06l0.66,0.24h-0.06l0.66,0.18l0.72,0.12h-0.06h1.44l0.72-0.12h-0.06
	l0.66-0.18l0.66-0.24l-0.06,0.06l0.6-0.3l0.6-0.36l0.54-0.42l0.48-0.42l-0.06,0.06l0.48-0.54l0.42-0.54l0.36-0.54v0.06l0.3-0.66
	h-0.06l0.24-0.66l0.18-0.66v0.06l0.12-1.439v0.06l0.48-0.06v0.06c0.008,5.531-5.919,9.009-10.8,6.42l-0.6-0.36v-0.06l-0.54-0.42"/>
<path fill="#B3B3B3" d="M198.706,38.987l-0.062-0.72l-0.06-0.72c-1.981-7.883-12.875-7.331-14.041,0.72v1.44
	c1.141,8.068,12.08,8.638,14.041,0.72l0.06-0.72L198.706,38.987"/>
<path d="M198.465,39.047l-0.12-1.44l-0.181-0.66v0.06l-0.24-0.66h0.062l-0.301-0.6l-0.358-0.6v0.06l-0.42-0.54l-0.961-0.96h0.061
	l-0.541-0.42v0.06l-0.6-0.36l-0.601-0.3h0.062l-0.66-0.24h0.06l-0.66-0.12l-0.72-0.12l-0.721-0.06h0.061l-0.721,0.06l-0.719,0.12
	l-0.66,0.12h0.06l-0.659,0.24l-0.601,0.3l-0.601,0.36l0.061-0.06l-0.54,0.42l-0.54,0.48l-0.42,0.48l-0.42,0.54l0.061-0.06
	l-0.359,0.6l-0.301,0.6l-0.24,0.66v-0.06l-0.18,0.66l-0.119,0.72v-0.06v1.44l0.119,0.72v-0.06l0.18,0.66l0.24,0.66l0.301,0.66v-0.06
	l0.359,0.54h-0.061l0.84,1.08v-0.06l0.54,0.42l-0.3,0.36l-0.541-0.42h-0.059l-0.842-1.08v-0.06l-0.359-0.54l-0.299-0.66h-0.062
	l-0.24-0.66v-0.06c-0.748-2.309-0.207-4.948,1.381-6.78l0.42-0.48l0.06-0.06c1.949-1.991,4.664-2.558,7.32-1.86h0.061l0.66,0.24
	v0.06l0.6,0.3c1.021,0.48,1.955,1.418,2.58,2.34h0.061l0.359,0.6c0.4,0.746,0.812,1.903,0.78,2.76l0.061,0.72"/>
<path d="M187.305,44.268l0.54,0.42h-0.06l0.6,0.36l0.601,0.3v-0.06l0.659,0.24h-0.061l0.66,0.18l0.721,0.12h-0.061h1.439l0.72-0.12
	h-0.06l0.66-0.18l0.66-0.24l-0.062,0.06l0.601-0.3l0.6-0.36l0.541-0.42l0.479-0.42l-0.062,0.06l0.48-0.54l0.42-0.54l0.359-0.54v0.06
	l0.301-0.66h-0.061l0.24-0.66l0.18-0.66v0.06l0.119-1.439v0.06l0.48-0.06v0.06c0.008,5.531-5.92,9.009-10.801,6.42l-0.6-0.36v-0.06
	L187,44.628"/>
<path fill="#B3B3B3" d="M255.405,38.987l-0.061-0.72l-0.12-0.72c-1.777-7.885-12.913-7.305-13.979,0.72v1.44
	c1.039,8.038,12.223,8.643,13.979,0.72l0.12-0.72L255.405,38.987"/>
<path d="M255.165,39.047l-0.061-0.72l-0.119-0.72l-0.119-0.66v0.06l-0.24-0.66h0.06l-0.3-0.6l-0.36-0.6v0.06l-0.42-0.54l-0.96-0.96
	h0.061l-0.539-0.42v0.06l-0.602-0.36l-0.6-0.3h0.06l-0.659-0.24h0.061l-0.66-0.12l-0.721-0.12l-0.719-0.06h0.059l-0.719,0.06
	l-0.721,0.12l-0.66,0.12h0.061l-0.66,0.24l-0.66,0.3l-0.539,0.36l0.061-0.06l-0.541,0.42l-0.539,0.48l-0.42,0.48l-0.42,0.54
	l0.06-0.06l-0.358,0.6l-0.302,0.6l-0.239,0.66v-0.06l-0.181,0.66l-0.119,0.72v-0.06v1.44l0.119,0.72v-0.06l0.181,0.66l0.239,0.66
	l0.302,0.66v-0.06l0.358,0.54h-0.06l0.84,1.08v-0.06l0.539,0.42l-0.299,0.36l-0.541-0.42h-0.061l-0.84-1.08v-0.06l-0.359-0.54
	l-0.301-0.66h-0.061l-0.239-0.66v-0.06c-0.447-1.22-0.412-3.101,0-4.32l0.239-0.66l0.061-0.06c0.65-1.506,1.793-2.69,3.182-3.54
	h0.06l0.659-0.3v-0.06l0.66-0.24h0.061l0.66-0.12l0.72-0.12l0.722-0.06h0.06l0.72,0.06l0.721,0.12l0.66,0.12h0.061l0.66,0.24v0.06
	l0.6,0.3c1.021,0.48,1.954,1.418,2.58,2.34h0.061l0.359,0.6c0.566,1.035,0.591,1.603,0.779,2.76l0.061,0.72"/>
<path d="M244.004,44.268l0.541,0.42h-0.061l0.539,0.36l0.66,0.3v-0.06l0.66,0.24h-0.061l0.66,0.18l0.721,0.12h-0.062h1.44l0.72-0.12
	h-0.06l0.659-0.18l0.659-0.24l-0.061,0.06l0.601-0.3l0.601-0.36l0.541-0.42l0.479-0.42l-0.061,0.06l0.479-0.54l0.42-0.54l0.36-0.54
	v0.06l0.3-0.66h-0.06l0.239-0.66v0.06l0.12-0.66l0.119-0.72l0.061-0.72v0.06l0.479-0.06v0.06l-0.06,0.72
	c-0.211,2.417-1.285,3.887-3.181,5.34l-0.601,0.36l-0.6,0.3c-2.027,0.846-4.418,0.737-6.361-0.3h-0.059l-0.541-0.36v-0.06
	l-0.539-0.42"/>
<path fill="#B3B3B3" d="M85.305,38.987v-0.72l-0.12-0.72c-1.953-7.878-12.881-7.335-14.04,0.72v1.44
	c1.148,8.071,12.085,8.643,14.04,0.72l0.12-0.72V38.987"/>
<path d="M85.065,38.987v-0.72v0.06l-0.12-0.72l-0.18-0.66v0.06l-0.24-0.66h0.06l-0.3-0.6l-0.36-0.6v0.06l-0.42-0.54l-0.42-0.48h0.06
	l-0.54-0.48l-0.54-0.42v0.06l-0.6-0.36l-0.6-0.3h0.06l-0.66-0.24h0.06l-0.66-0.12l-0.72-0.12l-0.72-0.06h0.06l-0.72,0.06l-0.72,0.12
	l-0.66,0.12h0.06l-0.66,0.24l-0.6,0.3l-0.6,0.36l0.06-0.06l-0.54,0.42l-0.54,0.48l-0.42,0.48l-0.42,0.54l0.06-0.06l-0.36,0.6
	l-0.3,0.6l-0.24,0.66v-0.06l-0.18,0.66l-0.12,0.72v-0.06v1.44l0.12,0.72v-0.06l0.18,0.66l0.24,0.66l0.3,0.66v-0.06l0.36,0.54h-0.06
	l0.84,1.08v-0.06l0.54,0.42l-0.3,0.36l-0.54-0.42h-0.06l-0.84-1.08v-0.06l-0.36-0.54l-0.3-0.66h-0.06l-0.24-0.66v-0.06
	c-0.748-2.309-0.207-4.948,1.38-6.78l0.42-0.48l0.06-0.06c1.948-1.991,4.663-2.558,7.32-1.86h0.06l0.66,0.24v0.06l0.6,0.3
	c1.225,0.625,1.775,1.255,2.58,2.34h0.06l0.36,0.6c0.445,0.809,0.738,1.839,0.84,2.76v0.72"/>
<path d="M73.905,44.268l0.54,0.42h-0.06l0.6,0.36l0.6,0.3v-0.06l0.66,0.24h-0.06l0.66,0.18l0.72,0.12h-0.06h1.44l0.72-0.12h-0.06
	l0.66-0.18l0.66-0.24l-0.06,0.06l0.6-0.3l0.6-0.36l1.08-0.84l-0.06,0.06l0.84-1.08l0.36-0.54v0.06l0.3-0.66h-0.06l0.24-0.66
	l0.18-0.66v0.06l0.12-0.72v-0.72h0.48v0.72c-0.546,5.236-6.133,8.211-10.8,5.76l-0.6-0.36v-0.06l-0.54-0.42"/>
<path fill="#B3B3B3" d="M170.325,67.368v-0.721l-0.119-0.72c-1.881-7.878-12.878-7.409-13.98,0.72l-0.06,0.721l0.06,0.72
	c1.097,8.104,12.109,8.558,13.98,0.72l0.119-0.72V67.368"/>
<path d="M170.084,67.368v-0.721v0.061l-0.119-0.721l-0.18-0.659v0.06l-0.24-0.66h0.06l-0.3-0.66l-0.72-1.08v0.061l-0.48-0.54h0.061
	l-0.48-0.42v0.06l-0.6-0.42l-0.54-0.359h0.06l-0.659-0.301l-0.66-0.239l-0.66-0.181h0.06l-0.72-0.119h-1.44h0.061l-0.66,0.119
	l-0.72,0.181h0.06l-0.66,0.239l-0.6,0.301l-0.6,0.359l0.06-0.06l-0.54,0.42l-0.48,0.42l-0.48,0.54l-0.42,0.54l0.06-0.06l-0.3,0.539
	l-0.3,0.66l-0.24,0.66v-0.06l-0.18,0.659l-0.12,0.721l-0.06,0.72v-0.06l0.06,0.72l0.12,0.72v-0.06l0.18,0.66l0.24,0.659v-0.06
	l0.6,1.2h-0.06l0.42,0.54v-0.06l0.96,0.959l-0.3,0.36h-0.06l-0.96-0.96l-0.42-0.54v-0.06l-0.6-1.2h-0.06l-0.24-0.66v-0.06
	l-0.18-0.66l-0.12-0.721l-0.06-0.72v-0.06l0.06-0.721l0.12-0.72v-0.06l0.18-0.66l0.24-0.66h0.06l0.3-0.66v-0.06
	c0.669-1.354,2.103-2.593,3.48-3.181l0.06-0.06l0.66-0.239c1.309-0.398,3.018-0.461,4.32,0h0.06l0.66,0.239v0.06l0.66,0.301
	c0.959,0.602,1.46,0.859,2.16,1.8h0.06l0.36,0.54c0.617,0.816,1.1,2.329,1.199,3.359v0.721"/>
<path d="M158.925,72.647l0.54,0.42h-0.06l0.6,0.359l0.6,0.301v-0.061l0.66,0.24h-0.06l0.72,0.119l0.66,0.121l0.72,0.06h-0.06
	l0.72-0.06l0.72-0.121l0.66-0.119h-0.06l0.66-0.24v0.061l0.659-0.301h-0.06l0.54-0.359l0.6-0.42h-0.06l0.96-0.961v0.061l0.36-0.54
	l0.359-0.601l0.3-0.6l-0.06,0.061l0.24-0.66l0.18-0.66v0.061l0.119-0.721v-0.72h0.479v0.72c-0.213,1.958-1.075,3.637-2.579,4.92
	v0.061l-0.601,0.42h-0.06c-1.111,0.814-2.001,0.955-3.301,1.14l-0.72,0.06h-0.06l-0.721-0.06l-0.659-0.12l-0.72-0.12h-0.06
	l-0.66-0.239h-0.06l-0.6-0.301l-0.6-0.359v-0.061l-0.54-0.42"/>
<path fill="#B3B3B3" d="M227.024,67.368v-0.721l-0.119-0.72c-1.873-7.907-12.998-7.347-13.98,0.72l-0.059,0.721l0.059,0.72
	c0.994,8.015,12.055,8.63,13.98,0.72l0.119-0.72V67.368"/>
<path d="M226.786,67.368v-0.721v0.061l-0.121-0.721l-0.18-0.659v0.06l-0.24-0.66h0.061l-0.301-0.66l-0.359-0.539v0.06l-0.84-1.08
	h0.061l-1.08-0.84v0.06l-0.539-0.359h0.06l-0.66-0.301l-0.659-0.239l-0.66-0.181h0.061l-0.721-0.119h-1.439h0.061l-0.721,0.119
	l-0.658,0.181h0.059l-0.659,0.239l-0.601,0.301l-0.601,0.359l0.062-0.06l-0.541,0.42l-0.479,0.42l-0.479,0.54l-0.42,0.54l0.061-0.06
	l-0.359,0.539l-0.301,0.66l-0.238,0.66v-0.06l-0.121,0.659l-0.119,0.721l-0.062,0.72v-0.06l0.062,0.72l0.119,0.72l0.121,0.66v-0.06
	l0.238,0.659v-0.06l0.301,0.601l0.359,0.6h-0.061l0.42,0.54v-0.06l0.961,0.959l-0.301,0.36h-0.061l-0.96-0.96l-0.42-0.54v-0.06
	l-0.36-0.6l-0.3-0.601h-0.06l-0.24-0.66v-0.06l-0.12-0.66l-0.12-0.721l-0.061-0.72v-0.06l0.061-0.721l0.12-0.72l0.12-0.659v-0.061
	l0.24-0.66h0.06l0.3-0.66v-0.06c0.852-1.388,2.034-2.529,3.54-3.181l0.062-0.06l0.66-0.239c1.219-0.412,3.099-0.447,4.318,0h0.061
	l0.66,0.239v0.06l0.66,0.301c1.396,0.882,1.562,0.99,2.52,2.34h0.061l0.36,0.54v0.06l0.3,0.66l0.24,0.66l0.18,0.66v0.06l0.12,0.72
	v0.721"/>
<path d="M215.625,72.647l0.539,0.42h-0.061l0.602,0.359l0.6,0.301v-0.061l0.66,0.24h-0.061l0.659,0.119l0.722,0.121l0.719,0.06
	h-0.06l0.72-0.06l0.721-0.121l0.66-0.119h-0.061l0.659-0.24v0.061l0.66-0.301h-0.06l0.539-0.359l0.541-0.42l0.539-0.48l-0.061,0.061
	l0.42-0.48l0.42-0.54l0.359-0.601l0.301-0.6l-0.061,0.061l0.24-0.66l0.18-0.66v0.061l0.121-0.721v-0.72h0.479v0.72
	c-0.621,5.314-6.036,8.104-10.801,5.76l-0.6-0.359v-0.061l-0.54-0.42"/>
<rect x="212.866" y="88.606" fill="#F7F7F7" width="14.158" height="14.16"/>
<rect x="212.866" y="88.368" width="14.398" height="0.48"/>
<rect x="226.786" y="88.606" width="0.479" height="14.4"/>
<rect x="212.625" y="102.526" width="14.398" height="0.48"/>
<rect x="212.625" y="88.368" width="0.479" height="14.4"/>
<rect x="241.245" y="88.606" fill="#F7F7F7" width="14.16" height="14.16"/>
<rect x="241.245" y="88.368" width="14.399" height="0.48"/>
<rect x="255.165" y="88.606" width="0.479" height="14.4"/>
<rect x="241.004" y="102.526" width="14.4" height="0.48"/>
<rect x="241.004" y="88.368" width="0.48" height="14.4"/>
<text transform="matrix(1 0 0 1 258.1646 41.4482)" font-family="'ProductusSemibold'" font-size="7.98">Operator</text>
<text transform="matrix(1 0 0 1 110.2651 69.0479)" font-family="'ProductusSemibold'" font-size="7.98">ScreenSavers</text>
<text transform="matrix(1 0 0 1 144.165 41.4482)" font-family="'ProductusSemibold'" font-size="7.98">OSGi</text>
<text transform="matrix(1 0 0 1 89.5649 41.4482)" font-family="'ProductusSemibold'" font-size="7.98">OMA DM</text>
<text transform="matrix(1 0 0 1 231.0454 69.0479)" font-family="'ProductusSemibold'" font-size="7.98">RingSignals</text>
<text transform="matrix(1 0 0 1 184.6646 110.3271)" font-family="'ProductusBook'" font-size="7.98">Bach</text>
<text transform="matrix(1 0 0 1 213.4243 110.3271)" font-family="'ProductusBook'" font-size="7.98">Popcorn</text>
<text transform="matrix(1 0 0 1 241.7544 110.3271)" font-family="'ProductusBook'" font-size="7.98">Sinatra</text>
<polyline points="274.725,6.348 274.725,9.408 273.945,8.927 270.286,6.768 269.504,6.348 270.345,5.868 274.004,3.768 
	274.725,3.348 274.725,4.248 274.485,4.667 270.825,6.768 270.345,5.868 270.825,5.868 274.485,8.027 273.945,8.927 273.706,8.507 
	273.706,6.348 "/>
<rect x="273.706" y="4.248" width="1.02" height="2.1"/>
<polyline points="274.245,6.348 274.245,8.507 270.584,6.348 274.245,4.248 "/>
<rect x="274.545" y="6.107" width="16.5" height="0.48"/>
<text transform="matrix(1 0 0 1 300.3442 57.8867)" font-family="'ProductusOSGiBookc'" font-size="7.98">interior node</text>
<polyline points="274.485,50.567 273.825,52.607 273.584,53.448 272.924,52.728 270.104,49.488 269.504,48.828 270.465,48.647 
	274.665,47.808 275.445,47.627 275.206,48.527 274.845,48.828 270.645,49.667 270.465,48.647 270.885,48.828 273.706,52.067 
	272.924,52.728 272.805,52.248 273.465,50.208 "/>
<polyline points="275.206,48.527 274.485,50.567 273.465,50.208 274.185,48.167 "/>
<polyline points="274.004,50.387 273.345,52.427 270.524,49.188 274.725,48.348 "/>
<polyline points="290.745,56.208 290.985,56.268 291.165,55.788 290.924,55.728 "/>
<polyline points="274.424,50.748 274.185,50.688 274.366,50.208 274.604,50.268 "/>
<polyline points="290.745,56.208 290.924,55.728 274.604,50.268 274.424,50.748 "/>
<text transform="matrix(1 0 0 1 300.0454 85.5479)" font-family="'ProductusOSGiBookc'" font-size="7.98">leaf node</text>
<polyline points="281.564,89.748 282.286,91.788 282.584,92.627 281.625,92.448 277.424,91.547 276.645,91.308 277.185,90.708 
	280.004,87.526 280.604,86.808 280.905,87.708 280.786,88.188 277.965,91.368 277.185,90.708 277.665,90.526 281.866,91.428 
	281.625,92.448 281.265,92.147 280.545,90.106 "/>
<polyline points="280.905,87.708 281.564,89.748 280.545,90.106 279.885,88.067 "/>
<polyline points="281.084,89.927 281.805,91.967 277.604,91.067 280.424,87.888 "/>
<polyline points="298.064,84.587 298.305,84.526 298.125,84.047 297.885,84.106 "/>
<polyline points="281.685,89.987 281.445,90.047 281.265,89.567 281.504,89.507 "/>
<polyline points="298.064,84.587 297.885,84.106 281.504,89.507 281.685,89.987 "/>
<rect x="0.285" y="63.047" fill="#F7F7F7" width="7.08" height="7.08"/>
<rect x="0.285" y="62.808" width="7.32" height="0.48"/>
<rect x="7.125" y="63.047" width="0.48" height="7.32"/>
<rect x="0.045" y="69.888" width="7.32" height="0.48"/>
<rect x="0.045" y="62.808" width="0.48" height="7.32"/>
<path fill="#B3B3B3" d="M7.365,80.808l-0.06-0.72l-0.24-0.66c-1.311-3.212-5.993-2.752-6.72,0.66l-0.06,0.72l0.06,0.66
	c0.627,3.372,5.369,3.92,6.72,0.721l0.24-0.721L7.365,80.808"/>
<path d="M7.125,80.868l-0.06-0.721v0.061l-0.24-0.66h0.06l-0.3-0.6v0.06l-0.42-0.54h0.06l-0.54-0.42v0.061l-0.6-0.36h0.06
	l-0.66-0.181h0.06l-0.72-0.06h0.06l-0.72,0.06l-0.66,0.181h0.06l-0.6,0.36l0.06-0.061l-0.54,0.42l-0.42,0.54l0.06-0.06l-0.36,0.6
	v-0.061l-0.18,0.66l-0.06,0.721v-0.061l0.06,0.66v-0.06l0.18,0.72v-0.061l0.36,0.601h-0.06l0.42,0.479v-0.06l0.54,0.479h-0.06
	l0.6,0.301l-0.06-0.061l0.66,0.181l0.72,0.12h-0.06l0.72-0.12h-0.06l0.66-0.181l-0.06,0.061l0.6-0.301l0.54-0.479l-0.06,0.06
	l0.42-0.479l0.3-0.601l-0.06,0.061l0.24-0.72v0.06l0.06-0.66l0.48,0.061l-0.06,0.66v0.06c-0.378,1.306-0.621,1.521-1.62,2.399
	l-0.6,0.301h-0.06c-1.311,0.426-1.625,0.354-2.88,0h-0.06l-0.6-0.301v-0.06c-4.836-3.591,1.666-10.049,5.22-5.22h0.06l0.3,0.6v0.061
	l0.24,0.66v0.06l0.06,0.72"/>
<polyline points="7.125,80.808 7.125,80.868 7.605,80.808 7.605,80.868 "/>
<text transform="matrix(1 0 0 1 14.4448 67.7871)" font-family="'ProductusOSGiBookc'" font-size="7.98">leaf node</text>
<text transform="matrix(1 0 0 1 14.4448 82.0078)" font-family="'ProductusOSGiBookc'" font-size="7.98">interior node</text>
</svg>
