<?xml version="1.0" encoding="utf-8"?>
<!-- Generator: Adobe Illustrator 16.0.1, SVG Export Plug-In . SVG Version: 6.00 Build 0)  -->
<!DOCTYPE svg PUBLIC "-//W3C//DTD SVG 1.1//EN" "http://www.w3.org/Graphics/SVG/1.1/DTD/svg11.dtd">
<svg version="1.1" id="Layer_1" xmlns="http://www.w3.org/2000/svg" xmlns:xlink="http://www.w3.org/1999/xlink" x="0px" y="0px"
	 width="209.936px" height="134.125px" viewBox="0 0 209.936 134.125" enable-background="new 0 0 209.936 134.125"
	 xml:space="preserve">
<polyline points="64.2,41.567 64.02,41.388 63.66,41.747 63.84,41.927 "/>
<polyline points="92.58,69.947 92.76,70.127 92.4,70.486 92.22,70.309 "/>
<polyline points="64.2,41.567 63.84,41.927 92.22,70.309 92.58,69.947 "/>
<polyline points="92.52,13.188 92.28,13.127 92.1,13.607 92.34,13.667 "/>
<polyline points="177.54,41.507 177.78,41.567 177.6,42.047 177.36,41.987 "/>
<polyline points="92.52,13.188 92.34,13.667 177.36,41.987 177.54,41.507 "/>
<polyline points="92.52,13.667 92.76,13.607 92.58,13.127 92.34,13.188 "/>
<polyline points="7.44,41.987 7.2,42.047 7.02,41.567 7.26,41.507 "/>
<polyline points="92.52,13.667 92.34,13.188 7.26,41.507 7.44,41.987 "/>
<polyline points="92.58,13.247 92.4,13.067 92.04,13.427 92.22,13.607 "/>
<polyline points="120.9,41.567 121.08,41.747 120.72,42.107 120.54,41.927 "/>
<polyline points="92.58,13.247 92.22,13.607 120.54,41.927 120.9,41.567 "/>
<polyline points="63.9,34.487 63.72,34.607 64.02,34.967 64.2,34.848 "/>
<polyline points="92.28,13.247 92.459,13.127 92.76,13.487 92.58,13.607 "/>
<polyline points="63.9,34.487 64.2,34.848 92.58,13.607 92.28,13.247 "/>
<text transform="matrix(1 0 0 1 83.6995 6.6475)" font-family="'ProductusBook'" font-size="7.98">.</text>
<path fill="#808080" d="M99.48,13.427l-0.062-0.72l-0.119-0.72c-1.697-7.917-12.991-7.326-13.979,0.72v1.44
	c1.033,8.021,12.326,8.554,13.979,0.66l0.119-0.66L99.48,13.427"/>
<path d="M99.24,13.487l-0.06-0.72l-0.12-0.721l-0.12-0.659v0.06l-0.24-0.66h0.062l-0.302-0.66L98.1,9.587v0.061l-0.42-0.601
	l-0.96-0.96l0.06,0.061l-0.54-0.36l-0.6-0.36l-0.602-0.3H95.1l-0.66-0.239l-0.66-0.181h0.061l-0.721-0.12H91.68h0.06l-0.72,0.12
	l-0.66,0.181h0.06l-0.66,0.238l-0.659,0.3l-1.08,0.721l0.06-0.061l-0.54,0.48l-0.42,0.479h0.062l-0.42,0.601v-0.06l-0.36,0.54
	l-0.3,0.66l-0.24,0.66v-0.06l-0.18,0.659l-0.12,0.721v-0.061v1.44l0.12,0.66v-0.061l0.18,0.72l0.24,0.66v-0.06l0.3,0.6l0.36,0.601
	H86.7l0.42,0.54l0.42,0.479v-0.06l0.54,0.479l-0.3,0.36l-0.54-0.48h-0.06l-0.421-0.479l-0.42-0.54v-0.061l-0.359-0.6l-0.3-0.6H85.62
	l-0.24-0.66v-0.061l-0.18-0.72l-0.12-0.66v-1.5l0.12-0.72v-0.061l0.18-0.659l0.24-0.66h0.062l0.3-0.66v-0.06l0.359-0.54l0.421-0.601
	l0.42-0.479l0.06-0.061l0.54-0.479l1.08-0.721h0.06l0.66-0.3v-0.06l0.66-0.24l0.66-0.18h0.06l0.722-0.12h1.5l0.72,0.12l0.66,0.18
	h0.06l0.66,0.24v0.06l0.6,0.3c2.222,1.104,3.592,3.227,3.78,5.7l0.062,0.72"/>
<path d="M88.08,18.707l0.54,0.42h-0.06l0.54,0.3l0.659,0.301v-0.061l0.659,0.24h-0.06l0.66,0.18l0.72,0.12l0.72,0.061H92.4
	l0.72-0.061l0.721-0.12H93.78l0.66-0.18l0.66-0.24l-0.062,0.061l1.2-0.601l0.54-0.42h-0.06l0.96-0.96v0.061l0.42-0.54l0.358-0.601
	l0.301-0.6l-0.061,0.06l0.24-0.66v0.061l0.12-0.72l0.12-0.66l0.06-0.721v0.061l0.479-0.061v0.061l-0.061,0.72
	c-0.24,2.491-1.269,3.801-3.18,5.34l-1.2,0.601c-2.289,0.888-4.16,0.763-6.36-0.3h-0.06l-0.54-0.301v-0.06l-0.54-0.42"/>
<path fill="#B3B3B3" d="M127.8,41.747v-0.72l-0.119-0.72c-1.918-7.901-12.982-7.322-13.98,0.72l-0.06,0.72l0.06,0.72
	c0.938,8.051,12.141,8.615,13.98,0.721l0.119-0.721V41.747"/>
<path d="M127.56,41.747v-0.72v0.06l-0.12-0.72l-0.181-0.66v0.061l-0.239-0.66h0.06l-0.3-0.601l-0.36-0.6v0.06l-0.42-0.54
	l-0.42-0.479h0.062l-0.54-0.48l-0.54-0.42v0.061l-0.602-0.36l-0.6-0.3h0.06l-0.658-0.24l-0.66-0.18h0.06l-1.438-0.12h0.06
	l-1.439,0.12l-0.659,0.18h0.06l-0.66,0.24l-0.6,0.3l-0.602,0.36l0.062-0.061l-0.54,0.42l-0.96,0.96l-0.42,0.54l0.06-0.06l-0.358,0.6
	l-0.302,0.601l-0.238,0.66v-0.061L114,40.367l-0.06,0.72l-0.062,0.721v-0.061l0.062,0.72l0.06,0.721v-0.061l0.182,0.66l0.238,0.66
	v-0.06l0.302,0.6l0.358,0.6h-0.06l0.42,0.54l0.479,0.54v-0.06l0.48,0.42l-0.3,0.36l-0.48-0.421h-0.06l-0.48-0.54l-0.42-0.539v-0.061
	l-0.359-0.6l-0.3-0.599h-0.06l-0.24-0.66v-0.06l-0.18-0.66c-0.149-1.416-0.149-1.523,0-2.939v-0.061l0.18-0.66
	c0.248-0.785,0.845-1.857,1.38-2.46v-0.06l0.96-0.96h0.062c0.601-0.535,1.675-1.132,2.46-1.38l0.66-0.181h0.06
	c1.416-0.149,1.524-0.149,2.94,0l0.658,0.181h0.062l0.66,0.239v0.061l0.6,0.3c1.226,0.625,1.775,1.255,2.58,2.34h0.061l0.359,0.601
	c0.445,0.809,0.738,1.839,0.84,2.76v0.72"/>
<path d="M116.4,47.027l0.54,0.42h-0.062l0.602,0.36l0.6,0.3v-0.061l0.66,0.24h-0.06l0.659,0.18l0.721,0.12H120h1.44l0.72-0.12h-0.06
	l0.659-0.18l0.659-0.24l-0.06,0.061l0.6-0.3l0.602-0.36l1.08-0.84l-0.062,0.06l0.84-1.08l0.36-0.6l0.3-0.6l-0.06,0.06l0.239-0.66
	l0.181-0.66v0.061l0.12-0.721v-0.72h0.479v0.72c-0.563,5.241-6.121,8.21-10.8,5.761l-0.6-0.36v-0.06l-0.54-0.42"/>
<text transform="matrix(1 0 0 1 118.4988 43.6074)" font-family="'ProductusSemibold'" font-size="7.98">P</text>
<path fill="#B3B3B3" d="M184.5,41.747v-0.72l-0.12-0.72c-1.918-7.901-12.98-7.322-13.979,0.72l-0.061,0.72l0.061,0.72
	c0.936,8.051,12.14,8.615,13.979,0.721l0.12-0.721V41.747"/>
<path d="M184.26,41.747v-0.72v0.06l-0.119-0.72l-0.182-0.66v0.061l-0.238-0.66h0.06l-0.3-0.601l-0.36-0.6v0.06l-0.42-0.54
	l-0.42-0.479h0.061l-0.54-0.48l-0.539-0.42v0.061l-0.602-0.36l-0.6-0.3h0.06l-0.66-0.24l-0.659-0.18h0.061l-1.44-0.12h0.062
	l-1.44,0.12l-0.66,0.18h0.062l-0.66,0.24l-0.6,0.3l-0.602,0.36l0.062-0.061l-0.54,0.42l-0.96,0.96l-0.42,0.54l0.06-0.06l-0.36,0.6
	l-0.3,0.601l-0.24,0.66v-0.061l-0.18,0.66l-0.12,1.44v-0.061l0.12,1.44v-0.061l0.18,0.66l0.24,0.66v-0.06l0.3,0.6l0.36,0.6h-0.06
	l0.42,0.54l0.479,0.54v-0.06l0.48,0.42l-0.301,0.36l-0.479-0.421h-0.06l-0.48-0.54l-0.42-0.539v-0.061l-0.36-0.6l-0.3-0.601h-0.06
	l-0.24-0.66v-0.06l-0.18-0.66c-0.149-1.416-0.149-1.523,0-2.939v-0.061l0.18-0.66c0.248-0.785,0.845-1.858,1.38-2.46v-0.06
	l0.96-0.96h0.062c0.602-0.535,1.675-1.132,2.46-1.38l0.658-0.181h0.062c1.416-0.149,1.522-0.149,2.938,0l0.66,0.181h0.062
	l0.66,0.239v0.061l0.6,0.3c1.225,0.625,1.775,1.255,2.58,2.34h0.06l0.36,0.601c0.445,0.809,0.738,1.839,0.84,2.76v0.72"/>
<path d="M173.1,47.027l0.54,0.42h-0.062l0.602,0.36l0.6,0.3v-0.061l0.66,0.24h-0.062l0.66,0.18l0.721,0.12h-0.06h1.44l0.72-0.12
	H178.8l0.659-0.18l0.66-0.24l-0.06,0.061l0.6-0.3l0.601-0.36l1.08-0.84l-0.061,0.06l0.84-1.08l0.36-0.6l0.3-0.6l-0.06,0.06
	l0.238-0.66l0.182-0.66v0.061l0.119-0.721v-0.72h0.479v0.72c-0.564,5.241-6.121,8.21-10.8,5.761l-0.601-0.36v-0.06l-0.54-0.42"/>
<text transform="matrix(1 0 0 1 175.2 43.6074)" font-family="'ProductusSemibold'" font-size="7.98">X</text>
<rect x="177.18" y="76.967" width="0.479" height="0.24"/>
<rect x="177.18" y="77.207" width="0.479" height="14.4"/>
<path fill="#B3B3B3" d="M184.5,70.127v-0.779l-0.12-0.66c-1.855-7.898-12.96-7.364-13.979,0.66l-0.061,0.779l0.061,0.721
	c0.938,7.941,12.111,8.631,13.979,0.659l0.12-0.659V70.127"/>
<path d="M184.26,70.127v-0.779v0.061l-0.119-0.66l-0.182-0.721l0.062,0.061l-0.24-0.6l-0.3-0.66l-0.36-0.54v0.061l-0.42-0.601
	l-0.42-0.479h0.061l-0.54-0.48v0.061l-0.539-0.36l-0.602-0.36l-0.6-0.3h0.06l-0.66-0.24l-0.659-0.18h0.061l-0.72-0.12l-0.722-0.06
	h0.062l-0.72,0.06l-0.722,0.12l-0.66,0.18h0.062l-0.66,0.24l-0.6,0.3l-0.602,0.36l-0.54,0.36l0.062-0.061l-0.96,0.96h0.06
	l-0.42,0.601v-0.061l-0.36,0.54l-0.3,0.66l-0.24,0.6v-0.06l-0.18,0.72l-0.06,0.66l-0.062,0.78v-0.062l0.062,0.722l0.06,0.658v-0.06
	l0.18,0.72l0.24,0.66v-0.061l0.3,0.601l0.36,0.6h-0.06l0.42,0.54v-0.06l0.96,0.96h-0.062l-0.239,0.42l-0.061-0.061
	c-0.809-0.8-1.234-1.146-1.74-2.16l-0.3-0.601h-0.06l-0.24-0.659v-0.061l-0.18-0.721l-0.062-0.659l-0.06-0.72v-0.062l0.06-0.778
	l0.062-0.66v-0.062l0.18-0.72h0.06l0.24-0.6l0.3-0.66v-0.061l0.36-0.54l0.42-0.6v-0.06l0.96-0.961h0.061l0.54-0.359l0.601-0.36
	l0.6-0.3l0.062-0.06c1.671-0.662,3.247-0.807,4.979-0.24h0.062l0.66,0.24v0.06l0.6,0.3c1.018,0.616,1.455,0.784,2.16,1.74h0.06
	l0.42,0.6c0.65,0.893,1.062,2.2,1.2,3.301v0.779"/>
<path d="M173.04,75.407l0.54,0.36l0.602,0.358l0.6,0.3v-0.06l0.66,0.239h-0.062l0.66,0.181l0.721,0.12l0.721,0.06h-0.062l0.722-0.06
	l0.72-0.12h-0.061l0.659-0.181l0.66-0.239l-0.06,0.06l0.6-0.3l0.601-0.358l0.54-0.36l0.54-0.48l-0.061,0.062l0.42-0.48l0.42-0.54
	l0.36-0.6l0.3-0.601l-0.061,0.061l0.239-0.66l0.182-0.72v0.06l0.119-0.658v-0.722h0.479v0.722c-0.536,5.502-6.835,8.392-11.399,5.34
	l-0.54-0.36"/>
<text transform="matrix(1 0 0 1 175.2 71.9268)" font-family="'ProductusSemibold'" font-size="7.98">Y</text>
<rect x="177.18" y="48.587" width="0.479" height="0.24"/>
<rect x="177.18" y="48.827" width="0.479" height="14.4"/>
<rect x="7.08" y="48.587" width="0.48" height="0.24"/>
<rect x="7.08" y="48.827" width="0.48" height="14.4"/>
<polyline points="64.2,41.927 64.38,41.747 64.02,41.388 63.84,41.567 "/>
<polyline points="35.88,70.309 35.7,70.486 35.34,70.127 35.52,69.947 "/>
<polyline points="64.2,41.927 63.84,41.567 35.52,69.947 35.88,70.309 "/>
<path fill="#B3B3B3" d="M14.4,70.127v-0.779l-0.12-0.66C12.399,60.8,1.401,61.289,0.3,69.348l-0.06,0.779l0.06,0.721
	c1.059,8.06,12.149,8.536,13.98,0.659l0.12-0.659V70.127"/>
<path d="M14.16,70.127v-0.779v0.061l-0.12-0.66l-0.18-0.721l0.06,0.061l-0.239-0.6l-0.301-0.66l-0.359-0.54v0.061l-0.42-0.601
	l-0.42-0.479h0.06l-0.54-0.48v0.061l-1.08-0.721h0.061l-0.66-0.3l-0.66-0.24l-0.66-0.18h0.06l-0.72-0.12l-0.72-0.06h0.06l-0.72,0.06
	L6,63.407l-0.72,0.18h0.06l-0.659,0.24l-0.601,0.3l-0.6,0.36l-0.54,0.36L3,64.787l-0.96,0.96H2.1l-0.42,0.601v-0.061l-0.36,0.54
	l-0.24,0.66l-0.24,0.6v-0.06l-0.18,0.72l-0.12,0.66l-0.06,0.78v-0.062l0.06,0.722l0.12,0.658v-0.06l0.18,0.72l0.24,0.66l0.24,0.6
	v-0.06l0.36,0.6H1.62l0.42,0.54v-0.06L3,75.407H2.94l-0.24,0.42l-0.06-0.06c-0.81-0.801-1.234-1.146-1.74-2.16l-0.24-0.602H0.6
	l-0.24-0.658v-0.062l-0.18-0.72l-0.12-0.66L0,70.188v-0.061l0.061-0.779l0.12-0.66v-0.061l0.18-0.72h0.06l0.24-0.6H0.6l0.239-0.66
	L0.9,66.586c0.914-1.468,1.397-2.051,2.939-2.88l0.601-0.3l0.06-0.06c1.731-0.646,3.186-0.817,4.98-0.24h0.06l0.66,0.24v0.06
	l0.66,0.3c1.003,0.688,1.363,0.741,2.1,1.74h0.061l0.42,0.6c0.649,0.893,1.062,2.2,1.2,3.302v0.778"/>
<path d="M2.94,75.407l0.54,0.36l0.6,0.358l0.601,0.3v-0.06l0.659,0.239H5.28L6,76.787l0.66,0.12l0.72,0.06H7.32l0.72-0.06l0.72-0.12
	H8.7l0.66-0.18l0.66-0.24v0.06l0.66-0.3H10.62l1.08-0.72l0.54-0.48l-0.06,0.062l0.42-0.48l0.42-0.54l0.359-0.6l0.301-0.601
	l-0.061,0.061l0.24-0.66l0.18-0.72v0.06l0.12-0.658v-0.722h0.48v0.722c-0.581,5.529-6.761,8.375-11.4,5.34l-0.54-0.36"/>
<text transform="matrix(1 0 0 1 5.5798 71.8076)" font-family="'ProductusSemibold'" font-size="7.98">B</text>
<path fill="#B3B3B3" d="M14.4,41.747v-0.72l-0.12-0.72c-1.96-7.899-12.894-7.351-13.98,0.72l-0.06,0.72l0.06,0.72
	c1.083,8.074,12.008,8.653,13.98,0.721l0.12-0.721V41.747"/>
<path d="M14.16,41.747v-0.72v0.06l-0.12-0.72l-0.18-0.66v0.061l-0.24-0.66h0.061l-0.301-0.601l-0.359-0.6v0.06l-0.42-0.54
	l-0.42-0.479h0.06l-0.54-0.48l-0.54-0.42v0.061l-0.54-0.36h0.061l-0.66-0.3l-0.66-0.24l-0.66-0.18h0.06l-1.439-0.12h0.06l-0.72,0.06
	L6,35.027l-0.72,0.18h0.06l-0.659,0.24l-0.601,0.3l-0.6,0.36l0.06-0.061L3,36.467l-0.96,0.96l-0.42,0.54l0.061-0.06l-0.36,0.6
	l-0.24,0.601l-0.24,0.66v-0.061l-0.18,0.66l-0.12,0.72l-0.06,0.721v-0.061l0.06,0.72l0.12,0.721v-0.061l0.18,0.66l0.24,0.66
	l0.24,0.6v-0.06l0.36,0.6H1.62l0.42,0.54l0.48,0.54v-0.06L3,47.027l-0.3,0.36L2.22,46.966H2.16l-0.479-0.54L1.26,45.887v-0.061
	l-0.359-0.6l-0.24-0.601H0.6l-0.24-0.66v-0.06l-0.18-0.66l-0.12-0.72L0,41.808v-0.061l0.061-0.72l0.12-0.72v-0.061l0.18-0.66
	l0.24-0.66h0.06l0.24-0.6v-0.06c0.672-1.252,1.688-2.269,2.939-2.94l0.601-0.3l0.06-0.061c1.361-0.626,3.576-0.688,4.98-0.239h0.06
	l0.66,0.239v0.061l0.66,0.3c1.218,0.719,1.685,1.207,2.52,2.34h0.061l0.359,0.601c0.445,0.809,0.738,1.839,0.841,2.76v0.72"/>
<path d="M3,47.027l0.54,0.42H3.48l0.6,0.36l0.601,0.3v-0.061l0.659,0.24H5.28L6,48.467l0.66,0.12H6.6H8.04l0.72-0.12H8.7l0.66-0.18
	l0.66-0.24v0.061l0.66-0.3H10.62l0.54-0.36l1.08-0.84l-0.06,0.06l0.84-1.08l0.359-0.6l0.301-0.6l-0.061,0.06l0.24-0.66l0.18-0.66
	v0.061l0.12-0.721v-0.72h0.48v0.72c-0.583,5.26-6.091,8.198-10.801,5.761l-0.6-0.36v-0.06l-0.54-0.42"/>
<text transform="matrix(1 0 0 1 5.0999 43.6074)" font-family="'ProductusSemibold'" font-size="7.98">A</text>
<path fill="#B3B3B3" d="M71.1,41.747v-0.72l-0.12-0.72C69.024,32.375,58.019,33,57,41.027l-0.06,0.72l0.06,0.72
	c0.993,8.067,12.097,8.628,13.98,0.721l0.12-0.721V41.747"/>
<path d="M70.86,41.747v-0.72v0.06l-0.12-0.72l-0.18-0.66v0.061l-0.24-0.66h0.06l-0.3-0.601l-0.358-0.6v0.06l-0.421-0.54l-0.42-0.479
	h0.061l-0.54-0.48l-0.54-0.42v0.061l-0.54-0.36h0.06l-0.659-0.3l-0.66-0.24l-0.66-0.18h0.06l-1.439-0.12h0.06l-1.439,0.12
	l-0.66,0.18h0.06l-0.66,0.24l-0.6,0.3l-0.6,0.36l0.06-0.061l-0.54,0.42l-0.96,0.96l-0.42,0.54l0.06-0.06l-0.359,0.6l-0.3,0.601
	l-0.24,0.66v-0.061l-0.12,0.66l-0.12,0.72l-0.06,0.721v-0.061l0.06,0.72l0.12,0.721l0.12,0.66v-0.061l0.24,0.66v-0.06l0.3,0.6
	l0.359,0.6h-0.06l0.42,0.54l0.48,0.54v-0.06l0.479,0.42l-0.3,0.36l-0.48-0.421h-0.06l-0.48-0.54l-0.42-0.539v-0.061l-0.359-0.6
	l-0.301-0.601h-0.06L57,43.967v-0.06l-0.12-0.66c-0.236-1.211-0.236-1.729,0-2.939l0.12-0.66v-0.061
	c0.248-0.785,0.846-1.857,1.38-2.46v-0.06l0.96-0.96H59.4c0.601-0.535,1.675-1.132,2.46-1.38l0.66-0.181h0.06
	c1.416-0.149,1.524-0.149,2.94,0l0.66,0.181h0.06l0.66,0.239v0.061l0.66,0.3c1.218,0.719,1.685,1.207,2.52,2.34h0.062l0.358,0.601
	c0.445,0.809,0.738,1.839,0.841,2.76v0.72"/>
<path d="M59.7,47.027l0.54,0.42h-0.06l0.6,0.36l0.6,0.3v-0.061l0.66,0.24h-0.06l0.66,0.18l0.72,0.12H63.3h1.44l0.72-0.12H65.4
	l0.66-0.18l0.66-0.24v0.061l0.659-0.3h-0.06l0.54-0.36l1.08-0.84l-0.061,0.06l0.841-1.08l0.358-0.6l0.3-0.6l-0.06,0.06l0.24-0.66
	l0.18-0.66v0.061l0.12-0.721v-0.72h0.479v0.72c-0.573,5.254-6.106,8.207-10.8,5.761l-0.6-0.36v-0.06l-0.54-0.42"/>
<text transform="matrix(1 0 0 1 61.7996 43.6074)" font-family="'ProductusSemibold'" font-size="7.98">M</text>
<rect x="28.62" y="62.987" fill="#F7F7F7" width="14.16" height="14.22"/>
<rect x="28.62" y="62.747" width="14.4" height="0.48"/>
<rect x="42.54" y="62.987" width="0.48" height="14.46"/>
<rect x="28.38" y="76.967" width="14.4" height="0.48"/>
<rect x="28.38" y="62.747" width="0.48" height="14.46"/>
<text transform="matrix(1 0 0 1 34.2595 71.2676)" font-family="'ProductusBook'" font-size="7.98">n2</text>
<path fill="#B3B3B3" d="M14.4,98.447v-0.721l-0.12-0.721c-1.93-7.898-12.924-7.349-13.98,0.721l-0.06,0.721l0.06,0.72
	c1.083,8.074,12.008,8.653,13.98,0.722l0.12-0.722V98.447"/>
<path d="M14.16,98.447v-0.721v0.061l-0.12-0.721l-0.18-0.659v0.06l-0.24-0.658h0.061l-0.301-0.602l-0.359-0.6v0.06l-0.84-1.08h0.06
	l-1.08-0.84v0.062l-0.54-0.36h0.061l-0.66-0.3l-0.66-0.24l-0.66-0.18h0.06L7.32,91.607h0.06l-0.72,0.061L6,91.729l-0.72,0.18h0.06
	l-0.659,0.24l-0.601,0.3l-0.6,0.36l0.06-0.062L3,93.167l-0.479,0.42l-0.48,0.54l-0.42,0.54l0.061-0.06l-0.36,0.6l-0.24,0.602
	l-0.24,0.658v-0.06l-0.18,0.659l-0.12,0.721l-0.06,0.72v-0.06l0.06,0.72l0.12,0.722v-0.062l0.18,0.659l0.24,0.66l0.24,0.601v-0.06
	l0.36,0.6H1.62l0.42,0.54l0.48,0.54v-0.061L3,103.727l-0.3,0.359l-0.479-0.42H2.16l-0.479-0.54l-0.421-0.54v-0.061L0.9,101.925
	l-0.24-0.6H0.6l-0.24-0.66v-0.06l-0.18-0.66l-0.12-0.721L0,98.507v-0.06l0.061-0.721l0.12-0.721v-0.061l0.18-0.659l0.24-0.66h0.06
	l0.24-0.601v-0.061c0.78-1.429,2.05-2.586,3.54-3.238l0.06-0.062l0.66-0.24c1.299-0.38,3.036-0.397,4.32,0h0.06l0.66,0.24v0.062
	l0.66,0.299c1.396,0.883,1.562,0.992,2.52,2.341h0.061l0.359,0.6c0.445,0.81,0.738,1.841,0.841,2.761v0.721"/>
<path d="M3,103.729l0.54,0.42H3.48l0.6,0.358l0.601,0.302v-0.062l0.659,0.239H5.28L6,105.167l0.66,0.12H6.6H8.04l0.72-0.12H8.7
	l0.66-0.181l0.66-0.239v0.062l0.66-0.302H10.62l0.54-0.358l1.08-0.84l-0.06,0.06l0.84-1.08l0.359-0.601l0.301-0.601l-0.061,0.062
	l0.24-0.66l0.18-0.66v0.061l0.12-0.721v-0.72h0.48v0.72c-0.583,5.26-6.09,8.198-10.801,5.76l-0.6-0.359v-0.061l-0.54-0.42"/>
<text transform="matrix(1 0 0 1 5.5798 100.1875)" font-family="'ProductusSemibold'" font-size="7.98">C</text>
<path fill="#B3B3B3" d="M14.4,126.768v-0.721l-0.12-0.658c-1.831-7.879-12.922-7.399-13.98,0.658l-0.06,0.721l0.06,0.779
	c1.074,8.061,12.132,8.54,13.98,0.66l0.12-0.66V126.768"/>
<path d="M14.16,126.768v-0.721v0.061l-0.12-0.659l-0.18-0.72v0.06l-0.24-0.66h0.061l-0.301-0.601l-0.359-0.601v0.062l-0.42-0.54
	l-0.42-0.48h0.06l-0.54-0.479v0.06l-1.08-0.72h0.061l-0.66-0.3l-0.66-0.24l-0.66-0.18h0.06l-0.72-0.121l-0.72-0.061h0.06
	l-0.72,0.061L6,120.107l-0.72,0.18h0.06l-0.659,0.24l-0.601,0.3l-0.6,0.36l-0.54,0.358l0.06-0.06l-0.96,0.959l-0.42,0.541
	l0.061-0.062l-0.36,0.601l-0.24,0.601l-0.24,0.66v-0.06l-0.18,0.72l-0.12,0.659l-0.06,0.721v-0.061l0.06,0.779l0.12,0.66v-0.061
	l0.18,0.721l0.24,0.6l0.24,0.66v-0.061l0.36,0.601H1.62l0.42,0.54v-0.061L3,132.105H2.94l-0.24,0.42l-1.02-1.021l-0.421-0.54v-0.06
	l-0.359-0.6H0.84l-0.239-0.66h0.06l-0.24-0.602l-0.06-0.061l-0.18-0.719l-0.12-0.66L0,126.827v-0.06l0.061-0.722l0.12-0.659v-0.061
	l0.18-0.721l0.24-0.66h0.06l0.24-0.6v-0.061c0.761-1.348,1.561-2.168,2.939-2.88l0.601-0.3l0.06-0.062
	c1.73-0.646,3.187-0.815,4.98-0.239h0.06l0.66,0.239v0.062l0.66,0.3c1.402,0.887,1.512,0.928,2.52,2.28h0.061l0.359,0.6
	c0.475,0.854,0.696,1.798,0.841,2.76v0.721"/>
<path d="M2.94,132.107l0.54,0.358l0.6,0.36l0.601,0.3v-0.06l0.659,0.24H5.28l0.72,0.18l0.66,0.119l0.72,0.061H7.32l0.72-0.061
	l0.72-0.119H8.7l0.66-0.18l0.66-0.24v0.06l0.66-0.3H10.62l1.08-0.721l0.54-0.479l-0.06,0.062l0.42-0.48l0.42-0.54l0.359-0.601v0.061
	l0.301-0.66l0.239-0.6h-0.06l0.18-0.721v0.061l0.12-0.66v-0.779h0.48v0.779c-0.6,5.544-6.756,8.372-11.4,5.342l-0.54-0.361"/>
<text transform="matrix(1 0 0 1 5.5798 128.5068)" font-family="'ProductusSemibold'" font-size="7.98">D</text>
<rect x="7.08" y="76.967" width="0.48" height="0.24"/>
<rect x="7.08" y="77.207" width="0.48" height="14.4"/>
<rect x="7.08" y="105.287" width="0.48" height="0.24"/>
<rect x="7.08" y="105.527" width="0.48" height="14.398"/>
<rect x="85.32" y="62.987" fill="#F7F7F7" width="14.16" height="14.22"/>
<rect x="85.32" y="62.747" width="14.4" height="0.48"/>
<rect x="99.24" y="62.987" width="0.48" height="14.46"/>
<rect x="85.08" y="76.967" width="14.4" height="0.48"/>
<rect x="85.08" y="62.747" width="0.48" height="14.46"/>
<text transform="matrix(1 0 0 1 90.9592 71.2676)" font-family="'ProductusBook'" font-size="7.98">n3</text>
<rect x="170.34" y="91.367" fill="#F7F7F7" width="14.159" height="14.16"/>
<rect x="170.34" y="91.127" width="14.399" height="0.48"/>
<rect x="184.26" y="91.367" width="0.479" height="14.4"/>
<rect x="170.1" y="105.287" width="14.398" height="0.48"/>
<rect x="170.1" y="91.127" width="0.479" height="14.4"/>
<text transform="matrix(1 0 0 1 175.9792 99.5869)" font-family="'ProductusBook'" font-size="7.98">z</text>
<text transform="matrix(1 0 0 1 187.3191 98.4463)" font-family="'ProductusBook'" font-size="7.98">value=3</text>
</svg>
