<?xml version="1.0" encoding="utf-8"?>
<!-- Generator: Adobe Illustrator 16.0.0, SVG Export Plug-In . SVG Version: 6.00 Build 0)  -->
<!DOCTYPE svg PUBLIC "-//W3C//DTD SVG 1.1//EN" "http://www.w3.org/Graphics/SVG/1.1/DTD/svg11.dtd">
<svg version="1.1" id="Layer_1" xmlns="http://www.w3.org/2000/svg" xmlns:xlink="http://www.w3.org/1999/xlink" x="0px" y="0px"
	 width="326.22px" height="312.48px" viewBox="0 0 326.22 312.48" style="enable-background:new 0 0 326.22 312.48;"
	 xml:space="preserve">
<rect x="170.28" style="fill:#E6E6E6;" width="70.92" height="43.2"/>
<rect x="0.24" y="143.101" style="fill:#E6E6E6;" width="325.98" height="42.479"/>
<polyline points="179.76,87.06 234.06,87.06 234.06,114.061 179.76,114.061 "/>
<rect x="179.76" y="86.82" width="54.54" height="0.48"/>
<rect x="233.82" y="87.06" width="0.48" height="27.24"/>
<rect x="179.52" y="113.82" width="54.54" height="0.479"/>
<rect x="179.52" y="86.82" width="0.48" height="27.24"/>
<rect x="177.42" y="85.26" style="fill:#FFFFFF;" width="54.3" height="27"/>
<rect x="177.42" y="85.02" width="54.54" height="0.48"/>
<rect x="231.48" y="85.26" width="0.48" height="27.24"/>
<rect x="177.18" y="112.021" width="54.54" height="0.479"/>
<rect x="177.18" y="85.02" width="0.479" height="27.24"/>
<text transform="matrix(1 0 0 1.0522 179.7603 92.4004)"><tspan x="0" y="0" style="font-family:'ProductusOSGiBookc'; font-size:7.5841;">&lt;&lt;</tspan><tspan x="5.552" y="0" style="font-family:'ProductusOSGiBookc'; font-size:7.5841;">s</tspan><tspan x="8.244" y="0" style="font-family:'ProductusOSGiBookc'; font-size:7.5841;">e</tspan><tspan x="11.535" y="0" style="font-family:'ProductusOSGiBookc'; font-size:7.5841;">r</tspan><tspan x="13.628" y="0" style="font-family:'ProductusOSGiBookc'; font-size:7.5841;">vi</tspan><tspan x="18.064" y="0" style="font-family:'ProductusOSGiBookc'; font-size:7.5841;">c</tspan><tspan x="21" y="0" style="font-family:'ProductusOSGiBookc'; font-size:7.5841;">e</tspan><tspan x="24.299" y="0" style="font-family:'ProductusOSGiBookc'; font-size:7.5841;">&gt;</tspan><tspan x="27.074" y="0" style="font-family:'ProductusOSGiBookc'; font-size:7.5841;">&gt;</tspan></text>
<text transform="matrix(1 0 0 1 179.7603 100.8604)"><tspan x="0" y="0" style="font-family:'ProductusSemibold'; font-size:7.98;">D</tspan><tspan x="5.362" y="0" style="font-family:'ProductusSemibold'; font-size:7.98;">m</tspan><tspan x="11.778" y="0" style="font-family:'ProductusSemibold'; font-size:7.98;">t </tspan><tspan x="16.861" y="0" style="font-family:'ProductusSemibold'; font-size:7.98;">A</tspan><tspan x="21.722" y="0" style="font-family:'ProductusSemibold'; font-size:7.98;">d</tspan><tspan x="26.038" y="0" style="font-family:'ProductusSemibold'; font-size:7.98;">m</tspan><tspan x="32.383" y="0" style="font-family:'ProductusSemibold'; font-size:7.98;">i</tspan><tspan x="34.601" y="0" style="font-family:'ProductusSemibold'; font-size:7.98;">n</tspan></text>
<text transform="matrix(1 0 0 1 169.6196 49.2002)"><tspan x="0" y="0" style="font-family:'ProductusBook'; font-size:7.98;">admi</tspan><tspan x="14.324" y="0" style="font-family:'ProductusBook'; font-size:7.98;">n</tspan><tspan x="18.043" y="0" style="font-family:'ProductusBook'; font-size:7.98;">isters</tspan></text>
<polyline points="179.76,150.84 234.06,150.84 234.06,177.84 179.76,177.84 "/>
<rect x="179.76" y="150.601" width="54.54" height="0.479"/>
<rect x="233.82" y="150.84" width="0.48" height="27.24"/>
<rect x="179.52" y="177.601" width="54.54" height="0.479"/>
<rect x="179.52" y="150.601" width="0.48" height="27.239"/>
<rect x="177.42" y="149.04" style="fill:#FFFFFF;" width="54.3" height="27"/>
<rect x="177.42" y="148.8" width="54.54" height="0.48"/>
<rect x="231.48" y="149.04" width="0.48" height="27.24"/>
<rect x="177.18" y="175.8" width="54.54" height="0.48"/>
<rect x="177.18" y="148.8" width="0.479" height="27.24"/>
<text transform="matrix(1 0 0 1 179.7603 156.1797)"><tspan x="0" y="0" style="font-family:'ProductusOSGiBookc'; font-size:7.98;">D</tspan><tspan x="4.884" y="0" style="font-family:'ProductusOSGiBookc'; font-size:7.98;">M</tspan><tspan x="10.757" y="0" style="font-family:'ProductusOSGiBookc'; font-size:7.98;">T</tspan><tspan x="14.523" y="0" style="font-family:'ProductusOSGiBookc'; font-size:7.98;"> </tspan><tspan x="16.144" y="0" style="font-family:'ProductusOSGiBookc'; font-size:7.98;">A</tspan><tspan x="19.989" y="0" style="font-family:'ProductusOSGiBookc'; font-size:7.98;">d</tspan><tspan x="23.708" y="0" style="font-family:'ProductusOSGiBookc'; font-size:7.98;">m</tspan><tspan x="29.414" y="0" style="font-family:'ProductusOSGiBookc'; font-size:7.98;">i</tspan><tspan x="30.97" y="0" style="font-family:'ProductusOSGiBookc'; font-size:7.98;">n</tspan><tspan x="34.625" y="0" style="font-family:'ProductusOSGiBookc'; font-size:7.98;"> </tspan><tspan x="36.188" y="0" style="font-family:'ProductusOSGiBookc'; font-size:7.98;">I</tspan><tspan x="37.745" y="0" style="font-family:'ProductusOSGiBookc'; font-size:7.98;">m</tspan><tspan x="43.498" y="0" style="font-family:'ProductusOSGiBookc'; font-size:7.98;">p</tspan><tspan x="47.146" y="0" style="font-family:'ProductusOSGiBookc'; font-size:7.98;">l</tspan></text>
<rect x="264.78" y="87.48" width="54.36" height="26.581"/>
<rect x="264.78" y="87.24" width="54.601" height="0.48"/>
<rect x="318.9" y="87.48" width="0.48" height="26.82"/>
<rect x="264.54" y="113.82" width="54.601" height="0.479"/>
<rect x="264.54" y="87.24" width="0.48" height="26.82"/>
<rect x="262.44" y="85.68" style="fill:#FFFFFF;" width="54.3" height="26.58"/>
<rect x="262.44" y="85.44" width="54.54" height="0.48"/>
<rect x="316.5" y="85.68" width="0.479" height="26.82"/>
<rect x="262.2" y="112.021" width="54.54" height="0.479"/>
<rect x="262.2" y="85.44" width="0.48" height="26.82"/>
<text transform="matrix(1 0 0 1.0522 264.7798 92.8203)"><tspan x="0" y="0" style="font-family:'ProductusOSGiBookc'; font-size:7.5841;">&lt;</tspan><tspan x="2.775" y="0" style="font-family:'ProductusOSGiBookc'; font-size:7.5841;">&lt;</tspan><tspan x="5.589" y="0" style="font-family:'ProductusOSGiBookc'; font-size:7.5841;">servi</tspan><tspan x="18.072" y="0" style="font-family:'ProductusOSGiBookc'; font-size:7.5841;">c</tspan><tspan x="21.008" y="0" style="font-family:'ProductusOSGiBookc'; font-size:7.5841;">e&gt;</tspan><tspan x="27.074" y="0" style="font-family:'ProductusOSGiBookc'; font-size:7.5841;">&gt;</tspan></text>
<text transform="matrix(1 0 0 1 264.7798 101.2803)"><tspan x="0" y="0" style="font-family:'ProductusSemibold'; font-size:7.98;">Noti</tspan><tspan x="14.931" y="0" style="font-family:'ProductusSemibold'; font-size:7.98;">f</tspan><tspan x="17.563" y="0" style="font-family:'ProductusSemibold'; font-size:7.98;">i</tspan><tspan x="19.782" y="0" style="font-family:'ProductusSemibold'; font-size:7.98;">catio</tspan><tspan x="37.002" y="0" style="font-family:'ProductusSemibold'; font-size:7.98;">n</tspan></text>
<text transform="matrix(1 0 0 1 264.7798 109.8008)"><tspan x="0" y="0" style="font-family:'ProductusSemibold'; font-size:7.98;">Servic</tspan><tspan x="21.227" y="0" style="font-family:'ProductusSemibold'; font-size:7.98;">e</tspan></text>
<polyline points="179.76,9.12 234.06,9.12 234.06,36.12 179.76,36.12 "/>
<rect x="179.76" y="8.88" width="54.54" height="0.48"/>
<rect x="233.82" y="9.12" width="0.48" height="27.24"/>
<rect x="179.52" y="35.88" width="54.54" height="0.48"/>
<rect x="179.52" y="8.88" width="0.48" height="27.24"/>
<rect x="177.42" y="7.32" style="fill:#FFFFFF;" width="54.3" height="27"/>
<rect x="177.42" y="7.08" width="54.54" height="0.48"/>
<rect x="231.48" y="7.32" width="0.48" height="27.24"/>
<rect x="177.18" y="34.08" width="54.54" height="0.48"/>
<rect x="177.18" y="7.08" width="0.479" height="27.24"/>
<text transform="matrix(1 0 0 1 179.7603 14.4004)"><tspan x="0" y="0" style="font-family:'ProductusOSGiBookc'; font-size:7.98;">L</tspan><tspan x="3.048" y="0" style="font-family:'ProductusOSGiBookc'; font-size:7.98;">o</tspan><tspan x="6.775" y="0" style="font-family:'ProductusOSGiBookc'; font-size:7.98;">c</tspan><tspan x="9.863" y="0" style="font-family:'ProductusOSGiBookc'; font-size:7.98;">a</tspan><tspan x="13.103" y="0" style="font-family:'ProductusOSGiBookc'; font-size:7.98;">l</tspan><tspan x="14.659" y="0" style="font-family:'ProductusOSGiBookc'; font-size:7.98;"> </tspan><tspan x="15.864" y="0" style="font-family:'ProductusOSGiBookc'; font-size:7.98;">M</tspan><tspan x="21.721" y="0" style="font-family:'ProductusOSGiBookc'; font-size:7.98;">a</tspan><tspan x="24.961" y="0" style="font-family:'ProductusOSGiBookc'; font-size:7.98;">nager</tspan><tspan x="41.152" y="0" style="font-family:'ProductusOSGiBookc'; font-size:7.98;"> </tspan><tspan x="42.357" y="0" style="font-family:'ProductusOSGiBookc'; font-size:7.98;">or</tspan><tspan x="48.382" y="0" style="font-family:'ProductusOSGiBookc'; font-size:7.98;"> </tspan></text>
<text transform="matrix(1 0 0 1 179.7603 22.9204)"><tspan x="0" y="0" style="font-family:'ProductusOSGiBookc'; font-size:7.98;">P</tspan><tspan x="3.248" y="0" style="font-family:'ProductusOSGiBookc'; font-size:7.98;">r</tspan><tspan x="5.291" y="0" style="font-family:'ProductusOSGiBookc'; font-size:7.98;">o</tspan><tspan x="9.018" y="0" style="font-family:'ProductusOSGiBookc'; font-size:7.98;">tocol</tspan><tspan x="23.501" y="0" style="font-family:'ProductusOSGiBookc'; font-size:7.98;"> </tspan><tspan x="25.064" y="0" style="font-family:'ProductusOSGiBookc'; font-size:7.98;">A</tspan><tspan x="28.967" y="0" style="font-family:'ProductusOSGiBookc'; font-size:7.98;">d</tspan><tspan x="32.63" y="0" style="font-family:'ProductusOSGiBookc'; font-size:7.98;">apte</tspan><tspan x="45.405" y="0" style="font-family:'ProductusOSGiBookc'; font-size:7.98;">r</tspan></text>
<text transform="matrix(1 0 0 1 255.3599 64.2002)"><tspan x="0" y="0" style="font-family:'ProductusBook'; font-size:7.98;">s</tspan><tspan x="2.865" y="0" style="font-family:'ProductusBook'; font-size:7.98;">en</tspan><tspan x="10.015" y="0" style="font-family:'ProductusBook'; font-size:7.98;">d</tspan><tspan x="13.733" y="0" style="font-family:'ProductusBook'; font-size:7.98;">s</tspan><tspan x="16.551" y="0" style="font-family:'ProductusBook'; font-size:7.98;"> </tspan><tspan x="18.162" y="0" style="font-family:'ProductusBook'; font-size:7.98;">a</tspan><tspan x="21.466" y="0" style="font-family:'ProductusBook'; font-size:7.98;">l</tspan><tspan x="23.03" y="0" style="font-family:'ProductusBook'; font-size:7.98;">e</tspan><tspan x="26.581" y="0" style="font-family:'ProductusBook'; font-size:7.98;">r</tspan><tspan x="28.855" y="0" style="font-family:'ProductusBook'; font-size:7.98;">t</tspan><tspan x="31.201" y="0" style="font-family:'ProductusBook'; font-size:7.98;">s</tspan></text>
<rect x="264.78" y="9.54" width="54.36" height="26.58"/>
<rect x="264.78" y="9.3" width="54.601" height="0.48"/>
<rect x="318.9" y="9.54" width="0.48" height="26.82"/>
<rect x="264.54" y="35.88" width="54.601" height="0.48"/>
<rect x="264.54" y="9.3" width="0.48" height="26.82"/>
<rect x="262.44" y="7.74" style="fill:#FFFFFF;" width="54.3" height="26.58"/>
<rect x="262.44" y="7.5" width="54.54" height="0.48"/>
<rect x="316.5" y="7.74" width="0.479" height="26.82"/>
<rect x="262.2" y="34.08" width="54.54" height="0.48"/>
<rect x="262.2" y="7.5" width="0.48" height="26.82"/>
<text transform="matrix(1 0 0 1.0522 264.7798 14.8804)"><tspan x="0" y="0" style="font-family:'ProductusOSGiBookc'; font-size:7.5841;">&lt;</tspan><tspan x="2.769" y="0" style="font-family:'ProductusOSGiBookc'; font-size:7.5841;">&lt;</tspan><tspan x="5.582" y="0" style="font-family:'ProductusOSGiBookc'; font-size:7.5841;">c</tspan><tspan x="8.479" y="0" style="font-family:'ProductusOSGiBookc'; font-size:7.5841;">l</tspan><tspan x="9.973" y="0" style="font-family:'ProductusOSGiBookc'; font-size:7.5841;">ass</tspan><tspan x="18.368" y="0" style="font-family:'ProductusOSGiBookc'; font-size:7.5841;">&gt;</tspan><tspan x="21.182" y="0" style="font-family:'ProductusOSGiBookc'; font-size:7.5841;">&gt;</tspan></text>
<text transform="matrix(1 0 0 1 264.7798 23.3403)"><tspan x="0" y="0" style="font-family:'ProductusSemibold'; font-size:7.98;">A</tspan><tspan x="5.02" y="0" style="font-family:'ProductusSemibold'; font-size:7.98;">l</tspan><tspan x="7.174" y="0" style="font-family:'ProductusSemibold'; font-size:7.98;">ert</tspan><tspan x="17.452" y="0" style="font-family:'ProductusSemibold'; font-size:7.98;"> </tspan><tspan x="19.431" y="0" style="font-family:'ProductusSemibold'; font-size:7.98;">I</tspan><tspan x="21.649" y="0" style="font-family:'ProductusSemibold'; font-size:7.98;">t</tspan><tspan x="24.825" y="0" style="font-family:'ProductusSemibold'; font-size:7.98;">e</tspan><tspan x="28.902" y="0" style="font-family:'ProductusSemibold'; font-size:7.98;">m</tspan></text>
<rect x="2.58" y="101.641" width="54.36" height="26.579"/>
<rect x="2.58" y="101.4" width="54.6" height="0.479"/>
<rect x="56.7" y="101.641" width="0.48" height="26.819"/>
<rect x="2.34" y="127.98" width="54.6" height="0.479"/>
<rect x="2.34" y="101.4" width="0.48" height="26.819"/>
<rect x="0.24" y="99.9" style="fill:#FFFFFF;" width="54.3" height="26.58"/>
<rect x="0.24" y="99.66" width="54.54" height="0.48"/>
<rect x="54.3" y="99.9" width="0.48" height="26.819"/>
<rect y="126.24" width="54.54" height="0.479"/>
<rect y="99.66" width="0.48" height="26.82"/>
<text transform="matrix(1 0 0 1.0522 2.5801 106.9805)"><tspan x="0" y="0" style="font-family:'ProductusOSGiBookc'; font-size:7.5841;">&lt;&lt;</tspan><tspan x="5.536" y="0" style="font-family:'ProductusOSGiBookc'; font-size:7.5841;">c</tspan><tspan x="8.471" y="0" style="font-family:'ProductusOSGiBookc'; font-size:7.5841;">la</tspan><tspan x="13.014" y="0" style="font-family:'ProductusOSGiBookc'; font-size:7.5841;">s</tspan><tspan x="15.714" y="0" style="font-family:'ProductusOSGiBookc'; font-size:7.5841;">s&gt;</tspan><tspan x="21.129" y="0" style="font-family:'ProductusOSGiBookc'; font-size:7.5841;">&gt;</tspan></text>
<text transform="matrix(1 0 0 1 2.5801 115.5)"><tspan x="0" y="0" style="font-family:'ProductusSemibold'; font-size:7.98;">A</tspan><tspan x="4.852" y="0" style="font-family:'ProductusSemibold'; font-size:7.98;">c</tspan><tspan x="8.506" y="0" style="font-family:'ProductusSemibold'; font-size:7.98;">l</tspan></text>
<rect x="2.58" y="2.46" width="54.36" height="26.52"/>
<rect x="2.58" y="2.22" width="54.6" height="0.48"/>
<rect x="56.7" y="2.46" width="0.48" height="26.76"/>
<rect x="2.34" y="28.74" width="54.6" height="0.48"/>
<rect x="2.34" y="2.22" width="0.48" height="26.76"/>
<rect x="0.24" y="0.66" style="fill:#FFFFFF;" width="54.3" height="26.58"/>
<rect x="0.24" y="0.42" width="54.54" height="0.48"/>
<rect x="54.3" y="0.66" width="0.48" height="26.82"/>
<rect y="27" width="54.54" height="0.48"/>
<rect y="0.42" width="0.48" height="26.82"/>
<text transform="matrix(1 0 0 1.0522 2.5801 7.7402)"><tspan x="0" y="0" style="font-family:'ProductusOSGiBookc'; font-size:7.5841;">&lt;&lt;</tspan><tspan x="5.536" y="0" style="font-family:'ProductusOSGiBookc'; font-size:7.5841;">i</tspan><tspan x="7.03" y="0" style="font-family:'ProductusOSGiBookc'; font-size:7.5841;">nte</tspan><tspan x="15.964" y="0" style="font-family:'ProductusOSGiBookc'; font-size:7.5841;">r</tspan><tspan x="18.118" y="0" style="font-family:'ProductusOSGiBookc'; font-size:7.5841;">fa</tspan><tspan x="23.101" y="0" style="font-family:'ProductusOSGiBookc'; font-size:7.5841;">c</tspan><tspan x="26.036" y="0" style="font-family:'ProductusOSGiBookc'; font-size:7.5841;">e</tspan><tspan x="29.334" y="0" style="font-family:'ProductusOSGiBookc'; font-size:7.5841;">&gt;</tspan><tspan x="32.103" y="0" style="font-family:'ProductusOSGiBookc'; font-size:7.5841;">&gt;</tspan></text>
<text transform="matrix(1 0 0 1 2.5801 16.2603)"><tspan x="0" y="0" style="font-family:'ProductusSemibold'; font-size:7.98;">M</tspan><tspan x="6.671" y="0" style="font-family:'ProductusSemibold'; font-size:7.98;">e</tspan><tspan x="10.805" y="0" style="font-family:'ProductusSemibold'; font-size:7.98;">ta</tspan><tspan x="17.843" y="0" style="font-family:'ProductusSemibold'; font-size:7.98;"> </tspan><tspan x="19.878" y="0" style="font-family:'ProductusSemibold'; font-size:7.98;">N</tspan><tspan x="25.177" y="0" style="font-family:'ProductusSemibold'; font-size:7.98;">o</tspan><tspan x="29.549" y="0" style="font-family:'ProductusSemibold'; font-size:7.98;">d</tspan><tspan x="33.858" y="0" style="font-family:'ProductusSemibold'; font-size:7.98;">e</tspan></text>
<rect x="2.58" y="52.02" width="54.36" height="26.58"/>
<rect x="2.58" y="51.78" width="54.6" height="0.48"/>
<rect x="56.7" y="52.02" width="0.48" height="26.82"/>
<rect x="2.34" y="78.36" width="54.6" height="0.48"/>
<rect x="2.34" y="51.78" width="0.48" height="26.82"/>
<rect x="0.24" y="50.28" style="fill:#FFFFFF;" width="54.3" height="26.58"/>
<rect x="0.24" y="50.04" width="54.54" height="0.48"/>
<rect x="54.3" y="50.28" width="0.48" height="26.82"/>
<rect y="76.62" width="54.54" height="0.48"/>
<rect y="50.04" width="0.48" height="26.82"/>
<text transform="matrix(1 0 0 1.0522 2.5801 57.3604)"><tspan x="0" y="0" style="font-family:'ProductusOSGiBookc'; font-size:7.5841;">&lt;&lt;</tspan><tspan x="5.536" y="0" style="font-family:'ProductusOSGiBookc'; font-size:7.5841;">c</tspan><tspan x="8.471" y="0" style="font-family:'ProductusOSGiBookc'; font-size:7.5841;">la</tspan><tspan x="13.014" y="0" style="font-family:'ProductusOSGiBookc'; font-size:7.5841;">s</tspan><tspan x="15.714" y="0" style="font-family:'ProductusOSGiBookc'; font-size:7.5841;">s&gt;</tspan><tspan x="21.129" y="0" style="font-family:'ProductusOSGiBookc'; font-size:7.5841;">&gt;</tspan></text>
<text transform="matrix(1 0 0 1 2.5801 65.8804)"><tspan x="0" y="0" style="font-family:'ProductusSemibold'; font-size:7.98;">Dmt</tspan><tspan x="14.858" y="0" style="font-family:'ProductusSemibold'; font-size:7.98;"> </tspan><tspan x="16.837" y="0" style="font-family:'ProductusSemibold'; font-size:7.98;">Dat</tspan><tspan x="29.286" y="0" style="font-family:'ProductusSemibold'; font-size:7.98;">a</tspan></text>
<rect x="101.82" y="52.02" width="54.3" height="26.58"/>
<rect x="101.82" y="51.78" width="54.54" height="0.48"/>
<rect x="155.88" y="52.02" width="0.479" height="26.82"/>
<rect x="101.58" y="78.36" width="54.54" height="0.48"/>
<rect x="101.58" y="51.78" width="0.48" height="26.82"/>
<rect x="99.42" y="50.28" style="fill:#FFFFFF;" width="54.36" height="26.58"/>
<rect x="99.42" y="50.04" width="54.6" height="0.48"/>
<rect x="153.54" y="50.28" width="0.48" height="26.82"/>
<rect x="99.18" y="76.62" width="54.6" height="0.48"/>
<rect x="99.18" y="50.04" width="0.48" height="26.82"/>
<text transform="matrix(1 0 0 1.0522 101.8198 57.3604)"><tspan x="0" y="0" style="font-family:'ProductusOSGiBookc'; font-size:7.5841;">&lt;</tspan><tspan x="2.798" y="0" style="font-family:'ProductusOSGiBookc'; font-size:7.5841;">&lt;</tspan><tspan x="5.559" y="0" style="font-family:'ProductusOSGiBookc'; font-size:7.5841;">i</tspan><tspan x="7" y="0" style="font-family:'ProductusOSGiBookc'; font-size:7.5841;">n</tspan><tspan x="10.473" y="0" style="font-family:'ProductusOSGiBookc'; font-size:7.5841;">te</tspan><tspan x="16.017" y="0" style="font-family:'ProductusOSGiBookc'; font-size:7.5841;">r</tspan><tspan x="18.118" y="0" style="font-family:'ProductusOSGiBookc'; font-size:7.5841;">f</tspan><tspan x="20.037" y="0" style="font-family:'ProductusOSGiBookc'; font-size:7.5841;">a</tspan><tspan x="23.169" y="0" style="font-family:'ProductusOSGiBookc'; font-size:7.5841;">c</tspan><tspan x="26.051" y="0" style="font-family:'ProductusOSGiBookc'; font-size:7.5841;">e</tspan><tspan x="29.357" y="0" style="font-family:'ProductusOSGiBookc'; font-size:7.5841;">&gt;</tspan><tspan x="32.156" y="0" style="font-family:'ProductusOSGiBookc'; font-size:7.5841;">&gt;</tspan></text>
<text transform="matrix(1 0 0 1 101.8198 65.8804)"><tspan x="0" y="0" style="font-family:'ProductusSemibold'; font-size:7.98;">Dmt</tspan><tspan x="14.882" y="0" style="font-family:'ProductusSemibold'; font-size:7.98;"> </tspan><tspan x="16.917" y="0" style="font-family:'ProductusSemibold'; font-size:7.98;">Ses</tspan><tspan x="28.664" y="0" style="font-family:'ProductusSemibold'; font-size:7.98;">s</tspan><tspan x="31.959" y="0" style="font-family:'ProductusSemibold'; font-size:7.98;">i</tspan><tspan x="34.178" y="0" style="font-family:'ProductusSemibold'; font-size:7.98;">o</tspan><tspan x="38.495" y="0" style="font-family:'ProductusSemibold'; font-size:7.98;">n</tspan></text>
<polyline style="fill-rule:evenodd;clip-rule:evenodd;" points="304.98,114.061 319.14,99.9 319.14,114.061 "/>
<polyline points="304.8,113.88 319.38,99.3 319.38,99.9 319.32,100.08 305.16,114.24 "/>
<rect x="318.9" y="99.9" width="0.48" height="14.399"/>
<polyline points="319.14,114.3 304.38,114.3 304.8,113.88 304.98,113.82 319.14,113.82 "/>
<polyline style="fill-rule:evenodd;clip-rule:evenodd;" points="219.9,113.4 234.06,99.18 234.06,113.4 "/>
<polyline points="219.72,113.22 233.88,99 234.3,98.58 234.3,99.18 234.24,99.36 220.08,113.58 "/>
<rect x="233.82" y="99.18" width="0.48" height="14.461"/>
<polyline points="234.06,113.641 219.3,113.641 219.72,113.22 219.9,113.16 234.06,113.16 "/>
<polyline points="205.74,125.58 202.44,125.58 202.62,124.92 205.74,114 208.86,124.92 209.04,125.58 208.38,125.58 207.9,125.22 
	205.26,115.98 206.22,115.68 206.22,115.98 203.58,125.22 202.62,124.92 203.1,124.561 205.74,124.561 "/>
<rect x="205.74" y="124.561" width="2.641" height="1.02"/>
<polyline style="fill-rule:evenodd;clip-rule:evenodd;" points="205.74,125.101 203.1,125.101 205.74,115.86 208.38,125.101 "/>
<rect x="205.5" y="125.34" width="0.479" height="24.36"/>
<rect x="205.5" y="35.88" width="0.479" height="50.04"/>
<rect x="155.88" y="64.2" width="4.26" height="0.48"/>
<rect x="165.3" y="64.2" width="6.96" height="0.48"/>
<rect x="177.42" y="64.2" width="7.02" height="0.48"/>
<rect x="189.6" y="64.2" width="6.96" height="0.48"/>
<rect x="201.78" y="64.2" width="4.2" height="0.48"/>
<rect x="56.7" y="14.58" width="28.8" height="0.48"/>
<rect x="85.02" y="14.82" width="0.48" height="42.78"/>
<rect x="85.26" y="57.12" width="14.4" height="0.48"/>
<rect x="56.7" y="64.2" width="42.96" height="0.48"/>
<rect x="56.7" y="113.82" width="28.8" height="0.479"/>
<rect x="85.02" y="71.28" width="0.48" height="42.78"/>
<rect x="85.26" y="71.28" width="14.4" height="0.48"/>
<rect x="226.74" y="35.88" width="0.48" height="21.72"/>
<rect x="226.98" y="57.12" width="64.021" height="0.48"/>
<rect x="290.52" y="57.36" width="0.48" height="28.56"/>
<rect x="283.44" y="35.88" width="0.48" height="4.2"/>
<rect x="283.44" y="53.34" width="0.48" height="4.26"/>
<rect x="101.82" y="151.26" width="54.3" height="27"/>
<rect x="101.82" y="151.021" width="54.54" height="0.479"/>
<rect x="155.88" y="151.26" width="0.479" height="27.24"/>
<rect x="101.58" y="178.021" width="54.54" height="0.479"/>
<rect x="101.58" y="151.021" width="0.48" height="27.239"/>
<rect x="99.42" y="149.46" style="fill:#FFFFFF;" width="54.36" height="27"/>
<rect x="99.42" y="149.22" width="54.6" height="0.48"/>
<rect x="153.54" y="149.46" width="0.48" height="27.24"/>
<rect x="99.18" y="176.22" width="54.6" height="0.48"/>
<rect x="99.18" y="149.22" width="0.48" height="27.24"/>
<text transform="matrix(1 0 0 1 101.8198 156.6006)"><tspan x="0" y="0" style="font-family:'ProductusOSGiBookc'; font-size:7.98;">Ses</tspan><tspan x="9.999" y="0" style="font-family:'ProductusOSGiBookc'; font-size:7.98;">s</tspan><tspan x="12.76" y="0" style="font-family:'ProductusOSGiBookc'; font-size:7.98;">ion</tspan><tspan x="21.745" y="0" style="font-family:'ProductusOSGiBookc'; font-size:7.98;"> </tspan><tspan x="23.309" y="0" style="font-family:'ProductusOSGiBookc'; font-size:7.98;">Im</tspan><tspan x="30.611" y="0" style="font-family:'ProductusOSGiBookc'; font-size:7.98;">pl</tspan></text>
<polyline points="127.8,90.12 124.5,90.12 124.68,89.46 127.8,78.54 130.92,89.46 131.1,90.12 130.44,90.12 129.96,89.76 
	127.32,80.52 128.28,80.22 128.28,80.52 125.64,89.76 124.68,89.46 125.16,89.1 127.8,89.1 "/>
<rect x="127.8" y="89.1" width="2.64" height="1.02"/>
<polyline style="fill-rule:evenodd;clip-rule:evenodd;" points="127.8,89.641 125.16,89.641 127.8,80.4 130.44,89.641 "/>
<rect x="127.56" y="89.94" width="0.48" height="59.76"/>
<rect x="264.78" y="151.26" width="54.36" height="27"/>
<rect x="264.78" y="151.021" width="54.601" height="0.479"/>
<rect x="318.9" y="151.26" width="0.48" height="27.24"/>
<rect x="264.54" y="178.021" width="54.601" height="0.479"/>
<rect x="264.54" y="151.021" width="0.48" height="27.239"/>
<rect x="262.44" y="149.46" style="fill:#FFFFFF;" width="54.3" height="27"/>
<rect x="262.44" y="149.22" width="54.54" height="0.48"/>
<rect x="316.5" y="149.46" width="0.479" height="27.24"/>
<rect x="262.2" y="176.22" width="54.54" height="0.48"/>
<rect x="262.2" y="149.22" width="0.48" height="27.24"/>
<text transform="matrix(1 0 0 1 264.7798 156.6006)"><tspan x="0" y="0" style="font-family:'ProductusOSGiBookc'; font-size:7.98;">Alert</tspan><tspan x="13.59" y="0" style="font-family:'ProductusOSGiBookc'; font-size:7.98;"> </tspan><tspan x="15.201" y="0" style="font-family:'ProductusOSGiBookc'; font-size:7.98;">Sender</tspan><tspan x="35.351" y="0" style="font-family:'ProductusOSGiBookc'; font-size:7.98;"> </tspan><tspan x="36.963" y="0" style="font-family:'ProductusOSGiBookc'; font-size:7.98;">Impl</tspan></text>
<polyline points="290.76,125.58 287.46,125.58 287.64,124.92 290.76,114 293.88,124.92 294.06,125.58 293.4,125.58 292.92,125.22 
	290.28,115.98 291.24,115.68 291.24,115.98 288.6,125.22 287.64,124.92 288.12,124.561 290.76,124.561 "/>
<rect x="290.76" y="124.561" width="2.64" height="1.02"/>
<polyline style="fill-rule:evenodd;clip-rule:evenodd;" points="290.76,125.101 288.12,125.101 290.76,115.86 293.4,125.101 "/>
<rect x="290.52" y="125.34" width="0.48" height="24.36"/>
<text transform="matrix(1 0 0 1 207.8999 46.3203)"><tspan x="0" y="0" style="font-family:'ProductusBook'; font-size:7.98;">0</tspan><tspan x="3.942" y="0" style="font-family:'ProductusBook'; font-size:7.98;">.</tspan><tspan x="5.506" y="0" style="font-family:'ProductusBook'; font-size:7.98;">.</tspan><tspan x="7.134" y="0" style="font-family:'ProductusBook'; font-size:7.98;">*</tspan></text>
<text transform="matrix(1 0 0 1 208.02 83.6401)" style="font-family:'ProductusBook'; font-size:7.98;">1</text>
<text transform="matrix(1 0 0 1 229.3198 46.2603)"><tspan x="0" y="0" style="font-family:'ProductusBook'; font-size:7.98;">0..</tspan><tspan x="7.126" y="0" style="font-family:'ProductusBook'; font-size:7.98;">*</tspan></text>
<text transform="matrix(1 0 0 1 293.1001 83.3403)" style="font-family:'ProductusBook'; font-size:7.98;">1</text>
<rect x="264.78" y="215.04" width="54.36" height="26.58"/>
<rect x="264.78" y="214.8" width="54.601" height="0.48"/>
<rect x="318.9" y="215.04" width="0.48" height="26.82"/>
<rect x="264.54" y="241.38" width="54.601" height="0.48"/>
<rect x="264.54" y="214.8" width="0.48" height="26.82"/>
<rect x="262.44" y="213.24" style="fill:#FFFFFF;" width="54.3" height="26.58"/>
<rect x="262.44" y="213" width="54.54" height="0.48"/>
<rect x="316.5" y="213.24" width="0.479" height="26.82"/>
<rect x="262.2" y="239.58" width="54.54" height="0.48"/>
<rect x="262.2" y="213" width="0.48" height="26.82"/>
<text transform="matrix(1 0 0 1.0522 264.7798 220.3799)"><tspan x="0" y="0" style="font-family:'ProductusOSGiBookc'; font-size:7.5841;">&lt;</tspan><tspan x="2.775" y="0" style="font-family:'ProductusOSGiBookc'; font-size:7.5841;">&lt;</tspan><tspan x="5.589" y="0" style="font-family:'ProductusOSGiBookc'; font-size:7.5841;">servi</tspan><tspan x="18.072" y="0" style="font-family:'ProductusOSGiBookc'; font-size:7.5841;">c</tspan><tspan x="21.008" y="0" style="font-family:'ProductusOSGiBookc'; font-size:7.5841;">e&gt;</tspan><tspan x="27.074" y="0" style="font-family:'ProductusOSGiBookc'; font-size:7.5841;">&gt;</tspan></text>
<text transform="matrix(1 0 0 1 264.7798 228.9004)"><tspan x="0" y="0" style="font-family:'ProductusSemibold'; font-size:7.98;">R</tspan><tspan x="4.253" y="0" style="font-family:'ProductusSemibold'; font-size:7.98;">e</tspan><tspan x="8.387" y="0" style="font-family:'ProductusSemibold'; font-size:7.98;">m</tspan><tspan x="14.739" y="0" style="font-family:'ProductusSemibold'; font-size:7.98;">o</tspan><tspan x="19.112" y="0" style="font-family:'ProductusSemibold'; font-size:7.98;">te</tspan><tspan x="26.342" y="0" style="font-family:'ProductusSemibold'; font-size:7.98;"> </tspan><tspan x="28.32" y="0" style="font-family:'ProductusSemibold'; font-size:7.98;">A</tspan><tspan x="33.316" y="0" style="font-family:'ProductusSemibold'; font-size:7.98;">l</tspan><tspan x="35.534" y="0" style="font-family:'ProductusSemibold'; font-size:7.98;">e</tspan><tspan x="39.652" y="0" style="font-family:'ProductusSemibold'; font-size:7.98;">r</tspan><tspan x="42.589" y="0" style="font-family:'ProductusSemibold'; font-size:7.98;">t</tspan></text>
<text transform="matrix(1 0 0 1 264.7798 237.3604)"><tspan x="0" y="0" style="font-family:'ProductusSemibold'; font-size:7.98;">Sende</tspan><tspan x="21.099" y="0" style="font-family:'ProductusSemibold'; font-size:7.98;">r</tspan></text>
<polyline style="fill-rule:evenodd;clip-rule:evenodd;" points="304.98,241.62 319.14,227.46 319.14,241.62 "/>
<polyline points="304.8,241.44 319.38,226.86 319.38,227.46 319.32,227.641 305.16,241.8 "/>
<rect x="318.9" y="227.46" width="0.48" height="14.4"/>
<polyline points="319.14,241.86 304.38,241.86 304.8,241.44 304.98,241.38 319.14,241.38 "/>
<rect x="290.52" y="213.24" width="0.48" height="0.24"/>
<rect x="290.52" y="177.601" width="0.48" height="35.64"/>
<rect x="255.36" y="269.28" style="fill:#E6E6E6;" width="70.86" height="43.2"/>
<rect x="264.78" y="278.4" width="54.36" height="27"/>
<rect x="264.78" y="278.16" width="54.601" height="0.48"/>
<rect x="318.9" y="278.4" width="0.48" height="27.24"/>
<rect x="264.54" y="305.16" width="54.601" height="0.48"/>
<rect x="264.54" y="278.16" width="0.48" height="27.24"/>
<rect x="262.44" y="276.601" style="fill:#FFFFFF;" width="54.3" height="27"/>
<rect x="262.44" y="276.36" width="54.54" height="0.479"/>
<rect x="316.5" y="276.601" width="0.479" height="27.239"/>
<rect x="262.2" y="303.36" width="54.54" height="0.479"/>
<rect x="262.2" y="276.36" width="0.48" height="27.24"/>
<text transform="matrix(1 0 0 1 264.7798 283.7402)"><tspan x="0" y="0" style="font-family:'ProductusOSGiBookc'; font-size:7.98;">R</tspan><tspan x="3.487" y="0" style="font-family:'ProductusOSGiBookc'; font-size:7.98;">e</tspan><tspan x="6.967" y="0" style="font-family:'ProductusOSGiBookc'; font-size:7.98;">mote</tspan><tspan x="22.248" y="0" style="font-family:'ProductusOSGiBookc'; font-size:7.98;"> </tspan><tspan x="23.868" y="0" style="font-family:'ProductusOSGiBookc'; font-size:7.98;">Alert </tspan></text>
<text transform="matrix(1 0 0 1 264.7798 292.2607)"><tspan x="0" y="0" style="font-family:'ProductusOSGiBookc'; font-size:7.98;">Sender</tspan><tspan x="20.149" y="0" style="font-family:'ProductusOSGiBookc'; font-size:7.98;"> </tspan><tspan x="21.761" y="0" style="font-family:'ProductusOSGiBookc'; font-size:7.98;">I</tspan><tspan x="23.31" y="0" style="font-family:'ProductusOSGiBookc'; font-size:7.98;">m</tspan><tspan x="29.062" y="0" style="font-family:'ProductusOSGiBookc'; font-size:7.98;">pl</tspan></text>
<polyline points="290.76,253.141 287.46,253.141 287.64,252.48 290.76,241.561 293.88,252.48 294.06,253.141 293.4,253.141 
	292.92,252.78 290.28,243.54 291.24,243.24 291.24,243.54 288.6,252.78 287.64,252.48 288.12,252.12 290.76,252.12 "/>
<rect x="290.76" y="252.12" width="2.64" height="1.021"/>
<polyline style="fill-rule:evenodd;clip-rule:evenodd;" points="290.76,252.66 288.12,252.66 290.76,243.42 293.4,252.66 "/>
<rect x="290.52" y="277.021" width="0.48" height="0.239"/>
<rect x="290.52" y="252.9" width="0.48" height="24.12"/>
<text transform="matrix(1 0 0 1 293.7603 210.9004)"><tspan x="0" y="0" style="font-family:'ProductusBook'; font-size:7.98;">0..</tspan><tspan x="7.126" y="0" style="font-family:'ProductusBook'; font-size:7.98;">*</tspan></text>
<text transform="matrix(1 0 0 1 294.7202 182.5801)" style="font-family:'ProductusBook'; font-size:7.98;">1</text>
<polyline points="179.76,215.04 234.06,215.04 234.06,241.62 179.76,241.62 "/>
<rect x="179.76" y="214.8" width="54.54" height="0.48"/>
<rect x="233.82" y="215.04" width="0.48" height="26.82"/>
<rect x="179.52" y="241.38" width="54.54" height="0.48"/>
<rect x="179.52" y="214.8" width="0.48" height="26.82"/>
<rect x="177.42" y="213.24" style="fill:#FFFFFF;" width="54.3" height="26.58"/>
<rect x="177.42" y="213" width="54.54" height="0.48"/>
<rect x="231.48" y="213.24" width="0.48" height="26.82"/>
<rect x="177.18" y="239.58" width="54.54" height="0.48"/>
<rect x="177.18" y="213" width="0.479" height="26.82"/>
<text transform="matrix(1 0 0 1.0522 179.7603 220.3799)"><tspan x="0" y="0" style="font-family:'ProductusOSGiBookc'; font-size:7.5841;">&lt;&lt;</tspan><tspan x="5.552" y="0" style="font-family:'ProductusOSGiBookc'; font-size:7.5841;">s</tspan><tspan x="8.244" y="0" style="font-family:'ProductusOSGiBookc'; font-size:7.5841;">e</tspan><tspan x="11.535" y="0" style="font-family:'ProductusOSGiBookc'; font-size:7.5841;">r</tspan><tspan x="13.628" y="0" style="font-family:'ProductusOSGiBookc'; font-size:7.5841;">vi</tspan><tspan x="18.064" y="0" style="font-family:'ProductusOSGiBookc'; font-size:7.5841;">c</tspan><tspan x="21" y="0" style="font-family:'ProductusOSGiBookc'; font-size:7.5841;">e</tspan><tspan x="24.299" y="0" style="font-family:'ProductusOSGiBookc'; font-size:7.5841;">&gt;</tspan><tspan x="27.074" y="0" style="font-family:'ProductusOSGiBookc'; font-size:7.5841;">&gt;</tspan></text>
<text transform="matrix(1 0 0 1 179.7603 228.9004)"><tspan x="0" y="0" style="font-family:'ProductusSemibold'; font-size:7.98;">D</tspan><tspan x="5.339" y="0" style="font-family:'ProductusSemibold'; font-size:7.98;">m</tspan><tspan x="11.755" y="0" style="font-family:'ProductusSemibold'; font-size:7.98;">t</tspan><tspan x="14.835" y="0" style="font-family:'ProductusSemibold'; font-size:7.98;"> </tspan><tspan x="16.813" y="0" style="font-family:'ProductusSemibold'; font-size:7.98;">E</tspan><tspan x="20.691" y="0" style="font-family:'ProductusSemibold'; font-size:7.98;">v</tspan><tspan x="24.586" y="0" style="font-family:'ProductusSemibold'; font-size:7.98;">e</tspan><tspan x="28.72" y="0" style="font-family:'ProductusSemibold'; font-size:7.98;">n</tspan><tspan x="32.973" y="0" style="font-family:'ProductusSemibold'; font-size:7.98;">t</tspan><tspan x="36.148" y="0" style="font-family:'ProductusSemibold'; font-size:7.98;"> </tspan></text>
<text transform="matrix(1 0 0 1 179.7603 237.3604)"><tspan x="0" y="0" style="font-family:'ProductusSemibold'; font-size:7.98;">Listene</tspan><tspan x="24.81" y="0" style="font-family:'ProductusSemibold'; font-size:7.98;">r</tspan></text>
<rect x="101.82" y="215.04" width="54.3" height="26.58"/>
<rect x="101.82" y="214.8" width="54.54" height="0.48"/>
<rect x="155.88" y="215.04" width="0.479" height="26.82"/>
<rect x="101.58" y="241.38" width="54.54" height="0.48"/>
<rect x="101.58" y="214.8" width="0.48" height="26.82"/>
<rect x="99.42" y="213.24" style="fill:#FFFFFF;" width="54.36" height="26.58"/>
<rect x="99.42" y="213" width="54.6" height="0.48"/>
<rect x="153.54" y="213.24" width="0.48" height="26.82"/>
<rect x="99.18" y="239.58" width="54.6" height="0.48"/>
<rect x="99.18" y="213" width="0.48" height="26.82"/>
<text transform="matrix(1 0 0 1.0522 101.8198 220.3799)"><tspan x="0" y="0" style="font-family:'ProductusOSGiBookc'; font-size:7.5841;">&lt;</tspan><tspan x="2.806" y="0" style="font-family:'ProductusOSGiBookc'; font-size:7.5841;">&lt;</tspan><tspan x="5.566" y="0" style="font-family:'ProductusOSGiBookc'; font-size:7.5841;">c</tspan><tspan x="8.501" y="0" style="font-family:'ProductusOSGiBookc'; font-size:7.5841;">l</tspan><tspan x="9.942" y="0" style="font-family:'ProductusOSGiBookc'; font-size:7.5841;">a</tspan><tspan x="13.082" y="0" style="font-family:'ProductusOSGiBookc'; font-size:7.5841;">s</tspan><tspan x="15.729" y="0" style="font-family:'ProductusOSGiBookc'; font-size:7.5841;">s</tspan><tspan x="18.414" y="0" style="font-family:'ProductusOSGiBookc'; font-size:7.5841;">&gt;</tspan><tspan x="21.174" y="0" style="font-family:'ProductusOSGiBookc'; font-size:7.5841;">&gt;</tspan></text>
<text transform="matrix(1 0 0 1 101.8198 228.9004)"><tspan x="0" y="0" style="font-family:'ProductusSemibold'; font-size:7.98;">Dmt</tspan><tspan x="14.93" y="0" style="font-family:'ProductusSemibold'; font-size:7.98;"> </tspan><tspan x="16.909" y="0" style="font-family:'ProductusSemibold'; font-size:7.98;">E</tspan><tspan x="20.748" y="0" style="font-family:'ProductusSemibold'; font-size:7.98;">v</tspan><tspan x="24.642" y="0" style="font-family:'ProductusSemibold'; font-size:7.98;">en</tspan><tspan x="33.084" y="0" style="font-family:'ProductusSemibold'; font-size:7.98;">t</tspan></text>
<rect x="205.5" y="177.601" width="0.479" height="0.239"/>
<rect x="205.5" y="177.84" width="0.479" height="35.641"/>
<rect x="127.56" y="213.24" width="0.48" height="0.24"/>
<rect x="127.56" y="209.28" width="0.48" height="3.96"/>
<rect x="127.56" y="198.84" width="0.48" height="4.261"/>
<rect x="127.8" y="198.84" width="3.96" height="0.48"/>
<rect x="137.28" y="198.84" width="0.24" height="0.48"/>
<rect x="137.52" y="198.84" width="7.14" height="0.48"/>
<rect x="150.18" y="198.84" width="0.24" height="0.48"/>
<rect x="150.42" y="198.84" width="7.14" height="0.48"/>
<rect x="163.08" y="198.84" width="0.24" height="0.48"/>
<rect x="163.32" y="198.84" width="7.141" height="0.48"/>
<rect x="175.98" y="198.84" width="0.24" height="0.48"/>
<rect x="176.22" y="198.84" width="7.14" height="0.48"/>
<rect x="188.88" y="198.84" width="0.239" height="0.48"/>
<rect x="189.12" y="198.84" width="7.141" height="0.48"/>
<rect x="201.72" y="198.84" width="0.24" height="0.48"/>
<rect x="201.96" y="198.84" width="4.02" height="0.48"/>
<text transform="matrix(1 0 0 1 207.1802 211.4404)" style="font-family:'ProductusBook'; font-size:7.98;">0..*</text>
<text transform="matrix(1 0 0 1 208.0806 183.0596)" style="font-family:'ProductusBook'; font-size:7.98;">1</text>
<rect x="170.28" y="269.28" style="fill:#E6E6E6;" width="70.92" height="43.2"/>
<polyline points="179.76,278.4 234.06,278.4 234.06,305.4 179.76,305.4 "/>
<rect x="179.76" y="278.16" width="54.54" height="0.48"/>
<rect x="233.82" y="278.4" width="0.48" height="27.24"/>
<rect x="179.52" y="305.16" width="54.54" height="0.48"/>
<rect x="179.52" y="278.16" width="0.48" height="27.24"/>
<rect x="177.42" y="276.601" style="fill:#FFFFFF;" width="54.3" height="27"/>
<rect x="177.42" y="276.36" width="54.54" height="0.479"/>
<rect x="231.48" y="276.601" width="0.48" height="27.239"/>
<rect x="177.18" y="303.36" width="54.54" height="0.479"/>
<rect x="177.18" y="276.36" width="0.479" height="27.24"/>
<text transform="matrix(1 0 0 1 179.7603 283.7402)"><tspan x="0" y="0" style="font-family:'ProductusOSGiBookc'; font-size:7.98;">Li</tspan><tspan x="4.557" y="0" style="font-family:'ProductusOSGiBookc'; font-size:7.98;">s</tspan><tspan x="7.317" y="0" style="font-family:'ProductusOSGiBookc'; font-size:7.98;">t</tspan><tspan x="9.655" y="0" style="font-family:'ProductusOSGiBookc'; font-size:7.98;">ener</tspan><tspan x="22.463" y="0" style="font-family:'ProductusOSGiBookc'; font-size:7.98;"> </tspan><tspan x="24.075" y="0" style="font-family:'ProductusOSGiBookc'; font-size:7.98;">Im</tspan><tspan x="31.345" y="0" style="font-family:'ProductusOSGiBookc'; font-size:7.98;">p</tspan><tspan x="35.063" y="0" style="font-family:'ProductusOSGiBookc'; font-size:7.98;">l</tspan></text>
<polyline points="205.74,253.141 202.44,253.141 202.62,252.48 205.74,241.561 208.86,252.48 209.04,253.141 208.38,253.141 
	207.9,252.78 205.26,243.54 206.22,243.24 206.22,243.54 203.58,252.78 202.62,252.48 203.1,252.12 205.74,252.12 "/>
<rect x="205.74" y="252.12" width="2.641" height="1.021"/>
<polyline style="fill-rule:evenodd;clip-rule:evenodd;" points="205.74,252.66 203.1,252.66 205.74,243.42 208.38,252.66 "/>
<rect x="205.5" y="277.021" width="0.479" height="0.239"/>
<rect x="205.5" y="252.9" width="0.479" height="24.12"/>
<polyline style="fill-rule:evenodd;clip-rule:evenodd;" points="219.9,241.62 234.06,227.46 234.06,241.62 "/>
<polyline points="219.72,241.44 234.3,226.86 234.3,227.46 234.24,227.641 220.08,241.8 "/>
<rect x="233.82" y="227.46" width="0.48" height="14.4"/>
<polyline points="234.06,241.86 219.3,241.86 219.72,241.44 219.9,241.38 234.06,241.38 "/>
</svg>
