<?xml version="1.0" encoding="utf-8"?>
<!-- Generator: Adobe Illustrator 16.0.0, SVG Export Plug-In . SVG Version: 6.00 Build 0)  -->
<!DOCTYPE svg PUBLIC "-//W3C//DTD SVG 1.1//EN" "http://www.w3.org/Graphics/SVG/1.1/DTD/svg11.dtd">
<svg version="1.1" id="Layer_1" xmlns="http://www.w3.org/2000/svg" xmlns:xlink="http://www.w3.org/1999/xlink" x="0px" y="0px"
	 width="175.295px" height="104.388px" viewBox="0 0 175.295 104.388" style="enable-background:new 0 0 175.295 104.388;"
	 xml:space="preserve">
<polyline points="35.88,68.628 35.76,68.447 35.4,68.747 35.52,68.928 "/>
<polyline points="36.9,70.008 37.02,70.188 36.66,70.487 36.54,70.308 "/>
<polyline points="35.88,68.628 35.52,68.928 36.54,70.308 36.9,70.008 "/>
<polyline style="fill-rule:evenodd;clip-rule:evenodd;" points="39.959,74.027 39.84,73.848 39.48,74.147 39.6,74.327 "/>
<polyline style="fill-rule:evenodd;clip-rule:evenodd;" points="42.3,77.147 42.42,77.327 42.06,77.628 41.94,77.447 "/>
<polyline style="fill-rule:evenodd;clip-rule:evenodd;" points="39.959,74.027 39.6,74.327 41.94,77.447 42.3,77.147 "/>
<polyline style="fill-rule:evenodd;clip-rule:evenodd;" points="45.3,81.228 45.18,81.048 44.82,81.348 44.94,81.527 "/>
<polyline style="fill-rule:evenodd;clip-rule:evenodd;" points="47.7,84.348 47.82,84.527 47.459,84.827 47.34,84.647 "/>
<polyline style="fill-rule:evenodd;clip-rule:evenodd;" points="45.3,81.228 44.94,81.527 47.34,84.647 47.7,84.348 "/>
<polyline style="fill-rule:evenodd;clip-rule:evenodd;" points="50.7,88.367 50.58,88.188 50.22,88.487 50.34,88.668 "/>
<polyline style="fill-rule:evenodd;clip-rule:evenodd;" points="53.04,91.487 53.16,91.668 52.8,91.968 52.68,91.787 "/>
<polyline style="fill-rule:evenodd;clip-rule:evenodd;" points="50.7,88.367 50.34,88.668 52.68,91.787 53.04,91.487 "/>
<polyline points="56.1,95.567 55.98,95.388 55.62,95.688 55.74,95.867 "/>
<polyline points="57.12,96.947 57.24,97.128 56.88,97.428 56.76,97.247 "/>
<polyline points="56.1,95.567 55.74,95.867 56.76,97.247 57.12,96.947 "/>
<polyline points="35.88,68.928 36,68.747 35.64,68.447 35.52,68.628 "/>
<polyline points="14.58,97.247 14.46,97.428 14.1,97.128 14.22,96.947 "/>
<polyline points="35.88,68.928 35.52,68.628 14.22,96.947 14.58,97.247 "/>
<rect x="35.459" y="40.128" width="0.48" height="0.239"/>
<rect x="35.459" y="40.367" width="0.48" height="28.62"/>
<polyline points="7.5,11.867 7.32,11.688 6.96,12.048 7.14,12.228 "/>
<polyline points="35.88,40.188 36.06,40.367 35.7,40.728 35.52,40.548 "/>
<polyline points="7.5,11.867 7.14,12.228 35.52,40.548 35.88,40.188 "/>
<path style="fill-rule:evenodd;clip-rule:evenodd;fill:#808080;" d="M14.4,12.048v-0.721l-0.12-0.72
	c-1.906-7.97-13.015-7.32-13.98,0.72l-0.06,0.721l0.06,0.72c0.994,8.02,12.158,8.577,13.98,0.66l0.12-0.66V12.048"/>
<path d="M14.16,12.048v-0.721v0.061l-0.12-0.72l-0.18-0.721l0.06,0.061l-0.24-0.601l-0.3-0.66l-0.36-0.54v0.061l-0.42-0.6
	l-0.42-0.48h0.06l-0.54-0.48v0.061l-1.08-0.72h0.06l-0.66-0.301L9.36,5.508L8.7,5.327h0.06l-0.72-0.12l-0.72-0.06h0.06l-0.72,0.06
	L6,5.327L5.28,5.508h0.06L4.68,5.747l-0.6,0.301l-0.6,0.359l-0.54,0.36L3,6.707L2.04,7.668H2.1l-0.42,0.6V8.207l-0.36,0.54
	l-0.3,0.66v-0.06l-0.18,0.6l-0.18,0.721l-0.12,0.72l-0.06,0.72v-0.06l0.06,0.72l0.12,0.66v-0.061l0.18,0.721l0.18,0.659v-0.06
	l0.3,0.6l0.36,0.601H1.62l0.42,0.54v-0.061L3,17.327l-0.3,0.36H2.64c-1.101-1.044-1.402-1.407-2.04-2.76l-0.06-0.061l-0.18-0.66
	l-0.18-0.72l-0.12-0.66L0,12.107v-0.06l0.06-0.721l0.12-0.72v-0.06l0.18-0.721l0.18-0.6H0.6l0.3-0.66v-0.06
	c0.914-1.469,1.398-2.052,2.94-2.88l0.6-0.301l0.06-0.06c1.731-0.646,3.185-0.817,4.98-0.24h0.06l0.66,0.24v0.06l0.66,0.301
	c1.003,0.687,1.363,0.74,2.1,1.739h0.06l0.42,0.601c0.652,0.896,1.087,2.25,1.2,3.359v0.721"/>
<path d="M3,17.327l0.54,0.42H3.48l1.2,0.601v-0.061l0.66,0.24H5.28L6,18.707l0.66,0.12l0.72,0.061H7.32l0.72-0.061l0.72-0.12H8.7
	l0.66-0.18l0.66-0.24v0.061l0.66-0.3h-0.06l0.54-0.301l0.54-0.42l0.54-0.479l-0.06,0.06l0.42-0.479l0.42-0.54l0.36-0.601l0.3-0.6
	l-0.06,0.06l0.24-0.659l0.18-0.721v0.061l0.12-0.66v-0.72h0.48v0.72c-0.56,5.264-6.152,8.136-10.8,5.7l-0.6-0.3v-0.061l-0.54-0.42"
	/>
<path style="fill-rule:evenodd;clip-rule:evenodd;" d="M42.78,40.367l-0.06-0.72l-0.12-0.72c-1.805-7.906-12.887-7.319-13.98,0.72
	v1.44c1.036,8.03,12.224,8.643,13.98,0.72l0.12-0.72L42.78,40.367"/>
<path d="M42.54,40.428l-0.06-0.721l-0.12-0.72l-0.12-0.66v0.061L42,37.728h0.061l-0.3-0.6l-0.36-0.601v0.061l-0.42-0.54l-0.96-0.96
	h0.06l-0.54-0.42v0.06l-0.6-0.36l-0.6-0.3h0.06l-0.66-0.24l-0.66-0.18h0.061l-1.44-0.12h0.061l-1.44,0.12l-0.66,0.18h0.061
	l-0.66,0.24l-0.66,0.3l-0.54,0.36l0.061-0.06l-0.54,0.42l-0.54,0.479l-0.42,0.48L30,36.588l0.061-0.061l-0.36,0.601l-0.3,0.6
	l-0.24,0.66v-0.061l-0.18,0.66l-0.12,0.72v-0.06v1.44l0.12,0.72v-0.061l0.18,0.66l0.24,0.66v-0.06l0.3,0.6l0.36,0.6H30l0.841,1.08
	v-0.06l0.54,0.42l-0.301,0.36l-0.54-0.42h-0.06l-0.84-1.08v-0.061l-0.36-0.6l-0.3-0.601h-0.06l-0.24-0.659v-0.061
	c-0.447-1.22-0.412-3.101,0-4.32l0.24-0.659l0.06-0.061c0.651-1.506,1.793-2.689,3.18-3.54h0.061l0.66-0.3v-0.06l0.659-0.24
	l0.66-0.18h0.061l1.439-0.12h0.061l1.439,0.12l0.66,0.18h0.061l0.659,0.24v0.06l0.601,0.3c1.021,0.48,1.954,1.418,2.58,2.34h0.06
	l0.36,0.601c0.565,1.035,0.591,1.603,0.779,2.76l0.061,0.72"/>
<path d="M31.38,45.647l0.54,0.42H31.86l0.54,0.36l0.66,0.3v-0.06l0.66,0.239H33.66l0.66,0.181l0.72,0.119h-0.06h1.44l0.72-0.119
	H37.08l0.66-0.181l0.66-0.239l-0.06,0.06l0.6-0.3l0.6-0.36l0.54-0.42l0.48-0.42l-0.061,0.06l0.48-0.54l0.42-0.54l0.36-0.6l0.3-0.6
	L42,43.067l0.24-0.66v0.061l0.12-0.66l0.12-0.72l0.06-0.721v0.061l0.48-0.061v0.061l-0.061,0.72c-0.189,2.35-1.326,3.947-3.18,5.34
	l-0.6,0.36l-0.601,0.3c-2.026,0.846-4.417,0.737-6.359-0.3H32.16l-0.54-0.36v-0.06l-0.54-0.42"/>
<text transform="matrix(1 0 0 1 18.7202 6.6475)" style="font-family:'ProductusBook'; font-size:7.98;">.</text>
<text transform="matrix(1 0 0 1 7.3198 12.5879)" style="font-family:'ProductusSemibold'; font-size:7.98;">.</text>
<path style="fill-rule:evenodd;clip-rule:evenodd;fill:#FFFFFF;" d="M42.78,68.747l-0.06-0.779l-0.12-0.66
	c-1.688-7.893-12.917-7.356-13.98,0.66v1.5c1.046,8.013,12.311,8.55,13.98,0.66l0.12-0.66L42.78,68.747"/>
<path d="M42.54,68.808l-0.06-0.78l-0.12-0.66l-0.12-0.72l0.061,0.06l-0.24-0.6l-0.3-0.66l-0.36-0.6v0.06l-0.42-0.54l-0.96-0.96
	l0.06,0.061l-0.54-0.36l-0.6-0.36l-0.6-0.3h0.06l-0.66-0.24l-0.66-0.18h0.061l-0.72-0.12l-0.721-0.06h0.061l-0.721,0.06l-0.72,0.12
	l-0.66,0.18h0.061l-0.66,0.24l-0.66,0.3l-1.08,0.721l0.061-0.061l-0.54,0.48l-0.42,0.479L30,64.907l0.061-0.06l-0.36,0.6l-0.3,0.66
	l-0.24,0.6v-0.06l-0.18,0.72l-0.12,0.66v-0.06v1.5l0.12,0.66v-0.061l0.18,0.72l0.24,0.66v-0.06l0.3,0.6l0.36,0.601H30l0.421,0.54
	l0.42,0.479v-0.06l0.54,0.479H31.32l-0.24,0.42v-0.06c-0.796-0.599-1.348-1.267-1.8-2.16l-0.3-0.6h-0.06l-0.24-0.66v-0.061
	l-0.181-0.72l-0.119-0.66v-1.56l0.119-0.66v-0.061l0.181-0.72h0.06l0.24-0.6l0.3-0.66v-0.061l0.36-0.6l0.42-0.54l0.42-0.479
	l0.06-0.061l0.54-0.479l1.08-0.721h0.061l0.66-0.3v-0.06l0.659-0.24l0.66-0.18h0.061l0.72-0.12l0.72-0.061h0.061l0.72,0.061
	l0.72,0.12l0.66,0.18h0.061l0.659,0.24v0.06l0.601,0.3c1.213,0.654,1.796,1.154,2.58,2.28h0.06l0.36,0.6v0.061l0.3,0.66l0.24,0.6
	v0.061l0.12,0.72l0.119,0.66l0.061,0.779"/>
<path d="M31.32,74.027l1.08,0.72l0.66,0.301v-0.061l0.66,0.24H33.66l0.66,0.18l0.72,0.12l0.721,0.061H35.7l0.721-0.061l0.72-0.12
	H37.08l0.66-0.18l0.66-0.24l-0.06,0.061l0.6-0.301l0.6-0.359l0.54-0.36h-0.06l0.96-0.96v0.061l0.42-0.54l0.36-0.601l0.3-0.6
	L42,71.447l0.24-0.66v0.061l0.12-0.72l0.12-0.66l0.06-0.721v0.061l0.48-0.061v0.061c-0.022,5.867-6.57,9.193-11.4,6l-0.54-0.36"/>
<text transform="matrix(1 0 0 1 33.48 70.5479)" style="font-family:'ProductusSemibold'; font-size:7.98;">B</text>
<text transform="matrix(1 0 0 1 7.3198 12.5869)" style="font-family:'ProductusSemibold'; font-size:7.98;">.</text>
<text transform="matrix(1 0 0 1 34.2593 42.9473)" style="font-family:'ProductusSemibold'; font-size:7.98;">A</text>
<text transform="matrix(1 0 0 1 44.939 70.7266)"><tspan x="0" y="0" style="font-family:'ProductusSemibold'; font-size:7.98;">P</tspan><tspan x="4.134" y="0" style="font-family:'ProductusSemibold'; font-size:7.98;">1</tspan></text>
<path style="fill-rule:evenodd;clip-rule:evenodd;fill:#808080;" d="M22.44,97.067l-0.06-0.72l-0.12-0.72
	c-1.853-7.946-12.876-7.319-13.98,0.72v1.439c1.09,8.031,12.146,8.646,13.98,0.721l0.12-0.721L22.44,97.067"/>
<path d="M22.2,97.128l-0.06-0.721l-0.12-0.72l-0.18-0.66v0.061l-0.24-0.66h0.06l-0.239-0.601l-0.36-0.6v0.06l-0.42-0.54l-0.48-0.54
	h0.061l-0.48-0.42l-0.54-0.42v0.061l-0.6-0.36L18,90.768h0.061l-0.66-0.24l-0.72-0.18h0.06l-0.66-0.12h-1.44h0.06l-0.72,0.12
	l-0.66,0.18h0.06l-0.66,0.24l-0.66,0.3l-0.54,0.36l0.06-0.061l-1.08,0.84l-0.84,1.08l0.06-0.06l-0.36,0.6l-0.3,0.601l-0.24,0.66
	v-0.061l-0.18,0.66l-0.12,0.72v-0.06v1.439l0.12,0.721v-0.061l0.18,0.66l0.24,0.66v-0.061l0.3,0.601l0.36,0.6H9.66l0.84,1.08v-0.06
	l0.54,0.42l-0.3,0.359l-0.54-0.42h-0.06l-0.84-1.08v-0.06l-0.36-0.6l-0.3-0.601H8.58l-0.24-0.66v-0.06
	c-0.447-1.221-0.412-3.101,0-4.32l0.24-0.66l0.06-0.06c0.765-1.644,1.645-2.605,3.18-3.54h0.06l0.66-0.3v-0.061l0.66-0.239
	l0.66-0.181h0.06l0.72-0.12h1.5l0.66,0.12l0.72,0.181h0.06l0.66,0.239v0.061l0.601,0.3c1.226,0.624,1.766,1.253,2.58,2.34h0.06
	l0.36,0.601v0.06l0.239,0.6l0.24,0.66l0.18,0.66v0.061l0.12,0.72l0.061,0.72"/>
<path d="M11.04,102.348l0.54,0.42h-0.06l0.54,0.36l0.66,0.3v-0.061l0.66,0.24h-0.06l0.66,0.18l1.44,0.12h-0.06l0.72-0.06l0.66-0.061
	h-0.06l0.72-0.18l0.66-0.24L18,103.428l0.601-0.3l0.6-0.36l0.54-0.42l0.48-0.42l-0.061,0.06l0.48-0.54l0.42-0.54l0.36-0.6v0.06
	l0.239-0.6H21.6l0.24-0.66l0.18-0.66v0.061l0.12-0.721l0.06-0.72v0.061l0.48-0.061v0.061l-0.061,0.72
	c-0.373,2.458-1.173,3.83-3.18,5.34l-0.6,0.36l-0.601,0.3c-1.911,0.78-4.531,0.729-6.36-0.3h-0.06l-0.54-0.36v-0.06l-0.54-0.421"/>
<path style="fill-rule:evenodd;clip-rule:evenodd;fill:#FFFFFF;" d="M64.02,97.067v-0.72l-0.12-0.72
	c-1.84-7.896-13.043-7.33-13.979,0.72l-0.061,0.72l0.061,0.72c0.906,8.035,12.171,8.595,13.979,0.721l0.12-0.721V97.067"/>
<polyline points="63.78,97.067 63.78,96.348 63.78,96.407 63.66,95.688 63.48,95.027 63.48,95.088 63.24,94.428 63.3,94.428 
	63.72,94.188 63.72,94.247 63.959,94.907 64.14,95.567 64.14,95.628 64.26,96.348 64.26,97.067 "/>
<polyline points="63.3,94.428 63,93.827 63.42,93.588 63.72,94.188 "/>
<polyline points="63,93.827 63.42,93.588 63.3,93.407 62.88,93.647 "/>
<polyline points="60.36,91.188 60.18,91.067 59.58,90.768 59.64,90.768 58.98,90.527 58.32,90.348 58.38,90.348 58.44,89.867 
	59.1,90.048 59.16,90.048 59.82,90.287 59.82,90.348 60.42,90.647 60.6,90.768 "/>
<polyline points="58.38,90.348 57.66,90.228 57.66,89.747 57.72,89.747 58.44,89.867 "/>
<rect x="56.94" y="89.747" width="0.72" height="0.48"/>
<polyline points="53.52,91.188 53.1,91.428 53.16,91.367 52.62,91.787 52.14,92.207 51.66,92.747 51.3,92.447 51.78,91.907 
	51.84,91.848 52.32,91.428 52.86,91.008 53.28,90.768 "/>
<polyline points="51.66,92.747 51.24,93.287 51.3,93.228 50.88,92.987 51.3,92.447 "/>
<polyline points="51.3,93.228 50.88,92.987 50.64,93.407 51.06,93.647 "/>
<polyline points="50.1,97.067 50.22,98.508 50.22,98.447 50.4,99.107 50.64,99.768 50.64,99.707 50.22,99.947 50.16,99.947 
	49.92,99.287 49.92,99.228 49.74,98.567 49.68,97.848 49.62,97.128 49.62,97.067 "/>
<polyline points="50.64,99.707 50.94,100.308 50.52,100.548 50.22,99.947 "/>
<polyline points="50.94,100.308 50.52,100.548 50.64,100.728 51.06,100.487 "/>
<polyline points="53.52,103.008 53.7,103.128 54.3,103.428 54.3,103.367 54.959,103.607 54.9,103.607 55.56,103.787 55.5,104.268 
	55.44,104.268 54.78,104.088 54.12,103.848 54.06,103.848 53.459,103.548 53.28,103.428 "/>
<polyline points="55.56,103.787 56.28,103.848 56.22,104.327 55.5,104.268 "/>
<polyline points="56.28,103.848 56.22,104.327 56.94,104.388 57,103.907 "/>
<polyline points="60.36,103.008 60.78,102.768 61.86,101.928 61.8,101.987 62.22,101.447 62.58,101.747 62.16,102.287 
	61.08,103.128 61.02,103.188 60.6,103.428 "/>
<polyline points="62.22,101.447 62.64,100.907 63.06,101.147 63,101.207 62.58,101.747 "/>
<polyline points="62.64,100.907 63.06,101.147 63.3,100.728 62.88,100.487 "/>
<text transform="matrix(1 0 0 1 55.3198 98.9277)" style="font-family:'ProductusSemibold'; font-size:7.98;">C</text>
<text transform="matrix(1 0 0 1 14.3999 99.0469)" style="font-family:'ProductusSemibold'; font-size:7.98;">E</text>
<text transform="matrix(1 0 0 1 70.3198 87.5869)"><tspan x="0" y="0" style="font-family:'ProductusBook'; font-size:7.98;">n</tspan><tspan x="3.679" y="0" style="font-family:'ProductusBook'; font-size:7.98;">o</tspan><tspan x="7.518" y="0" style="font-family:'ProductusBook'; font-size:7.98;">t</tspan><tspan x="9.896" y="0" style="font-family:'ProductusBook'; font-size:7.98;"> </tspan><tspan x="11.507" y="0" style="font-family:'ProductusBook'; font-size:7.98;">retur</tspan><tspan x="25.6" y="0" style="font-family:'ProductusBook'; font-size:7.98;">n</tspan><tspan x="29.318" y="0" style="font-family:'ProductusBook'; font-size:7.98;">ed</tspan><tspan x="36.516" y="0" style="font-family:'ProductusBook'; font-size:7.98;"> </tspan><tspan x="38.136" y="0" style="font-family:'ProductusBook'; font-size:7.98;">in</tspan><tspan x="43.379" y="0" style="font-family:'ProductusBook'; font-size:7.98;"> </tspan><tspan x="44.99" y="0" style="font-family:'ProductusBook'; font-size:7.98;">g</tspan><tspan x="48.294" y="0" style="font-family:'ProductusBook'; font-size:7.98;">e</tspan><tspan x="51.829" y="0" style="font-family:'ProductusBook'; font-size:7.98;">tC</tspan><tspan x="58.62" y="0" style="font-family:'ProductusBook'; font-size:7.98;">h</tspan><tspan x="62.339" y="0" style="font-family:'ProductusBook'; font-size:7.98;">ildNodeNam</tspan><tspan x="98.624" y="0" style="font-family:'ProductusBook'; font-size:7.98;">e</tspan><tspan x="102.158" y="0" style="font-family:'ProductusBook'; font-size:7.98;">s</tspan></text>
<text transform="matrix(1 0 0 1 70.3198 97.3066)"><tspan x="0" y="0" style="font-family:'ProductusBook'; font-size:7.98;">met</tspan><tspan x="11.635" y="0" style="font-family:'ProductusBook'; font-size:7.98;">h</tspan><tspan x="15.354" y="0" style="font-family:'ProductusBook'; font-size:7.98;">od</tspan><tspan x="22.83" y="0" style="font-family:'ProductusBook'; font-size:7.98;"> </tspan><tspan x="24.395" y="0" style="font-family:'ProductusBook'; font-size:7.98;">of</tspan><tspan x="30.212" y="0" style="font-family:'ProductusBook'; font-size:7.98;"> </tspan><tspan x="31.832" y="0" style="font-family:'ProductusBook'; font-size:7.98;">the</tspan><tspan x="41.392" y="0" style="font-family:'ProductusBook'; font-size:7.98;"> </tspan><tspan x="42.956" y="0" style="font-family:'ProductusBook'; font-size:7.98;">P</tspan><tspan x="46.259" y="0" style="font-family:'ProductusBook'; font-size:7.98;">l</tspan><tspan x="47.871" y="0" style="font-family:'ProductusBook'; font-size:7.98;">ugin</tspan></text>
</svg>
