<?xml version="1.0" encoding="utf-8"?>
<!-- Generator: Adobe Illustrator 16.0.1, SVG Export Plug-In . SVG Version: 6.00 Build 0)  -->
<!DOCTYPE svg PUBLIC "-//W3C//DTD SVG 1.1//EN" "http://www.w3.org/Graphics/SVG/1.1/DTD/svg11.dtd">
<svg version="1.1" id="Layer_1" xmlns="http://www.w3.org/2000/svg" xmlns:xlink="http://www.w3.org/1999/xlink" x="0px" y="0px"
	 width="157.915px" height="79.193px" viewBox="0 0 157.915 79.193" enable-background="new 0 0 157.915 79.193"
	 xml:space="preserve">
<path fill="#808080" d="M25.8,10.667l-0.06-0.72l-0.12-0.72c-1.918-7.912-12.833-7.39-13.98,0.72l-0.06,0.72l0.06,0.721
	c1.143,8.092,12.066,8.61,13.98,0.72l0.12-0.72L25.8,10.667"/>
<path d="M25.56,10.728l-0.06-0.721l-0.12-0.72l-0.18-0.66v0.061l-0.24-0.66h0.06l-0.3-0.601l-0.36-0.6L24,6.288v0.061l-0.48-0.54
	h0.06l-0.48-0.42l-0.54-0.421v0.061l-0.6-0.36h0.06l-0.66-0.3l-0.6-0.24l-0.72-0.18h0.06l-0.66-0.12h-1.5H18l-0.66,0.12l-0.72,0.18
	h0.06l-0.6,0.24l-0.66,0.3l-0.6,0.36l0.06-0.061l-0.54,0.421l-0.48,0.42l-0.48,0.54l0.06-0.061l-0.36,0.54l-0.36,0.6l-0.3,0.601
	l-0.24,0.66V8.628L12,9.288l-0.12,0.72l-0.06,0.721v-0.061l0.06,0.721l0.12,0.72v-0.061l0.18,0.66l0.24,0.66v-0.06l0.3,0.6l0.36,0.6
	l0.36,0.54l-0.06-0.06l0.96,0.96l-0.3,0.36h-0.06l-0.96-0.96v-0.061l-0.36-0.54l-0.36-0.6L12,13.548h-0.06l-0.24-0.659v-0.061
	c-0.486-1.517-0.453-2.812,0-4.32l0.24-0.659L12,7.788l0.3-0.6l0.36-0.601l0.36-0.54l0.48-0.54l0.06-0.06l0.48-0.42l0.54-0.42
	l0.6-0.36h0.06l0.66-0.3l0.6-0.24v-0.06l0.72-0.181h0.06c1.069-0.237,2.544-0.186,3.6,0.181l0.06,0.06l0.6,0.24l0.66,0.3l0.6,0.36
	h0.06l0.54,0.42l0.48,0.42v0.06l0.48,0.54h0.06l0.36,0.54c0.677,0.997,1.061,2.166,1.2,3.36l0.06,0.72"/>
<path d="M14.34,15.948l0.54,0.42h-0.06l0.6,0.36l0.66,0.3l0.6,0.24l-0.06-0.061l0.72,0.181l0.66,0.06l0.72,0.06h-0.06l0.78-0.06
	l0.66-0.06h-0.06l0.72-0.181v0.061l0.6-0.24l0.66-0.3h-0.06l0.6-0.36l0.54-0.42h-0.06l0.96-0.96v0.06l0.36-0.54l0.36-0.6l0.3-0.6
	l-0.06,0.06l0.24-0.66l0.18-0.66v0.061l0.12-0.72l0.06-0.721v0.061l0.48-0.061v0.061l-0.06,0.72c-0.306,2.31-1.319,3.951-3.18,5.34
	l-0.6,0.36l-0.66,0.3c-1.806,0.799-4.569,0.712-6.3-0.3h-0.06l-0.6-0.36v-0.06l-0.54-0.42"/>
<rect x="132.06" y="38.988" fill="#F7F7F7" width="14.22" height="14.16"/>
<rect x="132.06" y="38.748" width="14.46" height="0.48"/>
<rect x="146.04" y="38.988" width="0.48" height="14.4"/>
<rect x="131.82" y="52.908" width="14.46" height="0.48"/>
<rect x="131.82" y="38.748" width="0.479" height="14.4"/>
<path fill="#B3B3B3" d="M25.8,46.068l-0.06-0.72l-0.12-0.66c-1.782-7.893-12.89-7.406-13.98,0.66l-0.06,0.72l0.06,0.72
	c1.07,8.127,12.165,8.607,13.98,0.72l0.12-0.72L25.8,46.068"/>
<path d="M25.56,46.127l-0.06-0.72l-0.12-0.66l-0.18-0.72v0.06l-0.24-0.66h0.06l-0.3-0.6l-0.36-0.6L24,41.688v0.06l-0.96-0.96h0.06
	l-0.54-0.42v0.06l-0.6-0.3h0.06l-0.66-0.3l-0.6-0.24l-0.72-0.18h0.06l-0.66-0.12l-0.78-0.06h0.06L18,39.288l-0.66,0.12l-0.72,0.18
	h0.06l-0.6,0.24l-0.66,0.3l-0.6,0.3l0.06-0.06l-0.54,0.42l-0.96,0.96l0.06-0.06l-0.36,0.54l-0.36,0.6l-0.3,0.6l-0.24,0.66v-0.06
	L12,44.748l-0.12,0.66l-0.06,0.72v-0.06l0.06,0.72l0.12,0.72v-0.06l0.18,0.72l0.24,0.601l0.3,0.659v-0.06l0.36,0.54l0.36,0.6
	l-0.06-0.06l0.96,0.96h-0.06l-0.24,0.42l-0.06-0.06c-4.178-3.71-3.156-10.458,1.92-12.36l0.6-0.24v-0.06l0.72-0.181h0.06
	c2.127-0.497,3.67,0.114,5.52,1.08h0.06l0.54,0.42l1.02,1.021l0.36,0.54l0.36,0.6l0.3,0.601v0.06l0.24,0.66l0.18,0.72v0.062
	l0.12,0.66l0.06,0.72"/>
<path d="M14.28,51.408l0.54,0.36l0.6,0.359l0.66,0.3l0.6,0.24l-0.06-0.06l0.72,0.18l0.66,0.12h-0.06h1.5l0.66-0.12h-0.06l0.72-0.18
	v0.06l0.6-0.24l0.66-0.3h-0.06l0.6-0.359l0.54-0.36h-0.06l0.96-0.96v0.06l0.36-0.6l0.36-0.54v0.06l0.3-0.659l0.24-0.601H25.2
	l0.18-0.72v0.06l0.12-0.72l0.06-0.72v0.06l0.48-0.06v0.06c-0.189,6.032-6.429,9.19-11.46,6.061l-0.54-0.36"/>
<path fill="#808080" d="M146.28,10.667l-0.06-0.72l-0.12-0.72c-1.917-7.883-12.816-7.425-13.98,0.72l-0.06,0.72l0.06,0.721
	c1.16,8.127,12.066,8.58,13.98,0.72l0.12-0.72L146.28,10.667"/>
<path d="M146.04,10.728l-0.06-0.721l-0.12-0.72l-0.18-0.66v0.061l-0.24-0.66h0.061L145.2,7.427l-0.359-0.6l-0.359-0.54v0.061
	L144,5.808h0.061l-0.48-0.42v0.06l-0.6-0.42l-0.54-0.36h0.06l-0.66-0.3l-0.6-0.24l-0.72-0.18h0.06l-0.66-0.12h-1.5h0.062l-0.66,0.12
	l-0.72,0.18h0.061l-0.66,0.24l-0.601,0.3l-0.601,0.36l0.061-0.061l-0.54,0.421l-0.479,0.42l-0.479,0.54l0.06-0.061l-0.358,0.54
	l-0.36,0.6l-0.3,0.601l-0.239,0.66V8.628l-0.181,0.66l-0.12,0.72l-0.06,0.721v-0.061l0.06,0.721l0.12,0.72v-0.061l0.181,0.66
	l0.239,0.66v-0.06l0.3,0.6l0.36,0.6l0.358,0.54l-0.06-0.06l0.96,0.96l-0.3,0.36h-0.062l-0.959-0.96v-0.061l-0.359-0.54l-0.359-0.6
	l-0.301-0.601h-0.061l-0.239-0.659v-0.061c-1.05-2.966,0.349-6.492,2.88-8.22l0.6-0.36l0.602-0.3l0.061-0.06
	c1.155-0.508,2.413-0.604,3.659-0.54l0.66,0.119l0.72,0.181l0.061,0.06l0.601,0.24l0.66,0.3l0.54,0.36h0.061l0.6,0.42l0.479,0.42
	v0.06l0.479,0.54h0.061l0.36,0.54c0.677,0.997,1.06,2.166,1.198,3.36l0.062,0.72"/>
<path d="M134.82,15.948l0.54,0.42h-0.061l0.601,0.36l0.601,0.3v-0.061l0.66,0.24H137.1l0.72,0.181l0.66,0.06l0.72,0.06h-0.06
	l0.778-0.06l0.66-0.06h-0.06l0.72-0.181v0.061l0.6-0.24l0.66-0.3h-0.06l0.54-0.36l0.6-0.42h-0.06l0.96-0.96v0.06l0.359-0.54
	l0.359-0.6l0.301-0.6l-0.061,0.06l0.24-0.66l0.18-0.66v0.061l0.12-0.72l0.06-0.721v0.061l0.48-0.061v0.061
	c-0.104,2.22-0.938,4.124-2.641,5.58v0.06l-0.601,0.42h-0.06c-0.828,0.627-2.188,1.129-3.24,1.14l-0.779,0.061h-0.061l-0.721-0.061
	l-0.66-0.06H137.7l-0.72-0.18l-0.66-0.24h-0.06l-0.602-0.3l-0.6-0.36v-0.06l-0.54-0.42"/>
<rect x="18.42" y="17.508" width="0.48" height="0.24"/>
<rect x="18.42" y="17.748" width="0.48" height="21.48"/>
<rect x="138.9" y="17.508" width="0.479" height="0.24"/>
<rect x="138.9" y="17.748" width="0.479" height="21.48"/>
<text transform="matrix(1 0 0 1 144.1196 21.2869)" font-family="'ProductusBook'" font-size="7.98">1</text>
<text transform="matrix(1 0 0 1 64.7451 6.6472)" enable-background="new    "><tspan x="0" y="0" font-family="'ProductusBook'" font-size="7.98">LIST node</tspan><tspan x="-13.099" y="9.576" font-family="'ProductusBook'" font-size="7.98">(org.osgi/1.0/.LIST)</tspan></text>
<text transform="matrix(1 0 0 1 22.9194 22.9666)" font-family="'ProductusBook'" font-size="7.98">1</text>
<text transform="matrix(1 0 0 1 22.9194 38.3269)" font-family="'ProductusBook'" font-size="7.98">0..n</text>
<rect x="18.42" y="52.908" width="0.48" height="0.24"/>
<rect x="18.42" y="53.148" width="0.48" height="2.04"/>
<rect x="18.42" y="58.548" width="0.48" height="0.24"/>
<rect x="18.42" y="58.788" width="0.48" height="3.24"/>
<rect x="18.42" y="65.388" width="0.48" height="0.239"/>
<rect x="18.42" y="65.627" width="0.48" height="1.98"/>
<text transform="matrix(1 0 0 1 143.9399 36.6472)" font-family="'ProductusBook'" font-size="7.98">0..n</text>
<text transform="matrix(1 0 0 1 61.6851 48.7068)" enable-background="new    "><tspan x="0" y="0" font-family="'ProductusBook'" font-size="7.98">index nodes</tspan><tspan x="-21.913" y="9.576" font-family="'ProductusBook'" font-size="7.98">(name is int &gt;= 0 and cont.)</tspan></text>
<text transform="matrix(1 0 0 1 0 76.8474)" font-family="'ProductusBook'" font-size="7.98">structured LIST</text>
<text transform="matrix(1 0 0 1 118.7173 76.8474)" font-family="'ProductusBook'" font-size="7.98">primitive LIST</text>
</svg>
