<?xml version="1.0" encoding="utf-8"?>
<!-- Generator: Adobe Illustrator 16.0.1, SVG Export Plug-In . SVG Version: 6.00 Build 0)  -->
<!DOCTYPE svg PUBLIC "-//W3C//DTD SVG 1.1//EN" "http://www.w3.org/Graphics/SVG/1.1/DTD/svg11.dtd">
<svg version="1.1" id="Layer_1" xmlns="http://www.w3.org/2000/svg" xmlns:xlink="http://www.w3.org/1999/xlink" x="0px" y="0px"
	 width="161.283px" height="161.086px" viewBox="0 0 161.283 161.086" enable-background="new 0 0 161.283 161.086"
	 xml:space="preserve">
<rect x="35.46" y="139.368" width="0.48" height="0.24"/>
<rect x="35.46" y="139.607" width="0.48" height="1.979"/>
<rect x="35.46" y="145.008" width="0.48" height="0.24"/>
<rect x="35.46" y="145.249" width="0.48" height="3.24"/>
<rect x="35.46" y="151.909" width="0.48" height="0.239"/>
<rect x="35.46" y="152.147" width="0.48" height="3.301"/>
<rect x="35.46" y="158.868" width="0.48" height="0.24"/>
<rect x="35.46" y="159.107" width="0.48" height="1.979"/>
<rect x="35.46" y="96.829" width="0.48" height="0.239"/>
<rect x="35.46" y="97.067" width="0.48" height="42.78"/>
<rect x="56.7" y="68.448" width="0.48" height="0.24"/>
<rect x="56.7" y="68.688" width="0.48" height="28.62"/>
<rect x="56.7" y="96.829" width="0.48" height="0.239"/>
<rect x="56.7" y="97.067" width="0.48" height="1.98"/>
<rect x="56.7" y="102.467" width="0.48" height="0.24"/>
<rect x="56.7" y="102.708" width="0.48" height="3.301"/>
<rect x="56.7" y="109.428" width="0.48" height="0.24"/>
<rect x="56.7" y="109.667" width="0.48" height="3.24"/>
<rect x="77.94" y="96.829" width="0.48" height="0.239"/>
<rect x="77.94" y="97.067" width="0.48" height="1.98"/>
<rect x="77.94" y="102.467" width="0.48" height="0.24"/>
<rect x="77.94" y="102.708" width="0.48" height="3.301"/>
<rect x="77.94" y="109.428" width="0.48" height="0.24"/>
<rect x="77.94" y="109.667" width="0.48" height="3.24"/>
<polyline points="57.12,68.567 57,68.388 56.64,68.688 56.76,68.868 "/>
<polyline points="78.36,96.948 78.48,97.127 78.12,97.428 78,97.249 "/>
<polyline points="57.12,68.567 56.76,68.868 78,97.249 78.36,96.948 "/>
<polyline points="57.12,68.868 57.24,68.688 56.88,68.388 56.76,68.567 "/>
<polyline points="35.88,97.249 35.76,97.428 35.4,97.127 35.52,96.948 "/>
<polyline points="57.12,68.868 56.76,68.567 35.52,96.948 35.88,97.249 "/>
<polyline points="35.88,40.547 36.06,40.368 35.7,40.008 35.52,40.188 "/>
<polyline points="7.5,68.868 7.32,69.048 6.96,68.688 7.14,68.508 "/>
<polyline points="35.88,40.547 35.52,40.188 7.14,68.508 7.5,68.868 "/>
<polyline points="35.88,40.248 35.76,40.067 35.4,40.368 35.52,40.548 "/>
<polyline points="57.12,68.567 57.24,68.748 56.88,69.048 56.76,68.868 "/>
<polyline points="35.88,40.248 35.52,40.548 56.76,68.868 57.12,68.567 "/>
<polyline points="7.5,11.808 7.32,11.627 6.96,11.988 7.14,12.167 "/>
<polyline points="35.88,40.188 36.06,40.368 35.7,40.728 35.52,40.548 "/>
<polyline points="7.5,11.808 7.14,12.167 35.52,40.548 35.88,40.188 "/>
<path fill="#E6E6E6" d="M14.4,11.987v-0.72l-0.12-0.66C12.449,2.708,1.309,3.24,0.3,11.268l-0.06,0.72l0.06,0.78
	c1.009,8.028,12.149,8.559,13.98,0.66l0.12-0.66V11.987"/>
<path d="M14.16,11.987v-0.72v0.06l-0.12-0.66l-0.18-0.72l0.06,0.06l-0.24-0.6l-0.3-0.66l-0.36-0.6v0.06l-0.42-0.54l-0.42-0.48h0.06
	l-0.54-0.48v0.06l-1.08-0.72h0.06l-0.66-0.3l-0.66-0.24L8.7,5.328h0.06l-0.72-0.12l-0.72-0.06h0.06l-0.72,0.06l-0.72,0.12
	l-0.66,0.18h0.06l-0.66,0.24l-0.6,0.3l-0.6,0.36l-0.54,0.36L3,6.708l-0.96,0.96l-0.42,0.54l0.06-0.06l-0.36,0.6l-0.3,0.66l-0.24,0.6
	v-0.06l-0.12,0.72l-0.12,0.66l-0.06,0.72v-0.061l0.06,0.78l0.12,0.66l0.12,0.72v-0.06l0.24,0.6l0.3,0.66v-0.06l0.36,0.6H1.62
	l0.42,0.54v-0.06L3,17.328H2.94l-0.24,0.42l-0.54-0.54c-2.284-2.172-2.809-5.882-1.26-8.64v-0.06l0.36-0.6
	c1.635-2.503,5.297-3.937,8.22-2.88h0.06l0.66,0.24v0.06l0.66,0.3c1.402,0.887,1.512,0.929,2.52,2.28h0.06l0.36,0.6v0.06l0.3,0.66
	l0.24,0.6l0.18,0.72v0.06l0.12,0.66v0.72"/>
<path d="M2.94,17.328l0.54,0.36l0.6,0.36l0.6,0.3v-0.06l0.66,0.24H5.28l0.66,0.18l0.72,0.12l0.72,0.06H7.32l0.72-0.06l0.72-0.12H8.7
	l0.66-0.18l0.66-0.24v0.06l0.66-0.3h-0.06l1.08-0.72l0.54-0.48l-0.06,0.06l0.42-0.48l0.42-0.54l0.36-0.6v0.06l0.3-0.66l0.24-0.6
	h-0.06l0.18-0.72v0.06l0.12-0.66v-0.78h0.48v0.78c-0.569,5.525-6.801,8.386-11.4,5.34l-0.54-0.36"/>
<text transform="matrix(1 0 0 1 18.6602 6.6479)" font-family="'ProductusBook'" font-size="7.98">.</text>
<text transform="matrix(1 0 0 1 7.3193 12.5884)" font-family="'ProductusSemibold'" font-size="7.98">.</text>
<path fill="#E6E6E6" d="M64.02,68.688v-0.72l-0.12-0.66c-1.847-7.968-13.052-7.297-13.98,0.66l-0.06,0.72l0.06,0.72
	c0.935,8.067,12.127,8.648,13.98,0.72l0.12-0.72V68.688"/>
<path d="M63.78,68.688v-0.72v0.06l-0.12-0.66l-0.18-0.72v0.06l-0.24-0.66h0.06l-0.3-0.6l-0.36-0.6v0.06l-0.42-0.54l-0.42-0.48h0.06
	l-0.54-0.48l-0.54-0.42v0.06l-1.2-0.6h0.06l-0.66-0.24l-0.66-0.18h0.06l-0.72-0.12l-0.72-0.06H57l-0.72,0.06l-0.72,0.12l-0.66,0.18
	h0.06l-0.66,0.24l-1.2,0.6l0.06-0.06l-0.54,0.42l-0.96,0.96l-0.42,0.54l0.06-0.06l-0.36,0.6l-0.3,0.6l-0.24,0.66v-0.06l-0.18,0.72
	l-0.06,0.66l-0.06,0.72v-0.06l0.06,0.72l0.06,0.72v-0.06l0.18,0.72l0.24,0.6l0.3,0.66v-0.06l0.36,0.54l0.42,0.6l-0.06-0.06
	l0.96,0.96h-0.06l-0.24,0.42l-1.02-1.02l-0.42-0.6v-0.06l-0.36-0.54l-0.3-0.66l-0.24-0.6l-0.06-0.06l-0.18-0.72l-0.06-0.72
	c-0.156-1.023,0.034-2.666,0.479-3.6l0.06-0.06l0.3-0.6l0.36-0.6c1.626-2.526,5.306-3.926,8.22-2.88h0.06l0.66,0.24v0.06l0.6,0.3
	c1.164,0.432,1.861,1.323,2.58,2.28h0.06l0.36,0.6c0.474,0.854,0.696,1.798,0.84,2.76v0.72"/>
<path d="M52.56,74.027l0.54,0.36l0.6,0.36l0.6,0.3v-0.06l0.66,0.24H54.9l0.66,0.18l0.72,0.12l0.72,0.06h-0.06l0.72-0.06l0.72-0.12
	h-0.06l0.66-0.18l0.66-0.24l-0.06,0.06l0.6-0.3l0.6-0.36l0.54-0.36l0.54-0.48l-0.06,0.06l0.42-0.48l0.42-0.6l0.36-0.54v0.06
	l0.3-0.66l0.24-0.6h-0.06l0.18-0.72v0.06l0.12-0.72v-0.72h0.48v0.78l-0.12,0.72l-0.18,0.72v0.06l-0.24,0.6l-0.3,0.66l-0.36,0.54
	v0.06l-0.42,0.6h-0.06c-2.417,2.868-6.584,3.459-9.72,1.38l-0.54-0.36"/>
<text transform="matrix(1 0 0 1 7.3198 12.5884)" font-family="'ProductusSemibold'" font-size="7.98">.</text>
<rect x="0.24" y="61.607" fill="#F7F7F7" width="14.16" height="14.22"/>
<rect x="0.24" y="61.368" width="14.4" height="0.48"/>
<rect x="14.16" y="61.607" width="0.48" height="14.46"/>
<rect y="75.587" width="14.4" height="0.48"/>
<rect y="61.368" width="0.48" height="14.46"/>
<text transform="matrix(1 0 0 1 5.2798 70.6079)" font-family="'ProductusSemibold'" font-size="7.98">Name</text>
<path fill="#E6E6E6" d="M42.78,40.368l-0.06-0.72l-0.12-0.72c-1.796-7.932-12.917-7.313-13.98,0.72v1.44
	c1.095,8.033,12.16,8.631,13.98,0.72l0.12-0.72L42.78,40.368"/>
<path d="M42.54,40.428l-0.06-0.72l-0.12-0.72l-0.18-0.66L42,37.667l0.06,0.06l-0.3-0.6l-0.36-0.6v0.06l-0.42-0.54l-0.48-0.54h0.06
	l-0.48-0.42l-0.54-0.42v0.06l-0.6-0.36l-0.6-0.3h0.06l-0.66-0.24l-0.72-0.18h0.06l-0.66-0.12h-1.44h0.06l-0.72,0.12l-0.66,0.18h0.06
	l-0.66,0.24l-0.66,0.3l-0.54,0.36l0.06-0.06l-1.08,0.84L30,36.587l0.06-0.06l-0.36,0.6l-0.3,0.6l-0.24,0.66v-0.06l-0.18,0.66
	l-0.12,0.72v-0.06v1.44l0.12,0.72v-0.06l0.18,0.66l0.24,0.66v-0.06l0.3,0.6l0.36,0.6H30l0.42,0.54l0.42,0.48v-0.06l0.54,0.48
	l-0.3,0.36l-0.54-0.48h-0.06l-0.42-0.479l-0.42-0.54v-0.06l-0.36-0.6l-0.3-0.6h-0.06l-0.24-0.66v-0.06
	c-0.447-1.22-0.412-3.101,0-4.32l0.24-0.66l0.06-0.06c0.765-1.644,1.645-2.605,3.18-3.54h0.06l0.66-0.3v-0.06l0.66-0.24l0.66-0.18
	h0.06l0.72-0.12h1.5l0.66,0.12l0.72,0.18h0.06l0.66,0.24v0.06l0.6,0.3c1.225,0.624,1.766,1.253,2.58,2.34h0.06l0.36,0.6
	c0.406,0.62,0.674,2.007,0.78,2.76l0.06,0.72"/>
<path d="M31.38,45.647l0.54,0.42h-0.06l0.54,0.36l0.66,0.3v-0.06l0.66,0.24h-0.06l0.66,0.18l1.44,0.12H35.7l0.72-0.06l0.66-0.06
	h-0.06l0.72-0.18l0.66-0.24l-0.06,0.06l0.6-0.3l0.6-0.36l0.54-0.42h-0.06l0.96-0.96v0.06l0.42-0.54l0.36-0.6l0.3-0.6L42,43.067
	l0.36-1.32v0.06l0.12-0.72l0.06-0.72v0.06l0.48-0.06v0.06l-0.06,0.72c-0.381,2.624-1.128,3.664-3.18,5.34l-0.6,0.36l-0.6,0.3
	c-1.911,0.78-4.531,0.73-6.36-0.3h-0.06l-0.54-0.36v-0.06l-0.54-0.42"/>
<text transform="matrix(1 0 0 1 56.04 69.8276)" font-family="'ProductusSemibold'" font-size="7.98">Interface</text>
<path fill="#FFFFFF" d="M42.78,97.067l-0.06-0.72l-0.12-0.72c-1.796-7.933-12.917-7.314-13.98,0.72v1.44
	c1.095,8.032,12.16,8.631,13.98,0.719l0.12-0.719L42.78,97.067"/>
<path d="M42.54,97.127l-0.06-0.721l-0.12-0.72l-0.18-0.66L42,94.368l0.06,0.061l-0.3-0.6l-0.36-0.601v0.06l-0.42-0.539l-0.48-0.541
	h0.06l-0.48-0.42l-0.54-0.42v0.061l-0.6-0.36l-0.6-0.3h0.06l-0.66-0.24l-0.72-0.18h0.06l-0.66-0.12h-1.44h0.06l-0.72,0.12
	l-0.66,0.18h0.06l-0.66,0.24l-0.66,0.3l-0.54,0.36l0.06-0.061l-1.08,0.84L30,93.288l0.06-0.06l-0.36,0.601l-0.3,0.6l-0.24,0.66
	v-0.061l-0.18,0.66l-0.12,0.721v-0.061v1.439l0.12,0.721v-0.061l0.18,0.66l0.24,0.66v-0.061l0.3,0.601l0.36,0.601H30l0.42,0.539
	l0.42,0.48v-0.061l0.54,0.48l-0.3,0.359l-0.54-0.479h-0.06l-0.42-0.479l-0.42-0.541v-0.06l-0.36-0.601l-0.3-0.6h-0.06l-0.24-0.66
	v-0.06c-0.447-1.22-0.412-3.101,0-4.319l0.24-0.66l0.06-0.061c0.765-1.645,1.645-2.605,3.18-3.54h0.06l0.66-0.3v-0.061l0.66-0.24
	l0.66-0.18h0.06l0.72-0.119h1.5l0.66,0.119l0.72,0.18h0.06l0.66,0.24v0.061l0.6,0.3c1.226,0.624,1.766,1.253,2.58,2.341h0.06
	l0.36,0.6c0.406,0.619,0.674,2.007,0.78,2.76l0.06,0.72"/>
<path d="M31.38,102.348l0.54,0.42h-0.06l0.54,0.359l0.66,0.301v-0.061l0.66,0.24h-0.06l0.66,0.18l1.44,0.121H35.7l0.72-0.061
	l0.66-0.061h-0.06l0.72-0.18l0.66-0.24l-0.06,0.061l0.6-0.301l0.6-0.359l0.54-0.42h-0.06l0.96-0.96v0.06l0.42-0.539l0.36-0.601
	l0.3-0.601L42,99.768l0.36-1.32v0.061l0.12-0.721l0.06-0.72v0.06l0.48-0.06v0.06l-0.06,0.721c-0.381,2.624-1.128,3.664-3.18,5.34
	l-0.6,0.359l-0.6,0.301c-1.911,0.779-4.531,0.73-6.36-0.301h-0.06l-0.54-0.359v-0.061l-0.54-0.42"/>
<path fill="#FFFFFF" d="M85.26,97.067v-0.72l-0.12-0.72c-1.908-7.885-12.856-7.408-13.979,0.72l-0.06,0.72l0.06,0.721
	c1.119,8.11,12.075,8.584,13.979,0.719l0.12-0.719V97.067"/>
<path d="M85.021,97.067v-0.72v0.06l-0.121-0.72l-0.18-0.66v0.06l-0.24-0.66h0.061l-0.3-0.6l-0.359-0.6l-0.36-0.54v0.06l-0.479-0.539
	h0.06l-0.48-0.42v0.06l-0.6-0.421l-0.541-0.359h0.061l-0.659-0.3l-0.66-0.24l-0.66-0.18h0.06l-0.72-0.12h-1.44h0.061l-0.66,0.12
	l-0.72,0.18h0.06l-0.66,0.24l-0.6,0.3l-0.6,0.359l0.06-0.059l-0.54,0.42l-0.48,0.42l-0.48,0.539l-0.42,0.541l0.06-0.061l-0.6,1.199
	l-0.24,0.66v-0.06l-0.18,0.66l-0.12,0.72l-0.06,0.721v-0.061l0.06,0.721l0.12,0.719v-0.059l0.18,0.659l0.24,0.66v-0.06l0.6,1.199
	h-0.06l0.42,0.541v-0.061l0.96,0.96l-0.3,0.36H73.5l-0.96-0.961l-0.42-0.539v-0.061l-0.6-1.199h-0.06l-0.24-0.66v-0.061
	c-0.81-2.305-0.154-4.907,1.32-6.779l0.48-0.541l0.06-0.06c1.864-1.868,4.738-2.623,7.26-1.8h0.06l0.66,0.24v0.06l0.66,0.3
	c0.959,0.602,1.461,0.859,2.16,1.801h0.061l0.359,0.539c0.678,0.997,1.061,2.166,1.199,3.36v0.72"/>
<path d="M73.86,102.348l0.54,0.42h-0.06l0.6,0.359l0.6,0.301v-0.061l0.66,0.24h-0.06l0.72,0.18l0.66,0.061l0.72,0.061h-0.06
	l1.439-0.121h-0.06l0.66-0.18l0.66-0.24v0.061l0.659-0.301h-0.061l0.541-0.359l0.6-0.42h-0.061l0.961-0.96v0.06l0.359-0.539
	l0.359-0.601l0.3-0.601l-0.06,0.061l0.239-0.66l0.181-0.66v0.061l0.119-0.721v-0.72H85.5v0.72c-0.213,1.959-1.076,3.637-2.579,4.92
	v0.061l-0.602,0.42h-0.06c-0.644,0.559-2.42,1.184-3.301,1.141l-0.72,0.059h-0.06l-0.721-0.059l-0.659-0.061H76.74l-0.72-0.18
	l-0.66-0.24H75.3l-0.6-0.301l-0.6-0.359v-0.061l-0.54-0.42"/>
<text transform="matrix(1 0 0 1 69.7051 120.8882)" font-family="'ProductusSemibold'" font-size="7.98">WAN</text>
<text transform="matrix(1 0 0 1 7.5 108.8276)" font-family="'ProductusSemibold'" font-size="7.98">LAN</text>
<path fill="#FFFFFF" d="M64.02,97.067v-0.72l-0.12-0.72c-1.84-7.896-13.044-7.33-13.98,0.72l-0.06,0.72l0.06,0.721
	c0.998,8.041,12.062,8.621,13.98,0.719l0.12-0.719V97.067"/>
<path d="M63.78,97.067v-0.72v0.06l-0.12-0.72l-0.18-0.66v0.06l-0.24-0.66h0.06l-0.3-0.6l-0.36-0.6v0.061l-0.84-1.08h0.06l-1.08-0.84
	v0.059l-0.6-0.359l-0.6-0.3h0.06l-0.66-0.24l-0.66-0.18h0.06l-0.72-0.12h-1.44h0.06l-0.72,0.12l-0.66,0.18h0.06l-0.66,0.24l-0.6,0.3
	l-0.6,0.359l0.06-0.059l-0.54,0.42l-0.48,0.42l-0.48,0.539l-0.42,0.541l0.06-0.061l-0.36,0.6l-0.3,0.6l-0.24,0.66v-0.06l-0.18,0.66
	l-0.06,0.72l-0.06,0.721v-0.061l0.06,0.721l0.06,0.719v-0.059l0.18,0.659l0.24,0.66v-0.06l0.3,0.6l0.36,0.6h-0.06l0.42,0.541v-0.061
	l0.96,0.96l-0.3,0.36h-0.06l-0.96-0.961l-0.42-0.539v-0.061l-0.36-0.6l-0.3-0.6h-0.06l-0.24-0.66v-0.061
	c-0.66-2.336-0.252-4.932,1.38-6.779l0.48-0.541l0.06-0.06c1.866-1.871,4.733-2.63,7.26-1.8h0.06l0.66,0.24v0.06l0.6,0.3
	c1.385,0.77,1.676,1.066,2.58,2.34h0.06l0.36,0.6c0.445,0.81,0.738,1.84,0.84,2.761v0.72"/>
<path d="M52.62,102.348l0.54,0.42H53.1l0.6,0.359l0.6,0.301v-0.061l0.66,0.24H54.9l0.66,0.18l1.44,0.121h-0.06l1.44-0.121h-0.06
	l0.66-0.18l0.66-0.24l-0.06,0.061l0.6-0.301l0.6-0.359l0.54-0.42l0.54-0.48l-0.06,0.061l0.42-0.48l0.42-0.539l0.36-0.601l0.3-0.601
	l-0.06,0.061l0.24-0.66l0.18-0.66v0.061l0.12-0.721v-0.72h0.48v0.72c-0.587,5.268-6.09,8.158-10.8,5.76l-0.6-0.359v-0.061
	l-0.54-0.42"/>
<text transform="matrix(1 0 0 1 50.3398 120.8882)" font-family="'ProductusSemibold'" font-size="7.98">VPN</text>
<text transform="matrix(1 0 0 1 32.8203 98.5083)" font-family="'ProductusSemibold'" font-size="7.98">11</text>
<text transform="matrix(1 0 0 1 53.3398 97.6079)" font-family="'ProductusSemibold'" font-size="7.98">33</text>
<text transform="matrix(1 0 0 1 73.8716 97.6079)" font-family="'ProductusSemibold'" font-size="7.98">42</text>
<text transform="matrix(1 0 0 1 92.3994 97.0679)" font-family="'ProductusBook'" font-size="7.98">Assigned by Dmt Admin</text>
<path fill="#E6E6E6" d="M42.78,118.308l-0.06-0.72l-0.12-0.721c-1.82-7.91-12.885-7.312-13.98,0.721v1.439
	c1.04,8.032,12.208,8.648,13.98,0.721l0.12-0.721L42.78,118.308"/>
<path d="M42.54,118.368l-0.06-0.72l-0.12-0.72l-0.18-0.66l-0.18-0.66l0.06,0.061l-0.3-0.601l-0.36-0.601v0.061l-0.42-0.54
	l-0.96-0.96h0.06l-0.54-0.42v0.061l-0.6-0.36l-0.6-0.3h0.06l-0.66-0.24l-0.72-0.18h0.06l-0.66-0.061l-0.72-0.061h0.06l-1.44,0.121
	l-0.66,0.18h0.06l-0.66,0.24l-0.66,0.3l-0.54,0.36l0.06-0.061l-0.54,0.42l-0.54,0.48l-0.42,0.479l-0.42,0.54l0.06-0.061l-0.36,0.601
	l-0.3,0.601l-0.24,0.66v-0.061l-0.18,0.66l-0.12,0.72v-0.06v1.439l0.12,0.721v-0.061l0.18,0.66l0.24,0.66l0.3,0.66v-0.061l0.36,0.54
	H30l0.84,1.08v-0.06l0.54,0.42l-0.3,0.359l-0.54-0.42h-0.06l-0.84-1.08v-0.06l-0.36-0.54l-0.3-0.66h-0.06l-0.24-0.66v-0.061
	c-0.447-1.219-0.412-3.1,0-4.319l0.24-0.659l0.06-0.061c0.651-1.506,1.793-2.689,3.18-3.54h0.06l0.66-0.3v-0.061l0.66-0.24
	l0.66-0.18h0.06l1.44-0.119h0.06l0.72,0.059l0.66,0.061l0.72,0.18h0.06l0.66,0.24v0.061l0.6,0.3c1.022,0.479,1.954,1.418,2.58,2.34
	h0.06l0.36,0.601c0.406,0.619,0.674,2.006,0.78,2.76l0.06,0.72"/>
<path d="M31.38,123.586l0.54,0.42h-0.06l0.54,0.361l0.66,0.299v-0.06l0.66,0.24h-0.06l0.66,0.18l0.72,0.12h-0.06h1.44l0.66-0.12
	h-0.06l0.72-0.18l0.66-0.24l-0.06,0.06l0.6-0.299l0.6-0.361l0.54-0.42l0.48-0.42l-0.06,0.061l0.48-0.54l0.42-0.54l0.36-0.54v0.06
	l0.3-0.66H42l0.36-1.319v0.06l0.12-0.72l0.06-0.72v0.061l0.48-0.061v0.061l-0.06,0.719c-0.36,2.558-1.134,3.74-3.18,5.34l-0.6,0.361
	l-0.6,0.299c-2.03,0.84-4.416,0.742-6.36-0.299h-0.06l-0.54-0.361v-0.059l-0.54-0.42"/>
<text transform="matrix(1 0 0 1 31.3198 121.728)" font-family="'ProductusSemibold'" font-size="7.98">Fw</text>
<path fill="#FFFFFF" d="M42.78,139.607l-0.06-0.78l-0.12-0.66c-1.765-7.904-12.85-7.365-13.98,0.66v1.5
	c1.061,8.012,12.281,8.559,13.98,0.66l0.12-0.66L42.78,139.607"/>
<path d="M42.54,139.667l-0.06-0.779l-0.12-0.66l-0.18-0.721l-0.18-0.6l0.06,0.061l-0.3-0.66l-0.36-0.54v0.06l-0.42-0.6l-0.96-0.96
	l0.06,0.06l-0.54-0.359l-0.6-0.36l-0.6-0.3h0.06l-0.66-0.24l-0.72-0.18h0.06l-0.66-0.12l-0.72-0.06h0.06l-0.72,0.06l-0.72,0.12
	l-0.66,0.18h0.06l-0.66,0.24l-0.66,0.3l-1.08,0.72l0.06-0.06l-0.54,0.479l-0.42,0.48h0.06l-0.42,0.6v-0.06l-0.36,0.54l-0.3,0.66
	l-0.24,0.6v-0.061l-0.18,0.721l-0.12,0.66v-0.061v1.5l0.12,0.66v-0.061l0.18,0.721l0.24,0.66v-0.061l0.3,0.601l0.36,0.601H30
	l0.42,0.539l0.42,0.48v-0.061l0.54,0.48h-0.06l-0.24,0.42v-0.061c-0.796-0.598-1.348-1.266-1.8-2.16l-0.3-0.6h-0.06l-0.24-0.66
	v-0.06l-0.18-0.72l-0.12-0.66v-1.561l0.12-0.66v-0.06l0.18-0.72h0.06l0.24-0.6l0.3-0.66v-0.061l0.36-0.54l0.42-0.601l0.42-0.479
	l0.06-0.061l0.54-0.48l1.08-0.72h0.06l0.66-0.3v-0.061l0.66-0.24l0.66-0.18h0.06l0.72-0.119l0.72-0.061h0.06l0.72,0.061l0.66,0.119
	l0.72,0.18h0.06l0.66,0.24v0.061l0.6,0.3c2.27,1.149,3.489,3.125,3.78,5.64l0.06,0.78"/>
<path d="M31.32,144.888l1.08,0.72l0.66,0.301v-0.061l0.66,0.24h-0.06l0.66,0.18l0.72,0.12l0.72,0.06H35.7l0.72-0.06l0.66-0.12h-0.06
	l0.72-0.18l0.66-0.24l-0.06,0.061l0.6-0.301l0.6-0.359l0.54-0.36h-0.06l0.96-0.96v0.06l0.42-0.54l0.36-0.6l0.3-0.6l-0.06,0.06
	l0.18-0.66l0.18-0.72v0.06l0.12-0.659l0.06-0.721v0.061l0.48-0.061v0.061c-0.076,5.918-6.563,9.172-11.4,6l-0.54-0.36"/>
<text transform="matrix(1 0 0 1 32.8198 140.9878)" font-family="'ProductusSemibold'" font-size="7.98">97</text>
<text transform="matrix(1 0 0 1 7.3198 141.4077)" font-family="'ProductusSemibold'" font-size="7.98">Fw#1</text>
<text transform="matrix(1 0 0 1 35.6997 42.228)" font-family="'ProductusSemibold'" font-size="7.98">Gateway</text>
</svg>
