<?xml version="1.0" encoding="utf-8"?>
<!-- Generator: Adobe Illustrator 16.0.0, SVG Export Plug-In . SVG Version: 6.00 Build 0)  -->
<!DOCTYPE svg PUBLIC "-//W3C//DTD SVG 1.1//EN" "http://www.w3.org/Graphics/SVG/1.1/DTD/svg11.dtd">
<svg version="1.1" id="Layer_1" xmlns="http://www.w3.org/2000/svg" xmlns:xlink="http://www.w3.org/1999/xlink" x="0px" y="0px"
	 width="215.54px" height="132.707px" viewBox="0 0 215.54 132.707" style="enable-background:new 0 0 215.54 132.707;"
	 xml:space="preserve">
<polyline points="94.92,102.228 91.98,102.228 92.4,101.507 94.5,97.787 94.98,97.007 95.4,97.728 97.56,101.447 98.04,102.228 
	97.08,102.228 96.66,101.987 94.5,98.268 95.4,97.728 95.4,98.268 93.3,101.987 92.4,101.507 92.82,101.207 94.92,101.207 "/>
<rect x="94.92" y="101.207" width="2.16" height="1.021"/>
<polyline style="fill-rule:evenodd;clip-rule:evenodd;" points="94.92,101.747 92.82,101.747 94.92,98.027 97.08,101.747 "/>
<rect x="94.68" y="101.987" width="0.48" height="0.24"/>
<rect x="94.68" y="102.228" width="0.48" height="1.979"/>
<rect x="94.68" y="108.047" width="0.48" height="0.24"/>
<rect x="94.68" y="108.287" width="0.48" height="3.601"/>
<rect x="94.68" y="115.728" width="0.48" height="0.24"/>
<rect x="94.68" y="115.968" width="0.48" height="3.6"/>
<rect x="94.68" y="123.407" width="0.48" height="0.24"/>
<rect x="94.68" y="123.647" width="0.48" height="1.979"/>
<polyline points="116.4,68.567 116.28,68.388 115.92,68.688 116.04,68.867 "/>
<polyline points="117.42,69.947 117.54,70.127 117.18,70.428 117.06,70.247 "/>
<polyline points="116.4,68.567 116.04,68.867 117.06,70.247 117.42,69.947 "/>
<polyline style="fill-rule:evenodd;clip-rule:evenodd;" points="120.479,74.027 120.36,73.848 120,74.147 120.12,74.327 "/>
<polyline style="fill-rule:evenodd;clip-rule:evenodd;" points="122.82,77.147 122.94,77.327 122.58,77.627 122.46,77.447 "/>
<polyline style="fill-rule:evenodd;clip-rule:evenodd;" points="120.479,74.027 120.12,74.327 122.46,77.447 122.82,77.147 "/>
<polyline style="fill-rule:evenodd;clip-rule:evenodd;" points="125.82,81.167 125.7,80.987 125.34,81.287 125.46,81.468 "/>
<polyline style="fill-rule:evenodd;clip-rule:evenodd;" points="128.22,84.287 128.34,84.468 127.979,84.768 127.86,84.587 "/>
<polyline style="fill-rule:evenodd;clip-rule:evenodd;" points="125.82,81.167 125.46,81.468 127.86,84.587 128.22,84.287 "/>
<polyline style="fill-rule:evenodd;clip-rule:evenodd;" points="131.22,88.367 131.1,88.188 130.74,88.487 130.86,88.667 "/>
<polyline style="fill-rule:evenodd;clip-rule:evenodd;" points="133.56,91.487 133.68,91.667 133.32,91.968 133.2,91.787 "/>
<polyline style="fill-rule:evenodd;clip-rule:evenodd;" points="131.22,88.367 130.86,88.667 133.2,91.787 133.56,91.487 "/>
<polyline points="136.68,95.507 136.56,95.327 136.14,95.627 136.26,95.808 "/>
<polyline points="137.7,96.947 137.82,97.127 137.4,97.428 137.28,97.247 "/>
<polyline points="136.68,95.507 136.26,95.808 137.28,97.247 137.7,96.947 "/>
<polyline points="116.4,68.867 116.52,68.688 116.16,68.388 116.04,68.567 "/>
<polyline points="95.1,97.247 94.98,97.428 94.62,97.127 94.74,96.947 "/>
<polyline points="116.4,68.867 116.04,68.567 94.74,96.947 95.1,97.247 "/>
<rect x="115.979" y="40.127" width="0.48" height="0.24"/>
<rect x="115.979" y="40.367" width="0.48" height="28.561"/>
<polyline points="88.02,11.808 87.84,11.627 87.48,11.987 87.66,12.167 "/>
<polyline points="116.4,40.188 116.58,40.367 116.22,40.728 116.04,40.547 "/>
<polyline points="88.02,11.808 87.66,12.167 116.04,40.547 116.4,40.188 "/>
<path style="fill-rule:evenodd;clip-rule:evenodd;fill:#808080;" d="M94.92,11.987v-0.72l-0.12-0.721
	c-1.956-7.917-12.932-7.324-13.98,0.721l-0.06,0.72l0.06,0.72c1.028,8.078,12.076,8.625,13.98,0.721l0.12-0.721V11.987"/>
<path d="M94.68,11.987v-0.72v0.06l-0.12-0.72l-0.18-0.66v0.06l-0.24-0.659h0.06l-0.3-0.601l-0.36-0.6v0.06l-0.42-0.54L92.7,7.188
	h0.06l-0.54-0.48l-0.54-0.42v0.061l-0.54-0.36h0.06l-0.66-0.3l-0.66-0.24l-0.66-0.18h0.06l-1.44-0.12h0.06l-0.72,0.06l-0.66,0.061
	l-0.72,0.18h0.06l-0.66,0.24l-0.6,0.3L84,6.348l0.06-0.061l-0.54,0.42l-0.96,0.96l-0.42,0.54l0.06-0.06l-0.36,0.6l-0.3,0.601V9.287
	l-0.36,1.32l-0.12,0.72L81,12.047v-0.06l0.06,0.72l0.12,0.721v-0.061l0.36,1.32v-0.061l0.3,0.601l0.36,0.6h-0.06l0.42,0.54
	l0.48,0.54v-0.06l0.48,0.42l-0.3,0.359l-0.48-0.42h-0.06l-0.48-0.54c-0.463-0.559-1.218-1.805-1.32-2.52l-0.18-0.66l-0.12-0.72
	c-0.198-1.221,0.147-2.439,0.48-3.601l0.06-0.06l0.3-0.601l0.36-0.6c1.867-2.714,5.016-3.832,8.22-2.939h0.06l0.66,0.239v0.061
	l0.66,0.3c1.218,0.72,1.685,1.206,2.52,2.34h0.06l0.36,0.6c0.445,0.81,0.738,1.84,0.84,2.761v0.72"/>
<path d="M83.52,17.268l0.54,0.42H84l0.6,0.359l0.6,0.301v-0.061l0.66,0.24H85.8l0.72,0.18l0.66,0.12h-0.06h1.44l0.72-0.12h-0.06
	l0.66-0.18l0.66-0.24v0.061l0.66-0.301h-0.06l0.54-0.359l1.08-0.84l-0.06,0.06l0.84-1.08l0.36-0.6l0.3-0.601l-0.06,0.061l0.24-0.66
	l0.18-0.66v0.061l0.12-0.721v-0.72h0.48v0.72c-0.583,5.261-6.089,8.198-10.8,5.761l-0.6-0.36v-0.061l-0.54-0.42"/>
<path style="fill-rule:evenodd;clip-rule:evenodd;" d="M123.3,40.367l-0.06-0.72l-0.12-0.72c-1.705-7.927-12.985-7.334-13.98,0.72
	v1.439c1.033,8.021,12.326,8.555,13.98,0.66l0.12-0.66L123.3,40.367"/>
<path d="M123.06,40.428L123,39.707l-0.24-1.439l0.061,0.06l-0.24-0.6l-0.3-0.66l-0.36-0.54v0.06l-0.42-0.6l-0.96-0.96l0.06,0.06
	l-0.54-0.359l-0.6-0.36l-0.6-0.3h0.06l-0.66-0.24l-0.66-0.18h0.061l-0.72-0.12l-0.721-0.06h0.061l-0.721,0.06l-0.72,0.12l-0.66,0.18
	h0.061l-0.66,0.24l-0.66,0.3l-1.08,0.72l0.061-0.06l-0.54,0.479l-0.42,0.48H111l-0.42,0.6v-0.06l-0.36,0.54l-0.3,0.66l-0.24,0.6
	v-0.06l-0.18,0.72l-0.12,0.72v-0.06v1.439l0.12,0.66v-0.06l0.18,0.72l0.24,0.66v-0.061l0.3,0.601l0.36,0.6h-0.061l0.421,0.54
	l0.42,0.48v-0.061l0.54,0.48l-0.301,0.359l-0.54-0.479H111l-0.42-0.48l-0.42-0.54v-0.06l-0.36-0.6l-0.3-0.601h-0.06l-0.24-0.66
	v-0.06l-0.181-0.72l-0.119-0.66v-1.5l0.119-0.72v-0.061l0.181-0.72h0.06l0.24-0.601l0.3-0.659v-0.061l0.36-0.54l0.42-0.6l0.42-0.48
	l0.06-0.06l0.54-0.48l1.08-0.72h0.061l0.66-0.3v-0.061l0.659-0.239l0.66-0.181h0.061l0.72-0.12l0.72-0.06h0.061l0.72,0.06l0.72,0.12
	l0.66,0.181h0.061l0.659,0.239v0.061l0.601,0.3c2.219,1.119,3.601,3.21,3.779,5.7l0.061,0.72"/>
<path d="M111.9,45.647l0.54,0.42h-0.061l0.54,0.3l0.66,0.3v-0.06l0.66,0.24h-0.061l0.66,0.18l0.72,0.12l0.721,0.06h-0.061
	l0.721-0.06l0.72-0.12H117.6l0.66-0.18l0.66-0.24l-0.06,0.06l1.199-0.6l0.54-0.42h-0.06l0.96-0.96v0.06l0.42-0.54l0.36-0.6
	l0.3-0.601l-0.061,0.061l0.24-0.66v0.061l0.12-0.721l0.12-0.66l0.06-0.72v0.061l0.48-0.061v0.061l-0.061,0.72
	c-0.239,2.491-1.269,3.801-3.18,5.34l-1.2,0.6c-2.289,0.889-4.159,0.764-6.359-0.3h-0.061l-0.54-0.3v-0.06l-0.54-0.421"/>
<text transform="matrix(1 0 0 1 0 6.6475)" style="font-family:'ProductusBook'; font-size:7.98;">.</text>
<text transform="matrix(1 0 0 1 87.8398 12.5879)" style="font-family:'ProductusSemibold'; font-size:7.98;">.</text>
<path style="fill-rule:evenodd;clip-rule:evenodd;fill:#FFFFFF;" d="M123.3,68.688l-0.06-0.72l-0.12-0.721
	c-1.805-7.905-12.887-7.318-13.98,0.721v1.439c1.036,8.031,12.223,8.644,13.98,0.72l0.12-0.72L123.3,68.688"/>
<path d="M123.06,68.747l-0.06-0.72l-0.12-0.72l-0.12-0.66v0.06l-0.24-0.66h0.061l-0.3-0.6l-0.36-0.6v0.06l-0.42-0.54l-0.96-0.96
	h0.06l-0.54-0.42v0.06l-0.6-0.359l-0.6-0.3h0.06l-0.66-0.24l-0.66-0.18h0.061l-1.44-0.12h0.061l-1.44,0.12l-0.66,0.18h0.061
	l-0.66,0.24l-0.66,0.3l-0.54,0.359l0.061-0.06l-0.54,0.42l-0.54,0.48l-0.42,0.479l-0.421,0.54l0.061-0.06l-0.36,0.6l-0.3,0.6
	l-0.24,0.66v-0.06l-0.18,0.66l-0.12,0.72v-0.06v1.439l0.12,0.72v-0.06l0.18,0.66l0.24,0.66v-0.061l0.3,0.601l0.36,0.6h-0.061
	l0.841,1.08v-0.061l0.54,0.421l-0.301,0.359l-0.54-0.42H111l-0.84-1.08v-0.06l-0.36-0.601l-0.3-0.6h-0.06l-0.24-0.66v-0.06
	c-0.447-1.222-0.412-3.102,0-4.32l0.24-0.66l0.06-0.06c0.651-1.506,1.793-2.69,3.18-3.54h0.061l0.66-0.3v-0.061l0.659-0.24
	l0.66-0.18h0.061l1.439-0.12h0.061l1.439,0.12l0.66,0.18h0.061l0.659,0.24v0.061l0.601,0.3c1.022,0.479,1.954,1.418,2.58,2.34h0.06
	l0.36,0.6c0.565,1.035,0.591,1.604,0.779,2.761l0.061,0.72"/>
<path d="M111.9,73.968l0.54,0.42h-0.061l0.54,0.359l0.66,0.3v-0.06l0.66,0.24h-0.061l0.66,0.18l0.72,0.12h-0.06h1.44l0.72-0.12
	H117.6l0.66-0.18l0.66-0.24l-0.06,0.06l0.6-0.3l0.6-0.359l0.54-0.42l0.48-0.421l-0.061,0.061l0.48-0.54l0.42-0.54l0.36-0.6
	l0.3-0.601l-0.061,0.061l0.24-0.66v0.06l0.12-0.66l0.12-0.72l0.06-0.72v0.06l0.48-0.06v0.06l-0.061,0.721
	c-0.189,2.35-1.326,3.946-3.18,5.34l-0.6,0.359l-0.601,0.301c-2.026,0.846-4.417,0.736-6.359-0.301h-0.061l-0.54-0.359v-0.061
	l-0.54-0.42"/>
<text transform="matrix(1 0 0 1 114 70.5469)" style="font-family:'ProductusSemibold'; font-size:7.98;">B</text>
<text transform="matrix(1 0 0 1 87.8398 12.5869)" style="font-family:'ProductusSemibold'; font-size:7.98;">.</text>
<text transform="matrix(1 0 0 1 114.7793 42.8867)" style="font-family:'ProductusSemibold'; font-size:7.98;">A</text>
<text transform="matrix(1 0 0 1 125.459 70.667)"><tspan x="0" y="0" style="font-family:'ProductusSemibold'; font-size:7.98;">P</tspan><tspan x="4.197" y="0" style="font-family:'ProductusSemibold'; font-size:7.98;">1</tspan></text>
<path style="fill-rule:evenodd;clip-rule:evenodd;fill:#808080;" d="M102.96,97.067l-0.06-0.78l-0.12-0.66
	c-1.765-7.909-12.864-7.36-13.98,0.66v1.5c1.116,8.021,12.216,8.57,13.98,0.66l0.12-0.66L102.96,97.067"/>
<path d="M102.72,97.127l-0.06-0.779l-0.12-0.66l-0.18-0.72l0.06,0.06l-0.24-0.6h-0.06l-0.24-0.66h0.061l-0.36-0.601v0.061
	l-0.42-0.54l-0.96-0.96l0.06,0.06l-0.54-0.359l-0.6-0.36l-0.601-0.3h0.061l-0.66-0.24l-0.72-0.18h0.06l-0.66-0.12l-0.72-0.061h0.06
	l-0.72,0.061l-0.72,0.12l-0.66,0.18h0.06l-0.66,0.24l-0.66,0.3l-1.08,0.72l0.06-0.06l-0.54,0.479l-0.42,0.48l-0.42,0.54l0.06-0.061
	l-0.36,0.601l-0.3,0.66l-0.24,0.6v-0.06l-0.18,0.72l-0.12,0.66v-0.061v1.5l0.12,0.66v-0.06l0.18,0.72l0.24,0.6l0.3,0.66v-0.06
	l0.36,0.6h-0.06l0.42,0.54l0.42,0.48v-0.061l0.54,0.48H91.5l-0.24,0.42v-0.061l-0.54-0.479h-0.06l-0.42-0.48l-0.42-0.54v-0.06
	l-0.36-0.601l-0.3-0.659l-0.24-0.601l-0.06-0.06c-0.362-1.037-0.42-2.556-0.18-3.601v-0.06l0.18-0.72h0.06l0.24-0.601l0.3-0.66
	v-0.06l0.36-0.6l0.42-0.54l0.42-0.48l0.06-0.06l0.54-0.48l1.08-0.72h0.06l0.66-0.3v-0.061l0.66-0.24l0.66-0.18h0.06l0.72-0.12
	l0.72-0.06h0.06l0.72,0.06l0.66,0.12l0.72,0.18h0.06l0.66,0.24v0.061l0.601,0.3c1.213,0.654,1.796,1.154,2.58,2.28H102l0.36,0.6
	v0.06l0.239,0.66l0.24,0.601l0.18,0.72v0.06l0.12,0.66l0.061,0.78"/>
<path d="M91.5,102.348l1.08,0.72l0.66,0.3v-0.06l0.66,0.239h-0.06l0.66,0.181l0.72,0.12l0.72,0.06h-0.06l0.72-0.06l0.66-0.12H97.2
	l0.72-0.181l0.66-0.239l-0.061,0.06l0.601-0.3l0.6-0.36l0.54-0.359h-0.06l0.96-0.96v0.06l0.42-0.54l0.36-0.6l-0.061,0.06l0.24-0.66
	h0.06l0.24-0.6h-0.06l0.18-0.72v0.06l0.12-0.66l0.06-0.72v0.06l0.48-0.06v0.06c-0.121,5.905-6.51,9.182-11.4,6l-0.54-0.359"/>
<path style="fill-rule:evenodd;clip-rule:evenodd;fill:#FFFFFF;" d="M144.54,97.067v-0.78l-0.12-0.66
	c-1.885-7.972-13.024-7.284-13.979,0.66l-0.061,0.78l0.061,0.72c0.955,7.945,12.095,8.632,13.979,0.66l0.12-0.66V97.067"/>
<polyline points="144.3,97.067 144.3,96.287 144.3,96.348 144.18,95.688 144,94.968 144.06,95.027 143.82,94.428 144.24,94.247 
	144.479,94.848 144.66,95.567 144.66,95.627 144.78,96.287 144.78,97.067 "/>
<polyline points="143.82,94.428 143.52,93.768 143.52,93.827 143.88,93.468 143.94,93.587 144.24,94.247 "/>
<polyline points="143.52,93.827 143.88,93.468 143.76,93.348 143.4,93.707 "/>
<polyline points="140.94,91.127 140.76,91.067 140.7,91.067 140.1,90.768 140.16,90.768 139.5,90.527 138.84,90.348 138.9,90.348 
	138.96,89.867 139.62,90.047 139.68,90.047 140.34,90.287 140.34,90.348 140.94,90.647 140.94,90.587 141.12,90.647 "/>
<polyline points="138.9,90.348 138.18,90.228 138.24,89.747 138.96,89.867 "/>
<polyline points="138.18,90.228 138.24,89.747 137.52,89.688 137.46,90.167 "/>
<polyline points="134.1,91.127 133.68,91.428 133.62,91.428 133.08,91.787 133.14,91.728 132.18,92.688 131.82,92.388 
	131.82,92.327 132.78,91.367 132.84,91.367 133.38,91.007 133.8,90.707 "/>
<polyline points="132.18,92.688 131.76,93.228 131.82,93.167 131.4,92.928 131.82,92.388 "/>
<polyline points="131.82,93.167 131.4,92.928 131.16,93.407 131.58,93.647 "/>
<polyline points="130.62,97.067 130.68,97.787 130.74,98.447 130.74,98.388 130.92,99.107 131.16,99.707 130.74,99.888 
	130.5,99.287 130.44,99.228 130.26,98.507 130.2,97.848 130.14,97.127 130.14,97.067 "/>
<polyline points="131.16,99.707 131.46,100.367 131.46,100.308 131.04,100.547 130.74,99.888 "/>
<polyline points="131.46,100.308 131.04,100.547 131.16,100.728 131.58,100.487 "/>
<polyline points="134.04,102.947 134.22,103.007 134.22,103.067 134.82,103.367 134.82,103.308 135.479,103.547 135.42,103.547 
	136.08,103.728 136.02,104.207 135.96,104.207 135.3,104.027 134.64,103.787 134.58,103.787 133.979,103.487 134.04,103.487 
	133.86,103.428 "/>
<polyline points="136.08,103.728 136.8,103.848 136.74,104.327 136.02,104.207 "/>
<polyline points="136.8,103.848 136.74,104.327 137.46,104.388 137.52,103.907 "/>
<polyline points="140.88,103.007 141.3,102.707 141.84,102.348 142.38,101.867 142.32,101.928 142.74,101.447 143.1,101.747 
	142.68,102.228 142.14,102.707 142.08,102.768 141.54,103.127 141.6,103.127 141.18,103.428 "/>
<polyline points="142.74,101.447 143.16,100.907 143.58,101.147 143.52,101.207 143.1,101.747 "/>
<polyline points="143.16,100.907 143.58,101.147 143.82,100.728 143.4,100.487 "/>
<text transform="matrix(1 0 0 1 135.8398 98.8672)" style="font-family:'ProductusSemibold'; font-size:7.98;">C</text>
<path style="fill-rule:evenodd;clip-rule:evenodd;fill:#FFFFFF;" d="M165.84,9.888l-0.12-0.721l-0.18-0.66
	c-1.469-3.255-5.99-2.714-6.72,0.66l-0.12,0.721l0.12,0.72c0.719,3.391,5.317,3.845,6.72,0.66l0.18-0.66L165.84,9.888"/>
<polyline points="165.6,9.947 165.479,9.228 165.3,8.567 165.36,8.627 165,8.027 165,8.087 164.58,7.547 164.64,7.547 164.94,7.188 
	164.94,7.247 165.36,7.787 165.42,7.787 165.78,8.388 165.78,8.447 165.96,9.107 165.96,9.167 166.08,9.888 "/>
<polyline points="164.64,7.547 164.16,7.127 164.16,7.188 164.4,6.768 164.46,6.768 164.94,7.188 "/>
<polyline points="164.16,7.188 164.4,6.768 164.16,6.647 163.92,7.067 "/>
<polyline points="160.62,7.067 160.38,7.188 160.44,7.127 159.96,7.547 159.54,8.087 159.6,8.027 159.24,8.627 159.24,8.567 
	158.76,8.447 158.82,8.388 159.18,7.787 159.6,7.247 159.66,7.188 160.14,6.768 160.38,6.647 "/>
<polyline points="159.24,8.567 159.06,9.228 158.58,9.167 158.58,9.107 158.76,8.447 "/>
<polyline points="159.06,9.228 158.58,9.167 158.46,9.888 158.94,9.947 "/>
<path d="M160.62,12.768l0.42,0.18v-0.06l0.66,0.239h-0.061l0.721,0.061H162.3l0.66-0.061h-0.06l0.18,0.48h-0.061
	c-0.696,0.102-1.524,0.108-2.159-0.24l-0.42-0.18"/>
<polyline points="162.9,13.127 163.62,12.888 163.56,12.947 163.8,13.367 163.08,13.607 "/>
<polyline points="163.56,12.947 163.8,13.367 164.16,13.188 163.92,12.768 "/>
<text transform="matrix(1 0 0 1 173.04 12.5869)"><tspan x="0" y="0" style="font-family:'ProductusSemibold'; font-size:7.98;">Mo</tspan><tspan x="11.013" y="0" style="font-family:'ProductusSemibold'; font-size:7.98;">u</tspan><tspan x="15.266" y="0" style="font-family:'ProductusSemibold'; font-size:7.98;">n</tspan><tspan x="19.583" y="0" style="font-family:'ProductusSemibold'; font-size:7.98;">t</tspan><tspan x="22.702" y="0" style="font-family:'ProductusSemibold'; font-size:7.98;"> </tspan><tspan x="24.682" y="0" style="font-family:'ProductusSemibold'; font-size:7.98;">po</tspan><tspan x="33.308" y="0" style="font-family:'ProductusSemibold'; font-size:7.98;">i</tspan><tspan x="35.462" y="0" style="font-family:'ProductusSemibold'; font-size:7.98;">n</tspan><tspan x="39.779" y="0" style="font-family:'ProductusSemibold'; font-size:7.98;">t</tspan></text>
<text transform="matrix(1 0 0 1 94.9199 99.0479)" style="font-family:'ProductusSemibold'; font-size:7.98;">E</text>
<path style="fill-rule:evenodd;clip-rule:evenodd;fill:#FFFFFF;" d="M102.06,125.388l-0.06-0.721l-0.12-0.72
	c-1.919-7.903-12.859-7.396-13.98,0.72l-0.06,0.721l0.06,0.72c1.118,8.099,12.065,8.602,13.98,0.72l0.12-0.72L102.06,125.388"/>
<polyline points="101.82,125.447 101.76,124.728 101.64,124.007 101.46,123.348 101.46,123.407 101.22,122.747 101.28,122.747 
	101.7,122.507 101.7,122.567 101.94,123.228 102.12,123.888 102.12,123.947 102.24,124.667 102.3,125.388 "/>
<polyline points="101.28,122.747 100.979,122.147 100.92,122.147 101.4,121.968 101.4,121.907 101.7,122.507 "/>
<polyline points="100.92,122.147 101.4,121.968 101.34,121.787 100.86,121.968 "/>
<polyline points="98.28,119.447 98.16,119.327 98.28,119.388 97.62,119.087 97.02,118.848 96.3,118.667 96.36,118.667 
	96.42,118.188 97.14,118.367 97.2,118.428 97.8,118.667 98.46,118.968 98.52,118.968 98.64,119.087 "/>
<polyline points="96.36,118.667 95.7,118.547 95.7,118.067 95.76,118.067 96.42,118.188 "/>
<rect x="94.92" y="118.067" width="0.78" height="0.479"/>
<polyline points="91.5,119.507 91.08,119.747 91.14,119.688 90.6,120.107 90.12,120.527 89.64,121.067 89.28,120.768 89.76,120.228 
	89.82,120.167 90.3,119.747 90.84,119.327 91.26,119.087 "/>
<polyline points="89.64,121.067 89.22,121.607 89.28,121.547 88.86,121.308 89.28,120.768 "/>
<polyline points="89.28,121.547 88.86,121.308 88.62,121.728 89.04,121.968 "/>
<polyline points="88.08,125.388 88.14,126.107 88.26,126.827 88.26,126.768 88.44,127.428 88.68,128.087 88.68,128.027 
	88.26,128.268 88.2,128.268 87.96,127.607 87.96,127.547 87.78,126.888 87.66,126.167 87.6,125.447 87.6,125.388 "/>
<polyline points="88.68,128.027 88.98,128.627 88.98,128.688 88.5,128.867 88.56,128.867 88.26,128.268 "/>
<polyline points="88.98,128.688 88.5,128.867 88.56,129.047 89.04,128.867 "/>
<polyline points="91.5,131.327 91.68,131.447 92.28,131.747 92.28,131.688 92.94,131.928 92.88,131.928 93.6,132.107 93.54,132.587 
	93.48,132.587 92.76,132.407 92.1,132.167 92.04,132.167 91.44,131.867 91.26,131.747 "/>
<polyline points="93.6,132.107 94.26,132.167 94.2,132.647 93.54,132.587 "/>
<polyline points="94.26,132.167 94.2,132.647 94.92,132.707 94.98,132.228 "/>
<polyline points="98.34,131.327 98.76,131.087 99.36,130.667 99.3,130.667 100.26,129.707 100.26,129.768 100.68,130.007 
	99.66,131.027 99.66,131.087 99.06,131.507 99,131.507 98.58,131.747 "/>
<polyline points="100.26,129.768 100.62,129.228 101.04,129.527 101.04,129.468 100.68,130.007 "/>
<polyline points="100.62,129.228 101.04,129.527 101.34,129.107 100.92,128.808 "/>
<text transform="matrix(1 0 0 1 94.2598 127.9668)" style="font-family:'ProductusSemibold'; font-size:7.98;">F</text>
</svg>
