<?xml version="1.0" encoding="utf-8"?>
<!-- Generator: Adobe Illustrator 16.0.0, SVG Export Plug-In . SVG Version: 6.00 Build 0)  -->
<!DOCTYPE svg PUBLIC "-//W3C//DTD SVG 1.1//EN" "http://www.w3.org/Graphics/SVG/1.1/DTD/svg11.dtd">
<svg version="1.1" id="Layer_1" xmlns="http://www.w3.org/2000/svg" xmlns:xlink="http://www.w3.org/1999/xlink" x="0px" y="0px"
	 width="229.079px" height="138.525px" viewBox="0 0 229.079 138.525" style="enable-background:new 0 0 229.079 138.525;"
	 xml:space="preserve">
<rect x="83.04" y="47.387" width="54.36" height="27"/>
<rect x="83.04" y="47.147" width="54.601" height="0.48"/>
<rect x="137.16" y="47.387" width="0.48" height="27.24"/>
<rect x="82.8" y="74.147" width="54.6" height="0.48"/>
<rect x="82.8" y="47.147" width="0.48" height="27.24"/>
<rect x="80.7" y="45.587" style="fill:#FFFFFF;" width="54.36" height="27"/>
<rect x="80.7" y="45.347" width="54.6" height="0.48"/>
<rect x="134.82" y="45.587" width="0.479" height="27.24"/>
<rect x="80.46" y="72.347" width="54.601" height="0.48"/>
<rect x="80.46" y="45.347" width="0.48" height="27.24"/>
<text transform="matrix(1 0 0 1 83.04 52.7271)"><tspan x="0" y="0" style="font-family:'ProductusOSGiBookc'; font-size:7.98;">DMT</tspan><tspan x="14.516" y="0" style="font-family:'ProductusOSGiBookc'; font-size:7.98;"> </tspan><tspan x="16.136" y="0" style="font-family:'ProductusOSGiBookc'; font-size:7.98;">A</tspan><tspan x="20.037" y="0" style="font-family:'ProductusOSGiBookc'; font-size:7.98;">d</tspan><tspan x="23.7" y="0" style="font-family:'ProductusOSGiBookc'; font-size:7.98;">m</tspan><tspan x="29.406" y="0" style="font-family:'ProductusOSGiBookc'; font-size:7.98;">i</tspan><tspan x="30.962" y="0" style="font-family:'ProductusOSGiBookc'; font-size:7.98;">n</tspan><tspan x="34.608" y="0" style="font-family:'ProductusOSGiBookc'; font-size:7.98;"> </tspan><tspan x="36.229" y="0" style="font-family:'ProductusOSGiBookc'; font-size:7.98;">I</tspan><tspan x="37.736" y="0" style="font-family:'ProductusOSGiBookc'; font-size:7.98;">m</tspan><tspan x="43.49" y="0" style="font-family:'ProductusOSGiBookc'; font-size:7.98;">pl</tspan></text>
<polyline points="52.26,60.047 38.04,52.907 37.92,52.667 38.4,52.667 38.4,66.887 38.28,67.127 37.92,67.307 37.92,52.307 
	38.28,52.487 52.5,59.627 "/>
<polyline points="38.04,66.707 52.26,59.627 52.5,59.627 52.98,59.867 52.5,60.047 38.28,67.127 "/>
<text transform="matrix(1 0 0 1 0 60.8872)"><tspan x="0" y="0" style="font-family:'ProductusSemibold'; font-size:7.98;">Dmt</tspan><tspan x="14.858" y="0" style="font-family:'ProductusSemibold'; font-size:7.98;">A</tspan><tspan x="19.71" y="0" style="font-family:'ProductusSemibold'; font-size:7.98;">dm</tspan><tspan x="30.396" y="0" style="font-family:'ProductusSemibold'; font-size:7.98;">i</tspan><tspan x="32.614" y="0" style="font-family:'ProductusSemibold'; font-size:7.98;">n</tspan></text>
<text transform="matrix(1 0 0 1 71.1602 125.6274)"><tspan x="0" y="0" style="font-family:'ProductusSemibold'; font-size:7.98;">N</tspan><tspan x="5.307" y="0" style="font-family:'ProductusSemibold'; font-size:7.98;">o</tspan><tspan x="9.68" y="0" style="font-family:'ProductusSemibold'; font-size:7.98;">ti</tspan><tspan x="14.954" y="0" style="font-family:'ProductusSemibold'; font-size:7.98;">f</tspan><tspan x="17.588" y="0" style="font-family:'ProductusSemibold'; font-size:7.98;">i</tspan><tspan x="19.742" y="0" style="font-family:'ProductusSemibold'; font-size:7.98;">cat</tspan><tspan x="30.442" y="0" style="font-family:'ProductusSemibold'; font-size:7.98;">i</tspan><tspan x="32.661" y="0" style="font-family:'ProductusSemibold'; font-size:7.98;">o</tspan><tspan x="36.979" y="0" style="font-family:'ProductusSemibold'; font-size:7.98;">n</tspan></text>
<text transform="matrix(1 0 0 1 71.1602 135.3472)"><tspan x="0" y="0" style="font-family:'ProductusSemibold'; font-size:7.98;">Servic</tspan><tspan x="21.227" y="0" style="font-family:'ProductusSemibold'; font-size:7.98;">e</tspan></text>
<polyline points="95.101,3.167 88.021,17.327 87.78,17.447 87.78,16.967 101.94,16.967 102.18,17.087 102.36,17.447 87.42,17.447 
	94.68,2.927 "/>
<polyline points="101.76,17.327 94.68,3.167 94.68,2.927 94.92,2.507 95.101,2.927 102.18,17.087 "/>
<rect x="94.62" y="17.027" width="0.48" height="0.24"/>
<rect x="94.62" y="17.267" width="0.48" height="28.56"/>
<polyline points="130.5,3.167 123.42,17.327 123.18,17.447 123.18,16.967 137.4,16.967 137.641,17.087 137.82,17.447 122.82,17.447 
	130.08,2.927 "/>
<polyline points="137.22,17.327 130.08,3.167 130.08,2.927 130.32,2.507 130.5,2.927 137.641,17.087 "/>
<rect x="130.08" y="17.027" width="0.48" height="0.24"/>
<rect x="130.08" y="17.267" width="0.48" height="28.56"/>
<text transform="matrix(1 0 0 1 143.2803 7.667)"><tspan x="0" y="0" style="font-family:'ProductusSemibold'; font-size:7.98;">Data</tspan><tspan x="16.431" y="0" style="font-family:'ProductusSemibold'; font-size:7.98;"> </tspan></text>
<text transform="matrix(1 0 0 1 143.2803 17.4473)"><tspan x="0" y="0" style="font-family:'ProductusSemibold'; font-size:7.98;">P</tspan><tspan x="4.142" y="0" style="font-family:'ProductusSemibold'; font-size:7.98;">l</tspan><tspan x="6.359" y="0" style="font-family:'ProductusSemibold'; font-size:7.98;">ugi</tspan><tspan x="16.773" y="0" style="font-family:'ProductusSemibold'; font-size:7.98;">n</tspan></text>
<text transform="matrix(1 0 0 1 65.1001 6.6475)"><tspan x="0" y="0" style="font-family:'ProductusSemibold'; font-size:7.98;">E</tspan><tspan x="3.91" y="0" style="font-family:'ProductusSemibold'; font-size:7.98;">x</tspan><tspan x="7.749" y="0" style="font-family:'ProductusSemibold'; font-size:7.98;">ec</tspan><tspan x="15.513" y="0" style="font-family:'ProductusSemibold'; font-size:7.98;"> </tspan></text>
<text transform="matrix(1 0 0 1 61.5601 16.4277)"><tspan x="0" y="0" style="font-family:'ProductusSemibold'; font-size:7.98;">P</tspan><tspan x="4.197" y="0" style="font-family:'ProductusSemibold'; font-size:7.98;">lu</tspan><tspan x="10.605" y="0" style="font-family:'ProductusSemibold'; font-size:7.98;">g</tspan><tspan x="14.619" y="0" style="font-family:'ProductusSemibold'; font-size:7.98;">i</tspan><tspan x="16.829" y="0" style="font-family:'ProductusSemibold'; font-size:7.98;">n</tspan></text>
<polyline points="179.82,45.827 165.601,38.747 165.48,38.507 165.96,38.507 165.96,52.667 165.84,52.907 165.48,53.087 
	165.48,38.147 165.84,38.327 180.061,45.407 "/>
<polyline points="165.601,52.487 179.82,45.407 180.061,45.407 180.54,45.647 180.061,45.827 165.84,52.907 "/>
<text transform="matrix(1 0 0 1 185.7002 42.5874)"><tspan x="0" y="0" style="font-family:'ProductusSemibold'; font-size:7.98;">R</tspan><tspan x="4.253" y="0" style="font-family:'ProductusSemibold'; font-size:7.98;">emote</tspan><tspan x="26.35" y="0" style="font-family:'ProductusSemibold'; font-size:7.98;">A</tspan><tspan x="31.353" y="0" style="font-family:'ProductusSemibold'; font-size:7.98;">ler</tspan><tspan x="40.657" y="0" style="font-family:'ProductusSemibold'; font-size:7.98;">t</tspan></text>
<text transform="matrix(1 0 0 1 185.7002 52.3066)"><tspan x="0" y="0" style="font-family:'ProductusSemibold'; font-size:7.98;">Sende</tspan><tspan x="21.099" y="0" style="font-family:'ProductusSemibold'; font-size:7.98;">r</tspan></text>
<text transform="matrix(1 0 0 1 119.1602 126.1069)"><tspan x="0" y="0" style="font-family:'ProductusOSGiBookc'; font-size:7.98;">E</tspan><tspan x="3.392" y="0" style="font-family:'ProductusOSGiBookc'; font-size:7.98;">v</tspan><tspan x="6.392" y="0" style="font-family:'ProductusOSGiBookc'; font-size:7.98;">ent</tspan><tspan x="15.864" y="0" style="font-family:'ProductusOSGiBookc'; font-size:7.98;"> </tspan><tspan x="17.428" y="0" style="font-family:'ProductusOSGiBookc'; font-size:7.98;">Hand</tspan><tspan x="32.877" y="0" style="font-family:'ProductusOSGiBookc'; font-size:7.98;">l</tspan><tspan x="34.385" y="0" style="font-family:'ProductusOSGiBookc'; font-size:7.98;">er</tspan><tspan x="40.091" y="0" style="font-family:'ProductusOSGiBookc'; font-size:7.98;"> </tspan></text>
<polyline points="95.101,102.407 88.021,116.567 87.78,116.687 87.78,116.207 101.94,116.207 102.18,116.327 102.36,116.687 
	87.42,116.687 94.68,102.167 "/>
<polyline points="101.76,116.567 94.68,102.407 94.68,102.167 94.92,101.747 95.101,102.167 102.18,116.327 "/>
<polyline points="126.42,102.347 119.34,116.567 119.101,116.687 119.101,116.207 133.26,116.207 133.5,116.327 133.68,116.687 
	118.74,116.687 118.92,116.327 126,102.107 "/>
<polyline points="133.08,116.567 126,102.347 126,102.107 126.18,101.687 126.42,102.107 133.5,116.327 "/>
<rect x="94.62" y="73.727" width="0.48" height="0.24"/>
<rect x="94.62" y="73.967" width="0.48" height="28.56"/>
<rect x="126" y="73.667" width="0.48" height="0.24"/>
<rect x="126" y="73.907" width="0.48" height="28.62"/>
<rect x="52.14" y="59.507" width="0.24" height="0.48"/>
<rect x="52.38" y="59.507" width="28.56" height="0.48"/>
<text transform="matrix(1 0 0 1 119.1602 136.187)"><tspan x="0" y="0" style="font-family:'ProductusOSGiBookc'; font-size:7.98;">(E</tspan><tspan x="5.666" y="0" style="font-family:'ProductusOSGiBookc'; font-size:7.98;">v</tspan><tspan x="8.666" y="0" style="font-family:'ProductusOSGiBookc'; font-size:7.98;">e</tspan><tspan x="12.146" y="0" style="font-family:'ProductusOSGiBookc'; font-size:7.98;">nt</tspan><tspan x="18.122" y="0" style="font-family:'ProductusOSGiBookc'; font-size:7.98;"> </tspan><tspan x="19.687" y="0" style="font-family:'ProductusOSGiBookc'; font-size:7.98;">A</tspan><tspan x="23.589" y="0" style="font-family:'ProductusOSGiBookc'; font-size:7.98;">d</tspan><tspan x="27.251" y="0" style="font-family:'ProductusOSGiBookc'; font-size:7.98;">m</tspan><tspan x="33.005" y="0" style="font-family:'ProductusOSGiBookc'; font-size:7.98;">i</tspan><tspan x="34.561" y="0" style="font-family:'ProductusOSGiBookc'; font-size:7.98;">n</tspan><tspan x="37.928" y="0" style="font-family:'ProductusOSGiBookc'; font-size:7.98;">)</tspan></text>
<rect x="137.16" y="52.427" width="14.64" height="0.48"/>
<rect x="151.32" y="45.347" width="0.479" height="7.32"/>
<rect x="151.561" y="45.347" width="14.399" height="0.48"/>
<polyline points="179.82,74.207 165.601,67.127 165.48,66.887 165.96,66.887 165.96,81.047 165.84,81.287 165.48,81.467 
	165.48,66.527 165.84,66.707 180.061,73.787 "/>
<polyline points="165.601,80.867 179.82,73.787 180.061,73.787 180.54,74.027 180.061,74.207 165.84,81.287 "/>
<rect x="137.16" y="66.647" width="14.64" height="0.48"/>
<rect x="151.32" y="66.887" width="0.479" height="7.32"/>
<rect x="151.561" y="73.727" width="14.399" height="0.48"/>
<text transform="matrix(1 0 0 1 187.0205 68.9272)"><tspan x="0" y="0" style="font-family:'ProductusSemibold'; font-size:7.98;">Dmt</tspan><tspan x="14.858" y="0" style="font-family:'ProductusSemibold'; font-size:7.98;"> </tspan><tspan x="16.894" y="0" style="font-family:'ProductusSemibold'; font-size:7.98;">E</tspan><tspan x="20.731" y="0" style="font-family:'ProductusSemibold'; font-size:7.98;">v</tspan><tspan x="24.626" y="0" style="font-family:'ProductusSemibold'; font-size:7.98;">en</tspan><tspan x="33.021" y="0" style="font-family:'ProductusSemibold'; font-size:7.98;">t</tspan></text>
<text transform="matrix(1 0 0 1 187.0205 78.647)"><tspan x="0" y="0" style="font-family:'ProductusSemibold'; font-size:7.98;">Li</tspan><tspan x="5.873" y="0" style="font-family:'ProductusSemibold'; font-size:7.98;">s</tspan><tspan x="9.169" y="0" style="font-family:'ProductusSemibold'; font-size:7.98;">t</tspan><tspan x="12.289" y="0" style="font-family:'ProductusSemibold'; font-size:7.98;">ene</tspan><tspan x="24.881" y="0" style="font-family:'ProductusSemibold'; font-size:7.98;">r</tspan></text>
</svg>
