<?xml version="1.0" encoding="utf-8"?>
<!-- Generator: Adobe Illustrator 16.0.0, SVG Export Plug-In . SVG Version: 6.00 Build 0)  -->
<!DOCTYPE svg PUBLIC "-//W3C//DTD SVG 1.1//EN" "http://www.w3.org/Graphics/SVG/1.1/DTD/svg11.dtd">
<svg version="1.1" id="Layer_1" xmlns="http://www.w3.org/2000/svg" xmlns:xlink="http://www.w3.org/1999/xlink" x="0px" y="0px"
	 width="330.479px" height="149.081px" viewBox="0 0 330.479 149.081" style="enable-background:new 0 0 330.479 149.081;"
	 xml:space="preserve">
<rect x="205.501" y="85.054" width="0.48" height="0.24"/>
<rect x="205.501" y="85.294" width="0.48" height="28.62"/>
<polyline points="120.901,63.934 120.782,63.754 120.421,64.054 120.542,64.234 "/>
<polyline points="142.142,92.254 142.262,92.434 141.901,92.734 141.782,92.554 "/>
<polyline points="120.901,63.934 120.542,64.234 141.782,92.554 142.142,92.254 "/>
<path style="fill-rule:evenodd;clip-rule:evenodd;fill:#FFFFFF;" d="M149.042,92.374v-0.72l-0.12-0.72
	c-1.956-7.917-12.932-7.325-13.98,0.72l-0.06,0.72l0.06,0.72c1.028,8.078,12.076,8.625,13.98,0.72l0.12-0.72V92.374"/>
<path d="M148.802,92.374v-0.72v0.06l-0.12-0.72l-0.18-0.66v0.06l-0.24-0.66h0.06l-0.3-0.6l-0.36-0.6v0.06l-0.42-0.54l-0.42-0.48
	h0.06l-0.54-0.48l-0.54-0.42v0.06l-0.54-0.36h0.06l-0.66-0.3l-0.66-0.24l-0.66-0.18h0.06l-1.44-0.12h0.06l-0.72,0.06l-0.66,0.06
	l-0.72,0.18h0.06l-0.66,0.24l-0.6,0.3l-0.6,0.36l0.06-0.06l-0.54,0.42l-0.96,0.96l-0.42,0.54l0.06-0.06l-0.36,0.6l-0.3,0.6v-0.06
	l-0.36,1.32l-0.12,0.72l-0.06,0.72v-0.06l0.06,0.72l0.12,0.72v-0.06l0.36,1.32v-0.06l0.3,0.6l0.36,0.6h-0.06l0.42,0.54l0.48,0.54
	v-0.06l0.48,0.42l-0.3,0.36l-0.48-0.42h-0.06l-0.48-0.54c-0.463-0.559-1.218-1.805-1.32-2.52l-0.18-0.66l-0.12-0.72
	c-0.198-1.22,0.147-2.439,0.48-3.6l0.06-0.06l0.3-0.6l0.36-0.6c1.867-2.714,5.016-3.832,8.22-2.94h0.06l0.66,0.24v0.06l0.66,0.3
	c1.218,0.72,1.685,1.206,2.52,2.34h0.06l0.36,0.6c0.445,0.809,0.738,1.839,0.84,2.76v0.72"/>
<path d="M137.642,97.654l0.54,0.42h-0.06l0.6,0.36l0.6,0.3v-0.06l0.66,0.24h-0.06l0.72,0.18l0.66,0.12h-0.06h1.44l0.72-0.12h-0.06
	l0.66-0.18l0.66-0.24v0.06l0.66-0.3h-0.06l0.54-0.36l1.08-0.84l-0.06,0.06l0.84-1.08l0.36-0.6l0.3-0.6l-0.06,0.06l0.24-0.66
	l0.18-0.66v0.06l0.12-0.72v-0.72h0.48v0.72c-0.583,5.26-6.089,8.198-10.8,5.76l-0.6-0.36v-0.06l-0.54-0.42"/>
<polyline points="35.881,63.934 35.762,63.754 35.401,64.054 35.521,64.234 "/>
<polyline points="36.901,65.313 37.021,65.494 36.662,65.794 36.542,65.614 "/>
<polyline points="35.881,63.934 35.521,64.234 36.542,65.614 36.901,65.313 "/>
<polyline style="fill-rule:evenodd;clip-rule:evenodd;" points="39.961,69.334 39.841,69.154 39.481,69.454 39.602,69.634 "/>
<polyline style="fill-rule:evenodd;clip-rule:evenodd;" points="42.302,72.514 42.421,72.694 42.062,72.994 41.941,72.814 "/>
<polyline style="fill-rule:evenodd;clip-rule:evenodd;" points="39.961,69.334 39.602,69.634 41.941,72.814 42.302,72.514 "/>
<polyline style="fill-rule:evenodd;clip-rule:evenodd;" points="45.302,76.534 45.182,76.354 44.822,76.654 44.941,76.834 "/>
<polyline style="fill-rule:evenodd;clip-rule:evenodd;" points="47.642,79.654 47.762,79.834 47.401,80.134 47.282,79.954 "/>
<polyline style="fill-rule:evenodd;clip-rule:evenodd;" points="45.302,76.534 44.941,76.834 47.282,79.954 47.642,79.654 "/>
<polyline style="fill-rule:evenodd;clip-rule:evenodd;" points="50.702,83.674 50.582,83.494 50.222,83.794 50.341,83.974 "/>
<polyline style="fill-rule:evenodd;clip-rule:evenodd;" points="53.042,86.854 53.162,87.034 52.802,87.334 52.682,87.154 "/>
<polyline style="fill-rule:evenodd;clip-rule:evenodd;" points="50.702,83.674 50.341,83.974 52.682,87.154 53.042,86.854 "/>
<polyline points="56.042,90.874 55.921,90.694 55.562,90.994 55.682,91.174 "/>
<polyline points="57.122,92.254 57.242,92.434 56.881,92.734 56.762,92.554 "/>
<polyline points="56.042,90.874 55.682,91.174 56.762,92.554 57.122,92.254 "/>
<polyline points="35.881,64.234 36.001,64.054 35.642,63.754 35.521,63.934 "/>
<polyline points="14.582,92.554 14.461,92.734 14.102,92.434 14.222,92.254 "/>
<polyline points="35.881,64.234 35.521,63.934 14.222,92.254 14.582,92.554 "/>
<rect x="35.461" y="35.434" width="0.48" height="0.24"/>
<rect x="35.461" y="35.674" width="0.48" height="28.62"/>
<polyline points="7.501,7.174 7.322,6.994 6.961,7.354 7.142,7.534 "/>
<polyline points="35.881,35.494 36.062,35.674 35.702,36.034 35.521,35.854 "/>
<polyline points="7.501,7.174 7.142,7.534 35.521,35.854 35.881,35.494 "/>
<path style="fill-rule:evenodd;clip-rule:evenodd;fill:#808080;" d="M14.401,7.354v-0.72l-0.12-0.72
	c-1.84-7.895-13.043-7.331-13.98,0.72l-0.06,0.72l0.06,0.72c0.998,8.042,12.062,8.621,13.98,0.72l0.12-0.72V7.354"/>
<path d="M14.162,7.354v-0.72v0.06l-0.12-0.72l-0.18-0.66v0.06l-0.24-0.66h0.06l-0.3-0.6l-0.36-0.6v0.06l-0.84-1.08h0.06l-1.08-0.84
	v0.06l-0.6-0.36l-0.6-0.3h0.06l-0.66-0.24l-0.66-0.18h0.06l-0.72-0.12h-1.44h0.06l-0.72,0.12l-0.66,0.18h0.06l-0.66,0.24l-0.6,0.3
	l-0.6,0.36l0.06-0.06l-0.54,0.42l-0.48,0.42l-0.48,0.54l-0.42,0.54l0.06-0.06l-0.36,0.6l-0.3,0.6l-0.24,0.66v-0.06l-0.18,0.66
	l-0.06,0.72l-0.06,0.72v-0.06l0.06,0.72l0.06,0.72v-0.06l0.18,0.66l0.24,0.66v-0.06l0.3,0.6l0.36,0.6h-0.06l0.42,0.54v-0.06
	l0.96,0.96l-0.3,0.36h-0.06l-0.96-0.96l-0.42-0.54v-0.06l-0.36-0.6l-0.3-0.6h-0.06l-0.24-0.66v-0.06
	c-0.66-2.336-0.252-4.931,1.38-6.78l0.48-0.54l0.06-0.06c1.866-1.871,4.733-2.629,7.26-1.8h0.06l0.66,0.24v0.06l0.6,0.3
	c1.385,0.769,1.676,1.067,2.58,2.34h0.06l0.36,0.6c0.445,0.809,0.738,1.839,0.84,2.76v0.72"/>
<path d="M3.001,12.634l0.54,0.42h-0.06l0.6,0.36l0.6,0.3v-0.06l0.66,0.24h-0.06l0.66,0.18l1.44,0.12h-0.06l1.44-0.12h-0.06
	l0.66-0.18l0.66-0.24l-0.06,0.06l0.6-0.3l0.6-0.36l0.54-0.42l0.54-0.48l-0.06,0.06l0.42-0.48l0.42-0.54l0.36-0.6l0.3-0.6l-0.06,0.06
	l0.24-0.66l0.18-0.66v0.06l0.12-0.72v-0.72h0.48v0.72c-0.587,5.267-6.09,8.158-10.8,5.76l-0.6-0.36v-0.06l-0.54-0.42"/>
<path style="fill-rule:evenodd;clip-rule:evenodd;" d="M42.782,35.674l-0.06-0.72l-0.12-0.72c-1.844-7.864-12.864-7.359-13.98,0.72
	l-0.06,0.72l0.06,0.72c1.089,8.063,12.112,8.66,13.98,0.72l0.12-0.72L42.782,35.674"/>
<path d="M42.542,35.734l-0.06-0.72l-0.12-0.72l-0.18-0.66v0.06l-0.24-0.66h0.06l-0.6-1.2v0.06l-0.42-0.54l-0.96-0.96h0.06
	l-0.54-0.42v0.06l-0.6-0.36l-0.6-0.3h0.06l-0.66-0.24h0.06l-0.72-0.12l-0.66-0.12l-0.72-0.06h0.06l-0.72,0.06l-1.44,0.24h0.06
	l-0.6,0.24l-0.66,0.3l-0.54,0.36h0.06l-0.6,0.42v-0.06l-0.96,0.96l0.06-0.06l-0.36,0.54l-0.36,0.6l-0.3,0.6l-0.24,0.66v-0.06
	l-0.18,0.66l-0.12,0.72l-0.06,0.72v-0.06l0.06,0.72l0.12,0.72v-0.06l0.18,0.66l0.24,0.66l0.3,0.66v-0.06l0.72,1.08h-0.06l0.48,0.54
	v-0.06l0.48,0.42l-0.3,0.42v-0.06c-0.999-0.737-1.053-1.097-1.74-2.1l-0.3-0.66h-0.06l-0.24-0.66v-0.06l-0.18-0.66
	c-0.237-1.211-0.237-1.729,0-2.94v-0.06l0.18-0.66c0.259-0.842,0.827-1.736,1.32-2.46v-0.06l0.96-0.96h0.06
	c1.027-0.761,1.272-0.865,2.46-1.32l0.06-0.06l0.72-0.12c1.156-0.223,1.726-0.252,2.88,0l0.72,0.12h0.06l0.66,0.24v0.06l0.6,0.3
	c1.022,0.48,1.955,1.418,2.58,2.34h0.06l0.3,0.6c0.445,0.809,0.738,1.839,0.84,2.76l0.06,0.72"/>
<path d="M31.322,40.954l0.6,0.42h-0.06l0.54,0.36l0.66,0.3l0.6,0.24l-0.06-0.06l0.72,0.18l0.72,0.12h-0.06h1.44l0.66-0.12h-0.06
	l0.72-0.18l0.66-0.24l-0.06,0.06l0.6-0.3l0.6-0.36l0.54-0.42l0.48-0.42l-0.06,0.06l0.48-0.54l0.42-0.54l0.3-0.54v0.06l0.3-0.66
	h-0.06l0.24-0.66l0.18-0.66v0.06l0.12-0.72l0.06-0.72v0.06l0.48-0.06v0.06c-0.143,5.913-6.463,9.25-11.4,6.06l-0.6-0.42"/>
<text transform="matrix(1 0 0 1 7.3218 7.8936)" style="font-family:'ProductusSemibold'; font-size:7.98;">.</text>
<path style="fill-rule:evenodd;clip-rule:evenodd;fill:#FFFFFF;" d="M42.782,64.054l-0.06-0.72l-0.12-0.72
	c-1.868-7.94-12.891-7.343-13.98,0.72l-0.06,0.72l0.06,0.72c1.116,8.079,12.136,8.584,13.98,0.72l0.12-0.72L42.782,64.054"/>
<path d="M42.542,64.114l-0.06-0.72l-0.12-0.72l-0.18-0.66v0.06l-0.24-0.66h0.06l-0.3-0.66l-0.3-0.54v0.06l-0.42-0.54l-0.48-0.54
	h0.06l-0.48-0.42l-0.54-0.42v0.06l-0.6-0.36l-0.6-0.3h0.06l-0.66-0.24l-0.72-0.18h0.06l-0.66-0.12h-1.44h0.06l-0.72,0.12l-0.72,0.18
	h0.06l-0.6,0.24l-0.66,0.3l-0.54,0.36h0.06l-0.6,0.42v-0.06l-0.48,0.42l-0.48,0.54l0.06-0.06l-0.72,1.08l-0.3,0.66l-0.24,0.66v-0.06
	l-0.18,0.66l-0.12,0.72l-0.06,0.72v-0.06l0.06,0.72l0.12,0.72v-0.06l0.18,0.66l0.24,0.66v-0.06l0.3,0.6l0.36,0.6l0.36,0.54
	l-0.06-0.06l0.96,0.96l-0.3,0.42l-0.06-0.06c-1.03-0.994-0.958-0.931-1.68-2.16l-0.3-0.6h-0.06l-0.24-0.66v-0.06l-0.18-0.66
	l-0.12-0.72l-0.06-0.72v-0.06l0.06-0.72l0.12-0.72v-0.06l0.18-0.66l0.24-0.66h0.06l0.3-0.66v-0.06l0.72-1.08l0.48-0.54l0.06-0.06
	l0.48-0.42l0.6-0.42l0.54-0.36h0.06l0.66-0.3l0.6-0.24v-0.06l0.72-0.18h0.06l0.72-0.12h1.5l0.66,0.12l0.72,0.18h0.06l0.66,0.24v0.06
	l0.6,0.3c1.226,0.624,1.766,1.253,2.58,2.34h0.06l0.3,0.54v0.06l0.3,0.66l0.24,0.66l0.18,0.66v0.06l0.12,0.72l0.06,0.72"/>
<path d="M31.322,69.334l0.6,0.42h-0.06l0.54,0.36l0.66,0.3l0.6,0.24l-0.06-0.06l1.44,0.24l0.72,0.06h-0.06l0.72-0.06l0.66-0.12
	l0.72-0.12h-0.06l0.66-0.24l-0.06,0.06l0.6-0.3l0.6-0.36l0.54-0.42h-0.06l0.96-0.96v0.06l0.42-0.54l0.6-1.2l-0.06,0.06l0.24-0.66
	l0.18-0.66v0.06l0.12-0.72l0.06-0.72v0.06l0.48-0.06v0.06c-0.159,5.941-6.441,9.173-11.4,6.06l-0.6-0.42"/>
<text transform="matrix(1 0 0 1 33.4814 65.8535)" style="font-family:'ProductusSemibold'; font-size:7.98;">B</text>
<text transform="matrix(1 0 0 1 7.3213 7.8936)" style="font-family:'ProductusSemibold'; font-size:7.98;">.</text>
<text transform="matrix(1 0 0 1 34.2612 38.2534)" style="font-family:'ProductusSemibold'; font-size:7.98;">A</text>
<text transform="matrix(1 0 0 1 44.8809 66.0332)"><tspan x="0" y="0" style="font-family:'ProductusSemibold'; font-size:7.98;">P</tspan><tspan x="4.197" y="0" style="font-family:'ProductusSemibold'; font-size:7.98;">1</tspan></text>
<path style="fill-rule:evenodd;clip-rule:evenodd;fill:#808080;" d="M22.441,92.374l-0.06-0.72l-0.12-0.72
	c-1.91-7.878-12.829-7.392-13.98,0.72l-0.06,0.72l0.06,0.72c1.133,8.094,12.048,8.65,13.98,0.72l0.12-0.72L22.441,92.374"/>
<path d="M22.202,92.434l-0.06-0.72l-0.12-0.72l-0.18-0.66v0.06l-0.24-0.66h0.06l-0.3-0.6l-0.36-0.6l-0.36-0.54v0.06l-0.96-0.96h0.06
	l-0.54-0.42v0.06l-0.6-0.36h0.06l-0.66-0.3l-0.6-0.24l-0.72-0.18h0.06l-0.66-0.06l-0.78-0.06h0.06l-0.72,0.06l-0.66,0.06l-0.72,0.18
	h0.06l-0.66,0.24l-0.6,0.3l-0.6,0.36l0.06-0.06l-0.54,0.42l-0.96,0.96l0.06-0.06l-0.36,0.54l-0.36,0.6l-0.3,0.6l-0.24,0.66v-0.06
	l-0.18,0.66l-0.12,0.72l-0.06,0.72v-0.06l0.06,0.72l0.12,0.72v-0.06l0.18,0.66l0.24,0.66v-0.06l0.3,0.6l0.36,0.6l0.36,0.54h-0.06
	l0.48,0.54v-0.06l0.48,0.42l-0.3,0.36l-0.48-0.42h-0.06l-0.48-0.54v-0.06l-0.36-0.54l-0.36-0.6l-0.3-0.6h-0.06l-0.24-0.66v-0.06
	c-1.282-3.728,1.107-8.051,4.8-9.18l0.72-0.18h0.06l0.66-0.06c1.869-0.219,3.287,0.215,4.86,1.2h0.06l0.54,0.42
	c1.348,1.171,2.049,2.413,2.46,4.14v0.06l0.12,0.72l0.06,0.72"/>
<path d="M10.981,97.654l0.54,0.42h-0.06l0.6,0.36l0.6,0.3v-0.06l0.66,0.24h-0.06l0.72,0.18l0.66,0.12h-0.06h1.5l0.66-0.12h-0.06
	l0.72-0.18v0.06l0.6-0.24l0.66-0.3h-0.06l0.6-0.36l0.54-0.42l0.48-0.42l-0.06,0.06l0.48-0.54l0.36-0.54l0.36-0.6l0.3-0.6l-0.06,0.06
	l0.24-0.66l0.18-0.66v0.06l0.12-0.72l0.06-0.72v0.06l0.48-0.06v0.06c-0.212,5.679-5.839,8.958-10.86,6.42l-0.6-0.36v-0.06
	l-0.54-0.42"/>
<path style="fill-rule:evenodd;clip-rule:evenodd;fill:#FFFFFF;" d="M64.021,92.374l-0.12-1.44
	c-2.015-7.911-12.853-7.337-14.04,0.72v1.44c1.19,8.071,12.019,8.655,14.04,0.72L64.021,92.374"/>
<polyline points="63.782,92.434 63.662,90.994 63.481,90.334 63.481,90.394 63.242,89.734 63.302,89.734 63.722,89.494 
	63.722,89.554 63.961,90.214 64.142,90.874 64.142,90.934 64.202,91.654 64.262,92.374 "/>
<polyline points="63.302,89.734 63.001,89.134 63.421,88.894 63.722,89.494 "/>
<polyline points="63.001,89.134 63.421,88.894 63.302,88.714 62.881,88.954 "/>
<polyline points="60.361,86.494 60.182,86.374 59.582,86.074 59.642,86.074 58.981,85.834 58.322,85.654 58.381,85.654 
	58.441,85.174 59.102,85.354 59.162,85.354 59.822,85.594 59.822,85.654 60.421,85.954 60.602,86.074 "/>
<polyline points="58.381,85.654 57.662,85.594 57.722,85.114 58.441,85.174 "/>
<polyline points="57.662,85.594 57.722,85.114 57.001,85.054 56.941,85.534 "/>
<polyline points="53.521,86.494 53.102,86.734 53.162,86.674 52.622,87.094 52.082,87.574 51.662,88.054 51.302,87.754 
	51.722,87.274 51.782,87.214 52.322,86.734 52.861,86.313 53.282,86.074 "/>
<polyline points="51.662,88.054 51.242,88.594 51.302,88.534 50.881,88.294 51.302,87.754 "/>
<polyline points="51.302,88.534 50.881,88.294 50.642,88.714 51.062,88.954 "/>
<polyline points="50.102,92.374 50.102,93.094 50.222,93.813 50.222,93.754 50.401,94.414 50.642,95.074 50.642,95.014 
	50.222,95.254 50.162,95.254 49.921,94.594 49.921,94.534 49.742,93.874 49.622,93.154 49.622,92.374 "/>
<polyline points="50.642,95.014 50.941,95.614 50.521,95.854 50.222,95.254 "/>
<polyline points="50.941,95.614 50.521,95.854 50.642,96.034 51.062,95.794 "/>
<polyline points="53.521,98.313 53.702,98.434 54.302,98.734 54.302,98.674 54.961,98.914 54.901,98.914 55.562,99.094 
	55.501,99.574 55.441,99.574 54.782,99.394 54.122,99.154 54.062,99.154 53.461,98.854 53.282,98.734 "/>
<polyline points="55.562,99.094 56.282,99.214 56.222,99.214 56.222,99.694 55.501,99.574 "/>
<rect x="56.222" y="99.214" width="0.72" height="0.48"/>
<polyline points="60.361,98.313 60.782,98.074 61.322,97.654 61.802,97.234 61.742,97.294 62.222,96.754 62.582,97.054 
	62.102,97.594 61.622,98.014 61.082,98.434 61.021,98.494 60.602,98.734 "/>
<polyline points="62.222,96.754 62.642,96.214 63.062,96.454 63.001,96.514 62.582,97.054 "/>
<polyline points="62.642,96.214 63.062,96.454 63.302,96.034 62.881,95.794 "/>
<text transform="matrix(1 0 0 1 55.3218 94.2339)" style="font-family:'ProductusSemibold'; font-size:7.98;">C</text>
<text transform="matrix(1 0 0 1 14.4019 94.4141)" style="font-family:'ProductusSemibold'; font-size:7.98;">E</text>
<polyline points="120.901,64.234 121.021,64.054 120.662,63.754 120.542,63.934 "/>
<polyline points="99.662,92.554 99.542,92.734 99.182,92.434 99.302,92.254 "/>
<polyline points="120.901,64.234 120.542,63.934 99.302,92.254 99.662,92.554 "/>
<rect x="120.481" y="35.434" width="0.48" height="0.24"/>
<rect x="120.481" y="35.674" width="0.48" height="28.62"/>
<polyline points="92.582,7.174 92.401,6.994 92.042,7.354 92.222,7.534 "/>
<polyline points="120.901,35.494 121.082,35.674 120.722,36.034 120.542,35.854 "/>
<polyline points="92.582,7.174 92.222,7.534 120.542,35.854 120.901,35.494 "/>
<path style="fill-rule:evenodd;clip-rule:evenodd;fill:#808080;" d="M99.481,7.354l-0.06-0.72l-0.12-0.72
	c-1.918-7.912-12.833-7.39-13.98,0.72l-0.06,0.72l0.06,0.72c1.143,8.092,12.066,8.611,13.98,0.72l0.12-0.72L99.481,7.354"/>
<path d="M99.242,7.414l-0.06-0.72l-0.12-0.72l-0.18-0.66v0.06l-0.24-0.66h0.06l-0.3-0.6l-0.36-0.6l-0.36-0.54v0.06l-0.48-0.54h0.06
	l-0.48-0.42l-0.54-0.42v0.06l-0.6-0.36h0.06l-0.66-0.3l-0.6-0.24l-0.72-0.18h0.06l-0.66-0.12h-1.5h0.06l-0.66,0.12l-0.72,0.18h0.06
	l-0.6,0.24l-0.66,0.3l-0.6,0.36l0.06-0.06l-0.54,0.42l-0.48,0.42l-0.48,0.54l0.06-0.06l-0.36,0.54l-0.36,0.6l-0.3,0.6l-0.24,0.66
	v-0.06l-0.18,0.66l-0.12,0.72l-0.06,0.72v-0.06l0.06,0.72l0.12,0.72v-0.06l0.18,0.66l0.24,0.66v-0.06l0.3,0.6l0.36,0.6l0.36,0.54
	l-0.06-0.06l0.96,0.96l-0.3,0.36h-0.06l-0.96-0.96v-0.06l-0.36-0.54l-0.36-0.6l-0.3-0.6h-0.06l-0.24-0.66v-0.06
	c-0.486-1.517-0.453-2.813,0-4.32l0.24-0.66l0.06-0.06l0.3-0.6l0.36-0.6l0.36-0.54l0.48-0.54l0.06-0.06l0.48-0.42l0.54-0.42
	l0.6-0.36h0.06l0.66-0.3l0.6-0.24v-0.06l0.72-0.18h0.06c1.044-0.24,2.563-0.183,3.6,0.18l0.06,0.06l0.6,0.24l0.66,0.3l0.6,0.36h0.06
	l0.54,0.42l0.48,0.42v0.06l0.48,0.54h0.06l0.36,0.54c0.677,0.997,1.061,2.166,1.2,3.36l0.06,0.72"/>
<path d="M88.021,12.634l0.54,0.42h-0.06l0.6,0.36l0.66,0.3l0.6,0.24l-0.06-0.06l0.72,0.18l0.66,0.06l0.78,0.06h-0.06l0.72-0.06
	l0.66-0.06h-0.06l0.72-0.18v0.06l0.6-0.24l0.66-0.3h-0.06l0.6-0.36l0.54-0.42h-0.06l0.96-0.96v0.06l0.36-0.54l0.36-0.6l0.3-0.6
	l-0.06,0.06l0.24-0.66l0.18-0.66v0.06l0.12-0.72l0.06-0.72v0.06l0.48-0.06v0.06l-0.06,0.72c-0.306,2.31-1.319,3.951-3.18,5.34
	l-0.6,0.36l-0.66,0.3c-1.807,0.799-4.571,0.712-6.3-0.3h-0.06l-0.6-0.36v-0.06l-0.54-0.42"/>
<path style="fill-rule:evenodd;clip-rule:evenodd;" d="M127.802,35.674l-0.12-1.44c-1.981-7.883-12.875-7.331-14.04,0.72v1.44
	c1.14,8.068,12.079,8.638,14.04,0.72L127.802,35.674"/>
<path d="M127.562,35.734l-0.12-1.44l-0.18-0.66v0.06l-0.24-0.66h0.06l-0.3-0.6l-0.36-0.6v0.06l-0.42-0.54l-0.96-0.96h0.06
	l-0.54-0.42v0.06l-0.6-0.36l-0.6-0.3h0.06l-0.66-0.24h0.06l-0.66-0.12l-0.72-0.12l-0.72-0.06h0.06l-0.72,0.06l-0.72,0.12l-0.66,0.12
	h0.06l-0.66,0.24l-0.6,0.3l-0.6,0.36l0.06-0.06l-0.54,0.42l-0.54,0.48l-0.42,0.48l-0.42,0.54l0.06-0.06l-0.36,0.6l-0.3,0.6
	l-0.24,0.66v-0.06l-0.18,0.66l-0.12,0.72v-0.06v1.44l0.12,0.72v-0.06l0.18,0.66l0.24,0.66l0.3,0.66v-0.06l0.36,0.54h-0.06l0.84,1.08
	v-0.06l0.54,0.42l-0.3,0.36l-0.54-0.42h-0.06l-0.84-1.08v-0.06l-0.36-0.54l-0.3-0.66h-0.06l-0.24-0.66v-0.06
	c-0.748-2.309-0.207-4.948,1.38-6.78l0.42-0.48l0.06-0.06c1.947-1.991,4.663-2.558,7.32-1.86h0.06l0.66,0.24v0.06l0.6,0.3
	c1.022,0.48,1.955,1.418,2.58,2.34h0.06l0.36,0.6c0.401,0.746,0.813,1.903,0.78,2.76l0.06,0.72"/>
<path d="M116.401,40.954l0.54,0.42h-0.06l0.6,0.36l0.6,0.3v-0.06l0.66,0.24h-0.06l0.66,0.18l0.72,0.12h-0.06h1.44l0.72-0.12h-0.06
	l0.66-0.18l0.66-0.24l-0.06,0.06l0.6-0.3l0.6-0.36l0.54-0.42l0.48-0.42l-0.06,0.06l0.48-0.54l0.42-0.54l0.36-0.54v0.06l0.3-0.66
	h-0.06l0.24-0.66l0.18-0.66v0.06l0.12-1.44v0.06l0.48-0.06v0.06c0.008,5.531-5.919,9.009-10.8,6.42l-0.6-0.36v-0.06l-0.54-0.42"/>
<text transform="matrix(1 0 0 1 92.4014 7.8936)" style="font-family:'ProductusSemibold'; font-size:7.98;">.</text>
<path style="fill-rule:evenodd;clip-rule:evenodd;fill:#FFFFFF;" d="M127.802,64.054l-0.06-0.72l-0.06-0.72
	c-1.961-7.918-12.9-7.348-14.04,0.72v1.44c1.165,8.051,12.059,8.603,14.04,0.72L127.802,64.054"/>
<path d="M127.562,64.114l-0.06-0.72l-0.06-0.72l-0.18-0.66v0.06l-0.24-0.66h0.06l-0.3-0.66l-0.36-0.54v0.06l-0.42-0.54l-0.48-0.54
	h0.06l-0.48-0.42l-0.54-0.42v0.06l-0.6-0.36l-0.6-0.3h0.06l-0.66-0.24l-0.66-0.18h0.06l-0.72-0.12h-1.44h0.06l-0.72,0.12l-0.66,0.18
	h0.06l-0.66,0.24l-0.6,0.3l-0.6,0.36l0.06-0.06l-1.08,0.84l-0.84,1.08l0.06-0.06l-0.36,0.54l-0.3,0.66l-0.24,0.66v-0.06l-0.18,0.66
	l-0.12,0.72v-0.06v1.44l0.12,0.72v-0.06l0.18,0.66l0.24,0.66v-0.06l0.3,0.6l0.36,0.6h-0.06l0.42,0.54l0.42,0.48v-0.06l0.54,0.48
	l-0.3,0.36l-0.54-0.48h-0.06l-0.42-0.48l-0.42-0.54v-0.06l-0.36-0.6l-0.3-0.6h-0.06l-0.24-0.66v-0.06l-0.18-0.66l-0.12-0.72v-1.5
	l0.12-0.72v-0.06l0.18-0.66l0.24-0.66h0.06l0.3-0.66v-0.06c0.935-1.535,1.896-2.415,3.54-3.18l0.06-0.06l0.66-0.24
	c1.219-0.412,3.099-0.447,4.32,0h0.06l0.66,0.24v0.06l0.6,0.3c1.226,0.624,1.766,1.253,2.58,2.34h0.06l0.36,0.54v0.06l0.3,0.66
	l0.24,0.66l0.18,0.66v0.06l0.06,0.72l0.06,0.72"/>
<path d="M116.401,69.334l0.54,0.42h-0.06l0.6,0.36l0.6,0.3v-0.06l0.66,0.24h-0.06l0.66,0.12l0.72,0.12l0.72,0.06h-0.06l0.72-0.06
	l0.72-0.12l0.66-0.12h-0.06l0.66-0.24l-0.06,0.06l0.6-0.3l0.6-0.36l0.54-0.42h-0.06l0.96-0.96v0.06l0.42-0.54l0.36-0.6l0.3-0.6
	l-0.06,0.06l0.24-0.66l0.18-0.66v0.06l0.12-1.44v0.06l0.48-0.06v0.06c-0.002,5.571-5.919,8.925-10.8,6.42l-0.6-0.36v-0.06
	l-0.54-0.42"/>
<text transform="matrix(1 0 0 1 118.5015 65.8535)" style="font-family:'ProductusSemibold'; font-size:7.98;">B</text>
<text transform="matrix(1 0 0 1 92.4014 7.8936)" style="font-family:'ProductusSemibold'; font-size:7.98;">.</text>
<text transform="matrix(1 0 0 1 119.2812 38.2534)" style="font-family:'ProductusSemibold'; font-size:7.98;">A</text>
<text transform="matrix(1 0 0 1 129.9609 66.0332)"><tspan x="0" y="0" style="font-family:'ProductusSemibold'; font-size:7.98;">P</tspan><tspan x="4.134" y="0" style="font-family:'ProductusSemibold'; font-size:7.98;">1</tspan></text>
<path style="fill-rule:evenodd;clip-rule:evenodd;fill:#808080;" d="M107.461,92.374l-0.12-1.44
	c-2.015-7.911-12.853-7.337-14.04,0.72v1.44c1.19,8.071,12.019,8.655,14.04,0.72L107.461,92.374"/>
<path d="M107.222,92.434l-0.12-1.44l-0.18-0.66v0.06l-0.24-0.66h0.06l-0.3-0.6l-0.36-0.6v0.06l-0.42-0.54l-0.96-0.96h0.06
	l-0.54-0.42v0.06l-0.6-0.36l-0.6-0.3h0.06l-0.66-0.24l-0.66-0.18h0.06l-1.44-0.12h0.06l-1.44,0.12l-0.66,0.18h0.06l-0.66,0.24
	l-0.6,0.3l-0.6,0.36l0.06-0.06l-0.54,0.42l-0.54,0.48l-0.42,0.48l-0.42,0.54l0.06-0.06l-0.36,0.6l-0.3,0.6l-0.24,0.66v-0.06
	l-0.18,0.66l-0.12,0.72v-0.06v1.44l0.12,0.72v-0.06l0.18,0.66l0.24,0.66v-0.06l0.3,0.6l0.36,0.6h-0.06l0.84,1.08v-0.06l0.54,0.42
	l-0.3,0.36l-0.54-0.42h-0.06l-0.84-1.08v-0.06l-0.36-0.6l-0.3-0.6h-0.06l-0.24-0.66v-0.06c-0.748-2.309-0.207-4.948,1.38-6.78
	l0.42-0.48l0.06-0.06c1.937-1.979,4.684-2.605,7.32-1.86h0.06l0.66,0.24v0.06l0.6,0.3c1.022,0.48,1.954,1.418,2.58,2.34h0.06
	l0.36,0.6c0.401,0.746,0.813,1.903,0.78,2.76l0.06,0.72"/>
<path d="M96.062,97.654l0.54,0.42h-0.06l0.6,0.36l0.6,0.3v-0.06l0.66,0.24h-0.06l0.66,0.18l0.72,0.12h-0.06h1.44l0.72-0.12h-0.06
	l0.66-0.18l0.66-0.24l-0.06,0.06l0.6-0.3l0.6-0.36l0.54-0.42l0.48-0.42l-0.06,0.06l0.48-0.54l0.42-0.54l0.36-0.6l0.3-0.6l-0.06,0.06
	l0.24-0.66l0.18-0.66v0.06l0.12-1.44v0.06l0.48-0.06v0.06c-0.007,5.533-5.91,9.009-10.8,6.42l-0.6-0.36v-0.06l-0.54-0.42"/>
<text transform="matrix(1 0 0 1 140.3413 94.2339)" style="font-family:'ProductusSemibold'; font-size:7.98;">C</text>
<text transform="matrix(1 0 0 1 99.4814 94.4141)" style="font-family:'ProductusSemibold'; font-size:7.98;">E</text>
<polyline points="205.921,63.934 205.801,63.754 205.442,64.054 205.562,64.234 "/>
<polyline points="227.221,92.254 227.341,92.434 226.982,92.734 226.862,92.554 "/>
<polyline points="205.921,63.934 205.562,64.234 226.862,92.554 227.221,92.254 "/>
<polyline points="205.921,64.234 206.042,64.054 205.681,63.754 205.562,63.934 "/>
<polyline points="184.681,92.554 184.562,92.734 184.202,92.434 184.322,92.254 "/>
<polyline points="205.921,64.234 205.562,63.934 184.322,92.254 184.681,92.554 "/>
<rect x="205.501" y="35.434" width="0.48" height="0.24"/>
<rect x="205.501" y="35.674" width="0.48" height="28.62"/>
<polyline points="177.601,7.174 177.421,6.994 177.062,7.354 177.242,7.534 "/>
<polyline points="205.921,35.494 206.101,35.674 205.742,36.034 205.562,35.854 "/>
<polyline points="177.601,7.174 177.242,7.534 205.562,35.854 205.921,35.494 "/>
<path style="fill-rule:evenodd;clip-rule:evenodd;fill:#808080;" d="M184.501,7.354l-0.06-0.72l-0.061-0.72
	c-2.021-7.935-12.85-7.351-14.04,0.72v1.44c1.188,8.057,12.024,8.631,14.04,0.72l0.061-0.72L184.501,7.354"/>
<path d="M184.261,7.414l-0.06-0.72l-0.061-0.72l-0.18-0.66v0.06l-0.24-0.66h0.061l-0.3-0.6l-0.36-0.6v0.06l-0.42-0.54l-0.48-0.54
	h0.061l-0.48-0.42l-0.54-0.42v0.06l-0.6-0.36l-0.6-0.3h0.06l-0.66-0.24l-0.66-0.18h0.061l-0.721-0.12h-1.439h0.06l-0.72,0.12
	l-0.66,0.18h0.061l-0.66,0.24l-0.601,0.3l-0.6,0.36l0.06-0.06l-1.079,0.84l-0.841,1.08l0.061-0.06l-0.36,0.6l-0.3,0.6l-0.24,0.66
	v-0.06l-0.18,0.66l-0.12,0.72v-0.06v1.44l0.12,0.72v-0.06l0.18,0.66l0.24,0.66v-0.06l0.3,0.6l0.36,0.6h-0.061l0.42,0.54l0.421,0.48
	v-0.06l0.539,0.48l-0.3,0.36l-0.54-0.48h-0.06l-0.42-0.48l-0.42-0.54v-0.06l-0.36-0.6l-0.3-0.6h-0.061l-0.239-0.66v-0.06
	c-0.748-2.309-0.207-4.948,1.38-6.78l0.42-0.54l0.06-0.06c2.152-1.887,4.523-2.622,7.32-1.8h0.06l0.66,0.24v0.06l0.601,0.3
	c1.225,0.624,1.766,1.253,2.58,2.34h0.06l0.36,0.6c0.4,0.746,0.812,1.903,0.779,2.76l0.061,0.72"/>
<path d="M173.101,12.634l0.54,0.42h-0.06l0.6,0.36l0.601,0.3v-0.06l0.66,0.24h-0.061l0.66,0.18l1.44,0.12h-0.061l1.44-0.12h-0.061
	l0.66-0.18l0.66-0.24l-0.06,0.06l0.6-0.3l0.6-0.36l0.54-0.42h-0.06l0.96-0.96v0.06l0.42-0.54l0.36-0.6l0.3-0.6l-0.061,0.06
	l0.24-0.66l0.18-0.66v0.06l0.061-0.72l0.06-0.72v0.06l0.48-0.06v0.06c0.01,5.546-5.948,8.969-10.8,6.42l-0.601-0.36v-0.06
	l-0.54-0.42"/>
<path style="fill-rule:evenodd;clip-rule:evenodd;" d="M212.822,35.674v-0.72l-0.12-0.72c-1.93-7.876-12.919-7.339-13.98,0.72
	l-0.06,0.72l0.06,0.72c1.023,8.083,12.101,8.614,13.98,0.72l0.12-0.72V35.674"/>
<path d="M212.582,35.674v-0.72v0.06l-0.12-0.72l-0.18-0.66v0.06l-0.24-0.66h0.06l-0.3-0.6l-0.359-0.6v0.06l-0.42-0.54l-0.421-0.48
	h0.061l-0.54-0.48l-0.54-0.42v0.06l-0.54-0.36h0.06l-0.659-0.3l-0.66-0.24h0.06l-0.66-0.12l-0.72-0.12l-0.72-0.06h0.06l-0.72,0.06
	l-0.66,0.12l-0.72,0.12h0.06l-0.66,0.24l-0.6,0.3l-0.6,0.36l0.06-0.06l-0.54,0.42l-0.96,0.96l-0.42,0.54l0.06-0.06l-0.359,0.6
	l-0.24,0.6l-0.24,0.66v-0.06l-0.18,0.66l-0.12,0.72l-0.06,0.72v-0.06l0.06,0.72l0.12,0.72v-0.06l0.18,0.66l0.24,0.66l0.24,0.66
	v-0.06l0.359,0.54h-0.06l0.42,0.54l0.48,0.54v-0.06l0.479,0.42l-0.3,0.36l-0.48-0.42h-0.06l-0.48-0.54l-0.42-0.54v-0.06l-0.359-0.54
	h-0.061l-0.239-0.66c-0.674-1.762-0.797-3.228-0.24-5.04l0.24-0.66h0.06l0.24-0.6v-0.06c0.672-1.252,1.688-2.268,2.939-2.94
	l0.601-0.3l0.06-0.06c1.582-0.604,3.34-0.678,4.98-0.24h0.06l0.66,0.24v0.06l0.66,0.3c1.217,0.719,1.685,1.207,2.52,2.34h0.061
	l0.359,0.6c0.445,0.809,0.738,1.839,0.841,2.76v0.72"/>
<path d="M201.421,40.954l0.54,0.42h-0.06l0.6,0.36l0.6,0.3v-0.06l0.66,0.24h-0.06l0.72,0.18l0.66,0.12h-0.06h1.439l0.72-0.12h-0.06
	l0.66-0.18l0.66-0.24v0.06l0.659-0.3h-0.06l0.54-0.36l1.08-0.84l-0.061,0.06l0.841-1.08l0.359-0.54v0.06l0.3-0.66h-0.06l0.24-0.66
	l0.18-0.66v0.06l0.12-0.72v-0.72h0.48v0.72c-0.562,5.244-6.093,8.202-10.801,5.76l-0.6-0.36v-0.06l-0.54-0.42"/>
<text transform="matrix(1 0 0 1 177.4214 7.8936)" style="font-family:'ProductusSemibold'; font-size:7.98;">.</text>
<path style="fill-rule:evenodd;clip-rule:evenodd;fill:#FFFFFF;" d="M212.822,64.054v-0.72l-0.12-0.72
	c-1.88-7.894-12.957-7.363-13.98,0.72l-0.06,0.72l0.06,0.72c1.062,8.059,12.051,8.596,13.98,0.72l0.12-0.72V64.054"/>
<path d="M212.582,64.054v-0.72v0.06l-0.12-0.72l-0.18-0.66v0.06l-0.24-0.66h0.06l-0.3-0.66l-0.359-0.54v0.06l-0.841-1.08h0.061
	l-1.08-0.84v0.06l-0.54-0.36h0.06l-0.659-0.3l-0.66-0.24l-0.66-0.18h0.06l-0.72-0.12h-1.439h0.06l-0.66,0.12l-0.72,0.18h0.06
	l-0.66,0.24l-0.6,0.3l-0.6,0.36l0.06-0.06l-0.54,0.42l-0.479,0.42l-0.48,0.54l-0.42,0.54l0.06-0.06l-0.359,0.54l-0.24,0.66
	l-0.24,0.66v-0.06l-0.18,0.66l-0.12,0.72l-0.06,0.72v-0.06l0.06,0.72l0.12,0.72v-0.06l0.18,0.66l0.24,0.66l0.24,0.6v-0.06l0.359,0.6
	h-0.06l0.42,0.54v-0.06l0.96,0.96l-0.3,0.36h-0.06l-0.961-0.96l-0.42-0.54v-0.06l-0.359-0.6l-0.24-0.6h-0.06l-0.24-0.66v-0.06
	c-0.785-2.052-0.176-5.206,1.319-6.78l0.48-0.54l0.06-0.06c1.864-1.868,4.738-2.623,7.261-1.8h0.06l0.66,0.24v0.06l0.66,0.3
	c1.396,0.882,1.562,0.991,2.52,2.34h0.061l0.359,0.54v0.06l0.301,0.66l0.239,0.66l0.181,0.66v0.06l0.12,0.72v0.72"/>
<path d="M201.421,69.334l0.54,0.42h-0.06l0.6,0.36l0.6,0.3v-0.06l0.66,0.24h-0.06l0.72,0.12l0.66,0.12l0.72,0.06h-0.06l0.72-0.06
	l0.72-0.12l0.66-0.12h-0.06l0.66-0.24v0.06l0.659-0.3h-0.06l0.54-0.36l0.54-0.42l0.54-0.48l-0.061,0.06l0.421-0.48l0.42-0.54
	l0.359-0.6l0.3-0.6l-0.06,0.06l0.24-0.66l0.18-0.66v0.06l0.12-0.72v-0.72h0.48v0.72c-0.623,5.311-6.021,8.102-10.801,5.76l-0.6-0.36
	v-0.06l-0.54-0.42"/>
<text transform="matrix(1 0 0 1 203.522 65.8535)" style="font-family:'ProductusSemibold'; font-size:7.98;">B</text>
<text transform="matrix(1 0 0 1 177.4214 7.8936)" style="font-family:'ProductusSemibold'; font-size:7.98;">.</text>
<text transform="matrix(1 0 0 1 204.3608 38.2534)" style="font-family:'ProductusSemibold'; font-size:7.98;">A</text>
<text transform="matrix(1 0 0 1 214.981 66.0332)"><tspan x="0" y="0" style="font-family:'ProductusSemibold'; font-size:7.98;">P</tspan><tspan x="4.197" y="0" style="font-family:'ProductusSemibold'; font-size:7.98;">1</tspan></text>
<path style="fill-rule:evenodd;clip-rule:evenodd;fill:#808080;" d="M192.482,92.374v-0.72l-0.12-0.72
	c-1.956-7.932-12.961-7.307-13.98,0.72l-0.06,0.72l0.06,0.72c0.993,8.067,12.096,8.627,13.98,0.72l0.12-0.72V92.374"/>
<path d="M192.242,92.374v-0.72v0.06l-0.12-0.72l-0.18-0.66v0.06l-0.24-0.66h0.06l-0.3-0.6l-0.36-0.6v0.06l-0.42-0.54l-0.42-0.48
	h0.061l-0.54-0.48l-0.54-0.42v0.06l-0.54-0.36h0.06l-0.66-0.3l-0.659-0.24l-0.66-0.18h0.06l-1.439-0.12h0.06l-1.439,0.12l-0.66,0.18
	h0.06l-0.66,0.24l-0.6,0.3l-0.6,0.36l0.06-0.06l-0.54,0.42l-0.96,0.96l-0.42,0.54l0.06-0.06l-0.359,0.6l-0.301,0.6l-0.239,0.66
	v-0.06l-0.12,0.66l-0.12,0.72l-0.06,0.72v-0.06l0.06,0.72l0.12,0.72l0.12,0.66v-0.06l0.239,0.66v-0.06l0.301,0.6l0.359,0.6h-0.06
	l0.42,0.54l0.479,0.54v-0.06l0.48,0.42l-0.3,0.36l-0.48-0.42h-0.06l-0.48-0.54l-0.42-0.54v-0.06l-0.359-0.6l-0.301-0.6h-0.06
	l-0.24-0.66v-0.06l-0.12-0.66c-0.236-1.211-0.236-1.729,0-2.94l0.12-0.66v-0.06c0.248-0.785,0.845-1.858,1.38-2.46v-0.06l0.96-0.96
	h0.061c0.602-0.535,1.675-1.132,2.46-1.38l0.66-0.18h0.06c1.416-0.149,1.524-0.149,2.94,0l0.66,0.18h0.06l0.66,0.24v0.06l0.66,0.3
	c1.218,0.72,1.685,1.206,2.52,2.34h0.061l0.359,0.6c0.445,0.809,0.738,1.839,0.84,2.76v0.72"/>
<path d="M181.082,97.654l0.54,0.42h-0.06l0.6,0.36l0.6,0.3v-0.06l0.66,0.24h-0.06l0.66,0.18l0.72,0.12h-0.061h1.44l0.72-0.12h-0.06
	l0.66-0.18l0.659-0.24v0.06l0.66-0.3h-0.06l0.54-0.36l1.08-0.84l-0.061,0.06l0.84-1.08l0.36-0.6l0.3-0.6l-0.06,0.06l0.24-0.66
	l0.18-0.66v0.06l0.12-0.72v-0.72h0.479v0.72c-0.573,5.253-6.106,8.207-10.8,5.76l-0.6-0.36v-0.06l-0.54-0.42"/>
<path style="fill-rule:evenodd;clip-rule:evenodd;fill:#FFFFFF;" d="M234.122,92.374l-0.06-0.72l-0.12-0.72
	c-1.82-7.911-12.886-7.313-13.98,0.72v1.44c1.063,8.034,12.185,8.652,13.98,0.72l0.12-0.72L234.122,92.374"/>
<path d="M233.881,92.434l-0.06-0.72l-0.12-0.72l-0.36-1.32l0.061,0.06l-0.301-0.6l-0.359-0.6v0.06l-0.42-0.54l-0.96-0.96h0.06
	l-0.54-0.42v0.06l-0.6-0.36l-0.601-0.3h0.061l-0.66-0.24l-0.72-0.18h0.06l-0.66-0.06l-0.72-0.06h0.06l-1.439,0.12l-0.66,0.18h0.061
	l-0.66,0.24l-0.66,0.3l-0.54,0.36l0.06-0.06l-0.54,0.42l-0.54,0.48l-0.42,0.48l-0.42,0.54l0.061-0.06l-0.36,0.6l-0.3,0.6l-0.24,0.66
	v-0.06l-0.18,0.66l-0.12,0.72v-0.06v1.44l0.12,0.72v-0.06l0.18,0.66l0.24,0.66v-0.06l0.3,0.6l0.36,0.6h-0.061l0.84,1.08v-0.06
	l0.54,0.42l-0.3,0.36l-0.54-0.42h-0.06l-0.84-1.08v-0.06l-0.36-0.6l-0.3-0.6h-0.061l-0.239-0.66v-0.06
	c-0.447-1.221-0.412-3.101,0-4.32l0.239-0.66l0.061-0.06c0.65-1.506,1.793-2.69,3.18-3.54h0.061l0.659-0.3v-0.06l0.66-0.24
	l0.66-0.18h0.06l1.44-0.12h0.06l0.721,0.06l0.66,0.06l0.72,0.18h0.06l0.66,0.24v0.06l0.601,0.3c1.021,0.48,1.953,1.418,2.579,2.34
	h0.061l0.36,0.6c0.405,0.62,0.674,2.007,0.779,2.76l0.061,0.72"/>
<path d="M222.721,97.654l0.54,0.42h-0.06l0.54,0.36l0.66,0.3v-0.06l0.66,0.24h-0.061l0.66,0.18l0.72,0.12h-0.06h1.439l0.66-0.12
	h-0.06l0.72-0.18l0.66-0.24l-0.061,0.06l0.601-0.3l0.6-0.36l0.54-0.42l0.48-0.42l-0.061,0.06l0.48-0.54l0.42-0.54l0.359-0.6
	l0.301-0.6l-0.061,0.06l0.36-1.32v0.06l0.12-0.72l0.06-0.72v0.06l0.48-0.06v0.06l-0.061,0.72c-0.338,2.493-1.177,3.8-3.18,5.34
	l-0.6,0.36l-0.601,0.3c-2.03,0.839-4.416,0.741-6.359-0.3h-0.061l-0.54-0.36v-0.06l-0.54-0.42"/>
<text transform="matrix(1 0 0 1 225.4214 94.2339)" style="font-family:'ProductusSemibold'; font-size:7.98;">C</text>
<text transform="matrix(1 0 0 1 184.5015 94.4141)" style="font-family:'ProductusSemibold'; font-size:7.98;">E</text>
<text transform="matrix(1 0 0 1 151.1411 93.5737)"><tspan x="0" y="0" style="font-family:'ProductusSemibold'; font-size:7.98;">P</tspan><tspan x="4.134" y="0" style="font-family:'ProductusSemibold'; font-size:7.98;">2</tspan></text>
<path style="fill-rule:evenodd;clip-rule:evenodd;fill:#FFFFFF;" d="M212.822,113.674v-0.78l-0.12-0.66
	c-1.85-7.88-12.906-7.4-13.98,0.66l-0.06,0.78l0.06,0.72c1.059,8.059,12.149,8.537,13.98,0.66l0.12-0.66V113.674"/>
<path d="M212.582,113.674v-0.78v0.06l-0.12-0.66l-0.18-0.72l0.06,0.06l-0.24-0.6l-0.3-0.66l-0.359-0.6v0.06l-0.42-0.54l-0.421-0.48
	h0.061l-0.54-0.479v0.06l-1.08-0.72h0.06l-0.659-0.3l-0.66-0.24l-0.66-0.18h0.06l-0.72-0.12l-0.72-0.06h0.06l-0.72,0.06l-0.66,0.12
	l-0.72,0.18h0.06l-0.66,0.24l-0.6,0.3l-0.6,0.36l-0.54,0.36l0.06-0.06l-0.96,0.96l-0.42,0.54l0.06-0.06l-0.359,0.6l-0.24,0.66
	l-0.24,0.6v-0.06l-0.18,0.72l-0.12,0.66l-0.06,0.78v-0.06l0.06,0.72l0.12,0.66v-0.06l0.18,0.72l0.24,0.66l0.24,0.6v-0.06l0.359,0.6
	h-0.06l0.42,0.54v-0.06l0.96,0.96h-0.06l-0.24,0.42l-0.06-0.06c-0.81-0.799-1.234-1.146-1.74-2.16l-0.24-0.6h-0.06l-0.24-0.66v-0.06
	l-0.181-0.72l-0.119-0.66l-0.061-0.72v-0.06l0.061-0.78l0.119-0.66v-0.06l0.181-0.72h0.06l0.24-0.6h-0.06l0.239-0.66l0.061-0.06
	c0.761-1.349,1.561-2.168,2.939-2.88l0.601-0.3l0.06-0.06c1.731-0.646,3.187-0.817,4.98-0.24h0.06l0.66,0.24v0.06l0.66,0.3
	c1.401,0.887,1.512,0.928,2.52,2.28h0.061l0.359,0.6v0.06l0.301,0.66l0.239,0.6l0.181,0.72v0.06l0.12,0.66v0.78"/>
<path d="M201.362,118.954l0.54,0.36l0.6,0.36l0.6,0.3v-0.06l0.66,0.24h-0.06l0.72,0.18l0.66,0.12l0.72,0.06h-0.06l0.72-0.06
	l0.72-0.12h-0.06l0.66-0.18l0.66-0.24v0.06l0.659-0.3h-0.06l1.08-0.72l0.54-0.48l-0.061,0.06l0.421-0.48l0.42-0.54l0.359-0.6
	l0.3-0.6l-0.06,0.06l0.24-0.66l0.18-0.72v0.06l0.12-0.66v-0.72h0.48v0.72c-0.581,5.531-6.761,8.376-11.4,5.34l-0.54-0.36"/>
<text transform="matrix(1 0 0 1 203.6411 115.6538)" style="font-family:'ProductusSemibold'; font-size:7.98;">D</text>
<text transform="matrix(1 0 0 1 237.5415 93.5142)"><tspan x="0" y="0" style="font-family:'ProductusSemibold'; font-size:7.98;">P</tspan><tspan x="4.134" y="0" style="font-family:'ProductusSemibold'; font-size:7.98;">2</tspan></text>
<text transform="matrix(1 0 0 1 216.3013 114.2139)"><tspan x="0" y="0" style="font-family:'ProductusSemibold'; font-size:7.98;">P</tspan><tspan x="4.134" y="0" style="font-family:'ProductusSemibold'; font-size:7.98;">3</tspan></text>
<text transform="matrix(1 0 0 1 17.9414 136.6538)"><tspan x="0" y="0" style="font-family:'ProductusBook'; font-size:7.98;">P1</tspan><tspan x="6.439" y="0" style="font-family:'ProductusBook'; font-size:7.98;"> </tspan><tspan x="8.004" y="0" style="font-family:'ProductusBook'; font-size:7.98;">R</tspan><tspan x="11.427" y="0" style="font-family:'ProductusBook'; font-size:7.98;">e</tspan><tspan x="14.914" y="0" style="font-family:'ProductusBook'; font-size:7.98;">g</tspan><tspan x="18.449" y="0" style="font-family:'ProductusBook'; font-size:7.98;">i</tspan><tspan x="20.013" y="0" style="font-family:'ProductusBook'; font-size:7.98;">st</tspan><tspan x="25.192" y="0" style="font-family:'ProductusBook'; font-size:7.98;">e</tspan><tspan x="28.728" y="0" style="font-family:'ProductusBook'; font-size:7.98;">r</tspan><tspan x="31.001" y="0" style="font-family:'ProductusBook'; font-size:7.98;">e</tspan><tspan x="34.497" y="0" style="font-family:'ProductusBook'; font-size:7.98;">d</tspan></text>
<text transform="matrix(1 0 0 1 17.9414 146.7344)"><tspan x="0" y="0" style="font-family:'ProductusBook'; font-size:7.98;">an</tspan><tspan x="7.006" y="0" style="font-family:'ProductusBook'; font-size:7.98;">d</tspan><tspan x="10.669" y="0" style="font-family:'ProductusBook'; font-size:7.98;"> </tspan><tspan x="12.281" y="0" style="font-family:'ProductusBook'; font-size:7.98;">mapp</tspan><tspan x="28.768" y="0" style="font-family:'ProductusBook'; font-size:7.98;">e</tspan><tspan x="32.255" y="0" style="font-family:'ProductusBook'; font-size:7.98;">d</tspan></text>
<text transform="matrix(1 0 0 1 102.9609 136.6538)"><tspan x="0" y="0" style="font-family:'ProductusBook'; font-size:7.98;">P</tspan><tspan x="3.304" y="0" style="font-family:'ProductusBook'; font-size:7.98;">2</tspan><tspan x="6.958" y="0" style="font-family:'ProductusBook'; font-size:7.98;"> </tspan><tspan x="8.57" y="0" style="font-family:'ProductusBook'; font-size:7.98;">r</tspan><tspan x="10.797" y="0" style="font-family:'ProductusBook'; font-size:7.98;">e</tspan><tspan x="14.332" y="0" style="font-family:'ProductusBook'; font-size:7.98;">gister</tspan><tspan x="30.339" y="0" style="font-family:'ProductusBook'; font-size:7.98;">e</tspan><tspan x="33.875" y="0" style="font-family:'ProductusBook'; font-size:7.98;">d</tspan></text>
<text transform="matrix(1 0 0 1 102.9609 146.7344)"><tspan x="0" y="0" style="font-family:'ProductusBook'; font-size:7.98;">a</tspan><tspan x="3.344" y="0" style="font-family:'ProductusBook'; font-size:7.98;">n</tspan><tspan x="7.006" y="0" style="font-family:'ProductusBook'; font-size:7.98;">d</tspan><tspan x="10.733" y="0" style="font-family:'ProductusBook'; font-size:7.98;"> </tspan><tspan x="12.297" y="0" style="font-family:'ProductusBook'; font-size:7.98;">m</tspan><tspan x="18.05" y="0" style="font-family:'ProductusBook'; font-size:7.98;">a</tspan><tspan x="21.41" y="0" style="font-family:'ProductusBook'; font-size:7.98;">p</tspan><tspan x="25.073" y="0" style="font-family:'ProductusBook'; font-size:7.98;">p</tspan><tspan x="28.792" y="0" style="font-family:'ProductusBook'; font-size:7.98;">e</tspan><tspan x="32.327" y="0" style="font-family:'ProductusBook'; font-size:7.98;">d</tspan></text>
<text transform="matrix(1 0 0 1 183.7212 136.4146)"><tspan x="0" y="0" style="font-family:'ProductusBook'; font-size:7.98;">P</tspan><tspan x="3.296" y="0" style="font-family:'ProductusBook'; font-size:7.98;">3</tspan><tspan x="6.831" y="0" style="font-family:'ProductusBook'; font-size:7.98;"> </tspan><tspan x="8.395" y="0" style="font-family:'ProductusBook'; font-size:7.98;">i</tspan><tspan x="9.951" y="0" style="font-family:'ProductusBook'; font-size:7.98;">s</tspan><tspan x="12.823" y="0" style="font-family:'ProductusBook'; font-size:7.98;"> </tspan><tspan x="14.388" y="0" style="font-family:'ProductusBook'; font-size:7.98;">r</tspan><tspan x="16.646" y="0" style="font-family:'ProductusBook'; font-size:7.98;">e</tspan><tspan x="20.181" y="0" style="font-family:'ProductusBook'; font-size:7.98;">gist</tspan><tspan x="30.388" y="0" style="font-family:'ProductusBook'; font-size:7.98;">e</tspan><tspan x="33.922" y="0" style="font-family:'ProductusBook'; font-size:7.98;">r</tspan><tspan x="36.196" y="0" style="font-family:'ProductusBook'; font-size:7.98;">e</tspan><tspan x="39.691" y="0" style="font-family:'ProductusBook'; font-size:7.98;">d</tspan></text>
<text transform="matrix(1 0 0 1 183.7212 146.4341)"><tspan x="0" y="0" style="font-family:'ProductusBook'; font-size:7.98;">bu</tspan><tspan x="7.413" y="0" style="font-family:'ProductusBook'; font-size:7.98;">t</tspan><tspan x="9.76" y="0" style="font-family:'ProductusBook'; font-size:7.98;"> </tspan><tspan x="11.371" y="0" style="font-family:'ProductusBook'; font-size:7.98;">c</tspan><tspan x="14.436" y="0" style="font-family:'ProductusBook'; font-size:7.98;">a</tspan><tspan x="17.795" y="0" style="font-family:'ProductusBook'; font-size:7.98;">nnot</tspan><tspan x="31.377" y="0" style="font-family:'ProductusBook'; font-size:7.98;"> </tspan><tspan x="32.94" y="0" style="font-family:'ProductusBook'; font-size:7.98;">be</tspan><tspan x="40.179" y="0" style="font-family:'ProductusBook'; font-size:7.98;"> </tspan><tspan x="41.742" y="0" style="font-family:'ProductusBook'; font-size:7.98;">ma</tspan><tspan x="50.84" y="0" style="font-family:'ProductusBook'; font-size:7.98;">p</tspan><tspan x="54.503" y="0" style="font-family:'ProductusBook'; font-size:7.98;">p</tspan><tspan x="58.221" y="0" style="font-family:'ProductusBook'; font-size:7.98;">e</tspan><tspan x="61.708" y="0" style="font-family:'ProductusBook'; font-size:7.98;">d</tspan></text>
<text transform="matrix(1 0 0 1 205.7407 85.894)"><tspan x="0" y="0" style="font-family:'ProductusSemibold'; font-size:7.98;">?</tspan><tspan x="4.078" y="0" style="font-family:'ProductusSemibold'; font-size:7.98;">?</tspan></text>
<polyline points="291.001,63.934 290.881,63.754 290.522,64.054 290.641,64.234 "/>
<polyline points="312.242,92.254 312.362,92.434 312.001,92.734 311.881,92.554 "/>
<polyline points="291.001,63.934 290.641,64.234 311.881,92.554 312.242,92.254 "/>
<rect x="290.582" y="35.434" width="0.48" height="0.24"/>
<rect x="290.582" y="35.674" width="0.48" height="28.62"/>
<polyline points="262.622,7.174 262.442,6.994 262.082,7.354 262.261,7.534 "/>
<polyline points="291.001,35.494 291.181,35.674 290.822,36.034 290.641,35.854 "/>
<polyline points="262.622,7.174 262.261,7.534 290.641,35.854 291.001,35.494 "/>
<path style="fill-rule:evenodd;clip-rule:evenodd;fill:#808080;" d="M269.522,7.354v-0.72l-0.12-0.72
	c-1.885-7.907-12.987-7.347-13.98,0.72l-0.06,0.72l0.06,0.72c1.02,8.027,12.024,8.652,13.98,0.72l0.12-0.72V7.354"/>
<path d="M269.282,7.354v-0.72v0.06l-0.12-0.72l-0.18-0.66v0.06l-0.24-0.66h0.06l-0.3-0.6l-0.36-0.6v0.06l-0.84-1.08h0.061
	l-1.08-0.84v0.06l-0.54-0.36h0.06l-0.66-0.3l-0.659-0.24l-0.66-0.18h0.06l-0.72-0.12h-1.44h0.061l-0.72,0.12l-0.66,0.18h0.06
	l-0.66,0.24l-0.6,0.3l-0.601,0.36l0.061-0.06l-0.54,0.42l-0.48,0.42l-0.479,0.54l-0.42,0.54l0.06-0.06l-0.359,0.6l-0.301,0.6
	l-0.239,0.66v-0.06l-0.12,0.66l-0.12,0.72l-0.061,0.72v-0.06l0.061,0.72l0.12,0.72l0.12,0.66v-0.06l0.239,0.66v-0.06l0.301,0.6
	l0.359,0.6h-0.06l0.42,0.54v-0.06l0.96,0.96l-0.3,0.36h-0.061l-0.96-0.96l-0.42-0.54v-0.06l-0.359-0.6l-0.301-0.6h-0.06l-0.24-0.66
	v-0.06c-0.621-2.331-0.248-4.942,1.38-6.78l0.48-0.54l0.06-0.06c1.866-1.871,4.733-2.629,7.26-1.8h0.061l0.66,0.24v0.06l0.66,0.3
	c1.396,0.882,1.562,0.991,2.52,2.34h0.061l0.359,0.6c0.445,0.809,0.738,1.839,0.84,2.76v0.72"/>
<path d="M258.122,12.634l0.54,0.42h-0.061l0.601,0.36l0.6,0.3v-0.06l0.66,0.24h-0.06l0.66,0.18l1.439,0.12h-0.06l1.439-0.12h-0.06
	l0.66-0.18l0.659-0.24v0.06l0.66-0.3h-0.06l0.54-0.36l0.54-0.42l0.54-0.48l-0.061,0.06l0.42-0.48l0.42-0.54l0.36-0.6l0.3-0.6
	l-0.06,0.06l0.24-0.66l0.18-0.66v0.06l0.12-0.72v-0.72h0.479v0.72c-0.597,5.279-6.077,8.155-10.8,5.76l-0.6-0.36v-0.06l-0.54-0.42"
	/>
<path style="fill-rule:evenodd;clip-rule:evenodd;" d="M297.902,35.674l-0.061-0.72l-0.12-0.72
	c-1.777-7.885-12.913-7.305-13.979,0.72v1.44c1.038,8.038,12.223,8.643,13.979,0.72l0.12-0.72L297.902,35.674"/>
<path d="M297.662,35.734l-0.061-0.72l-0.119-0.72l-0.12-0.66v0.06l-0.24-0.66h0.06l-0.3-0.6l-0.359-0.6v0.06l-0.421-0.54l-0.96-0.96
	h0.061l-0.54-0.42v0.06l-0.6-0.36l-0.601-0.3h0.061l-0.66-0.24h0.06l-0.66-0.12l-0.72-0.12l-0.72-0.06h0.06l-0.72,0.06l-0.72,0.12
	l-0.66,0.12h0.06l-0.66,0.24l-0.659,0.3l-0.54,0.36l0.06-0.06l-0.54,0.42l-0.54,0.48l-0.42,0.48l-0.42,0.54l0.06-0.06l-0.359,0.6
	l-0.3,0.6l-0.24,0.66v-0.06l-0.181,0.66l-0.119,0.72v-0.06v1.44l0.119,0.72v-0.06l0.181,0.66l0.24,0.66l0.3,0.66v-0.06l0.359,0.54
	h-0.06l0.84,1.08v-0.06l0.54,0.42l-0.3,0.36l-0.54-0.42h-0.061l-0.84-1.08v-0.06l-0.359-0.54l-0.301-0.66h-0.06l-0.24-0.66v-0.06
	c-0.446-1.22-0.412-3.101,0-4.32l0.24-0.66l0.06-0.06c0.651-1.506,1.793-2.69,3.181-3.54h0.06l0.66-0.3v-0.06l0.66-0.24h0.06
	l0.66-0.12l0.72-0.12l0.721-0.06h0.06l0.72,0.06l0.721,0.12l0.66,0.12h0.06l0.66,0.24v0.06l0.6,0.3
	c1.022,0.48,1.955,1.418,2.58,2.34h0.061l0.359,0.6c0.566,1.036,0.591,1.603,0.78,2.76l0.06,0.72"/>
<path d="M286.501,40.954l0.54,0.42h-0.06l0.54,0.36l0.659,0.3v-0.06l0.66,0.24h-0.06l0.66,0.18l0.72,0.12h-0.061h1.44l0.72-0.12
	h-0.06l0.66-0.18l0.66-0.24l-0.061,0.06l0.601-0.3l0.6-0.36l0.54-0.42l0.479-0.42l-0.06,0.06l0.479-0.54l0.421-0.54l0.359-0.54v0.06
	l0.3-0.66h-0.06l0.24-0.66v0.06l0.12-0.66l0.119-0.72l0.061-0.72v0.06l0.479-0.06v0.06l-0.06,0.72
	c-0.211,2.417-1.286,3.887-3.18,5.34l-0.601,0.36l-0.6,0.3c-2.027,0.846-4.417,0.737-6.36-0.3h-0.06l-0.54-0.36v-0.06l-0.54-0.42"/>
<text transform="matrix(1 0 0 1 262.4419 7.8936)"><tspan x="0" y="0" style="font-family:'ProductusSemibold'; font-size:7.98; letter-spacing:-1;">.</tspan><tspan x="0.008" y="0" style="font-family:'ProductusSemibold'; font-size:7.98;">.</tspan></text>
<text transform="matrix(1 0 0 1 289.3813 38.2539)" style="font-family:'ProductusSemibold'; font-size:7.98;">A</text>
<text transform="matrix(1 0 0 1 310.4409 93.5137)" style="font-family:'ProductusSemibold'; font-size:7.98;">C</text>
<rect x="290.582" y="63.813" width="0.48" height="0.24"/>
<rect x="290.582" y="64.054" width="0.48" height="28.56"/>
<path style="fill-rule:evenodd;clip-rule:evenodd;fill:#FFFFFF;" d="M297.902,92.374l-0.061-0.72l-0.12-0.72
	c-1.805-7.906-12.887-7.319-13.979,0.72v1.44c1.036,8.031,12.222,8.643,13.979,0.72l0.12-0.72L297.902,92.374"/>
<path d="M297.662,92.434l-0.061-0.72l-0.119-0.72l-0.12-0.66v0.06l-0.24-0.66h0.06l-0.3-0.6l-0.359-0.6v0.06l-0.421-0.54l-0.96-0.96
	h0.061l-0.54-0.42v0.06l-0.6-0.36l-0.601-0.3h0.061l-0.66-0.24l-0.66-0.18h0.06l-1.439-0.12h0.06l-1.439,0.12l-0.66,0.18h0.06
	l-0.66,0.24l-0.659,0.3l-0.54,0.36l0.06-0.06l-0.54,0.42l-0.54,0.48l-0.42,0.48l-0.42,0.54l0.06-0.06l-0.359,0.6l-0.3,0.6
	l-0.24,0.66v-0.06l-0.181,0.66l-0.119,0.72v-0.06v1.44l0.119,0.72v-0.06l0.181,0.66l0.24,0.66v-0.06l0.3,0.6l0.359,0.6h-0.06
	l0.84,1.08v-0.06l0.54,0.42l-0.3,0.36l-0.54-0.42h-0.061l-0.84-1.08v-0.06l-0.359-0.6l-0.301-0.6h-0.06l-0.24-0.66v-0.06
	c-0.446-1.221-0.412-3.101,0-4.32l0.24-0.66l0.06-0.06c0.651-1.506,1.793-2.69,3.181-3.54h0.06l0.66-0.3v-0.06l0.66-0.24l0.66-0.18
	h0.06l1.44-0.12h0.06l1.44,0.12l0.66,0.18h0.06l0.66,0.24v0.06l0.6,0.3c1.022,0.48,1.954,1.418,2.58,2.34h0.061l0.359,0.6
	c0.566,1.036,0.591,1.603,0.78,2.76l0.06,0.72"/>
<path d="M286.501,97.654l0.54,0.42h-0.06l0.54,0.36l0.659,0.3v-0.06l0.66,0.24h-0.06l0.66,0.18l0.72,0.12h-0.061h1.44l0.72-0.12
	h-0.06l0.66-0.18l0.66-0.24l-0.061,0.06l0.601-0.3l0.6-0.36l0.54-0.42l0.479-0.42l-0.06,0.06l0.479-0.54l0.421-0.54l0.359-0.6
	l0.3-0.6l-0.06,0.06l0.24-0.66v0.06l0.12-0.66l0.119-0.72l0.061-0.72v0.06l0.479-0.06v0.06l-0.06,0.72
	c-0.19,2.35-1.327,3.948-3.18,5.34l-0.601,0.36l-0.6,0.3c-2.027,0.846-4.417,0.737-6.36-0.3h-0.06l-0.54-0.36v-0.06l-0.54-0.42"/>
<text transform="matrix(1 0 0 1 288.6616 93.5137)" style="font-family:'ProductusSemibold'; font-size:7.98;">D</text>
<text transform="matrix(1 0 0 1 273.481 93.5137)"><tspan x="0" y="0" style="font-family:'ProductusSemibold'; font-size:7.98;">P</tspan><tspan x="4.134" y="0" style="font-family:'ProductusSemibold'; font-size:7.98;">3</tspan></text>
<path style="fill-rule:evenodd;clip-rule:evenodd;fill:#FFFFFF;" d="M319.141,92.374v-0.72l-0.119-0.72
	c-1.919-7.901-12.982-7.322-13.98,0.72l-0.06,0.72l0.06,0.72c0.937,8.051,12.14,8.615,13.98,0.72l0.119-0.72V92.374"/>
<path d="M318.902,92.374v-0.72v0.06l-0.12-0.72l-0.181-0.66v0.06l-0.239-0.66h0.06l-0.3-0.6l-0.36-0.6v0.06l-0.42-0.54l-0.42-0.48
	h0.061l-0.54-0.48l-0.54-0.42v0.06l-0.601-0.36l-0.6-0.3h0.06l-0.66-0.24l-0.659-0.18h0.06l-1.439-0.12h0.06l-1.44,0.12l-0.659,0.18
	h0.06l-0.66,0.24l-0.6,0.3l-0.601,0.36l0.061-0.06l-0.54,0.42l-0.96,0.96l-0.42,0.54l0.06-0.06l-0.359,0.6l-0.301,0.6l-0.239,0.66
	v-0.06l-0.181,0.66l-0.12,1.44v-0.06l0.12,1.44v-0.06l0.181,0.66l0.239,0.66v-0.06l0.301,0.6l0.359,0.6h-0.06l0.42,0.54l0.479,0.54
	v-0.06l0.48,0.42l-0.3,0.36l-0.48-0.42h-0.06l-0.48-0.54l-0.42-0.54v-0.06l-0.36-0.6l-0.3-0.6h-0.06l-0.24-0.66v-0.06l-0.18-0.66
	c-0.149-1.416-0.149-1.524,0-2.94v-0.06l0.18-0.66c0.248-0.785,0.845-1.858,1.38-2.46v-0.06l0.96-0.96h0.061
	c0.602-0.535,1.675-1.132,2.46-1.38l0.66-0.18h0.06c1.416-0.149,1.524-0.149,2.94,0l0.659,0.18h0.061l0.66,0.24v0.06l0.6,0.3
	c1.225,0.625,1.775,1.255,2.58,2.34h0.06l0.36,0.6c0.445,0.809,0.738,1.839,0.84,2.76v0.72"/>
<path d="M307.742,97.654l0.54,0.42h-0.061l0.601,0.36l0.6,0.3v-0.06l0.66,0.24h-0.06l0.659,0.18l0.721,0.12h-0.061h1.44l0.72-0.12
	h-0.06l0.659-0.18l0.66-0.24l-0.06,0.06l0.6-0.3l0.601-0.36l1.08-0.84l-0.061,0.06l0.84-1.08l0.36-0.6l0.3-0.6l-0.06,0.06
	l0.239-0.66l0.181-0.66v0.06l0.12-0.72v-0.72h0.479v0.72c-0.564,5.241-6.121,8.21-10.8,5.76l-0.6-0.36v-0.06l-0.54-0.42"/>
<text transform="matrix(1 0 0 1 310.4419 93.5137)"><tspan x="0" y="0" style="font-family:'ProductusSemibold'; font-size:7.98; letter-spacing:7;">C</tspan><tspan x="12.113" y="0" style="font-family:'ProductusSemibold'; font-size:7.98;">P</tspan><tspan x="16.311" y="0" style="font-family:'ProductusSemibold'; font-size:7.98;">2</tspan></text>
<path style="fill-rule:evenodd;clip-rule:evenodd;" d="M297.902,64.054l-0.061-0.72l-0.12-0.72
	c-1.757-7.923-12.941-7.318-13.979,0.72v1.44c1.066,8.025,12.202,8.605,13.979,0.72l0.12-0.72L297.902,64.054"/>
<path d="M297.662,64.114l-0.061-0.72l-0.119-0.72l-0.12-0.66v0.06l-0.24-0.66h0.06l-0.3-0.66l-0.359-0.54v0.06l-0.421-0.54
	l-0.479-0.54h0.06l-0.479-0.42l-0.54-0.42v0.06l-0.6-0.36l-0.601-0.3h0.061l-0.66-0.24l-0.66-0.18h0.06l-0.72-0.12h-1.44h0.061
	l-0.72,0.12l-0.66,0.18h0.06l-0.66,0.24l-0.659,0.3l-0.54,0.36l0.06-0.06l-1.08,0.84l-0.84,1.08l0.06-0.06l-0.359,0.54l-0.3,0.66
	l-0.24,0.66v-0.06l-0.181,0.66l-0.119,0.72v-0.06v1.44l0.119,0.72v-0.06l0.181,0.66l0.24,0.66v-0.06l0.3,0.6l0.359,0.6h-0.06
	l0.42,0.54l0.42,0.48v-0.06l0.54,0.48l-0.3,0.36l-0.54-0.48h-0.061l-0.42-0.48l-0.42-0.54v-0.06l-0.359-0.6l-0.301-0.6h-0.06
	l-0.24-0.66v-0.06l-0.18-0.66l-0.12-0.72v-1.5l0.12-0.72v-0.06l0.18-0.66l0.24-0.66h0.06l0.301-0.66v-0.06l0.359-0.54l0.84-1.08
	l0.061-0.06l1.08-0.84l0.54-0.36h0.06l0.66-0.3v-0.06l0.66-0.24l0.66-0.18h0.06l0.72-0.12h1.5l0.721,0.12l0.66,0.18h0.06l0.66,0.24
	v0.06l0.6,0.3c1.227,0.624,1.767,1.253,2.58,2.34h0.061l0.359,0.54v0.06l0.3,0.66l0.24,0.66v0.06l0.12,0.66l0.12,0.72l0.06,0.72"/>
<path d="M286.501,69.334l0.54,0.42h-0.06l0.54,0.36l0.659,0.3v-0.06l0.66,0.24h-0.06l0.66,0.12l0.72,0.12l0.72,0.06h-0.06l0.72-0.06
	l0.72-0.12l0.66-0.12h-0.06l0.66-0.24l-0.061,0.06l0.601-0.3l0.6-0.36l0.54-0.42h-0.061l0.96-0.96v0.06l0.421-0.54l0.359-0.6
	l0.3-0.6l-0.06,0.06l0.24-0.66v0.06l0.12-0.66l0.119-0.72l0.061-0.72v0.06l0.479-0.06v0.06l-0.06,0.72
	c-0.225,2.468-1.287,3.824-3.18,5.34l-0.601,0.36l-0.6,0.3c-2.032,0.776-4.416,0.698-6.36-0.3h-0.06l-0.54-0.36v-0.06l-0.54-0.42"/>
<text transform="matrix(1 0 0 1 289.3813 66.5737)" style="font-family:'ProductusSemibold'; font-size:7.98;">B</text>
<text transform="matrix(1 0 0 1 264.3618 135.2139)"><tspan x="0" y="0" style="font-family:'ProductusBook'; font-size:7.98;">P1</tspan><tspan x="6.456" y="0" style="font-family:'ProductusBook'; font-size:7.98;"> </tspan><tspan x="8.067" y="0" style="font-family:'ProductusBook'; font-size:7.98;">is</tspan><tspan x="12.448" y="0" style="font-family:'ProductusBook'; font-size:7.98;"> </tspan><tspan x="14.061" y="0" style="font-family:'ProductusBook'; font-size:7.98;">u</tspan><tspan x="17.739" y="0" style="font-family:'ProductusBook'; font-size:7.98;">n</tspan><tspan x="21.458" y="0" style="font-family:'ProductusBook'; font-size:7.98;">regist</tspan><tspan x="37.466" y="0" style="font-family:'ProductusBook'; font-size:7.98;">e</tspan><tspan x="41.001" y="0" style="font-family:'ProductusBook'; font-size:7.98;">r</tspan><tspan x="43.227" y="0" style="font-family:'ProductusBook'; font-size:7.98;">e</tspan><tspan x="46.762" y="0" style="font-family:'ProductusBook'; font-size:7.98;">d</tspan></text>
<text transform="matrix(1 0 0 1 264.3618 145.2334)"><tspan x="0" y="0" style="font-family:'ProductusBook'; font-size:7.98;">map</tspan><tspan x="12.76" y="0" style="font-family:'ProductusBook'; font-size:7.98;">p</tspan><tspan x="16.423" y="0" style="font-family:'ProductusBook'; font-size:7.98;">i</tspan><tspan x="18.043" y="0" style="font-family:'ProductusBook'; font-size:7.98;">n</tspan><tspan x="21.705" y="0" style="font-family:'ProductusBook'; font-size:7.98;">g</tspan><tspan x="25.185" y="0" style="font-family:'ProductusBook'; font-size:7.98;"> </tspan><tspan x="26.805" y="0" style="font-family:'ProductusBook'; font-size:7.98;">P3</tspan></text>
</svg>
