<?xml version="1.0" encoding="utf-8"?>
<!-- Generator: Adobe Illustrator 16.0.1, SVG Export Plug-In . SVG Version: 6.00 Build 0)  -->
<!DOCTYPE svg PUBLIC "-//W3C//DTD SVG 1.1//EN" "http://www.w3.org/Graphics/SVG/1.1/DTD/svg11.dtd">
<svg version="1.1" id="Layer_1" xmlns="http://www.w3.org/2000/svg" xmlns:xlink="http://www.w3.org/1999/xlink" x="0px" y="0px"
	 width="248.26px" height="118.307px" viewBox="0 0 248.26 118.307" enable-background="new 0 0 248.26 118.307"
	 xml:space="preserve">
<rect x="21.48" y="54.527" fill="#F7F7F7" width="85.02" height="63.779"/>
<polyline points="7.5,9.047 7.32,8.867 6.96,9.227 7.14,9.407 "/>
<polyline points="35.82,37.367 36,37.547 35.64,37.907 35.46,37.727 "/>
<polyline points="7.5,9.047 7.14,9.407 35.46,37.727 35.82,37.367 "/>
<polyline points="35.82,37.367 35.64,37.188 35.28,37.547 35.46,37.727 "/>
<polyline points="64.2,65.747 64.38,65.927 64.02,66.287 63.84,66.107 "/>
<polyline points="35.82,37.367 35.46,37.727 63.84,66.107 64.2,65.747 "/>
<polyline points="64.2,66.107 64.38,65.927 64.02,65.567 63.84,65.747 "/>
<polyline points="35.82,94.427 35.64,94.607 35.28,94.247 35.46,94.067 "/>
<polyline points="64.2,66.107 63.84,65.747 35.46,94.067 35.82,94.427 "/>
<rect x="63.78" y="65.688" width="0.48" height="0.239"/>
<rect x="63.78" y="65.927" width="0.48" height="28.562"/>
<polyline points="64.2,65.747 64.02,65.567 63.66,65.927 63.84,66.107 "/>
<polyline points="92.52,94.067 92.7,94.247 92.34,94.607 92.16,94.427 "/>
<polyline points="64.2,65.747 63.84,66.107 92.16,94.427 92.52,94.067 "/>
<text transform="matrix(1 0 0 1 44.8799 40.0071)" font-family="'ProductusSemibold'" font-size="7.98">Device</text>
<path fill="#808080" d="M14.4,9.227l-0.06-0.72l-0.06-0.72c-1.961-7.918-12.9-7.349-14.04,0.72v1.44
	c1.143,8.064,12.181,8.556,14.04,0.659l0.06-0.659L14.4,9.227"/>
<path d="M14.16,9.287L14.1,8.567l-0.06-0.721l-0.18-0.659v0.061l-0.24-0.66h0.06l-0.3-0.66l-0.36-0.54v0.062l-0.42-0.54l-0.48-0.54
	h0.06l-0.48-0.42l-0.54-0.421v0.061l-0.6-0.36l-0.6-0.3h0.06l-0.66-0.24L8.7,2.507h0.06l-0.72-0.12H6.6h0.06l-0.72,0.12L5.28,2.688
	h0.06L4.68,2.927l-0.6,0.3l-0.6,0.36l0.06-0.061L2.46,4.367l-0.84,1.08l0.06-0.062l-0.36,0.54l-0.3,0.66l-0.24,0.66V7.186L0.6,7.847
	l-0.12,0.72v-0.06v1.44l0.12,0.659v-0.061l0.18,0.72l0.24,0.66v-0.06l0.3,0.6l0.36,0.601H1.62l0.42,0.54l0.42,0.479v-0.061L3,14.507
	l-0.3,0.36l-0.54-0.48H2.1l-0.42-0.479l-0.42-0.54v-0.062l-0.36-0.6l-0.3-0.601H0.54L0.3,11.448v-0.062l-0.18-0.72L0,10.007v-1.5
	l0.12-0.72V7.727l0.18-0.66l0.24-0.659H0.6l0.3-0.66V5.687c0.935-1.535,1.896-2.415,3.54-3.181L4.5,2.446l0.66-0.239
	c1.219-0.412,3.1-0.447,4.32,0h0.06l0.66,0.239v0.061l0.6,0.3c1.225,0.624,1.766,1.253,2.58,2.341h0.06l0.36,0.54v0.061l0.3,0.66
	l0.24,0.659l0.18,0.659v0.062l0.06,0.72l0.06,0.72"/>
<path d="M3,14.507l0.54,0.42H3.48l0.6,0.36l0.6,0.239v-0.061l0.66,0.24H5.28l0.66,0.18l0.72,0.12l0.72,0.061H7.32l0.72-0.061
	l0.72-0.12H8.7l0.66-0.18l0.66-0.24v0.061l0.6-0.239h-0.06l0.6-0.36l0.54-0.42h-0.06l0.96-0.96v0.061l0.42-0.54l0.36-0.601l0.3-0.6
	l-0.06,0.06l0.24-0.66l0.18-0.72v0.061l0.06-0.659l0.06-0.722v0.062l0.48-0.062v0.062l-0.06,0.72
	c-0.135,2.338-1.387,3.947-3.18,5.34l-0.6,0.36l-0.6,0.24c-2.329,0.895-4.04,0.74-6.3-0.24H3.84l-0.6-0.36v-0.06l-0.54-0.42"/>
<rect x="28.56" y="87.167" fill="#F7F7F7" width="14.16" height="14.16"/>
<rect x="28.56" y="86.927" width="14.4" height="0.48"/>
<rect x="42.48" y="87.167" width="0.48" height="14.399"/>
<rect x="28.32" y="101.087" width="14.4" height="0.479"/>
<rect x="28.32" y="86.927" width="0.48" height="14.4"/>
<path d="M42.72,37.547v-0.72l-0.12-0.721c-1.956-7.933-12.961-7.308-13.98,0.721l-0.06,0.72l0.06,0.72
	c0.993,8.067,12.096,8.628,13.98,0.721l0.12-0.721V37.547"/>
<path d="M42.48,37.547v-0.72v0.06l-0.12-0.72l-0.18-0.66v0.061l-0.24-0.659H42l-0.3-0.602l-0.36-0.6v0.06l-0.42-0.54l-0.42-0.479
	h0.06l-0.54-0.48l-0.54-0.42v0.062l-0.54-0.36H39l-0.66-0.3l-0.66-0.24l-0.66-0.18h0.06l-1.44-0.12h0.06l-1.44,0.12l-0.66,0.18h0.06
	L33,31.247l-0.6,0.3l-0.6,0.36l0.06-0.062l-0.54,0.42l-0.96,0.96l-0.42,0.54l0.06-0.06l-0.36,0.6l-0.3,0.602l-0.24,0.659v-0.061
	l-0.12,0.66l-0.12,0.72l-0.06,0.721v-0.061l0.06,0.72l0.12,0.721l0.12,0.66v-0.061l0.24,0.66v-0.061l0.3,0.601l0.36,0.6h-0.06
	l0.42,0.54l0.48,0.54v-0.06l0.48,0.42l-0.3,0.359l-0.48-0.421h-0.06L30,42.227l-0.42-0.539v-0.061l-0.36-0.601l-0.3-0.601h-0.06
	l-0.24-0.66v-0.06l-0.12-0.66c-0.237-1.211-0.237-1.729,0-2.939l0.12-0.659v-0.062c0.248-0.785,0.845-1.857,1.38-2.46v-0.06
	l0.96-0.96h0.06c0.601-0.535,1.675-1.133,2.46-1.381l0.66-0.181h0.06c1.416-0.149,1.524-0.149,2.94,0l0.66,0.181h0.06l0.66,0.239
	v0.062l0.66,0.3c1.218,0.719,1.685,1.207,2.52,2.34h0.06l0.36,0.601c0.445,0.81,0.738,1.84,0.84,2.761v0.72"/>
<path d="M31.32,42.827l0.54,0.42H31.8l0.6,0.359l0.6,0.301v-0.062l0.66,0.24H33.6l0.66,0.18l0.72,0.12h-0.06h1.44l0.72-0.12h-0.06
	l0.66-0.18l0.66-0.24v0.062L39,43.607h-0.06l0.54-0.359l1.08-0.84l-0.06,0.06l0.84-1.08l0.36-0.6l0.3-0.601l-0.06,0.061l0.24-0.66
	l0.18-0.66v0.061l0.12-0.721v-0.72h0.48v0.72c-0.574,5.254-6.107,8.207-10.8,5.761l-0.6-0.359v-0.061l-0.54-0.42"/>
<path fill="#FFFFFF" d="M71.1,65.927l-0.06-0.72l-0.12-0.721c-1.705-7.927-12.985-7.334-13.98,0.721v1.439
	c1.033,8.021,12.326,8.555,13.98,0.659l0.12-0.659L71.1,65.927"/>
<path d="M70.86,65.987l-0.06-0.721l-0.24-1.438l0.06,0.06l-0.24-0.6l-0.3-0.66l-0.36-0.54v0.061l-0.42-0.601l-0.96-0.96l0.06,0.061
	l-0.54-0.359l-0.6-0.36l-0.6-0.3h0.06l-0.66-0.24l-0.66-0.18h0.06l-0.72-0.12l-0.72-0.061h0.06l-0.72,0.061l-0.72,0.12l-0.66,0.18
	h0.06l-0.66,0.24l-0.66,0.3l-1.08,0.721l0.06-0.061l-0.54,0.479l-0.42,0.479h0.06l-0.42,0.601v-0.061l-0.36,0.54l-0.3,0.66
	l-0.24,0.6v-0.06l-0.18,0.72l-0.12,0.72v-0.06v1.439l0.12,0.659v-0.06l0.18,0.72l0.24,0.66v-0.061l0.3,0.601l0.36,0.6h-0.06
	l0.42,0.54l0.42,0.48v-0.062l0.54,0.48l-0.3,0.359l-0.54-0.479H58.8l-0.42-0.479l-0.42-0.54v-0.061l-0.36-0.6l-0.3-0.602h-0.06
	L57,68.147v-0.061l-0.18-0.72l-0.12-0.66v-1.5l0.12-0.721v-0.061l0.18-0.72h0.06l0.24-0.601l0.3-0.66v-0.061l0.36-0.54l0.42-0.6
	l0.42-0.48l0.06-0.06l0.54-0.48l1.08-0.72h0.06l0.66-0.3v-0.061l0.66-0.24l0.66-0.181h0.06l0.72-0.119l0.72-0.061h0.06l0.72,0.061
	l0.72,0.119l0.66,0.181h0.06l0.66,0.24v0.061l0.6,0.3c2.219,1.119,3.601,3.211,3.78,5.7l0.06,0.72"/>
<path d="M59.7,71.207l0.54,0.42h-0.06l0.54,0.3l0.66,0.3v-0.06l0.66,0.24h-0.06l0.66,0.18l0.72,0.12l0.72,0.06h-0.06l0.72-0.06
	l0.72-0.12H65.4l0.66-0.18l0.66-0.24l-0.06,0.06l1.2-0.6l0.54-0.42h-0.06l0.96-0.96v0.06l0.42-0.54l0.36-0.6l0.3-0.601l-0.06,0.061
	l0.24-0.66v0.061l0.12-0.721l0.12-0.659l0.06-0.721v0.061l0.48-0.061v0.061l-0.06,0.721c-0.24,2.491-1.269,3.801-3.18,5.34
	l-1.2,0.601c-2.289,0.889-4.16,0.764-6.36-0.301h-0.06l-0.54-0.3v-0.061l-0.54-0.42"/>
<rect x="56.94" y="87.167" fill="#F7F7F7" width="14.16" height="14.16"/>
<rect x="56.94" y="86.927" width="14.4" height="0.48"/>
<rect x="70.86" y="87.167" width="0.48" height="14.399"/>
<rect x="56.7" y="101.087" width="14.4" height="0.479"/>
<rect x="56.7" y="86.927" width="0.48" height="14.4"/>
<rect x="85.26" y="87.167" fill="#F7F7F7" width="14.16" height="14.16"/>
<rect x="85.26" y="86.927" width="14.4" height="0.48"/>
<rect x="99.18" y="87.167" width="0.48" height="14.399"/>
<rect x="85.02" y="101.087" width="14.4" height="0.479"/>
<rect x="85.02" y="86.927" width="0.48" height="14.4"/>
<text transform="matrix(1 0 0 1 75.1196 69.5471)" font-family="'ProductusSemibold'" font-size="7.98">Battery</text>
<text transform="matrix(1 0 0 1 28.6802 108.8879)" font-family="'ProductusBook'" font-size="7.98">Level</text>
<text transform="matrix(1 0 0 1 57.4321 108.8879)" font-family="'ProductusBook'" font-size="7.98">Temp</text>
<text transform="matrix(1 0 0 1 85.7534 108.8879)" font-family="'ProductusBook'" font-size="7.98">Cycles</text>
<text transform="matrix(1 0 0 1 18.6606 6.6477)" font-family="'ProductusBook'" font-size="7.98">.</text>
<text transform="matrix(1 0 0 1 72.6602 20.3879)" font-family="'ProductusBook'" font-size="7.98">Scaffold node</text>
<polyline points="47.46,29.147 48.3,31.127 48.72,31.907 47.76,31.787 43.56,31.247 42.66,31.188 43.2,30.467 45.72,27.047 
	46.26,26.267 46.62,27.167 46.56,27.647 44.04,31.067 43.2,30.467 43.74,30.227 47.94,30.767 47.76,31.787 47.4,31.547 
	46.56,29.567 "/>
<polyline points="46.62,27.167 47.46,29.147 46.56,29.567 45.72,27.587 "/>
<polyline points="47.04,29.327 47.88,31.307 43.68,30.767 46.2,27.347 "/>
<polyline points="47.46,28.967 47.28,29.027 47.46,29.448 47.64,29.387 "/>
<polyline points="71.04,18.887 71.22,18.827 71.4,19.247 71.22,19.307 "/>
<polyline points="47.46,28.967 47.64,29.387 71.22,19.307 71.04,18.887 "/>
<polyline points="75.84,59.567 76.68,61.547 77.04,62.327 76.2,62.207 71.94,61.727 70.98,61.667 71.58,60.887 74.16,57.467 
	74.64,56.807 75,57.647 74.94,58.127 72.36,61.547 71.58,60.887 72.06,60.707 76.32,61.188 76.2,62.207 75.78,61.967 74.94,59.987 
	"/>
<polyline points="75,57.647 75.84,59.567 74.94,59.987 74.1,58.067 "/>
<polyline points="75.42,59.747 76.26,61.727 72,61.247 74.58,57.827 "/>
<polyline points="75.84,59.387 75.66,59.448 75.84,59.867 76.02,59.807 "/>
<polyline points="99.36,49.367 99.54,49.307 99.72,49.727 99.54,49.787 "/>
<polyline points="75.84,59.387 76.02,59.807 99.54,49.787 99.36,49.367 "/>
<text transform="matrix(1 0 0 1 102.7197 42.2268)" enable-background="new    "><tspan x="0" y="0" font-family="'ProductusBook'" font-size="7.98">Plugin Root Node for</tspan><tspan x="0" y="9.576" font-family="'ProductusBook'" font-size="7.98">plugin with root ./Device/Battery</tspan></text>
<path d="M205.74,93.527l-0.06-0.721l-0.24-0.659c-1.289-3.144-5.893-2.845-6.721,0.659l-0.061,0.721l0.061,0.721
	c0.824,3.381,5.301,3.865,6.721,0.66l0.24-0.66L205.74,93.527"/>
<path d="M205.5,93.587l-0.06-0.72v0.06l-0.24-0.66h0.061l-0.301-0.6v0.06l-0.42-0.539h0.061l-0.539-0.421v0.062l-0.602-0.36h0.061
	l-0.66-0.18h0.061l-0.72-0.062h0.062l-0.722,0.062l-0.66,0.18h0.062l-0.602,0.36l0.061-0.062l-0.539,0.421l-0.42,0.539l0.06-0.06
	l-0.3,0.6l-0.24,0.66v-0.06l-0.061,0.72v-0.061l0.061,0.721v-0.061l0.24,0.659v-0.06l0.3,0.6h-0.06l0.42,0.48v-0.062l0.539,0.48
	h-0.061l0.602,0.3v-0.061l0.66,0.239h-0.062l0.722,0.062H202.2l0.72-0.062h-0.06l0.66-0.239l-0.062,0.061l0.601-0.3l0.541-0.48
	l-0.062,0.062l0.42-0.48l0.301-0.6l-0.061,0.06l0.239-0.659v0.061l0.061-0.721l0.48,0.061l-0.062,0.72v0.062
	c-0.426,1.289-0.61,1.45-1.62,2.34l-0.6,0.3l-0.66,0.24c-0.768,0.082-1.568,0.14-2.279-0.24H200.7l-0.6-0.3v-0.061l-0.541-0.479
	h-0.06l-0.42-0.479v-0.061l-0.3-0.601h-0.061l-0.24-0.659c-0.722-4.122,4.467-6.424,6.84-2.94h0.061l0.301,0.601v0.061l0.239,0.66
	v0.06l0.062,0.721"/>
<polyline points="205.5,93.527 205.5,93.587 205.979,93.527 205.979,93.587 "/>
<text transform="matrix(1 0 0 1 209.04 95.387)" font-family="'ProductusBook'" font-size="7.98">Scaffold node</text>
</svg>
