<?xml version="1.0" encoding="utf-8"?>
<!-- Generator: Adobe Illustrator 16.0.0, SVG Export Plug-In . SVG Version: 6.00 Build 0)  -->
<!DOCTYPE svg PUBLIC "-//W3C//DTD SVG 1.1//EN" "http://www.w3.org/Graphics/SVG/1.1/DTD/svg11.dtd">
<svg version="1.1" id="Layer_1" xmlns="http://www.w3.org/2000/svg" xmlns:xlink="http://www.w3.org/1999/xlink" x="0px" y="0px"
	 width="84.841px" height="132.708px" viewBox="0 0 84.841 132.708" style="enable-background:new 0 0 84.841 132.708;"
	 xml:space="preserve">
<polyline points="35.88,40.487 36.06,40.308 35.7,39.947 35.52,40.127 "/>
<polyline points="7.5,68.868 7.32,69.047 6.96,68.688 7.14,68.507 "/>
<polyline points="35.88,40.487 35.52,40.127 7.14,68.507 7.5,68.868 "/>
<rect x="63.78" y="96.768" width="0.48" height="0.24"/>
<rect x="63.78" y="97.007" width="0.48" height="28.62"/>
<rect x="35.46" y="40.067" width="0.48" height="0.24"/>
<rect x="35.46" y="40.308" width="0.48" height="28.62"/>
<polyline points="63.84,68.868 64.02,69.047 64.38,68.688 64.2,68.507 "/>
<polyline points="35.52,40.487 35.34,40.308 35.7,39.947 35.88,40.127 "/>
<polyline points="63.84,68.868 64.2,68.507 35.88,40.127 35.52,40.487 "/>
<rect x="63.78" y="68.447" width="0.48" height="0.24"/>
<rect x="63.78" y="68.688" width="0.48" height="28.56"/>
<polyline points="7.5,11.808 7.32,11.627 6.96,11.987 7.14,12.167 "/>
<polyline points="35.88,40.127 36.06,40.308 35.7,40.667 35.52,40.487 "/>
<polyline points="7.5,11.808 7.14,12.167 35.52,40.487 35.88,40.127 "/>
<path style="fill-rule:evenodd;clip-rule:evenodd;fill:#808080;" d="M14.4,11.987v-0.72l-0.12-0.72
	C12.396,2.641,1.293,3.201,0.3,11.268l-0.06,0.72l0.06,0.72c1.019,8.027,12.024,8.652,13.98,0.72l0.12-0.72V11.987"/>
<path d="M14.16,11.987v-0.72v0.06l-0.12-0.72l-0.18-0.66v0.06l-0.24-0.66h0.06l-0.3-0.6l-0.36-0.6v0.06l-0.84-1.08h0.06l-1.08-0.84
	v0.06l-0.54-0.36h0.06l-0.66-0.3l-0.66-0.24L8.7,5.268h0.06l-0.72-0.12H6.6h0.06l-0.72,0.12l-0.66,0.18h0.06l-0.66,0.24l-0.6,0.3
	l-0.6,0.36l0.06-0.06L3,6.708l-0.48,0.42l-0.48,0.54l-0.42,0.54l0.06-0.06l-0.36,0.6l-0.3,0.6l-0.24,0.66v-0.06l-0.12,0.66
	l-0.12,0.72l-0.06,0.72v-0.06l0.06,0.72l0.12,0.72l0.12,0.66v-0.06l0.24,0.66v-0.06l0.3,0.6l0.36,0.6H1.62l0.42,0.54v-0.06L3,17.268
	l-0.3,0.36H2.64l-0.96-0.96l-0.42-0.54v-0.06l-0.36-0.6l-0.3-0.6H0.54l-0.24-0.66v-0.06c-0.621-2.331-0.248-4.942,1.38-6.78
	l0.48-0.54l0.06-0.06c1.866-1.871,4.733-2.629,7.26-1.8h0.06l0.66,0.24v0.06l0.66,0.3c1.397,0.882,1.563,0.991,2.52,2.34h0.06
	l0.36,0.6c0.445,0.809,0.738,1.839,0.84,2.76v0.72"/>
<path d="M3,17.268l0.54,0.42H3.48l0.6,0.36l0.6,0.3v-0.06l0.66,0.24H5.28l0.66,0.18l1.44,0.12H7.32l1.44-0.12H8.7l0.66-0.18
	l0.66-0.24v0.06l0.66-0.3h-0.06l0.54-0.36l0.54-0.42l0.54-0.48l-0.06,0.06l0.42-0.48l0.42-0.54l0.36-0.6l0.3-0.6l-0.06,0.06
	l0.24-0.66l0.18-0.66v0.06l0.12-0.72v-0.72h0.48v0.72c-0.597,5.279-6.077,8.155-10.8,5.76l-0.6-0.36v-0.06l-0.54-0.42"/>
<path style="fill-rule:evenodd;clip-rule:evenodd;fill:#FFFFFF;" d="M42.78,40.308l-0.06-0.72l-0.12-0.72
	c-1.778-7.885-12.913-7.305-13.98,0.72v1.44c1.038,8.038,12.223,8.643,13.98,0.72l0.12-0.72L42.78,40.308"/>
<path d="M42.54,40.368l-0.06-0.72l-0.12-0.72l-0.12-0.66v0.06L42,37.667h0.06l-0.3-0.6l-0.36-0.6v0.06l-0.42-0.54l-0.96-0.96h0.06
	l-0.54-0.42v0.06l-0.6-0.36l-0.6-0.3h0.06l-0.66-0.24h0.06l-0.66-0.12l-0.72-0.12l-0.72-0.06h0.06l-0.72,0.06l-0.72,0.12l-0.66,0.12
	h0.06l-0.66,0.24l-0.66,0.3l-0.54,0.36l0.06-0.06l-0.54,0.42l-0.54,0.48l-0.42,0.48L30,36.527l0.06-0.06l-0.36,0.6l-0.3,0.6
	l-0.24,0.66v-0.06l-0.18,0.66l-0.12,0.72v-0.06v1.44l0.12,0.72v-0.06l0.18,0.66l0.24,0.66l0.3,0.66v-0.06l0.36,0.54H30l0.84,1.08
	v-0.06l0.54,0.42l-0.3,0.36l-0.54-0.42h-0.06l-0.84-1.08v-0.06l-0.36-0.54l-0.3-0.66h-0.06l-0.24-0.66v-0.06
	c-0.447-1.22-0.412-3.101,0-4.32l0.24-0.66l0.06-0.06c0.651-1.506,1.793-2.69,3.18-3.54h0.06l0.66-0.3v-0.06l0.66-0.24h0.06
	l0.66-0.12l0.72-0.12l0.72-0.06h0.06l0.72,0.06l0.72,0.12l0.66,0.12h0.06l0.66,0.24v0.06l0.6,0.3c1.022,0.48,1.955,1.418,2.58,2.34
	h0.06l0.36,0.6c0.566,1.035,0.591,1.603,0.78,2.76l0.06,0.72"/>
<path d="M31.38,45.587l0.54,0.42h-0.06l0.54,0.36l0.66,0.3v-0.06l0.66,0.24h-0.06l0.66,0.18l0.72,0.12h-0.06h1.44l0.72-0.12h-0.06
	l0.66-0.18l0.66-0.24l-0.06,0.06l0.6-0.3l0.6-0.36l0.54-0.42l0.48-0.42l-0.06,0.06l0.48-0.54l0.42-0.54l0.36-0.54v0.06l0.3-0.66H42
	l0.24-0.66v0.06l0.12-0.66l0.12-0.72l0.06-0.72v0.06l0.48-0.06v0.06l-0.06,0.72c-0.211,2.417-1.285,3.887-3.18,5.34l-0.6,0.36
	l-0.6,0.3c-2.027,0.846-4.417,0.737-6.36-0.3h-0.06l-0.54-0.36v-0.06l-0.54-0.42"/>
<text transform="matrix(1 0 0 1 20.73 11.8975)" style="font-family:'ProductusBook'; font-size:7.98;">.</text>
<text transform="matrix(1 0 0 1 7.3198 12.5273)" style="font-family:'ProductusSemibold'; font-size:7.98;">.</text>
<path style="fill-rule:evenodd;clip-rule:evenodd;fill:#FFFFFF;" d="M71.1,97.007v-0.72l-0.12-0.72
	c-1.918-7.901-12.981-7.322-13.979,0.72l-0.061,0.72L57,97.728c0.937,8.051,12.14,8.615,13.979,0.72l0.12-0.72V97.007"/>
<polyline points="70.86,97.007 70.86,96.288 70.86,96.348 70.74,95.627 70.56,94.968 70.56,95.027 70.32,94.368 70.38,94.368 
	70.8,94.127 70.8,94.188 71.041,94.848 71.22,95.507 71.22,95.567 71.34,96.288 71.34,97.007 "/>
<polyline points="70.38,94.368 70.081,93.768 70.5,93.527 70.8,94.127 "/>
<polyline points="70.081,93.768 70.5,93.527 70.38,93.348 69.96,93.587 "/>
<polyline points="67.44,91.127 67.26,91.007 66.66,90.708 66.72,90.708 66.06,90.468 65.4,90.288 65.46,90.288 65.52,89.808 
	66.18,89.987 66.24,89.987 66.9,90.228 66.9,90.288 67.5,90.587 67.68,90.708 "/>
<polyline points="65.46,90.288 64.74,90.228 64.8,89.748 65.52,89.808 "/>
<polyline points="64.74,90.228 64.8,89.748 64.081,89.688 64.02,90.167 "/>
<polyline points="60.6,91.127 60.18,91.368 60.24,91.308 59.7,91.728 58.74,92.688 58.38,92.388 58.38,92.328 59.34,91.368 
	59.4,91.368 59.94,90.947 60.36,90.708 "/>
<polyline points="58.74,92.688 58.32,93.228 58.38,93.167 57.96,92.928 58.38,92.388 "/>
<polyline points="58.38,93.167 57.96,92.928 57.72,93.348 58.14,93.587 "/>
<polyline points="57.18,97.007 57.24,97.728 57.3,98.447 57.3,98.388 57.48,99.047 57.72,99.708 57.72,99.647 57.3,99.888 
	57.24,99.888 57,99.228 57,99.167 56.82,98.507 56.7,97.067 56.7,97.007 "/>
<polyline points="57.72,99.647 58.02,100.248 57.6,100.487 57.3,99.888 "/>
<polyline points="58.02,100.248 57.6,100.487 57.72,100.667 58.14,100.428 "/>
<polyline points="60.6,102.947 60.78,103.067 61.38,103.368 61.38,103.308 62.041,103.547 61.98,103.547 62.64,103.728 
	62.581,104.208 62.52,104.208 61.86,104.027 61.2,103.788 61.14,103.788 60.541,103.487 60.36,103.368 "/>
<polyline points="62.64,103.728 63.36,103.848 63.3,103.848 63.3,104.328 62.581,104.208 "/>
<rect x="63.3" y="103.848" width="0.72" height="0.48"/>
<polyline points="67.44,102.947 67.86,102.708 68.94,101.868 68.88,101.928 69.3,101.388 69.66,101.688 69.24,102.228 
	68.16,103.067 68.1,103.127 67.68,103.368 "/>
<polyline points="69.3,101.388 69.72,100.848 70.14,101.087 70.081,101.147 69.66,101.688 "/>
<polyline points="69.72,100.848 70.14,101.087 70.38,100.667 69.96,100.428 "/>
<path style="fill-rule:evenodd;clip-rule:evenodd;" d="M71.1,68.688v-0.72l-0.12-0.72C69.139,59.35,57.936,59.914,57,67.968
	l-0.061,0.72L57,69.408c0.971,8.027,12.09,8.601,13.979,0.72l0.12-0.72V68.688"/>
<path d="M70.86,68.688v-0.72v0.06l-0.12-0.72l-0.18-0.66v0.06l-0.24-0.66h0.061l-0.3-0.66l-0.36-0.54v0.06l-0.84-1.08h0.06
	l-1.08-0.84v0.06l-0.6-0.36l-0.601-0.3h0.061l-0.66-0.24l-0.66-0.18h0.061l-0.721-0.12H63.3h0.06l-0.72,0.12l-0.66,0.18h0.061
	l-0.66,0.24l-0.601,0.3l-0.6,0.36l0.06-0.06l-0.54,0.42l-0.479,0.42l-0.48,0.54l-0.42,0.54l0.061-0.06l-0.36,0.54l-0.3,0.66
	l-0.24,0.66v-0.06l-0.18,0.66l-0.061,0.72l-0.06,0.72v-0.06l0.06,0.72l0.061,0.72v-0.06l0.18,0.66l0.24,0.66v-0.06l0.3,0.6l0.36,0.6
	H58.32l0.42,0.54v-0.06l0.96,0.96l-0.3,0.36h-0.06l-0.96-0.96l-0.42-0.54v-0.06l-0.36-0.6l-0.3-0.6H57.24L57,70.908v-0.06
	l-0.181-0.66l-0.06-0.72l-0.061-0.72v-0.06l0.061-0.72l0.06-0.72v-0.06L57,66.527l0.239-0.66H57.3l0.3-0.66v-0.06
	c0.85-1.387,2.034-2.529,3.54-3.18l0.06-0.06l0.66-0.24c1.219-0.412,3.101-0.447,4.32,0h0.06l0.66,0.24v0.06l0.601,0.3
	c1.385,0.769,1.676,1.066,2.58,2.34h0.06l0.36,0.54v0.06l0.3,0.66l0.24,0.66l0.18,0.66v0.06l0.12,0.72v0.72"/>
<path d="M59.7,73.968l0.54,0.42h-0.06l0.6,0.36l0.601,0.3v-0.06l0.66,0.24H61.98l0.66,0.12l0.72,0.12l0.721,0.06H64.02l0.72-0.06
	l0.721-0.12l0.659-0.12h-0.06l0.66-0.24l-0.061,0.06l0.601-0.3l0.6-0.36l0.54-0.42l0.54-0.48l-0.06,0.06l0.42-0.48l0.42-0.54
	l0.36-0.6l0.3-0.6l-0.061,0.06l0.24-0.66l0.18-0.66v0.06l0.12-0.72v-0.72h0.48v0.72c-0.609,5.295-6.042,8.11-10.8,5.76l-0.601-0.36
	v-0.06l-0.54-0.42"/>
<text transform="matrix(1 0 0 1 34.1401 42.1675)" style="font-family:'ProductusSemibold'; font-size:7.98;">A</text>
<text transform="matrix(1 0 0 1 61.8003 98.8677)" style="font-family:'ProductusSemibold'; font-size:7.98;">B</text>
<text transform="matrix(1 0 0 1 7.3203 12.5273)" style="font-family:'ProductusSemibold'; font-size:7.98;">.</text>
<text transform="matrix(1 0 0 1 51.0005 42.1675)"><tspan x="0" y="0" style="font-family:'ProductusSemibold'; font-size:7.98;">P</tspan><tspan x="4.134" y="0" style="font-family:'ProductusSemibold'; font-size:7.98;">1</tspan></text>
<text transform="matrix(1 0 0 1 62.3403 71.0879)" style="font-family:'ProductusSemibold'; font-size:7.98;">X</text>
<text transform="matrix(1 0 0 1 76.981 94.6084)"><tspan x="0" y="0" style="font-family:'ProductusSemibold'; font-size:7.98;">P</tspan><tspan x="4.134" y="0" style="font-family:'ProductusSemibold'; font-size:7.98;">2</tspan></text>
<rect x="56.94" y="118.308" style="fill:#F7F7F7;" width="14.16" height="14.16"/>
<rect x="56.94" y="118.067" width="14.4" height="0.48"/>
<rect x="70.86" y="118.308" width="0.48" height="14.4"/>
<rect x="56.7" y="132.228" width="14.4" height="0.48"/>
<rect x="56.7" y="118.067" width="0.48" height="14.4"/>
<text transform="matrix(1 0 0 1 60.48 127.1875)" style="font-family:'ProductusSemibold'; font-size:7.98;">g</text>
<rect x="28.62" y="61.607" style="fill:#F7F7F7;" width="14.16" height="14.16"/>
<rect x="28.62" y="61.368" width="14.4" height="0.48"/>
<rect x="42.54" y="61.607" width="0.48" height="14.4"/>
<rect x="28.38" y="75.527" width="14.4" height="0.48"/>
<rect x="28.38" y="61.368" width="0.48" height="14.4"/>
<text transform="matrix(1 0 0 1 33.54 70.4873)" style="font-family:'ProductusSemibold'; font-size:7.98;">g</text>
<text transform="matrix(1 0 0 1 28.6206 90.5278)"><tspan x="0" y="0" style="font-family:'ProductusSemibold'; font-size:7.98;">mo</tspan><tspan x="10.669" y="0" style="font-family:'ProductusSemibold'; font-size:7.98;">u</tspan><tspan x="14.986" y="0" style="font-family:'ProductusSemibold'; font-size:7.98;">n</tspan><tspan x="19.239" y="0" style="font-family:'ProductusSemibold'; font-size:7.98;">t</tspan></text>
<text transform="matrix(1 0 0 1 28.6206 100.5474)"><tspan x="0" y="0" style="font-family:'ProductusSemibold'; font-size:7.98;">poin</tspan><tspan x="15.098" y="0" style="font-family:'ProductusSemibold'; font-size:7.98;">t</tspan></text>
<rect x="0.24" y="61.607" style="fill:#F7F7F7;" width="14.16" height="14.16"/>
<rect x="0.24" y="61.368" width="14.4" height="0.48"/>
<rect x="14.16" y="61.607" width="0.48" height="14.4"/>
<rect y="75.527" width="14.4" height="0.48"/>
<rect y="61.368" width="0.48" height="14.4"/>
<text transform="matrix(1 0 0 1 5.2202 70.4873)" style="font-family:'ProductusSemibold'; font-size:7.98;">f</text>
</svg>
