<?xml version="1.0" encoding="utf-8"?>
<!-- Generator: Adobe Illustrator 16.0.1, SVG Export Plug-In . SVG Version: 6.00 Build 0)  -->
<!DOCTYPE svg PUBLIC "-//W3C//DTD SVG 1.1//EN" "http://www.w3.org/Graphics/SVG/1.1/DTD/svg11.dtd">
<svg version="1.1" id="Layer_1" xmlns="http://www.w3.org/2000/svg" xmlns:xlink="http://www.w3.org/1999/xlink" x="0px" y="0px"
	 width="111.197px" height="132.708px" viewBox="0 0 111.197 132.708" enable-background="new 0 0 111.197 132.708"
	 xml:space="preserve">
<rect x="63.78" y="68.448" width="0.479" height="0.239"/>
<rect x="63.78" y="68.688" width="0.479" height="28.561"/>
<rect x="92.101" y="68.448" width="0.479" height="0.239"/>
<rect x="92.101" y="68.688" width="0.479" height="28.561"/>
<polyline points="35.82,97.188 36,97.006 35.64,96.647 35.46,96.829 "/>
<polyline points="7.5,125.567 7.32,125.749 6.96,125.388 7.14,125.208 "/>
<polyline points="35.82,97.188 35.46,96.829 7.14,125.208 7.5,125.567 "/>
<rect x="35.4" y="96.768" width="0.479" height="0.24"/>
<rect x="35.4" y="97.006" width="0.479" height="28.621"/>
<rect x="35.4" y="68.448" width="0.479" height="0.239"/>
<rect x="35.4" y="68.688" width="0.479" height="28.561"/>
<polyline points="64.2,40.487 64.38,40.308 64.021,39.947 63.84,40.127 "/>
<polyline points="35.82,68.868 35.64,69.047 35.28,68.688 35.46,68.506 "/>
<polyline points="64.2,40.487 63.84,40.127 35.46,68.506 35.82,68.868 "/>
<polyline points="64.2,40.127 64.021,39.947 63.66,40.308 63.84,40.487 "/>
<polyline points="92.521,68.506 92.7,68.688 92.34,69.047 92.16,68.868 "/>
<polyline points="64.2,40.127 63.84,40.487 92.16,68.868 92.521,68.506 "/>
<rect x="63.78" y="40.067" width="0.479" height="0.24"/>
<rect x="63.78" y="40.308" width="0.479" height="28.62"/>
<polyline points="64.2,40.127 64.021,39.947 63.66,40.308 63.84,40.487 "/>
<polyline points="92.521,68.506 92.7,68.688 92.34,69.047 92.16,68.868 "/>
<polyline points="64.2,40.127 63.84,40.487 92.16,68.868 92.521,68.506 "/>
<polyline points="35.82,11.808 35.64,11.627 35.28,11.987 35.46,12.167 "/>
<polyline points="64.2,40.127 64.38,40.308 64.021,40.667 63.84,40.487 "/>
<polyline points="35.82,11.808 35.46,12.167 63.84,40.487 64.2,40.127 "/>
<polyline points="64.2,40.127 64.021,39.947 63.66,40.308 63.84,40.487 "/>
<polyline points="92.521,68.506 92.7,68.688 92.34,69.047 92.16,68.868 "/>
<polyline points="64.2,40.127 63.84,40.487 92.16,68.868 92.521,68.506 "/>
<path fill="#808080" d="M42.78,11.987l-0.06-0.72l-0.12-0.72c-1.917-7.882-12.816-7.424-13.98,0.72l-0.06,0.72l0.06,0.72
	c1.16,8.127,12.066,8.581,13.98,0.72l0.12-0.72L42.78,11.987"/>
<path d="M42.54,12.047l-0.06-0.72l-0.12-0.72l-0.18-0.66v0.06l-0.24-0.66H42l-0.3-0.6l-0.36-0.6l-0.359-0.54v0.06l-0.48-0.54h0.061
	l-0.48-0.42v0.06l-0.6-0.42l-0.54-0.36H39l-0.66-0.3l-0.6-0.24l-0.72-0.18h0.06l-0.66-0.12h-1.5h0.061l-0.66,0.12l-0.72,0.18h0.06
	L33,5.688l-0.6,0.3L31.8,6.348l0.061-0.06l-0.54,0.42l-0.48,0.42l-0.479,0.54l0.06-0.06l-0.359,0.54l-0.36,0.6l-0.3,0.6l-0.24,0.66
	v-0.06l-0.18,0.66l-0.12,0.72l-0.061,0.72v-0.06l0.061,0.72l0.12,0.72v-0.06l0.18,0.66l0.24,0.66v-0.06l0.3,0.6l0.36,0.6l0.359,0.54
	l-0.06-0.06l0.96,0.96l-0.3,0.36H30.96L30,16.667v-0.06l-0.359-0.54l-0.36-0.6l-0.3-0.6H28.92l-0.239-0.66v-0.06
	c-1.049-2.966,0.349-6.492,2.88-8.22l0.6-0.36l0.6-0.3l0.061-0.06c1.156-0.507,2.414-0.604,3.66-0.54l0.66,0.12l0.72,0.18l0.06,0.06
	l0.601,0.24l0.66,0.3l0.54,0.36h0.06l0.6,0.42l0.48,0.42v0.06l0.479,0.54H41.4l0.359,0.54c0.678,0.997,1.062,2.166,1.2,3.36
	l0.061,0.72"/>
<path d="M31.32,17.268l0.54,0.42H31.8l0.601,0.36l0.6,0.3v-0.06l0.66,0.24H33.6l0.72,0.18l0.66,0.06l0.72,0.06h-0.06l0.779-0.06
	l0.66-0.06h-0.06l0.72-0.18v0.06l0.6-0.24l0.66-0.3h-0.06l0.54-0.36l0.6-0.42h-0.06l0.96-0.96v0.06l0.359-0.54l0.36-0.6l0.3-0.6
	l-0.06,0.06l0.24-0.66l0.18-0.66v0.06l0.12-0.72l0.06-0.72v0.06l0.48-0.06v0.06c-0.105,2.22-0.938,4.124-2.641,5.58v0.06l-0.6,0.42
	h-0.06c-0.828,0.627-2.188,1.129-3.24,1.14l-0.78,0.06h-0.06l-0.721-0.06l-0.66-0.06H34.2l-0.72-0.18l-0.66-0.24H32.76l-0.6-0.3
	l-0.6-0.36v-0.06l-0.54-0.42"/>
<path d="M71.101,40.308l-0.062-0.72l-0.06-0.66c-1.859-7.896-12.897-7.406-14.04,0.66v1.44c1.14,8.068,12.079,8.638,14.04,0.72
	L71.101,40.308"/>
<path d="M70.86,40.368l-0.062-0.72l-0.06-0.66l-0.18-0.72v0.06l-0.24-0.66h0.06l-0.3-0.6l-0.359-0.6v0.06l-0.421-0.54l-0.96-0.96
	H68.4l-0.54-0.42v0.06l-0.602-0.36h0.062l-0.601-0.24l-0.659-0.24l-0.66-0.18h0.06l-0.72-0.12l-0.72-0.06h0.06l-0.72,0.06
	l-0.72,0.12l-0.66,0.18h0.06l-0.66,0.24l-0.6,0.24l-0.601,0.36l0.061-0.06l-0.54,0.42l-0.54,0.48l-0.42,0.48l-0.42,0.54l0.06-0.06
	l-0.358,0.6l-0.301,0.6l-0.239,0.66v-0.06l-0.182,0.72l-0.119,0.66v-0.06v1.44l0.119,0.72v-0.06l0.182,0.66l0.239,0.66l0.301,0.66
	v-0.06l0.358,0.54h-0.06l0.84,1.08v-0.06l0.54,0.42l-0.3,0.36l-0.54-0.42H58.8l-0.84-1.08v-0.06l-0.358-0.54l-0.302-0.66h-0.06
	L57,42.527v-0.06c-0.461-1.302-0.396-3.011,0-4.32l0.24-0.66l0.06-0.06c0.654-1.49,1.812-2.76,3.24-3.54h0.062l0.6-0.24v-0.06
	l0.66-0.24l0.66-0.18h0.06l0.72-0.12l0.722-0.06h0.06l0.72,0.06l0.722,0.12l0.659,0.18h0.061l0.66,0.24v0.06l0.6,0.24
	c1.022,0.48,1.955,1.418,2.58,2.34h0.062l0.358,0.6c0.426,0.782,0.778,1.861,0.78,2.76l0.06,0.72"/>
<path d="M59.7,45.587l0.54,0.42h-0.06l0.601,0.36l0.6,0.3v-0.06l0.66,0.24h-0.06l0.66,0.18l0.72,0.12H63.3h1.44l0.72-0.12H65.4
	l0.66-0.18l0.659-0.24l-0.061,0.06l0.6-0.3l0.602-0.36l0.54-0.42l0.479-0.42l-0.06,0.06l0.479-0.54l0.42-0.54l0.36-0.54v0.06
	l0.3-0.66h-0.06l0.24-0.66l0.18-0.66v0.06l0.06-0.72l0.062-0.72v0.06l0.479-0.06v0.06c0.009,5.531-5.919,9.009-10.8,6.42l-0.6-0.36
	v-0.06l-0.54-0.42"/>
<path fill="#FFFFFF" d="M99.42,68.688v-0.721l-0.12-0.719c-1.906-7.887-12.855-7.41-13.979,0.719l-0.062,0.721l0.062,0.721
	c1.119,8.11,12.075,8.584,13.979,0.719l0.12-0.719V68.688"/>
<path d="M99.18,68.688v-0.721v0.061l-0.119-0.72l-0.182-0.66v0.06l-0.238-0.66h0.06l-0.3-0.6l-0.36-0.6l-0.359-0.54v0.06
	l-0.479-0.54h0.061l-0.479-0.42v0.06l-0.601-0.42l-0.539-0.36h0.06l-0.66-0.3l-0.66-0.24l-0.659-0.18h0.061l-0.72-0.12h-1.44h0.061
	l-0.659,0.12l-0.721,0.18h0.061l-0.66,0.24l-0.6,0.3l-0.602,0.36l0.062-0.06l-0.54,0.42l-0.48,0.42l-0.479,0.54l-0.42,0.54
	l0.06-0.06l-0.6,1.2l-0.24,0.66v-0.06l-0.181,0.66l-0.119,0.72l-0.062,0.721v-0.061l0.062,0.721l0.119,0.719v-0.06l0.181,0.66
	l0.24,0.66v-0.06l0.6,1.199h-0.06l0.42,0.54v-0.06l0.96,0.959l-0.301,0.361h-0.061l-0.96-0.961l-0.42-0.539v-0.061l-0.601-1.2
	h-0.061l-0.24-0.659v-0.061c-0.81-2.305-0.152-4.908,1.32-6.78l0.479-0.54l0.061-0.06c1.864-1.868,4.738-2.624,7.26-1.8h0.062
	l0.659,0.24v0.06l0.659,0.3c0.959,0.602,1.46,0.859,2.16,1.8h0.062l0.358,0.54c0.678,0.997,1.062,2.166,1.2,3.359v0.721"/>
<path d="M88.021,73.967l0.54,0.42H88.5l0.602,0.359l0.6,0.301v-0.061l0.66,0.24H90.3l0.722,0.18l0.659,0.061l0.721,0.06H92.34
	l1.44-0.12h-0.06l0.659-0.18l0.66-0.24v0.061l0.66-0.301h-0.06l0.539-0.359l0.601-0.42h-0.06l0.96-0.961v0.061l0.359-0.54
	l0.36-0.601l0.3-0.6l-0.06,0.061l0.238-0.66l0.182-0.66v0.061l0.119-0.721v-0.72h0.479v0.72c-0.213,1.959-1.076,3.637-2.58,4.92
	v0.061l-0.6,0.42h-0.06c-0.643,0.559-2.42,1.184-3.3,1.14l-0.72,0.06H92.34l-0.72-0.06l-0.66-0.06H90.9l-0.721-0.18l-0.659-0.24
	H89.46l-0.6-0.301l-0.602-0.359v-0.061l-0.539-0.42"/>
<text transform="matrix(1 0 0 1 47.0398 6.6479)" font-family="'ProductusBook'" font-size="7.98">.</text>
<text transform="matrix(1 0 0 1 35.6399 12.5278)" font-family="'ProductusSemibold'" font-size="7.98">.</text>
<path fill="#FFFFFF" d="M71.101,68.688l-0.12-1.439c-2.021-7.936-12.852-7.352-14.04,0.719v1.441
	c1.187,8.057,12.023,8.631,14.04,0.719L71.101,68.688"/>
<path d="M70.86,68.749l-0.062-0.721l-0.06-0.72l-0.18-0.66v0.06l-0.24-0.66h0.06l-0.3-0.6l-0.359-0.6v0.06l-0.421-0.54l-0.479-0.54
	h0.06l-0.479-0.42l-0.54-0.42v0.06l-0.602-0.36l-0.6-0.3h0.061l-0.659-0.24l-0.66-0.18h0.06l-0.72-0.12H63.3h0.062l-0.72,0.12
	l-0.66,0.18h0.06l-0.66,0.24l-0.6,0.3l-0.601,0.36l0.061-0.06l-1.08,0.84l-0.84,1.08l0.06-0.06l-0.358,0.6l-0.301,0.6l-0.239,0.66
	v-0.06l-0.182,0.66l-0.119,0.72v-0.061v1.441l0.119,0.719v-0.06l0.182,0.66l0.239,0.66v-0.06l0.301,0.6l0.358,0.6h-0.06l0.42,0.54
	l0.42,0.479v-0.059l0.54,0.479l-0.3,0.361l-0.54-0.48H58.8l-0.42-0.48l-0.42-0.539v-0.061l-0.358-0.6L57.3,71.568h-0.06L57,70.909
	v-0.061c-0.748-2.309-0.207-4.948,1.38-6.78l0.42-0.54l0.062-0.06c2.151-1.888,4.521-2.622,7.319-1.8h0.061l0.66,0.24v0.06l0.6,0.3
	c1.228,0.624,1.768,1.253,2.58,2.34h0.062l0.358,0.6c0.401,0.746,0.813,1.903,0.78,2.759l0.06,0.721"/>
<path d="M59.7,73.967l0.54,0.42h-0.06l0.601,0.359l0.6,0.301v-0.061l0.66,0.24h-0.06l0.66,0.18l1.438,0.12h-0.06l1.438-0.12H65.4
	l0.66-0.18l0.659-0.24l-0.061,0.061l0.6-0.301l0.602-0.359l0.54-0.42H68.34l0.96-0.961v0.061l0.421-0.54l0.359-0.601l0.3-0.6
	l-0.06,0.061l0.24-0.66l0.18-0.66v0.061l0.06-0.721l0.062-0.72v0.06l0.479-0.06v0.06c0.012,5.547-5.946,8.969-10.8,6.42l-0.6-0.359
	v-0.061l-0.54-0.42"/>
<path d="M42.78,69.527l-0.06-0.72l-0.12-0.721c-1.902-7.878-12.881-7.344-13.98,0.721l-0.06,0.72l0.06,0.72
	c1.143,8.145,12.088,8.596,13.98,0.721l0.12-0.721L42.78,69.527"/>
<path d="M42.54,69.586l-0.06-0.719l-0.12-0.721l-0.18-0.66v0.061l-0.24-0.66H42l-0.3-0.6l-0.36-0.6l-0.359-0.54v0.06l-0.96-0.96
	l0.06,0.06l-0.6-0.42l-0.54-0.36H39l-0.66-0.3l-0.6-0.24h0.06l-0.72-0.12l-0.66-0.12l-0.779-0.06h0.06l-0.72,0.06l-0.66,0.12
	l-0.72,0.12h0.06L33,63.228l-0.6,0.3l-0.601,0.36l0.061-0.06l-0.54,0.42l-0.96,0.96l0.06-0.06l-0.359,0.54l-0.36,0.6l-0.3,0.6
	l-0.24,0.659v-0.059l-0.18,0.659l-0.12,0.72L28.8,69.588v-0.061l0.061,0.721l0.12,0.719v-0.059l0.18,0.659l0.24,0.66l0.3,0.66v-0.06
	l0.72,1.08h-0.06l0.479,0.539v-0.06l0.48,0.42l-0.3,0.36l-0.48-0.42h-0.06L30,74.208v-0.06l-0.72-1.08l-0.3-0.659H28.92l-0.239-0.66
	v-0.061c-1.282-3.729,1.106-8.051,4.8-9.18h0.06l0.72-0.12c3.857-0.874,7.893,1.785,8.58,5.7l0.12,0.72l0.061,0.72"/>
<path d="M31.32,74.808l0.54,0.42H31.8l0.601,0.36l0.6,0.3v-0.06l0.66,0.239H33.6l0.72,0.181l0.66,0.119H34.92h1.5l0.66-0.119h-0.06
	l0.72-0.181v0.06l0.6-0.239l0.66-0.3h-0.06l0.54-0.36l0.6-0.42l0.48-0.42l-0.061,0.06l0.48-0.539l0.72-1.08v0.06l0.3-0.66h-0.06
	l0.24-0.66l0.18-0.659v0.059l0.12-0.719l0.06-0.721v0.061l0.48-0.061v0.061c-0.073,2.115-0.969,4.24-2.641,5.58v0.06l-0.6,0.42
	h-0.06c-0.938,0.705-2.096,1.032-3.24,1.2H34.92l-0.66-0.12H34.2l-0.72-0.181l-0.66-0.239H32.76l-0.6-0.3l-0.6-0.36v-0.06
	l-0.54-0.42"/>
<path fill="#FFFFFF" d="M42.78,97.006l-0.06-0.719l-0.12-0.721c-1.902-7.879-12.881-7.345-13.98,0.721l-0.06,0.719l0.06,0.721
	c1.143,8.145,12.088,8.596,13.98,0.721l0.12-0.721L42.78,97.006"/>
<path d="M42.54,97.067l-0.06-0.72l-0.12-0.72l-0.18-0.66v0.06l-0.24-0.659H42l-0.3-0.601l-0.36-0.601l-0.359-0.539v0.06l-0.96-0.96
	l0.06,0.061l-0.6-0.42l-0.54-0.361H39l-0.66-0.299l-0.6-0.24h0.06l-0.72-0.12l-0.66-0.12l-0.779-0.061h0.06l-0.72,0.061l-0.66,0.12
	l-0.72,0.12h0.06L33,90.708l-0.6,0.301L31.8,91.368l0.061-0.06l-0.54,0.42l-0.96,0.96l0.06-0.061l-0.359,0.541l-0.36,0.6l-0.3,0.6
	l-0.24,0.66v-0.061l-0.18,0.66l-0.12,0.721l-0.061,0.72v-0.06l0.061,0.72l0.12,0.72v-0.06l0.18,0.659l0.24,0.66l0.3,0.66v-0.06
	l0.72,1.08h-0.06l0.479,0.54v-0.061l0.48,0.42l-0.3,0.36l-0.48-0.42h-0.06l-0.48-0.54v-0.061l-0.72-1.08l-0.3-0.659H28.92
	l-0.239-0.66v-0.06c-1.282-3.729,1.106-8.051,4.8-9.18h0.06l0.72-0.121c3.857-0.873,7.893,1.785,8.58,5.7l0.12,0.72l0.061,0.721"/>
<path d="M31.32,102.288l0.54,0.42H31.8l0.601,0.36l0.6,0.3v-0.06l0.66,0.239H33.6l0.72,0.181l0.66,0.12H34.92h1.5l0.66-0.12h-0.06
	l0.72-0.181v0.061l0.6-0.24l0.66-0.3h-0.06l0.54-0.36l0.6-0.42l0.48-0.42l-0.061,0.061l0.48-0.54l0.72-1.08v0.06l0.3-0.66h-0.06
	l0.24-0.66l0.18-0.659v0.06l0.12-0.72l0.06-0.72v0.06l0.48-0.06v0.06c-0.073,2.115-0.969,4.24-2.641,5.58v0.06l-0.6,0.42h-0.06
	c-0.938,0.705-2.096,1.033-3.24,1.201H34.92l-0.66-0.121H34.2l-0.72-0.18l-0.66-0.24H32.76l-0.6-0.3l-0.6-0.36v-0.06l-0.54-0.42"/>
<text transform="matrix(1 0 0 1 90.8396 70.4878)" font-family="'ProductusSemibold'" font-size="7.98">B</text>
<text transform="matrix(1 0 0 1 61.7996 70.4878)" font-family="'ProductusSemibold'" font-size="7.98">C</text>
<text transform="matrix(1 0 0 1 34.2004 98.9878)" font-family="'ProductusSemibold'" font-size="7.98">Y</text>
<text transform="matrix(1 0 0 1 35.6409 12.5278)" font-family="'ProductusSemibold'" font-size="7.98">.</text>
<text transform="matrix(1 0 0 1 103.6804 70.4878)" font-family="'ProductusSemibold'" font-size="7.98">P1</text>
<text transform="matrix(1 0 0 1 62.5808 42.8882)" font-family="'ProductusSemibold'" font-size="7.98">A</text>
<text transform="matrix(1 0 0 1 34.0208 71.9282)" font-family="'ProductusSemibold'" font-size="7.98">X</text>
<text transform="matrix(1 0 0 1 73.2605 70.6685)" font-family="'ProductusSemibold'" font-size="7.98">P2</text>
<text transform="matrix(1 0 0 1 44.8806 98.9282)" font-family="'ProductusSemibold'" font-size="7.98">P3</text>
<rect x="0.24" y="118.308" fill="#F7F7F7" width="14.16" height="14.159"/>
<rect x="0.24" y="118.067" width="14.4" height="0.48"/>
<rect x="14.16" y="118.308" width="0.48" height="14.399"/>
<rect x="0" y="132.228" width="14.4" height="0.479"/>
<rect x="0" y="118.067" width="0.48" height="14.4"/>
<text transform="matrix(1 0 0 1 3.72 127.188)" font-family="'ProductusSemibold'" font-size="7.98">ya</text>
<rect x="28.56" y="118.308" fill="#F7F7F7" width="14.22" height="14.159"/>
<rect x="28.56" y="118.067" width="14.46" height="0.48"/>
<rect x="42.54" y="118.308" width="0.48" height="14.399"/>
<rect x="28.32" y="132.228" width="14.46" height="0.479"/>
<rect x="28.32" y="118.067" width="0.479" height="14.4"/>
<text transform="matrix(1 0 0 1 32.0999 127.188)" font-family="'ProductusSemibold'" font-size="7.98">yb</text>
<rect x="56.94" y="89.928" fill="#F7F7F7" width="14.16" height="14.16"/>
<rect x="56.94" y="89.688" width="14.398" height="0.48"/>
<rect x="70.86" y="89.928" width="0.479" height="14.4"/>
<rect x="56.7" y="103.848" width="14.4" height="0.48"/>
<rect x="56.7" y="89.688" width="0.479" height="14.4"/>
<text transform="matrix(1 0 0 1 60.4197 98.8677)" font-family="'ProductusSemibold'" font-size="7.98">ca</text>
<rect x="85.26" y="89.928" fill="#F7F7F7" width="14.16" height="14.16"/>
<rect x="85.26" y="89.688" width="14.4" height="0.48"/>
<rect x="99.18" y="89.928" width="0.479" height="14.4"/>
<rect x="85.021" y="103.848" width="14.398" height="0.48"/>
<rect x="85.021" y="89.688" width="0.479" height="14.4"/>
<text transform="matrix(1 0 0 1 88.7996 98.8677)" font-family="'ProductusSemibold'" font-size="7.98">ba</text>
</svg>
