<?xml version="1.0" encoding="utf-8"?>
<!-- Generator: Adobe Illustrator 16.0.0, SVG Export Plug-In . SVG Version: 6.00 Build 0)  -->
<!DOCTYPE svg PUBLIC "-//W3C//DTD SVG 1.1//EN" "http://www.w3.org/Graphics/SVG/1.1/DTD/svg11.dtd">
<svg version="1.1" id="Layer_1" xmlns="http://www.w3.org/2000/svg" xmlns:xlink="http://www.w3.org/1999/xlink" x="0px" y="0px"
	 width="340.14px" height="269.28px" viewBox="0 0 340.14 269.28" style="enable-background:new 0 0 340.14 269.28;"
	 xml:space="preserve">
<rect x="85.02" style="fill:#E6E6E6;" width="255.12" height="42.48"/>
<rect x="278.76" y="8.4" width="54.3" height="27"/>
<rect x="278.76" y="8.16" width="54.539" height="0.48"/>
<rect x="332.82" y="8.4" width="0.479" height="27.24"/>
<rect x="278.52" y="35.16" width="54.54" height="0.48"/>
<rect x="278.52" y="8.16" width="0.479" height="27.24"/>
<rect x="276.36" y="6.6" style="fill:#FFFFFF;" width="54.36" height="27"/>
<rect x="276.36" y="6.36" width="54.6" height="0.48"/>
<rect x="330.48" y="6.6" width="0.479" height="27.24"/>
<rect x="276.12" y="33.36" width="54.601" height="0.48"/>
<rect x="276.12" y="6.36" width="0.48" height="27.24"/>
<text transform="matrix(1 0 0 1 278.7603 13.7402)"><tspan x="0" y="0" style="font-family:'ProductusOSGiBookc'; font-size:7.98;">DMT</tspan><tspan x="14.587" y="0" style="font-family:'ProductusOSGiBookc'; font-size:7.98;"> </tspan><tspan x="16.151" y="0" style="font-family:'ProductusOSGiBookc'; font-size:7.98;">A</tspan><tspan x="20.054" y="0" style="font-family:'ProductusOSGiBookc'; font-size:7.98;">d</tspan><tspan x="23.717" y="0" style="font-family:'ProductusOSGiBookc'; font-size:7.98;">m</tspan><tspan x="29.462" y="0" style="font-family:'ProductusOSGiBookc'; font-size:7.98;">i</tspan><tspan x="30.97" y="0" style="font-family:'ProductusOSGiBookc'; font-size:7.98;">n</tspan><tspan x="34.641" y="0" style="font-family:'ProductusOSGiBookc'; font-size:7.98;"> </tspan><tspan x="36.253" y="0" style="font-family:'ProductusOSGiBookc'; font-size:7.98;">I</tspan><tspan x="37.824" y="0" style="font-family:'ProductusOSGiBookc'; font-size:7.98;">m</tspan><tspan x="43.53" y="0" style="font-family:'ProductusOSGiBookc'; font-size:7.98;">p</tspan><tspan x="47.217" y="0" style="font-family:'ProductusOSGiBookc'; font-size:7.98;">l</tspan></text>
<rect x="94.5" y="8.22" width="54.299" height="27"/>
<rect x="94.5" y="7.98" width="54.54" height="0.479"/>
<rect x="148.56" y="8.22" width="0.479" height="27.24"/>
<rect x="94.26" y="34.98" width="54.54" height="0.48"/>
<rect x="94.26" y="7.98" width="0.48" height="27.24"/>
<rect x="92.1" y="6.42" style="fill:#FFFFFF;" width="54.36" height="27"/>
<rect x="92.1" y="6.18" width="54.6" height="0.48"/>
<rect x="146.22" y="6.42" width="0.48" height="27.24"/>
<rect x="91.86" y="33.18" width="54.6" height="0.48"/>
<rect x="91.86" y="6.18" width="0.48" height="27.24"/>
<text transform="matrix(1 0 0 1 94.5 13.5)"><tspan x="0" y="0" style="font-family:'ProductusOSGiBookc'; font-size:7.98;">Ses</tspan><tspan x="9.999" y="0" style="font-family:'ProductusOSGiBookc'; font-size:7.98;">s</tspan><tspan x="12.76" y="0" style="font-family:'ProductusOSGiBookc'; font-size:7.98;">ion</tspan><tspan x="21.745" y="0" style="font-family:'ProductusOSGiBookc'; font-size:7.98;"> </tspan><tspan x="23.309" y="0" style="font-family:'ProductusOSGiBookc'; font-size:7.98;">Im</tspan><tspan x="30.611" y="0" style="font-family:'ProductusOSGiBookc'; font-size:7.98;">pl</tspan></text>
<rect y="226.74" style="fill:#E6E6E6;" width="155.879" height="42.54"/>
<rect x="94.5" y="171.42" width="54.299" height="27"/>
<rect x="94.5" y="171.18" width="54.54" height="0.48"/>
<rect x="148.56" y="171.42" width="0.479" height="27.24"/>
<rect x="94.26" y="198.18" width="54.54" height="0.48"/>
<rect x="94.26" y="171.18" width="0.48" height="27.24"/>
<rect x="92.1" y="169.62" style="fill:#FFFFFF;" width="54.36" height="27"/>
<rect x="92.1" y="169.38" width="54.6" height="0.48"/>
<rect x="146.22" y="169.62" width="0.48" height="27.24"/>
<rect x="91.86" y="196.38" width="54.6" height="0.48"/>
<rect x="91.86" y="169.38" width="0.48" height="27.24"/>
<text transform="matrix(1 0 0 1.0522 94.5 176.7603)"><tspan x="0" y="0" style="font-family:'ProductusOSGiBookc'; font-size:7.5841;">&lt;</tspan><tspan x="2.806" y="0" style="font-family:'ProductusOSGiBookc'; font-size:7.5841;">&lt;</tspan><tspan x="5.566" y="0" style="font-family:'ProductusOSGiBookc'; font-size:7.5841;">s</tspan><tspan x="8.213" y="0" style="font-family:'ProductusOSGiBookc'; font-size:7.5841;">e</tspan><tspan x="11.512" y="0" style="font-family:'ProductusOSGiBookc'; font-size:7.5841;">rv</tspan><tspan x="16.662" y="0" style="font-family:'ProductusOSGiBookc'; font-size:7.5841;">i</tspan><tspan x="18.103" y="0" style="font-family:'ProductusOSGiBookc'; font-size:7.5841;">c</tspan><tspan x="20.985" y="0" style="font-family:'ProductusOSGiBookc'; font-size:7.5841;">e&gt;</tspan><tspan x="27.112" y="0" style="font-family:'ProductusOSGiBookc'; font-size:7.5841;">&gt;</tspan></text>
<text transform="matrix(1 0 0 1 94.5 185.2803)"><tspan x="0" y="0" style="font-family:'ProductusSemibold'; font-size:7.98;">Data</tspan><tspan x="16.431" y="0" style="font-family:'ProductusSemibold'; font-size:7.98;"> </tspan><tspan x="18.465" y="0" style="font-family:'ProductusSemibold'; font-size:7.98;">P</tspan><tspan x="22.623" y="0" style="font-family:'ProductusSemibold'; font-size:7.98;">lugi</tspan><tspan x="35.287" y="0" style="font-family:'ProductusSemibold'; font-size:7.98;">n</tspan></text>
<rect x="278.76" y="171.84" width="54.3" height="26.58"/>
<rect x="278.76" y="171.6" width="54.539" height="0.48"/>
<rect x="332.82" y="171.84" width="0.479" height="26.82"/>
<rect x="278.52" y="198.18" width="54.54" height="0.48"/>
<rect x="278.52" y="171.6" width="0.479" height="26.82"/>
<rect x="276.36" y="170.1" style="fill:#FFFFFF;" width="54.36" height="26.52"/>
<rect x="276.36" y="169.86" width="54.6" height="0.48"/>
<rect x="330.48" y="170.1" width="0.479" height="26.76"/>
<rect x="276.12" y="196.38" width="54.601" height="0.48"/>
<rect x="276.12" y="169.86" width="0.48" height="26.76"/>
<text transform="matrix(1 0 0 1.0522 278.7603 177.1802)"><tspan x="0" y="0" style="font-family:'ProductusOSGiBookc'; font-size:7.5841;">&lt;</tspan><tspan x="2.806" y="0" style="font-family:'ProductusOSGiBookc'; font-size:7.5841;">&lt;</tspan><tspan x="5.566" y="0" style="font-family:'ProductusOSGiBookc'; font-size:7.5841;">s</tspan><tspan x="8.214" y="0" style="font-family:'ProductusOSGiBookc'; font-size:7.5841;">e</tspan><tspan x="11.513" y="0" style="font-family:'ProductusOSGiBookc'; font-size:7.5841;">rv</tspan><tspan x="16.662" y="0" style="font-family:'ProductusOSGiBookc'; font-size:7.5841;">i</tspan><tspan x="18.103" y="0" style="font-family:'ProductusOSGiBookc'; font-size:7.5841;">c</tspan><tspan x="20.984" y="0" style="font-family:'ProductusOSGiBookc'; font-size:7.5841;">e&gt;</tspan><tspan x="27.112" y="0" style="font-family:'ProductusOSGiBookc'; font-size:7.5841;">&gt;</tspan></text>
<text transform="matrix(1 0 0 1 278.7603 185.7002)"><tspan x="0" y="0" style="font-family:'ProductusSemibold'; font-size:7.98;">E</tspan><tspan x="3.95" y="0" style="font-family:'ProductusSemibold'; font-size:7.98;">x</tspan><tspan x="7.725" y="0" style="font-family:'ProductusSemibold'; font-size:7.98;">ec</tspan><tspan x="15.568" y="0" style="font-family:'ProductusSemibold'; font-size:7.98;"> </tspan><tspan x="17.604" y="0" style="font-family:'ProductusSemibold'; font-size:7.98;">P</tspan><tspan x="21.737" y="0" style="font-family:'ProductusSemibold'; font-size:7.98;">l</tspan><tspan x="23.892" y="0" style="font-family:'ProductusSemibold'; font-size:7.98;">u</tspan><tspan x="28.192" y="0" style="font-family:'ProductusSemibold'; font-size:7.98;">g</tspan><tspan x="32.207" y="0" style="font-family:'ProductusSemibold'; font-size:7.98;">i</tspan><tspan x="34.361" y="0" style="font-family:'ProductusSemibold'; font-size:7.98;">n</tspan></text>
<polyline style="fill-rule:evenodd;clip-rule:evenodd;" points="318.9,198.42 333.06,184.26 333.06,198.42 "/>
<polyline points="318.72,198.24 333.299,183.66 333.299,184.26 333.24,184.44 319.08,198.6 "/>
<rect x="332.82" y="184.26" width="0.479" height="14.4"/>
<polyline points="333.06,198.66 318.299,198.66 318.72,198.24 318.9,198.18 333.06,198.18 "/>
<polyline style="fill-rule:evenodd;clip-rule:evenodd;" points="134.64,197.76 148.799,183.54 148.799,197.76 "/>
<polyline points="134.46,197.58 148.62,183.36 149.04,182.94 149.04,183.54 148.98,183.72 134.82,197.94 "/>
<rect x="148.56" y="183.54" width="0.479" height="14.46"/>
<polyline points="148.799,198 134.04,198 134.46,197.58 134.64,197.52 148.799,197.52 "/>
<rect x="9.42" y="51.36" width="54.36" height="26.58"/>
<rect x="9.42" y="51.12" width="54.6" height="0.48"/>
<rect x="63.54" y="51.36" width="0.48" height="26.82"/>
<rect x="9.18" y="77.7" width="54.6" height="0.48"/>
<rect x="9.18" y="51.12" width="0.48" height="26.82"/>
<rect x="7.08" y="49.62" style="fill:#FFFFFF;" width="54.3" height="26.58"/>
<rect x="7.08" y="49.38" width="54.54" height="0.48"/>
<rect x="61.14" y="49.62" width="0.48" height="26.82"/>
<rect x="6.84" y="75.96" width="54.54" height="0.48"/>
<rect x="6.84" y="49.38" width="0.48" height="26.82"/>
<text transform="matrix(1 0 0 1.0522 9.4199 56.7002)"><tspan x="0" y="0" style="font-family:'ProductusOSGiBookc'; font-size:7.5841;">&lt;</tspan><tspan x="2.776" y="0" style="font-family:'ProductusOSGiBookc'; font-size:7.5841;">&lt;</tspan><tspan x="5.589" y="0" style="font-family:'ProductusOSGiBookc'; font-size:7.5841;">interfa</tspan><tspan x="23.093" y="0" style="font-family:'ProductusOSGiBookc'; font-size:7.5841;">c</tspan><tspan x="26.028" y="0" style="font-family:'ProductusOSGiBookc'; font-size:7.5841;">e&gt;</tspan><tspan x="32.095" y="0" style="font-family:'ProductusOSGiBookc'; font-size:7.5841;">&gt;</tspan></text>
<text transform="matrix(1 0 0 1 9.4199 65.2202)"><tspan x="0" y="0" style="font-family:'ProductusSemibold'; font-size:7.98;">R</tspan><tspan x="4.253" y="0" style="font-family:'ProductusSemibold'; font-size:7.98;">eadable</tspan><tspan x="31.257" y="0" style="font-family:'ProductusSemibold'; font-size:7.98;"> </tspan><tspan x="32.223" y="0" style="font-family:'ProductusSemibold'; font-size:7.98;">D</tspan><tspan x="37.601" y="0" style="font-family:'ProductusSemibold'; font-size:7.98;">ata</tspan><tspan x="48.645" y="0" style="font-family:'ProductusSemibold'; font-size:7.98;"> </tspan></text>
<text transform="matrix(1 0 0 1 9.4199 73.6807)"><tspan x="0" y="0" style="font-family:'ProductusSemibold'; font-size:7.98;">Sessio</tspan><tspan x="21.562" y="0" style="font-family:'ProductusSemibold'; font-size:7.98;">n</tspan></text>
<rect x="94.5" y="235.2" width="54.299" height="27"/>
<rect x="94.5" y="234.96" width="54.54" height="0.48"/>
<rect x="148.56" y="235.2" width="0.479" height="27.24"/>
<rect x="94.26" y="261.96" width="54.54" height="0.48"/>
<rect x="94.26" y="234.96" width="0.48" height="27.24"/>
<rect x="92.1" y="233.4" style="fill:#FFFFFF;" width="54.36" height="27"/>
<rect x="92.1" y="233.16" width="54.6" height="0.48"/>
<rect x="146.22" y="233.4" width="0.48" height="27.24"/>
<rect x="91.86" y="260.16" width="54.6" height="0.48"/>
<rect x="91.86" y="233.16" width="0.48" height="27.24"/>
<text transform="matrix(1 0 0 1 94.5 240.54)"><tspan x="0" y="0" style="font-family:'ProductusOSGiBookc'; font-size:7.98;">Data</tspan><tspan x="13.853" y="0" style="font-family:'ProductusOSGiBookc'; font-size:7.98;"> </tspan><tspan x="15.417" y="0" style="font-family:'ProductusOSGiBookc'; font-size:7.98;">P</tspan><tspan x="18.673" y="0" style="font-family:'ProductusOSGiBookc'; font-size:7.98;">l</tspan><tspan x="20.181" y="0" style="font-family:'ProductusOSGiBookc'; font-size:7.98;">ug</tspan><tspan x="27.315" y="0" style="font-family:'ProductusOSGiBookc'; font-size:7.98;">i</tspan><tspan x="28.823" y="0" style="font-family:'ProductusOSGiBookc'; font-size:7.98;">n</tspan><tspan x="32.478" y="0" style="font-family:'ProductusOSGiBookc'; font-size:7.98;"> I</tspan><tspan x="35.654" y="0" style="font-family:'ProductusOSGiBookc'; font-size:7.98;">m</tspan><tspan x="41.359" y="0" style="font-family:'ProductusOSGiBookc'; font-size:7.98;">p</tspan><tspan x="45.038" y="0" style="font-family:'ProductusOSGiBookc'; font-size:7.98;">l</tspan></text>
<rect x="113.16" y="170.1" width="0.48" height="0.24"/>
<rect x="113.16" y="35.16" width="0.48" height="134.94"/>
<polyline points="120.48,209.94 117.18,209.94 117.36,209.28 120.48,198.36 123.6,209.28 123.78,209.94 123.12,209.94 
	122.64,209.58 120,200.34 120.96,200.04 120.96,200.34 118.32,209.58 117.36,209.28 117.84,208.92 120.48,208.92 "/>
<rect x="120.48" y="208.92" width="2.64" height="1.02"/>
<polyline style="fill-rule:evenodd;clip-rule:evenodd;" points="120.48,209.46 117.84,209.46 120.48,200.22 123.12,209.46 "/>
<rect x="120.24" y="233.88" width="0.48" height="0.24"/>
<rect x="120.24" y="209.7" width="0.48" height="24.18"/>
<polyline style="fill:#E6E6E6;" points="269.28,226.74 340.14,226.74 340.14,269.28 269.28,269.28 "/>
<rect x="278.76" y="235.68" width="54.3" height="27"/>
<rect x="278.76" y="235.44" width="54.539" height="0.48"/>
<rect x="332.82" y="235.68" width="0.479" height="27.24"/>
<rect x="278.52" y="262.44" width="54.54" height="0.48"/>
<rect x="278.52" y="235.44" width="0.479" height="27.24"/>
<rect x="276.36" y="233.88" style="fill:#FFFFFF;" width="54.36" height="27"/>
<rect x="276.36" y="233.64" width="54.6" height="0.48"/>
<rect x="330.48" y="233.88" width="0.479" height="27.24"/>
<rect x="276.12" y="260.64" width="54.601" height="0.48"/>
<rect x="276.12" y="233.64" width="0.48" height="27.24"/>
<text transform="matrix(1 0 0 1 278.7603 240.96)"><tspan x="0" y="0" style="font-family:'ProductusOSGiBookc'; font-size:7.98;">E</tspan><tspan x="3.399" y="0" style="font-family:'ProductusOSGiBookc'; font-size:7.98;">x</tspan><tspan x="6.041" y="0" style="font-family:'ProductusOSGiBookc'; font-size:7.98;">e</tspan><tspan x="9.528" y="0" style="font-family:'ProductusOSGiBookc'; font-size:7.98;">c</tspan><tspan x="12.592" y="0" style="font-family:'ProductusOSGiBookc'; font-size:7.98;"> P</tspan><tspan x="17.46" y="0" style="font-family:'ProductusOSGiBookc'; font-size:7.98;">l</tspan><tspan x="18.968" y="0" style="font-family:'ProductusOSGiBookc'; font-size:7.98;">ugin</tspan><tspan x="31.312" y="0" style="font-family:'ProductusOSGiBookc'; font-size:7.98;"> </tspan><tspan x="32.877" y="0" style="font-family:'ProductusOSGiBookc'; font-size:7.98;">Imp</tspan><tspan x="43.856" y="0" style="font-family:'ProductusOSGiBookc'; font-size:7.98;">l</tspan></text>
<polyline points="304.74,209.94 301.44,209.94 301.62,209.28 304.74,198.36 307.86,209.28 308.04,209.94 307.379,209.94 
	306.9,209.58 304.26,200.34 305.22,200.04 305.22,200.34 302.58,209.58 301.62,209.28 302.1,208.92 304.74,208.92 "/>
<rect x="304.74" y="208.92" width="2.64" height="1.02"/>
<polyline style="fill-rule:evenodd;clip-rule:evenodd;" points="304.74,209.46 302.1,209.46 304.74,200.22 307.379,209.46 "/>
<rect x="304.5" y="233.88" width="0.48" height="0.24"/>
<rect x="304.5" y="209.7" width="0.48" height="24.18"/>
<rect x="9.42" y="100.98" width="54.36" height="26.58"/>
<rect x="9.42" y="100.74" width="54.6" height="0.48"/>
<rect x="63.54" y="100.98" width="0.48" height="26.82"/>
<rect x="9.18" y="127.32" width="54.6" height="0.48"/>
<rect x="9.18" y="100.74" width="0.48" height="26.82"/>
<rect x="7.08" y="99.18" style="fill:#FFFFFF;" width="54.3" height="26.58"/>
<rect x="7.08" y="98.94" width="54.54" height="0.479"/>
<rect x="61.14" y="99.18" width="0.48" height="26.82"/>
<rect x="6.84" y="125.52" width="54.54" height="0.48"/>
<rect x="6.84" y="98.94" width="0.48" height="26.82"/>
<text transform="matrix(1 0 0 1.0522 9.4199 106.3203)"><tspan x="0" y="0" style="font-family:'ProductusOSGiBookc'; font-size:7.5841;">&lt;</tspan><tspan x="2.776" y="0" style="font-family:'ProductusOSGiBookc'; font-size:7.5841;">&lt;</tspan><tspan x="5.589" y="0" style="font-family:'ProductusOSGiBookc'; font-size:7.5841;">interfa</tspan><tspan x="23.093" y="0" style="font-family:'ProductusOSGiBookc'; font-size:7.5841;">c</tspan><tspan x="26.028" y="0" style="font-family:'ProductusOSGiBookc'; font-size:7.5841;">e&gt;</tspan><tspan x="32.095" y="0" style="font-family:'ProductusOSGiBookc'; font-size:7.5841;">&gt;</tspan></text>
<text transform="matrix(1 0 0 1 9.4199 114.8403)"><tspan x="0" y="0" style="font-family:'ProductusSemibold'; font-size:7.98;">R</tspan><tspan x="4.253" y="0" style="font-family:'ProductusSemibold'; font-size:7.98;">ea</tspan><tspan x="12.345" y="0" style="font-family:'ProductusSemibold'; font-size:7.98;">d</tspan><tspan x="16.662" y="0" style="font-family:'ProductusSemibold'; font-size:7.98;"> </tspan><tspan x="18.697" y="0" style="font-family:'ProductusSemibold'; font-size:7.98;">W</tspan><tspan x="25.775" y="0" style="font-family:'ProductusSemibold'; font-size:7.98;">r</tspan><tspan x="28.768" y="0" style="font-family:'ProductusSemibold'; font-size:7.98;">i</tspan><tspan x="30.922" y="0" style="font-family:'ProductusSemibold'; font-size:7.98;">t</tspan><tspan x="34.042" y="0" style="font-family:'ProductusSemibold'; font-size:7.98;">e</tspan><tspan x="38.176" y="0" style="font-family:'ProductusSemibold'; font-size:7.98;"> </tspan></text>
<text transform="matrix(1 0 0 1 9.4199 123.3008)"><tspan x="0" y="0" style="font-family:'ProductusSemibold'; font-size:7.98;">Data</tspan><tspan x="16.398" y="0" style="font-family:'ProductusSemibold'; font-size:7.98;"> </tspan><tspan x="18.377" y="0" style="font-family:'ProductusSemibold'; font-size:7.98;">Sessio</tspan><tspan x="39.939" y="0" style="font-family:'ProductusSemibold'; font-size:7.98;">n</tspan></text>
<rect x="9.42" y="150.6" width="54.36" height="26.58"/>
<rect x="9.42" y="150.36" width="54.6" height="0.48"/>
<rect x="63.54" y="150.6" width="0.48" height="26.82"/>
<rect x="9.18" y="176.94" width="54.6" height="0.48"/>
<rect x="9.18" y="150.36" width="0.48" height="26.82"/>
<rect x="7.08" y="148.8" style="fill:#FFFFFF;" width="54.3" height="26.58"/>
<rect x="7.08" y="148.56" width="54.54" height="0.48"/>
<rect x="61.14" y="148.8" width="0.48" height="26.82"/>
<rect x="6.84" y="175.14" width="54.54" height="0.48"/>
<rect x="6.84" y="148.56" width="0.48" height="26.82"/>
<text transform="matrix(1 0 0 1.0522 9.4199 155.9404)"><tspan x="0" y="0" style="font-family:'ProductusOSGiBookc'; font-size:7.5841;">&lt;</tspan><tspan x="2.776" y="0" style="font-family:'ProductusOSGiBookc'; font-size:7.5841;">&lt;</tspan><tspan x="5.589" y="0" style="font-family:'ProductusOSGiBookc'; font-size:7.5841;">interfa</tspan><tspan x="23.093" y="0" style="font-family:'ProductusOSGiBookc'; font-size:7.5841;">c</tspan><tspan x="26.028" y="0" style="font-family:'ProductusOSGiBookc'; font-size:7.5841;">e&gt;</tspan><tspan x="32.095" y="0" style="font-family:'ProductusOSGiBookc'; font-size:7.5841;">&gt;</tspan></text>
<text transform="matrix(1 0 0 1 9.4199 164.4004)"><tspan x="0" y="0" style="font-family:'ProductusSemibold'; font-size:7.98;">T</tspan><tspan x="3.902" y="0" style="font-family:'ProductusSemibold'; font-size:7.98;">r</tspan><tspan x="6.839" y="0" style="font-family:'ProductusSemibold'; font-size:7.98;">a</tspan><tspan x="10.797" y="0" style="font-family:'ProductusSemibold'; font-size:7.98;">n</tspan><tspan x="15.114" y="0" style="font-family:'ProductusSemibold'; font-size:7.98;">s</tspan><tspan x="18.473" y="0" style="font-family:'ProductusSemibold'; font-size:7.98;">a</tspan><tspan x="22.431" y="0" style="font-family:'ProductusSemibold'; font-size:7.98;">ct</tspan><tspan x="29.206" y="0" style="font-family:'ProductusSemibold'; font-size:7.98;">i</tspan><tspan x="31.36" y="0" style="font-family:'ProductusSemibold'; font-size:7.98;">o</tspan><tspan x="35.678" y="0" style="font-family:'ProductusSemibold'; font-size:7.98;">n</tspan><tspan x="39.931" y="0" style="font-family:'ProductusSemibold'; font-size:7.98;">a</tspan><tspan x="43.889" y="0" style="font-family:'ProductusSemibold'; font-size:7.98;">l</tspan><tspan x="46.107" y="0" style="font-family:'ProductusSemibold'; font-size:7.98;"> </tspan></text>
<text transform="matrix(1 0 0 1 9.4199 172.9204)"><tspan x="0" y="0" style="font-family:'ProductusSemibold'; font-size:7.98;">Data</tspan><tspan x="16.398" y="0" style="font-family:'ProductusSemibold'; font-size:7.98;"> </tspan><tspan x="18.377" y="0" style="font-family:'ProductusSemibold'; font-size:7.98;">Sessio</tspan><tspan x="39.939" y="0" style="font-family:'ProductusSemibold'; font-size:7.98;">n</tspan></text>
<polyline points="35.4,139.08 32.1,139.08 32.28,138.42 35.4,127.5 38.52,138.42 38.7,139.08 38.04,139.08 37.56,138.72 
	34.92,129.48 35.88,129.18 35.88,129.48 33.24,138.72 32.28,138.42 32.76,138.06 35.4,138.06 "/>
<rect x="35.4" y="138.06" width="2.64" height="1.02"/>
<polyline style="fill-rule:evenodd;clip-rule:evenodd;" points="35.4,138.6 32.76,138.6 35.4,129.36 38.04,138.6 "/>
<rect x="35.16" y="148.8" width="0.48" height="0.24"/>
<rect x="35.16" y="138.84" width="0.48" height="9.96"/>
<polyline points="35.4,89.46 32.1,89.46 32.28,88.8 35.4,77.88 38.52,88.8 38.7,89.46 38.04,89.46 37.56,89.1 34.92,79.86 
	35.88,79.56 35.88,79.86 33.24,89.1 32.28,88.8 32.76,88.44 35.4,88.44 "/>
<rect x="35.4" y="88.44" width="2.64" height="1.02"/>
<polyline style="fill-rule:evenodd;clip-rule:evenodd;" points="35.4,88.98 32.76,88.98 35.4,79.74 38.04,88.98 "/>
<rect x="35.16" y="99.18" width="0.48" height="0.24"/>
<rect x="35.16" y="89.22" width="0.48" height="9.96"/>
<rect x="63.54" y="63.54" width="0.24" height="0.48"/>
<rect x="63.78" y="63.54" width="3.96" height="0.48"/>
<rect x="72.9" y="63.54" width="0.24" height="0.48"/>
<rect x="73.14" y="63.54" width="6.78" height="0.48"/>
<rect x="85.08" y="63.54" width="0.24" height="0.48"/>
<rect x="85.32" y="63.54" width="6.72" height="0.48"/>
<rect x="97.2" y="63.54" width="0.24" height="0.48"/>
<rect x="97.44" y="63.54" width="6.78" height="0.48"/>
<rect x="109.38" y="63.54" width="0.24" height="0.48"/>
<rect x="109.62" y="63.54" width="4.02" height="0.48"/>
<rect x="9.42" y="235.68" width="54.36" height="27"/>
<rect x="9.42" y="235.44" width="54.6" height="0.48"/>
<rect x="63.54" y="235.68" width="0.48" height="27.24"/>
<rect x="9.18" y="262.44" width="54.6" height="0.48"/>
<rect x="9.18" y="235.44" width="0.48" height="27.24"/>
<rect x="7.08" y="233.88" style="fill:#FFFFFF;" width="54.3" height="27"/>
<rect x="7.08" y="233.64" width="54.54" height="0.48"/>
<rect x="61.14" y="233.88" width="0.48" height="27.24"/>
<rect x="6.84" y="260.64" width="54.54" height="0.48"/>
<rect x="6.84" y="233.64" width="0.48" height="27.24"/>
<text transform="matrix(1 0 0 1 9.4199 240.96)"><tspan x="0" y="0" style="font-family:'ProductusOSGiBookc'; font-size:7.98;">Sess</tspan><tspan x="12.784" y="0" style="font-family:'ProductusOSGiBookc'; font-size:7.98;">i</tspan><tspan x="14.292" y="0" style="font-family:'ProductusOSGiBookc'; font-size:7.98;">on</tspan><tspan x="21.713" y="0" style="font-family:'ProductusOSGiBookc'; font-size:7.98;"> </tspan><tspan x="23.333" y="0" style="font-family:'ProductusOSGiBookc'; font-size:7.98;">I</tspan><tspan x="24.889" y="0" style="font-family:'ProductusOSGiBookc'; font-size:7.98;">m</tspan><tspan x="30.595" y="0" style="font-family:'ProductusOSGiBookc'; font-size:7.98;">p</tspan><tspan x="34.266" y="0" style="font-family:'ProductusOSGiBookc'; font-size:7.98;">l</tspan></text>
<polyline points="35.4,188.7 32.1,188.7 32.28,188.04 35.4,177.12 38.52,188.04 38.7,188.7 38.04,188.7 37.56,188.34 34.92,179.1 
	35.88,178.8 35.88,179.1 33.24,188.34 32.28,188.04 32.76,187.68 35.4,187.68 "/>
<rect x="35.4" y="187.68" width="2.64" height="1.02"/>
<polyline style="fill-rule:evenodd;clip-rule:evenodd;" points="35.4,188.22 32.76,188.22 35.4,178.98 38.04,188.22 "/>
<rect x="35.16" y="233.88" width="0.48" height="0.24"/>
<rect x="35.16" y="188.46" width="0.48" height="45.42"/>
<rect x="186.6" y="171.84" width="54.359" height="26.58"/>
<rect x="186.6" y="171.6" width="54.6" height="0.48"/>
<rect x="240.72" y="171.84" width="0.479" height="26.82"/>
<rect x="186.36" y="198.18" width="54.6" height="0.48"/>
<rect x="186.36" y="171.6" width="0.479" height="26.82"/>
<rect x="184.26" y="170.1" style="fill:#FFFFFF;" width="54.3" height="26.52"/>
<rect x="184.26" y="169.86" width="54.539" height="0.48"/>
<rect x="238.32" y="170.1" width="0.479" height="26.76"/>
<rect x="184.02" y="196.38" width="54.54" height="0.48"/>
<rect x="184.02" y="169.86" width="0.479" height="26.76"/>
<text transform="matrix(1 0 0 1.0522 186.6001 177.1802)"><tspan x="0" y="0" style="font-family:'ProductusOSGiBookc'; font-size:7.5841;">&lt;</tspan><tspan x="2.775" y="0" style="font-family:'ProductusOSGiBookc'; font-size:7.5841;">&lt;</tspan><tspan x="5.589" y="0" style="font-family:'ProductusOSGiBookc'; font-size:7.5841;">interfa</tspan><tspan x="23.093" y="0" style="font-family:'ProductusOSGiBookc'; font-size:7.5841;">c</tspan><tspan x="26.028" y="0" style="font-family:'ProductusOSGiBookc'; font-size:7.5841;">e&gt;</tspan><tspan x="32.095" y="0" style="font-family:'ProductusOSGiBookc'; font-size:7.5841;">&gt;</tspan></text>
<text transform="matrix(1 0 0 1 186.6001 185.7002)"><tspan x="0" y="0" style="font-family:'ProductusSemibold'; font-size:7.98;">M</tspan><tspan x="6.719" y="0" style="font-family:'ProductusSemibold'; font-size:7.98;">o</tspan><tspan x="11.036" y="0" style="font-family:'ProductusSemibold'; font-size:7.98;">unt</tspan><tspan x="22.646" y="0" style="font-family:'ProductusSemibold'; font-size:7.98;"> </tspan><tspan x="24.682" y="0" style="font-family:'ProductusSemibold'; font-size:7.98;">Pl</tspan><tspan x="30.978" y="0" style="font-family:'ProductusSemibold'; font-size:7.98;">u</tspan><tspan x="35.295" y="0" style="font-family:'ProductusSemibold'; font-size:7.98;">g</tspan><tspan x="39.309" y="0" style="font-family:'ProductusSemibold'; font-size:7.98;">i</tspan><tspan x="41.463" y="0" style="font-family:'ProductusSemibold'; font-size:7.98;">n</tspan></text>
<polyline points="212.58,209.94 209.28,209.94 209.459,209.28 212.58,198.36 215.7,209.28 215.879,209.94 215.22,209.94 
	214.74,209.58 212.1,200.34 213.06,200.04 213.06,200.34 210.419,209.58 209.459,209.28 209.94,208.92 212.58,208.92 "/>
<rect x="212.58" y="208.92" width="2.641" height="1.02"/>
<polyline style="fill-rule:evenodd;clip-rule:evenodd;" points="212.58,209.46 209.94,209.46 212.58,200.22 215.22,209.46 "/>
<rect x="212.339" y="219.66" width="0.48" height="0.24"/>
<rect x="212.339" y="209.7" width="0.48" height="9.96"/>
<rect x="186.6" y="8.88" width="54.359" height="27"/>
<rect x="186.6" y="8.64" width="54.6" height="0.48"/>
<rect x="240.72" y="8.88" width="0.479" height="27.24"/>
<rect x="186.36" y="35.64" width="54.6" height="0.48"/>
<rect x="186.36" y="8.64" width="0.479" height="27.24"/>
<rect x="184.26" y="7.08" style="fill:#FFFFFF;" width="54.3" height="27"/>
<rect x="184.26" y="6.84" width="54.539" height="0.48"/>
<rect x="238.32" y="7.08" width="0.479" height="27.24"/>
<rect x="184.02" y="33.84" width="54.54" height="0.48"/>
<rect x="184.02" y="6.84" width="0.479" height="27.24"/>
<text transform="matrix(1 0 0 1 186.6001 14.2202)"><tspan x="0" y="0" style="font-family:'ProductusOSGiBookc'; font-size:7.98;">Mount</tspan><tspan x="19.255" y="0" style="font-family:'ProductusOSGiBookc'; font-size:7.98;"> </tspan><tspan x="20.819" y="0" style="font-family:'ProductusOSGiBookc'; font-size:7.98;">P</tspan><tspan x="23.819" y="0" style="font-family:'ProductusOSGiBookc'; font-size:7.98;">o</tspan><tspan x="27.594" y="0" style="font-family:'ProductusOSGiBookc'; font-size:7.98;">int</tspan><tspan x="35.127" y="0" style="font-family:'ProductusOSGiBookc'; font-size:7.98;"> </tspan><tspan x="36.691" y="0" style="font-family:'ProductusOSGiBookc'; font-size:7.98;">Imp</tspan><tspan x="47.647" y="0" style="font-family:'ProductusOSGiBookc'; font-size:7.98;">l</tspan></text>
<rect x="186.6" y="72.18" width="54.359" height="27"/>
<rect x="186.6" y="71.94" width="54.6" height="0.479"/>
<rect x="240.72" y="72.18" width="0.479" height="27.24"/>
<rect x="186.36" y="98.94" width="54.6" height="0.479"/>
<rect x="186.36" y="71.94" width="0.479" height="27.24"/>
<rect x="184.26" y="70.38" style="fill:#FFFFFF;" width="54.3" height="27"/>
<rect x="184.26" y="70.14" width="54.539" height="0.48"/>
<rect x="238.32" y="70.38" width="0.479" height="27.24"/>
<rect x="184.02" y="97.14" width="54.54" height="0.48"/>
<rect x="184.02" y="70.14" width="0.479" height="27.24"/>
<text transform="matrix(1 0 0 1 186.6001 77.52)"><tspan x="0" y="0" style="font-family:'ProductusOSGiBookc'; font-size:7.98;">&lt;&lt;</tspan><tspan x="5.857" y="0" style="font-family:'ProductusOSGiBookc'; font-size:7.98;">i</tspan><tspan x="7.365" y="0" style="font-family:'ProductusOSGiBookc'; font-size:7.98;">nterface&gt;&gt;</tspan></text>
<text transform="matrix(1 0 0 1 186.6001 86.0405)"><tspan x="0" y="0" style="font-family:'ProductusSemibold'; font-size:7.98;">M</tspan><tspan x="6.719" y="0" style="font-family:'ProductusSemibold'; font-size:7.98;">ount</tspan><tspan x="22.671" y="0" style="font-family:'ProductusSemibold'; font-size:7.98;"> </tspan><tspan x="24.705" y="0" style="font-family:'ProductusSemibold'; font-size:7.98;">P</tspan><tspan x="28.663" y="0" style="font-family:'ProductusSemibold'; font-size:7.98;">oi</tspan><tspan x="35.144" y="0" style="font-family:'ProductusSemibold'; font-size:7.98;">n</tspan><tspan x="39.46" y="0" style="font-family:'ProductusSemibold'; font-size:7.98;">t</tspan></text>
<polyline points="212.58,59.34 215.879,59.34 215.7,60 212.58,70.92 209.459,60 209.28,59.34 209.94,59.34 210.419,59.7 
	213.06,68.94 212.1,69.24 212.1,68.94 214.74,59.7 215.7,60 215.22,60.36 212.58,60.36 "/>
<rect x="209.94" y="59.34" width="2.64" height="1.02"/>
<polyline style="fill-rule:evenodd;clip-rule:evenodd;" points="212.58,59.82 215.22,59.82 212.58,69.06 209.94,59.82 "/>
<rect x="212.339" y="35.16" width="0.48" height="0.24"/>
<rect x="212.339" y="35.4" width="0.48" height="24.18"/>
<rect x="212.339" y="98.94" width="0.48" height="0.24"/>
<rect x="212.339" y="99.18" width="0.48" height="71.16"/>
<rect x="134.4" y="219.42" width="0.48" height="14.7"/>
<rect x="134.64" y="219.42" width="156.121" height="0.48"/>
<rect x="290.28" y="219.66" width="0.48" height="14.46"/>
</svg>
