<?xml version="1.0" encoding="utf-8"?>
<!-- Generator: Adobe Illustrator 16.0.1, SVG Export Plug-In . SVG Version: 6.00 Build 0)  -->
<!DOCTYPE svg PUBLIC "-//W3C//DTD SVG 1.1//EN" "http://www.w3.org/Graphics/SVG/1.1/DTD/svg11.dtd">
<svg version="1.1" id="Layer_1" xmlns="http://www.w3.org/2000/svg" xmlns:xlink="http://www.w3.org/1999/xlink" x="0px" y="0px"
	 width="432.781px" height="136.309px" viewBox="0 0 432.781 136.309" enable-background="new 0 0 432.781 136.309"
	 xml:space="preserve">
<rect x="14.16" y="100.368" width="19.92" height="0.479"/>
<rect x="14.16" y="22.427" width="0.48" height="78.181"/>
<rect x="14.4" y="22.427" width="142.38" height="0.48"/>
<rect x="156.78" y="22.427" width="6.66" height="0.48"/>
<rect x="165.6" y="3.168" width="54.3" height="27"/>
<rect x="165.6" y="2.927" width="54.54" height="0.48"/>
<rect x="219.66" y="3.168" width="0.48" height="27.24"/>
<rect x="165.36" y="29.927" width="54.54" height="0.48"/>
<rect x="165.36" y="2.927" width="0.48" height="27.24"/>
<rect x="163.26" y="1.368" fill="#FFFFFF" width="54.3" height="27"/>
<rect x="163.26" y="1.128" width="54.541" height="0.479"/>
<rect x="217.32" y="1.368" width="0.48" height="27.239"/>
<rect x="163.02" y="28.128" width="54.54" height="0.479"/>
<rect x="163.02" y="1.128" width="0.48" height="27.24"/>
<text transform="matrix(1 0 0 1 165.6001 8.5076)" font-family="'ProductusSemibold'" font-size="7.98">Type</text>
<rect x="23.88" y="87.768" width="54.3" height="27"/>
<rect x="23.88" y="87.527" width="54.54" height="0.479"/>
<rect x="77.94" y="87.768" width="0.48" height="27.239"/>
<rect x="23.64" y="114.527" width="54.54" height="0.479"/>
<rect x="23.64" y="87.527" width="0.48" height="27.24"/>
<rect x="21.48" y="85.968" fill="#FFFFFF" width="54.36" height="27"/>
<rect x="21.48" y="85.728" width="54.6" height="0.479"/>
<rect x="75.6" y="85.968" width="0.48" height="27.24"/>
<rect x="21.24" y="112.728" width="54.6" height="0.479"/>
<rect x="21.24" y="85.728" width="0.48" height="27.239"/>
<text transform="matrix(1 0 0 1 23.8799 93.1072)" enable-background="new    "><tspan x="0" y="0" font-family="'ProductusSemibold'" font-size="7.98">Structured</tspan><tspan x="0" y="9.576" font-family="'ProductusSemibold'" font-size="7.98">Type</tspan></text>
<rect x="378.179" y="88.248" width="54.361" height="27"/>
<rect x="378.179" y="88.008" width="54.602" height="0.479"/>
<rect x="432.3" y="88.248" width="0.48" height="27.239"/>
<rect x="377.941" y="115.008" width="54.6" height="0.479"/>
<rect x="377.941" y="88.008" width="0.479" height="27.24"/>
<rect x="375.839" y="86.447" fill="#FFFFFF" width="54.301" height="27"/>
<rect x="375.839" y="86.208" width="54.541" height="0.479"/>
<rect x="429.9" y="86.447" width="0.479" height="27.24"/>
<rect x="375.601" y="113.208" width="54.539" height="0.479"/>
<rect x="375.601" y="86.208" width="0.479" height="27.239"/>
<text transform="matrix(1 0 0 1 378.1792 93.5876)" font-family="'ProductusSemibold'" font-size="7.98">Primitive</text>
<rect x="94.74" y="87.768" width="54.3" height="27"/>
<rect x="94.74" y="87.527" width="54.54" height="0.479"/>
<rect x="148.8" y="87.768" width="0.48" height="27.239"/>
<rect x="94.5" y="114.527" width="54.54" height="0.479"/>
<rect x="94.5" y="87.527" width="0.48" height="27.24"/>
<rect x="92.34" y="85.968" fill="#FFFFFF" width="54.36" height="27"/>
<rect x="92.34" y="85.728" width="54.6" height="0.479"/>
<rect x="146.46" y="85.968" width="0.48" height="27.24"/>
<rect x="92.1" y="112.728" width="54.6" height="0.479"/>
<rect x="92.1" y="85.728" width="0.48" height="27.239"/>
<text transform="matrix(1 0 0 1 94.7402 93.1072)" font-family="'ProductusSemibold'" font-size="7.98">LIST</text>
<rect x="165.6" y="87.768" width="54.3" height="27"/>
<rect x="165.6" y="87.527" width="54.54" height="0.479"/>
<rect x="219.66" y="87.768" width="0.48" height="27.239"/>
<rect x="165.36" y="114.527" width="54.54" height="0.479"/>
<rect x="165.36" y="87.527" width="0.48" height="27.24"/>
<rect x="163.2" y="85.968" fill="#FFFFFF" width="54.36" height="27"/>
<rect x="163.2" y="85.728" width="54.6" height="0.479"/>
<rect x="217.32" y="85.968" width="0.48" height="27.24"/>
<rect x="162.96" y="112.728" width="54.6" height="0.479"/>
<rect x="162.96" y="85.728" width="0.48" height="27.239"/>
<text transform="matrix(1 0 0 1 165.6001 93.1072)" font-family="'ProductusSemibold'" font-size="7.98">MAP</text>
<rect x="307.32" y="87.768" width="54.359" height="27"/>
<rect x="307.32" y="87.527" width="54.6" height="0.479"/>
<rect x="361.441" y="87.768" width="0.479" height="27.239"/>
<rect x="307.08" y="114.527" width="54.6" height="0.479"/>
<rect x="307.08" y="87.527" width="0.48" height="27.24"/>
<rect x="304.98" y="85.968" fill="#FFFFFF" width="54.301" height="27"/>
<rect x="304.98" y="85.728" width="54.539" height="0.479"/>
<rect x="359.041" y="85.968" width="0.479" height="27.24"/>
<rect x="304.74" y="112.728" width="54.541" height="0.479"/>
<rect x="304.74" y="85.728" width="0.479" height="27.239"/>
<text transform="matrix(1 0 0 1 307.3198 93.1072)" font-family="'ProductusSemibold'" font-size="7.98">NODE</text>
<polyline points="191.82,44.027 184.74,58.188 184.5,58.308 184.5,57.828 198.66,57.828 198.9,57.947 199.08,58.308 184.14,58.308 
	191.4,43.788 "/>
<polyline points="198.48,58.188 191.4,44.027 191.4,43.788 191.64,43.368 191.82,43.788 198.9,57.947 "/>
<rect x="49.62" y="71.328" width="0.48" height="14.641"/>
<rect x="49.86" y="72.048" width="283.681" height="0.479"/>
<rect x="333.06" y="71.808" width="0.48" height="14.399"/>
<rect x="191.34" y="85.847" width="0.48" height="0.24"/>
<rect x="191.34" y="57.828" width="0.48" height="28.26"/>
<rect x="191.34" y="43.908" width="0.48" height="0.239"/>
<rect x="191.34" y="29.508" width="0.48" height="14.4"/>
<rect x="120.48" y="85.771" width="0.48" height="0.153"/>
<rect x="120.48" y="72.048" width="0.48" height="14.045"/>
<rect x="262.201" y="86.447" width="0.479" height="0.24"/>
<rect x="262.201" y="72.048" width="0.479" height="14.399"/>
<rect x="120.48" y="114.527" width="0.48" height="14.7"/>
<rect x="7.08" y="128.748" width="113.64" height="0.479"/>
<rect x="7.08" y="15.348" width="0.48" height="113.64"/>
<rect x="7.32" y="15.348" width="156.12" height="0.479"/>
<rect x="191.34" y="114.527" width="0.48" height="21.78"/>
<rect y="135.828" width="191.58" height="0.479"/>
<rect y="8.268" width="0.48" height="127.8"/>
<rect x="0.24" y="8.268" width="163.02" height="0.479"/>
<text transform="matrix(1 0 0 1 154.7402 133.6677)" font-family="'ProductusBook'" font-size="7.98">value type</text>
<text transform="matrix(1 0 0 1 158.4604 6.6472)" font-family="'ProductusBook'" font-size="7.98">1</text>
<text transform="matrix(1 0 0 1 89.4009 126.5876)" font-family="'ProductusBook'" font-size="7.98">index type</text>
<text transform="matrix(1 0 0 1 158.4604 14.6277)" font-family="'ProductusBook'" font-size="7.98">1</text>
<text transform="matrix(1 0 0 1 157.9199 27.1667)" font-family="'ProductusBook'" font-size="7.98">n</text>
<text transform="matrix(1 0 0 1 15.4204 58.3669)" font-family="'ProductusBook'" font-size="7.98">members</text>
<rect x="236.46" y="87.768" width="54.359" height="27"/>
<rect x="236.46" y="87.527" width="54.601" height="0.479"/>
<rect x="290.58" y="87.768" width="0.48" height="27.239"/>
<rect x="236.22" y="114.527" width="54.601" height="0.479"/>
<rect x="236.22" y="87.527" width="0.48" height="27.24"/>
<rect x="234.121" y="85.968" fill="#FFFFFF" width="54.299" height="27"/>
<rect x="234.121" y="85.728" width="54.539" height="0.479"/>
<rect x="288.18" y="85.968" width="0.479" height="27.24"/>
<rect x="233.88" y="112.728" width="54.539" height="0.479"/>
<rect x="233.88" y="85.728" width="0.479" height="27.239"/>
<text transform="matrix(1 0 0 1 236.4604 93.1072)" font-family="'ProductusSemibold'" font-size="7.98">SCAFFOLD</text>
<rect x="333.06" y="72.048" width="71.342" height="0.479"/>
<rect x="403.919" y="72.288" width="0.48" height="14.399"/>
</svg>
