<?xml version="1.0" encoding="utf-8"?>
<!-- Generator: Adobe Illustrator 16.0.0, SVG Export Plug-In . SVG Version: 6.00 Build 0)  -->
<!DOCTYPE svg PUBLIC "-//W3C//DTD SVG 1.1//EN" "http://www.w3.org/Graphics/SVG/1.1/DTD/svg11.dtd">
<svg version="1.1" id="Layer_1" xmlns="http://www.w3.org/2000/svg" xmlns:xlink="http://www.w3.org/1999/xlink" x="0px" y="0px"
	 width="220.701px" height="126.827px" viewBox="0 0 220.701 126.827" style="enable-background:new 0 0 220.701 126.827;"
	 xml:space="preserve">
<rect x="75.24" y="13.428" width="0.48" height="113.399"/>
<rect x="216.96" y="13.428" width="0.48" height="113.399"/>
<rect x="146.1" y="13.428" width="0.48" height="113.399"/>
<text transform="matrix(1 0 0 1 213.2402 6.6475)"><tspan x="0" y="0" style="font-family:'ProductusBook'; font-size:7.98;">T</tspan><tspan x="3.838" y="0" style="font-family:'ProductusBook'; font-size:7.98;">2</tspan></text>
<text transform="matrix(1 0 0 1 71.9395 6.6475)"><tspan x="0" y="0" style="font-family:'ProductusBook'; font-size:7.98;">T</tspan><tspan x="3.782" y="0" style="font-family:'ProductusBook'; font-size:7.98;">1</tspan></text>
<rect x="215.22" y="32.747" width="4.021" height="53.521"/>
<rect x="73.5" y="25.607" width="4.02" height="89.04"/>
<text transform="matrix(1 0 0 1 159.7197 46.5479)"><tspan x="0" y="0" style="font-family:'ProductusBook'; font-size:7.98;">d</tspan><tspan x="3.687" y="0" style="font-family:'ProductusBook'; font-size:7.98;">e</tspan><tspan x="7.222" y="0" style="font-family:'ProductusBook'; font-size:7.98;">li</tspan><tspan x="10.334" y="0" style="font-family:'ProductusBook'; font-size:7.98;">v</tspan><tspan x="13.454" y="0" style="font-family:'ProductusBook'; font-size:7.98;">er</tspan><tspan x="19.208" y="0" style="font-family:'ProductusBook'; font-size:7.98;"> </tspan><tspan x="20.819" y="0" style="font-family:'ProductusBook'; font-size:7.98;">e</tspan><tspan x="24.314" y="0" style="font-family:'ProductusBook'; font-size:7.98;">v</tspan><tspan x="27.435" y="0" style="font-family:'ProductusBook'; font-size:7.98;">e</tspan><tspan x="30.97" y="0" style="font-family:'ProductusBook'; font-size:7.98;">n</tspan><tspan x="34.633" y="0" style="font-family:'ProductusBook'; font-size:7.98;">t</tspan></text>
<text transform="matrix(1 0 0 1 160.5 69.7676)"><tspan x="0" y="0" style="font-family:'ProductusBook'; font-size:7.98;">g</tspan><tspan x="3.304" y="0" style="font-family:'ProductusBook'; font-size:7.98;">e</tspan><tspan x="6.791" y="0" style="font-family:'ProductusBook'; font-size:7.98;">t </tspan><tspan x="10.797" y="0" style="font-family:'ProductusBook'; font-size:7.98;">s</tspan><tspan x="13.613" y="0" style="font-family:'ProductusBook'; font-size:7.98;">e</tspan><tspan x="17.101" y="0" style="font-family:'ProductusBook'; font-size:7.98;">r</tspan><tspan x="19.375" y="0" style="font-family:'ProductusBook'; font-size:7.98;">v</tspan><tspan x="22.607" y="0" style="font-family:'ProductusBook'; font-size:7.98;">i</tspan><tspan x="24.171" y="0" style="font-family:'ProductusBook'; font-size:7.98;">c</tspan><tspan x="27.172" y="0" style="font-family:'ProductusBook'; font-size:7.98;">e</tspan></text>
<text transform="matrix(1 0 0 1 109.499 6.6475)"><tspan x="0" y="0" style="font-family:'ProductusBook'; font-size:7.98;">Fram</tspan><tspan x="14.443" y="0" style="font-family:'ProductusBook'; font-size:7.98;">e</tspan><tspan x="17.979" y="0" style="font-family:'ProductusBook'; font-size:7.98;">w</tspan><tspan x="23.022" y="0" style="font-family:'ProductusBook'; font-size:7.98;">ork</tspan><tspan x="32.351" y="0" style="font-family:'ProductusBook'; font-size:7.98;"> </tspan><tspan x="33.915" y="0" style="font-family:'ProductusBook'; font-size:7.98;">(</tspan><tspan x="36.141" y="0" style="font-family:'ProductusBook'; font-size:7.98;">n</tspan><tspan x="39.804" y="0" style="font-family:'ProductusBook'; font-size:7.98;">ot</tspan><tspan x="45.964" y="0" style="font-family:'ProductusBook'; font-size:7.98;"> </tspan><tspan x="47.576" y="0" style="font-family:'ProductusBook'; font-size:7.98;">a</tspan><tspan x="50.888" y="0" style="font-family:'ProductusBook'; font-size:7.98;"> </tspan><tspan x="52.508" y="0" style="font-family:'ProductusBook'; font-size:7.98;">t</tspan><tspan x="54.886" y="0" style="font-family:'ProductusBook'; font-size:7.98;">h</tspan><tspan x="58.604" y="0" style="font-family:'ProductusBook'; font-size:7.98;">read)</tspan></text>
<rect x="4.08" y="11.447" width="4.02" height="18.12"/>
<text transform="matrix(1 0 0 1 12.7798 18.167)"><tspan x="0" y="0" style="font-family:'ProductusBook'; font-size:7.98;">I</tspan><tspan x="1.58" y="0" style="font-family:'ProductusBook'; font-size:7.98;">n</tspan><tspan x="5.299" y="0" style="font-family:'ProductusBook'; font-size:7.98;"> </tspan><tspan x="6.863" y="0" style="font-family:'ProductusBook'; font-size:7.98;">m</tspan><tspan x="12.608" y="0" style="font-family:'ProductusBook'; font-size:7.98;">e</tspan><tspan x="16.143" y="0" style="font-family:'ProductusBook'; font-size:7.98;">t</tspan><tspan x="18.537" y="0" style="font-family:'ProductusBook'; font-size:7.98;">h</tspan><tspan x="22.2" y="0" style="font-family:'ProductusBook'; font-size:7.98;">o</tspan><tspan x="25.975" y="0" style="font-family:'ProductusBook'; font-size:7.98;">d</tspan></text>
<polyline style="fill:#FFFFFF;" points="81.96,96.587 80.04,97.188 81.3,101.027 83.22,100.428 "/>
<polyline style="fill:#FFFFFF;" points="103.2,89.447 105.12,88.848 106.38,92.688 104.46,93.287 "/>
<polyline style="fill:#FFFFFF;" points="81.96,96.587 83.22,100.428 104.46,93.287 103.2,89.447 "/>
<text transform="matrix(1 0 0 1 0 60.167)"><tspan x="0" y="0" style="font-family:'ProductusBook'; font-size:7.98;">T</tspan><tspan x="3.782" y="0" style="font-family:'ProductusBook'; font-size:7.98;">h</tspan><tspan x="7.445" y="0" style="font-family:'ProductusBook'; font-size:7.98;">e</tspan><tspan x="10.957" y="0" style="font-family:'ProductusBook'; font-size:7.98;"> </tspan><tspan x="12.521" y="0" style="font-family:'ProductusBook'; font-size:7.98;">registerServi</tspan><tspan x="48.653" y="0" style="font-family:'ProductusBook'; font-size:7.98;">c</tspan><tspan x="51.654" y="0" style="font-family:'ProductusBook'; font-size:7.98;">e</tspan></text>
<polyline points="134.82,41.808 134.82,38.508 135.479,38.688 144.66,41.327 146.34,41.808 144.66,42.287 135.479,44.928 
	134.82,45.107 134.82,44.447 135.18,43.968 144.36,41.327 144.66,42.287 144.36,42.287 135.18,39.647 135.479,38.688 135.84,39.167 
	135.84,41.808 "/>
<rect x="134.82" y="41.808" width="1.02" height="2.64"/>
<polyline style="fill-rule:evenodd;clip-rule:evenodd;" points="135.3,41.808 135.3,39.167 144.479,41.808 135.3,44.447 "/>
<rect x="75.24" y="41.567" width="59.76" height="0.479"/>
<polyline points="205.68,48.888 205.68,45.587 206.34,45.768 217.26,48.888 206.34,52.008 205.68,52.188 205.68,51.527 
	206.04,51.047 215.28,48.407 215.58,49.367 215.28,49.367 206.04,46.728 206.34,45.768 206.7,46.247 206.7,48.888 "/>
<rect x="205.68" y="48.888" width="1.021" height="2.64"/>
<polyline style="fill-rule:evenodd;clip-rule:evenodd;" points="206.16,48.888 206.16,46.247 215.4,48.888 206.16,51.527 "/>
<rect x="146.1" y="48.647" width="59.82" height="0.479"/>
<polyline points="157.86,63.047 157.86,66.348 157.2,66.167 146.28,63.047 157.2,59.928 157.86,59.747 157.86,60.407 157.5,60.888 
	148.26,63.527 147.96,62.567 148.26,62.567 157.5,65.207 157.2,66.167 156.84,65.688 156.84,63.047 "/>
<rect x="156.84" y="60.407" width="1.021" height="2.64"/>
<polyline style="fill-rule:evenodd;clip-rule:evenodd;" points="157.38,63.047 157.38,65.688 148.14,63.047 157.38,60.407 "/>
<rect x="157.62" y="62.808" width="59.82" height="0.479"/>
<text transform="matrix(1 0 0 1 85.6201 40.0674)"><tspan x="0" y="0" style="font-family:'ProductusBook'; font-size:7.98;">registe</tspan><tspan x="19.566" y="0" style="font-family:'ProductusBook'; font-size:7.98;">r</tspan><tspan x="21.793" y="0" style="font-family:'ProductusBook'; font-size:7.98;">Ser</tspan><tspan x="31.289" y="0" style="font-family:'ProductusBook'; font-size:7.98;">v</tspan><tspan x="34.473" y="0" style="font-family:'ProductusBook'; font-size:7.98;">i</tspan><tspan x="36.045" y="0" style="font-family:'ProductusBook'; font-size:7.98;">c</tspan><tspan x="39.109" y="0" style="font-family:'ProductusBook'; font-size:7.98;">e</tspan></text>
<polyline points="86.94,77.207 86.94,80.508 86.28,80.327 77.1,77.688 75.42,77.207 77.1,76.728 86.28,74.087 86.94,73.907 
	86.94,74.567 86.58,75.047 77.4,77.688 77.1,76.728 77.4,76.728 86.58,79.367 86.28,80.327 85.92,79.848 85.92,77.207 "/>
<rect x="85.92" y="74.567" width="1.02" height="2.64"/>
<polyline style="fill-rule:evenodd;clip-rule:evenodd;" points="86.46,77.207 86.46,79.848 77.28,77.207 86.46,74.567 "/>
<rect x="217.2" y="76.968" width="0.24" height="0.479"/>
<rect x="86.76" y="76.968" width="130.44" height="0.479"/>
<text transform="matrix(1 0 0 1 160.5 82.7871)"><tspan x="0" y="0" style="font-family:'ProductusBook'; font-size:7.98;">ca</tspan><tspan x="6.352" y="0" style="font-family:'ProductusBook'; font-size:7.98;">l</tspan><tspan x="7.964" y="0" style="font-family:'ProductusBook'; font-size:7.98;">l</tspan><tspan x="9.528" y="0" style="font-family:'ProductusBook'; font-size:7.98;">b</tspan><tspan x="13.207" y="0" style="font-family:'ProductusBook'; font-size:7.98;">a</tspan><tspan x="16.566" y="0" style="font-family:'ProductusBook'; font-size:7.98;">c</tspan><tspan x="19.631" y="0" style="font-family:'ProductusBook'; font-size:7.98;">k</tspan></text>
<rect x="144.36" y="32.747" width="4.02" height="1.98"/>
<rect x="144.36" y="34.728" width="4.02" height="65.76"/>
<text transform="matrix(1 0 0 1 0 69.9473)"><tspan x="0" y="0" style="font-family:'ProductusBook'; font-size:7.98;">m</tspan><tspan x="5.762" y="0" style="font-family:'ProductusBook'; font-size:7.98;">e</tspan><tspan x="9.265" y="0" style="font-family:'ProductusBook'; font-size:7.98;">t</tspan><tspan x="11.611" y="0" style="font-family:'ProductusBook'; font-size:7.98;">h</tspan><tspan x="15.329" y="0" style="font-family:'ProductusBook'; font-size:7.98;">o</tspan><tspan x="19.12" y="0" style="font-family:'ProductusBook'; font-size:7.98;">d</tspan><tspan x="22.814" y="0" style="font-family:'ProductusBook'; font-size:7.98;"> </tspan><tspan x="24.378" y="0" style="font-family:'ProductusBook'; font-size:7.98;">ha</tspan><tspan x="31.385" y="0" style="font-family:'ProductusBook'; font-size:7.98;">s</tspan><tspan x="34.202" y="0" style="font-family:'ProductusBook'; font-size:7.98;"> </tspan><tspan x="35.822" y="0" style="font-family:'ProductusBook'; font-size:7.98;">n</tspan><tspan x="39.508" y="0" style="font-family:'ProductusBook'; font-size:7.98;">ot</tspan></text>
<text transform="matrix(1 0 0 1 0 79.667)"><tspan x="0" y="0" style="font-family:'ProductusBook'; font-size:7.98;">r</tspan><tspan x="2.282" y="0" style="font-family:'ProductusBook'; font-size:7.98;">e</tspan><tspan x="5.77" y="0" style="font-family:'ProductusBook'; font-size:7.98;">tu</tspan><tspan x="11.858" y="0" style="font-family:'ProductusBook'; font-size:7.98;">r</tspan><tspan x="14.084" y="0" style="font-family:'ProductusBook'; font-size:7.98;">n</tspan><tspan x="17.803" y="0" style="font-family:'ProductusBook'; font-size:7.98;">e</tspan><tspan x="21.291" y="0" style="font-family:'ProductusBook'; font-size:7.98;">d </tspan><tspan x="26.629" y="0" style="font-family:'ProductusBook'; font-size:7.98;">y</tspan><tspan x="29.693" y="0" style="font-family:'ProductusBook'; font-size:7.98;">e</tspan><tspan x="33.229" y="0" style="font-family:'ProductusBook'; font-size:7.98;">t</tspan><tspan x="35.622" y="0" style="font-family:'ProductusBook'; font-size:7.98;">,</tspan><tspan x="37.186" y="0" style="font-family:'ProductusBook'; font-size:7.98;"> </tspan><tspan x="38.806" y="0" style="font-family:'ProductusBook'; font-size:7.98;">so t</tspan><tspan x="49.443" y="0" style="font-family:'ProductusBook'; font-size:7.98;">h</tspan><tspan x="53.106" y="0" style="font-family:'ProductusBook'; font-size:7.98;">e</tspan><tspan x="56.625" y="0" style="font-family:'ProductusBook'; font-size:7.98;">r</tspan><tspan x="58.852" y="0" style="font-family:'ProductusBook'; font-size:7.98;">e</tspan></text>
<text transform="matrix(1 0 0 1 0 89.3867)"><tspan x="0" y="0" style="font-family:'ProductusBook'; font-size:7.98;">is</tspan><tspan x="4.381" y="0" style="font-family:'ProductusBook'; font-size:7.98;"> </tspan><tspan x="6.001" y="0" style="font-family:'ProductusBook'; font-size:7.98;">n</tspan><tspan x="9.68" y="0" style="font-family:'ProductusBook'; font-size:7.98;">o</tspan><tspan x="13.518" y="0" style="font-family:'ProductusBook'; font-size:7.98;"> </tspan><tspan x="15.082" y="0" style="font-family:'ProductusBook'; font-size:7.98;">S</tspan><tspan x="18.785" y="0" style="font-family:'ProductusBook'; font-size:7.98;">e</tspan><tspan x="22.32" y="0" style="font-family:'ProductusBook'; font-size:7.98;">r</tspan><tspan x="24.546" y="0" style="font-family:'ProductusBook'; font-size:7.98;">v</tspan><tspan x="27.786" y="0" style="font-family:'ProductusBook'; font-size:7.98;">i</tspan><tspan x="29.35" y="0" style="font-family:'ProductusBook'; font-size:7.98;">c</tspan><tspan x="32.351" y="0" style="font-family:'ProductusBook'; font-size:7.98;">e</tspan><tspan x="35.886" y="0" style="font-family:'ProductusBook'; font-size:7.98;">R</tspan><tspan x="39.309" y="0" style="font-family:'ProductusBook'; font-size:7.98;">egistration</tspan></text>
<polyline points="157.86,98.327 157.86,100.968 157.8,101.627 157.2,101.447 147.96,98.928 146.28,98.508 147.96,97.968 
	157.14,95.207 157.8,95.027 157.8,95.688 157.44,96.167 148.26,98.928 147.96,97.968 148.26,97.968 157.5,100.487 157.2,101.447 
	156.84,100.968 156.84,98.327 "/>
<polyline points="157.8,95.688 157.86,98.327 156.84,98.327 156.78,95.688 "/>
<polyline style="fill-rule:evenodd;clip-rule:evenodd;" points="157.38,98.327 157.38,100.968 148.14,98.447 157.32,95.688 "/>
<polyline points="217.44,84.348 217.38,85.008 217.38,85.067 217.14,85.728 216.78,86.388 216.72,86.447 216.18,87.107 
	215.82,86.747 215.82,86.808 216.36,86.147 216.72,85.487 216.66,85.547 216.9,84.888 216.9,84.947 216.96,84.287 "/>
<polyline points="216.18,87.107 215.58,87.707 215.28,87.348 215.22,87.348 215.82,86.747 "/>
<polyline points="215.58,87.707 215.28,87.348 214.74,87.768 215.04,88.127 "/>
<polyline points="208.979,91.308 207.42,91.907 207.36,91.907 207.24,91.428 207.24,91.487 208.8,90.888 "/>
<polyline points="207.36,91.907 204,92.987 203.88,92.508 207.24,91.428 "/>
<polyline points="204,92.987 203.88,92.508 200.22,93.468 200.34,93.947 "/>
<polyline points="193.74,95.327 191.46,95.747 191.4,95.268 193.68,94.848 "/>
<polyline points="191.46,95.747 186.6,96.468 186.54,95.987 191.4,95.268 "/>
<polyline points="186.6,96.468 186.54,95.987 184.8,96.228 184.86,96.707 "/>
<polyline points="178.14,97.428 175.92,97.667 175.86,97.188 178.08,96.947 "/>
<polyline points="175.92,97.667 170.1,98.087 170.04,98.087 170.04,97.607 175.86,97.188 "/>
<rect x="169.08" y="97.607" width="0.96" height="0.479"/>
<polyline points="162.36,98.388 162.36,97.907 157.86,98.027 157.86,98.508 "/>
<polyline points="86.94,112.487 87,115.127 86.94,115.787 86.34,115.607 77.1,113.087 75.42,112.667 77.1,112.127 86.28,109.367 
	86.94,109.188 86.94,109.848 86.58,110.327 77.4,113.087 77.1,112.127 77.4,112.127 86.64,114.647 86.34,115.607 85.98,115.127 
	85.92,112.487 "/>
<rect x="85.92" y="109.848" width="1.02" height="2.64"/>
<polyline style="fill-rule:evenodd;clip-rule:evenodd;" points="86.46,112.487 86.52,115.127 77.28,112.607 86.46,109.848 "/>
<polyline points="146.58,98.567 146.46,99.228 146.28,99.827 146.28,99.888 145.92,100.547 145.86,100.607 145.32,101.268 
	144.96,100.907 144.96,100.968 145.5,100.308 145.86,99.647 145.8,99.707 145.979,99.107 145.979,99.167 146.1,98.508 "/>
<polyline points="145.32,101.268 144.66,101.928 144.36,101.567 144.3,101.567 144.96,100.907 "/>
<polyline points="144.66,101.928 144.36,101.567 143.88,101.987 144.18,102.348 "/>
<polyline points="138.12,105.468 136.56,106.127 136.5,106.127 136.38,105.647 136.38,105.707 137.94,105.047 "/>
<polyline points="136.5,106.127 133.14,107.147 133.02,106.667 136.38,105.647 "/>
<polyline points="133.14,107.147 133.02,106.667 129.36,107.627 129.479,108.107 "/>
<polyline points="122.88,109.487 120.6,109.907 120.54,109.428 122.82,109.008 "/>
<polyline points="120.6,109.907 115.74,110.627 115.68,110.147 120.54,109.428 "/>
<polyline points="115.74,110.627 115.68,110.147 113.88,110.388 113.94,110.867 "/>
<polyline points="107.28,111.587 105,111.827 104.94,111.348 107.22,111.107 "/>
<polyline points="105,111.827 99.24,112.247 99.18,112.247 99.18,111.768 104.94,111.348 "/>
<polyline points="99.18,112.247 99.18,111.768 98.22,111.827 98.22,112.308 "/>
<polyline points="91.5,112.607 91.5,112.127 87,112.247 87,112.728 "/>
<text transform="matrix(1 0 0 1 171.4199 103.2471)"><tspan x="0" y="0" style="font-family:'ProductusBook'; font-size:7.98;">re</tspan><tspan x="5.802" y="0" style="font-family:'ProductusBook'; font-size:7.98;">t</tspan><tspan x="8.147" y="0" style="font-family:'ProductusBook'; font-size:7.98;">u</tspan><tspan x="11.866" y="0" style="font-family:'ProductusBook'; font-size:7.98;">r</tspan><tspan x="14.148" y="0" style="font-family:'ProductusBook'; font-size:7.98;">n</tspan></text>
<text transform="matrix(1 0 0 1 110.8799 117.4072)" style="font-family:'ProductusBook'; font-size:7.98;">return</text>
<text transform="matrix(1 0 0 1 0 99.167)" style="font-family:'ProductusBook'; font-size:7.98;">object</text>
</svg>
