<?xml version="1.0" encoding="utf-8"?>
<!-- Generator: Adobe Illustrator 16.0.1, SVG Export Plug-In . SVG Version: 6.00 Build 0)  -->
<!DOCTYPE svg PUBLIC "-//W3C//DTD SVG 1.1//EN" "http://www.w3.org/Graphics/SVG/1.1/DTD/svg11.dtd">
<svg version="1.1" id="Layer_1" xmlns="http://www.w3.org/2000/svg" xmlns:xlink="http://www.w3.org/1999/xlink" x="0px" y="0px"
	 width="220.701px" height="126.828px" viewBox="0 0 220.701 126.828" enable-background="new 0 0 220.701 126.828"
	 xml:space="preserve">
<rect x="75.24" y="13.428" width="0.48" height="113.4"/>
<rect x="216.96" y="13.428" width="0.48" height="113.4"/>
<rect x="146.101" y="13.428" width="0.479" height="113.4"/>
<text transform="matrix(1 0 0 1 213.2402 6.647)" font-family="'ProductusBook'" font-size="7.98">T2</text>
<text transform="matrix(1 0 0 1 71.9395 6.647)" font-family="'ProductusBook'" font-size="7.98">T1</text>
<rect x="215.22" y="32.747" width="4.021" height="53.521"/>
<rect x="73.5" y="25.607" width="4.02" height="89.04"/>
<text transform="matrix(1 0 0 1 159.7197 46.5474)" font-family="'ProductusBook'" font-size="7.98">deliver event</text>
<text transform="matrix(1 0 0 1 160.5 69.7671)" font-family="'ProductusBook'" font-size="7.98">get service</text>
<text transform="matrix(1 0 0 1 109.499 6.647)" font-family="'ProductusBook'" font-size="7.98">Framework (not a thread)</text>
<rect x="4.08" y="11.447" width="4.02" height="18.12"/>
<text transform="matrix(1 0 0 1 12.7798 18.1665)" font-family="'ProductusBook'" font-size="7.98">In method</text>
<polyline fill="#FFFFFF" points="81.96,96.587 80.04,97.188 81.3,101.027 83.22,100.427 "/>
<polyline fill="#FFFFFF" points="103.2,89.447 105.12,88.848 106.38,92.688 104.46,93.287 "/>
<polyline fill="#FFFFFF" points="81.96,96.587 83.22,100.427 104.46,93.287 103.2,89.447 "/>
<text transform="matrix(1 0 0 1 0 60.1665)" enable-background="new    "><tspan x="0" y="0" font-family="'ProductusBook'" font-size="7.98">The registerService</tspan><tspan x="0" y="9.576" font-family="'ProductusBook'" font-size="7.98">method has not</tspan><tspan x="0" y="19.152" font-family="'ProductusBook'" font-size="7.98">returned yet, so there</tspan><tspan x="0" y="28.728" font-family="'ProductusBook'" font-size="7.98">is no ServiceRegistration</tspan><tspan x="0" y="38.304" font-family="'ProductusBook'" font-size="7.98">object</tspan></text>
<polyline points="134.819,41.808 134.819,38.508 135.479,38.688 144.66,41.327 146.34,41.808 144.66,42.287 135.479,44.928 
	134.819,45.107 134.819,44.447 135.181,43.968 144.36,41.327 144.66,42.287 144.36,42.287 135.181,39.647 135.479,38.688 
	135.84,39.167 135.84,41.808 "/>
<rect x="134.819" y="41.808" width="1.021" height="2.64"/>
<polyline points="135.3,41.808 135.3,39.167 144.479,41.808 135.3,44.447 "/>
<rect x="75.24" y="41.567" width="59.76" height="0.479"/>
<polyline points="205.681,48.888 205.681,45.587 206.34,45.768 217.26,48.888 206.34,52.008 205.681,52.188 205.681,51.527 
	206.04,51.047 215.28,48.407 215.58,49.367 215.28,49.367 206.04,46.728 206.34,45.768 206.7,46.247 206.7,48.888 "/>
<rect x="205.681" y="48.888" width="1.021" height="2.64"/>
<polyline points="206.16,48.888 206.16,46.247 215.399,48.888 206.16,51.527 "/>
<rect x="146.101" y="48.647" width="59.819" height="0.479"/>
<polyline points="157.86,63.047 157.86,66.348 157.2,66.167 146.28,63.047 157.2,59.928 157.86,59.747 157.86,60.407 157.5,60.888 
	148.26,63.527 147.96,62.567 148.26,62.567 157.5,65.207 157.2,66.167 156.84,65.688 156.84,63.047 "/>
<rect x="156.84" y="60.407" width="1.021" height="2.64"/>
<polyline points="157.38,63.047 157.38,65.688 148.14,63.047 157.38,60.407 "/>
<rect x="157.62" y="62.808" width="59.82" height="0.479"/>
<text transform="matrix(1 0 0 1 85.6201 40.0669)" font-family="'ProductusBook'" font-size="7.98">registerService</text>
<polyline points="86.94,77.207 86.94,80.507 86.28,80.328 77.1,77.688 75.42,77.207 77.1,76.728 86.28,74.087 86.94,73.908 
	86.94,74.567 86.58,75.046 77.4,77.688 77.1,76.728 77.4,76.728 86.58,79.367 86.28,80.328 85.92,79.848 85.92,77.207 "/>
<rect x="85.92" y="74.567" width="1.02" height="2.64"/>
<polyline points="86.46,77.207 86.46,79.848 77.28,77.207 86.46,74.567 "/>
<rect x="217.2" y="76.968" width="0.24" height="0.479"/>
<rect x="86.76" y="76.968" width="130.44" height="0.479"/>
<text transform="matrix(1 0 0 1 160.5 84.7866)" font-family="'ProductusBook'" font-size="7.98">callback</text>
<rect x="144.36" y="32.747" width="4.02" height="1.98"/>
<rect x="144.36" y="34.728" width="4.02" height="65.76"/>
<polyline points="157.86,98.328 157.86,100.968 157.8,101.626 157.2,101.447 147.96,98.927 146.28,98.507 147.96,97.968 
	157.14,95.207 157.8,95.027 157.8,95.688 157.44,96.167 148.26,98.927 147.96,97.968 148.26,97.968 157.5,100.487 157.2,101.447 
	156.84,100.968 156.84,98.328 "/>
<polyline points="157.8,95.688 157.86,98.328 156.84,98.328 156.78,95.688 "/>
<polyline points="157.38,98.328 157.38,100.968 148.14,98.447 157.319,95.688 "/>
<polyline points="217.44,84.348 217.38,85.007 217.38,85.067 217.14,85.728 216.78,86.388 216.72,86.447 216.181,87.107 
	215.819,86.748 215.819,86.808 216.36,86.147 216.72,85.487 216.66,85.546 216.899,84.888 216.899,84.947 216.96,84.287 "/>
<polyline points="216.181,87.107 215.58,87.707 215.28,87.348 215.22,87.348 215.819,86.748 "/>
<polyline points="215.58,87.707 215.28,87.348 214.74,87.768 215.04,88.126 "/>
<polyline points="208.979,91.308 207.42,91.908 207.36,91.908 207.24,91.427 207.24,91.487 208.8,90.888 "/>
<polyline points="207.36,91.908 204,92.987 203.88,92.507 207.24,91.427 "/>
<polyline points="204,92.987 203.88,92.507 200.22,93.468 200.34,93.947 "/>
<polyline points="193.74,95.328 191.46,95.748 191.399,95.268 193.681,94.848 "/>
<polyline points="191.46,95.748 186.601,96.468 186.54,95.987 191.399,95.268 "/>
<polyline points="186.601,96.468 186.54,95.987 184.8,96.228 184.86,96.707 "/>
<polyline points="178.14,97.427 175.92,97.667 175.86,97.188 178.08,96.947 "/>
<polyline points="175.92,97.667 170.101,98.087 170.04,98.087 170.04,97.607 175.86,97.188 "/>
<rect x="169.08" y="97.607" width="0.96" height="0.479"/>
<polyline points="162.36,98.388 162.36,97.908 157.86,98.027 157.86,98.507 "/>
<polyline points="86.94,112.487 87,115.126 86.94,115.787 86.34,115.607 77.1,113.087 75.42,112.667 77.1,112.126 86.28,109.367 
	86.94,109.188 86.94,109.848 86.58,110.328 77.4,113.087 77.1,112.126 77.4,112.126 86.64,114.647 86.34,115.607 85.98,115.126 
	85.92,112.487 "/>
<rect x="85.92" y="109.848" width="1.02" height="2.64"/>
<polyline points="86.46,112.487 86.52,115.126 77.28,112.607 86.46,109.848 "/>
<polyline points="146.58,98.567 146.46,99.228 146.28,99.828 146.28,99.888 145.92,100.546 145.86,100.607 145.319,101.268 
	144.96,100.908 144.96,100.968 145.5,100.308 145.86,99.647 145.8,99.707 145.979,99.107 145.979,99.167 146.101,98.507 "/>
<polyline points="145.319,101.268 144.66,101.927 144.36,101.567 144.3,101.567 144.96,100.908 "/>
<polyline points="144.66,101.927 144.36,101.567 143.88,101.987 144.181,102.348 "/>
<polyline points="138.12,105.468 136.56,106.126 136.5,106.126 136.38,105.647 136.38,105.707 137.94,105.046 "/>
<polyline points="136.5,106.126 133.14,107.147 133.021,106.667 136.38,105.647 "/>
<polyline points="133.14,107.147 133.021,106.667 129.36,107.626 129.479,108.107 "/>
<polyline points="122.88,109.487 120.601,109.908 120.54,109.427 122.819,109.007 "/>
<polyline points="120.601,109.908 115.74,110.626 115.681,110.147 120.54,109.427 "/>
<polyline points="115.74,110.626 115.681,110.147 113.88,110.388 113.94,110.867 "/>
<polyline points="107.28,111.587 105,111.828 104.94,111.348 107.22,111.107 "/>
<polyline points="105,111.828 99.24,112.248 99.18,112.248 99.18,111.768 104.94,111.348 "/>
<polyline points="99.18,112.248 99.18,111.768 98.22,111.828 98.22,112.308 "/>
<polyline points="91.5,112.607 91.5,112.126 87,112.248 87,112.728 "/>
<text transform="matrix(1 0 0 1 171.4199 103.2466)" font-family="'ProductusBook'" font-size="7.98">return</text>
<text transform="matrix(1 0 0 1 110.8799 117.4067)" font-family="'ProductusBook'" font-size="7.98">return</text>
</svg>
