<?xml version="1.0" encoding="utf-8"?>
<!-- Generator: Adobe Illustrator 16.0.0, SVG Export Plug-In . SVG Version: 6.00 Build 0)  -->
<!DOCTYPE svg PUBLIC "-//W3C//DTD SVG 1.1//EN" "http://www.w3.org/Graphics/SVG/1.1/DTD/svg11.dtd">
<svg version="1.1" id="Layer_1" xmlns="http://www.w3.org/2000/svg" xmlns:xlink="http://www.w3.org/1999/xlink" x="0px" y="0px"
	 width="269.28px" height="319.439px" viewBox="0 0 269.28 319.439" style="enable-background:new 0 0 269.28 319.439;"
	 xml:space="preserve">
<rect style="fill:#E6E6E6;" width="269.28" height="43.2"/>
<rect x="108.66" y="8.88" width="54.359" height="27"/>
<rect x="108.66" y="8.64" width="54.6" height="0.48"/>
<rect x="162.78" y="8.88" width="0.479" height="27.24"/>
<rect x="108.42" y="35.64" width="54.6" height="0.48"/>
<rect x="108.42" y="8.64" width="0.48" height="27.24"/>
<rect x="106.32" y="7.08" style="fill:#FFFFFF;" width="54.3" height="27"/>
<rect x="106.32" y="6.84" width="54.54" height="0.48"/>
<rect x="160.38" y="7.08" width="0.48" height="27.24"/>
<rect x="106.08" y="33.84" width="54.54" height="0.48"/>
<rect x="106.08" y="6.84" width="0.479" height="27.24"/>
<text transform="matrix(1 0 0 1.0522 108.6602 14.2197)"><tspan x="0" y="0" style="font-family:'ProductusOSGiBookc'; font-size:7.5841;">B</tspan><tspan x="3.353" y="0" style="font-family:'ProductusOSGiBookc'; font-size:7.5841;">u</tspan><tspan x="6.772" y="0" style="font-family:'ProductusOSGiBookc'; font-size:7.5841;">n</tspan><tspan x="10.246" y="0" style="font-family:'ProductusOSGiBookc'; font-size:7.5841;">d</tspan><tspan x="13.727" y="0" style="font-family:'ProductusOSGiBookc'; font-size:7.5841;">l</tspan><tspan x="15.19" y="0" style="font-family:'ProductusOSGiBookc'; font-size:7.5841;">e</tspan><tspan x="18.489" y="0" style="font-family:'ProductusOSGiBookc'; font-size:7.5841;"> </tspan><tspan x="20.044" y="0" style="font-family:'ProductusOSGiBookc'; font-size:7.5841;">I</tspan><tspan x="21.485" y="0" style="font-family:'ProductusOSGiBookc'; font-size:7.5841;">m</tspan><tspan x="26.938" y="0" style="font-family:'ProductusOSGiBookc'; font-size:7.5841;">p</tspan><tspan x="30.427" y="0" style="font-family:'ProductusOSGiBookc'; font-size:7.5841;">l</tspan></text>
<rect x="207.9" y="8.88" width="54.3" height="27"/>
<rect x="207.9" y="8.64" width="54.54" height="0.48"/>
<rect x="261.96" y="8.88" width="0.48" height="27.24"/>
<rect x="207.66" y="35.64" width="54.54" height="0.48"/>
<rect x="207.66" y="8.64" width="0.479" height="27.24"/>
<rect x="205.5" y="7.08" style="fill:#FFFFFF;" width="54.36" height="27"/>
<rect x="205.5" y="6.84" width="54.6" height="0.48"/>
<rect x="259.62" y="7.08" width="0.479" height="27.24"/>
<rect x="205.26" y="33.84" width="54.601" height="0.48"/>
<rect x="205.26" y="6.84" width="0.48" height="27.24"/>
<text transform="matrix(1 0 0 1.0522 207.9004 14.2197)"><tspan x="0" y="0" style="font-family:'ProductusOSGiBookc'; font-size:7.5841;">Servi</tspan><tspan x="13.355" y="0" style="font-family:'ProductusOSGiBookc'; font-size:7.5841;">c</tspan><tspan x="16.29" y="0" style="font-family:'ProductusOSGiBookc'; font-size:7.5841;">e</tspan><tspan x="19.59" y="0" style="font-family:'ProductusOSGiBookc'; font-size:7.5841;"> </tspan><tspan x="21.091" y="0" style="font-family:'ProductusOSGiBookc'; font-size:7.5841;">I</tspan><tspan x="22.585" y="0" style="font-family:'ProductusOSGiBookc'; font-size:7.5841;">m</tspan><tspan x="27.992" y="0" style="font-family:'ProductusOSGiBookc'; font-size:7.5841;">pl</tspan></text>
<rect x="207.9" y="79.74" width="54.3" height="27"/>
<rect x="207.9" y="79.5" width="54.54" height="0.48"/>
<rect x="261.96" y="79.74" width="0.48" height="27.24"/>
<rect x="207.66" y="106.5" width="54.54" height="0.48"/>
<rect x="207.66" y="79.5" width="0.479" height="27.24"/>
<rect x="205.5" y="77.94" style="fill:#FFFFFF;" width="54.36" height="27"/>
<rect x="205.5" y="77.7" width="54.6" height="0.48"/>
<rect x="259.62" y="77.94" width="0.479" height="27.24"/>
<rect x="205.26" y="104.7" width="54.601" height="0.48"/>
<rect x="205.26" y="77.7" width="0.48" height="27.24"/>
<text transform="matrix(1 0 0 1.0522 207.9004 85.0801)"><tspan x="0" y="0" style="font-family:'ProductusOSGiBookc'; font-size:7.5841;">Ob</tspan><tspan x="8.464" y="0" style="font-family:'ProductusOSGiBookc'; font-size:7.5841;">j</tspan><tspan x="9.958" y="0" style="font-family:'ProductusOSGiBookc'; font-size:7.5841;">e</tspan><tspan x="13.257" y="0" style="font-family:'ProductusOSGiBookc'; font-size:7.5841;">c</tspan><tspan x="16.146" y="0" style="font-family:'ProductusOSGiBookc'; font-size:7.5841;">t</tspan></text>
<polyline points="233.88,66.42 236.52,66.48 237.18,66.54 237,67.14 234.36,76.32 233.88,78 233.4,76.32 230.76,67.14 230.58,66.48 
	231.24,66.48 231.72,66.84 234.36,76.02 233.4,76.32 233.4,76.02 236.04,66.84 237,67.14 236.52,67.5 233.88,67.44 "/>
<polyline points="231.24,66.48 233.88,66.42 233.88,67.44 231.24,67.5 "/>
<polyline style="fill-rule:evenodd;clip-rule:evenodd;" points="233.88,66.9 236.52,66.96 233.88,76.14 231.24,66.96 "/>
<rect x="233.64" y="35.22" width="0.48" height="31.44"/>
<rect x="108.72" y="79.32" width="56.4" height="27"/>
<rect x="108.72" y="79.08" width="56.641" height="0.479"/>
<rect x="164.88" y="79.32" width="0.48" height="27.24"/>
<rect x="108.48" y="106.08" width="56.64" height="0.479"/>
<rect x="108.48" y="79.08" width="0.479" height="27.24"/>
<rect x="106.32" y="77.52" style="fill:#FFFFFF;" width="56.34" height="27"/>
<rect x="106.32" y="77.28" width="56.58" height="0.48"/>
<rect x="162.42" y="77.52" width="0.48" height="27.24"/>
<rect x="106.08" y="104.28" width="56.58" height="0.48"/>
<rect x="106.08" y="77.28" width="0.479" height="27.24"/>
<text transform="matrix(1 0 0 1.0522 108.7197 84.6602)"><tspan x="0" y="0" style="font-family:'ProductusOSGiBookc'; font-size:7.5841;">&lt;</tspan><tspan x="2.799" y="0" style="font-family:'ProductusOSGiBookc'; font-size:7.5841;">&lt;</tspan><tspan x="5.559" y="0" style="font-family:'ProductusOSGiBookc'; font-size:7.5841;">i</tspan><tspan x="7" y="0" style="font-family:'ProductusOSGiBookc'; font-size:7.5841;">n</tspan><tspan x="10.474" y="0" style="font-family:'ProductusOSGiBookc'; font-size:7.5841;">te</tspan><tspan x="16.018" y="0" style="font-family:'ProductusOSGiBookc'; font-size:7.5841;">r</tspan><tspan x="18.118" y="0" style="font-family:'ProductusOSGiBookc'; font-size:7.5841;">f</tspan><tspan x="20.037" y="0" style="font-family:'ProductusOSGiBookc'; font-size:7.5841;">a</tspan><tspan x="23.169" y="0" style="font-family:'ProductusOSGiBookc'; font-size:7.5841;">c</tspan><tspan x="26.051" y="0" style="font-family:'ProductusOSGiBookc'; font-size:7.5841;">e</tspan><tspan x="29.357" y="0" style="font-family:'ProductusOSGiBookc'; font-size:7.5841;">&gt;</tspan><tspan x="32.156" y="0" style="font-family:'ProductusOSGiBookc'; font-size:7.5841;">&gt;</tspan></text>
<text transform="matrix(1 0 0 1 108.7197 93.1201)"><tspan x="0" y="0" style="font-family:'ProductusSemibold'; font-size:7.98;">B</tspan><tspan x="4.317" y="0" style="font-family:'ProductusSemibold'; font-size:7.98;">und</tspan><tspan x="17.156" y="0" style="font-family:'ProductusSemibold'; font-size:7.98;">l</tspan><tspan x="19.375" y="0" style="font-family:'ProductusSemibold'; font-size:7.98;">e</tspan><tspan x="23.452" y="0" style="font-family:'ProductusSemibold'; font-size:7.98;">C</tspan><tspan x="28.192" y="0" style="font-family:'ProductusSemibold'; font-size:7.98;">onte</tspan><tspan x="44.001" y="0" style="font-family:'ProductusSemibold'; font-size:7.98;">x</tspan><tspan x="47.959" y="0" style="font-family:'ProductusSemibold'; font-size:7.98;">t</tspan></text>
<polyline style="fill-rule:evenodd;clip-rule:evenodd;" points="262.2,92.16 248.04,106.32 262.2,106.32 "/>
<polyline points="262.38,92.34 248.22,106.5 248.04,106.56 247.44,106.56 262.02,91.98 "/>
<rect x="248.04" y="106.08" width="14.4" height="0.479"/>
<polyline points="261.96,106.32 261.96,92.16 262.02,91.98 262.44,91.56 262.44,106.32 "/>
<rect x="134.4" y="35.22" width="0.479" height="42.96"/>
<rect x="108.66" y="221.04" width="54.359" height="27"/>
<rect x="108.66" y="220.8" width="54.6" height="0.48"/>
<rect x="162.78" y="221.04" width="0.479" height="27.24"/>
<rect x="108.42" y="247.8" width="54.6" height="0.48"/>
<rect x="108.42" y="220.8" width="0.48" height="27.24"/>
<rect x="106.32" y="219.24" style="fill:#FFFFFF;" width="54.3" height="27"/>
<rect x="106.32" y="219" width="54.54" height="0.48"/>
<rect x="160.38" y="219.24" width="0.48" height="27.24"/>
<rect x="106.08" y="246" width="54.54" height="0.48"/>
<rect x="106.08" y="219" width="0.479" height="27.24"/>
<text transform="matrix(1 0 0 1.0522 108.6602 226.3799)"><tspan x="0" y="0" style="font-family:'ProductusOSGiBookc'; font-size:7.5841;">&lt;</tspan><tspan x="2.775" y="0" style="font-family:'ProductusOSGiBookc'; font-size:7.5841;">&lt;</tspan><tspan x="5.589" y="0" style="font-family:'ProductusOSGiBookc'; font-size:7.5841;">interfa</tspan><tspan x="23.093" y="0" style="font-family:'ProductusOSGiBookc'; font-size:7.5841;">c</tspan><tspan x="26.028" y="0" style="font-family:'ProductusOSGiBookc'; font-size:7.5841;">e&gt;</tspan><tspan x="32.095" y="0" style="font-family:'ProductusOSGiBookc'; font-size:7.5841;">&gt;</tspan></text>
<text transform="matrix(1 0 0 1 108.6602 234.8999)"><tspan x="0" y="0" style="font-family:'ProductusSemibold'; font-size:7.98;">Service</tspan><tspan x="25.352" y="0" style="font-family:'ProductusSemibold'; font-size:7.98;"> </tspan></text>
<text transform="matrix(1 0 0 1 108.6602 243.3604)"><tspan x="0" y="0" style="font-family:'ProductusSemibold'; font-size:7.98;">R</tspan><tspan x="4.253" y="0" style="font-family:'ProductusSemibold'; font-size:7.98;">e</tspan><tspan x="8.387" y="0" style="font-family:'ProductusSemibold'; font-size:7.98;">g</tspan><tspan x="12.4" y="0" style="font-family:'ProductusSemibold'; font-size:7.98;">i</tspan><tspan x="14.556" y="0" style="font-family:'ProductusSemibold'; font-size:7.98;">s</tspan><tspan x="17.915" y="0" style="font-family:'ProductusSemibold'; font-size:7.98;">t</tspan><tspan x="21.035" y="0" style="font-family:'ProductusSemibold'; font-size:7.98;">ra</tspan><tspan x="27.985" y="0" style="font-family:'ProductusSemibold'; font-size:7.98;">t</tspan><tspan x="31.105" y="0" style="font-family:'ProductusSemibold'; font-size:7.98;">i</tspan><tspan x="33.323" y="0" style="font-family:'ProductusSemibold'; font-size:7.98;">o</tspan><tspan x="37.641" y="0" style="font-family:'ProductusSemibold'; font-size:7.98;">n</tspan></text>
<rect x="9.42" y="150.66" width="54.36" height="27"/>
<rect x="9.42" y="150.42" width="54.6" height="0.48"/>
<rect x="63.54" y="150.66" width="0.48" height="27.24"/>
<rect x="9.18" y="177.42" width="54.6" height="0.48"/>
<rect x="9.18" y="150.42" width="0.48" height="27.24"/>
<rect x="7.08" y="148.86" style="fill:#FFFFFF;" width="54.3" height="27"/>
<rect x="7.08" y="148.62" width="54.54" height="0.48"/>
<rect x="61.14" y="148.86" width="0.48" height="27.24"/>
<rect x="6.84" y="175.62" width="54.54" height="0.48"/>
<rect x="6.84" y="148.62" width="0.48" height="27.24"/>
<text transform="matrix(1 0 0 1.0522 9.4199 155.9399)"><tspan x="0" y="0" style="font-family:'ProductusOSGiBookc'; font-size:7.5841;">&lt;</tspan><tspan x="2.798" y="0" style="font-family:'ProductusOSGiBookc'; font-size:7.5841;">&lt;</tspan><tspan x="5.559" y="0" style="font-family:'ProductusOSGiBookc'; font-size:7.5841;">i</tspan><tspan x="7" y="0" style="font-family:'ProductusOSGiBookc'; font-size:7.5841;">n</tspan><tspan x="10.473" y="0" style="font-family:'ProductusOSGiBookc'; font-size:7.5841;">t</tspan><tspan x="12.703" y="0" style="font-family:'ProductusOSGiBookc'; font-size:7.5841;">e</tspan><tspan x="16.01" y="0" style="font-family:'ProductusOSGiBookc'; font-size:7.5841;">r</tspan><tspan x="18.11" y="0" style="font-family:'ProductusOSGiBookc'; font-size:7.5841;">f</tspan><tspan x="20.029" y="0" style="font-family:'ProductusOSGiBookc'; font-size:7.5841;">a</tspan><tspan x="23.154" y="0" style="font-family:'ProductusOSGiBookc'; font-size:7.5841;">c</tspan><tspan x="26.036" y="0" style="font-family:'ProductusOSGiBookc'; font-size:7.5841;">e&gt;</tspan><tspan x="32.148" y="0" style="font-family:'ProductusOSGiBookc'; font-size:7.5841;">&gt;</tspan></text>
<text transform="matrix(1 0 0 1 9.4199 164.46)"><tspan x="0" y="0" style="font-family:'ProductusSemibold'; font-size:7.98;">Service</tspan><tspan x="25.408" y="0" style="font-family:'ProductusSemibold'; font-size:7.98;"> </tspan></text>
<text transform="matrix(1 0 0 1 9.4199 172.98)"><tspan x="0" y="0" style="font-family:'ProductusSemibold'; font-size:7.98;">L</tspan><tspan x="3.663" y="0" style="font-family:'ProductusSemibold'; font-size:7.98;">i</tspan><tspan x="5.881" y="0" style="font-family:'ProductusSemibold'; font-size:7.98;">s</tspan><tspan x="9.177" y="0" style="font-family:'ProductusSemibold'; font-size:7.98;">t</tspan><tspan x="12.353" y="0" style="font-family:'ProductusSemibold'; font-size:7.98;">e</tspan><tspan x="16.43" y="0" style="font-family:'ProductusSemibold'; font-size:7.98;">n</tspan><tspan x="20.748" y="0" style="font-family:'ProductusSemibold'; font-size:7.98;">e</tspan><tspan x="24.881" y="0" style="font-family:'ProductusSemibold'; font-size:7.98;">r</tspan></text>
<rect x="8.88" y="292.2" width="54.36" height="27"/>
<rect x="8.88" y="291.96" width="54.6" height="0.479"/>
<rect x="63" y="292.2" width="0.48" height="27.239"/>
<rect x="8.64" y="318.96" width="54.6" height="0.479"/>
<rect x="8.64" y="291.96" width="0.48" height="27.24"/>
<rect x="6.54" y="290.399" style="fill:#FFFFFF;" width="54.36" height="27"/>
<rect x="6.54" y="290.16" width="54.6" height="0.479"/>
<rect x="60.66" y="290.399" width="0.48" height="27.24"/>
<rect x="6.3" y="317.16" width="54.6" height="0.479"/>
<rect x="6.3" y="290.16" width="0.48" height="27.239"/>
<text transform="matrix(1 0 0 1.0522 8.8799 297.54)"><tspan x="0" y="0" style="font-family:'ProductusOSGiBookc'; font-size:7.5841;">&lt;</tspan><tspan x="2.806" y="0" style="font-family:'ProductusOSGiBookc'; font-size:7.5841;">&lt;</tspan><tspan x="5.566" y="0" style="font-family:'ProductusOSGiBookc'; font-size:7.5841;">c</tspan><tspan x="8.501" y="0" style="font-family:'ProductusOSGiBookc'; font-size:7.5841;">l</tspan><tspan x="9.942" y="0" style="font-family:'ProductusOSGiBookc'; font-size:7.5841;">a</tspan><tspan x="13.082" y="0" style="font-family:'ProductusOSGiBookc'; font-size:7.5841;">s</tspan><tspan x="15.729" y="0" style="font-family:'ProductusOSGiBookc'; font-size:7.5841;">s</tspan><tspan x="18.414" y="0" style="font-family:'ProductusOSGiBookc'; font-size:7.5841;">&gt;</tspan><tspan x="21.174" y="0" style="font-family:'ProductusOSGiBookc'; font-size:7.5841;">&gt;</tspan></text>
<text transform="matrix(1 0 0 1 8.8799 306.0596)"><tspan x="0" y="0" style="font-family:'ProductusSemibold'; font-size:7.98;">Service</tspan><tspan x="25.408" y="0" style="font-family:'ProductusSemibold'; font-size:7.98;"> </tspan><tspan x="27.387" y="0" style="font-family:'ProductusSemibold'; font-size:7.98;">E</tspan><tspan x="31.225" y="0" style="font-family:'ProductusSemibold'; font-size:7.98;">v</tspan><tspan x="35.119" y="0" style="font-family:'ProductusSemibold'; font-size:7.98;">en</tspan><tspan x="43.53" y="0" style="font-family:'ProductusSemibold'; font-size:7.98;">t</tspan></text>
<rect x="207.9" y="291.899" width="54.3" height="27"/>
<rect x="207.9" y="291.66" width="54.54" height="0.479"/>
<rect x="261.96" y="291.899" width="0.48" height="27.24"/>
<rect x="207.66" y="318.66" width="54.54" height="0.479"/>
<rect x="207.66" y="291.66" width="0.479" height="27.239"/>
<rect x="205.5" y="290.1" style="fill:#FFFFFF;" width="54.36" height="27"/>
<rect x="205.5" y="289.859" width="54.6" height="0.48"/>
<rect x="259.62" y="290.1" width="0.479" height="27.24"/>
<rect x="205.26" y="316.859" width="54.601" height="0.48"/>
<rect x="205.26" y="289.859" width="0.48" height="27.24"/>
<text transform="matrix(1 0 0 1.0522 207.9004 297.2402)"><tspan x="0" y="0" style="font-family:'ProductusOSGiBookc'; font-size:7.5841;">&lt;&lt;</tspan><tspan x="5.536" y="0" style="font-family:'ProductusOSGiBookc'; font-size:7.5841;">c</tspan><tspan x="8.471" y="0" style="font-family:'ProductusOSGiBookc'; font-size:7.5841;">las</tspan><tspan x="15.661" y="0" style="font-family:'ProductusOSGiBookc'; font-size:7.5841;">s</tspan><tspan x="18.354" y="0" style="font-family:'ProductusOSGiBookc'; font-size:7.5841;">&gt;</tspan><tspan x="21.121" y="0" style="font-family:'ProductusOSGiBookc'; font-size:7.5841;">&gt;</tspan></text>
<text transform="matrix(1 0 0 1 207.9004 305.7598)"><tspan x="0" y="0" style="font-family:'ProductusSemibold'; font-size:7.98;">I</tspan><tspan x="2.234" y="0" style="font-family:'ProductusSemibold'; font-size:7.98;">n</tspan><tspan x="6.432" y="0" style="font-family:'ProductusSemibold'; font-size:7.98;">v</tspan><tspan x="10.51" y="0" style="font-family:'ProductusSemibold'; font-size:7.98;">a</tspan><tspan x="14.468" y="0" style="font-family:'ProductusSemibold'; font-size:7.98;">li</tspan><tspan x="18.792" y="0" style="font-family:'ProductusSemibold'; font-size:7.98;">d</tspan><tspan x="23.165" y="0" style="font-family:'ProductusSemibold'; font-size:7.98;"> </tspan><tspan x="24.609" y="0" style="font-family:'ProductusSemibold'; font-size:7.98;">S</tspan><tspan x="28.743" y="0" style="font-family:'ProductusSemibold'; font-size:7.98;">y</tspan><tspan x="32.821" y="0" style="font-family:'ProductusSemibold'; font-size:7.98;">nta</tspan><tspan x="44.136" y="0" style="font-family:'ProductusSemibold'; font-size:7.98;">x</tspan><tspan x="48.094" y="0" style="font-family:'ProductusSemibold'; font-size:7.98;"> </tspan></text>
<text transform="matrix(1 0 0 1 207.9004 314.2803)"><tspan x="0" y="0" style="font-family:'ProductusSemibold'; font-size:7.98;">E</tspan><tspan x="3.91" y="0" style="font-family:'ProductusSemibold'; font-size:7.98;">x</tspan><tspan x="7.748" y="0" style="font-family:'ProductusSemibold'; font-size:7.98;">ceptio</tspan><tspan x="29.397" y="0" style="font-family:'ProductusSemibold'; font-size:7.98;">n</tspan></text>
<rect x="108.66" y="150.66" width="54.359" height="27"/>
<rect x="108.66" y="150.42" width="54.6" height="0.48"/>
<rect x="162.78" y="150.66" width="0.479" height="27.24"/>
<rect x="108.42" y="177.42" width="54.6" height="0.48"/>
<rect x="108.42" y="150.42" width="0.48" height="27.24"/>
<rect x="106.32" y="148.86" style="fill:#FFFFFF;" width="54.3" height="27"/>
<rect x="106.32" y="148.62" width="54.54" height="0.48"/>
<rect x="160.38" y="148.86" width="0.48" height="27.24"/>
<rect x="106.08" y="175.62" width="54.54" height="0.48"/>
<rect x="106.08" y="148.62" width="0.479" height="27.24"/>
<text transform="matrix(1 0 0 1.0522 108.6602 155.9399)"><tspan x="0" y="0" style="font-family:'ProductusOSGiBookc'; font-size:7.5841;">S</tspan><tspan x="3.496" y="0" style="font-family:'ProductusOSGiBookc'; font-size:7.5841;">er</tspan><tspan x="8.889" y="0" style="font-family:'ProductusOSGiBookc'; font-size:7.5841;">vi</tspan><tspan x="13.34" y="0" style="font-family:'ProductusOSGiBookc'; font-size:7.5841;">c</tspan><tspan x="16.275" y="0" style="font-family:'ProductusOSGiBookc'; font-size:7.5841;">e</tspan><tspan x="19.574" y="0" style="font-family:'ProductusOSGiBookc'; font-size:7.5841;"> </tspan><tspan x="21.076" y="0" style="font-family:'ProductusOSGiBookc'; font-size:7.5841;">Regi</tspan><tspan x="32.467" y="0" style="font-family:'ProductusOSGiBookc'; font-size:7.5841;">s</tspan><tspan x="35.167" y="0" style="font-family:'ProductusOSGiBookc'; font-size:7.5841;">t</tspan><tspan x="37.381" y="0" style="font-family:'ProductusOSGiBookc'; font-size:7.5841;">r</tspan><tspan x="39.482" y="0" style="font-family:'ProductusOSGiBookc'; font-size:7.5841;">y </tspan></text>
<text transform="matrix(1 0 0 1.0522 108.6602 164.46)"><tspan x="0" y="0" style="font-family:'ProductusOSGiBookc'; font-size:7.5841;">I</tspan><tspan x="1.456" y="0" style="font-family:'ProductusOSGiBookc'; font-size:7.5841;">m</tspan><tspan x="6.909" y="0" style="font-family:'ProductusOSGiBookc'; font-size:7.5841;">p</tspan><tspan x="10.375" y="0" style="font-family:'ProductusOSGiBookc'; font-size:7.5841;">l</tspan></text>
<rect x="134.4" y="176.94" width="0.479" height="43.02"/>
<rect x="63.54" y="162.78" width="43.02" height="0.48"/>
<rect x="59.76" y="304.92" width="4.26" height="0.479"/>
<rect x="69.06" y="304.92" width="6.9" height="0.479"/>
<rect x="81.06" y="304.92" width="4.2" height="0.479"/>
<rect x="84.78" y="301.14" width="0.48" height="4.021"/>
<rect x="84.78" y="286.92" width="0.48" height="8.1"/>
<rect x="84.78" y="272.7" width="0.48" height="8.1"/>
<rect x="84.78" y="258.48" width="0.48" height="8.1"/>
<rect x="84.78" y="244.26" width="0.48" height="8.1"/>
<rect x="84.78" y="230.04" width="0.48" height="8.1"/>
<rect x="84.78" y="215.82" width="0.48" height="8.1"/>
<rect x="84.78" y="201.6" width="0.48" height="8.1"/>
<rect x="84.78" y="187.32" width="0.48" height="8.1"/>
<rect x="84.78" y="173.1" width="0.48" height="8.1"/>
<rect x="84.78" y="166.74" width="0.48" height="0.24"/>
<polyline points="84.78,166.74 85.26,166.74 85.26,163.02 84.78,163.02 85.26,163.02 84.78,163.02 "/>
<rect x="84.78" y="163.02" width="0.48" height="3.96"/>
<rect x="84.78" y="173.22" width="0.48" height="0.24"/>
<polyline points="85.26,173.46 84.78,173.46 84.78,177.24 85.26,177.24 84.78,177.24 85.26,177.24 "/>
<rect x="84.78" y="173.22" width="0.48" height="4.02"/>
<rect x="84.78" y="162.78" width="0.48" height="4.2"/>
<rect x="134.4" y="106.08" width="0.479" height="43.02"/>
<rect x="162.78" y="233.64" width="42.96" height="0.48"/>
<rect x="207.9" y="221.46" width="54.3" height="26.58"/>
<rect x="207.9" y="221.22" width="54.54" height="0.48"/>
<rect x="261.96" y="221.46" width="0.48" height="26.82"/>
<rect x="207.66" y="247.8" width="54.54" height="0.48"/>
<rect x="207.66" y="221.22" width="0.479" height="26.82"/>
<rect x="205.5" y="219.72" style="fill:#FFFFFF;" width="54.36" height="26.58"/>
<rect x="205.5" y="219.48" width="54.6" height="0.48"/>
<rect x="259.62" y="219.72" width="0.479" height="26.82"/>
<rect x="205.26" y="246.06" width="54.601" height="0.48"/>
<rect x="205.26" y="219.48" width="0.48" height="26.82"/>
<text transform="matrix(1 0 0 1.0522 207.9004 226.7998)"><tspan x="0" y="0" style="font-family:'ProductusOSGiBookc'; font-size:7.5841;">&lt;&lt;</tspan><tspan x="5.536" y="0" style="font-family:'ProductusOSGiBookc'; font-size:7.5841;">i</tspan><tspan x="7.03" y="0" style="font-family:'ProductusOSGiBookc'; font-size:7.5841;">nter</tspan><tspan x="18.058" y="0" style="font-family:'ProductusOSGiBookc'; font-size:7.5841;">f</tspan><tspan x="19.976" y="0" style="font-family:'ProductusOSGiBookc'; font-size:7.5841;">a</tspan><tspan x="23.093" y="0" style="font-family:'ProductusOSGiBookc'; font-size:7.5841;">c</tspan><tspan x="26.028" y="0" style="font-family:'ProductusOSGiBookc'; font-size:7.5841;">e</tspan><tspan x="29.327" y="0" style="font-family:'ProductusOSGiBookc'; font-size:7.5841;">&gt;</tspan><tspan x="32.095" y="0" style="font-family:'ProductusOSGiBookc'; font-size:7.5841;">&gt;</tspan></text>
<text transform="matrix(1 0 0 1 207.9004 235.3198)"><tspan x="0" y="0" style="font-family:'ProductusSemibold'; font-size:7.98;">S</tspan><tspan x="4.261" y="0" style="font-family:'ProductusSemibold'; font-size:7.98;">e</tspan><tspan x="8.339" y="0" style="font-family:'ProductusSemibold'; font-size:7.98;">rvice</tspan><tspan x="25.352" y="0" style="font-family:'ProductusSemibold'; font-size:7.98;"> </tspan></text>
<text transform="matrix(1 0 0 1 207.9004 243.7803)"><tspan x="0" y="0" style="font-family:'ProductusSemibold'; font-size:7.98;">R</tspan><tspan x="4.253" y="0" style="font-family:'ProductusSemibold'; font-size:7.98;">e</tspan><tspan x="8.387" y="0" style="font-family:'ProductusSemibold'; font-size:7.98;">f</tspan><tspan x="11.021" y="0" style="font-family:'ProductusSemibold'; font-size:7.98;">e</tspan><tspan x="15.154" y="0" style="font-family:'ProductusSemibold'; font-size:7.98;">r</tspan><tspan x="18.026" y="0" style="font-family:'ProductusSemibold'; font-size:7.98;">e</tspan><tspan x="22.16" y="0" style="font-family:'ProductusSemibold'; font-size:7.98;">n</tspan><tspan x="26.478" y="0" style="font-family:'ProductusSemibold'; font-size:7.98;">c</tspan><tspan x="30.132" y="0" style="font-family:'ProductusSemibold'; font-size:7.98;">e</tspan></text>
<rect x="9.42" y="79.74" width="54.36" height="27"/>
<rect x="9.42" y="79.5" width="54.6" height="0.48"/>
<rect x="63.54" y="79.74" width="0.48" height="27.24"/>
<rect x="9.18" y="106.5" width="54.6" height="0.48"/>
<rect x="9.18" y="79.5" width="0.48" height="27.24"/>
<rect x="7.08" y="77.94" style="fill:#FFFFFF;" width="54.3" height="27"/>
<rect x="7.08" y="77.7" width="54.54" height="0.48"/>
<rect x="61.14" y="77.94" width="0.48" height="27.24"/>
<rect x="6.84" y="104.7" width="54.54" height="0.48"/>
<rect x="6.84" y="77.7" width="0.48" height="27.24"/>
<text transform="matrix(1 0 0 1.0522 9.4199 85.0801)"><tspan x="0" y="0" style="font-family:'ProductusOSGiBookc'; font-size:7.5841;">&lt;</tspan><tspan x="2.798" y="0" style="font-family:'ProductusOSGiBookc'; font-size:7.5841;">&lt;</tspan><tspan x="5.559" y="0" style="font-family:'ProductusOSGiBookc'; font-size:7.5841;">i</tspan><tspan x="7" y="0" style="font-family:'ProductusOSGiBookc'; font-size:7.5841;">n</tspan><tspan x="10.473" y="0" style="font-family:'ProductusOSGiBookc'; font-size:7.5841;">t</tspan><tspan x="12.703" y="0" style="font-family:'ProductusOSGiBookc'; font-size:7.5841;">e</tspan><tspan x="16.01" y="0" style="font-family:'ProductusOSGiBookc'; font-size:7.5841;">r</tspan><tspan x="18.11" y="0" style="font-family:'ProductusOSGiBookc'; font-size:7.5841;">f</tspan><tspan x="20.029" y="0" style="font-family:'ProductusOSGiBookc'; font-size:7.5841;">a</tspan><tspan x="23.154" y="0" style="font-family:'ProductusOSGiBookc'; font-size:7.5841;">c</tspan><tspan x="26.036" y="0" style="font-family:'ProductusOSGiBookc'; font-size:7.5841;">e&gt;</tspan><tspan x="32.148" y="0" style="font-family:'ProductusOSGiBookc'; font-size:7.5841;">&gt;</tspan></text>
<text transform="matrix(1 0 0 1 9.4199 93.6001)"><tspan x="0" y="0" style="font-family:'ProductusSemibold'; font-size:7.98;">Service</tspan><tspan x="25.408" y="0" style="font-family:'ProductusSemibold'; font-size:7.98;"> </tspan></text>
<text transform="matrix(1 0 0 1 9.4199 102.1201)"><tspan x="0" y="0" style="font-family:'ProductusSemibold'; font-size:7.98;">F</tspan><tspan x="3.479" y="0" style="font-family:'ProductusSemibold'; font-size:7.98;">a</tspan><tspan x="7.437" y="0" style="font-family:'ProductusSemibold'; font-size:7.98;">ct</tspan><tspan x="14.212" y="0" style="font-family:'ProductusSemibold'; font-size:7.98;">o</tspan><tspan x="18.529" y="0" style="font-family:'ProductusSemibold'; font-size:7.98;">r</tspan><tspan x="21.521" y="0" style="font-family:'ProductusSemibold'; font-size:7.98;">y</tspan></text>
<rect x="9.42" y="8.46" width="54.36" height="27"/>
<rect x="9.42" y="8.22" width="54.6" height="0.48"/>
<rect x="63.54" y="8.46" width="0.48" height="27.24"/>
<rect x="9.18" y="35.22" width="54.6" height="0.48"/>
<rect x="9.18" y="8.22" width="0.48" height="27.24"/>
<rect x="7.08" y="6.66" style="fill:#FFFFFF;" width="54.3" height="27"/>
<rect x="7.08" y="6.42" width="54.54" height="0.48"/>
<rect x="61.14" y="6.66" width="0.48" height="27.24"/>
<rect x="6.84" y="33.42" width="54.54" height="0.48"/>
<rect x="6.84" y="6.42" width="0.48" height="27.24"/>
<text transform="matrix(1 0 0 1.0522 9.4199 13.7998)"><tspan x="0" y="0" style="font-family:'ProductusOSGiBookc'; font-size:7.5841;">S</tspan><tspan x="3.526" y="0" style="font-family:'ProductusOSGiBookc'; font-size:7.5841;">e</tspan><tspan x="6.826" y="0" style="font-family:'ProductusOSGiBookc'; font-size:7.5841;">r</tspan><tspan x="8.926" y="0" style="font-family:'ProductusOSGiBookc'; font-size:7.5841;">v</tspan><tspan x="11.922" y="0" style="font-family:'ProductusOSGiBookc'; font-size:7.5841;">i</tspan><tspan x="13.363" y="0" style="font-family:'ProductusOSGiBookc'; font-size:7.5841;">c</tspan><tspan x="16.298" y="0" style="font-family:'ProductusOSGiBookc'; font-size:7.5841;">e</tspan><tspan x="19.597" y="0" style="font-family:'ProductusOSGiBookc'; font-size:7.5841;"> </tspan><tspan x="21.099" y="0" style="font-family:'ProductusOSGiBookc'; font-size:7.5841;">F</tspan><tspan x="23.92" y="0" style="font-family:'ProductusOSGiBookc'; font-size:7.5841;">a</tspan><tspan x="27.037" y="0" style="font-family:'ProductusOSGiBookc'; font-size:7.5841;">c</tspan><tspan x="29.979" y="0" style="font-family:'ProductusOSGiBookc'; font-size:7.5841;">t</tspan><tspan x="32.194" y="0" style="font-family:'ProductusOSGiBookc'; font-size:7.5841;">o</tspan><tspan x="35.735" y="0" style="font-family:'ProductusOSGiBookc'; font-size:7.5841;">r</tspan><tspan x="37.836" y="0" style="font-family:'ProductusOSGiBookc'; font-size:7.5841;">y </tspan></text>
<text transform="matrix(1 0 0 1.0522 9.4199 22.2603)"><tspan x="0" y="0" style="font-family:'ProductusOSGiBookc'; font-size:7.5841;">I</tspan><tspan x="1.479" y="0" style="font-family:'ProductusOSGiBookc'; font-size:7.5841;">m</tspan><tspan x="6.886" y="0" style="font-family:'ProductusOSGiBookc'; font-size:7.5841;">p</tspan><tspan x="10.375" y="0" style="font-family:'ProductusOSGiBookc'; font-size:7.5841;">l</tspan></text>
<polyline points="35.4,66.42 38.1,66.48 38.76,66.54 38.58,67.14 35.88,76.32 35.4,78 34.92,76.32 32.28,67.14 32.1,66.48 
	32.76,66.48 33.24,66.84 35.88,76.02 34.92,76.32 34.92,76.02 37.62,66.84 38.58,67.14 38.1,67.5 35.4,67.44 "/>
<polyline points="32.76,66.48 35.4,66.42 35.4,67.44 32.76,67.5 "/>
<polyline style="fill-rule:evenodd;clip-rule:evenodd;" points="35.4,66.9 38.1,66.96 35.4,76.14 32.76,66.96 "/>
<rect x="35.16" y="35.22" width="0.48" height="31.44"/>
<rect x="108.66" y="291.899" width="54.359" height="27"/>
<rect x="108.66" y="291.66" width="54.6" height="0.479"/>
<rect x="162.78" y="291.899" width="0.479" height="27.24"/>
<rect x="108.42" y="318.66" width="54.6" height="0.479"/>
<rect x="108.42" y="291.66" width="0.48" height="27.239"/>
<rect x="106.32" y="290.1" style="fill:#FFFFFF;" width="54.3" height="27"/>
<rect x="106.32" y="289.859" width="54.54" height="0.48"/>
<rect x="160.38" y="290.1" width="0.48" height="27.24"/>
<rect x="106.08" y="316.859" width="54.54" height="0.48"/>
<rect x="106.08" y="289.859" width="0.479" height="27.24"/>
<text transform="matrix(1 0 0 1.0522 108.6602 297.2402)"><tspan x="0" y="0" style="font-family:'ProductusOSGiBookc'; font-size:7.5841;">&lt;</tspan><tspan x="2.775" y="0" style="font-family:'ProductusOSGiBookc'; font-size:7.5841;">&lt;</tspan><tspan x="5.589" y="0" style="font-family:'ProductusOSGiBookc'; font-size:7.5841;">interfa</tspan><tspan x="23.093" y="0" style="font-family:'ProductusOSGiBookc'; font-size:7.5841;">c</tspan><tspan x="26.028" y="0" style="font-family:'ProductusOSGiBookc'; font-size:7.5841;">e&gt;</tspan><tspan x="32.095" y="0" style="font-family:'ProductusOSGiBookc'; font-size:7.5841;">&gt;</tspan></text>
<text transform="matrix(1 0 0 1 108.6602 305.7598)"><tspan x="0" y="0" style="font-family:'ProductusSemibold'; font-size:7.98;">F</tspan><tspan x="3.671" y="0" style="font-family:'ProductusSemibold'; font-size:7.98;">i</tspan><tspan x="5.889" y="0" style="font-family:'ProductusSemibold'; font-size:7.98;">lt</tspan><tspan x="11.147" y="0" style="font-family:'ProductusSemibold'; font-size:7.98;">e</tspan><tspan x="15.281" y="0" style="font-family:'ProductusSemibold'; font-size:7.98;">r</tspan></text>
<rect x="120.24" y="127.32" width="0.479" height="21.78"/>
<rect x="35.16" y="127.32" width="85.32" height="0.48"/>
<rect x="35.16" y="106.08" width="0.48" height="21.48"/>
<rect x="148.56" y="127.32" width="0.48" height="21.78"/>
<rect x="148.8" y="127.32" width="85.32" height="0.48"/>
<rect x="233.64" y="106.08" width="0.48" height="21.48"/>
<rect x="162.78" y="21.06" width="42.96" height="0.48"/>
<rect x="63.54" y="21.06" width="43.02" height="0.48"/>
<text transform="matrix(1 0 0 1 138.9004 57)"><tspan x="0" y="0" style="font-family:'ProductusBook'; font-size:7.98;">r</tspan><tspan x="2.234" y="0" style="font-family:'ProductusBook'; font-size:7.98;">e</tspan><tspan x="5.77" y="0" style="font-family:'ProductusBook'; font-size:7.98;">gis</tspan><tspan x="13.63" y="0" style="font-family:'ProductusBook'; font-size:7.98;">t</tspan><tspan x="16.023" y="0" style="font-family:'ProductusBook'; font-size:7.98;">e</tspan><tspan x="19.495" y="0" style="font-family:'ProductusBook'; font-size:7.98;">r</tspan><tspan x="21.77" y="0" style="font-family:'ProductusBook'; font-size:7.98;">s</tspan></text>
<text transform="matrix(1 0 0 1 138.9004 66.7197)"><tspan x="0" y="0" style="font-family:'ProductusBook'; font-size:7.98;">servi</tspan><tspan x="13.366" y="0" style="font-family:'ProductusBook'; font-size:7.98;">c</tspan><tspan x="16.367" y="0" style="font-family:'ProductusBook'; font-size:7.98;">e</tspan></text>
<text transform="matrix(1 0 0 1 38.2202 113.6992)" style="font-family:'ProductusBook'; font-size:7.98;">0,1</text>
<text transform="matrix(1 0 0 1 115.3809 146.999)" style="font-family:'ProductusBook'; font-size:7.98;">1</text>
<text transform="matrix(1 0 0 1 235.8604 112.2593)" style="font-family:'ProductusBook'; font-size:7.98;">0,1</text>
<text transform="matrix(1 0 0 1 122.9404 146.999)"><tspan x="0" y="0" style="font-family:'ProductusBook'; font-size:7.98;">0..</tspan><tspan x="7.102" y="0" style="font-family:'ProductusBook'; font-size:7.98; letter-spacing:11;">n</tspan><tspan x="22.759" y="0" style="font-family:'ProductusBook'; font-size:7.98;">1</tspan></text>
<text transform="matrix(1 0 0 1 130.4395 113.6992)" style="font-family:'ProductusBook'; font-size:7.98;">1</text>
<text transform="matrix(1 0 0 1 93.4795 161.1597)"><tspan x="0" y="0" style="font-family:'ProductusBook'; font-size:7.98;">0..</tspan><tspan x="7.126" y="0" style="font-family:'ProductusBook'; font-size:7.98;">n</tspan></text>
<text transform="matrix(1 0 0 1 66.5996 161.1597)" style="font-family:'ProductusBook'; font-size:7.98;">0..n</text>
<text transform="matrix(1 0 0 1 130.0801 183.3599)" style="font-family:'ProductusBook'; font-size:7.98;">1</text>
<text transform="matrix(1 0 0 1 129.6602 217.3804)" style="font-family:'ProductusBook'; font-size:7.98;">1</text>
<text transform="matrix(1 0 0 1 165.4795 231.54)" style="font-family:'ProductusBook'; font-size:7.98;">1</text>
<text transform="matrix(1 0 0 1 202.3799 231.2998)" style="font-family:'ProductusBook'; font-size:7.98;">1</text>
<rect x="8.58" y="222.18" width="54.3" height="26.58"/>
<rect x="8.58" y="221.94" width="54.54" height="0.48"/>
<rect x="62.64" y="222.18" width="0.48" height="26.82"/>
<rect x="8.34" y="248.52" width="54.54" height="0.48"/>
<rect x="8.34" y="221.94" width="0.48" height="26.82"/>
<rect x="6.18" y="220.44" style="fill:#FFFFFF;" width="54.36" height="26.58"/>
<rect x="6.18" y="220.2" width="54.6" height="0.48"/>
<rect x="60.3" y="220.44" width="0.48" height="26.82"/>
<rect x="5.94" y="246.78" width="54.6" height="0.48"/>
<rect x="5.94" y="220.2" width="0.48" height="26.82"/>
<text transform="matrix(1 0 0 1.0522 8.5801 227.52)"><tspan x="0" y="0" style="font-family:'ProductusOSGiBookc'; font-size:7.5841;">&lt;&lt;</tspan><tspan x="5.536" y="0" style="font-family:'ProductusOSGiBookc'; font-size:7.5841;">i</tspan><tspan x="7.03" y="0" style="font-family:'ProductusOSGiBookc'; font-size:7.5841;">nte</tspan><tspan x="15.964" y="0" style="font-family:'ProductusOSGiBookc'; font-size:7.5841;">r</tspan><tspan x="18.118" y="0" style="font-family:'ProductusOSGiBookc'; font-size:7.5841;">fa</tspan><tspan x="23.101" y="0" style="font-family:'ProductusOSGiBookc'; font-size:7.5841;">c</tspan><tspan x="26.036" y="0" style="font-family:'ProductusOSGiBookc'; font-size:7.5841;">e</tspan><tspan x="29.334" y="0" style="font-family:'ProductusOSGiBookc'; font-size:7.5841;">&gt;</tspan><tspan x="32.103" y="0" style="font-family:'ProductusOSGiBookc'; font-size:7.5841;">&gt;</tspan></text>
<text transform="matrix(1 0 0 1 8.5801 236.04)"><tspan x="0" y="0" style="font-family:'ProductusSemibold'; font-size:7.98;">A</tspan><tspan x="4.979" y="0" style="font-family:'ProductusSemibold'; font-size:7.98;">l</tspan><tspan x="7.134" y="0" style="font-family:'ProductusSemibold'; font-size:7.98;">l</tspan><tspan x="9.336" y="0" style="font-family:'ProductusSemibold'; font-size:7.98;"> </tspan><tspan x="11.315" y="0" style="font-family:'ProductusSemibold'; font-size:7.98;">S</tspan><tspan x="15.568" y="0" style="font-family:'ProductusSemibold'; font-size:7.98;">e</tspan><tspan x="19.702" y="0" style="font-family:'ProductusSemibold'; font-size:7.98;">r</tspan><tspan x="22.718" y="0" style="font-family:'ProductusSemibold'; font-size:7.98;">v</tspan><tspan x="26.732" y="0" style="font-family:'ProductusSemibold'; font-size:7.98;">i</tspan><tspan x="28.935" y="0" style="font-family:'ProductusSemibold'; font-size:7.98;">c</tspan><tspan x="32.589" y="0" style="font-family:'ProductusSemibold'; font-size:7.98;">e</tspan><tspan x="36.667" y="0" style="font-family:'ProductusSemibold'; font-size:7.98;"> </tspan></text>
<text transform="matrix(1 0 0 1 8.5801 244.4995)"><tspan x="0" y="0" style="font-family:'ProductusSemibold'; font-size:7.98;">Listene</tspan><tspan x="24.809" y="0" style="font-family:'ProductusSemibold'; font-size:7.98;">r</tspan></text>
<polyline points="34.98,190.44 31.68,190.44 31.86,189.78 34.98,178.86 38.1,189.78 38.28,190.44 37.62,190.44 37.14,190.08 
	34.5,180.84 35.46,180.54 35.46,180.84 32.82,190.08 31.86,189.78 32.34,189.42 34.98,189.42 "/>
<rect x="34.98" y="189.42" width="2.64" height="1.02"/>
<polyline style="fill-rule:evenodd;clip-rule:evenodd;" points="34.98,189.96 32.34,189.96 34.98,180.72 37.62,189.96 "/>
<rect x="34.74" y="219.96" width="0.48" height="0.24"/>
<rect x="34.74" y="190.2" width="0.48" height="29.76"/>
</svg>
