<?xml version="1.0" encoding="utf-8"?>
<!-- Generator: Adobe Illustrator 16.0.0, SVG Export Plug-In . SVG Version: 6.00 Build 0)  -->
<!DOCTYPE svg PUBLIC "-//W3C//DTD SVG 1.1//EN" "http://www.w3.org/Graphics/SVG/1.1/DTD/svg11.dtd">
<svg version="1.1" id="Layer_1" xmlns="http://www.w3.org/2000/svg" xmlns:xlink="http://www.w3.org/1999/xlink" x="0px" y="0px"
	 width="288.54px" height="117.308px" viewBox="0 0 288.54 117.308" style="enable-background:new 0 0 288.54 117.308;"
	 xml:space="preserve">
<rect x="132.3" y="2.04" width="55.2" height="27"/>
<rect x="132.3" y="1.8" width="55.44" height="0.48"/>
<rect x="187.26" y="2.04" width="0.48" height="27.24"/>
<rect x="132.061" y="28.8" width="55.439" height="0.48"/>
<rect x="132.061" y="1.8" width="0.479" height="27.24"/>
<rect x="129.9" y="0.24" style="fill:#FFFFFF;" width="55.14" height="27"/>
<rect x="129.9" width="55.38" height="0.48"/>
<rect x="184.8" y="0.24" width="0.48" height="27.24"/>
<rect x="129.66" y="27" width="55.38" height="0.48"/>
<rect x="129.66" width="0.48" height="27.24"/>
<text transform="matrix(1 0 0 1.0522 132.2998 7.3799)"><tspan x="0" y="0" style="font-family:'ProductusOSGiBookc'; font-size:7.5841;">a</tspan><tspan x="3.117" y="0" style="font-family:'ProductusOSGiBookc'; font-size:7.5841;"> </tspan><tspan x="4.672" y="0" style="font-family:'ProductusOSGiBookc'; font-size:7.5841;">C</tspan><tspan x="8.577" y="0" style="font-family:'ProductusOSGiBookc'; font-size:7.5841;">o</tspan><tspan x="12.172" y="0" style="font-family:'ProductusOSGiBookc'; font-size:7.5841;">n</tspan><tspan x="15.638" y="0" style="font-family:'ProductusOSGiBookc'; font-size:7.5841;">f</tspan><tspan x="17.443" y="0" style="font-family:'ProductusOSGiBookc'; font-size:7.5841;">iguration</tspan></text>
<text transform="matrix(1 0 0 1.0522 132.2998 15.9004)"><tspan x="0" y="0" style="font-family:'ProductusOSGiBookc'; font-size:7.5841;">A</tspan><tspan x="3.724" y="0" style="font-family:'ProductusOSGiBookc'; font-size:7.5841;">d</tspan><tspan x="7.205" y="0" style="font-family:'ProductusOSGiBookc'; font-size:7.5841;">m</tspan><tspan x="12.612" y="0" style="font-family:'ProductusOSGiBookc'; font-size:7.5841;">i</tspan><tspan x="14.106" y="0" style="font-family:'ProductusOSGiBookc'; font-size:7.5841;">n</tspan></text>
<rect x="132.36" y="66.84" width="56.939" height="27"/>
<rect x="132.36" y="66.601" width="57.18" height="0.479"/>
<rect x="189.061" y="66.84" width="0.479" height="27.24"/>
<rect x="132.12" y="93.601" width="57.18" height="0.479"/>
<rect x="132.12" y="66.601" width="0.48" height="27.239"/>
<rect x="129.9" y="65.04" style="fill:#FFFFFF;" width="56.88" height="27"/>
<rect x="129.9" y="64.8" width="57.12" height="0.48"/>
<rect x="186.54" y="65.04" width="0.48" height="27.24"/>
<rect x="129.66" y="91.8" width="57.12" height="0.48"/>
<rect x="129.66" y="64.8" width="0.48" height="27.24"/>
<text transform="matrix(1 0 0 1.0522 132.3604 72.1797)"><tspan x="0" y="0" style="font-family:'ProductusOSGiBookc'; font-size:7.5841;">C</tspan><tspan x="3.906" y="0" style="font-family:'ProductusOSGiBookc'; font-size:7.5841;">o</tspan><tspan x="7.501" y="0" style="font-family:'ProductusOSGiBookc'; font-size:7.5841;">n</tspan><tspan x="10.967" y="0" style="font-family:'ProductusOSGiBookc'; font-size:7.5841;">f</tspan><tspan x="12.771" y="0" style="font-family:'ProductusOSGiBookc'; font-size:7.5841;">iguration</tspan></text>
<text transform="matrix(1 0 0 1.0522 132.3604 80.7002)"><tspan x="0" y="0" style="font-family:'ProductusOSGiBookc'; font-size:7.5841;">Plugin</tspan><tspan x="16.207" y="0" style="font-family:'ProductusOSGiBookc'; font-size:7.5841;"> </tspan><tspan x="17.708" y="0" style="font-family:'ProductusOSGiBookc'; font-size:7.5841;">B</tspan></text>
<rect x="31.5" y="66.84" width="55.2" height="27"/>
<rect x="31.5" y="66.601" width="55.44" height="0.479"/>
<rect x="86.46" y="66.84" width="0.48" height="27.24"/>
<rect x="31.26" y="93.601" width="55.44" height="0.479"/>
<rect x="31.26" y="66.601" width="0.48" height="27.239"/>
<rect x="29.1" y="65.04" style="fill:#FFFFFF;" width="55.14" height="27"/>
<rect x="29.1" y="64.8" width="55.38" height="0.48"/>
<rect x="84" y="65.04" width="0.48" height="27.24"/>
<rect x="28.86" y="91.8" width="55.38" height="0.48"/>
<rect x="28.86" y="64.8" width="0.48" height="27.24"/>
<text transform="matrix(1 0 0 1.0522 31.5 72.1797)"><tspan x="0" y="0" style="font-family:'ProductusOSGiBookc'; font-size:7.5841;">C</tspan><tspan x="3.966" y="0" style="font-family:'ProductusOSGiBookc'; font-size:7.5841;">o</tspan><tspan x="7.561" y="0" style="font-family:'ProductusOSGiBookc'; font-size:7.5841;">nfiguratio</tspan><tspan x="33.521" y="0" style="font-family:'ProductusOSGiBookc'; font-size:7.5841;">n</tspan></text>
<text transform="matrix(1 0 0 1.0522 31.5 80.7002)"><tspan x="0" y="0" style="font-family:'ProductusOSGiBookc'; font-size:7.5841;">P</tspan><tspan x="3.109" y="0" style="font-family:'ProductusOSGiBookc'; font-size:7.5841;">l</tspan><tspan x="4.55" y="0" style="font-family:'ProductusOSGiBookc'; font-size:7.5841;">u</tspan><tspan x="8.046" y="0" style="font-family:'ProductusOSGiBookc'; font-size:7.5841;">g</tspan><tspan x="11.292" y="0" style="font-family:'ProductusOSGiBookc'; font-size:7.5841;">i</tspan><tspan x="12.779" y="0" style="font-family:'ProductusOSGiBookc'; font-size:7.5841;">n</tspan><tspan x="16.199" y="0" style="font-family:'ProductusOSGiBookc'; font-size:7.5841;"> </tspan><tspan x="17.754" y="0" style="font-family:'ProductusOSGiBookc'; font-size:7.5841;">A</tspan></text>
<rect x="233.101" y="66.84" width="55.199" height="27"/>
<rect x="233.101" y="66.601" width="55.439" height="0.479"/>
<rect x="288.061" y="66.84" width="0.479" height="27.24"/>
<rect x="232.86" y="93.601" width="55.439" height="0.479"/>
<rect x="232.86" y="66.601" width="0.479" height="27.239"/>
<rect x="230.7" y="65.04" style="fill:#FFFFFF;" width="55.14" height="27"/>
<rect x="230.7" y="64.8" width="55.38" height="0.48"/>
<rect x="285.601" y="65.04" width="0.479" height="27.24"/>
<rect x="230.46" y="91.8" width="55.38" height="0.48"/>
<rect x="230.46" y="64.8" width="0.48" height="27.24"/>
<text transform="matrix(1 0 0 1.0522 233.1006 72.1797)"><tspan x="0" y="0" style="font-family:'ProductusOSGiBookc'; font-size:7.5841;">C</tspan><tspan x="3.967" y="0" style="font-family:'ProductusOSGiBookc'; font-size:7.5841;">o</tspan><tspan x="7.562" y="0" style="font-family:'ProductusOSGiBookc'; font-size:7.5841;">nfiguratio</tspan><tspan x="33.521" y="0" style="font-family:'ProductusOSGiBookc'; font-size:7.5841;">n</tspan></text>
<text transform="matrix(1 0 0 1.0522 233.1006 80.7002)"><tspan x="0" y="0" style="font-family:'ProductusOSGiBookc'; font-size:7.5841;">P</tspan><tspan x="3.109" y="0" style="font-family:'ProductusOSGiBookc'; font-size:7.5841;">l</tspan><tspan x="4.55" y="0" style="font-family:'ProductusOSGiBookc'; font-size:7.5841;">u</tspan><tspan x="8.047" y="0" style="font-family:'ProductusOSGiBookc'; font-size:7.5841;">g</tspan><tspan x="11.292" y="0" style="font-family:'ProductusOSGiBookc'; font-size:7.5841;">i</tspan><tspan x="12.778" y="0" style="font-family:'ProductusOSGiBookc'; font-size:7.5841;">n</tspan><tspan x="16.199" y="0" style="font-family:'ProductusOSGiBookc'; font-size:7.5841;"> </tspan><tspan x="17.754" y="0" style="font-family:'ProductusOSGiBookc'; font-size:7.5841;">C</tspan></text>
<polyline points="158.82,29.28 158.641,28.8 57.84,64.8 58.02,65.28 "/>
<rect x="158.46" y="29.64" width="0.48" height="35.4"/>
<polyline points="158.82,28.8 158.641,29.28 259.44,65.28 259.62,64.8 "/>
<rect x="233.101" y="2.04" width="55.199" height="27"/>
<rect x="233.101" y="1.8" width="55.439" height="0.48"/>
<rect x="288.061" y="2.04" width="0.479" height="27.24"/>
<rect x="232.86" y="28.8" width="55.439" height="0.48"/>
<rect x="232.86" y="1.8" width="0.479" height="27.24"/>
<rect x="230.7" y="0.24" style="fill:#FFFFFF;" width="55.14" height="27"/>
<rect x="230.7" width="55.38" height="0.48"/>
<rect x="285.601" y="0.24" width="0.479" height="27.24"/>
<rect x="230.46" y="27" width="55.38" height="0.48"/>
<rect x="230.46" width="0.48" height="27.24"/>
<text transform="matrix(1 0 0 1.0522 233.1006 7.3799)"><tspan x="0" y="0" style="font-family:'ProductusOSGiBookc'; font-size:7.5841;">a</tspan><tspan x="3.117" y="0" style="font-family:'ProductusOSGiBookc'; font-size:7.5841;"> </tspan><tspan x="4.672" y="0" style="font-family:'ProductusOSGiBookc'; font-size:7.5841;">Managed</tspan></text>
<text transform="matrix(1 0 0 1.0522 233.1006 15.9004)"><tspan x="0" y="0" style="font-family:'ProductusOSGiBookc'; font-size:7.5841;">S</tspan><tspan x="3.534" y="0" style="font-family:'ProductusOSGiBookc'; font-size:7.5841;">e</tspan><tspan x="6.833" y="0" style="font-family:'ProductusOSGiBookc'; font-size:7.5841;">r</tspan><tspan x="8.934" y="0" style="font-family:'ProductusOSGiBookc'; font-size:7.5841;">v</tspan><tspan x="11.93" y="0" style="font-family:'ProductusOSGiBookc'; font-size:7.5841;">i</tspan><tspan x="13.37" y="0" style="font-family:'ProductusOSGiBookc'; font-size:7.5841;">c</tspan><tspan x="16.306" y="0" style="font-family:'ProductusOSGiBookc'; font-size:7.5841;">e</tspan></text>
<rect x="187.5" y="14.4" width="43.2" height="0.479"/>
<g>
	<text transform="matrix(1 0 0 1 283.8984 48.54)" style="font-family:'ProductusBook'; font-size:7.98;">)</text>
	<text transform="matrix(1 0 0 1 281.5586 48.54)" style="font-family:'ProductusBook'; font-size:7.98;">(</text>
	<text transform="matrix(1 0 0 1 277.8994 48.54)" style="font-family:'ProductusBook'; font-size:7.98;">n</text>
	<text transform="matrix(1 0 0 1 274.1045 48.54)" style="font-family:'ProductusBook'; font-size:7.98;">o</text>
	<text transform="matrix(1 0 0 1 272.5283 48.54)" style="font-family:'ProductusBook'; font-size:7.98;">i</text>
	<text transform="matrix(1 0 0 1 270.1387 48.54)" style="font-family:'ProductusBook'; font-size:7.98;">t</text>
	<text transform="matrix(1 0 0 1 266.8154 48.54)" style="font-family:'ProductusBook'; font-size:7.98;">a</text>
	<text transform="matrix(1 0 0 1 264.5371 48.54)" style="font-family:'ProductusBook'; font-size:7.98;">r</text>
	<text transform="matrix(1 0 0 1 260.8457 48.54)" style="font-family:'ProductusBook'; font-size:7.98;">u</text>
	<text transform="matrix(1 0 0 1 257.3545 48.54)" style="font-family:'ProductusBook'; font-size:7.98;">g</text>
	<text transform="matrix(1 0 0 1 255.7783 48.54)" style="font-family:'ProductusBook'; font-size:7.98;">i</text>
	<text transform="matrix(1 0 0 1 253.8584 48.54)" style="font-family:'ProductusBook'; font-size:7.98;">f</text>
	<text transform="matrix(1 0 0 1 250.1982 48.54)" style="font-family:'ProductusBook'; font-size:7.98;">n</text>
	<text transform="matrix(1 0 0 1 246.3584 48.54)" style="font-family:'ProductusBook'; font-size:7.98;">o</text>
	<text transform="matrix(1 0 0 1 242.2178 48.54)" style="font-family:'ProductusBook'; font-size:7.98;">C</text>
	<text transform="matrix(1 0 0 1 238.9902 48.54)" style="font-family:'ProductusBook'; font-size:7.98;">y</text>
	<text transform="matrix(1 0 0 1 236.9434 48.54)" style="font-family:'ProductusBook'; font-size:7.98;">f</text>
	<text transform="matrix(1 0 0 1 235.3672 48.54)" style="font-family:'ProductusBook'; font-size:7.98;">i</text>
	<text transform="matrix(1 0 0 1 231.6611 48.54)" style="font-family:'ProductusBook'; font-size:7.98;">d</text>
	<text transform="matrix(1 0 0 1 227.8662 48.54)" style="font-family:'ProductusBook'; font-size:7.98;">o</text>
	<text transform="matrix(1 0 0 1 222.1006 48.54)" style="font-family:'ProductusBook'; font-size:7.98;">m</text>
	<text transform="matrix(1 0 0 1 26.3213 48.54)" style="font-family:'ProductusBook'; font-size:7.98;">)</text>
	<text transform="matrix(1 0 0 1 23.9707 48.54)" style="font-family:'ProductusBook'; font-size:7.98;">(</text>
	<text transform="matrix(1 0 0 1 20.4907 48.54)" style="font-family:'ProductusBook'; font-size:7.98;">e</text>
	<text transform="matrix(1 0 0 1 18.1011 48.54)" style="font-family:'ProductusBook'; font-size:7.98;">t</text>
	<text transform="matrix(1 0 0 1 14.7773 48.54)" style="font-family:'ProductusBook'; font-size:7.98;">a</text>
	<text transform="matrix(1 0 0 1 11.0703 48.54)" style="font-family:'ProductusBook'; font-size:7.98;">d</text>
	<text transform="matrix(1 0 0 1 7.4111 48.54)" style="font-family:'ProductusBook'; font-size:7.98;">p</text>
	<text transform="matrix(1 0 0 1 3.7202 48.54)" style="font-family:'ProductusBook'; font-size:7.98;">u</text>
</g>
<text transform="matrix(1 0 0 1 72.3003 56.7002)"><tspan x="0" y="0" style="font-family:'ProductusBook'; font-size:7.98; letter-spacing:72;">1</tspan><tspan x="75.898" y="0" style="font-family:'ProductusBook'; font-size:7.98; letter-spacing:66;">2</tspan><tspan x="145.611" y="0" style="font-family:'ProductusBook'; font-size:7.98;">3</tspan></text>
<text transform="matrix(1 0 0 1 194.7002 12.541)"><tspan x="0" y="0" style="font-family:'ProductusBook'; font-size:7.98;">u</tspan><tspan x="3.711" y="0" style="font-family:'ProductusBook'; font-size:7.98;">p</tspan><tspan x="7.373" y="0" style="font-family:'ProductusBook'; font-size:7.98;">d</tspan><tspan x="11.092" y="0" style="font-family:'ProductusBook'; font-size:7.98;">a</tspan><tspan x="14.396" y="0" style="font-family:'ProductusBook'; font-size:7.98;">te</tspan><tspan x="20.341" y="0" style="font-family:'ProductusBook'; font-size:7.98;">d</tspan><tspan x="24.004" y="0" style="font-family:'ProductusBook'; font-size:7.98;">()</tspan></text>
<text transform="matrix(1 0 0 1 194.7002 25.2607)"><tspan x="0" y="0" style="font-family:'ProductusBook'; font-size:7.98;">u</tspan><tspan x="3.711" y="0" style="font-family:'ProductusBook'; font-size:7.98;">p</tspan><tspan x="7.373" y="0" style="font-family:'ProductusBook'; font-size:7.98;">d</tspan><tspan x="11.092" y="0" style="font-family:'ProductusBook'; font-size:7.98;">a</tspan><tspan x="14.396" y="0" style="font-family:'ProductusBook'; font-size:7.98;">te</tspan><tspan x="20.341" y="0" style="font-family:'ProductusBook'; font-size:7.98;">d</tspan><tspan x="24.004" y="0" style="font-family:'ProductusBook'; font-size:7.98;">-</tspan></text>
<text transform="matrix(1 0 0 1 194.7002 34.1406)"><tspan x="0" y="0" style="font-family:'ProductusBook'; font-size:7.98;">F</tspan><tspan x="2.825" y="0" style="font-family:'ProductusBook'; font-size:7.98;">a</tspan><tspan x="6.129" y="0" style="font-family:'ProductusBook'; font-size:7.98;">c</tspan><tspan x="9.24" y="0" style="font-family:'ProductusBook'; font-size:7.98;">t</tspan><tspan x="11.635" y="0" style="font-family:'ProductusBook'; font-size:7.98;">o</tspan><tspan x="15.417" y="0" style="font-family:'ProductusBook'; font-size:7.98;">r</tspan><tspan x="17.691" y="0" style="font-family:'ProductusBook'; font-size:7.98;">y</tspan><tspan x="20.875" y="0" style="font-family:'ProductusBook'; font-size:7.98;">()</tspan></text>
<text transform="matrix(1 0 0 1 182.9395 6.9014)" style="font-family:'ProductusBook'; font-size:7.98;">4</text>
<text transform="matrix(1 0 0 1 36.3003 114.9619)"><tspan x="0" y="0" style="font-family:'ProductusBook'; font-size:7.98;">An</tspan><tspan x="7.756" y="0" style="font-family:'ProductusBook'; font-size:7.98;">y</tspan><tspan x="10.997" y="0" style="font-family:'ProductusBook'; font-size:7.98;"> </tspan><tspan x="12.561" y="0" style="font-family:'ProductusBook'; font-size:7.98;">t</tspan><tspan x="14.954" y="0" style="font-family:'ProductusBook'; font-size:7.98;">i</tspan><tspan x="16.519" y="0" style="font-family:'ProductusBook'; font-size:7.98;">m</tspan><tspan x="22.256" y="0" style="font-family:'ProductusBook'; font-size:7.98;">e</tspan><tspan x="25.791" y="0" style="font-family:'ProductusBook'; font-size:7.98;"> </tspan><tspan x="27.355" y="0" style="font-family:'ProductusBook'; font-size:7.98;">w</tspan><tspan x="32.574" y="0" style="font-family:'ProductusBook'; font-size:7.98;">he</tspan><tspan x="39.724" y="0" style="font-family:'ProductusBook'; font-size:7.98;">n</tspan><tspan x="43.443" y="0" style="font-family:'ProductusBook'; font-size:7.98;"> </tspan><tspan x="45.055" y="0" style="font-family:'ProductusBook'; font-size:7.98;">B</tspan><tspan x="48.614" y="0" style="font-family:'ProductusBook'; font-size:7.98;"> </tspan><tspan x="50.233" y="0" style="font-family:'ProductusBook'; font-size:7.98;">n</tspan><tspan x="53.896" y="0" style="font-family:'ProductusBook'; font-size:7.98;">e</tspan><tspan x="57.431" y="0" style="font-family:'ProductusBook'; font-size:7.98;">e</tspan><tspan x="60.918" y="0" style="font-family:'ProductusBook'; font-size:7.98;">d</tspan><tspan x="64.637" y="0" style="font-family:'ProductusBook'; font-size:7.98;">s</tspan><tspan x="67.438" y="0" style="font-family:'ProductusBook'; font-size:7.98;"> </tspan><tspan x="69.05" y="0" style="font-family:'ProductusBook'; font-size:7.98;">t</tspan><tspan x="71.42" y="0" style="font-family:'ProductusBook'; font-size:7.98;">o</tspan><tspan x="75.258" y="0" style="font-family:'ProductusBook'; font-size:7.98;"> </tspan><tspan x="76.822" y="0" style="font-family:'ProductusBook'; font-size:7.98;">c</tspan><tspan x="79.943" y="0" style="font-family:'ProductusBook'; font-size:7.98;">ha</tspan><tspan x="86.901" y="0" style="font-family:'ProductusBook'; font-size:7.98;">n</tspan><tspan x="90.62" y="0" style="font-family:'ProductusBook'; font-size:7.98;">g</tspan><tspan x="93.923" y="0" style="font-family:'ProductusBook'; font-size:7.98;">e</tspan><tspan x="97.458" y="0" style="font-family:'ProductusBook'; font-size:7.98;"> </tspan><tspan x="99.071" y="0" style="font-family:'ProductusBook'; font-size:7.98;">a</tspan><tspan x="102.366" y="0" style="font-family:'ProductusBook'; font-size:7.98;"> </tspan><tspan x="103.93" y="0" style="font-family:'ProductusBook'; font-size:7.98;">p</tspan><tspan x="107.649" y="0" style="font-family:'ProductusBook'; font-size:7.98;">r</tspan><tspan x="109.923" y="0" style="font-family:'ProductusBook'; font-size:7.98;">o</tspan><tspan x="113.698" y="0" style="font-family:'ProductusBook'; font-size:7.98;">p</tspan><tspan x="117.417" y="0" style="font-family:'ProductusBook'; font-size:7.98;">er</tspan><tspan x="123.154" y="0" style="font-family:'ProductusBook'; font-size:7.98;">t</tspan><tspan x="125.547" y="0" style="font-family:'ProductusBook'; font-size:7.98;">y</tspan></text>
<rect x="86.7" y="14.4" width="43.2" height="0.479"/>
<rect x="158.46" y="93.84" width="0.48" height="14.641"/>
<rect y="108" width="158.7" height="0.48"/>
<rect y="14.4" width="0.48" height="93.84"/>
<rect x="0.24" y="14.4" width="79.26" height="0.479"/>
<rect x="31.5" y="2.04" width="55.2" height="27"/>
<rect x="31.5" y="1.8" width="55.44" height="0.48"/>
<rect x="86.46" y="2.04" width="0.48" height="27.24"/>
<rect x="31.26" y="28.8" width="55.44" height="0.48"/>
<rect x="31.26" y="1.8" width="0.48" height="27.24"/>
<rect x="29.1" y="0.24" style="fill:#FFFFFF;" width="55.14" height="27"/>
<rect x="29.1" width="55.38" height="0.48"/>
<rect x="84" y="0.24" width="0.48" height="27.24"/>
<rect x="28.86" y="27" width="55.38" height="0.48"/>
<rect x="28.86" width="0.48" height="27.24"/>
<text transform="matrix(1 0 0 1.0522 31.5 7.3799)"><tspan x="0" y="0" style="font-family:'ProductusOSGiBookc'; font-size:7.5841;">a</tspan><tspan x="3.117" y="0" style="font-family:'ProductusOSGiBookc'; font-size:7.5841;"> </tspan><tspan x="4.672" y="0" style="font-family:'ProductusOSGiBookc'; font-size:7.5841;">C</tspan><tspan x="8.578" y="0" style="font-family:'ProductusOSGiBookc'; font-size:7.5841;">o</tspan><tspan x="12.172" y="0" style="font-family:'ProductusOSGiBookc'; font-size:7.5841;">n</tspan><tspan x="15.638" y="0" style="font-family:'ProductusOSGiBookc'; font-size:7.5841;">f</tspan><tspan x="17.443" y="0" style="font-family:'ProductusOSGiBookc'; font-size:7.5841;">iguratio</tspan><tspan x="38.117" y="0" style="font-family:'ProductusOSGiBookc'; font-size:7.5841;">n</tspan><tspan x="41.537" y="0" style="font-family:'ProductusOSGiBookc'; font-size:7.5841;"> </tspan></text>
<text transform="matrix(1 0 0 1.0522 31.5 15.9004)"><tspan x="0" y="0" style="font-family:'ProductusOSGiBookc'; font-size:7.5841;">ob</tspan><tspan x="7.091" y="0" style="font-family:'ProductusOSGiBookc'; font-size:7.5841;">j</tspan><tspan x="8.532" y="0" style="font-family:'ProductusOSGiBookc'; font-size:7.5841;">e</tspan><tspan x="11.831" y="0" style="font-family:'ProductusOSGiBookc'; font-size:7.5841;">c</tspan><tspan x="14.758" y="0" style="font-family:'ProductusOSGiBookc'; font-size:7.5841;">t</tspan></text>
</svg>
