<?xml version="1.0" encoding="utf-8"?>
<!-- Generator: Adobe Illustrator 16.0.0, SVG Export Plug-In . SVG Version: 6.00 Build 0)  -->
<!DOCTYPE svg PUBLIC "-//W3C//DTD SVG 1.1//EN" "http://www.w3.org/Graphics/SVG/1.1/DTD/svg11.dtd">
<svg version="1.1" id="Layer_1" xmlns="http://www.w3.org/2000/svg" xmlns:xlink="http://www.w3.org/1999/xlink" x="0px" y="0px"
	 width="327.653px" height="132.77px" viewBox="0 0 327.653 132.77" style="enable-background:new 0 0 327.653 132.77;"
	 xml:space="preserve">
<rect x="22.2" y="19.368" width="1.02" height="113.4"/>
<text transform="matrix(1 0 0 1 0 16.6082)" style="font-family:'ProductusBook'; font-size:7.98;">C</text>
<text transform="matrix(1 0 0 1 4.4131 16.6082)" style="font-family:'ProductusBook'; font-size:7.98;">l</text>
<text transform="matrix(1 0 0 1 6.0332 16.6082)" style="font-family:'ProductusBook'; font-size:7.98;">ie</text>
<text transform="matrix(1 0 0 1 11.1001 16.6082)" style="font-family:'ProductusBook'; font-size:7.98;">n</text>
<text transform="matrix(1 0 0 1 14.8188 16.6082)" style="font-family:'ProductusBook'; font-size:7.98;">t</text>
<text transform="matrix(1 0 0 1 17.165 16.6082)" style="font-family:'ProductusBook'; font-size:7.98;"> </text>
<text transform="matrix(1 0 0 1 18.7852 16.6082)" style="font-family:'ProductusBook'; font-size:7.98;">Bundle</text>
<rect x="90.24" y="19.368" width="1.02" height="113.4"/>
<text transform="matrix(1 0 0 1 67.0801 16.6082)" style="font-family:'ProductusBook'; font-size:7.98;">F</text>
<text transform="matrix(1 0 0 1 70.0801 16.6082)" style="font-family:'ProductusBook'; font-size:7.98;">r</text>
<text transform="matrix(1 0 0 1 72.355 16.6082)" style="font-family:'ProductusBook'; font-size:7.98;">a</text>
<text transform="matrix(1 0 0 1 75.7139 16.6082)" style="font-family:'ProductusBook'; font-size:7.98;">m</text>
<text transform="matrix(1 0 0 1 81.4683 16.6082)" style="font-family:'ProductusBook'; font-size:7.98;">e</text>
<text transform="matrix(1 0 0 1 84.9551 16.6082)" style="font-family:'ProductusBook'; font-size:7.98;">w</text>
<text transform="matrix(1 0 0 1 89.998 16.6082)" style="font-family:'ProductusBook'; font-size:7.98;">o</text>
<text transform="matrix(1 0 0 1 93.7812 16.6082)" style="font-family:'ProductusBook'; font-size:7.98;">r</text>
<text transform="matrix(1 0 0 1 96.0552 16.6082)" style="font-family:'ProductusBook'; font-size:7.98;">k</text>
<rect x="158.28" y="19.368" width="1.021" height="113.4"/>
<rect x="237.661" y="19.368" width="1.021" height="113.4"/>
<text transform="matrix(1 0 0 1 228.8403 16.6082)" style="font-family:'ProductusBook'; font-size:7.98;">A</text>
<text transform="matrix(1 0 0 1 232.8062 16.6082)" style="font-family:'ProductusBook'; font-size:7.98;">d</text>
<text transform="matrix(1 0 0 1 236.5259 16.6082)" style="font-family:'ProductusBook'; font-size:7.98;">min</text>
<polyline points="144.36,30.708 144.36,26.568 145.02,26.748 157.14,30.229 158.82,30.708 157.14,31.188 145.02,34.668 
	144.36,34.848 144.36,34.188 144.72,33.708 156.84,30.229 157.14,31.188 156.84,31.188 144.72,27.708 145.02,26.748 145.38,27.229 
	145.38,30.708 "/>
<rect x="144.36" y="30.708" width="1.02" height="3.48"/>
<polyline points="144.84,30.708 144.84,27.229 156.96,30.708 144.84,34.188 "/>
<rect x="22.68" y="30.229" width="121.68" height="1.02"/>
<polyline points="76.32,53.388 76.32,49.248 76.98,49.427 89.1,52.908 90.78,53.388 89.1,53.868 76.98,57.348 76.32,57.528 
	76.32,56.868 76.68,56.388 88.8,52.908 89.1,53.868 88.8,53.868 76.68,50.388 76.98,49.427 77.34,49.908 77.34,53.388 "/>
<rect x="76.32" y="53.388" width="1.02" height="3.479"/>
<polyline points="76.8,53.388 76.8,49.908 88.92,53.388 76.8,56.868 "/>
<rect x="22.68" y="52.908" width="53.64" height="1.02"/>
<text transform="matrix(1 0 0 1 34.02 36.408)" style="font-family:'ProductusBook'; font-size:7.98;">n</text>
<text transform="matrix(1 0 0 1 37.6831 36.408)" style="font-family:'ProductusBook'; font-size:7.98;">e</text>
<text transform="matrix(1 0 0 1 41.2178 36.408)" style="font-family:'ProductusBook'; font-size:7.98;">w</text>
<polyline points="223.741,76.068 223.741,71.927 224.4,72.108 236.459,75.588 238.14,76.068 236.459,76.548 224.4,80.028 
	223.741,80.208 223.741,79.548 224.1,79.068 236.161,75.588 236.459,76.548 236.161,76.548 224.1,73.068 224.4,72.108 
	224.76,72.588 224.76,76.068 "/>
<rect x="223.741" y="76.068" width="1.021" height="3.479"/>
<polyline points="224.22,76.068 224.22,72.588 236.28,76.068 224.22,79.548 "/>
<rect x="90.72" y="75.588" width="132.96" height="1.021"/>
<text transform="matrix(1 0 0 1 34.02 62.6277)" style="font-family:'ProductusBook'; font-size:7.98;">registe</text>
<text transform="matrix(1 0 0 1 53.5859 62.6277)" style="font-family:'ProductusBook'; font-size:7.98;">r</text>
<text transform="matrix(1 0 0 1 55.813 62.6277)" style="font-family:'ProductusBook'; font-size:7.98;">Ser</text>
<text transform="matrix(1 0 0 1 65.3091 62.6277)" style="font-family:'ProductusBook'; font-size:7.98;">v</text>
<text transform="matrix(1 0 0 1 68.4932 62.6277)" style="font-family:'ProductusBook'; font-size:7.98;">i</text>
<text transform="matrix(1 0 0 1 70.0649 62.6277)" style="font-family:'ProductusBook'; font-size:7.98;">c</text>
<text transform="matrix(1 0 0 1 73.1289 62.6277)" style="font-family:'ProductusBook'; font-size:7.98;">e(</text>
<text transform="matrix(1 0 0 1 78.9868 62.6277)" style="font-family:'ProductusBook'; font-size:7.98;">)</text>
<text transform="matrix(1 0 0 1 107.2803 73.9685)" style="font-family:'ProductusBook'; font-size:7.98;">se</text>
<text transform="matrix(1 0 0 1 113.5845 73.9685)" style="font-family:'ProductusBook'; font-size:7.98;">n</text>
<text transform="matrix(1 0 0 1 117.3032 73.9685)" style="font-family:'ProductusBook'; font-size:7.98;">d</text>
<text transform="matrix(1 0 0 1 121.0215 73.9685)" style="font-family:'ProductusBook'; font-size:7.98;"> </text>
<text transform="matrix(1 0 0 1 122.5864 73.9685)" style="font-family:'ProductusBook'; font-size:7.98;">r</text>
<text transform="matrix(1 0 0 1 124.8442 73.9685)" style="font-family:'ProductusBook'; font-size:7.98;">e</text>
<text transform="matrix(1 0 0 1 128.3794 73.9685)" style="font-family:'ProductusBook'; font-size:7.98;">gis</text>
<text transform="matrix(1 0 0 1 136.2153 73.9685)" style="font-family:'ProductusBook'; font-size:7.98;">t</text>
<text transform="matrix(1 0 0 1 138.6094 73.9685)" style="font-family:'ProductusBook'; font-size:7.98;">ere</text>
<text transform="matrix(1 0 0 1 147.8584 73.9685)" style="font-family:'ProductusBook'; font-size:7.98;">d</text>
<text transform="matrix(1 0 0 1 151.5762 73.9685)" style="font-family:'ProductusBook'; font-size:7.98;"> </text>
<text transform="matrix(1 0 0 1 153.1885 73.9685)" style="font-family:'ProductusBook'; font-size:7.98;">e</text>
<text transform="matrix(1 0 0 1 156.6841 73.9685)" style="font-family:'ProductusBook'; font-size:7.98;">v</text>
<text transform="matrix(1 0 0 1 159.8042 73.9685)" style="font-family:'ProductusBook'; font-size:7.98;">e</text>
<text transform="matrix(1 0 0 1 163.2993 73.9685)" style="font-family:'ProductusBook'; font-size:7.98;">n</text>
<text transform="matrix(1 0 0 1 167.0181 73.9685)" style="font-family:'ProductusBook'; font-size:7.98;">t</text>
<polyline points="173.161,110.088 173.161,114.229 172.5,114.048 160.38,110.568 158.7,110.088 160.38,109.608 172.5,106.128 
	173.161,105.948 173.161,106.608 172.799,107.088 160.68,110.568 160.38,109.608 160.68,109.608 172.799,113.088 172.5,114.048 
	172.14,113.568 172.14,110.088 "/>
<rect x="172.14" y="106.608" width="1.021" height="3.479"/>
<polyline points="172.68,110.088 172.68,113.568 160.56,110.088 172.68,106.608 "/>
<rect x="173.161" y="109.608" width="64.979" height="1.02"/>
<polyline style="fill:#999999;" points="43.3,110.118 43.3,113.598 31.18,110.118 43.3,106.638 "/>
<rect x="42.78" y="109.608" style="fill:#999999;" width="115.98" height="1.02"/>
<text transform="matrix(1 0 0 1 169.8003 104.9275)" style="font-family:'ProductusBook'; font-size:7.98;">u</text>
<text transform="matrix(1 0 0 1 173.4634 104.9275)" style="font-family:'ProductusBook'; font-size:7.98;">pdat</text>
<text transform="matrix(1 0 0 1 186.606 104.9275)" style="font-family:'ProductusBook'; font-size:7.98;">e</text>
<text transform="matrix(1 0 0 1 190.0933 104.9275)" style="font-family:'ProductusBook'; font-size:7.98;">d(</text>
<text transform="matrix(1 0 0 1 196.1567 104.9275)" style="font-family:'ProductusBook'; font-size:7.98;">)</text>
<rect x="20.7" y="30.708" width="4.02" height="96.36"/>
<rect x="88.74" y="47.688" width="4.02" height="68.04"/>
<rect x="305.7" y="19.368" width="1.021" height="113.4"/>
<text transform="matrix(1 0 0 1 270.0005 15.8875)" style="font-family:'ProductusBook'; font-size:7.98;">C</text>
<text transform="matrix(1 0 0 1 274.2056 15.8875)" style="font-family:'ProductusBook'; font-size:7.98;">on</text>
<text transform="matrix(1 0 0 1 281.6675 15.8875)" style="font-family:'ProductusBook'; font-size:7.98;">f</text>
<text transform="matrix(1 0 0 1 283.5903 15.8875)" style="font-family:'ProductusBook'; font-size:7.98;">ig</text>
<text transform="matrix(1 0 0 1 288.6333 15.8875)" style="font-family:'ProductusBook'; font-size:7.98;">u</text>
<text transform="matrix(1 0 0 1 292.3521 15.8875)" style="font-family:'ProductusBook'; font-size:7.98;">r</text>
<text transform="matrix(1 0 0 1 294.6265 15.8875)" style="font-family:'ProductusBook'; font-size:7.98;">ation</text>
<rect x="236.161" y="70.368" width="4.021" height="45.36"/>
<polyline points="294.661,98.748 294.661,95.448 295.32,95.628 304.5,98.269 306.18,98.748 304.5,99.229 295.32,101.868 
	294.661,102.048 294.661,101.388 295.02,100.908 304.2,98.269 304.5,99.229 304.2,99.229 295.02,96.588 295.32,95.628 
	295.68,96.108 295.68,98.748 "/>
<rect x="294.661" y="98.748" width="1.021" height="2.641"/>
<polyline points="295.14,98.748 295.14,96.108 304.32,98.748 295.14,101.388 "/>
<rect x="238.14" y="98.508" width="56.46" height="0.48"/>
<text transform="matrix(1 0 0 1 249.48 97.1882)" style="font-family:'ProductusBook'; font-size:7.98;">g</text>
<text transform="matrix(1 0 0 1 252.8472 97.1882)" style="font-family:'ProductusBook'; font-size:7.98;">e</text>
<text transform="matrix(1 0 0 1 256.3345 97.1882)" style="font-family:'ProductusBook'; font-size:7.98;">t</text>
<text transform="matrix(1 0 0 1 258.729 97.1882)" style="font-family:'ProductusBook'; font-size:7.98;"> </text>
<text transform="matrix(1 0 0 1 260.3481 97.1882)" style="font-family:'ProductusBook'; font-size:7.98;">f</text>
<text transform="matrix(1 0 0 1 262.272 97.1882)" style="font-family:'ProductusBook'; font-size:7.98;">o</text>
<text transform="matrix(1 0 0 1 266.0542 97.1882)" style="font-family:'ProductusBook'; font-size:7.98;">r</text>
<text transform="matrix(1 0 0 1 268.3286 97.1882)" style="font-family:'ProductusBook'; font-size:7.98;"> </text>
<text transform="matrix(1 0 0 1 269.9399 97.1882)" style="font-family:'ProductusBook'; font-size:7.98;">P</text>
<text transform="matrix(1 0 0 1 273.2446 97.1882)" style="font-family:'ProductusBook'; font-size:7.98;">I</text>
<text transform="matrix(1 0 0 1 274.8638 97.1882)" style="font-family:'ProductusBook'; font-size:7.98;">D</text>
<text transform="matrix(1 0 0 1 130.3799 6.6472)" style="font-family:'ProductusBook'; font-size:7.98;">Im</text>
<text transform="matrix(1 0 0 1 137.7539 6.6472)" style="font-family:'ProductusBook'; font-size:7.98;">p</text>
<text transform="matrix(1 0 0 1 141.416 6.6472)" style="font-family:'ProductusBook'; font-size:7.98;">l</text>
<text transform="matrix(1 0 0 1 142.98 6.6472)" style="font-family:'ProductusBook'; font-size:7.98;">eme</text>
<text transform="matrix(1 0 0 1 155.7881 6.6472)" style="font-family:'ProductusBook'; font-size:7.98;">n</text>
<text transform="matrix(1 0 0 1 159.4507 6.6472)" style="font-family:'ProductusBook'; font-size:7.98;">tor</text>
<text transform="matrix(1 0 0 1 167.9243 6.6472)" style="font-family:'ProductusBook'; font-size:7.98;"> </text>
<text transform="matrix(1 0 0 1 169.4897 6.6472)" style="font-family:'ProductusBook'; font-size:7.98;">o</text>
<text transform="matrix(1 0 0 1 173.2876 6.6472)" style="font-family:'ProductusBook'; font-size:7.98;">f</text>
<text transform="matrix(1 0 0 1 130.3799 17.3269)" style="font-family:'ProductusBook'; font-size:7.98;">M</text>
<text transform="matrix(1 0 0 1 136.269 17.3269)" style="font-family:'ProductusBook'; font-size:7.98;">a</text>
<text transform="matrix(1 0 0 1 139.6289 17.3269)" style="font-family:'ProductusBook'; font-size:7.98;">na</text>
<text transform="matrix(1 0 0 1 146.6191 17.3269)" style="font-family:'ProductusBook'; font-size:7.98;">g</text>
<text transform="matrix(1 0 0 1 149.9858 17.3269)" style="font-family:'ProductusBook'; font-size:7.98;">e</text>
<text transform="matrix(1 0 0 1 153.4741 17.3269)" style="font-family:'ProductusBook'; font-size:7.98;">d</text>
<text transform="matrix(1 0 0 1 157.1689 17.3269)" style="font-family:'ProductusBook'; font-size:7.98;"> </text>
<text transform="matrix(1 0 0 1 158.7798 17.3269)" style="font-family:'ProductusBook'; font-size:7.98;">Servi</text>
<text transform="matrix(1 0 0 1 173.0327 17.3269)" style="font-family:'ProductusBook'; font-size:7.98;">c</text>
<text transform="matrix(1 0 0 1 176.0327 17.3269)" style="font-family:'ProductusBook'; font-size:7.98;">e</text>
<text transform="matrix(1 0 0 1 46.3203 106.2478)" style="font-family:'ProductusBook'; font-size:7.98;">set</text>
<text transform="matrix(1 0 0 1 55.0664 106.2478)" style="font-family:'ProductusBook'; font-size:7.98;"> </text>
<text transform="matrix(1 0 0 1 56.6304 106.2478)" style="font-family:'ProductusBook'; font-size:7.98;">t</text>
<text transform="matrix(1 0 0 1 59.0244 106.2478)" style="font-family:'ProductusBook'; font-size:7.98;">h</text>
<text transform="matrix(1 0 0 1 62.6875 106.2478)" style="font-family:'ProductusBook'; font-size:7.98;">e</text>
<text transform="matrix(1 0 0 1 46.3203 116.5671)" style="font-family:'ProductusBook'; font-size:7.98;">con</text>
<text transform="matrix(1 0 0 1 56.8691 116.5671)" style="font-family:'ProductusBook'; font-size:7.98;">f</text>
<text transform="matrix(1 0 0 1 58.7935 116.5671)" style="font-family:'ProductusBook'; font-size:7.98;">ig</text>
<text transform="matrix(1 0 0 1 63.8364 116.5671)" style="font-family:'ProductusBook'; font-size:7.98;">u</text>
<text transform="matrix(1 0 0 1 67.5542 116.5671)" style="font-family:'ProductusBook'; font-size:7.98;">r</text>
<text transform="matrix(1 0 0 1 69.8291 116.5671)" style="font-family:'ProductusBook'; font-size:7.98;">ation</text>
<text transform="matrix(1 0 0 1 179.4009 85.8474)" style="font-family:'ProductusBook'; font-size:7.98;">g</text>
<text transform="matrix(1 0 0 1 182.7056 85.8474)" style="font-family:'ProductusBook'; font-size:7.98;">e</text>
<text transform="matrix(1 0 0 1 186.2397 85.8474)" style="font-family:'ProductusBook'; font-size:7.98;">t</text>
<text transform="matrix(1 0 0 1 188.6255 85.8474)" style="font-family:'ProductusBook'; font-size:7.98;"> </text>
<text transform="matrix(1 0 0 1 190.1899 85.8474)" style="font-family:'ProductusBook'; font-size:7.98;">pid</text>
<text transform="matrix(1 0 0 1 199.1685 85.8474)" style="font-family:'ProductusBook'; font-size:7.98;"> </text>
<text transform="matrix(1 0 0 1 200.731 85.8474)" style="font-family:'ProductusBook'; font-size:7.98;">from</text>
<text transform="matrix(1 0 0 1 214.6001 85.8474)" style="font-family:'ProductusBook'; font-size:7.98;"> </text>
<text transform="matrix(1 0 0 1 216.2192 85.8474)" style="font-family:'ProductusBook'; font-size:7.98;">prop</text>
<text transform="matrix(1 0 0 1 229.6899 85.8474)" style="font-family:'ProductusBook'; font-size:7.98;">s</text>
<polyline points="170.28,87.408 170.28,90.708 169.62,90.528 158.7,87.408 169.62,84.288 170.28,84.108 170.28,84.769 
	169.92,85.248 160.68,87.888 160.38,86.927 160.68,86.927 169.92,89.568 169.62,90.528 169.26,90.048 169.26,87.408 "/>
<rect x="169.26" y="84.769" width="1.02" height="2.64"/>
<polyline points="169.799,87.408 169.799,90.048 160.56,87.408 169.799,84.769 "/>
<rect x="170.28" y="87.168" width="67.86" height="0.48"/>
<rect x="26.4" y="104.388" width="4.02" height="17.039"/>
<polyline style="fill:#FFFFFF;" points="226.44,89.088 221.581,90.288 224.04,100.008 228.9,98.809 "/>
<polyline style="fill:#FFFFFF;" points="249.12,83.388 253.98,82.188 256.44,91.908 251.581,93.108 "/>
<polyline style="fill:#FFFFFF;" points="226.44,89.088 228.9,98.809 251.581,93.108 249.12,83.388 "/>
<text transform="matrix(1 0 0 1 250.3198 81.1082)" style="font-family:'ProductusBook'; font-size:7.98;">M</text>
<text transform="matrix(1 0 0 1 256.2095 81.1082)" style="font-family:'ProductusBook'; font-size:7.98;">u</text>
<text transform="matrix(1 0 0 1 259.9263 81.1082)" style="font-family:'ProductusBook'; font-size:7.98;">st</text>
<text transform="matrix(1 0 0 1 265.1235 81.1082)" style="font-family:'ProductusBook'; font-size:7.98;"> </text>
<text transform="matrix(1 0 0 1 266.7349 81.1082)" style="font-family:'ProductusBook'; font-size:7.98;">be</text>
<text transform="matrix(1 0 0 1 273.9399 81.1082)" style="font-family:'ProductusBook'; font-size:7.98;"> </text>
<text transform="matrix(1 0 0 1 275.5513 81.1082)" style="font-family:'ProductusBook'; font-size:7.98;">o</text>
<text transform="matrix(1 0 0 1 279.3345 81.1082)" style="font-family:'ProductusBook'; font-size:7.98;">n</text>
<text transform="matrix(1 0 0 1 283.0532 81.1082)" style="font-family:'ProductusBook'; font-size:7.98;"> </text>
<text transform="matrix(1 0 0 1 284.6177 81.1082)" style="font-family:'ProductusBook'; font-size:7.98;">a</text>
<text transform="matrix(1 0 0 1 287.9282 81.1082)" style="font-family:'ProductusBook'; font-size:7.98;">n</text>
<text transform="matrix(1 0 0 1 291.6479 81.1082)" style="font-family:'ProductusBook'; font-size:7.98;">other</text>
<text transform="matrix(1 0 0 1 307.2563 81.1082)" style="font-family:'ProductusBook'; font-size:7.98;"> </text>
<text transform="matrix(1 0 0 1 308.8208 81.1082)" style="font-family:'ProductusBook'; font-size:7.98;">thread</text>
<polyline points="252.84,85.788 254.7,87.648 255.12,88.128 254.581,88.488 246.18,93.168 244.62,94.008 245.459,92.448 
	250.14,84.048 250.5,83.508 250.98,83.927 251.04,84.528 246.36,92.927 245.459,92.448 245.7,92.269 254.1,87.588 254.581,88.488 
	253.98,88.368 252.12,86.508 "/>
<polyline points="250.98,83.927 252.84,85.788 252.12,86.508 250.26,84.648 "/>
<polyline points="252.48,86.148 254.34,88.008 245.94,92.688 250.62,84.288 "/>
<polyline points="256.2,82.788 256.379,82.608 256.02,82.248 255.84,82.427 "/>
<polyline points="253.02,85.968 252.84,86.148 252.48,85.788 252.661,85.608 "/>
<polyline points="256.2,82.788 255.84,82.427 252.661,85.608 253.02,85.968 "/>
<text transform="matrix(1 0 0 1 219.3599 7.5476)" style="font-family:'ProductusBook'; font-size:7.98;">C</text>
<text transform="matrix(1 0 0 1 223.5649 7.5476)" style="font-family:'ProductusBook'; font-size:7.98;">o</text>
<text transform="matrix(1 0 0 1 227.3481 7.5476)" style="font-family:'ProductusBook'; font-size:7.98;">n</text>
<text transform="matrix(1 0 0 1 231.0181 7.5476)" style="font-family:'ProductusBook'; font-size:7.98;">f</text>
<text transform="matrix(1 0 0 1 232.9419 7.5476)" style="font-family:'ProductusBook'; font-size:7.98;">i</text>
<text transform="matrix(1 0 0 1 234.562 7.5476)" style="font-family:'ProductusBook'; font-size:7.98;">g</text>
<text transform="matrix(1 0 0 1 238.0415 7.5476)" style="font-family:'ProductusBook'; font-size:7.98;">ura</text>
<text transform="matrix(1 0 0 1 247.2739 7.5476)" style="font-family:'ProductusBook'; font-size:7.98;">t</text>
<text transform="matrix(1 0 0 1 249.6685 7.5476)" style="font-family:'ProductusBook'; font-size:7.98;">io</text>
<text transform="matrix(1 0 0 1 254.9985 7.5476)" style="font-family:'ProductusBook'; font-size:7.98;">n</text>
</svg>
