<?xml version="1.0" encoding="utf-8"?>
<!-- Generator: Adobe Illustrator 16.0.0, SVG Export Plug-In . SVG Version: 6.00 Build 0)  -->
<!DOCTYPE svg PUBLIC "-//W3C//DTD SVG 1.1//EN" "http://www.w3.org/Graphics/SVG/1.1/DTD/svg11.dtd">
<svg version="1.1" id="Layer_1" xmlns="http://www.w3.org/2000/svg" xmlns:xlink="http://www.w3.org/1999/xlink" x="0px" y="0px"
	 width="332.66px" height="74.628px" viewBox="0 0 332.66 74.628" style="enable-background:new 0 0 332.66 74.628;"
	 xml:space="preserve">
<rect x="18.48" y="18.048" width="4.44" height="1.02"/>
<rect x="28.92" y="18.048" width="7.92" height="1.02"/>
<rect x="42.84" y="18.048" width="7.92" height="1.02"/>
<rect x="56.76" y="18.048" width="7.92" height="1.02"/>
<rect x="70.62" y="18.048" width="7.92" height="1.02"/>
<rect x="84.541" y="18.048" width="7.92" height="1.02"/>
<rect x="98.46" y="18.048" width="7.92" height="1.02"/>
<rect x="112.38" y="18.048" width="7.92" height="1.02"/>
<rect x="126.3" y="18.048" width="7.86" height="1.02"/>
<rect x="140.161" y="18.048" width="7.92" height="1.02"/>
<rect x="154.081" y="18.048" width="7.92" height="1.02"/>
<rect x="168" y="18.048" width="7.92" height="1.02"/>
<rect x="181.92" y="18.048" width="7.92" height="1.02"/>
<rect x="195.781" y="18.048" width="7.92" height="1.02"/>
<rect x="209.701" y="18.048" width="7.92" height="1.02"/>
<rect x="223.621" y="18.048" width="7.92" height="1.02"/>
<rect x="237.541" y="18.048" width="7.92" height="1.02"/>
<rect x="251.46" y="18.048" width="7.92" height="1.02"/>
<rect x="265.321" y="18.048" width="7.92" height="1.02"/>
<rect x="279.241" y="18.048" width="7.92" height="1.02"/>
<rect x="293.161" y="18.048" width="7.92" height="1.02"/>
<rect x="307.081" y="18.048" width="7.92" height="1.02"/>
<rect x="321" y="18.048" width="4.439" height="1.02"/>
<polyline style="fill-rule:evenodd;clip-rule:evenodd;fill:#E6E6E6;" points="100.44,6.888 100.38,6.408 100.26,5.928 
	100.021,5.508 99.72,5.088 99.36,4.728 98.88,4.368 98.34,4.008 97.8,3.708 96.42,3.108 94.92,2.688 93.24,2.448 91.44,2.388 
	89.581,2.448 87.9,2.688 86.4,3.108 85.081,3.708 84.48,4.008 83.94,4.368 83.1,5.088 82.8,5.508 82.62,5.928 82.44,6.408 
	82.44,7.308 82.62,7.788 82.8,8.208 83.1,8.628 83.521,8.988 83.94,9.408 84.48,9.708 85.081,10.068 86.4,10.608 87.9,11.028 
	89.581,11.268 91.44,11.388 93.24,11.268 94.92,11.028 96.42,10.608 97.8,10.068 98.34,9.708 98.88,9.408 99.36,8.988 99.72,8.628 
	100.021,8.208 100.26,7.788 100.38,7.308 100.44,6.888 "/>
<polyline points="100.2,6.948 100.14,6.468 100.021,5.988 100.081,6.048 99.84,5.628 99.84,5.688 99.541,5.268 99.18,4.908 
	99.24,4.908 98.76,4.548 98.76,4.608 98.22,4.248 97.68,3.948 97.74,3.948 96.36,3.348 94.86,2.928 94.92,2.928 93.24,2.688 
	91.44,2.628 89.581,2.688 89.64,2.688 87.96,2.928 86.46,3.348 86.521,3.348 85.2,3.948 84.6,4.248 84.061,4.608 84.12,4.548 
	83.28,5.268 83.34,5.268 83.041,5.688 83.041,5.628 82.86,6.048 82.68,6.528 82.68,6.408 82.68,7.308 82.68,7.248 82.86,7.728 
	83.041,8.148 83.041,8.088 83.34,8.508 83.28,8.448 83.7,8.808 84.12,9.228 84.061,9.228 84.6,9.528 85.2,9.888 86.521,10.428 
	86.46,10.368 87.96,10.788 89.64,11.028 91.5,11.148 91.44,11.148 93.24,11.028 94.92,10.788 94.86,10.788 96.36,10.368 
	96.36,10.428 97.74,9.888 97.68,9.888 98.22,9.528 98.46,9.948 97.92,10.308 96.541,10.848 96.48,10.848 94.98,11.268 93.3,11.508 
	91.5,11.628 91.44,11.628 89.581,11.508 87.9,11.268 87.84,11.268 86.34,10.848 85.021,10.308 84.96,10.308 84.36,9.948 
	83.82,9.648 83.34,9.168 83.4,9.168 82.98,8.808 82.92,8.808 82.62,8.388 82.62,8.328 82.44,7.908 82.26,7.428 82.2,7.308 
	82.2,6.408 82.26,6.348 82.44,5.868 82.62,5.448 82.62,5.388 82.92,4.968 82.98,4.908 83.82,4.188 84.36,3.828 84.96,3.528 
	85.021,3.528 86.34,2.928 86.34,2.868 87.84,2.448 87.9,2.448 89.581,2.208 91.44,2.148 93.24,2.208 93.3,2.208 94.98,2.448 
	96.48,2.868 96.541,2.928 97.92,3.528 98.46,3.828 99,4.188 99.061,4.188 99.541,4.548 99.9,4.908 99.96,4.968 100.26,5.388 
	100.5,5.808 100.5,5.868 100.62,6.348 100.62,6.408 100.68,6.888 "/>
<polyline points="98.22,9.528 98.76,9.228 99.24,8.808 99.18,8.808 99.541,8.448 99.541,8.508 99.84,8.088 100.081,7.668 
	100.021,7.728 100.14,7.248 100.14,7.308 100.2,6.888 100.2,6.948 100.68,6.888 100.68,6.948 100.62,7.368 100.5,7.848 100.5,7.908 
	100.26,8.328 100.26,8.388 99.96,8.808 99.9,8.808 99.541,9.168 99.061,9.588 99,9.648 98.46,9.948 "/>
<polyline points="100.2,33.948 100.14,33.468 100.021,32.988 100.081,33.048 99.84,32.628 99.84,32.688 99.541,32.268 99.18,31.908 
	99.24,31.908 98.76,31.548 98.76,31.608 98.22,31.248 97.68,30.948 97.74,30.948 96.36,30.348 94.86,29.928 94.92,29.928 
	93.24,29.688 91.44,29.628 89.581,29.688 89.64,29.688 87.96,29.928 86.46,30.348 86.521,30.348 85.2,30.948 84.6,31.248 
	84.061,31.608 84.12,31.548 83.28,32.268 83.34,32.268 83.041,32.688 83.041,32.628 82.86,33.048 82.68,33.528 82.68,33.408 
	82.68,34.308 82.68,34.248 82.86,34.728 83.041,35.148 83.041,35.088 83.34,35.508 83.28,35.448 83.7,35.808 84.12,36.228 
	84.061,36.228 84.6,36.528 85.2,36.888 86.521,37.428 86.46,37.368 87.96,37.788 89.64,38.028 91.5,38.148 91.44,38.148 
	93.24,38.028 94.92,37.788 94.86,37.788 96.36,37.368 96.36,37.428 97.74,36.888 97.68,36.888 98.22,36.528 98.46,36.948 
	97.92,37.308 96.541,37.848 96.48,37.848 94.98,38.268 93.3,38.508 91.5,38.628 91.44,38.628 89.581,38.508 87.9,38.268 
	87.84,38.268 86.34,37.848 85.021,37.308 84.96,37.308 84.36,36.948 83.82,36.648 83.34,36.168 83.4,36.168 82.98,35.808 
	82.92,35.808 82.62,35.388 82.62,35.328 82.44,34.908 82.26,34.428 82.2,34.308 82.2,33.408 82.26,33.348 82.44,32.868 
	82.62,32.448 82.62,32.388 82.92,31.968 82.98,31.908 83.82,31.188 84.36,30.828 84.96,30.528 85.021,30.528 86.34,29.928 
	86.34,29.868 87.84,29.448 87.9,29.448 89.581,29.208 91.44,29.148 93.24,29.208 93.3,29.208 94.98,29.448 96.48,29.868 
	96.541,29.928 97.92,30.528 98.46,30.828 99,31.188 99.061,31.188 99.541,31.548 99.96,31.968 100.26,32.388 100.5,32.808 
	100.5,32.868 100.62,33.348 100.62,33.408 100.68,33.888 "/>
<polyline points="98.22,36.528 98.76,36.228 99.24,35.808 99.18,35.808 99.541,35.448 99.541,35.508 99.84,35.088 100.081,34.668 
	100.021,34.728 100.14,34.248 100.14,34.308 100.2,33.888 100.2,33.948 100.68,33.888 100.68,33.948 100.62,34.368 100.5,34.848 
	100.5,34.908 100.26,35.328 100.26,35.388 99.96,35.808 99.9,35.808 99.541,36.168 99.061,36.588 99,36.648 98.46,36.948 "/>
<text transform="matrix(1 0 0 1 4.882812e-04 33.5283)"><tspan x="0" y="0" style="font-family:'ProductusBook'; font-size:7.98;">F</tspan><tspan x="3" y="0" style="font-family:'ProductusBook'; font-size:7.98;">r</tspan><tspan x="5.275" y="0" style="font-family:'ProductusBook'; font-size:7.98;">a</tspan><tspan x="8.634" y="0" style="font-family:'ProductusBook'; font-size:7.98;">m</tspan><tspan x="14.388" y="0" style="font-family:'ProductusBook'; font-size:7.98;">e</tspan><tspan x="17.875" y="0" style="font-family:'ProductusBook'; font-size:7.98;">w</tspan><tspan x="22.918" y="0" style="font-family:'ProductusBook'; font-size:7.98;">o</tspan><tspan x="26.701" y="0" style="font-family:'ProductusBook'; font-size:7.98;">r</tspan><tspan x="28.975" y="0" style="font-family:'ProductusBook'; font-size:7.98;">k</tspan><tspan x="32.271" y="0" style="font-family:'ProductusBook'; font-size:7.98;"> </tspan><tspan x="33.891" y="0" style="font-family:'ProductusBook'; font-size:7.98;">S</tspan><tspan x="37.609" y="0" style="font-family:'ProductusBook'; font-size:7.98;">e</tspan><tspan x="41.097" y="0" style="font-family:'ProductusBook'; font-size:7.98;">r</tspan><tspan x="43.371" y="0" style="font-family:'ProductusBook'; font-size:7.98;">v</tspan><tspan x="46.61" y="0" style="font-family:'ProductusBook'; font-size:7.98;">i</tspan><tspan x="48.175" y="0" style="font-family:'ProductusBook'; font-size:7.98;">c</tspan><tspan x="51.175" y="0" style="font-family:'ProductusBook'; font-size:7.98;">e</tspan></text>
<rect x="91.2" y="11.148" width="0.48" height="18.48"/>
<polyline points="253.38,29.628 253.621,29.688 253.8,29.208 253.56,29.148 "/>
<polyline points="199.38,11.628 199.14,11.568 199.321,11.088 199.56,11.148 "/>
<polyline points="253.38,29.628 253.56,29.148 199.56,11.148 199.38,11.628 "/>
<rect x="253.201" y="29.388" width="0.479" height="0.24"/>
<rect x="253.201" y="2.148" width="0.479" height="27.24"/>
<polyline points="253.38,29.148 253.14,29.208 253.321,29.688 253.56,29.628 "/>
<polyline points="307.38,11.148 307.621,11.088 307.8,11.568 307.56,11.628 "/>
<polyline points="253.38,29.148 253.56,29.628 307.56,11.628 307.38,11.148 "/>
<polyline style="fill-rule:evenodd;clip-rule:evenodd;fill:#FFFFFF;" points="262.44,33.888 262.38,33.408 262.26,32.928 
	262.02,32.508 261.72,32.088 261.36,31.728 260.88,31.368 260.34,31.008 259.8,30.708 258.48,30.108 256.92,29.688 255.241,29.448 
	253.44,29.388 251.581,29.448 249.9,29.688 248.4,30.108 247.081,30.708 246.48,31.008 245.94,31.368 245.1,32.088 244.8,32.508 
	244.621,32.928 244.44,33.408 244.44,34.308 244.621,34.788 244.8,35.208 245.1,35.628 245.52,35.988 245.94,36.408 246.48,36.708 
	247.081,37.068 248.4,37.608 249.9,38.028 251.581,38.268 253.44,38.388 255.241,38.268 256.92,38.028 258.48,37.608 259.8,37.068 
	260.34,36.708 260.88,36.408 261.36,35.988 261.72,35.628 262.02,35.208 262.26,34.788 262.38,34.308 262.44,33.888 "/>
<polyline points="262.201,33.948 262.14,33.468 262.02,32.988 262.081,33.048 261.84,32.628 261.84,32.688 261.541,32.268 
	261.18,31.908 261.241,31.908 260.76,31.548 260.76,31.608 260.22,31.248 259.68,30.948 259.741,30.948 258.42,30.348 
	256.86,29.928 256.92,29.928 255.241,29.688 253.44,29.628 251.581,29.688 251.64,29.688 249.96,29.928 248.46,30.348 
	248.52,30.348 247.201,30.948 246.6,31.248 246.06,31.608 246.121,31.548 245.281,32.268 245.34,32.268 245.041,32.688 
	245.041,32.628 244.86,33.048 244.68,33.528 244.68,33.408 244.68,34.308 244.68,34.248 244.86,34.728 245.041,35.148 
	245.041,35.088 245.34,35.508 245.281,35.448 245.701,35.808 246.121,36.228 246.06,36.228 246.6,36.528 247.201,36.888 
	248.52,37.428 248.46,37.368 249.96,37.788 251.64,38.028 253.5,38.148 253.44,38.148 255.241,38.028 256.92,37.788 256.86,37.788 
	258.42,37.368 258.42,37.428 259.741,36.888 259.68,36.888 260.22,36.528 260.46,36.948 259.92,37.308 258.6,37.848 258.541,37.848 
	256.98,38.268 255.3,38.508 253.5,38.628 253.44,38.628 251.581,38.508 249.9,38.268 249.84,38.268 248.34,37.848 247.02,37.308 
	246.96,37.308 246.36,36.948 245.821,36.648 245.34,36.168 245.4,36.168 244.98,35.808 244.92,35.808 244.621,35.388 
	244.621,35.328 244.44,34.908 244.26,34.428 244.201,34.308 244.201,33.408 244.26,33.348 244.44,32.868 244.621,32.448 
	244.621,32.388 244.92,31.968 244.98,31.908 245.821,31.188 246.36,30.828 246.96,30.528 247.02,30.528 248.34,29.928 
	248.34,29.868 249.84,29.448 249.9,29.448 251.581,29.208 253.44,29.148 255.241,29.208 255.3,29.208 256.98,29.448 258.541,29.868 
	258.6,29.928 259.92,30.528 260.46,30.828 261,31.188 261.06,31.188 261.541,31.548 261.96,31.968 262.26,32.388 262.5,32.808 
	262.5,32.868 262.621,33.348 262.621,33.408 262.68,33.888 "/>
<polyline points="260.22,36.528 260.76,36.228 261.241,35.808 261.18,35.808 261.541,35.448 261.541,35.508 261.84,35.088 
	262.081,34.668 262.02,34.728 262.14,34.248 262.14,34.308 262.201,33.888 262.201,33.948 262.68,33.888 262.68,33.948 
	262.621,34.368 262.5,34.848 262.5,34.908 262.26,35.328 262.26,35.388 261.96,35.808 261.9,35.808 261.541,36.168 261.06,36.588 
	261,36.648 260.46,36.948 "/>
<polyline style="fill-rule:evenodd;clip-rule:evenodd;fill:#E6E6E6;" points="208.44,6.888 208.38,6.408 208.26,5.928 208.02,5.508 
	207.72,5.088 207.36,4.728 206.88,4.368 206.34,4.008 205.8,3.708 204.48,3.108 202.92,2.688 201.241,2.448 199.44,2.388 
	197.581,2.448 195.9,2.688 194.4,3.108 193.081,3.708 192.48,4.008 191.94,4.368 191.1,5.088 190.8,5.508 190.621,5.928 
	190.44,6.408 190.44,7.308 190.621,7.788 190.8,8.208 191.1,8.628 191.52,8.988 191.94,9.408 192.48,9.708 193.081,10.068 
	194.4,10.608 195.9,11.028 197.581,11.268 199.44,11.388 201.241,11.268 202.92,11.028 204.48,10.608 205.8,10.068 206.34,9.708 
	206.88,9.408 207.36,8.988 207.72,8.628 208.02,8.208 208.26,7.788 208.38,7.308 208.44,6.888 "/>
<polyline points="208.201,6.948 208.14,6.468 208.02,5.988 208.081,6.048 207.84,5.628 207.84,5.688 207.541,5.268 207.18,4.908 
	207.241,4.908 206.76,4.548 206.76,4.608 206.22,4.248 205.68,3.948 205.741,3.948 204.42,3.348 202.86,2.928 202.92,2.928 
	201.241,2.688 199.44,2.628 197.581,2.688 197.64,2.688 195.96,2.928 194.46,3.348 194.52,3.348 193.201,3.948 192.6,4.248 
	192.06,4.608 192.121,4.548 191.281,5.268 191.34,5.268 191.041,5.688 191.041,5.628 190.86,6.048 190.68,6.528 190.68,6.408 
	190.68,7.308 190.68,7.248 190.86,7.728 191.041,8.148 191.041,8.088 191.34,8.508 191.281,8.448 191.701,8.808 192.121,9.228 
	192.06,9.228 192.6,9.528 193.201,9.888 194.52,10.428 194.46,10.368 195.96,10.788 197.64,11.028 199.5,11.148 199.44,11.148 
	201.241,11.028 202.92,10.788 202.86,10.788 204.42,10.368 204.42,10.428 205.741,9.888 205.68,9.888 206.22,9.528 206.46,9.948 
	205.92,10.308 204.6,10.848 204.541,10.848 202.98,11.268 201.3,11.508 199.5,11.628 199.44,11.628 197.581,11.508 195.9,11.268 
	195.84,11.268 194.34,10.848 193.02,10.308 192.96,10.308 192.36,9.948 191.821,9.648 191.34,9.168 191.4,9.168 190.98,8.808 
	190.92,8.808 190.621,8.388 190.621,8.328 190.44,7.908 190.26,7.428 190.201,7.308 190.201,6.408 190.26,6.348 190.44,5.868 
	190.621,5.448 190.621,5.388 190.92,4.968 190.98,4.908 191.821,4.188 192.36,3.828 192.96,3.528 193.02,3.528 194.34,2.928 
	194.34,2.868 195.84,2.448 195.9,2.448 197.581,2.208 199.44,2.148 201.241,2.208 201.3,2.208 202.98,2.448 204.541,2.868 
	204.6,2.928 205.92,3.528 206.46,3.828 207,4.188 207.06,4.188 207.541,4.548 207.9,4.908 207.96,4.968 208.26,5.388 208.5,5.808 
	208.5,5.868 208.621,6.348 208.621,6.408 208.68,6.888 "/>
<polyline points="206.22,9.528 206.76,9.228 207.241,8.808 207.18,8.808 207.541,8.448 207.541,8.508 207.84,8.088 208.081,7.668 
	208.02,7.728 208.14,7.248 208.14,7.308 208.201,6.888 208.201,6.948 208.68,6.888 208.68,6.948 208.621,7.368 208.5,7.848 
	208.5,7.908 208.26,8.328 208.26,8.388 207.96,8.808 207.9,8.808 207.541,9.168 207.06,9.588 207,9.648 206.46,9.948 "/>
<polyline style="fill-rule:evenodd;clip-rule:evenodd;fill:#E6E6E6;" points="262.44,6.888 262.38,6.408 262.26,5.928 262.02,5.508 
	261.72,5.088 261.36,4.728 260.88,4.368 260.34,4.008 259.8,3.708 258.48,3.108 256.92,2.688 255.241,2.448 253.44,2.388 
	251.581,2.448 249.9,2.688 248.4,3.108 247.081,3.708 246.48,4.008 245.94,4.368 245.1,5.088 244.8,5.508 244.621,5.928 
	244.44,6.408 244.44,7.308 244.621,7.788 244.8,8.208 245.1,8.628 245.52,8.988 245.94,9.408 246.48,9.708 247.081,10.068 
	248.4,10.608 249.9,11.028 251.581,11.268 253.44,11.388 255.241,11.268 256.92,11.028 258.48,10.608 259.8,10.068 260.34,9.708 
	260.88,9.408 261.36,8.988 261.72,8.628 262.02,8.208 262.26,7.788 262.38,7.308 262.44,6.888 "/>
<polyline points="262.201,6.948 262.14,6.468 262.02,5.988 262.081,6.048 261.84,5.628 261.84,5.688 261.541,5.268 261.18,4.908 
	261.241,4.908 260.76,4.548 260.76,4.608 260.22,4.248 259.68,3.948 259.741,3.948 258.42,3.348 256.86,2.928 256.92,2.928 
	255.241,2.688 253.44,2.628 251.581,2.688 251.64,2.688 249.96,2.928 248.46,3.348 248.52,3.348 247.201,3.948 246.6,4.248 
	246.06,4.608 246.121,4.548 245.281,5.268 245.34,5.268 245.041,5.688 245.041,5.628 244.86,6.048 244.68,6.528 244.68,6.408 
	244.68,7.308 244.68,7.248 244.86,7.728 245.041,8.148 245.041,8.088 245.34,8.508 245.281,8.448 245.701,8.808 246.121,9.228 
	246.06,9.228 246.6,9.528 247.201,9.888 248.52,10.428 248.46,10.368 249.96,10.788 251.64,11.028 253.5,11.148 253.44,11.148 
	255.241,11.028 256.92,10.788 256.86,10.788 258.42,10.368 258.42,10.428 259.741,9.888 259.68,9.888 260.22,9.528 260.46,9.948 
	259.92,10.308 258.6,10.848 258.541,10.848 256.98,11.268 255.3,11.508 253.5,11.628 253.44,11.628 251.581,11.508 249.9,11.268 
	249.84,11.268 248.34,10.848 247.02,10.308 246.96,10.308 246.36,9.948 245.821,9.648 245.34,9.168 245.4,9.168 244.98,8.808 
	244.92,8.808 244.621,8.388 244.621,8.328 244.44,7.908 244.26,7.428 244.201,7.308 244.201,6.408 244.26,6.348 244.44,5.868 
	244.621,5.448 244.621,5.388 244.92,4.968 244.98,4.908 245.821,4.188 246.36,3.828 246.96,3.528 247.02,3.528 248.34,2.928 
	248.34,2.868 249.84,2.448 249.9,2.448 251.581,2.208 253.44,2.148 255.241,2.208 255.3,2.208 256.98,2.448 258.541,2.868 
	258.6,2.928 259.92,3.528 260.46,3.828 261,4.188 261.06,4.188 261.541,4.548 261.9,4.908 261.96,4.968 262.26,5.388 262.5,5.808 
	262.5,5.868 262.621,6.348 262.621,6.408 262.68,6.888 "/>
<polyline points="260.22,9.528 260.76,9.228 261.241,8.808 261.18,8.808 261.541,8.448 261.541,8.508 261.84,8.088 262.081,7.668 
	262.02,7.728 262.14,7.248 262.14,7.308 262.201,6.888 262.201,6.948 262.68,6.888 262.68,6.948 262.621,7.368 262.5,7.848 
	262.5,7.908 262.26,8.328 262.26,8.388 261.96,8.808 261.9,8.808 261.541,9.168 261.06,9.588 261,9.648 260.46,9.948 "/>
<polyline style="fill-rule:evenodd;clip-rule:evenodd;fill:#E6E6E6;" points="316.44,6.888 316.38,6.408 316.26,5.928 316.02,5.508 
	315.72,5.088 315.36,4.728 314.4,4.008 313.8,3.708 312.48,3.108 310.92,2.688 309.241,2.448 307.44,2.388 305.64,2.448 
	303.9,2.688 302.4,3.108 301.081,3.708 300.48,4.008 299.94,4.368 299.52,4.728 299.161,5.088 298.8,5.508 298.621,5.928 
	298.5,6.408 298.44,6.888 298.5,7.308 298.621,7.788 298.8,8.208 299.161,8.628 299.94,9.408 300.48,9.708 301.081,10.068 
	302.4,10.608 303.9,11.028 305.64,11.268 307.44,11.388 309.241,11.268 310.92,11.028 312.48,10.608 313.8,10.068 314.4,9.708 
	314.88,9.408 315.36,8.988 315.72,8.628 316.02,8.208 316.26,7.788 316.38,7.308 316.44,6.888 "/>
<polyline points="316.201,6.948 316.14,6.468 316.02,5.988 316.081,6.048 315.84,5.628 315.84,5.688 315.541,5.268 315.18,4.908 
	315.241,4.908 314.281,4.188 314.281,4.248 313.68,3.948 313.741,3.948 312.42,3.348 310.86,2.928 310.92,2.928 309.241,2.688 
	307.44,2.628 305.64,2.688 305.701,2.688 303.96,2.928 302.46,3.348 302.52,3.348 301.201,3.948 300.6,4.248 300.06,4.608 
	300.121,4.548 299.701,4.908 299.34,5.268 298.98,5.688 299.041,5.628 298.86,6.048 298.86,5.988 298.741,6.468 298.68,6.948 
	298.68,6.888 298.741,7.308 298.741,7.248 298.86,7.728 299.041,8.148 298.98,8.088 299.34,8.508 299.34,8.448 300.121,9.228 
	300.06,9.228 300.6,9.528 301.201,9.888 302.52,10.428 302.46,10.368 303.96,10.788 305.701,11.028 307.5,11.148 307.44,11.148 
	309.241,11.028 310.92,10.788 310.86,10.788 312.42,10.368 312.42,10.428 313.741,9.888 313.68,9.888 314.281,9.528 314.52,9.948 
	313.92,10.308 312.6,10.848 312.541,10.848 310.98,11.268 309.3,11.508 307.5,11.628 307.44,11.628 305.64,11.508 303.9,11.268 
	303.84,11.268 302.34,10.848 301.02,10.308 300.96,10.308 300.36,9.948 299.821,9.648 298.98,8.808 298.621,8.388 298.621,8.328 
	298.44,7.908 298.38,7.848 298.26,7.368 298.201,6.948 298.201,6.888 298.26,6.408 298.26,6.348 298.38,5.868 298.44,5.868 
	298.621,5.448 298.621,5.388 298.98,4.968 298.98,4.908 299.34,4.548 299.4,4.548 299.821,4.188 300.36,3.828 300.96,3.528 
	301.02,3.528 302.34,2.928 302.34,2.868 303.84,2.448 303.9,2.448 305.64,2.208 307.44,2.148 309.241,2.208 309.3,2.208 
	310.98,2.448 312.541,2.868 312.6,2.928 313.92,3.528 314.52,3.828 314.581,3.828 315.541,4.548 315.9,4.908 315.96,4.968 
	316.26,5.388 316.5,5.808 316.5,5.868 316.621,6.348 316.621,6.408 316.68,6.888 "/>
<polyline points="314.281,9.528 314.76,9.228 315.241,8.808 315.18,8.808 315.541,8.448 315.541,8.508 315.84,8.088 316.081,7.668 
	316.02,7.728 316.14,7.248 316.14,7.308 316.201,6.888 316.201,6.948 316.68,6.888 316.68,6.948 316.621,7.368 316.5,7.848 
	316.5,7.908 316.26,8.328 316.26,8.388 315.96,8.808 315.9,8.808 315.541,9.168 315.06,9.588 315,9.648 314.52,9.948 "/>
<text transform="matrix(1 0 0 1 102.9604 46.668)"><tspan x="0" y="0" style="font-family:'ProductusBook'; font-size:7.98;">Ma</tspan><tspan x="9.201" y="0" style="font-family:'ProductusBook'; font-size:7.98;">n</tspan><tspan x="12.919" y="0" style="font-family:'ProductusBook'; font-size:7.98;">a</tspan><tspan x="16.223" y="0" style="font-family:'ProductusBook'; font-size:7.98;">g</tspan><tspan x="19.526" y="0" style="font-family:'ProductusBook'; font-size:7.98;">e</tspan><tspan x="23.062" y="0" style="font-family:'ProductusBook'; font-size:7.98;">dServi</tspan><tspan x="41.009" y="0" style="font-family:'ProductusBook'; font-size:7.98;">c</tspan><tspan x="44.009" y="0" style="font-family:'ProductusBook'; font-size:7.98;">e</tspan></text>
<text transform="matrix(1 0 0 1 264.2397 45.4678)"><tspan x="0" y="0" style="font-family:'ProductusBook'; font-size:7.98;">Ma</tspan><tspan x="9.201" y="0" style="font-family:'ProductusBook'; font-size:7.98;">n</tspan><tspan x="12.92" y="0" style="font-family:'ProductusBook'; font-size:7.98;">a</tspan><tspan x="16.223" y="0" style="font-family:'ProductusBook'; font-size:7.98;">g</tspan><tspan x="19.591" y="0" style="font-family:'ProductusBook'; font-size:7.98;">e</tspan><tspan x="23.078" y="0" style="font-family:'ProductusBook'; font-size:7.98;">dServi</tspan><tspan x="41.024" y="0" style="font-family:'ProductusBook'; font-size:7.98;">c</tspan><tspan x="44.025" y="0" style="font-family:'ProductusBook'; font-size:7.98;">e</tspan><tspan x="47.512" y="0" style="font-family:'ProductusBook'; font-size:7.98;">F</tspan><tspan x="50.337" y="0" style="font-family:'ProductusBook'; font-size:7.98;">a</tspan><tspan x="53.641" y="0" style="font-family:'ProductusBook'; font-size:7.98;">c</tspan><tspan x="56.761" y="0" style="font-family:'ProductusBook'; font-size:7.98;">t</tspan><tspan x="59.154" y="0" style="font-family:'ProductusBook'; font-size:7.98;">ory</tspan></text>
<text transform="matrix(1 0 0 1 0 70.1875)"><tspan x="0" y="0" style="font-family:'ProductusBook'; font-size:7.98;">Ma</tspan><tspan x="9.201" y="0" style="font-family:'ProductusBook'; font-size:7.98;">n</tspan><tspan x="12.919" y="0" style="font-family:'ProductusBook'; font-size:7.98;">a</tspan><tspan x="16.223" y="0" style="font-family:'ProductusBook'; font-size:7.98;">g</tspan><tspan x="19.59" y="0" style="font-family:'ProductusBook'; font-size:7.98;">e</tspan><tspan x="23.078" y="0" style="font-family:'ProductusBook'; font-size:7.98;">m</tspan><tspan x="28.831" y="0" style="font-family:'ProductusBook'; font-size:7.98;">e</tspan><tspan x="32.366" y="0" style="font-family:'ProductusBook'; font-size:7.98;">nt</tspan><tspan x="38.423" y="0" style="font-family:'ProductusBook'; font-size:7.98;"> </tspan><tspan x="39.987" y="0" style="font-family:'ProductusBook'; font-size:7.98;">l</tspan><tspan x="41.599" y="0" style="font-family:'ProductusBook'; font-size:7.98;">a</tspan><tspan x="44.903" y="0" style="font-family:'ProductusBook'; font-size:7.98;">y</tspan><tspan x="48.031" y="0" style="font-family:'ProductusBook'; font-size:7.98;">e</tspan><tspan x="51.518" y="0" style="font-family:'ProductusBook'; font-size:7.98;">r</tspan></text>
<text transform="matrix(1 0 0 1 0.6001 6.6475)"><tspan x="0" y="0" style="font-family:'ProductusBook'; font-size:7.98;">Servi</tspan><tspan x="14.252" y="0" style="font-family:'ProductusBook'; font-size:7.98;">c</tspan><tspan x="17.252" y="0" style="font-family:'ProductusBook'; font-size:7.98;">e</tspan><tspan x="20.788" y="0" style="font-family:'ProductusBook'; font-size:7.98;"> </tspan><tspan x="22.352" y="0" style="font-family:'ProductusBook'; font-size:7.98;">l</tspan><tspan x="23.916" y="0" style="font-family:'ProductusBook'; font-size:7.98;">a</tspan><tspan x="27.275" y="0" style="font-family:'ProductusBook'; font-size:7.98;">y</tspan><tspan x="30.339" y="0" style="font-family:'ProductusBook'; font-size:7.98;">e</tspan><tspan x="33.875" y="0" style="font-family:'ProductusBook'; font-size:7.98;">r</tspan></text>
<text transform="matrix(1 0 0 1 0.4805 48.6479)"><tspan x="0" y="0" style="font-family:'ProductusBook'; font-size:7.98;">R</tspan><tspan x="3.423" y="0" style="font-family:'ProductusBook'; font-size:7.98;">e</tspan><tspan x="6.958" y="0" style="font-family:'ProductusBook'; font-size:7.98;">gis</tspan><tspan x="14.819" y="0" style="font-family:'ProductusBook'; font-size:7.98;">t</tspan><tspan x="17.212" y="0" style="font-family:'ProductusBook'; font-size:7.98;">r</tspan><tspan x="19.439" y="0" style="font-family:'ProductusBook'; font-size:7.98;">y</tspan><tspan x="22.679" y="0" style="font-family:'ProductusBook'; font-size:7.98;"> </tspan></text>
<rect x="18.48" y="54.048" width="4.44" height="1.02"/>
<rect x="28.92" y="54.048" width="7.92" height="1.02"/>
<rect x="42.84" y="54.048" width="7.92" height="1.02"/>
<rect x="56.76" y="54.048" width="7.92" height="1.02"/>
<rect x="70.62" y="54.048" width="7.92" height="1.02"/>
<rect x="84.541" y="54.048" width="7.92" height="1.02"/>
<rect x="98.46" y="54.048" width="7.92" height="1.02"/>
<rect x="112.38" y="54.048" width="7.92" height="1.02"/>
<rect x="126.3" y="54.048" width="7.86" height="1.02"/>
<rect x="140.161" y="54.048" width="7.92" height="1.02"/>
<rect x="154.081" y="54.048" width="7.92" height="1.02"/>
<rect x="168" y="54.048" width="7.92" height="1.02"/>
<rect x="181.92" y="54.048" width="7.92" height="1.02"/>
<rect x="195.781" y="54.048" width="7.92" height="1.02"/>
<rect x="209.701" y="54.048" width="7.92" height="1.02"/>
<rect x="223.621" y="54.048" width="7.92" height="1.02"/>
<rect x="237.541" y="54.048" width="7.92" height="1.02"/>
<rect x="251.46" y="54.048" width="7.92" height="1.02"/>
<rect x="265.321" y="54.048" width="7.92" height="1.02"/>
<rect x="279.241" y="54.048" width="7.92" height="1.02"/>
<rect x="293.161" y="54.048" width="7.92" height="1.02"/>
<rect x="307.081" y="54.048" width="7.92" height="1.02"/>
<rect x="321" y="54.048" width="0.479" height="1.02"/>
<rect x="321.48" y="54.048" width="3.96" height="1.02"/>
<rect x="91.2" y="74.388" width="0.48" height="0.24"/>
<rect x="91.2" y="38.148" width="0.48" height="36.24"/>
<rect x="253.201" y="74.388" width="0.479" height="0.24"/>
<rect x="253.201" y="38.148" width="0.479" height="36.24"/>
</svg>
