<?xml version="1.0" encoding="utf-8"?>
<!-- Generator: Adobe Illustrator 16.0.0, SVG Export Plug-In . SVG Version: 6.00 Build 0)  -->
<!DOCTYPE svg PUBLIC "-//W3C//DTD SVG 1.1//EN" "http://www.w3.org/Graphics/SVG/1.1/DTD/svg11.dtd">
<svg version="1.1" id="Layer_1" xmlns="http://www.w3.org/2000/svg" xmlns:xlink="http://www.w3.org/1999/xlink" x="0px" y="0px"
	 width="336.697px" height="132.707px" viewBox="0 0 336.697 132.707" style="enable-background:new 0 0 336.697 132.707;"
	 xml:space="preserve">
<rect x="22.2" y="19.307" width="1.02" height="113.4"/>
<text transform="matrix(1 0 0 1 0 16.5469)"><tspan x="0" y="0" style="font-family:'ProductusBook'; font-size:7.98;">C</tspan><tspan x="4.381" y="0" style="font-family:'ProductusBook'; font-size:7.98;">l</tspan><tspan x="6.001" y="0" style="font-family:'ProductusBook'; font-size:7.98;">i</tspan><tspan x="7.565" y="0" style="font-family:'ProductusBook'; font-size:7.98;">e</tspan><tspan x="11.052" y="0" style="font-family:'ProductusBook'; font-size:7.98;">n</tspan><tspan x="14.763" y="0" style="font-family:'ProductusBook'; font-size:7.98;">t</tspan><tspan x="17.109" y="0" style="font-family:'ProductusBook'; font-size:7.98;"> </tspan><tspan x="18.729" y="0" style="font-family:'ProductusBook'; font-size:7.98;">b</tspan><tspan x="22.463" y="0" style="font-family:'ProductusBook'; font-size:7.98;">u</tspan><tspan x="26.126" y="0" style="font-family:'ProductusBook'; font-size:7.98;">n</tspan><tspan x="29.837" y="0" style="font-family:'ProductusBook'; font-size:7.98;">d</tspan><tspan x="33.5" y="0" style="font-family:'ProductusBook'; font-size:7.98;">l</tspan><tspan x="35.096" y="0" style="font-family:'ProductusBook'; font-size:7.98;">e</tspan></text>
<rect x="90.24" y="19.307" width="1.02" height="113.4"/>
<text transform="matrix(1 0 0 1 67.0801 16.5469)"><tspan x="0" y="0" style="font-family:'ProductusBook'; font-size:7.98;">F</tspan><tspan x="3" y="0" style="font-family:'ProductusBook'; font-size:7.98;">r</tspan><tspan x="5.275" y="0" style="font-family:'ProductusBook'; font-size:7.98;">a</tspan><tspan x="8.634" y="0" style="font-family:'ProductusBook'; font-size:7.98;">m</tspan><tspan x="14.388" y="0" style="font-family:'ProductusBook'; font-size:7.98;">e</tspan><tspan x="17.875" y="0" style="font-family:'ProductusBook'; font-size:7.98;">w</tspan><tspan x="22.918" y="0" style="font-family:'ProductusBook'; font-size:7.98;">o</tspan><tspan x="26.701" y="0" style="font-family:'ProductusBook'; font-size:7.98;">r</tspan><tspan x="28.975" y="0" style="font-family:'ProductusBook'; font-size:7.98;">k</tspan></text>
<rect x="158.28" y="19.307" width="1.02" height="113.4"/>
<rect x="237.66" y="19.307" width="1.021" height="113.4"/>
<text transform="matrix(1 0 0 1 228.8403 16.5469)"><tspan x="0" y="0" style="font-family:'ProductusBook'; font-size:7.98;">A</tspan><tspan x="3.966" y="0" style="font-family:'ProductusBook'; font-size:7.98;">d</tspan><tspan x="7.685" y="0" style="font-family:'ProductusBook'; font-size:7.98;">min</tspan></text>
<polyline points="144.36,30.647 144.36,26.507 145.02,26.687 157.14,30.167 158.82,30.647 157.14,31.127 145.02,34.607 
	144.36,34.787 144.36,34.127 144.72,33.647 156.84,30.167 157.14,31.127 156.84,31.127 144.72,27.647 145.02,26.687 145.38,27.167 
	145.38,30.647 "/>
<rect x="144.36" y="30.647" width="1.02" height="3.48"/>
<polyline style="fill-rule:evenodd;clip-rule:evenodd;" points="144.84,30.647 144.84,27.167 156.96,30.647 144.84,34.127 "/>
<rect x="22.68" y="30.167" width="121.62" height="1.02"/>
<polyline points="76.32,53.327 76.32,49.187 76.98,49.367 89.1,52.847 90.78,53.327 89.1,53.807 76.98,57.287 76.32,57.467 
	76.32,56.807 76.68,56.327 88.8,52.847 89.1,53.807 88.8,53.807 76.68,50.327 76.98,49.367 77.34,49.847 77.34,53.327 "/>
<rect x="76.32" y="53.327" width="1.02" height="3.48"/>
<polyline style="fill-rule:evenodd;clip-rule:evenodd;" points="76.8,53.327 76.8,49.847 88.92,53.327 76.8,56.807 "/>
<rect x="22.68" y="52.847" width="53.64" height="1.02"/>
<text transform="matrix(1 0 0 1 34.02 36.3472)"><tspan x="0" y="0" style="font-family:'ProductusBook'; font-size:7.98;">n</tspan><tspan x="3.663" y="0" style="font-family:'ProductusBook'; font-size:7.98;">e</tspan><tspan x="7.198" y="0" style="font-family:'ProductusBook'; font-size:7.98;">w</tspan></text>
<polyline points="223.74,76.007 223.74,71.867 224.4,72.047 236.46,75.527 238.14,76.007 236.46,76.487 224.4,79.967 223.74,80.147 
	223.74,79.487 224.1,79.007 236.16,75.527 236.46,76.487 236.16,76.487 224.1,73.007 224.4,72.047 224.76,72.527 224.76,76.007 "/>
<rect x="223.74" y="76.007" width="1.021" height="3.48"/>
<polyline style="fill-rule:evenodd;clip-rule:evenodd;" points="224.22,76.007 224.22,72.527 236.28,76.007 224.22,79.487 "/>
<rect x="90.72" y="75.527" width="132.96" height="1.02"/>
<text transform="matrix(1 0 0 1 34.02 62.627)"><tspan x="0" y="0" style="font-family:'ProductusBook'; font-size:7.98;">registe</tspan><tspan x="19.566" y="0" style="font-family:'ProductusBook'; font-size:7.98;">r</tspan><tspan x="21.793" y="0" style="font-family:'ProductusBook'; font-size:7.98;">Ser</tspan><tspan x="31.289" y="0" style="font-family:'ProductusBook'; font-size:7.98;">v</tspan><tspan x="34.473" y="0" style="font-family:'ProductusBook'; font-size:7.98;">i</tspan><tspan x="36.045" y="0" style="font-family:'ProductusBook'; font-size:7.98;">c</tspan><tspan x="39.109" y="0" style="font-family:'ProductusBook'; font-size:7.98;">e(</tspan><tspan x="44.967" y="0" style="font-family:'ProductusBook'; font-size:7.98;">)</tspan></text>
<text transform="matrix(1 0 0 1 107.2803 73.9673)"><tspan x="0" y="0" style="font-family:'ProductusBook'; font-size:7.98;">se</tspan><tspan x="6.304" y="0" style="font-family:'ProductusBook'; font-size:7.98;">n</tspan><tspan x="10.023" y="0" style="font-family:'ProductusBook'; font-size:7.98;">d</tspan><tspan x="13.741" y="0" style="font-family:'ProductusBook'; font-size:7.98;"> </tspan><tspan x="15.306" y="0" style="font-family:'ProductusBook'; font-size:7.98;">r</tspan><tspan x="17.564" y="0" style="font-family:'ProductusBook'; font-size:7.98;">e</tspan><tspan x="21.099" y="0" style="font-family:'ProductusBook'; font-size:7.98;">gis</tspan><tspan x="28.935" y="0" style="font-family:'ProductusBook'; font-size:7.98;">t</tspan><tspan x="31.329" y="0" style="font-family:'ProductusBook'; font-size:7.98;">ere</tspan><tspan x="40.578" y="0" style="font-family:'ProductusBook'; font-size:7.98;">d </tspan><tspan x="45.916" y="0" style="font-family:'ProductusBook'; font-size:7.98;">e</tspan><tspan x="49.412" y="0" style="font-family:'ProductusBook'; font-size:7.98;">v</tspan><tspan x="52.532" y="0" style="font-family:'ProductusBook'; font-size:7.98;">e</tspan><tspan x="56.027" y="0" style="font-family:'ProductusBook'; font-size:7.98;">n</tspan><tspan x="59.746" y="0" style="font-family:'ProductusBook'; font-size:7.98;">t</tspan></text>
<polyline points="173.16,110.027 173.16,114.167 172.5,113.987 160.38,110.507 158.7,110.027 160.38,109.547 172.5,106.067 
	173.16,105.887 173.16,106.547 172.8,107.027 160.68,110.507 160.38,109.547 160.68,109.547 172.8,113.027 172.5,113.987 
	172.14,113.507 172.14,110.027 "/>
<rect x="172.14" y="106.547" width="1.02" height="3.48"/>
<polyline style="fill-rule:evenodd;clip-rule:evenodd;" points="172.68,110.027 172.68,113.507 160.56,110.027 172.68,106.547 "/>
<rect x="173.16" y="109.547" width="64.98" height="1.02"/>
<polyline style="fill-rule:evenodd;clip-rule:evenodd;fill:#999999;" points="42.54,110.057 42.54,113.537 30.42,110.057 
	42.54,106.577 "/>
<rect x="42.78" y="109.547" style="fill:#999999;" width="115.98" height="1.02"/>
<text transform="matrix(1 0 0 1 159.6001 106.667)"><tspan x="0" y="0" style="font-family:'ProductusBook'; font-size:7.98;">u</tspan><tspan x="3.663" y="0" style="font-family:'ProductusBook'; font-size:7.98;">pdat</tspan><tspan x="16.806" y="0" style="font-family:'ProductusBook'; font-size:7.98;">e</tspan><tspan x="20.293" y="0" style="font-family:'ProductusBook'; font-size:7.98;">d(</tspan><tspan x="26.357" y="0" style="font-family:'ProductusBook'; font-size:7.98;">)</tspan></text>
<rect x="20.7" y="30.647" width="4.02" height="96.42"/>
<rect x="88.74" y="47.687" width="4.02" height="68.04"/>
<rect x="305.7" y="19.307" width="1.021" height="113.4"/>
<text transform="matrix(1 0 0 1 270.0005 15.8271)"><tspan x="0" y="0" style="font-family:'ProductusBook'; font-size:7.98;">C</tspan><tspan x="4.205" y="0" style="font-family:'ProductusBook'; font-size:7.98;">on</tspan><tspan x="11.667" y="0" style="font-family:'ProductusBook'; font-size:7.98;">f</tspan><tspan x="13.59" y="0" style="font-family:'ProductusBook'; font-size:7.98;">ig</tspan><tspan x="18.633" y="0" style="font-family:'ProductusBook'; font-size:7.98;">u</tspan><tspan x="22.352" y="0" style="font-family:'ProductusBook'; font-size:7.98;">r</tspan><tspan x="24.626" y="0" style="font-family:'ProductusBook'; font-size:7.98;">ation</tspan></text>
<rect x="236.16" y="70.367" width="4.021" height="45.36"/>
<polyline points="294.66,98.687 294.66,95.387 295.32,95.567 304.5,98.207 306.18,98.687 304.5,99.167 295.32,101.807 
	294.66,101.987 294.66,101.327 295.02,100.847 304.2,98.207 304.5,99.167 304.2,99.167 295.02,96.527 295.32,95.567 295.68,96.047 
	295.68,98.687 "/>
<rect x="294.66" y="98.687" width="1.021" height="2.64"/>
<polyline style="fill-rule:evenodd;clip-rule:evenodd;" points="295.14,98.687 295.14,96.047 304.32,98.687 295.14,101.327 "/>
<rect x="238.14" y="98.447" width="56.46" height="0.48"/>
<text transform="matrix(1 0 0 1 249.48 97.127)"><tspan x="0" y="0" style="font-family:'ProductusBook'; font-size:7.98;">g</tspan><tspan x="3.367" y="0" style="font-family:'ProductusBook'; font-size:7.98;">e</tspan><tspan x="6.854" y="0" style="font-family:'ProductusBook'; font-size:7.98;">t</tspan><tspan x="9.232" y="0" style="font-family:'ProductusBook'; font-size:7.98;"> </tspan><tspan x="10.845" y="0" style="font-family:'ProductusBook'; font-size:7.98;">all</tspan><tspan x="17.284" y="0" style="font-family:'ProductusBook'; font-size:7.98;"> </tspan><tspan x="18.896" y="0" style="font-family:'ProductusBook'; font-size:7.98;">f</tspan><tspan x="20.819" y="0" style="font-family:'ProductusBook'; font-size:7.98;">o</tspan><tspan x="24.657" y="0" style="font-family:'ProductusBook'; font-size:7.98;">r</tspan><tspan x="26.884" y="0" style="font-family:'ProductusBook'; font-size:7.98;"> </tspan><tspan x="28.504" y="0" style="font-family:'ProductusBook'; font-size:7.98;">factory</tspan></text>
<text transform="matrix(1 0 0 1 130.3799 6.6475)"><tspan x="0" y="0" style="font-family:'ProductusBook'; font-size:7.98;">impl</tspan><tspan x="12.576" y="0" style="font-family:'ProductusBook'; font-size:7.98;">e</tspan><tspan x="16.111" y="0" style="font-family:'ProductusBook'; font-size:7.98;">me</tspan><tspan x="25.368" y="0" style="font-family:'ProductusBook'; font-size:7.98;">n</tspan><tspan x="29.087" y="0" style="font-family:'ProductusBook'; font-size:7.98;">t</tspan><tspan x="31.464" y="0" style="font-family:'ProductusBook'; font-size:7.98;">e</tspan><tspan x="35" y="0" style="font-family:'ProductusBook'; font-size:7.98;">r</tspan><tspan x="37.266" y="0" style="font-family:'ProductusBook'; font-size:7.98;"> </tspan><tspan x="38.831" y="0" style="font-family:'ProductusBook'; font-size:7.98;">of</tspan></text>
<text transform="matrix(1 0 0 1 130.3799 17.2671)"><tspan x="0" y="0" style="font-family:'ProductusBook'; font-size:7.98;">M</tspan><tspan x="5.889" y="0" style="font-family:'ProductusBook'; font-size:7.98;">a</tspan><tspan x="9.249" y="0" style="font-family:'ProductusBook'; font-size:7.98;">na</tspan><tspan x="16.239" y="0" style="font-family:'ProductusBook'; font-size:7.98;">g</tspan><tspan x="19.606" y="0" style="font-family:'ProductusBook'; font-size:7.98;">e</tspan><tspan x="23.094" y="0" style="font-family:'ProductusBook'; font-size:7.98;">dServi</tspan><tspan x="41.041" y="0" style="font-family:'ProductusBook'; font-size:7.98;">c</tspan><tspan x="44.041" y="0" style="font-family:'ProductusBook'; font-size:7.98;">e</tspan><tspan x="47.576" y="0" style="font-family:'ProductusBook'; font-size:7.98;">F</tspan><tspan x="50.337" y="0" style="font-family:'ProductusBook'; font-size:7.98;">a</tspan><tspan x="53.697" y="0" style="font-family:'ProductusBook'; font-size:7.98;">ctory</tspan></text>
<text transform="matrix(1 0 0 1 46.3203 106.1875)"><tspan x="0" y="0" style="font-family:'ProductusBook'; font-size:7.98;">set</tspan><tspan x="8.746" y="0" style="font-family:'ProductusBook'; font-size:7.98;"> </tspan><tspan x="10.31" y="0" style="font-family:'ProductusBook'; font-size:7.98;">t</tspan><tspan x="12.704" y="0" style="font-family:'ProductusBook'; font-size:7.98;">h</tspan><tspan x="16.367" y="0" style="font-family:'ProductusBook'; font-size:7.98;">e</tspan></text>
<text transform="matrix(1 0 0 1 46.3203 114.1675)"><tspan x="0" y="0" style="font-family:'ProductusBook'; font-size:7.98;">con</tspan><tspan x="10.549" y="0" style="font-family:'ProductusBook'; font-size:7.98;">f</tspan><tspan x="12.473" y="0" style="font-family:'ProductusBook'; font-size:7.98;">ig</tspan><tspan x="17.516" y="0" style="font-family:'ProductusBook'; font-size:7.98;">u</tspan><tspan x="21.234" y="0" style="font-family:'ProductusBook'; font-size:7.98;">r</tspan><tspan x="23.509" y="0" style="font-family:'ProductusBook'; font-size:7.98;">ation</tspan></text>
<text transform="matrix(1 0 0 1 179.4009 85.7876)"><tspan x="0" y="0" style="font-family:'ProductusBook'; font-size:7.98;">g</tspan><tspan x="3.304" y="0" style="font-family:'ProductusBook'; font-size:7.98;">e</tspan><tspan x="6.839" y="0" style="font-family:'ProductusBook'; font-size:7.98;">t</tspan><tspan x="9.232" y="0" style="font-family:'ProductusBook'; font-size:7.98;"> </tspan><tspan x="10.797" y="0" style="font-family:'ProductusBook'; font-size:7.98;">p</tspan><tspan x="14.516" y="0" style="font-family:'ProductusBook'; font-size:7.98;">id</tspan></text>
<polyline points="170.28,87.347 170.28,90.647 169.62,90.467 158.7,87.347 169.62,84.227 170.28,84.047 170.28,84.707 
	169.92,85.187 160.68,87.827 160.38,86.867 160.68,86.867 169.92,89.507 169.62,90.467 169.26,89.987 169.26,87.347 "/>
<rect x="169.26" y="84.707" width="1.02" height="2.64"/>
<polyline style="fill-rule:evenodd;clip-rule:evenodd;" points="169.8,87.347 169.8,89.987 160.56,87.347 169.8,84.707 "/>
<rect x="170.28" y="87.107" width="67.86" height="0.48"/>
<rect x="26.4" y="104.387" width="4.02" height="16.98"/>
<text transform="matrix(1 0 0 1 171.6001 118.2471)"><tspan x="0" y="0" style="font-family:'ProductusBook'; font-size:7.98;">f</tspan><tspan x="2.003" y="0" style="font-family:'ProductusBook'; font-size:7.98;">o</tspan><tspan x="5.785" y="0" style="font-family:'ProductusBook'; font-size:7.98;">r</tspan><tspan x="8.06" y="0" style="font-family:'ProductusBook'; font-size:7.98;"> </tspan><tspan x="9.624" y="0" style="font-family:'ProductusBook'; font-size:7.98;">e</tspan><tspan x="13.159" y="0" style="font-family:'ProductusBook'; font-size:7.98;">a</tspan><tspan x="16.463" y="0" style="font-family:'ProductusBook'; font-size:7.98;">c</tspan><tspan x="19.574" y="0" style="font-family:'ProductusBook'; font-size:7.98;">h</tspan><tspan x="23.237" y="0" style="font-family:'ProductusBook'; font-size:7.98;"> </tspan><tspan x="24.857" y="0" style="font-family:'ProductusBook'; font-size:7.98;">f</tspan><tspan x="26.78" y="0" style="font-family:'ProductusBook'; font-size:7.98;">o</tspan><tspan x="30.619" y="0" style="font-family:'ProductusBook'; font-size:7.98;">un</tspan><tspan x="37.912" y="0" style="font-family:'ProductusBook'; font-size:7.98;">d</tspan><tspan x="41.631" y="0" style="font-family:'ProductusBook'; font-size:7.98;"> </tspan><tspan x="43.243" y="0" style="font-family:'ProductusBook'; font-size:7.98;">p</tspan><tspan x="46.906" y="0" style="font-family:'ProductusBook'; font-size:7.98;">i</tspan><tspan x="48.525" y="0" style="font-family:'ProductusBook'; font-size:7.98;">d</tspan></text>
<text transform="matrix(1 0 0 1 46.3203 122.0869)"><tspan x="0" y="0" style="font-family:'ProductusBook'; font-size:7.98;">f</tspan><tspan x="2.003" y="0" style="font-family:'ProductusBook'; font-size:7.98;">o</tspan><tspan x="5.785" y="0" style="font-family:'ProductusBook'; font-size:7.98;">r</tspan><tspan x="8.06" y="0" style="font-family:'ProductusBook'; font-size:7.98;"> </tspan><tspan x="9.68" y="0" style="font-family:'ProductusBook'; font-size:7.98;">a</tspan><tspan x="12.983" y="0" style="font-family:'ProductusBook'; font-size:7.98;"> </tspan><tspan x="14.603" y="0" style="font-family:'ProductusBook'; font-size:7.98;">n</tspan><tspan x="18.25" y="0" style="font-family:'ProductusBook'; font-size:7.98;">e</tspan><tspan x="21.785" y="0" style="font-family:'ProductusBook'; font-size:7.98;">w</tspan></text>
<text transform="matrix(1 0 0 1 46.3203 130.0669)"><tspan x="0" y="0" style="font-family:'ProductusBook'; font-size:7.98;">i</tspan><tspan x="1.62" y="0" style="font-family:'ProductusBook'; font-size:7.98;">n</tspan><tspan x="5.283" y="0" style="font-family:'ProductusBook'; font-size:7.98;">s</tspan><tspan x="8.1" y="0" style="font-family:'ProductusBook'; font-size:7.98;">t</tspan><tspan x="10.494" y="0" style="font-family:'ProductusBook'; font-size:7.98;">a</tspan><tspan x="13.797" y="0" style="font-family:'ProductusBook'; font-size:7.98;">n</tspan><tspan x="17.46" y="0" style="font-family:'ProductusBook'; font-size:7.98;">c</tspan><tspan x="20.524" y="0" style="font-family:'ProductusBook'; font-size:7.98;">e</tspan></text>
<polyline style="fill:#FFFFFF;" points="217.02,91.307 212.16,92.507 214.62,102.227 219.48,101.027 "/>
<polyline style="fill:#FFFFFF;" points="239.7,85.607 244.56,84.407 247.02,94.127 242.16,95.327 "/>
<polyline style="fill:#FFFFFF;" points="217.02,91.307 219.48,101.027 242.16,95.327 239.7,85.607 "/>
<text transform="matrix(1 0 0 1 256.02 72.167)"><tspan x="0" y="0" style="font-family:'ProductusBook'; font-size:7.98;">MUST</tspan><tspan x="18.106" y="0" style="font-family:'ProductusBook'; font-size:7.98;"> </tspan><tspan x="19.67" y="0" style="font-family:'ProductusBook'; font-size:7.98;">be</tspan><tspan x="26.908" y="0" style="font-family:'ProductusBook'; font-size:7.98;"> </tspan><tspan x="28.472" y="0" style="font-family:'ProductusBook'; font-size:7.98;">on</tspan><tspan x="35.965" y="0" style="font-family:'ProductusBook'; font-size:7.98;"> </tspan><tspan x="37.529" y="0" style="font-family:'ProductusBook'; font-size:7.98;">anoth</tspan><tspan x="54.438" y="0" style="font-family:'ProductusBook'; font-size:7.98;">e</tspan><tspan x="57.926" y="0" style="font-family:'ProductusBook'; font-size:7.98;">r </tspan><tspan x="61.82" y="0" style="font-family:'ProductusBook'; font-size:7.98;">t</tspan><tspan x="64.166" y="0" style="font-family:'ProductusBook'; font-size:7.98;">h</tspan><tspan x="67.885" y="0" style="font-family:'ProductusBook'; font-size:7.98;">r</tspan><tspan x="70.167" y="0" style="font-family:'ProductusBook'; font-size:7.98;">e</tspan><tspan x="73.654" y="0" style="font-family:'ProductusBook'; font-size:7.98;">a</tspan><tspan x="76.981" y="0" style="font-family:'ProductusBook'; font-size:7.98;">d</tspan></text>
<polyline points="258.48,76.847 260.34,78.707 260.76,79.187 260.22,79.547 251.82,84.227 250.26,85.067 251.1,83.507 
	255.78,75.107 256.14,74.567 256.62,74.987 256.68,75.587 252,83.987 251.1,83.507 251.34,83.327 259.74,78.647 260.22,79.547 
	259.62,79.427 257.76,77.567 "/>
<polyline points="256.62,74.987 258.48,76.847 257.76,77.567 255.9,75.707 "/>
<polyline style="fill-rule:evenodd;clip-rule:evenodd;" points="258.12,77.207 259.98,79.067 251.58,83.747 256.26,75.347 "/>
<polyline points="261.84,73.847 262.02,73.667 261.66,73.307 261.48,73.487 "/>
<polyline points="258.66,77.027 258.48,77.207 258.12,76.847 258.3,76.667 "/>
<polyline points="261.84,73.847 261.48,73.487 258.3,76.667 258.66,77.027 "/>
<text transform="matrix(1 0 0 1 218.2202 7.0674)"><tspan x="0" y="0" style="font-family:'ProductusBook'; font-size:7.98;">C</tspan><tspan x="4.205" y="0" style="font-family:'ProductusBook'; font-size:7.98;">o</tspan><tspan x="7.988" y="0" style="font-family:'ProductusBook'; font-size:7.98;">n</tspan><tspan x="11.658" y="0" style="font-family:'ProductusBook'; font-size:7.98;">f</tspan><tspan x="13.582" y="0" style="font-family:'ProductusBook'; font-size:7.98;">i</tspan><tspan x="15.146" y="0" style="font-family:'ProductusBook'; font-size:7.98;">g</tspan><tspan x="18.681" y="0" style="font-family:'ProductusBook'; font-size:7.98;">u</tspan><tspan x="22.359" y="0" style="font-family:'ProductusBook'; font-size:7.98;">r</tspan><tspan x="24.618" y="0" style="font-family:'ProductusBook'; font-size:7.98;">a</tspan><tspan x="27.93" y="0" style="font-family:'ProductusBook'; font-size:7.98;">t</tspan><tspan x="30.323" y="0" style="font-family:'ProductusBook'; font-size:7.98;">i</tspan><tspan x="31.888" y="0" style="font-family:'ProductusBook'; font-size:7.98;">o</tspan><tspan x="35.662" y="0" style="font-family:'ProductusBook'; font-size:7.98;">n</tspan></text>
</svg>
