<?xml version="1.0" encoding="utf-8"?>
<!-- Generator: Adobe Illustrator 16.0.0, SVG Export Plug-In . SVG Version: 6.00 Build 0)  -->
<!DOCTYPE svg PUBLIC "-//W3C//DTD SVG 1.1//EN" "http://www.w3.org/Graphics/SVG/1.1/DTD/svg11.dtd">
<svg version="1.1" id="Layer_1" xmlns="http://www.w3.org/2000/svg" xmlns:xlink="http://www.w3.org/1999/xlink" x="0px" y="0px"
	 width="292.902px" height="194.867px" viewBox="0 0 292.902 194.867" style="enable-background:new 0 0 292.902 194.867;"
	 xml:space="preserve">
<rect x="133.98" y="9.227" style="fill:#E6E6E6;" width="53.82" height="107.7"/>
<rect x="133.98" y="8.987" width="54.061" height="0.48"/>
<rect x="187.56" y="9.227" width="0.48" height="107.94"/>
<rect x="133.74" y="116.687" width="54.061" height="0.48"/>
<rect x="133.74" y="8.987" width="0.48" height="107.94"/>
<rect x="38.64" y="11.027" width="55.2" height="27"/>
<rect x="38.64" y="10.787" width="55.44" height="0.479"/>
<rect x="93.6" y="11.027" width="0.48" height="27.24"/>
<rect x="38.4" y="37.787" width="55.44" height="0.48"/>
<rect x="38.4" y="10.787" width="0.48" height="27.24"/>
<rect x="36.24" y="9.227" style="fill:#FFFFFF;" width="55.2" height="27"/>
<rect x="36.24" y="8.987" width="55.44" height="0.48"/>
<rect x="91.2" y="9.227" width="0.48" height="27.24"/>
<rect x="36" y="35.987" width="55.44" height="0.48"/>
<rect x="36" y="8.987" width="0.48" height="27.24"/>
<text transform="matrix(1 0 0 1.0522 38.6401 16.3667)"><tspan x="0" y="0" style="font-family:'ProductusOSGiBookc'; font-size:7.5841;">C</tspan><tspan x="3.906" y="0" style="font-family:'ProductusOSGiBookc'; font-size:7.5841;">o</tspan><tspan x="7.5" y="0" style="font-family:'ProductusOSGiBookc'; font-size:7.5841;">n</tspan><tspan x="10.966" y="0" style="font-family:'ProductusOSGiBookc'; font-size:7.5841;">f</tspan><tspan x="12.771" y="0" style="font-family:'ProductusOSGiBookc'; font-size:7.5841;">iguration</tspan></text>
<text transform="matrix(1 0 0 1.0522 38.6401 24.8267)"><tspan x="0" y="0" style="font-family:'ProductusOSGiBookc'; font-size:7.5841;">A</tspan><tspan x="3.663" y="0" style="font-family:'ProductusOSGiBookc'; font-size:7.5841;">d</tspan><tspan x="7.144" y="0" style="font-family:'ProductusOSGiBookc'; font-size:7.5841;">m</tspan><tspan x="12.597" y="0" style="font-family:'ProductusOSGiBookc'; font-size:7.5841;">i</tspan><tspan x="14.038" y="0" style="font-family:'ProductusOSGiBookc'; font-size:7.5841;">n</tspan></text>
<rect x="225.96" y="11.027" width="58.56" height="27"/>
<rect x="225.96" y="10.787" width="58.8" height="0.479"/>
<rect x="284.28" y="11.027" width="0.48" height="27.24"/>
<rect x="225.72" y="37.787" width="58.8" height="0.48"/>
<rect x="225.72" y="10.787" width="0.479" height="27.24"/>
<rect x="223.44" y="9.227" style="fill:#FFFFFF;" width="58.5" height="27"/>
<rect x="223.44" y="8.987" width="58.74" height="0.48"/>
<rect x="281.7" y="9.227" width="0.48" height="27.24"/>
<rect x="223.2" y="35.987" width="58.74" height="0.48"/>
<rect x="223.2" y="8.987" width="0.48" height="27.24"/>
<text transform="matrix(1 0 0 1.0522 225.9604 16.3667)"><tspan x="0" y="0" style="font-family:'ProductusOSGiBookc'; font-size:7.5841;">Ma</tspan><tspan x="8.661" y="0" style="font-family:'ProductusOSGiBookc'; font-size:7.5841;">i</tspan><tspan x="10.155" y="0" style="font-family:'ProductusOSGiBookc'; font-size:7.5841;">l</tspan><tspan x="11.596" y="0" style="font-family:'ProductusOSGiBookc'; font-size:7.5841;">F</tspan><tspan x="14.417" y="0" style="font-family:'ProductusOSGiBookc'; font-size:7.5841;">etc</tspan><tspan x="22.843" y="0" style="font-family:'ProductusOSGiBookc'; font-size:7.5841;">h</tspan><tspan x="26.263" y="0" style="font-family:'ProductusOSGiBookc'; font-size:7.5841;">F</tspan><tspan x="29.145" y="0" style="font-family:'ProductusOSGiBookc'; font-size:7.5841;">actory</tspan></text>
<text transform="matrix(1 0 0 1.0522 225.9604 24.8267)" style="font-family:'ProductusOSGiBookc'; font-size:7.5841;">pid=</text>
<text transform="matrix(1 0 0 1.0522 225.9604 33.3467)"><tspan x="0" y="0" style="font-family:'ProductusOSGiBookc'; font-size:7.5841;">c</tspan><tspan x="2.92" y="0" style="font-family:'ProductusOSGiBookc'; font-size:7.5841;">o</tspan><tspan x="6.462" y="0" style="font-family:'ProductusOSGiBookc'; font-size:7.5841;">m.a</tspan><tspan x="16.525" y="0" style="font-family:'ProductusOSGiBookc'; font-size:7.5841;">c</tspan><tspan x="19.407" y="0" style="font-family:'ProductusOSGiBookc'; font-size:7.5841;">me</tspan><tspan x="28.159" y="0" style="font-family:'ProductusOSGiBookc'; font-size:7.5841;">.</tspan><tspan x="29.601" y="0" style="font-family:'ProductusOSGiBookc'; font-size:7.5841;">e</tspan><tspan x="32.899" y="0" style="font-family:'ProductusOSGiBookc'; font-size:7.5841;">m</tspan><tspan x="38.307" y="0" style="font-family:'ProductusOSGiBookc'; font-size:7.5841;">a</tspan><tspan x="41.424" y="0" style="font-family:'ProductusOSGiBookc'; font-size:7.5841;">i</tspan><tspan x="42.888" y="0" style="font-family:'ProductusOSGiBookc'; font-size:7.5841;">l</tspan></text>
<rect x="225.66" y="89.747" width="51.66" height="20.28"/>
<rect x="225.66" y="89.507" width="51.9" height="0.48"/>
<rect x="277.08" y="89.747" width="0.48" height="20.52"/>
<rect x="225.42" y="109.787" width="51.899" height="0.48"/>
<rect x="225.42" y="89.507" width="0.479" height="20.52"/>
<rect x="223.44" y="88.427" style="fill:#FFFFFF;" width="51.601" height="20.22"/>
<rect x="223.44" y="88.187" width="51.84" height="0.48"/>
<rect x="274.8" y="88.427" width="0.479" height="20.46"/>
<rect x="223.2" y="108.407" width="51.841" height="0.48"/>
<rect x="223.2" y="88.187" width="0.48" height="20.46"/>
<text transform="matrix(1 0 0 1.0522 225.6597 95.0869)" style="font-family:'ProductusOSGiBookc'; font-size:7.5841;">pid=16.1</text>
<text transform="matrix(1 0 0 1.0522 225.6597 103.6069)"><tspan x="0" y="0" style="font-family:'ProductusOSGiBookc'; font-size:7.5841;">na</tspan><tspan x="6.598" y="0" style="font-family:'ProductusOSGiBookc'; font-size:7.5841;">m</tspan><tspan x="12.006" y="0" style="font-family:'ProductusOSGiBookc'; font-size:7.5841;">e</tspan><tspan x="15.305" y="0" style="font-family:'ProductusOSGiBookc'; font-size:7.5841;">=eri</tspan><tspan x="25.801" y="0" style="font-family:'ProductusOSGiBookc'; font-size:7.5841;">c</tspan><tspan x="28.683" y="0" style="font-family:'ProductusOSGiBookc'; font-size:7.5841;">a</tspan></text>
<rect x="201.9" y="23.387" width="21.54" height="0.48"/>
<polyline style="fill-rule:evenodd;clip-rule:evenodd;fill:#FFFFFF;" points="180.24,88.427 180.24,102.947 201.84,95.687 "/>
<polyline points="180.48,88.427 180.48,102.947 180.36,103.187 180.18,102.707 201.78,95.447 201.96,95.447 202.68,95.687 
	201.96,95.927 180.36,103.187 180,103.307 180,88.427 "/>
<polyline points="201.78,95.927 180.18,88.667 180,88.427 180,88.067 180.36,88.187 201.96,95.447 "/>
<rect x="201.9" y="95.387" width="21.54" height="0.48"/>
<text transform="matrix(1 0 0 1 144.5405 66.2271)"><tspan x="0" y="0" style="font-family:'ProductusBook'; font-size:7.98;">OS</tspan><tspan x="9.033" y="0" style="font-family:'ProductusBook'; font-size:7.98;">G</tspan><tspan x="13.781" y="0" style="font-family:'ProductusBook'; font-size:7.98;">i</tspan><tspan x="15.345" y="0" style="font-family:'ProductusBook'; font-size:7.98;"> </tspan><tspan x="16.965" y="0" style="font-family:'ProductusBook'; font-size:7.98;">S</tspan><tspan x="20.684" y="0" style="font-family:'ProductusBook'; font-size:7.98;">e</tspan><tspan x="24.171" y="0" style="font-family:'ProductusBook'; font-size:7.98;">rv</tspan><tspan x="29.685" y="0" style="font-family:'ProductusBook'; font-size:7.98;">i</tspan><tspan x="31.249" y="0" style="font-family:'ProductusBook'; font-size:7.98;">c</tspan><tspan x="34.249" y="0" style="font-family:'ProductusBook'; font-size:7.98;">e</tspan></text>
<text transform="matrix(1 0 0 1 86.6401 59.0264)"><tspan x="0" y="0" style="font-family:'ProductusBook'; font-size:7.98;">r</tspan><tspan x="2.227" y="0" style="font-family:'ProductusBook'; font-size:7.98;">e</tspan><tspan x="5.762" y="0" style="font-family:'ProductusBook'; font-size:7.98;">gis</tspan><tspan x="13.622" y="0" style="font-family:'ProductusBook'; font-size:7.98;">t</tspan><tspan x="16.016" y="0" style="font-family:'ProductusBook'; font-size:7.98;">r</tspan><tspan x="18.29" y="0" style="font-family:'ProductusBook'; font-size:7.98;">a</tspan><tspan x="21.593" y="0" style="font-family:'ProductusBook'; font-size:7.98;">t</tspan><tspan x="23.987" y="0" style="font-family:'ProductusBook'; font-size:7.98;">ion</tspan></text>
<text transform="matrix(1 0 0 1 86.6401 67.5469)"><tspan x="0" y="0" style="font-family:'ProductusBook'; font-size:7.98;">e</tspan><tspan x="3.479" y="0" style="font-family:'ProductusBook'; font-size:7.98;">v</tspan><tspan x="6.6" y="0" style="font-family:'ProductusBook'; font-size:7.98;">e</tspan><tspan x="10.079" y="0" style="font-family:'ProductusBook'; font-size:7.98;">n</tspan><tspan x="13.797" y="0" style="font-family:'ProductusBook'; font-size:7.98;">t</tspan><tspan x="16.151" y="0" style="font-family:'ProductusBook'; font-size:7.98;">s</tspan></text>
<text transform="matrix(1 0 0 1 54.1201 91.2466)"><tspan x="0" y="0" style="font-family:'ProductusBook'; font-size:7.98;">pid=1</tspan><tspan x="15.976" y="0" style="font-family:'ProductusBook'; font-size:7.98;">6</tspan><tspan x="19.702" y="0" style="font-family:'ProductusBook'; font-size:7.98;">.</tspan><tspan x="21.314" y="0" style="font-family:'ProductusBook'; font-size:7.98;">1</tspan></text>
<text transform="matrix(1 0 0 1 54.1201 110.5669)"><tspan x="0" y="0" style="font-family:'ProductusBook'; font-size:7.98;">pid=1</tspan><tspan x="15.976" y="0" style="font-family:'ProductusBook'; font-size:7.98;">6</tspan><tspan x="19.702" y="0" style="font-family:'ProductusBook'; font-size:7.98;">.</tspan><tspan x="21.314" y="0" style="font-family:'ProductusBook'; font-size:7.98;">2</tspan></text>
<text transform="matrix(1 0 0 1 54.1201 99.707)"><tspan x="0" y="0" style="font-family:'ProductusBook'; font-size:7.98;">n</tspan><tspan x="3.703" y="0" style="font-family:'ProductusBook'; font-size:7.98;">a</tspan><tspan x="7.006" y="0" style="font-family:'ProductusBook'; font-size:7.98;">me</tspan><tspan x="16.311" y="0" style="font-family:'ProductusBook'; font-size:7.98;">=</tspan><tspan x="20.093" y="0" style="font-family:'ProductusBook'; font-size:7.98;">e</tspan><tspan x="23.581" y="0" style="font-family:'ProductusBook'; font-size:7.98;">r</tspan><tspan x="25.871" y="0" style="font-family:'ProductusBook'; font-size:7.98;">i</tspan><tspan x="27.435" y="0" style="font-family:'ProductusBook'; font-size:7.98;">c</tspan><tspan x="30.547" y="0" style="font-family:'ProductusBook'; font-size:7.98;">a</tspan></text>
<text transform="matrix(1 0 0 1 54.1201 119.0869)"><tspan x="0" y="0" style="font-family:'ProductusBook'; font-size:7.98;">n</tspan><tspan x="3.71" y="0" style="font-family:'ProductusBook'; font-size:7.98;">a</tspan><tspan x="7.014" y="0" style="font-family:'ProductusBook'; font-size:7.98;">me</tspan><tspan x="16.335" y="0" style="font-family:'ProductusBook'; font-size:7.98;">=</tspan><tspan x="20.117" y="0" style="font-family:'ProductusBook'; font-size:7.98;">e</tspan><tspan x="23.604" y="0" style="font-family:'ProductusBook'; font-size:7.98;">l</tspan><tspan x="25.168" y="0" style="font-family:'ProductusBook'; font-size:7.98;">m</tspan><tspan x="30.986" y="0" style="font-family:'ProductusBook'; font-size:7.98;">e</tspan><tspan x="34.473" y="0" style="font-family:'ProductusBook'; font-size:7.98;">r</tspan></text>
<rect x="64.8" y="37.787" width="0.48" height="43.68"/>
<text transform="matrix(1 0 0 1 20.8799 67.7871)"><tspan x="0" y="0" style="font-family:'ProductusBook'; font-size:7.98;">Association</tspan><tspan x="32.981" y="0" style="font-family:'ProductusBook'; font-size:7.98;">s</tspan></text>
<text transform="matrix(1 0 0 1 54.5396 132.1074)"><tspan x="0" y="0" style="font-family:'ProductusBook'; font-size:7.98;">pi</tspan><tspan x="5.291" y="0" style="font-family:'ProductusBook'; font-size:7.98;">d</tspan><tspan x="8.954" y="0" style="font-family:'ProductusBook'; font-size:7.98;">=</tspan><tspan x="12.792" y="0" style="font-family:'ProductusBook'; font-size:7.98;">1</tspan><tspan x="15.92" y="0" style="font-family:'ProductusBook'; font-size:7.98;">6</tspan><tspan x="19.694" y="0" style="font-family:'ProductusBook'; font-size:7.98;">.</tspan><tspan x="21.306" y="0" style="font-family:'ProductusBook'; font-size:7.98;">3</tspan></text>
<text transform="matrix(1 0 0 1 54.5396 140.6279)"><tspan x="0" y="0" style="font-family:'ProductusBook'; font-size:7.98;">n</tspan><tspan x="3.671" y="0" style="font-family:'ProductusBook'; font-size:7.98;">a</tspan><tspan x="7.03" y="0" style="font-family:'ProductusBook'; font-size:7.98;">me=</tspan><tspan x="20.053" y="0" style="font-family:'ProductusBook'; font-size:7.98;">a</tspan><tspan x="23.413" y="0" style="font-family:'ProductusBook'; font-size:7.98;">n</tspan><tspan x="27.083" y="0" style="font-family:'ProductusBook'; font-size:7.98;">n</tspan><tspan x="30.802" y="0" style="font-family:'ProductusBook'; font-size:7.98;">a</tspan></text>
<rect x="7.74" y="80.987" width="86.34" height="0.48"/>
<rect x="93.6" y="81.227" width="0.48" height="108.24"/>
<rect x="7.5" y="188.987" width="86.34" height="0.479"/>
<rect x="7.5" y="80.987" width="0.48" height="108.24"/>
<rect x="50.4" y="81.407" style="fill:#808080;" width="0.48" height="64.621"/>
<rect x="50.64" y="102.527" style="fill:#808080;" width="43.2" height="0.48"/>
<rect x="225.66" y="125.747" width="51.66" height="20.22"/>
<rect x="225.66" y="125.507" width="51.9" height="0.48"/>
<rect x="277.08" y="125.747" width="0.48" height="20.46"/>
<rect x="225.42" y="145.727" width="51.899" height="0.48"/>
<rect x="225.42" y="125.507" width="0.479" height="20.46"/>
<rect x="223.44" y="124.427" style="fill:#FFFFFF;" width="51.601" height="20.16"/>
<rect x="223.44" y="124.187" width="51.84" height="0.48"/>
<rect x="274.8" y="124.427" width="0.479" height="20.4"/>
<rect x="223.2" y="144.347" width="51.841" height="0.48"/>
<rect x="223.2" y="124.187" width="0.48" height="20.4"/>
<text transform="matrix(1 0 0 1.0522 225.6597 131.0869)" style="font-family:'ProductusOSGiBookc'; font-size:7.5841;">pid=16.2</text>
<text transform="matrix(1 0 0 1.0522 225.6597 139.6074)"><tspan x="0" y="0" style="font-family:'ProductusOSGiBookc'; font-size:7.5841;">na</tspan><tspan x="6.583" y="0" style="font-family:'ProductusOSGiBookc'; font-size:7.5841;">m</tspan><tspan x="11.982" y="0" style="font-family:'ProductusOSGiBookc'; font-size:7.5841;">e=peter</tspan></text>
<rect x="225.66" y="161.747" width="51.66" height="20.22"/>
<rect x="225.66" y="161.507" width="51.9" height="0.48"/>
<rect x="277.08" y="161.747" width="0.48" height="20.46"/>
<rect x="225.42" y="181.727" width="51.899" height="0.48"/>
<rect x="225.42" y="161.507" width="0.479" height="20.46"/>
<rect x="223.44" y="160.427" style="fill:#FFFFFF;" width="51.601" height="20.16"/>
<rect x="223.44" y="160.187" width="51.84" height="0.48"/>
<rect x="274.8" y="160.427" width="0.479" height="20.4"/>
<rect x="223.2" y="180.347" width="51.841" height="0.48"/>
<rect x="223.2" y="160.187" width="0.48" height="20.4"/>
<text transform="matrix(1 0 0 1.0522 225.6597 167.0869)" style="font-family:'ProductusOSGiBookc'; font-size:7.5841;">pid=16.3</text>
<text transform="matrix(1 0 0 1.0522 225.6597 175.6074)"><tspan x="0" y="0" style="font-family:'ProductusOSGiBookc'; font-size:7.5841;">na</tspan><tspan x="6.598" y="0" style="font-family:'ProductusOSGiBookc'; font-size:7.5841;">m</tspan><tspan x="11.998" y="0" style="font-family:'ProductusOSGiBookc'; font-size:7.5841;">e</tspan><tspan x="15.297" y="0" style="font-family:'ProductusOSGiBookc'; font-size:7.5841;">=ann</tspan><tspan x="28.979" y="0" style="font-family:'ProductusOSGiBookc'; font-size:7.5841;">a</tspan></text>
<rect x="50.64" y="124.067" style="fill:#808080;" width="43.2" height="0.48"/>
<rect x="50.4" y="146.087" width="0.48" height="43.14"/>
<rect x="7.74" y="145.606" width="86.1" height="0.48"/>
<rect x="0.24" y="161.987" style="fill:#FFFFFF;" width="129.6" height="5.399"/>
<rect x="0.24" y="161.747" style="fill:#FFFFFF;" width="129.84" height="0.479"/>
<rect x="129.6" y="161.987" style="fill:#FFFFFF;" width="0.48" height="5.64"/>
<rect y="167.146" style="fill:#FFFFFF;" width="129.84" height="0.48"/>
<rect y="161.747" style="fill:#FFFFFF;" width="0.48" height="5.64"/>
<rect x="237.6" y="37.787" width="0.479" height="50.88"/>
<text transform="matrix(1 0 0 1 241.1997 56.7471)"><tspan x="0" y="0" style="font-family:'ProductusBook'; font-size:7.98;">creates</tspan><tspan x="20.867" y="0" style="font-family:'ProductusBook'; font-size:7.98;"> </tspan><tspan x="22.487" y="0" style="font-family:'ProductusBook'; font-size:7.98;">inst</tspan><tspan x="32.925" y="0" style="font-family:'ProductusBook'; font-size:7.98;">a</tspan><tspan x="36.284" y="0" style="font-family:'ProductusBook'; font-size:7.98;">n</tspan><tspan x="39.947" y="0" style="font-family:'ProductusBook'; font-size:7.98;">c</tspan><tspan x="42.947" y="0" style="font-family:'ProductusBook'; font-size:7.98;">e</tspan><tspan x="46.482" y="0" style="font-family:'ProductusBook'; font-size:7.98;">s</tspan></text>
<text transform="matrix(1 0 0 1 241.1997 65.2671)"><tspan x="0" y="0" style="font-family:'ProductusBook'; font-size:7.98;">at</tspan><tspan x="5.674" y="0" style="font-family:'ProductusBook'; font-size:7.98;"> </tspan><tspan x="7.237" y="0" style="font-family:'ProductusBook'; font-size:7.98;">t</tspan><tspan x="9.607" y="0" style="font-family:'ProductusBook'; font-size:7.98;">h</tspan><tspan x="13.326" y="0" style="font-family:'ProductusBook'; font-size:7.98;">e</tspan><tspan x="16.821" y="0" style="font-family:'ProductusBook'; font-size:7.98;"> </tspan><tspan x="18.434" y="0" style="font-family:'ProductusBook'; font-size:7.98;">re</tspan><tspan x="24.187" y="0" style="font-family:'ProductusBook'; font-size:7.98;">q</tspan><tspan x="27.905" y="0" style="font-family:'ProductusBook'; font-size:7.98;">u</tspan><tspan x="31.568" y="0" style="font-family:'ProductusBook'; font-size:7.98;">e</tspan><tspan x="35.104" y="0" style="font-family:'ProductusBook'; font-size:7.98;">s</tspan><tspan x="37.92" y="0" style="font-family:'ProductusBook'; font-size:7.98;">t</tspan><tspan x="40.29" y="0" style="font-family:'ProductusBook'; font-size:7.98;"> </tspan><tspan x="41.902" y="0" style="font-family:'ProductusBook'; font-size:7.98;">o</tspan><tspan x="45.677" y="0" style="font-family:'ProductusBook'; font-size:7.98;">f</tspan></text>
<text transform="matrix(1 0 0 1 241.1997 73.7275)"><tspan x="0" y="0" style="font-family:'ProductusBook'; font-size:7.98;">t</tspan><tspan x="2.362" y="0" style="font-family:'ProductusBook'; font-size:7.98;">h</tspan><tspan x="6.081" y="0" style="font-family:'ProductusBook'; font-size:7.98;">e</tspan><tspan x="9.567" y="0" style="font-family:'ProductusBook'; font-size:7.98;"> </tspan><tspan x="11.18" y="0" style="font-family:'ProductusBook'; font-size:7.98;">C</tspan><tspan x="15.385" y="0" style="font-family:'ProductusBook'; font-size:7.98;">o</tspan><tspan x="19.168" y="0" style="font-family:'ProductusBook'; font-size:7.98;">n</tspan><tspan x="22.822" y="0" style="font-family:'ProductusBook'; font-size:7.98;">f</tspan><tspan x="24.745" y="0" style="font-family:'ProductusBook'; font-size:7.98;">i</tspan><tspan x="26.294" y="0" style="font-family:'ProductusBook'; font-size:7.98;">g</tspan><tspan x="29.829" y="0" style="font-family:'ProductusBook'; font-size:7.98;">.</tspan><tspan x="31.409" y="0" style="font-family:'ProductusBook'; font-size:7.98;"> </tspan><tspan x="33.021" y="0" style="font-family:'ProductusBook'; font-size:7.98;">A</tspan><tspan x="36.986" y="0" style="font-family:'ProductusBook'; font-size:7.98;">d</tspan><tspan x="40.705" y="0" style="font-family:'ProductusBook'; font-size:7.98;">min</tspan></text>
<text transform="matrix(1 0 0 1 190.2593 87.8271)"><tspan x="0" y="0" style="font-family:'ProductusBook'; font-size:7.98;">T</tspan><tspan x="2.944" y="0" style="font-family:'ProductusBook'; font-size:7.98;">o</tspan><tspan x="6.783" y="0" style="font-family:'ProductusBook'; font-size:7.98;">p</tspan><tspan x="10.445" y="0" style="font-family:'ProductusBook'; font-size:7.98;">ic</tspan></text>
<text transform="matrix(1 0 0 1 166.8599 6.6475)"><tspan x="0" y="0" style="font-family:'ProductusBook'; font-size:7.98;">M</tspan><tspan x="5.89" y="0" style="font-family:'ProductusBook'; font-size:7.98;">a</tspan><tspan x="9.249" y="0" style="font-family:'ProductusBook'; font-size:7.98;">n</tspan><tspan x="12.928" y="0" style="font-family:'ProductusBook'; font-size:7.98;">a</tspan><tspan x="16.287" y="0" style="font-family:'ProductusBook'; font-size:7.98;">g</tspan><tspan x="19.591" y="0" style="font-family:'ProductusBook'; font-size:7.98;">e</tspan><tspan x="23.078" y="0" style="font-family:'ProductusBook'; font-size:7.98;">d</tspan><tspan x="26.772" y="0" style="font-family:'ProductusBook'; font-size:7.98;"> </tspan><tspan x="28.385" y="0" style="font-family:'ProductusBook'; font-size:7.98;">Servi</tspan><tspan x="42.637" y="0" style="font-family:'ProductusBook'; font-size:7.98;">c</tspan><tspan x="45.637" y="0" style="font-family:'ProductusBook'; font-size:7.98;">e</tspan></text>
<text transform="matrix(1 0 0 1 12.4795 91.4277)"><tspan x="0" y="0" style="font-family:'ProductusBook'; font-size:7.98;">factor</tspan><tspan x="16.909" y="0" style="font-family:'ProductusBook'; font-size:7.98;">y</tspan><tspan x="20.093" y="0" style="font-family:'ProductusBook'; font-size:7.98;"> </tspan><tspan x="21.713" y="0" style="font-family:'ProductusBook'; font-size:7.98;">pi</tspan><tspan x="26.988" y="0" style="font-family:'ProductusBook'; font-size:7.98;">d</tspan></text>
<text transform="matrix(1 0 0 1 12.4795 99.8882)"><tspan x="0" y="0" style="font-family:'ProductusBook'; font-size:7.98;">=</tspan><tspan x="3.791" y="0" style="font-family:'ProductusBook'; font-size:7.98;"> </tspan><tspan x="5.41" y="0" style="font-family:'ProductusBook'; font-size:7.98;">c</tspan><tspan x="8.411" y="0" style="font-family:'ProductusBook'; font-size:7.98;">o</tspan><tspan x="12.193" y="0" style="font-family:'ProductusBook'; font-size:7.98;">m</tspan><tspan x="18.011" y="0" style="font-family:'ProductusBook'; font-size:7.98;">.</tspan><tspan x="19.575" y="0" style="font-family:'ProductusBook'; font-size:7.98;">a</tspan><tspan x="22.886" y="0" style="font-family:'ProductusBook'; font-size:7.98;">c</tspan><tspan x="26.006" y="0" style="font-family:'ProductusBook'; font-size:7.98;">me</tspan></text>
<text transform="matrix(1 0 0 1 144.5396 74.6284)"><tspan x="0" y="0" style="font-family:'ProductusBook'; font-size:7.98;">R</tspan><tspan x="3.424" y="0" style="font-family:'ProductusBook'; font-size:7.98;">e</tspan><tspan x="6.958" y="0" style="font-family:'ProductusBook'; font-size:7.98;">gis</tspan><tspan x="14.818" y="0" style="font-family:'ProductusBook'; font-size:7.98;">t</tspan><tspan x="17.165" y="0" style="font-family:'ProductusBook'; font-size:7.98;">r</tspan><tspan x="19.438" y="0" style="font-family:'ProductusBook'; font-size:7.98;">y</tspan></text>
<text transform="matrix(1 0 0 1 189.0591 14.8086)"><tspan x="0" y="0" style="font-family:'ProductusBook'; font-size:7.98;">F</tspan><tspan x="2.825" y="0" style="font-family:'ProductusBook'; font-size:7.98;">a</tspan><tspan x="6.129" y="0" style="font-family:'ProductusBook'; font-size:7.98;">c</tspan><tspan x="9.24" y="0" style="font-family:'ProductusBook'; font-size:7.98;">t</tspan><tspan x="11.635" y="0" style="font-family:'ProductusBook'; font-size:7.98;">o</tspan><tspan x="15.417" y="0" style="font-family:'ProductusBook'; font-size:7.98;">r</tspan><tspan x="17.691" y="0" style="font-family:'ProductusBook'; font-size:7.98;">y</tspan></text>
<rect x="79.2" y="37.787" width="0.48" height="4.2"/>
<rect x="79.2" y="48.407" width="0.48" height="4.26"/>
<rect x="79.44" y="52.187" width="3.96" height="0.48"/>
<rect x="89.64" y="52.187" width="8.22" height="0.48"/>
<rect x="104.1" y="52.187" width="8.16" height="0.48"/>
<rect x="118.5" y="52.187" width="8.22" height="0.48"/>
<rect x="132.96" y="52.187" width="8.159" height="0.48"/>
<rect x="147.36" y="52.187" width="8.22" height="0.48"/>
<rect x="161.82" y="52.187" width="8.16" height="0.48"/>
<rect x="176.22" y="52.187" width="8.22" height="0.48"/>
<rect x="190.62" y="52.187" width="4.261" height="0.48"/>
<rect x="194.4" y="48.407" width="0.48" height="4.02"/>
<rect x="194.4" y="33.887" width="0.48" height="8.28"/>
<rect x="194.4" y="23.387" width="0.48" height="4.2"/>
<polyline style="fill-rule:evenodd;clip-rule:evenodd;fill:#FFFFFF;" points="180.3,16.427 180.3,30.827 201.84,23.627 "/>
<polyline points="180.541,16.427 180.541,30.827 180.42,31.067 180.24,30.587 201.78,23.387 201.96,23.387 202.68,23.627 
	201.96,23.867 180.42,31.067 180.06,31.187 180.06,16.427 "/>
<polyline points="201.78,23.867 180.24,16.667 180.06,16.427 180.06,16.067 180.42,16.187 201.96,23.387 "/>
<rect x="0.24" y="176.627" style="fill:#FFFFFF;" width="129.6" height="5.4"/>
<rect x="0.24" y="176.387" style="fill:#FFFFFF;" width="129.84" height="0.48"/>
<rect x="129.6" y="176.627" style="fill:#FFFFFF;" width="0.48" height="5.64"/>
<rect y="181.787" style="fill:#FFFFFF;" width="129.84" height="0.479"/>
<rect y="176.387" style="fill:#FFFFFF;" width="0.48" height="5.641"/>
<rect x="6.66" y="189.227" style="fill:#FFFFFF;" width="129.6" height="5.4"/>
<rect x="6.66" y="188.987" style="fill:#FFFFFF;" width="129.84" height="0.479"/>
<rect x="136.02" y="189.227" style="fill:#FFFFFF;" width="0.48" height="5.641"/>
<rect x="6.42" y="188.987" style="fill:#FFFFFF;" width="0.48" height="5.64"/>
<text transform="matrix(1 0 0 1 14.6401 157.6064)"><tspan x="0" y="0" style="font-family:'ProductusBook'; font-size:7.98;">factory</tspan><tspan x="20.077" y="0" style="font-family:'ProductusBook'; font-size:7.98;"> </tspan><tspan x="21.697" y="0" style="font-family:'ProductusBook'; font-size:7.98;">pid</tspan></text>
<text transform="matrix(1 0 0 1 14.6401 166.127)"><tspan x="0" y="0" style="font-family:'ProductusBook'; font-size:7.98;">=</tspan><tspan x="3.782" y="0" style="font-family:'ProductusBook'; font-size:7.98;"> </tspan><tspan x="5.402" y="0" style="font-family:'ProductusBook'; font-size:7.98;">eri</tspan><tspan x="12.712" y="0" style="font-family:'ProductusBook'; font-size:7.98;">c</tspan><tspan x="15.832" y="0" style="font-family:'ProductusBook'; font-size:7.98;">.m</tspan><tspan x="23.166" y="0" style="font-family:'ProductusBook'; font-size:7.98;">f</tspan></text>
<text transform="matrix(1 0 0 1 12.48 108.0469)"><tspan x="0" y="0" style="font-family:'ProductusBook'; font-size:7.98;">.</tspan><tspan x="1.38" y="0" style="font-family:'ProductusBook'; font-size:7.98;">e</tspan><tspan x="4.916" y="0" style="font-family:'ProductusBook'; font-size:7.98;">m</tspan><tspan x="10.669" y="0" style="font-family:'ProductusBook'; font-size:7.98;">a</tspan><tspan x="13.973" y="0" style="font-family:'ProductusBook'; font-size:7.98;">il</tspan></text>
<rect x="93.6" y="95.387" width="4.26" height="0.48"/>
<rect x="104.1" y="95.387" width="8.28" height="0.48"/>
<rect x="118.62" y="95.387" width="4.26" height="0.48"/>
<rect x="122.4" y="95.627" width="0.48" height="3.96"/>
<rect x="122.4" y="105.887" width="0.48" height="8.28"/>
<rect x="122.4" y="120.407" width="0.48" height="4.26"/>
<rect x="122.64" y="124.187" width="4.02" height="0.48"/>
<rect x="132.84" y="124.187" width="8.22" height="0.48"/>
<rect x="147.3" y="124.187" width="8.22" height="0.48"/>
<rect x="161.76" y="124.187" width="8.16" height="0.48"/>
<rect x="176.16" y="124.187" width="8.221" height="0.48"/>
<rect x="190.62" y="124.187" width="8.221" height="0.48"/>
<rect x="205.02" y="124.187" width="4.26" height="0.48"/>
<rect x="208.8" y="120.407" width="0.479" height="4.02"/>
<rect x="208.8" y="110.807" width="0.479" height="5.64"/>
<rect x="208.8" y="102.587" width="0.479" height="4.2"/>
<rect x="209.041" y="102.587" width="4.02" height="0.48"/>
<rect x="219.48" y="102.587" width="4.2" height="0.48"/>
<rect x="93.6" y="116.987" width="4.26" height="0.48"/>
<rect x="101.82" y="116.987" width="5.64" height="0.48"/>
<rect x="111.42" y="116.987" width="4.26" height="0.48"/>
<rect x="115.2" y="117.227" width="0.48" height="3.96"/>
<rect x="115.2" y="127.607" width="0.48" height="4.26"/>
<rect x="115.44" y="131.387" width="4.02" height="0.48"/>
<rect x="125.22" y="131.387" width="7.68" height="0.48"/>
<rect x="138.66" y="131.387" width="7.681" height="0.48"/>
<rect x="152.1" y="131.387" width="7.74" height="0.48"/>
<rect x="165.6" y="131.387" width="7.68" height="0.48"/>
<rect x="179.041" y="131.387" width="0.239" height="0.48"/>
<rect x="179.28" y="131.387" width="7.44" height="0.48"/>
<rect x="192.541" y="131.387" width="0.239" height="0.48"/>
<rect x="192.78" y="131.387" width="7.44" height="0.48"/>
<rect x="205.98" y="131.387" width="0.24" height="0.48"/>
<rect x="206.22" y="131.387" width="7.439" height="0.48"/>
<rect x="219.42" y="131.387" width="0.239" height="0.48"/>
<rect x="219.66" y="131.387" width="4.021" height="0.48"/>
<rect x="93.6" y="131.387" width="0.24" height="0.48"/>
<rect x="93.84" y="131.387" width="4.02" height="0.48"/>
<rect x="104.22" y="131.387" width="4.26" height="0.48"/>
<rect x="108" y="131.627" width="0.48" height="3.96"/>
<rect x="108" y="140.507" width="0.48" height="0.24"/>
<rect x="108" y="140.747" width="0.48" height="6.42"/>
<rect x="108" y="152.027" width="0.48" height="0.239"/>
<rect x="108" y="152.267" width="0.48" height="6.48"/>
<rect x="108" y="163.606" width="0.48" height="4.261"/>
<rect x="108.24" y="167.387" width="4.02" height="0.48"/>
<rect x="118.44" y="167.387" width="0.24" height="0.48"/>
<rect x="118.68" y="167.387" width="7.98" height="0.48"/>
<rect x="132.9" y="167.387" width="0.24" height="0.48"/>
<rect x="133.14" y="167.387" width="7.92" height="0.48"/>
<rect x="147.3" y="167.387" width="0.24" height="0.48"/>
<rect x="147.541" y="167.387" width="7.979" height="0.48"/>
<rect x="161.76" y="167.387" width="0.24" height="0.48"/>
<rect x="162" y="167.387" width="7.92" height="0.48"/>
<rect x="176.16" y="167.387" width="0.24" height="0.48"/>
<rect x="176.4" y="167.387" width="7.98" height="0.48"/>
<rect x="190.62" y="167.387" width="0.24" height="0.48"/>
<rect x="190.86" y="167.387" width="7.92" height="0.48"/>
<rect x="205.02" y="167.387" width="0.24" height="0.48"/>
<rect x="205.26" y="167.387" width="7.979" height="0.48"/>
<rect x="219.42" y="167.387" width="0.239" height="0.48"/>
<rect x="219.66" y="167.387" width="4.021" height="0.48"/>
</svg>
