<?xml version="1.0" encoding="utf-8"?>
<!-- Generator: Adobe Illustrator 16.0.0, SVG Export Plug-In . SVG Version: 6.00 Build 0)  -->
<!DOCTYPE svg PUBLIC "-//W3C//DTD SVG 1.1//EN" "http://www.w3.org/Graphics/SVG/1.1/DTD/svg11.dtd">
<svg version="1.1" id="Layer_1" xmlns="http://www.w3.org/2000/svg" xmlns:xlink="http://www.w3.org/1999/xlink" x="0px" y="0px"
	 width="285.78px" height="137.867px" viewBox="0 0 285.78 137.867" style="enable-background:new 0 0 285.78 137.867;"
	 xml:space="preserve">
<rect x="31.92" y="3.708" width="55.2" height="27"/>
<rect x="31.92" y="3.467" width="55.44" height="0.48"/>
<rect x="86.88" y="3.708" width="0.48" height="27.24"/>
<rect x="31.68" y="30.467" width="55.44" height="0.48"/>
<rect x="31.68" y="3.467" width="0.48" height="27.24"/>
<rect x="29.52" y="1.907" style="fill:#FFFFFF;" width="55.2" height="27"/>
<rect x="29.52" y="1.667" width="55.44" height="0.48"/>
<rect x="84.48" y="1.907" width="0.48" height="27.24"/>
<rect x="29.28" y="28.667" width="55.44" height="0.48"/>
<rect x="29.28" y="1.667" width="0.48" height="27.24"/>
<text transform="matrix(1 0 0 1.0522 31.9199 9.0474)"><tspan x="0" y="0" style="font-family:'ProductusOSGiBookc'; font-size:7.5841;">C</tspan><tspan x="3.966" y="0" style="font-family:'ProductusOSGiBookc'; font-size:7.5841;">o</tspan><tspan x="7.508" y="0" style="font-family:'ProductusOSGiBookc'; font-size:7.5841;">n</tspan><tspan x="10.981" y="0" style="font-family:'ProductusOSGiBookc'; font-size:7.5841;">f</tspan><tspan x="12.787" y="0" style="font-family:'ProductusOSGiBookc'; font-size:7.5841;">i</tspan><tspan x="14.25" y="0" style="font-family:'ProductusOSGiBookc'; font-size:7.5841;">g</tspan><tspan x="17.496" y="0" style="font-family:'ProductusOSGiBookc'; font-size:7.5841;">uratio</tspan><tspan x="33.476" y="0" style="font-family:'ProductusOSGiBookc'; font-size:7.5841;">n</tspan></text>
<text transform="matrix(1 0 0 1.0522 31.9199 17.5674)"><tspan x="0" y="0" style="font-family:'ProductusOSGiBookc'; font-size:7.5841;">A</tspan><tspan x="3.663" y="0" style="font-family:'ProductusOSGiBookc'; font-size:7.5841;">d</tspan><tspan x="7.144" y="0" style="font-family:'ProductusOSGiBookc'; font-size:7.5841;">m</tspan><tspan x="12.597" y="0" style="font-family:'ProductusOSGiBookc'; font-size:7.5841;">i</tspan><tspan x="14.038" y="0" style="font-family:'ProductusOSGiBookc'; font-size:7.5841;">n</tspan><tspan x="17.511" y="0" style="font-family:'ProductusOSGiBookc'; font-size:7.5841;"> </tspan><tspan x="19.013" y="0" style="font-family:'ProductusOSGiBookc'; font-size:7.5841;">I</tspan><tspan x="20.507" y="0" style="font-family:'ProductusOSGiBookc'; font-size:7.5841;">m</tspan><tspan x="25.915" y="0" style="font-family:'ProductusOSGiBookc'; font-size:7.5841;">pl</tspan></text>
<text transform="matrix(1 0 0 1 5.8799 81.1074)"><tspan x="0" y="0" style="font-family:'ProductusBook'; font-size:7.98;">1</tspan><tspan x="3.128" y="0" style="font-family:'ProductusBook'; font-size:7.98;">6.</tspan><tspan x="8.522" y="0" style="font-family:'ProductusBook'; font-size:7.98;">1</tspan></text>
<text transform="matrix(1 0 0 1 5.8799 101.9272)"><tspan x="0" y="0" style="font-family:'ProductusBook'; font-size:7.98;">c</tspan><tspan x="3" y="0" style="font-family:'ProductusBook'; font-size:7.98;">om.</tspan></text>
<text transform="matrix(1 0 0 1 55.9199 81.1074)"><tspan x="0" y="0" style="font-family:'ProductusBook'; font-size:7.98;">n</tspan><tspan x="3.703" y="0" style="font-family:'ProductusBook'; font-size:7.98;">a</tspan><tspan x="7.006" y="0" style="font-family:'ProductusBook'; font-size:7.98;">me</tspan><tspan x="16.311" y="0" style="font-family:'ProductusBook'; font-size:7.98;">=</tspan><tspan x="20.093" y="0" style="font-family:'ProductusBook'; font-size:7.98;">E</tspan><tspan x="23.509" y="0" style="font-family:'ProductusBook'; font-size:7.98;">r</tspan><tspan x="25.799" y="0" style="font-family:'ProductusBook'; font-size:7.98;">i</tspan><tspan x="27.363" y="0" style="font-family:'ProductusBook'; font-size:7.98;">c</tspan><tspan x="30.427" y="0" style="font-family:'ProductusBook'; font-size:7.98;">a</tspan></text>
<text transform="matrix(1 0 0 1 55.9199 101.9272)"><tspan x="0" y="0" style="font-family:'ProductusBook'; font-size:7.98;">n</tspan><tspan x="3.71" y="0" style="font-family:'ProductusBook'; font-size:7.98;">a</tspan><tspan x="7.014" y="0" style="font-family:'ProductusBook'; font-size:7.98;">me</tspan><tspan x="16.335" y="0" style="font-family:'ProductusBook'; font-size:7.98;">=</tspan><tspan x="20.117" y="0" style="font-family:'ProductusBook'; font-size:7.98;">E</tspan><tspan x="23.533" y="0" style="font-family:'ProductusBook'; font-size:7.98;">lm</tspan><tspan x="30.85" y="0" style="font-family:'ProductusBook'; font-size:7.98;">e</tspan><tspan x="34.385" y="0" style="font-family:'ProductusBook'; font-size:7.98;">r</tspan></text>
<rect x="58.5" y="29.327" width="0.48" height="43.68"/>
<text transform="matrix(1 0 0 1 27.96 50.687)" style="font-family:'ProductusBook'; font-size:7.98;">database</text>
<rect x="210" y="46.248" width="55.2" height="27"/>
<rect x="210" y="46.007" width="55.44" height="0.48"/>
<rect x="264.959" y="46.248" width="0.48" height="27.24"/>
<rect x="209.76" y="73.007" width="55.439" height="0.48"/>
<rect x="209.76" y="46.007" width="0.479" height="27.24"/>
<rect x="207.6" y="44.447" style="fill:#FFFFFF;" width="55.2" height="27"/>
<rect x="207.6" y="44.208" width="55.439" height="0.479"/>
<rect x="262.56" y="44.447" width="0.479" height="27.24"/>
<rect x="207.36" y="71.208" width="55.44" height="0.48"/>
<rect x="207.36" y="44.208" width="0.48" height="27.24"/>
<text transform="matrix(1 0 0 1.0522 209.9995 51.5874)" style="font-family:'ProductusOSGiBookc'; font-size:7.5841;">pid=com.acme</text>
<text transform="matrix(1 0 0 1 6.4199 127.2471)"><tspan x="0" y="0" style="font-family:'ProductusBook'; font-size:7.98;">4</tspan><tspan x="3.727" y="0" style="font-family:'ProductusBook'; font-size:7.98;">.1</tspan><tspan x="8.522" y="0" style="font-family:'ProductusBook'; font-size:7.98;">0</tspan><tspan x="12.425" y="0" style="font-family:'ProductusBook'; font-size:7.98;">2</tspan></text>
<text transform="matrix(1 0 0 1 55.9199 124.127)"><tspan x="0" y="0" style="font-family:'ProductusBook'; font-size:7.98;">n</tspan><tspan x="3.703" y="0" style="font-family:'ProductusBook'; font-size:7.98;">a</tspan><tspan x="7.006" y="0" style="font-family:'ProductusBook'; font-size:7.98;">me</tspan><tspan x="16.311" y="0" style="font-family:'ProductusBook'; font-size:7.98;">=</tspan><tspan x="20.093" y="0" style="font-family:'ProductusBook'; font-size:7.98;">C</tspan><tspan x="24.53" y="0" style="font-family:'ProductusBook'; font-size:7.98;">h</tspan><tspan x="28.193" y="0" style="font-family:'ProductusBook'; font-size:7.98;">r</tspan><tspan x="30.467" y="0" style="font-family:'ProductusBook'; font-size:7.98;">is</tspan><tspan x="34.848" y="0" style="font-family:'ProductusBook'; font-size:7.98;">t</tspan><tspan x="37.25" y="0" style="font-family:'ProductusBook'; font-size:7.98;">e</tspan><tspan x="40.737" y="0" style="font-family:'ProductusBook'; font-size:7.98;">r</tspan></text>
<text transform="matrix(1 0 0 1 55.9199 133.0669)"><tspan x="0" y="0" style="font-family:'ProductusBook'; font-size:7.98;">s</tspan><tspan x="2.817" y="0" style="font-family:'ProductusBook'; font-size:7.98;">i</tspan><tspan x="4.437" y="0" style="font-family:'ProductusBook'; font-size:7.98;">z</tspan><tspan x="7.437" y="0" style="font-family:'ProductusBook'; font-size:7.98;">e</tspan><tspan x="10.972" y="0" style="font-family:'ProductusBook'; font-size:7.98;">=2</tspan></text>
<rect x="0.24" y="72.587" width="115.44" height="0.48"/>
<rect x="115.2" y="72.827" width="0.48" height="65.04"/>
<rect y="137.387" width="115.44" height="0.48"/>
<rect y="72.587" width="0.48" height="65.04"/>
<rect x="50.4" y="72.827" width="0.48" height="64.8"/>
<rect x="0.24" y="94.188" width="115.2" height="0.48"/>
<rect x="0.24" y="115.787" width="115.2" height="0.48"/>
<text transform="matrix(1 0 0 1 129.6001 6.6475)"><tspan x="0" y="0" style="font-family:'ProductusSemibold'; font-size:7.98;">Manag</tspan><tspan x="22.759" y="0" style="font-family:'ProductusSemibold'; font-size:7.98;">e</tspan><tspan x="26.892" y="0" style="font-family:'ProductusSemibold'; font-size:7.98;">d</tspan><tspan x="31.193" y="0" style="font-family:'ProductusSemibold'; font-size:7.98;"> </tspan><tspan x="33.228" y="0" style="font-family:'ProductusSemibold'; font-size:7.98;">S</tspan><tspan x="37.458" y="0" style="font-family:'ProductusSemibold'; font-size:7.98;">e</tspan><tspan x="41.591" y="0" style="font-family:'ProductusSemibold'; font-size:7.98;">r</tspan><tspan x="44.552" y="0" style="font-family:'ProductusSemibold'; font-size:7.98;">v</tspan><tspan x="48.629" y="0" style="font-family:'ProductusSemibold'; font-size:7.98;">ic</tspan><tspan x="54.407" y="0" style="font-family:'ProductusSemibold'; font-size:7.98;">e</tspan></text>
<text transform="matrix(1 0 0 1 55.9199 90.0469)"><tspan x="0" y="0" style="font-family:'ProductusBook'; font-size:7.98;">s</tspan><tspan x="2.817" y="0" style="font-family:'ProductusBook'; font-size:7.98;">i</tspan><tspan x="4.437" y="0" style="font-family:'ProductusBook'; font-size:7.98;">z</tspan><tspan x="7.437" y="0" style="font-family:'ProductusBook'; font-size:7.98;">e</tspan><tspan x="10.972" y="0" style="font-family:'ProductusBook'; font-size:7.98;">=8</tspan></text>
<text transform="matrix(1 0 0 1 5.8794 110.8667)"><tspan x="0" y="0" style="font-family:'ProductusBook'; font-size:7.98;">a</tspan><tspan x="3.304" y="0" style="font-family:'ProductusBook'; font-size:7.98;">c</tspan><tspan x="6.416" y="0" style="font-family:'ProductusBook'; font-size:7.98;">m</tspan><tspan x="12.161" y="0" style="font-family:'ProductusBook'; font-size:7.98; letter-spacing:34;">e</tspan><tspan x="50.019" y="0" style="font-family:'ProductusBook'; font-size:7.98;">s</tspan><tspan x="52.827" y="0" style="font-family:'ProductusBook'; font-size:7.98;">i</tspan><tspan x="54.447" y="0" style="font-family:'ProductusBook'; font-size:7.98;">z</tspan><tspan x="57.487" y="0" style="font-family:'ProductusBook'; font-size:7.98;">e</tspan><tspan x="61.022" y="0" style="font-family:'ProductusBook'; font-size:7.98;">=</tspan><tspan x="64.805" y="0" style="font-family:'ProductusBook'; font-size:7.98;">4</tspan><tspan x="68.58" y="0" style="font-family:'ProductusBook'; font-size:7.98;">2</tspan></text>
<text transform="matrix(1 0 0 1 4.7998 69.4668)"><tspan x="0" y="0" style="font-family:'ProductusBook'; font-size:7.98;">P</tspan><tspan x="3.359" y="0" style="font-family:'ProductusBook'; font-size:7.98;">I</tspan><tspan x="4.923" y="0" style="font-family:'ProductusBook'; font-size:7.98; letter-spacing:47;">D</tspan><tspan x="57.599" y="0" style="font-family:'ProductusBook'; font-size:7.98;">c</tspan><tspan x="60.664" y="0" style="font-family:'ProductusBook'; font-size:7.98;">on</tspan><tspan x="68.125" y="0" style="font-family:'ProductusBook'; font-size:7.98;">f</tspan><tspan x="70.048" y="0" style="font-family:'ProductusBook'; font-size:7.98;">ig</tspan><tspan x="75.091" y="0" style="font-family:'ProductusBook'; font-size:7.98;">u</tspan><tspan x="78.81" y="0" style="font-family:'ProductusBook'; font-size:7.98;">ration</tspan></text>
<rect x="210" y="3.287" width="55.2" height="27"/>
<rect x="210" y="3.047" width="55.44" height="0.48"/>
<rect x="264.959" y="3.287" width="0.48" height="27.24"/>
<rect x="209.76" y="30.047" width="55.439" height="0.48"/>
<rect x="209.76" y="3.047" width="0.479" height="27.24"/>
<rect x="207.6" y="1.487" style="fill:#FFFFFF;" width="55.2" height="27"/>
<rect x="207.6" y="1.248" width="55.439" height="0.479"/>
<rect x="262.56" y="1.487" width="0.479" height="27.24"/>
<rect x="207.36" y="28.248" width="55.44" height="0.479"/>
<rect x="207.36" y="1.248" width="0.48" height="27.24"/>
<text transform="matrix(1 0 0 1.0522 209.9995 8.6274)" style="font-family:'ProductusOSGiBookc'; font-size:7.5841;">pid=4.102</text>
<rect x="164.82" y="15.827" width="43.68" height="0.48"/>
<rect x="171.9" y="15.827" width="0.48" height="43.02"/>
<rect x="172.14" y="58.367" width="35.701" height="0.48"/>
<rect x="115.2" y="101.387" width="4.26" height="0.48"/>
<rect x="125.58" y="101.387" width="8.16" height="0.48"/>
<rect x="139.92" y="101.387" width="8.1" height="0.48"/>
<rect x="154.2" y="101.387" width="8.16" height="0.48"/>
<rect x="168.54" y="101.387" width="8.1" height="0.48"/>
<rect x="182.82" y="101.387" width="8.16" height="0.48"/>
<rect x="197.1" y="101.387" width="8.16" height="0.48"/>
<rect x="211.44" y="101.387" width="8.16" height="0.48"/>
<rect x="225.72" y="101.387" width="8.159" height="0.48"/>
<rect x="240.06" y="101.387" width="8.1" height="0.48"/>
<rect x="254.34" y="101.387" width="4.26" height="0.48"/>
<rect x="258.12" y="97.667" width="0.48" height="3.96"/>
<rect x="258.12" y="83.087" width="0.48" height="8.28"/>
<rect x="258.12" y="72.587" width="0.48" height="4.26"/>
<polyline style="fill-rule:evenodd;clip-rule:evenodd;fill:#FFFFFF;" points="150.84,8.987 150.84,23.208 165.06,16.067 "/>
<polyline points="151.08,8.987 151.08,23.208 150.96,23.447 150.72,23.027 164.94,15.887 165.18,15.887 165.54,16.067 
	165.18,16.307 150.96,23.447 150.6,23.627 150.6,8.987 "/>
<polyline points="164.94,16.307 150.72,9.227 150.6,8.987 150.6,8.627 150.96,8.807 165.18,15.887 "/>
<rect x="115.2" y="79.787" width="4.26" height="0.48"/>
<rect x="124.62" y="79.787" width="6.96" height="0.48"/>
<rect x="136.74" y="79.787" width="7.02" height="0.48"/>
<rect x="148.92" y="79.787" width="6.96" height="0.48"/>
<rect x="161.04" y="79.787" width="4.26" height="0.48"/>
<text transform="matrix(1 0 0 1 121.5601 87.0474)"><tspan x="0" y="0" style="font-family:'ProductusBook'; font-size:7.98;">n</tspan><tspan x="3.679" y="0" style="font-family:'ProductusBook'; font-size:7.98;">o</tspan><tspan x="7.517" y="0" style="font-family:'ProductusBook'; font-size:7.98;"> </tspan><tspan x="9.081" y="0" style="font-family:'ProductusBook'; font-size:7.98;">a</tspan><tspan x="12.393" y="0" style="font-family:'ProductusBook'; font-size:7.98;">s</tspan><tspan x="15.266" y="0" style="font-family:'ProductusBook'; font-size:7.98;">soci</tspan><tspan x="26.517" y="0" style="font-family:'ProductusBook'; font-size:7.98;">a</tspan><tspan x="29.877" y="0" style="font-family:'ProductusBook'; font-size:7.98;">t</tspan><tspan x="32.223" y="0" style="font-family:'ProductusBook'; font-size:7.98;">ed</tspan><tspan x="39.421" y="0" style="font-family:'ProductusBook'; font-size:7.98;"> </tspan><tspan x="40.985" y="0" style="font-family:'ProductusBook'; font-size:7.98;">PID</tspan><tspan x="50.784" y="0" style="font-family:'ProductusBook'; font-size:7.98;"> </tspan><tspan x="52.404" y="0" style="font-family:'ProductusBook'; font-size:7.98;">r</tspan><tspan x="54.63" y="0" style="font-family:'ProductusBook'; font-size:7.98;">e</tspan><tspan x="58.165" y="0" style="font-family:'ProductusBook'; font-size:7.98;">gistered</tspan></text>
<rect x="86.88" y="15.827" width="64.26" height="0.48"/>
<rect x="264" y="15.827" width="2.28" height="0.48"/>
<rect x="269.7" y="15.827" width="3.48" height="0.48"/>
<rect x="276.6" y="15.827" width="3.54" height="0.48"/>
<rect x="283.56" y="15.827" width="2.22" height="0.48"/>
<rect x="285.3" y="16.067" width="0.479" height="2.04"/>
<rect x="285.3" y="22.187" width="0.479" height="4.021"/>
<rect x="285.3" y="30.287" width="0.479" height="4.02"/>
<rect x="285.3" y="38.387" width="0.479" height="4.02"/>
<rect x="285.3" y="46.487" width="0.479" height="4.02"/>
<rect x="285.3" y="54.587" width="0.479" height="4.02"/>
<rect x="285.3" y="62.687" width="0.479" height="4.02"/>
<rect x="285.3" y="70.787" width="0.479" height="4.02"/>
<rect x="285.3" y="78.887" width="0.479" height="4.02"/>
<rect x="285.3" y="86.987" width="0.479" height="4.02"/>
<rect x="285.3" y="95.087" width="0.479" height="4.02"/>
<rect x="285.3" y="103.188" width="0.479" height="4.02"/>
<rect x="285.3" y="111.287" width="0.479" height="4.02"/>
<rect x="285.3" y="119.387" width="0.479" height="0.24"/>
<rect x="285.3" y="119.627" width="0.479" height="3.78"/>
<rect x="285.3" y="127.487" width="0.479" height="2.22"/>
<rect x="283.56" y="129.227" width="1.979" height="0.48"/>
<rect x="279.24" y="129.227" width="0.24" height="0.48"/>
<rect x="275.459" y="129.227" width="3.78" height="0.48"/>
<rect x="271.14" y="129.227" width="0.239" height="0.48"/>
<rect x="267.36" y="129.227" width="3.78" height="0.48"/>
<rect x="263.04" y="129.227" width="0.24" height="0.48"/>
<rect x="259.26" y="129.227" width="3.779" height="0.48"/>
<rect x="254.94" y="129.227" width="0.24" height="0.48"/>
<rect x="251.16" y="129.227" width="3.78" height="0.48"/>
<rect x="246.84" y="129.227" width="0.239" height="0.48"/>
<rect x="243.06" y="129.227" width="3.78" height="0.48"/>
<rect x="238.74" y="129.227" width="0.24" height="0.48"/>
<rect x="234.9" y="129.227" width="3.84" height="0.48"/>
<rect x="230.64" y="129.227" width="0.239" height="0.48"/>
<rect x="226.8" y="129.227" width="3.84" height="0.48"/>
<rect x="222.54" y="129.227" width="0.24" height="0.48"/>
<rect x="218.7" y="129.227" width="3.84" height="0.48"/>
<rect x="214.44" y="129.227" width="0.24" height="0.48"/>
<rect x="210.6" y="129.227" width="3.84" height="0.48"/>
<rect x="206.28" y="129.227" width="0.24" height="0.48"/>
<rect x="202.5" y="129.227" width="3.78" height="0.48"/>
<rect x="198.18" y="129.227" width="0.239" height="0.48"/>
<rect x="194.4" y="129.227" width="3.78" height="0.48"/>
<rect x="190.08" y="129.227" width="0.24" height="0.48"/>
<rect x="186.3" y="129.227" width="3.779" height="0.48"/>
<rect x="181.98" y="129.227" width="0.24" height="0.48"/>
<rect x="178.2" y="129.227" width="3.78" height="0.48"/>
<rect x="173.88" y="129.227" width="0.24" height="0.48"/>
<rect x="170.1" y="129.227" width="3.78" height="0.48"/>
<rect x="165.78" y="129.227" width="0.24" height="0.48"/>
<rect x="162" y="129.227" width="3.78" height="0.48"/>
<rect x="157.68" y="129.227" width="0.24" height="0.48"/>
<rect x="153.9" y="129.227" width="3.78" height="0.48"/>
<rect x="149.58" y="129.227" width="0.24" height="0.48"/>
<rect x="145.8" y="129.227" width="3.78" height="0.48"/>
<rect x="141.48" y="129.227" width="0.24" height="0.48"/>
<rect x="137.7" y="129.227" width="3.78" height="0.48"/>
<rect x="133.38" y="129.227" width="0.24" height="0.48"/>
<rect x="129.6" y="129.227" width="3.78" height="0.48"/>
<rect x="125.28" y="129.227" width="0.24" height="0.48"/>
<rect x="121.5" y="129.227" width="3.78" height="0.48"/>
<rect x="117.18" y="129.227" width="0.24" height="0.48"/>
<rect x="115.2" y="129.227" width="1.98" height="0.48"/>
</svg>
