<?xml version="1.0" encoding="utf-8"?>
<!-- Generator: Adobe Illustrator 16.0.1, SVG Export Plug-In . SVG Version: 6.00 Build 0)  -->
<!DOCTYPE svg PUBLIC "-//W3C//DTD SVG 1.1//EN" "http://www.w3.org/Graphics/SVG/1.1/DTD/svg11.dtd">
<svg version="1.1" id="Layer_1" xmlns="http://www.w3.org/2000/svg" xmlns:xlink="http://www.w3.org/1999/xlink" x="0px" y="0px"
	 width="285.779px" height="137.867px" viewBox="0 0 285.779 137.867" enable-background="new 0 0 285.779 137.867"
	 xml:space="preserve">
<rect x="31.92" y="3.708" width="55.2" height="27"/>
<rect x="31.92" y="3.467" width="55.439" height="0.48"/>
<rect x="86.88" y="3.708" width="0.479" height="27.24"/>
<rect x="31.68" y="30.467" width="55.44" height="0.48"/>
<rect x="31.68" y="3.467" width="0.48" height="27.24"/>
<rect x="29.52" y="1.907" fill="#FFFFFF" width="55.2" height="27"/>
<rect x="29.52" y="1.667" width="55.44" height="0.48"/>
<rect x="84.48" y="1.907" width="0.48" height="27.24"/>
<rect x="29.28" y="28.667" width="55.44" height="0.48"/>
<rect x="29.28" y="1.667" width="0.48" height="27.24"/>
<text transform="matrix(0.9504 0 0 1 31.9202 10.0479)" enable-background="new    "><tspan x="0" y="0" font-family="'ProductusOSGiBookc'" font-size="7.98">Configuration</tspan><tspan x="0" y="9.576" font-family="'ProductusOSGiBookc'" font-size="7.98">Admin Impl</tspan></text>
<text transform="matrix(1 0 0 1 5.8801 81.1074)" font-family="'ProductusBook'" font-size="7.98">16.1</text>
<text transform="matrix(1 0 0 1 5.8801 101.9268)" enable-background="new    "><tspan x="0" y="0" font-family="'ProductusBook'" font-size="7.98">com.</tspan><tspan x="0" y="9.576" font-family="'ProductusBook'" font-size="7.98">acme</tspan></text>
<text transform="matrix(1 0 0 1 55.9202 81.1074)" enable-background="new    "><tspan x="0" y="0" font-family="'ProductusBook'" font-size="7.98">name=Erica</tspan><tspan x="0" y="9.576" font-family="'ProductusBook'" font-size="7.98">size=8</tspan></text>
<text transform="matrix(1 0 0 1 55.9202 101.9268)" enable-background="new    "><tspan x="0" y="0" font-family="'ProductusBook'" font-size="7.98">name=Elmer</tspan><tspan x="0" y="9.576" font-family="'ProductusBook'" font-size="7.98">size=42</tspan></text>
<rect x="58.5" y="29.327" width="0.479" height="43.68"/>
<text transform="matrix(1 0 0 1 27.9602 50.6875)" font-family="'ProductusBook'" font-size="7.98">database</text>
<rect x="210" y="46.248" width="55.2" height="27"/>
<rect x="210" y="46.007" width="55.439" height="0.48"/>
<rect x="264.959" y="46.248" width="0.479" height="27.24"/>
<rect x="209.76" y="73.007" width="55.439" height="0.479"/>
<rect x="209.76" y="46.007" width="0.479" height="27.24"/>
<rect x="207.6" y="44.447" fill="#FFFFFF" width="55.2" height="27"/>
<rect x="207.6" y="44.208" width="55.439" height="0.479"/>
<rect x="262.56" y="44.447" width="0.479" height="27.24"/>
<rect x="207.36" y="71.208" width="55.44" height="0.479"/>
<rect x="207.36" y="44.208" width="0.48" height="27.24"/>
<text transform="matrix(0.9504 0 0 1 209.9993 51.5879)" font-family="'ProductusOSGiBookc'" font-size="7.98">pid=com.acme</text>
<text transform="matrix(1 0 0 1 6.4202 127.2471)" font-family="'ProductusBook'" font-size="7.98">4.102</text>
<text transform="matrix(1 0 0 1 55.9202 124.127)" enable-background="new    "><tspan x="0" y="0" font-family="'ProductusBook'" font-size="7.98">name=Christer</tspan><tspan x="0" y="9.576" font-family="'ProductusBook'" font-size="7.98">size=2</tspan></text>
<rect x="0.24" y="72.587" width="115.439" height="0.479"/>
<rect x="115.2" y="72.827" width="0.479" height="65.04"/>
<rect x="0" y="137.387" width="115.439" height="0.48"/>
<rect x="0" y="72.587" width="0.479" height="65.04"/>
<rect x="50.4" y="72.827" width="0.48" height="64.8"/>
<rect x="0.24" y="94.188" width="115.199" height="0.48"/>
<rect x="0.24" y="115.787" width="115.199" height="0.48"/>
<text transform="matrix(1 0 0 1 129.6003 6.6475)" font-family="'ProductusSemibold'" font-size="7.98">Managed Service</text>
<text transform="matrix(1 0 0 1 4.8 69.4668)" font-family="'ProductusBook'" font-size="7.98">PID</text>
<text transform="matrix(1 0 0 1 62.3992 69.4668)" font-family="'ProductusBook'" font-size="7.98">configuration</text>
<rect x="210" y="3.287" width="55.2" height="27"/>
<rect x="210" y="3.047" width="55.439" height="0.48"/>
<rect x="264.959" y="3.287" width="0.479" height="27.24"/>
<rect x="209.76" y="30.047" width="55.439" height="0.48"/>
<rect x="209.76" y="3.047" width="0.479" height="27.24"/>
<rect x="207.6" y="1.487" fill="#FFFFFF" width="55.2" height="27"/>
<rect x="207.6" y="1.248" width="55.439" height="0.479"/>
<rect x="262.56" y="1.487" width="0.479" height="27.24"/>
<rect x="207.36" y="28.248" width="55.44" height="0.479"/>
<rect x="207.36" y="1.248" width="0.48" height="27.24"/>
<text transform="matrix(0.9504 0 0 1 209.9993 8.627)" font-family="'ProductusOSGiBookc'" font-size="7.98">pid=4.102</text>
<rect x="164.82" y="15.827" width="43.681" height="0.48"/>
<rect x="171.9" y="15.827" width="0.48" height="43.02"/>
<rect x="172.14" y="58.367" width="35.701" height="0.48"/>
<rect x="115.2" y="101.387" width="4.26" height="0.48"/>
<rect x="125.58" y="101.387" width="8.16" height="0.48"/>
<rect x="139.92" y="101.387" width="8.1" height="0.48"/>
<rect x="154.2" y="101.387" width="8.159" height="0.48"/>
<rect x="168.54" y="101.387" width="8.1" height="0.48"/>
<rect x="182.82" y="101.387" width="8.16" height="0.48"/>
<rect x="197.1" y="101.387" width="8.16" height="0.48"/>
<rect x="211.44" y="101.387" width="8.16" height="0.48"/>
<rect x="225.72" y="101.387" width="8.159" height="0.48"/>
<rect x="240.06" y="101.387" width="8.101" height="0.48"/>
<rect x="254.34" y="101.387" width="4.26" height="0.48"/>
<rect x="258.12" y="97.667" width="0.479" height="3.96"/>
<rect x="258.12" y="83.087" width="0.479" height="8.28"/>
<rect x="258.12" y="72.587" width="0.479" height="4.261"/>
<polyline fill="#FFFFFF" points="150.84,8.987 150.84,23.208 165.06,16.067 "/>
<polyline points="151.08,8.987 151.08,23.208 150.96,23.447 150.72,23.027 164.94,15.887 165.18,15.887 165.54,16.067 
	165.18,16.307 150.96,23.447 150.6,23.627 150.6,8.987 "/>
<polyline points="164.94,16.307 150.72,9.227 150.6,8.987 150.6,8.627 150.96,8.807 165.18,15.887 "/>
<rect x="115.2" y="79.787" width="4.26" height="0.48"/>
<rect x="124.62" y="79.787" width="6.96" height="0.48"/>
<rect x="136.74" y="79.787" width="7.02" height="0.48"/>
<rect x="148.92" y="79.787" width="6.96" height="0.48"/>
<rect x="161.04" y="79.787" width="4.26" height="0.48"/>
<text transform="matrix(1 0 0 1 121.5603 87.0479)" font-family="'ProductusBook'" font-size="7.98">no associated PID registered</text>
<rect x="86.88" y="15.827" width="64.26" height="0.48"/>
<rect x="264" y="15.827" width="2.279" height="0.48"/>
<rect x="269.7" y="15.827" width="3.479" height="0.48"/>
<rect x="276.6" y="15.827" width="3.54" height="0.48"/>
<rect x="283.56" y="15.827" width="2.22" height="0.48"/>
<rect x="285.3" y="16.067" width="0.479" height="2.04"/>
<rect x="285.3" y="22.187" width="0.479" height="4.021"/>
<rect x="285.3" y="30.287" width="0.479" height="4.02"/>
<rect x="285.3" y="38.387" width="0.479" height="4.02"/>
<rect x="285.3" y="46.487" width="0.479" height="4.02"/>
<rect x="285.3" y="54.587" width="0.479" height="4.02"/>
<rect x="285.3" y="62.687" width="0.479" height="4.02"/>
<rect x="285.3" y="70.787" width="0.479" height="4.02"/>
<rect x="285.3" y="78.887" width="0.479" height="4.021"/>
<rect x="285.3" y="86.986" width="0.479" height="4.021"/>
<rect x="285.3" y="95.087" width="0.479" height="4.021"/>
<rect x="285.3" y="103.188" width="0.479" height="4.021"/>
<rect x="285.3" y="111.287" width="0.479" height="4.02"/>
<rect x="285.3" y="119.387" width="0.479" height="0.24"/>
<rect x="285.3" y="119.627" width="0.479" height="3.78"/>
<rect x="285.3" y="127.486" width="0.479" height="2.221"/>
<rect x="283.56" y="129.227" width="1.979" height="0.48"/>
<rect x="279.24" y="129.227" width="0.239" height="0.48"/>
<rect x="275.459" y="129.227" width="3.78" height="0.48"/>
<rect x="271.14" y="129.227" width="0.239" height="0.48"/>
<rect x="267.36" y="129.227" width="3.78" height="0.48"/>
<rect x="263.04" y="129.227" width="0.239" height="0.48"/>
<rect x="259.26" y="129.227" width="3.779" height="0.48"/>
<rect x="254.94" y="129.227" width="0.24" height="0.48"/>
<rect x="251.16" y="129.227" width="3.779" height="0.48"/>
<rect x="246.84" y="129.227" width="0.239" height="0.48"/>
<rect x="243.06" y="129.227" width="3.78" height="0.48"/>
<rect x="238.74" y="129.227" width="0.239" height="0.48"/>
<rect x="234.9" y="129.227" width="3.841" height="0.48"/>
<rect x="230.64" y="129.227" width="0.239" height="0.48"/>
<rect x="226.8" y="129.227" width="3.84" height="0.48"/>
<rect x="222.54" y="129.227" width="0.239" height="0.48"/>
<rect x="218.7" y="129.227" width="3.84" height="0.48"/>
<rect x="214.44" y="129.227" width="0.24" height="0.48"/>
<rect x="210.6" y="129.227" width="3.84" height="0.48"/>
<rect x="206.28" y="129.227" width="0.24" height="0.48"/>
<rect x="202.5" y="129.227" width="3.779" height="0.48"/>
<rect x="198.18" y="129.227" width="0.239" height="0.48"/>
<rect x="194.4" y="129.227" width="3.78" height="0.48"/>
<rect x="190.08" y="129.227" width="0.239" height="0.48"/>
<rect x="186.3" y="129.227" width="3.779" height="0.48"/>
<rect x="181.98" y="129.227" width="0.24" height="0.48"/>
<rect x="178.2" y="129.227" width="3.779" height="0.48"/>
<rect x="173.88" y="129.227" width="0.24" height="0.48"/>
<rect x="170.1" y="129.227" width="3.78" height="0.48"/>
<rect x="165.78" y="129.227" width="0.24" height="0.48"/>
<rect x="162" y="129.227" width="3.779" height="0.48"/>
<rect x="157.68" y="129.227" width="0.24" height="0.48"/>
<rect x="153.9" y="129.227" width="3.78" height="0.48"/>
<rect x="149.58" y="129.227" width="0.239" height="0.48"/>
<rect x="145.8" y="129.227" width="3.78" height="0.48"/>
<rect x="141.48" y="129.227" width="0.24" height="0.48"/>
<rect x="137.7" y="129.227" width="3.779" height="0.48"/>
<rect x="133.38" y="129.227" width="0.24" height="0.48"/>
<rect x="129.6" y="129.227" width="3.78" height="0.48"/>
<rect x="125.28" y="129.227" width="0.24" height="0.48"/>
<rect x="121.5" y="129.227" width="3.779" height="0.48"/>
<rect x="117.18" y="129.227" width="0.24" height="0.48"/>
<rect x="115.2" y="129.227" width="1.979" height="0.48"/>
</svg>
