<?xml version="1.0" encoding="utf-8"?>
<!-- Generator: Adobe Illustrator 16.0.1, SVG Export Plug-In . SVG Version: 6.00 Build 0)  -->
<!DOCTYPE svg PUBLIC "-//W3C//DTD SVG 1.1//EN" "http://www.w3.org/Graphics/SVG/1.1/DTD/svg11.dtd">
<svg version="1.1" id="Layer_1" xmlns="http://www.w3.org/2000/svg" xmlns:xlink="http://www.w3.org/1999/xlink" x="0px" y="0px"
	 width="278.82px" height="227.219px" viewBox="0 0 278.82 227.219" enable-background="new 0 0 278.82 227.219"
	 xml:space="preserve">
<polyline fill="#F7F7F7" points="108.48,7.32 108.42,6.96 108.3,6.6 108.121,6.24 107.88,5.88 107.581,5.52 107.22,5.22 
	106.26,4.56 105.061,3.96 103.621,3.36 102,2.82 100.141,2.28 98.16,1.86 96,1.44 93.66,1.08 91.141,0.78 88.561,0.54 85.86,0.36 
	83.041,0.24 77.22,0.24 74.4,0.36 71.7,0.54 69.121,0.78 66.601,1.08 64.26,1.44 62.101,1.86 60.061,2.28 58.26,2.82 56.641,3.36 
	55.2,3.96 54,4.56 53.041,5.22 52.68,5.52 52.081,6.24 51.9,6.6 51.78,7.32 51.9,8.04 52.081,8.4 52.38,8.76 53.041,9.42 54,10.08 
	55.2,10.68 56.641,11.28 58.26,11.82 60.061,12.3 62.101,12.78 64.26,13.2 66.601,13.56 69.121,13.86 71.7,14.1 74.4,14.28 
	77.22,14.34 80.101,14.4 83.041,14.34 85.86,14.28 88.561,14.1 91.141,13.86 93.66,13.56 96,13.2 98.16,12.78 100.141,12.3 
	102,11.82 103.621,11.28 105.061,10.68 106.26,10.08 107.22,9.42 107.88,8.76 108.121,8.4 108.3,8.04 108.42,7.68 108.48,7.32 "/>
<polyline points="108.24,7.38 108.18,7.02 108.18,7.08 108.061,6.72 108.121,6.72 107.94,6.36 107.7,6 107.7,6.06 107.4,5.7 
	107.46,5.7 107.101,5.4 107.101,5.46 106.141,4.8 104.94,4.2 105,4.2 103.561,3.6 101.94,3.06 100.081,2.52 98.101,2.1 95.94,1.68 
	96,1.68 93.66,1.32 91.141,1.02 88.561,0.78 85.86,0.6 83.041,0.48 77.22,0.48 74.4,0.6 74.46,0.6 71.76,0.78 69.18,1.02 
	66.66,1.32 64.32,1.68 62.16,2.1 60.121,2.52 58.32,3.06 58.38,3.06 56.76,3.6 55.32,4.2 54.121,4.8 54.18,4.8 53.22,5.46 
	53.22,5.4 52.86,5.7 52.26,6.42 52.32,6.36 52.141,6.72 52.141,6.66 52.021,7.38 52.021,7.32 52.141,8.04 52.141,7.92 52.32,8.28 
	52.26,8.28 51.9,8.58 51.9,8.52 51.72,8.16 51.66,8.1 51.541,7.38 51.541,7.32 51.66,6.6 51.9,6.12 52.5,5.4 52.561,5.34 
	52.92,5.04 53.88,4.38 55.081,3.78 55.141,3.78 56.581,3.18 56.581,3.12 58.2,2.58 60,2.04 62.041,1.62 64.2,1.2 64.26,1.2 
	66.601,0.84 69.121,0.54 71.7,0.3 74.4,0.12 77.22,0 83.041,0 85.86,0.12 85.92,0.12 88.621,0.3 91.2,0.54 93.72,0.84 96.061,1.2 
	98.22,1.62 100.2,2.04 102.061,2.58 102.121,2.58 103.74,3.12 103.74,3.18 105.18,3.78 106.38,4.38 106.44,4.38 107.4,5.04 
	107.76,5.34 107.76,5.4 108.061,5.76 108.121,5.76 108.36,6.12 108.541,6.48 108.541,6.54 108.66,6.9 108.66,6.96 108.72,7.32 "/>
<polyline points="52.26,8.28 52.561,8.64 52.561,8.58 53.22,9.24 54.18,9.9 54.121,9.9 55.32,10.5 56.76,11.1 56.76,11.04 
	58.38,11.58 58.32,11.58 60.121,12.06 62.16,12.54 64.32,12.96 66.66,13.32 69.18,13.62 71.76,13.86 74.46,14.04 74.4,14.04 
	77.22,14.1 80.101,14.16 83.041,14.1 85.86,14.04 88.561,13.86 91.141,13.62 93.66,13.32 96,12.96 95.94,12.96 98.101,12.54 
	100.081,12.06 101.94,11.58 103.561,11.04 103.561,11.1 105,10.5 104.94,10.5 106.141,9.9 107.101,9.24 107.041,9.24 107.7,8.58 
	107.7,8.64 107.94,8.28 108.121,7.92 108.061,7.98 108.18,7.62 108.18,7.68 108.24,7.32 108.24,7.38 108.72,7.32 108.72,7.38 
	108.66,7.74 108.66,7.8 108.541,8.16 108.36,8.52 108.121,8.88 107.4,9.6 107.4,9.66 106.44,10.32 106.38,10.32 105.18,10.92 
	103.74,11.52 102.121,12.06 102.061,12.06 100.2,12.54 98.22,13.02 96.061,13.44 93.72,13.8 91.2,14.1 88.621,14.34 85.92,14.52 
	85.86,14.52 83.041,14.58 80.101,14.64 77.22,14.58 74.4,14.52 71.7,14.34 69.121,14.1 66.601,13.8 64.26,13.44 64.2,13.44 
	62.041,13.02 60,12.54 58.2,12.06 56.581,11.52 55.141,10.92 55.081,10.92 53.88,10.32 52.92,9.66 52.86,9.6 52.2,8.94 51.9,8.58 
	"/>
<polyline points="80.101,23.4 83.16,23.4 82.68,24.18 80.521,27.84 80.101,28.62 79.621,27.78 77.521,24.12 77.101,23.4 78,23.4 
	78.42,23.64 80.521,27.3 79.621,27.78 79.621,27.3 81.78,23.64 82.68,24.18 82.26,24.42 80.101,24.42 "/>
<rect x="78" y="23.4" width="2.101" height="1.02"/>
<polyline points="80.101,23.88 82.26,23.88 80.101,27.54 78,23.88 "/>
<rect x="79.86" y="14.4" width="0.479" height="9"/>
<rect x="51.78" y="28.32" width="56.94" height="0.48"/>
<rect x="108.24" y="28.56" width="0.48" height="14.4"/>
<rect x="51.541" y="42.48" width="56.94" height="0.48"/>
<rect x="51.541" y="28.32" width="0.48" height="14.4"/>
<text transform="matrix(1 0 0 1 55.4402 37.7397)" font-family="'ProductusBook'" font-size="7.98">U = platform URL</text>
<text transform="matrix(1 0 0 1 62.5198 9.061)" font-family="'ProductusBook'" font-size="7.98">provisioning</text>
<rect x="51.78" y="56.7" width="56.94" height="0.48"/>
<rect x="108.24" y="56.94" width="0.48" height="35.64"/>
<rect x="51.541" y="92.1" width="56.94" height="0.48"/>
<rect x="51.541" y="56.7" width="0.48" height="35.64"/>
<text transform="matrix(1 0 0 1 52.7449 66.3608)" enable-background="new    "><tspan x="0" y="0" font-family="'ProductusBook'" font-size="7.98">load ZIP file from U</tspan><tspan x="3.507" y="9.576" font-family="'ProductusBook'" font-size="7.98">into Provisioning</tspan><tspan x="12.477" y="19.152" font-family="'ProductusBook'" font-size="7.98">Dictionary</tspan></text>
<rect x="165.181" y="42.48" width="56.938" height="0.48"/>
<rect x="221.641" y="42.72" width="0.479" height="14.46"/>
<rect x="164.94" y="56.7" width="56.939" height="0.48"/>
<rect x="164.94" y="42.48" width="0.479" height="14.46"/>
<text transform="matrix(1 0 0 1 167.8806 52.2007)" font-family="'ProductusBook'" font-size="7.98">U = P. REFERENCE</text>
<polyline points="80.101,51.72 83.16,51.72 82.68,52.5 80.521,56.22 80.101,57 79.621,56.16 77.521,52.44 77.101,51.72 78,51.72 
	78.42,51.96 80.521,55.68 79.621,56.16 79.621,55.68 81.78,51.96 82.68,52.5 82.26,52.74 80.101,52.74 "/>
<rect x="78" y="51.72" width="2.101" height="1.021"/>
<polyline points="80.101,52.2 82.26,52.2 80.101,55.92 78,52.2 "/>
<rect x="79.86" y="42.72" width="0.479" height="9"/>
<polyline points="80.101,101.34 83.16,101.34 82.68,102.12 80.521,105.84 80.101,106.62 79.621,105.78 77.521,102.06 77.101,101.34 
	78,101.34 78.42,101.58 80.521,105.3 79.621,105.78 79.621,105.3 81.78,101.58 82.68,102.12 82.26,102.36 80.101,102.36 "/>
<rect x="78" y="101.34" width="2.101" height="1.02"/>
<polyline points="80.101,101.82 82.26,101.82 80.101,105.54 78,101.82 "/>
<rect x="79.86" y="92.34" width="0.479" height="9"/>
<rect x="51.78" y="184.26" width="56.94" height="0.48"/>
<rect x="108.24" y="184.5" width="0.48" height="28.56"/>
<rect x="51.541" y="212.581" width="56.94" height="0.479"/>
<rect x="51.541" y="184.26" width="0.48" height="28.56"/>
<text transform="matrix(1 0 0 1 72.842 191.3804)" enable-background="new    "><tspan x="0" y="0" font-family="'ProductusBook'" font-size="7.98">Start</tspan><tspan x="-12.226" y="9.576" font-family="'ProductusBook'" font-size="7.98">Management</tspan><tspan x="-1.556" y="19.152" font-family="'ProductusBook'" font-size="7.98">Agent</tspan></text>
<polyline points="80.16,156.36 51.84,163.44 51.84,162.959 80.16,170.04 80.16,170.52 80.041,170.04 108.42,162.959 108.42,163.44 
	108.541,162.959 108.541,163.44 80.16,170.52 80.041,170.52 51.72,163.44 51.72,162.959 80.041,155.879 "/>
<polyline points="108.42,163.44 80.041,156.36 80.041,155.879 80.16,155.879 108.541,162.959 "/>
<rect x="51.78" y="106.26" width="56.94" height="0.479"/>
<rect x="108.24" y="106.5" width="0.48" height="35.7"/>
<rect x="51.541" y="141.719" width="56.94" height="0.48"/>
<rect x="51.541" y="106.26" width="0.48" height="35.7"/>
<text transform="matrix(1 0 0 1 55.7654 116.6401)" enable-background="new    "><tspan x="0" y="0" font-family="'ProductusBook'" font-size="7.98">install all bundles</tspan><tspan x="-1.049" y="9.576" font-family="'ProductusBook'" font-size="7.98">with content type</tspan><tspan x="6.416" y="19.152" font-family="'ProductusBook'" font-size="7.98">bundle (-url)</tspan></text>
<polyline points="80.101,150.959 83.16,150.959 82.68,151.741 80.521,155.459 80.101,156.241 79.621,155.4 77.521,151.68 
	77.101,150.959 78,150.959 78.42,151.2 80.521,154.92 79.621,155.4 79.621,154.92 81.78,151.2 82.68,151.741 82.26,151.98 
	80.101,151.98 "/>
<rect x="78" y="150.959" width="2.101" height="1.021"/>
<polyline points="80.101,151.44 82.26,151.44 80.101,155.161 78,151.44 "/>
<rect x="79.86" y="141.959" width="0.479" height="9"/>
<polyline points="193.561,156.36 165.24,163.44 165.24,162.959 193.561,170.04 193.561,170.52 193.44,170.04 221.82,162.959 
	221.82,163.44 221.94,162.959 221.94,163.44 193.561,170.52 193.44,170.52 165.12,163.44 165.12,162.959 193.44,155.879 "/>
<polyline points="221.82,163.44 193.44,156.36 193.44,155.879 193.561,155.879 221.94,162.959 "/>
<polyline points="160.021,163.2 160.021,160.26 160.74,160.68 164.4,162.78 165.181,163.26 164.46,163.68 160.801,165.84 
	160.021,166.32 160.021,165.36 160.261,164.94 163.92,162.78 164.46,163.68 163.92,163.68 160.261,161.581 160.74,160.68 
	161.04,161.1 161.04,163.2 "/>
<rect x="160.021" y="163.2" width="1.02" height="2.16"/>
<polyline points="160.5,163.2 160.5,161.1 164.16,163.2 160.5,165.36 "/>
<rect x="108.24" y="162.959" width="51.96" height="0.48"/>
<polyline points="193.5,62.1 190.561,62.1 190.98,61.38 193.08,57.66 193.561,56.88 193.98,57.6 196.141,61.32 196.62,62.1 
	195.66,62.1 195.24,61.86 193.08,58.14 193.98,57.6 193.98,58.14 191.881,61.86 190.98,61.38 191.4,61.08 193.5,61.08 "/>
<rect x="193.5" y="61.08" width="2.16" height="1.02"/>
<polyline points="193.5,61.62 191.4,61.62 193.5,57.9 195.66,61.62 "/>
<rect x="193.261" y="61.86" width="0.479" height="94.5"/>
<polyline points="193.5,207.661 196.561,207.661 196.08,208.44 193.92,212.1 193.5,212.879 193.021,212.04 190.92,208.379 
	190.5,207.661 191.4,207.661 191.82,207.9 193.92,211.56 193.021,212.04 193.021,211.56 195.181,207.9 196.08,208.44 195.66,208.68 
	193.5,208.68 "/>
<rect x="191.4" y="207.661" width="2.1" height="1.02"/>
<polyline points="193.5,208.14 195.66,208.14 193.5,211.799 191.4,208.14 "/>
<rect x="193.261" y="170.04" width="0.479" height="37.86"/>
<polyline points="80.101,179.28 83.16,179.28 82.68,180.06 80.521,183.78 80.101,184.56 79.621,183.719 77.521,180 77.101,179.28 
	78,179.28 78.42,179.52 80.521,183.241 79.621,183.719 79.621,183.241 81.78,179.52 82.68,180.06 82.26,180.299 80.101,180.299 "/>
<rect x="78" y="179.28" width="2.101" height="1.02"/>
<polyline points="80.101,179.76 82.26,179.76 80.101,183.48 78,179.76 "/>
<rect x="79.86" y="170.28" width="0.479" height="9"/>
<text transform="matrix(1 0 0 1 2.441406e-04 162.481)" enable-background="new    "><tspan x="0" y="0" font-family="'ProductusBook'" font-size="7.98">PROVISIONING</tspan><tspan x="0" y="9.576" font-family="'ProductusBook'" font-size="7.98">START_BUNDLE set</tspan></text>
<text transform="matrix(1 0 0 1 82.3201 175.561)" font-family="'ProductusBook'" font-size="7.98">yes</text>
<text transform="matrix(1 0 0 1 114.1208 161.4009)" font-family="'ProductusBook'" font-size="7.98">no</text>
<text transform="matrix(1 0 0 1 223.4402 162.4204)" enable-background="new    "><tspan x="0" y="0" font-family="'ProductusBook'" font-size="7.98">PROVISIONING</tspan><tspan x="0" y="9.576" font-family="'ProductusBook'" font-size="7.98">REFERENCE set</tspan></text>
<text transform="matrix(1 0 0 1 195.3005 149.3403)" font-family="'ProductusBook'" font-size="7.98">yes</text>
<text transform="matrix(1 0 0 1 195.3005 176.4604)" font-family="'ProductusBook'" font-size="7.98">no</text>
<polyline fill="#F7F7F7" points="221.881,219.9 221.82,219.54 221.7,219.18 221.521,218.82 221.28,218.459 220.98,218.161 
	220.561,217.799 219.66,217.14 218.46,216.54 217.021,215.94 215.4,215.4 213.54,214.92 211.561,214.44 209.341,214.02 207,213.661 
	204.54,213.36 201.96,213.12 196.44,212.879 193.5,212.82 190.62,212.879 187.801,213 185.101,213.12 182.46,213.36 180,213.661 
	177.66,214.02 175.5,214.44 173.46,214.92 171.66,215.4 169.98,215.94 168.601,216.54 167.4,217.14 166.44,217.799 166.08,218.161 
	165.721,218.459 165.48,218.82 165.301,219.18 165.181,219.54 165.181,220.26 165.301,220.62 165.48,220.98 165.721,221.34 
	166.08,221.7 166.44,222 167.4,222.661 168.601,223.32 169.98,223.86 171.66,224.4 173.46,224.94 175.5,225.36 177.66,225.78 
	180,226.14 182.46,226.44 185.101,226.68 187.801,226.86 190.62,226.98 196.44,226.98 199.2,226.86 201.96,226.68 204.54,226.44 
	207,226.14 209.341,225.78 211.561,225.36 213.54,224.94 215.4,224.4 217.021,223.86 218.46,223.32 219.66,222.661 220.561,222 
	220.98,221.7 221.28,221.34 221.521,220.98 221.7,220.62 221.82,220.26 221.881,219.9 "/>
<polyline points="221.641,219.959 221.58,219.6 221.58,219.661 221.46,219.299 221.521,219.299 221.341,218.94 221.101,218.581 
	221.101,218.64 220.801,218.34 220.86,218.34 220.44,217.98 219.54,217.32 219.54,217.379 218.341,216.78 218.4,216.78 
	216.96,216.18 215.341,215.64 213.48,215.161 211.5,214.68 211.561,214.68 209.341,214.26 207,213.9 204.54,213.6 201.96,213.36 
	196.44,213.12 193.5,213.06 190.62,213.12 187.801,213.241 185.101,213.36 185.16,213.36 182.521,213.6 180.061,213.9 
	177.721,214.26 175.561,214.68 173.521,215.161 171.721,215.64 170.04,216.18 170.101,216.18 168.721,216.78 167.521,217.379 
	167.58,217.379 166.62,218.04 166.62,217.98 166.261,218.34 165.9,218.64 165.96,218.581 165.721,218.94 165.54,219.299 
	165.42,219.661 165.42,219.54 165.42,220.26 165.42,220.2 165.54,220.56 165.54,220.5 165.721,220.86 165.301,221.1 165.12,220.741 
	165.061,220.741 164.94,220.379 164.94,219.48 165.061,219.12 165.12,219.06 165.301,218.7 165.54,218.34 165.601,218.28 
	165.96,217.98 165.9,217.98 166.261,217.62 166.32,217.62 167.28,216.959 168.48,216.36 168.54,216.36 169.92,215.76 169.92,215.7 
	171.601,215.161 173.4,214.68 175.44,214.2 177.601,213.78 177.66,213.78 180,213.42 182.46,213.12 185.101,212.879 187.801,212.76 
	190.62,212.64 193.5,212.581 196.44,212.64 199.2,212.76 201.96,212.879 202.021,212.879 204.601,213.12 207.061,213.42 
	209.4,213.78 211.62,214.2 213.601,214.68 215.46,215.161 215.521,215.161 217.141,215.7 217.141,215.76 218.58,216.36 
	219.78,216.959 219.841,216.959 220.74,217.62 221.16,217.98 221.521,218.34 221.761,218.7 221.94,219.06 221.94,219.12 
	222.061,219.48 222.061,219.54 222.12,219.9 "/>
<polyline points="165.721,220.86 165.96,221.219 165.9,221.161 166.261,221.52 166.62,221.82 167.58,222.48 167.521,222.48 
	168.721,223.14 170.101,223.68 170.04,223.62 171.721,224.161 173.521,224.7 175.561,225.12 177.721,225.54 180.061,225.9 
	182.521,226.2 185.16,226.44 187.86,226.62 187.801,226.62 190.62,226.741 196.44,226.741 199.2,226.62 201.96,226.44 204.54,226.2 
	207,225.9 209.341,225.54 211.561,225.12 211.5,225.12 213.48,224.7 215.341,224.161 216.96,223.62 216.96,223.68 218.4,223.14 
	218.341,223.14 219.54,222.48 220.44,221.82 220.86,221.52 220.801,221.581 221.101,221.219 221.341,220.86 221.521,220.5 
	221.46,220.56 221.58,220.2 221.58,220.26 221.641,219.9 221.641,219.959 222.12,219.9 222.12,219.959 222.061,220.32 
	222.061,220.379 221.94,220.741 221.761,221.1 221.521,221.459 221.46,221.52 221.16,221.879 221.16,221.94 220.74,222.241 
	220.74,222.18 219.841,222.84 219.78,222.9 218.58,223.56 217.141,224.1 215.521,224.64 215.46,224.64 213.601,225.18 211.62,225.6 
	209.4,226.02 207.061,226.379 204.601,226.68 202.021,226.92 199.261,227.1 199.2,227.1 196.44,227.219 190.62,227.219 
	187.801,227.1 185.101,226.92 182.46,226.68 180,226.379 177.66,226.02 177.601,226.02 175.44,225.6 173.4,225.18 171.601,224.64 
	169.92,224.1 168.54,223.56 168.48,223.56 167.28,222.9 166.32,222.241 166.32,222.18 165.96,221.879 165.9,221.879 165.54,221.52 
	165.54,221.459 165.301,221.1 "/>
<text transform="matrix(1 0 0 1 177.0603 221.6411)" font-family="'ProductusBook'" font-size="7.98">operational</text>
<rect x="79.86" y="212.581" width="0.479" height="14.639"/>
<rect x="80.101" y="226.741" width="56.938" height="0.479"/>
<rect x="136.561" y="162.959" width="0.479" height="64.021"/>
<rect x="79.86" y="49.56" width="85.56" height="0.48"/>
<polyline fill="#F7F7F7" points="221.881,7.32 221.82,6.96 221.7,6.6 221.521,6.24 221.28,5.88 220.98,5.52 220.561,5.22 
	219.66,4.56 218.46,3.96 217.021,3.36 215.4,2.82 213.54,2.28 211.561,1.86 209.341,1.44 207,1.08 204.54,0.78 201.96,0.54 
	199.2,0.36 196.44,0.24 190.62,0.24 187.801,0.36 185.101,0.54 182.46,0.78 180,1.08 177.66,1.44 175.5,1.86 173.46,2.28 
	171.66,2.82 169.98,3.36 168.601,3.96 167.4,4.56 166.44,5.22 166.08,5.52 165.721,5.88 165.48,6.24 165.301,6.6 165.181,6.96 
	165.181,7.68 165.301,8.04 165.48,8.4 165.721,8.76 166.08,9.06 166.44,9.42 167.4,10.08 168.601,10.68 169.98,11.28 171.66,11.82 
	173.46,12.3 175.5,12.78 177.66,13.2 180,13.56 182.46,13.86 185.101,14.1 187.801,14.28 190.62,14.34 193.5,14.4 196.44,14.34 
	199.2,14.28 201.96,14.1 204.54,13.86 207,13.56 209.341,13.2 211.561,12.78 213.54,12.3 215.4,11.82 217.021,11.28 218.46,10.68 
	219.66,10.08 220.561,9.42 220.98,9.06 221.28,8.76 221.521,8.4 221.7,8.04 221.82,7.68 221.881,7.32 "/>
<polyline points="221.641,7.38 221.58,7.02 221.58,7.08 221.46,6.72 221.521,6.72 221.341,6.36 221.101,6 221.101,6.06 220.801,5.7 
	220.86,5.76 220.44,5.46 220.44,5.4 219.54,4.74 219.54,4.8 218.341,4.2 218.4,4.2 216.96,3.6 215.341,3.06 213.48,2.52 211.5,2.1 
	211.561,2.1 209.341,1.68 207,1.32 204.54,1.02 201.96,0.78 199.2,0.6 196.44,0.48 190.62,0.48 187.801,0.6 187.86,0.6 185.16,0.78 
	182.521,1.02 180.061,1.32 177.721,1.68 175.561,2.1 173.521,2.52 171.721,3.06 170.04,3.6 170.101,3.6 168.721,4.2 167.521,4.8 
	167.58,4.8 166.62,5.46 166.62,5.4 166.261,5.7 165.9,6.06 165.96,6 165.721,6.36 165.54,6.72 165.42,7.08 165.42,6.96 165.42,7.68 
	165.42,7.62 165.54,7.98 165.54,7.92 165.721,8.28 165.301,8.52 165.12,8.16 165.061,8.16 164.94,7.8 164.94,6.9 165.061,6.54 
	165.12,6.48 165.301,6.12 165.54,5.76 165.54,5.7 165.9,5.34 165.96,5.34 166.32,5.04 167.28,4.38 168.48,3.78 168.54,3.78 
	169.92,3.18 169.92,3.12 171.601,2.58 173.4,2.04 175.44,1.62 177.601,1.2 177.66,1.2 180,0.84 182.46,0.54 185.101,0.3 
	187.801,0.12 190.62,0 196.44,0 199.2,0.12 199.261,0.12 202.021,0.3 204.601,0.54 207.061,0.84 209.4,1.2 211.62,1.62 
	213.601,2.04 215.46,2.58 215.521,2.58 217.141,3.12 217.141,3.18 218.58,3.78 219.78,4.38 219.841,4.38 220.74,5.04 221.16,5.34 
	221.16,5.4 221.46,5.76 221.521,5.76 221.761,6.12 221.94,6.48 221.94,6.54 222.061,6.9 222.061,6.96 222.12,7.32 "/>
<polyline points="165.721,8.28 165.96,8.64 165.9,8.58 166.261,8.88 166.62,9.24 167.58,9.9 167.521,9.9 168.721,10.5 170.101,11.1 
	170.04,11.04 171.721,11.58 173.521,12.06 175.561,12.54 177.721,12.96 180.061,13.32 182.521,13.62 185.16,13.86 187.86,14.04 
	187.801,14.04 190.62,14.1 193.5,14.16 196.44,14.1 199.2,14.04 201.96,13.86 204.54,13.62 207,13.32 209.341,12.96 211.561,12.54 
	211.5,12.54 213.48,12.06 215.341,11.58 216.96,11.04 216.96,11.1 218.4,10.5 218.341,10.5 219.54,9.9 220.44,9.24 220.86,8.88 
	220.801,8.88 221.101,8.58 221.101,8.64 221.341,8.28 221.521,7.92 221.46,7.98 221.58,7.62 221.58,7.68 221.641,7.32 221.641,7.38 
	222.12,7.32 222.12,7.38 222.061,7.74 222.061,7.8 221.94,8.16 221.761,8.52 221.521,8.88 221.16,9.24 220.74,9.6 219.841,10.26 
	219.78,10.32 218.58,10.92 217.141,11.52 215.521,12.06 215.46,12.06 213.601,12.54 211.62,13.02 209.4,13.44 207.061,13.8 
	204.601,14.1 202.021,14.34 199.261,14.52 199.2,14.52 196.44,14.58 193.5,14.64 190.62,14.58 187.801,14.52 185.101,14.34 
	182.46,14.1 180,13.8 177.66,13.44 177.601,13.44 175.44,13.02 173.4,12.54 171.601,12.06 169.92,11.52 168.54,10.92 168.48,10.92 
	167.28,10.32 166.32,9.66 166.261,9.6 165.9,9.24 165.96,9.24 165.601,8.94 165.54,8.88 165.301,8.52 "/>
<text transform="matrix(1 0 0 1 171.6599 9.061)" font-family="'ProductusBook'" font-size="7.98">re-provisioning</text>
<polyline points="193.5,37.56 196.561,37.56 196.08,38.34 193.92,42.06 193.5,42.84 193.021,42 190.92,38.28 190.5,37.56 
	191.4,37.56 191.82,37.8 193.92,41.52 193.021,42 193.021,41.52 195.181,37.8 196.08,38.34 195.66,38.58 193.5,38.58 "/>
<rect x="191.4" y="37.56" width="2.1" height="1.02"/>
<polyline points="193.5,38.04 195.66,38.04 193.5,41.76 191.4,38.04 "/>
<rect x="193.261" y="14.4" width="0.479" height="23.16"/>
<polyline points="227.04,7.32 227.04,10.26 226.32,9.84 222.601,7.74 221.82,7.26 222.54,6.84 226.261,4.68 227.04,4.2 227.04,5.16 
	226.801,5.58 223.08,7.74 222.54,6.84 223.08,6.84 226.801,8.94 226.32,9.84 226.021,9.42 226.021,7.32 "/>
<rect x="226.021" y="5.16" width="1.02" height="2.16"/>
<polyline points="226.561,7.32 226.561,9.42 222.841,7.32 226.561,5.16 "/>
<rect x="221.641" y="219.661" width="4.199" height="0.479"/>
<rect x="231.96" y="219.661" width="8.102" height="0.479"/>
<rect x="246.181" y="219.661" width="8.1" height="0.479"/>
<rect x="260.341" y="219.661" width="8.101" height="0.479"/>
<rect x="274.561" y="219.661" width="4.26" height="0.479"/>
<rect x="278.341" y="215.94" width="0.479" height="3.96"/>
<rect x="278.341" y="201.719" width="0.479" height="8.101"/>
<rect x="278.341" y="187.56" width="0.479" height="8.101"/>
<rect x="278.341" y="173.4" width="0.479" height="8.04"/>
<rect x="278.341" y="159.18" width="0.479" height="8.1"/>
<rect x="278.341" y="145.02" width="0.479" height="8.1"/>
<rect x="278.341" y="130.86" width="0.479" height="8.04"/>
<rect x="278.341" y="116.64" width="0.479" height="8.101"/>
<rect x="278.341" y="102.48" width="0.479" height="8.1"/>
<rect x="278.341" y="88.32" width="0.479" height="8.04"/>
<rect x="278.341" y="74.1" width="0.479" height="8.1"/>
<rect x="278.341" y="59.94" width="0.479" height="8.1"/>
<rect x="278.341" y="45.78" width="0.479" height="8.04"/>
<rect x="278.341" y="31.56" width="0.479" height="8.1"/>
<rect x="278.341" y="17.4" width="0.479" height="8.1"/>
<rect x="278.341" y="7.08" width="0.479" height="4.2"/>
<rect x="274.561" y="7.08" width="4.02" height="0.48"/>
<rect x="268.92" y="7.08" width="0.24" height="0.48"/>
<rect x="261.841" y="7.08" width="7.079" height="0.48"/>
<rect x="256.2" y="7.08" width="0.24" height="0.48"/>
<rect x="249.181" y="7.08" width="7.02" height="0.48"/>
<rect x="243.54" y="7.08" width="0.24" height="0.48"/>
<rect x="236.46" y="7.08" width="7.08" height="0.48"/>
<rect x="230.82" y="7.08" width="0.24" height="0.48"/>
<rect x="226.801" y="7.08" width="4.021" height="0.48"/>
</svg>
