<?xml version="1.0" encoding="utf-8"?>
<!-- Generator: Adobe Illustrator 16.0.1, SVG Export Plug-In . SVG Version: 6.00 Build 0)  -->
<!DOCTYPE svg PUBLIC "-//W3C//DTD SVG 1.1//EN" "http://www.w3.org/Graphics/SVG/1.1/DTD/svg11.dtd">
<svg version="1.1" id="Layer_1" xmlns="http://www.w3.org/2000/svg" xmlns:xlink="http://www.w3.org/1999/xlink" x="0px" y="0px"
	 width="312.768px" height="200.525px" viewBox="0 0 312.768 200.525" enable-background="new 0 0 312.768 200.525"
	 xml:space="preserve">
<polyline fill="#E6E6E6" points="14.46,141.72 297.899,141.72 297.899,184.26 227.04,184.26 227.04,162.96 14.46,162.96 "/>
<rect x="227.04" y="0" fill="#E6E6E6" width="70.859" height="43.2"/>
<rect x="236.521" y="79.68" width="54.301" height="26.58"/>
<rect x="236.521" y="79.44" width="54.541" height="0.48"/>
<rect x="290.58" y="79.68" width="0.479" height="26.82"/>
<rect x="236.28" y="106.021" width="54.539" height="0.479"/>
<rect x="236.28" y="79.44" width="0.479" height="26.82"/>
<rect x="234.12" y="77.94" fill="#FFFFFF" width="54.359" height="26.58"/>
<rect x="234.12" y="77.7" width="54.602" height="0.479"/>
<rect x="288.24" y="77.94" width="0.479" height="26.82"/>
<rect x="233.88" y="104.281" width="54.602" height="0.479"/>
<rect x="233.88" y="77.7" width="0.48" height="26.819"/>
<text transform="matrix(1 0 0 1 236.5205 85.0208)" font-family="'ProductusOSGiBookc'" font-size="7.98">&lt;&lt;interface&gt;&gt;</text>
<text transform="matrix(1 0 0 1 236.5205 92.5413)" enable-background="new    "><tspan x="0" y="0" font-family="'ProductusSemibold'" font-size="7.98">Provisioning</tspan><tspan x="0" y="9.576" font-family="'ProductusSemibold'" font-size="7.98">Service</tspan></text>
<rect x="236.521" y="8.82" width="54.301" height="26.58"/>
<rect x="236.521" y="8.58" width="54.541" height="0.479"/>
<rect x="290.58" y="8.82" width="0.479" height="26.82"/>
<rect x="236.28" y="35.16" width="54.539" height="0.479"/>
<rect x="236.28" y="8.58" width="0.479" height="26.819"/>
<rect x="234.12" y="7.08" fill="#FFFFFF" width="54.359" height="26.58"/>
<rect x="234.12" y="6.84" width="54.602" height="0.479"/>
<rect x="288.24" y="7.08" width="0.479" height="26.819"/>
<rect x="233.88" y="33.42" width="54.602" height="0.479"/>
<rect x="233.88" y="6.84" width="0.48" height="26.82"/>
<text transform="matrix(1 0 0 1 236.5205 14.1604)" enable-background="new    "><tspan x="0" y="0" font-family="'ProductusBook'" font-size="7.98">Management</tspan><tspan x="0" y="9.576" font-family="'ProductusBook'" font-size="7.98">Agent impl.</tspan></text>
<rect x="236.521" y="150.6" width="54.301" height="26.58"/>
<rect x="236.521" y="150.36" width="54.541" height="0.48"/>
<rect x="290.58" y="150.6" width="0.479" height="26.82"/>
<rect x="236.28" y="176.94" width="54.539" height="0.48"/>
<rect x="236.28" y="150.36" width="0.479" height="26.82"/>
<rect x="234.12" y="148.8" fill="#FFFFFF" width="54.359" height="26.58"/>
<rect x="234.12" y="148.561" width="54.602" height="0.479"/>
<rect x="288.24" y="148.8" width="0.479" height="26.82"/>
<rect x="233.88" y="175.14" width="54.602" height="0.48"/>
<rect x="233.88" y="148.561" width="0.48" height="26.82"/>
<text transform="matrix(1 0 0 1 236.5205 155.9407)" enable-background="new    "><tspan x="0" y="0" font-family="'ProductusBook'" font-size="7.98">Provisioning</tspan><tspan x="0" y="9.576" font-family="'ProductusBook'" font-size="7.98">Service impl.</tspan></text>
<rect x="94.74" y="79.68" width="54.36" height="26.58"/>
<rect x="94.74" y="79.44" width="54.6" height="0.48"/>
<rect x="148.86" y="79.68" width="0.48" height="26.82"/>
<rect x="94.5" y="106.021" width="54.6" height="0.479"/>
<rect x="94.5" y="79.44" width="0.48" height="26.82"/>
<rect x="92.4" y="77.94" fill="#FFFFFF" width="54.3" height="26.58"/>
<rect x="92.4" y="77.7" width="54.54" height="0.479"/>
<rect x="146.46" y="77.94" width="0.48" height="26.82"/>
<rect x="92.16" y="104.281" width="54.54" height="0.479"/>
<rect x="92.16" y="77.7" width="0.48" height="26.819"/>
<text transform="matrix(1 0 0 1 94.7402 85.0208)" font-family="'ProductusBook'" font-size="7.98">java.net.URL</text>
<rect x="23.88" y="150.6" width="54.36" height="26.58"/>
<rect x="23.88" y="150.36" width="54.6" height="0.48"/>
<rect x="78" y="150.6" width="0.48" height="26.82"/>
<rect x="23.64" y="176.94" width="54.6" height="0.48"/>
<rect x="23.64" y="150.36" width="0.48" height="26.82"/>
<rect x="21.54" y="148.8" fill="#FFFFFF" width="54.3" height="26.58"/>
<rect x="21.54" y="148.561" width="54.54" height="0.479"/>
<rect x="75.6" y="148.8" width="0.48" height="26.82"/>
<rect x="21.3" y="175.14" width="54.54" height="0.48"/>
<rect x="21.3" y="148.561" width="0.48" height="26.82"/>
<text transform="matrix(1 0 0 1 23.8804 155.9407)" font-family="'ProductusBook'" font-size="7.98">RSH URL handler</text>
<rect x="262.26" y="35.16" width="0.48" height="43.02"/>
<polyline points="262.5,111.48 259.44,111.48 259.92,110.7 262.08,106.98 262.5,106.2 262.979,107.04 265.08,110.76 265.5,111.48 
	264.601,111.48 264.181,111.24 262.08,107.521 262.979,107.04 262.979,107.521 260.819,111.24 259.92,110.7 260.34,110.46 
	262.5,110.46 "/>
<rect x="262.5" y="110.46" width="2.101" height="1.02"/>
<polyline points="262.5,111 260.34,111 262.5,107.281 264.601,111 "/>
<rect x="262.26" y="111.24" width="0.48" height="37.8"/>
<rect x="94.74" y="150.6" width="54.36" height="26.58"/>
<rect x="94.74" y="150.36" width="54.6" height="0.48"/>
<rect x="148.86" y="150.6" width="0.48" height="26.82"/>
<rect x="94.5" y="176.94" width="54.6" height="0.48"/>
<rect x="94.5" y="150.36" width="0.48" height="26.82"/>
<rect x="92.4" y="148.8" fill="#FFFFFF" width="54.3" height="26.58"/>
<rect x="92.4" y="148.561" width="54.54" height="0.479"/>
<rect x="146.46" y="148.8" width="0.48" height="26.82"/>
<rect x="92.16" y="175.14" width="54.54" height="0.48"/>
<rect x="92.16" y="148.561" width="0.48" height="26.82"/>
<text transform="matrix(1 0 0 1 94.7402 155.9407)" enable-background="new    "><tspan x="0" y="0" font-family="'ProductusBook'" font-size="7.98">HTTP/HTTPS</tspan><tspan x="0" y="9.576" font-family="'ProductusBook'" font-size="7.98">URL handler</tspan></text>
<rect x="165.601" y="150.6" width="54.359" height="26.58"/>
<rect x="165.601" y="150.36" width="54.601" height="0.48"/>
<rect x="219.722" y="150.6" width="0.479" height="26.82"/>
<rect x="165.36" y="176.94" width="54.6" height="0.48"/>
<rect x="165.36" y="150.36" width="0.479" height="26.82"/>
<rect x="163.26" y="148.8" fill="#FFFFFF" width="54.302" height="26.58"/>
<rect x="163.26" y="148.561" width="54.54" height="0.479"/>
<rect x="217.319" y="148.8" width="0.479" height="26.82"/>
<rect x="163.021" y="175.14" width="54.541" height="0.48"/>
<rect x="163.021" y="148.561" width="0.479" height="26.82"/>
<text transform="matrix(1 0 0 1 165.6006 155.9407)" font-family="'ProductusBook'" font-size="7.98">URL FILE handler</text>
<rect x="42.54" y="148.561" width="7.56" height="0.479"/>
<rect x="49.62" y="120.24" width="0.48" height="28.56"/>
<rect x="49.86" y="120.24" width="71.1" height="0.479"/>
<rect x="120.48" y="106.021" width="0.48" height="14.46"/>
<rect x="120.48" y="106.021" width="0.48" height="43.021"/>
<polyline points="120.72,111.48 117.78,111.48 118.2,110.76 120.3,107.04 120.78,106.26 121.2,106.98 123.36,110.7 123.84,111.48 
	122.88,111.48 122.46,111.24 120.3,107.521 121.2,106.98 121.2,107.521 119.1,111.24 118.2,110.76 118.62,110.46 120.72,110.46 "/>
<rect x="120.72" y="110.46" width="2.16" height="1.02"/>
<polyline points="120.72,111 118.62,111 120.72,107.281 122.88,111 "/>
<rect x="191.34" y="120.24" width="0.479" height="28.8"/>
<rect x="120.48" y="120.24" width="71.1" height="0.479"/>
<rect x="120.48" y="111.24" width="0.48" height="9.239"/>
<rect x="290.58" y="162.72" width="4.26" height="0.48"/>
<rect x="308.101" y="162.72" width="4.199" height="0.48"/>
<rect x="311.82" y="159" width="0.479" height="3.96"/>
<rect x="311.82" y="144.781" width="0.479" height="8.1"/>
<rect x="311.82" y="130.62" width="0.479" height="8.1"/>
<rect x="311.82" y="116.46" width="0.479" height="8.04"/>
<rect x="311.82" y="102.24" width="0.479" height="8.1"/>
<rect x="311.82" y="88.08" width="0.479" height="8.1"/>
<rect x="311.82" y="73.92" width="0.479" height="8.04"/>
<rect x="311.82" y="59.7" width="0.479" height="8.1"/>
<rect x="311.82" y="45.54" width="0.479" height="8.04"/>
<rect x="311.82" y="31.32" width="0.479" height="8.101"/>
<rect x="311.82" y="21" width="0.479" height="4.26"/>
<rect x="308.101" y="21" width="3.96" height="0.479"/>
<rect x="290.58" y="21" width="4.26" height="0.479"/>
<text transform="matrix(-6.123234e-17 1 -1 -6.123234e-17 306.1221 70.8606)" font-family="'ProductusBook'" font-size="7.98">is installed by</text>
<text transform="matrix(-6.123234e-17 1 -1 -6.123234e-17 266.2822 51.5413)" font-family="'ProductusBook'" font-size="7.98">gets</text>
<polyline points="290.819,92.1 276.66,106.26 290.819,106.26 "/>
<rect x="290.58" y="95.88" width="0.479" height="0.24"/>
<polyline points="290.58,95.88 291.062,95.88 291.062,91.5 290.642,91.92 290.58,92.1 "/>
<polyline points="288.36,94.92 288.181,95.1 287.819,94.74 288,94.561 "/>
<polyline points="291,92.281 290.642,91.92 288,94.561 288.36,94.92 "/>
<polyline points="279.479,103.8 279.66,103.62 279.3,103.26 279.12,103.44 "/>
<polyline points="279.479,103.8 279.12,103.44 276.062,106.5 276.66,106.5 276.84,106.44 "/>
<rect x="276.66" y="106.021" width="3.96" height="0.479"/>
<rect x="286.86" y="106.021" width="4.199" height="0.479"/>
<rect x="290.58" y="102.3" width="0.479" height="3.96"/>
<rect x="262.26" y="176.94" width="0.48" height="4.2"/>
<rect x="262.26" y="187.32" width="0.48" height="4.261"/>
<rect x="258.479" y="191.1" width="4.021" height="0.48"/>
<rect x="252.3" y="191.1" width="0.24" height="0.48"/>
<rect x="244.681" y="191.1" width="7.619" height="0.48"/>
<rect x="238.5" y="191.1" width="0.24" height="0.48"/>
<rect x="230.88" y="191.1" width="7.62" height="0.48"/>
<rect x="217.08" y="191.1" width="7.92" height="0.48"/>
<rect x="203.28" y="191.1" width="7.92" height="0.48"/>
<rect x="189.54" y="191.1" width="7.859" height="0.48"/>
<rect x="175.74" y="191.1" width="7.86" height="0.48"/>
<rect x="161.94" y="191.1" width="7.858" height="0.48"/>
<rect x="148.14" y="191.1" width="7.86" height="0.48"/>
<rect x="134.34" y="191.1" width="7.86" height="0.48"/>
<rect x="120.54" y="191.1" width="7.86" height="0.48"/>
<rect x="106.74" y="191.1" width="7.86" height="0.48"/>
<rect x="92.94" y="191.1" width="7.86" height="0.48"/>
<rect x="79.14" y="191.1" width="7.86" height="0.48"/>
<rect x="65.34" y="191.1" width="7.92" height="0.48"/>
<rect x="51.54" y="191.1" width="7.92" height="0.48"/>
<rect x="37.8" y="191.1" width="7.86" height="0.48"/>
<rect x="24" y="191.1" width="7.86" height="0.48"/>
<rect x="10.2" y="191.1" width="7.86" height="0.48"/>
<rect y="191.1" width="4.26" height="0.48"/>
<rect y="187.32" width="0.48" height="4.021"/>
<rect y="173.16" width="0.48" height="8.1"/>
<rect y="159" width="0.48" height="8.04"/>
<rect y="144.781" width="0.48" height="8.1"/>
<rect y="130.62" width="0.48" height="8.04"/>
<rect y="116.4" width="0.48" height="8.101"/>
<rect y="102.24" width="0.48" height="8.1"/>
<rect y="88.08" width="0.48" height="8.04"/>
<rect y="73.86" width="0.48" height="8.101"/>
<rect y="59.7" width="0.48" height="8.04"/>
<rect y="49.32" width="0.48" height="4.261"/>
<rect x="0.24" y="49.32" width="4.02" height="0.48"/>
<rect x="9.96" y="49.32" width="0.24" height="0.48"/>
<rect x="10.2" y="49.32" width="7.38" height="0.48"/>
<rect x="23.34" y="49.32" width="0.24" height="0.48"/>
<rect x="23.58" y="49.32" width="7.38" height="0.48"/>
<rect x="36.66" y="49.32" width="0.24" height="0.48"/>
<rect x="36.9" y="49.32" width="7.38" height="0.48"/>
<rect x="50.04" y="49.32" width="0.24" height="0.48"/>
<rect x="50.28" y="49.32" width="7.38" height="0.48"/>
<rect x="63.36" y="49.32" width="0.24" height="0.48"/>
<rect x="63.6" y="49.32" width="7.38" height="0.48"/>
<rect x="76.68" y="49.32" width="0.24" height="0.48"/>
<rect x="76.92" y="49.32" width="7.44" height="0.48"/>
<rect x="90.06" y="49.32" width="0.24" height="0.48"/>
<rect x="90.3" y="49.32" width="7.38" height="0.48"/>
<rect x="103.38" y="49.32" width="0.24" height="0.48"/>
<rect x="103.62" y="49.32" width="7.38" height="0.48"/>
<rect x="116.76" y="49.32" width="4.2" height="0.48"/>
<rect x="120.48" y="49.561" width="0.48" height="4.021"/>
<rect x="120.48" y="59.7" width="0.48" height="0.239"/>
<rect x="120.48" y="59.94" width="0.48" height="7.86"/>
<rect x="120.48" y="73.92" width="0.48" height="0.24"/>
<rect x="120.48" y="74.16" width="0.48" height="4.02"/>
<text transform="matrix(1 0 0 1 120.7202 198.1799)" font-family="'ProductusBook'" font-size="7.98">uses protocol defined by setup information</text>
</svg>
