<?xml version="1.0" encoding="utf-8"?>
<!-- Generator: Adobe Illustrator 16.0.1, SVG Export Plug-In . SVG Version: 6.00 Build 0)  -->
<!DOCTYPE svg PUBLIC "-//W3C//DTD SVG 1.1//EN" "http://www.w3.org/Graphics/SVG/1.1/DTD/svg11.dtd">
<svg version="1.1" id="Layer_1" xmlns="http://www.w3.org/2000/svg" xmlns:xlink="http://www.w3.org/1999/xlink" x="0px" y="0px"
	 width="280.238px" height="70.367px" viewBox="0 0 280.238 70.367" enable-background="new 0 0 280.238 70.367"
	 xml:space="preserve">
<rect x="55.2" y="11.927" width="3" height="1.5"/>
<rect x="55.2" y="13.427" width="3" height="44.04"/>
<rect x="225.24" y="11.927" width="3" height="1.5"/>
<rect x="225.24" y="13.427" width="3" height="44.04"/>
<text transform="matrix(1 0 0 1 198.3083 6.6475)" font-family="'ProductusBook'" font-size="7.98">Remote Manager</text>
<text transform="matrix(1 0 0 1 34.0798 6.6475)" font-family="'ProductusBook'" font-size="7.98">OSGi framework</text>
<polyline points="221.58,27.587 221.58,24.647 222.3,25.067 226.02,27.167 226.8,27.647 226.08,28.067 222.36,30.228 221.58,30.708 
	221.58,29.748 221.82,29.328 225.54,27.167 226.08,28.067 225.54,28.067 221.82,25.967 222.3,25.067 222.6,25.487 222.6,27.587 "/>
<rect x="221.58" y="27.587" width="1.021" height="2.16"/>
<polyline points="222.06,27.587 222.06,25.487 225.78,27.587 222.06,29.748 "/>
<rect x="56.46" y="27.347" width="0.24" height="0.48"/>
<rect x="56.7" y="27.347" width="165.12" height="0.48"/>
<text transform="matrix(1 0 0 1 93.3596 24.5273)" font-family="'ProductusBook'" font-size="7.98">request(spid,clientfg)</text>
<polyline points="61.86,41.748 61.86,44.807 61.08,44.328 57.36,42.167 56.58,41.748 57.42,41.268 61.14,39.167 61.86,38.748 
	61.86,39.646 61.62,40.066 57.9,42.167 57.42,41.268 57.9,41.268 61.62,43.427 61.08,44.328 60.84,43.907 60.84,41.748 "/>
<rect x="60.84" y="39.646" width="1.021" height="2.101"/>
<polyline points="61.38,41.748 61.38,43.907 57.66,41.748 61.38,39.646 "/>
<rect x="61.62" y="41.507" width="165.36" height="0.479"/>
<text transform="matrix(1 0 0 1 85.3796 48.5879)" font-family="'ProductusBook'" font-size="7.98">response(spid,mac,serverfg,encrypted-data)</text>
<polyline points="269.04,30.047 268.98,29.748 268.98,29.807 268.92,29.627 268.98,29.688 268.8,29.447 268.56,29.208 
	268.62,29.267 267.96,28.907 268.02,28.907 267.18,28.547 266.1,28.248 264.9,28.007 264.96,28.007 263.64,27.887 262.2,27.828 
	260.76,27.887 260.82,27.887 259.5,28.007 258.3,28.248 257.22,28.547 257.28,28.547 256.44,28.907 255.78,29.267 255.84,29.208 
	255.6,29.447 255.42,29.688 255.48,29.627 255.36,29.807 255.36,29.688 255.36,30.228 255.36,30.107 255.48,30.288 255.42,30.288 
	255.6,30.527 255.6,30.467 255.84,30.708 255.78,30.708 256.44,31.127 256.44,31.067 257.28,31.367 257.22,31.367 258.3,31.667 
	259.5,31.907 260.82,32.027 260.76,32.027 262.2,32.087 263.64,32.027 264.96,31.907 264.9,31.907 266.1,31.667 267.18,31.367 
	268.02,31.067 267.96,31.127 268.62,30.708 268.56,30.708 268.8,30.467 268.8,30.527 268.98,30.288 268.92,30.347 268.98,30.167 
	269.04,29.927 269.52,30.047 269.46,30.288 269.46,30.347 269.4,30.527 269.34,30.587 269.16,30.828 268.86,31.127 268.2,31.547 
	267.36,31.847 267.3,31.847 266.22,32.147 265.02,32.387 263.7,32.507 263.64,32.507 262.2,32.567 260.76,32.507 259.44,32.387 
	259.38,32.387 258.18,32.147 257.1,31.847 256.26,31.547 256.2,31.547 255.54,31.127 255.24,30.828 255.06,30.587 255.06,30.527 
	254.94,30.347 254.88,30.228 254.88,29.688 254.94,29.567 255.06,29.387 255.24,29.147 255.24,29.087 255.48,28.847 255.54,28.847 
	256.2,28.487 256.26,28.487 257.1,28.127 257.1,28.067 258.18,27.767 259.38,27.527 259.44,27.527 260.76,27.407 262.2,27.347 
	263.64,27.407 263.7,27.407 265.02,27.527 266.22,27.767 267.3,28.067 267.36,28.127 268.2,28.487 268.86,28.847 268.92,28.847 
	269.16,29.087 269.16,29.147 269.34,29.387 269.4,29.447 269.46,29.627 269.52,29.927 "/>
<polyline points="269.04,29.927 269.04,30.047 269.52,29.927 269.52,30.047 "/>
<rect x="254.88" y="29.748" width="0.48" height="9.9"/>
<rect x="269.04" y="29.748" width="0.479" height="9.9"/>
<polyline points="269.04,39.467 268.92,38.986 268.98,39.107 268.8,38.867 268.86,38.867 268.62,38.688 268.62,38.748 
	267.96,38.328 268.02,38.328 267.18,37.967 266.1,37.667 266.16,37.667 264.96,37.486 263.64,37.307 260.76,37.307 260.82,37.307 
	259.5,37.486 258.3,37.667 257.22,37.967 257.28,37.967 256.44,38.328 255.78,38.748 255.84,38.688 255.6,38.867 255.42,39.107 
	255.48,39.047 255.36,39.288 255.36,39.167 255.36,39.646 255.36,39.527 255.48,39.768 255.42,39.768 255.6,40.007 255.6,39.947 
	255.84,40.127 255.78,40.127 256.44,40.547 257.28,40.907 257.22,40.848 258.3,41.146 259.5,41.328 260.82,41.507 260.76,41.507 
	263.64,41.507 264.96,41.328 266.16,41.146 266.1,41.146 267.18,40.848 267.18,40.907 268.02,40.547 267.96,40.547 268.62,40.127 
	268.86,39.947 268.8,40.007 268.98,39.768 268.92,39.828 269.04,39.348 269.52,39.467 269.4,39.947 269.34,40.066 269.16,40.307 
	268.92,40.486 268.86,40.547 268.2,40.967 267.36,41.328 267.3,41.328 266.22,41.627 265.02,41.807 263.7,41.986 260.76,41.986 
	259.44,41.807 258.24,41.627 258.18,41.627 257.1,41.328 256.26,40.967 256.2,40.967 255.54,40.547 255.54,40.486 255.3,40.307 
	255.24,40.307 255.06,40.066 255.06,40.007 254.88,39.646 254.88,39.167 255.06,38.807 255.24,38.566 255.3,38.507 255.54,38.328 
	256.2,37.907 256.26,37.907 257.1,37.547 257.1,37.486 258.18,37.188 258.24,37.188 259.44,37.007 260.76,36.828 263.7,36.828 
	265.02,37.007 266.22,37.188 267.3,37.486 267.36,37.547 268.2,37.907 268.86,38.328 268.92,38.328 269.16,38.507 269.16,38.566 
	269.34,38.807 269.4,38.867 269.52,39.348 "/>
<polyline points="269.04,39.348 269.04,39.467 269.52,39.348 269.52,39.467 "/>
<polyline points="231.96,34.667 231.96,37.729 231.18,37.248 227.46,35.087 226.68,34.667 227.52,34.188 231.24,32.087 
	231.96,31.667 231.96,32.567 231.72,32.987 228,35.087 227.52,34.188 228,34.188 231.72,36.348 231.18,37.248 230.94,36.828 
	230.94,34.667 "/>
<rect x="230.94" y="32.567" width="1.02" height="2.1"/>
<polyline points="231.48,34.667 231.48,36.828 227.76,34.667 231.48,32.567 "/>
<polyline points="249.96,34.667 249.96,31.728 250.68,32.147 254.34,34.248 255.12,34.728 254.4,35.147 250.74,37.307 
	249.96,37.788 249.96,36.828 250.2,36.407 253.86,34.248 254.4,35.147 253.86,35.147 250.2,33.047 250.68,32.147 250.98,32.567 
	250.98,34.667 "/>
<rect x="249.96" y="34.667" width="1.021" height="2.16"/>
<polyline points="250.44,34.667 250.44,32.567 254.1,34.667 250.44,36.828 "/>
<rect x="231.72" y="34.427" width="18.42" height="0.48"/>
<text transform="matrix(1 0 0 1 239.9402 48.6475)" font-family="'ProductusBook'" font-size="7.98">Shared Secret</text>
<polyline points="28.08,15.767 28.08,15.527 28.14,15.647 28.02,15.407 28.02,15.467 27.6,15.047 27.66,15.107 27,14.688 
	27.06,14.688 26.22,14.328 25.14,14.087 23.94,13.847 24,13.847 22.68,13.728 21.24,13.667 19.8,13.728 19.86,13.728 18.54,13.847 
	17.34,14.087 16.32,14.328 16.38,14.328 15.48,14.688 14.82,15.107 14.88,15.047 14.46,15.467 14.52,15.347 14.4,15.828 
	14.4,15.708 14.52,16.188 14.46,16.127 14.64,16.367 14.64,16.307 14.88,16.547 14.82,16.547 15.48,16.907 16.38,17.267 
	16.32,17.208 17.34,17.507 18.54,17.748 19.86,17.867 19.8,17.867 21.24,17.927 22.68,17.867 24,17.748 23.94,17.748 25.14,17.507 
	26.22,17.208 26.22,17.267 27.06,16.907 27,16.907 27.66,16.547 27.6,16.547 27.84,16.307 27.84,16.367 28.02,16.127 28.14,15.887 
	28.08,16.007 28.08,15.767 28.56,15.767 28.56,16.127 28.44,16.367 28.38,16.427 28.2,16.667 27.96,16.907 27.9,16.967 
	27.24,17.328 26.4,17.688 26.34,17.688 25.26,17.987 24.06,18.228 22.74,18.347 22.68,18.347 21.24,18.407 19.8,18.347 
	18.48,18.228 18.42,18.228 17.22,17.987 16.2,17.688 15.3,17.328 15.24,17.328 14.58,16.967 14.52,16.907 14.28,16.667 14.1,16.427 
	14.04,16.307 13.92,15.828 13.92,15.708 14.04,15.228 14.1,15.107 14.28,14.927 14.52,14.688 14.58,14.688 15.24,14.267 
	15.3,14.267 16.2,13.907 16.2,13.847 17.22,13.607 18.42,13.367 18.48,13.367 19.8,13.248 21.24,13.188 22.68,13.248 22.74,13.248 
	24.06,13.367 25.26,13.607 26.34,13.847 26.4,13.907 27.24,14.267 27.9,14.688 27.96,14.688 28.2,14.927 28.38,15.107 28.44,15.167 
	28.56,15.407 28.56,15.767 "/>
<line fill="none" x1="28.08" y1="15.767" x2="28.56" y2="15.767"/>
<rect x="13.92" y="15.527" width="0.48" height="9.96"/>
<rect x="28.08" y="15.527" width="0.48" height="9.96"/>
<polyline points="28.08,25.248 28.08,25.007 28.14,25.127 28.02,24.887 28.02,24.947 27.84,24.708 27.6,24.467 27.66,24.527 
	27,24.167 27.06,24.167 26.22,23.807 25.14,23.507 23.94,23.267 24,23.267 22.68,23.147 21.24,23.087 19.8,23.147 19.86,23.147 
	18.54,23.267 17.34,23.507 16.32,23.807 16.38,23.807 15.48,24.167 14.82,24.527 14.88,24.467 14.64,24.708 14.46,24.947 
	14.52,24.828 14.4,25.307 14.4,25.188 14.52,25.667 14.46,25.547 14.88,25.967 14.82,25.967 15.48,26.387 16.38,26.748 
	16.32,26.688 17.34,26.927 18.54,27.167 19.86,27.288 19.8,27.288 21.24,27.347 22.68,27.288 24,27.167 23.94,27.167 25.14,26.927 
	26.22,26.688 26.22,26.748 27.06,26.387 27,26.387 27.66,25.967 27.6,25.967 28.02,25.547 28.02,25.607 28.14,25.367 28.08,25.487 
	28.08,25.248 28.56,25.248 28.56,25.607 28.44,25.847 28.38,25.907 27.9,26.387 27.24,26.807 26.4,27.167 26.34,27.167 
	25.26,27.407 24.06,27.647 22.74,27.767 22.68,27.767 21.24,27.828 19.8,27.767 18.48,27.647 18.42,27.647 17.22,27.407 
	16.2,27.167 15.3,26.807 15.24,26.807 14.58,26.387 14.1,25.907 14.04,25.788 13.92,25.307 13.92,25.188 14.04,24.708 14.1,24.647 
	14.28,24.407 14.28,24.347 14.52,24.107 14.58,24.107 15.24,23.748 15.3,23.748 16.2,23.387 16.2,23.328 17.22,23.027 18.42,22.788 
	18.48,22.788 19.8,22.667 21.24,22.607 22.68,22.667 22.74,22.667 24.06,22.788 25.26,23.027 26.34,23.328 26.4,23.387 
	27.24,23.748 27.9,24.107 27.96,24.107 28.2,24.347 28.2,24.407 28.38,24.647 28.44,24.647 28.56,24.887 28.56,25.248 "/>
<line fill="none" x1="28.08" y1="25.248" x2="28.56" y2="25.248"/>
<polyline points="33.48,20.507 33.48,23.567 32.7,23.087 29.04,20.927 28.2,20.507 29.04,20.027 32.7,17.867 33.48,17.387 
	33.48,18.347 33.24,18.767 29.58,20.927 29.04,20.027 29.58,20.027 33.24,22.188 32.7,23.087 32.46,22.667 32.46,20.507 "/>
<rect x="32.46" y="18.347" width="1.021" height="2.16"/>
<polyline points="33,20.507 33,22.667 29.34,20.507 33,18.347 "/>
<polyline points="51.48,20.507 51.48,17.447 52.26,17.927 55.98,20.087 56.82,20.507 55.98,20.987 52.26,23.147 51.48,23.627 
	51.48,22.667 51.72,22.248 55.44,20.087 55.98,20.987 55.44,20.987 51.72,18.828 52.26,17.927 52.5,18.347 52.5,20.507 "/>
<rect x="51.48" y="20.507" width="1.02" height="2.16"/>
<polyline points="51.96,20.507 51.96,18.347 55.68,20.507 51.96,22.667 "/>
<rect x="33.3" y="20.267" width="18.421" height="0.48"/>
<text transform="matrix(1 0 0 1 -2.441406e-04 34.4873)" font-family="'ProductusBook'" font-size="7.98">Shared Secret</text>
<rect x="261.96" y="55.729" width="0.48" height="4.199"/>
<rect x="261.96" y="66.107" width="0.48" height="4.26"/>
<rect x="258.18" y="69.887" width="4.021" height="0.48"/>
<rect x="244.02" y="69.887" width="8.101" height="0.48"/>
<rect x="229.86" y="69.887" width="8.04" height="0.48"/>
<rect x="215.7" y="69.887" width="8.04" height="0.48"/>
<rect x="201.48" y="69.887" width="8.1" height="0.48"/>
<rect x="187.32" y="69.887" width="8.04" height="0.48"/>
<rect x="173.16" y="69.887" width="8.04" height="0.48"/>
<rect x="158.94" y="69.887" width="8.1" height="0.48"/>
<rect x="144.78" y="69.887" width="8.1" height="0.48"/>
<rect x="138.42" y="69.887" width="0.24" height="0.48"/>
<rect x="130.62" y="69.887" width="7.8" height="0.48"/>
<rect x="124.26" y="69.887" width="0.24" height="0.48"/>
<rect x="116.4" y="69.887" width="7.858" height="0.48"/>
<rect x="110.1" y="69.887" width="0.239" height="0.48"/>
<rect x="102.24" y="69.887" width="7.859" height="0.48"/>
<rect x="95.88" y="69.887" width="0.24" height="0.48"/>
<rect x="88.08" y="69.887" width="7.8" height="0.48"/>
<rect x="81.72" y="69.887" width="0.239" height="0.48"/>
<rect x="73.86" y="69.887" width="7.86" height="0.48"/>
<rect x="67.56" y="69.887" width="0.239" height="0.48"/>
<rect x="59.7" y="69.887" width="7.86" height="0.48"/>
<rect x="53.34" y="69.887" width="0.24" height="0.48"/>
<rect x="45.54" y="69.887" width="7.8" height="0.48"/>
<rect x="39.18" y="69.887" width="0.239" height="0.48"/>
<rect x="31.32" y="69.887" width="7.86" height="0.48"/>
<rect x="21" y="69.887" width="4.26" height="0.48"/>
<rect x="21" y="66.107" width="0.48" height="4.02"/>
<rect x="21" y="57.527" width="0.48" height="0.24"/>
<rect x="21" y="47.027" width="0.48" height="10.5"/>
<rect x="21" y="38.447" width="0.48" height="0.24"/>
<rect x="21" y="34.427" width="0.48" height="4.021"/>
</svg>
