<?xml version="1.0" encoding="utf-8"?>
<!-- Generator: Adobe Illustrator 16.0.0, SVG Export Plug-In . SVG Version: 6.00 Build 0)  -->
<!DOCTYPE svg PUBLIC "-//W3C//DTD SVG 1.1//EN" "http://www.w3.org/Graphics/SVG/1.1/DTD/svg11.dtd">
<svg version="1.1" id="Layer_1" xmlns="http://www.w3.org/2000/svg" xmlns:xlink="http://www.w3.org/1999/xlink" x="0px" y="0px"
	 width="262.44px" height="192.06px" viewBox="0 0 262.44 192.06" style="enable-background:new 0 0 262.44 192.06;"
	 xml:space="preserve">
<polyline style="fill-rule:evenodd;clip-rule:evenodd;" points="48.9,44.52 48,44.64 47.1,44.88 46.38,45.3 45.72,45.84 45.12,46.5 
	44.76,47.28 44.46,48.12 44.4,49.02 44.4,52.92 44.46,53.82 44.76,54.66 45.12,55.44 45.72,56.1 46.38,56.64 47.1,57.06 48,57.3 
	48.9,57.42 94.68,57.42 95.64,57.3 96.48,57.06 97.2,56.64 97.92,56.1 98.46,55.44 98.88,54.66 99.12,53.82 99.18,52.92 
	99.18,49.02 99.12,48.12 98.88,47.28 98.46,46.5 97.92,45.84 97.2,45.3 96.48,44.88 95.64,44.64 94.68,44.52 48.9,44.52 "/>
<polyline points="48.96,44.76 48.06,44.88 47.16,45.12 47.22,45.12 46.5,45.54 46.56,45.48 45.9,46.02 45.3,46.68 45.36,46.62 
	45,47.4 44.7,48.24 44.7,48.18 44.64,49.08 44.64,49.02 44.64,52.92 44.7,53.82 44.7,53.76 45,54.6 45.36,55.38 45.3,55.32 
	45.9,55.98 45.9,55.92 46.56,56.46 46.5,56.46 47.22,56.88 47.16,56.82 48.06,57.06 48.96,57.18 48.9,57.18 94.68,57.18 
	95.64,57.06 95.58,57.06 96.42,56.82 96.36,56.88 97.08,56.46 97.8,55.92 97.74,55.98 98.28,55.32 98.7,54.54 98.64,54.6 
	98.88,53.76 98.88,53.82 98.94,52.92 98.94,49.02 98.94,49.08 98.88,48.18 98.64,47.34 98.7,47.4 98.28,46.62 98.28,46.68 
	97.74,46.02 97.8,46.02 97.08,45.48 97.08,45.54 96.36,45.12 96.42,45.12 95.58,44.88 95.64,44.88 94.68,44.76 48.9,44.76 
	48.9,44.28 94.74,44.28 95.7,44.4 96.54,44.64 96.6,44.7 97.32,45.12 97.38,45.12 98.1,45.66 98.1,45.72 98.64,46.38 98.7,46.38 
	99.12,47.16 99.12,47.22 99.36,48.06 99.36,48.12 99.42,49.02 99.42,52.98 99.36,53.88 99.12,54.72 99.12,54.78 98.7,55.56 
	98.64,55.62 98.1,56.28 97.38,56.82 97.32,56.88 96.6,57.3 96.54,57.3 95.7,57.54 94.74,57.66 48.9,57.66 48,57.54 47.94,57.54 
	47.04,57.3 46.98,57.3 46.26,56.88 46.26,56.82 45.6,56.28 45.54,56.28 44.94,55.62 44.94,55.56 44.58,54.78 44.52,54.78 
	44.22,53.94 44.22,53.88 44.16,52.98 44.16,49.02 44.22,48.12 44.22,48.06 44.52,47.22 44.58,47.22 44.94,46.44 44.94,46.38 
	45.54,45.72 45.6,45.66 46.26,45.12 46.98,44.7 47.04,44.64 47.94,44.4 48,44.4 48.9,44.28 "/>
<polyline points="48.9,44.76 48.96,44.76 48.9,44.28 "/>
<polyline style="fill-rule:evenodd;clip-rule:evenodd;" points="77.94,7.44 77.94,6.72 77.82,6 77.64,5.34 77.4,4.68 77.1,4.02 
	76.74,3.42 76.32,2.88 75.84,2.4 75.3,1.92 74.76,1.5 74.16,1.14 73.56,0.84 72.9,0.6 72.18,0.42 71.46,0.3 70.74,0.24 70.02,0.3 
	69.3,0.42 68.58,0.6 67.92,0.84 67.32,1.14 66.72,1.5 66.18,1.92 65.64,2.4 65.22,2.88 64.8,3.42 64.44,4.02 64.14,4.68 63.9,5.34 
	63.72,6 63.6,6.72 63.54,7.44 63.6,8.22 63.72,8.94 63.9,9.6 64.14,10.26 64.44,10.92 64.8,11.52 65.22,12.06 65.64,12.54 
	66.18,13.02 66.72,13.44 67.32,13.8 67.92,14.1 68.58,14.34 69.3,14.52 70.02,14.64 71.46,14.64 72.18,14.52 72.9,14.34 73.56,14.1 
	74.16,13.8 74.76,13.44 75.3,13.02 75.84,12.54 76.32,12.06 76.74,11.52 77.1,10.92 77.4,10.26 77.64,9.6 77.82,8.94 77.94,8.22 
	77.94,7.44 "/>
<polyline points="77.7,7.44 77.7,6.72 77.7,6.78 77.58,6.06 77.4,5.4 77.4,5.46 77.16,4.8 77.22,4.8 76.92,4.14 76.56,3.54 
	76.56,3.6 76.14,3.06 75.66,2.58 75.72,2.58 75.18,2.1 74.64,1.68 74.64,1.74 74.04,1.38 73.44,1.08 73.5,1.08 72.84,0.84 
	72.12,0.66 72.18,0.66 71.46,0.54 70.74,0.48 70.8,0.48 70.08,0.54 69.36,0.66 68.64,0.84 68.7,0.84 68.04,1.08 67.44,1.38 
	66.84,1.74 66.9,1.68 66.36,2.1 65.82,2.58 65.4,3.06 64.98,3.6 65.04,3.54 64.68,4.14 64.38,4.8 64.14,5.46 64.14,5.4 63.96,6.06 
	63.84,6.78 63.78,7.5 63.78,7.44 63.84,8.22 63.96,8.94 63.96,8.88 64.14,9.54 64.38,10.2 64.68,10.86 64.68,10.8 65.04,11.4 
	64.98,11.4 65.4,11.94 65.82,12.42 65.82,12.36 66.36,12.84 66.06,13.2 65.52,12.72 65.46,12.72 65.04,12.24 64.62,11.7 
	64.62,11.64 64.26,11.04 63.96,10.38 63.9,10.38 63.66,9.72 63.66,9.66 63.48,9 63.36,8.28 63.3,7.5 63.3,7.44 63.36,6.72 63.48,6 
	63.48,5.94 63.66,5.28 63.9,4.62 63.96,4.62 64.26,3.96 64.26,3.9 64.62,3.3 65.04,2.76 65.46,2.28 65.52,2.22 66.06,1.74 
	66.6,1.32 67.2,0.96 67.8,0.66 67.86,0.6 68.52,0.36 69.24,0.18 69.3,0.18 70.02,0.06 70.74,0 70.8,0 71.52,0.06 72.24,0.18 
	72.96,0.36 73.02,0.36 73.68,0.6 73.68,0.66 74.28,0.96 74.88,1.32 74.94,1.32 75.48,1.74 76.02,2.22 76.5,2.7 76.5,2.76 76.92,3.3 
	76.98,3.3 77.34,3.9 77.34,3.96 77.64,4.62 77.88,5.28 78.06,5.94 78.06,6 78.18,6.72 78.18,7.44 "/>
<polyline points="66.36,12.84 66.9,13.26 66.84,13.26 67.44,13.62 68.04,13.92 68.04,13.86 68.7,14.1 68.64,14.1 69.36,14.28 
	70.08,14.4 70.02,14.4 71.46,14.4 72.18,14.28 72.12,14.28 72.84,14.1 73.5,13.86 73.44,13.92 74.04,13.62 74.64,13.26 75.18,12.84 
	75.72,12.36 75.66,12.36 76.14,11.88 76.14,11.94 76.56,11.4 76.92,10.8 76.92,10.86 77.22,10.2 77.16,10.2 77.4,9.54 77.58,8.88 
	77.58,8.94 77.7,8.22 77.7,7.44 78.18,7.44 78.18,8.28 78.06,9 77.88,9.66 77.88,9.72 77.64,10.38 77.34,11.04 76.98,11.64 
	76.92,11.7 76.5,12.24 76.02,12.72 75.48,13.2 74.94,13.62 74.88,13.68 74.28,14.04 73.68,14.34 73.02,14.58 72.96,14.58 
	72.24,14.76 71.52,14.88 70.02,14.88 69.3,14.76 69.24,14.76 68.52,14.58 67.86,14.34 67.8,14.34 67.2,14.04 66.6,13.68 66.6,13.62 
	66.06,13.2 "/>
<polyline style="fill-rule:evenodd;clip-rule:evenodd;fill:#FFFFFF;" points="47.04,43.02 46.08,43.08 45.24,43.38 44.52,43.8 
	43.86,44.34 43.26,45 42.84,45.78 42.6,46.62 42.54,47.52 42.54,51.36 42.6,52.26 42.84,53.16 43.26,53.88 43.86,54.54 44.52,55.14 
	45.24,55.5 46.08,55.8 47.04,55.86 92.82,55.86 93.78,55.8 94.62,55.5 95.34,55.14 96,54.54 96.6,53.88 96.96,53.16 97.26,52.26 
	97.32,51.36 97.32,47.52 97.26,46.62 96.96,45.78 96.6,45 96,44.34 95.34,43.8 94.62,43.38 93.78,43.08 92.82,43.02 47.04,43.02 "/>
<polyline points="47.04,43.26 46.08,43.32 46.2,43.32 45.36,43.62 44.64,44.04 44.7,43.98 44.04,44.52 43.44,45.18 43.5,45.12 
	43.08,45.9 43.08,45.84 42.84,46.68 42.78,47.58 42.78,47.52 42.78,51.36 42.84,52.26 42.84,52.2 43.08,53.1 43.08,53.04 
	43.5,53.76 43.44,53.76 44.04,54.42 44.04,54.36 44.7,54.96 44.64,54.96 45.36,55.32 45.36,55.26 46.2,55.56 46.08,55.56 
	47.04,55.62 92.82,55.62 93.78,55.56 93.72,55.56 94.56,55.26 94.5,55.32 95.22,54.96 95.88,54.36 95.82,54.42 96.42,53.76 
	96.78,53.04 96.72,53.1 97.02,52.2 97.02,52.26 97.08,51.36 97.08,47.52 97.08,47.58 97.02,46.68 97.02,46.74 96.72,45.9 
	96.78,45.9 96.42,45.12 96.42,45.18 95.82,44.52 95.88,44.52 95.22,43.98 95.22,44.04 94.5,43.62 94.56,43.62 93.72,43.32 
	93.78,43.32 92.82,43.26 47.04,43.26 47.04,42.78 92.82,42.78 93.78,42.84 93.9,42.84 94.74,43.14 94.74,43.2 95.46,43.62 
	95.52,43.62 96.18,44.16 96.18,44.22 96.78,44.88 96.84,44.94 97.2,45.72 97.5,46.56 97.5,46.62 97.56,47.52 97.56,51.42 
	97.5,52.32 97.5,52.38 97.2,53.28 96.84,54 96.78,54.06 96.18,54.72 95.52,55.32 95.46,55.38 94.74,55.74 93.9,56.04 93.78,56.04 
	92.82,56.1 47.04,56.1 46.08,56.04 46.02,56.04 45.18,55.74 45.12,55.74 44.4,55.38 44.4,55.32 43.74,54.72 43.68,54.72 
	43.08,54.06 43.08,54 42.66,53.28 42.6,53.22 42.36,52.32 42.3,51.42 42.3,47.52 42.36,46.62 42.36,46.56 42.6,45.72 42.66,45.66 
	43.08,44.88 43.68,44.22 43.74,44.16 44.4,43.62 45.12,43.2 45.18,43.14 46.02,42.84 46.08,42.84 47.04,42.78 "/>
<line x1="47.04" y1="43.26" x2="47.04" y2="42.78"/>
<text transform="matrix(1 0 0 1 50.3398 51.1802)"><tspan x="0" y="0" style="font-family:'ProductusSemibold'; font-size:7.98;">INS</tspan><tspan x="11.834" y="0" style="font-family:'ProductusSemibold'; font-size:7.98;">T</tspan><tspan x="15.8" y="0" style="font-family:'ProductusSemibold'; font-size:7.98;">ALLE</tspan><tspan x="32.063" y="0" style="font-family:'ProductusSemibold'; font-size:7.98;">D</tspan></text>
<polyline style="fill-rule:evenodd;clip-rule:evenodd;" points="168.48,65.34 167.58,65.46 166.74,65.7 165.959,66.12 
	165.299,66.66 164.76,67.32 164.339,68.1 164.1,68.94 163.98,69.84 163.98,73.74 164.1,74.64 164.339,75.48 164.76,76.26 
	165.299,76.92 165.959,77.46 166.74,77.88 167.58,78.12 168.48,78.24 215.16,78.24 216.12,78.12 216.959,77.88 217.68,77.46 
	218.339,76.92 218.94,76.26 219.36,75.48 219.6,74.64 219.66,73.74 219.66,69.84 219.6,68.94 219.36,68.1 218.94,67.32 
	218.339,66.66 217.68,66.12 216.959,65.7 216.12,65.46 215.16,65.34 168.48,65.34 "/>
<polyline points="168.54,65.58 167.64,65.7 166.799,65.94 166.86,65.94 166.08,66.36 166.14,66.3 165.48,66.84 164.94,67.5 
	165,67.44 164.58,68.22 164.58,68.16 164.339,69 164.22,69.9 164.22,69.84 164.22,73.74 164.339,74.64 164.339,74.58 164.58,75.42 
	164.58,75.36 165,76.14 164.94,76.14 165.48,76.8 165.48,76.74 166.14,77.28 166.08,77.28 166.86,77.7 166.799,77.64 167.64,77.88 
	168.54,78 168.48,78 215.16,78 216.12,77.88 216.06,77.88 216.9,77.64 216.839,77.7 217.56,77.28 218.22,76.74 218.16,76.8 
	218.76,76.14 219.18,75.36 219.12,75.42 219.36,74.58 219.36,74.64 219.419,73.74 219.419,69.84 219.419,69.9 219.36,69 
	219.12,68.16 219.18,68.22 218.76,67.44 218.76,67.5 218.16,66.84 218.22,66.84 217.56,66.3 217.56,66.36 216.839,65.94 
	216.9,65.94 216.06,65.7 216.12,65.7 215.16,65.58 168.48,65.58 168.48,65.1 215.22,65.1 216.18,65.22 217.02,65.46 217.08,65.52 
	217.799,65.94 217.86,65.94 218.52,66.48 218.52,66.54 219.12,67.2 219.18,67.2 219.6,67.98 219.6,68.04 219.839,68.88 
	219.839,68.94 219.9,69.84 219.9,73.8 219.839,74.7 219.6,75.54 219.6,75.6 219.18,76.38 219.12,76.44 218.52,77.1 217.86,77.64 
	217.799,77.7 217.08,78.12 217.02,78.12 216.18,78.36 215.22,78.48 168.48,78.48 167.58,78.36 167.52,78.36 166.68,78.12 
	166.62,78.12 165.839,77.7 165.839,77.64 165.18,77.1 165.12,77.1 164.58,76.44 164.58,76.38 164.16,75.6 164.1,75.54 163.86,74.7 
	163.74,73.8 163.74,69.84 163.86,68.94 163.86,68.88 164.1,68.04 164.16,67.98 164.58,67.2 165.12,66.54 165.18,66.48 
	165.839,65.94 166.62,65.52 166.68,65.46 167.52,65.22 167.58,65.22 168.48,65.1 "/>
<polyline points="168.48,65.58 168.54,65.58 168.48,65.1 "/>
<polyline style="fill-rule:evenodd;clip-rule:evenodd;fill:#FFFFFF;" points="166.56,63.84 165.66,63.9 164.82,64.2 164.04,64.56 
	163.379,65.16 162.839,65.82 162.419,66.54 162.18,67.44 162.06,68.34 162.06,72.18 162.18,73.08 162.419,73.92 162.839,74.7 
	163.379,75.36 164.04,75.9 164.82,76.32 165.66,76.62 166.56,76.68 213.299,76.68 214.2,76.62 215.04,76.32 215.82,75.9 
	216.48,75.36 217.02,74.7 217.44,73.92 217.68,73.08 217.799,72.18 217.799,68.34 217.68,67.44 217.44,66.54 217.02,65.82 
	216.48,65.16 215.82,64.56 215.04,64.2 214.2,63.9 213.299,63.84 166.56,63.84 "/>
<polyline points="166.62,64.08 165.72,64.14 165.78,64.14 164.94,64.44 164.16,64.8 164.22,64.74 163.56,65.34 163.02,66 
	163.08,65.94 162.66,66.66 162.66,66.6 162.419,67.5 162.299,68.4 162.299,68.34 162.299,72.18 162.419,73.08 162.419,73.02 
	162.66,73.86 162.66,73.8 163.08,74.58 163.02,74.58 163.56,75.24 163.56,75.18 164.22,75.72 164.16,75.72 164.94,76.14 
	164.94,76.08 165.78,76.38 165.72,76.38 166.62,76.44 166.56,76.44 213.299,76.44 214.2,76.38 214.14,76.38 214.98,76.08 
	214.919,76.14 215.7,75.72 216.36,75.18 216.299,75.24 216.839,74.58 217.26,73.8 217.2,73.86 217.44,73.02 217.44,73.08 
	217.56,72.18 217.56,68.34 217.56,68.4 217.44,67.5 217.2,66.6 217.26,66.66 216.839,65.94 216.839,66 216.299,65.34 216.36,65.34 
	215.7,64.74 215.76,64.8 214.98,64.44 214.14,64.14 214.2,64.14 213.299,64.08 166.56,64.08 166.56,63.6 213.36,63.6 214.26,63.66 
	214.32,63.66 215.16,63.96 215.16,64.02 215.94,64.38 216,64.38 216.66,64.98 216.66,65.04 217.2,65.7 217.26,65.7 217.68,66.42 
	217.68,66.48 217.919,67.38 217.919,67.44 218.04,68.34 218.04,72.24 217.919,73.14 217.68,73.98 217.68,74.04 217.26,74.82 
	217.2,74.88 216.66,75.54 216,76.08 215.94,76.14 215.16,76.56 214.32,76.86 214.26,76.86 213.36,76.92 166.56,76.92 165.66,76.86 
	165.6,76.86 164.76,76.56 164.7,76.56 163.919,76.14 163.919,76.08 163.26,75.54 163.2,75.54 162.66,74.88 162.66,74.82 
	162.24,74.04 162.18,73.98 161.94,73.14 161.82,72.24 161.82,68.34 161.94,67.44 161.94,67.38 162.18,66.48 162.24,66.42 
	162.66,65.7 163.2,65.04 163.26,64.98 163.919,64.38 163.98,64.38 164.76,64.02 164.76,63.96 165.6,63.66 165.66,63.66 166.56,63.6 
	"/>
<polyline points="166.56,64.08 166.62,64.08 166.56,63.6 "/>
<text transform="matrix(1 0 0 1 170.0396 72)"><tspan x="0" y="0" style="font-family:'ProductusSemibold'; font-size:7.98;">S</tspan><tspan x="4.27" y="0" style="font-family:'ProductusSemibold'; font-size:7.98;">T</tspan><tspan x="8.291" y="0" style="font-family:'ProductusSemibold'; font-size:7.98;">A</tspan><tspan x="13.311" y="0" style="font-family:'ProductusSemibold'; font-size:7.98;">R</tspan><tspan x="17.508" y="0" style="font-family:'ProductusSemibold'; font-size:7.98;">TIN</tspan><tspan x="29.589" y="0" style="font-family:'ProductusSemibold'; font-size:7.98;">G</tspan></text>
<polyline style="fill-rule:evenodd;clip-rule:evenodd;" points="168.48,178.98 167.58,179.04 166.74,179.34 165.959,179.76 
	165.299,180.3 164.76,180.96 164.339,181.74 164.04,182.58 163.98,183.48 163.98,187.32 164.04,188.22 164.339,189.06 
	164.76,189.84 165.299,190.5 165.959,191.04 166.74,191.46 167.58,191.76 168.48,191.82 215.16,191.82 216.12,191.76 
	216.959,191.46 217.68,191.04 218.339,190.5 218.94,189.84 219.36,189.06 219.6,188.22 219.66,187.32 219.66,183.48 219.6,182.58 
	219.36,181.74 218.94,180.96 218.339,180.3 217.68,179.76 216.959,179.34 216.12,179.04 215.16,178.98 168.48,178.98 "/>
<polyline points="168.54,179.22 167.64,179.28 167.7,179.28 166.86,179.58 166.08,180 166.14,179.94 165.48,180.48 164.94,181.14 
	165,181.08 164.58,181.86 164.28,182.7 164.28,182.64 164.22,183.54 164.22,183.48 164.22,187.32 164.28,188.22 164.28,188.16 
	164.58,189 164.58,188.94 165,189.72 164.94,189.72 165.48,190.38 165.48,190.32 166.14,190.86 166.08,190.86 166.86,191.28 
	166.86,191.22 167.7,191.52 167.64,191.52 168.54,191.58 168.48,191.58 215.16,191.58 216.12,191.52 216.06,191.52 216.9,191.22 
	216.839,191.28 217.56,190.86 218.22,190.32 218.16,190.38 218.76,189.72 219.18,188.94 219.12,189 219.36,188.16 219.36,188.22 
	219.419,187.32 219.419,183.48 219.419,183.54 219.36,182.64 219.12,181.8 219.18,181.86 218.76,181.08 218.76,181.14 
	218.16,180.48 218.22,180.48 217.56,179.94 217.56,180 216.839,179.58 216.9,179.58 216.06,179.28 216.12,179.28 215.16,179.22 
	168.48,179.22 168.48,178.74 215.16,178.74 216.12,178.8 216.24,178.8 217.08,179.1 217.08,179.16 217.799,179.58 217.86,179.58 
	218.52,180.12 218.52,180.18 219.12,180.84 219.18,180.84 219.6,181.62 219.6,181.68 219.839,182.52 219.839,182.58 219.9,183.48 
	219.9,187.38 219.839,188.28 219.6,189.12 219.6,189.18 219.18,189.96 219.12,190.02 218.52,190.68 217.86,191.22 217.799,191.28 
	217.08,191.7 216.24,192 216.12,192 215.16,192.06 168.48,192.06 167.58,192 167.52,192 166.68,191.7 166.62,191.7 165.839,191.28 
	165.839,191.22 165.18,190.68 165.12,190.68 164.58,190.02 164.58,189.96 164.16,189.18 164.1,189.18 163.799,188.34 
	163.799,188.28 163.74,187.38 163.74,183.48 163.799,182.58 163.799,182.52 164.1,181.68 164.16,181.62 164.58,180.84 
	165.12,180.18 165.18,180.12 165.839,179.58 166.62,179.16 166.68,179.1 167.52,178.8 167.58,178.8 168.48,178.74 "/>
<polyline points="168.48,179.22 168.54,179.22 168.48,178.74 "/>
<polyline style="fill-rule:evenodd;clip-rule:evenodd;fill:#FFFFFF;" points="166.56,177.42 165.66,177.54 164.82,177.78 
	164.04,178.2 163.379,178.74 162.839,179.4 162.419,180.18 162.18,181.02 162.06,181.92 162.06,185.82 162.18,186.72 
	162.419,187.56 162.839,188.34 163.379,189 164.04,189.54 164.82,189.96 165.66,190.2 166.56,190.32 213.299,190.32 214.2,190.2 
	215.04,189.96 215.82,189.54 216.48,189 217.02,188.34 217.44,187.56 217.68,186.72 217.799,185.82 217.799,181.92 217.68,181.02 
	217.44,180.18 217.02,179.4 216.48,178.74 215.82,178.2 215.04,177.78 214.2,177.54 213.299,177.42 166.56,177.42 "/>
<polyline points="166.62,177.66 165.72,177.78 164.879,178.02 164.94,178.02 164.16,178.44 164.22,178.38 163.56,178.92 
	163.02,179.58 163.08,179.52 162.66,180.3 162.66,180.24 162.419,181.08 162.299,181.98 162.299,181.92 162.299,185.82 
	162.419,186.72 162.419,186.66 162.66,187.5 162.66,187.44 163.08,188.22 163.02,188.22 163.56,188.88 163.56,188.82 164.22,189.36 
	164.16,189.36 164.94,189.78 164.879,189.72 165.72,189.96 166.62,190.08 166.56,190.08 213.299,190.08 214.2,189.96 214.14,189.96 
	214.98,189.72 214.919,189.78 215.7,189.36 216.36,188.82 216.299,188.88 216.839,188.22 217.26,187.44 217.2,187.5 217.44,186.66 
	217.44,186.72 217.56,185.82 217.56,181.92 217.56,181.98 217.44,181.08 217.2,180.24 217.26,180.3 216.839,179.52 216.839,179.58 
	216.299,178.92 216.36,178.92 215.7,178.38 215.7,178.44 214.919,178.02 214.98,178.02 214.14,177.78 214.2,177.78 213.299,177.66 
	166.56,177.66 166.56,177.18 213.36,177.18 214.26,177.3 215.1,177.54 215.16,177.6 215.94,178.02 216,178.02 216.66,178.56 
	216.66,178.62 217.2,179.28 217.26,179.28 217.68,180.06 217.68,180.12 217.919,180.96 217.919,181.02 218.04,181.92 218.04,185.88 
	217.919,186.78 217.68,187.62 217.68,187.68 217.26,188.46 217.2,188.52 216.66,189.18 216,189.72 215.94,189.78 215.16,190.2 
	215.1,190.2 214.26,190.44 213.36,190.56 166.56,190.56 165.66,190.44 165.6,190.44 164.76,190.2 164.7,190.2 163.919,189.78 
	163.919,189.72 163.26,189.18 163.2,189.18 162.66,188.52 162.66,188.46 162.24,187.68 162.18,187.62 161.94,186.78 161.82,185.88 
	161.82,181.92 161.94,181.02 161.94,180.96 162.18,180.12 162.24,180.06 162.66,179.28 163.2,178.62 163.26,178.56 163.919,178.02 
	164.7,177.6 164.76,177.54 165.6,177.3 165.66,177.3 166.56,177.18 "/>
<polyline points="166.56,177.66 166.62,177.66 166.56,177.18 "/>
<text transform="matrix(1 0 0 1 170.0396 185.6401)"><tspan x="0" y="0" style="font-family:'ProductusSemibold'; font-size:7.98;">S</tspan><tspan x="4.245" y="0" style="font-family:'ProductusSemibold'; font-size:7.98;">T</tspan><tspan x="8.498" y="0" style="font-family:'ProductusSemibold'; font-size:7.98;">OPP</tspan><tspan x="22.591" y="0" style="font-family:'ProductusSemibold'; font-size:7.98;">I</tspan><tspan x="24.865" y="0" style="font-family:'ProductusSemibold'; font-size:7.98;">N</tspan><tspan x="30.204" y="0" style="font-family:'ProductusSemibold'; font-size:7.98;">G</tspan></text>
<polyline style="fill-rule:evenodd;clip-rule:evenodd;" points="189.72,122.28 188.82,122.34 187.98,122.64 187.2,123.06 
	186.54,123.6 186,124.26 185.58,125.04 185.339,125.88 185.22,126.78 185.22,130.62 185.339,131.52 185.58,132.42 186,133.14 
	186.54,133.8 187.2,134.4 187.98,134.76 188.82,135.06 189.72,135.12 236.459,135.12 237.36,135.06 238.2,134.76 238.98,134.4 
	239.64,133.8 240.18,133.14 240.6,132.42 240.839,131.52 240.959,130.62 240.959,126.78 240.839,125.88 240.6,125.04 240.18,124.26 
	239.64,123.6 238.98,123.06 238.2,122.64 237.36,122.34 236.459,122.28 189.72,122.28 "/>
<polyline points="189.78,122.52 188.879,122.58 188.94,122.58 188.1,122.88 187.32,123.3 187.379,123.24 186.72,123.78 
	186.18,124.44 186.24,124.38 185.82,125.16 185.82,125.1 185.58,125.94 185.459,126.84 185.459,126.78 185.459,130.62 
	185.58,131.52 185.58,131.46 185.82,132.36 185.82,132.3 186.24,133.02 186.18,133.02 186.72,133.68 186.72,133.62 187.379,134.22 
	187.32,134.22 188.1,134.58 188.1,134.52 188.94,134.82 188.879,134.82 189.78,134.88 189.72,134.88 236.459,134.88 237.36,134.82 
	237.299,134.82 238.14,134.52 238.14,134.58 238.919,134.22 238.86,134.22 239.52,133.62 239.459,133.68 240,133.02 240.419,132.3 
	240.36,132.36 240.6,131.46 240.6,131.52 240.72,130.62 240.72,126.78 240.72,126.84 240.6,125.94 240.36,125.1 240.419,125.16 
	240,124.38 240,124.44 239.459,123.78 239.52,123.78 238.86,123.24 238.86,123.3 238.08,122.88 238.14,122.88 237.299,122.58 
	237.36,122.58 236.459,122.52 189.72,122.52 189.72,122.04 236.52,122.04 237.419,122.1 237.48,122.1 238.32,122.4 238.32,122.46 
	239.1,122.88 239.16,122.88 239.82,123.42 239.82,123.48 240.36,124.14 240.419,124.14 240.839,124.92 240.839,124.98 
	241.08,125.82 241.08,125.88 241.2,126.78 241.2,130.68 241.08,131.58 240.839,132.48 240.839,132.54 240.419,133.26 240.36,133.32 
	239.82,133.98 239.16,134.58 239.1,134.64 238.32,135 237.48,135.3 237.419,135.3 236.52,135.36 189.72,135.36 188.82,135.3 
	188.76,135.3 187.919,135 187.14,134.64 187.08,134.58 186.419,133.98 186.36,133.98 185.82,133.32 185.82,133.26 185.4,132.54 
	185.339,132.48 185.1,131.58 184.98,130.68 184.98,126.78 185.1,125.88 185.1,125.82 185.339,124.98 185.4,124.92 185.82,124.14 
	186.36,123.48 186.419,123.42 187.08,122.88 187.86,122.46 187.919,122.4 188.76,122.1 188.82,122.1 189.72,122.04 "/>
<polyline points="189.72,122.52 189.78,122.52 189.72,122.04 "/>
<polyline style="fill-rule:evenodd;clip-rule:evenodd;fill:#FFFFFF;" points="187.86,120.72 186.959,120.84 186.12,121.08 
	185.339,121.5 184.68,122.04 184.14,122.7 183.72,123.48 183.419,124.32 183.36,125.22 183.36,129.12 183.419,130.02 183.72,130.86 
	184.14,131.64 184.68,132.3 185.339,132.84 186.12,133.26 186.959,133.5 187.86,133.62 234.54,133.62 235.44,133.5 236.28,133.26 
	237.06,132.84 237.72,132.3 238.26,131.64 238.68,130.86 238.98,130.02 239.04,129.12 239.04,125.22 238.98,124.32 238.68,123.48 
	238.26,122.7 237.72,122.04 237.06,121.5 236.28,121.08 235.44,120.84 234.54,120.72 187.86,120.72 "/>
<polyline points="187.919,120.96 187.02,121.08 186.18,121.32 186.24,121.32 185.459,121.74 185.52,121.68 184.86,122.22 
	184.32,122.88 184.379,122.82 183.959,123.6 183.66,124.44 183.66,124.38 183.6,125.28 183.6,125.22 183.6,129.12 183.66,130.02 
	183.66,129.96 183.959,130.8 183.959,130.74 184.379,131.52 184.32,131.52 184.86,132.18 184.86,132.12 185.52,132.66 
	185.459,132.66 186.24,133.08 186.18,133.02 187.02,133.26 187.919,133.38 187.86,133.38 234.54,133.38 235.44,133.26 
	235.379,133.26 236.22,133.02 236.16,133.08 236.94,132.66 237.6,132.12 237.54,132.18 238.08,131.52 238.5,130.74 238.44,130.8 
	238.74,129.96 238.74,130.02 238.799,129.12 238.799,125.22 238.799,125.28 238.74,124.38 238.74,124.44 238.44,123.6 238.5,123.6 
	238.08,122.82 238.08,122.88 237.54,122.22 237.6,122.22 236.94,121.68 236.94,121.74 236.16,121.32 236.22,121.32 235.379,121.08 
	235.44,121.08 234.54,120.96 187.86,120.96 187.86,120.48 234.6,120.48 235.5,120.6 236.339,120.84 236.4,120.9 237.18,121.32 
	237.24,121.32 237.9,121.86 237.9,121.92 238.44,122.58 238.5,122.58 238.919,123.36 238.919,123.42 239.22,124.26 239.22,124.32 
	239.28,125.22 239.28,129.18 239.22,130.08 239.22,130.14 238.919,130.98 238.5,131.76 238.44,131.82 237.9,132.48 237.24,133.02 
	237.18,133.08 236.4,133.5 236.339,133.5 235.5,133.74 234.6,133.86 187.86,133.86 186.959,133.74 186.9,133.74 186.06,133.5 
	186,133.5 185.22,133.08 185.22,133.02 184.56,132.48 184.5,132.48 183.959,131.82 183.959,131.76 183.54,130.98 183.48,130.98 
	183.18,130.14 183.18,130.08 183.12,129.18 183.12,125.22 183.18,124.32 183.18,124.26 183.48,123.42 183.54,123.36 183.959,122.58 
	184.5,121.92 184.56,121.86 185.22,121.32 186,120.9 186.06,120.84 186.9,120.6 186.959,120.6 187.86,120.48 "/>
<polyline points="187.86,120.96 187.919,120.96 187.86,120.48 "/>
<text transform="matrix(1 0 0 1 191.2798 128.9399)"><tspan x="0" y="0" style="font-family:'ProductusSemibold'; font-size:7.98;">A</tspan><tspan x="4.676" y="0" style="font-family:'ProductusSemibold'; font-size:7.98;">C</tspan><tspan x="9.655" y="0" style="font-family:'ProductusSemibold'; font-size:7.98;">T</tspan><tspan x="14.148" y="0" style="font-family:'ProductusSemibold'; font-size:7.98;">I</tspan><tspan x="16.366" y="0" style="font-family:'ProductusSemibold'; font-size:7.98;">V</tspan><tspan x="21.402" y="0" style="font-family:'ProductusSemibold'; font-size:7.98;">E</tspan></text>
<rect x="70.62" y="87.42" width="0.48" height="4.68"/>
<polyline points="73.62,87.78 73.2,87.54 70.62,91.98 70.62,92.22 70.86,92.64 71.04,92.22 "/>
<polyline points="70.62,92.22 71.04,91.98 68.46,87.54 68.04,87.78 "/>
<rect x="70.62" y="56.94" width="0.48" height="30.72"/>
<polyline points="157.98,72.6 158.1,73.08 162.6,71.76 162.48,71.28 "/>
<polyline points="157.56,70.14 157.44,70.56 162.48,71.76 162.72,71.7 162.959,71.46 162.6,71.34 "/>
<polyline points="162.72,71.7 162.36,71.4 158.82,75.12 159.18,75.42 "/>
<polyline points="92.04,92.4 91.8,92.46 91.92,92.94 92.16,92.88 "/>
<polyline points="157.98,72.6 158.22,72.54 158.339,73.02 158.1,73.08 "/>
<polyline points="92.04,92.4 92.16,92.88 158.1,73.08 157.98,72.6 "/>
<text transform="matrix(1 0 0 1 244.4399 57.48)"><tspan x="0" y="0" style="font-family:'ProductusBook'; font-size:7.98;">i</tspan><tspan x="1.556" y="0" style="font-family:'ProductusBook'; font-size:7.98;">nit</tspan></text>
<rect x="70.62" y="37.8" width="0.48" height="4.74"/>
<polyline points="73.62,38.16 73.2,37.92 70.62,42.42 70.62,42.66 70.86,43.08 71.04,42.66 "/>
<polyline points="70.62,42.66 71.04,42.42 68.46,37.92 68.04,38.16 "/>
<rect x="70.62" y="14.4" width="0.48" height="23.64"/>
<text transform="matrix(1 0 0 1 14.1597 7.8599)"><tspan x="0" y="0" style="font-family:'ProductusBook'; font-size:7.98;">new</tspan><tspan x="12.361" y="0" style="font-family:'ProductusBook'; font-size:7.98;">F</tspan><tspan x="15.425" y="0" style="font-family:'ProductusBook'; font-size:7.98;">rame</tspan><tspan x="30.292" y="0" style="font-family:'ProductusBook'; font-size:7.98;">w</tspan><tspan x="35.335" y="0" style="font-family:'ProductusBook'; font-size:7.98;">o</tspan><tspan x="39.118" y="0" style="font-family:'ProductusBook'; font-size:7.98;">r</tspan><tspan x="41.392" y="0" style="font-family:'ProductusBook'; font-size:7.98;">k</tspan></text>
<polyline style="fill-rule:evenodd;clip-rule:evenodd;" points="48.9,94.14 48,94.2 47.1,94.5 46.38,94.92 45.72,95.46 45.12,96.12 
	44.76,96.9 44.46,97.74 44.4,98.64 44.4,102.3 44.46,103.2 44.76,104.04 45.12,104.82 45.72,105.48 46.38,106.02 47.1,106.44 
	48,106.68 48.9,106.8 94.68,106.8 95.64,106.68 96.48,106.44 97.2,106.02 97.92,105.48 98.46,104.82 98.88,104.04 99.12,103.2 
	99.18,102.3 99.18,98.64 99.12,97.74 98.88,96.9 98.46,96.12 97.92,95.46 97.2,94.92 96.48,94.5 95.64,94.2 94.68,94.14 48.9,94.14 
	"/>
<polyline points="48.96,94.38 48.06,94.44 48.12,94.44 47.22,94.74 46.5,95.16 46.56,95.1 45.9,95.64 45.3,96.3 45.36,96.24 
	45,97.02 44.7,97.86 44.7,97.8 44.64,98.7 44.64,98.64 44.64,102.3 44.7,103.2 44.7,103.14 45,103.98 45.36,104.76 45.3,104.7 
	45.9,105.36 45.9,105.3 46.56,105.84 46.5,105.84 47.22,106.26 47.16,106.2 48.06,106.44 48.96,106.56 48.9,106.56 94.68,106.56 
	95.64,106.44 95.58,106.44 96.42,106.2 96.36,106.26 97.08,105.84 97.8,105.3 97.74,105.36 98.28,104.7 98.7,103.92 98.64,103.98 
	98.88,103.14 98.88,103.2 98.94,102.3 98.94,98.64 98.94,98.7 98.88,97.8 98.64,96.96 98.7,97.02 98.28,96.24 98.28,96.3 
	97.74,95.64 97.8,95.64 97.08,95.1 97.08,95.16 96.36,94.74 96.42,94.74 95.58,94.44 95.64,94.44 94.68,94.38 48.9,94.38 48.9,93.9 
	94.68,93.9 95.64,93.96 95.76,93.96 96.6,94.26 96.6,94.32 97.32,94.74 97.38,94.74 98.1,95.28 98.1,95.34 98.64,96 98.7,96 
	99.12,96.78 99.12,96.84 99.36,97.68 99.36,97.74 99.42,98.64 99.42,102.36 99.36,103.26 99.12,104.1 99.12,104.16 98.7,104.94 
	98.64,105 98.1,105.66 97.38,106.2 97.32,106.26 96.6,106.68 96.54,106.68 95.7,106.92 94.74,107.04 48.9,107.04 48,106.92 
	47.94,106.92 47.04,106.68 46.98,106.68 46.26,106.26 46.26,106.2 45.6,105.66 45.54,105.66 44.94,105 44.94,104.94 44.58,104.16 
	44.52,104.16 44.22,103.32 44.22,103.26 44.16,102.36 44.16,98.64 44.22,97.74 44.22,97.68 44.52,96.84 44.58,96.84 44.94,96.06 
	44.94,96 45.54,95.34 45.6,95.28 46.26,94.74 46.98,94.32 47.04,94.26 47.94,93.96 48,93.96 48.9,93.9 "/>
<polyline points="48.9,94.38 48.96,94.38 48.9,93.9 "/>
<polyline style="fill-rule:evenodd;clip-rule:evenodd;fill:#FFFFFF;" points="47.04,92.64 46.08,92.7 45.24,93 44.52,93.36 
	43.86,93.96 43.26,94.62 42.84,95.34 42.6,96.24 42.54,97.14 42.54,100.8 42.6,101.7 42.84,102.54 43.26,103.32 43.86,103.98 
	44.52,104.52 45.24,104.94 46.08,105.18 47.04,105.3 92.82,105.3 93.78,105.18 94.62,104.94 95.34,104.52 96,103.98 96.6,103.32 
	96.96,102.54 97.26,101.7 97.32,100.8 97.32,97.14 97.26,96.24 96.96,95.34 96.6,94.62 96,93.96 95.34,93.36 94.62,93 93.78,92.7 
	92.82,92.64 47.04,92.64 "/>
<polyline points="47.04,92.88 46.08,92.94 46.2,92.94 45.36,93.24 44.64,93.6 44.7,93.54 44.04,94.14 43.44,94.8 43.5,94.74 
	43.08,95.46 43.08,95.4 42.84,96.3 42.78,97.2 42.78,97.14 42.78,100.8 42.84,101.7 42.84,101.64 43.08,102.48 43.08,102.42 
	43.5,103.2 43.44,103.2 44.04,103.86 44.04,103.8 44.7,104.34 44.64,104.34 45.36,104.76 45.3,104.7 46.14,104.94 47.1,105.06 
	47.04,105.06 92.82,105.06 93.78,104.94 93.72,104.94 94.56,104.7 94.5,104.76 95.22,104.34 95.88,103.8 95.82,103.86 96.42,103.2 
	96.42,103.26 96.78,102.48 96.72,102.48 97.02,101.64 97.02,101.7 97.08,100.8 97.08,97.14 97.08,97.2 97.02,96.3 97.02,96.36 
	96.72,95.46 96.78,95.46 96.42,94.74 96.42,94.8 95.82,94.14 95.88,94.14 95.22,93.54 95.22,93.6 94.5,93.24 94.56,93.24 
	93.72,92.94 93.78,92.94 92.82,92.88 47.04,92.88 47.04,92.4 92.82,92.4 93.78,92.46 93.9,92.46 94.74,92.76 94.74,92.82 
	95.46,93.18 95.52,93.18 96.18,93.78 96.18,93.84 96.78,94.5 96.84,94.5 97.2,95.22 97.2,95.28 97.5,96.18 97.5,96.24 97.56,97.14 
	97.56,100.86 97.5,101.76 97.5,101.82 97.2,102.66 96.84,103.44 96.78,103.5 96.18,104.16 95.52,104.7 95.46,104.76 94.74,105.18 
	94.68,105.18 93.84,105.42 92.88,105.54 47.04,105.54 46.08,105.42 46.02,105.42 45.18,105.18 45.12,105.18 44.4,104.76 44.4,104.7 
	43.74,104.16 43.68,104.16 43.08,103.5 43.08,103.44 42.66,102.66 42.6,102.6 42.36,101.76 42.3,100.86 42.3,97.14 42.36,96.24 
	42.36,96.18 42.6,95.28 42.66,95.22 43.08,94.5 43.68,93.84 43.74,93.78 44.4,93.18 45.12,92.82 45.18,92.76 46.02,92.46 
	46.08,92.46 47.04,92.4 "/>
<line x1="47.04" y1="92.88" x2="47.04" y2="92.4"/>
<text transform="matrix(1 0 0 1 50.3398 100.7402)"><tspan x="0" y="0" style="font-family:'ProductusSemibold'; font-size:7.98;">R</tspan><tspan x="4.429" y="0" style="font-family:'ProductusSemibold'; font-size:7.98;">E</tspan><tspan x="8.323" y="0" style="font-family:'ProductusSemibold'; font-size:7.98;">SO</tspan><tspan x="18.425" y="0" style="font-family:'ProductusSemibold'; font-size:7.98;">L</tspan><tspan x="21.49" y="0" style="font-family:'ProductusSemibold'; font-size:7.98;">V</tspan><tspan x="26.525" y="0" style="font-family:'ProductusSemibold'; font-size:7.98;">E</tspan><tspan x="30.419" y="0" style="font-family:'ProductusSemibold'; font-size:7.98;">D</tspan></text>
<polyline points="95.46,110.82 95.82,110.46 92.64,106.98 92.28,107.34 "/>
<polyline points="93.3,112.26 93.78,112.14 92.7,107.1 92.58,106.92 92.22,106.8 92.22,107.22 "/>
<polyline points="92.58,106.92 92.4,107.4 97.26,108.96 97.44,108.48 "/>
<polyline points="95.82,110.52 95.7,110.34 95.34,110.64 95.46,110.82 "/>
<polyline points="163.2,184.62 163.32,184.8 162.959,185.1 162.839,184.92 "/>
<polyline points="95.82,110.52 95.46,110.82 162.839,184.92 163.2,184.62 "/>
<rect x="99.72" y="49.86" width="4.68" height="0.48"/>
<polyline points="104.04,52.86 104.28,52.44 99.84,49.86 99.6,49.86 99.18,50.1 99.6,50.28 "/>
<polyline points="99.6,49.86 99.84,50.28 104.28,47.7 104.04,47.28 "/>
<rect x="84.78" y="28.62" width="0.48" height="14.64"/>
<rect x="85.02" y="28.62" width="35.7" height="0.48"/>
<rect x="120.24" y="28.86" width="0.48" height="21.48"/>
<rect x="104.16" y="49.86" width="16.32" height="0.48"/>
<text transform="matrix(1 0 0 1 122.5796 35.5801)"><tspan x="0" y="0" style="font-family:'ProductusBook'; font-size:7.98;">u</tspan><tspan x="3.663" y="0" style="font-family:'ProductusBook'; font-size:7.98;">pdat</tspan><tspan x="16.806" y="0" style="font-family:'ProductusBook'; font-size:7.98;">e</tspan></text>
<rect x="191.1" y="115.8" width="0.479" height="4.68"/>
<polyline points="194.1,116.16 193.68,115.92 191.1,120.36 191.1,120.6 191.339,121.02 191.52,120.6 "/>
<polyline points="191.1,120.6 191.52,120.36 188.94,115.92 188.52,116.16 "/>
<rect x="191.1" y="78" width="0.479" height="0.24"/>
<rect x="191.1" y="78.24" width="0.479" height="37.8"/>
<rect x="191.1" y="172.44" width="0.479" height="4.74"/>
<polyline points="194.1,172.86 193.68,172.62 191.1,177.06 191.1,177.3 191.339,177.72 191.52,177.3 "/>
<polyline points="191.1,177.3 191.52,177.06 188.94,172.62 188.52,172.86 "/>
<rect x="191.1" y="134.88" width="0.479" height="0.24"/>
<rect x="191.1" y="135.12" width="0.479" height="37.56"/>
<text transform="matrix(1.0025 0 0 1 120.48 90.3003)"><tspan x="0" y="0" style="font-family:'ProductusBook'; font-size:7.98;">init,</tspan><tspan x="10.781" y="0" style="font-family:'ProductusBook'; font-size:7.98;"> </tspan><tspan x="12.336" y="0" style="font-family:'ProductusBook'; font-size:7.98;">start</tspan></text>
<text transform="matrix(1 0 0 1 122.5796 45.3003)" style="font-family:'ProductusBook'; font-size:7.98;">stop</text>
<rect x="37.32" y="99.48" width="4.68" height="0.48"/>
<polyline points="37.68,96.96 37.44,97.38 41.88,99.96 42.12,99.96 42.54,99.72 42.12,99.54 "/>
<polyline points="42.12,99.96 41.88,99.54 37.44,102.12 37.68,102.54 "/>
<rect x="56.46" y="78.18" width="0.48" height="14.7"/>
<rect x="21" y="78.18" width="35.7" height="0.48"/>
<rect x="21" y="78.42" width="0.48" height="21.54"/>
<rect x="21.24" y="99.48" width="16.32" height="0.48"/>
<text transform="matrix(1 0 0 1 0 87.6001)"><tspan x="0" y="0" style="font-family:'ProductusBook'; font-size:7.98;">u</tspan><tspan x="3.703" y="0" style="font-family:'ProductusBook'; font-size:7.98;">p</tspan><tspan x="7.366" y="0" style="font-family:'ProductusBook'; font-size:7.98;">d</tspan><tspan x="11.084" y="0" style="font-family:'ProductusBook'; font-size:7.98;">a</tspan><tspan x="14.388" y="0" style="font-family:'ProductusBook'; font-size:7.98;">t</tspan><tspan x="16.79" y="0" style="font-family:'ProductusBook'; font-size:7.98;">e</tspan></text>
<text transform="matrix(1 0 0 1 0 97.3804)" style="font-family:'ProductusBook'; font-size:7.98;">stop</text>
<text transform="matrix(1.0025 0 0 1 192.3599 97.3804)" style="font-family:'ProductusBook'; font-size:7.98;">start</text>
<rect x="220.2" y="71.1" width="4.68" height="0.48"/>
<polyline points="224.52,74.1 224.76,73.68 220.32,71.1 220.08,71.1 219.78,71.28 220.08,71.52 "/>
<polyline points="220.08,71.1 220.32,71.52 224.76,69 224.52,68.58 "/>
<rect x="205.26" y="49.86" width="0.479" height="14.64"/>
<rect x="205.5" y="49.86" width="35.7" height="0.48"/>
<rect x="240.72" y="50.1" width="0.479" height="21.48"/>
<rect x="224.64" y="71.1" width="16.319" height="0.48"/>
<text transform="matrix(1 0 0 1 193.4995 147.6001)" style="font-family:'ProductusBook'; font-size:7.98;">stop</text>
<rect x="241.44" y="127.8" width="4.68" height="0.48"/>
<polyline points="245.76,130.8 246,130.38 241.56,127.8 241.32,127.8 240.9,128.04 241.32,128.22 "/>
<polyline points="241.32,127.8 241.56,128.22 246,125.64 245.76,125.22 "/>
<rect x="226.56" y="106.56" width="0.479" height="14.64"/>
<rect x="226.799" y="106.56" width="35.641" height="0.48"/>
<rect x="261.959" y="106.8" width="0.48" height="21.48"/>
<rect x="245.879" y="127.8" width="16.32" height="0.48"/>
<text transform="matrix(1 0 0 1 244.4399 112.9199)"><tspan x="0" y="0" style="font-family:'ProductusBook'; font-size:7.98;">i</tspan><tspan x="1.556" y="0" style="font-family:'ProductusBook'; font-size:7.98;">nit</tspan></text>
<text transform="matrix(1 0 0 1 244.4399 122.6396)"><tspan x="0" y="0" style="font-family:'ProductusBook'; font-size:7.98;">s</tspan><tspan x="2.817" y="0" style="font-family:'ProductusBook'; font-size:7.98;">t</tspan><tspan x="5.163" y="0" style="font-family:'ProductusBook'; font-size:7.98;">a</tspan><tspan x="8.522" y="0" style="font-family:'ProductusBook'; font-size:7.98;">r</tspan><tspan x="10.797" y="0" style="font-family:'ProductusBook'; font-size:7.98;">t</tspan></text>
<text transform="matrix(1 0 0 1 106.3193 141.6602)" style="font-family:'ProductusBook'; font-size:7.98;">stop</text>
<text transform="matrix(1 0 0 1 106.3193 151.3799)"><tspan x="0" y="0" style="font-family:'ProductusBook'; font-size:7.98;">u</tspan><tspan x="3.663" y="0" style="font-family:'ProductusBook'; font-size:7.98;">pdat</tspan><tspan x="16.805" y="0" style="font-family:'ProductusBook'; font-size:7.98;">e</tspan></text>
<text transform="matrix(1 0 0 1 193.4995 157.3799)"><tspan x="0" y="0" style="font-family:'ProductusBook'; font-size:7.98;">u</tspan><tspan x="3.663" y="0" style="font-family:'ProductusBook'; font-size:7.98;">pdat</tspan><tspan x="16.806" y="0" style="font-family:'ProductusBook'; font-size:7.98;">e</tspan></text>
<text transform="matrix(1 0 0 1 106.3193 161.1602)" style="font-family:'ProductusBook'; font-size:7.98;">start</text>
<text transform="matrix(1 0 0 1 74.3994 70.5601)"><tspan x="0" y="0" style="font-family:'ProductusBook'; font-size:7.98;">in</tspan><tspan x="5.227" y="0" style="font-family:'ProductusBook'; font-size:7.98;">i</tspan><tspan x="6.847" y="0" style="font-family:'ProductusBook'; font-size:7.98;">t</tspan></text>
<text transform="matrix(1 0 0 1 74.3994 80.3403)" style="font-family:'ProductusBook'; font-size:7.98;">start</text>
<rect x="176.94" y="172.44" width="0.479" height="4.74"/>
<polyline points="179.94,172.86 179.52,172.62 176.94,177.06 176.94,177.3 177.18,177.72 177.36,177.3 "/>
<polyline points="176.94,177.3 177.36,177.06 174.78,172.62 174.36,172.86 "/>
<rect x="176.94" y="78" width="0.479" height="0.24"/>
<rect x="176.94" y="78.24" width="0.479" height="94.44"/>
<text transform="matrix(1.0025 0 0 1 161.2798 121.2603)"><tspan x="0" y="0" style="font-family:'ProductusBook'; font-size:7.98;">s</tspan><tspan x="2.761" y="0" style="font-family:'ProductusBook'; font-size:7.98;">t</tspan><tspan x="5.155" y="0" style="font-family:'ProductusBook'; font-size:7.98;">o</tspan><tspan x="8.93" y="0" style="font-family:'ProductusBook'; font-size:7.98;">p</tspan></text>
<text transform="matrix(1.0025 0 0 1 153.7202 130.98)"><tspan x="0" y="0" style="font-family:'ProductusBook'; font-size:7.98;">u</tspan><tspan x="3.655" y="0" style="font-family:'ProductusBook'; font-size:7.98;">pda</tspan><tspan x="14.356" y="0" style="font-family:'ProductusBook'; font-size:7.98;">t</tspan><tspan x="16.694" y="0" style="font-family:'ProductusBook'; font-size:7.98;">e</tspan></text>
<text transform="matrix(1 0 0 1 106.3198 170.8804)"><tspan x="0" y="0" style="font-family:'ProductusBook'; font-size:7.98;">in</tspan><tspan x="5.227" y="0" style="font-family:'ProductusBook'; font-size:7.98;">i</tspan><tspan x="6.839" y="0" style="font-family:'ProductusBook'; font-size:7.98;">t</tspan></text>
</svg>
