<?xml version="1.0" encoding="utf-8"?>
<!-- Generator: Adobe Illustrator 16.0.1, SVG Export Plug-In . SVG Version: 6.00 Build 0)  -->
<!DOCTYPE svg PUBLIC "-//W3C//DTD SVG 1.1//EN" "http://www.w3.org/Graphics/SVG/1.1/DTD/svg11.dtd">
<svg version="1.1" id="Layer_1" xmlns="http://www.w3.org/2000/svg" xmlns:xlink="http://www.w3.org/1999/xlink" x="0px" y="0px"
	 width="340.441px" height="120.96px" viewBox="0 0 340.441 120.96" enable-background="new 0 0 340.441 120.96"
	 xml:space="preserve">
<rect x="193.74" y="23.28" width="54.301" height="26.58"/>
<rect x="193.74" y="23.04" width="54.54" height="0.48"/>
<rect x="247.8" y="23.28" width="0.479" height="26.82"/>
<rect x="193.5" y="49.62" width="54.541" height="0.48"/>
<rect x="193.5" y="23.04" width="0.48" height="26.82"/>
<rect x="191.339" y="21.54" fill="#FFFFFF" width="54.359" height="26.58"/>
<rect x="191.339" y="21.3" width="54.601" height="0.48"/>
<rect x="245.458" y="21.54" width="0.48" height="26.82"/>
<rect x="191.1" y="47.88" width="54.601" height="0.48"/>
<rect x="191.1" y="21.3" width="0.479" height="26.82"/>
<text transform="matrix(1 0 0 1 193.7397 28.6196)" font-family="'ProductusOSGiBookc'" font-size="7.98">&lt;&lt;&lt;interface&gt;&gt;</text>
<text transform="matrix(1 0 0 1 193.7397 36.1392)" enable-background="new    "><tspan x="0" y="0" font-family="'ProductusSemibold'" font-size="7.98">URLStream</tspan><tspan x="0" y="9.576" font-family="'ProductusSemibold'" font-size="7.98">HandlerService</tspan></text>
<text transform="matrix(1 0 0 1 118.0801 33.3599)" font-family="'ProductusBook'" font-size="7.98">forward all methods</text>
<polyline points="233.878,49.86 248.041,35.7 248.041,49.86 233.878,49.86 "/>
<rect x="237.6" y="49.62" width="0.239" height="0.48"/>
<polyline points="237.6,50.1 233.28,50.1 233.701,49.68 233.878,49.62 237.6,49.62 "/>
<polyline points="236.339,47.04 236.52,46.86 236.878,47.22 236.701,47.4 "/>
<polyline points="233.701,49.68 234.06,50.04 236.701,47.4 236.339,47.04 "/>
<polyline points="245.22,38.16 245.041,38.34 245.4,38.7 245.58,38.52 "/>
<polyline points="245.22,38.16 245.58,38.52 248.22,35.88 248.28,35.7 248.28,35.1 247.86,35.52 "/>
<rect x="247.8" y="35.7" width="0.479" height="3.96"/>
<rect x="247.8" y="45.9" width="0.479" height="4.2"/>
<rect x="244.08" y="49.62" width="3.961" height="0.48"/>
<rect x="51.96" y="23.28" width="54.36" height="26.58"/>
<rect x="51.96" y="23.04" width="54.6" height="0.48"/>
<rect x="106.08" y="23.28" width="0.48" height="26.82"/>
<rect x="51.72" y="49.62" width="54.6" height="0.48"/>
<rect x="51.72" y="23.04" width="0.48" height="26.82"/>
<rect x="49.62" y="21.54" fill="#FFFFFF" width="54.3" height="26.58"/>
<rect x="49.62" y="21.3" width="54.54" height="0.48"/>
<rect x="103.68" y="21.54" width="0.48" height="26.82"/>
<rect x="49.38" y="47.88" width="54.54" height="0.48"/>
<rect x="49.38" y="21.3" width="0.48" height="26.82"/>
<text transform="matrix(1 0 0 1 51.96 27.6196)" enable-background="new    "><tspan x="0" y="0" font-family="'ProductusBook'" font-size="7.98">Proxy Impl, the</tspan><tspan x="0" y="9.576" font-family="'ProductusBook'" font-size="7.98">actual URL</tspan><tspan x="0" y="19.152" font-family="'ProductusBook'" font-size="7.98">Stream Handler.</tspan></text>
<rect x="193.74" y="94.14" width="54.301" height="26.58"/>
<rect x="193.74" y="93.9" width="54.54" height="0.48"/>
<rect x="247.8" y="94.14" width="0.479" height="26.82"/>
<rect x="193.5" y="120.48" width="54.541" height="0.48"/>
<rect x="193.5" y="93.9" width="0.48" height="26.82"/>
<rect x="191.339" y="92.4" fill="#FFFFFF" width="54.359" height="26.58"/>
<rect x="191.339" y="92.16" width="54.601" height="0.48"/>
<rect x="245.458" y="92.4" width="0.48" height="26.82"/>
<rect x="191.1" y="118.74" width="54.601" height="0.48"/>
<rect x="191.1" y="92.16" width="0.479" height="26.82"/>
<text transform="matrix(1 0 0 1 193.7397 99.48)" enable-background="new    "><tspan x="0" y="0" font-family="'ProductusBook'" font-size="7.98">URLStream</tspan><tspan x="0" y="9.576" font-family="'ProductusBook'" font-size="7.98">Handler Impl.</tspan></text>
<polyline points="219.72,55.02 216.66,55.02 217.14,54.24 219.3,50.58 219.72,49.8 220.201,50.64 222.3,54.3 222.72,55.02 
	221.82,55.02 221.4,54.78 219.3,51.12 220.201,50.64 220.201,51.12 218.041,54.78 217.14,54.24 217.56,54 219.72,54 "/>
<rect x="219.72" y="54" width="2.1" height="1.02"/>
<polyline points="219.72,54.54 217.56,54.54 219.72,50.88 221.82,54.54 "/>
<rect x="219.48" y="92.4" width="0.479" height="0.24"/>
<rect x="219.48" y="54.84" width="0.479" height="37.56"/>
<rect x="279.06" y="94.14" width="61.141" height="26.58"/>
<rect x="279.06" y="93.9" width="61.381" height="0.48"/>
<rect x="339.958" y="94.14" width="0.48" height="26.82"/>
<rect x="278.82" y="120.48" width="61.381" height="0.48"/>
<rect x="278.82" y="93.9" width="0.48" height="26.82"/>
<rect x="276.419" y="92.4" fill="#FFFFFF" width="61.08" height="26.58"/>
<rect x="276.419" y="92.16" width="61.32" height="0.48"/>
<rect x="337.259" y="92.4" width="0.48" height="26.82"/>
<rect x="276.18" y="118.74" width="61.319" height="0.48"/>
<rect x="276.18" y="92.16" width="0.479" height="26.82"/>
<text transform="matrix(1 0 0 1 279.0601 99.48)" enable-background="new    "><tspan x="0" y="0" font-family="'ProductusBook'" font-size="7.98">java.net.</tspan><tspan x="0" y="9.576" font-family="'ProductusBook'" font-size="7.98">URLStreamHandler</tspan></text>
<polyline points="271.201,106.56 271.201,103.5 271.98,103.98 275.701,106.14 276.541,106.56 275.701,107.041 271.98,109.201 
	271.201,109.68 271.201,108.72 271.44,108.3 275.16,106.14 275.701,107.041 275.16,107.041 271.44,104.88 271.98,103.98 
	272.22,104.4 272.22,106.56 "/>
<rect x="271.201" y="106.56" width="1.021" height="2.16"/>
<polyline points="271.68,106.56 271.68,104.4 275.4,106.56 271.68,108.72 "/>
<rect x="247.8" y="106.32" width="0.238" height="0.48"/>
<rect x="248.041" y="106.32" width="23.399" height="0.48"/>
<rect x="51.96" y="94.14" width="54.36" height="26.58"/>
<rect x="51.96" y="93.9" width="54.6" height="0.48"/>
<rect x="106.08" y="94.14" width="0.48" height="26.82"/>
<rect x="51.72" y="120.48" width="54.6" height="0.48"/>
<rect x="51.72" y="93.9" width="0.48" height="26.82"/>
<rect x="49.62" y="92.4" fill="#FFFFFF" width="54.3" height="26.58"/>
<rect x="49.62" y="92.16" width="54.54" height="0.48"/>
<rect x="103.68" y="92.4" width="0.48" height="26.82"/>
<rect x="49.38" y="118.74" width="54.54" height="0.48"/>
<rect x="49.38" y="92.16" width="0.48" height="26.82"/>
<text transform="matrix(1 0 0 1 51.96 99.48)" font-family="'ProductusOSGiBookc'" font-size="7.98">&lt;&lt;interface&gt;&gt;</text>
<text transform="matrix(1 0 0 1 51.96 106.9995)" enable-background="new    "><tspan x="0" y="0" font-family="'ProductusSemibold'" font-size="7.98">URLStream</tspan><tspan x="0" y="9.576" font-family="'ProductusSemibold'" font-size="7.98">HandlerSetter</tspan></text>
<polyline points="304.74,87.18 307.8,87.18 307.32,87.96 305.16,91.68 304.74,92.46 304.259,91.621 302.16,87.9 301.74,87.18 
	302.64,87.18 303.06,87.419 305.16,91.14 304.259,91.621 304.259,91.14 306.419,87.419 307.32,87.96 306.9,88.201 304.74,88.201 "/>
<rect x="302.64" y="87.18" width="2.1" height="1.021"/>
<polyline points="304.74,87.66 306.9,87.66 304.74,91.38 302.64,87.66 "/>
<rect x="77.7" width="0.48" height="21.78"/>
<rect x="77.94" width="227.04" height="0.48"/>
<rect x="304.5" y="0.24" width="0.48" height="87.179"/>
<rect x="106.08" y="35.46" width="0.24" height="0.48"/>
<rect x="106.32" y="35.46" width="85.26" height="0.48"/>
<rect x="191.339" y="106.32" width="0.24" height="0.48"/>
<rect x="106.08" y="106.32" width="85.259" height="0.48"/>
<polyline points="77.94,87.18 81,87.18 80.52,87.96 78.36,91.68 77.94,92.46 77.46,91.621 75.36,87.9 74.94,87.18 75.84,87.18 
	76.26,87.419 78.36,91.14 77.46,91.621 77.46,91.14 79.62,87.419 80.52,87.96 80.1,88.201 77.94,88.201 "/>
<rect x="75.84" y="87.18" width="2.1" height="1.021"/>
<polyline points="77.94,87.66 80.1,87.66 77.94,91.38 75.84,87.66 "/>
<rect x="77.7" y="49.62" width="0.48" height="0.24"/>
<rect x="77.7" y="49.86" width="0.48" height="37.56"/>
<text transform="matrix(1 0 0 1 120.48 104.2192)" font-family="'ProductusBook'" font-size="7.98">setURL is called by</text>
<text transform="matrix(1 0 0 1 0 33.3599)" enable-background="new    "><tspan x="0" y="0" font-family="'ProductusBook'" font-size="7.98">called by</tspan><tspan x="0" y="9.576" font-family="'ProductusBook'" font-size="7.98">Java</tspan></text>
<rect x="13.92" y="35.46" width="0.24" height="0.48"/>
<rect x="14.16" y="35.46" width="4.02" height="0.48"/>
<rect x="26.58" y="35.46" width="0.24" height="0.48"/>
<rect x="26.82" y="35.46" width="10.44" height="0.48"/>
<rect x="45.6" y="35.46" width="0.24" height="0.48"/>
<rect x="45.84" y="35.46" width="4.02" height="0.48"/>
</svg>
