<?xml version="1.0" encoding="utf-8"?>
<!-- Generator: Adobe Illustrator 16.0.1, SVG Export Plug-In . SVG Version: 6.00 Build 0)  -->
<!DOCTYPE svg PUBLIC "-//W3C//DTD SVG 1.1//EN" "http://www.w3.org/Graphics/SVG/1.1/DTD/svg11.dtd">
<svg version="1.1" id="Layer_1" xmlns="http://www.w3.org/2000/svg" xmlns:xlink="http://www.w3.org/1999/xlink" x="0px" y="0px"
	 width="340.2px" height="297.66px" viewBox="0 0 340.2 297.66" enable-background="new 0 0 340.2 297.66" xml:space="preserve">
<rect x="85.021" y="168.76" fill="#E6E6E6" width="167.021" height="43.2"/>
<rect x="134.64" y="254.46" fill="#E6E6E6" width="70.92" height="43.2"/>
<rect x="269.28" y="254.46" fill="#E6E6E6" width="70.92" height="43.2"/>
<rect x="134.64" fill="#E6E6E6" width="70.86" height="42.54"/>
<rect x="144.12" y="263.58" width="54.3" height="27"/>
<rect x="144.12" y="263.34" width="54.541" height="0.48"/>
<rect x="198.18" y="263.58" width="0.48" height="27.24"/>
<rect x="143.88" y="290.34" width="54.541" height="0.48"/>
<rect x="143.88" y="263.34" width="0.48" height="27.24"/>
<rect x="141.72" y="261.78" fill="#FFFFFF" width="54.36" height="26.999"/>
<rect x="141.72" y="261.54" width="54.601" height="0.479"/>
<rect x="195.84" y="261.78" width="0.479" height="27.239"/>
<rect x="141.48" y="288.54" width="54.601" height="0.479"/>
<rect x="141.48" y="261.54" width="0.479" height="27.239"/>
<text transform="matrix(1 0 0 1 144.1201 268.9199)" font-family="'ProductusOSGiBookc'" font-size="7.98">JPA Provider Impl</text>
<rect x="84.78" y="276.18" width="0.24" height="0.48"/>
<rect x="85.02" y="276.18" width="56.94" height="0.48"/>
<rect x="191.34" y="240.72" width="0.24" height="0.48"/>
<rect x="190.379" y="240.72" width="0.961" height="0.48"/>
<rect x="186.18" y="240.72" width="0.24" height="0.48"/>
<rect x="184.44" y="240.72" width="1.739" height="0.48"/>
<rect x="180.299" y="240.72" width="0.24" height="0.48"/>
<rect x="178.56" y="240.72" width="1.739" height="0.48"/>
<rect x="174.36" y="240.72" width="0.239" height="0.48"/>
<rect x="172.68" y="240.72" width="1.681" height="0.48"/>
<rect x="168.48" y="240.72" width="0.239" height="0.48"/>
<rect x="166.74" y="240.72" width="1.74" height="0.48"/>
<rect x="162.54" y="240.72" width="0.24" height="0.48"/>
<rect x="160.86" y="240.72" width="1.68" height="0.48"/>
<rect x="156.66" y="240.72" width="0.24" height="0.48"/>
<rect x="155.7" y="240.72" width="0.96" height="0.48"/>
<rect x="144.12" y="8.46" width="54.3" height="27"/>
<rect x="144.12" y="8.22" width="54.541" height="0.48"/>
<rect x="198.18" y="8.46" width="0.48" height="27.24"/>
<rect x="143.88" y="35.22" width="54.541" height="0.48"/>
<rect x="143.88" y="8.22" width="0.48" height="27.24"/>
<rect x="141.72" y="6.66" fill="#FFFFFF" width="54.36" height="27"/>
<rect x="141.72" y="6.42" width="54.601" height="0.48"/>
<rect x="195.84" y="6.66" width="0.479" height="27.24"/>
<rect x="141.48" y="33.42" width="54.601" height="0.48"/>
<rect x="141.48" y="6.42" width="0.479" height="27.24"/>
<text transform="matrix(0.9504 0 0 1 144.1201 13.7998)" font-family="'ProductusOSGiBookc'" font-size="7.98">Client Impl</text>
<rect x="278.76" y="263.58" width="54.299" height="27"/>
<rect x="278.76" y="263.34" width="54.539" height="0.48"/>
<rect x="332.821" y="263.58" width="0.479" height="27.24"/>
<rect x="278.521" y="290.34" width="54.538" height="0.48"/>
<rect x="278.521" y="263.34" width="0.479" height="27.24"/>
<rect x="276.42" y="261.78" fill="#FFFFFF" width="54.299" height="26.999"/>
<rect x="276.42" y="261.54" width="54.539" height="0.479"/>
<rect x="330.481" y="261.78" width="0.479" height="27.239"/>
<rect x="276.18" y="288.54" width="54.539" height="0.479"/>
<rect x="276.18" y="261.54" width="0.48" height="27.239"/>
<text transform="matrix(1 0 0 1 278.7603 268.9199)" font-family="'ProductusOSGiBookc'" font-size="7.98">Container Impl</text>
<rect x="94.5" y="178.561" width="54.3" height="27"/>
<rect x="94.5" y="178.32" width="54.54" height="0.479"/>
<rect x="148.56" y="178.561" width="0.48" height="27.239"/>
<rect x="94.26" y="205.32" width="54.54" height="0.479"/>
<rect x="94.26" y="178.32" width="0.48" height="27.24"/>
<rect x="92.16" y="176.76" fill="#FFFFFF" width="54.3" height="27"/>
<rect x="92.16" y="176.52" width="54.54" height="0.48"/>
<rect x="146.22" y="176.76" width="0.48" height="27.24"/>
<rect x="91.92" y="203.52" width="54.54" height="0.48"/>
<rect x="91.92" y="176.52" width="0.48" height="27.24"/>
<text transform="matrix(0.9504 0 0 1 94.5 183.9004)" enable-background="new    "><tspan x="0" y="0" font-family="'ProductusOSGiBookc'" font-size="7.98">Entity Classes</tspan><tspan x="0" y="9.576" font-family="'ProductusOSGiBookc'" font-size="7.98">Impl</tspan></text>
<text transform="matrix(1 0 0 1 222.9009 255.7197)" enable-background="new    "><tspan x="0" y="0" font-family="'ProductusSemibold'" font-size="7.98">Persistence</tspan><tspan x="0" y="9.576" font-family="'ProductusSemibold'" font-size="7.98">Provider</tspan></text>
<text transform="matrix(1 0 0 1 120.48 121.0801)" enable-background="new    "><tspan x="0" y="0" font-family="'ProductusSemibold'" font-size="7.98">Entity</tspan><tspan x="0" y="9.576" font-family="'ProductusSemibold'" font-size="7.98">Manager</tspan><tspan x="0" y="19.152" font-family="'ProductusSemibold'" font-size="7.98">Factory</tspan></text>
<polyline fill="#FFFFFF" points="205.26,202.68 205.26,174.359 248.04,174.359 248.04,194.58 "/>
<rect x="205.021" y="174.12" width="0.479" height="28.56"/>
<rect x="205.26" y="174.12" width="43.021" height="0.479"/>
<polyline points="248.28,174.359 248.28,194.76 248.1,194.82 205.32,202.92 205.021,202.98 205.021,202.68 205.26,202.439 
	248.04,194.34 248.1,194.82 247.799,194.58 247.799,174.359 "/>
<polyline fill="#FFFFFF" points="197.879,209.34 197.879,180.96 240.661,180.96 240.661,201.24 "/>
<rect x="197.64" y="180.72" width="0.479" height="28.62"/>
<rect x="197.879" y="180.72" width="43.021" height="0.48"/>
<polyline points="240.9,180.96 240.9,201.42 240.72,201.48 197.94,209.58 197.64,209.641 197.64,209.34 197.879,209.1 240.661,201 
	240.72,201.48 240.42,201.24 240.42,180.96 "/>
<text transform="matrix(1 0 0 1 200.4009 189.2998)" enable-background="new    "><tspan x="0" y="0" font-family="'ProductusSemibold'" font-size="7.98">Persistence</tspan><tspan x="0" y="9.576" font-family="'ProductusSemibold'" font-size="7.98">Descriptor</tspan></text>
<rect x="269.28" fill="#E6E6E6" width="70.92" height="42.54"/>
<rect x="278.76" y="8.46" width="54.299" height="27"/>
<rect x="278.76" y="8.22" width="54.539" height="0.48"/>
<rect x="332.821" y="8.46" width="0.479" height="27.24"/>
<rect x="278.521" y="35.22" width="54.538" height="0.48"/>
<rect x="278.521" y="8.22" width="0.479" height="27.24"/>
<rect x="276.42" y="6.66" fill="#FFFFFF" width="54.299" height="27"/>
<rect x="276.42" y="6.42" width="54.539" height="0.48"/>
<rect x="330.481" y="6.66" width="0.479" height="27.24"/>
<rect x="276.18" y="33.42" width="54.539" height="0.48"/>
<rect x="276.18" y="6.42" width="0.48" height="27.24"/>
<text transform="matrix(0.9504 0 0 1 278.7603 13.7998)" enable-background="new    "><tspan x="0" y="0" font-family="'ProductusOSGiBookc'" font-size="7.98">ManagedClient</tspan><tspan x="0" y="9.576" font-family="'ProductusOSGiBookc'" font-size="7.98">Impl</tspan></text>
<rect x="304.5" y="261.24" width="0.479" height="1.26"/>
<rect x="304.5" y="255.3" width="0.479" height="1.98"/>
<rect x="304.5" y="249.3" width="0.479" height="1.98"/>
<rect x="304.5" y="243.359" width="0.479" height="1.979"/>
<rect x="304.5" y="237.359" width="0.479" height="1.979"/>
<rect x="304.5" y="231.42" width="0.479" height="1.98"/>
<rect x="304.5" y="225.42" width="0.479" height="1.98"/>
<rect x="304.5" y="219.48" width="0.479" height="1.979"/>
<rect x="304.5" y="213.48" width="0.479" height="1.979"/>
<rect x="304.5" y="207.54" width="0.479" height="1.979"/>
<rect x="304.5" y="201.6" width="0.479" height="1.92"/>
<rect x="304.5" y="195.6" width="0.479" height="1.98"/>
<rect x="304.5" y="189.66" width="0.479" height="1.98"/>
<rect x="304.5" y="183.66" width="0.479" height="1.98"/>
<rect x="304.5" y="177.72" width="0.479" height="1.98"/>
<rect x="304.5" y="171.72" width="0.479" height="1.98"/>
<rect x="304.5" y="165.78" width="0.479" height="1.979"/>
<rect x="304.5" y="159.78" width="0.479" height="1.979"/>
<rect x="304.5" y="153.84" width="0.479" height="1.98"/>
<rect x="304.5" y="147.84" width="0.479" height="1.98"/>
<rect x="304.5" y="141.9" width="0.479" height="1.98"/>
<rect x="304.5" y="135.96" width="0.479" height="1.92"/>
<rect x="304.5" y="129.96" width="0.479" height="1.98"/>
<rect x="304.5" y="124.02" width="0.479" height="1.92"/>
<rect x="304.5" y="118.02" width="0.479" height="1.98"/>
<rect x="304.5" y="112.08" width="0.479" height="1.98"/>
<rect x="304.5" y="106.08" width="0.479" height="1.98"/>
<rect x="304.5" y="100.14" width="0.479" height="1.98"/>
<rect x="304.5" y="94.14" width="0.479" height="1.98"/>
<rect x="304.5" y="88.2" width="0.479" height="1.98"/>
<rect x="304.5" y="82.2" width="0.479" height="1.98"/>
<rect x="304.5" y="78" width="0.479" height="0.24"/>
<rect x="304.5" y="76.26" width="0.479" height="1.74"/>
<rect x="304.5" y="72" width="0.479" height="0.24"/>
<rect x="304.5" y="70.26" width="0.479" height="1.74"/>
<rect x="304.5" y="66.06" width="0.479" height="0.24"/>
<rect x="304.5" y="64.32" width="0.479" height="1.74"/>
<rect x="304.5" y="60.06" width="0.479" height="0.24"/>
<rect x="304.5" y="58.38" width="0.479" height="1.68"/>
<rect x="304.5" y="54.12" width="0.479" height="0.24"/>
<rect x="304.5" y="52.38" width="0.479" height="1.74"/>
<rect x="304.5" y="48.12" width="0.479" height="0.24"/>
<rect x="304.5" y="46.44" width="0.479" height="1.68"/>
<rect x="304.5" y="42.18" width="0.479" height="0.24"/>
<rect x="304.5" y="40.44" width="0.479" height="1.74"/>
<rect x="304.5" y="36.24" width="0.479" height="0.24"/>
<rect x="304.5" y="35.22" width="0.479" height="1.021"/>
<text transform="matrix(1 0 0 1 170.0996 238.3809)" enable-background="new    "><tspan x="0" y="0" font-family="'ProductusOSGiBookc'" font-size="7.98">unit</tspan><tspan x="0" y="9.576" font-family="'ProductusOSGiBookc'" font-size="7.98">name</tspan></text>
<text transform="matrix(1 0 0 1 299.0591 259.3398)" font-family="'ProductusOSGiBookc'" font-size="7.98">*</text>
<text transform="matrix(1 0 0 1 321.2388 40.6797)" font-family="'ProductusOSGiBookc'" font-size="7.98">*</text>
<rect y="85.08" fill="#E6E6E6" width="70.86" height="42.48"/>
<rect x="9.48" y="93.48" width="54.3" height="27"/>
<rect x="9.48" y="93.24" width="54.54" height="0.479"/>
<rect x="63.54" y="93.48" width="0.48" height="27.24"/>
<rect x="9.24" y="120.24" width="54.54" height="0.479"/>
<rect x="9.24" y="93.24" width="0.48" height="27.24"/>
<rect x="7.08" y="91.68" fill="#FFFFFF" width="54.36" height="27"/>
<rect x="7.08" y="91.44" width="54.6" height="0.48"/>
<rect x="61.2" y="91.68" width="0.48" height="27.24"/>
<rect x="6.84" y="118.44" width="54.6" height="0.48"/>
<rect x="6.84" y="91.44" width="0.48" height="27.24"/>
<text transform="matrix(0.9504 0 0 1 9.48 98.8203)" enable-background="new    "><tspan x="0" y="0" font-family="'ProductusOSGiBookc'" font-size="7.98">Static Persistence</tspan><tspan x="0" y="9.576" font-family="'ProductusOSGiBookc'" font-size="7.98">Impl</tspan></text>
<text transform="matrix(1 0 0 1 45.7202 64.3799)" font-family="'ProductusSemibold'" font-size="7.98">Persistence</text>
<rect fill="#E6E6E6" width="70.86" height="42.54"/>
<rect x="9.48" y="8.46" width="54.3" height="27"/>
<rect x="9.48" y="8.22" width="54.54" height="0.48"/>
<rect x="63.54" y="8.46" width="0.48" height="27.24"/>
<rect x="9.24" y="35.22" width="54.54" height="0.48"/>
<rect x="9.24" y="8.22" width="0.48" height="27.24"/>
<rect x="7.08" y="6.66" fill="#FFFFFF" width="54.36" height="27"/>
<rect x="7.08" y="6.42" width="54.6" height="0.48"/>
<rect x="61.2" y="6.66" width="0.48" height="27.24"/>
<rect x="6.84" y="33.42" width="54.6" height="0.48"/>
<rect x="6.84" y="6.42" width="0.48" height="27.24"/>
<text transform="matrix(0.9504 0 0 1 9.48 13.7998)" font-family="'ProductusOSGiBookc'" font-size="7.98">Static Client Impl</text>
<rect x="63.54" y="276.18" width="1.26" height="0.48"/>
<rect x="68.22" y="276.18" width="1.8" height="0.48"/>
<rect x="73.5" y="276.18" width="1.8" height="0.48"/>
<rect x="78.78" y="276.18" width="1.8" height="0.48"/>
<rect x="84.06" y="276.18" width="1.2" height="0.48"/>
<text transform="matrix(1 0 0 1 56.7002 262.5)" font-family="'ProductusOSGiBookc'" font-size="7.98">Data Source Factory</text>
<rect x="184.021" y="35.22" width="0.479" height="106.8"/>
<polyline fill="#FFFFFF" points="177.18,120.48 184.26,134.7 191.34,120.48 "/>
<polyline points="177.42,120.36 184.5,134.58 184.5,134.82 184.081,134.58 191.161,120.36 191.34,120.24 191.76,120.24 
	191.581,120.6 184.5,134.82 184.32,135.24 184.081,134.82 177,120.6 "/>
<polyline points="191.34,120.72 177.18,120.72 177,120.6 176.82,120.24 191.34,120.24 "/>
<rect x="191.1" y="261.24" width="0.48" height="1.26"/>
<rect x="191.1" y="255.6" width="0.48" height="1.92"/>
<rect x="191.1" y="249.96" width="0.48" height="1.86"/>
<rect x="191.1" y="245.939" width="0.48" height="0.24"/>
<rect x="191.1" y="244.32" width="0.48" height="1.619"/>
<rect x="191.1" y="240.3" width="0.48" height="0.24"/>
<rect x="191.1" y="238.62" width="0.48" height="1.68"/>
<rect x="191.1" y="233.641" width="0.48" height="1.26"/>
<rect x="191.34" y="233.641" width="1.021" height="0.479"/>
<rect x="196.26" y="233.641" width="0.24" height="0.479"/>
<rect x="196.5" y="233.641" width="1.74" height="0.479"/>
<rect x="202.2" y="233.641" width="0.24" height="0.479"/>
<rect x="202.44" y="233.641" width="1.68" height="0.479"/>
<rect x="208.081" y="233.641" width="0.239" height="0.479"/>
<rect x="208.32" y="233.641" width="1.739" height="0.479"/>
<rect x="213.959" y="233.641" width="0.24" height="0.479"/>
<rect x="214.2" y="233.641" width="1.74" height="0.479"/>
<rect x="219.9" y="233.641" width="0.239" height="0.479"/>
<rect x="220.14" y="233.641" width="1.681" height="0.479"/>
<rect x="225.78" y="233.641" width="1.26" height="0.479"/>
<rect x="226.56" y="232.92" width="0.479" height="0.96"/>
<rect x="226.56" y="227.28" width="0.479" height="1.858"/>
<rect x="226.56" y="221.58" width="0.479" height="1.92"/>
<rect x="226.56" y="215.939" width="0.479" height="1.92"/>
<rect x="226.56" y="210.3" width="0.479" height="1.86"/>
<rect x="226.56" y="205.32" width="0.479" height="1.199"/>
<rect x="198.18" y="276.18" width="78.48" height="0.48"/>
<polyline fill="#FFFFFF" points="248.04,269.34 233.879,276.42 248.04,283.5 "/>
<polyline points="248.161,269.58 234,276.66 233.76,276.66 234,276.24 248.161,283.32 248.28,283.5 248.28,283.92 233.28,276.42 
	233.76,276.24 247.92,269.16 "/>
<polyline points="247.799,283.5 247.799,269.34 247.92,269.16 248.28,268.98 248.28,283.5 "/>
<text transform="matrix(1 0 0 1 193.3208 114)" enable-background="new    "><tspan x="0" y="0" font-family="'ProductusSemibold'" font-size="7.98">Entity</tspan><tspan x="0" y="9.576" font-family="'ProductusSemibold'" font-size="7.98">Manager</tspan><tspan x="0" y="19.152" font-family="'ProductusSemibold'" font-size="7.98">Factory</tspan><tspan x="0" y="28.728" font-family="'ProductusSemibold'" font-size="7.98">Builder</tspan></text>
<text transform="matrix(1 0 0 1 77.9404 225.9004)" font-family="'ProductusSemibold'" font-size="7.98">osgi.unit.name=...</text>
<rect x="35.22" y="35.22" width="0.48" height="57.18"/>
<polyline fill="#FFFFFF" points="35.46,56.7 42.54,60.24 42.54,67.38 35.46,70.92 28.32,67.38 28.32,60.24 "/>
<polyline points="35.58,56.52 42.78,60.12 42.78,67.56 42.66,67.62 35.46,71.22 35.34,71.16 28.2,67.62 28.08,67.56 28.08,60.12 
	28.2,60.06 28.56,60.24 28.56,67.38 28.08,67.38 28.44,67.2 35.58,70.74 35.34,71.16 35.34,70.74 42.42,67.2 42.66,67.62 
	42.3,67.38 42.3,60.24 42.78,60.24 42.42,60.48 35.34,56.94 "/>
<polyline points="28.2,60.06 35.34,56.52 35.46,56.46 35.58,56.52 35.58,56.94 28.44,60.48 "/>
<rect x="63.54" y="99" width="120.96" height="0.48"/>
<rect x="63.54" y="113.16" width="92.64" height="0.48"/>
<polyline fill="#FFFFFF" points="99.24,269.34 85.02,276.42 99.24,283.5 "/>
<polyline points="99.36,269.58 85.14,276.66 84.9,276.66 85.14,276.24 99.36,283.32 99.48,283.5 99.48,283.92 99.12,283.74 
	84.9,276.66 84.54,276.48 84.9,276.24 99.12,269.16 "/>
<polyline points="99,283.5 99,269.34 99.12,269.16 99.48,268.98 99.48,283.5 "/>
<polyline points="184.379,142.02 184.62,141.96 184.44,141.48 184.2,141.54 "/>
<polyline points="184.379,142.02 184.2,141.54 162.96,148.62 162.78,148.68 162.78,148.86 163.14,149.1 "/>
<rect x="162.78" y="148.86" width="0.479" height="113.64"/>
<rect x="127.32" y="106.08" fill="#FFFFFF" width="13.8" height="0.48"/>
<rect x="152.34" y="98.34" fill="#FFFFFF" width="7.141" height="4.44"/>
<polyline points="152.1,99.24 152.1,99.48 152.58,99.54 152.58,99.3 "/>
<polyline points="152.1,99.24 152.22,98.52 152.22,98.46 152.4,97.8 152.46,97.74 152.76,97.14 153.24,96.6 153.3,96.54 
	153.78,96.12 154.38,95.82 154.44,95.76 154.62,96.24 154.021,96.54 154.08,96.48 153.6,96.9 153.12,97.44 153.18,97.38 
	152.88,97.98 152.88,97.92 152.7,98.58 152.58,99.3 "/>
<polyline points="154.44,95.76 155.1,95.52 155.16,95.52 155.22,96 155.28,96 154.62,96.24 "/>
<polyline points="155.88,95.46 156.12,95.46 156.18,95.94 155.94,95.94 "/>
<polyline points="155.16,95.52 155.22,96 155.94,95.94 155.88,95.46 "/>
<polyline points="156,95.46 155.76,95.46 155.7,95.94 155.94,95.94 "/>
<polyline points="156,95.46 156.66,95.52 156.72,95.52 157.38,95.76 157.38,95.82 157.98,96.12 158.04,96.12 158.58,96.54 
	158.58,96.6 159,97.14 159.06,97.14 159.36,97.74 159.36,97.8 158.88,97.98 158.94,97.98 158.64,97.38 158.64,97.44 158.22,96.9 
	158.28,96.9 157.74,96.48 157.74,96.54 157.14,96.24 157.2,96.24 156.54,96 156.6,96 155.94,95.94 "/>
<polyline points="159.36,97.8 159.6,98.46 159.6,98.52 159.12,98.58 159.12,98.64 158.88,97.98 "/>
<polyline points="159.66,99.24 159.66,99.48 159.18,99.54 159.18,99.3 "/>
<polyline points="159.6,98.52 159.12,98.58 159.18,99.3 159.66,99.24 "/>
<rect x="155.7" y="35.22" width="0.479" height="227.28"/>
<polyline fill="#FFFFFF" points="148.8,120.48 155.94,134.7 163.021,120.48 "/>
<polyline points="149.04,120.36 156.18,134.58 156.18,134.82 155.76,134.58 162.84,120.36 163.021,120.24 163.44,120.24 
	163.26,120.6 156.18,134.82 156,135.24 155.76,134.82 148.62,120.6 "/>
<polyline points="163.021,120.72 148.8,120.72 148.62,120.6 148.44,120.24 163.021,120.24 "/>
<text transform="matrix(1 0 0 1 77.9399 235.9805)" font-family="'ProductusSemibold'" font-size="7.98">osgi.unit.version=...</text>
<text transform="matrix(1 0 0 1 77.9399 246)" font-family="'ProductusSemibold'" font-size="7.98">osgi.unit.provider=...</text>
<text transform="matrix(-6.123234e-17 -1 1 -6.123234e-17 311.6196 124.7402)" font-family="'ProductusOSGiBookc'" font-size="7.98">injects</text>
</svg>
