<?xml version="1.0" encoding="utf-8"?>
<!-- Generator: Adobe Illustrator 16.0.1, SVG Export Plug-In . SVG Version: 6.00 Build 0)  -->
<!DOCTYPE svg PUBLIC "-//W3C//DTD SVG 1.1//EN" "http://www.w3.org/Graphics/SVG/1.1/DTD/svg11.dtd">
<svg version="1.1" id="Layer_1" xmlns="http://www.w3.org/2000/svg" xmlns:xlink="http://www.w3.org/1999/xlink" x="0px" y="0px"
	 width="269.76px" height="156.42px" viewBox="0 0 269.76 156.42" enable-background="new 0 0 269.76 156.42" xml:space="preserve">
<rect x="179.76" y="2.04" width="54.36" height="26.58"/>
<rect x="179.76" y="1.8" width="54.601" height="0.48"/>
<rect x="233.88" y="2.04" width="0.48" height="26.82"/>
<rect x="179.521" y="28.38" width="54.601" height="0.48"/>
<rect x="179.521" y="1.8" width="0.479" height="26.82"/>
<rect x="177.42" y="0.24" fill="#FFFFFF" width="54.302" height="26.58"/>
<rect x="177.42" width="54.54" height="0.48"/>
<rect x="231.479" y="0.24" width="0.479" height="26.82"/>
<rect x="177.181" y="26.58" width="54.541" height="0.48"/>
<rect x="177.181" width="0.479" height="26.82"/>
<text transform="matrix(0.9504 0 0 1 179.7598 7.3799)" font-family="'ProductusOSGiBookc'" font-size="7.98">Bundle B</text>
<rect x="38.04" y="2.04" width="54.36" height="26.58"/>
<rect x="38.04" y="1.8" width="54.6" height="0.48"/>
<rect x="92.16" y="2.04" width="0.48" height="26.82"/>
<rect x="37.8" y="28.38" width="54.6" height="0.48"/>
<rect x="37.8" y="1.8" width="0.48" height="26.82"/>
<rect x="35.7" y="0.24" fill="#FFFFFF" width="54.3" height="26.58"/>
<rect x="35.7" width="54.54" height="0.48"/>
<rect x="89.76" y="0.24" width="0.48" height="26.82"/>
<rect x="35.46" y="26.58" width="54.54" height="0.48"/>
<rect x="35.46" width="0.48" height="26.82"/>
<text transform="matrix(0.9504 0 0 1 38.04 7.3799)" font-family="'ProductusOSGiBookc'" font-size="7.98">Bundle A</text>
<rect x="38.04" y="44.52" width="54.36" height="26.58"/>
<rect x="38.04" y="44.28" width="54.6" height="0.479"/>
<rect x="92.16" y="44.52" width="0.48" height="26.82"/>
<rect x="37.8" y="70.86" width="54.6" height="0.48"/>
<rect x="37.8" y="44.28" width="0.48" height="26.82"/>
<rect x="35.7" y="42.78" fill="#FFFFFF" width="54.3" height="26.58"/>
<rect x="35.7" y="42.54" width="54.54" height="0.48"/>
<rect x="89.76" y="42.78" width="0.48" height="26.82"/>
<rect x="35.46" y="69.12" width="54.54" height="0.48"/>
<rect x="35.46" y="42.54" width="0.48" height="26.82"/>
<text transform="matrix(1 0 0 1 38.04 49.8604)" enable-background="new    "><tspan x="0" y="0" font-family="'ProductusSemibold'" font-size="7.98">Bundle</tspan><tspan x="0" y="9.576" font-family="'ProductusSemibold'" font-size="7.98">Revision</tspan></text>
<text transform="matrix(0.9504 0 0 1 38.04 66.8799)" font-family="'ProductusOSGiBookc'" font-size="7.98">A.0</text>
<rect x="179.76" y="44.52" width="54.36" height="26.58"/>
<rect x="179.76" y="44.28" width="54.601" height="0.479"/>
<rect x="233.88" y="44.52" width="0.48" height="26.82"/>
<rect x="179.521" y="70.86" width="54.601" height="0.48"/>
<rect x="179.521" y="44.28" width="0.479" height="26.82"/>
<rect x="177.42" y="42.78" fill="#FFFFFF" width="54.302" height="26.58"/>
<rect x="177.42" y="42.54" width="54.54" height="0.48"/>
<rect x="231.479" y="42.78" width="0.479" height="26.82"/>
<rect x="177.181" y="69.12" width="54.541" height="0.48"/>
<rect x="177.181" y="42.54" width="0.479" height="26.82"/>
<text transform="matrix(1 0 0 1 179.7598 49.8604)" enable-background="new    "><tspan x="0" y="0" font-family="'ProductusSemibold'" font-size="7.98">Bundle</tspan><tspan x="0" y="9.576" font-family="'ProductusSemibold'" font-size="7.98">Revision</tspan></text>
<text transform="matrix(0.9504 0 0 1 179.7598 67.9004)" font-family="'ProductusOSGiBookc'" font-size="7.98">B.0</text>
<rect x="2.64" y="87.06" width="54.3" height="26.58"/>
<rect x="2.64" y="86.819" width="54.54" height="0.48"/>
<rect x="56.7" y="87.06" width="0.48" height="26.82"/>
<rect x="2.4" y="113.399" width="54.54" height="0.48"/>
<rect x="2.4" y="86.819" width="0.48" height="26.82"/>
<rect x="0.24" y="85.319" fill="#FFFFFF" width="54.36" height="26.521"/>
<rect x="0.24" y="85.08" width="54.6" height="0.479"/>
<rect x="54.36" y="85.319" width="0.48" height="26.761"/>
<rect y="111.601" width="54.6" height="0.479"/>
<rect y="85.08" width="0.48" height="26.76"/>
<text transform="matrix(1 0 0 1 2.6401 92.4004)" font-family="'ProductusSemibold'" font-size="7.98">Bundle Wiring</text>
<text transform="matrix(0.9504 0 0 1 2.6401 100.9199)" font-family="'ProductusOSGiBookc'" font-size="7.98">A.0</text>
<rect x="215.222" y="87.06" width="54.299" height="26.58"/>
<rect x="215.222" y="86.819" width="54.538" height="0.48"/>
<rect x="269.28" y="87.06" width="0.479" height="26.82"/>
<rect x="214.979" y="113.399" width="54.541" height="0.48"/>
<rect x="214.979" y="86.819" width="0.479" height="26.82"/>
<rect x="212.88" y="85.319" fill="#FFFFFF" width="54.301" height="26.521"/>
<rect x="212.88" y="85.08" width="54.54" height="0.479"/>
<rect x="266.94" y="85.319" width="0.479" height="26.761"/>
<rect x="212.642" y="111.601" width="54.539" height="0.479"/>
<rect x="212.642" y="85.08" width="0.479" height="26.76"/>
<text transform="matrix(1 0 0 1 215.2207 92.4004)" font-family="'ProductusSemibold'" font-size="7.98">Bundle Wiring</text>
<text transform="matrix(0.9504 0 0 1 215.2207 100.9199)" font-family="'ProductusOSGiBookc'" font-size="7.98">B.0</text>
<rect x="108.9" y="129.601" width="54.359" height="26.58"/>
<rect x="108.9" y="129.36" width="54.6" height="0.479"/>
<rect x="163.021" y="129.601" width="0.479" height="26.819"/>
<rect x="108.66" y="155.94" width="54.6" height="0.479"/>
<rect x="108.66" y="129.36" width="0.48" height="26.82"/>
<rect x="106.56" y="127.8" fill="#FFFFFF" width="54.3" height="26.58"/>
<rect x="106.56" y="127.56" width="54.541" height="0.48"/>
<rect x="160.62" y="127.8" width="0.48" height="26.82"/>
<rect x="106.32" y="154.14" width="54.541" height="0.48"/>
<rect x="106.32" y="127.56" width="0.48" height="26.82"/>
<text transform="matrix(1 0 0 1 108.9004 134.9395)" font-family="'ProductusSemibold'" font-size="7.98">Wire</text>
<rect x="73.5" y="87.06" width="54.3" height="26.58"/>
<rect x="73.5" y="86.819" width="54.54" height="0.48"/>
<rect x="127.561" y="87.06" width="0.479" height="26.82"/>
<rect x="73.26" y="113.399" width="54.54" height="0.48"/>
<rect x="73.26" y="86.819" width="0.48" height="26.82"/>
<rect x="71.1" y="85.319" fill="#FFFFFF" width="54.36" height="26.521"/>
<rect x="71.1" y="85.08" width="54.6" height="0.479"/>
<rect x="125.221" y="85.319" width="0.479" height="26.761"/>
<rect x="70.86" y="111.601" width="54.6" height="0.479"/>
<rect x="70.86" y="85.08" width="0.48" height="26.76"/>
<text transform="matrix(1 0 0 1 73.5 92.4004)" font-family="'ProductusSemibold'" font-size="7.98">Requirement</text>
<rect x="144.36" y="87.06" width="54.3" height="26.58"/>
<rect x="144.36" y="86.819" width="54.539" height="0.48"/>
<rect x="198.42" y="87.06" width="0.479" height="26.82"/>
<rect x="144.12" y="113.399" width="54.54" height="0.48"/>
<rect x="144.12" y="86.819" width="0.48" height="26.82"/>
<rect x="141.96" y="85.319" fill="#FFFFFF" width="54.359" height="26.521"/>
<rect x="141.96" y="85.08" width="54.602" height="0.479"/>
<rect x="196.08" y="85.319" width="0.479" height="26.761"/>
<rect x="141.722" y="111.601" width="54.6" height="0.479"/>
<rect x="141.722" y="85.08" width="0.479" height="26.76"/>
<text transform="matrix(1 0 0 1 144.3604 92.4004)" font-family="'ProductusSemibold'" font-size="7.98">Capability</text>
<rect x="63.78" y="28.38" width="0.48" height="0.24"/>
<rect x="63.78" y="28.62" width="0.48" height="14.4"/>
<rect x="205.5" y="28.38" width="0.479" height="0.24"/>
<rect x="205.5" y="28.62" width="0.479" height="14.4"/>
<rect x="184.26" y="70.86" width="0.48" height="0.24"/>
<rect x="184.26" y="71.1" width="0.48" height="14.459"/>
<rect x="226.8" y="70.86" width="0.48" height="0.24"/>
<rect x="226.8" y="71.1" width="0.48" height="14.459"/>
<rect x="42.54" y="70.86" width="0.48" height="0.24"/>
<rect x="42.54" y="71.1" width="0.48" height="14.459"/>
<rect x="85.08" y="70.86" width="0.48" height="0.24"/>
<rect x="85.08" y="71.1" width="0.48" height="14.459"/>
<rect x="155.94" y="113.399" width="0.479" height="0.24"/>
<rect x="155.94" y="113.64" width="0.479" height="14.4"/>
<rect x="113.4" y="113.399" width="0.48" height="0.24"/>
<rect x="113.4" y="113.64" width="0.48" height="14.4"/>
<rect x="163.021" y="141.72" width="78.42" height="0.48"/>
<rect x="240.96" y="113.399" width="0.48" height="28.561"/>
<rect x="28.38" y="141.72" width="78.42" height="0.48"/>
<rect x="28.38" y="113.399" width="0.48" height="28.561"/>
<rect x="212.88" y="99.24" width="0.24" height="0.479"/>
<rect x="198.42" y="99.24" width="14.46" height="0.479"/>
<rect x="71.1" y="99.24" width="0.24" height="0.479"/>
<rect x="56.7" y="99.24" width="14.4" height="0.479"/>
</svg>
