<?xml version="1.0" encoding="utf-8"?>
<!-- Generator: Adobe Illustrator 16.0.0, SVG Export Plug-In . SVG Version: 6.00 Build 0)  -->
<!DOCTYPE svg PUBLIC "-//W3C//DTD SVG 1.1//EN" "http://www.w3.org/Graphics/SVG/1.1/DTD/svg11.dtd">
<svg version="1.1" id="Layer_1" xmlns="http://www.w3.org/2000/svg" xmlns:xlink="http://www.w3.org/1999/xlink" x="0px" y="0px"
	 width="383.161px" height="255.6px" viewBox="0 0 383.161 255.6" style="enable-background:new 0 0 383.161 255.6;"
	 xml:space="preserve">
<rect x="2.58" y="58.74" width="54.36" height="26.58"/>
<rect x="2.58" y="58.5" width="54.6" height="0.48"/>
<rect x="56.7" y="58.74" width="0.48" height="26.82"/>
<rect x="2.34" y="85.08" width="54.6" height="0.48"/>
<rect x="2.34" y="58.5" width="0.48" height="26.82"/>
<rect x="0.24" y="56.94" style="fill:#FFFFFF;" width="54.3" height="26.58"/>
<rect x="0.24" y="56.7" width="54.54" height="0.48"/>
<rect x="54.3" y="56.94" width="0.48" height="26.82"/>
<rect y="83.28" width="54.54" height="0.48"/>
<rect y="56.7" width="0.48" height="26.82"/>
<text transform="matrix(1 0 0 1 2.5801 64.0801)"><tspan x="0" y="0" style="font-family:'ProductusSemibold'; font-size:7.98;">Bu</tspan><tspan x="8.53" y="0" style="font-family:'ProductusSemibold'; font-size:7.98;">n</tspan><tspan x="12.848" y="0" style="font-family:'ProductusSemibold'; font-size:7.98;">dle</tspan><tspan x="23.445" y="0" style="font-family:'ProductusSemibold'; font-size:7.98;"> </tspan></text>
<text transform="matrix(1 0 0 1 2.5801 72.0601)"><tspan x="0" y="0" style="font-family:'ProductusSemibold'; font-size:7.98;">R</tspan><tspan x="4.253" y="0" style="font-family:'ProductusSemibold'; font-size:7.98;">e</tspan><tspan x="8.331" y="0" style="font-family:'ProductusSemibold'; font-size:7.98;">v</tspan><tspan x="12.345" y="0" style="font-family:'ProductusSemibold'; font-size:7.98;">i</tspan><tspan x="14.563" y="0" style="font-family:'ProductusSemibold'; font-size:7.98;">s</tspan><tspan x="17.859" y="0" style="font-family:'ProductusSemibold'; font-size:7.98;">i</tspan><tspan x="20.077" y="0" style="font-family:'ProductusSemibold'; font-size:7.98;">o</tspan><tspan x="24.394" y="0" style="font-family:'ProductusSemibold'; font-size:7.98;">n</tspan></text>
<text transform="matrix(1 0 0 1.0522 2.5801 80.04)"><tspan x="0" y="0" style="font-family:'ProductusOSGiBookc'; font-size:7.5841;">A</tspan><tspan x="3.837" y="0" style="font-family:'ProductusOSGiBookc'; font-size:7.5841;">.</tspan><tspan x="5.278" y="0" style="font-family:'ProductusOSGiBookc'; font-size:7.5841;">0</tspan></text>
<rect x="165.6" y="228.78" width="54.36" height="26.58"/>
<rect x="165.6" y="228.54" width="54.601" height="0.48"/>
<rect x="219.72" y="228.78" width="0.48" height="26.82"/>
<rect x="165.36" y="255.12" width="54.601" height="0.48"/>
<rect x="165.36" y="228.54" width="0.48" height="26.82"/>
<rect x="163.26" y="227.04" style="fill:#FFFFFF;" width="54.3" height="26.58"/>
<rect x="163.26" y="226.8" width="54.54" height="0.48"/>
<rect x="217.32" y="227.04" width="0.48" height="26.82"/>
<rect x="163.02" y="253.38" width="54.54" height="0.48"/>
<rect x="163.02" y="226.8" width="0.48" height="26.82"/>
<text transform="matrix(1 0 0 1 165.6001 234.1201)"><tspan x="0" y="0" style="font-family:'ProductusSemibold'; font-size:7.98;">B</tspan><tspan x="4.317" y="0" style="font-family:'ProductusSemibold'; font-size:7.98;">un</tspan><tspan x="12.84" y="0" style="font-family:'ProductusSemibold'; font-size:7.98;">d</tspan><tspan x="17.213" y="0" style="font-family:'ProductusSemibold'; font-size:7.98;">le</tspan><tspan x="23.492" y="0" style="font-family:'ProductusSemibold'; font-size:7.98;"> </tspan></text>
<text transform="matrix(1 0 0 1 165.6001 242.6401)"><tspan x="0" y="0" style="font-family:'ProductusSemibold'; font-size:7.98;">R</tspan><tspan x="4.253" y="0" style="font-family:'ProductusSemibold'; font-size:7.98;">e</tspan><tspan x="8.387" y="0" style="font-family:'ProductusSemibold'; font-size:7.98;">v</tspan><tspan x="12.4" y="0" style="font-family:'ProductusSemibold'; font-size:7.98;">i</tspan><tspan x="14.556" y="0" style="font-family:'ProductusSemibold'; font-size:7.98;">s</tspan><tspan x="17.915" y="0" style="font-family:'ProductusSemibold'; font-size:7.98;">i</tspan><tspan x="20.069" y="0" style="font-family:'ProductusSemibold'; font-size:7.98;">o</tspan><tspan x="24.442" y="0" style="font-family:'ProductusSemibold'; font-size:7.98;">n</tspan></text>
<text transform="matrix(1 0 0 1.0522 165.6001 251.1597)"><tspan x="0" y="0" style="font-family:'ProductusOSGiBookc'; font-size:7.5841;">C,</tspan><tspan x="5.695" y="0" style="font-family:'ProductusOSGiBookc'; font-size:7.5841;">0</tspan></text>
<rect x="123.06" y="58.74" width="54.36" height="26.58"/>
<rect x="123.06" y="58.5" width="54.601" height="0.48"/>
<rect x="177.18" y="58.74" width="0.48" height="26.82"/>
<rect x="122.82" y="85.08" width="54.6" height="0.48"/>
<rect x="122.82" y="58.5" width="0.48" height="26.82"/>
<rect x="120.72" y="56.94" style="fill:#FFFFFF;" width="54.3" height="26.58"/>
<rect x="120.72" y="56.7" width="54.54" height="0.48"/>
<rect x="174.78" y="56.94" width="0.48" height="26.82"/>
<rect x="120.48" y="83.28" width="54.54" height="0.48"/>
<rect x="120.48" y="56.7" width="0.48" height="26.82"/>
<text transform="matrix(1 0 0 1 123.0601 64.0801)"><tspan x="0" y="0" style="font-family:'ProductusSemibold'; font-size:7.98;">Bu</tspan><tspan x="8.53" y="0" style="font-family:'ProductusSemibold'; font-size:7.98;">n</tspan><tspan x="12.848" y="0" style="font-family:'ProductusSemibold'; font-size:7.98;">dle</tspan><tspan x="23.445" y="0" style="font-family:'ProductusSemibold'; font-size:7.98;"> </tspan><tspan x="25.424" y="0" style="font-family:'ProductusSemibold'; font-size:7.98;">Wir</tspan><tspan x="37.976" y="0" style="font-family:'ProductusSemibold'; font-size:7.98;">i</tspan><tspan x="40.194" y="0" style="font-family:'ProductusSemibold'; font-size:7.98;">n</tspan><tspan x="44.455" y="0" style="font-family:'ProductusSemibold'; font-size:7.98;">g</tspan></text>
<text transform="matrix(1 0 0 1.0522 123.0601 72.0601)"><tspan x="0" y="0" style="font-family:'ProductusOSGiBookc'; font-size:7.5841;">A</tspan><tspan x="3.837" y="0" style="font-family:'ProductusOSGiBookc'; font-size:7.5841;">.</tspan><tspan x="5.278" y="0" style="font-family:'ProductusOSGiBookc'; font-size:7.5841;">0</tspan><tspan x="8.987" y="0" style="font-family:'ProductusOSGiBookc'; font-size:7.5841;"> </tspan><tspan x="10.489" y="0" style="font-family:'ProductusOSGiBookc'; font-size:7.5841;">(</tspan><tspan x="12.703" y="0" style="font-family:'ProductusOSGiBookc'; font-size:7.5841;">h</tspan><tspan x="16.124" y="0" style="font-family:'ProductusOSGiBookc'; font-size:7.5841;">os</tspan><tspan x="22.357" y="0" style="font-family:'ProductusOSGiBookc'; font-size:7.5841;">t</tspan><tspan x="24.519" y="0" style="font-family:'ProductusOSGiBookc'; font-size:7.5841;">)</tspan></text>
<rect x="208.14" y="58.74" width="54.3" height="26.58"/>
<rect x="208.14" y="58.5" width="54.54" height="0.48"/>
<rect x="262.201" y="58.74" width="0.479" height="26.82"/>
<rect x="207.9" y="85.08" width="54.54" height="0.48"/>
<rect x="207.9" y="58.5" width="0.48" height="26.82"/>
<rect x="205.74" y="56.94" style="fill:#FFFFFF;" width="54.36" height="26.58"/>
<rect x="205.74" y="56.7" width="54.601" height="0.48"/>
<rect x="259.86" y="56.94" width="0.48" height="26.82"/>
<rect x="205.5" y="83.28" width="54.6" height="0.48"/>
<rect x="205.5" y="56.7" width="0.479" height="26.82"/>
<text transform="matrix(1 0 0 1 208.1401 64.0801)"><tspan x="0" y="0" style="font-family:'ProductusSemibold'; font-size:7.98;">B</tspan><tspan x="4.27" y="0" style="font-family:'ProductusSemibold'; font-size:7.98;">u</tspan><tspan x="8.586" y="0" style="font-family:'ProductusSemibold'; font-size:7.98;">ndle</tspan><tspan x="23.444" y="0" style="font-family:'ProductusSemibold'; font-size:7.98;"> </tspan><tspan x="25.479" y="0" style="font-family:'ProductusSemibold'; font-size:7.98;">Wirin</tspan><tspan x="44.455" y="0" style="font-family:'ProductusSemibold'; font-size:7.98;">g</tspan></text>
<text transform="matrix(1 0 0 1.0522 208.1401 72.0601)"><tspan x="0" y="0" style="font-family:'ProductusOSGiBookc'; font-size:7.5841;">B</tspan><tspan x="3.353" y="0" style="font-family:'ProductusOSGiBookc'; font-size:7.5841;">.</tspan><tspan x="4.793" y="0" style="font-family:'ProductusOSGiBookc'; font-size:7.5841;">0</tspan><tspan x="8.509" y="0" style="font-family:'ProductusOSGiBookc'; font-size:7.5841;"> </tspan><tspan x="10.064" y="0" style="font-family:'ProductusOSGiBookc'; font-size:7.5841;">(</tspan><tspan x="12.051" y="0" style="font-family:'ProductusOSGiBookc'; font-size:7.5841;">f</tspan><tspan x="13.97" y="0" style="font-family:'ProductusOSGiBookc'; font-size:7.5841;">rag</tspan><tspan x="22.502" y="0" style="font-family:'ProductusOSGiBookc'; font-size:7.5841;">m</tspan><tspan x="27.909" y="0" style="font-family:'ProductusOSGiBookc'; font-size:7.5841;">en</tspan><tspan x="34.689" y="0" style="font-family:'ProductusOSGiBookc'; font-size:7.5841;">t</tspan><tspan x="36.851" y="0" style="font-family:'ProductusOSGiBookc'; font-size:7.5841;">)</tspan></text>
<rect x="243.541" y="2.04" width="54.359" height="26.58"/>
<rect x="243.541" y="1.8" width="54.6" height="0.48"/>
<rect x="297.661" y="2.04" width="0.479" height="26.82"/>
<rect x="243.3" y="28.38" width="54.6" height="0.48"/>
<rect x="243.3" y="1.8" width="0.479" height="26.82"/>
<rect x="241.201" y="0.24" style="fill:#FFFFFF;" width="54.3" height="26.58"/>
<rect x="241.201" width="54.539" height="0.48"/>
<rect x="295.26" y="0.24" width="0.479" height="26.82"/>
<rect x="240.96" y="26.58" width="54.54" height="0.48"/>
<rect x="240.96" width="0.479" height="26.82"/>
<text transform="matrix(1 0 0 1 243.5405 7.3799)"><tspan x="0" y="0" style="font-family:'ProductusSemibold'; font-size:7.98;">R</tspan><tspan x="4.253" y="0" style="font-family:'ProductusSemibold'; font-size:7.98;">e</tspan><tspan x="8.387" y="0" style="font-family:'ProductusSemibold'; font-size:7.98;">qui</tspan><tspan x="19.159" y="0" style="font-family:'ProductusSemibold'; font-size:7.98;">r</tspan><tspan x="22.032" y="0" style="font-family:'ProductusSemibold'; font-size:7.98;">emen</tspan><tspan x="40.977" y="0" style="font-family:'ProductusSemibold'; font-size:7.98;">t</tspan></text>
<text transform="matrix(1 0 0 1.0522 243.5405 15.3599)"><tspan x="0" y="0" style="font-family:'ProductusOSGiBookc'; font-size:7.5841;">(..host=</tspan><tspan x="20.658" y="0" style="font-family:'ProductusOSGiBookc'; font-size:7.5841;">A</tspan><tspan x="24.321" y="0" style="font-family:'ProductusOSGiBookc'; font-size:7.5841;">)</tspan></text>
<rect x="243.541" y="115.44" width="54.359" height="26.52"/>
<rect x="243.541" y="115.2" width="54.6" height="0.48"/>
<rect x="297.661" y="115.44" width="0.479" height="26.76"/>
<rect x="243.3" y="141.72" width="54.6" height="0.48"/>
<rect x="243.3" y="115.2" width="0.479" height="26.76"/>
<rect x="241.201" y="113.64" style="fill:#FFFFFF;" width="54.3" height="26.58"/>
<rect x="241.201" y="113.4" width="54.539" height="0.48"/>
<rect x="295.26" y="113.64" width="0.479" height="26.82"/>
<rect x="240.96" y="139.98" width="54.54" height="0.48"/>
<rect x="240.96" y="113.4" width="0.479" height="26.82"/>
<text transform="matrix(1 0 0 1 243.5405 120.7197)"><tspan x="0" y="0" style="font-family:'ProductusSemibold'; font-size:7.98;">Bu</tspan><tspan x="8.53" y="0" style="font-family:'ProductusSemibold'; font-size:7.98;">n</tspan><tspan x="12.848" y="0" style="font-family:'ProductusSemibold'; font-size:7.98;">dle</tspan><tspan x="23.444" y="0" style="font-family:'ProductusSemibold'; font-size:7.98;"> </tspan></text>
<text transform="matrix(1 0 0 1 243.5405 128.7598)"><tspan x="0" y="0" style="font-family:'ProductusSemibold'; font-size:7.98;">C</tspan><tspan x="4.796" y="0" style="font-family:'ProductusSemibold'; font-size:7.98;">apabilit</tspan><tspan x="30.993" y="0" style="font-family:'ProductusSemibold'; font-size:7.98;">y</tspan></text>
<text transform="matrix(1 0 0 1.0522 243.5405 136.7397)"><tspan x="0" y="0" style="font-family:'ProductusOSGiBookc'; font-size:7.5841;">.</tspan><tspan x="1.441" y="0" style="font-family:'ProductusOSGiBookc'; font-size:7.5841;">.</tspan><tspan x="2.935" y="0" style="font-family:'ProductusOSGiBookc'; font-size:7.5841;">pa</tspan><tspan x="9.533" y="0" style="font-family:'ProductusOSGiBookc'; font-size:7.5841;">c</tspan><tspan x="12.468" y="0" style="font-family:'ProductusOSGiBookc'; font-size:7.5841;">k</tspan><tspan x="15.472" y="0" style="font-family:'ProductusOSGiBookc'; font-size:7.5841;">a</tspan><tspan x="18.543" y="0" style="font-family:'ProductusOSGiBookc'; font-size:7.5841;">g</tspan><tspan x="21.896" y="0" style="font-family:'ProductusOSGiBookc'; font-size:7.5841;">e=p</tspan></text>
<rect x="165.6" y="2.04" width="54.36" height="26.58"/>
<rect x="165.6" y="1.8" width="54.601" height="0.48"/>
<rect x="219.72" y="2.04" width="0.48" height="26.82"/>
<rect x="165.36" y="28.38" width="54.601" height="0.48"/>
<rect x="165.36" y="1.8" width="0.48" height="26.82"/>
<rect x="163.26" y="0.24" style="fill:#FFFFFF;" width="54.3" height="26.58"/>
<rect x="163.26" width="54.54" height="0.48"/>
<rect x="217.32" y="0.24" width="0.48" height="26.82"/>
<rect x="163.02" y="26.58" width="54.54" height="0.48"/>
<rect x="163.02" width="0.48" height="26.82"/>
<text transform="matrix(1 0 0 1 165.6001 7.3799)"><tspan x="0" y="0" style="font-family:'ProductusSemibold'; font-size:7.98;">Wi</tspan><tspan x="9.592" y="0" style="font-family:'ProductusSemibold'; font-size:7.98;">r</tspan><tspan x="12.528" y="0" style="font-family:'ProductusSemibold'; font-size:7.98;">e</tspan></text>
<text transform="matrix(1 0 0 1.0522 165.6001 15.8398)"><tspan x="0" y="0" style="font-family:'ProductusOSGiBookc'; font-size:7.5841;">(host</tspan><tspan x="14.083" y="0" style="font-family:'ProductusOSGiBookc'; font-size:7.5841;"> </tspan><tspan x="15.585" y="0" style="font-family:'ProductusOSGiBookc'; font-size:7.5841;">wi</tspan><tspan x="21.826" y="0" style="font-family:'ProductusOSGiBookc'; font-size:7.5841;">r</tspan><tspan x="23.813" y="0" style="font-family:'ProductusOSGiBookc'; font-size:7.5841;">e</tspan><tspan x="26.756" y="0" style="font-family:'ProductusOSGiBookc'; font-size:7.5841;">)</tspan></text>
<rect x="87.66" y="2.04" width="54.3" height="26.58"/>
<rect x="87.66" y="1.8" width="54.54" height="0.48"/>
<rect x="141.72" y="2.04" width="0.48" height="26.82"/>
<rect x="87.42" y="28.38" width="54.54" height="0.48"/>
<rect x="87.42" y="1.8" width="0.48" height="26.82"/>
<rect x="85.26" y="0.24" style="fill:#FFFFFF;" width="54.36" height="26.58"/>
<rect x="85.26" width="54.6" height="0.48"/>
<rect x="139.38" y="0.24" width="0.48" height="26.82"/>
<rect x="85.02" y="26.58" width="54.6" height="0.48"/>
<rect x="85.02" width="0.48" height="26.82"/>
<text transform="matrix(1 0 0 1 87.6602 7.3799)"><tspan x="0" y="0" style="font-family:'ProductusSemibold'; font-size:7.98;">C</tspan><tspan x="4.86" y="0" style="font-family:'ProductusSemibold'; font-size:7.98;">a</tspan><tspan x="8.818" y="0" style="font-family:'ProductusSemibold'; font-size:7.98;">p</tspan><tspan x="13.071" y="0" style="font-family:'ProductusSemibold'; font-size:7.98;">a</tspan><tspan x="17.029" y="0" style="font-family:'ProductusSemibold'; font-size:7.98;">b</tspan><tspan x="21.346" y="0" style="font-family:'ProductusSemibold'; font-size:7.98;">i</tspan><tspan x="23.5" y="0" style="font-family:'ProductusSemibold'; font-size:7.98;">l</tspan><tspan x="25.719" y="0" style="font-family:'ProductusSemibold'; font-size:7.98;">i</tspan><tspan x="27.874" y="0" style="font-family:'ProductusSemibold'; font-size:7.98;">t</tspan><tspan x="30.994" y="0" style="font-family:'ProductusSemibold'; font-size:7.98;">y</tspan></text>
<text transform="matrix(1 0 0 1 87.6602 15.3599)"><tspan x="0" y="0" style="font-family:'ProductusSemibold'; font-size:7.98;">h</tspan><tspan x="4.261" y="0" style="font-family:'ProductusSemibold'; font-size:7.98;">o</tspan><tspan x="8.634" y="0" style="font-family:'ProductusSemibold'; font-size:7.98;">st=</tspan><tspan x="19.208" y="0" style="font-family:'ProductusSemibold'; font-size:7.98;">A</tspan></text>
<rect x="165.6" y="172.08" width="54.36" height="26.58"/>
<rect x="165.6" y="171.84" width="54.601" height="0.48"/>
<rect x="219.72" y="172.08" width="0.48" height="26.82"/>
<rect x="165.36" y="198.42" width="54.601" height="0.48"/>
<rect x="165.36" y="171.84" width="0.48" height="26.82"/>
<rect x="163.26" y="170.34" style="fill:#FFFFFF;" width="54.3" height="26.58"/>
<rect x="163.26" y="170.1" width="54.54" height="0.48"/>
<rect x="217.32" y="170.34" width="0.48" height="26.82"/>
<rect x="163.02" y="196.68" width="54.54" height="0.48"/>
<rect x="163.02" y="170.1" width="0.48" height="26.82"/>
<text transform="matrix(1 0 0 1 165.6001 177.4199)"><tspan x="0" y="0" style="font-family:'ProductusSemibold'; font-size:7.98;">B</tspan><tspan x="4.317" y="0" style="font-family:'ProductusSemibold'; font-size:7.98;">un</tspan><tspan x="12.84" y="0" style="font-family:'ProductusSemibold'; font-size:7.98;">d</tspan><tspan x="17.213" y="0" style="font-family:'ProductusSemibold'; font-size:7.98;">le</tspan><tspan x="23.492" y="0" style="font-family:'ProductusSemibold'; font-size:7.98;"> </tspan><tspan x="25.472" y="0" style="font-family:'ProductusSemibold'; font-size:7.98;">Wiri</tspan><tspan x="40.187" y="0" style="font-family:'ProductusSemibold'; font-size:7.98;">n</tspan><tspan x="44.503" y="0" style="font-family:'ProductusSemibold'; font-size:7.98;">g</tspan></text>
<text transform="matrix(1 0 0 1.0522 165.6001 185.46)"><tspan x="0" y="0" style="font-family:'ProductusOSGiBookc'; font-size:7.5841;">C.</tspan><tspan x="5.695" y="0" style="font-family:'ProductusOSGiBookc'; font-size:7.5841;">0</tspan></text>
<rect x="87.66" y="115.44" width="54.3" height="26.52"/>
<rect x="87.66" y="115.2" width="54.54" height="0.48"/>
<rect x="141.72" y="115.44" width="0.48" height="26.76"/>
<rect x="87.42" y="141.72" width="54.54" height="0.48"/>
<rect x="87.42" y="115.2" width="0.48" height="26.76"/>
<rect x="85.26" y="113.64" style="fill:#FFFFFF;" width="54.36" height="26.58"/>
<rect x="85.26" y="113.4" width="54.6" height="0.48"/>
<rect x="139.38" y="113.64" width="0.48" height="26.82"/>
<rect x="85.02" y="139.98" width="54.6" height="0.48"/>
<rect x="85.02" y="113.4" width="0.48" height="26.82"/>
<text transform="matrix(1 0 0 1 87.6602 120.7197)"><tspan x="0" y="0" style="font-family:'ProductusSemibold'; font-size:7.98;">B</tspan><tspan x="4.261" y="0" style="font-family:'ProductusSemibold'; font-size:7.98;">u</tspan><tspan x="8.578" y="0" style="font-family:'ProductusSemibold'; font-size:7.98;">nd</tspan><tspan x="17.141" y="0" style="font-family:'ProductusSemibold'; font-size:7.98;">l</tspan><tspan x="19.359" y="0" style="font-family:'ProductusSemibold'; font-size:7.98;">e</tspan><tspan x="23.437" y="0" style="font-family:'ProductusSemibold'; font-size:7.98;"> </tspan></text>
<text transform="matrix(1 0 0 1 87.6602 129.2402)"><tspan x="0" y="0" style="font-family:'ProductusSemibold'; font-size:7.98;">R</tspan><tspan x="4.253" y="0" style="font-family:'ProductusSemibold'; font-size:7.98;">e</tspan><tspan x="8.387" y="0" style="font-family:'ProductusSemibold'; font-size:7.98;">qui</tspan><tspan x="19.112" y="0" style="font-family:'ProductusSemibold'; font-size:7.98;">r</tspan><tspan x="22.048" y="0" style="font-family:'ProductusSemibold'; font-size:7.98;">emen</tspan><tspan x="40.929" y="0" style="font-family:'ProductusSemibold'; font-size:7.98;">t</tspan></text>
<text transform="matrix(1 0 0 1.0522 87.6602 137.7598)"><tspan x="0" y="0" style="font-family:'ProductusOSGiBookc'; font-size:7.5841;">(..pa</tspan><tspan x="11.74" y="0" style="font-family:'ProductusOSGiBookc'; font-size:7.5841;">c</tspan><tspan x="14.622" y="0" style="font-family:'ProductusOSGiBookc'; font-size:7.5841;">k</tspan><tspan x="17.625" y="0" style="font-family:'ProductusOSGiBookc'; font-size:7.5841;">age=</tspan><tspan x="30.928" y="0" style="font-family:'ProductusOSGiBookc'; font-size:7.5841;">p</tspan><tspan x="34.113" y="0" style="font-family:'ProductusOSGiBookc'; font-size:7.5841;">)</tspan></text>
<rect x="165.6" y="115.44" width="54.36" height="26.52"/>
<rect x="165.6" y="115.2" width="54.601" height="0.48"/>
<rect x="219.72" y="115.44" width="0.48" height="26.76"/>
<rect x="165.36" y="141.72" width="54.601" height="0.48"/>
<rect x="165.36" y="115.2" width="0.48" height="26.76"/>
<rect x="163.26" y="113.64" style="fill:#FFFFFF;" width="54.3" height="26.58"/>
<rect x="163.26" y="113.4" width="54.54" height="0.48"/>
<rect x="217.32" y="113.64" width="0.48" height="26.82"/>
<rect x="163.02" y="139.98" width="54.54" height="0.48"/>
<rect x="163.02" y="113.4" width="0.48" height="26.82"/>
<text transform="matrix(1 0 0 1 165.6001 120.7197)"><tspan x="0" y="0" style="font-family:'ProductusSemibold'; font-size:7.98;">B</tspan><tspan x="4.317" y="0" style="font-family:'ProductusSemibold'; font-size:7.98;">un</tspan><tspan x="12.823" y="0" style="font-family:'ProductusSemibold'; font-size:7.98;">d</tspan><tspan x="17.196" y="0" style="font-family:'ProductusSemibold'; font-size:7.98;">le Wir</tspan><tspan x="37.968" y="0" style="font-family:'ProductusSemibold'; font-size:7.98;">e</tspan></text>
<text transform="matrix(1 0 0 1.0522 165.6001 129.2397)"><tspan x="0" y="0" style="font-family:'ProductusOSGiBookc'; font-size:7.5841;">(</tspan><tspan x="2.048" y="0" style="font-family:'ProductusOSGiBookc'; font-size:7.5841;">pa</tspan><tspan x="8.646" y="0" style="font-family:'ProductusOSGiBookc'; font-size:7.5841;">c</tspan><tspan x="11.527" y="0" style="font-family:'ProductusOSGiBookc'; font-size:7.5841;">k</tspan><tspan x="14.531" y="0" style="font-family:'ProductusOSGiBookc'; font-size:7.5841;">a</tspan><tspan x="17.648" y="0" style="font-family:'ProductusOSGiBookc'; font-size:7.5841;">g</tspan><tspan x="20.947" y="0" style="font-family:'ProductusOSGiBookc'; font-size:7.5841;">e</tspan><tspan x="24.246" y="0" style="font-family:'ProductusOSGiBookc'; font-size:7.5841;"> </tspan><tspan x="25.801" y="0" style="font-family:'ProductusOSGiBookc'; font-size:7.5841;">p</tspan><tspan x="29.282" y="0" style="font-family:'ProductusOSGiBookc'; font-size:7.5841;"> </tspan><tspan x="30.783" y="0" style="font-family:'ProductusOSGiBookc'; font-size:7.5841;">w</tspan><tspan x="35.576" y="0" style="font-family:'ProductusOSGiBookc'; font-size:7.5841;">i</tspan><tspan x="37.018" y="0" style="font-family:'ProductusOSGiBookc'; font-size:7.5841;">r</tspan><tspan x="38.943" y="0" style="font-family:'ProductusOSGiBookc'; font-size:7.5841;">e</tspan><tspan x="41.947" y="0" style="font-family:'ProductusOSGiBookc'; font-size:7.5841;">)</tspan></text>
<rect x="328.621" y="58.74" width="54.3" height="26.58"/>
<rect x="328.621" y="58.5" width="54.54" height="0.48"/>
<rect x="382.68" y="58.74" width="0.48" height="26.82"/>
<rect x="328.38" y="85.08" width="54.54" height="0.48"/>
<rect x="328.38" y="58.5" width="0.479" height="26.82"/>
<rect x="326.22" y="56.94" style="fill:#FFFFFF;" width="54.36" height="26.58"/>
<rect x="326.22" y="56.7" width="54.6" height="0.48"/>
<rect x="380.34" y="56.94" width="0.479" height="26.82"/>
<rect x="325.98" y="83.28" width="54.601" height="0.48"/>
<rect x="325.98" y="56.7" width="0.48" height="26.82"/>
<text transform="matrix(1 0 0 1 328.6206 64.0801)"><tspan x="0" y="0" style="font-family:'ProductusSemibold'; font-size:7.98;">B</tspan><tspan x="4.27" y="0" style="font-family:'ProductusSemibold'; font-size:7.98;">u</tspan><tspan x="8.586" y="0" style="font-family:'ProductusSemibold'; font-size:7.98;">ndle</tspan><tspan x="23.444" y="0" style="font-family:'ProductusSemibold'; font-size:7.98;"> </tspan></text>
<text transform="matrix(1 0 0 1 328.6206 72.0601)"><tspan x="0" y="0" style="font-family:'ProductusSemibold'; font-size:7.98;">R</tspan><tspan x="4.253" y="0" style="font-family:'ProductusSemibold'; font-size:7.98;">e</tspan><tspan x="8.331" y="0" style="font-family:'ProductusSemibold'; font-size:7.98;">v</tspan><tspan x="12.409" y="0" style="font-family:'ProductusSemibold'; font-size:7.98;">i</tspan><tspan x="14.563" y="0" style="font-family:'ProductusSemibold'; font-size:7.98;">s</tspan><tspan x="17.923" y="0" style="font-family:'ProductusSemibold'; font-size:7.98;">i</tspan><tspan x="20.077" y="0" style="font-family:'ProductusSemibold'; font-size:7.98;">o</tspan><tspan x="24.395" y="0" style="font-family:'ProductusSemibold'; font-size:7.98;">n</tspan></text>
<text transform="matrix(1 0 0 1.0522 328.6206 80.04)"><tspan x="0" y="0" style="font-family:'ProductusOSGiBookc'; font-size:7.5841;">B</tspan><tspan x="3.353" y="0" style="font-family:'ProductusOSGiBookc'; font-size:7.5841;">.</tspan><tspan x="4.793" y="0" style="font-family:'ProductusOSGiBookc'; font-size:7.5841;">0</tspan><tspan x="8.509" y="0" style="font-family:'ProductusOSGiBookc'; font-size:7.5841;"> </tspan><tspan x="10.064" y="0" style="font-family:'ProductusOSGiBookc'; font-size:7.5841;">(</tspan><tspan x="12.051" y="0" style="font-family:'ProductusOSGiBookc'; font-size:7.5841;">f</tspan><tspan x="13.97" y="0" style="font-family:'ProductusOSGiBookc'; font-size:7.5841;">rag</tspan><tspan x="22.502" y="0" style="font-family:'ProductusOSGiBookc'; font-size:7.5841;">m</tspan><tspan x="27.909" y="0" style="font-family:'ProductusOSGiBookc'; font-size:7.5841;">en</tspan><tspan x="34.689" y="0" style="font-family:'ProductusOSGiBookc'; font-size:7.5841;">t</tspan><tspan x="36.851" y="0" style="font-family:'ProductusOSGiBookc'; font-size:7.5841;">)</tspan></text>
<rect x="141.72" y="127.56" width="21.78" height="0.48"/>
<rect x="219.72" y="127.56" width="21.72" height="0.48"/>
<rect x="141.72" y="14.16" width="21.78" height="0.48"/>
<rect x="219.72" y="14.16" width="21.72" height="0.48"/>
<rect x="191.34" y="198.42" width="0.479" height="28.86"/>
<rect x="170.1" y="169.32" width="0.48" height="1.26"/>
<rect x="170.1" y="163.68" width="0.48" height="1.92"/>
<rect x="170.1" y="158.04" width="0.48" height="1.92"/>
<rect x="170.1" y="152.4" width="0.48" height="1.86"/>
<rect x="170.1" y="146.76" width="0.48" height="1.86"/>
<rect x="170.1" y="141.72" width="0.48" height="1.26"/>
<rect x="262.201" y="70.86" width="64.26" height="0.48"/>
<rect x="354.36" y="14.16" width="0.48" height="43.02"/>
<rect x="297.661" y="14.16" width="56.939" height="0.48"/>
<rect x="354.36" y="85.08" width="0.48" height="42.96"/>
<rect x="297.661" y="127.56" width="56.939" height="0.48"/>
<rect x="56.7" y="70.86" width="64.26" height="0.48"/>
<rect x="28.32" y="14.16" width="57.18" height="0.48"/>
<rect x="28.32" y="14.4" width="0.48" height="42.78"/>
<rect x="170.1" y="85.08" width="0.48" height="1.2"/>
<rect x="170.1" y="90.06" width="0.48" height="1.86"/>
<rect x="170.1" y="95.7" width="0.48" height="1.86"/>
<rect x="170.1" y="101.34" width="0.48" height="1.92"/>
<rect x="170.1" y="106.98" width="0.48" height="1.92"/>
<rect x="170.1" y="112.68" width="0.48" height="1.2"/>
<rect x="170.1" y="55.98" width="0.48" height="1.2"/>
<rect x="170.1" y="50.28" width="0.48" height="1.92"/>
<rect x="170.1" y="44.64" width="0.48" height="1.92"/>
<rect x="170.1" y="39" width="0.48" height="1.92"/>
<rect x="170.1" y="33.36" width="0.48" height="1.86"/>
<rect x="170.1" y="28.38" width="0.48" height="1.2"/>
<rect x="212.581" y="55.98" width="0.479" height="1.2"/>
<rect x="212.581" y="50.28" width="0.479" height="1.92"/>
<rect x="212.581" y="44.64" width="0.479" height="1.92"/>
<rect x="212.581" y="39" width="0.479" height="1.92"/>
<rect x="212.581" y="33.36" width="0.479" height="1.86"/>
<rect x="212.581" y="28.38" width="0.479" height="1.2"/>
<rect x="113.4" y="141.72" width="0.48" height="43.02"/>
<rect x="113.64" y="184.26" width="49.86" height="0.48"/>
<rect x="248.041" y="56.94" width="0.479" height="0.24"/>
<rect x="248.041" y="28.38" width="0.479" height="28.56"/>
<rect x="127.56" y="56.94" width="0.48" height="0.24"/>
<rect x="127.56" y="28.38" width="0.48" height="28.56"/>
<rect x="177.18" y="70.86" width="14.64" height="0.48"/>
<rect x="191.34" y="71.1" width="0.479" height="28.62"/>
<rect x="191.581" y="99.24" width="71.1" height="0.48"/>
<rect x="262.201" y="99.48" width="0.479" height="14.4"/>
<rect x="92.1" y="141.72" width="0.48" height="99.72"/>
<rect x="92.34" y="240.96" width="71.16" height="0.48"/>
<rect x="283.5" y="166.5" width="0.239" height="0.48"/>
<rect x="283.74" y="166.5" width="0.961" height="0.48"/>
<rect x="287.701" y="166.5" width="0.239" height="0.48"/>
<rect x="287.94" y="166.5" width="1.38" height="0.48"/>
<rect x="292.26" y="166.5" width="0.24" height="0.48"/>
<rect x="292.5" y="166.5" width="1.439" height="0.48"/>
<rect x="296.88" y="166.5" width="0.24" height="0.48"/>
<rect x="297.121" y="166.5" width="1.02" height="0.48"/>
<rect x="283.5" y="180.72" width="0.239" height="0.48"/>
<rect x="283.74" y="180.72" width="14.4" height="0.48"/>
<text transform="matrix(1 0 0 1 304.98 170.3398)"><tspan x="0" y="0" style="font-family:'ProductusOSGiBookc'; font-size:7.98;">bundle</tspan><tspan x="19.678" y="0" style="font-family:'ProductusOSGiBookc'; font-size:7.98;"> </tspan><tspan x="21.29" y="0" style="font-family:'ProductusOSGiBookc'; font-size:7.98;">w</tspan><tspan x="26.333" y="0" style="font-family:'ProductusOSGiBookc'; font-size:7.98;">i</tspan><tspan x="27.842" y="0" style="font-family:'ProductusOSGiBookc'; font-size:7.98;">r</tspan><tspan x="29.885" y="0" style="font-family:'ProductusOSGiBookc'; font-size:7.98;">e</tspan></text>
<text transform="matrix(1 0 0 1 304.98 182.1597)"><tspan x="0" y="0" style="font-family:'ProductusOSGiBookc'; font-size:7.98;">de</tspan><tspan x="7.134" y="0" style="font-family:'ProductusOSGiBookc'; font-size:7.98;">c</tspan><tspan x="10.254" y="0" style="font-family:'ProductusOSGiBookc'; font-size:7.98;">l</tspan><tspan x="11.763" y="0" style="font-family:'ProductusOSGiBookc'; font-size:7.98;">a</tspan><tspan x="15.042" y="0" style="font-family:'ProductusOSGiBookc'; font-size:7.98;">r</tspan><tspan x="17.085" y="0" style="font-family:'ProductusOSGiBookc'; font-size:7.98;">ed</tspan><tspan x="24.219" y="0" style="font-family:'ProductusOSGiBookc'; font-size:7.98;"> </tspan><tspan x="25.831" y="0" style="font-family:'ProductusOSGiBookc'; font-size:7.98;">wi</tspan><tspan x="32.398" y="0" style="font-family:'ProductusOSGiBookc'; font-size:7.98;">r</tspan><tspan x="34.441" y="0" style="font-family:'ProductusOSGiBookc'; font-size:7.98;">e</tspan></text>
</svg>
