<?xml version="1.0" encoding="utf-8"?>
<!-- Generator: Adobe Illustrator 16.0.0, SVG Export Plug-In . SVG Version: 6.00 Build 0)  -->
<!DOCTYPE svg PUBLIC "-//W3C//DTD SVG 1.1//EN" "http://www.w3.org/Graphics/SVG/1.1/DTD/svg11.dtd">
<svg version="1.1" id="Layer_1" xmlns="http://www.w3.org/2000/svg" xmlns:xlink="http://www.w3.org/1999/xlink" x="0px" y="0px"
	 width="228.808px" height="92.1px" viewBox="0 0 228.808 92.1" style="enable-background:new 0 0 228.808 92.1;"
	 xml:space="preserve">
<rect x="120.48" style="fill:#B3B3B3;" width="56.7" height="49.62"/>
<rect x="13.74" style="fill:#B3B3B3;" width="56.7" height="49.62"/>
<g>
	<text transform="matrix(1 0 0 1 224.8579 28.9199)" style="font-family:'ProductusSemibold'; font-size:7.98;">0</text>
	<text transform="matrix(1 0 0 1 222.6382 28.9199)" style="font-family:'ProductusSemibold'; font-size:7.98;">.</text>
	<text transform="matrix(1 0 0 1 218.3784 28.9199)" style="font-family:'ProductusSemibold'; font-size:7.98;">B</text>
	<text transform="matrix(1 0 0 1 216.3979 28.9199)" style="font-family:'ProductusSemibold'; font-size:7.98;"> </text>
	<text transform="matrix(1 0 0 1 213.2534 28.9199)" style="font-family:'ProductusSemibold'; font-size:7.98;">t</text>
	<text transform="matrix(1 0 0 1 208.9937 28.9199)" style="font-family:'ProductusSemibold'; font-size:7.98;">n</text>
	<text transform="matrix(1 0 0 1 204.8433 28.9199)" style="font-family:'ProductusSemibold'; font-size:7.98;">e</text>
	<text transform="matrix(1 0 0 1 198.4585 28.9199)" style="font-family:'ProductusSemibold'; font-size:7.98;">m</text>
	<text transform="matrix(1 0 0 1 194.4116 28.9199)" style="font-family:'ProductusSemibold'; font-size:7.98;">g</text>
	<text transform="matrix(1 0 0 1 190.437 28.9199)" style="font-family:'ProductusSemibold'; font-size:7.98;">a</text>
	<text transform="matrix(1 0 0 1 187.4272 28.9199)" style="font-family:'ProductusSemibold'; font-size:7.98;">r</text>
	<text transform="matrix(1 0 0 1 183.8276 28.9199)" style="font-family:'ProductusSemibold'; font-size:7.98;">F</text>
	<text transform="matrix(1 0 0 1 7.248 28.9199)" style="font-family:'ProductusSemibold'; font-size:7.98;">0</text>
	<text transform="matrix(1 0 0 1 5.0278 28.9199)" style="font-family:'ProductusSemibold'; font-size:7.98;">.</text>
	<text transform="matrix(1 0 0 1 0 28.9199)" style="font-family:'ProductusSemibold'; font-size:7.98;">A</text>
</g>
<rect x="13.74" y="63.78" style="fill:#B3B3B3;" width="56.7" height="28.319"/>
<text transform="matrix(1 0 0 1 77.52 78.54)"><tspan x="0" y="0" style="font-family:'ProductusSemibold'; font-size:7.98;">C.</tspan><tspan x="7.189" y="0" style="font-family:'ProductusSemibold'; font-size:7.98;">0</tspan></text>
<rect x="20.82" y="70.86" style="fill:#FFFFFF;" width="42.54" height="14.159"/>
<rect x="20.82" y="70.62" width="42.78" height="0.479"/>
<rect x="63.12" y="70.86" width="0.48" height="14.399"/>
<rect x="20.58" y="84.78" width="42.78" height="0.479"/>
<rect x="20.58" y="70.62" width="0.48" height="14.399"/>
<text transform="matrix(1 0 0 1 27.8999 80.0996)" style="font-family:'ProductusOSGiBookc'; font-size:7.98;">p</text>
<rect x="127.14" y="28.32" width="42.479" height="14.159"/>
<rect x="127.14" y="28.08" width="42.72" height="0.479"/>
<rect x="169.38" y="28.32" width="0.479" height="14.399"/>
<rect x="126.9" y="42.24" width="42.72" height="0.479"/>
<rect x="126.9" y="28.08" width="0.48" height="14.399"/>
<text transform="matrix(1 0 0 1 134.2202 37.5605)" style="fill:#FFFFFF; font-family:'ProductusBook'; font-size:7.98;">p</text>
<rect x="119.459" y="13.92" width="1.261" height="0.48"/>
<rect x="114" y="13.92" width="1.86" height="0.48"/>
<rect x="108.48" y="13.92" width="1.86" height="0.48"/>
<rect x="103.02" y="13.92" width="1.8" height="0.48"/>
<rect x="97.5" y="13.92" width="1.86" height="0.48"/>
<rect x="91.98" y="13.92" width="1.86" height="0.48"/>
<rect x="86.52" y="13.92" width="1.86" height="0.48"/>
<rect x="81" y="13.92" width="1.86" height="0.48"/>
<rect x="75.48" y="13.92" width="1.86" height="0.48"/>
<rect x="71.64" y="13.92" width="0.24" height="0.48"/>
<rect x="70.62" y="13.92" width="1.02" height="0.48"/>
<polyline style="fill-rule:evenodd;clip-rule:evenodd;fill:#FFFFFF;" points="155.94,14.16 155.88,13.44 155.76,12.72 155.58,12.06 
	155.34,11.4 155.04,10.8 154.68,10.2 154.32,9.66 153.84,9.12 153.36,8.7 152.76,8.28 152.22,7.92 151.56,7.62 150.959,7.38 
	150.24,7.2 149.58,7.08 148.08,7.08 147.419,7.2 146.7,7.38 146.04,7.62 145.44,7.92 144.84,8.28 144.3,8.7 143.82,9.12 
	143.34,9.66 142.919,10.2 142.32,11.4 142.08,12.06 141.9,12.72 141.78,13.44 141.72,14.16 141.78,14.88 141.9,15.6 142.08,16.26 
	142.32,16.92 142.919,18.12 143.34,18.66 144.3,19.62 144.84,20.04 145.44,20.4 146.04,20.7 146.7,20.94 147.419,21.12 
	148.08,21.18 148.8,21.24 149.58,21.18 150.24,21.12 150.959,20.94 151.56,20.7 152.22,20.4 152.76,20.04 153.36,19.62 
	154.32,18.66 154.68,18.12 155.04,17.52 155.34,16.92 155.58,16.26 155.76,15.6 155.88,14.88 155.94,14.16 "/>
<polyline points="155.7,14.22 155.64,13.5 155.52,12.78 155.34,12.12 155.34,12.18 155.1,11.52 155.16,11.52 154.86,10.92 
	154.5,10.32 154.14,9.78 154.14,9.84 153.66,9.3 153.72,9.3 153.24,8.88 153.24,8.94 152.64,8.52 152.1,8.16 152.16,8.16 
	151.5,7.86 150.9,7.62 150.18,7.44 150.24,7.44 149.58,7.32 148.08,7.32 148.14,7.32 147.48,7.44 146.76,7.62 146.82,7.62 
	146.16,7.86 145.56,8.16 144.959,8.52 145.02,8.46 144.48,8.88 144,9.3 143.52,9.84 143.1,10.38 143.16,10.32 142.56,11.52 
	142.32,12.18 142.32,12.12 142.14,12.78 142.02,13.5 141.959,14.22 141.959,14.16 142.02,14.88 142.14,15.6 142.14,15.54 
	142.32,16.2 142.56,16.86 142.56,16.8 143.16,18 143.1,18 143.52,18.54 143.52,18.479 144.48,19.44 144.18,19.8 144.12,19.8 
	143.16,18.84 142.74,18.3 142.74,18.24 142.14,17.04 142.08,17.04 141.84,16.38 141.84,16.32 141.66,15.66 141.54,14.94 
	141.48,14.22 141.48,14.16 141.54,13.44 141.66,12.72 141.66,12.66 141.84,12 142.08,11.34 142.14,11.28 142.74,10.08 143.16,9.54 
	143.64,9 143.7,8.94 144.18,8.52 144.72,8.1 145.32,7.74 145.919,7.44 145.98,7.38 146.64,7.14 147.36,6.96 147.419,6.96 
	148.08,6.84 149.64,6.84 150.3,6.96 151.02,7.14 151.08,7.2 151.68,7.44 152.34,7.74 152.88,8.1 152.94,8.1 153.54,8.52 
	154.02,8.94 154.02,9 154.5,9.54 154.56,9.54 154.919,10.08 155.28,10.68 155.58,11.28 155.58,11.34 155.82,12 156,12.66 156,12.72 
	156.12,13.44 156.18,14.16 "/>
<polyline points="144.48,19.44 145.02,19.86 144.959,19.86 145.56,20.22 146.16,20.52 146.16,20.46 146.82,20.7 146.76,20.7 
	147.48,20.88 148.14,20.94 148.86,21 148.8,21 149.58,20.94 150.24,20.88 150.18,20.88 150.9,20.7 150.9,20.76 151.5,20.52 
	152.16,20.22 152.1,20.22 152.64,19.86 153.24,19.44 153.18,19.44 154.14,18.479 154.14,18.54 154.5,18 154.86,17.4 155.16,16.8 
	155.1,16.86 155.34,16.2 155.52,15.54 155.52,15.6 155.64,14.88 155.7,14.16 155.7,14.22 156.18,14.16 156.18,14.22 156.12,14.94 
	156,15.66 155.82,16.32 155.82,16.38 155.58,17.04 155.28,17.64 154.919,18.24 154.56,18.78 154.5,18.84 153.54,19.8 153.54,19.86 
	152.94,20.28 152.88,20.28 152.34,20.64 151.68,20.94 151.08,21.18 151.02,21.18 150.3,21.36 149.64,21.42 148.86,21.479 
	148.8,21.479 148.08,21.42 147.419,21.36 147.36,21.36 146.64,21.18 145.98,20.94 145.919,20.94 145.32,20.64 144.72,20.28 
	144.72,20.22 144.18,19.8 "/>
<polyline style="fill-rule:evenodd;clip-rule:evenodd;" points="49.62,14.16 49.56,13.44 49.44,12.72 49.32,12.06 49.08,11.4 
	48.78,10.8 48.42,10.2 48,9.66 47.52,9.12 47.04,8.7 46.5,8.28 45.9,7.92 45.3,7.62 44.64,7.38 43.98,7.2 43.26,7.08 41.82,7.08 
	41.1,7.2 40.44,7.38 39.78,7.62 39.12,7.92 38.58,8.28 37.5,9.12 36.66,10.2 36.3,10.8 36,11.4 35.76,12.06 35.58,12.72 
	35.46,13.44 35.46,14.88 35.58,15.6 35.76,16.26 36,16.92 36.3,17.52 36.66,18.12 37.08,18.66 37.5,19.14 38.04,19.62 38.58,20.04 
	39.12,20.4 39.78,20.7 40.44,20.94 41.1,21.12 41.82,21.18 42.54,21.24 43.26,21.18 43.98,21.12 44.64,20.94 45.3,20.7 45.9,20.4 
	46.5,20.04 47.04,19.62 48,18.66 48.42,18.12 48.78,17.52 49.08,16.92 49.32,16.26 49.44,15.6 49.56,14.88 49.62,14.16 "/>
<polyline points="49.38,14.22 49.32,13.5 49.2,12.78 49.08,12.12 49.08,12.18 48.84,11.52 48.9,11.52 48.6,10.92 48.24,10.32 
	48.24,10.38 47.82,9.84 47.34,9.3 47.4,9.3 46.92,8.88 46.38,8.46 46.38,8.52 45.78,8.16 45.18,7.86 45.24,7.86 44.58,7.62 
	43.92,7.44 43.98,7.44 43.26,7.32 41.82,7.32 41.88,7.32 41.16,7.44 40.5,7.62 40.56,7.62 39.9,7.86 39.24,8.16 38.7,8.52 
	38.76,8.46 37.68,9.3 36.84,10.38 36.9,10.32 36.54,10.92 36.24,11.52 36,12.18 36,12.12 35.82,12.78 35.7,13.5 35.7,13.44 
	35.7,14.88 35.82,15.6 35.82,15.54 36,16.2 36.24,16.86 36.24,16.8 36.54,17.4 36.9,18 36.84,18 37.26,18.54 37.68,19.02 
	37.68,18.96 38.22,19.44 37.92,19.8 37.38,19.32 37.32,19.32 36.9,18.84 36.48,18.3 36.48,18.24 36.12,17.64 35.82,17.04 
	35.76,17.04 35.52,16.38 35.52,16.32 35.34,15.66 35.22,14.94 35.22,13.44 35.34,12.72 35.34,12.66 35.52,12 35.76,11.34 
	35.82,11.28 36.12,10.68 36.48,10.08 37.32,9 37.38,8.94 38.46,8.1 39,7.74 39.06,7.74 39.72,7.44 39.72,7.38 40.38,7.14 
	41.04,6.96 41.1,6.96 41.82,6.84 43.32,6.84 44.04,6.96 44.7,7.14 44.76,7.14 45.42,7.38 45.42,7.44 46.02,7.74 46.62,8.1 
	46.68,8.1 47.22,8.52 47.7,8.94 47.7,9 48.18,9.54 48.6,10.08 48.66,10.08 49.02,10.68 49.32,11.28 49.32,11.34 49.56,12 
	49.56,12.06 49.68,12.72 49.8,13.44 49.86,14.16 "/>
<polyline points="38.22,19.44 38.76,19.86 38.7,19.86 39.24,20.22 39.9,20.52 39.9,20.46 40.56,20.7 40.5,20.7 41.16,20.88 42.6,21 
	42.54,21 43.98,20.88 43.92,20.88 44.58,20.7 45.24,20.46 45.18,20.52 45.78,20.22 46.38,19.86 46.92,19.44 46.86,19.44 
	47.82,18.479 47.82,18.54 48.24,18 48.6,17.4 48.9,16.8 48.84,16.86 49.08,16.2 49.08,16.26 49.2,15.6 49.32,14.88 49.38,14.16 
	49.38,14.22 49.86,14.16 49.86,14.22 49.8,14.94 49.68,15.66 49.56,16.32 49.56,16.38 49.32,17.04 49.02,17.64 48.66,18.24 
	48.6,18.3 48.18,18.84 47.22,19.8 46.68,20.22 46.62,20.28 46.02,20.64 45.42,20.94 44.76,21.18 44.7,21.18 44.04,21.36 
	42.6,21.479 42.54,21.479 41.1,21.36 41.04,21.36 40.38,21.18 39.72,20.94 39.06,20.64 39,20.64 38.46,20.28 38.46,20.22 
	37.92,19.8 "/>
<rect x="49.38" y="13.92" width="0.24" height="0.48"/>
<rect x="49.62" y="13.92" width="21.48" height="0.48"/>
<rect x="120.24" y="13.92" width="0.24" height="0.48"/>
<rect x="120.48" y="13.92" width="21.479" height="0.48"/>
<rect x="127.56" y="35.16" width="0.24" height="0.479"/>
<rect x="120.24" y="35.16" width="7.32" height="0.479"/>
<rect x="42.3" y="49.38" width="0.48" height="0.24"/>
<rect x="42.3" y="49.62" width="0.48" height="0.96"/>
<rect x="42.3" y="53.58" width="0.48" height="0.24"/>
<rect x="42.3" y="53.82" width="0.48" height="1.38"/>
<rect x="42.3" y="58.14" width="0.48" height="0.24"/>
<rect x="42.3" y="58.38" width="0.48" height="1.44"/>
<rect x="42.3" y="62.76" width="0.48" height="0.24"/>
<rect x="42.3" y="63" width="0.48" height="1.02"/>
<rect x="42.3" y="70.86" width="0.48" height="0.239"/>
<rect x="42.3" y="69.84" width="0.48" height="1.021"/>
<rect x="42.3" y="64.5" width="0.48" height="0.24"/>
<rect x="42.3" y="63.54" width="0.48" height="0.96"/>
<rect x="42.3" y="35.16" width="0.48" height="14.7"/>
<rect x="42.54" y="35.16" width="85.26" height="0.479"/>
<rect x="42.3" y="70.86" width="0.48" height="0.239"/>
<rect x="42.3" y="63.54" width="0.48" height="7.32"/>
</svg>
