<?xml version="1.0" encoding="utf-8"?>
<!-- Generator: Adobe Illustrator 16.0.0, SVG Export Plug-In . SVG Version: 6.00 Build 0)  -->
<!DOCTYPE svg PUBLIC "-//W3C//DTD SVG 1.1//EN" "http://www.w3.org/Graphics/SVG/1.1/DTD/svg11.dtd">
<svg version="1.1" id="Layer_1" xmlns="http://www.w3.org/2000/svg" xmlns:xlink="http://www.w3.org/1999/xlink" x="0px" y="0px"
	 width="411.3px" height="35.939px" viewBox="0 0 411.3 35.939" style="enable-background:new 0 0 411.3 35.939;"
	 xml:space="preserve">
<rect x="333.36" y="0.239" style="fill:#B3B3B3;" width="77.94" height="28.38"/>
<text transform="matrix(1 0 0 1.0522 21.54 30.1201)"><tspan x="0" y="0" style="font-family:'ProductusOSGiBookc'; font-size:7.5841;">P</tspan><tspan x="3.003" y="0" style="font-family:'ProductusOSGiBookc'; font-size:7.5841;">a</tspan><tspan x="6.12" y="0" style="font-family:'ProductusOSGiBookc'; font-size:7.5841;">c</tspan><tspan x="9.002" y="0" style="font-family:'ProductusOSGiBookc'; font-size:7.5841;">k</tspan><tspan x="12.005" y="0" style="font-family:'ProductusOSGiBookc'; font-size:7.5841;">a</tspan><tspan x="15.123" y="0" style="font-family:'ProductusOSGiBookc'; font-size:7.5841;">g</tspan><tspan x="18.421" y="0" style="font-family:'ProductusOSGiBookc'; font-size:7.5841;">e</tspan><tspan x="21.721" y="0" style="font-family:'ProductusOSGiBookc'; font-size:7.5841;"> </tspan><tspan x="23.222" y="0" style="font-family:'ProductusOSGiBookc'; font-size:7.5841;">C</tspan><tspan x="27.363" y="0" style="font-family:'ProductusOSGiBookc'; font-size:7.5841;">apa</tspan><tspan x="37.078" y="0" style="font-family:'ProductusOSGiBookc'; font-size:7.5841;">b</tspan><tspan x="40.559" y="0" style="font-family:'ProductusOSGiBookc'; font-size:7.5841;">i</tspan><tspan x="42" y="0" style="font-family:'ProductusOSGiBookc'; font-size:7.5841;">l</tspan><tspan x="43.494" y="0" style="font-family:'ProductusOSGiBookc'; font-size:7.5841;">i</tspan><tspan x="44.935" y="0" style="font-family:'ProductusOSGiBookc'; font-size:7.5841;">ty</tspan></text>
<text transform="matrix(1 0 0 1.0522 21.54 8.8789)"><tspan x="0" y="0" style="font-family:'ProductusOSGiBookc'; font-size:7.5841;">P</tspan><tspan x="3.003" y="0" style="font-family:'ProductusOSGiBookc'; font-size:7.5841;">ac</tspan><tspan x="9.032" y="0" style="font-family:'ProductusOSGiBookc'; font-size:7.5841;">k</tspan><tspan x="12.036" y="0" style="font-family:'ProductusOSGiBookc'; font-size:7.5841;">age</tspan><tspan x="21.736" y="0" style="font-family:'ProductusOSGiBookc'; font-size:7.5841;"> </tspan><tspan x="23.237" y="0" style="font-family:'ProductusOSGiBookc'; font-size:7.5841;">R</tspan><tspan x="26.544" y="0" style="font-family:'ProductusOSGiBookc'; font-size:7.5841;">equi</tspan><tspan x="38.238" y="0" style="font-family:'ProductusOSGiBookc'; font-size:7.5841;">r</tspan><tspan x="40.165" y="0" style="font-family:'ProductusOSGiBookc'; font-size:7.5841;">ement</tspan></text>
<rect x="85.32" y="0.239" style="fill:#B3B3B3;" width="77.94" height="28.38"/>
<rect x="148.86" y="14.22" width="14.64" height="0.479"/>
<rect x="333.12" y="14.22" width="14.641" height="0.479"/>
<rect x="163.02" y="14.22" width="1.26" height="0.479"/>
<rect x="168.24" y="14.22" width="1.98" height="0.479"/>
<rect x="174.18" y="14.22" width="1.98" height="0.479"/>
<rect x="180.12" y="14.22" width="1.98" height="0.479"/>
<rect x="186.06" y="14.22" width="1.98" height="0.479"/>
<rect x="192" y="14.22" width="1.98" height="0.479"/>
<rect x="197.94" y="14.22" width="1.98" height="0.479"/>
<rect x="203.88" y="14.22" width="1.98" height="0.479"/>
<rect x="209.82" y="14.22" width="1.98" height="0.479"/>
<rect x="215.76" y="14.22" width="1.98" height="0.479"/>
<rect x="221.7" y="14.22" width="0.24" height="0.479"/>
<rect x="221.94" y="14.22" width="1.74" height="0.479"/>
<rect x="227.64" y="14.22" width="0.24" height="0.479"/>
<rect x="227.88" y="14.22" width="1.739" height="0.479"/>
<rect x="233.64" y="14.22" width="0.24" height="0.479"/>
<rect x="233.88" y="14.22" width="1.68" height="0.479"/>
<rect x="239.58" y="14.22" width="1.92" height="0.479"/>
<rect x="245.52" y="14.22" width="1.92" height="0.479"/>
<rect x="251.459" y="14.22" width="1.921" height="0.479"/>
<rect x="257.4" y="14.22" width="1.92" height="0.479"/>
<rect x="263.34" y="14.22" width="1.979" height="0.479"/>
<rect x="269.28" y="14.22" width="1.98" height="0.479"/>
<rect x="275.22" y="14.22" width="1.979" height="0.479"/>
<rect x="281.16" y="14.22" width="1.98" height="0.479"/>
<rect x="287.1" y="14.22" width="1.979" height="0.479"/>
<rect x="293.04" y="14.22" width="1.98" height="0.479"/>
<rect x="298.98" y="14.22" width="1.979" height="0.479"/>
<rect x="304.92" y="14.22" width="1.979" height="0.479"/>
<rect x="310.86" y="14.22" width="1.98" height="0.479"/>
<rect x="316.8" y="14.22" width="1.979" height="0.479"/>
<rect x="322.74" y="14.22" width="1.98" height="0.479"/>
<rect x="328.68" y="14.22" width="1.979" height="0.479"/>
<rect x="334.62" y="14.22" width="1.98" height="0.479"/>
<rect x="340.56" y="14.22" width="1.979" height="0.479"/>
<rect x="346.56" y="14.22" width="1.2" height="0.479"/>
<rect x="92.4" y="7.319" style="fill:#FFFFFF;" width="56.7" height="14.22"/>
<rect x="92.4" y="7.079" width="56.94" height="0.48"/>
<rect x="148.86" y="7.319" width="0.48" height="14.46"/>
<rect x="92.16" y="21.3" width="56.94" height="0.479"/>
<rect x="92.16" y="7.079" width="0.48" height="14.46"/>
<rect x="347.52" y="7.319" width="56.7" height="14.22"/>
<rect x="347.52" y="7.079" width="56.939" height="0.48"/>
<rect x="403.98" y="7.319" width="0.479" height="14.46"/>
<rect x="347.28" y="21.3" width="56.94" height="0.479"/>
<rect x="347.28" y="7.079" width="0.48" height="14.46"/>
<rect x="0.24" y="0.239" style="fill:#FFFFFF;" width="14.22" height="14.221"/>
<rect x="0.24" width="14.46" height="0.479"/>
<rect x="14.22" y="0.239" width="0.48" height="14.46"/>
<rect y="14.22" width="14.46" height="0.479"/>
<rect width="0.48" height="14.46"/>
<rect x="0.24" y="21.539" width="14.22" height="14.16"/>
<rect x="0.24" y="21.3" width="14.46" height="0.479"/>
<rect x="14.22" y="21.539" width="0.48" height="14.4"/>
<rect y="35.46" width="14.46" height="0.479"/>
<rect y="21.3" width="0.48" height="14.399"/>
<text transform="matrix(1 0 0 1.0522 99.48 16.1396)"><tspan x="0" y="0" style="font-family:'ProductusOSGiBookc'; font-size:7.5841;">co</tspan><tspan x="6.515" y="0" style="font-family:'ProductusOSGiBookc'; font-size:7.5841;">m</tspan><tspan x="11.915" y="0" style="font-family:'ProductusOSGiBookc'; font-size:7.5841;">.ac</tspan><tspan x="19.476" y="0" style="font-family:'ProductusOSGiBookc'; font-size:7.5841;">m</tspan><tspan x="24.883" y="0" style="font-family:'ProductusOSGiBookc'; font-size:7.5841;">e</tspan><tspan x="28.197" y="0" style="font-family:'ProductusOSGiBookc'; font-size:7.5841;">.</tspan><tspan x="29.524" y="0" style="font-family:'ProductusOSGiBookc'; font-size:7.5841;">fo</tspan><tspan x="35.023" y="0" style="font-family:'ProductusOSGiBookc'; font-size:7.5841;">o</tspan><tspan x="38.564" y="0" style="font-family:'ProductusOSGiBookc'; font-size:7.5841;">;</tspan><tspan x="40.059" y="0" style="font-family:'ProductusOSGiBookc'; font-size:7.5841;">v</tspan><tspan x="43.069" y="0" style="font-family:'ProductusOSGiBookc'; font-size:7.5841;">1</tspan></text>
<text transform="matrix(1 0 0 1.0522 351.479 16.1396)"><tspan x="0" y="0" style="fill:#FFFFFF; font-family:'ProductusOSGiBookc'; font-size:7.5841;">co</tspan><tspan x="6.515" y="0" style="fill:#FFFFFF; font-family:'ProductusOSGiBookc'; font-size:7.5841;">m</tspan><tspan x="11.914" y="0" style="fill:#FFFFFF; font-family:'ProductusOSGiBookc'; font-size:7.5841;">.ac</tspan><tspan x="19.476" y="0" style="fill:#FFFFFF; font-family:'ProductusOSGiBookc'; font-size:7.5841;">m</tspan><tspan x="24.875" y="0" style="fill:#FFFFFF; font-family:'ProductusOSGiBookc'; font-size:7.5841;">e</tspan><tspan x="28.189" y="0" style="fill:#FFFFFF; font-family:'ProductusOSGiBookc'; font-size:7.5841;">.</tspan><tspan x="29.517" y="0" style="fill:#FFFFFF; font-family:'ProductusOSGiBookc'; font-size:7.5841;">fo</tspan><tspan x="35.016" y="0" style="fill:#FFFFFF; font-family:'ProductusOSGiBookc'; font-size:7.5841;">o</tspan><tspan x="38.557" y="0" style="fill:#FFFFFF; font-family:'ProductusOSGiBookc'; font-size:7.5841;">;</tspan><tspan x="40.051" y="0" style="fill:#FFFFFF; font-family:'ProductusOSGiBookc'; font-size:7.5841;">v</tspan><tspan x="43.062" y="0" style="fill:#FFFFFF; font-family:'ProductusOSGiBookc'; font-size:7.5841;">1</tspan></text>
</svg>
