<?xml version="1.0" encoding="utf-8"?>
<!-- Generator: Adobe Illustrator 16.0.1, SVG Export Plug-In . SVG Version: 6.00 Build 0)  -->
<!DOCTYPE svg PUBLIC "-//W3C//DTD SVG 1.1//EN" "http://www.w3.org/Graphics/SVG/1.1/DTD/svg11.dtd">
<svg version="1.1" id="Layer_1" xmlns="http://www.w3.org/2000/svg" xmlns:xlink="http://www.w3.org/1999/xlink" x="0px" y="0px"
	 width="404.113px" height="110.1px" viewBox="0 0 404.113 110.1" enable-background="new 0 0 404.113 110.1" xml:space="preserve">
<rect x="315.419" y="21.48" fill="#B3B3B3" width="63.781" height="28.38"/>
<rect x="67.38" y="21.48" fill="#B3B3B3" width="63.78" height="28.38"/>
<text transform="matrix(0.9504 0 0 1 21.48 86.8201)" font-family="'ProductusOSGiBookc'" font-size="7.98">C</text>
<text transform="matrix(0.9504 0 0 1 25.644 86.8201)" font-family="'ProductusOSGiBookc'" font-size="7.98">a</text>
<text transform="matrix(0.9504 0 0 1 28.7612 86.8201)" font-family="'ProductusOSGiBookc'" font-size="7.98">p</text>
<text transform="matrix(0.9504 0 0 1 32.2271 86.8201)" font-family="'ProductusOSGiBookc'" font-size="7.98">a</text>
<text transform="matrix(0.9504 0 0 1 35.3442 86.8201)" font-family="'ProductusOSGiBookc'" font-size="7.98">bi</text>
<text transform="matrix(0.9504 0 0 1 40.2578 86.8201)" font-family="'ProductusOSGiBookc'" font-size="7.98">l</text>
<text transform="matrix(0.9504 0 0 1 41.752 86.8201)" font-family="'ProductusOSGiBookc'" font-size="7.98">i</text>
<text transform="matrix(0.9504 0 0 1 43.1929 86.8201)" font-family="'ProductusOSGiBookc'" font-size="7.98">ty</text>
<text transform="matrix(0.9504 0 0 1 21.48 65.5798)" font-family="'ProductusOSGiBookc'" font-size="7.98">R</text>
<text transform="matrix(0.9504 0 0 1 24.7871 65.5798)" font-family="'ProductusOSGiBookc'" font-size="7.98">equi</text>
<text transform="matrix(0.9504 0 0 1 36.481 65.5798)" font-family="'ProductusOSGiBookc'" font-size="7.98">r</text>
<text transform="matrix(0.9504 0 0 1 38.4072 65.5798)" font-family="'ProductusOSGiBookc'" font-size="7.98">ement</text>
<polyline fill="#FFFFFF" points="14.4,64.021 14.28,62.58 14.1,61.92 13.86,61.26 13.56,60.66 13.2,60.061 12.78,59.521 12.3,58.98 
	11.82,58.561 11.28,58.141 10.68,57.78 10.08,57.48 9.42,57.24 8.76,57.061 8.04,56.94 6.6,56.94 5.88,57.061 5.22,57.24 
	4.56,57.48 3.96,57.78 3.36,58.141 2.28,58.98 1.44,60.061 1.08,60.66 0.78,61.26 0.54,61.92 0.36,62.58 0.24,63.3 0.24,64.74 
	0.36,65.46 0.54,66.12 0.78,66.78 1.08,67.38 1.44,67.98 1.86,68.521 2.28,69 2.82,69.48 3.36,69.9 3.96,70.26 4.56,70.561 
	5.22,70.8 5.88,70.98 6.6,71.04 7.32,71.101 8.04,71.04 8.76,70.98 9.42,70.8 10.08,70.561 10.68,70.26 11.28,69.9 11.82,69.48 
	12.78,68.521 13.2,67.98 13.56,67.38 13.86,66.78 14.1,66.12 14.28,65.46 14.4,64.021 "/>
<polyline points="14.16,64.08 14.04,62.641 13.86,61.98 13.86,62.04 13.62,61.38 13.68,61.38 13.38,60.78 13.02,60.18 13.02,60.24 
	12.6,59.7 12.12,59.16 12.18,59.16 11.7,58.74 11.16,58.32 11.16,58.38 10.56,58.021 9.96,57.719 10.02,57.719 9.36,57.48 8.7,57.3 
	8.76,57.3 8.04,57.18 6.6,57.18 6.66,57.18 5.94,57.3 5.28,57.48 5.34,57.48 4.68,57.719 4.08,58.021 3.48,58.38 3.54,58.32 
	2.46,59.16 1.62,60.24 1.68,60.18 1.32,60.78 1.02,61.38 0.78,62.04 0.78,61.98 0.6,62.641 0.48,63.36 0.48,63.3 0.48,64.74 
	0.6,65.46 0.6,65.4 0.78,66.061 1.02,66.719 1.02,66.66 1.32,67.26 1.68,67.86 1.62,67.86 2.04,68.4 2.46,68.88 2.46,68.82 3,69.3 
	2.7,69.66 2.16,69.18 2.1,69.18 1.68,68.7 1.26,68.16 1.26,68.101 0.9,67.5 0.6,66.9 0.54,66.9 0.3,66.24 0.3,66.18 0.12,65.521 
	0,64.8 0,63.3 0.12,62.58 0.12,62.521 0.3,61.86 0.54,61.2 0.6,61.141 0.9,60.54 1.26,59.94 2.1,58.86 2.16,58.8 3.24,57.96 
	3.84,57.601 4.44,57.3 4.5,57.24 5.16,57 5.82,56.82 5.88,56.82 6.6,56.7 8.1,56.7 8.82,56.82 9.48,57 9.54,57 10.2,57.24 
	10.2,57.3 10.8,57.601 11.4,57.96 11.46,57.96 12,58.38 12.48,58.8 12.48,58.86 12.96,59.4 13.38,59.94 13.44,59.94 13.8,60.54 
	14.1,61.141 14.1,61.2 14.34,61.86 14.52,62.521 14.52,62.58 14.64,64.021 "/>
<polyline points="3,69.3 3.54,69.719 3.48,69.719 4.08,70.08 4.68,70.38 4.68,70.32 5.34,70.561 5.28,70.561 5.94,70.74 7.38,70.86 
	7.32,70.86 8.76,70.74 8.7,70.74 9.36,70.561 10.02,70.32 9.96,70.38 10.56,70.08 11.16,69.719 11.7,69.3 11.64,69.3 12.6,68.34 
	12.6,68.4 13.02,67.86 13.38,67.26 13.68,66.66 13.62,66.719 13.86,66.061 14.04,65.4 14.04,65.46 14.16,64.021 14.16,64.08 
	14.64,64.021 14.64,64.08 14.52,65.521 14.34,66.18 14.34,66.24 14.1,66.9 13.8,67.5 13.44,68.101 13.38,68.16 12.96,68.7 12,69.66 
	11.46,70.08 11.4,70.141 10.8,70.5 10.2,70.8 9.54,71.04 9.48,71.04 8.82,71.219 7.38,71.34 7.32,71.34 5.88,71.219 5.82,71.219 
	5.16,71.04 4.5,70.8 4.44,70.8 3.84,70.5 3.24,70.141 3.24,70.08 2.7,69.66 "/>
<polyline points="14.4,85.26 14.28,83.82 14.1,83.16 13.86,82.5 13.56,81.9 13.2,81.3 12.78,80.76 11.82,79.8 11.28,79.38 
	10.68,79.021 10.08,78.719 9.42,78.48 8.76,78.36 8.04,78.24 7.32,78.18 6.6,78.24 5.88,78.36 5.22,78.48 4.56,78.719 3.96,79.021 
	3.36,79.38 2.82,79.8 2.28,80.28 1.86,80.76 1.44,81.3 1.08,81.9 0.78,82.5 0.54,83.16 0.36,83.82 0.24,84.54 0.24,85.98 0.36,86.7 
	0.54,87.36 0.78,88.021 1.08,88.68 1.44,89.219 2.28,90.3 3.36,91.141 3.96,91.5 4.56,91.8 5.22,92.04 5.88,92.219 6.6,92.34 
	8.04,92.34 8.76,92.219 9.42,92.04 10.08,91.8 10.68,91.5 11.28,91.141 11.82,90.719 12.3,90.3 12.78,89.76 13.2,89.219 
	13.56,88.68 13.86,88.021 14.1,87.36 14.28,86.7 14.4,85.26 "/>
<polyline points="14.16,85.32 14.04,83.88 13.86,83.219 13.86,83.28 13.62,82.62 13.68,82.62 13.38,82.021 13.02,81.42 13.02,81.48 
	12.6,80.94 11.64,79.98 11.7,79.98 11.16,79.561 11.16,79.62 10.56,79.26 9.96,78.96 10.02,78.96 9.36,78.719 9.42,78.719 
	8.76,78.601 8.04,78.48 7.32,78.42 7.38,78.42 6.66,78.48 5.94,78.601 5.28,78.719 5.34,78.719 4.68,78.96 4.08,79.26 3.48,79.62 
	3.54,79.561 3,79.98 2.46,80.46 2.04,80.94 1.62,81.48 1.68,81.42 1.32,82.021 1.02,82.62 0.78,83.28 0.78,83.219 0.6,83.88 
	0.48,84.601 0.48,84.54 0.48,85.98 0.6,86.7 0.6,86.641 0.78,87.3 1.02,87.96 1.32,88.62 1.32,88.561 1.68,89.101 1.62,89.101 
	2.46,90.18 2.46,90.12 3,90.54 2.7,90.9 2.16,90.48 2.1,90.48 1.26,89.4 1.26,89.34 0.9,88.8 0.6,88.141 0.54,88.141 0.3,87.48 
	0.3,87.42 0.12,86.76 0,86.04 0,84.54 0.12,83.82 0.12,83.76 0.3,83.101 0.54,82.44 0.6,82.38 0.9,81.78 1.26,81.18 1.68,80.641 
	2.1,80.16 2.16,80.101 2.7,79.62 3.24,79.2 3.84,78.84 4.44,78.54 4.5,78.48 5.16,78.24 5.22,78.24 5.88,78.12 6.6,78 7.32,77.94 
	7.38,77.94 8.1,78 8.82,78.12 9.48,78.24 9.54,78.24 10.2,78.48 10.2,78.54 10.8,78.84 11.4,79.2 11.46,79.2 12,79.62 12.96,80.58 
	12.96,80.641 13.38,81.18 13.44,81.18 13.8,81.78 14.1,82.38 14.1,82.44 14.34,83.101 14.52,83.76 14.52,83.82 14.64,85.26 "/>
<polyline points="3,90.54 3.54,90.96 3.48,90.96 4.08,91.32 4.68,91.62 4.68,91.561 5.34,91.8 5.28,91.8 5.94,91.98 6.66,92.101 
	6.6,92.101 8.04,92.101 8.76,91.98 8.7,91.98 9.36,91.8 10.02,91.561 9.96,91.62 10.56,91.32 11.16,90.96 11.7,90.54 12.18,90.12 
	12.12,90.18 12.6,89.641 13.02,89.101 13.38,88.561 13.38,88.62 13.68,87.96 13.62,87.96 13.86,87.3 14.04,86.641 14.04,86.7 
	14.16,85.26 14.16,85.32 14.64,85.26 14.64,85.32 14.52,86.76 14.34,87.42 14.34,87.48 14.1,88.141 13.8,88.8 13.44,89.34 
	13.38,89.4 12.96,89.94 12.48,90.48 12,90.9 11.46,91.32 11.4,91.38 10.8,91.74 10.2,92.04 9.54,92.28 9.48,92.28 8.82,92.46 
	8.1,92.58 6.6,92.58 5.88,92.46 5.82,92.46 5.16,92.28 4.5,92.04 4.44,92.04 3.84,91.74 3.24,91.38 3.24,91.32 2.7,90.9 "/>
<text transform="matrix(0.9504 0 0 1 384.1206 28.8601)" enable-background="new    "><tspan x="0" y="0" font-family="'ProductusOSGiBookc'" font-size="7.98">Bundle</tspan><tspan x="0" y="9.576" font-family="'ProductusOSGiBookc'" font-size="7.98">Wiring</tspan></text>
<text transform="matrix(0.9504 0 0 1 318.3003 33.1199)" enable-background="new    "><tspan x="0" y="0" font-family="'ProductusOSGiBookc'" font-size="7.98">declaration</tspan><tspan x="0" y="9.576" font-family="'ProductusOSGiBookc'" font-size="7.98">part</tspan></text>
<text transform="matrix(0.9504 0 0 1 202.02 33.8396)" font-family="'ProductusOSGiBookc'" font-size="7.98">bundle wiring</text>
<polyline points="372.121,35.641 372.121,34.92 372,34.26 371.82,33.54 371.582,32.94 371.281,32.28 370.919,31.68 370.5,31.141 
	370.082,30.66 369.541,30.18 369,29.82 368.4,29.46 367.8,29.16 367.14,28.92 366.48,28.74 365.759,28.62 365.041,28.561 
	364.32,28.62 363.599,28.74 362.941,28.92 362.281,29.16 361.679,29.46 361.082,29.82 360.541,30.18 359.582,31.141 359.162,31.68 
	358.8,32.28 358.5,32.94 358.259,33.54 358.082,34.26 358.019,34.92 357.96,35.641 358.019,36.42 358.082,37.08 358.259,37.8 
	358.5,38.4 358.8,39.061 359.162,39.66 359.582,40.2 360.541,41.16 361.082,41.521 361.679,41.88 362.281,42.18 362.941,42.42 
	363.599,42.601 364.32,42.719 365.041,42.78 365.759,42.719 366.48,42.601 367.14,42.42 367.8,42.18 368.4,41.88 369,41.521 
	369.541,41.16 370.082,40.68 370.5,40.2 370.919,39.66 371.281,39.061 371.582,38.4 371.82,37.8 372,37.08 372.121,36.42 
	372.121,35.641 "/>
<polyline points="371.88,35.641 371.88,34.92 371.88,34.98 371.759,34.32 371.582,33.601 371.64,33.66 371.4,33.061 371.099,32.4 
	370.74,31.8 370.74,31.86 370.32,31.32 369.9,30.84 369.96,30.84 369.419,30.36 369.419,30.42 368.88,30.061 368.281,29.7 
	367.679,29.4 367.74,29.4 367.082,29.16 366.419,28.98 366.48,28.98 365.759,28.86 365.041,28.8 365.099,28.8 364.38,28.86 
	363.662,28.98 363,29.16 363.06,29.16 362.4,29.4 361.8,29.7 361.201,30.061 360.662,30.42 360.72,30.36 359.759,31.32 
	359.339,31.86 359.4,31.8 359.041,32.4 358.74,33.061 358.5,33.66 358.5,33.601 358.32,34.32 358.259,34.98 358.201,35.7 
	358.201,35.641 358.259,36.42 358.32,37.08 358.32,37.021 358.5,37.74 358.74,38.34 359.041,39 359.041,38.94 359.4,39.54 
	359.339,39.54 359.759,40.08 359.759,40.021 360.72,40.98 360.662,40.98 360.419,41.4 359.4,40.38 358.98,39.84 358.98,39.78 
	358.621,39.18 358.32,38.521 358.082,37.92 358.019,37.86 357.839,37.141 357.781,36.48 357.72,35.7 357.72,35.641 357.781,34.92 
	357.839,34.26 357.839,34.2 358.019,33.48 358.082,33.48 358.32,32.88 358.621,32.219 358.621,32.16 358.98,31.561 359.4,31.021 
	359.4,30.96 360.361,30 360.419,30 360.96,29.641 361.56,29.28 362.162,28.98 362.22,28.92 362.88,28.68 363.541,28.5 363.599,28.5 
	364.32,28.38 365.041,28.32 365.099,28.32 365.82,28.38 366.541,28.5 367.201,28.68 367.259,28.68 367.919,28.92 367.919,28.98 
	368.519,29.28 369.121,29.641 369.662,30 369.72,30 370.259,30.48 370.259,30.54 370.679,31.021 371.099,31.561 371.162,31.561 
	371.519,32.16 371.519,32.219 371.82,32.88 372.06,33.48 372.24,34.2 372.24,34.26 372.361,34.92 372.361,35.641 "/>
<polyline points="360.662,40.98 361.201,41.34 361.8,41.7 362.4,42 362.4,41.94 363.06,42.18 363,42.18 363.662,42.36 364.38,42.48 
	365.099,42.54 365.041,42.54 365.759,42.48 366.48,42.36 366.419,42.36 367.082,42.18 367.74,41.94 367.679,42 368.281,41.7 
	368.88,41.34 369.419,40.98 369.96,40.5 369.9,40.561 370.32,40.08 370.74,39.54 371.099,38.94 371.099,39 371.4,38.34 
	371.64,37.74 371.582,37.74 371.759,37.021 371.759,37.08 371.88,36.42 371.88,35.641 372.361,35.641 372.361,36.48 372.24,37.141 
	372.06,37.86 372.06,37.92 371.82,38.521 371.519,39.18 371.162,39.78 371.099,39.84 370.679,40.38 370.259,40.86 369.72,41.34 
	369.662,41.4 369.121,41.76 368.519,42.12 367.919,42.42 367.259,42.66 367.201,42.66 366.541,42.84 365.82,42.96 365.099,43.021 
	365.041,43.021 364.32,42.96 363.599,42.84 363.541,42.84 362.88,42.66 362.22,42.42 362.162,42.42 361.56,42.12 360.96,41.76 
	360.419,41.4 "/>
<polyline fill="#FFFFFF" points="88.68,35.641 88.62,34.92 88.5,34.26 88.32,33.54 88.08,32.94 87.78,32.28 87.42,31.68 
	87.06,31.141 86.1,30.18 85.56,29.82 84.96,29.46 84.3,29.16 83.7,28.92 82.98,28.74 82.32,28.62 81.54,28.561 80.82,28.62 
	80.16,28.74 79.44,28.92 78.84,29.16 78.18,29.46 77.58,29.82 77.04,30.18 76.08,31.141 75.72,31.68 75.36,32.28 75.06,32.94 
	74.82,33.54 74.64,34.26 74.52,34.92 74.46,35.641 74.52,36.42 74.64,37.08 74.82,37.8 75.06,38.4 75.36,39.061 75.72,39.66 
	76.08,40.2 77.04,41.16 77.58,41.521 78.18,41.88 78.84,42.18 79.44,42.42 80.16,42.601 80.82,42.719 81.54,42.78 82.32,42.719 
	82.98,42.601 83.7,42.42 84.3,42.18 84.96,41.88 85.56,41.521 86.1,41.16 87.06,40.2 87.42,39.66 87.78,39.061 88.08,38.4 
	88.32,37.8 88.5,37.08 88.62,36.42 88.68,35.641 "/>
<polyline points="88.44,35.7 88.38,34.98 88.26,34.32 88.08,33.601 88.14,33.66 87.9,33.061 87.6,32.4 87.24,31.8 86.88,31.26 
	86.88,31.32 85.92,30.36 85.98,30.42 85.44,30.061 84.84,29.7 84.9,29.7 84.24,29.4 83.64,29.16 82.92,28.98 82.98,28.98 
	82.32,28.86 81.54,28.8 81.6,28.8 80.88,28.86 80.22,28.98 79.5,29.16 79.56,29.16 78.96,29.4 78.3,29.7 77.7,30.061 77.16,30.42 
	77.22,30.36 76.26,31.32 76.32,31.26 75.96,31.8 75.6,32.4 75.3,33.061 75.06,33.66 75.06,33.601 74.88,34.32 74.76,34.98 
	74.7,35.7 74.7,35.641 74.76,36.42 74.88,37.08 74.88,37.021 75.06,37.74 75.3,38.34 75.6,39 75.6,38.94 75.96,39.54 76.32,40.08 
	76.26,40.021 77.22,40.98 77.16,40.98 76.92,41.4 75.9,40.38 75.9,40.32 75.54,39.78 75.18,39.18 74.88,38.521 74.64,37.92 
	74.58,37.86 74.4,37.141 74.28,36.48 74.22,35.7 74.22,35.641 74.28,34.92 74.4,34.26 74.4,34.2 74.58,33.48 74.64,33.48 
	74.88,32.88 75.18,32.219 75.18,32.16 75.54,31.561 75.9,31.021 75.9,30.96 76.86,30 76.92,30 77.46,29.641 78.06,29.28 
	78.12,29.28 78.78,28.98 79.38,28.74 79.38,28.68 80.1,28.5 80.16,28.5 80.82,28.38 81.54,28.32 81.6,28.32 82.38,28.38 83.04,28.5 
	83.76,28.68 83.82,28.74 84.42,28.98 85.08,29.28 85.68,29.641 86.22,30 86.28,30 87.3,31.021 87.66,31.561 88.02,32.16 
	88.02,32.219 88.32,32.88 88.56,33.48 88.74,34.2 88.74,34.26 88.86,34.92 88.92,35.641 "/>
<polyline points="77.16,40.98 77.7,41.34 78.3,41.7 78.96,42 79.56,42.24 79.5,42.18 80.22,42.36 80.88,42.48 81.6,42.54 
	81.54,42.54 82.32,42.48 82.98,42.36 82.92,42.36 83.64,42.18 83.64,42.24 84.24,42 84.9,41.7 84.84,41.7 85.44,41.34 85.98,40.98 
	85.92,40.98 86.88,40.021 86.88,40.08 87.24,39.54 87.6,38.94 87.6,39 87.9,38.34 88.14,37.74 88.08,37.74 88.26,37.021 
	88.26,37.08 88.38,36.42 88.44,35.641 88.44,35.7 88.92,35.641 88.92,35.7 88.86,36.48 88.74,37.141 88.56,37.86 88.56,37.92 
	88.32,38.521 88.02,39.18 87.66,39.78 87.3,40.32 86.22,41.4 85.68,41.76 85.08,42.12 84.42,42.42 83.82,42.66 83.76,42.66 
	83.04,42.84 82.38,42.96 81.6,43.021 81.54,43.021 80.82,42.96 80.16,42.84 80.1,42.84 79.38,42.66 78.78,42.42 78.12,42.12 
	78.06,42.12 77.46,41.76 76.92,41.4 "/>
<rect x="88.44" y="35.4" width="42.96" height="0.479"/>
<rect x="315.179" y="35.4" width="43.021" height="0.479"/>
<rect x="130.92" y="35.4" width="1.26" height="0.479"/>
<rect x="136.14" y="35.4" width="1.98" height="0.479"/>
<rect x="142.08" y="35.4" width="1.98" height="0.479"/>
<rect x="148.02" y="35.4" width="1.98" height="0.479"/>
<rect x="153.96" y="35.4" width="1.98" height="0.479"/>
<rect x="159.9" y="35.4" width="1.98" height="0.479"/>
<rect x="165.84" y="35.4" width="1.98" height="0.479"/>
<rect x="171.78" y="35.4" width="1.98" height="0.479"/>
<rect x="177.72" y="35.4" width="1.98" height="0.479"/>
<rect x="183.72" y="35.4" width="1.92" height="0.479"/>
<rect x="189.66" y="35.4" width="1.92" height="0.479"/>
<rect x="195.6" y="35.4" width="0.24" height="0.479"/>
<rect x="195.84" y="35.4" width="1.68" height="0.479"/>
<rect x="201.54" y="35.4" width="0.24" height="0.479"/>
<rect x="201.78" y="35.4" width="1.681" height="0.479"/>
<rect x="207.48" y="35.4" width="0.24" height="0.479"/>
<rect x="207.72" y="35.4" width="1.68" height="0.479"/>
<rect x="213.419" y="35.4" width="0.24" height="0.479"/>
<rect x="213.662" y="35.4" width="1.738" height="0.479"/>
<rect x="219.36" y="35.4" width="1.979" height="0.479"/>
<rect x="225.3" y="35.4" width="1.979" height="0.479"/>
<rect x="231.24" y="35.4" width="1.98" height="0.479"/>
<rect x="237.18" y="35.4" width="1.979" height="0.479"/>
<rect x="243.121" y="35.4" width="1.979" height="0.479"/>
<rect x="249.06" y="35.4" width="1.98" height="0.479"/>
<rect x="255" y="35.4" width="1.979" height="0.479"/>
<rect x="260.94" y="35.4" width="1.979" height="0.479"/>
<rect x="266.88" y="35.4" width="1.979" height="0.479"/>
<rect x="272.82" y="35.4" width="1.98" height="0.479"/>
<rect x="278.759" y="35.4" width="1.98" height="0.479"/>
<rect x="284.701" y="35.4" width="1.979" height="0.479"/>
<rect x="290.64" y="35.4" width="1.98" height="0.479"/>
<rect x="296.64" y="35.4" width="1.92" height="0.479"/>
<rect x="302.582" y="35.4" width="1.92" height="0.479"/>
<rect x="308.519" y="35.4" width="1.922" height="0.479"/>
<rect x="314.46" y="35.4" width="1.199" height="0.479"/>
<text transform="matrix(0.9504 0 0 1 257.0405 107.7605)" font-family="'ProductusOSGiBookc'" font-size="7.98">getCapability()</text>
<text transform="matrix(0.9504 0 0 1 136.4409 107.7605)" font-family="'ProductusOSGiBookc'" font-size="7.98">getRequirement()</text>
<text transform="matrix(0.9504 0 0 1 131.1606 81.4802)" enable-background="new    "><tspan x="0" y="0" font-family="'ProductusOSGiBookc'" font-size="7.98">getRequirerWiring(</tspan><tspan x="53.752" y="0" font-family="'ProductusOSGiBookc'" font-size="7.98" letter-spacing="74.706">)</tspan></text>
<text transform="matrix(0.9504 0 0 1 257.0562 81.4802)" font-family="'ProductusOSGiBookc'" font-size="7.98">getProviderWiring()</text>
<rect x="193.92" y="79.98" width="54.359" height="26.58"/>
<rect x="193.92" y="79.74" width="54.6" height="0.479"/>
<rect x="248.041" y="79.98" width="0.479" height="26.818"/>
<rect x="193.68" y="106.32" width="54.6" height="0.479"/>
<rect x="193.68" y="79.74" width="0.48" height="26.82"/>
<rect x="191.58" y="78.18" fill="#FFFFFF" width="54.3" height="26.579"/>
<rect x="191.58" y="77.94" width="54.541" height="0.479"/>
<rect x="245.64" y="78.18" width="0.48" height="26.819"/>
<rect x="191.34" y="104.521" width="54.541" height="0.479"/>
<rect x="191.34" y="77.94" width="0.48" height="26.818"/>
<text transform="matrix(0.9504 0 0 1 193.9204 85.3201)" font-family="'ProductusOSGiBookc'" font-size="7.98">&lt;&lt;interface&gt;&gt;</text>
<text transform="matrix(1 0 0 1 193.9204 93.78)" font-family="'ProductusSemibold'" font-size="7.98">Bundle Wire</text>
<rect x="116.76" y="49.62" width="0.48" height="1.2"/>
<rect x="116.76" y="54.78" width="0.48" height="1.979"/>
<rect x="116.76" y="60.66" width="0.48" height="0.24"/>
<rect x="116.76" y="60.9" width="0.48" height="1.74"/>
<rect x="116.76" y="66.601" width="0.48" height="0.238"/>
<rect x="116.76" y="66.84" width="0.48" height="1.682"/>
<rect x="116.76" y="72.48" width="0.48" height="0.238"/>
<rect x="116.76" y="72.719" width="0.48" height="1.74"/>
<rect x="116.76" y="78.36" width="0.48" height="0.24"/>
<rect x="116.76" y="78.601" width="0.48" height="1.738"/>
<rect x="116.76" y="84.3" width="0.48" height="1.2"/>
<rect x="117" y="85.021" width="1.02" height="0.479"/>
<rect x="121.8" y="85.021" width="0.24" height="0.479"/>
<rect x="122.04" y="85.021" width="1.68" height="0.479"/>
<rect x="127.56" y="85.021" width="0.24" height="0.479"/>
<rect x="127.8" y="85.021" width="1.68" height="0.479"/>
<rect x="133.26" y="85.021" width="1.92" height="0.479"/>
<rect x="139.02" y="85.021" width="1.92" height="0.479"/>
<rect x="144.72" y="85.021" width="1.92" height="0.479"/>
<rect x="150.48" y="85.021" width="1.92" height="0.479"/>
<rect x="156.18" y="85.021" width="1.92" height="0.479"/>
<rect x="161.94" y="85.021" width="1.92" height="0.479"/>
<rect x="167.64" y="85.021" width="1.92" height="0.479"/>
<rect x="173.4" y="85.021" width="1.92" height="0.479"/>
<rect x="179.1" y="85.021" width="1.92" height="0.479"/>
<rect x="184.86" y="85.021" width="1.92" height="0.479"/>
<rect x="190.56" y="85.021" width="1.26" height="0.479"/>
<rect x="249.662" y="85.021" width="1.979" height="0.479"/>
<rect x="255.72" y="85.021" width="1.98" height="0.479"/>
<rect x="261.78" y="85.021" width="1.979" height="0.479"/>
<rect x="267.839" y="85.021" width="2.041" height="0.479"/>
<rect x="273.96" y="85.021" width="1.979" height="0.479"/>
<rect x="280.02" y="85.021" width="1.979" height="0.479"/>
<rect x="286.082" y="85.021" width="1.979" height="0.479"/>
<rect x="292.14" y="85.021" width="2.04" height="0.479"/>
<rect x="298.259" y="85.021" width="1.98" height="0.479"/>
<rect x="304.32" y="85.021" width="1.98" height="0.479"/>
<rect x="310.38" y="85.021" width="1.979" height="0.479"/>
<rect x="316.441" y="85.021" width="2.039" height="0.479"/>
<rect x="322.56" y="85.021" width="0.24" height="0.479"/>
<rect x="322.8" y="85.021" width="1.74" height="0.479"/>
<rect x="328.621" y="85.021" width="1.26" height="0.479"/>
<rect x="329.4" y="84.3" width="0.48" height="0.96"/>
<rect x="329.4" y="80.101" width="0.48" height="0.238"/>
<rect x="329.4" y="78.36" width="0.48" height="1.74"/>
<rect x="329.4" y="74.219" width="0.48" height="0.24"/>
<rect x="329.4" y="72.48" width="0.48" height="1.738"/>
<rect x="329.4" y="68.28" width="0.48" height="0.24"/>
<rect x="329.4" y="66.601" width="0.48" height="1.68"/>
<rect x="329.4" y="62.4" width="0.48" height="0.24"/>
<rect x="329.4" y="60.66" width="0.48" height="1.74"/>
<rect x="329.4" y="56.521" width="0.48" height="0.238"/>
<rect x="329.4" y="54.78" width="0.48" height="1.74"/>
<rect x="329.4" y="50.58" width="0.48" height="0.24"/>
<rect x="329.4" y="49.62" width="0.48" height="0.96"/>
<rect x="245.64" y="99.24" width="119.641" height="0.479"/>
<rect x="364.8" y="42.54" width="0.479" height="56.94"/>
<rect x="81.3" y="99.24" width="110.52" height="0.479"/>
<rect x="81.3" y="42.54" width="0.48" height="56.94"/>
<text transform="matrix(0.9504 0 0 1 95.7603 33.2996)" enable-background="new    "><tspan x="0" y="0" font-family="'ProductusOSGiBookc'" font-size="7.98">declaration</tspan><tspan x="0" y="9.576" font-family="'ProductusOSGiBookc'" font-size="7.98">part</tspan></text>
<text transform="matrix(0.9504 0 0 1 46.1406 30.7205)" enable-background="new    "><tspan x="0" y="0" font-family="'ProductusOSGiBookc'" font-size="7.98">Bundle</tspan><tspan x="0" y="9.576" font-family="'ProductusOSGiBookc'" font-size="7.98">Wiring</tspan></text>
<rect x="318.9" y="0" width="43.021" height="0.48"/>
<rect x="134.64" y="0" width="1.2" height="0.48"/>
<rect x="139.86" y="0" width="1.92" height="0.48"/>
<rect x="145.8" y="0" width="1.98" height="0.48"/>
<rect x="151.74" y="0" width="1.98" height="0.48"/>
<rect x="157.68" y="0" width="1.98" height="0.48"/>
<rect x="163.62" y="0" width="1.98" height="0.48"/>
<rect x="169.56" y="0" width="1.98" height="0.48"/>
<rect x="175.5" y="0" width="1.98" height="0.48"/>
<rect x="181.44" y="0" width="1.98" height="0.48"/>
<rect x="187.38" y="0" width="1.98" height="0.48"/>
<rect x="193.32" y="0" width="1.98" height="0.48"/>
<rect x="199.26" y="0" width="1.98" height="0.48"/>
<rect x="205.201" y="0" width="1.979" height="0.48"/>
<rect x="211.14" y="0" width="1.98" height="0.48"/>
<rect x="217.082" y="0" width="1.979" height="0.48"/>
<rect x="223.02" y="0" width="1.979" height="0.48"/>
<rect x="228.96" y="0" width="1.979" height="0.48"/>
<rect x="234.96" y="0" width="1.92" height="0.48"/>
<rect x="240.9" y="0" width="1.92" height="0.48"/>
<rect x="246.839" y="0" width="1.92" height="0.48"/>
<rect x="252.78" y="0" width="0.24" height="0.48"/>
<rect x="253.02" y="0" width="1.681" height="0.48"/>
<rect x="258.72" y="0" width="0.24" height="0.48"/>
<rect x="258.96" y="0" width="1.74" height="0.48"/>
<rect x="264.662" y="0" width="0.238" height="0.48"/>
<rect x="264.9" y="0" width="1.74" height="0.48"/>
<rect x="270.6" y="0" width="0.239" height="0.48"/>
<rect x="270.839" y="0" width="1.74" height="0.48"/>
<rect x="276.541" y="0" width="0.239" height="0.48"/>
<rect x="276.78" y="0" width="1.74" height="0.48"/>
<rect x="282.48" y="0" width="0.24" height="0.48"/>
<rect x="282.72" y="0" width="1.74" height="0.48"/>
<rect x="288.419" y="0" width="0.24" height="0.48"/>
<rect x="288.662" y="0" width="1.738" height="0.48"/>
<rect x="294.36" y="0" width="0.24" height="0.48"/>
<rect x="294.6" y="0" width="1.739" height="0.48"/>
<rect x="300.3" y="0" width="0.24" height="0.48"/>
<rect x="300.541" y="0" width="1.739" height="0.48"/>
<rect x="306.24" y="0" width="0.24" height="0.48"/>
<rect x="306.48" y="0" width="1.74" height="0.48"/>
<rect x="312.179" y="0" width="0.24" height="0.48"/>
<rect x="312.419" y="0" width="1.74" height="0.48"/>
<rect x="318.121" y="0" width="0.24" height="0.48"/>
<rect x="318.361" y="0" width="1.02" height="0.48"/>
<rect x="85.02" y="0" width="0.24" height="0.48"/>
<rect x="85.26" y="0" width="42.78" height="0.48"/>
<text transform="matrix(0.9504 0 0 1 205.7397 7.6199)" font-family="'ProductusOSGiBookc'" font-size="7.98">Bundle Wire</text>
</svg>
