<?xml version="1.0" encoding="utf-8"?>
<!-- Generator: Adobe Illustrator 16.0.0, SVG Export Plug-In . SVG Version: 6.00 Build 0)  -->
<!DOCTYPE svg PUBLIC "-//W3C//DTD SVG 1.1//EN" "http://www.w3.org/Graphics/SVG/1.1/DTD/svg11.dtd">
<svg version="1.1" id="Layer_1" xmlns="http://www.w3.org/2000/svg" xmlns:xlink="http://www.w3.org/1999/xlink" x="0px" y="0px"
	 width="404.22px" height="361.919px" viewBox="0 0 404.22 361.919" style="enable-background:new 0 0 404.22 361.919;"
	 xml:space="preserve">
<rect x="222.06" y="2.04" width="54.36" height="27"/>
<rect x="222.06" y="1.8" width="54.6" height="0.48"/>
<rect x="276.18" y="2.04" width="0.479" height="27.24"/>
<rect x="221.82" y="28.8" width="54.601" height="0.48"/>
<rect x="221.82" y="1.8" width="0.48" height="27.24"/>
<rect x="219.72" y="0.24" style="fill:#FFFFFF;" width="54.3" height="27"/>
<rect x="219.72" width="54.54" height="0.48"/>
<rect x="273.78" y="0.24" width="0.48" height="27.24"/>
<rect x="219.48" y="27" width="54.54" height="0.48"/>
<rect x="219.48" width="0.48" height="27.24"/>
<text transform="matrix(1 0 0 1.0522 222.0601 7.3799)"><tspan x="0" y="0" style="font-family:'ProductusOSGiBookc'; font-size:7.5841;">&lt;</tspan><tspan x="2.799" y="0" style="font-family:'ProductusOSGiBookc'; font-size:7.5841;">&lt;</tspan><tspan x="5.559" y="0" style="font-family:'ProductusOSGiBookc'; font-size:7.5841;">i</tspan><tspan x="7" y="0" style="font-family:'ProductusOSGiBookc'; font-size:7.5841;">n</tspan><tspan x="10.474" y="0" style="font-family:'ProductusOSGiBookc'; font-size:7.5841;">te</tspan><tspan x="16.018" y="0" style="font-family:'ProductusOSGiBookc'; font-size:7.5841;">r</tspan><tspan x="18.118" y="0" style="font-family:'ProductusOSGiBookc'; font-size:7.5841;">f</tspan><tspan x="20.037" y="0" style="font-family:'ProductusOSGiBookc'; font-size:7.5841;">a</tspan><tspan x="23.169" y="0" style="font-family:'ProductusOSGiBookc'; font-size:7.5841;">c</tspan><tspan x="26.051" y="0" style="font-family:'ProductusOSGiBookc'; font-size:7.5841;">e</tspan><tspan x="29.357" y="0" style="font-family:'ProductusOSGiBookc'; font-size:7.5841;">&gt;</tspan><tspan x="32.156" y="0" style="font-family:'ProductusOSGiBookc'; font-size:7.5841;">&gt;</tspan></text>
<text transform="matrix(1 0 0 1 222.0601 15.8999)"><tspan x="0" y="0" style="font-family:'ProductusBook'; font-size:7.98;">B</tspan><tspan x="3.583" y="0" style="font-family:'ProductusBook'; font-size:7.98;">u</tspan><tspan x="7.246" y="0" style="font-family:'ProductusBook'; font-size:7.98;">ndl</tspan><tspan x="16.231" y="0" style="font-family:'ProductusBook'; font-size:7.98;">e</tspan></text>
<rect x="121.98" y="129.18" width="55.2" height="27"/>
<rect x="121.98" y="128.94" width="55.44" height="0.48"/>
<rect x="176.94" y="129.18" width="0.48" height="27.24"/>
<rect x="121.74" y="155.94" width="55.44" height="0.48"/>
<rect x="121.74" y="128.94" width="0.48" height="27.24"/>
<rect x="119.58" y="127.38" style="fill:#FFFFFF;" width="55.2" height="27"/>
<rect x="119.58" y="127.14" width="55.44" height="0.48"/>
<rect x="174.54" y="127.38" width="0.48" height="27.24"/>
<rect x="119.34" y="154.14" width="55.44" height="0.48"/>
<rect x="119.34" y="127.14" width="0.48" height="27.24"/>
<text transform="matrix(1 0 0 1.0522 121.98 134.52)"><tspan x="0" y="0" style="font-family:'ProductusOSGiBookc'; font-size:7.5841;">&lt;</tspan><tspan x="2.798" y="0" style="font-family:'ProductusOSGiBookc'; font-size:7.5841;">&lt;</tspan><tspan x="5.559" y="0" style="font-family:'ProductusOSGiBookc'; font-size:7.5841;">i</tspan><tspan x="7" y="0" style="font-family:'ProductusOSGiBookc'; font-size:7.5841;">n</tspan><tspan x="10.473" y="0" style="font-family:'ProductusOSGiBookc'; font-size:7.5841;">t</tspan><tspan x="12.703" y="0" style="font-family:'ProductusOSGiBookc'; font-size:7.5841;">e</tspan><tspan x="16.01" y="0" style="font-family:'ProductusOSGiBookc'; font-size:7.5841;">r</tspan><tspan x="18.11" y="0" style="font-family:'ProductusOSGiBookc'; font-size:7.5841;">f</tspan><tspan x="20.029" y="0" style="font-family:'ProductusOSGiBookc'; font-size:7.5841;">a</tspan><tspan x="23.154" y="0" style="font-family:'ProductusOSGiBookc'; font-size:7.5841;">c</tspan><tspan x="26.036" y="0" style="font-family:'ProductusOSGiBookc'; font-size:7.5841;">e</tspan><tspan x="29.342" y="0" style="font-family:'ProductusOSGiBookc'; font-size:7.5841;">&gt;</tspan><tspan x="32.141" y="0" style="font-family:'ProductusOSGiBookc'; font-size:7.5841;">&gt;</tspan></text>
<text transform="matrix(1 0 0 1 121.98 142.98)"><tspan x="0" y="0" style="font-family:'ProductusSemibold'; font-size:7.98;">B</tspan><tspan x="4.317" y="0" style="font-family:'ProductusSemibold'; font-size:7.98;">un</tspan><tspan x="12.824" y="0" style="font-family:'ProductusSemibold'; font-size:7.98;">d</tspan><tspan x="17.196" y="0" style="font-family:'ProductusSemibold'; font-size:7.98;">l</tspan><tspan x="19.351" y="0" style="font-family:'ProductusSemibold'; font-size:7.98;">e</tspan></text>
<text transform="matrix(1 0 0 1 121.98 151.5)"><tspan x="0" y="0" style="font-family:'ProductusSemibold'; font-size:7.98;">R</tspan><tspan x="4.253" y="0" style="font-family:'ProductusSemibold'; font-size:7.98;">e</tspan><tspan x="8.387" y="0" style="font-family:'ProductusSemibold'; font-size:7.98;">qui</tspan><tspan x="19.112" y="0" style="font-family:'ProductusSemibold'; font-size:7.98;">r</tspan><tspan x="22.048" y="0" style="font-family:'ProductusSemibold'; font-size:7.98;">emen</tspan><tspan x="40.929" y="0" style="font-family:'ProductusSemibold'; font-size:7.98;">t</tspan></text>
<rect x="222.12" y="129.18" width="55.2" height="27"/>
<rect x="222.12" y="128.94" width="55.44" height="0.48"/>
<rect x="277.081" y="129.18" width="0.479" height="27.24"/>
<rect x="221.88" y="155.94" width="55.439" height="0.48"/>
<rect x="221.88" y="128.94" width="0.479" height="27.24"/>
<rect x="219.72" y="127.38" style="fill:#FFFFFF;" width="55.2" height="27"/>
<rect x="219.72" y="127.14" width="55.439" height="0.48"/>
<rect x="274.68" y="127.38" width="0.479" height="27.24"/>
<rect x="219.48" y="154.14" width="55.44" height="0.48"/>
<rect x="219.48" y="127.14" width="0.48" height="27.24"/>
<text transform="matrix(1 0 0 1.0522 222.1196 134.52)"><tspan x="0" y="0" style="font-family:'ProductusOSGiBookc'; font-size:7.5841;">&lt;</tspan><tspan x="2.775" y="0" style="font-family:'ProductusOSGiBookc'; font-size:7.5841;">&lt;</tspan><tspan x="5.589" y="0" style="font-family:'ProductusOSGiBookc'; font-size:7.5841;">interfa</tspan><tspan x="23.093" y="0" style="font-family:'ProductusOSGiBookc'; font-size:7.5841;">c</tspan><tspan x="26.028" y="0" style="font-family:'ProductusOSGiBookc'; font-size:7.5841;">e&gt;</tspan><tspan x="32.095" y="0" style="font-family:'ProductusOSGiBookc'; font-size:7.5841;">&gt;</tspan></text>
<text transform="matrix(1 0 0 1 222.1196 142.98)"><tspan x="0" y="0" style="font-family:'ProductusSemibold'; font-size:7.98;">B</tspan><tspan x="4.27" y="0" style="font-family:'ProductusSemibold'; font-size:7.98;">u</tspan><tspan x="8.586" y="0" style="font-family:'ProductusSemibold'; font-size:7.98;">nd</tspan><tspan x="17.165" y="0" style="font-family:'ProductusSemibold'; font-size:7.98;">l</tspan><tspan x="19.383" y="0" style="font-family:'ProductusSemibold'; font-size:7.98;">e</tspan><tspan x="23.461" y="0" style="font-family:'ProductusSemibold'; font-size:7.98;"> </tspan><tspan x="25.495" y="0" style="font-family:'ProductusSemibold'; font-size:7.98;">Wirin</tspan><tspan x="44.472" y="0" style="font-family:'ProductusSemibold'; font-size:7.98;">g</tspan></text>
<rect x="222.06" y="271.32" width="54.36" height="26.58"/>
<rect x="222.06" y="271.08" width="54.6" height="0.48"/>
<rect x="276.18" y="271.32" width="0.479" height="26.82"/>
<rect x="221.82" y="297.66" width="54.601" height="0.48"/>
<rect x="221.82" y="271.08" width="0.48" height="26.82"/>
<rect x="219.72" y="269.58" style="fill:#FFFFFF;" width="54.3" height="26.521"/>
<rect x="219.72" y="269.34" width="54.54" height="0.48"/>
<rect x="273.78" y="269.58" width="0.48" height="26.76"/>
<rect x="219.48" y="295.86" width="54.54" height="0.479"/>
<rect x="219.48" y="269.34" width="0.48" height="26.76"/>
<text transform="matrix(1 0 0 1.0522 222.0601 276.6597)"><tspan x="0" y="0" style="font-family:'ProductusOSGiBookc'; font-size:7.5841;">&lt;</tspan><tspan x="2.799" y="0" style="font-family:'ProductusOSGiBookc'; font-size:7.5841;">&lt;</tspan><tspan x="5.559" y="0" style="font-family:'ProductusOSGiBookc'; font-size:7.5841;">i</tspan><tspan x="7" y="0" style="font-family:'ProductusOSGiBookc'; font-size:7.5841;">n</tspan><tspan x="10.474" y="0" style="font-family:'ProductusOSGiBookc'; font-size:7.5841;">te</tspan><tspan x="16.018" y="0" style="font-family:'ProductusOSGiBookc'; font-size:7.5841;">r</tspan><tspan x="18.118" y="0" style="font-family:'ProductusOSGiBookc'; font-size:7.5841;">f</tspan><tspan x="20.037" y="0" style="font-family:'ProductusOSGiBookc'; font-size:7.5841;">a</tspan><tspan x="23.169" y="0" style="font-family:'ProductusOSGiBookc'; font-size:7.5841;">c</tspan><tspan x="26.051" y="0" style="font-family:'ProductusOSGiBookc'; font-size:7.5841;">e</tspan><tspan x="29.357" y="0" style="font-family:'ProductusOSGiBookc'; font-size:7.5841;">&gt;</tspan><tspan x="32.156" y="0" style="font-family:'ProductusOSGiBookc'; font-size:7.5841;">&gt;</tspan></text>
<text transform="matrix(1 0 0 1 222.0601 285.1802)"><tspan x="0" y="0" style="font-family:'ProductusSemibold'; font-size:7.98;">B</tspan><tspan x="4.317" y="0" style="font-family:'ProductusSemibold'; font-size:7.98;">un</tspan><tspan x="12.823" y="0" style="font-family:'ProductusSemibold'; font-size:7.98;">d</tspan><tspan x="17.196" y="0" style="font-family:'ProductusSemibold'; font-size:7.98;">le Wir</tspan><tspan x="37.968" y="0" style="font-family:'ProductusSemibold'; font-size:7.98;">e</tspan></text>
<rect x="29.88" y="2.04" width="55.2" height="27"/>
<rect x="29.88" y="1.8" width="55.44" height="0.48"/>
<rect x="84.84" y="2.04" width="0.48" height="27.24"/>
<rect x="29.64" y="28.8" width="55.44" height="0.48"/>
<rect x="29.64" y="1.8" width="0.48" height="27.24"/>
<rect x="27.48" y="0.24" style="fill:#FFFFFF;" width="55.14" height="27"/>
<rect x="27.48" width="55.38" height="0.48"/>
<rect x="82.38" y="0.24" width="0.48" height="27.24"/>
<rect x="27.24" y="27" width="55.38" height="0.48"/>
<rect x="27.24" width="0.48" height="27.24"/>
<text transform="matrix(1 0 0 1.0522 29.8799 7.3799)"><tspan x="0" y="0" style="font-family:'ProductusOSGiBookc'; font-size:7.5841;">&lt;</tspan><tspan x="2.776" y="0" style="font-family:'ProductusOSGiBookc'; font-size:7.5841;">&lt;</tspan><tspan x="5.589" y="0" style="font-family:'ProductusOSGiBookc'; font-size:7.5841;">interfa</tspan><tspan x="23.093" y="0" style="font-family:'ProductusOSGiBookc'; font-size:7.5841;">c</tspan><tspan x="26.028" y="0" style="font-family:'ProductusOSGiBookc'; font-size:7.5841;">e&gt;</tspan><tspan x="32.095" y="0" style="font-family:'ProductusOSGiBookc'; font-size:7.5841;">&gt;</tspan></text>
<text transform="matrix(1 0 0 1 29.8799 15.8999)"><tspan x="0" y="0" style="font-family:'ProductusSemibold'; font-size:7.98;">F</tspan><tspan x="3.599" y="0" style="font-family:'ProductusSemibold'; font-size:7.98;">ra</tspan><tspan x="10.549" y="0" style="font-family:'ProductusSemibold'; font-size:7.98;">m</tspan><tspan x="16.901" y="0" style="font-family:'ProductusSemibold'; font-size:7.98;">e</tspan><tspan x="20.979" y="0" style="font-family:'ProductusSemibold'; font-size:7.98;">w</tspan><tspan x="27.275" y="0" style="font-family:'ProductusSemibold'; font-size:7.98;">o</tspan><tspan x="31.592" y="0" style="font-family:'ProductusSemibold'; font-size:7.98;">r</tspan><tspan x="34.584" y="0" style="font-family:'ProductusSemibold'; font-size:7.98;">k</tspan><tspan x="38.599" y="0" style="font-family:'ProductusSemibold'; font-size:7.98;"> </tspan></text>
<text transform="matrix(1 0 0 1 29.8799 24.3604)"><tspan x="0" y="0" style="font-family:'ProductusSemibold'; font-size:7.98;">Wirin</tspan><tspan x="18.976" y="0" style="font-family:'ProductusSemibold'; font-size:7.98;">g</tspan></text>
<text transform="matrix(1 0 0 1 250.6802 125.4604)"><tspan x="0" y="0" style="font-family:'ProductusBook'; font-size:7.98;">0</tspan><tspan x="3.958" y="0" style="font-family:'ProductusBook'; font-size:7.98;">,</tspan><tspan x="5.522" y="0" style="font-family:'ProductusBook'; font-size:7.98;">1</tspan><tspan x="8.698" y="0" style="font-family:'ProductusBook'; font-size:7.98;"> </tspan><tspan x="10.31" y="0" style="font-family:'ProductusBook'; font-size:7.98;">(</tspan><tspan x="12.417" y="0" style="font-family:'ProductusBook'; font-size:7.98;">w</tspan><tspan x="17.571" y="0" style="font-family:'ProductusBook'; font-size:7.98;">h</tspan><tspan x="21.242" y="0" style="font-family:'ProductusBook'; font-size:7.98;">e</tspan><tspan x="24.777" y="0" style="font-family:'ProductusBook'; font-size:7.98;">n</tspan><tspan x="28.448" y="0" style="font-family:'ProductusBook'; font-size:7.98;"> </tspan><tspan x="30.068" y="0" style="font-family:'ProductusBook'; font-size:7.98;">reso</tspan><tspan x="42.405" y="0" style="font-family:'ProductusBook'; font-size:7.98;">l</tspan><tspan x="44.025" y="0" style="font-family:'ProductusBook'; font-size:7.98;">v</tspan><tspan x="47.09" y="0" style="font-family:'ProductusBook'; font-size:7.98;">e</tspan><tspan x="50.624" y="0" style="font-family:'ProductusBook'; font-size:7.98;">d</tspan><tspan x="54.287" y="0" style="font-family:'ProductusBook'; font-size:7.98;">)</tspan></text>
<text transform="matrix(1 0 0 1.0522 0 7.6196)"><tspan x="0" y="0" style="font-family:'ProductusOSGiBookc'; font-size:7.5841;">&lt;</tspan><tspan x="2.798" y="0" style="font-family:'ProductusOSGiBookc'; font-size:7.5841;">&lt;</tspan><tspan x="5.559" y="0" style="font-family:'ProductusOSGiBookc'; font-size:7.5841;">sy</tspan><tspan x="11.247" y="0" style="font-family:'ProductusOSGiBookc'; font-size:7.5841;">s</tspan><tspan x="13.894" y="0" style="font-family:'ProductusOSGiBookc'; font-size:7.5841;">t</tspan><tspan x="16.108" y="0" style="font-family:'ProductusOSGiBookc'; font-size:7.5841;">e</tspan><tspan x="19.422" y="0" style="font-family:'ProductusOSGiBookc'; font-size:7.5841;">m</tspan><tspan x="24.83" y="0" style="font-family:'ProductusOSGiBookc'; font-size:7.5841;"> </tspan></text>
<rect x="222.06" y="65.82" width="54.36" height="26.58"/>
<rect x="222.06" y="65.58" width="54.6" height="0.48"/>
<rect x="276.18" y="65.82" width="0.479" height="26.82"/>
<rect x="221.82" y="92.16" width="54.601" height="0.48"/>
<rect x="221.82" y="65.58" width="0.48" height="26.82"/>
<rect x="219.72" y="64.02" style="fill:#FFFFFF;" width="54.3" height="26.58"/>
<rect x="219.72" y="63.78" width="54.54" height="0.48"/>
<rect x="273.78" y="64.02" width="0.48" height="26.82"/>
<rect x="219.48" y="90.36" width="54.54" height="0.48"/>
<rect x="219.48" y="63.78" width="0.48" height="26.82"/>
<text transform="matrix(1 0 0 1.0522 222.0601 71.1597)"><tspan x="0" y="0" style="font-family:'ProductusOSGiBookc'; font-size:7.5841;">&lt;</tspan><tspan x="2.799" y="0" style="font-family:'ProductusOSGiBookc'; font-size:7.5841;">&lt;</tspan><tspan x="5.559" y="0" style="font-family:'ProductusOSGiBookc'; font-size:7.5841;">i</tspan><tspan x="7" y="0" style="font-family:'ProductusOSGiBookc'; font-size:7.5841;">n</tspan><tspan x="10.474" y="0" style="font-family:'ProductusOSGiBookc'; font-size:7.5841;">te</tspan><tspan x="16.018" y="0" style="font-family:'ProductusOSGiBookc'; font-size:7.5841;">r</tspan><tspan x="18.118" y="0" style="font-family:'ProductusOSGiBookc'; font-size:7.5841;">f</tspan><tspan x="20.037" y="0" style="font-family:'ProductusOSGiBookc'; font-size:7.5841;">a</tspan><tspan x="23.169" y="0" style="font-family:'ProductusOSGiBookc'; font-size:7.5841;">c</tspan><tspan x="26.051" y="0" style="font-family:'ProductusOSGiBookc'; font-size:7.5841;">e</tspan><tspan x="29.357" y="0" style="font-family:'ProductusOSGiBookc'; font-size:7.5841;">&gt;</tspan><tspan x="32.156" y="0" style="font-family:'ProductusOSGiBookc'; font-size:7.5841;">&gt;</tspan></text>
<text transform="matrix(1 0 0 1 222.0601 79.6196)"><tspan x="0" y="0" style="font-family:'ProductusSemibold'; font-size:7.98;">B</tspan><tspan x="4.317" y="0" style="font-family:'ProductusSemibold'; font-size:7.98;">un</tspan><tspan x="12.84" y="0" style="font-family:'ProductusSemibold'; font-size:7.98;">d</tspan><tspan x="17.213" y="0" style="font-family:'ProductusSemibold'; font-size:7.98;">le</tspan><tspan x="23.492" y="0" style="font-family:'ProductusSemibold'; font-size:7.98;"> </tspan></text>
<text transform="matrix(1 0 0 1 222.0601 88.1401)"><tspan x="0" y="0" style="font-family:'ProductusSemibold'; font-size:7.98;">Re</tspan><tspan x="8.387" y="0" style="font-family:'ProductusSemibold'; font-size:7.98;">v</tspan><tspan x="12.4" y="0" style="font-family:'ProductusSemibold'; font-size:7.98;">i</tspan><tspan x="14.556" y="0" style="font-family:'ProductusSemibold'; font-size:7.98;">s</tspan><tspan x="17.915" y="0" style="font-family:'ProductusSemibold'; font-size:7.98;">i</tspan><tspan x="20.069" y="0" style="font-family:'ProductusSemibold'; font-size:7.98;">o</tspan><tspan x="24.442" y="0" style="font-family:'ProductusSemibold'; font-size:7.98;">n</tspan></text>
<text transform="matrix(1 0 0 1.0522 0 17.2798)"><tspan x="0" y="0" style="font-family:'ProductusOSGiBookc'; font-size:7.5841;">b</tspan><tspan x="3.519" y="0" style="font-family:'ProductusOSGiBookc'; font-size:7.5841;">u</tspan><tspan x="6.939" y="0" style="font-family:'ProductusOSGiBookc'; font-size:7.5841;">n</tspan><tspan x="10.436" y="0" style="font-family:'ProductusOSGiBookc'; font-size:7.5841;">d</tspan><tspan x="13.917" y="0" style="font-family:'ProductusOSGiBookc'; font-size:7.5841;">l</tspan><tspan x="15.357" y="0" style="font-family:'ProductusOSGiBookc'; font-size:7.5841;">e</tspan><tspan x="18.656" y="0" style="font-family:'ProductusOSGiBookc'; font-size:7.5841;">&gt;</tspan><tspan x="21.47" y="0" style="font-family:'ProductusOSGiBookc'; font-size:7.5841;">&gt;</tspan></text>
<rect x="247.8" y="28.38" width="0.479" height="35.88"/>
<text transform="matrix(1 0 0 1 214.0806 12.0601)" style="font-family:'ProductusBook'; font-size:7.98;">1</text>
<rect x="247.8" y="92.16" width="0.479" height="35.88"/>
<rect x="320.4" y="129.18" width="55.2" height="27"/>
<rect x="320.4" y="128.94" width="55.44" height="0.48"/>
<rect x="375.36" y="129.18" width="0.48" height="27.24"/>
<rect x="320.16" y="155.94" width="55.44" height="0.48"/>
<rect x="320.16" y="128.94" width="0.48" height="27.24"/>
<rect x="318" y="127.38" style="fill:#FFFFFF;" width="55.199" height="27"/>
<rect x="318" y="127.14" width="55.439" height="0.48"/>
<rect x="372.96" y="127.38" width="0.479" height="27.24"/>
<rect x="317.76" y="154.14" width="55.439" height="0.48"/>
<rect x="317.76" y="127.14" width="0.479" height="27.24"/>
<text transform="matrix(1 0 0 1.0522 320.3999 134.52)"><tspan x="0" y="0" style="font-family:'ProductusOSGiBookc'; font-size:7.5841;">&lt;&lt;</tspan><tspan x="5.536" y="0" style="font-family:'ProductusOSGiBookc'; font-size:7.5841;">i</tspan><tspan x="7.03" y="0" style="font-family:'ProductusOSGiBookc'; font-size:7.5841;">nter</tspan><tspan x="18.058" y="0" style="font-family:'ProductusOSGiBookc'; font-size:7.5841;">f</tspan><tspan x="19.976" y="0" style="font-family:'ProductusOSGiBookc'; font-size:7.5841;">a</tspan><tspan x="23.093" y="0" style="font-family:'ProductusOSGiBookc'; font-size:7.5841;">c</tspan><tspan x="26.028" y="0" style="font-family:'ProductusOSGiBookc'; font-size:7.5841;">e</tspan><tspan x="29.327" y="0" style="font-family:'ProductusOSGiBookc'; font-size:7.5841;">&gt;</tspan><tspan x="32.095" y="0" style="font-family:'ProductusOSGiBookc'; font-size:7.5841;">&gt;</tspan></text>
<text transform="matrix(1 0 0 1 320.3999 142.98)"><tspan x="0" y="0" style="font-family:'ProductusSemibold'; font-size:7.98;">Bu</tspan><tspan x="8.515" y="0" style="font-family:'ProductusSemibold'; font-size:7.98;">n</tspan><tspan x="12.831" y="0" style="font-family:'ProductusSemibold'; font-size:7.98;">d</tspan><tspan x="17.148" y="0" style="font-family:'ProductusSemibold'; font-size:7.98;">l</tspan><tspan x="19.303" y="0" style="font-family:'ProductusSemibold'; font-size:7.98;">e</tspan></text>
<text transform="matrix(1 0 0 1 320.3999 151.5)"><tspan x="0" y="0" style="font-family:'ProductusSemibold'; font-size:7.98;">C</tspan><tspan x="4.796" y="0" style="font-family:'ProductusSemibold'; font-size:7.98;">apabilit</tspan><tspan x="30.993" y="0" style="font-family:'ProductusSemibold'; font-size:7.98;">y</tspan></text>
<polyline points="335.76,78.18 335.76,74.88 336.42,75.06 345.66,77.7 347.28,78.18 345.66,78.66 336.42,81.36 335.76,81.54 
	335.76,80.88 336.12,80.4 345.36,77.7 345.66,78.66 345.36,78.66 336.12,76.02 336.42,75.06 336.78,75.54 336.78,78.18 "/>
<rect x="335.76" y="78.18" width="1.02" height="2.7"/>
<polyline style="fill-rule:evenodd;clip-rule:evenodd;" points="336.24,78.18 336.24,75.54 345.48,78.18 336.24,80.88 "/>
<rect x="335.76" y="77.94" width="0.24" height="0.48"/>
<rect x="276.18" y="77.94" width="59.58" height="0.48"/>
<rect x="276.18" y="290.58" width="57.18" height="0.48"/>
<rect x="332.88" y="155.94" width="0.479" height="134.88"/>
<rect x="162.78" y="290.58" width="57.18" height="0.48"/>
<rect x="162.78" y="155.94" width="0.48" height="134.88"/>
<text transform="matrix(1 0 0 1 250.9204 97.8599)" style="font-family:'ProductusBook'; font-size:7.98;">1</text>
<text transform="matrix(1 0 0 1 250.6802 61.6802)"><tspan x="0" y="0" style="font-family:'ProductusBook'; font-size:7.98;">0</tspan><tspan x="3.958" y="0" style="font-family:'ProductusBook'; font-size:7.98;">.</tspan><tspan x="5.522" y="0" style="font-family:'ProductusBook'; font-size:7.98;">n</tspan></text>
<text transform="matrix(1 0 0 1 250.9204 35.9995)" style="font-family:'ProductusBook'; font-size:7.98;">1</text>
<text transform="matrix(1 0 0 1 322.3208 125.4595)" style="font-family:'ProductusBook'; font-size:7.98;">0.n</text>
<text transform="matrix(1 0 0 1 272.1011 97.8589)" style="font-family:'ProductusBook'; font-size:7.98;">1</text>
<text transform="matrix(1 0 0 1 223.6206 97.8589)" style="font-family:'ProductusBook'; font-size:7.98;">1</text>
<text transform="matrix(1 0 0 1 164.4609 125.4595)" style="font-family:'ProductusBook'; font-size:7.98;">0.n</text>
<text transform="matrix(1 0 0 1 144.6011 162.8994)" style="font-family:'ProductusBook'; font-size:7.98;">1</text>
<text transform="matrix(1 0 0 1 340.2017 160.9194)" style="font-family:'ProductusBook'; font-size:7.98;">1</text>
<text transform="matrix(1 0 0 1 278.521 288.48)" style="font-family:'ProductusBook'; font-size:7.98;">0.n</text>
<text transform="matrix(1 0 0 1 205.501 288.48)" style="font-family:'ProductusBook'; font-size:7.98;">0.n</text>
<text transform="matrix(1 0 0 1 278.3413 274.2593)"><tspan x="0" y="0" style="font-family:'ProductusBook'; font-size:7.98;">0</tspan><tspan x="3.958" y="0" style="font-family:'ProductusBook'; font-size:7.98;">.</tspan><tspan x="5.522" y="0" style="font-family:'ProductusBook'; font-size:7.98;">n</tspan></text>
<text transform="matrix(1 0 0 1 207.481 274.2593)" style="font-family:'ProductusBook'; font-size:7.98;">0.n</text>
<text transform="matrix(1 0 0 1 280.3208 147.2393)" style="font-family:'ProductusBook'; font-size:7.98;">1</text>
<text transform="matrix(1 0 0 1 214.7407 147.2393)" style="font-family:'ProductusBook'; font-size:7.98;">1</text>
<text transform="matrix(1 0 0 1 182.0415 12.0596)" style="font-family:'ProductusBook'; font-size:7.98;">adapted</text>
<text transform="matrix(1 0 0 1 182.0415 21.8398)" style="font-family:'ProductusBook'; font-size:7.98;">from</text>
<rect x="226.56" y="28.38" width="0.48" height="35.88"/>
<text transform="matrix(1 0 0 1 223.2603 35.46)" style="font-family:'ProductusBook'; font-size:7.98;">1</text>
<text transform="matrix(1 0 0 1 217.5601 62.2202)"><tspan x="0" y="0" style="font-family:'ProductusBook'; font-size:7.98;">0</tspan><tspan x="3.958" y="0" style="font-family:'ProductusBook'; font-size:7.98;">,</tspan><tspan x="5.522" y="0" style="font-family:'ProductusBook'; font-size:7.98;">1</tspan></text>
<text transform="matrix(1 0 0 1 207.96 47.8799)" style="font-family:'ProductusBook'; font-size:7.98;">adapt</text>
<text transform="matrix(1 0 0 1 250.9204 47.9995)"><tspan x="0" y="0" style="font-family:'ProductusBook'; font-size:7.98;">adapt</tspan><tspan x="16.431" y="0" style="font-family:'ProductusBook'; font-size:7.98;"> </tspan><tspan x="17.994" y="0" style="font-family:'ProductusBook'; font-size:7.98;">fro</tspan><tspan x="26.103" y="0" style="font-family:'ProductusBook'; font-size:7.98;">m</tspan><tspan x="31.92" y="0" style="font-family:'ProductusBook'; font-size:7.98;"> </tspan></text>
<text transform="matrix(1 0 0 1 284.4009 47.9995)"><tspan x="0" y="0" style="font-family:'ProductusSemibold'; font-size:7.98;">B</tspan><tspan x="4.317" y="0" style="font-family:'ProductusSemibold'; font-size:7.98;">und</tspan><tspan x="17.108" y="0" style="font-family:'ProductusSemibold'; font-size:7.98;">l</tspan><tspan x="19.327" y="0" style="font-family:'ProductusSemibold'; font-size:7.98;">e</tspan><tspan x="23.461" y="0" style="font-family:'ProductusSemibold'; font-size:7.98;">R</tspan><tspan x="27.714" y="0" style="font-family:'ProductusSemibold'; font-size:7.98;">e</tspan><tspan x="31.792" y="0" style="font-family:'ProductusSemibold'; font-size:7.98;">v</tspan><tspan x="35.806" y="0" style="font-family:'ProductusSemibold'; font-size:7.98;">i</tspan><tspan x="38.023" y="0" style="font-family:'ProductusSemibold'; font-size:7.98;">s</tspan><tspan x="41.344" y="0" style="font-family:'ProductusSemibold'; font-size:7.98;">i</tspan><tspan x="43.562" y="0" style="font-family:'ProductusSemibold'; font-size:7.98;">on</tspan><tspan x="52.108" y="0" style="font-family:'ProductusSemibold'; font-size:7.98;">s</tspan></text>
<text transform="matrix(1 0 0 1 299.2202 210.4795)"><tspan x="0" y="0" style="font-family:'ProductusBook'; font-size:7.98;">p</tspan><tspan x="3.679" y="0" style="font-family:'ProductusBook'; font-size:7.98;">r</tspan><tspan x="5.953" y="0" style="font-family:'ProductusBook'; font-size:7.98;">o</tspan><tspan x="9.616" y="0" style="font-family:'ProductusBook'; font-size:7.98;">v</tspan><tspan x="12.848" y="0" style="font-family:'ProductusBook'; font-size:7.98;">i</tspan><tspan x="14.396" y="0" style="font-family:'ProductusBook'; font-size:7.98;">d</tspan><tspan x="18.114" y="0" style="font-family:'ProductusBook'; font-size:7.98;">e</tspan><tspan x="21.602" y="0" style="font-family:'ProductusBook'; font-size:7.98;">r</tspan></text>
<text transform="matrix(1 0 0 1 175.7402 210.4795)"><tspan x="0" y="0" style="font-family:'ProductusBook'; font-size:7.98;">r</tspan><tspan x="2.234" y="0" style="font-family:'ProductusBook'; font-size:7.98;">e</tspan><tspan x="5.77" y="0" style="font-family:'ProductusBook'; font-size:7.98;">q</tspan><tspan x="9.432" y="0" style="font-family:'ProductusBook'; font-size:7.98;">u</tspan><tspan x="13.151" y="0" style="font-family:'ProductusBook'; font-size:7.98;">i</tspan><tspan x="14.715" y="0" style="font-family:'ProductusBook'; font-size:7.98;">r</tspan><tspan x="16.989" y="0" style="font-family:'ProductusBook'; font-size:7.98;">e</tspan><tspan x="20.468" y="0" style="font-family:'ProductusBook'; font-size:7.98;">r</tspan></text>
<rect x="94.5" y="200.46" width="54.36" height="26.58"/>
<rect x="94.5" y="200.22" width="54.6" height="0.48"/>
<rect x="148.62" y="200.46" width="0.48" height="26.82"/>
<rect x="94.26" y="226.8" width="54.6" height="0.48"/>
<rect x="94.26" y="200.22" width="0.48" height="26.82"/>
<rect x="92.16" y="198.66" style="fill:#FFFFFF;" width="54.3" height="26.58"/>
<rect x="92.16" y="198.42" width="54.54" height="0.48"/>
<rect x="146.22" y="198.66" width="0.48" height="26.82"/>
<rect x="91.92" y="225" width="54.54" height="0.48"/>
<rect x="91.92" y="198.42" width="0.48" height="26.82"/>
<text transform="matrix(1 0 0 1.0522 94.5 205.7998)"><tspan x="0" y="0" style="font-family:'ProductusOSGiBookc'; font-size:7.5841;">&lt;</tspan><tspan x="2.798" y="0" style="font-family:'ProductusOSGiBookc'; font-size:7.5841;">&lt;</tspan><tspan x="5.559" y="0" style="font-family:'ProductusOSGiBookc'; font-size:7.5841;">i</tspan><tspan x="7" y="0" style="font-family:'ProductusOSGiBookc'; font-size:7.5841;">n</tspan><tspan x="10.473" y="0" style="font-family:'ProductusOSGiBookc'; font-size:7.5841;">t</tspan><tspan x="12.703" y="0" style="font-family:'ProductusOSGiBookc'; font-size:7.5841;">e</tspan><tspan x="16.01" y="0" style="font-family:'ProductusOSGiBookc'; font-size:7.5841;">r</tspan><tspan x="18.11" y="0" style="font-family:'ProductusOSGiBookc'; font-size:7.5841;">f</tspan><tspan x="20.029" y="0" style="font-family:'ProductusOSGiBookc'; font-size:7.5841;">a</tspan><tspan x="23.154" y="0" style="font-family:'ProductusOSGiBookc'; font-size:7.5841;">c</tspan><tspan x="26.036" y="0" style="font-family:'ProductusOSGiBookc'; font-size:7.5841;">e</tspan><tspan x="29.342" y="0" style="font-family:'ProductusOSGiBookc'; font-size:7.5841;">&gt;</tspan><tspan x="32.141" y="0" style="font-family:'ProductusOSGiBookc'; font-size:7.5841;">&gt;</tspan></text>
<text transform="matrix(1 0 0 1 94.5 214.3198)"><tspan x="0" y="0" style="font-family:'ProductusBook'; font-size:7.98;">R</tspan><tspan x="3.423" y="0" style="font-family:'ProductusBook'; font-size:7.98;">e</tspan><tspan x="6.911" y="0" style="font-family:'ProductusBook'; font-size:7.98;">q</tspan><tspan x="10.629" y="0" style="font-family:'ProductusBook'; font-size:7.98;">u</tspan><tspan x="14.292" y="0" style="font-family:'ProductusBook'; font-size:7.98;">i</tspan><tspan x="15.888" y="0" style="font-family:'ProductusBook'; font-size:7.98;">r</tspan><tspan x="18.114" y="0" style="font-family:'ProductusBook'; font-size:7.98;">eme</tspan><tspan x="30.97" y="0" style="font-family:'ProductusBook'; font-size:7.98;">n</tspan><tspan x="34.633" y="0" style="font-family:'ProductusBook'; font-size:7.98;">t</tspan></text>
<rect x="349.62" y="200.46" width="54.36" height="26.58"/>
<rect x="349.62" y="200.22" width="54.601" height="0.48"/>
<rect x="403.74" y="200.46" width="0.48" height="26.82"/>
<rect x="349.38" y="226.8" width="54.6" height="0.48"/>
<rect x="349.38" y="200.22" width="0.479" height="26.82"/>
<rect x="347.28" y="198.66" style="fill:#FFFFFF;" width="54.301" height="26.58"/>
<rect x="347.28" y="198.42" width="54.54" height="0.48"/>
<rect x="401.34" y="198.66" width="0.479" height="26.82"/>
<rect x="347.041" y="225" width="54.54" height="0.48"/>
<rect x="347.041" y="198.42" width="0.479" height="26.82"/>
<text transform="matrix(1 0 0 1.0522 349.6196 205.7998)"><tspan x="0" y="0" style="font-family:'ProductusOSGiBookc'; font-size:7.5841;">&lt;</tspan><tspan x="2.799" y="0" style="font-family:'ProductusOSGiBookc'; font-size:7.5841;">&lt;</tspan><tspan x="5.559" y="0" style="font-family:'ProductusOSGiBookc'; font-size:7.5841;">i</tspan><tspan x="7" y="0" style="font-family:'ProductusOSGiBookc'; font-size:7.5841;">n</tspan><tspan x="10.474" y="0" style="font-family:'ProductusOSGiBookc'; font-size:7.5841;">te</tspan><tspan x="16.018" y="0" style="font-family:'ProductusOSGiBookc'; font-size:7.5841;">r</tspan><tspan x="18.118" y="0" style="font-family:'ProductusOSGiBookc'; font-size:7.5841;">f</tspan><tspan x="20.037" y="0" style="font-family:'ProductusOSGiBookc'; font-size:7.5841;">a</tspan><tspan x="23.169" y="0" style="font-family:'ProductusOSGiBookc'; font-size:7.5841;">c</tspan><tspan x="26.051" y="0" style="font-family:'ProductusOSGiBookc'; font-size:7.5841;">e</tspan><tspan x="29.357" y="0" style="font-family:'ProductusOSGiBookc'; font-size:7.5841;">&gt;</tspan><tspan x="32.156" y="0" style="font-family:'ProductusOSGiBookc'; font-size:7.5841;">&gt;</tspan></text>
<text transform="matrix(1 0 0 1 349.6196 214.3198)"><tspan x="0" y="0" style="font-family:'ProductusBook'; font-size:7.98;">C</tspan><tspan x="4.262" y="0" style="font-family:'ProductusBook'; font-size:7.98;">a</tspan><tspan x="7.621" y="0" style="font-family:'ProductusBook'; font-size:7.98;">p</tspan><tspan x="11.315" y="0" style="font-family:'ProductusBook'; font-size:7.98;">a</tspan><tspan x="14.675" y="0" style="font-family:'ProductusBook'; font-size:7.98;">bility</tspan></text>
<polyline points="361.44,187.14 364.74,187.14 364.56,187.8 361.44,198.72 358.32,187.8 358.14,187.14 358.8,187.14 359.28,187.5 
	361.92,196.74 360.96,197.04 360.96,196.74 363.6,187.5 364.56,187.8 364.081,188.16 361.44,188.16 "/>
<rect x="358.8" y="187.14" width="2.64" height="1.02"/>
<polyline style="fill-rule:evenodd;clip-rule:evenodd;" points="361.44,187.62 364.081,187.62 361.44,196.86 358.8,187.62 "/>
<rect x="361.2" y="155.94" width="0.48" height="31.44"/>
<polyline points="134.64,187.14 137.94,187.14 137.76,187.8 134.64,198.72 131.52,187.8 131.34,187.14 132,187.14 132.48,187.5 
	135.12,196.74 134.16,197.04 134.16,196.74 136.8,187.5 137.76,187.8 137.28,188.16 134.64,188.16 "/>
<rect x="132" y="187.14" width="2.64" height="1.02"/>
<polyline style="fill-rule:evenodd;clip-rule:evenodd;" points="134.64,187.62 137.28,187.62 134.64,196.86 132,187.62 "/>
<rect x="134.4" y="155.94" width="0.48" height="31.44"/>
<rect x="222.06" y="335.1" width="54.36" height="26.58"/>
<rect x="222.06" y="334.86" width="54.6" height="0.479"/>
<rect x="276.18" y="335.1" width="0.479" height="26.819"/>
<rect x="221.82" y="361.44" width="54.601" height="0.479"/>
<rect x="221.82" y="334.86" width="0.48" height="26.82"/>
<rect x="219.72" y="333.36" style="fill:#FFFFFF;" width="54.3" height="26.52"/>
<rect x="219.72" y="333.12" width="54.54" height="0.48"/>
<rect x="273.78" y="333.36" width="0.48" height="26.76"/>
<rect x="219.48" y="359.64" width="54.54" height="0.479"/>
<rect x="219.48" y="333.12" width="0.48" height="26.76"/>
<text transform="matrix(1 0 0 1.0522 222.0601 340.4399)"><tspan x="0" y="0" style="font-family:'ProductusOSGiBookc'; font-size:7.5841;">&lt;</tspan><tspan x="2.799" y="0" style="font-family:'ProductusOSGiBookc'; font-size:7.5841;">&lt;</tspan><tspan x="5.559" y="0" style="font-family:'ProductusOSGiBookc'; font-size:7.5841;">i</tspan><tspan x="7" y="0" style="font-family:'ProductusOSGiBookc'; font-size:7.5841;">n</tspan><tspan x="10.474" y="0" style="font-family:'ProductusOSGiBookc'; font-size:7.5841;">te</tspan><tspan x="16.018" y="0" style="font-family:'ProductusOSGiBookc'; font-size:7.5841;">r</tspan><tspan x="18.118" y="0" style="font-family:'ProductusOSGiBookc'; font-size:7.5841;">f</tspan><tspan x="20.037" y="0" style="font-family:'ProductusOSGiBookc'; font-size:7.5841;">a</tspan><tspan x="23.169" y="0" style="font-family:'ProductusOSGiBookc'; font-size:7.5841;">c</tspan><tspan x="26.051" y="0" style="font-family:'ProductusOSGiBookc'; font-size:7.5841;">e</tspan><tspan x="29.357" y="0" style="font-family:'ProductusOSGiBookc'; font-size:7.5841;">&gt;</tspan><tspan x="32.156" y="0" style="font-family:'ProductusOSGiBookc'; font-size:7.5841;">&gt;</tspan></text>
<text transform="matrix(1 0 0 1 222.0601 348.9595)"><tspan x="0" y="0" style="font-family:'ProductusBook'; font-size:7.98;">Wi</tspan><tspan x="7.74" y="0" style="font-family:'ProductusBook'; font-size:7.98;">r</tspan><tspan x="10.015" y="0" style="font-family:'ProductusBook'; font-size:7.98;">e</tspan></text>
<polyline points="248.041,321.839 251.34,321.839 251.16,322.5 248.52,331.68 248.041,333.36 247.56,331.68 244.92,322.5 
	244.74,321.839 245.4,321.839 245.88,322.2 248.52,331.379 247.56,331.68 247.56,331.379 250.2,322.2 251.16,322.5 250.68,322.86 
	248.041,322.86 "/>
<rect x="245.4" y="321.839" width="2.641" height="1.021"/>
<polyline style="fill-rule:evenodd;clip-rule:evenodd;" points="248.041,322.32 250.68,322.32 248.041,331.5 245.4,322.32 "/>
<rect x="247.8" y="297.66" width="0.479" height="0.24"/>
<rect x="247.8" y="297.9" width="0.479" height="24.12"/>
<rect x="219.72" y="14.16" width="0.24" height="0.48"/>
<rect x="84.84" y="14.16" width="134.88" height="0.48"/>
<rect x="226.56" y="92.16" width="0.48" height="14.64"/>
<rect x="162.78" y="106.32" width="64.02" height="0.48"/>
<rect x="162.78" y="106.56" width="0.48" height="21.48"/>
<rect x="269.1" y="92.16" width="0.48" height="14.64"/>
<rect x="269.34" y="106.32" width="64.02" height="0.48"/>
<rect x="332.88" y="106.56" width="0.479" height="21.48"/>
<rect x="349.62" y="65.82" width="54.36" height="26.58"/>
<rect x="349.62" y="65.58" width="54.601" height="0.48"/>
<rect x="403.74" y="65.82" width="0.48" height="26.82"/>
<rect x="349.38" y="92.16" width="54.6" height="0.48"/>
<rect x="349.38" y="65.58" width="0.479" height="26.82"/>
<rect x="347.28" y="64.02" style="fill:#FFFFFF;" width="54.301" height="26.58"/>
<rect x="347.28" y="63.78" width="54.54" height="0.48"/>
<rect x="401.34" y="64.02" width="0.479" height="26.82"/>
<rect x="347.041" y="90.36" width="54.54" height="0.48"/>
<rect x="347.041" y="63.78" width="0.479" height="26.82"/>
<text transform="matrix(1 0 0 1.0522 349.6196 71.1597)"><tspan x="0" y="0" style="font-family:'ProductusOSGiBookc'; font-size:7.5841;">&lt;</tspan><tspan x="2.806" y="0" style="font-family:'ProductusOSGiBookc'; font-size:7.5841;">&lt;</tspan><tspan x="5.566" y="0" style="font-family:'ProductusOSGiBookc'; font-size:7.5841;">i</tspan><tspan x="7.045" y="0" style="font-family:'ProductusOSGiBookc'; font-size:7.5841;">n</tspan><tspan x="10.466" y="0" style="font-family:'ProductusOSGiBookc'; font-size:7.5841;">te</tspan><tspan x="16.024" y="0" style="font-family:'ProductusOSGiBookc'; font-size:7.5841;">r</tspan><tspan x="18.126" y="0" style="font-family:'ProductusOSGiBookc'; font-size:7.5841;">fac</tspan><tspan x="26.119" y="0" style="font-family:'ProductusOSGiBookc'; font-size:7.5841;">e</tspan><tspan x="29.365" y="0" style="font-family:'ProductusOSGiBookc'; font-size:7.5841;">&gt;</tspan><tspan x="32.179" y="0" style="font-family:'ProductusOSGiBookc'; font-size:7.5841;">&gt;</tspan></text>
<text transform="matrix(1 0 0 1 349.6196 79.6196)"><tspan x="0" y="0" style="font-family:'ProductusBook'; font-size:7.98;">R</tspan><tspan x="3.424" y="0" style="font-family:'ProductusBook'; font-size:7.98;">e</tspan><tspan x="6.958" y="0" style="font-family:'ProductusBook'; font-size:7.98;">so</tspan><tspan x="13.558" y="0" style="font-family:'ProductusBook'; font-size:7.98;">u</tspan><tspan x="17.221" y="0" style="font-family:'ProductusBook'; font-size:7.98;">r</tspan><tspan x="19.495" y="0" style="font-family:'ProductusBook'; font-size:7.98;">c</tspan><tspan x="22.495" y="0" style="font-family:'ProductusBook'; font-size:7.98;">e</tspan></text>
<rect x="222.06" y="200.46" width="54.36" height="26.58"/>
<rect x="222.06" y="200.22" width="54.6" height="0.48"/>
<rect x="276.18" y="200.46" width="0.479" height="26.82"/>
<rect x="221.82" y="226.8" width="54.601" height="0.48"/>
<rect x="221.82" y="200.22" width="0.48" height="26.82"/>
<rect x="219.72" y="198.66" style="fill:#FFFFFF;" width="54.3" height="26.58"/>
<rect x="219.72" y="198.42" width="54.54" height="0.48"/>
<rect x="273.78" y="198.66" width="0.48" height="26.82"/>
<rect x="219.48" y="225" width="54.54" height="0.48"/>
<rect x="219.48" y="198.42" width="0.48" height="26.82"/>
<text transform="matrix(1 0 0 1.0522 222.0601 205.7998)"><tspan x="0" y="0" style="font-family:'ProductusOSGiBookc'; font-size:7.5841;">&lt;</tspan><tspan x="2.799" y="0" style="font-family:'ProductusOSGiBookc'; font-size:7.5841;">&lt;</tspan><tspan x="5.559" y="0" style="font-family:'ProductusOSGiBookc'; font-size:7.5841;">i</tspan><tspan x="7" y="0" style="font-family:'ProductusOSGiBookc'; font-size:7.5841;">n</tspan><tspan x="10.474" y="0" style="font-family:'ProductusOSGiBookc'; font-size:7.5841;">te</tspan><tspan x="16.018" y="0" style="font-family:'ProductusOSGiBookc'; font-size:7.5841;">r</tspan><tspan x="18.118" y="0" style="font-family:'ProductusOSGiBookc'; font-size:7.5841;">f</tspan><tspan x="20.037" y="0" style="font-family:'ProductusOSGiBookc'; font-size:7.5841;">a</tspan><tspan x="23.169" y="0" style="font-family:'ProductusOSGiBookc'; font-size:7.5841;">c</tspan><tspan x="26.051" y="0" style="font-family:'ProductusOSGiBookc'; font-size:7.5841;">e</tspan><tspan x="29.357" y="0" style="font-family:'ProductusOSGiBookc'; font-size:7.5841;">&gt;</tspan><tspan x="32.156" y="0" style="font-family:'ProductusOSGiBookc'; font-size:7.5841;">&gt;</tspan></text>
<text transform="matrix(1 0 0 1 222.0601 214.2598)"><tspan x="0" y="0" style="font-family:'ProductusBook'; font-size:7.98;">Wi</tspan><tspan x="7.74" y="0" style="font-family:'ProductusBook'; font-size:7.98;">r</tspan><tspan x="10.015" y="0" style="font-family:'ProductusBook'; font-size:7.98;">i</tspan><tspan x="11.579" y="0" style="font-family:'ProductusBook'; font-size:7.98;">n</tspan><tspan x="15.242" y="0" style="font-family:'ProductusBook'; font-size:7.98;">g</tspan></text>
<polyline points="248.041,187.14 251.34,187.14 251.16,187.8 248.041,198.72 244.92,187.8 244.74,187.14 245.4,187.14 245.88,187.5 
	248.52,196.74 247.56,197.04 247.56,196.74 250.2,187.5 251.16,187.8 250.68,188.16 248.041,188.16 "/>
<rect x="245.4" y="187.14" width="2.641" height="1.02"/>
<polyline style="fill-rule:evenodd;clip-rule:evenodd;" points="248.041,187.62 250.68,187.62 248.041,196.86 245.4,187.62 "/>
<rect x="247.8" y="155.94" width="0.479" height="0.24"/>
<rect x="247.8" y="156.18" width="0.479" height="31.2"/>
<rect x="276.18" y="141.72" width="21.72" height="0.48"/>
<rect x="297.42" y="141.96" width="0.479" height="134.94"/>
<rect x="276.18" y="276.42" width="21.479" height="0.48"/>
<rect x="198.18" y="141.72" width="21.78" height="0.48"/>
<rect x="198.18" y="141.96" width="0.48" height="134.94"/>
<rect x="198.42" y="276.42" width="21.541" height="0.48"/>
</svg>
