<?xml version="1.0" encoding="UTF-8" standalone="no"?>
<!-- Generator: Adobe Illustrator 16.0.4, SVG Export Plug-In . SVG Version: 6.00 Build 0)  -->

<svg
   xmlns:dc="http://purl.org/dc/elements/1.1/"
   xmlns:cc="http://creativecommons.org/ns#"
   xmlns:rdf="http://www.w3.org/1999/02/22-rdf-syntax-ns#"
   xmlns:svg="http://www.w3.org/2000/svg"
   xmlns="http://www.w3.org/2000/svg"
   xmlns:sodipodi="http://sodipodi.sourceforge.net/DTD/sodipodi-0.dtd"
   xmlns:inkscape="http://www.inkscape.org/namespaces/inkscape"
   version="1.1"
   id="Layer_1"
   x="0px"
   y="0px"
   width="237.29233"
   height="187.59793"
   viewBox="0 -60 237.29232 187.59792"
   enable-background="new 0 -60 331.2 273.799"
   xml:space="preserve"
   inkscape:version="0.91 r13725"
   sodipodi:docname="clusterinfo.svg"><metadata
     id="metadata513"><rdf:RDF><cc:Work
         rdf:about=""><dc:format>image/svg+xml</dc:format><dc:type
           rdf:resource="http://purl.org/dc/dcmitype/StillImage" /><dc:title /></cc:Work></rdf:RDF></metadata><defs
     id="defs511" /><sodipodi:namedview
     pagecolor="#ffffff"
     bordercolor="#666666"
     borderopacity="1"
     objecttolerance="10"
     gridtolerance="10"
     guidetolerance="10"
     inkscape:pageopacity="0"
     inkscape:pageshadow="2"
     inkscape:window-width="1920"
     inkscape:window-height="1056"
     id="namedview509"
     showgrid="false"
     inkscape:zoom="2.4379518"
     inkscape:cx="2.8455395"
     inkscape:cy="112.43838"
     inkscape:window-x="0"
     inkscape:window-y="24"
     inkscape:window-maximized="1"
     inkscape:current-layer="Layer_1"
     fit-margin-top="1"
     fit-margin-left="1"
     fit-margin-bottom="1"
     fit-margin-right="1" /><rect
     style="color:#000000;clip-rule:nonzero;display:inline;overflow:visible;visibility:visible;opacity:1;isolation:auto;mix-blend-mode:normal;color-interpolation:sRGB;color-interpolation-filters:linearRGB;solid-color:#000000;solid-opacity:1;fill:none;fill-opacity:1;fill-rule:evenodd;stroke:#000000;stroke-width:0.40000001;stroke-linecap:butt;stroke-linejoin:miter;stroke-miterlimit:4;stroke-dasharray:1.6, 0.8;stroke-dashoffset:0;stroke-opacity:1;marker:none;color-rendering:auto;image-rendering:auto;shape-rendering:auto;text-rendering:auto;enable-background:accumulate"
     id="rect3626-6"
     width="90.394783"
     height="67.481499"
     x="20.451038"
     y="-58.453667" /><rect
     style="color:#000000;clip-rule:nonzero;display:inline;overflow:visible;visibility:visible;opacity:1;isolation:auto;mix-blend-mode:normal;color-interpolation:sRGB;color-interpolation-filters:linearRGB;solid-color:#000000;solid-opacity:1;fill:none;fill-opacity:1;fill-rule:evenodd;stroke:#000000;stroke-width:0.40000001;stroke-linecap:butt;stroke-linejoin:miter;stroke-miterlimit:4;stroke-dasharray:1.6, 0.8;stroke-dashoffset:0;stroke-opacity:1;marker:none;color-rendering:auto;image-rendering:auto;shape-rendering:auto;text-rendering:auto;enable-background:accumulate"
     id="rect3626-6-9"
     width="90.394783"
     height="67.481499"
     x="20.100414"
     y="20.933212" /><rect
     style="color:#000000;clip-rule:nonzero;display:inline;overflow:visible;visibility:visible;opacity:1;isolation:auto;mix-blend-mode:normal;color-interpolation:sRGB;color-interpolation-filters:linearRGB;solid-color:#000000;solid-opacity:1;fill:none;fill-opacity:1;fill-rule:evenodd;stroke:#000000;stroke-width:0.40000001;stroke-linecap:butt;stroke-linejoin:miter;stroke-miterlimit:4;stroke-dasharray:1.6, 0.8;stroke-dashoffset:0;stroke-opacity:1;marker:none;color-rendering:auto;image-rendering:auto;shape-rendering:auto;text-rendering:auto;enable-background:accumulate"
     id="rect3626"
     width="90.277901"
     height="128.56334"
     x="141.63203"
     y="-58.800007" /><rect
     y="13.154187"
     width="75.247452"
     height="54.696926"
     id="rect5"
     x="152.71484"
     style="fill:#e6e6e6" /><rect
     x="167.33728"
     y="32.852104"
     width="54.299"
     height="27"
     id="rect139" /><rect
     x="167.33728"
     y="32.613106"
     width="54.539001"
     height="0.479"
     id="rect141" /><rect
     x="221.39728"
     y="32.852104"
     width="0.479"
     height="27.24"
     id="rect143" /><rect
     x="167.09727"
     y="59.613113"
     width="54.539001"
     height="0.479"
     id="rect145" /><rect
     x="167.09727"
     y="32.613106"
     width="0.47999999"
     height="27.239"
     id="rect147" /><rect
     x="164.93729"
     y="31.05311"
     width="54.359001"
     height="27"
     id="rect149"
     style="fill:#ffffff" /><rect
     x="164.93729"
     y="30.813105"
     width="54.599998"
     height="0.479"
     id="rect151" /><rect
     x="219.05728"
     y="31.05311"
     width="0.479"
     height="27.24"
     id="rect153" /><rect
     x="164.69728"
     y="57.81311"
     width="54.599998"
     height="0.479"
     id="rect155" /><rect
     x="164.69728"
     y="30.813105"
     width="0.47999999"
     height="27.24"
     id="rect157" /><text
     transform="scale(0.97488463,1.0257624)"
     font-size="7.98"
     id="text159"
     x="171.64874"
     y="37.233524"
     style="font-size:7.77957916px;font-family:ProductusOSGiBookc">ClusterInfo</text>
<rect
     x="143.62624"
     y="45.146118"
     width="21.071045"
     height="0.479"
     id="rect489" /><text
     y="45.560703"
     x="172.14038"
     style="font-size:7.77957916px;font-family:ProductusOSGiBookc"
     transform="scale(0.97488463,1.0257624)"
     font-size="7.98"
     id="text215-3-7-9">impl</text>
<polyline
     transform="matrix(0,1,-1,0,159.08127,-11.100387)"
     style="fill:#ffffff"
     points="49.62,26.268 56.7,12.107 63.78,26.268 "
     id="polyline7" /><polyline
     transform="matrix(0,1,-1,0,159.05127,-11.370387)"
     points="49.44,26.147 56.52,11.987 56.7,11.567 56.94,11.987 64.2,26.508 63.78,26.508 63.6,26.388 56.52,12.228   56.94,11.987 56.94,12.228 49.86,26.388 "
     id="polyline9" /><polyline
     transform="matrix(0,1,-1,0,159.03861,-11.363106)"
     points="63.78,26.508 49.26,26.508 49.44,26.147 49.62,26.027 63.78,26.027 "
     id="polyline11" /><text
     xml:space="preserve"
     style="font-style:normal;font-weight:normal;font-size:15px;line-height:125%;font-family:Sans;letter-spacing:0px;word-spacing:0px;fill:#000000;fill-opacity:1;stroke:none;stroke-width:1px;stroke-linecap:butt;stroke-linejoin:miter;stroke-opacity:1"
     x="160.67369"
     y="24.033304"
     id="text3469"
     sodipodi:linespacing="125%"><tspan
       sodipodi:role="line"
       id="tspan3471"
       x="160.67369"
       y="24.033304"
       style="font-style:normal;font-variant:normal;font-weight:normal;font-stretch:normal;font-size:7.5px;font-family:ProductusOSGiBookc;-inkscape-font-specification:ProductusOSGiBookc">OSGi framework</tspan></text>
<rect
     y="-47.92094"
     width="75.247452"
     height="54.696926"
     id="rect5-6"
     x="152.71346"
     style="fill:#e6e6e6" /><rect
     x="167.33589"
     y="-28.223022"
     width="54.299"
     height="27"
     id="rect139-7" /><rect
     x="167.33589"
     y="-28.462019"
     width="54.539001"
     height="0.479"
     id="rect141-5" /><rect
     x="221.39587"
     y="-28.223022"
     width="0.479"
     height="27.24"
     id="rect143-3" /><rect
     x="167.09589"
     y="-1.4620221"
     width="54.539001"
     height="0.479"
     id="rect145-5" /><rect
     x="167.09589"
     y="-28.462019"
     width="0.47999999"
     height="27.239"
     id="rect147-6" /><rect
     x="164.9359"
     y="-30.022015"
     width="54.359001"
     height="27"
     id="rect149-2"
     style="fill:#ffffff" /><rect
     x="164.9359"
     y="-30.26202"
     width="54.599998"
     height="0.479"
     id="rect151-9" /><rect
     x="219.05588"
     y="-30.022015"
     width="0.479"
     height="27.24"
     id="rect153-1" /><rect
     x="164.69589"
     y="-3.2620251"
     width="54.599998"
     height="0.479"
     id="rect155-2" /><rect
     x="164.69589"
     y="-30.26202"
     width="0.47999999"
     height="27.24"
     id="rect157-7" /><text
     transform="scale(0.97488463,1.0257624)"
     font-size="7.98"
     id="text159-0"
     x="171.64731"
     y="-22.307711"
     style="font-size:7.77957916px;font-family:ProductusOSGiBookc">ClusterInfo</text>
<rect
     x="143.62485"
     y="-15.929027"
     width="21.071045"
     height="0.479"
     id="rect489-9" /><text
     y="-13.98052"
     x="172.13895"
     style="font-size:7.77957916px;font-family:ProductusOSGiBookc"
     transform="scale(0.97488463,1.0257624)"
     font-size="7.98"
     id="text215-3-7-9-3">impl</text>
<polyline
     transform="matrix(0,1,-1,0,159.07987,-72.175521)"
     style="fill:#ffffff"
     points="49.62,26.268 56.7,12.107 63.78,26.268 "
     id="polyline7-6" /><polyline
     transform="matrix(0,1,-1,0,159.04987,-72.445521)"
     points="49.44,26.147 56.52,11.987 56.7,11.567 56.94,11.987 64.2,26.508 63.78,26.508 63.6,26.388 56.52,12.228   56.94,11.987 56.94,12.228 49.86,26.388 "
     id="polyline9-0" /><polyline
     transform="matrix(0,1,-1,0,159.03721,-72.43824)"
     points="63.78,26.508 49.26,26.508 49.44,26.147 49.62,26.027 63.78,26.027 "
     id="polyline11-6" /><text
     xml:space="preserve"
     style="font-style:normal;font-weight:normal;font-size:15px;line-height:125%;font-family:Sans;letter-spacing:0px;word-spacing:0px;fill:#000000;fill-opacity:1;stroke:none;stroke-width:1px;stroke-linecap:butt;stroke-linejoin:miter;stroke-opacity:1"
     x="160.6723"
     y="-37.041821"
     id="text3469-2"
     sodipodi:linespacing="125%"><tspan
       sodipodi:role="line"
       id="tspan3471-6"
       x="160.6723"
       y="-37.041821"
       style="font-style:normal;font-variant:normal;font-weight:normal;font-stretch:normal;font-size:7.5px;font-family:ProductusOSGiBookc;-inkscape-font-specification:ProductusOSGiBookc">OSGi framework</tspan></text>
<rect
     y="-47.305988"
     width="75.247452"
     height="54.696926"
     id="rect5-1"
     x="32.255409"
     style="fill:#e6e6e6" /><rect
     x="46.877853"
     y="-27.608068"
     width="54.299"
     height="27"
     id="rect139-8" /><rect
     x="46.877853"
     y="-27.847067"
     width="54.539001"
     height="0.479"
     id="rect141-7" /><rect
     x="100.93785"
     y="-27.608068"
     width="0.479"
     height="27.24"
     id="rect143-9" /><rect
     x="46.637848"
     y="-0.84706861"
     width="54.539001"
     height="0.479"
     id="rect145-2" /><rect
     x="46.637848"
     y="-27.847067"
     width="0.47999999"
     height="27.239"
     id="rect147-0" /><rect
     x="44.477859"
     y="-29.407066"
     width="54.359001"
     height="27"
     id="rect149-23"
     style="fill:#ffffff" /><rect
     x="44.477859"
     y="-29.647072"
     width="54.599998"
     height="0.479"
     id="rect151-7" /><rect
     x="98.597855"
     y="-29.407066"
     width="0.479"
     height="27.24"
     id="rect153-5" /><rect
     x="44.237854"
     y="-2.6470711"
     width="54.599998"
     height="0.479"
     id="rect155-9" /><rect
     x="44.237854"
     y="-29.647072"
     width="0.47999999"
     height="27.24"
     id="rect157-2" /><text
     transform="scale(0.97488463,1.0257624)"
     font-size="7.98"
     id="text159-2"
     x="48.086037"
     y="-21.708193"
     style="font-size:7.77957916px;font-family:ProductusOSGiBookc">ClusterInfo</text>
<rect
     x="23.166801"
     y="-15.314063"
     width="21.071045"
     height="0.479"
     id="rect489-8" /><text
     y="-13.381016"
     x="48.577675"
     style="font-size:7.77957916px;font-family:ProductusOSGiBookc"
     transform="scale(0.97488463,1.0257624)"
     font-size="7.98"
     id="text215-3-7-9-9">impl</text>
<polyline
     transform="matrix(0,1,-1,0,38.62184,-71.560563)"
     style="fill:#ffffff"
     points="49.62,26.268 56.7,12.107 63.78,26.268 "
     id="polyline7-7" /><polyline
     transform="matrix(0,1,-1,0,38.59184,-71.830563)"
     points="49.44,26.147 56.52,11.987 56.7,11.567 56.94,11.987 64.2,26.508 63.78,26.508 63.6,26.388 56.52,12.228   56.94,11.987 56.94,12.228 49.86,26.388 "
     id="polyline9-3" /><polyline
     transform="matrix(0,1,-1,0,38.57918,-71.823282)"
     points="63.78,26.508 49.26,26.508 49.44,26.147 49.62,26.027 63.78,26.027 "
     id="polyline11-61" /><text
     xml:space="preserve"
     style="font-style:normal;font-weight:normal;font-size:15px;line-height:125%;font-family:Sans;letter-spacing:0px;word-spacing:0px;fill:#000000;fill-opacity:1;stroke:none;stroke-width:1px;stroke-linecap:butt;stroke-linejoin:miter;stroke-opacity:1"
     x="40.214256"
     y="-36.426872"
     id="text3469-29"
     sodipodi:linespacing="125%"><tspan
       sodipodi:role="line"
       id="tspan3471-3"
       x="40.214256"
       y="-36.426872"
       style="font-style:normal;font-variant:normal;font-weight:normal;font-stretch:normal;font-size:7.5px;font-family:ProductusOSGiBookc;-inkscape-font-specification:ProductusOSGiBookc">OSGi framework</tspan></text>
<rect
     y="31.663269"
     width="75.247452"
     height="54.696926"
     id="rect5-19"
     x="31.96537"
     style="fill:#e6e6e6" /><rect
     x="46.587807"
     y="51.361191"
     width="54.299"
     height="27"
     id="rect139-4" /><rect
     x="46.587807"
     y="51.122192"
     width="54.539001"
     height="0.479"
     id="rect141-78" /><rect
     x="100.6478"
     y="51.361191"
     width="0.479"
     height="27.24"
     id="rect143-4" /><rect
     x="46.347801"
     y="78.122185"
     width="54.539001"
     height="0.479"
     id="rect145-50" /><rect
     x="46.347801"
     y="51.122192"
     width="0.47999999"
     height="27.239"
     id="rect147-3" /><rect
     x="44.187813"
     y="49.562195"
     width="54.359001"
     height="27"
     id="rect149-6"
     style="fill:#ffffff" /><rect
     x="44.187813"
     y="49.322189"
     width="54.599998"
     height="0.479"
     id="rect151-1" /><rect
     x="98.307816"
     y="49.562195"
     width="0.479"
     height="27.24"
     id="rect153-0" /><rect
     x="43.947807"
     y="76.322182"
     width="54.599998"
     height="0.479"
     id="rect155-6" /><rect
     x="43.947807"
     y="49.322189"
     width="0.47999999"
     height="27.24"
     id="rect157-3" /><text
     transform="scale(0.97488463,1.0257624)"
     font-size="7.98"
     id="text159-20"
     x="47.788525"
     y="55.277714"
     style="font-size:7.77957916px;font-family:ProductusOSGiBookc">ClusterInfo</text>
<rect
     x="22.876762"
     y="63.655197"
     width="21.071045"
     height="0.479"
     id="rect489-6" /><text
     y="63.604889"
     x="48.280163"
     style="font-size:7.77957916px;font-family:ProductusOSGiBookc"
     transform="scale(0.97488463,1.0257624)"
     font-size="7.98"
     id="text215-3-7-9-1">impl</text>
<polyline
     transform="matrix(0,1,-1,0,38.331799,7.4086939)"
     style="fill:#ffffff"
     points="49.62,26.268 56.7,12.107 63.78,26.268 "
     id="polyline7-5" /><polyline
     transform="matrix(0,1,-1,0,38.301799,7.1386936)"
     points="49.44,26.147 56.52,11.987 56.7,11.567 56.94,11.987 64.2,26.508 63.78,26.508 63.6,26.388 56.52,12.228   56.94,11.987 56.94,12.228 49.86,26.388 "
     id="polyline9-5" /><polyline
     transform="matrix(0,1,-1,0,38.289139,7.1459746)"
     points="63.78,26.508 49.26,26.508 49.44,26.147 49.62,26.027 63.78,26.027 "
     id="polyline11-4" /><text
     xml:space="preserve"
     style="font-style:normal;font-weight:normal;font-size:15px;line-height:125%;font-family:Sans;letter-spacing:0px;word-spacing:0px;fill:#000000;fill-opacity:1;stroke:none;stroke-width:1px;stroke-linecap:butt;stroke-linejoin:miter;stroke-opacity:1"
     x="39.924217"
     y="42.542385"
     id="text3469-7"
     sodipodi:linespacing="125%"><tspan
       sodipodi:role="line"
       id="tspan3471-65"
       x="39.924217"
       y="42.542385"
       style="font-style:normal;font-variant:normal;font-weight:normal;font-stretch:normal;font-size:7.5px;font-family:ProductusOSGiBookc;-inkscape-font-specification:ProductusOSGiBookc">OSGi framework</tspan></text>
<text
     xml:space="preserve"
     style="font-style:normal;font-weight:normal;font-size:15px;line-height:125%;font-family:Sans;letter-spacing:0px;word-spacing:0px;fill:#000000;fill-opacity:1;stroke:none;stroke-width:1px;stroke-linecap:butt;stroke-linejoin:miter;stroke-opacity:1"
     x="39.031101"
     y="-51.09634"
     id="text3469-29-3"
     sodipodi:linespacing="125%"><tspan
       sodipodi:role="line"
       id="tspan3471-3-7"
       x="39.031101"
       y="-51.09634"
       style="font-style:normal;font-variant:normal;font-weight:normal;font-stretch:normal;font-size:7.5px;font-family:ProductusOSGiBookc;-inkscape-font-specification:ProductusOSGiBookc">VM/Container 1</tspan></text>
<text
     xml:space="preserve"
     style="font-style:normal;font-weight:normal;font-size:15px;line-height:125%;font-family:Sans;letter-spacing:0px;word-spacing:0px;fill:#000000;fill-opacity:1;stroke:none;stroke-width:1px;stroke-linecap:butt;stroke-linejoin:miter;stroke-opacity:1"
     x="35.466988"
     y="28.400515"
     id="text3469-29-3-4"
     sodipodi:linespacing="125%"><tspan
       sodipodi:role="line"
       id="tspan3471-3-7-5"
       x="35.466988"
       y="28.400515"
       style="font-style:normal;font-variant:normal;font-weight:normal;font-stretch:normal;font-size:7.5px;font-family:ProductusOSGiBookc;-inkscape-font-specification:ProductusOSGiBookc">VM/Container 2</tspan></text>
<text
     xml:space="preserve"
     style="font-style:normal;font-weight:normal;font-size:15px;line-height:125%;font-family:Sans;letter-spacing:0px;word-spacing:0px;fill:#000000;fill-opacity:1;stroke:none;stroke-width:1px;stroke-linecap:butt;stroke-linejoin:miter;stroke-opacity:1"
     x="161.08418"
     y="-51.560024"
     id="text3469-29-3-4-2"
     sodipodi:linespacing="125%"><tspan
       sodipodi:role="line"
       id="tspan3471-3-7-5-5"
       x="161.08418"
       y="-51.560024"
       style="font-style:normal;font-variant:normal;font-weight:normal;font-stretch:normal;font-size:7.5px;font-family:ProductusOSGiBookc;-inkscape-font-specification:ProductusOSGiBookc">VM/Container 3</tspan></text>
<rect
     y="80.602242"
     width="72.056999"
     height="45.995686"
     id="rect5-4"
     x="153.84206"
     style="fill:#e6e6e6" /><text
     xml:space="preserve"
     style="font-style:normal;font-weight:normal;font-size:15px;line-height:125%;font-family:Sans;letter-spacing:0px;word-spacing:0px;fill:#000000;fill-opacity:1;stroke:none;stroke-width:1px;stroke-linecap:butt;stroke-linejoin:miter;stroke-opacity:1"
     x="157.16879"
     y="89.283661"
     id="text3469-74"
     sodipodi:linespacing="125%"><tspan
       sodipodi:role="line"
       id="tspan3471-4"
       x="157.16879"
       y="89.283661"
       style="font-style:normal;font-variant:normal;font-weight:normal;font-stretch:normal;font-size:7.5px;font-family:ProductusOSGiBookc;-inkscape-font-specification:ProductusOSGiBookc">VM/Container manager</tspan></text>
<rect
     x="163.52618"
     y="94.726974"
     width="54.299"
     height="27"
     id="rect139-3" /><rect
     x="163.52618"
     y="94.487976"
     width="54.539001"
     height="0.479"
     id="rect141-0" /><rect
     x="217.5862"
     y="94.726974"
     width="0.479"
     height="27.24"
     id="rect143-7" /><rect
     x="163.28618"
     y="121.48798"
     width="54.539001"
     height="0.479"
     id="rect145-8" /><rect
     x="163.28618"
     y="94.487976"
     width="0.47999999"
     height="27.239"
     id="rect147-68" /><rect
     x="161.12619"
     y="92.927979"
     width="54.359001"
     height="27"
     id="rect149-8"
     style="fill:#ffffff" /><rect
     x="161.12619"
     y="92.687973"
     width="54.599998"
     height="0.479"
     id="rect151-4" /><rect
     x="215.2462"
     y="92.927979"
     width="0.479"
     height="27.24"
     id="rect153-3" /><rect
     x="160.88618"
     y="119.68799"
     width="54.599998"
     height="0.479"
     id="rect155-1" /><rect
     x="160.88618"
     y="92.687973"
     width="0.47999999"
     height="27.24"
     id="rect157-4" /><text
     transform="scale(0.97488463,1.0257624)"
     font-size="7.98"
     id="text159-9"
     x="167.73949"
     y="97.554367"
     style="font-size:7.77957916px;font-family:ProductusOSGiBookc">ClusterInfo</text>
<rect
     x="139.81514"
     y="99.020988"
     width="21.071045"
     height="0.479"
     id="rect489-2" /><text
     y="105.88155"
     x="168.23112"
     style="font-size:7.77957916px;font-family:ProductusOSGiBookc"
     transform="scale(0.97488463,1.0257624)"
     font-size="7.98"
     id="text215-3-7-9-0">impl</text>
<polyline
     transform="matrix(0,1,-1,0,155.27018,42.774481)"
     style="fill:#ffffff"
     points="49.62,26.268 56.7,12.107 63.78,26.268 "
     id="polyline7-68" /><polyline
     transform="matrix(0,1,-1,0,155.24018,42.504481)"
     points="49.44,26.147 56.52,11.987 56.7,11.567 56.94,11.987 64.2,26.508 63.78,26.508 63.6,26.388 56.52,12.228   56.94,11.987 56.94,12.228 49.86,26.388 "
     id="polyline9-9" /><polyline
     transform="matrix(0,1,-1,0,155.22752,42.511761)"
     points="63.78,26.508 49.26,26.508 49.44,26.147 49.62,26.027 63.78,26.027 "
     id="polyline11-2" /><rect
     x="136.34407"
     y="104.43481"
     width="24.551542"
     height="0.479"
     id="rect489-2-6" /><polyline
     transform="matrix(0,1,-1,0,151.79911,48.188302)"
     style="fill:#ffffff"
     points="49.62,26.268 56.7,12.107 63.78,26.268 "
     id="polyline7-68-6" /><polyline
     transform="matrix(0,1,-1,0,151.76911,47.918302)"
     points="49.44,26.147 56.52,11.987 56.7,11.567 56.94,11.987 64.2,26.508 63.78,26.508 63.6,26.388 56.52,12.228   56.94,11.987 56.94,12.228 49.86,26.388 "
     id="polyline9-9-4" /><polyline
     transform="matrix(0,1,-1,0,151.75645,47.925582)"
     points="63.78,26.508 49.26,26.508 49.44,26.147 49.62,26.027 63.78,26.027 "
     id="polyline11-2-9" /><rect
     x="132.34407"
     y="110.43481"
     width="28.757139"
     height="0.479"
     id="rect489-2-5" /><polyline
     transform="matrix(0,1,-1,0,147.79911,54.188302)"
     style="fill:#ffffff"
     points="49.62,26.268 56.7,12.107 63.78,26.268 "
     id="polyline7-68-0" /><polyline
     transform="matrix(0,1,-1,0,147.76911,53.918302)"
     points="49.44,26.147 56.52,11.987 56.7,11.567 56.94,11.987 64.2,26.508 63.78,26.508 63.6,26.388 56.52,12.228   56.94,11.987 56.94,12.228 49.86,26.388 "
     id="polyline9-9-48" /><polyline
     transform="matrix(0,1,-1,0,147.75645,53.925582)"
     points="63.78,26.508 49.26,26.508 49.44,26.147 49.62,26.027 63.78,26.027 "
     id="polyline11-2-7" /><text
     xml:space="preserve"
     style="font-style:normal;font-weight:normal;font-size:15px;line-height:125%;font-family:Sans;letter-spacing:0px;word-spacing:0px;fill:#000000;fill-opacity:1;stroke:none;stroke-width:1px;stroke-linecap:butt;stroke-linejoin:miter;stroke-opacity:1"
     x="-2.2725053"
     y="-29.145401"
     id="text3469-29-1"
     sodipodi:linespacing="125%"><tspan
       sodipodi:role="line"
       id="tspan3471-3-72"
       x="-2.2725053"
       y="-29.145401"
       style="font-style:normal;font-variant:normal;font-weight:normal;font-stretch:normal;font-size:5px;font-family:ProductusOSGiBookc;-inkscape-font-specification:ProductusOSGiBookc">Framework</tspan></text>
<text
     xml:space="preserve"
     style="font-style:normal;font-weight:normal;font-size:15px;line-height:125%;font-family:Sans;letter-spacing:0px;word-spacing:0px;fill:#000000;fill-opacity:1;stroke:none;stroke-width:1px;stroke-linecap:butt;stroke-linejoin:miter;stroke-opacity:1"
     x="-2.8099809"
     y="-23.565422"
     id="text3469-29-1-7"
     sodipodi:linespacing="125%"><tspan
       sodipodi:role="line"
       id="tspan3471-3-72-2"
       x="-2.8099809"
       y="-23.565422"
       style="font-style:normal;font-variant:normal;font-weight:normal;font-stretch:normal;font-size:5px;font-family:ProductusOSGiBookc;-inkscape-font-specification:ProductusOSGiBookc">NodeStatus</tspan></text>
<text
     xml:space="preserve"
     style="font-style:normal;font-weight:normal;font-size:15px;line-height:125%;font-family:Sans;letter-spacing:0px;word-spacing:0px;fill:#000000;fill-opacity:1;stroke:none;stroke-width:1px;stroke-linecap:butt;stroke-linejoin:miter;stroke-opacity:1"
     x="-2.9532466"
     y="48.300381"
     id="text3469-29-1-2"
     sodipodi:linespacing="125%"><tspan
       sodipodi:role="line"
       id="tspan3471-3-72-6"
       x="-2.9532466"
       y="48.300381"
       style="font-style:normal;font-variant:normal;font-weight:normal;font-stretch:normal;font-size:5px;font-family:ProductusOSGiBookc;-inkscape-font-specification:ProductusOSGiBookc">Framework</tspan></text>
<text
     xml:space="preserve"
     style="font-style:normal;font-weight:normal;font-size:15px;line-height:125%;font-family:Sans;letter-spacing:0px;word-spacing:0px;fill:#000000;fill-opacity:1;stroke:none;stroke-width:1px;stroke-linecap:butt;stroke-linejoin:miter;stroke-opacity:1"
     x="-3.4907222"
     y="53.88036"
     id="text3469-29-1-7-1"
     sodipodi:linespacing="125%"><tspan
       sodipodi:role="line"
       id="tspan3471-3-72-2-0"
       x="-3.4907222"
       y="53.88036"
       style="font-style:normal;font-variant:normal;font-weight:normal;font-stretch:normal;font-size:5px;font-family:ProductusOSGiBookc;-inkscape-font-specification:ProductusOSGiBookc">NodeStatus</tspan></text>
<text
     xml:space="preserve"
     style="font-style:normal;font-weight:normal;font-size:15px;line-height:125%;font-family:Sans;letter-spacing:0px;word-spacing:0px;fill:#000000;fill-opacity:1;stroke:none;stroke-width:1px;stroke-linecap:butt;stroke-linejoin:miter;stroke-opacity:1"
     x="121.04675"
     y="-31.699619"
     id="text3469-29-1-6"
     sodipodi:linespacing="125%"><tspan
       sodipodi:role="line"
       id="tspan3471-3-72-1"
       x="121.04675"
       y="-31.699619"
       style="font-style:normal;font-variant:normal;font-weight:normal;font-stretch:normal;font-size:5px;font-family:ProductusOSGiBookc;-inkscape-font-specification:ProductusOSGiBookc">Framework</tspan></text>
<text
     xml:space="preserve"
     style="font-style:normal;font-weight:normal;font-size:15px;line-height:125%;font-family:Sans;letter-spacing:0px;word-spacing:0px;fill:#000000;fill-opacity:1;stroke:none;stroke-width:1px;stroke-linecap:butt;stroke-linejoin:miter;stroke-opacity:1"
     x="120.50928"
     y="-26.11964"
     id="text3469-29-1-7-5"
     sodipodi:linespacing="125%"><tspan
       sodipodi:role="line"
       id="tspan3471-3-72-2-9"
       x="120.50928"
       y="-26.11964"
       style="font-style:normal;font-variant:normal;font-weight:normal;font-stretch:normal;font-size:5px;font-family:ProductusOSGiBookc;-inkscape-font-specification:ProductusOSGiBookc">NodeStatus</tspan></text>
<text
     xml:space="preserve"
     style="font-style:normal;font-weight:normal;font-size:15px;line-height:125%;font-family:Sans;letter-spacing:0px;word-spacing:0px;fill:#000000;fill-opacity:1;stroke:none;stroke-width:1px;stroke-linecap:butt;stroke-linejoin:miter;stroke-opacity:1"
     x="121.04675"
     y="30.300383"
     id="text3469-29-1-4"
     sodipodi:linespacing="125%"><tspan
       sodipodi:role="line"
       id="tspan3471-3-72-9"
       x="121.04675"
       y="30.300383"
       style="font-style:normal;font-variant:normal;font-weight:normal;font-stretch:normal;font-size:5px;font-family:ProductusOSGiBookc;-inkscape-font-specification:ProductusOSGiBookc">Framework</tspan></text>
<text
     xml:space="preserve"
     style="font-style:normal;font-weight:normal;font-size:15px;line-height:125%;font-family:Sans;letter-spacing:0px;word-spacing:0px;fill:#000000;fill-opacity:1;stroke:none;stroke-width:1px;stroke-linecap:butt;stroke-linejoin:miter;stroke-opacity:1"
     x="120.50928"
     y="35.88036"
     id="text3469-29-1-7-0"
     sodipodi:linespacing="125%"><tspan
       sodipodi:role="line"
       id="tspan3471-3-72-2-91"
       x="120.50928"
       y="35.88036"
       style="font-style:normal;font-variant:normal;font-weight:normal;font-stretch:normal;font-size:5px;font-family:ProductusOSGiBookc;-inkscape-font-specification:ProductusOSGiBookc">NodeStatus</tspan></text>
<text
     xml:space="preserve"
     style="font-style:normal;font-weight:normal;font-size:15px;line-height:125%;font-family:Sans;letter-spacing:0px;word-spacing:0px;fill:#000000;fill-opacity:1;stroke:none;stroke-width:1px;stroke-linecap:butt;stroke-linejoin:miter;stroke-opacity:1"
     x="122.02151"
     y="89.203804"
     id="text3469-29-1-7-59"
     sodipodi:linespacing="125%"><tspan
       sodipodi:role="line"
       id="tspan3471-3-72-2-7"
       x="122.02151"
       y="89.203804"
       style="font-style:normal;font-variant:normal;font-weight:normal;font-stretch:normal;font-size:5px;font-family:ProductusOSGiBookc;-inkscape-font-specification:ProductusOSGiBookc">NodeStatus</tspan></text>
</svg>