<?xml version="1.0" encoding="UTF-8" standalone="no"?>
<!-- Generator: Adobe Illustrator 16.0.4, SVG Export Plug-In . SVG Version: 6.00 Build 0)  -->

<svg
   xmlns:dc="http://purl.org/dc/elements/1.1/"
   xmlns:cc="http://creativecommons.org/ns#"
   xmlns:rdf="http://www.w3.org/1999/02/22-rdf-syntax-ns#"
   xmlns:svg="http://www.w3.org/2000/svg"
   xmlns="http://www.w3.org/2000/svg"
   xmlns:sodipodi="http://sodipodi.sourceforge.net/DTD/sodipodi-0.dtd"
   xmlns:inkscape="http://www.inkscape.org/namespaces/inkscape"
   version="1.1"
   id="Layer_1"
   x="0px"
   y="0px"
   width="253.62502"
   height="167.40724"
   viewBox="0 -60 253.62501 167.40724"
   enable-background="new 0 -60 331.2 273.799"
   xml:space="preserve"
   inkscape:version="0.91 r13725"
   sodipodi:docname="clusterinfo-classes.svg"><metadata
     id="metadata513"><rdf:RDF><cc:Work
         rdf:about=""><dc:format>image/svg+xml</dc:format><dc:type
           rdf:resource="http://purl.org/dc/dcmitype/StillImage" /><dc:title></dc:title></cc:Work></rdf:RDF></metadata><defs
     id="defs511" /><sodipodi:namedview
     pagecolor="#ffffff"
     bordercolor="#666666"
     borderopacity="1"
     objecttolerance="10"
     gridtolerance="10"
     guidetolerance="10"
     inkscape:pageopacity="0"
     inkscape:pageshadow="2"
     inkscape:window-width="1920"
     inkscape:window-height="1056"
     id="namedview509"
     showgrid="false"
     inkscape:zoom="3.4477845"
     inkscape:cx="73.450904"
     inkscape:cy="79.649969"
     inkscape:window-x="0"
     inkscape:window-y="24"
     inkscape:window-maximized="1"
     inkscape:current-layer="Layer_1"
     fit-margin-top="1"
     fit-margin-left="1"
     fit-margin-bottom="1"
     fit-margin-right="1" /><rect
     y="52.788033"
     width="251.62502"
     height="53.619213"
     id="rect5"
     x="1"
     style="fill:#e6e6e6" /><rect
     x="10.599998"
     y="2.7412491"
     width="55.200001"
     height="27"
     id="rect9" /><rect
     x="10.599998"
     y="2.5012436"
     width="55.439999"
     height="0.47999999"
     id="rect11" /><rect
     x="65.559998"
     y="2.7412491"
     width="0.47999999"
     height="27.24"
     id="rect13" /><rect
     x="10.360001"
     y="29.501244"
     width="55.439999"
     height="0.47999999"
     id="rect15" /><rect
     x="10.360001"
     y="2.5012436"
     width="0.47999999"
     height="27.24"
     id="rect17" /><rect
     x="8.2000046"
     y="0.94124603"
     width="55.200001"
     height="27"
     id="rect19"
     style="fill:#ffffff" /><rect
     x="8.2000046"
     y="0.70124817"
     width="55.439999"
     height="0.479"
     id="rect21" /><rect
     x="63.160011"
     y="0.94124603"
     width="0.47999999"
     height="27.239"
     id="rect23" /><rect
     x="7.9599991"
     y="27.701248"
     width="55.439999"
     height="0.479"
     id="rect25" /><rect
     x="7.9599991"
     y="0.70124817"
     width="0.47999999"
     height="27.24"
     id="rect27" /><text
     transform="scale(0.97488463,1.0257624)"
     font-size="7.98"
     id="text29"
     style="font-size:7.77957916px;font-family:ProductusOSGiBookc"
     x="10.873696"
     y="7.8778896">&lt;&lt;interface&gt;&gt;</text>
<text
     font-size="7.98"
     id="text31"
     style="font-size:7.98000002px;font-family:ProductusSemibold"
     x="10.600098"
     y="16.601448"><tspan
       style="font-style:normal;font-variant:normal;font-weight:normal;font-stretch:normal;font-family:ProductusOSGiBookc;-inkscape-font-specification:ProductusOSGiBookc"
       id="tspan3447">Framework</tspan></text>
<polyline
     points="36,112.318 32.7,112.318 32.88,111.659 36,100.739 39.12,111.659 39.3,112.318 38.64,112.318 38.16,111.959   35.52,102.719 36.48,102.42 36.48,102.719 33.84,111.959 32.88,111.659 33.36,111.299 36,111.299 "
     id="polyline131"
     transform="translate(1.0000002,-71.058753)" /><rect
     x="37"
     y="40.24025"
     width="2.6400001"
     height="1.021"
     id="rect133" /><polyline
     points="36,111.84 33.36,111.84 36,102.6 38.64,111.84 "
     id="polyline135"
     transform="translate(1.0000002,-71.058753)" /><rect
     x="192"
     y="71.408234"
     width="54.299"
     height="27"
     id="rect139" /><rect
     x="192"
     y="71.169235"
     width="54.539001"
     height="0.479"
     id="rect141" /><rect
     x="246.06"
     y="71.408234"
     width="0.479"
     height="27.24"
     id="rect143" /><rect
     x="191.75998"
     y="98.169235"
     width="54.539001"
     height="0.479"
     id="rect145" /><rect
     x="191.75998"
     y="71.169235"
     width="0.47999999"
     height="27.239"
     id="rect147" /><rect
     x="189.60001"
     y="69.609238"
     width="54.359001"
     height="27"
     id="rect149"
     style="fill:#ffffff" /><rect
     x="189.60001"
     y="69.369232"
     width="54.599998"
     height="0.479"
     id="rect151" /><rect
     x="243.72"
     y="69.609238"
     width="0.479"
     height="27.24"
     id="rect153" /><rect
     x="189.35999"
     y="96.369232"
     width="54.599998"
     height="0.479"
     id="rect155" /><rect
     x="189.35999"
     y="69.369232"
     width="0.47999999"
     height="27.24"
     id="rect157" /><text
     transform="scale(0.97488463,1.0257624)"
     font-size="7.98"
     id="text159"
     x="196.9469"
     y="74.821281"
     style="font-size:7.77957916px;font-family:ProductusOSGiBookc">ClusterInfo</text>
<rect
     x="10.540001"
     y="63.141239"
     width="54.360001"
     height="27"
     id="rect193" /><rect
     x="10.540001"
     y="62.900242"
     width="54.599998"
     height="0.479"
     id="rect195" /><rect
     x="64.660011"
     y="63.141239"
     width="0.47999999"
     height="27.239"
     id="rect197" /><rect
     x="10.300003"
     y="89.900253"
     width="54.599998"
     height="0.479"
     id="rect199" /><rect
     x="10.300003"
     y="62.900242"
     width="0.47999999"
     height="27.24"
     id="rect201" /><rect
     x="8.1999969"
     y="61.339237"
     width="54.360001"
     height="27"
     id="rect203"
     style="fill:#ffffff" /><rect
     x="8.1999969"
     y="61.100239"
     width="54.599998"
     height="0.479"
     id="rect205" /><rect
     x="62.32"
     y="61.339237"
     width="0.47999999"
     height="27.24"
     id="rect207" /><rect
     x="7.9599991"
     y="88.100235"
     width="54.599998"
     height="0.479"
     id="rect209" /><rect
     x="7.9599991"
     y="61.100239"
     width="0.47999999"
     height="27.239"
     id="rect211" /><text
     transform="scale(0.97488463,1.0257624)"
     font-size="7.98"
     id="text213"
     style="font-size:7.77957916px;font-family:ProductusOSGiBookc"
     x="10.812051"
     y="66.762306">Framework</text>
<text
     transform="scale(0.97488463,1.0257624)"
     font-size="7.98"
     id="text215"
     style="font-size:7.77957916px;font-family:ProductusOSGiBookc"
     x="9.9705515"
     y="75.297279">NodeStatus</text>
<rect
     x="36.426216"
     y="95.696243"
     width="153.49965"
     height="0.479"
     id="rect241" /><polyline
     points="64.8,86.399 50.4,100.8 64.8,100.8 "
     id="polyline279"
     transform="translate(1.0000002,-71.058753)" /><polyline
     points="64.98,86.58 50.58,100.979 50.4,101.04 49.8,101.04 64.62,86.22 "
     id="polyline281"
     transform="translate(1.0000002,-71.058753)" /><rect
     x="51.400002"
     y="29.501244"
     width="14.64"
     height="0.47999999"
     id="rect283" /><polyline
     points="64.56,100.8 64.56,86.399 64.62,86.22 65.04,85.8 65.04,100.8 "
     id="polyline285"
     transform="translate(1.0000002,-71.058753)" /><rect
     x="11.115402"
     y="-56.960007"
     width="55.199001"
     height="27"
     id="rect303" /><rect
     x="11.115402"
     y="-57.200005"
     width="55.438999"
     height="0.47999999"
     id="rect305" /><rect
     x="66.075409"
     y="-56.960007"
     width="0.479"
     height="27.24"
     id="rect307" /><rect
     x="10.875404"
     y="-30.200012"
     width="55.438999"
     height="0.47999999"
     id="rect309" /><rect
     x="10.875404"
     y="-57.200005"
     width="0.47999999"
     height="27.24"
     id="rect311" /><rect
     x="8.7154007"
     y="-58.76001"
     width="55.200001"
     height="27"
     id="rect313"
     style="fill:#ffffff" /><rect
     x="8.7154007"
     y="-59"
     width="55.439999"
     height="0.479"
     id="rect315" /><rect
     x="63.675407"
     y="-58.76001"
     width="0.479"
     height="27.239"
     id="rect317" /><rect
     x="8.4754028"
     y="-32.000008"
     width="55.439999"
     height="0.479"
     id="rect319" /><rect
     x="8.4754028"
     y="-59"
     width="0.47999999"
     height="27.24"
     id="rect321" /><text
     transform="scale(0.97488463,1.0257624)"
     font-size="7.98"
     id="text323"
     style="font-size:7.77957916px;font-family:ProductusOSGiBookc"
     x="11.402192"
     y="-50.323845">&lt;&lt;interface&gt;&gt;</text>
<polyline
     points="64.559,27.396 50.16,41.797 64.559,41.797 "
     id="polyline327"
     transform="translate(1.7554132,-71.757003)" /><polyline
     points="64.74,27.577 50.34,41.976 50.16,42.037 49.559,42.037 64.379,27.217 "
     id="polyline329"
     transform="translate(1.7554132,-71.757003)" /><rect
     x="51.915405"
     y="-30.200012"
     width="14.64"
     height="0.47999999"
     id="rect331" /><polyline
     points="64.32,41.797 64.32,27.396 64.379,27.217 64.799,26.797 64.799,41.797 "
     id="polyline333"
     transform="translate(1.7554132,-71.757003)" /><rect
     x="102.33399"
     y="62.120243"
     width="54.299"
     height="27"
     id="rect343" /><rect
     x="102.33399"
     y="61.880238"
     width="54.539001"
     height="0.479"
     id="rect345" /><rect
     x="156.39398"
     y="62.120243"
     width="0.479"
     height="27.24"
     id="rect347" /><rect
     x="102.094"
     y="88.880234"
     width="54.539001"
     height="0.479"
     id="rect349" /><rect
     x="102.094"
     y="61.880238"
     width="0.47999999"
     height="27.239"
     id="rect351" /><rect
     x="99.933998"
     y="60.321247"
     width="54.359001"
     height="27"
     id="rect353"
     style="fill:#ffffff" /><rect
     x="99.933998"
     y="60.081242"
     width="54.599998"
     height="0.479"
     id="rect355" /><rect
     x="154.05399"
     y="60.321247"
     width="0.479"
     height="27.24"
     id="rect357" /><rect
     x="99.693001"
     y="87.081253"
     width="54.599998"
     height="0.479"
     id="rect359" /><rect
     x="99.693001"
     y="60.081242"
     width="0.47999999"
     height="27.24"
     id="rect361" /><rect
     x="100.71299"
     y="1.4202423"
     width="55.199001"
     height="27"
     id="rect365" /><rect
     x="100.71299"
     y="1.1802444"
     width="55.438999"
     height="0.47999999"
     id="rect367" /><rect
     x="155.673"
     y="1.4202423"
     width="0.479"
     height="27.24"
     id="rect369" /><rect
     x="100.473"
     y="28.181244"
     width="55.438999"
     height="0.479"
     id="rect371" /><rect
     x="100.473"
     y="1.1802444"
     width="0.47999999"
     height="27.24"
     id="rect373" /><rect
     x="98.312996"
     y="-0.37975311"
     width="55.200001"
     height="27"
     id="rect375"
     style="fill:#ffffff" /><rect
     x="98.312996"
     y="-0.61975098"
     width="55.439999"
     height="0.479"
     id="rect377" /><rect
     x="153.27399"
     y="-0.37975311"
     width="0.479"
     height="27.239"
     id="rect379" /><rect
     x="98.073006"
     y="26.380249"
     width="55.439999"
     height="0.479"
     id="rect381" /><rect
     x="98.073006"
     y="-0.61975098"
     width="0.47999999"
     height="27.24"
     id="rect383" /><text
     transform="scale(0.97488463,1.0257624)"
     font-size="7.98"
     id="text385"
     style="font-size:7.77957916px;font-family:ProductusOSGiBookc"
     x="103.30853"
     y="6.5902615">&lt;&lt;interface&gt;&gt;</text>
<polyline
     points="126.114,110.998 122.813,110.998 122.993,110.338 126.114,99.418 129.233,110.338 129.413,110.998   128.753,110.998 128.274,110.639 125.633,101.398 126.593,101.099 126.593,101.398 123.954,110.639 122.993,110.338   123.473,109.979 126.114,109.979 "
     id="polyline389"
     transform="translate(1.0000002,-71.058753)" /><rect
     x="127.11399"
     y="38.920242"
     width="2.6400001"
     height="1.021"
     id="rect391" /><polyline
     points="126.114,110.52 123.473,110.52 126.114,101.279 128.753,110.52 "
     id="polyline393"
     transform="translate(1.0000002,-71.058753)" /><rect
     x="141.513"
     y="27.360882"
     width="14.64"
     height="0.479"
     id="rect397" /><polyline
     points="154.673,99.479 154.673,85.078 154.733,84.899 155.153,84.479 155.153,99.479 "
     id="polyline399"
     transform="translate(1.0000002,-71.879113)" /><rect
     x="14.890144"
     y="-86.83535"
     width="0.47999999"
     height="20.883247"
     id="rect435"
     transform="matrix(0,1,-1,0,0,0)" /><rect
     x="154.75299"
     y="73.70224"
     width="34.606998"
     height="0.479"
     id="rect489" /><text
     font-size="7.98"
     id="text491"
     x="185.45309"
     y="103.02815"
     style="font-size:7.98000002px;font-family:ProductusBook">1</text>
<text
     y="83.564346"
     x="10.435296"
     style="font-size:7.77957916px;font-family:ProductusOSGiBookc"
     transform="scale(0.97488463,1.0257624)"
     font-size="7.98"
     id="text215-3">impl</text>
<text
     transform="scale(0.97488463,1.0257624)"
     font-size="7.98"
     id="text215-6"
     style="font-size:7.77957916px;font-family:ProductusOSGiBookc"
     x="103.84027"
     y="65.832069">NodeStatus</text>
<text
     y="74.099144"
     x="104.30502"
     style="font-size:7.77957916px;font-family:ProductusOSGiBookc"
     transform="scale(0.97488463,1.0257624)"
     font-size="7.98"
     id="text215-3-7">impl</text>
<rect
     x="36.446205"
     y="89.50415"
     width="0.479"
     height="6.4561982"
     id="rect269-5" /><text
     font-size="7.98"
     id="text493"
     x="29.141228"
     y="102.67767"
     style="font-size:7.98000002px;font-family:ProductusBook">0..n</text>
<text
     font-size="7.98"
     id="text491-6"
     x="184.92917"
     y="82.952316"
     style="font-size:7.98000002px;font-family:ProductusBook">1</text>
<text
     font-size="7.98"
     id="text493-2"
     x="157.4845"
     y="72.078293"
     style="font-size:7.98000002px;font-family:ProductusBook">0..n</text>
<text
     y="83.14846"
     x="197.43854"
     style="font-size:7.77957916px;font-family:ProductusOSGiBookc"
     transform="scale(0.97488463,1.0257624)"
     font-size="7.98"
     id="text215-3-7-9">impl</text>
<text
     transform="scale(0.97488463,1.0257624)"
     font-size="7.98"
     id="text215-1"
     style="font-size:7.77957916px;font-family:ProductusOSGiBookc"
     x="10.569703"
     y="25.226959">NodeStatus</text>
<text
     transform="scale(0.97488463,1.0257624)"
     font-size="7.98"
     id="text215-1-2"
     style="font-size:7.77957916px;font-family:ProductusOSGiBookc"
     x="102.82091"
     y="15.092657">NodeStatus</text>
<text
     y="-44.028244"
     x="9.8395615"
     font-size="7.98"
     id="text31-7"
     style="font-size:7.98000002px;font-family:ProductusSemibold"><tspan
       style="font-style:normal;font-variant:normal;font-weight:normal;font-stretch:normal;font-family:ProductusOSGiBookc;-inkscape-font-specification:ProductusOSGiBookc"
       id="tspan3445">Framework</tspan></text>
<text
     transform="scale(0.97488463,1.0257624)"
     font-size="7.98"
     id="text215-1-0"
     style="font-size:7.77957916px;font-family:ProductusOSGiBookc"
     x="10.297288"
     y="-34.632896">Manager</text>
<polyline
     transform="matrix(0,1,-1,0,197.86105,-110.99192)"
     points="126.114,110.998 122.813,110.998 122.993,110.338 126.114,99.418 129.233,110.338 129.413,110.998   128.753,110.998 128.274,110.639 125.633,101.398 126.593,101.099 126.593,101.398 123.954,110.639 122.993,110.338   123.473,109.979 126.114,109.979 "
     id="polyline389-9" /><rect
     x="14.937553"
     y="-87.904472"
     width="2.6400001"
     height="1.021"
     id="rect391-3"
     transform="matrix(0,1,-1,0,0,0)" /><polyline
     transform="matrix(0,1,-1,0,197.97247,-111.17054)"
     points="126.114,110.52 123.473,110.52 126.114,101.279 128.753,110.52 "
     id="polyline393-6" /><polyline
     points="64.8,86.399 50.4,100.8 64.8,100.8 "
     id="polyline279-3"
     transform="translate(90.514268,-72.456053)" /><polyline
     points="64.98,86.58 50.58,100.979 50.4,101.04 49.8,101.04 64.62,86.22 "
     id="polyline281-6"
     transform="translate(90.514268,-72.456053)" /><rect
     x="140.91428"
     y="28.103947"
     width="14.64"
     height="0.47999999"
     id="rect283-7" /><polyline
     points="64.56,100.8 64.56,86.399 64.62,86.22 65.04,85.8 65.04,100.8 "
     id="polyline285-5"
     transform="translate(90.514268,-72.456053)" /><rect
     x="36.775078"
     y="41.799656"
     width="0.47999999"
     height="19.143"
     id="rect341-3" /><rect
     x="127.02958"
     y="39.74876"
     width="0.47999999"
     height="19.143"
     id="rect341-5" /><polyline
     points="36,112.318 32.7,112.318 32.88,111.659 36,100.739 39.12,111.659 39.3,112.318 38.64,112.318 38.16,111.959   35.52,102.719 36.48,102.42 36.48,102.719 33.84,111.959 32.88,111.659 33.36,111.299 36,111.299 "
     id="polyline131-3"
     transform="translate(1.6397162,-131.0911)" /><rect
     x="37.639725"
     y="-19.792122"
     width="2.6400001"
     height="1.021"
     id="rect133-6" /><polyline
     points="36,111.84 33.36,111.84 36,102.6 38.64,111.84 "
     id="polyline135-7"
     transform="translate(1.6397162,-131.0911)" /><rect
     x="37.109673"
     y="-18.402"
     width="0.47999999"
     height="19.143"
     id="rect341-3-5" /></svg>