<?xml version="1.0" encoding="utf-8"?>
<!-- Generator: Adobe Illustrator 16.0.1, SVG Export Plug-In . SVG Version: 6.00 Build 0)  -->
<!DOCTYPE svg PUBLIC "-//W3C//DTD SVG 1.1//EN" "http://www.w3.org/Graphics/SVG/1.1/DTD/svg11.dtd">
<svg version="1.1" id="Layer_1" xmlns="http://www.w3.org/2000/svg" xmlns:xlink="http://www.w3.org/1999/xlink" x="0px" y="0px"
	 width="217.8px" height="199.141px" viewBox="0 0 217.8 199.141" enable-background="new 0 0 217.8 199.141" xml:space="preserve">
<rect x="2.1" y="155.94" fill="#E6E6E6" width="70.859" height="43.2"/>
<rect x="143.82" y="0" fill="#E6E6E6" width="73.98" height="43.2"/>
<rect y="0.66" fill="#E6E6E6" width="72.959" height="43.2"/>
<rect x="11.58" y="9.6" width="54.299" height="27"/>
<rect x="11.58" y="9.36" width="54.54" height="0.479"/>
<rect x="65.64" y="9.6" width="0.479" height="27.239"/>
<rect x="11.34" y="36.36" width="54.54" height="0.479"/>
<rect x="11.34" y="9.36" width="0.48" height="27.24"/>
<rect x="9.18" y="7.8" fill="#FFFFFF" width="54.36" height="27"/>
<rect x="9.18" y="7.56" width="54.6" height="0.479"/>
<rect x="63.3" y="7.8" width="0.48" height="27.24"/>
<rect x="8.94" y="34.56" width="54.6" height="0.479"/>
<rect x="8.94" y="7.56" width="0.48" height="27.239"/>
<text transform="matrix(0.9504 0 0 1 11.5801 14.8796)" enable-background="new    "><tspan x="0" y="0" font-family="'ProductusOSGiBookc'" font-size="7.98">Event Publisher</tspan><tspan x="0" y="9.576" font-family="'ProductusOSGiBookc'" font-size="7.98">Impl</tspan></text>
<rect x="37.32" y="35.88" width="0.48" height="71.34"/>
<rect x="153.3" y="9.6" width="54.3" height="27"/>
<rect x="153.3" y="9.36" width="54.539" height="0.479"/>
<rect x="207.36" y="9.6" width="0.479" height="27.239"/>
<rect x="153.06" y="36.36" width="54.54" height="0.479"/>
<rect x="153.06" y="9.36" width="0.479" height="27.24"/>
<rect x="150.9" y="7.8" fill="#FFFFFF" width="54.359" height="27"/>
<rect x="150.9" y="7.56" width="54.6" height="0.479"/>
<rect x="205.02" y="7.8" width="0.479" height="27.24"/>
<rect x="150.66" y="34.56" width="54.602" height="0.479"/>
<rect x="150.66" y="7.56" width="0.48" height="27.239"/>
<text transform="matrix(0.9504 0 0 1 153.3003 14.8796)" enable-background="new    "><tspan x="0" y="0" font-family="'ProductusOSGiBookc'" font-size="7.98">an Event</tspan><tspan x="0" y="9.576" font-family="'ProductusOSGiBookc'" font-size="7.98">Consumer Impl</tspan></text>
<text transform="matrix(1 0 0 1 183.8999 69.1794)" enable-background="new    "><tspan x="0" y="0" font-family="'ProductusBook'" font-size="7.98">receive</tspan><tspan x="0" y="9.576" font-family="'ProductusBook'" font-size="7.98">event</tspan></text>
<text transform="matrix(1 0 0 1 5.3999 62.0994)" enable-background="new    "><tspan x="0" y="0" font-family="'ProductusBook'" font-size="7.98">send</tspan><tspan x="0" y="9.576" font-family="'ProductusBook'" font-size="7.98">event</tspan></text>
<rect x="11.58" y="108.36" width="54.299" height="27"/>
<rect x="11.58" y="108.12" width="54.54" height="0.48"/>
<rect x="65.64" y="108.36" width="0.479" height="27.24"/>
<rect x="11.34" y="135.12" width="54.54" height="0.48"/>
<rect x="11.34" y="108.12" width="0.48" height="27.24"/>
<rect x="9.18" y="106.56" fill="#FFFFFF" width="54.36" height="27"/>
<rect x="9.18" y="106.32" width="54.6" height="0.479"/>
<rect x="63.3" y="106.56" width="0.48" height="27.239"/>
<rect x="8.94" y="133.32" width="54.6" height="0.479"/>
<rect x="8.94" y="106.32" width="0.48" height="27.24"/>
<text transform="matrix(1 0 0 1 11.5801 113.6394)" font-family="'ProductusOSGiBookc'" font-size="7.98">&lt;&lt;service&gt;&gt;</text>
<text transform="matrix(1 0 0 1 11.5801 122.1599)" font-family="'ProductusSemibold'" font-size="7.98">Event Admin</text>
<polyline points="65.879,120.719 51.72,134.88 65.879,134.88 "/>
<polyline points="66.06,120.9 51.9,135.06 51.72,135.12 51.12,135.12 65.7,120.54 "/>
<rect x="51.72" y="134.64" width="14.4" height="0.479"/>
<polyline points="65.64,134.88 65.64,120.719 65.7,120.54 66.12,120.12 66.12,134.88 "/>
<rect x="11.58" y="165.48" width="54.299" height="26.52"/>
<rect x="11.58" y="165.24" width="54.54" height="0.479"/>
<rect x="65.64" y="165.48" width="0.479" height="26.76"/>
<rect x="11.34" y="191.76" width="54.54" height="0.48"/>
<rect x="11.34" y="165.24" width="0.48" height="26.76"/>
<rect x="9.18" y="163.68" fill="#FFFFFF" width="54.36" height="26.579"/>
<rect x="9.18" y="163.44" width="54.6" height="0.479"/>
<rect x="63.3" y="163.68" width="0.48" height="26.819"/>
<rect x="8.94" y="190.02" width="54.6" height="0.479"/>
<rect x="8.94" y="163.44" width="0.48" height="26.819"/>
<text transform="matrix(0.9504 0 0 1 11.5801 170.7595)" font-family="'ProductusOSGiBookc'" font-size="7.98">Event Admin Impl</text>
<polyline points="37.56,146.82 34.26,146.82 34.44,146.16 37.08,136.98 37.56,135.3 38.04,136.98 40.68,146.16 40.86,146.82 
	40.2,146.82 39.72,146.46 37.08,137.28 38.04,136.98 38.04,137.28 35.4,146.46 34.44,146.16 34.92,145.8 37.56,145.8 "/>
<rect x="37.56" y="145.8" width="2.64" height="1.021"/>
<polyline points="37.56,146.34 34.92,146.34 37.56,137.16 40.2,146.34 "/>
<rect x="37.32" y="146.64" width="0.48" height="17.279"/>
<rect x="153.3" y="108.36" width="54.3" height="27"/>
<rect x="153.3" y="108.12" width="54.539" height="0.48"/>
<rect x="207.36" y="108.36" width="0.479" height="27.24"/>
<rect x="153.06" y="135.12" width="54.54" height="0.48"/>
<rect x="153.06" y="108.12" width="0.479" height="27.24"/>
<rect x="150.9" y="106.56" fill="#FFFFFF" width="54.359" height="27"/>
<rect x="150.9" y="106.32" width="54.6" height="0.479"/>
<rect x="205.02" y="106.56" width="0.479" height="27.239"/>
<rect x="150.66" y="133.32" width="54.602" height="0.479"/>
<rect x="150.66" y="106.32" width="0.48" height="27.24"/>
<text transform="matrix(1 0 0 1 153.3003 113.6394)" font-family="'ProductusOSGiBookc'" font-size="7.98">&lt;&lt;service&gt;&gt;</text>
<text transform="matrix(1 0 0 1 153.3003 122.1599)" font-family="'ProductusSemibold'" font-size="7.98">Event Handler</text>
<polyline points="207.6,120.719 193.44,134.88 207.6,134.88 "/>
<polyline points="207.78,120.9 193.621,135.06 193.44,135.12 192.839,135.12 207.419,120.54 "/>
<rect x="193.44" y="134.64" width="14.399" height="0.479"/>
<polyline points="207.36,134.88 207.36,120.719 207.419,120.54 207.839,120.12 207.839,134.88 "/>
<polyline points="179.28,95.46 182.58,95.46 182.4,96.12 179.28,107.04 176.16,96.12 175.98,95.46 176.64,95.46 177.121,95.82 
	179.759,105.06 178.8,105.36 178.8,105.06 181.44,95.82 182.4,96.12 181.919,96.48 179.28,96.48 "/>
<rect x="176.64" y="95.46" width="2.64" height="1.021"/>
<polyline points="179.28,95.94 181.919,95.94 179.28,105.18 176.64,95.94 "/>
<rect x="179.041" y="35.88" width="0.479" height="0.24"/>
<rect x="179.041" y="36.12" width="0.479" height="59.58"/>
<rect x="65.64" y="120.48" width="0.239" height="0.479"/>
<rect x="65.879" y="120.48" width="85.261" height="0.479"/>
<text transform="matrix(1 0 0 1 68.8198 118.3796)" font-family="'ProductusBook'" font-size="7.98">1</text>
<text transform="matrix(1 0 0 1 139.1997 118.8601)" font-family="'ProductusBook'" font-size="7.98">0..n</text>
<rect x="82.44" y="59.16" width="54.3" height="27"/>
<rect x="82.44" y="58.92" width="54.54" height="0.48"/>
<rect x="136.5" y="59.16" width="0.48" height="27.24"/>
<rect x="82.2" y="85.92" width="54.54" height="0.48"/>
<rect x="82.2" y="58.92" width="0.48" height="27.24"/>
<rect x="80.04" y="57.36" fill="#FFFFFF" width="54.36" height="27"/>
<rect x="80.04" y="57.12" width="54.601" height="0.48"/>
<rect x="134.16" y="57.36" width="0.48" height="27.24"/>
<rect x="79.8" y="84.12" width="54.6" height="0.48"/>
<rect x="79.8" y="57.12" width="0.479" height="27.24"/>
<text transform="matrix(1 0 0 1 82.4399 64.4998)" font-family="'ProductusOSGiBookc'" font-size="7.98">&lt;&lt;class&gt;&gt;</text>
<text transform="matrix(1 0 0 1 82.4399 73.0193)" font-family="'ProductusSemibold'" font-size="7.98">Event</text>
<rect x="37.32" y="71.34" width="0.24" height="0.48"/>
<rect x="37.56" y="71.34" width="3.96" height="0.48"/>
<rect x="47.64" y="71.34" width="0.24" height="0.48"/>
<rect x="47.88" y="71.34" width="7.86" height="0.48"/>
<rect x="61.86" y="71.34" width="0.24" height="0.48"/>
<rect x="62.1" y="71.34" width="7.859" height="0.48"/>
<rect x="76.08" y="71.34" width="0.24" height="0.48"/>
<rect x="76.32" y="71.34" width="3.96" height="0.48"/>
<rect x="108.18" y="85.5" width="0.479" height="0.24"/>
<rect x="108.18" y="85.74" width="0.479" height="3.96"/>
<rect x="108.18" y="98.1" width="0.479" height="0.239"/>
<rect x="108.18" y="98.34" width="0.479" height="10.44"/>
<rect x="108.18" y="117.18" width="0.479" height="0.239"/>
<rect x="108.18" y="117.42" width="0.479" height="3.96"/>
</svg>
