<?xml version="1.0" encoding="utf-8"?>
<!-- Generator: Adobe Illustrator 16.0.1, SVG Export Plug-In . SVG Version: 6.00 Build 0)  -->
<!DOCTYPE svg PUBLIC "-//W3C//DTD SVG 1.1//EN" "http://www.w3.org/Graphics/SVG/1.1/DTD/svg11.dtd">
<svg version="1.1" id="Layer_1" xmlns="http://www.w3.org/2000/svg" xmlns:xlink="http://www.w3.org/1999/xlink" x="0px" y="0px"
	 width="276.988px" height="205.547px" viewBox="0 0 276.988 205.547" enable-background="new 0 0 276.988 205.547"
	 xml:space="preserve">
<rect x="247.8" y="32.627" width="0.48" height="158.76"/>
<text transform="matrix(1 0 0 1 237.5994 6.6475)" enable-background="new    "><tspan x="0" y="0" font-family="'ProductusBook'" font-size="7.98">a Component</tspan><tspan x="0" y="9.576" font-family="'ProductusBook'" font-size="7.98">Configuration</tspan></text>
<rect x="191.1" y="42.047" width="0.479" height="163.5"/>
<rect x="134.4" y="34.967" width="0.479" height="170.58"/>
<rect x="77.7" y="13.727" width="0.48" height="191.82"/>
<text transform="matrix(1 0 0 1 178.6199 6.6475)" enable-background="new    "><tspan x="0" y="0" font-family="'ProductusBook'" font-size="7.98">Log Service Ref.</tspan><tspan x="0" y="9.576" font-family="'ProductusBook'" font-size="7.98">static, 1..1</tspan></text>
<text transform="matrix(1 0 0 1 119.6995 6.6475)" enable-background="new    "><tspan x="0" y="0" font-family="'ProductusBook'" font-size="7.98">Http Service Ref.</tspan><tspan x="0" y="9.576" font-family="'ProductusBook'" font-size="7.98">dynamic, 0..1</tspan></text>
<text transform="matrix(1 0 0 1 72.3596 6.6475)" font-family="'ProductusBook'" font-size="7.98">SCR</text>
<rect x="72.78" y="27.887" width="4.68" height="0.48"/>
<polyline points="73.14,25.367 72.9,25.788 77.34,28.367 77.58,28.367 78,28.127 77.58,27.947 "/>
<polyline points="77.58,28.367 77.34,27.947 72.9,30.527 73.14,30.947 "/>
<rect x="21" y="27.887" width="52.021" height="0.48"/>
<text transform="matrix(1 0 0 1 28.3196 25.7871)" font-family="'ProductusBook'" font-size="7.98">bundle started</text>
<rect x="130.2" y="39.467" width="4.68" height="0.48"/>
<polyline points="130.56,37.007 130.32,37.427 134.76,39.947 135,39.947 135.42,39.708 135,39.527 "/>
<polyline points="135,39.947 134.76,39.527 130.32,42.107 130.56,42.527 "/>
<rect x="78.48" y="39.467" width="51.96" height="0.48"/>
<rect x="187.26" y="47.327" width="4.74" height="0.48"/>
<polyline points="187.62,44.807 187.38,45.227 191.88,47.807 192.12,47.807 192.54,47.567 192.12,47.387 "/>
<polyline points="192.12,47.807 191.88,47.387 187.38,49.967 187.62,50.387 "/>
<rect x="78.84" y="47.327" width="108.66" height="0.48"/>
<text transform="matrix(1 0 0 1 85.4998 37.0078)" font-family="'ProductusBook'" font-size="7.98">resolve</text>
<text transform="matrix(1 0 0 1 85.9197 44.9873)" font-family="'ProductusBook'" font-size="7.98">resolve</text>
<rect x="78.48" y="55.188" width="4.68" height="0.48"/>
<polyline points="82.8,58.127 83.04,57.708 78.6,55.188 78.36,55.188 77.94,55.427 78.36,55.607 "/>
<polyline points="78.36,55.188 78.6,55.607 83.04,53.027 82.8,52.607 "/>
<rect x="82.92" y="55.188" width="51.96" height="0.48"/>
<rect x="78.84" y="63.767" width="4.681" height="0.48"/>
<polyline points="83.16,66.767 83.4,66.347 78.96,63.767 78.72,63.767 78.3,64.007 78.72,64.188 "/>
<polyline points="78.72,63.767 78.96,64.188 83.4,61.607 83.16,61.188 "/>
<rect x="83.28" y="63.767" width="108.66" height="0.48"/>
<text transform="matrix(1 0 0 1 86.28 53.3271)" font-family="'ProductusBook'" font-size="7.98">satisfied</text>
<text transform="matrix(1 0 0 1 85.5002 61.1875)" font-family="'ProductusBook'" font-size="7.98">satisfied</text>
<rect x="242.82" y="70.427" width="4.739" height="0.48"/>
<polyline points="243.24,67.907 243,68.327 247.44,70.907 247.68,70.907 248.1,70.667 247.68,70.487 "/>
<polyline points="247.68,70.907 247.44,70.487 243,73.067 243.24,73.487 "/>
<rect x="77.7" y="70.427" width="165.359" height="0.48"/>
<text transform="matrix(1 0 0 1 85.9197 69.2871)" font-family="'ProductusBook'" font-size="7.98">setHttp(h1)</text>
<rect x="242.82" y="84.587" width="4.739" height="0.48"/>
<polyline points="243.24,82.067 243,82.487 247.44,85.067 247.68,85.067 248.1,84.827 247.68,84.647 "/>
<polyline points="247.68,85.067 247.44,84.647 243,87.227 243.24,87.647 "/>
<rect x="77.7" y="84.587" width="165.359" height="0.48"/>
<text transform="matrix(1 0 0 1 85.9197 83.1475)" font-family="'ProductusBook'" font-size="7.98">activate(context)</text>
<rect x="78.48" y="112.967" width="4.68" height="0.48"/>
<polyline points="82.8,115.907 83.04,115.486 78.6,112.967 78.36,112.967 77.94,113.208 78.36,113.387 "/>
<polyline points="78.36,112.967 78.6,113.387 83.04,110.807 82.8,110.387 "/>
<rect x="134.64" y="112.967" width="0.239" height="0.48"/>
<rect x="82.92" y="112.967" width="51.721" height="0.48"/>
<text transform="matrix(1 0 0 1 85.9197 110.8066)" font-family="'ProductusBook'" font-size="7.98">unregistered</text>
<rect x="242.82" y="120.047" width="4.739" height="0.48"/>
<polyline points="243.24,117.527 243,117.947 247.44,120.527 247.68,120.527 248.1,120.288 247.68,120.107 "/>
<polyline points="247.68,120.527 247.44,120.107 243,122.688 243.24,123.107 "/>
<rect x="77.7" y="120.047" width="165.359" height="0.48"/>
<text transform="matrix(1 0 0 1 85.9197 119.2676)" font-family="'ProductusBook'" font-size="7.98">unsetHttp(h1)</text>
<rect x="78.48" y="91.667" width="4.68" height="0.48"/>
<polyline points="82.8,94.667 83.04,94.248 78.6,91.667 78.36,91.667 78.06,91.847 78.36,92.087 "/>
<polyline points="78.36,91.667 78.6,92.087 83.04,89.567 82.8,89.147 "/>
<rect x="82.92" y="91.667" width="165.36" height="0.48"/>
<text transform="matrix(1 0 0 1 163.0203 91.0078)" font-family="'ProductusBook'" font-size="7.98">locateService(&quot;LOG&quot;)</text>
<rect x="78.48" y="141.288" width="4.68" height="0.479"/>
<polyline points="82.8,144.288 83.04,143.867 78.6,141.288 78.36,141.288 77.94,141.527 78.36,141.708 "/>
<polyline points="78.36,141.288 78.6,141.708 83.04,139.127 82.8,138.708 "/>
<rect x="82.92" y="141.288" width="51.96" height="0.479"/>
<text transform="matrix(1 0 0 1 85.0198 139.1875)" font-family="'ProductusBook'" font-size="7.98">available</text>
<rect x="242.82" y="148.367" width="4.739" height="0.48"/>
<polyline points="243.24,145.848 243,146.268 247.44,148.848 247.68,148.848 248.1,148.607 247.68,148.427 "/>
<polyline points="247.68,148.848 247.44,148.427 243,151.007 243.24,151.427 "/>
<rect x="77.7" y="148.367" width="165.359" height="0.48"/>
<text transform="matrix(1 0 0 1 85.0198 147.707)" font-family="'ProductusBook'" font-size="7.98">setHttp(h2)</text>
<rect x="78.48" y="169.667" width="4.68" height="0.479"/>
<polyline points="82.8,172.607 83.04,172.188 78.6,169.667 78.36,169.667 77.94,169.907 78.36,170.087 "/>
<polyline points="78.36,169.667 78.6,170.087 83.04,167.507 82.8,167.087 "/>
<rect x="82.92" y="169.667" width="108.66" height="0.479"/>
<text transform="matrix(1 0 0 1 85.0198 168.9473)" font-family="'ProductusBook'" font-size="7.98">unregistered</text>
<rect x="242.82" y="176.748" width="4.739" height="0.48"/>
<polyline points="243.24,174.229 243,174.646 247.44,177.229 247.68,177.229 247.98,177.047 247.68,176.807 "/>
<polyline points="247.68,177.229 247.44,176.807 243,179.327 243.24,179.748 "/>
<rect x="77.7" y="176.748" width="165.359" height="0.48"/>
<text transform="matrix(1 0 0 1 85.9197 175.8477)" font-family="'ProductusBook'" font-size="7.98">deactivate(context)</text>
<rect x="242.82" y="183.827" width="4.739" height="0.479"/>
<polyline points="243.24,181.307 243,181.729 247.44,184.307 247.68,184.307 248.1,184.066 247.68,183.887 "/>
<polyline points="247.68,184.307 247.44,183.887 243,186.467 243.24,186.887 "/>
<rect x="77.7" y="183.827" width="165.359" height="0.479"/>
<text transform="matrix(1 0 0 1 85.9197 182.9268)" font-family="'ProductusBook'" font-size="7.98">unsetHttp(h2)</text>
<text transform="matrix(1 0 0 1 0.3 67.248)" font-family="'ProductusBook'" font-size="7.98">1.</text>
<text transform="matrix(1 0 0 1 0.0598 123.9482)" font-family="'ProductusBook'" font-size="7.98">2.</text>
<text transform="matrix(1 0 0 1 0.1199 152.3281)" font-family="'ProductusBook'" font-size="7.98">3.</text>
<text transform="matrix(1 0 0 1 -2.441406e-04 184.1875)" font-family="'ProductusBook'" font-size="7.98">4.</text>
<rect x="244.32" y="32.567" width="4.739" height="0.48"/>
<polyline points="244.74,30.107 244.5,30.527 248.94,33.047 249.18,33.047 249.6,32.807 249.18,32.627 "/>
<polyline points="249.18,33.047 248.94,32.627 244.5,35.208 244.74,35.627 "/>
<rect x="79.2" y="32.567" width="165.359" height="0.48"/>
<rect x="76.44" y="26.627" width="3" height="73.86"/>
<rect x="246.54" y="83.327" width="3" height="17.16"/>
<rect x="76.44" y="111.708" width="3" height="17.16"/>
<rect x="76.44" y="140.027" width="3" height="17.16"/>
<rect x="76.44" y="168.407" width="3" height="24.239"/>
<text transform="matrix(1 0 0 1 85.1394 29.4473)" font-family="'ProductusBook'" font-size="7.98">create</text>
</svg>
