<?xml version="1.0" encoding="utf-8"?>
<!-- Generator: Adobe Illustrator 16.0.0, SVG Export Plug-In . SVG Version: 6.00 Build 0)  -->
<!DOCTYPE svg PUBLIC "-//W3C//DTD SVG 1.1//EN" "http://www.w3.org/Graphics/SVG/1.1/DTD/svg11.dtd">
<svg version="1.1" id="Layer_1" xmlns="http://www.w3.org/2000/svg" xmlns:xlink="http://www.w3.org/1999/xlink" x="0px" y="0px"
	 width="276.988px" height="205.547px" viewBox="0 0 276.988 205.547" style="enable-background:new 0 0 276.988 205.547;"
	 xml:space="preserve">
<rect x="247.8" y="32.627" width="0.48" height="158.76"/>
<text transform="matrix(1 0 0 1 237.5996 6.6475)"><tspan x="0" y="0" style="font-family:'ProductusBook'; font-size:7.98;">a</tspan><tspan x="3.296" y="0" style="font-family:'ProductusBook'; font-size:7.98;"> </tspan><tspan x="4.907" y="0" style="font-family:'ProductusBook'; font-size:7.98;">C</tspan><tspan x="9.049" y="0" style="font-family:'ProductusBook'; font-size:7.98;">o</tspan><tspan x="12.888" y="0" style="font-family:'ProductusBook'; font-size:7.98;">mp</tspan><tspan x="22.304" y="0" style="font-family:'ProductusBook'; font-size:7.98;">o</tspan><tspan x="26.143" y="0" style="font-family:'ProductusBook'; font-size:7.98;">ne</tspan><tspan x="33.292" y="0" style="font-family:'ProductusBook'; font-size:7.98;">n</tspan><tspan x="37.011" y="0" style="font-family:'ProductusBook'; font-size:7.98;">t</tspan></text>
<rect x="191.1" y="42.047" width="0.48" height="163.5"/>
<rect x="134.4" y="34.967" width="0.479" height="170.58"/>
<rect x="77.7" y="13.727" width="0.48" height="191.82"/>
<text transform="matrix(1 0 0 1 178.6201 6.6475)"><tspan x="0" y="0" style="font-family:'ProductusBook'; font-size:7.98;">L</tspan><tspan x="2.825" y="0" style="font-family:'ProductusBook'; font-size:7.98;">o</tspan><tspan x="6.663" y="0" style="font-family:'ProductusBook'; font-size:7.98;">g</tspan><tspan x="10.143" y="0" style="font-family:'ProductusBook'; font-size:7.98;"> </tspan><tspan x="11.706" y="0" style="font-family:'ProductusBook'; font-size:7.98;">S</tspan><tspan x="15.425" y="0" style="font-family:'ProductusBook'; font-size:7.98;">e</tspan><tspan x="18.96" y="0" style="font-family:'ProductusBook'; font-size:7.98;">r</tspan><tspan x="21.234" y="0" style="font-family:'ProductusBook'; font-size:7.98;">v</tspan><tspan x="24.418" y="0" style="font-family:'ProductusBook'; font-size:7.98;">i</tspan><tspan x="25.982" y="0" style="font-family:'ProductusBook'; font-size:7.98;">c</tspan><tspan x="29.047" y="0" style="font-family:'ProductusBook'; font-size:7.98;">e</tspan><tspan x="32.534" y="0" style="font-family:'ProductusBook'; font-size:7.98;"> </tspan><tspan x="34.146" y="0" style="font-family:'ProductusBook'; font-size:7.98;">R</tspan><tspan x="37.506" y="0" style="font-family:'ProductusBook'; font-size:7.98;">e</tspan><tspan x="41.04" y="0" style="font-family:'ProductusBook'; font-size:7.98;">f</tspan><tspan x="43.027" y="0" style="font-family:'ProductusBook'; font-size:7.98;">.</tspan></text>
<text transform="matrix(1 0 0 1 119.6997 6.6475)"><tspan x="0" y="0" style="font-family:'ProductusBook'; font-size:7.98;">Ht</tspan><tspan x="7.23" y="0" style="font-family:'ProductusBook'; font-size:7.98;">t</tspan><tspan x="9.576" y="0" style="font-family:'ProductusBook'; font-size:7.98;">p </tspan><tspan x="14.915" y="0" style="font-family:'ProductusBook'; font-size:7.98;">S</tspan><tspan x="18.577" y="0" style="font-family:'ProductusBook'; font-size:7.98;">e</tspan><tspan x="22.112" y="0" style="font-family:'ProductusBook'; font-size:7.98;">rvi</tspan><tspan x="29.159" y="0" style="font-family:'ProductusBook'; font-size:7.98;">c</tspan><tspan x="32.159" y="0" style="font-family:'ProductusBook'; font-size:7.98;">e</tspan><tspan x="35.662" y="0" style="font-family:'ProductusBook'; font-size:7.98;"> </tspan><tspan x="37.274" y="0" style="font-family:'ProductusBook'; font-size:7.98;">R</tspan><tspan x="40.697" y="0" style="font-family:'ProductusBook'; font-size:7.98;">e</tspan><tspan x="44.184" y="0" style="font-family:'ProductusBook'; font-size:7.98;">f</tspan><tspan x="46.171" y="0" style="font-family:'ProductusBook'; font-size:7.98;">.</tspan></text>
<text transform="matrix(1 0 0 1 72.3599 6.6475)"><tspan x="0" y="0" style="font-family:'ProductusBook'; font-size:7.98;">S</tspan><tspan x="3.663" y="0" style="font-family:'ProductusBook'; font-size:7.98;">C</tspan><tspan x="8.1" y="0" style="font-family:'ProductusBook'; font-size:7.98;">R</tspan></text>
<rect x="72.78" y="27.887" width="4.68" height="0.48"/>
<polyline points="73.14,25.367 72.9,25.788 77.34,28.367 77.58,28.367 78,28.127 77.58,27.947 "/>
<polyline points="77.58,28.367 77.34,27.947 72.9,30.527 73.14,30.947 "/>
<rect x="21" y="27.887" width="52.02" height="0.48"/>
<text transform="matrix(1 0 0 1 28.3198 25.7876)"><tspan x="0" y="0" style="font-family:'ProductusBook'; font-size:7.98;">bundl</tspan><tspan x="16.359" y="0" style="font-family:'ProductusBook'; font-size:7.98;">e</tspan><tspan x="19.846" y="0" style="font-family:'ProductusBook'; font-size:7.98;"> </tspan><tspan x="21.466" y="0" style="font-family:'ProductusBook'; font-size:7.98;">star</tspan><tspan x="32.271" y="0" style="font-family:'ProductusBook'; font-size:7.98;">t</tspan><tspan x="34.617" y="0" style="font-family:'ProductusBook'; font-size:7.98;">e</tspan><tspan x="38.152" y="0" style="font-family:'ProductusBook'; font-size:7.98;">d</tspan></text>
<rect x="130.2" y="39.467" width="4.68" height="0.48"/>
<polyline points="130.56,37.007 130.32,37.427 134.76,39.947 135,39.947 135.42,39.708 135,39.527 "/>
<polyline points="135,39.947 134.76,39.527 130.32,42.107 130.56,42.527 "/>
<rect x="78.48" y="39.467" width="51.96" height="0.48"/>
<rect x="187.26" y="47.327" width="4.74" height="0.48"/>
<polyline points="187.62,44.807 187.38,45.227 191.88,47.807 192.12,47.807 192.54,47.567 192.12,47.387 "/>
<polyline points="192.12,47.807 191.88,47.387 187.38,49.967 187.62,50.387 "/>
<rect x="78.84" y="47.327" width="108.66" height="0.48"/>
<text transform="matrix(1 0 0 1 85.5 37.0073)"><tspan x="0" y="0" style="font-family:'ProductusBook'; font-size:7.98;">re</tspan><tspan x="5.77" y="0" style="font-family:'ProductusBook'; font-size:7.98;">s</tspan><tspan x="8.642" y="0" style="font-family:'ProductusBook'; font-size:7.98;">ol</tspan><tspan x="13.989" y="0" style="font-family:'ProductusBook'; font-size:7.98;">v</tspan><tspan x="17.109" y="0" style="font-family:'ProductusBook'; font-size:7.98;">e</tspan></text>
<text transform="matrix(1 0 0 1 85.9199 44.9873)"><tspan x="0" y="0" style="font-family:'ProductusBook'; font-size:7.98;">resol</tspan><tspan x="13.933" y="0" style="font-family:'ProductusBook'; font-size:7.98;">v</tspan><tspan x="17.061" y="0" style="font-family:'ProductusBook'; font-size:7.98;">e</tspan></text>
<rect x="78.48" y="55.188" width="4.68" height="0.48"/>
<polyline points="82.8,58.127 83.04,57.708 78.6,55.188 78.36,55.188 77.94,55.427 78.36,55.607 "/>
<polyline points="78.36,55.188 78.6,55.607 83.04,53.027 82.8,52.607 "/>
<rect x="82.92" y="55.188" width="51.96" height="0.48"/>
<rect x="78.84" y="63.767" width="4.68" height="0.48"/>
<polyline points="83.16,66.767 83.4,66.347 78.96,63.767 78.72,63.767 78.3,64.007 78.72,64.188 "/>
<polyline points="78.72,63.767 78.96,64.188 83.4,61.607 83.16,61.188 "/>
<rect x="83.28" y="63.767" width="108.66" height="0.48"/>
<text transform="matrix(1 0 0 1 86.2803 53.3271)"><tspan x="0" y="0" style="font-family:'ProductusBook'; font-size:7.98;">satis</tspan><tspan x="12.888" y="0" style="font-family:'ProductusBook'; font-size:7.98;">f</tspan><tspan x="14.811" y="0" style="font-family:'ProductusBook'; font-size:7.98;">ied</tspan></text>
<text transform="matrix(1 0 0 1 85.5005 61.1875)"><tspan x="0" y="0" style="font-family:'ProductusBook'; font-size:7.98;">satis</tspan><tspan x="12.888" y="0" style="font-family:'ProductusBook'; font-size:7.98;">f</tspan><tspan x="14.811" y="0" style="font-family:'ProductusBook'; font-size:7.98;">ied</tspan></text>
<rect x="242.82" y="70.427" width="4.739" height="0.48"/>
<polyline points="243.24,67.907 243,68.327 247.44,70.907 247.68,70.907 248.1,70.667 247.68,70.487 "/>
<polyline points="247.68,70.907 247.44,70.487 243,73.067 243.24,73.487 "/>
<rect x="77.7" y="70.427" width="165.359" height="0.48"/>
<text transform="matrix(1 0 0 1 85.9199 69.2876)"><tspan x="0" y="0" style="font-family:'ProductusBook'; font-size:7.98;">setH</tspan><tspan x="13.582" y="0" style="font-family:'ProductusBook'; font-size:7.98;">t</tspan><tspan x="15.928" y="0" style="font-family:'ProductusBook'; font-size:7.98;">t</tspan><tspan x="18.322" y="0" style="font-family:'ProductusBook'; font-size:7.98;">p(h1</tspan><tspan x="31.217" y="0" style="font-family:'ProductusBook'; font-size:7.98;">)</tspan></text>
<rect x="242.82" y="84.587" width="4.739" height="0.48"/>
<polyline points="243.24,82.067 243,82.487 247.44,85.067 247.68,85.067 248.1,84.827 247.68,84.647 "/>
<polyline points="247.68,85.067 247.44,84.647 243,87.227 243.24,87.647 "/>
<rect x="77.7" y="84.587" width="165.359" height="0.48"/>
<text transform="matrix(1 0 0 1 85.9199 83.1475)"><tspan x="0" y="0" style="font-family:'ProductusBook'; font-size:7.98;">a</tspan><tspan x="3.328" y="0" style="font-family:'ProductusBook'; font-size:7.98;">c</tspan><tspan x="6.392" y="0" style="font-family:'ProductusBook'; font-size:7.98;">tivat</tspan><tspan x="19.319" y="0" style="font-family:'ProductusBook'; font-size:7.98;">e</tspan><tspan x="22.806" y="0" style="font-family:'ProductusBook'; font-size:7.98;">(</tspan><tspan x="24.913" y="0" style="font-family:'ProductusBook'; font-size:7.98;">c</tspan><tspan x="27.978" y="0" style="font-family:'ProductusBook'; font-size:7.98;">o</tspan><tspan x="31.776" y="0" style="font-family:'ProductusBook'; font-size:7.98;">n</tspan><tspan x="35.438" y="0" style="font-family:'ProductusBook'; font-size:7.98;">t</tspan><tspan x="37.833" y="0" style="font-family:'ProductusBook'; font-size:7.98;">e</tspan><tspan x="41.319" y="0" style="font-family:'ProductusBook'; font-size:7.98;">x</tspan><tspan x="44.368" y="0" style="font-family:'ProductusBook'; font-size:7.98;">t</tspan><tspan x="46.65" y="0" style="font-family:'ProductusBook'; font-size:7.98;">)</tspan></text>
<rect x="78.48" y="112.967" width="4.68" height="0.48"/>
<polyline points="82.8,115.907 83.04,115.487 78.6,112.967 78.36,112.967 77.94,113.208 78.36,113.387 "/>
<polyline points="78.36,112.967 78.6,113.387 83.04,110.807 82.8,110.387 "/>
<rect x="134.64" y="112.967" width="0.24" height="0.48"/>
<rect x="82.92" y="112.967" width="51.72" height="0.48"/>
<text transform="matrix(1 0 0 1 85.9199 110.8071)"><tspan x="0" y="0" style="font-family:'ProductusBook'; font-size:7.98;">u</tspan><tspan x="3.719" y="0" style="font-family:'ProductusBook'; font-size:7.98;">n</tspan><tspan x="7.381" y="0" style="font-family:'ProductusBook'; font-size:7.98;">r</tspan><tspan x="9.648" y="0" style="font-family:'ProductusBook'; font-size:7.98;">e</tspan><tspan x="13.183" y="0" style="font-family:'ProductusBook'; font-size:7.98;">gis</tspan><tspan x="21.043" y="0" style="font-family:'ProductusBook'; font-size:7.98;">t</tspan><tspan x="23.437" y="0" style="font-family:'ProductusBook'; font-size:7.98;">ered</tspan></text>
<text transform="matrix(1 0 0 1 119.7002 16.4272)"><tspan x="0" y="0" style="font-family:'ProductusBook'; font-size:7.98;">d</tspan><tspan x="3.71" y="0" style="font-family:'ProductusBook'; font-size:7.98;">y</tspan><tspan x="6.895" y="0" style="font-family:'ProductusBook'; font-size:7.98;">namic</tspan><tspan x="24.371" y="0" style="font-family:'ProductusBook'; font-size:7.98;">,</tspan><tspan x="25.935" y="0" style="font-family:'ProductusBook'; font-size:7.98;"> 0..</tspan><tspan x="34.696" y="0" style="font-family:'ProductusBook'; font-size:7.98; letter-spacing:21;">1</tspan><tspan x="58.932" y="0" style="font-family:'ProductusBook'; font-size:7.98;">static,</tspan><tspan x="76.176" y="0" style="font-family:'ProductusBook'; font-size:7.98;"> </tspan><tspan x="77.74" y="0" style="font-family:'ProductusBook'; font-size:7.98;">1</tspan><tspan x="80.908" y="0" style="font-family:'ProductusBook'; font-size:7.98;">.</tspan><tspan x="82.472" y="0" style="font-family:'ProductusBook'; font-size:7.98;">.</tspan><tspan x="84.084" y="0" style="font-family:'ProductusBook'; font-size:7.98;">1</tspan></text>
<rect x="242.82" y="120.047" width="4.739" height="0.48"/>
<polyline points="243.24,117.527 243,117.947 247.44,120.527 247.68,120.527 248.1,120.288 247.68,120.107 "/>
<polyline points="247.68,120.527 247.44,120.107 243,122.688 243.24,123.107 "/>
<rect x="77.7" y="120.047" width="165.359" height="0.48"/>
<text transform="matrix(1 0 0 1 85.9199 119.2671)"><tspan x="0" y="0" style="font-family:'ProductusBook'; font-size:7.98;">u</tspan><tspan x="3.695" y="0" style="font-family:'ProductusBook'; font-size:7.98;">n</tspan><tspan x="7.357" y="0" style="font-family:'ProductusBook'; font-size:7.98;">setH</tspan><tspan x="20.971" y="0" style="font-family:'ProductusBook'; font-size:7.98;">t</tspan><tspan x="23.317" y="0" style="font-family:'ProductusBook'; font-size:7.98;">tp(</tspan><tspan x="31.776" y="0" style="font-family:'ProductusBook'; font-size:7.98;">h</tspan><tspan x="35.438" y="0" style="font-family:'ProductusBook'; font-size:7.98;">1</tspan><tspan x="38.615" y="0" style="font-family:'ProductusBook'; font-size:7.98;">)</tspan></text>
<rect x="78.48" y="91.667" width="4.68" height="0.48"/>
<polyline points="82.8,94.667 83.04,94.248 78.6,91.667 78.36,91.667 78.06,91.847 78.36,92.087 "/>
<polyline points="78.36,91.667 78.6,92.087 83.04,89.567 82.8,89.147 "/>
<rect x="82.92" y="91.667" width="165.36" height="0.48"/>
<text transform="matrix(1 0 0 1 163.0205 91.0073)"><tspan x="0" y="0" style="font-family:'ProductusBook'; font-size:7.98;">l</tspan><tspan x="1.556" y="0" style="font-family:'ProductusBook'; font-size:7.98;">o</tspan><tspan x="5.395" y="0" style="font-family:'ProductusBook'; font-size:7.98;">c</tspan><tspan x="8.475" y="0" style="font-family:'ProductusBook'; font-size:7.98;">a</tspan><tspan x="11.834" y="0" style="font-family:'ProductusBook'; font-size:7.98;">t</tspan><tspan x="14.204" y="0" style="font-family:'ProductusBook'; font-size:7.98;">e</tspan><tspan x="17.739" y="0" style="font-family:'ProductusBook'; font-size:7.98;">Servi</tspan><tspan x="31.951" y="0" style="font-family:'ProductusBook'; font-size:7.98;">c</tspan><tspan x="34.952" y="0" style="font-family:'ProductusBook'; font-size:7.98;">e</tspan><tspan x="38.447" y="0" style="font-family:'ProductusBook'; font-size:7.98;">(</tspan><tspan x="40.841" y="0" style="font-family:'ProductusBook'; font-size:7.98;">&quot;</tspan><tspan x="43.115" y="0" style="font-family:'ProductusBook'; font-size:7.98;">L</tspan><tspan x="45.94" y="0" style="font-family:'ProductusBook'; font-size:7.98;">O</tspan><tspan x="51.23" y="0" style="font-family:'ProductusBook'; font-size:7.98;">G</tspan><tspan x="55.795" y="0" style="font-family:'ProductusBook'; font-size:7.98;">&quot;</tspan><tspan x="58.069" y="0" style="font-family:'ProductusBook'; font-size:7.98;">)</tspan></text>
<rect x="78.48" y="141.288" width="4.68" height="0.479"/>
<polyline points="82.8,144.288 83.04,143.867 78.6,141.288 78.36,141.288 77.94,141.527 78.36,141.708 "/>
<polyline points="78.36,141.288 78.6,141.708 83.04,139.127 82.8,138.708 "/>
<rect x="82.92" y="141.288" width="51.96" height="0.479"/>
<text transform="matrix(1 0 0 1 85.02 139.187)"><tspan x="0" y="0" style="font-family:'ProductusBook'; font-size:7.98;">ava</tspan><tspan x="9.839" y="0" style="font-family:'ProductusBook'; font-size:7.98;">i</tspan><tspan x="11.459" y="0" style="font-family:'ProductusBook'; font-size:7.98;">lable</tspan></text>
<rect x="242.82" y="148.367" width="4.739" height="0.48"/>
<polyline points="243.24,145.847 243,146.267 247.44,148.847 247.68,148.847 248.1,148.607 247.68,148.427 "/>
<polyline points="247.68,148.847 247.44,148.427 243,151.007 243.24,151.427 "/>
<rect x="77.7" y="148.367" width="165.359" height="0.48"/>
<text transform="matrix(1 0 0 1 85.02 147.7075)"><tspan x="0" y="0" style="font-family:'ProductusBook'; font-size:7.98;">se</tspan><tspan x="6.384" y="0" style="font-family:'ProductusBook'; font-size:7.98;">t</tspan><tspan x="8.73" y="0" style="font-family:'ProductusBook'; font-size:7.98;">H</tspan><tspan x="13.59" y="0" style="font-family:'ProductusBook'; font-size:7.98;">tt</tspan><tspan x="18.409" y="0" style="font-family:'ProductusBook'; font-size:7.98;">p</tspan><tspan x="22.072" y="0" style="font-family:'ProductusBook'; font-size:7.98;">(</tspan><tspan x="24.442" y="0" style="font-family:'ProductusBook'; font-size:7.98;">h2</tspan><tspan x="31.712" y="0" style="font-family:'ProductusBook'; font-size:7.98;">)</tspan></text>
<rect x="78.48" y="169.667" width="4.68" height="0.48"/>
<polyline points="82.8,172.607 83.04,172.188 78.6,169.667 78.36,169.667 77.94,169.907 78.36,170.087 "/>
<polyline points="78.36,169.667 78.6,170.087 83.04,167.507 82.8,167.087 "/>
<rect x="82.92" y="169.667" width="108.66" height="0.48"/>
<text transform="matrix(1 0 0 1 85.02 168.9473)"><tspan x="0" y="0" style="font-family:'ProductusBook'; font-size:7.98;">u</tspan><tspan x="3.695" y="0" style="font-family:'ProductusBook'; font-size:7.98;">n</tspan><tspan x="7.357" y="0" style="font-family:'ProductusBook'; font-size:7.98;">r</tspan><tspan x="9.64" y="0" style="font-family:'ProductusBook'; font-size:7.98;">e</tspan><tspan x="13.127" y="0" style="font-family:'ProductusBook'; font-size:7.98;">g</tspan><tspan x="16.606" y="0" style="font-family:'ProductusBook'; font-size:7.98;">i</tspan><tspan x="18.218" y="0" style="font-family:'ProductusBook'; font-size:7.98;">s</tspan><tspan x="21.051" y="0" style="font-family:'ProductusBook'; font-size:7.98;">t</tspan><tspan x="23.397" y="0" style="font-family:'ProductusBook'; font-size:7.98;">er</tspan><tspan x="29.198" y="0" style="font-family:'ProductusBook'; font-size:7.98;">e</tspan><tspan x="32.686" y="0" style="font-family:'ProductusBook'; font-size:7.98;">d</tspan></text>
<rect x="242.82" y="176.748" width="4.739" height="0.48"/>
<polyline points="243.24,174.228 243,174.647 247.44,177.228 247.68,177.228 247.98,177.047 247.68,176.807 "/>
<polyline points="247.68,177.228 247.44,176.807 243,179.327 243.24,179.748 "/>
<rect x="77.7" y="176.748" width="165.359" height="0.48"/>
<text transform="matrix(1 0 0 1 85.9199 175.8472)"><tspan x="0" y="0" style="font-family:'ProductusBook'; font-size:7.98;">dea</tspan><tspan x="10.534" y="0" style="font-family:'ProductusBook'; font-size:7.98;">c</tspan><tspan x="13.598" y="0" style="font-family:'ProductusBook'; font-size:7.98;">tivate</tspan><tspan x="29.996" y="0" style="font-family:'ProductusBook'; font-size:7.98;">(</tspan><tspan x="32.103" y="0" style="font-family:'ProductusBook'; font-size:7.98;">c</tspan><tspan x="35.104" y="0" style="font-family:'ProductusBook'; font-size:7.98;">o</tspan><tspan x="38.894" y="0" style="font-family:'ProductusBook'; font-size:7.98;">n</tspan><tspan x="42.557" y="0" style="font-family:'ProductusBook'; font-size:7.98;">te</tspan><tspan x="48.454" y="0" style="font-family:'ProductusBook'; font-size:7.98;">xt</tspan><tspan x="53.8" y="0" style="font-family:'ProductusBook'; font-size:7.98;">)</tspan></text>
<rect x="242.82" y="183.827" width="4.739" height="0.48"/>
<polyline points="243.24,181.307 243,181.728 247.44,184.307 247.68,184.307 248.1,184.067 247.68,183.887 "/>
<polyline points="247.68,184.307 247.44,183.887 243,186.467 243.24,186.887 "/>
<rect x="77.7" y="183.827" width="165.359" height="0.48"/>
<text transform="matrix(1 0 0 1 85.9199 182.9272)"><tspan x="0" y="0" style="font-family:'ProductusBook'; font-size:7.98;">u</tspan><tspan x="3.695" y="0" style="font-family:'ProductusBook'; font-size:7.98;">n</tspan><tspan x="7.357" y="0" style="font-family:'ProductusBook'; font-size:7.98;">setH</tspan><tspan x="20.971" y="0" style="font-family:'ProductusBook'; font-size:7.98;">t</tspan><tspan x="23.317" y="0" style="font-family:'ProductusBook'; font-size:7.98;">tp(</tspan><tspan x="31.776" y="0" style="font-family:'ProductusBook'; font-size:7.98;">h</tspan><tspan x="35.438" y="0" style="font-family:'ProductusBook'; font-size:7.98;">2</tspan><tspan x="39.093" y="0" style="font-family:'ProductusBook'; font-size:7.98;">)</tspan></text>
<text transform="matrix(1 0 0 1 0.3003 67.2476)"><tspan x="0" y="0" style="font-family:'ProductusBook'; font-size:7.98;">1</tspan><tspan x="3.128" y="0" style="font-family:'ProductusBook'; font-size:7.98;">.</tspan></text>
<text transform="matrix(1 0 0 1 0.0601 123.9478)"><tspan x="0" y="0" style="font-family:'ProductusBook'; font-size:7.98;">2</tspan><tspan x="3.607" y="0" style="font-family:'ProductusBook'; font-size:7.98;">.</tspan></text>
<text transform="matrix(1 0 0 1 0.1201 152.3281)" style="font-family:'ProductusBook'; font-size:7.98;">3.</text>
<text transform="matrix(1 0 0 1 0 184.188)"><tspan x="0" y="0" style="font-family:'ProductusBook'; font-size:7.98;">4</tspan><tspan x="3.727" y="0" style="font-family:'ProductusBook'; font-size:7.98;">.</tspan></text>
<rect x="244.32" y="32.567" width="4.739" height="0.48"/>
<polyline points="244.74,30.107 244.5,30.527 248.94,33.047 249.18,33.047 249.6,32.807 249.18,32.627 "/>
<polyline points="249.18,33.047 248.94,32.627 244.5,35.208 244.74,35.627 "/>
<rect x="79.2" y="32.567" width="165.359" height="0.48"/>
<rect x="76.44" y="26.627" width="3" height="73.86"/>
<rect x="246.54" y="83.327" width="3" height="17.16"/>
<rect x="76.44" y="111.708" width="3" height="17.16"/>
<rect x="76.44" y="140.027" width="3" height="17.16"/>
<rect x="76.44" y="168.407" width="3" height="24.24"/>
<text transform="matrix(1 0 0 1 237.5996 16.4272)"><tspan x="0" y="0" style="font-family:'ProductusBook'; font-size:7.98;">C</tspan><tspan x="4.142" y="0" style="font-family:'ProductusBook'; font-size:7.98;">o</tspan><tspan x="7.979" y="0" style="font-family:'ProductusBook'; font-size:7.98;">n</tspan><tspan x="11.658" y="0" style="font-family:'ProductusBook'; font-size:7.98;">f</tspan><tspan x="13.582" y="0" style="font-family:'ProductusBook'; font-size:7.98;">ig</tspan><tspan x="18.625" y="0" style="font-family:'ProductusBook'; font-size:7.98;">u</tspan><tspan x="22.344" y="0" style="font-family:'ProductusBook'; font-size:7.98;">r</tspan><tspan x="24.618" y="0" style="font-family:'ProductusBook'; font-size:7.98;">ation</tspan></text>
<text transform="matrix(1 0 0 1 85.1396 29.4473)"><tspan x="0" y="0" style="font-family:'ProductusBook'; font-size:7.98;">c</tspan><tspan x="3.064" y="0" style="font-family:'ProductusBook'; font-size:7.98;">r</tspan><tspan x="5.338" y="0" style="font-family:'ProductusBook'; font-size:7.98;">e</tspan><tspan x="8.874" y="0" style="font-family:'ProductusBook'; font-size:7.98;">a</tspan><tspan x="12.177" y="0" style="font-family:'ProductusBook'; font-size:7.98;">t</tspan><tspan x="14.571" y="0" style="font-family:'ProductusBook'; font-size:7.98;">e</tspan></text>
</svg>
