<?xml version="1.0" encoding="utf-8"?>
<!-- Generator: Adobe Illustrator 16.0.0, SVG Export Plug-In . SVG Version: 6.00 Build 0)  -->
<!DOCTYPE svg PUBLIC "-//W3C//DTD SVG 1.1//EN" "http://www.w3.org/Graphics/SVG/1.1/DTD/svg11.dtd">
<svg version="1.1" id="Layer_1" xmlns="http://www.w3.org/2000/svg" xmlns:xlink="http://www.w3.org/1999/xlink" x="0px" y="0px"
	 width="318.96px" height="191.34px" viewBox="0 0 318.96 191.34" style="enable-background:new 0 0 318.96 191.34;"
	 xml:space="preserve">
<rect y="148.14" style="fill:#E6E6E6;" width="239.04" height="43.2"/>
<rect x="48.78" y="0.42" style="fill:#E6E6E6;" width="128.399" height="43.199"/>
<rect x="84.84" y="28.079" width="0.48" height="4.261"/>
<rect x="84.84" y="38.399" width="0.48" height="8.101"/>
<rect x="84.84" y="52.619" width="0.48" height="8.101"/>
<rect x="84.84" y="66.779" width="0.48" height="8.101"/>
<rect x="84.84" y="81" width="0.48" height="8.039"/>
<rect x="84.84" y="95.159" width="0.48" height="8.101"/>
<rect x="84.84" y="109.319" width="0.48" height="8.101"/>
<rect x="84.84" y="123.539" width="0.48" height="8.04"/>
<rect x="84.84" y="137.699" width="0.48" height="8.101"/>
<rect x="84.84" y="151.92" width="0.48" height="8.04"/>
<rect x="84.84" y="166.079" width="0.48" height="4.261"/>
<rect x="248.04" style="fill:#E6E6E6;" width="70.92" height="43.199"/>
<rect x="115.8" y="8.88" width="54.299" height="27"/>
<rect x="115.8" y="8.64" width="54.54" height="0.479"/>
<rect x="169.86" y="8.88" width="0.479" height="27.239"/>
<rect x="115.56" y="35.64" width="54.54" height="0.479"/>
<rect x="115.56" y="8.64" width="0.48" height="27.24"/>
<rect x="113.4" y="7.079" style="fill:#FFFFFF;" width="54.36" height="27"/>
<rect x="113.4" y="6.84" width="54.6" height="0.479"/>
<rect x="167.52" y="7.079" width="0.48" height="27.24"/>
<rect x="113.16" y="33.84" width="54.6" height="0.479"/>
<rect x="113.16" y="6.84" width="0.48" height="27.239"/>
<text transform="matrix(1 0 0 1.0522 115.8003 14.2197)"><tspan x="0" y="0" style="font-family:'ProductusOSGiBookc'; font-size:7.5841;">a</tspan><tspan x="3.117" y="0" style="font-family:'ProductusOSGiBookc'; font-size:7.5841;"> </tspan><tspan x="4.672" y="0" style="font-family:'ProductusOSGiBookc'; font-size:7.5841;">C</tspan><tspan x="8.578" y="0" style="font-family:'ProductusOSGiBookc'; font-size:7.5841;">o</tspan><tspan x="12.172" y="0" style="font-family:'ProductusOSGiBookc'; font-size:7.5841;">mponent </tspan></text>
<text transform="matrix(1 0 0 1.0522 115.8003 22.6797)"><tspan x="0" y="0" style="font-family:'ProductusOSGiBookc'; font-size:7.5841;">I</tspan><tspan x="1.479" y="0" style="font-family:'ProductusOSGiBookc'; font-size:7.5841;">m</tspan><tspan x="6.878" y="0" style="font-family:'ProductusOSGiBookc'; font-size:7.5841;">p</tspan><tspan x="10.367" y="0" style="font-family:'ProductusOSGiBookc'; font-size:7.5841;">l</tspan></text>
<rect x="257.521" y="8.819" width="54.3" height="26.58"/>
<rect x="257.521" y="8.579" width="54.54" height="0.48"/>
<rect x="311.58" y="8.819" width="0.48" height="26.82"/>
<rect x="257.28" y="35.159" width="54.54" height="0.48"/>
<rect x="257.28" y="8.579" width="0.479" height="26.82"/>
<rect x="255.12" y="7.079" style="fill:#FFFFFF;" width="54.36" height="26.58"/>
<rect x="255.12" y="6.84" width="54.6" height="0.479"/>
<rect x="309.24" y="7.079" width="0.479" height="26.82"/>
<rect x="254.88" y="33.42" width="54.601" height="0.479"/>
<rect x="254.88" y="6.84" width="0.48" height="26.819"/>
<text transform="matrix(1 0 0 1.0522 257.5205 14.1592)"><tspan x="0" y="0" style="font-family:'ProductusOSGiBookc'; font-size:7.5841;">a</tspan><tspan x="3.117" y="0" style="font-family:'ProductusOSGiBookc'; font-size:7.5841;"> </tspan><tspan x="4.618" y="0" style="font-family:'ProductusOSGiBookc'; font-size:7.5841;">Servi</tspan><tspan x="17.974" y="0" style="font-family:'ProductusOSGiBookc'; font-size:7.5841;">c</tspan><tspan x="20.909" y="0" style="font-family:'ProductusOSGiBookc'; font-size:7.5841;">e</tspan><tspan x="24.208" y="0" style="font-family:'ProductusOSGiBookc'; font-size:7.5841;"> </tspan><tspan x="25.71" y="0" style="font-family:'ProductusOSGiBookc'; font-size:7.5841;">I</tspan><tspan x="27.203" y="0" style="font-family:'ProductusOSGiBookc'; font-size:7.5841;">m</tspan><tspan x="32.656" y="0" style="font-family:'ProductusOSGiBookc'; font-size:7.5841;">pl</tspan></text>
<rect x="9.48" y="157.26" width="54.3" height="27"/>
<rect x="9.48" y="157.02" width="54.54" height="0.48"/>
<rect x="63.54" y="157.26" width="0.48" height="27.24"/>
<rect x="9.24" y="184.02" width="54.54" height="0.48"/>
<rect x="9.24" y="157.02" width="0.48" height="27.24"/>
<rect x="7.08" y="155.46" style="fill:#FFFFFF;" width="54.36" height="27"/>
<rect x="7.08" y="155.22" width="54.6" height="0.479"/>
<rect x="61.2" y="155.46" width="0.48" height="27.239"/>
<rect x="6.84" y="182.22" width="54.6" height="0.479"/>
<rect x="6.84" y="155.22" width="0.48" height="27.24"/>
<text transform="matrix(1 0 0 1.0522 9.48 162.5996)"><tspan x="0" y="0" style="font-family:'ProductusOSGiBookc'; font-size:7.5841;">Servi</tspan><tspan x="13.355" y="0" style="font-family:'ProductusOSGiBookc'; font-size:7.5841;">c</tspan><tspan x="16.291" y="0" style="font-family:'ProductusOSGiBookc'; font-size:7.5841;">e </tspan></text>
<text transform="matrix(1 0 0 1.0522 9.48 171.0596)"><tspan x="0" y="0" style="font-family:'ProductusOSGiBookc'; font-size:7.5841;">C</tspan><tspan x="3.906" y="0" style="font-family:'ProductusOSGiBookc'; font-size:7.5841;">o</tspan><tspan x="7.5" y="0" style="font-family:'ProductusOSGiBookc'; font-size:7.5841;">m</tspan><tspan x="12.954" y="0" style="font-family:'ProductusOSGiBookc'; font-size:7.5841;">p</tspan><tspan x="16.435" y="0" style="font-family:'ProductusOSGiBookc'; font-size:7.5841;">o</tspan><tspan x="19.976" y="0" style="font-family:'ProductusOSGiBookc'; font-size:7.5841;">n</tspan><tspan x="23.45" y="0" style="font-family:'ProductusOSGiBookc'; font-size:7.5841;">e</tspan><tspan x="26.749" y="0" style="font-family:'ProductusOSGiBookc'; font-size:7.5841;">n</tspan><tspan x="30.222" y="0" style="font-family:'ProductusOSGiBookc'; font-size:7.5841;">t </tspan></text>
<text transform="matrix(1 0 0 1.0522 9.48 179.5801)"><tspan x="0" y="0" style="font-family:'ProductusOSGiBookc'; font-size:7.5841;">Ru</tspan><tspan x="6.863" y="0" style="font-family:'ProductusOSGiBookc'; font-size:7.5841;">n</tspan><tspan x="10.284" y="0" style="font-family:'ProductusOSGiBookc'; font-size:7.5841;">t</tspan><tspan x="12.498" y="0" style="font-family:'ProductusOSGiBookc'; font-size:7.5841;">i</tspan><tspan x="13.977" y="0" style="font-family:'ProductusOSGiBookc'; font-size:7.5841;">m</tspan><tspan x="19.384" y="0" style="font-family:'ProductusOSGiBookc'; font-size:7.5841;">e</tspan></text>
<rect x="257.521" y="79.319" width="54.3" height="27"/>
<rect x="257.521" y="79.079" width="54.54" height="0.48"/>
<rect x="311.58" y="79.319" width="0.48" height="27.24"/>
<rect x="257.28" y="106.079" width="54.54" height="0.48"/>
<rect x="257.28" y="79.079" width="0.479" height="27.24"/>
<rect x="255.12" y="77.52" style="fill:#FFFFFF;" width="54.36" height="26.94"/>
<rect x="255.12" y="77.279" width="54.6" height="0.48"/>
<rect x="309.24" y="77.52" width="0.479" height="27.18"/>
<rect x="254.88" y="104.22" width="54.601" height="0.479"/>
<rect x="254.88" y="77.279" width="0.48" height="27.181"/>
<text transform="matrix(1 0 0 1.0522 257.5205 84.5996)"><tspan x="0" y="0" style="font-family:'ProductusOSGiBookc'; font-size:7.5841;">a</tspan><tspan x="3.117" y="0" style="font-family:'ProductusOSGiBookc'; font-size:7.5841;"> </tspan><tspan x="4.618" y="0" style="font-family:'ProductusOSGiBookc'; font-size:7.5841;">Servi</tspan><tspan x="17.974" y="0" style="font-family:'ProductusOSGiBookc'; font-size:7.5841;">c</tspan><tspan x="20.909" y="0" style="font-family:'ProductusOSGiBookc'; font-size:7.5841;">e</tspan></text>
<polyline style="fill-rule:evenodd;clip-rule:evenodd;" points="311.82,92.1 297.66,106.319 311.82,106.319 "/>
<polyline points="312,92.279 297.84,106.5 297.66,106.56 297.061,106.56 297.48,106.14 311.64,91.92 "/>
<rect x="297.66" y="106.079" width="14.4" height="0.48"/>
<polyline points="311.58,106.319 311.58,92.1 311.64,91.92 312.061,91.5 312.061,106.319 "/>
<rect x="144.12" y="79.739" width="54.36" height="27"/>
<rect x="144.12" y="79.5" width="54.6" height="0.479"/>
<rect x="198.24" y="79.739" width="0.479" height="27.24"/>
<rect x="143.88" y="106.5" width="54.601" height="0.479"/>
<rect x="143.88" y="79.5" width="0.48" height="27.239"/>
<rect x="141.78" y="77.939" style="fill:#FFFFFF;" width="54.3" height="27"/>
<rect x="141.78" y="77.699" width="54.54" height="0.48"/>
<rect x="195.84" y="77.939" width="0.48" height="27.24"/>
<rect x="141.54" y="104.699" width="54.54" height="0.48"/>
<rect x="141.54" y="77.699" width="0.48" height="27.24"/>
<text transform="matrix(1 0 0 1.0522 144.1201 85.0791)"><tspan x="0" y="0" style="font-family:'ProductusOSGiBookc'; font-size:7.5841;">a</tspan><tspan x="3.125" y="0" style="font-family:'ProductusOSGiBookc'; font-size:7.5841;"> </tspan><tspan x="4.626" y="0" style="font-family:'ProductusOSGiBookc'; font-size:7.5841;">C</tspan><tspan x="8.593" y="0" style="font-family:'ProductusOSGiBookc'; font-size:7.5841;">o</tspan><tspan x="12.134" y="0" style="font-family:'ProductusOSGiBookc'; font-size:7.5841;">mpo</tspan><tspan x="24.648" y="0" style="font-family:'ProductusOSGiBookc'; font-size:7.5841;">n</tspan><tspan x="28.068" y="0" style="font-family:'ProductusOSGiBookc'; font-size:7.5841;">ent</tspan><tspan x="37.07" y="0" style="font-family:'ProductusOSGiBookc'; font-size:7.5841;"> </tspan></text>
<text transform="matrix(1 0 0 1.0522 144.1201 93.5996)"><tspan x="0" y="0" style="font-family:'ProductusOSGiBookc'; font-size:7.5841;">I</tspan><tspan x="1.463" y="0" style="font-family:'ProductusOSGiBookc'; font-size:7.5841;">n</tspan><tspan x="4.937" y="0" style="font-family:'ProductusOSGiBookc'; font-size:7.5841;">sta</tspan><tspan x="12.908" y="0" style="font-family:'ProductusOSGiBookc'; font-size:7.5841;">n</tspan><tspan x="16.381" y="0" style="font-family:'ProductusOSGiBookc'; font-size:7.5841;">c</tspan><tspan x="19.316" y="0" style="font-family:'ProductusOSGiBookc'; font-size:7.5841;">e </tspan></text>
<polyline style="fill-rule:evenodd;clip-rule:evenodd;" points="198.48,92.579 184.26,106.739 198.48,106.739 "/>
<polyline points="198.66,92.76 184.44,106.92 184.26,106.979 183.66,106.979 184.08,106.56 198.3,92.399 "/>
<rect x="184.26" y="106.5" width="14.46" height="0.479"/>
<polyline points="198.24,106.739 198.24,92.579 198.3,92.399 198.72,91.979 198.72,106.739 "/>
<polyline style="fill-rule:evenodd;clip-rule:evenodd;fill:#FFFFFF;" points="56.4,35.399 56.4,7.079 99.24,7.079 99.24,27.3 "/>
<rect x="56.16" y="6.84" width="0.48" height="28.56"/>
<rect x="56.4" y="6.84" width="43.08" height="0.479"/>
<polyline points="99.48,7.079 99.48,27.479 99.3,27.539 56.46,35.64 56.16,35.699 56.16,35.399 56.4,35.159 99.24,27.06 
	99.3,27.539 99,27.3 99,7.079 "/>
<polyline points="283.5,66.42 286.8,66.42 286.62,67.079 283.5,78 280.38,67.079 280.2,66.42 280.86,66.42 281.34,66.779 
	283.98,76.02 283.021,76.319 283.021,76.02 285.66,66.779 286.62,67.079 286.14,67.439 283.5,67.439 "/>
<rect x="280.86" y="66.42" width="2.64" height="1.02"/>
<polyline style="fill-rule:evenodd;clip-rule:evenodd;" points="283.5,66.899 286.14,66.899 283.5,76.14 280.86,66.899 "/>
<rect x="283.26" y="35.159" width="0.48" height="31.5"/>
<text transform="matrix(1 0 0 1 60.4199 15.4199)"><tspan x="0" y="0" style="font-family:'ProductusBook'; font-size:7.98;">C</tspan><tspan x="4.206" y="0" style="font-family:'ProductusBook'; font-size:7.98;">om</tspan><tspan x="13.741" y="0" style="font-family:'ProductusBook'; font-size:7.98;">p</tspan><tspan x="17.46" y="0" style="font-family:'ProductusBook'; font-size:7.98;">o</tspan><tspan x="21.243" y="0" style="font-family:'ProductusBook'; font-size:7.98;">n</tspan><tspan x="24.961" y="0" style="font-family:'ProductusBook'; font-size:7.98;">e</tspan><tspan x="28.448" y="0" style="font-family:'ProductusBook'; font-size:7.98;">n</tspan><tspan x="32.167" y="0" style="font-family:'ProductusBook'; font-size:7.98;">t</tspan></text>
<text transform="matrix(1 0 0 1 60.4199 25.1387)"><tspan x="0" y="0" style="font-family:'ProductusBook'; font-size:7.98;">Desc</tspan><tspan x="14.348" y="0" style="font-family:'ProductusBook'; font-size:7.98;">r</tspan><tspan x="16.574" y="0" style="font-family:'ProductusBook'; font-size:7.98;">i</tspan><tspan x="18.186" y="0" style="font-family:'ProductusBook'; font-size:7.98;">p</tspan><tspan x="21.849" y="0" style="font-family:'ProductusBook'; font-size:7.98;">t</tspan><tspan x="24.243" y="0" style="font-family:'ProductusBook'; font-size:7.98;">io</tspan><tspan x="29.605" y="0" style="font-family:'ProductusBook'; font-size:7.98;">n</tspan></text>
<rect x="115.8" y="157.26" width="54.299" height="27"/>
<rect x="115.8" y="157.02" width="54.54" height="0.48"/>
<rect x="169.86" y="157.26" width="0.479" height="27.24"/>
<rect x="115.56" y="184.02" width="54.54" height="0.48"/>
<rect x="115.56" y="157.02" width="0.48" height="27.24"/>
<rect x="113.4" y="155.46" style="fill:#FFFFFF;" width="54.36" height="27"/>
<rect x="113.4" y="155.22" width="54.6" height="0.479"/>
<rect x="167.52" y="155.46" width="0.48" height="27.239"/>
<rect x="113.16" y="182.22" width="54.6" height="0.479"/>
<rect x="113.16" y="155.22" width="0.48" height="27.24"/>
<text transform="matrix(1 0 0 1.0522 115.8003 162.5996)"><tspan x="0" y="0" style="font-family:'ProductusOSGiBookc'; font-size:7.5841;">a</tspan><tspan x="3.117" y="0" style="font-family:'ProductusOSGiBookc'; font-size:7.5841;"> </tspan><tspan x="4.672" y="0" style="font-family:'ProductusOSGiBookc'; font-size:7.5841;">C</tspan><tspan x="8.578" y="0" style="font-family:'ProductusOSGiBookc'; font-size:7.5841;">o</tspan><tspan x="12.172" y="0" style="font-family:'ProductusOSGiBookc'; font-size:7.5841;">mponent</tspan></text>
<text transform="matrix(1 0 0 1.0522 115.8003 171.0596)"><tspan x="0" y="0" style="font-family:'ProductusOSGiBookc'; font-size:7.5841;">C</tspan><tspan x="3.966" y="0" style="font-family:'ProductusOSGiBookc'; font-size:7.5841;">o</tspan><tspan x="7.561" y="0" style="font-family:'ProductusOSGiBookc'; font-size:7.5841;">n</tspan><tspan x="10.981" y="0" style="font-family:'ProductusOSGiBookc'; font-size:7.5841;">f</tspan><tspan x="12.9" y="0" style="font-family:'ProductusOSGiBookc'; font-size:7.5841;">g</tspan><tspan x="16.199" y="0" style="font-family:'ProductusOSGiBookc'; font-size:7.5841;">u</tspan><tspan x="19.673" y="0" style="font-family:'ProductusOSGiBookc'; font-size:7.5841;">r</tspan><tspan x="21.773" y="0" style="font-family:'ProductusOSGiBookc'; font-size:7.5841;">at</tspan><tspan x="27.105" y="0" style="font-family:'ProductusOSGiBookc'; font-size:7.5841;">i</tspan><tspan x="28.546" y="0" style="font-family:'ProductusOSGiBookc'; font-size:7.5841;">o</tspan><tspan x="32.141" y="0" style="font-family:'ProductusOSGiBookc'; font-size:7.5841;">n</tspan></text>
<rect x="63.54" y="169.859" width="50.1" height="0.48"/>
<rect x="127.32" y="35.159" width="0.48" height="120.96"/>
<polyline points="155.94,66.42 159.24,66.42 159.06,67.079 155.94,78 152.82,67.079 152.64,66.42 153.3,66.42 153.78,66.779 
	156.42,76.02 155.46,76.319 155.46,76.02 158.1,66.779 159.06,67.079 158.58,67.439 155.94,67.439 "/>
<rect x="153.3" y="66.42" width="2.64" height="1.02"/>
<polyline style="fill-rule:evenodd;clip-rule:evenodd;" points="155.94,66.899 158.58,66.899 155.94,76.14 153.3,66.899 "/>
<rect x="155.7" y="35.159" width="0.48" height="31.5"/>
<polyline points="155.94,117.779 152.64,117.779 152.82,117.119 155.46,107.939 155.94,106.26 156.42,107.939 159.06,117.119 
	159.24,117.779 158.58,117.779 158.1,117.42 155.46,108.239 156.42,107.939 156.42,108.239 153.78,117.42 152.82,117.119 
	153.3,116.76 155.94,116.76 "/>
<rect x="155.94" y="116.76" width="2.64" height="1.02"/>
<polyline style="fill-rule:evenodd;clip-rule:evenodd;" points="155.94,117.3 153.3,117.3 155.94,108.119 158.58,117.3 "/>
<rect x="155.7" y="151.92" width="0.48" height="4.199"/>
<rect x="155.7" y="139.5" width="0.48" height="7.14"/>
<rect x="155.7" y="133.979" width="0.48" height="0.24"/>
<rect x="155.7" y="127.079" width="0.48" height="6.9"/>
<rect x="155.7" y="121.56" width="0.48" height="0.24"/>
<rect x="155.7" y="117.6" width="0.48" height="3.96"/>
<rect x="169.86" y="21" width="57.18" height="0.479"/>
<rect x="226.561" y="21.239" width="0.479" height="64.021"/>
<rect x="226.8" y="84.779" width="28.561" height="0.48"/>
<rect x="169.86" y="162.72" width="4.26" height="0.479"/>
<rect x="180.18" y="162.72" width="8.101" height="0.479"/>
<rect x="194.4" y="162.72" width="8.1" height="0.479"/>
<rect x="208.62" y="162.72" width="8.1" height="0.479"/>
<rect x="222.84" y="162.72" width="4.2" height="0.479"/>
<rect x="226.561" y="159" width="0.479" height="3.96"/>
<rect x="226.561" y="146.399" width="0.479" height="7.2"/>
<rect x="226.561" y="133.8" width="0.479" height="7.2"/>
<rect x="226.561" y="121.199" width="0.479" height="7.2"/>
<rect x="226.561" y="108.539" width="0.479" height="7.261"/>
<rect x="226.561" y="98.939" width="0.479" height="4.26"/>
<rect x="226.8" y="98.939" width="4.021" height="0.48"/>
<rect x="236.94" y="98.939" width="8.1" height="0.48"/>
<rect x="251.16" y="98.939" width="4.2" height="0.48"/>
<text transform="matrix(1 0 0 1 159.2402 132.2998)"><tspan x="0" y="0" style="font-family:'ProductusBook'; font-size:7.98;">registered</tspan><tspan x="28.975" y="0" style="font-family:'ProductusBook'; font-size:7.98;"> </tspan><tspan x="30.539" y="0" style="font-family:'ProductusBook'; font-size:7.98;">servi</tspan><tspan x="43.905" y="0" style="font-family:'ProductusBook'; font-size:7.98;">c</tspan><tspan x="46.905" y="0" style="font-family:'ProductusBook'; font-size:7.98;">e</tspan></text>
<text transform="matrix(1 0 0 1 184.2598 150.8994)"><tspan x="0" y="0" style="font-family:'ProductusBook'; font-size:7.98;">trac</tspan><tspan x="11.076" y="0" style="font-family:'ProductusBook'; font-size:7.98;">k</tspan><tspan x="14.315" y="0" style="font-family:'ProductusBook'; font-size:7.98;">s </tspan></text>
<text transform="matrix(1 0 0 1 184.2598 160.6191)"><tspan x="0" y="0" style="font-family:'ProductusBook'; font-size:7.98;">d</tspan><tspan x="3.719" y="0" style="font-family:'ProductusBook'; font-size:7.98;">e</tspan><tspan x="7.206" y="0" style="font-family:'ProductusBook'; font-size:7.98;">pe</tspan><tspan x="14.451" y="0" style="font-family:'ProductusBook'; font-size:7.98;">n</tspan><tspan x="18.114" y="0" style="font-family:'ProductusBook'; font-size:7.98;">d</tspan><tspan x="21.833" y="0" style="font-family:'ProductusBook'; font-size:7.98;">e</tspan><tspan x="25.32" y="0" style="font-family:'ProductusBook'; font-size:7.98;">n</tspan><tspan x="29.039" y="0" style="font-family:'ProductusBook'; font-size:7.98;">c</tspan><tspan x="32.104" y="0" style="font-family:'ProductusBook'; font-size:7.98;">i</tspan><tspan x="33.667" y="0" style="font-family:'ProductusBook'; font-size:7.98;">e</tspan><tspan x="37.194" y="0" style="font-family:'ProductusBook'; font-size:7.98;">s</tspan></text>
<text transform="matrix(-6.123234e-17 1 -1 -6.123234e-17 78.8398 67.4395)"><tspan x="0" y="0" style="font-family:'ProductusBook'; font-size:7.98;">d</tspan><tspan x="3.687" y="0" style="font-family:'ProductusBook'; font-size:7.98;">e</tspan><tspan x="7.222" y="0" style="font-family:'ProductusBook'; font-size:7.98;">c</tspan><tspan x="10.303" y="0" style="font-family:'ProductusBook'; font-size:7.98;">l</tspan><tspan x="11.922" y="0" style="font-family:'ProductusBook'; font-size:7.98;">ares</tspan><tspan x="23.788" y="0" style="font-family:'ProductusBook'; font-size:7.98;"> </tspan><tspan x="25.408" y="0" style="font-family:'ProductusBook'; font-size:7.98;">c</tspan><tspan x="28.408" y="0" style="font-family:'ProductusBook'; font-size:7.98;">o</tspan><tspan x="32.191" y="0" style="font-family:'ProductusBook'; font-size:7.98;">m</tspan><tspan x="37.937" y="0" style="font-family:'ProductusBook'; font-size:7.98;">p</tspan><tspan x="41.655" y="0" style="font-family:'ProductusBook'; font-size:7.98;">o</tspan><tspan x="45.43" y="0" style="font-family:'ProductusBook'; font-size:7.98;">n</tspan><tspan x="49.148" y="0" style="font-family:'ProductusBook'; font-size:7.98;">e</tspan><tspan x="52.644" y="0" style="font-family:'ProductusBook'; font-size:7.98;">n</tspan><tspan x="56.362" y="0" style="font-family:'ProductusBook'; font-size:7.98;">t</tspan></text>
<text transform="matrix(-6.123234e-17 1 -1 -6.123234e-17 120.1797 58.6191)"><tspan x="0" y="0" style="font-family:'ProductusBook'; font-size:7.98;">c</tspan><tspan x="3.064" y="0" style="font-family:'ProductusBook'; font-size:7.98;">r</tspan><tspan x="5.338" y="0" style="font-family:'ProductusBook'; font-size:7.98;">e</tspan><tspan x="8.873" y="0" style="font-family:'ProductusBook'; font-size:7.98;">a</tspan><tspan x="12.178" y="0" style="font-family:'ProductusBook'; font-size:7.98;">t</tspan><tspan x="14.571" y="0" style="font-family:'ProductusBook'; font-size:7.98;">e</tspan><tspan x="18.059" y="0" style="font-family:'ProductusBook'; font-size:7.98;">d</tspan><tspan x="21.777" y="0" style="font-family:'ProductusBook'; font-size:7.98;"> </tspan><tspan x="23.342" y="0" style="font-family:'ProductusBook'; font-size:7.98;">b</tspan><tspan x="26.947" y="0" style="font-family:'ProductusBook'; font-size:7.98;">y</tspan></text>
<text transform="matrix(1 0 0 1 78.7202 176.2197)"><tspan x="0" y="0" style="font-family:'ProductusBook'; font-size:7.98;">con</tspan><tspan x="10.525" y="0" style="font-family:'ProductusBook'; font-size:7.98;">t</tspan><tspan x="12.919" y="0" style="font-family:'ProductusBook'; font-size:7.98;">r</tspan><tspan x="15.194" y="0" style="font-family:'ProductusBook'; font-size:7.98;">o</tspan><tspan x="18.976" y="0" style="font-family:'ProductusBook'; font-size:7.98;">ls</tspan><tspan x="23.341" y="0" style="font-family:'ProductusBook'; font-size:7.98;"> </tspan></text>
<text transform="matrix(1 0 0 1 65.8804 175.3193)"><tspan x="0" y="0" style="font-family:'ProductusBook'; font-size:7.98; letter-spacing:33;">1</tspan><tspan x="36.899" y="0" style="font-family:'ProductusBook'; font-size:7.98;">0</tspan><tspan x="40.857" y="0" style="font-family:'ProductusBook'; font-size:7.98;">.</tspan><tspan x="42.421" y="0" style="font-family:'ProductusBook'; font-size:7.98;">.</tspan><tspan x="44.033" y="0" style="font-family:'ProductusBook'; font-size:7.98;">n</tspan><tspan x="47.696" y="0" style="font-family:'ProductusBook'; font-size:7.98;"> </tspan></text>
<text transform="matrix(1 0 0 1 173.5205 28.6191)"><tspan x="0" y="0" style="font-family:'ProductusBook'; font-size:7.98;">0..</tspan><tspan x="7.126" y="0" style="font-family:'ProductusBook'; font-size:7.98;">n</tspan><tspan x="10.789" y="0" style="font-family:'ProductusBook'; font-size:7.98;"> </tspan></text>
<text transform="matrix(1 0 0 1 242.7598 82.6787)"><tspan x="0" y="0" style="font-family:'ProductusBook'; font-size:7.98;">0..</tspan><tspan x="7.078" y="0" style="font-family:'ProductusBook'; font-size:7.98;">n</tspan><tspan x="10.797" y="0" style="font-family:'ProductusBook'; font-size:7.98;"> </tspan></text>
<text transform="matrix(1 0 0 1 203.4004 56.999)"><tspan x="0" y="0" style="font-family:'ProductusBook'; font-size:7.98;">re</tspan><tspan x="5.785" y="0" style="font-family:'ProductusBook'; font-size:7.98;">f</tspan><tspan x="7.772" y="0" style="font-family:'ProductusBook'; font-size:7.98;">e</tspan><tspan x="11.26" y="0" style="font-family:'ProductusBook'; font-size:7.98;">ren</tspan><tspan x="20.731" y="0" style="font-family:'ProductusBook'; font-size:7.98;">c</tspan><tspan x="23.732" y="0" style="font-family:'ProductusBook'; font-size:7.98;">e</tspan><tspan x="27.243" y="0" style="font-family:'ProductusBook'; font-size:7.98;">s</tspan></text>
<rect x="99" y="21" width="14.64" height="0.479"/>
<text transform="matrix(1 0 0 1 102.7803 27.1797)"><tspan x="0" y="0" style="font-family:'ProductusBook'; font-size:7.98;">1.</tspan><tspan x="4.796" y="0" style="font-family:'ProductusBook'; font-size:7.98;">.</tspan><tspan x="6.36" y="0" style="font-family:'ProductusBook'; font-size:7.98;">n</tspan><tspan x="10.079" y="0" style="font-family:'ProductusBook'; font-size:7.98;"> </tspan></text>
<text transform="matrix(1 0 0 1 101.0405 19.4395)" style="font-family:'ProductusBook'; font-size:7.98;">1</text>
<rect x="9.48" y="79.739" width="54.3" height="27"/>
<rect x="9.48" y="79.5" width="54.54" height="0.479"/>
<rect x="63.54" y="79.739" width="0.48" height="27.24"/>
<rect x="9.24" y="106.5" width="54.54" height="0.479"/>
<rect x="9.24" y="79.5" width="0.48" height="27.239"/>
<rect x="7.08" y="77.939" style="fill:#FFFFFF;" width="54.36" height="27"/>
<rect x="7.08" y="77.699" width="54.6" height="0.48"/>
<rect x="61.2" y="77.939" width="0.48" height="27.24"/>
<rect x="6.84" y="104.699" width="54.6" height="0.48"/>
<rect x="6.84" y="77.699" width="0.48" height="27.24"/>
<text transform="matrix(1 0 0 1.0522 9.48 85.0791)"><tspan x="0" y="0" style="font-family:'ProductusOSGiBookc'; font-size:7.5841;">C</tspan><tspan x="3.906" y="0" style="font-family:'ProductusOSGiBookc'; font-size:7.5841;">o</tspan><tspan x="7.5" y="0" style="font-family:'ProductusOSGiBookc'; font-size:7.5841;">n</tspan><tspan x="10.966" y="0" style="font-family:'ProductusOSGiBookc'; font-size:7.5841;">f</tspan><tspan x="12.771" y="0" style="font-family:'ProductusOSGiBookc'; font-size:7.5841;">iguration </tspan></text>
<text transform="matrix(1 0 0 1.0522 9.48 93.5996)"><tspan x="0" y="0" style="font-family:'ProductusOSGiBookc'; font-size:7.5841;">A</tspan><tspan x="3.663" y="0" style="font-family:'ProductusOSGiBookc'; font-size:7.5841;">d</tspan><tspan x="7.144" y="0" style="font-family:'ProductusOSGiBookc'; font-size:7.5841;">m</tspan><tspan x="12.597" y="0" style="font-family:'ProductusOSGiBookc'; font-size:7.5841;">i</tspan><tspan x="14.038" y="0" style="font-family:'ProductusOSGiBookc'; font-size:7.5841;">n</tspan></text>
<polyline style="fill-rule:evenodd;clip-rule:evenodd;" points="63.78,92.1 49.62,106.319 63.78,106.319 "/>
<polyline points="63.96,92.279 49.8,106.5 49.62,106.56 49.02,106.56 49.44,106.14 63.6,91.92 "/>
<rect x="49.62" y="106.079" width="14.4" height="0.48"/>
<polyline points="63.54,106.319 63.54,92.1 63.6,91.92 64.02,91.5 64.02,106.319 "/>
<rect x="35.22" y="106.079" width="0.48" height="50.04"/>
<text transform="matrix(1 0 0 1 130.3799 41.5791)"><tspan x="0" y="0" style="font-family:'ProductusBook'; font-size:7.98;">0..</tspan><tspan x="7.078" y="0" style="font-family:'ProductusBook'; font-size:7.98;">n</tspan><tspan x="10.797" y="0" style="font-family:'ProductusBook'; font-size:7.98;"> </tspan></text>
<text transform="matrix(1 0 0 1 129.7202 153.54)" style="font-family:'ProductusBook'; font-size:7.98;">1</text>
<text transform="matrix(1 0 0 1 87.1802 167.6992)"><tspan x="0" y="0" style="font-family:'ProductusBook'; font-size:7.98;">0</tspan><tspan x="3.942" y="0" style="font-family:'ProductusBook'; font-size:7.98;">.</tspan><tspan x="5.506" y="0" style="font-family:'ProductusBook'; font-size:7.98;">.</tspan><tspan x="7.134" y="0" style="font-family:'ProductusBook'; font-size:7.98;">n</tspan><tspan x="10.797" y="0" style="font-family:'ProductusBook'; font-size:7.98;"> </tspan></text>
<text transform="matrix(1 0 0 1 78 40.1387)" style="font-family:'ProductusBook'; font-size:7.98;">1</text>
</svg>
