<?xml version="1.0" encoding="utf-8"?>
<!-- Generator: Adobe Illustrator 16.0.0, SVG Export Plug-In . SVG Version: 6.00 Build 0)  -->
<!DOCTYPE svg PUBLIC "-//W3C//DTD SVG 1.1//EN" "http://www.w3.org/Graphics/SVG/1.1/DTD/svg11.dtd">
<svg version="1.1" id="Layer_1" xmlns="http://www.w3.org/2000/svg" xmlns:xlink="http://www.w3.org/1999/xlink" x="0px" y="0px"
	 width="257.733px" height="128.04px" viewBox="0 0 257.733 128.04" style="enable-background:new 0 0 257.733 128.04;"
	 xml:space="preserve">
<polyline style="fill-rule:evenodd;clip-rule:evenodd;" points="35.94,9.06 34.98,9.18 34.14,9.42 33.42,9.84 32.7,10.38 
	32.16,11.04 31.74,11.82 31.5,12.66 31.44,13.56 31.38,15.48 31.44,17.46 31.5,18.36 31.74,19.2 32.16,19.98 32.7,20.64 
	33.42,21.18 34.14,21.6 34.98,21.84 35.94,21.96 81.72,21.96 82.62,21.84 83.52,21.6 84.24,21.18 84.9,20.64 85.5,19.98 85.86,19.2 
	86.16,18.36 86.22,17.46 86.22,13.56 86.16,12.66 85.86,11.82 85.5,11.04 84.9,10.38 84.24,9.84 83.52,9.42 82.62,9.18 81.72,9.06 
	35.94,9.06 "/>
<polyline points="36,9.3 35.04,9.42 34.2,9.66 34.26,9.66 33.54,10.08 33.6,10.02 32.88,10.56 32.34,11.22 32.4,11.16 31.98,11.94 
	31.98,11.88 31.74,12.72 31.68,13.62 31.68,13.56 31.62,15.48 31.68,17.46 31.74,18.36 31.74,18.3 31.98,19.14 31.98,19.08 
	32.4,19.86 32.34,19.86 32.88,20.52 32.88,20.46 33.6,21 33.54,21 34.26,21.42 34.2,21.36 35.04,21.6 36,21.72 35.94,21.72 
	81.72,21.72 82.62,21.6 82.56,21.6 83.46,21.36 83.4,21.42 84.12,21 84.78,20.46 84.72,20.52 85.32,19.86 85.32,19.92 85.68,19.14 
	85.62,19.14 85.92,18.3 85.92,18.36 85.98,17.46 85.98,13.56 85.98,13.62 85.92,12.72 85.92,12.78 85.62,11.94 85.68,11.94 
	85.32,11.16 85.32,11.22 84.72,10.56 84.78,10.56 84.12,10.02 84.12,10.08 83.4,9.66 83.46,9.66 82.56,9.42 82.62,9.42 81.72,9.3 
	35.94,9.3 35.94,8.82 81.78,8.82 82.68,8.94 83.58,9.18 83.64,9.24 84.36,9.66 84.42,9.66 85.08,10.2 85.08,10.26 85.68,10.92 
	85.74,10.98 86.1,11.76 86.4,12.6 86.4,12.66 86.46,13.56 86.46,17.52 86.4,18.42 86.4,18.48 86.1,19.32 85.74,20.1 85.68,20.16 
	85.08,20.82 84.42,21.36 84.36,21.42 83.64,21.84 83.58,21.84 82.68,22.08 81.78,22.2 35.94,22.2 34.98,22.08 34.92,22.08 
	34.08,21.84 34.02,21.84 33.3,21.42 33.3,21.36 32.58,20.82 32.52,20.82 31.98,20.16 31.98,20.1 31.56,19.32 31.5,19.26 
	31.26,18.42 31.2,17.52 31.2,17.46 31.14,15.48 31.2,13.56 31.26,12.66 31.26,12.6 31.5,11.76 31.56,11.7 31.98,10.92 32.52,10.26 
	32.58,10.2 33.3,9.66 34.02,9.24 34.08,9.18 34.92,8.94 34.98,8.94 35.94,8.82 "/>
<polyline points="35.94,9.3 36,9.3 35.94,8.82 "/>
<polyline style="fill-rule:evenodd;clip-rule:evenodd;fill:#FFFFFF;" points="34.02,7.56 33.12,7.62 32.28,7.86 31.5,8.28 
	30.84,8.88 30.3,9.54 29.88,10.26 29.64,11.1 29.52,12.06 29.52,15.9 29.64,16.8 29.88,17.64 30.3,18.42 30.84,19.08 31.5,19.62 
	32.28,20.04 33.12,20.34 34.02,20.4 79.86,20.4 80.76,20.34 81.6,20.04 82.38,19.62 83.04,19.08 83.58,18.42 84,17.64 84.3,16.8 
	84.36,15.9 84.36,12.06 84.3,11.1 84,10.26 83.58,9.54 83.04,8.88 82.38,8.28 81.6,7.86 80.76,7.62 79.86,7.56 34.02,7.56 "/>
<polyline points="34.08,7.8 33.18,7.86 32.34,8.1 32.4,8.1 31.62,8.52 31.68,8.46 31.02,9.06 30.48,9.72 30.54,9.66 30.12,10.38 
	30.12,10.32 29.88,11.16 29.76,12.12 29.76,12.06 29.76,15.9 29.88,16.8 29.88,16.74 30.12,17.58 30.12,17.52 30.54,18.3 
	30.48,18.3 31.02,18.96 31.02,18.9 31.68,19.44 31.62,19.44 32.4,19.86 32.4,19.8 33.24,20.1 33.18,20.1 34.08,20.16 34.02,20.16 
	79.86,20.16 80.76,20.1 80.7,20.1 81.54,19.8 81.48,19.86 82.26,19.44 82.92,18.9 82.86,18.96 83.4,18.3 83.82,17.52 83.76,17.58 
	84.06,16.74 84.06,16.8 84.12,15.9 84.12,12.06 84.06,11.1 84.06,11.22 83.76,10.38 83.82,10.38 83.4,9.66 83.4,9.72 82.86,9.06 
	82.92,9.06 82.26,8.46 82.26,8.52 81.48,8.1 81.54,8.1 80.7,7.86 80.76,7.86 79.86,7.8 34.02,7.8 34.02,7.32 79.92,7.32 80.82,7.38 
	81.66,7.62 81.72,7.68 82.5,8.1 82.56,8.1 83.22,8.7 83.22,8.76 83.76,9.42 83.82,9.42 84.24,10.14 84.24,10.2 84.54,11.04 
	84.54,11.1 84.6,12.06 84.6,15.96 84.54,16.86 84.54,16.92 84.24,17.76 83.82,18.54 83.76,18.6 83.22,19.26 82.56,19.8 82.5,19.86 
	81.72,20.28 80.88,20.58 80.82,20.58 79.92,20.64 34.02,20.64 33.12,20.58 33.06,20.58 32.22,20.28 32.16,20.28 31.38,19.86 
	31.38,19.8 30.72,19.26 30.66,19.26 30.12,18.6 30.12,18.54 29.7,17.76 29.64,17.7 29.4,16.86 29.28,15.96 29.28,12.06 29.4,11.1 
	29.4,11.04 29.64,10.2 29.7,10.14 30.12,9.42 30.66,8.76 30.72,8.7 31.38,8.1 32.16,7.68 32.22,7.62 33.06,7.38 33.12,7.38 
	34.02,7.32 "/>
<polyline points="34.02,7.8 34.08,7.8 34.02,7.32 "/>
<text transform="matrix(1 0 0 1 35.2197 15.7202)"><tspan x="0" y="0" style="font-family:'ProductusSemibold'; font-size:7.98;">UNS</tspan><tspan x="14.731" y="0" style="font-family:'ProductusSemibold'; font-size:7.98;">A</tspan><tspan x="19.231" y="0" style="font-family:'ProductusSemibold'; font-size:7.98;">TISFIE</tspan><tspan x="40.099" y="0" style="font-family:'ProductusSemibold'; font-size:7.98;">D</tspan></text>
<rect x="71.64" y="51.72" width="0.48" height="4.68"/>
<polyline points="74.64,52.08 74.22,51.84 71.64,56.28 71.64,56.52 71.82,56.82 72.06,56.52 "/>
<polyline points="71.64,56.52 72.06,56.28 69.54,51.84 69.12,52.08 "/>
<rect x="71.64" y="21.24" width="0.48" height="0.24"/>
<rect x="71.64" y="21.48" width="0.48" height="30.48"/>
<rect x="137.58" y="113.4" width="4.681" height="0.48"/>
<polyline points="137.94,110.88 137.7,111.3 142.14,113.88 142.38,113.88 142.68,113.7 142.38,113.46 "/>
<polyline points="142.38,113.88 142.14,113.46 137.7,115.98 137.94,116.4 "/>
<rect x="85.86" y="113.4" width="0.24" height="0.48"/>
<rect x="86.1" y="113.4" width="51.72" height="0.48"/>
<text transform="matrix(1 0 0 1 76.3799 34.5601)"><tspan x="0" y="0" style="font-family:'ProductusBook'; font-size:7.98;">be</tspan><tspan x="7.254" y="0" style="font-family:'ProductusBook'; font-size:7.98;">c</tspan><tspan x="10.254" y="0" style="font-family:'ProductusBook'; font-size:7.98;">o</tspan><tspan x="14.037" y="0" style="font-family:'ProductusBook'; font-size:7.98;">me</tspan><tspan x="23.341" y="0" style="font-family:'ProductusBook'; font-size:7.98;">s</tspan></text>
<text transform="matrix(1 0 0 1 76.3799 44.3403)"><tspan x="0" y="0" style="font-family:'ProductusBook'; font-size:7.98;">s</tspan><tspan x="2.817" y="0" style="font-family:'ProductusBook'; font-size:7.98;">a</tspan><tspan x="6.176" y="0" style="font-family:'ProductusBook'; font-size:7.98;">t</tspan><tspan x="8.522" y="0" style="font-family:'ProductusBook'; font-size:7.98;">is</tspan><tspan x="12.903" y="0" style="font-family:'ProductusBook'; font-size:7.98;">f</tspan><tspan x="14.827" y="0" style="font-family:'ProductusBook'; font-size:7.98;">i</tspan><tspan x="16.446" y="0" style="font-family:'ProductusBook'; font-size:7.98;">e</tspan><tspan x="19.934" y="0" style="font-family:'ProductusBook'; font-size:7.98;">d</tspan></text>
<text transform="matrix(1 0 0 1 8.0996 35.9404)"><tspan x="0" y="0" style="font-family:'ProductusBook'; font-size:7.98;">be</tspan><tspan x="7.238" y="0" style="font-family:'ProductusBook'; font-size:7.98;">c</tspan><tspan x="10.238" y="0" style="font-family:'ProductusBook'; font-size:7.98;">o</tspan><tspan x="14.021" y="0" style="font-family:'ProductusBook'; font-size:7.98;">m</tspan><tspan x="19.79" y="0" style="font-family:'ProductusBook'; font-size:7.98;">e</tspan><tspan x="23.277" y="0" style="font-family:'ProductusBook'; font-size:7.98;">s</tspan></text>
<rect x="31.74" y="100.8" width="54.36" height="27"/>
<rect x="31.74" y="100.56" width="54.6" height="0.48"/>
<rect x="85.86" y="100.8" width="0.48" height="27.24"/>
<rect x="31.5" y="127.56" width="54.6" height="0.48"/>
<rect x="31.5" y="100.56" width="0.48" height="27.24"/>
<rect x="29.4" y="99" style="fill:#FFFFFF;" width="54.3" height="27"/>
<rect x="29.4" y="98.76" width="54.54" height="0.479"/>
<rect x="83.46" y="99" width="0.48" height="27.24"/>
<rect x="29.16" y="125.76" width="54.54" height="0.479"/>
<rect x="29.16" y="98.76" width="0.48" height="27.24"/>
<text transform="matrix(1 0 0 1 31.7397 106.1401)"><tspan x="0" y="0" style="font-family:'ProductusSemibold'; font-size:7.98;">acti</tspan><tspan x="12.896" y="0" style="font-family:'ProductusSemibold'; font-size:7.98;">v</tspan><tspan x="16.973" y="0" style="font-family:'ProductusSemibold'; font-size:7.98;">a</tspan><tspan x="20.931" y="0" style="font-family:'ProductusSemibold'; font-size:7.98;">t</tspan><tspan x="24.051" y="0" style="font-family:'ProductusSemibold'; font-size:7.98;">e</tspan></text>
<rect x="145.32" y="2.04" width="54.3" height="27"/>
<rect x="145.32" y="1.8" width="54.54" height="0.479"/>
<rect x="199.38" y="2.04" width="0.479" height="27.24"/>
<rect x="145.08" y="28.8" width="54.54" height="0.479"/>
<rect x="145.08" y="1.8" width="0.48" height="27.24"/>
<rect x="142.919" y="0.24" style="fill:#FFFFFF;" width="54.36" height="27"/>
<rect x="142.919" width="54.601" height="0.48"/>
<rect x="197.04" y="0.24" width="0.48" height="27.24"/>
<rect x="142.68" y="27" width="54.6" height="0.48"/>
<rect x="142.68" width="0.479" height="27.24"/>
<text transform="matrix(1 0 0 1 145.3198 7.3799)"><tspan x="0" y="0" style="font-family:'ProductusSemibold'; font-size:7.98;">d</tspan><tspan x="4.373" y="0" style="font-family:'ProductusSemibold'; font-size:7.98;">e</tspan><tspan x="8.507" y="0" style="font-family:'ProductusSemibold'; font-size:7.98;">activat</tspan><tspan x="32.454" y="0" style="font-family:'ProductusSemibold'; font-size:7.98;">e</tspan></text>
<rect x="86.76" y="14.16" width="4.68" height="0.48"/>
<polyline points="91.08,17.16 91.32,16.74 86.88,14.16 86.64,14.16 86.22,14.4 86.64,14.58 "/>
<polyline points="86.64,14.16 86.88,14.58 91.32,12 91.08,11.58 "/>
<rect x="91.2" y="14.16" width="51.96" height="0.48"/>
<polyline style="fill-rule:evenodd;clip-rule:evenodd;" points="149.16,107.82 148.26,107.94 147.36,108.18 146.64,108.6 
	145.98,109.14 145.38,109.8 145.02,110.58 144.72,111.42 144.66,112.32 144.66,116.22 144.72,117.12 145.02,117.96 145.38,118.74 
	145.98,119.4 146.64,119.94 147.36,120.36 148.26,120.6 149.16,120.72 194.94,120.72 195.9,120.6 196.74,120.36 197.459,119.94 
	198.18,119.4 198.72,118.74 199.14,117.96 199.38,117.12 199.44,116.22 199.44,112.32 199.38,111.42 199.14,110.58 198.72,109.8 
	198.18,109.14 197.459,108.6 196.74,108.18 195.9,107.94 194.94,107.82 149.16,107.82 "/>
<polyline points="149.22,108.06 148.32,108.18 147.419,108.42 147.48,108.42 146.76,108.84 146.82,108.78 146.16,109.32 
	145.56,109.98 145.62,109.92 145.26,110.7 144.959,111.54 144.959,111.48 144.9,112.38 144.9,112.32 144.9,116.22 144.959,117.12 
	144.959,117.06 145.26,117.9 145.62,118.68 145.56,118.62 146.16,119.28 146.16,119.22 146.82,119.76 146.76,119.76 147.48,120.18 
	147.419,120.12 148.32,120.36 149.22,120.48 149.16,120.48 194.94,120.48 195.9,120.36 195.84,120.36 196.68,120.12 196.62,120.18 
	197.34,119.76 198.06,119.22 198,119.28 198.54,118.62 198.959,117.84 198.9,117.9 199.14,117.06 199.14,117.12 199.2,116.22 
	199.2,112.32 199.2,112.38 199.14,111.48 198.9,110.64 198.959,110.7 198.54,109.92 198.54,109.98 198,109.32 198.06,109.32 
	197.34,108.78 197.34,108.84 196.62,108.42 196.68,108.42 195.84,108.18 195.9,108.18 194.94,108.06 149.16,108.06 149.16,107.58 
	195,107.58 195.959,107.7 196.8,107.94 196.86,108 197.58,108.42 197.64,108.42 198.36,108.96 198.36,109.02 198.9,109.68 
	198.959,109.68 199.38,110.46 199.38,110.52 199.62,111.36 199.62,111.42 199.68,112.32 199.68,116.28 199.62,117.18 199.38,118.02 
	199.38,118.08 198.959,118.86 198.9,118.92 198.36,119.58 197.64,120.12 197.58,120.18 196.86,120.6 196.8,120.6 195.959,120.84 
	195,120.96 149.16,120.96 148.26,120.84 148.2,120.84 147.3,120.6 147.24,120.6 146.52,120.18 146.52,120.12 145.86,119.58 
	145.8,119.58 145.2,118.92 145.2,118.86 144.84,118.08 144.78,118.08 144.48,117.24 144.48,117.18 144.419,116.28 144.419,112.32 
	144.48,111.42 144.48,111.36 144.78,110.52 144.84,110.52 145.2,109.74 145.2,109.68 145.8,109.02 145.86,108.96 146.52,108.42 
	147.24,108 147.3,107.94 148.2,107.7 148.26,107.7 149.16,107.58 "/>
<polyline points="149.16,108.06 149.22,108.06 149.16,107.58 "/>
<polyline style="fill-rule:evenodd;clip-rule:evenodd;fill:#FFFFFF;" points="147.3,106.32 146.34,106.38 145.5,106.68 
	144.78,107.04 144.12,107.64 143.52,108.3 143.1,109.02 142.86,109.92 142.8,110.82 142.8,114.66 142.86,115.56 143.1,116.4 
	143.52,117.18 144.12,117.84 144.78,118.38 145.5,118.8 146.34,119.1 147.3,119.16 193.08,119.16 193.98,119.1 194.88,118.8 
	195.6,118.38 196.26,117.84 196.86,117.18 197.22,116.4 197.52,115.56 197.58,114.66 197.58,110.82 197.52,109.92 197.22,109.02 
	196.86,108.3 196.26,107.64 195.6,107.04 194.88,106.68 193.98,106.38 193.08,106.32 147.3,106.32 "/>
<polyline points="147.3,106.56 146.34,106.62 146.459,106.62 145.62,106.92 144.9,107.28 144.959,107.22 144.3,107.82 143.7,108.48 
	143.76,108.42 143.34,109.14 143.34,109.08 143.1,109.98 143.04,110.88 143.04,110.82 143.04,114.66 143.1,115.56 143.1,115.5 
	143.34,116.34 143.34,116.28 143.76,117.06 143.7,117.06 144.3,117.72 144.3,117.66 144.959,118.2 144.9,118.2 145.62,118.62 
	145.62,118.56 146.459,118.86 146.34,118.86 147.3,118.92 193.08,118.92 193.98,118.86 193.919,118.86 194.82,118.56 194.76,118.62 
	195.48,118.2 196.14,117.66 196.08,117.72 196.68,117.06 196.68,117.12 197.04,116.34 196.98,116.34 197.28,115.5 197.28,115.56 
	197.34,114.66 197.34,110.82 197.34,110.88 197.28,109.98 197.28,110.04 196.98,109.14 197.04,109.14 196.68,108.42 196.68,108.48 
	196.08,107.82 196.14,107.82 195.48,107.22 195.48,107.28 194.76,106.92 194.82,106.92 193.919,106.62 193.98,106.62 193.08,106.56 
	147.3,106.56 147.3,106.08 193.14,106.08 194.04,106.14 194.1,106.14 195,106.44 195,106.5 195.72,106.86 195.78,106.86 
	196.44,107.46 196.44,107.52 197.04,108.18 197.1,108.18 197.459,108.9 197.459,108.96 197.76,109.86 197.76,109.92 197.82,110.82 
	197.82,114.72 197.76,115.62 197.76,115.68 197.459,116.52 197.1,117.3 197.04,117.36 196.44,118.02 195.78,118.56 195.72,118.62 
	195,119.04 194.1,119.34 194.04,119.34 193.14,119.4 147.3,119.4 146.34,119.34 146.28,119.34 145.44,119.04 145.38,119.04 
	144.66,118.62 144.66,118.56 144,118.02 143.94,118.02 143.34,117.36 143.34,117.3 142.919,116.52 142.86,116.46 142.62,115.62 
	142.56,114.72 142.56,110.82 142.62,109.92 142.62,109.86 142.86,108.96 142.919,108.9 143.34,108.18 143.94,107.52 144,107.46 
	144.66,106.86 145.38,106.5 145.44,106.44 146.28,106.14 146.34,106.14 147.3,106.08 "/>
<line x1="147.3" y1="106.56" x2="147.3" y2="106.08"/>
<text transform="matrix(1 0 0 1 150.6001 114.48)"><tspan x="0" y="0" style="font-family:'ProductusSemibold'; font-size:7.98;">A</tspan><tspan x="4.732" y="0" style="font-family:'ProductusSemibold'; font-size:7.98;">C</tspan><tspan x="9.647" y="0" style="font-family:'ProductusSemibold'; font-size:7.98;">T</tspan><tspan x="14.141" y="0" style="font-family:'ProductusSemibold'; font-size:7.98;">I</tspan><tspan x="16.358" y="0" style="font-family:'ProductusSemibold'; font-size:7.98;">V</tspan><tspan x="21.394" y="0" style="font-family:'ProductusSemibold'; font-size:7.98;">E</tspan></text>
<rect x="57.48" y="94.26" width="0.48" height="4.68"/>
<polyline points="60.48,94.62 60.06,94.38 57.48,98.82 57.48,99.06 57.72,99.48 57.9,99.06 "/>
<polyline points="57.48,99.06 57.9,98.82 55.32,94.38 54.9,94.62 "/>
<rect x="57.48" y="70.86" width="0.48" height="23.64"/>
<text transform="matrix(1 0 0 1 8.1001 45.7202)"><tspan x="0" y="0" style="font-family:'ProductusBook'; font-size:7.98;">unsatis</tspan><tspan x="20.245" y="0" style="font-family:'ProductusBook'; font-size:7.98;">f</tspan><tspan x="22.168" y="0" style="font-family:'ProductusBook'; font-size:7.98;">ied</tspan></text>
<polyline style="fill-rule:evenodd;clip-rule:evenodd;" points="32.82,58.2 31.92,58.32 31.08,58.56 30.36,58.98 29.64,59.52 
	29.1,60.18 28.68,60.96 28.44,61.8 28.32,62.7 28.32,66.6 28.44,67.5 28.68,68.34 29.1,69.12 29.64,69.78 30.36,70.32 31.08,70.74 
	31.92,70.98 32.82,71.1 81.6,71.1 82.5,70.98 83.34,70.74 84.12,70.32 84.78,69.78 85.32,69.12 85.74,68.34 85.98,67.5 86.1,66.6 
	86.1,62.7 85.98,61.8 85.74,60.96 85.32,60.18 84.78,59.52 84.12,58.98 83.34,58.56 82.5,58.32 81.6,58.2 32.82,58.2 "/>
<polyline points="32.88,58.44 31.98,58.56 31.14,58.8 31.2,58.8 30.48,59.22 30.54,59.16 29.82,59.7 29.28,60.36 29.34,60.3 
	28.92,61.08 28.92,61.02 28.68,61.86 28.56,62.76 28.56,62.7 28.56,66.6 28.68,67.5 28.68,67.44 28.92,68.28 28.92,68.22 29.34,69 
	29.28,69 29.82,69.66 29.82,69.6 30.54,70.14 30.48,70.14 31.2,70.56 31.14,70.5 31.98,70.74 32.88,70.86 32.82,70.86 81.6,70.86 
	82.5,70.74 82.44,70.74 83.28,70.5 83.22,70.56 84,70.14 84.66,69.6 84.6,69.66 85.14,69 85.56,68.22 85.5,68.28 85.74,67.44 
	85.74,67.5 85.86,66.6 85.86,62.7 85.86,62.76 85.74,61.86 85.5,61.02 85.56,61.08 85.14,60.3 85.14,60.36 84.6,59.7 84.66,59.7 
	84,59.16 84,59.22 83.22,58.8 83.28,58.8 82.44,58.56 82.5,58.56 81.6,58.44 32.82,58.44 32.82,57.96 81.66,57.96 82.56,58.08 
	83.4,58.32 83.46,58.38 84.24,58.8 84.3,58.8 84.96,59.34 84.96,59.4 85.5,60.06 85.56,60.06 85.98,60.84 85.98,60.9 86.22,61.74 
	86.22,61.8 86.34,62.7 86.34,66.66 86.22,67.56 85.98,68.4 85.98,68.46 85.56,69.24 85.5,69.3 84.96,69.96 84.3,70.5 84.24,70.56 
	83.46,70.98 83.4,70.98 82.56,71.22 81.66,71.34 32.82,71.34 31.92,71.22 31.86,71.22 31.02,70.98 30.96,70.98 30.24,70.56 
	30.24,70.5 29.52,69.96 29.46,69.96 28.92,69.3 28.92,69.24 28.5,68.46 28.44,68.4 28.2,67.56 28.08,66.66 28.08,62.7 28.2,61.8 
	28.2,61.74 28.44,60.9 28.5,60.84 28.92,60.06 29.46,59.4 29.52,59.34 30.24,58.8 30.96,58.38 31.02,58.32 31.86,58.08 31.92,58.08 
	32.82,57.96 "/>
<polyline points="32.82,58.44 32.88,58.44 32.82,57.96 "/>
<polyline style="fill-rule:evenodd;clip-rule:evenodd;fill:#FFFFFF;" points="30.9,56.7 30,56.76 29.16,57.06 28.38,57.48 
	27.72,58.02 27.18,58.68 26.76,59.46 26.46,60.3 26.4,61.2 26.4,65.04 26.46,65.94 26.76,66.78 27.18,67.56 27.72,68.22 
	28.38,68.76 29.16,69.18 30,69.48 30.9,69.54 79.62,69.54 80.52,69.48 81.36,69.18 82.14,68.76 82.8,68.22 83.34,67.56 83.76,66.78 
	84,65.94 84.12,65.04 84.12,61.2 84,60.3 83.76,59.46 83.34,58.68 82.8,58.02 82.14,57.48 81.36,57.06 80.52,56.76 79.62,56.7 
	30.9,56.7 "/>
<polyline points="30.96,56.94 30.06,57 30.12,57 29.28,57.3 28.5,57.72 28.56,57.66 27.9,58.2 27.36,58.86 27.42,58.8 27,59.58 
	26.7,60.42 26.7,60.36 26.64,61.26 26.64,61.2 26.64,65.04 26.7,65.94 26.7,65.88 27,66.72 27,66.66 27.42,67.44 27.36,67.44 
	27.9,68.1 27.9,68.04 28.56,68.58 28.5,68.58 29.28,69 29.28,68.94 30.12,69.24 30.06,69.24 30.96,69.3 30.9,69.3 79.62,69.3 
	80.52,69.24 80.46,69.24 81.3,68.94 81.24,69 82.02,68.58 82.68,68.04 82.62,68.1 83.16,67.44 83.58,66.66 83.52,66.72 83.76,65.88 
	83.76,65.94 83.88,65.04 83.88,61.2 83.88,61.26 83.76,60.36 83.52,59.52 83.58,59.58 83.16,58.8 83.16,58.86 82.62,58.2 
	82.68,58.2 82.02,57.66 82.02,57.72 81.24,57.3 81.3,57.3 80.46,57 80.52,57 79.62,56.94 30.9,56.94 30.9,56.46 79.68,56.46 
	80.58,56.52 80.64,56.52 81.48,56.82 81.48,56.88 82.26,57.3 82.32,57.3 82.98,57.84 82.98,57.9 83.52,58.56 83.58,58.56 84,59.34 
	84,59.4 84.24,60.24 84.24,60.3 84.36,61.2 84.36,65.1 84.24,66 84,66.84 84,66.9 83.58,67.68 83.52,67.74 82.98,68.4 82.32,68.94 
	82.26,69 81.48,69.42 80.64,69.72 80.58,69.72 79.68,69.78 30.9,69.78 30,69.72 29.94,69.72 29.1,69.42 29.04,69.42 28.26,69 
	28.26,68.94 27.6,68.4 27.54,68.4 27,67.74 27,67.68 26.58,66.9 26.52,66.9 26.22,66.06 26.22,66 26.16,65.1 26.16,61.2 26.22,60.3 
	26.22,60.24 26.52,59.4 26.58,59.34 27,58.56 27.54,57.9 27.6,57.84 28.26,57.3 29.04,56.88 29.1,56.82 29.94,56.52 30,56.52 
	30.9,56.46 "/>
<polyline points="30.9,56.94 30.96,56.94 30.9,56.46 "/>
<text transform="matrix(1 0 0 1 34.6201 64.8599)"><tspan x="0" y="0" style="font-family:'ProductusSemibold'; font-size:7.98;">R</tspan><tspan x="4.429" y="0" style="font-family:'ProductusSemibold'; font-size:7.98;">E</tspan><tspan x="8.267" y="0" style="font-family:'ProductusSemibold'; font-size:7.98;">G</tspan><tspan x="13.622" y="0" style="font-family:'ProductusSemibold'; font-size:7.98;">I</tspan><tspan x="15.84" y="0" style="font-family:'ProductusSemibold'; font-size:7.98;">STE</tspan><tspan x="28.56" y="0" style="font-family:'ProductusSemibold'; font-size:7.98;">R</tspan><tspan x="32.933" y="0" style="font-family:'ProductusSemibold'; font-size:7.98;">E</tspan><tspan x="36.875" y="0" style="font-family:'ProductusSemibold'; font-size:7.98;">D</tspan></text>
<rect x="43.32" y="21.96" width="0.48" height="4.74"/>
<polyline points="40.8,26.28 41.22,26.52 43.8,22.08 43.8,21.84 43.56,21.42 43.38,21.84 "/>
<polyline points="43.8,21.84 43.38,22.08 45.96,26.52 46.38,26.28 "/>
<rect x="43.32" y="26.46" width="0.48" height="30.72"/>
<rect x="177.959" y="29.04" width="0.48" height="4.74"/>
<polyline points="175.44,33.42 175.86,33.66 178.44,29.16 178.44,28.92 178.2,28.5 178.02,28.92 "/>
<polyline points="178.44,28.92 178.02,29.16 180.6,33.66 181.02,33.42 "/>
<rect x="177.959" y="33.54" width="0.48" height="73.2"/>
<text transform="matrix(1 0 0 1 182.4595 64.3198)"><tspan x="0" y="0" style="font-family:'ProductusBook'; font-size:7.98;">be</tspan><tspan x="7.254" y="0" style="font-family:'ProductusBook'; font-size:7.98;">c</tspan><tspan x="10.254" y="0" style="font-family:'ProductusBook'; font-size:7.98;">o</tspan><tspan x="14.036" y="0" style="font-family:'ProductusBook'; font-size:7.98;">me</tspan><tspan x="23.341" y="0" style="font-family:'ProductusBook'; font-size:7.98;">s</tspan></text>
<text transform="matrix(1 0 0 1 64.7998 82.9199)"><tspan x="0" y="0" style="font-family:'ProductusBook'; font-size:7.98;">g</tspan><tspan x="3.368" y="0" style="font-family:'ProductusBook'; font-size:7.98;">e</tspan><tspan x="6.854" y="0" style="font-family:'ProductusBook'; font-size:7.98;">t</tspan></text>
<text transform="matrix(1 0 0 1 64.7998 92.6401)"><tspan x="0" y="0" style="font-family:'ProductusBook'; font-size:7.98;">se</tspan><tspan x="6.32" y="0" style="font-family:'ProductusBook'; font-size:7.98;">r</tspan><tspan x="8.546" y="0" style="font-family:'ProductusBook'; font-size:7.98;">v</tspan><tspan x="11.778" y="0" style="font-family:'ProductusBook'; font-size:7.98;">ice</tspan></text>
<rect x="156.72" y="29.04" width="0.479" height="4.74"/>
<polyline points="154.2,33.42 154.62,33.66 157.2,29.16 157.2,28.92 156.959,28.5 156.78,28.92 "/>
<polyline points="157.2,28.92 156.78,29.16 159.36,33.66 159.78,33.42 "/>
<rect x="156.72" y="33.54" width="0.479" height="73.2"/>
<text transform="matrix(1 0 0 1 134.3403 66.0601)"><tspan x="0" y="0" style="font-family:'ProductusBook'; font-size:7.98;">u</tspan><tspan x="3.719" y="0" style="font-family:'ProductusBook'; font-size:7.98;">n</tspan><tspan x="7.382" y="0" style="font-family:'ProductusBook'; font-size:7.98;">g</tspan><tspan x="10.749" y="0" style="font-family:'ProductusBook'; font-size:7.98;">e</tspan><tspan x="14.236" y="0" style="font-family:'ProductusBook'; font-size:7.98;">t</tspan></text>
<text transform="matrix(1 0 0 1 134.3403 75.8403)"><tspan x="0" y="0" style="font-family:'ProductusBook'; font-size:7.98;">serv</tspan><tspan x="11.803" y="0" style="font-family:'ProductusBook'; font-size:7.98;">i</tspan><tspan x="13.422" y="0" style="font-family:'ProductusBook'; font-size:7.98;">c</tspan><tspan x="16.423" y="0" style="font-family:'ProductusBook'; font-size:7.98;">e</tspan></text>
<text transform="matrix(1 0 0 1 182.4604 74.04)"><tspan x="0" y="0" style="font-family:'ProductusBook'; font-size:7.98;">u</tspan><tspan x="3.719" y="0" style="font-family:'ProductusBook'; font-size:7.98;">n</tspan><tspan x="7.382" y="0" style="font-family:'ProductusBook'; font-size:7.98;">sa</tspan><tspan x="13.59" y="0" style="font-family:'ProductusBook'; font-size:7.98;">t</tspan><tspan x="15.936" y="0" style="font-family:'ProductusBook'; font-size:7.98;">i</tspan><tspan x="17.5" y="0" style="font-family:'ProductusBook'; font-size:7.98;">s</tspan><tspan x="20.356" y="0" style="font-family:'ProductusBook'; font-size:7.98;">f</tspan><tspan x="22.224" y="0" style="font-family:'ProductusBook'; font-size:7.98;">i</tspan><tspan x="23.828" y="0" style="font-family:'ProductusBook'; font-size:7.98;">e</tspan><tspan x="27.315" y="0" style="font-family:'ProductusBook'; font-size:7.98;">d</tspan></text>
<text transform="matrix(1 0 0 1 49.98 78.48)" style="font-family:'ProductusBook'; font-size:7.98;">1</text>
<polyline points="185.04,106.5 185.04,106.74 185.52,106.8 185.52,106.56 "/>
<polyline points="185.04,106.5 185.16,105.78 185.22,105.72 185.52,105.06 185.52,105 186.06,104.28 186.12,104.22 186.84,103.56 
	187.74,102.96 188.82,102.36 188.88,102.36 190.08,101.82 190.08,101.76 191.459,101.28 192.959,100.8 194.58,100.38 194.64,100.38 
	196.44,100.08 198.3,99.78 200.22,99.54 202.26,99.36 202.26,99.84 202.32,99.84 200.28,100.02 198.36,100.26 196.5,100.56 
	194.7,100.86 193.08,101.28 191.58,101.76 191.64,101.76 190.26,102.24 189.06,102.78 187.98,103.38 187.08,103.98 187.14,103.92 
	186.419,104.58 185.88,105.3 185.94,105.24 185.64,105.9 185.64,105.84 185.52,106.56 "/>
<polyline points="202.26,99.36 204.36,99.24 204.36,99.72 202.26,99.84 "/>
<rect x="206.58" y="99.18" width="0.24" height="0.48"/>
<polyline points="204.36,99.24 204.36,99.72 206.58,99.66 206.58,99.18 "/>
<rect x="206.34" y="99.18" width="0.239" height="0.48"/>
<polyline points="206.58,99.18 208.02,99.24 208.08,99.24 209.459,99.36 210.84,99.54 212.16,99.78 214.56,100.38 214.62,100.44 
	215.7,100.86 216.72,101.34 217.62,101.82 217.68,101.82 218.459,102.36 219.18,102.96 219.78,103.56 219.78,103.62 220.26,104.28 
	220.32,104.28 220.68,105 220.68,105.06 220.2,105.24 220.26,105.24 219.9,104.52 219.9,104.58 219.419,103.92 218.82,103.32 
	218.88,103.32 218.16,102.72 218.16,102.78 217.38,102.24 216.48,101.76 216.54,101.76 215.52,101.28 214.44,100.86 212.04,100.26 
	212.1,100.26 210.78,100.02 209.4,99.84 208.02,99.72 206.58,99.66 "/>
<polyline points="220.68,105.06 220.919,105.72 220.919,105.78 220.44,105.84 220.44,105.9 220.2,105.24 "/>
<polyline points="220.98,106.5 220.98,106.74 220.5,106.8 220.5,106.56 "/>
<polyline points="220.919,105.78 220.44,105.84 220.5,106.56 220.98,106.5 "/>
<polyline points="220.98,106.56 220.98,106.32 220.5,106.26 220.5,106.5 "/>
<polyline points="220.98,106.56 220.86,107.28 220.86,107.34 220.56,108.06 220.5,108.12 219.959,108.84 219.24,109.44 
	218.34,110.1 218.28,110.16 216,111.3 214.62,111.78 214.56,111.78 213.06,112.26 211.44,112.62 209.64,112.98 207.78,113.28 
	205.86,113.52 203.82,113.7 203.76,113.7 203.76,113.22 205.8,113.04 207.72,112.8 209.58,112.5 209.52,112.5 211.32,112.14 
	212.94,111.78 214.44,111.3 215.82,110.82 215.76,110.88 218.04,109.74 218.94,109.08 219.66,108.48 219.6,108.54 220.14,107.82 
	220.14,107.88 220.44,107.16 220.38,107.22 220.5,106.5 "/>
<polyline points="203.76,113.7 201.66,113.82 201.66,113.34 203.76,113.22 "/>
<rect x="199.2" y="113.4" width="0.24" height="0.48"/>
<polyline points="201.66,113.82 201.66,113.34 199.44,113.4 199.44,113.88 "/>
<text transform="matrix(1 0 0 1 226.6196 109.5)"><tspan x="0" y="0" style="font-family:'ProductusBook'; font-size:7.98;">if</tspan><tspan x="3.599" y="0" style="font-family:'ProductusBook'; font-size:7.98;"> </tspan><tspan x="5.163" y="0" style="font-family:'ProductusBook'; font-size:7.98;">dynam</tspan><tspan x="24.817" y="0" style="font-family:'ProductusBook'; font-size:7.98;">i</tspan><tspan x="26.43" y="0" style="font-family:'ProductusBook'; font-size:7.98;">c:</tspan></text>
<text transform="matrix(1 0 0 1 226.6196 119.2197)"><tspan x="0" y="0" style="font-family:'ProductusBook'; font-size:7.98;">r</tspan><tspan x="2.234" y="0" style="font-family:'ProductusBook'; font-size:7.98;">e</tspan><tspan x="5.77" y="0" style="font-family:'ProductusBook'; font-size:7.98;">b</tspan><tspan x="9.488" y="0" style="font-family:'ProductusBook'; font-size:7.98;">i</tspan><tspan x="11.052" y="0" style="font-family:'ProductusBook'; font-size:7.98;">n</tspan><tspan x="14.699" y="0" style="font-family:'ProductusBook'; font-size:7.98;">d</tspan><tspan x="18.418" y="0" style="font-family:'ProductusBook'; font-size:7.98;">i</tspan><tspan x="19.981" y="0" style="font-family:'ProductusBook'; font-size:7.98;">n</tspan><tspan x="23.7" y="0" style="font-family:'ProductusBook'; font-size:7.98;">g</tspan></text>
<text transform="matrix(1 0 0 1 0 87.5996)"><tspan x="0" y="0" style="font-family:'ProductusBook'; font-size:7.98;">s</tspan><tspan x="2.833" y="0" style="font-family:'ProductusBook'; font-size:7.98;">e</tspan><tspan x="6.32" y="0" style="font-family:'ProductusBook'; font-size:7.98;">rvi</tspan><tspan x="13.414" y="0" style="font-family:'ProductusBook'; font-size:7.98;">c</tspan><tspan x="16.415" y="0" style="font-family:'ProductusBook'; font-size:7.98;">efac</tspan><tspan x="28.417" y="0" style="font-family:'ProductusBook'; font-size:7.98;">t</tspan><tspan x="30.762" y="0" style="font-family:'ProductusBook'; font-size:7.98;">o</tspan><tspan x="34.601" y="0" style="font-family:'ProductusBook'; font-size:7.98;">r</tspan><tspan x="36.827" y="0" style="font-family:'ProductusBook'; font-size:7.98;">y:</tspan><tspan x="41.671" y="0" style="font-family:'ProductusBook'; font-size:7.98;"> </tspan><tspan x="43.235" y="0" style="font-family:'ProductusBook'; font-size:7.98;">0</tspan><tspan x="47.161" y="0" style="font-family:'ProductusBook'; font-size:7.98;">.</tspan><tspan x="48.725" y="0" style="font-family:'ProductusBook'; font-size:7.98;">.</tspan><tspan x="50.337" y="0" style="font-family:'ProductusBook'; font-size:7.98;">n</tspan></text>
<text transform="matrix(1 0 0 1 0 97.3193)"><tspan x="0" y="0" style="font-family:'ProductusBook'; font-size:7.98;">othe</tspan><tspan x="13.342" y="0" style="font-family:'ProductusBook'; font-size:7.98;">r</tspan><tspan x="15.569" y="0" style="font-family:'ProductusBook'; font-size:7.98;">w</tspan><tspan x="20.788" y="0" style="font-family:'ProductusBook'; font-size:7.98;">ise:</tspan><tspan x="30.268" y="0" style="font-family:'ProductusBook'; font-size:7.98;"> </tspan><tspan x="31.88" y="0" style="font-family:'ProductusBook'; font-size:7.98;">1</tspan></text>
<polyline points="142.919,14.64 143.1,14.52 142.86,14.1 142.68,14.22 "/>
<polyline points="142.919,14.64 128.7,21.72 128.34,21.48 128.34,21.36 128.459,21.3 142.68,14.22 "/>
<rect x="128.34" y="21.48" width="0.479" height="42.78"/>
<rect x="85.86" y="63.78" width="42.72" height="0.48"/>
<rect x="86.58" y="63.78" width="4.68" height="0.48"/>
<polyline points="90.9,66.78 91.14,66.36 86.7,63.78 86.46,63.78 86.04,64.02 86.46,64.2 "/>
<polyline points="86.46,63.78 86.7,64.2 91.14,61.62 90.9,61.2 "/>
<rect x="107.34" y="63.78" width="0.24" height="0.48"/>
<rect x="91.02" y="63.78" width="16.32" height="0.48"/>
</svg>
