<?xml version="1.0" encoding="utf-8"?>
<!-- Generator: Adobe Illustrator 16.0.1, SVG Export Plug-In . SVG Version: 6.00 Build 0)  -->
<!DOCTYPE svg PUBLIC "-//W3C//DTD SVG 1.1//EN" "http://www.w3.org/Graphics/SVG/1.1/DTD/svg11.dtd">
<svg version="1.1" id="Layer_1" xmlns="http://www.w3.org/2000/svg" xmlns:xlink="http://www.w3.org/1999/xlink" x="0px" y="0px"
	 width="246.578px" height="192px" viewBox="0 0 246.578 192" enable-background="new 0 0 246.578 192" xml:space="preserve">
<rect x="130.141" y="176.88" width="4.68" height="0.479"/>
<polyline points="130.5,174.359 130.26,174.78 134.7,177.359 134.939,177.359 135.359,177.12 134.939,176.939 "/>
<polyline points="134.939,177.359 134.7,176.939 130.26,179.52 130.5,179.939 "/>
<rect x="78.36" y="176.88" width="0.24" height="0.479"/>
<rect x="78.6" y="176.88" width="51.78" height="0.479"/>
<rect x="24.3" y="108.061" width="54.3" height="27"/>
<rect x="24.3" y="107.82" width="54.54" height="0.479"/>
<rect x="78.36" y="108.061" width="0.48" height="27.239"/>
<rect x="24.06" y="134.82" width="54.54" height="0.479"/>
<rect x="24.06" y="107.82" width="0.48" height="27.24"/>
<rect x="21.9" y="106.26" fill="#FFFFFF" width="54.36" height="27"/>
<rect x="21.9" y="106.02" width="54.6" height="0.48"/>
<rect x="76.02" y="106.26" width="0.48" height="27.24"/>
<rect x="21.66" y="133.02" width="54.6" height="0.48"/>
<rect x="21.66" y="106.02" width="0.48" height="27.24"/>
<text transform="matrix(1 0 0 1 24.3003 113.4004)" font-family="'ProductusSemibold'" font-size="7.98">activate</text>
<rect x="137.82" y="44.28" width="54.359" height="27"/>
<rect x="137.82" y="44.04" width="54.601" height="0.48"/>
<rect x="191.939" y="44.28" width="0.48" height="27.24"/>
<rect x="137.581" y="71.04" width="54.601" height="0.48"/>
<rect x="137.581" y="44.04" width="0.479" height="27.24"/>
<rect x="135.48" y="42.479" fill="#FFFFFF" width="54.299" height="27"/>
<rect x="135.48" y="42.24" width="54.539" height="0.479"/>
<rect x="189.541" y="42.479" width="0.479" height="27.24"/>
<rect x="135.24" y="69.24" width="54.539" height="0.479"/>
<rect x="135.24" y="42.24" width="0.48" height="27.24"/>
<text transform="matrix(1 0 0 1 137.8203 49.6191)" font-family="'ProductusSemibold'" font-size="7.98">deactivate</text>
<polyline points="141.66,171.54 140.76,171.66 139.92,171.9 139.141,172.32 138.48,172.859 137.939,173.52 137.52,174.3 
	137.279,175.141 137.16,176.04 137.16,179.939 137.279,180.84 137.52,181.68 137.939,182.46 138.48,183.12 139.141,183.66 
	139.92,184.08 140.76,184.32 141.66,184.439 187.5,184.439 188.4,184.32 189.24,184.08 190.02,183.66 190.68,183.12 191.221,182.46 
	191.641,181.68 191.939,180.84 192,179.939 192,176.04 191.939,175.141 191.641,174.3 191.221,173.52 190.68,172.859 190.02,172.32 
	189.24,171.9 188.4,171.66 187.5,171.54 141.66,171.54 "/>
<polyline points="141.721,171.78 140.82,171.9 139.98,172.141 140.041,172.141 139.26,172.561 139.32,172.5 138.66,173.04 
	138.12,173.7 138.18,173.641 137.76,174.42 137.76,174.359 137.52,175.2 137.4,176.1 137.4,176.04 137.4,179.939 137.52,180.84 
	137.52,180.78 137.76,181.62 137.76,181.561 138.18,182.34 138.12,182.34 138.66,183 138.66,182.939 139.32,183.479 139.26,183.479 
	140.041,183.9 139.98,183.84 140.82,184.08 141.721,184.2 141.66,184.2 187.5,184.2 188.4,184.08 188.34,184.08 189.18,183.84 
	189.12,183.9 189.9,183.479 190.561,182.939 190.5,183 191.041,182.34 191.46,181.561 191.4,181.62 191.7,180.78 191.7,180.84 
	191.76,179.939 191.76,176.04 191.76,176.1 191.7,175.2 191.7,175.26 191.4,174.42 191.46,174.42 191.041,173.641 191.041,173.7 
	190.5,173.04 190.561,173.04 189.9,172.5 189.9,172.561 189.12,172.141 189.18,172.141 188.34,171.9 188.4,171.9 187.5,171.78 
	141.66,171.78 141.66,171.3 187.561,171.3 188.46,171.42 189.3,171.66 189.359,171.72 190.141,172.141 190.2,172.141 
	190.859,172.68 190.859,172.74 191.4,173.4 191.46,173.4 191.88,174.18 191.88,174.24 192.18,175.08 192.18,175.141 192.24,176.04 
	192.24,180 192.18,180.9 192.18,180.96 191.88,181.8 191.46,182.58 191.4,182.641 190.859,183.3 190.2,183.84 190.141,183.9 
	189.359,184.32 189.3,184.32 188.46,184.561 187.561,184.68 141.66,184.68 140.76,184.561 140.7,184.561 139.859,184.32 
	139.8,184.32 139.02,183.9 139.02,183.84 138.359,183.3 138.3,183.3 137.76,182.641 137.76,182.58 137.34,181.8 137.279,181.74 
	137.041,180.9 136.92,180 136.92,176.04 137.041,175.141 137.041,175.08 137.279,174.24 137.34,174.18 137.76,173.4 138.3,172.74 
	138.359,172.68 139.02,172.141 139.8,171.72 139.859,171.66 140.7,171.42 140.76,171.42 141.66,171.3 "/>
<polyline points="141.66,171.78 141.721,171.78 141.66,171.3 "/>
<polyline fill="#FFFFFF" points="139.8,170.04 138.9,170.1 138.061,170.4 137.279,170.82 136.62,171.359 136.081,172.02 
	135.66,172.8 135.42,173.641 135.3,174.54 135.3,178.38 135.42,179.28 135.66,180.12 136.081,180.9 136.62,181.561 137.279,182.1 
	138.061,182.52 138.9,182.82 139.8,182.88 185.641,182.88 186.541,182.82 187.38,182.52 188.16,182.1 188.82,181.561 189.359,180.9 
	189.779,180.12 190.02,179.28 190.141,178.38 190.141,174.54 190.02,173.641 189.779,172.8 189.359,172.02 188.82,171.359 
	188.16,170.82 187.38,170.4 186.541,170.1 185.641,170.04 139.8,170.04 "/>
<polyline points="139.859,170.28 138.96,170.34 139.02,170.34 138.18,170.641 137.4,171.061 137.46,171 136.8,171.54 136.26,172.2 
	136.32,172.141 135.9,172.92 135.9,172.859 135.66,173.7 135.541,174.6 135.541,174.54 135.541,178.38 135.66,179.28 135.66,179.22 
	135.9,180.061 135.9,180 136.32,180.78 136.26,180.78 136.8,181.439 136.8,181.38 137.46,181.92 137.4,181.92 138.18,182.34 
	138.18,182.28 139.02,182.58 138.96,182.58 139.859,182.641 139.8,182.641 185.641,182.641 186.541,182.58 186.48,182.58 
	187.32,182.28 187.26,182.34 188.041,181.92 188.7,181.38 188.641,181.439 189.18,180.78 189.6,180 189.541,180.061 189.779,179.22 
	189.779,179.28 189.9,178.38 189.9,174.54 189.9,174.6 189.779,173.7 189.541,172.859 189.6,172.92 189.18,172.141 189.18,172.2 
	188.641,171.54 188.7,171.54 188.041,171 188.041,171.061 187.26,170.641 187.32,170.641 186.48,170.34 186.541,170.34 
	185.641,170.28 139.8,170.28 139.8,169.8 185.7,169.8 186.6,169.859 186.66,169.859 187.5,170.16 187.5,170.22 188.279,170.641 
	188.34,170.641 189,171.18 189,171.24 189.541,171.9 189.6,171.9 190.02,172.68 190.02,172.74 190.26,173.58 190.26,173.641 
	190.38,174.54 190.38,178.439 190.26,179.34 190.02,180.18 190.02,180.24 189.6,181.02 189.541,181.08 189,181.74 188.34,182.28 
	188.279,182.34 187.5,182.76 186.66,183.061 186.6,183.061 185.7,183.12 139.8,183.12 138.9,183.061 138.84,183.061 138,182.76 
	137.939,182.76 137.16,182.34 137.16,182.28 136.5,181.74 136.439,181.74 135.9,181.08 135.9,181.02 135.48,180.24 135.42,180.18 
	135.18,179.34 135.061,178.439 135.061,174.54 135.18,173.641 135.18,173.58 135.42,172.74 135.48,172.68 135.9,171.9 
	136.439,171.24 136.5,171.18 137.16,170.641 137.939,170.22 138,170.16 138.84,169.859 138.9,169.859 139.8,169.8 "/>
<polyline points="139.8,170.28 139.859,170.28 139.8,169.8 "/>
<text transform="matrix(1 0 0 1 152.084 178.1992)" font-family="'ProductusSemibold'" font-size="7.98">ACTIVE</text>
<rect x="50.04" y="101.04" width="0.48" height="4.68"/>
<polyline points="53.04,101.4 52.62,101.16 50.04,105.6 50.04,105.84 50.28,106.26 50.46,105.84 "/>
<polyline points="50.04,105.84 50.46,105.6 47.88,101.16 47.46,101.4 "/>
<rect x="50.04" y="63.479" width="0.48" height="37.8"/>
<polyline points="28.26,51.06 27.36,51.18 26.52,51.42 25.74,51.84 25.08,52.38 24.54,53.04 24.12,53.82 23.88,54.66 23.76,55.56 
	23.76,59.46 23.88,60.36 24.12,61.2 24.54,61.979 25.08,62.64 25.74,63.18 26.52,63.6 27.36,63.84 28.26,63.96 74.1,63.96 75,63.84 
	75.84,63.6 76.62,63.18 77.28,62.64 77.82,61.979 78.24,61.2 78.54,60.36 78.6,59.46 78.6,55.56 78.54,54.66 78.24,53.82 
	77.82,53.04 77.28,52.38 76.62,51.84 75.84,51.42 75,51.18 74.1,51.06 28.26,51.06 "/>
<polyline points="28.32,51.3 27.42,51.42 26.58,51.66 26.64,51.66 25.86,52.08 25.92,52.02 25.26,52.56 24.72,53.22 24.78,53.16 
	24.36,53.939 24.36,53.88 24.12,54.72 24,55.62 24,55.56 24,59.46 24.12,60.36 24.12,60.3 24.36,61.14 24.36,61.08 24.78,61.86 
	24.72,61.86 25.26,62.52 25.26,62.46 25.92,63 25.86,63 26.64,63.42 26.58,63.36 27.42,63.6 28.32,63.72 28.26,63.72 74.1,63.72 
	75,63.6 74.94,63.6 75.78,63.36 75.72,63.42 76.5,63 77.16,62.46 77.1,62.52 77.64,61.86 78.06,61.08 78,61.14 78.3,60.3 
	78.3,60.36 78.36,59.46 78.36,55.56 78.36,55.62 78.3,54.72 78.3,54.78 78,53.939 78.06,53.939 77.64,53.16 77.64,53.22 77.1,52.56 
	77.16,52.56 76.5,52.02 76.5,52.08 75.72,51.66 75.78,51.66 74.94,51.42 75,51.42 74.1,51.3 28.26,51.3 28.26,50.82 74.16,50.82 
	75.06,50.939 75.9,51.18 75.96,51.24 76.74,51.66 76.8,51.66 77.46,52.2 77.46,52.26 78,52.92 78.06,52.92 78.48,53.7 78.48,53.76 
	78.78,54.6 78.78,54.66 78.84,55.56 78.84,59.52 78.78,60.42 78.78,60.479 78.48,61.32 78.06,62.1 78,62.16 77.46,62.82 76.8,63.36 
	76.74,63.42 75.96,63.84 75.9,63.84 75.06,64.08 74.16,64.2 28.26,64.2 27.36,64.08 27.3,64.08 26.46,63.84 26.4,63.84 25.62,63.42 
	25.62,63.36 24.96,62.82 24.9,62.82 24.36,62.16 24.36,62.1 23.94,61.32 23.88,61.26 23.64,60.42 23.52,59.52 23.52,55.56 
	23.64,54.66 23.64,54.6 23.88,53.76 23.94,53.7 24.36,52.92 24.9,52.26 24.96,52.2 25.62,51.66 26.4,51.24 26.46,51.18 27.3,50.939 
	27.36,50.939 28.26,50.82 "/>
<polyline points="28.26,51.3 28.32,51.3 28.26,50.82 "/>
<polyline fill="#FFFFFF" points="26.4,49.56 25.5,49.62 24.66,49.92 23.88,50.34 23.22,50.88 22.68,51.54 22.26,52.32 22.02,53.16 
	21.9,54.06 21.9,57.9 22.02,58.8 22.26,59.64 22.68,60.42 23.22,61.08 23.88,61.62 24.66,62.04 25.5,62.34 26.4,62.4 72.24,62.4 
	73.14,62.34 73.98,62.04 74.76,61.62 75.42,61.08 75.96,60.42 76.38,59.64 76.68,58.8 76.74,57.9 76.74,54.06 76.68,53.16 
	76.38,52.32 75.96,51.54 75.42,50.88 74.76,50.34 73.98,49.92 73.14,49.62 72.24,49.56 26.4,49.56 "/>
<polyline points="26.46,49.8 25.56,49.86 25.62,49.86 24.78,50.16 24,50.58 24.06,50.52 23.4,51.06 22.86,51.72 22.92,51.66 
	22.5,52.439 22.5,52.38 22.26,53.22 22.14,54.12 22.14,54.06 22.14,57.9 22.26,58.8 22.26,58.74 22.5,59.58 22.5,59.52 22.92,60.3 
	22.86,60.3 23.4,60.96 23.4,60.9 24.06,61.439 24,61.439 24.78,61.86 24.78,61.8 25.62,62.1 25.56,62.1 26.46,62.16 26.4,62.16 
	72.24,62.16 73.14,62.1 73.08,62.1 73.92,61.8 73.86,61.86 74.64,61.439 75.3,60.9 75.24,60.96 75.78,60.3 76.2,59.52 76.14,59.58 
	76.44,58.74 76.44,58.8 76.5,57.9 76.5,54.06 76.5,54.12 76.44,53.22 76.44,53.28 76.14,52.439 76.2,52.439 75.78,51.66 
	75.78,51.72 75.24,51.06 75.3,51.06 74.64,50.52 74.64,50.58 73.86,50.16 73.92,50.16 73.08,49.86 73.14,49.86 72.24,49.8 
	26.4,49.8 26.4,49.32 72.3,49.32 73.2,49.38 73.26,49.38 74.1,49.68 74.1,49.74 74.88,50.16 74.94,50.16 75.6,50.7 75.6,50.76 
	76.14,51.42 76.2,51.42 76.62,52.2 76.62,52.26 76.92,53.1 76.92,53.16 76.98,54.06 76.98,57.96 76.92,58.86 76.92,58.92 
	76.62,59.76 76.2,60.54 76.14,60.6 75.6,61.26 74.94,61.8 74.88,61.86 74.1,62.28 73.26,62.58 73.2,62.58 72.3,62.64 26.4,62.64 
	25.5,62.58 25.44,62.58 24.6,62.28 24.54,62.28 23.76,61.86 23.76,61.8 23.1,61.26 23.04,61.26 22.5,60.6 22.5,60.54 22.08,59.76 
	22.02,59.7 21.78,58.86 21.66,57.96 21.66,54.06 21.78,53.16 21.78,53.1 22.02,52.26 22.08,52.2 22.5,51.42 23.04,50.76 23.1,50.7 
	23.76,50.16 24.54,49.74 24.6,49.68 25.44,49.38 25.5,49.38 26.4,49.32 "/>
<polyline points="26.4,49.8 26.46,49.8 26.4,49.32 "/>
<text transform="matrix(1 0 0 1 35.1064 57.9004)" font-family="'ProductusSemibold'" font-size="7.98">FACTORY</text>
<rect x="177.6" y="135.061" width="0.48" height="4.739"/>
<polyline points="175.081,139.439 175.5,139.68 178.081,135.18 178.081,134.939 177.84,134.52 177.66,134.939 "/>
<polyline points="178.081,134.939 177.66,135.18 180.24,139.68 180.66,139.439 "/>
<rect x="177.6" y="139.561" width="0.48" height="30.72"/>
<text transform="matrix(1 0 0 1 180.7207 149.04)" enable-background="new    "><tspan x="0" y="0" font-family="'ProductusBook'" font-size="7.98">becomes</tspan><tspan x="0" y="9.576" font-family="'ProductusBook'" font-size="7.98">unsatisfied</tspan></text>
<text transform="matrix(1 0 0 1 53.7598 87.2998)" font-family="'ProductusBook'" font-size="7.98">newInstance</text>
<rect x="149.221" y="135.061" width="0.479" height="4.739"/>
<polyline points="146.76,139.439 147.18,139.68 149.7,135.18 149.7,134.939 149.46,134.52 149.279,134.939 "/>
<polyline points="149.7,134.939 149.279,135.18 151.859,139.68 152.279,139.439 "/>
<rect x="149.221" y="139.561" width="0.479" height="30.72"/>
<text transform="matrix(1 0 0 1 126.8398 153.2393)" font-family="'ProductusBook'" font-size="7.98">dispose</text>
<text transform="matrix(1 0 0 1 35.9399 103.6191)" font-family="'ProductusBook'" font-size="7.98">0..n</text>
<text transform="matrix(1 0 0 1 42.3599 70.7393)" font-family="'ProductusBook'" font-size="7.98">1</text>
<polyline points="177.6,170.04 177.6,170.28 178.081,170.34 178.081,170.1 "/>
<polyline points="177.6,170.04 177.721,169.32 177.779,169.26 178.081,168.54 178.081,168.479 178.62,167.82 178.68,167.76 
	179.4,167.1 180.3,166.439 181.32,165.9 181.38,165.9 182.641,165.359 184.02,164.82 184.02,164.76 185.52,164.34 187.141,163.92 
	188.88,163.561 188.939,163.561 190.8,163.26 192.779,163.02 194.82,162.84 194.82,163.32 194.88,163.32 192.84,163.5 
	190.859,163.74 189,164.04 187.26,164.4 185.641,164.82 184.141,165.24 184.2,165.24 182.82,165.78 181.561,166.32 180.541,166.859 
	180.6,166.8 179.7,167.46 178.98,168.12 178.439,168.78 178.5,168.72 178.2,169.439 178.2,169.38 178.081,170.1 "/>
<polyline points="194.82,162.84 196.92,162.72 196.92,163.2 194.82,163.32 "/>
<rect x="196.92" y="162.72" width="2.398" height="0.48"/>
<rect x="198.84" y="162.72" width="0.24" height="0.48"/>
<polyline points="199.081,162.72 200.581,162.72 202.02,162.84 203.34,163.02 204.66,163.26 205.92,163.561 207.061,163.92 
	207.12,163.979 208.2,164.4 209.221,164.82 210.12,165.359 210.96,165.9 211.02,165.9 211.74,166.439 211.74,166.5 212.34,167.16 
	212.82,167.82 212.88,167.82 213.24,168.479 213.24,168.54 212.76,168.66 212.82,168.72 212.46,168.061 212.46,168.12 
	211.98,167.46 211.38,166.8 211.439,166.8 210.721,166.26 210.721,166.32 209.88,165.78 208.98,165.24 209.041,165.24 
	208.02,164.82 206.939,164.4 205.8,164.04 204.541,163.74 204.6,163.74 203.279,163.5 201.96,163.32 200.52,163.2 199.081,163.2 "/>
<polyline points="213.24,168.54 213.42,169.26 213.42,169.32 212.939,169.38 212.76,168.66 "/>
<polyline points="213.48,170.04 213.48,170.28 213,170.34 213,170.1 "/>
<polyline points="213.42,169.32 212.939,169.38 213,170.1 213.48,170.04 "/>
<polyline points="213.48,170.1 213.48,169.859 213,169.8 213,170.04 "/>
<polyline points="213.48,170.1 213.42,170.82 213.42,170.88 213.061,171.6 213,171.66 212.52,172.32 211.8,172.979 211.74,173.04 
	210.84,173.641 209.76,174.24 208.561,174.78 207.18,175.26 207.12,175.26 205.561,175.74 203.939,176.16 202.2,176.52 
	200.34,176.82 198.359,177.061 198.3,177.061 196.32,177.18 196.32,176.7 198.3,176.58 200.279,176.34 202.141,176.04 
	202.081,176.04 203.82,175.68 205.439,175.26 207,174.78 208.38,174.3 208.38,174.359 209.581,173.82 209.52,173.82 210.6,173.22 
	211.5,172.62 212.221,171.96 212.16,172.02 212.641,171.359 213,170.641 212.939,170.76 213,170.04 "/>
<polyline points="196.32,177.18 194.16,177.3 194.16,176.82 196.32,176.7 "/>
<rect x="191.76" y="176.88" width="0.24" height="0.479"/>
<polyline points="194.16,177.3 194.16,176.82 192,176.88 192,177.359 "/>
<text transform="matrix(1 0 0 1 217.0195 170.5195)" enable-background="new    "><tspan x="0" y="0" font-family="'ProductusBook'" font-size="7.98">rebinding</tspan><tspan x="0" y="9.576" font-family="'ProductusBook'" font-size="7.98">if dynamic</tspan></text>
<rect x="24.3" y="164.76" width="54.3" height="27"/>
<rect x="24.3" y="164.52" width="54.54" height="0.48"/>
<rect x="78.36" y="164.76" width="0.48" height="27.24"/>
<rect x="24.06" y="191.52" width="54.54" height="0.48"/>
<rect x="24.06" y="164.52" width="0.48" height="27.24"/>
<rect x="21.9" y="162.96" fill="#FFFFFF" width="54.36" height="27"/>
<rect x="21.9" y="162.72" width="54.6" height="0.48"/>
<rect x="76.02" y="162.96" width="0.48" height="27.24"/>
<rect x="21.66" y="189.72" width="54.6" height="0.48"/>
<rect x="21.66" y="162.72" width="0.48" height="27.24"/>
<text transform="matrix(1 0 0 1 24.3003 170.0996)" font-family="'ProductusSemibold'" font-size="7.98">register</text>
<rect x="50.04" y="157.74" width="0.48" height="4.68"/>
<polyline points="53.04,158.1 52.62,157.859 50.04,162.3 50.04,162.54 50.28,162.96 50.46,162.54 "/>
<polyline points="50.04,162.54 50.46,162.3 47.88,157.859 47.46,158.1 "/>
<rect x="50.04" y="134.34" width="0.48" height="0.24"/>
<rect x="50.04" y="134.58" width="0.48" height="23.4"/>
<rect x="137.7" y="108.061" width="54.301" height="27"/>
<rect x="137.7" y="107.82" width="54.54" height="0.479"/>
<rect x="191.76" y="108.061" width="0.479" height="27.239"/>
<rect x="137.46" y="134.82" width="54.54" height="0.479"/>
<rect x="137.46" y="107.82" width="0.479" height="27.24"/>
<rect x="135.3" y="106.26" fill="#FFFFFF" width="54.359" height="27"/>
<rect x="135.3" y="106.02" width="54.601" height="0.48"/>
<rect x="189.42" y="106.26" width="0.479" height="27.24"/>
<rect x="135.061" y="133.02" width="54.6" height="0.48"/>
<rect x="135.061" y="106.02" width="0.479" height="27.24"/>
<text transform="matrix(1 0 0 1 137.6992 113.4004)" font-family="'ProductusSemibold'" font-size="7.98">unregister</text>
<rect x="163.439" y="71.28" width="0.48" height="4.74"/>
<polyline points="160.92,75.66 161.34,75.9 163.92,71.4 163.92,71.16 163.74,70.86 163.5,71.16 "/>
<polyline points="163.92,71.16 163.5,71.4 166.02,75.9 166.439,75.66 "/>
<rect x="163.439" y="106.26" width="0.48" height="0.24"/>
<rect x="163.439" y="75.78" width="0.48" height="30.479"/>
<polyline fill="#FFFFFF" points="25.92,0.24 25.02,0.36 24.18,0.6 23.4,1.02 22.74,1.56 22.2,2.22 21.78,3 21.54,3.84 21.42,4.74 
	21.42,8.64 21.54,9.54 21.78,10.38 22.2,11.16 22.74,11.82 23.4,12.36 24.18,12.78 25.02,13.02 25.92,13.14 71.76,13.14 
	72.66,13.02 73.5,12.78 74.28,12.36 74.94,11.82 75.48,11.16 75.9,10.38 76.2,9.54 76.26,8.64 76.26,4.74 76.2,3.84 75.9,3 
	75.48,2.22 74.94,1.56 74.28,1.02 73.5,0.6 72.66,0.36 71.76,0.24 25.92,0.24 "/>
<polyline points="25.98,0.479 25.08,0.6 24.24,0.84 24.3,0.84 23.52,1.26 23.58,1.2 22.92,1.74 22.38,2.4 22.44,2.34 22.02,3.12 
	22.02,3.06 21.78,3.9 21.66,4.8 21.66,4.74 21.66,8.64 21.78,9.54 21.78,9.479 22.02,10.32 22.02,10.26 22.44,11.04 22.38,11.04 
	22.92,11.7 22.92,11.64 23.58,12.18 23.52,12.18 24.3,12.6 24.24,12.54 25.08,12.78 25.98,12.9 25.92,12.9 71.76,12.9 72.66,12.78 
	72.6,12.78 73.44,12.54 73.38,12.6 74.16,12.18 74.82,11.64 74.76,11.7 75.3,11.04 75.72,10.26 75.66,10.32 75.96,9.479 75.96,9.54 
	76.02,8.64 76.02,4.74 76.02,4.8 75.96,3.9 75.96,3.96 75.66,3.12 75.72,3.12 75.3,2.34 75.3,2.4 74.76,1.74 74.82,1.74 74.16,1.2 
	74.16,1.26 73.38,0.84 73.44,0.84 72.6,0.6 72.66,0.6 71.76,0.479 25.92,0.479 25.92,0 71.82,0 72.72,0.12 73.56,0.36 73.62,0.42 
	74.4,0.84 74.46,0.84 75.12,1.38 75.12,1.439 75.66,2.1 75.72,2.1 76.14,2.88 76.14,2.939 76.44,3.78 76.44,3.84 76.5,4.74 
	76.5,8.7 76.44,9.6 76.44,9.66 76.14,10.5 75.72,11.28 75.66,11.34 75.12,12 74.46,12.54 74.4,12.6 73.62,13.02 73.56,13.02 
	72.72,13.26 71.82,13.38 25.92,13.38 25.02,13.26 24.96,13.26 24.12,13.02 24.06,13.02 23.28,12.6 23.28,12.54 22.62,12 22.56,12 
	22.02,11.34 22.02,11.28 21.6,10.5 21.54,10.439 21.3,9.6 21.18,8.7 21.18,4.74 21.3,3.84 21.3,3.78 21.54,2.939 21.6,2.88 
	22.02,2.1 22.56,1.439 22.62,1.38 23.28,0.84 24.06,0.42 24.12,0.36 24.96,0.12 25.02,0.12 25.92,0 "/>
<polyline points="25.92,0.479 25.98,0.479 25.92,0 "/>
<text transform="matrix(1 0 0 1 29.7607 9.46)" font-family="'ProductusSemibold'" font-size="7.98">UNSATISFIED</text>
<rect x="63.54" y="44.46" width="0.48" height="4.68"/>
<polyline points="66.54,44.82 66.12,44.58 63.54,49.02 63.54,49.26 63.72,49.56 63.96,49.26 "/>
<polyline points="63.54,49.26 63.96,49.02 61.44,44.58 61.02,44.82 "/>
<rect x="63.54" y="13.979" width="0.48" height="0.24"/>
<rect x="63.54" y="14.22" width="0.48" height="30.48"/>
<text transform="matrix(1 0 0 1 68.2803 27.2998)" enable-background="new    "><tspan x="0" y="0" font-family="'ProductusBook'" font-size="7.98">becomes</tspan><tspan x="0" y="9.576" font-family="'ProductusBook'" font-size="7.98">satisfied</tspan></text>
<text transform="matrix(1 0 0 1 0 28.6797)" enable-background="new    "><tspan x="0" y="0" font-family="'ProductusBook'" font-size="7.98">becomes</tspan><tspan x="0" y="9.576" font-family="'ProductusBook'" font-size="7.98">unsatisfied</tspan></text>
<rect x="35.22" y="14.7" width="0.48" height="4.68"/>
<polyline points="32.7,19.02 33.12,19.26 35.7,14.82 35.7,14.58 35.46,14.16 35.28,14.58 "/>
<polyline points="35.7,14.58 35.28,14.82 37.86,19.26 38.28,19.02 "/>
<rect x="35.22" y="49.62" width="0.48" height="0.24"/>
<rect x="35.22" y="19.14" width="0.48" height="30.48"/>
</svg>
