<?xml version="1.0" encoding="utf-8"?>
<!-- Generator: Adobe Illustrator 21.1.0, SVG Export Plug-In . SVG Version: 6.00 Build 0)  -->
<!DOCTYPE svg PUBLIC "-//W3C//DTD SVG 1.1//EN" "http://www.w3.org/Graphics/SVG/1.1/DTD/svg11.dtd">
<svg version="1.1" id="Layer_1" xmlns="http://www.w3.org/2000/svg" xmlns:xlink="http://www.w3.org/1999/xlink" x="0px" y="0px"
	 viewBox="0 0 115.4 206.3" style="enable-background:new 0 0 115.4 206.3;" xml:space="preserve">
<style type="text/css">
	.st0{enable-background:new    ;}
	.st1{font-family:'ProductusBook';}
	.st2{font-size:7.98px;}
	.st3{stroke:#000000;stroke-miterlimit:10;}
	.st4{fill:#FFFFFF;stroke:#000000;stroke-miterlimit:10;}
	.st5{font-family:'ProductusSemibold';}
	.st6{fill:#FFFFFF;}
	.st7{fill:#202020;}
	.st8{fill:none;}
	.st9{fill:none;stroke:#000000;stroke-width:0.75;stroke-miterlimit:10;}
</style>
<text transform="matrix(1 0 0 1 38.4444 40.6076)" class="st0"><tspan x="0" y="0" class="st1 st2">obtain standard</tspan><tspan x="0" y="9.6" class="st1 st2">converter</tspan></text>
<text transform="matrix(1 0 0 1 38.4449 154.6787)" class="st1 st2">1..n </text>
<g>
	<rect x="2.9" y="118.8" class="st3" width="65.9" height="29.4"/>
	<rect x="0.7" y="116.9" class="st4" width="65.9" height="29.4"/>
	<text transform="matrix(1 0 0 1 3.8503 125.6656)" class="st1 st2">&lt;&lt;interface&gt;&gt;</text>
	<text transform="matrix(1 0 0 1 3.8503 134.4858)" class="st5 st2">Converter</text>
	<text transform="matrix(1 0 0 1 3.8503 144.0619)" class="st5 st2">Builder</text>
</g>
<g>
	<rect x="8.5" y="4" width="54.3" height="26.6"/>
	<rect x="8.5" y="3.7" width="54.5" height="0.5"/>
	<rect x="62.6" y="4" width="0.5" height="26.8"/>
	<rect x="8.3" y="30.3" width="54.5" height="0.5"/>
	<rect x="8.3" y="3.7" width="0.5" height="26.8"/>
	<rect x="6.1" y="2.2" class="st6" width="54.4" height="26.6"/>
	<rect x="6.1" y="2" width="54.6" height="0.5"/>
	<rect x="60.3" y="2.2" width="0.5" height="26.8"/>
	<rect x="5.9" y="28.6" width="54.6" height="0.5"/>
	<rect x="5.9" y="2" width="0.5" height="26.8"/>
	<text transform="matrix(0.9504 0 0 1 8.541 9.3061)" class="st1 st2">Converters</text>
</g>
<g>
	<rect x="3.3" y="60.7" class="st3" width="65.9" height="29.4"/>
	<rect x="1.2" y="58.8" class="st4" width="65.9" height="29.4"/>
	<text transform="matrix(1 0 0 1 4.3493 67.585)" class="st1 st2">&lt;&lt;interface&gt;&gt;</text>
	<text transform="matrix(1 0 0 1 4.3493 76.4053)" class="st5 st2">Converter</text>
</g>
<g>
	<rect x="2.1" y="176.9" class="st3" width="65.9" height="29.4"/>
	<rect y="175" class="st4" width="65.9" height="29.4"/>
	<text transform="matrix(1 0 0 1 3.1008 183.7461)" class="st1 st2">&lt;&lt;interface&gt;&gt;</text>
	<text transform="matrix(1 0 0 1 3.1008 192.5664)" class="st5 st2">TargetRule</text>
</g>
<g>
	<g>
		<g>
			<polygon class="st7" points="34.4,30.8 34.4,53.1 31.5,53.1 34.8,58.8 38.1,53.1 35.2,53.1 35.2,30.8 			"/>
		</g>
	</g>
</g>
<g>
	<g>
		<g>
			<polygon class="st7" points="34.8,88.9 34.8,111.2 32,111.2 35.2,116.9 38.5,111.2 35.6,111.2 35.6,88.9 			"/>
		</g>
	</g>
</g>
<text transform="matrix(1 0 0 1 38.4446 98.9459)" class="st0"><tspan x="0" y="0" class="st1 st2">obtain converter</tspan><tspan x="0" y="9.6" class="st1 st2">builder</tspan></text>
<g>
	<g>
		<g>
			<path class="st7" d="M67.7,133.9h24.8h12.4h6.2h3.3h0.9h0.4c0,0,0.1,0,0.1,0v-0.1v-0.2v-1.7V82.1v-7v-1.9c0-0.1,0,0-0.1,0h-0.1
				h-0.2h-0.5h-1h-3.6H96.6H75.1v-2.9l-2.6,1.5l-3.1,1.8l3.1,1.8l2.6,1.5v-2.9h21.5h13.7h3.2c0.5,0,1,0,1.5,0v1.5v6.7v49.3v1.4v0.2
				v0.1c0,0-0.1,0-0.1,0h-0.3h-0.7H111h-6.2H92.5H67.7V133.9z"/>
		</g>
	</g>
</g>
<rect x="71" y="124.2" class="st8" width="41.1" height="18.6"/>
<text transform="matrix(1 0 0 1 70.9884 130.8497)" class="st0"><tspan x="0" y="0" class="st1 st2">create custom</tspan><tspan x="0" y="9.6" class="st1 st2">converter</tspan></text>
<line class="st9" x1="36.2" y1="175" x2="36.2" y2="148.2"/>
</svg>
