<?xml version="1.0" encoding="utf-8"?>
<!-- Generator: Adobe Illustrator 16.0.0, SVG Export Plug-In . SVG Version: 6.00 Build 0)  -->
<!DOCTYPE svg PUBLIC "-//W3C//DTD SVG 1.1//EN" "http://www.w3.org/Graphics/SVG/1.1/DTD/svg11.dtd">
<svg version="1.1" id="Layer_1" xmlns="http://www.w3.org/2000/svg" xmlns:xlink="http://www.w3.org/1999/xlink" x="0px" y="0px"
	 width="170.58px" height="170.58px" viewBox="0 0 170.58 170.58" style="enable-background:new 0 0 170.58 170.58;"
	 xml:space="preserve">
<rect x="0.24" y="0.24" style="fill:#E6E6E6;" width="170.1" height="170.1"/>
<rect x="0.24" width="170.34" height="0.48"/>
<rect x="170.1" y="0.24" width="0.48" height="170.34"/>
<rect y="170.1" width="170.34" height="0.48"/>
<rect width="0.48" height="170.34"/>
<rect x="8.4" y="8.4" style="fill:#FFFFFF;" width="28.38" height="141.78"/>
<rect x="8.4" y="8.16" width="28.62" height="0.48"/>
<rect x="36.54" y="8.4" width="0.48" height="142.02"/>
<rect x="8.16" y="149.94" width="28.62" height="0.48"/>
<rect x="8.16" y="8.16" width="0.48" height="142.02"/>
<rect x="99.479" y="14.4" style="fill:#FFFFFF;" width="56.7" height="14.22"/>
<rect x="99.479" y="14.16" width="56.94" height="0.48"/>
<rect x="155.94" y="14.4" width="0.479" height="14.46"/>
<rect x="99.24" y="28.38" width="56.939" height="0.48"/>
<rect x="99.24" y="14.16" width="0.479" height="14.46"/>
<text transform="matrix(1 0 0 1 114 22.5)"><tspan x="0" y="0" style="font-family:'ProductusSemibold'; font-size:7.98;">Servic</tspan><tspan x="21.227" y="0" style="font-family:'ProductusSemibold'; font-size:7.98;">e</tspan></text>
<rect x="99.479" y="56.94" style="fill:#FFFFFF;" width="56.7" height="14.16"/>
<rect x="99.479" y="56.7" width="56.94" height="0.48"/>
<rect x="155.94" y="56.94" width="0.479" height="14.4"/>
<rect x="99.24" y="70.86" width="56.939" height="0.48"/>
<rect x="99.24" y="56.7" width="0.479" height="14.4"/>
<text transform="matrix(1 0 0 1 110.1602 65.04)"><tspan x="0" y="0" style="font-family:'ProductusSemibold'; font-size:7.98;">L</tspan><tspan x="3.646" y="0" style="font-family:'ProductusSemibold'; font-size:7.98;">i</tspan><tspan x="5.865" y="0" style="font-family:'ProductusSemibold'; font-size:7.98;">f</tspan><tspan x="8.498" y="0" style="font-family:'ProductusSemibold'; font-size:7.98;">e</tspan><tspan x="12.632" y="0" style="font-family:'ProductusSemibold'; font-size:7.98;"> </tspan><tspan x="14.611" y="0" style="font-family:'ProductusSemibold'; font-size:7.98;">C</tspan><tspan x="19.168" y="0" style="font-family:'ProductusSemibold'; font-size:7.98;">y</tspan><tspan x="23.062" y="0" style="font-family:'ProductusSemibold'; font-size:7.98;">cl</tspan><tspan x="28.871" y="0" style="font-family:'ProductusSemibold'; font-size:7.98;">e</tspan></text>
<rect x="99.479" y="99.48" style="fill:#FFFFFF;" width="56.7" height="14.16"/>
<rect x="99.479" y="99.24" width="56.94" height="0.48"/>
<rect x="155.94" y="99.48" width="0.479" height="14.4"/>
<rect x="99.24" y="113.4" width="56.939" height="0.48"/>
<rect x="99.24" y="99.24" width="0.479" height="14.4"/>
<text transform="matrix(1 0 0 1 113.7002 107.5801)"><tspan x="0" y="0" style="font-family:'ProductusSemibold'; font-size:7.98;">Mod</tspan><tspan x="15.433" y="0" style="font-family:'ProductusSemibold'; font-size:7.98;">ul</tspan><tspan x="21.841" y="0" style="font-family:'ProductusSemibold'; font-size:7.98;">e</tspan></text>
<rect x="99.479" y="141.96" style="fill:#FFFFFF;" width="56.7" height="14.22"/>
<rect x="99.479" y="141.72" width="56.94" height="0.48"/>
<rect x="155.94" y="141.96" width="0.479" height="14.46"/>
<rect x="99.24" y="155.94" width="56.939" height="0.48"/>
<rect x="99.24" y="141.72" width="0.479" height="14.46"/>
<text transform="matrix(1 0 0 1 122.7598 150.1201)"><tspan x="0" y="0" style="font-family:'ProductusSemibold'; font-size:7.98;">E</tspan><tspan x="3.958" y="0" style="font-family:'ProductusSemibold'; font-size:7.98;">E</tspan></text>
<polyline points="127.8,40.14 124.5,40.14 124.68,39.48 127.8,28.56 130.92,39.48 131.1,40.14 130.44,40.14 129.96,39.78 
	127.32,30.54 128.28,30.24 128.28,30.54 125.64,39.78 124.68,39.48 125.16,39.12 127.8,39.12 "/>
<rect x="127.8" y="39.12" width="2.641" height="1.02"/>
<polyline style="fill-rule:evenodd;clip-rule:evenodd;" points="127.8,39.66 125.16,39.66 127.8,30.42 130.44,39.66 "/>
<rect x="127.56" y="56.94" width="0.48" height="0.24"/>
<rect x="127.56" y="39.9" width="0.48" height="17.04"/>
<text transform="matrix(1 0 0 1 133.2598 47.52)"><tspan x="0" y="0" style="font-family:'ProductusBook'; font-size:7.98;">mana</tspan><tspan x="16.056" y="0" style="font-family:'ProductusBook'; font-size:7.98;">g</tspan><tspan x="19.359" y="0" style="font-family:'ProductusBook'; font-size:7.98;">e</tspan></text>
<rect x="14.4" y="14.4" style="fill:#FFFFFF;" width="28.38" height="141.78"/>
<rect x="14.4" y="14.16" width="28.62" height="0.48"/>
<rect x="42.54" y="14.4" width="0.48" height="142.02"/>
<rect x="14.16" y="155.94" width="28.62" height="0.48"/>
<rect x="14.16" y="14.16" width="0.48" height="142.02"/>
<polyline points="87.96,64.02 87.96,60.72 88.62,60.9 97.8,63.54 99.479,64.02 97.8,64.5 88.62,67.14 87.96,67.32 87.96,66.66 
	88.32,66.18 97.5,63.54 97.8,64.5 97.5,64.5 88.32,61.86 88.62,60.9 88.979,61.38 88.979,64.02 "/>
<rect x="87.96" y="64.02" width="1.02" height="2.64"/>
<polyline style="fill-rule:evenodd;clip-rule:evenodd;" points="88.44,64.02 88.44,61.38 97.62,64.02 88.44,66.66 "/>
<polyline points="54.3,64.02 54.3,67.32 53.64,67.14 42.72,64.02 53.64,60.9 54.3,60.72 54.3,61.38 53.94,61.86 44.7,64.5 
	44.4,63.54 44.7,63.54 53.94,66.18 53.64,67.14 53.28,66.66 53.28,64.02 "/>
<rect x="53.28" y="61.38" width="1.02" height="2.64"/>
<polyline style="fill-rule:evenodd;clip-rule:evenodd;" points="53.82,64.02 53.82,66.66 44.58,64.02 53.82,61.38 "/>
<rect x="87.9" y="63.78" width="0.239" height="0.48"/>
<rect x="54.06" y="63.78" width="33.84" height="0.48"/>
<text transform="matrix(1 0 0 1 63.1201 61.6797)" style="font-family:'ProductusBook'; font-size:7.98;">start</text>
<polyline points="87.96,21.54 87.96,18.18 88.62,18.36 97.8,21.06 99.479,21.54 97.8,22.02 88.62,24.66 87.96,24.84 87.96,24.18 
	88.32,23.7 97.5,21.06 97.8,22.02 97.5,22.02 88.32,19.32 88.62,18.36 88.979,18.84 88.979,21.54 "/>
<rect x="87.96" y="21.54" width="1.02" height="2.64"/>
<polyline style="fill-rule:evenodd;clip-rule:evenodd;" points="88.44,21.54 88.44,18.84 97.62,21.54 88.44,24.18 "/>
<rect x="42.54" y="21.3" width="0.24" height="0.48"/>
<rect x="42.78" y="21.3" width="45.36" height="0.48"/>
<text transform="matrix(1 0 0 1 54.4199 9.6597)" style="font-family:'ProductusBook'; font-size:7.98;">register</text>
<text transform="matrix(1 0 0 1 50.7603 19.3794)"><tspan x="0" y="0" style="font-family:'ProductusBook'; font-size:7.98;">u</tspan><tspan x="3.679" y="0" style="font-family:'ProductusBook'; font-size:7.98;">n</tspan><tspan x="7.397" y="0" style="font-family:'ProductusBook'; font-size:7.98;">regis</tspan><tspan x="21.027" y="0" style="font-family:'ProductusBook'; font-size:7.98;">t</tspan><tspan x="23.421" y="0" style="font-family:'ProductusBook'; font-size:7.98;">e</tspan><tspan x="26.956" y="0" style="font-family:'ProductusBook'; font-size:7.98;">r</tspan></text>
<text transform="matrix(1 0 0 1 63.6001 71.3994)" style="font-family:'ProductusBook'; font-size:7.98;">stop</text>
<polyline points="87.96,106.56 87.96,103.26 88.62,103.44 97.8,106.08 99.479,106.56 97.8,107.04 88.62,109.68 87.96,109.86 
	87.96,109.2 88.32,108.72 97.5,106.08 97.8,107.04 97.5,107.04 88.32,104.4 88.62,103.44 88.979,103.92 88.979,106.56 "/>
<rect x="87.96" y="106.56" width="1.02" height="2.64"/>
<polyline style="fill-rule:evenodd;clip-rule:evenodd;" points="88.44,106.56 88.44,103.92 97.62,106.56 88.44,109.2 "/>
<rect x="42.54" y="106.32" width="0.24" height="0.48"/>
<rect x="42.78" y="106.32" width="45.36" height="0.48"/>
<text transform="matrix(1 0 0 1 53.9399 104.2197)"><tspan x="0" y="0" style="font-family:'ProductusBook'; font-size:7.98;">class</tspan><tspan x="13.598" y="0" style="font-family:'ProductusBook'; font-size:7.98;"> </tspan><tspan x="15.209" y="0" style="font-family:'ProductusBook'; font-size:7.98;">lo</tspan><tspan x="20.556" y="0" style="font-family:'ProductusBook'; font-size:7.98;">a</tspan><tspan x="23.916" y="0" style="font-family:'ProductusBook'; font-size:7.98;">d</tspan></text>
<polyline points="87.96,149.1 87.96,145.8 88.62,145.98 97.8,148.62 99.479,149.1 97.8,149.58 88.62,152.22 87.96,152.4 
	87.96,151.74 88.32,151.26 97.5,148.62 97.8,149.58 97.5,149.58 88.32,146.94 88.62,145.98 88.979,146.46 88.979,149.1 "/>
<rect x="87.96" y="149.1" width="1.02" height="2.64"/>
<polyline style="fill-rule:evenodd;clip-rule:evenodd;" points="88.44,149.1 88.44,146.46 97.62,149.1 88.44,151.74 "/>
<rect x="42.54" y="148.86" width="0.24" height="0.48"/>
<rect x="42.78" y="148.86" width="45.36" height="0.48"/>
<text transform="matrix(1 0 0 1 54.7197 146.6997)"><tspan x="0" y="0" style="font-family:'ProductusBook'; font-size:7.98;">e</tspan><tspan x="3.535" y="0" style="font-family:'ProductusBook'; font-size:7.98;">x</tspan><tspan x="6.536" y="0" style="font-family:'ProductusBook'; font-size:7.98;">ec</tspan><tspan x="13.191" y="0" style="font-family:'ProductusBook'; font-size:7.98;">u</tspan><tspan x="16.854" y="0" style="font-family:'ProductusBook'; font-size:7.98;">t</tspan><tspan x="19.247" y="0" style="font-family:'ProductusBook'; font-size:7.98;">e</tspan></text>
<polyline points="127.8,87.96 131.1,87.96 130.92,88.62 127.8,99.54 124.68,88.62 124.5,87.96 125.16,87.96 125.64,88.32 
	128.28,97.56 127.32,97.86 127.32,97.56 129.96,88.32 130.92,88.62 130.44,88.98 127.8,88.98 "/>
<rect x="125.16" y="87.96" width="2.64" height="1.02"/>
<polyline style="fill-rule:evenodd;clip-rule:evenodd;" points="127.8,88.44 130.44,88.44 127.8,97.68 125.16,88.44 "/>
<rect x="127.56" y="70.86" width="0.48" height="0.24"/>
<rect x="127.56" y="71.1" width="0.48" height="17.1"/>
<text transform="matrix(1 0 0 1 140.8799 82.9199)"><tspan x="0" y="0" style="font-family:'ProductusBook'; font-size:7.98;">I</tspan><tspan x="1.604" y="0" style="font-family:'ProductusBook'; font-size:7.98;">n</tspan><tspan x="5.267" y="0" style="font-family:'ProductusBook'; font-size:7.98;">st</tspan><tspan x="10.493" y="0" style="font-family:'ProductusBook'; font-size:7.98;">a</tspan><tspan x="13.797" y="0" style="font-family:'ProductusBook'; font-size:7.98;">ll</tspan></text>
<text transform="matrix(1 0 0 1 133.5596 92.7002)"><tspan x="0" y="0" style="font-family:'ProductusBook'; font-size:7.98;">u</tspan><tspan x="3.671" y="0" style="font-family:'ProductusBook'; font-size:7.98;">n</tspan><tspan x="7.39" y="0" style="font-family:'ProductusBook'; font-size:7.98;">ins</tspan><tspan x="15.425" y="0" style="font-family:'ProductusBook'; font-size:7.98;">t</tspan><tspan x="17.819" y="0" style="font-family:'ProductusBook'; font-size:7.98;">al</tspan><tspan x="22.679" y="0" style="font-family:'ProductusBook'; font-size:7.98;">l</tspan></text>
<polyline points="127.8,130.5 131.1,130.5 130.92,131.16 128.28,140.34 127.8,142.02 127.32,140.34 124.68,131.16 124.5,130.5 
	125.16,130.5 125.64,130.86 128.28,140.04 127.32,140.34 127.32,140.04 129.96,130.86 130.92,131.16 130.44,131.52 127.8,131.52 "/>
<rect x="125.16" y="130.5" width="2.64" height="1.02"/>
<polyline style="fill-rule:evenodd;clip-rule:evenodd;" points="127.8,130.98 130.44,130.98 127.8,140.16 125.16,130.98 "/>
<rect x="127.56" y="113.4" width="0.48" height="0.24"/>
<rect x="127.56" y="113.64" width="0.48" height="17.04"/>
<text transform="matrix(-6.123234e-17 -1 1 -6.123234e-17 28.9199 99.48)"><tspan x="0" y="0" style="font-family:'ProductusSemibold'; font-size:7.98;">Bu</tspan><tspan x="8.515" y="0" style="font-family:'ProductusSemibold'; font-size:7.98;">n</tspan><tspan x="12.832" y="0" style="font-family:'ProductusSemibold'; font-size:7.98;">d</tspan><tspan x="17.148" y="0" style="font-family:'ProductusSemibold'; font-size:7.98;">l</tspan><tspan x="19.303" y="0" style="font-family:'ProductusSemibold'; font-size:7.98;">e</tspan></text>
<text transform="matrix(1 0 0 1 60.7197 29.1597)"><tspan x="0" y="0" style="font-family:'ProductusBook'; font-size:7.98;">g</tspan><tspan x="3.368" y="0" style="font-family:'ProductusBook'; font-size:7.98;">e</tspan><tspan x="6.854" y="0" style="font-family:'ProductusBook'; font-size:7.98;">t</tspan></text>
<text transform="matrix(1 0 0 1 57.0605 38.8794)"><tspan x="0" y="0" style="font-family:'ProductusBook'; font-size:7.98;">u</tspan><tspan x="3.663" y="0" style="font-family:'ProductusBook'; font-size:7.98;">n</tspan><tspan x="7.381" y="0" style="font-family:'ProductusBook'; font-size:7.98;">g</tspan><tspan x="10.685" y="0" style="font-family:'ProductusBook'; font-size:7.98;">e</tspan><tspan x="14.22" y="0" style="font-family:'ProductusBook'; font-size:7.98;">t</tspan></text>
</svg>
