<?xml version="1.0" encoding="utf-8"?>
<!-- Generator: Adobe Illustrator 16.0.0, SVG Export Plug-In . SVG Version: 6.00 Build 0)  -->
<!DOCTYPE svg PUBLIC "-//W3C//DTD SVG 1.1//EN" "http://www.w3.org/Graphics/SVG/1.1/DTD/svg11.dtd">
<svg version="1.1" id="Layer_1" xmlns="http://www.w3.org/2000/svg" xmlns:xlink="http://www.w3.org/1999/xlink" x="0px" y="0px"
	 width="192.42px" height="121.5px" viewBox="0 0 192.42 121.5" style="enable-background:new 0 0 192.42 121.5;"
	 xml:space="preserve">
<polyline style="fill-rule:evenodd;clip-rule:evenodd;fill:#F7F7F7;" points="170.58,0.48 170.58,14.64 106.8,14.64 106.8,35.94 
	78.48,35.94 78.48,57.18 50.1,57.18 50.1,78.42 21.78,78.42 21.78,99.72 0.48,99.72 0.48,0.48 "/>
<rect x="170.1" y="0.48" width="1.02" height="14.7"/>
<rect x="106.32" y="14.16" width="64.26" height="1.02"/>
<rect x="106.32" y="14.64" width="1.021" height="21.84"/>
<rect x="78" y="35.46" width="28.8" height="1.02"/>
<rect x="78" y="35.94" width="1.02" height="21.78"/>
<rect x="49.62" y="56.7" width="28.86" height="1.02"/>
<rect x="49.62" y="57.18" width="1.02" height="21.78"/>
<rect x="21.3" y="77.94" width="28.8" height="1.02"/>
<rect x="21.3" y="78.42" width="1.02" height="21.84"/>
<rect y="99.24" width="21.78" height="1.02"/>
<rect width="1.02" height="99.72"/>
<rect x="0.48" width="170.64" height="1.02"/>
<rect x="0.48" y="106.8" style="fill:#F7F7F7;" width="191.4" height="14.16"/>
<rect x="0.48" y="106.32" width="191.94" height="1.02"/>
<rect x="191.4" y="106.8" width="1.021" height="14.7"/>
<rect y="120.48" width="191.88" height="1.02"/>
<rect y="106.32" width="1.02" height="14.64"/>
<rect x="28.86" y="85.56" style="fill:#F7F7F7;" width="141.72" height="14.16"/>
<rect x="28.86" y="85.08" width="142.26" height="1.02"/>
<rect x="170.1" y="85.56" width="1.02" height="14.7"/>
<rect x="28.38" y="99.24" width="142.2" height="1.02"/>
<rect x="28.38" y="85.08" width="1.02" height="14.64"/>
<rect x="57.18" y="64.26" style="fill:#F7F7F7;" width="113.399" height="14.16"/>
<rect x="57.18" y="63.78" width="113.939" height="1.021"/>
<rect x="170.1" y="64.26" width="1.02" height="14.7"/>
<rect x="56.7" y="77.94" width="113.88" height="1.02"/>
<rect x="56.7" y="63.78" width="1.02" height="14.64"/>
<rect x="85.56" y="43.02" style="fill:#F7F7F7;" width="85.02" height="14.16"/>
<rect x="85.56" y="42.54" width="85.56" height="1.02"/>
<rect x="170.1" y="43.02" width="1.02" height="14.7"/>
<rect x="85.08" y="56.7" width="85.5" height="1.02"/>
<rect x="85.08" y="42.54" width="1.02" height="14.64"/>
<rect x="113.88" y="21.78" style="fill:#F7F7F7;" width="56.699" height="14.16"/>
<rect x="113.88" y="21.3" width="57.239" height="1.02"/>
<rect x="170.1" y="21.78" width="1.02" height="14.7"/>
<rect x="113.4" y="35.46" width="57.18" height="1.02"/>
<rect x="113.4" y="21.3" width="1.021" height="14.64"/>
<text transform="matrix(1 0 0 1 117.8999 114.8403)"><tspan x="0" y="0" style="font-family:'ProductusSemibold'; font-size:7.98;">H</tspan><tspan x="5.458" y="0" style="font-family:'ProductusSemibold'; font-size:7.98;">a</tspan><tspan x="9.416" y="0" style="font-family:'ProductusSemibold'; font-size:7.98;">r</tspan><tspan x="12.353" y="0" style="font-family:'ProductusSemibold'; font-size:7.98;">d</tspan><tspan x="16.726" y="0" style="font-family:'ProductusSemibold'; font-size:7.98;">wa</tspan><tspan x="27.1" y="0" style="font-family:'ProductusSemibold'; font-size:7.98;">r</tspan><tspan x="29.973" y="0" style="font-family:'ProductusSemibold'; font-size:7.98;">e</tspan><tspan x="34.106" y="0" style="font-family:'ProductusSemibold'; font-size:7.98;">/</tspan><tspan x="37.162" y="0" style="font-family:'ProductusSemibold'; font-size:7.98;">O</tspan><tspan x="42.979" y="0" style="font-family:'ProductusSemibold'; font-size:7.98;">S</tspan></text>
<text transform="matrix(1 0 0 1 85.5601 95.04)"><tspan x="0" y="0" style="font-family:'ProductusSemibold'; font-size:7.98;">E</tspan><tspan x="3.91" y="0" style="font-family:'ProductusSemibold'; font-size:7.98;">x</tspan><tspan x="7.748" y="0" style="font-family:'ProductusSemibold'; font-size:7.98;">ecuti</tspan><tspan x="25.049" y="0" style="font-family:'ProductusSemibold'; font-size:7.98;">o</tspan><tspan x="29.422" y="0" style="font-family:'ProductusSemibold'; font-size:7.98;">n</tspan><tspan x="33.683" y="0" style="font-family:'ProductusSemibold'; font-size:7.98;"> </tspan><tspan x="35.662" y="0" style="font-family:'ProductusSemibold'; font-size:7.98;">E</tspan><tspan x="39.62" y="0" style="font-family:'ProductusSemibold'; font-size:7.98;">n</tspan><tspan x="43.817" y="0" style="font-family:'ProductusSemibold'; font-size:7.98;">v</tspan><tspan x="47.895" y="0" style="font-family:'ProductusSemibold'; font-size:7.98;">i</tspan><tspan x="50.049" y="0" style="font-family:'ProductusSemibold'; font-size:7.98;">r</tspan><tspan x="52.922" y="0" style="font-family:'ProductusSemibold'; font-size:7.98;">o</tspan><tspan x="57.295" y="0" style="font-family:'ProductusSemibold'; font-size:7.98;">nmen</tspan><tspan x="76.287" y="0" style="font-family:'ProductusSemibold'; font-size:7.98;">t</tspan></text>
<text transform="matrix(1 0 0 1 139.1401 73.7998)"><tspan x="0" y="0" style="font-family:'ProductusSemibold'; font-size:7.98;">Modu</tspan><tspan x="19.606" y="0" style="font-family:'ProductusSemibold'; font-size:7.98;">l</tspan><tspan x="21.825" y="0" style="font-family:'ProductusSemibold'; font-size:7.98;">e</tspan></text>
<text transform="matrix(1 0 0 1 132.9604 52.5596)"><tspan x="0" y="0" style="font-family:'ProductusSemibold'; font-size:7.98;">L</tspan><tspan x="3.654" y="0" style="font-family:'ProductusSemibold'; font-size:7.98;">i</tspan><tspan x="5.873" y="0" style="font-family:'ProductusSemibold'; font-size:7.98;">f</tspan><tspan x="8.507" y="0" style="font-family:'ProductusSemibold'; font-size:7.98;">e</tspan><tspan x="12.64" y="0" style="font-family:'ProductusSemibold'; font-size:7.98;"> </tspan><tspan x="14.619" y="0" style="font-family:'ProductusSemibold'; font-size:7.98;">c</tspan><tspan x="18.273" y="0" style="font-family:'ProductusSemibold'; font-size:7.98;">y</tspan><tspan x="22.168" y="0" style="font-family:'ProductusSemibold'; font-size:7.98;">c</tspan><tspan x="25.822" y="0" style="font-family:'ProductusSemibold'; font-size:7.98;">l</tspan><tspan x="28.041" y="0" style="font-family:'ProductusSemibold'; font-size:7.98;">e</tspan></text>
<text transform="matrix(1 0 0 1 139.6802 30.3589)"><tspan x="0" y="0" style="font-family:'ProductusSemibold'; font-size:7.98;">Serv</tspan><tspan x="15.401" y="0" style="font-family:'ProductusSemibold'; font-size:7.98;">i</tspan><tspan x="17.619" y="0" style="font-family:'ProductusSemibold'; font-size:7.98;">c</tspan><tspan x="21.274" y="0" style="font-family:'ProductusSemibold'; font-size:7.98;">e</tspan></text>
<rect x="177.66" y="0.48" style="fill:#FFF7F7;" width="14.221" height="99.24"/>
<rect x="177.66" style="fill:#FF0000;" width="14.761" height="1.02"/>
<rect x="191.4" y="0.48" style="fill:#FF0000;" width="1.021" height="99.78"/>
<rect x="177.18" y="99.24" style="fill:#FF0000;" width="14.7" height="1.02"/>
<rect x="177.18" style="fill:#FF0000;" width="1.02" height="99.72"/>
<text transform="matrix(-6.123234e-17 -1 1 -6.123234e-17 186.1802 74.7603)"><tspan x="0" y="0" style="font-family:'ProductusSemibold'; font-size:7.98;">Securit</tspan><tspan x="24.578" y="0" style="font-family:'ProductusSemibold'; font-size:7.98;">y</tspan></text>
<text transform="matrix(1 0 0 1 10.3799 33.6602)"><tspan x="0" y="0" style="font-family:'ProductusSemibold'; font-size:7.98;">B</tspan><tspan x="4.269" y="0" style="font-family:'ProductusSemibold'; font-size:7.98;">u</tspan><tspan x="8.586" y="0" style="font-family:'ProductusSemibold'; font-size:7.98;">ndle</tspan><tspan x="23.445" y="0" style="font-family:'ProductusSemibold'; font-size:7.98;">s</tspan></text>
</svg>
