<?xml version="1.0" encoding="utf-8"?>
<!-- Generator: Adobe Illustrator 16.0.1, SVG Export Plug-In . SVG Version: 6.00 Build 0)  -->
<!DOCTYPE svg PUBLIC "-//W3C//DTD SVG 1.1//EN" "http://www.w3.org/Graphics/SVG/1.1/DTD/svg11.dtd">
<svg version="1.1" id="Layer_1" xmlns="http://www.w3.org/2000/svg" xmlns:xlink="http://www.w3.org/1999/xlink" x="0px" y="0px"
	 width="57.48px" height="29.16px" viewBox="0 0 57.48 29.16" enable-background="new 0 0 57.48 29.16" xml:space="preserve">
<rect x="2.64" y="2.04" width="54.3" height="26.58"/>
<rect x="2.64" y="1.8" width="54.54" height="0.48"/>
<rect x="56.7" y="2.04" width="0.479" height="26.819"/>
<rect x="2.4" y="28.38" width="54.541" height="0.479"/>
<rect x="2.4" y="1.8" width="0.479" height="26.82"/>
<rect x="0.24" y="0.24" fill="#FFFFFF" width="54.359" height="26.58"/>
<rect x="0.24" width="54.6" height="0.48"/>
<rect x="54.36" y="0.24" width="0.479" height="26.82"/>
<rect x="0" y="26.58" width="54.601" height="0.48"/>
<rect x="0" width="0.48" height="26.82"/>
<text transform="matrix(1 0 0 1 2.6399 7.3799)" font-family="'ProductusOSGiBookc'" font-size="7.98">&lt;&lt;interface&gt;&gt;</text>
<text transform="matrix(1 0 0 1 2.6399 15.8398)" enable-background="new    "><tspan x="0" y="0" font-family="'ProductusSemibold'" font-size="7.98">Permission</tspan><tspan x="0" y="9.576" font-family="'ProductusSemibold'" font-size="7.98">Admin</tspan></text>
<polyline points="56.94,14.4 42.78,28.62 56.94,28.62 "/>
<polyline points="57.3,14.76 43.14,28.98 42.78,29.16 41.521,29.16 42.42,28.26 56.58,14.04 "/>
<rect x="42.78" y="28.141" width="14.7" height="1.02"/>
<polyline points="56.46,28.62 56.46,14.4 56.58,14.04 57.48,13.14 57.48,28.62 "/>
</svg>
