<?xml version="1.0" encoding="utf-8"?>
<!-- Generator: Adobe Illustrator 16.0.0, SVG Export Plug-In . SVG Version: 6.00 Build 0)  -->
<!DOCTYPE svg PUBLIC "-//W3C//DTD SVG 1.1//EN" "http://www.w3.org/Graphics/SVG/1.1/DTD/svg11.dtd">
<svg version="1.1" id="Layer_1" xmlns="http://www.w3.org/2000/svg" xmlns:xlink="http://www.w3.org/1999/xlink" x="0px" y="0px"
	 width="227.22px" height="80.148px" viewBox="0 0 227.22 80.148" style="enable-background:new 0 0 227.22 80.148;"
	 xml:space="preserve">
<rect x="172.68" y="3.708" width="54.3" height="26.58"/>
<rect x="172.68" y="3.468" width="54.54" height="0.48"/>
<rect x="226.74" y="3.708" width="0.48" height="26.82"/>
<rect x="172.44" y="30.048" width="54.54" height="0.48"/>
<rect x="172.44" y="3.468" width="0.48" height="26.82"/>
<rect x="170.34" y="1.908" style="fill:#FFFFFF;" width="54.3" height="26.58"/>
<rect x="170.34" y="1.668" width="54.54" height="0.48"/>
<rect x="224.4" y="1.908" width="0.48" height="26.82"/>
<rect x="170.1" y="28.248" width="54.54" height="0.48"/>
<rect x="170.1" y="1.668" width="0.48" height="26.82"/>
<text transform="matrix(1 0 0 1 172.6802 9.0479)"><tspan x="0" y="0" style="font-family:'ProductusOSGiBookc'; font-size:7.98;">Ser</tspan><tspan x="9.393" y="0" style="font-family:'ProductusOSGiBookc'; font-size:7.98;">v</tspan><tspan x="12.393" y="0" style="font-family:'ProductusOSGiBookc'; font-size:7.98;">ce</tspan></text>
<text transform="matrix(1 0 0 1 172.6802 17.5073)"><tspan x="0" y="0" style="font-family:'ProductusOSGiBookc'; font-size:7.98;">P</tspan><tspan x="3.248" y="0" style="font-family:'ProductusOSGiBookc'; font-size:7.98;">r</tspan><tspan x="5.291" y="0" style="font-family:'ProductusOSGiBookc'; font-size:7.98;">o</tspan><tspan x="8.897" y="0" style="font-family:'ProductusOSGiBookc'; font-size:7.98;">vide</tspan><tspan x="20.748" y="0" style="font-family:'ProductusOSGiBookc'; font-size:7.98;">r</tspan></text>
<rect x="2.58" y="3.708" width="54.36" height="26.58"/>
<rect x="2.58" y="3.468" width="54.6" height="0.48"/>
<rect x="56.7" y="3.708" width="0.48" height="26.82"/>
<rect x="2.34" y="30.048" width="54.6" height="0.48"/>
<rect x="2.34" y="3.468" width="0.48" height="26.82"/>
<rect x="0.24" y="1.908" style="fill:#FFFFFF;" width="54.3" height="26.58"/>
<rect x="0.24" y="1.668" width="54.54" height="0.48"/>
<rect x="54.3" y="1.908" width="0.48" height="26.82"/>
<rect y="28.248" width="54.54" height="0.48"/>
<rect y="1.668" width="0.48" height="26.82"/>
<text transform="matrix(1 0 0 1 2.5801 9.0479)"><tspan x="0" y="0" style="font-family:'ProductusOSGiBookc'; font-size:7.98;">S</tspan><tspan x="3.695" y="0" style="font-family:'ProductusOSGiBookc'; font-size:7.98;">e</tspan><tspan x="7.174" y="0" style="font-family:'ProductusOSGiBookc'; font-size:7.98;">rv</tspan><tspan x="12.576" y="0" style="font-family:'ProductusOSGiBookc'; font-size:7.98;">i</tspan><tspan x="14.084" y="0" style="font-family:'ProductusOSGiBookc'; font-size:7.98;">c</tspan><tspan x="17.148" y="0" style="font-family:'ProductusOSGiBookc'; font-size:7.98;">e</tspan><tspan x="20.636" y="0" style="font-family:'ProductusOSGiBookc'; font-size:7.98;"> </tspan></text>
<text transform="matrix(1 0 0 1 2.5801 17.5073)"><tspan x="0" y="0" style="font-family:'ProductusOSGiBookc'; font-size:7.98;">C</tspan><tspan x="4.421" y="0" style="font-family:'ProductusOSGiBookc'; font-size:7.98;">l</tspan><tspan x="5.929" y="0" style="font-family:'ProductusOSGiBookc'; font-size:7.98;">ien</tspan><tspan x="14.651" y="0" style="font-family:'ProductusOSGiBookc'; font-size:7.98;">t</tspan></text>
<rect x="56.7" y="15.888" width="113.88" height="0.48"/>
<text transform="matrix(1 0 0 1 115.3198 32.688)"><tspan x="0" y="0" style="font-family:'ProductusOSGiBookc'; font-size:7.98;">l</tspan><tspan x="1.548" y="0" style="font-family:'ProductusOSGiBookc'; font-size:7.98;">i</tspan><tspan x="3.056" y="0" style="font-family:'ProductusOSGiBookc'; font-size:7.98;">ste</tspan><tspan x="11.706" y="0" style="font-family:'ProductusOSGiBookc'; font-size:7.98;">n</tspan></text>
<text transform="matrix(1 0 0 1 92.3403 6.6475)"><tspan x="0" y="0" style="font-family:'ProductusOSGiBookc'; font-size:7.98;">C</tspan><tspan x="4.341" y="0" style="font-family:'ProductusOSGiBookc'; font-size:7.98;">a</tspan><tspan x="7.637" y="0" style="font-family:'ProductusOSGiBookc'; font-size:7.98;">l</tspan><tspan x="9.145" y="0" style="font-family:'ProductusOSGiBookc'; font-size:7.98;">l</tspan><tspan x="10.701" y="0" style="font-family:'ProductusOSGiBookc'; font-size:7.98;"> </tspan><tspan x="12.312" y="0" style="font-family:'ProductusOSGiBookc'; font-size:7.98;">D</tspan><tspan x="17.156" y="0" style="font-family:'ProductusOSGiBookc'; font-size:7.98;">i</tspan><tspan x="18.713" y="0" style="font-family:'ProductusOSGiBookc'; font-size:7.98;">r</tspan><tspan x="20.756" y="0" style="font-family:'ProductusOSGiBookc'; font-size:7.98;">e</tspan><tspan x="24.234" y="0" style="font-family:'ProductusOSGiBookc'; font-size:7.98;">c</tspan><tspan x="27.299" y="0" style="font-family:'ProductusOSGiBookc'; font-size:7.98;">t</tspan><tspan x="29.637" y="0" style="font-family:'ProductusOSGiBookc'; font-size:7.98;">i</tspan><tspan x="31.193" y="0" style="font-family:'ProductusOSGiBookc'; font-size:7.98;">o</tspan><tspan x="34.92" y="0" style="font-family:'ProductusOSGiBookc'; font-size:7.98;">n</tspan><tspan x="38.574" y="0" style="font-family:'ProductusOSGiBookc'; font-size:7.98;"> </tspan><tspan x="40.187" y="0" style="font-family:'ProductusOSGiBookc'; font-size:7.98;">-</tspan><tspan x="42.884" y="0" style="font-family:'ProductusOSGiBookc'; font-size:7.98;">&gt;</tspan></text>
<text transform="matrix(1 0 0 1 120.7202 23.4478)"><tspan x="0" y="0" style="font-family:'ProductusOSGiBookc'; font-size:7.98;">r</tspan><tspan x="2.043" y="0" style="font-family:'ProductusOSGiBookc'; font-size:7.98;">e</tspan><tspan x="5.522" y="0" style="font-family:'ProductusOSGiBookc'; font-size:7.98;">g</tspan><tspan x="9.001" y="0" style="font-family:'ProductusOSGiBookc'; font-size:7.98;">i</tspan><tspan x="10.51" y="0" style="font-family:'ProductusOSGiBookc'; font-size:7.98;">s</tspan><tspan x="13.326" y="0" style="font-family:'ProductusOSGiBookc'; font-size:7.98;">te</tspan><tspan x="19.144" y="0" style="font-family:'ProductusOSGiBookc'; font-size:7.98;">r</tspan></text>
<text transform="matrix(1 0 0 1 93.7197 23.4478)"><tspan x="0" y="0" style="font-family:'ProductusOSGiBookc'; font-size:7.98;">ge</tspan><tspan x="6.958" y="0" style="font-family:'ProductusOSGiBookc'; font-size:7.98;">t</tspan></text>
<rect x="87.66" y="53.328" width="54.3" height="26.58"/>
<rect x="87.66" y="53.088" width="54.54" height="0.48"/>
<rect x="141.72" y="53.328" width="0.479" height="26.82"/>
<rect x="87.42" y="79.668" width="54.541" height="0.48"/>
<rect x="87.42" y="53.088" width="0.48" height="26.82"/>
<rect x="85.26" y="51.528" style="fill:#FFFFFF;" width="54.359" height="26.58"/>
<rect x="85.26" y="51.288" width="54.6" height="0.48"/>
<rect x="139.38" y="51.528" width="0.479" height="26.82"/>
<rect x="85.02" y="77.868" width="54.6" height="0.48"/>
<rect x="85.02" y="51.288" width="0.48" height="26.82"/>
<text transform="matrix(1 0 0 1 87.6602 58.668)"><tspan x="0" y="0" style="font-family:'ProductusOSGiBookc'; font-size:7.98;">Ser</tspan><tspan x="9.369" y="0" style="font-family:'ProductusOSGiBookc'; font-size:7.98;">v</tspan><tspan x="12.369" y="0" style="font-family:'ProductusOSGiBookc'; font-size:7.98;">c</tspan><tspan x="15.489" y="0" style="font-family:'ProductusOSGiBookc'; font-size:7.98;">e</tspan></text>
<text transform="matrix(1 0 0 1 87.6602 67.1284)"><tspan x="0" y="0" style="font-family:'ProductusOSGiBookc'; font-size:7.98;">Liste</tspan><tspan x="13.199" y="0" style="font-family:'ProductusOSGiBookc'; font-size:7.98;">n</tspan><tspan x="16.805" y="0" style="font-family:'ProductusOSGiBookc'; font-size:7.98;">e</tspan><tspan x="20.285" y="0" style="font-family:'ProductusOSGiBookc'; font-size:7.98;">r</tspan></text>
<rect x="113.4" y="15.888" width="0.48" height="35.88"/>
<polyline style="fill-rule:evenodd;clip-rule:evenodd;fill:#FFFFFF;" points="106.5,8.988 106.5,23.208 120.72,16.128 "/>
<polyline points="106.74,8.988 106.74,23.208 106.62,23.448 106.38,23.028 120.6,15.948 120.84,15.948 121.32,16.188 120.84,16.368 
	106.62,23.448 106.26,23.628 106.26,8.988 "/>
<polyline points="120.6,16.368 106.38,9.228 106.26,8.988 106.26,8.628 106.62,8.808 120.84,15.948 "/>
</svg>
