<?xml version="1.0" encoding="utf-8"?>
<!-- Generator: Adobe Illustrator 16.0.1, SVG Export Plug-In . SVG Version: 6.00 Build 0)  -->
<!DOCTYPE svg PUBLIC "-//W3C//DTD SVG 1.1//EN" "http://www.w3.org/Graphics/SVG/1.1/DTD/svg11.dtd">
<svg version="1.1" id="Layer_1" xmlns="http://www.w3.org/2000/svg" xmlns:xlink="http://www.w3.org/1999/xlink" x="0px" y="0px"
	 width="227.221px" height="29.4px" viewBox="0 0 227.221 29.4" enable-background="new 0 0 227.221 29.4" xml:space="preserve">
<rect x="172.68" y="2.58" width="54.3" height="26.58"/>
<rect x="172.68" y="2.341" width="54.54" height="0.479"/>
<rect x="226.74" y="2.58" width="0.48" height="26.82"/>
<rect x="172.44" y="28.921" width="54.54" height="0.479"/>
<rect x="172.44" y="2.341" width="0.479" height="26.819"/>
<rect x="170.34" y="0.78" fill="#FFFFFF" width="54.301" height="26.58"/>
<rect x="170.34" y="0.54" width="54.54" height="0.48"/>
<rect x="224.4" y="0.78" width="0.479" height="26.82"/>
<rect x="170.1" y="27.12" width="54.54" height="0.48"/>
<rect x="170.1" y="0.54" width="0.479" height="26.82"/>
<text transform="matrix(0.9504 0 0 1 172.6804 7.9207)" font-family="'ProductusOSGiBookc'" font-size="7.98">&lt;&lt;class&gt;&gt;</text>
<text transform="matrix(1 0 0 1 172.6804 16.3806)" font-family="'ProductusSemibold'" font-size="7.98"> Permission</text>
<rect x="2.58" y="2.04" width="54.36" height="27.12"/>
<rect x="2.58" y="1.801" width="54.601" height="0.479"/>
<rect x="56.7" y="2.04" width="0.48" height="27.36"/>
<rect x="2.34" y="28.921" width="54.601" height="0.479"/>
<rect x="2.34" y="1.801" width="0.48" height="27.359"/>
<rect x="0.24" y="0.24" fill="#FFFFFF" width="54.3" height="27.12"/>
<rect x="0.24" y="0" width="54.54" height="0.48"/>
<rect x="54.3" y="0.24" width="0.48" height="27.36"/>
<rect x="0" y="27.12" width="54.54" height="0.48"/>
<rect x="0" y="0" width="0.48" height="27.36"/>
<text transform="matrix(0.9504 0 0 1 2.5798 7.3806)" font-family="'ProductusOSGiBookc'" font-size="7.98">&lt;&lt;class&gt;&gt;</text>
<text transform="matrix(1 0 0 1 2.5798 15.9001)" enable-background="new    "><tspan x="0" y="0" font-family="'ProductusSemibold'" font-size="7.98">Admin</tspan><tspan x="0" y="9.576" font-family="'ProductusSemibold'" font-size="7.98">Permission</tspan></text>
<polyline points="158.82,15 158.82,11.7 159.48,11.881 168.66,14.521 170.34,15 168.66,15.48 159.48,18.12 158.82,18.301 
	158.82,17.641 159.18,17.16 168.36,14.521 168.66,15.48 168.36,15.48 159.18,12.841 159.48,11.881 159.84,12.36 159.84,15 "/>
<rect x="158.82" y="15" width="1.021" height="2.642"/>
<polyline points="159.3,15 159.3,12.36 168.48,15 159.3,17.641 "/>
<rect x="56.94" y="14.76" width="101.819" height="0.479"/>
</svg>
