<?xml version="1.0" encoding="utf-8"?>
<!-- Generator: Adobe Illustrator 16.0.1, SVG Export Plug-In . SVG Version: 6.00 Build 0)  -->
<!DOCTYPE svg PUBLIC "-//W3C//DTD SVG 1.1//EN" "http://www.w3.org/Graphics/SVG/1.1/DTD/svg11.dtd">
<svg version="1.1" id="Layer_1" xmlns="http://www.w3.org/2000/svg" xmlns:xlink="http://www.w3.org/1999/xlink" x="0px" y="0px"
	 width="227.279px" height="50.406px" viewBox="0 0 227.279 50.406" enable-background="new 0 0 227.279 50.406"
	 xml:space="preserve">
<rect x="172.68" y="2.58" width="54.359" height="26.58"/>
<rect x="172.68" y="2.34" width="54.6" height="0.48"/>
<rect x="226.8" y="2.58" width="0.479" height="26.82"/>
<rect x="172.44" y="28.92" width="54.601" height="0.48"/>
<rect x="172.44" y="2.34" width="0.48" height="26.82"/>
<rect x="170.34" y="0.78" fill="#FFFFFF" width="54.3" height="26.579"/>
<rect x="170.34" y="0.54" width="54.54" height="0.48"/>
<rect x="224.4" y="0.78" width="0.48" height="26.819"/>
<rect x="170.1" y="27.12" width="54.54" height="0.479"/>
<rect x="170.1" y="0.54" width="0.479" height="26.819"/>
<text transform="matrix(0.9504 0 0 1 172.6809 7.9199)" font-family="'ProductusOSGiBookc'" font-size="7.98">&lt;&lt;interface&gt;&gt;</text>
<text transform="matrix(1 0 0 1 172.6809 16.3799)" font-family="'ProductusSemibold'" font-size="7.98">Role</text>
<rect x="2.58" y="2.04" width="54.359" height="27.12"/>
<rect x="2.58" y="1.8" width="54.6" height="0.48"/>
<rect x="56.7" y="2.04" width="0.479" height="27.36"/>
<rect x="2.34" y="28.92" width="54.6" height="0.48"/>
<rect x="2.34" y="1.8" width="0.479" height="27.36"/>
<rect x="0.24" y="0.24" fill="#FFFFFF" width="54.3" height="27.119"/>
<rect x="0.24" width="54.539" height="0.48"/>
<rect x="54.3" y="0.24" width="0.479" height="27.359"/>
<rect x="0" y="27.12" width="54.54" height="0.479"/>
<rect x="0" width="0.479" height="27.359"/>
<text transform="matrix(1 0 0 1 2.5803 7.3799)" font-family="'ProductusOSGiBookc'" font-size="7.98">&lt;&lt;interface&gt;&gt;</text>
<text transform="matrix(1 0 0 1 2.5803 15.8398)" font-family="'ProductusSemibold'" font-size="7.98">UserAdmin</text>
<rect x="56.94" y="14.7" width="113.4" height="0.48"/>
<polyline points="56.94,14.94 42.78,29.16 56.94,29.16 "/>
<polyline points="57.12,15.12 42.96,29.34 42.78,29.4 42.18,29.4 42.6,28.98 56.76,14.76 "/>
<rect x="42.78" y="28.92" width="14.4" height="0.48"/>
<polyline points="56.7,29.16 56.7,14.94 56.76,14.76 57.18,14.34 57.18,29.16 "/>
<text transform="matrix(1 0 0 1 156.1204 12.4805)" font-family="'ProductusBook'" font-size="7.98">0..*</text>
<text transform="matrix(1 0 0 1 59.4001 11.6396)" font-family="'ProductusBook'" font-size="7.98">1</text>
<rect x="113.4" y="16.32" width="0.48" height="4.02"/>
<rect x="113.4" y="26.04" width="0.48" height="7.56"/>
<rect x="113.4" y="39.3" width="0.48" height="4.021"/>
<text transform="matrix(1 0 0 1 105.4802 48.0605)" font-family="'ProductusBook'" font-size="7.98">name</text>
</svg>
