<?xml version="1.0" encoding="utf-8"?>
<!-- Generator: Adobe Illustrator 16.0.0, SVG Export Plug-In . SVG Version: 6.00 Build 0)  -->
<!DOCTYPE svg PUBLIC "-//W3C//DTD SVG 1.1//EN" "http://www.w3.org/Graphics/SVG/1.1/DTD/svg11.dtd">
<svg version="1.1" id="Layer_1" xmlns="http://www.w3.org/2000/svg" xmlns:xlink="http://www.w3.org/1999/xlink" x="0px" y="0px"
	 width="227.22px" height="28.859px" viewBox="0 0 227.22 28.859" style="enable-background:new 0 0 227.22 28.859;"
	 xml:space="preserve">
<rect x="172.68" y="2.04" width="54.3" height="26.58"/>
<rect x="172.68" y="1.8" width="54.54" height="0.48"/>
<rect x="226.74" y="2.04" width="0.48" height="26.819"/>
<rect x="172.44" y="28.38" width="54.54" height="0.479"/>
<rect x="172.44" y="1.8" width="0.48" height="26.82"/>
<rect x="170.34" y="0.24" style="fill:#FFFFFF;" width="54.3" height="26.58"/>
<rect x="170.34" width="54.54" height="0.479"/>
<rect x="224.4" y="0.24" width="0.48" height="26.819"/>
<rect x="170.1" y="26.58" width="54.54" height="0.479"/>
<rect x="170.1" width="0.48" height="26.82"/>
<text transform="matrix(1 0 0 1.0522 172.6802 7.3799)"><tspan x="0" y="0" style="font-family:'ProductusOSGiBookc'; font-size:7.5841;">&lt;</tspan><tspan x="2.799" y="0" style="font-family:'ProductusOSGiBookc'; font-size:7.5841;">&lt;</tspan><tspan x="5.559" y="0" style="font-family:'ProductusOSGiBookc'; font-size:7.5841;">i</tspan><tspan x="7" y="0" style="font-family:'ProductusOSGiBookc'; font-size:7.5841;">n</tspan><tspan x="10.474" y="0" style="font-family:'ProductusOSGiBookc'; font-size:7.5841;">te</tspan><tspan x="16.018" y="0" style="font-family:'ProductusOSGiBookc'; font-size:7.5841;">r</tspan><tspan x="18.118" y="0" style="font-family:'ProductusOSGiBookc'; font-size:7.5841;">f</tspan><tspan x="20.037" y="0" style="font-family:'ProductusOSGiBookc'; font-size:7.5841;">a</tspan><tspan x="23.169" y="0" style="font-family:'ProductusOSGiBookc'; font-size:7.5841;">c</tspan><tspan x="26.051" y="0" style="font-family:'ProductusOSGiBookc'; font-size:7.5841;">e</tspan><tspan x="29.357" y="0" style="font-family:'ProductusOSGiBookc'; font-size:7.5841;">&gt;</tspan><tspan x="32.156" y="0" style="font-family:'ProductusOSGiBookc'; font-size:7.5841;">&gt;</tspan></text>
<text transform="matrix(1 0 0 1 172.6802 15.8398)"><tspan x="0" y="0" style="font-family:'ProductusSemibold'; font-size:7.98;">B</tspan><tspan x="4.317" y="0" style="font-family:'ProductusSemibold'; font-size:7.98;">und</tspan><tspan x="17.156" y="0" style="font-family:'ProductusSemibold'; font-size:7.98;">l</tspan><tspan x="19.375" y="0" style="font-family:'ProductusSemibold'; font-size:7.98;">e</tspan></text>
<text transform="matrix(1 0 0 1 172.6802 24.3604)"><tspan x="0" y="0" style="font-family:'ProductusSemibold'; font-size:7.98;">Listene</tspan><tspan x="24.865" y="0" style="font-family:'ProductusSemibold'; font-size:7.98;">r</tspan></text>
<rect x="2.58" y="2.04" width="54.36" height="26.58"/>
<rect x="2.58" y="1.8" width="54.6" height="0.48"/>
<rect x="56.7" y="2.04" width="0.48" height="26.819"/>
<rect x="2.34" y="28.38" width="54.6" height="0.479"/>
<rect x="2.34" y="1.8" width="0.48" height="26.82"/>
<rect x="0.24" y="0.24" style="fill:#FFFFFF;" width="54.3" height="26.58"/>
<rect x="0.24" width="54.54" height="0.479"/>
<rect x="54.3" y="0.24" width="0.48" height="26.819"/>
<rect y="26.58" width="54.54" height="0.479"/>
<rect width="0.48" height="26.82"/>
<text transform="matrix(1 0 0 1.0522 2.5801 7.3799)"><tspan x="0" y="0" style="font-family:'ProductusOSGiBookc'; font-size:7.5841;">&lt;</tspan><tspan x="2.798" y="0" style="font-family:'ProductusOSGiBookc'; font-size:7.5841;">&lt;</tspan><tspan x="5.559" y="0" style="font-family:'ProductusOSGiBookc'; font-size:7.5841;">i</tspan><tspan x="7" y="0" style="font-family:'ProductusOSGiBookc'; font-size:7.5841;">n</tspan><tspan x="10.473" y="0" style="font-family:'ProductusOSGiBookc'; font-size:7.5841;">t</tspan><tspan x="12.703" y="0" style="font-family:'ProductusOSGiBookc'; font-size:7.5841;">e</tspan><tspan x="16.01" y="0" style="font-family:'ProductusOSGiBookc'; font-size:7.5841;">r</tspan><tspan x="18.11" y="0" style="font-family:'ProductusOSGiBookc'; font-size:7.5841;">f</tspan><tspan x="20.029" y="0" style="font-family:'ProductusOSGiBookc'; font-size:7.5841;">a</tspan><tspan x="23.154" y="0" style="font-family:'ProductusOSGiBookc'; font-size:7.5841;">c</tspan><tspan x="26.036" y="0" style="font-family:'ProductusOSGiBookc'; font-size:7.5841;">e&gt;</tspan><tspan x="32.148" y="0" style="font-family:'ProductusOSGiBookc'; font-size:7.5841;">&gt;</tspan></text>
<text transform="matrix(1 0 0 1 2.5801 15.8398)"><tspan x="0" y="0" style="font-family:'ProductusSemibold'; font-size:7.98;">B</tspan><tspan x="4.317" y="0" style="font-family:'ProductusSemibold'; font-size:7.98;">un</tspan><tspan x="12.824" y="0" style="font-family:'ProductusSemibold'; font-size:7.98;">d</tspan><tspan x="17.196" y="0" style="font-family:'ProductusSemibold'; font-size:7.98;">l</tspan><tspan x="19.351" y="0" style="font-family:'ProductusSemibold'; font-size:7.98;">e</tspan></text>
<text transform="matrix(1 0 0 1 2.5801 24.3604)"><tspan x="0" y="0" style="font-family:'ProductusSemibold'; font-size:7.98;">C</tspan><tspan x="4.74" y="0" style="font-family:'ProductusSemibold'; font-size:7.98;">o</tspan><tspan x="9.057" y="0" style="font-family:'ProductusSemibold'; font-size:7.98;">n</tspan><tspan x="13.374" y="0" style="font-family:'ProductusSemibold'; font-size:7.98;">t</tspan><tspan x="16.494" y="0" style="font-family:'ProductusSemibold'; font-size:7.98;">e</tspan><tspan x="20.628" y="0" style="font-family:'ProductusSemibold'; font-size:7.98;">x</tspan><tspan x="24.522" y="0" style="font-family:'ProductusSemibold'; font-size:7.98;">t</tspan></text>
<rect x="56.94" y="14.22" width="113.4" height="0.48"/>
<text transform="matrix(1 0 0 1 156.1196 11.7002)"><tspan x="0" y="0" style="font-family:'ProductusBook'; font-size:7.98;">0..</tspan><tspan x="7.078" y="0" style="font-family:'ProductusBook'; font-size:7.98;">*</tspan></text>
<text transform="matrix(1 0 0 1 66.48 11.7002)"><tspan x="0" y="0" style="font-family:'ProductusBook'; font-size:7.98; letter-spacing:12;">1</tspan><tspan x="16.016" y="0" style="font-family:'ProductusBook'; font-size:7.98;">d</tspan><tspan x="19.734" y="0" style="font-family:'ProductusBook'; font-size:7.98;">e</tspan><tspan x="23.27" y="0" style="font-family:'ProductusBook'; font-size:7.98;">li</tspan><tspan x="26.397" y="0" style="font-family:'ProductusBook'; font-size:7.98;">v</tspan><tspan x="29.525" y="0" style="font-family:'ProductusBook'; font-size:7.98;">ers</tspan><tspan x="38.112" y="0" style="font-family:'ProductusBook'; font-size:7.98;"> </tspan><tspan x="39.732" y="0" style="font-family:'ProductusBook'; font-size:7.98;">b</tspan><tspan x="43.435" y="0" style="font-family:'ProductusBook'; font-size:7.98;">u</tspan><tspan x="47.153" y="0" style="font-family:'ProductusBook'; font-size:7.98;">ndl</tspan><tspan x="56.091" y="0" style="font-family:'ProductusBook'; font-size:7.98;">e</tspan><tspan x="59.626" y="0" style="font-family:'ProductusBook'; font-size:7.98;"> </tspan><tspan x="61.19" y="0" style="font-family:'ProductusBook'; font-size:7.98;">e</tspan><tspan x="64.726" y="0" style="font-family:'ProductusBook'; font-size:7.98;">v</tspan><tspan x="67.846" y="0" style="font-family:'ProductusBook'; font-size:7.98;">ents</tspan></text>
</svg>
