<?xml version="1.0" encoding="utf-8"?>
<!-- Generator: Adobe Illustrator 16.0.1, SVG Export Plug-In . SVG Version: 6.00 Build 0)  -->
<!DOCTYPE svg PUBLIC "-//W3C//DTD SVG 1.1//EN" "http://www.w3.org/Graphics/SVG/1.1/DTD/svg11.dtd">
<svg version="1.1" id="Layer_1" xmlns="http://www.w3.org/2000/svg" xmlns:xlink="http://www.w3.org/1999/xlink" x="0px" y="0px"
	 width="230.324px" height="41.166px" viewBox="0 0 230.324 41.166" enable-background="new 0 0 230.324 41.166"
	 xml:space="preserve">
<rect x="87.66" y="2.04" width="54.3" height="26.52"/>
<rect x="87.66" y="1.8" width="54.541" height="0.48"/>
<rect x="141.72" y="2.04" width="0.479" height="26.76"/>
<rect x="87.42" y="28.319" width="54.541" height="0.479"/>
<rect x="87.42" y="1.8" width="0.48" height="26.76"/>
<rect x="85.26" y="0.24" fill="#FFFFFF" width="54.359" height="26.579"/>
<rect x="85.26" width="54.6" height="0.48"/>
<rect x="139.38" y="0.24" width="0.479" height="26.819"/>
<rect x="85.02" y="26.58" width="54.601" height="0.479"/>
<rect x="85.02" width="0.48" height="26.819"/>
<text transform="matrix(0.9504 0 0 1 87.6597 7.3203)" font-family="'ProductusOSGiBookc'" font-size="7.98">&lt;&lt;interface&gt;&gt;</text>
<text transform="matrix(1 0 0 1 87.6597 15.8398)" enable-background="new    "><tspan x="0" y="0" font-family="'ProductusSemibold'" font-size="7.98">Bundle</tspan><tspan x="0" y="9.576" font-family="'ProductusSemibold'" font-size="7.98">Context</tspan></text>
<rect x="2.58" y="2.04" width="54.36" height="26.52"/>
<rect x="2.58" y="1.8" width="54.6" height="0.48"/>
<rect x="56.7" y="2.04" width="0.48" height="26.76"/>
<rect x="2.34" y="28.319" width="54.6" height="0.479"/>
<rect x="2.34" y="1.8" width="0.48" height="26.76"/>
<rect x="0.24" y="0.24" fill="#FFFFFF" width="54.3" height="26.579"/>
<rect x="0.24" width="54.54" height="0.48"/>
<rect x="54.3" y="0.24" width="0.48" height="26.819"/>
<rect y="26.58" width="54.54" height="0.479"/>
<rect width="0.48" height="26.819"/>
<text transform="matrix(0.9504 0 0 1 2.5801 7.3203)" font-family="'ProductusOSGiBookc'" font-size="7.98">&lt;&lt;class&gt;&gt;</text>
<text transform="matrix(1 0 0 1 2.5801 15.8398)" enable-background="new    "><tspan x="0" y="0" font-family="'ProductusSemibold'" font-size="7.98">Admin</tspan><tspan x="0" y="9.576" font-family="'ProductusSemibold'" font-size="7.98">Permission</tspan></text>
<rect x="172.68" y="2.04" width="54.358" height="26.52"/>
<rect x="172.68" y="1.8" width="54.6" height="0.48"/>
<rect x="226.8" y="2.04" width="0.479" height="26.76"/>
<rect x="172.44" y="28.319" width="54.601" height="0.479"/>
<rect x="172.44" y="1.8" width="0.479" height="26.76"/>
<rect x="170.339" y="0.24" fill="#FFFFFF" width="54.301" height="26.579"/>
<rect x="170.339" width="54.541" height="0.48"/>
<rect x="224.4" y="0.24" width="0.48" height="26.819"/>
<rect x="170.1" y="26.58" width="54.54" height="0.479"/>
<rect x="170.1" width="0.479" height="26.819"/>
<text transform="matrix(0.9504 0 0 1 172.6802 7.3203)" enable-background="new    "><tspan x="0" y="0" font-family="'ProductusOSGiBookc'" font-size="7.98">UserAdmin</tspan><tspan x="0" y="9.576" font-family="'ProductusOSGiBookc'" font-size="7.98">Implementation</tspan></text>
<text transform="matrix(1 0 0 1 21.48 38.8203)" enable-background="new    "><tspan x="0" y="0" font-family="'ProductusBook'" font-size="7.98">clas</tspan><tspan x="10.781" y="0" font-family="'ProductusBook'" font-size="7.98" letter-spacing="63">s</tspan><tspan x="77.597" y="0" font-family="'ProductusBook'" font-size="7.98">interfac</tspan><tspan x="99.422" y="0" font-family="'ProductusBook'" font-size="7.98" letter-spacing="43">e</tspan><tspan x="146.919" y="0" font-family="'ProductusBook'" font-size="7.98">implementation class</tspan></text>
</svg>
