<?xml version="1.0" encoding="utf-8"?>
<!-- Generator: Adobe Illustrator 16.0.1, SVG Export Plug-In . SVG Version: 6.00 Build 0)  -->
<!DOCTYPE svg PUBLIC "-//W3C//DTD SVG 1.1//EN" "http://www.w3.org/Graphics/SVG/1.1/DTD/svg11.dtd">
<svg version="1.1" id="Layer_1" xmlns="http://www.w3.org/2000/svg" xmlns:xlink="http://www.w3.org/1999/xlink" x="0px" y="0px"
	 width="375.508px" height="134.641px" viewBox="0 0 375.508 134.641" enable-background="new 0 0 375.508 134.641"
	 xml:space="preserve">
<rect x="141.72" y="85.02" fill="#808080" width="56.7" height="49.62"/>
<rect x="141.72" y="0" fill="#808080" width="56.7" height="42.48"/>
<path fill="#FFFFFF" d="M170.1,14.16l-0.06-0.72l-0.12-0.721c-1.758-7.923-12.944-7.311-13.98,0.721v1.439
	c1.031,8.025,12.231,8.625,13.98,0.721l0.12-0.721L170.1,14.16"/>
<path d="M169.859,14.219l-0.06-0.72l-0.12-0.72l-0.12-0.66v0.061l-0.24-0.66h0.061l-0.3-0.601l-0.36-0.6v0.06l-0.42-0.54l-0.48-0.54
	h0.061l-0.48-0.42l-0.54-0.42V8.52l-0.6-0.36l-0.6-0.3h0.06l-0.66-0.24l-0.66-0.18h0.061l-0.72-0.12h-1.44h0.06l-0.72,0.12
	l-0.66,0.18h0.061l-0.66,0.24l-0.66,0.3l-0.54,0.36l0.061-0.061l-1.08,0.84l-0.841,1.08l0.061-0.06l-0.36,0.6l-0.3,0.601l-0.24,0.66
	V12.12l-0.18,0.66l-0.12,0.72v-0.06v1.439l0.12,0.721V15.54l0.18,0.66l0.24,0.66V16.8l0.3,0.601l0.36,0.6h-0.061l0.841,1.08v-0.06
	l0.54,0.42l-0.301,0.359l-0.54-0.42h-0.06l-0.84-1.08v-0.06l-0.36-0.6l-0.3-0.601h-0.06L156,16.38v-0.06
	c-0.447-1.22-0.412-3.102,0-4.32l0.24-0.66l0.06-0.06c0.765-1.645,1.645-2.605,3.18-3.54h0.061l0.66-0.3V7.38l0.659-0.239
	l0.66-0.181h0.061l0.72-0.12h1.5l0.72,0.12l0.66,0.181h0.061l0.659,0.239V7.44l0.601,0.3c1.226,0.624,1.766,1.253,2.58,2.34h0.06
	l0.36,0.601c0.565,1.034,0.591,1.603,0.78,2.76l0.06,0.72"/>
<path d="M158.7,19.44l0.54,0.42h-0.061l0.54,0.359l0.66,0.301V20.46l0.66,0.24h-0.061l0.66,0.18l1.44,0.12h-0.061l1.44-0.12h-0.061
	l0.66-0.18l0.66-0.24l-0.06,0.061l0.6-0.301l0.6-0.359l0.54-0.42l0.48-0.42l-0.061,0.06l0.48-0.54l0.42-0.54l0.36-0.6l0.3-0.601
	l-0.061,0.061l0.24-0.66v0.06l0.12-0.659l0.12-0.721l0.06-0.72v0.06l0.48-0.06v0.06l-0.06,0.721c-0.19,2.35-1.327,3.947-3.181,5.34
	l-0.6,0.36l-0.601,0.3c-1.89,0.786-4.549,0.724-6.359-0.3h-0.061l-0.54-0.36v-0.061l-0.54-0.42"/>
<text transform="matrix(0.9504 0 0 1 311.8188 44.0398)" font-family="'ProductusOSGiBookc'" font-size="7.98">Capability</text>
<text transform="matrix(0.9504 0 0 1 311.8188 23.6394)" font-family="'ProductusOSGiBookc'" font-size="7.98">Requirement</text>
<rect y="0" fill="#808080" width="56.7" height="49.62"/>
<path d="M42.54,14.16l-0.06-0.72l-0.12-0.721c-1.758-7.923-12.944-7.311-13.98,0.721v1.439c1.031,8.025,12.231,8.625,13.98,0.721
	l0.12-0.721L42.54,14.16"/>
<path d="M42.3,14.219l-0.06-0.72l-0.12-0.72L42,12.12v0.061l-0.24-0.66h0.06l-0.3-0.601l-0.36-0.6v0.06l-0.42-0.54L40.26,9.3h0.06
	l-0.48-0.42L39.3,8.46V8.52l-0.6-0.36l-0.6-0.3h0.06L37.5,7.62l-0.66-0.18h0.06l-0.72-0.12h-1.44h0.06l-0.72,0.12l-0.66,0.18h0.06
	l-0.66,0.24l-0.66,0.3l-0.54,0.36l0.06-0.061L30.6,9.3l-0.84,1.08l0.06-0.06l-0.36,0.6l-0.3,0.601l-0.24,0.66V12.12l-0.18,0.66
	l-0.12,0.72v-0.06v1.439l0.12,0.721V15.54l0.18,0.66l0.24,0.66V16.8l0.3,0.601l0.36,0.6h-0.06l0.84,1.08v-0.06l0.54,0.42l-0.3,0.359
	l-0.54-0.42h-0.06L29.4,18.3v-0.06l-0.36-0.6l-0.3-0.601h-0.06l-0.24-0.66v-0.06c-0.447-1.221-0.412-3.102,0-4.32l0.24-0.66
	l0.06-0.06c0.765-1.645,1.645-2.605,3.18-3.54h0.06l0.66-0.3V7.38L33.3,7.14l0.66-0.181h0.06l0.72-0.12h1.5l0.72,0.12l0.66,0.181
	h0.06l0.66,0.239V7.44l0.6,0.3c1.225,0.624,1.766,1.253,2.58,2.34h0.06l0.36,0.601c0.566,1.035,0.591,1.603,0.78,2.76l0.06,0.72"/>
<path d="M31.14,19.44l0.54,0.42h-0.06l0.54,0.359l0.66,0.301V20.46l0.66,0.24h-0.06l0.66,0.18L35.52,21h-0.06l1.44-0.12h-0.06
	l0.66-0.18l0.66-0.24L38.1,20.52l0.6-0.301l0.6-0.359l0.54-0.42l0.48-0.42l-0.06,0.06l0.48-0.54L41.16,18l0.36-0.6l0.3-0.601
	l-0.06,0.061L42,16.2v0.06l0.12-0.659l0.12-0.721l0.06-0.72v0.06l0.48-0.06v0.06l-0.06,0.721c-0.19,2.35-1.327,3.947-3.18,5.34
	l-0.6,0.36l-0.6,0.3c-1.89,0.786-4.549,0.724-6.36-0.3h-0.06l-0.54-0.36v-0.061l-0.54-0.42"/>
<rect x="42.3" y="13.92" width="0.24" height="0.48"/>
<rect x="42.54" y="13.92" width="14.4" height="0.48"/>
<rect x="141.48" y="13.92" width="0.24" height="0.48"/>
<rect x="141.72" y="13.92" width="14.46" height="0.48"/>
<rect x="56.46" y="13.92" width="0.24" height="0.48"/>
<rect x="56.7" y="13.92" width="1.02" height="0.48"/>
<rect x="61.74" y="13.92" width="0.24" height="0.48"/>
<rect x="61.98" y="13.92" width="1.8" height="0.48"/>
<rect x="67.86" y="13.92" width="0.24" height="0.48"/>
<rect x="68.1" y="13.92" width="1.74" height="0.48"/>
<rect x="73.92" y="13.92" width="0.24" height="0.48"/>
<rect x="74.16" y="13.92" width="1.74" height="0.48"/>
<rect x="79.98" y="13.92" width="0.24" height="0.48"/>
<rect x="80.22" y="13.92" width="1.8" height="0.48"/>
<rect x="86.1" y="13.92" width="0.24" height="0.48"/>
<rect x="86.34" y="13.92" width="1.74" height="0.48"/>
<rect x="92.16" y="13.92" width="0.24" height="0.48"/>
<rect x="92.4" y="13.92" width="1.74" height="0.48"/>
<rect x="98.22" y="13.92" width="0.24" height="0.48"/>
<rect x="98.46" y="13.92" width="1.74" height="0.48"/>
<rect x="104.28" y="13.92" width="0.24" height="0.48"/>
<rect x="104.52" y="13.92" width="1.8" height="0.48"/>
<rect x="110.4" y="13.92" width="0.24" height="0.48"/>
<rect x="110.64" y="13.92" width="1.74" height="0.48"/>
<rect x="116.46" y="13.92" width="0.24" height="0.48"/>
<rect x="116.7" y="13.92" width="1.74" height="0.48"/>
<rect x="122.52" y="13.92" width="0.24" height="0.48"/>
<rect x="122.76" y="13.92" width="1.74" height="0.48"/>
<rect x="128.58" y="13.92" width="0.24" height="0.48"/>
<rect x="128.82" y="13.92" width="1.8" height="0.48"/>
<rect x="134.7" y="13.92" width="0.24" height="0.48"/>
<rect x="134.94" y="13.92" width="1.74" height="0.48"/>
<rect x="140.76" y="13.92" width="0.24" height="0.48"/>
<rect x="141" y="13.92" width="0.96" height="0.48"/>
<path fill="#FFFFFF" d="M304.741,21.24l-0.062-0.72l-0.06-0.721c-2.018-7.91-12.854-7.337-14.041,0.721v1.439
	c1.189,8.071,12.02,8.655,14.041,0.721l0.06-0.721L304.741,21.24"/>
<path d="M304.5,21.3l-0.062-0.72l-0.06-0.72l-0.18-0.66v0.06l-0.24-0.659h0.06l-0.3-0.601l-0.36-0.6v0.06l-0.42-0.54l-0.96-0.96
	h0.061l-0.539-0.42V15.6l-0.602-0.36l-0.6-0.3h0.06L299.7,14.7l-0.66-0.18h0.061l-1.439-0.12h0.061l-1.439,0.12l-0.66,0.18h0.061
	l-0.66,0.24l-0.6,0.3l-0.602,0.36l0.061-0.061l-0.539,0.42l-0.541,0.48l-0.42,0.479l-0.42,0.54l0.061-0.06l-0.361,0.6l-0.302,0.601
	l-0.239,0.659V19.2l-0.181,0.66l-0.12,0.72v-0.06v1.439l0.12,0.721V22.62l0.181,0.66l0.239,0.66V23.88l0.302,0.601l0.358,0.6h-0.06
	l0.84,1.08V26.1l0.539,0.42l-0.299,0.359l-0.541-0.42h-0.061l-0.84-1.08v-0.06l-0.359-0.601l-0.301-0.6h-0.061l-0.239-0.66V23.4
	c-0.748-2.31-0.207-4.948,1.38-6.78l0.42-0.479l0.061-0.061c1.938-1.979,4.685-2.604,7.319-1.86h0.062l0.66,0.24v0.061l0.6,0.3
	c1.021,0.479,1.955,1.418,2.58,2.34h0.061l0.359,0.6c0.4,0.746,0.812,1.903,0.779,2.761l0.061,0.72"/>
<path d="M293.34,26.52l0.539,0.42h-0.061l0.602,0.359l0.6,0.301V27.54l0.66,0.24h-0.061l0.66,0.18L297,28.08h-0.062h1.44l0.72-0.12
	h-0.06l0.66-0.18l0.658-0.24l-0.061,0.061l0.601-0.301l0.601-0.359l0.541-0.42l0.479-0.42l-0.061,0.06l0.479-0.54l0.42-0.54
	l0.36-0.6l0.3-0.601l-0.06,0.061l0.24-0.66l0.18-0.66v0.061l0.06-0.721l0.062-0.72v0.06l0.479-0.06v0.06
	c-0.006,5.533-5.91,9.01-10.8,6.42l-0.601-0.359V27.3l-0.539-0.42"/>
<path d="M304.741,42.48l-0.062-0.721l-0.06-0.659c-1.865-7.887-12.895-7.398-14.041,0.659v1.5c1.207,8.053,12.108,8.553,14.041,0.66
	l0.06-0.66L304.741,42.48"/>
<path d="M304.5,42.54l-0.062-0.72l-0.06-0.66l-0.18-0.72v0.06l-0.24-0.66h0.06l-0.3-0.6l-0.36-0.6v0.06l-0.42-0.54l-0.96-0.96h0.061
	l-0.539-0.42v0.06l-1.201-0.6h0.061L299.7,36l-0.66-0.18h0.061l-0.721-0.12l-0.719-0.06h0.06L297,35.7l-0.721,0.12L295.62,36h0.061
	l-0.66,0.24l-1.2,0.6l0.062-0.06l-0.541,0.42l-0.539,0.48l-0.42,0.479l-0.42,0.54l0.06-0.06l-0.358,0.6l-0.302,0.6l-0.239,0.66
	v-0.06l-0.181,0.72l-0.12,0.66V41.76v1.5l0.12,0.66v-0.06l0.181,0.72l0.239,0.601l0.302,0.659v-0.06l0.358,0.54l0.42,0.6h-0.06
	l0.42,0.48V47.34l0.539,0.48h-0.06l-0.239,0.42v-0.06L292.5,47.7h-0.061c-0.729-0.767-1.4-1.941-1.738-2.94l-0.062-0.06l-0.181-0.72
	c-0.26-1.047-0.147-2.624,0.181-3.66l0.239-0.66l0.061-0.06L291.241,39c1.555-2.947,5.398-4.591,8.579-3.479h0.062l0.66,0.239v0.061
	l0.6,0.3c0.96,0.296,2.029,1.465,2.58,2.28h0.061l0.359,0.6c0.425,0.782,0.777,1.862,0.779,2.76l0.061,0.721"/>
<path d="M293.28,47.82l0.539,0.36l0.602,0.359l0.6,0.3v-0.06l0.66,0.24h-0.061l0.66,0.18L297,49.32l0.72,0.06h-0.06l0.719-0.06
	l0.721-0.12h-0.061l0.66-0.18l0.659-0.24l-0.06,0.06l0.6-0.3l0.602-0.359l0.539-0.36h-0.061l0.96-0.96v0.06l0.42-0.6l0.36-0.54v0.06
	l0.3-0.659l0.239-0.601H304.2l0.18-0.72v0.06l0.06-0.66l0.062-0.779v0.06l0.479-0.06v0.06l-0.061,0.78l-0.061,0.66l-0.18,0.72v0.06
	l-0.24,0.601l-0.3,0.66l-0.358,0.54v0.06l-0.422,0.601h-0.061c-2.463,2.878-6.557,3.457-9.719,1.38l-0.541-0.36"/>
<rect x="290.581" y="56.7" fill="#808080" width="14.16" height="14.16"/>
<rect x="290.34" y="84.78" width="0.24" height="0.479"/>
<rect x="290.581" y="84.78" width="14.398" height="0.479"/>
<text transform="matrix(0.9504 0 0 1 311.8188 86.2791)" font-family="'ProductusOSGiBookc'" font-size="7.98">Requirement/Capability</text>
<rect x="290.34" y="98.94" width="0.24" height="0.479"/>
<rect x="290.581" y="98.94" width="0.959" height="0.479"/>
<rect x="294.54" y="98.94" width="0.24" height="0.479"/>
<rect x="294.78" y="98.94" width="1.381" height="0.479"/>
<rect x="299.161" y="98.94" width="0.238" height="0.479"/>
<rect x="299.399" y="98.94" width="1.381" height="0.479"/>
<rect x="303.78" y="98.94" width="0.239" height="0.479"/>
<rect x="304.02" y="98.94" width="0.96" height="0.479"/>
<text transform="matrix(0.9504 0 0 1 311.8188 100.4392)" font-family="'ProductusOSGiBookc'" font-size="7.98">Runtime</text>
<rect y="85.02" fill="#808080" width="56.7" height="49.62"/>
<path d="M170.1,99.18l-0.06-0.721l-0.12-0.66c-1.654-7.894-12.947-7.36-13.98,0.66v1.44c1.035,8.051,12.232,8.644,13.98,0.72
	l0.12-0.72L170.1,99.18"/>
<path d="M169.859,99.24l-0.06-0.72l-0.12-0.66l-0.12-0.72v0.06l-0.24-0.66h0.061l-0.3-0.6l-0.36-0.601V95.4l-0.42-0.54l-0.96-0.96
	h0.06l-0.54-0.42v0.06l-1.199-0.6h0.06l-0.66-0.24l-0.66-0.18h0.061l-0.72-0.12l-0.721-0.061h0.061l-0.721,0.061l-0.72,0.12
	l-0.66,0.18h0.061l-0.66,0.24l-0.66,0.3l-0.54,0.3l0.061-0.06l-0.54,0.42l-0.54,0.479l-0.42,0.48l-0.421,0.54l0.061-0.061
	l-0.36,0.601l-0.3,0.6l-0.24,0.66v-0.06l-0.18,0.72l-0.12,0.66V98.46v1.44l0.12,0.72v-0.06l0.18,0.66l0.24,0.659l0.3,0.66v-0.06
	l0.36,0.54h-0.061l0.841,1.08v-0.061l0.54,0.48h-0.061l-0.24,0.42v-0.061c-0.737-0.495-1.335-1.405-1.8-2.159l-0.3-0.66h-0.06
	L156,101.4v-0.061c-0.461-1.302-0.398-3.011,0-4.319l0.24-0.66l0.06-0.061c0.588-1.377,1.826-2.811,3.18-3.479h0.061l0.66-0.3V92.46
	l0.659-0.24l0.66-0.18h0.061l0.72-0.12l0.72-0.06h0.061l0.72,0.06l0.72,0.12l0.66,0.18h0.061l0.659,0.24v0.061l0.601,0.3
	c0.96,0.296,2.03,1.465,2.58,2.28h0.06l0.36,0.6c0.602,1.109,0.555,1.54,0.78,2.76l0.06,0.721"/>
<path d="M158.64,104.52l1.08,0.72l0.66,0.3v-0.06l0.66,0.239h-0.061l0.66,0.181l0.72,0.12h-0.06h1.44l0.72-0.12h-0.061l0.66-0.181
	l0.66-0.239l-0.06,0.06l0.6-0.3l0.6-0.36l0.54-0.359h-0.06l0.479-0.48v0.061l0.48-0.54l0.42-0.54l0.36-0.54v0.06l0.3-0.66h-0.061
	l0.24-0.66v0.061l0.12-0.66l0.12-0.72l0.06-0.72v0.06l0.48-0.06v0.06c-0.053,5.926-6.499,9.238-11.4,6.06l-0.54-0.359"/>
<path fill="#FFFFFF" d="M21.24,99.18V98.46l-0.12-0.66c-1.813-7.88-12.936-7.405-13.98,0.66L7.08,99.18l0.06,0.72
	c1.012,8.088,12.11,8.62,13.98,0.72l0.12-0.72V99.18"/>
<path d="M21,99.18V98.46v0.061l-0.12-0.66l-0.18-0.72v0.06l-0.24-0.66h0.06l-0.3-0.6l-0.36-0.601V95.4l-0.42-0.54l-0.42-0.48h0.06
	L18.54,93.9L18,93.48v0.06l-0.54-0.3h0.06l-0.66-0.3L16.2,92.7l-0.66-0.18h0.06l-0.72-0.12l-0.72-0.061h0.06L13.5,92.4l-0.66,0.12
	l-0.72,0.18h0.06l-0.66,0.24l-1.2,0.6l0.06-0.06L9.84,93.9l-0.96,0.96L8.46,95.4l0.06-0.061L8.16,95.94l-0.24,0.6L7.68,97.2v-0.06
	L7.5,97.86l-0.12,0.66l-0.06,0.72v-0.06l0.06,0.72l0.12,0.72v-0.06l0.18,0.66l0.48,1.319v-0.06l0.36,0.54H8.46l0.42,0.54l0.48,0.54
	v-0.061l0.48,0.48H9.78l-0.24,0.42L9,104.4l-0.48-0.54l-0.42-0.54v-0.061l-0.36-0.54H7.68l-0.24-0.659
	c-0.699-1.877-0.777-3.121-0.24-5.04l0.24-0.66H7.5l0.24-0.601V95.7c0.677-1.216,1.65-2.309,2.94-2.88l0.6-0.3l0.06-0.061
	c1.731-0.646,3.185-0.816,4.98-0.24h0.06l0.66,0.24v0.061l0.66,0.3c1.164,0.523,1.775,1.286,2.52,2.28h0.06l0.36,0.6
	c0.474,0.854,0.696,1.798,0.84,2.76v0.721"/>
<path d="M9.78,104.52l0.54,0.359l0.6,0.36l0.6,0.3v-0.06l0.66,0.239h-0.06l0.72,0.181l0.66,0.12h-0.06h1.44l0.72-0.12h-0.06
	l0.66-0.181l0.66-0.239v0.06l0.66-0.3h-0.06l1.08-0.72l0.54-0.48l-0.06,0.061l0.84-1.08l0.36-0.54v0.06l0.3-0.66h-0.06l0.24-0.66
	l0.18-0.659v0.06L21,99.9v-0.72h0.48v0.72c-0.61,5.602-6.697,8.418-11.4,5.399l-0.54-0.359"/>
<path d="M21.24,35.4v-0.72l-0.12-0.66c-1.807-7.89-12.926-7.439-13.98,0.66L7.08,35.4l0.06,0.72c1.023,8.083,12.1,8.614,13.98,0.72
	l0.12-0.72V35.4"/>
<path d="M21,35.4v-0.72v0.06l-0.12-0.66l-0.18-0.72v0.06l-0.24-0.66h0.06l-0.3-0.6l-0.36-0.6v0.06l-0.42-0.54L19.02,30.6h0.06
	l-0.54-0.48L18,29.7v0.06L17.46,29.4h0.06l-0.66-0.3l-1.32-0.36h0.06l-0.72-0.12l-0.72-0.06h0.06l-0.72,0.06l-0.66,0.12l-0.72,0.18
	L11.46,29.1h0.06l-0.6,0.3l-0.6,0.359l0.06-0.06l-0.54,0.42l-0.96,0.96l-0.42,0.54l0.06-0.06l-0.36,0.6l-0.24,0.6l-0.24,0.66v-0.06
	L7.5,34.08l-0.12,0.66l-0.06,0.72V35.4l0.06,0.72l0.12,0.72v-0.06l0.18,0.66l0.48,1.319V38.7l0.36,0.54H8.46l0.42,0.54l0.48,0.54
	V40.26l0.48,0.421l-0.3,0.359l-0.48-0.42H9l-0.48-0.54L8.1,39.54v-0.06l-0.36-0.54H7.68l-0.24-0.66
	c-0.699-1.877-0.777-3.121-0.24-5.04l0.24-0.66H7.5l0.24-0.6V31.92c0.955-1.826,2.962-3.39,5.04-3.66l0.66-0.119l0.72-0.061
	c2.159,0.056,4.356,0.949,5.64,2.7l0.42,0.54h0.06l0.36,0.6c0.474,0.854,0.696,1.798,0.84,2.761v0.72"/>
<path d="M9.84,40.68l0.54,0.42h-0.06l0.6,0.359l0.6,0.3V41.7l0.66,0.24h-0.06l0.72,0.18l0.66,0.12h-0.06h1.44l0.72-0.12h-0.06
	l0.66-0.18l0.66-0.24v0.06l0.66-0.3h-0.06L18,41.1l1.08-0.841l-0.06,0.061l0.84-1.08l0.36-0.54v0.06l0.3-0.659h-0.06l0.24-0.66
	l0.18-0.66v0.06L21,36.12V35.4h0.48v0.72c-0.562,5.244-6.092,8.202-10.8,5.76l-0.6-0.359V41.46l-0.54-0.42"/>
<rect x="13.92" y="92.1" width="0.48" height="0.239"/>
<rect x="13.92" y="84.78" width="0.48" height="7.32"/>
<rect x="13.92" y="49.62" width="0.48" height="0.24"/>
<rect x="13.92" y="42.24" width="0.48" height="7.38"/>
<rect x="13.92" y="49.38" width="0.48" height="0.24"/>
<rect x="13.92" y="49.62" width="0.48" height="0.96"/>
<rect x="13.92" y="54.54" width="0.48" height="0.24"/>
<rect x="13.92" y="54.78" width="0.48" height="1.68"/>
<rect x="13.92" y="60.42" width="0.48" height="0.24"/>
<rect x="13.92" y="60.66" width="0.48" height="1.74"/>
<rect x="13.92" y="66.36" width="0.48" height="0.24"/>
<rect x="13.92" y="66.6" width="0.48" height="1.68"/>
<rect x="13.92" y="72.24" width="0.48" height="0.24"/>
<rect x="13.92" y="72.48" width="0.48" height="1.68"/>
<rect x="13.92" y="78.12" width="0.48" height="0.24"/>
<rect x="13.92" y="78.36" width="0.48" height="1.74"/>
<rect x="13.92" y="84.06" width="0.48" height="0.239"/>
<rect x="13.92" y="84.3" width="0.48" height="0.96"/>
<path fill="#FFFFFF" d="M42.54,35.4l-0.06-0.72l-0.12-0.66c-1.643-7.916-12.961-7.372-13.98,0.66v1.439
	c1.038,8.038,12.223,8.644,13.98,0.72l0.12-0.72L42.54,35.4"/>
<path d="M42.3,35.46l-0.06-0.72l-0.12-0.66L42,33.36v0.06l-0.24-0.66h0.06l-0.3-0.6l-0.36-0.6v0.06l-0.42-0.54l-0.96-0.96h0.06
	L39.3,29.7v0.06L38.7,29.4l-0.6-0.3h0.06l-1.32-0.36h0.06l-0.72-0.12l-0.72-0.06h0.06l-0.72,0.06l-0.72,0.12l-1.32,0.36h0.06
	l-0.66,0.3l-0.54,0.359l0.06-0.06l-0.54,0.42L30.6,30.6l-0.42,0.479l-0.42,0.54l0.06-0.06l-0.36,0.6l-0.3,0.6l-0.24,0.66v-0.06
	l-0.18,0.72l-0.12,0.66v-0.06v1.439l0.12,0.72v-0.06l0.18,0.66l0.24,0.66l0.3,0.659V38.7l0.36,0.54h-0.06l0.84,1.08V40.26
	l0.54,0.421l-0.3,0.359l-0.54-0.42h-0.06l-0.84-1.08v-0.06l-0.36-0.54l-0.3-0.66h-0.06l-0.24-0.66v-0.06
	c-0.461-1.303-0.398-3.012,0-4.32l0.24-0.66l0.06-0.06c0.651-1.506,1.793-2.69,3.18-3.54h0.06l0.66-0.3V28.62l0.66-0.18
	c3.064-0.991,6.469,0.213,8.22,2.88h0.06l0.36,0.6c0.602,1.109,0.555,1.539,0.78,2.761l0.06,0.72"/>
<path d="M31.14,40.68l0.54,0.42h-0.06l0.54,0.359l0.66,0.3V41.7l0.66,0.24h-0.06l0.66,0.18l0.72,0.12h-0.06h1.44l0.72-0.12h-0.06
	l0.66-0.18l0.66-0.24l-0.06,0.06l0.6-0.3l0.6-0.359l0.54-0.42l0.48-0.421l-0.06,0.061l0.48-0.54l0.42-0.54l0.36-0.54v0.06l0.3-0.659
	h-0.06L42,37.44v0.06l0.12-0.66l0.12-0.72l0.06-0.72v0.06l0.48-0.06v0.06l-0.06,0.721c-0.211,2.418-1.285,3.887-3.18,5.34
	l-0.6,0.359l-0.6,0.301c-2.027,0.846-4.417,0.736-6.36-0.301h-0.06l-0.54-0.359V41.46l-0.54-0.42"/>
<rect x="35.22" y="49.38" width="0.48" height="0.24"/>
<rect x="35.22" y="49.62" width="0.48" height="0.96"/>
<rect x="35.22" y="54.54" width="0.48" height="0.24"/>
<rect x="35.22" y="54.78" width="0.48" height="1.68"/>
<rect x="35.22" y="60.42" width="0.48" height="0.24"/>
<rect x="35.22" y="60.66" width="0.48" height="1.74"/>
<rect x="35.22" y="66.36" width="0.48" height="0.24"/>
<rect x="35.22" y="66.6" width="0.48" height="1.68"/>
<rect x="35.22" y="72.24" width="0.48" height="0.24"/>
<rect x="35.22" y="72.48" width="0.48" height="1.68"/>
<rect x="35.22" y="78.12" width="0.48" height="0.24"/>
<rect x="35.22" y="78.36" width="0.48" height="1.74"/>
<rect x="35.22" y="84.06" width="0.48" height="0.239"/>
<rect x="35.22" y="84.3" width="0.48" height="0.96"/>
<rect x="35.22" y="42.24" width="0.48" height="0.24"/>
<rect x="35.22" y="42.48" width="0.48" height="7.38"/>
<rect x="35.22" y="84.78" width="0.48" height="14.64"/>
<rect x="35.46" y="98.94" width="120.72" height="0.479"/>
<path fill="#FFFFFF" d="M170.1,120.48l-0.06-0.721l-0.12-0.72c-1.757-7.923-12.942-7.317-13.98,0.72v1.44
	c1.067,8.025,12.202,8.605,13.98,0.72l0.12-0.72L170.1,120.48"/>
<path d="M169.859,120.54l-0.06-0.72l-0.12-0.72l-0.12-0.66v0.06l-0.24-0.66h0.061l-0.3-0.659l-0.36-0.54v0.06l-0.42-0.54l-0.48-0.54
	h0.061l-0.48-0.42l-0.54-0.42v0.06l-0.6-0.359l-0.6-0.3h0.06l-0.66-0.24l-0.66-0.181h0.061l-0.72-0.119h-1.44h0.06l-0.72,0.119
	l-0.66,0.181h0.061l-0.66,0.24l-0.66,0.3l-0.54,0.359l0.061-0.06l-1.08,0.84l-0.841,1.08l0.061-0.06l-0.36,0.54l-0.3,0.659
	l-0.24,0.66v-0.06l-0.18,0.66l-0.12,0.72v-0.061v1.44l0.12,0.72v-0.06l0.18,0.66l0.24,0.66v-0.061l0.3,0.601l0.36,0.6h-0.061
	l0.421,0.54l0.42,0.479v-0.06l0.54,0.479l-0.301,0.36l-0.54-0.479h-0.06l-0.42-0.48l-0.42-0.54v-0.06l-0.36-0.601l-0.3-0.6h-0.06
	L156,122.7v-0.06l-0.181-0.66l-0.119-0.721v-1.5l0.119-0.72v-0.06l0.181-0.66l0.24-0.66h0.06l0.3-0.66v-0.06l0.36-0.54l0.84-1.08
	l0.06-0.061l1.08-0.84l0.54-0.359h0.061l0.66-0.301v-0.06l0.659-0.24l0.66-0.18h0.061l0.72-0.12h1.5l0.72,0.12l0.66,0.18h0.061
	l0.659,0.24v0.06l0.601,0.301c1.225,0.624,1.766,1.253,2.58,2.34h0.06l0.36,0.54V117l0.3,0.66l0.24,0.66v0.06l0.12,0.66l0.12,0.72
	l0.06,0.721"/>
<path d="M158.7,125.76l0.54,0.421h-0.061l0.54,0.359l0.66,0.3v-0.06l0.66,0.24h-0.061l0.66,0.12l0.72,0.119l0.721,0.061h-0.061
	l0.721-0.061l0.72-0.119l0.66-0.12h-0.061l0.66-0.24l-0.06,0.06l0.6-0.3l0.6-0.359l0.54-0.421h-0.06l0.96-0.96v0.061l0.42-0.54
	l0.36-0.601l0.3-0.6l-0.061,0.061l0.24-0.66v0.06l0.12-0.66l0.12-0.72l0.06-0.72v0.06l0.48-0.06v0.06l-0.06,0.72
	c-0.226,2.469-1.287,3.824-3.181,5.341l-0.6,0.359l-0.601,0.3c-2.031,0.776-4.416,0.698-6.359-0.3h-0.061l-0.54-0.359v-0.061
	l-0.54-0.42"/>
<path d="M42.54,120.48l-0.06-0.721l-0.12-0.72c-1.757-7.923-12.942-7.317-13.98,0.72v1.44c1.067,8.025,12.202,8.605,13.98,0.72
	l0.12-0.72L42.54,120.48"/>
<path d="M42.3,120.54l-0.06-0.72l-0.12-0.72L42,118.44v0.06l-0.24-0.66h0.06l-0.3-0.659l-0.36-0.54v0.06l-0.42-0.54l-0.48-0.54h0.06
	l-0.48-0.42l-0.54-0.42v0.06l-0.6-0.359l-0.6-0.3h0.06l-0.66-0.24l-0.66-0.181h0.06l-0.72-0.119h-1.44h0.06l-0.72,0.119l-0.66,0.181
	h0.06l-0.66,0.24l-0.66,0.3l-0.54,0.359l0.06-0.06l-1.08,0.84l-0.84,1.08l0.06-0.06l-0.36,0.54l-0.3,0.659l-0.24,0.66v-0.06
	l-0.18,0.66l-0.12,0.72v-0.061v1.44l0.12,0.72v-0.06l0.18,0.66l0.24,0.66v-0.061l0.3,0.601l0.36,0.6h-0.06l0.42,0.54l0.42,0.479
	v-0.06l0.54,0.479l-0.3,0.36l-0.54-0.479h-0.06l-0.42-0.48l-0.42-0.54v-0.06l-0.36-0.601l-0.3-0.6h-0.06l-0.24-0.66v-0.06
	l-0.18-0.66l-0.12-0.721v-1.5l0.12-0.72v-0.06l0.18-0.66l0.24-0.66h0.06l0.3-0.66v-0.06l0.36-0.54l0.84-1.08l0.06-0.061l1.08-0.84
	l0.54-0.359h0.06l0.66-0.301v-0.06l0.66-0.24l0.66-0.18h0.06l0.72-0.12h1.5l0.72,0.12l0.66,0.18h0.06l0.66,0.24v0.06l0.6,0.301
	c1.225,0.624,1.766,1.253,2.58,2.34h0.06l0.36,0.54V117l0.3,0.66l0.24,0.66v0.06l0.12,0.66l0.12,0.72l0.06,0.721"/>
<path d="M31.14,125.76l0.54,0.421h-0.06l0.54,0.359l0.66,0.3v-0.06l0.66,0.24h-0.06l0.66,0.12l0.72,0.119l0.72,0.061h-0.06
	l0.72-0.061l0.72-0.119l0.66-0.12H37.5l0.66-0.24l-0.06,0.06l0.6-0.3l0.6-0.359l0.54-0.421h-0.06l0.96-0.96v0.061l0.42-0.54
	l0.36-0.601l0.3-0.6l-0.06,0.061l0.24-0.66v0.06l0.12-0.66l0.12-0.72l0.06-0.72v0.06l0.48-0.06v0.06l-0.06,0.72
	c-0.225,2.469-1.287,3.824-3.18,5.341l-0.6,0.359l-0.6,0.3c-2.032,0.776-4.416,0.698-6.36-0.3h-0.06l-0.54-0.359v-0.061l-0.54-0.42"
	/>
<rect x="42.3" y="120.24" width="0.24" height="0.479"/>
<rect x="42.54" y="120.24" width="14.4" height="0.479"/>
<rect x="141.48" y="120.24" width="0.24" height="0.479"/>
<rect x="141.72" y="120.24" width="14.46" height="0.479"/>
<rect x="56.46" y="120.24" width="0.24" height="0.479"/>
<rect x="56.7" y="120.24" width="1.02" height="0.479"/>
<rect x="61.74" y="120.24" width="0.24" height="0.479"/>
<rect x="61.98" y="120.24" width="1.8" height="0.479"/>
<rect x="67.86" y="120.24" width="0.24" height="0.479"/>
<rect x="68.1" y="120.24" width="1.74" height="0.479"/>
<rect x="73.92" y="120.24" width="0.24" height="0.479"/>
<rect x="74.16" y="120.24" width="1.74" height="0.479"/>
<rect x="79.98" y="120.24" width="0.24" height="0.479"/>
<rect x="80.22" y="120.24" width="1.8" height="0.479"/>
<rect x="86.1" y="120.24" width="0.24" height="0.479"/>
<rect x="86.34" y="120.24" width="1.74" height="0.479"/>
<rect x="92.16" y="120.24" width="0.24" height="0.479"/>
<rect x="92.4" y="120.24" width="1.74" height="0.479"/>
<rect x="98.22" y="120.24" width="0.24" height="0.479"/>
<rect x="98.46" y="120.24" width="1.74" height="0.479"/>
<rect x="104.28" y="120.24" width="0.24" height="0.479"/>
<rect x="104.52" y="120.24" width="1.8" height="0.479"/>
<rect x="110.4" y="120.24" width="0.24" height="0.479"/>
<rect x="110.64" y="120.24" width="1.74" height="0.479"/>
<rect x="116.46" y="120.24" width="0.24" height="0.479"/>
<rect x="116.7" y="120.24" width="1.74" height="0.479"/>
<rect x="122.52" y="120.24" width="0.24" height="0.479"/>
<rect x="122.76" y="120.24" width="1.74" height="0.479"/>
<rect x="128.58" y="120.24" width="0.24" height="0.479"/>
<rect x="128.82" y="120.24" width="1.8" height="0.479"/>
<rect x="134.7" y="120.24" width="0.24" height="0.479"/>
<rect x="134.94" y="120.24" width="1.74" height="0.479"/>
<rect x="140.76" y="120.24" width="0.24" height="0.479"/>
<rect x="141" y="120.24" width="0.96" height="0.479"/>
<text transform="matrix(0.9504 0 0 1 201.9595 92.4001)" font-family="'ProductusOSGiBookc'" font-size="7.98">fragment</text>
<text transform="matrix(0.9504 0 0 1 58.9805 92.4001)" font-family="'ProductusOSGiBookc'" font-size="7.98">host</text>
<text transform="matrix(0.9504 0 0 1 311.8208 64.0193)" font-family="'ProductusOSGiBookc'" font-size="7.98">Bundle</text>
</svg>
