<?xml version="1.0" encoding="utf-8"?>
<!-- Generator: Adobe Illustrator 16.0.1, SVG Export Plug-In . SVG Version: 6.00 Build 0)  -->
<!DOCTYPE svg PUBLIC "-//W3C//DTD SVG 1.1//EN" "http://www.w3.org/Graphics/SVG/1.1/DTD/svg11.dtd">
<svg version="1.1" id="Layer_1" xmlns="http://www.w3.org/2000/svg" xmlns:xlink="http://www.w3.org/1999/xlink" x="0px" y="0px"
	 width="170.1px" height="49.621px" viewBox="0 0 170.1 49.621" enable-background="new 0 0 170.1 49.621" xml:space="preserve">
<rect x="127.56" fill="#808080" width="42.54" height="49.621"/>
<path fill="#FFFFFF" d="M155.94,28.38l-0.06-0.721l-0.12-0.72c-1.773-7.936-12.924-7.351-13.98,0.72v1.44
	c1.049,8.019,12.299,8.562,13.98,0.659l0.12-0.659L155.94,28.38"/>
<path d="M155.7,28.44l-0.061-0.72L155.52,27l-0.18-0.719l-0.181-0.601l0.061,0.06l-0.3-0.66l-0.36-0.54v0.06l-0.42-0.6l-0.96-0.96
	l0.061,0.06l-0.54-0.36l-0.601-0.36l-0.601-0.3h0.061l-0.66-0.24l-0.72-0.18h0.061l-0.66-0.12l-0.721-0.06h0.062l-0.721,0.06
	l-0.721,0.12l-0.66,0.18h0.062l-0.66,0.24l-0.66,0.3l-1.08,0.72l0.061-0.06L144,23.52L143.58,24h0.061l-0.42,0.6v-0.06l-0.36,0.54
	l-0.3,0.66l-0.24,0.6v-0.059L142.14,27l-0.12,0.721V27.66v1.44l0.12,0.659v-0.059l0.18,0.719l0.24,0.66v-0.06l0.3,0.601l0.36,0.6
	h-0.061l0.42,0.539l0.42,0.48v-0.06l0.54,0.479l-0.301,0.36l-0.539-0.479h-0.061l-0.42-0.48l-0.42-0.54v-0.06l-0.36-0.601
	l-0.3-0.601h-0.061l-0.239-0.659v-0.06l-0.181-0.721l-0.12-0.66v-1.5l0.12-0.72v-0.06l0.181-0.721h0.06l0.24-0.6l0.3-0.66v-0.06
	l0.36-0.54l0.42-0.6l0.42-0.48l0.061-0.06l0.539-0.48l1.08-0.72h0.062l0.659-0.3V21.6l0.66-0.24l0.659-0.18h0.062l0.72-0.12
	l0.72-0.06h0.062l0.72,0.06l0.66,0.12l0.72,0.18h0.061l0.66,0.24v0.06l0.601,0.3c2.276,1.148,3.523,3.173,3.779,5.7l0.061,0.721"/>
<path d="M144.54,33.66l0.54,0.42h-0.061l0.54,0.301l0.66,0.3v-0.06l0.66,0.239h-0.062l0.66,0.181l0.721,0.119l0.721,0.061h-0.062
	l0.721-0.061l0.659-0.119h-0.06l0.72-0.181l0.66-0.239l-0.061,0.06l1.199-0.601l0.54-0.42h-0.06l0.96-0.959v0.059l0.42-0.539
	l0.36-0.6l0.3-0.601l-0.061,0.06l0.181-0.66l0.18-0.719v0.059l0.12-0.659l0.06-0.72v0.06l0.48-0.06v0.06l-0.061,0.72
	c-0.402,2.655-1.102,3.633-3.181,5.34l-1.2,0.601c-2.312,0.88-4.137,0.771-6.358-0.3h-0.062l-0.54-0.301v-0.06l-0.54-0.42"/>
<rect x="0" fill="#808080" width="42.54" height="49.621"/>
<path d="M28.38,28.38L28.32,27.66L28.2,26.94c-1.825-7.941-12.922-7.365-13.98,0.72v1.44c1.083,8.056,12.231,8.558,13.98,0.659
	L28.32,29.1L28.38,28.38"/>
<path d="M28.14,28.44l-0.06-0.72L27.96,27l-0.181-0.719l0.061,0.059l-0.24-0.6l-0.3-0.66L27,24.54v0.06L26.58,24l-0.96-0.96
	l0.06,0.06l-0.54-0.36l-0.6-0.36l-0.601-0.3H24l-0.66-0.24l-0.72-0.18h0.06l-0.66-0.12l-0.72-0.06h0.06l-0.72,0.06l-0.72,0.12
	l-0.72,0.18h0.06l-0.6,0.24L18,22.38l-0.54,0.36L16.86,23.1l0.061-0.06L15.96,24l0.06-0.06l-0.359,0.6l-0.36,0.54L15,25.74
	l-0.24,0.6v-0.059L14.58,27l-0.12,0.721V27.66v1.44l0.12,0.659v-0.059l0.18,0.719L15,31.08v-0.06l0.3,0.601l0.36,0.6l0.359,0.539
	l-0.06-0.059l0.96,0.959l-0.3,0.42l-0.061-0.06c-1.03-0.994-0.958-0.931-1.68-2.16l-0.3-0.601H14.52L14.28,30.6v-0.06L14.1,29.82
	l-0.12-0.66v-1.5l0.12-0.72v-0.06l0.18-0.721h0.061l0.24-0.6c0.906-2.137,1.763-2.993,3.899-3.9l0.601-0.24v-0.06l0.72-0.18h0.06
	l0.721-0.12L21.3,21h0.06l0.721,0.06l0.66,0.12l0.72,0.18h0.06l0.66,0.24v0.06l0.6,0.3c2.28,1.111,3.468,3.234,3.78,5.7l0.061,0.721
	"/>
<path d="M16.92,33.66l0.6,0.42h-0.06L18,34.38l0.66,0.3l0.6,0.239l-0.06-0.06l0.72,0.181l0.72,0.119l0.72,0.061H21.3l0.72-0.061
	l0.66-0.119h-0.06l0.72-0.181L24,34.621l-0.061,0.06l1.2-0.601l0.54-0.42h-0.06l0.96-0.959v0.059L27,32.22l0.6-1.2l-0.06,0.06
	l0.239-0.66l0.181-0.719v0.059l0.12-0.659l0.06-0.72v0.06l0.48-0.06v0.06c-0.194,5.97-6.377,9.091-11.4,6.06l-0.6-0.42"/>
<rect x="28.14" y="28.14" width="0.24" height="0.48"/>
<rect x="28.38" y="28.14" width="14.399" height="0.48"/>
<rect x="127.32" y="28.14" width="0.24" height="0.48"/>
<rect x="127.56" y="28.14" width="14.46" height="0.48"/>
<rect x="42.3" y="28.14" width="0.24" height="0.48"/>
<rect x="42.54" y="28.14" width="0.96" height="0.48"/>
<rect x="47.58" y="28.14" width="0.239" height="0.48"/>
<rect x="47.82" y="28.14" width="1.801" height="0.48"/>
<rect x="53.7" y="28.14" width="0.239" height="0.48"/>
<rect x="53.94" y="28.14" width="1.74" height="0.48"/>
<rect x="59.76" y="28.14" width="0.24" height="0.48"/>
<rect x="60" y="28.14" width="1.74" height="0.48"/>
<rect x="65.82" y="28.14" width="0.24" height="0.48"/>
<rect x="66.06" y="28.14" width="1.8" height="0.48"/>
<rect x="71.88" y="28.14" width="0.24" height="0.48"/>
<rect x="72.12" y="28.14" width="1.8" height="0.48"/>
<rect x="78" y="28.14" width="0.24" height="0.48"/>
<rect x="78.24" y="28.14" width="1.739" height="0.48"/>
<rect x="84.06" y="28.14" width="0.24" height="0.48"/>
<rect x="84.3" y="28.14" width="1.739" height="0.48"/>
<rect x="90.12" y="28.14" width="0.239" height="0.48"/>
<rect x="90.36" y="28.14" width="1.801" height="0.48"/>
<rect x="96.18" y="28.14" width="0.24" height="0.48"/>
<rect x="96.42" y="28.14" width="1.8" height="0.48"/>
<rect x="102.3" y="28.14" width="0.239" height="0.48"/>
<rect x="102.54" y="28.14" width="1.739" height="0.48"/>
<rect x="108.36" y="28.14" width="0.24" height="0.48"/>
<rect x="108.6" y="28.14" width="1.74" height="0.48"/>
<rect x="114.42" y="28.14" width="0.239" height="0.48"/>
<rect x="114.66" y="28.14" width="1.8" height="0.48"/>
<rect x="120.54" y="28.14" width="0.239" height="0.48"/>
<rect x="120.78" y="28.14" width="1.74" height="0.48"/>
<rect x="126.6" y="28.14" width="0.24" height="0.48"/>
<rect x="126.84" y="28.14" width="0.96" height="0.48"/>
<polyline fill="#FFFFFF" points="92.16,24.84 92.16,35.46 78,28.38 92.16,21.24 92.16,28.38 "/>
<rect x="91.92" y="24.6" width="0.479" height="0.24"/>
<polyline points="92.4,24.84 92.4,35.88 77.88,28.621 77.4,28.44 77.88,28.201 78.12,28.201 92.28,35.281 92.04,35.701 91.92,35.46 
	91.92,24.84 "/>
<polyline points="77.88,28.201 92.04,21.06 92.4,20.88 92.4,21.24 92.28,21.48 78.12,28.621 "/>
<rect x="91.92" y="21.24" width="0.479" height="7.38"/>
<text transform="matrix(1 0 0 1 104.8801 35.7593)" enable-background="new    "><tspan x="0" y="0" font-family="'ProductusBook'" font-size="7.98">getting</tspan><tspan x="0" y="9.576" font-family="'ProductusBook'" font-size="7.98">bundle</tspan></text>
<text transform="matrix(1 0 0 1 45.24 35.7593)" enable-background="new    "><tspan x="0" y="0" font-family="'ProductusBook'" font-size="7.98">registering</tspan><tspan x="0" y="9.576" font-family="'ProductusBook'" font-size="7.98">bundle</tspan></text>
<text transform="matrix(1 0 0 1 76.4402 18.7183)" font-family="'ProductusBook'" font-size="7.98">service</text>
<text transform="matrix(1 0 0 1 139.3811 9.4185)" enable-background="new    "><tspan x="0" y="0" font-family="'ProductusBook'" font-size="7.98">service</tspan><tspan x="3.323" y="9.576" font-family="'ProductusBook'" font-size="7.98">filter</tspan></text>
<text transform="matrix(1 0 0 1 11.1208 8.6987)" enable-background="new    "><tspan x="0" y="0" font-family="'ProductusBook'" font-size="7.98">service</tspan><tspan x="-4.756" y="9.576" font-family="'ProductusBook'" font-size="7.98">properties</tspan></text>
</svg>
