<?xml version="1.0" encoding="utf-8"?>
<!-- Generator: Adobe Illustrator 16.0.0, SVG Export Plug-In . SVG Version: 6.00 Build 0)  -->
<!DOCTYPE svg PUBLIC "-//W3C//DTD SVG 1.1//EN" "http://www.w3.org/Graphics/SVG/1.1/DTD/svg11.dtd">
<svg version="1.1" id="Layer_1" xmlns="http://www.w3.org/2000/svg" xmlns:xlink="http://www.w3.org/1999/xlink" x="0px" y="0px"
	 width="339.348px" height="331.2px" viewBox="0 0 339.348 331.2" style="enable-background:new 0 0 339.348 331.2;"
	 xml:space="preserve">
<rect x="51.348" y="273.6" style="fill:#E6E6E6;" width="216" height="57.6"/>
<rect x="204.948" y="138.6" width="55.199" height="27"/>
<rect x="204.948" y="138.36" width="55.439" height="0.48"/>
<rect x="259.908" y="138.6" width="0.479" height="27.24"/>
<rect x="204.708" y="165.36" width="55.439" height="0.48"/>
<rect x="204.708" y="138.36" width="0.479" height="27.24"/>
<rect x="202.548" y="136.8" style="fill:#FFFFFF;" width="55.2" height="27"/>
<rect x="202.548" y="136.56" width="55.44" height="0.479"/>
<rect x="257.508" y="136.8" width="0.48" height="27.239"/>
<rect x="202.308" y="163.56" width="55.44" height="0.479"/>
<rect x="202.308" y="136.56" width="0.48" height="27.24"/>
<text transform="matrix(1 0 0 1.0522 204.9482 143.9399)"><tspan x="0" y="0" style="font-family:'ProductusOSGiBookc'; font-size:7.5841;">&lt;&lt;</tspan><tspan x="5.536" y="0" style="font-family:'ProductusOSGiBookc'; font-size:7.5841;">i</tspan><tspan x="7.03" y="0" style="font-family:'ProductusOSGiBookc'; font-size:7.5841;">nte</tspan><tspan x="15.964" y="0" style="font-family:'ProductusOSGiBookc'; font-size:7.5841;">r</tspan><tspan x="18.118" y="0" style="font-family:'ProductusOSGiBookc'; font-size:7.5841;">fa</tspan><tspan x="23.101" y="0" style="font-family:'ProductusOSGiBookc'; font-size:7.5841;">c</tspan><tspan x="26.035" y="0" style="font-family:'ProductusOSGiBookc'; font-size:7.5841;">e</tspan><tspan x="29.335" y="0" style="font-family:'ProductusOSGiBookc'; font-size:7.5841;">&gt;</tspan><tspan x="32.103" y="0" style="font-family:'ProductusOSGiBookc'; font-size:7.5841;">&gt;</tspan></text>
<text transform="matrix(1 0 0 1 204.9482 152.3999)"><tspan x="0" y="0" style="font-family:'ProductusSemibold'; font-size:7.98;">U</tspan><tspan x="5.155" y="0" style="font-family:'ProductusSemibold'; font-size:7.98;">s</tspan><tspan x="8.45" y="0" style="font-family:'ProductusSemibold'; font-size:7.98;">er</tspan><tspan x="15.593" y="0" style="font-family:'ProductusSemibold'; font-size:7.98;">A</tspan><tspan x="20.452" y="0" style="font-family:'ProductusSemibold'; font-size:7.98;">d</tspan><tspan x="24.77" y="0" style="font-family:'ProductusSemibold'; font-size:7.98;">mi</tspan><tspan x="33.332" y="0" style="font-family:'ProductusSemibold'; font-size:7.98;">n</tspan></text>
<rect x="60.948" y="138.6" width="55.2" height="27"/>
<rect x="60.948" y="138.36" width="55.44" height="0.48"/>
<rect x="115.908" y="138.6" width="0.48" height="27.24"/>
<rect x="60.708" y="165.36" width="55.44" height="0.48"/>
<rect x="60.708" y="138.36" width="0.48" height="27.24"/>
<rect x="58.548" y="136.8" style="fill:#FFFFFF;" width="55.2" height="27"/>
<rect x="58.548" y="136.56" width="55.44" height="0.479"/>
<rect x="113.508" y="136.8" width="0.48" height="27.239"/>
<rect x="58.308" y="163.56" width="55.44" height="0.479"/>
<rect x="58.308" y="136.56" width="0.48" height="27.24"/>
<text transform="matrix(1 0 0 1.0522 60.9478 143.9399)"><tspan x="0" y="0" style="font-family:'ProductusOSGiBookc'; font-size:7.5841;">&lt;&lt;</tspan><tspan x="5.536" y="0" style="font-family:'ProductusOSGiBookc'; font-size:7.5841;">i</tspan><tspan x="7.03" y="0" style="font-family:'ProductusOSGiBookc'; font-size:7.5841;">nte</tspan><tspan x="15.964" y="0" style="font-family:'ProductusOSGiBookc'; font-size:7.5841;">r</tspan><tspan x="18.118" y="0" style="font-family:'ProductusOSGiBookc'; font-size:7.5841;">fa</tspan><tspan x="23.101" y="0" style="font-family:'ProductusOSGiBookc'; font-size:7.5841;">c</tspan><tspan x="26.036" y="0" style="font-family:'ProductusOSGiBookc'; font-size:7.5841;">e</tspan><tspan x="29.334" y="0" style="font-family:'ProductusOSGiBookc'; font-size:7.5841;">&gt;</tspan><tspan x="32.103" y="0" style="font-family:'ProductusOSGiBookc'; font-size:7.5841;">&gt;</tspan></text>
<text transform="matrix(1 0 0 1 60.9478 152.3999)"><tspan x="0" y="0" style="font-family:'ProductusSemibold'; font-size:7.98;">R</tspan><tspan x="4.253" y="0" style="font-family:'ProductusSemibold'; font-size:7.98;">o</tspan><tspan x="8.57" y="0" style="font-family:'ProductusSemibold'; font-size:7.98;">l</tspan><tspan x="10.725" y="0" style="font-family:'ProductusSemibold'; font-size:7.98;">e</tspan></text>
<rect x="32.148" y="225" width="55.2" height="27"/>
<rect x="32.148" y="224.76" width="55.44" height="0.479"/>
<rect x="87.108" y="225" width="0.48" height="27.24"/>
<rect x="31.908" y="251.76" width="55.44" height="0.479"/>
<rect x="31.908" y="224.76" width="0.48" height="27.239"/>
<rect x="29.748" y="223.2" style="fill:#FFFFFF;" width="55.2" height="27"/>
<rect x="29.748" y="222.959" width="55.44" height="0.48"/>
<rect x="84.708" y="223.2" width="0.48" height="27.24"/>
<rect x="29.508" y="249.959" width="55.44" height="0.48"/>
<rect x="29.508" y="222.959" width="0.48" height="27.24"/>
<text transform="matrix(1 0 0 1.0522 32.1479 230.3394)"><tspan x="0" y="0" style="font-family:'ProductusOSGiBookc'; font-size:7.5841;">&lt;&lt;</tspan><tspan x="5.536" y="0" style="font-family:'ProductusOSGiBookc'; font-size:7.5841;">i</tspan><tspan x="7.03" y="0" style="font-family:'ProductusOSGiBookc'; font-size:7.5841;">nte</tspan><tspan x="15.964" y="0" style="font-family:'ProductusOSGiBookc'; font-size:7.5841;">r</tspan><tspan x="18.118" y="0" style="font-family:'ProductusOSGiBookc'; font-size:7.5841;">fa</tspan><tspan x="23.101" y="0" style="font-family:'ProductusOSGiBookc'; font-size:7.5841;">c</tspan><tspan x="26.036" y="0" style="font-family:'ProductusOSGiBookc'; font-size:7.5841;">e</tspan><tspan x="29.334" y="0" style="font-family:'ProductusOSGiBookc'; font-size:7.5841;">&gt;</tspan><tspan x="32.103" y="0" style="font-family:'ProductusOSGiBookc'; font-size:7.5841;">&gt;</tspan></text>
<text transform="matrix(1 0 0 1 32.1479 238.7993)"><tspan x="0" y="0" style="font-family:'ProductusSemibold'; font-size:7.98;">G</tspan><tspan x="5.338" y="0" style="font-family:'ProductusSemibold'; font-size:7.98;">r</tspan><tspan x="8.211" y="0" style="font-family:'ProductusSemibold'; font-size:7.98;">o</tspan><tspan x="12.584" y="0" style="font-family:'ProductusSemibold'; font-size:7.98;">u</tspan><tspan x="16.837" y="0" style="font-family:'ProductusSemibold'; font-size:7.98;">p</tspan></text>
<rect x="248.147" y="73.8" width="55.2" height="27"/>
<rect x="248.147" y="73.56" width="55.44" height="0.48"/>
<rect x="303.107" y="73.8" width="0.48" height="27.24"/>
<rect x="247.908" y="100.56" width="55.439" height="0.48"/>
<rect x="247.908" y="73.56" width="0.479" height="27.24"/>
<rect x="245.748" y="72" style="fill:#FFFFFF;" width="55.2" height="27"/>
<rect x="245.748" y="71.76" width="55.439" height="0.48"/>
<rect x="300.708" y="72" width="0.479" height="27.24"/>
<rect x="245.508" y="98.76" width="55.44" height="0.48"/>
<rect x="245.508" y="71.76" width="0.48" height="27.24"/>
<text transform="matrix(1 0 0 1 248.1475 79.1396)"><tspan x="0" y="0" style="font-family:'ProductusSemibold'; font-size:7.98;">U</tspan><tspan x="5.155" y="0" style="font-family:'ProductusSemibold'; font-size:7.98;">s</tspan><tspan x="8.45" y="0" style="font-family:'ProductusSemibold'; font-size:7.98;">er</tspan><tspan x="15.593" y="0" style="font-family:'ProductusSemibold'; font-size:7.98;">A</tspan><tspan x="20.452" y="0" style="font-family:'ProductusSemibold'; font-size:7.98;">d</tspan><tspan x="24.77" y="0" style="font-family:'ProductusSemibold'; font-size:7.98;">mi</tspan><tspan x="33.332" y="0" style="font-family:'ProductusSemibold'; font-size:7.98;">n</tspan></text>
<text transform="matrix(1 0 0 1 248.1475 87.6001)"><tspan x="0" y="0" style="font-family:'ProductusSemibold'; font-size:7.98;">E</tspan><tspan x="3.838" y="0" style="font-family:'ProductusSemibold'; font-size:7.98;">v</tspan><tspan x="7.732" y="0" style="font-family:'ProductusSemibold'; font-size:7.98;">e</tspan><tspan x="11.866" y="0" style="font-family:'ProductusSemibold'; font-size:7.98;">n</tspan><tspan x="16.119" y="0" style="font-family:'ProductusSemibold'; font-size:7.98;">t</tspan></text>
<rect x="60.948" y="73.8" width="55.2" height="27"/>
<rect x="60.948" y="73.56" width="55.44" height="0.48"/>
<rect x="115.908" y="73.8" width="0.48" height="27.24"/>
<rect x="60.708" y="100.56" width="55.44" height="0.48"/>
<rect x="60.708" y="73.56" width="0.48" height="27.24"/>
<rect x="58.548" y="72" style="fill:#FFFFFF;" width="55.2" height="27"/>
<rect x="58.548" y="71.76" width="55.44" height="0.48"/>
<rect x="113.508" y="72" width="0.48" height="27.24"/>
<rect x="58.308" y="98.76" width="55.44" height="0.48"/>
<rect x="58.308" y="71.76" width="0.48" height="27.24"/>
<text transform="matrix(1 0 0 1.0522 60.9478 79.1396)"><tspan x="0" y="0" style="font-family:'ProductusOSGiBookc'; font-size:7.5841;">&lt;&lt;</tspan><tspan x="5.536" y="0" style="font-family:'ProductusOSGiBookc'; font-size:7.5841;">i</tspan><tspan x="7.03" y="0" style="font-family:'ProductusOSGiBookc'; font-size:7.5841;">nte</tspan><tspan x="15.964" y="0" style="font-family:'ProductusOSGiBookc'; font-size:7.5841;">r</tspan><tspan x="18.118" y="0" style="font-family:'ProductusOSGiBookc'; font-size:7.5841;">fa</tspan><tspan x="23.101" y="0" style="font-family:'ProductusOSGiBookc'; font-size:7.5841;">c</tspan><tspan x="26.036" y="0" style="font-family:'ProductusOSGiBookc'; font-size:7.5841;">e</tspan><tspan x="29.334" y="0" style="font-family:'ProductusOSGiBookc'; font-size:7.5841;">&gt;</tspan><tspan x="32.103" y="0" style="font-family:'ProductusOSGiBookc'; font-size:7.5841;">&gt;</tspan></text>
<text transform="matrix(1 0 0 1 60.9478 87.6001)"><tspan x="0" y="0" style="font-family:'ProductusSemibold'; font-size:7.98;">A</tspan><tspan x="4.996" y="0" style="font-family:'ProductusSemibold'; font-size:7.98;">u</tspan><tspan x="9.312" y="0" style="font-family:'ProductusSemibold'; font-size:7.98;">thori</tspan><tspan x="26.15" y="0" style="font-family:'ProductusSemibold'; font-size:7.98;">z</tspan><tspan x="29.924" y="0" style="font-family:'ProductusSemibold'; font-size:7.98;">at</tspan><tspan x="36.979" y="0" style="font-family:'ProductusSemibold'; font-size:7.98;">i</tspan><tspan x="39.197" y="0" style="font-family:'ProductusSemibold'; font-size:7.98;">o</tspan><tspan x="43.514" y="0" style="font-family:'ProductusSemibold'; font-size:7.98;">n</tspan></text>
<rect x="276.948" y="138.6" width="55.199" height="27"/>
<rect x="276.948" y="138.36" width="55.439" height="0.48"/>
<rect x="331.908" y="138.6" width="0.479" height="27.24"/>
<rect x="276.708" y="165.36" width="55.439" height="0.48"/>
<rect x="276.708" y="138.36" width="0.479" height="27.24"/>
<rect x="274.548" y="136.8" style="fill:#FFFFFF;" width="55.2" height="27"/>
<rect x="274.548" y="136.56" width="55.44" height="0.479"/>
<rect x="329.508" y="136.8" width="0.48" height="27.239"/>
<rect x="274.308" y="163.56" width="55.44" height="0.479"/>
<rect x="274.308" y="136.56" width="0.48" height="27.24"/>
<text transform="matrix(1 0 0 1.0522 276.9482 143.9399)"><tspan x="0" y="0" style="font-family:'ProductusOSGiBookc'; font-size:7.5841;">&lt;&lt;</tspan><tspan x="5.536" y="0" style="font-family:'ProductusOSGiBookc'; font-size:7.5841;">i</tspan><tspan x="7.03" y="0" style="font-family:'ProductusOSGiBookc'; font-size:7.5841;">nte</tspan><tspan x="15.964" y="0" style="font-family:'ProductusOSGiBookc'; font-size:7.5841;">r</tspan><tspan x="18.118" y="0" style="font-family:'ProductusOSGiBookc'; font-size:7.5841;">fa</tspan><tspan x="23.101" y="0" style="font-family:'ProductusOSGiBookc'; font-size:7.5841;">c</tspan><tspan x="26.035" y="0" style="font-family:'ProductusOSGiBookc'; font-size:7.5841;">e</tspan><tspan x="29.335" y="0" style="font-family:'ProductusOSGiBookc'; font-size:7.5841;">&gt;</tspan><tspan x="32.103" y="0" style="font-family:'ProductusOSGiBookc'; font-size:7.5841;">&gt;</tspan></text>
<text transform="matrix(1 0 0 1 276.9482 152.3999)"><tspan x="0" y="0" style="font-family:'ProductusSemibold'; font-size:7.98;">U</tspan><tspan x="5.155" y="0" style="font-family:'ProductusSemibold'; font-size:7.98;">s</tspan><tspan x="8.45" y="0" style="font-family:'ProductusSemibold'; font-size:7.98;">er</tspan><tspan x="15.593" y="0" style="font-family:'ProductusSemibold'; font-size:7.98;">A</tspan><tspan x="20.452" y="0" style="font-family:'ProductusSemibold'; font-size:7.98;">d</tspan><tspan x="24.77" y="0" style="font-family:'ProductusSemibold'; font-size:7.98;">mi</tspan><tspan x="33.332" y="0" style="font-family:'ProductusSemibold'; font-size:7.98;">n</tspan></text>
<text transform="matrix(1 0 0 1 276.9482 160.9204)"><tspan x="0" y="0" style="font-family:'ProductusSemibold'; font-size:7.98;">Listene</tspan><tspan x="24.81" y="0" style="font-family:'ProductusSemibold'; font-size:7.98;">r</tspan></text>
<rect x="46.548" y="181.8" width="55.2" height="27"/>
<rect x="46.548" y="181.56" width="55.44" height="0.479"/>
<rect x="101.508" y="181.8" width="0.48" height="27.239"/>
<rect x="46.308" y="208.56" width="55.44" height="0.479"/>
<rect x="46.308" y="181.56" width="0.48" height="27.24"/>
<rect x="44.148" y="180" style="fill:#FFFFFF;" width="55.2" height="27"/>
<rect x="44.148" y="179.76" width="55.44" height="0.479"/>
<rect x="99.108" y="180" width="0.48" height="27.24"/>
<rect x="43.908" y="206.76" width="55.44" height="0.479"/>
<rect x="43.908" y="179.76" width="0.48" height="27.239"/>
<text transform="matrix(1 0 0 1.0522 46.5479 187.1401)"><tspan x="0" y="0" style="font-family:'ProductusOSGiBookc'; font-size:7.5841;">&lt;&lt;</tspan><tspan x="5.536" y="0" style="font-family:'ProductusOSGiBookc'; font-size:7.5841;">i</tspan><tspan x="7.03" y="0" style="font-family:'ProductusOSGiBookc'; font-size:7.5841;">nte</tspan><tspan x="15.964" y="0" style="font-family:'ProductusOSGiBookc'; font-size:7.5841;">r</tspan><tspan x="18.118" y="0" style="font-family:'ProductusOSGiBookc'; font-size:7.5841;">fa</tspan><tspan x="23.101" y="0" style="font-family:'ProductusOSGiBookc'; font-size:7.5841;">c</tspan><tspan x="26.036" y="0" style="font-family:'ProductusOSGiBookc'; font-size:7.5841;">e</tspan><tspan x="29.334" y="0" style="font-family:'ProductusOSGiBookc'; font-size:7.5841;">&gt;</tspan><tspan x="32.103" y="0" style="font-family:'ProductusOSGiBookc'; font-size:7.5841;">&gt;</tspan></text>
<text transform="matrix(1 0 0 1 46.5479 195.6001)"><tspan x="0" y="0" style="font-family:'ProductusSemibold'; font-size:7.98;">U</tspan><tspan x="5.155" y="0" style="font-family:'ProductusSemibold'; font-size:7.98;">s</tspan><tspan x="8.451" y="0" style="font-family:'ProductusSemibold'; font-size:7.98;">e</tspan><tspan x="12.592" y="0" style="font-family:'ProductusSemibold'; font-size:7.98;">r</tspan></text>
<rect x="276.948" y="225" width="55.199" height="27"/>
<rect x="276.948" y="224.76" width="55.439" height="0.479"/>
<rect x="331.908" y="225" width="0.479" height="27.24"/>
<rect x="276.708" y="251.76" width="55.439" height="0.479"/>
<rect x="276.708" y="224.76" width="0.479" height="27.239"/>
<rect x="274.548" y="223.2" style="fill:#FFFFFF;" width="55.2" height="27"/>
<rect x="274.548" y="222.959" width="55.44" height="0.48"/>
<rect x="329.508" y="223.2" width="0.48" height="27.24"/>
<rect x="274.308" y="249.959" width="55.44" height="0.48"/>
<rect x="274.308" y="222.959" width="0.48" height="27.24"/>
<text transform="matrix(1 0 0 1.0522 276.9482 230.3394)"><tspan x="0" y="0" style="font-family:'ProductusOSGiBookc'; font-size:7.5841;">User</tspan><tspan x="12.393" y="0" style="font-family:'ProductusOSGiBookc'; font-size:7.5841;">A</tspan><tspan x="16.116" y="0" style="font-family:'ProductusOSGiBookc'; font-size:7.5841;">d</tspan><tspan x="19.597" y="0" style="font-family:'ProductusOSGiBookc'; font-size:7.5841;">m</tspan><tspan x="25.02" y="0" style="font-family:'ProductusOSGiBookc'; font-size:7.5841;">i</tspan><tspan x="26.514" y="0" style="font-family:'ProductusOSGiBookc'; font-size:7.5841;">n</tspan></text>
<text transform="matrix(1 0 0 1.0522 276.9482 238.8003)"><tspan x="0" y="0" style="font-family:'ProductusOSGiBookc'; font-size:7.5841;">P</tspan><tspan x="2.821" y="0" style="font-family:'ProductusOSGiBookc'; font-size:7.5841;">e</tspan><tspan x="6.12" y="0" style="font-family:'ProductusOSGiBookc'; font-size:7.5841;">r</tspan><tspan x="8.221" y="0" style="font-family:'ProductusOSGiBookc'; font-size:7.5841;">m</tspan><tspan x="13.674" y="0" style="font-family:'ProductusOSGiBookc'; font-size:7.5841;">i</tspan><tspan x="15.115" y="0" style="font-family:'ProductusOSGiBookc'; font-size:7.5841;">s</tspan><tspan x="17.808" y="0" style="font-family:'ProductusOSGiBookc'; font-size:7.5841;">si</tspan><tspan x="21.895" y="0" style="font-family:'ProductusOSGiBookc'; font-size:7.5841;">o</tspan><tspan x="25.489" y="0" style="font-family:'ProductusOSGiBookc'; font-size:7.5841;">n</tspan></text>
<polyline points="86.388,216.959 84.528,215.1 84.108,214.62 84.648,214.26 93.048,209.58 94.608,208.74 93.768,210.3 89.088,218.7 
	88.728,219.24 88.248,218.82 88.188,218.22 92.868,209.82 93.768,210.3 93.528,210.48 85.128,215.16 84.648,214.26 85.248,214.379 
	87.108,216.24 "/>
<polyline points="88.248,218.82 86.388,216.959 87.108,216.24 88.968,218.1 "/>
<polyline style="fill-rule:evenodd;clip-rule:evenodd;" points="86.748,216.6 84.888,214.74 93.288,210.06 88.608,218.459 "/>
<polyline points="79.968,223.02 79.788,223.2 80.148,223.56 80.328,223.379 "/>
<polyline points="86.208,216.78 86.388,216.6 86.748,216.959 86.568,217.14 "/>
<polyline points="79.968,223.02 80.328,223.379 86.568,217.14 86.208,216.78 "/>
<polyline points="100.788,173.76 98.928,171.9 98.508,171.419 99.048,171.06 107.448,166.379 109.008,165.54 108.168,167.1 
	103.488,175.5 103.128,176.04 102.648,175.62 102.588,175.02 107.268,166.62 108.168,167.1 107.928,167.28 99.528,171.959 
	99.048,171.06 99.648,171.18 101.508,173.04 "/>
<polyline points="102.648,175.62 100.788,173.76 101.508,173.04 103.368,174.9 "/>
<polyline style="fill-rule:evenodd;clip-rule:evenodd;" points="101.148,173.4 99.288,171.54 107.688,166.86 103.008,175.26 "/>
<polyline points="94.368,179.82 94.188,180 94.548,180.36 94.728,180.18 "/>
<polyline points="100.608,173.58 100.788,173.4 101.148,173.76 100.968,173.94 "/>
<polyline points="94.368,179.82 94.728,180.18 100.968,173.94 100.608,173.58 "/>
<rect x="204.948" y="282.6" width="55.199" height="27"/>
<rect x="204.948" y="282.36" width="55.439" height="0.48"/>
<rect x="259.908" y="282.6" width="0.479" height="27.24"/>
<rect x="204.708" y="309.36" width="55.439" height="0.48"/>
<rect x="204.708" y="282.36" width="0.479" height="27.24"/>
<rect x="202.548" y="280.8" style="fill:#FFFFFF;" width="55.2" height="27"/>
<rect x="202.548" y="280.56" width="55.44" height="0.479"/>
<rect x="257.508" y="280.8" width="0.48" height="27.239"/>
<rect x="202.308" y="307.56" width="55.44" height="0.479"/>
<rect x="202.308" y="280.56" width="0.48" height="27.24"/>
<text transform="matrix(1 0 0 1.0522 204.9482 287.9399)"><tspan x="0" y="0" style="font-family:'ProductusOSGiBookc'; font-size:7.5841;">User</tspan><tspan x="12.393" y="0" style="font-family:'ProductusOSGiBookc'; font-size:7.5841;">A</tspan><tspan x="16.116" y="0" style="font-family:'ProductusOSGiBookc'; font-size:7.5841;">d</tspan><tspan x="19.597" y="0" style="font-family:'ProductusOSGiBookc'; font-size:7.5841;">m</tspan><tspan x="25.02" y="0" style="font-family:'ProductusOSGiBookc'; font-size:7.5841;">i</tspan><tspan x="26.514" y="0" style="font-family:'ProductusOSGiBookc'; font-size:7.5841;">n</tspan><tspan x="29.934" y="0" style="font-family:'ProductusOSGiBookc'; font-size:7.5841;"> </tspan></text>
<text transform="matrix(1 0 0 1.0522 204.9482 296.3999)"><tspan x="0" y="0" style="font-family:'ProductusOSGiBookc'; font-size:7.5841;">Implemen</tspan><tspan x="27.348" y="0" style="font-family:'ProductusOSGiBookc'; font-size:7.5841;">t</tspan><tspan x="29.509" y="0" style="font-family:'ProductusOSGiBookc'; font-size:7.5841;">at</tspan><tspan x="34.841" y="0" style="font-family:'ProductusOSGiBookc'; font-size:7.5841;">i</tspan><tspan x="36.335" y="0" style="font-family:'ProductusOSGiBookc'; font-size:7.5841;">on</tspan></text>
<rect x="195.348" style="fill:#E6E6E6;" width="144" height="43.2"/>
<rect x="51.348" style="fill:#E6E6E6;" width="72" height="43.2"/>
<polyline points="216.948,177.12 213.647,177.12 213.828,176.459 216.948,165.54 220.068,176.459 220.248,177.12 219.588,177.12 
	219.107,176.76 216.468,167.52 217.428,167.22 217.428,167.52 214.788,176.76 213.828,176.459 214.308,176.1 216.948,176.1 "/>
<rect x="216.948" y="176.1" width="2.64" height="1.02"/>
<polyline style="fill-rule:evenodd;clip-rule:evenodd;" points="216.948,176.64 214.308,176.64 216.948,167.4 219.588,176.64 "/>
<rect x="216.708" y="176.879" width="0.479" height="104.16"/>
<polyline style="fill-rule:evenodd;clip-rule:evenodd;" points="332.147,151.2 317.748,165.6 332.147,165.6 "/>
<polyline points="332.328,151.379 317.928,165.78 317.748,165.84 317.147,165.84 331.968,151.02 "/>
<rect x="317.748" y="165.36" width="14.64" height="0.48"/>
<polyline points="331.908,165.6 331.908,151.2 331.968,151.02 332.388,150.6 332.388,165.6 "/>
<polyline style="fill-rule:evenodd;clip-rule:evenodd;" points="260.147,151.2 245.748,165.6 260.147,165.6 "/>
<polyline points="260.328,151.379 245.928,165.78 245.748,165.84 245.147,165.84 259.968,151.02 "/>
<rect x="245.748" y="165.36" width="14.64" height="0.48"/>
<polyline points="259.908,165.6 259.908,151.2 259.968,151.02 260.388,150.6 260.388,165.6 "/>
<rect x="60.948" y="282.6" width="55.2" height="27"/>
<rect x="60.948" y="282.36" width="55.44" height="0.48"/>
<rect x="115.908" y="282.6" width="0.48" height="27.24"/>
<rect x="60.708" y="309.36" width="55.44" height="0.48"/>
<rect x="60.708" y="282.36" width="0.48" height="27.24"/>
<rect x="58.548" y="280.8" style="fill:#FFFFFF;" width="55.2" height="27"/>
<rect x="58.548" y="280.56" width="55.44" height="0.479"/>
<rect x="113.508" y="280.8" width="0.48" height="27.239"/>
<rect x="58.308" y="307.56" width="55.44" height="0.479"/>
<rect x="58.308" y="280.56" width="0.48" height="27.24"/>
<text transform="matrix(1 0 0 1.0522 60.9478 287.9399)"><tspan x="0" y="0" style="font-family:'ProductusOSGiBookc'; font-size:7.5841;">G</tspan><tspan x="4.505" y="0" style="font-family:'ProductusOSGiBookc'; font-size:7.5841;">r</tspan><tspan x="6.431" y="0" style="font-family:'ProductusOSGiBookc'; font-size:7.5841;">o</tspan><tspan x="10.011" y="0" style="font-family:'ProductusOSGiBookc'; font-size:7.5841;">u</tspan><tspan x="13.431" y="0" style="font-family:'ProductusOSGiBookc'; font-size:7.5841;">p </tspan></text>
<text transform="matrix(1 0 0 1.0522 60.9478 296.3999)"><tspan x="0" y="0" style="font-family:'ProductusOSGiBookc'; font-size:7.5841;">Impleme</tspan><tspan x="23.882" y="0" style="font-family:'ProductusOSGiBookc'; font-size:7.5841;">n</tspan><tspan x="27.302" y="0" style="font-family:'ProductusOSGiBookc'; font-size:7.5841;">tat</tspan><tspan x="34.848" y="0" style="font-family:'ProductusOSGiBookc'; font-size:7.5841;">i</tspan><tspan x="36.342" y="0" style="font-family:'ProductusOSGiBookc'; font-size:7.5841;">ons</tspan></text>
<polyline points="80.148,263.52 76.848,263.52 77.028,262.86 80.148,251.94 83.268,262.86 83.448,263.52 82.788,263.52 
	82.308,263.16 79.668,253.919 80.628,253.62 80.628,253.919 77.988,263.16 77.028,262.86 77.508,262.5 80.148,262.5 "/>
<rect x="80.148" y="262.5" width="2.64" height="1.021"/>
<polyline style="fill-rule:evenodd;clip-rule:evenodd;" points="80.148,263.04 77.508,263.04 80.148,253.8 82.788,263.04 "/>
<rect x="79.908" y="263.28" width="0.48" height="17.76"/>
<rect x="68.148" y="289.8" width="55.2" height="27"/>
<rect x="68.148" y="289.56" width="55.44" height="0.479"/>
<rect x="123.108" y="289.8" width="0.48" height="27.239"/>
<rect x="67.908" y="316.56" width="55.44" height="0.479"/>
<rect x="67.908" y="289.56" width="0.48" height="27.24"/>
<rect x="65.748" y="288" style="fill:#FFFFFF;" width="55.2" height="27"/>
<rect x="65.748" y="287.76" width="55.44" height="0.479"/>
<rect x="120.708" y="288" width="0.48" height="27.24"/>
<rect x="65.508" y="314.76" width="55.44" height="0.479"/>
<rect x="65.508" y="287.76" width="0.48" height="27.239"/>
<text transform="matrix(1 0 0 1.0522 68.1479 295.1401)"><tspan x="0" y="0" style="font-family:'ProductusOSGiBookc'; font-size:7.5841;">User</tspan><tspan x="12.422" y="0" style="font-family:'ProductusOSGiBookc'; font-size:7.5841;"> </tspan></text>
<text transform="matrix(1 0 0 1.0522 68.1479 303.6001)"><tspan x="0" y="0" style="font-family:'ProductusOSGiBookc'; font-size:7.5841;">Impleme</tspan><tspan x="23.882" y="0" style="font-family:'ProductusOSGiBookc'; font-size:7.5841;">n</tspan><tspan x="27.302" y="0" style="font-family:'ProductusOSGiBookc'; font-size:7.5841;">tat</tspan><tspan x="34.848" y="0" style="font-family:'ProductusOSGiBookc'; font-size:7.5841;">i</tspan><tspan x="36.342" y="0" style="font-family:'ProductusOSGiBookc'; font-size:7.5841;">ons</tspan></text>
<rect x="75.348" y="297" width="55.2" height="27"/>
<rect x="75.348" y="296.76" width="55.44" height="0.479"/>
<rect x="130.308" y="297" width="0.48" height="27.24"/>
<rect x="75.108" y="323.76" width="55.44" height="0.479"/>
<rect x="75.108" y="296.76" width="0.48" height="27.239"/>
<rect x="72.948" y="295.2" style="fill:#FFFFFF;" width="55.2" height="27"/>
<rect x="72.948" y="294.959" width="55.44" height="0.48"/>
<rect x="127.908" y="295.2" width="0.48" height="27.24"/>
<rect x="72.708" y="321.959" width="55.44" height="0.48"/>
<rect x="72.708" y="294.959" width="0.48" height="27.24"/>
<text transform="matrix(1 0 0 1.0522 75.3477 302.3394)"><tspan x="0" y="0" style="font-family:'ProductusOSGiBookc'; font-size:7.5841;">Rol</tspan><tspan x="8.312" y="0" style="font-family:'ProductusOSGiBookc'; font-size:7.5841;">e </tspan></text>
<text transform="matrix(1 0 0 1.0522 75.3477 310.8003)"><tspan x="0" y="0" style="font-family:'ProductusOSGiBookc'; font-size:7.5841;">Impleme</tspan><tspan x="23.882" y="0" style="font-family:'ProductusOSGiBookc'; font-size:7.5841;">n</tspan><tspan x="27.302" y="0" style="font-family:'ProductusOSGiBookc'; font-size:7.5841;">tat</tspan><tspan x="34.848" y="0" style="font-family:'ProductusOSGiBookc'; font-size:7.5841;">i</tspan><tspan x="36.342" y="0" style="font-family:'ProductusOSGiBookc'; font-size:7.5841;">on</tspan></text>
<polyline points="108.948,177.12 105.648,177.12 105.828,176.459 108.948,165.54 112.068,176.459 112.248,177.12 111.588,177.12 
	111.108,176.76 108.468,167.52 109.428,167.22 109.428,167.52 106.788,176.76 105.828,176.459 106.308,176.1 108.948,176.1 "/>
<rect x="108.948" y="176.1" width="2.64" height="1.02"/>
<polyline style="fill-rule:evenodd;clip-rule:evenodd;" points="108.948,176.64 106.308,176.64 108.948,167.4 111.588,176.64 "/>
<rect x="108.708" y="176.879" width="0.48" height="118.561"/>
<polyline points="94.548,220.32 91.248,220.32 91.428,219.66 94.548,208.74 97.668,219.66 97.848,220.32 97.188,220.32 
	96.708,219.959 94.068,210.72 95.028,210.419 95.028,210.72 92.388,219.959 91.428,219.66 91.908,219.3 94.548,219.3 "/>
<rect x="94.548" y="219.3" width="2.64" height="1.02"/>
<polyline style="fill-rule:evenodd;clip-rule:evenodd;" points="94.548,219.84 91.908,219.84 94.548,210.6 97.188,219.84 "/>
<rect x="94.308" y="220.08" width="0.48" height="68.16"/>
<rect x="130.308" y="302.16" width="72.48" height="0.48"/>
<rect x="276.948" y="9" width="55.199" height="27"/>
<rect x="276.948" y="8.76" width="55.439" height="0.48"/>
<rect x="331.908" y="9" width="0.479" height="27.24"/>
<rect x="276.708" y="35.76" width="55.439" height="0.48"/>
<rect x="276.708" y="8.76" width="0.479" height="27.24"/>
<rect x="274.548" y="7.2" style="fill:#FFFFFF;" width="55.2" height="27"/>
<rect x="274.548" y="6.96" width="55.44" height="0.48"/>
<rect x="329.508" y="7.2" width="0.48" height="27.24"/>
<rect x="274.308" y="33.96" width="55.44" height="0.48"/>
<rect x="274.308" y="6.96" width="0.48" height="27.24"/>
<text transform="matrix(1 0 0 1.0522 276.9482 14.3398)"><tspan x="0" y="0" style="font-family:'ProductusOSGiBookc'; font-size:7.5841;">User</tspan><tspan x="12.453" y="0" style="font-family:'ProductusOSGiBookc'; font-size:7.5841;"> </tspan><tspan x="14.008" y="0" style="font-family:'ProductusOSGiBookc'; font-size:7.5841;">A</tspan><tspan x="17.671" y="0" style="font-family:'ProductusOSGiBookc'; font-size:7.5841;">dmin </tspan></text>
<text transform="matrix(1 0 0 1.0522 276.9482 22.8003)"><tspan x="0" y="0" style="font-family:'ProductusOSGiBookc'; font-size:7.5841;">Listener</tspan><tspan x="21.379" y="0" style="font-family:'ProductusOSGiBookc'; font-size:7.5841;"> </tspan><tspan x="22.881" y="0" style="font-family:'ProductusOSGiBookc'; font-size:7.5841;">I</tspan><tspan x="24.352" y="0" style="font-family:'ProductusOSGiBookc'; font-size:7.5841;">m</tspan><tspan x="29.752" y="0" style="font-family:'ProductusOSGiBookc'; font-size:7.5841;">p</tspan><tspan x="33.233" y="0" style="font-family:'ProductusOSGiBookc'; font-size:7.5841;">l</tspan><tspan x="34.727" y="0" style="font-family:'ProductusOSGiBookc'; font-size:7.5841;">.</tspan></text>
<polyline points="317.748,125.28 321.048,125.28 320.868,125.94 317.748,136.86 314.628,125.94 314.448,125.28 315.107,125.28 
	315.588,125.64 318.228,134.879 317.268,135.18 317.268,134.879 319.908,125.64 320.868,125.94 320.388,126.3 317.748,126.3 "/>
<rect x="315.107" y="125.28" width="2.641" height="1.021"/>
<polyline style="fill-rule:evenodd;clip-rule:evenodd;" points="317.748,125.76 320.388,125.76 317.748,135 315.107,125.76 "/>
<rect x="317.508" y="35.76" width="0.48" height="89.76"/>
<rect x="204.948" y="9" width="55.199" height="27"/>
<rect x="204.948" y="8.76" width="55.439" height="0.48"/>
<rect x="259.908" y="9" width="0.479" height="27.24"/>
<rect x="204.708" y="35.76" width="55.439" height="0.48"/>
<rect x="204.708" y="8.76" width="0.479" height="27.24"/>
<rect x="202.548" y="7.2" style="fill:#FFFFFF;" width="55.2" height="27"/>
<rect x="202.548" y="6.96" width="55.44" height="0.48"/>
<rect x="257.508" y="7.2" width="0.48" height="27.24"/>
<rect x="202.308" y="33.96" width="55.44" height="0.48"/>
<rect x="202.308" y="6.96" width="0.48" height="27.24"/>
<text transform="matrix(1 0 0 1.0522 204.9482 14.3398)"><tspan x="0" y="0" style="font-family:'ProductusOSGiBookc'; font-size:7.5841;">R</tspan><tspan x="3.307" y="0" style="font-family:'ProductusOSGiBookc'; font-size:7.5841;">eq</tspan><tspan x="10.079" y="0" style="font-family:'ProductusOSGiBookc'; font-size:7.5841;">u</tspan><tspan x="13.499" y="0" style="font-family:'ProductusOSGiBookc'; font-size:7.5841;">e</tspan><tspan x="16.799" y="0" style="font-family:'ProductusOSGiBookc'; font-size:7.5841;">s</tspan><tspan x="19.491" y="0" style="font-family:'ProductusOSGiBookc'; font-size:7.5841;">t</tspan></text>
<text transform="matrix(1 0 0 1.0522 204.9482 22.8003)"><tspan x="0" y="0" style="font-family:'ProductusOSGiBookc'; font-size:7.5841;">A</tspan><tspan x="3.838" y="0" style="font-family:'ProductusOSGiBookc'; font-size:7.5841;">u</tspan><tspan x="7.258" y="0" style="font-family:'ProductusOSGiBookc'; font-size:7.5841;">thentica</tspan><tspan x="29.402" y="0" style="font-family:'ProductusOSGiBookc'; font-size:7.5841;">t</tspan><tspan x="31.564" y="0" style="font-family:'ProductusOSGiBookc'; font-size:7.5841;">o</tspan><tspan x="35.159" y="0" style="font-family:'ProductusOSGiBookc'; font-size:7.5841;">r</tspan></text>
<rect x="216.708" y="35.76" width="0.479" height="101.28"/>
<rect x="60.948" y="9" width="55.2" height="27"/>
<rect x="60.948" y="8.76" width="55.44" height="0.48"/>
<rect x="115.908" y="9" width="0.48" height="27.24"/>
<rect x="60.708" y="35.76" width="55.44" height="0.48"/>
<rect x="60.708" y="8.76" width="0.48" height="27.24"/>
<rect x="58.548" y="7.2" style="fill:#FFFFFF;" width="55.2" height="27"/>
<rect x="58.548" y="6.96" width="55.44" height="0.48"/>
<rect x="113.508" y="7.2" width="0.48" height="27.24"/>
<rect x="58.308" y="33.96" width="55.44" height="0.48"/>
<rect x="58.308" y="6.96" width="0.48" height="27.24"/>
<text transform="matrix(1 0 0 1.0522 60.9478 14.3398)"><tspan x="0" y="0" style="font-family:'ProductusOSGiBookc'; font-size:7.5841;">A</tspan><tspan x="3.663" y="0" style="font-family:'ProductusOSGiBookc'; font-size:7.5841;">c</tspan><tspan x="6.598" y="0" style="font-family:'ProductusOSGiBookc'; font-size:7.5841;">t</tspan><tspan x="8.812" y="0" style="font-family:'ProductusOSGiBookc'; font-size:7.5841;">i</tspan><tspan x="10.253" y="0" style="font-family:'ProductusOSGiBookc'; font-size:7.5841;">o</tspan><tspan x="13.795" y="0" style="font-family:'ProductusOSGiBookc'; font-size:7.5841;">n</tspan><tspan x="17.269" y="0" style="font-family:'ProductusOSGiBookc'; font-size:7.5841;"> </tspan></text>
<text transform="matrix(1 0 0 1.0522 60.9478 22.8003)"><tspan x="0" y="0" style="font-family:'ProductusOSGiBookc'; font-size:7.5841;">imple</tspan><tspan x="15.13" y="0" style="font-family:'ProductusOSGiBookc'; font-size:7.5841;">m</tspan><tspan x="20.53" y="0" style="font-family:'ProductusOSGiBookc'; font-size:7.5841;">entation</tspan></text>
<rect x="87.108" y="35.76" width="0.48" height="36.48"/>
<rect x="303.107" y="86.16" width="4.2" height="0.48"/>
<rect x="313.728" y="86.16" width="4.261" height="0.48"/>
<rect x="245.508" y="194.16" width="0.48" height="86.88"/>
<rect x="245.748" y="194.16" width="50.64" height="0.48"/>
<rect x="295.908" y="165.36" width="0.479" height="29.04"/>
<rect x="115.908" y="150.959" width="86.88" height="0.48"/>
<rect x="159.108" y="150.959" width="0.48" height="4.2"/>
<rect x="159.108" y="159.18" width="0.48" height="5.64"/>
<rect x="159.108" y="168.78" width="0.48" height="4.26"/>
<rect x="198.528" y="21.36" width="4.26" height="0.48"/>
<rect x="184.128" y="21.36" width="8.22" height="0.48"/>
<rect x="169.668" y="21.36" width="8.22" height="0.48"/>
<rect x="155.208" y="21.36" width="8.22" height="0.48"/>
<rect x="140.808" y="21.36" width="8.22" height="0.48"/>
<rect x="126.348" y="21.36" width="8.22" height="0.48"/>
<rect x="115.908" y="21.36" width="4.2" height="0.48"/>
<rect x="87.108" y="100.56" width="0.48" height="36.479"/>
<text transform="matrix(1 0 0 1 142.9077 28.1997)"><tspan x="0" y="0" style="font-family:'ProductusBook'; font-size:7.98;">per</tspan><tspan x="9.464" y="0" style="font-family:'ProductusBook'; font-size:7.98;">f</tspan><tspan x="11.451" y="0" style="font-family:'ProductusBook'; font-size:7.98;">orm</tspan><tspan x="23.253" y="0" style="font-family:'ProductusBook'; font-size:7.98;"> </tspan><tspan x="24.865" y="0" style="font-family:'ProductusBook'; font-size:7.98;">action</tspan></text>
<text transform="matrix(1 0 0 1 89.9878 56.0996)"><tspan x="0" y="0" style="font-family:'ProductusBook'; font-size:7.98;">c</tspan><tspan x="3" y="0" style="font-family:'ProductusBook'; font-size:7.98;">o</tspan><tspan x="6.839" y="0" style="font-family:'ProductusBook'; font-size:7.98;">nsu</tspan><tspan x="16.989" y="0" style="font-family:'ProductusBook'; font-size:7.98;">l</tspan><tspan x="18.601" y="0" style="font-family:'ProductusBook'; font-size:7.98;">t</tspan></text>
<text transform="matrix(1 0 0 1 89.9878 64.1992)"><tspan x="0" y="0" style="font-family:'ProductusBook'; font-size:7.98;">f</tspan><tspan x="1.987" y="0" style="font-family:'ProductusBook'; font-size:7.98;">o</tspan><tspan x="5.77" y="0" style="font-family:'ProductusBook'; font-size:7.98;">r</tspan><tspan x="8.076" y="0" style="font-family:'ProductusBook'; font-size:7.98;"> </tspan><tspan x="9.64" y="0" style="font-family:'ProductusBook'; font-size:7.98;">a</tspan><tspan x="12.991" y="0" style="font-family:'ProductusBook'; font-size:7.98;">u</tspan><tspan x="16.654" y="0" style="font-family:'ProductusBook'; font-size:7.98;">t</tspan><tspan x="19.072" y="0" style="font-family:'ProductusBook'; font-size:7.98;">h</tspan><tspan x="22.735" y="0" style="font-family:'ProductusBook'; font-size:7.98;">o</tspan><tspan x="26.557" y="0" style="font-family:'ProductusBook'; font-size:7.98;">r</tspan><tspan x="28.783" y="0" style="font-family:'ProductusBook'; font-size:7.98;">i</tspan><tspan x="30.348" y="0" style="font-family:'ProductusBook'; font-size:7.98;">z</tspan><tspan x="33.404" y="0" style="font-family:'ProductusBook'; font-size:7.98;">a</tspan><tspan x="36.755" y="0" style="font-family:'ProductusBook'; font-size:7.98;">t</tspan><tspan x="39.101" y="0" style="font-family:'ProductusBook'; font-size:7.98;">i</tspan><tspan x="40.705" y="0" style="font-family:'ProductusBook'; font-size:7.98;">on</tspan></text>
<text transform="matrix(1 0 0 1 89.9878 120.8994)"><tspan x="0" y="0" style="font-family:'ProductusBook'; font-size:7.98;">h</tspan><tspan x="3.695" y="0" style="font-family:'ProductusBook'; font-size:7.98;">a</tspan><tspan x="6.999" y="0" style="font-family:'ProductusBook'; font-size:7.98;">s</tspan><tspan x="9.831" y="0" style="font-family:'ProductusBook'; font-size:7.98;"> </tspan><tspan x="11.451" y="0" style="font-family:'ProductusBook'; font-size:7.98;">r</tspan><tspan x="13.678" y="0" style="font-family:'ProductusBook'; font-size:7.98;">o</tspan><tspan x="17.516" y="0" style="font-family:'ProductusBook'; font-size:7.98;">l</tspan><tspan x="19.08" y="0" style="font-family:'ProductusBook'; font-size:7.98;">e</tspan><tspan x="22.567" y="0" style="font-family:'ProductusBook'; font-size:7.98;">s</tspan></text>
<text transform="matrix(1 0 0 1 180.9473 92.0996)"><tspan x="0" y="0" style="font-family:'ProductusBook'; font-size:7.98;">a</tspan><tspan x="3.319" y="0" style="font-family:'ProductusBook'; font-size:7.98;">u</tspan><tspan x="6.982" y="0" style="font-family:'ProductusBook'; font-size:7.98;">th</tspan><tspan x="13.055" y="0" style="font-family:'ProductusBook'; font-size:7.98;">e</tspan><tspan x="16.542" y="0" style="font-family:'ProductusBook'; font-size:7.98;">n</tspan><tspan x="20.261" y="0" style="font-family:'ProductusBook'; font-size:7.98;">t</tspan><tspan x="22.607" y="0" style="font-family:'ProductusBook'; font-size:7.98;">i</tspan><tspan x="24.171" y="0" style="font-family:'ProductusBook'; font-size:7.98;">cat</tspan><tspan x="32.973" y="0" style="font-family:'ProductusBook'; font-size:7.98;">e</tspan></text>
<text transform="matrix(1 0 0 1 296.1475 112.1401)"><tspan x="0" y="0" style="font-family:'ProductusBook'; font-size:7.98;">re</tspan><tspan x="5.77" y="0" style="font-family:'ProductusBook'; font-size:7.98;">c</tspan><tspan x="8.77" y="0" style="font-family:'ProductusBook'; font-size:7.98;">e</tspan><tspan x="12.305" y="0" style="font-family:'ProductusBook'; font-size:7.98;">i</tspan><tspan x="13.869" y="0" style="font-family:'ProductusBook'; font-size:7.98;">v</tspan><tspan x="16.989" y="0" style="font-family:'ProductusBook'; font-size:7.98;">e</tspan></text>
<text transform="matrix(1 0 0 1 296.1475 120.3003)"><tspan x="0" y="0" style="font-family:'ProductusBook'; font-size:7.98;">e</tspan><tspan x="3.487" y="0" style="font-family:'ProductusBook'; font-size:7.98;">v</tspan><tspan x="6.607" y="0" style="font-family:'ProductusBook'; font-size:7.98;">e</tspan><tspan x="10.095" y="0" style="font-family:'ProductusBook'; font-size:7.98;">n</tspan><tspan x="13.813" y="0" style="font-family:'ProductusBook'; font-size:7.98;">t</tspan><tspan x="16.207" y="0" style="font-family:'ProductusBook'; font-size:7.98;">s</tspan></text>
<text transform="matrix(1 0 0 1 248.3877 214.5005)"><tspan x="0" y="0" style="font-family:'ProductusBook'; font-size:7.98;">send</tspan><tspan x="13.726" y="0" style="font-family:'ProductusBook'; font-size:7.98;"> </tspan><tspan x="15.289" y="0" style="font-family:'ProductusBook'; font-size:7.98;">e</tspan><tspan x="18.801" y="0" style="font-family:'ProductusBook'; font-size:7.98;">v</tspan><tspan x="21.921" y="0" style="font-family:'ProductusBook'; font-size:7.98;">en</tspan><tspan x="29.119" y="0" style="font-family:'ProductusBook'; font-size:7.98;">t</tspan></text>
<text transform="matrix(1 0 0 1 273.9473 280.2603)"><tspan x="0" y="0" style="font-family:'ProductusBook'; font-size:7.98;">h</tspan><tspan x="3.663" y="0" style="font-family:'ProductusBook'; font-size:7.98;">a</tspan><tspan x="7.022" y="0" style="font-family:'ProductusBook'; font-size:7.98;">s</tspan></text>
<text transform="matrix(1 0 0 1 273.9473 288.3599)" style="font-family:'ProductusBook'; font-size:7.98;">permission</text>
<text transform="matrix(1 0 0 1 144.9478 179.3999)"><tspan x="0" y="0" style="font-family:'ProductusBook'; font-size:7.98;">role</tspan><tspan x="11.116" y="0" style="font-family:'ProductusBook'; font-size:7.98;"> </tspan><tspan x="12.736" y="0" style="font-family:'ProductusBook'; font-size:7.98;">name</tspan></text>
<text transform="matrix(1 0 0 1 154.728 299.52)"><tspan x="0" y="0" style="font-family:'ProductusBook'; font-size:7.98;">us</tspan><tspan x="6.496" y="0" style="font-family:'ProductusBook'; font-size:7.98;">e</tspan><tspan x="10.031" y="0" style="font-family:'ProductusBook'; font-size:7.98;">r</tspan><tspan x="12.305" y="0" style="font-family:'ProductusBook'; font-size:7.98;"> </tspan><tspan x="13.869" y="0" style="font-family:'ProductusBook'; font-size:7.98;">d</tspan><tspan x="17.588" y="0" style="font-family:'ProductusBook'; font-size:7.98;">a</tspan><tspan x="20.892" y="0" style="font-family:'ProductusBook'; font-size:7.98;">t</tspan><tspan x="23.286" y="0" style="font-family:'ProductusBook'; font-size:7.98;">a</tspan><tspan x="26.589" y="0" style="font-family:'ProductusBook'; font-size:7.98;">base</tspan></text>
<text transform="matrix(1 0 0 1 133.1885 299.52)"><tspan x="0" y="0" style="font-family:'ProductusBook'; font-size:7.98;">1</tspan><tspan x="3.176" y="0" style="font-family:'ProductusBook'; font-size:7.98;">.</tspan><tspan x="4.74" y="0" style="font-family:'ProductusBook'; font-size:7.98;">.</tspan><tspan x="6.36" y="0" style="font-family:'ProductusBook'; font-size:7.98; letter-spacing:54;">n</tspan><tspan x="64.733" y="0" style="font-family:'ProductusBook'; font-size:7.98;">1</tspan></text>
<text transform="matrix(1 0 0 1 284.3281 172.1997)"><tspan x="0" y="0" style="font-family:'ProductusBook'; font-size:7.98;">0</tspan><tspan x="3.942" y="0" style="font-family:'ProductusBook'; font-size:7.98;">.</tspan><tspan x="5.506" y="0" style="font-family:'ProductusBook'; font-size:7.98;">.</tspan><tspan x="7.134" y="0" style="font-family:'ProductusBook'; font-size:7.98;">n</tspan><tspan x="10.797" y="0" style="font-family:'ProductusBook'; font-size:7.98;"> </tspan></text>
<text transform="matrix(1 0 0 1 247.7285 278.6392)"><tspan x="0" y="0" style="font-family:'ProductusBook'; font-size:7.98;">0..</tspan><tspan x="7.126" y="0" style="font-family:'ProductusBook'; font-size:7.98;">n</tspan></text>
<rect x="15.108" y="230.16" width="14.88" height="0.48"/>
<rect x="15.108" y="158.16" width="0.48" height="72.24"/>
<rect x="15.348" y="158.16" width="43.44" height="0.48"/>
<text transform="matrix(1 0 0 1 46.7881 156.8999)"><tspan x="0" y="0" style="font-family:'ProductusBook'; font-size:7.98;">0..</tspan><tspan x="7.126" y="0" style="font-family:'ProductusBook'; font-size:7.98;">n</tspan></text>
<text transform="matrix(1 0 0 1 15.3481 236.1001)"><tspan x="0" y="0" style="font-family:'ProductusBook'; font-size:7.98;">0..</tspan><tspan x="7.078" y="0" style="font-family:'ProductusBook'; font-size:7.98;">n</tspan></text>
<rect x="0.708" y="244.56" width="29.28" height="0.479"/>
<rect x="0.708" y="143.76" width="0.48" height="101.04"/>
<rect x="0.948" y="143.76" width="57.84" height="0.479"/>
<text transform="matrix(1 0 0 1 46.7881 142.7397)"><tspan x="0" y="0" style="font-family:'ProductusBook'; font-size:7.98;">1</tspan><tspan x="3.176" y="0" style="font-family:'ProductusBook'; font-size:7.98;">.</tspan><tspan x="4.74" y="0" style="font-family:'ProductusBook'; font-size:7.98;">.</tspan><tspan x="6.36" y="0" style="font-family:'ProductusBook'; font-size:7.98;">n</tspan></text>
<text transform="matrix(1 0 0 1 15.3481 250.5005)"><tspan x="0" y="0" style="font-family:'ProductusBook'; font-size:7.98;">0..</tspan><tspan x="7.078" y="0" style="font-family:'ProductusBook'; font-size:7.98;">n</tspan></text>
<text transform="matrix(-6.123234e-17 -1 1 -6.123234e-17 21.0474 215.9995)"><tspan x="0" y="0" style="font-family:'ProductusBook'; font-size:7.98;">required</tspan><tspan x="24.163" y="0" style="font-family:'ProductusBook'; font-size:7.98;"> </tspan><tspan x="25.728" y="0" style="font-family:'ProductusBook'; font-size:7.98;">member</tspan></text>
<text transform="matrix(-6.123234e-17 -1 1 -6.123234e-17 6.6475 216.0005)"><tspan x="0" y="0" style="font-family:'ProductusBook'; font-size:7.98;">bas</tspan><tspan x="9.832" y="0" style="font-family:'ProductusBook'; font-size:7.98;">i</tspan><tspan x="11.451" y="0" style="font-family:'ProductusBook'; font-size:7.98;">c</tspan><tspan x="14.539" y="0" style="font-family:'ProductusBook'; font-size:7.98;"> </tspan><tspan x="16.16" y="0" style="font-family:'ProductusBook'; font-size:7.98;">member</tspan></text>
<rect x="267.348" y="294.959" width="4.021" height="0.48"/>
<rect x="279.768" y="294.959" width="11.16" height="0.48"/>
<rect x="299.328" y="294.959" width="4.26" height="0.48"/>
<rect x="303.107" y="291.18" width="0.48" height="4.02"/>
<rect x="303.107" y="276.72" width="0.48" height="8.279"/>
<rect x="303.107" y="262.2" width="0.48" height="8.28"/>
<rect x="303.107" y="252" width="0.48" height="3.96"/>
</svg>
