<svg xmlns="http://www.w3.org/2000/svg" width="272" height="130.72" viewBox="0 0 272 130.72" style="enable-background:new 0 0 272 130.72;"><path style="fill-rule:evenodd;clip-rule:evenodd;fill:transparent;" d="M0 0h272v130.72H0z"/><path style="fill:#F18A00;" d="M43.083 47.293c1.102-2.102 2.25-4.19 3.434-6.222 6.77-11.6 14.774-21.35 22.514-21.35S84.776 29.47 91.543 41.07c1.187 2.033 2.334 4.123 3.436 6.227-.62 1.405-1.343 2.753-2.155 4.03-1.61-1.874-3.44-3.557-5.45-5.007-5.156-3.727-11.492-5.923-18.34-5.925-6.853 0-13.19 2.194-18.35 5.92-2.007 1.45-3.835 3.132-5.445 5.006-.814-1.278-1.535-2.625-2.155-4.03zm17.71 59.23c-2.37.097-4.752.147-7.104.136-13.43-.063-25.88-2.12-29.75-8.82-3.87-6.704.575-18.512 7.238-30.172 1.168-2.043 2.403-4.082 3.675-6.088 1.523-.165 3.048-.213 4.557-.15-.8 2.3-1.342 4.72-1.586 7.228-.1 1.016-.15 2.045-.15 3.086 0 12.734 7.592 23.696 18.498 28.606 2.23 1.006 4.604 1.757 7.076 2.22-.71 1.367-1.53 2.69-2.454 3.952zm23.562.136c-2.354.01-4.737-.04-7.11-.14-.922-1.26-1.74-2.58-2.448-3.947 2.475-.46 4.847-1.21 7.08-2.213 10.912-4.903 18.51-15.865 18.51-28.604 0-1.046-.052-2.08-.15-3.102-.247-2.505-.788-4.924-1.59-7.22 1.508-.064 3.028-.015 4.55.15 1.27 2.004 2.506 4.042 3.672 6.084 6.66 11.662 11.103 23.47 7.234 30.173-3.87 6.705-16.32 8.76-29.75 8.82z"/><path style="fill:#E85213;" d="M87.372 46.323c1.595-1.562 2.996-3.325 4.17-5.25 1.186 2.033 2.333 4.123 3.435 6.227-.62 1.406-1.343 2.754-2.155 4.032-1.612-1.876-3.442-3.56-5.45-5.01zM43.083 47.293c1.102-2.102 2.25-4.19 3.434-6.222 1.172 1.924 2.573 3.687 4.165 5.248-2.007 1.45-3.835 3.13-5.445 5.005-.813-1.277-1.534-2.624-2.154-4.03zM37.823 68.657c-2.154-.602-4.388-.936-6.646-.99 1.168-2.042 2.403-4.08 3.675-6.087 1.523-.165 3.048-.213 4.557-.15-.802 2.3-1.343 4.72-1.587 7.227zM60.794 106.522c-2.37.098-4.753.148-7.105.137 1.093-2 1.925-4.123 2.48-6.31 2.232 1.005 4.605 1.756 7.077 2.218-.71 1.37-1.528 2.692-2.453 3.954zM100.235 68.654c-.246-2.505-.787-4.924-1.588-7.22 1.507-.064 3.027-.015 4.55.15 1.27 2.004 2.505 4.042 3.67 6.084-2.253.055-4.482.387-6.632.986zM81.877 100.36c.556 2.184 1.387 4.302 2.48 6.3-2.355.01-4.738-.04-7.11-.14-.923-1.26-1.74-2.58-2.45-3.947 2.474-.46 4.847-1.21 7.08-2.213z"/><path style="fill:#FAC78A;" d="M96.402 61.61c.904 2.44 1.492 5.033 1.714 7.73-5.55 2.056-10.412 5.952-13.574 11.43-3.152 5.457-4.1 11.595-3.125 17.41-2.37 1.112-4.915 1.915-7.582 2.356-3.427-8.02-3.248-17.292 1.31-25.185C79.717 67.43 87.7 62.63 96.4 61.61zM64.208 100.532c-2.665-.443-5.21-1.25-7.578-2.362.973-5.81.024-11.94-3.124-17.396-3.16-5.475-8.02-9.37-13.563-11.43.22-2.7.807-5.295 1.71-7.736C50.35 62.63 58.326 67.425 62.9 75.344c4.558 7.894 4.737 17.166 1.31 25.188zM85.72 47.813c2.177 1.52 4.136 3.33 5.823 5.372-5.232 7.012-13.37 11.518-22.51 11.52-9.145 0-17.286-4.51-22.52-11.526 1.687-2.043 3.645-3.85 5.82-5.37 4.556 3.78 10.364 6.046 16.69 6.047 6.33 0 12.14-2.265 16.697-6.044z"/><path style="fill:#004370;" d="M226.366 27.19c0-1.964 1.594-3.558 3.56-3.558s3.56 1.594 3.56 3.56c0 1.965-1.594 3.558-3.56 3.558s-3.56-1.593-3.56-3.56z"/><path style="fill-rule:evenodd;clip-rule:evenodd;fill:#004370;" d="M249.454 21.952h-1.373l-1.56 3.708-1.51-3.708h-1.386v5.255h.873V22.7h.025l1.747 4.507h.486l1.798-4.506h.024v4.507h.874v-5.255h.002zm-6.716 0h-4.257v.75h1.66v4.505h.938V22.7h1.66v-.748zM157.35 47.164c0-11.313-4.234-20.537-14.967-20.537s-15.026 9.224-15.026 20.537c0 11.37 4.293 20.537 15.026 20.537 10.732 0 14.968-9.165 14.968-20.536zm-7.484-.233c0 7.427-1.16 15.317-7.483 15.317-6.323 0-7.543-7.89-7.543-15.316 0-7.483 1.393-15.43 7.543-15.43s7.483 7.947 7.483 15.43z"/><path style="fill:#004370;" d="M184.96 55.518c0-3.83-1.16-8.238-8.993-11.545-3.48-1.45-6.034-3.075-6.034-6.555 0-3.54 2.088-5.802 5.744-5.802 2.553 0 4.757.928 6.15 1.8l1.624-4.526c-1.798-1.276-4.757-2.263-8.76-2.263-7.368 0-11.95 5.396-11.95 11.72 0 3.886 1.74 8.18 8.237 10.906 4.467 1.856 6.207 3.713 6.207 6.73 0 3.71-2.436 6.15-6.382 6.15-3.017 0-5.28-.93-6.672-1.857l-1.798 5.163c2.146 1.392 5.105 2.262 9.862 2.262 7.428-.002 12.765-5.107 12.765-12.184zM218.585 65.438V44.205H205.88v4.525h5.743v13.11c-.64.35-1.856.755-4.003.755-5.57 0-9.63-5.22-9.63-15.316 0-10.676 4.06-15.433 10.965-15.433 3.422 0 5.627.754 6.903 1.508l2.205-4.525c-2.263-1.334-5.455-2.204-9.98-2.204-10.327 0-17.58 7.6-17.58 20.305 0 13.402 6.73 20.77 17.406 20.77 5.28 0 8.18-.812 10.675-2.262zM233.47 67.12V35.856h-7.076V67.12h7.077M165.87 77.796c0-1.072.868-1.94 1.94-1.94 1.07 0 1.94.868 1.94 1.94 0 1.07-.87 1.94-1.94 1.94-1.072 0-1.94-.87-1.94-1.94zM169.78 99.668v-17.08h-3.896v17.08h3.897M153.316 99.668V77.804h-3.896v21.864h3.896M161.453 99.668V77.804h-3.896v21.864h3.896"/><path style="fill-rule:evenodd;clip-rule:evenodd;fill:#004370;" d="M186.51 98.74V88.07c0-4.438-2.832-5.94-6.385-5.94-2.717 0-4.794.767-5.91 1.31l.894 2.236c1.053-.51 2.65-1.054 4.312-1.054 2.014 0 3.42.606 3.42 2.843v.927c-5.242.51-9.62 1.82-9.62 6.356 0 3.322 2.333 5.24 7.03 5.24 2.686 0 4.874-.51 6.258-1.247zm-3.668-1.404c-.575.287-1.438.48-2.333.48-2.27 0-3.612-.96-3.612-3.196 0-3.13 2.27-3.93 5.944-4.376v7.092z"/><path style="fill:#004370;" d="M204.195 99.668V87.4c0-2.778-1.693-5.27-6.837-5.27-2.907 0-5.11.478-6.74 1.245v16.292h3.896V85.07c.735-.29 1.406-.48 2.684-.48 2.46 0 3.1 1.47 3.1 2.875v12.203h3.897zM219.244 98.806l-.964-2.396c-.584.447-1.375.767-2.51.767-2.58 0-4.308-2.428-4.308-6.23 0-3.77 1.52-6.165 4.376-6.165 1.204 0 1.96.352 2.477.735l.895-2.204c-.688-.544-2.03-1.183-4.3-1.183-4.127 0-7.36 3.163-7.36 8.88 0 5.688 3.095 8.978 7.326 8.978 2.235 0 3.61-.544 4.368-1.182z"/><path style="fill-rule:evenodd;clip-rule:evenodd;fill:#004370;" d="M137.925 91.685h2.99l-2.352-7.688c-.463-1.472-.582-2.443-.606-2.637-.065 0-.16 1.017-.67 2.637l-2.35 7.688h2.988zm0-13.884h1.75l7.244 21.86h-3.623l-1.747-5.624H134.3l-1.746 5.623h-3.622l7.244-21.86s0-.003 1.75 0zM235.34 90.965c.158-5.788-2.354-8.827-6.938-8.827-4.51 0-7.357 3.262-7.357 8.892 0 5.82 3.103 8.986 7.998 8.986 2.623 0 4.49-.543 5.716-1.215l-.936-2.462c-.935.48-2.382.96-4.366.96-2.848 0-4.383-1.6-4.703-4.798l10.584-1.535zm-3.674-1.535l-7.135 1.087c-.096-4.125 1.473-5.98 3.745-5.98 2.143 0 3.39 1.407 3.39 4.893z"/></svg>
