<?xml version="1.0" encoding="utf-8"?>
<!-- Generator: Adobe Illustrator 16.0.0, SVG Export Plug-In . SVG Version: 6.00 Build 0)  -->
<!DOCTYPE svg PUBLIC "-//W3C//DTD SVG 1.1//EN" "http://www.w3.org/Graphics/SVG/1.1/DTD/svg11.dtd">
<svg version="1.1" id="Layer_1" xmlns="http://www.w3.org/2000/svg" xmlns:xlink="http://www.w3.org/1999/xlink" x="0px" y="0px"
	 width="288.96px" height="153px" viewBox="0 0 288.96 153" style="enable-background:new 0 0 288.96 153;" xml:space="preserve">
	<polyline style="fill:#F7F7F7;" points="171.96,0 288.96,0 288.96,153 171.96,153 	"/>
	<rect x="243.96" y="108" style="fill:#E6E6E6;" width="36" height="36"/>
	<rect x="243.96" y="9" style="fill:#E6E6E6;" width="36" height="36"/>
	<path style="fill-rule:evenodd;clip-rule:evenodd;fill:#808080;" d="M270.96,27v-0.9l-0.18-0.899
		c-2.246-10.062-16.475-9.312-17.761,0.899l-0.06,0.9l0.06,0.9c1.287,10.206,15.514,10.961,17.761,0.899l0.18-0.899V27"/>
	<path d="M270.72,27v-0.9v0.061l-0.18-0.9l-0.181-0.899l0.061,0.06l-0.3-0.78l-0.42-0.84l-0.42-0.72v0.06l-1.08-1.319h0.06
		l-0.66-0.601v0.061l-1.439-0.96h0.06l-0.78-0.36l-0.84-0.3l-0.84-0.24h0.061l-0.9-0.12l-0.96-0.06h0.06l-0.899,0.06l-0.9,0.12
		l-0.84,0.24h0.06l-0.84,0.3l-0.779,0.36l-1.44,0.96l0.06-0.061l-0.659,0.601l-1.08,1.319l0.06-0.06l-0.42,0.72l-0.42,0.84
		l-0.3,0.78v-0.06l-0.24,0.899l-0.12,0.9l-0.06,0.899V27l0.06,0.9l0.12,0.899v-0.06l0.24,0.899l0.3,0.78v-0.06l0.84,1.56h-0.06
		l1.08,1.32V33.18l0.659,0.601h-0.06l-0.24,0.42V34.14l-0.66-0.6h-0.06l-1.08-1.32v-0.06L253.5,30.6l-0.3-0.779l-0.061-0.061
		c-0.475-1.467-0.521-3.05-0.24-4.56V25.14l0.24-0.899h0.061l0.3-0.78V23.4l0.42-0.841l0.42-0.72l1.08-1.32l0.06-0.06l0.66-0.6
		l1.44-0.96h0.06l0.78-0.36v-0.061l0.84-0.3l0.84-0.239h0.061l0.899-0.12l0.9-0.061l0.96,0.061h0.06l0.9,0.12l0.84,0.239h0.061
		l0.84,0.3v0.061l0.779,0.36c1.952,1.238,1.822,1.125,3.24,2.939h0.061l0.42,0.72c0.711,1.283,0.828,2.081,1.08,3.54V27"/>
	<path d="M256.38,33.78l1.44,0.96L258.6,35.1v-0.06l0.84,0.3h-0.06l0.84,0.24l0.9,0.12l0.899,0.06h-0.06l0.96-0.06l0.9-0.12
		h-0.061l0.84-0.24l0.84-0.3v0.06l0.78-0.359h-0.06l1.439-0.96l0.66-0.601l-0.06,0.061l1.08-1.32l0.84-1.56v0.06l0.3-0.78h-0.061
		l0.181-0.899l0.18-0.9V27.9V27h0.48v0.9c-0.683,6.979-8.534,10.638-14.341,6.779l-0.72-0.479"/>
	<rect x="261.72" y="111.78" width="0.48" height="4.739"/>
	<polyline points="264.72,112.2 264.3,111.96 261.72,116.4 261.72,116.64 261.899,116.94 262.14,116.64 	"/>
	<polyline points="261.72,116.64 262.14,116.4 259.62,111.96 259.2,112.2 	"/>
	<rect x="261.72" y="36" width="0.48" height="75.78"/>
	<rect x="252.96" y="117" style="fill:#808080;" width="18" height="18"/>
	<rect x="252.96" y="116.76" width="18.24" height="0.48"/>
	<rect x="270.72" y="117" width="0.48" height="18.24"/>
	<rect x="252.72" y="134.76" width="18.24" height="0.48"/>
	<rect x="252.72" y="116.76" width="0.48" height="18.24"/>
	<rect x="100.5" y="125.76" width="4.68" height="0.48"/>
	<polyline points="104.82,128.76 105.06,128.34 100.62,125.76 100.38,125.76 99.96,126 100.38,126.18 	"/>
	<polyline points="100.38,125.76 100.62,126.18 105.06,123.6 104.82,123.18 	"/>
	<rect x="249" y="125.76" width="3.96" height="0.48"/>
	<rect x="234.18" y="125.76" width="8.46" height="0.48"/>
	<rect x="219.3" y="125.76" width="8.521" height="0.48"/>
	<rect x="204.479" y="125.76" width="8.521" height="0.48"/>
	<rect x="189.66" y="125.76" width="8.46" height="0.48"/>
	<rect x="174.84" y="125.76" width="8.46" height="0.48"/>
	<rect x="160.02" y="125.76" width="8.46" height="0.48"/>
	<rect x="145.2" y="125.76" width="8.46" height="0.48"/>
	<rect x="130.38" y="125.76" width="8.46" height="0.48"/>
	<rect x="115.56" y="125.76" width="8.46" height="0.48"/>
	<rect x="105.18" y="125.76" width="4.02" height="0.48"/>
	<rect x="247.8" y="26.76" width="4.68" height="0.48"/>
	<polyline points="248.16,24.24 247.92,24.66 252.359,27.24 252.6,27.24 253.02,27 252.6,26.82 	"/>
	<polyline points="252.6,27.24 252.359,26.82 247.92,29.4 248.16,29.82 	"/>
	<rect x="99.96" y="26.76" width="4.02" height="0.48"/>
	<rect x="110.34" y="26.76" width="8.46" height="0.48"/>
	<rect x="125.16" y="26.76" width="8.46" height="0.48"/>
	<rect x="139.979" y="26.76" width="8.46" height="0.48"/>
	<rect x="154.8" y="26.76" width="8.521" height="0.48"/>
	<rect x="169.62" y="26.76" width="8.52" height="0.48"/>
	<rect x="184.5" y="26.76" width="8.46" height="0.48"/>
	<rect x="199.32" y="26.76" width="8.46" height="0.48"/>
	<rect x="214.14" y="26.76" width="8.46" height="0.48"/>
	<rect x="228.96" y="26.76" width="8.46" height="0.48"/>
	<rect x="243.78" y="26.76" width="4.02" height="0.48"/>
	<text transform="matrix(1 0 0 1 27.96 28.6201)"><tspan x="0" y="0" style="font-family:'ProductusBook'; font-size:7.98;">c</tspan><tspan x="3.104" y="0" style="font-family:'ProductusBook'; font-size:7.98;">a</tspan><tspan x="6.408" y="0" style="font-family:'ProductusBook'; font-size:7.98;">m</tspan><tspan x="12.177" y="0" style="font-family:'ProductusBook'; font-size:7.98;">e</tspan><tspan x="15.665" y="0" style="font-family:'ProductusBook'; font-size:7.98;">r</tspan><tspan x="17.947" y="0" style="font-family:'ProductusBook'; font-size:7.98;">a</tspan></text>
	<rect x="72.96" y="18" style="fill:#808080;" width="27" height="18"/>
	<rect x="72.96" y="17.76" width="27.24" height="0.48"/>
	<rect x="99.72" y="18" width="0.48" height="18.24"/>
	<rect x="72.72" y="35.76" width="27.24" height="0.48"/>
	<rect x="72.72" y="17.76" width="0.48" height="18.24"/>
	<rect x="63.96" y="22.5" style="fill:#808080;" width="9" height="9"/>
	<rect x="63.72" y="22.26" width="9.48" height="0.48"/>
	<rect x="63.72" y="22.5" width="0.48" height="9.24"/>
	<rect x="63.96" y="31.26" width="9.24" height="0.48"/>
	<path style="fill:#B3B3B3;" d="M153,72v-0.72v0.12l-0.061-0.66v0.06l-0.119-0.72v0.12l-0.181-0.66l0.061,0.06l-0.24-0.659V68.88
		l-0.24-0.72l0.061,0.18l-1.08-1.979l0.06,0.18l-0.479-0.6V65.88l-0.48-0.66v0.061l-0.54-0.66l0.12,0.06l-0.66-0.66l-0.6-0.659
		l0.06,0.06l-0.66-0.6l0.061,0.06l-1.44-1.2l-0.78-0.6l0.061,0.06l-0.84-0.6l-0.9-0.6h0.061l-1.801-1.08l-1.02-0.601v0.061
		l-0.96-0.54h0.06l-1.08-0.54h0.061l-1.08-0.48h-0.061l-1.14-0.54h0.061l-1.141-0.479h-0.06l-1.2-0.54l0.06,0.06l-1.199-0.479
		h0.06l-1.26-0.42h-0.061l-1.26-0.48h0.061l-1.32-0.479l-1.32-0.421l-1.38-0.42h0.061L123,51.3l-4.5-1.08h0.06l0.42-1.92l1.5,0.36
		c2.574,0.549,4.859,1.229,7.38,1.979l1.381,0.42v0.061l1.319,0.42h0.061l1.319,0.479l1.261,0.48h-0.061l1.26,0.42h0.061l1.2,0.48
		h0.06l1.2,0.54l1.14,0.479l1.141,0.54l1.08,0.48h0.06l1.08,0.539v0.061l0.96,0.54h0.06l1.021,0.6l1.8,1.08v0.061l0.9,0.6h0.06
		l0.84,0.6l0.78,0.601l0.06,0.06l1.44,1.2l0.66,0.6c0.618,0.762,1.31,1.253,1.859,2.04l0.061,0.061l0.479,0.66l-0.06-0.061
		l0.48,0.601c1.123,1.603,2.08,4.011,2.159,6V72"/>
	<path style="fill:#B3B3B3;" d="M118.56,50.22l-1.62-0.359l-1.56-0.301l-1.62-0.359l-1.62-0.3l-1.68-0.301l0.06,0.061l-1.68-0.24
		l-0.06-0.06l-1.68-0.301l0.06,0.061l-3.48-0.48h0.06l-1.8-0.18h-0.06l-1.8-0.24h0.06l-3.6-0.359l-1.86-0.181l-3.72-0.239
		l-1.92-0.12h0.06l-1.86-0.061h-0.06l-1.92-0.12h0.06l-1.98-0.06h-1.92l-1.98-0.061h-3.96h0.06l-1.92,0.061h-2.04h0.06l-1.92,0.06
		l-1.92,0.12l-1.92,0.061l-1.86,0.12L62.1,46.56h0.06L60.3,46.74h-0.06l-1.8,0.12h0.06l-1.86,0.18l-1.8,0.18l-1.8,0.24l-1.74,0.18
		h0.06l-3.48,0.48V48.06L46.2,48.36v0.06l-1.68,0.24V48.6l-0.36-1.92h0.06l1.68-0.239h-0.06l1.68-0.301h0.06l3.48-0.479h0.06
		l1.74-0.181H52.8l1.8-0.239c3.722-0.368,7.486-0.688,11.22-0.9l1.92-0.06h-0.06l1.92-0.12c3.288-0.08,6.611-0.137,9.9-0.12
		l1.98,0.06h-0.06h1.98c4.406,0.181,8.933,0.351,13.32,0.78l3.6,0.36c4.658,0.508,9.191,1.164,13.8,2.04h0.06l1.62,0.359h-0.06
		l1.56,0.301h0.06l1.62,0.359"/>
	<path style="fill:#B3B3B3;" d="M44.52,48.6L42.84,48.9l-1.62,0.3h0.06l-1.62,0.359H39.6l-1.62,0.301h0.06l-3.12,0.72l-3,0.72
		h0.06l-2.88,0.84l-2.76,0.84L25.02,53.4h0.06l-2.64,0.96h-0.06l-1.26,0.42h0.06l-1.2,0.479l0.06-0.06l-1.2,0.54L17.7,56.22h0.06
		l-1.08,0.54h-0.06l-1.14,0.48h0.06l-2.04,1.08l0.06-0.061L12.6,58.86l-0.06,0.06l-0.96,0.54l0.06-0.06l-0.9,0.54h0.06L9.12,61.14
		v-0.06l-1.56,1.2l0.06-0.061l-1.32,1.2h0.06L5.7,64.08l0.06-0.061L5.22,64.62l-1.08,1.32L4.2,65.88l-0.42,0.6v-0.06l-0.42,0.66
		l0.06-0.061l-0.36,0.66v-0.06l-0.3,0.66l0.06-0.12l-0.24,0.72v0.061l-1.86-0.66l0.24-0.721V67.44l0.3-0.66l0.06-0.061l0.36-0.66
		V66l0.42-0.66h0.06l0.42-0.6V64.68c1.136-1.501,2.4-2.706,3.78-3.96l1.56-1.2h0.06l1.68-1.199l0.06-0.061l0.9-0.54l0.96-0.54
		l0.96-0.6h0.06l2.04-1.08l0.06-0.06l1.14-0.48h-0.06l1.08-0.54h0.06l1.14-0.479H18l1.2-0.54h0.06l1.2-0.48h0.06l1.26-0.42
		l2.64-0.96l1.32-0.42V51.06l1.38-0.42c5.051-1.583,10.164-2.661,15.36-3.66l1.68-0.3"/>
	<path style="fill:#B3B3B3;" d="M2.58,68.94L2.34,69.6v-0.06L2.16,70.2l0.06-0.12L2.1,70.8v-0.06L2.04,71.4l-0.06,0.72v-0.18
		l0.06,0.72l0.06,0.66V73.26l0.12,0.72L2.16,73.86l0.18,0.659v-0.06l0.24,0.66l0.24,0.72l-0.06-0.12l0.3,0.66v-0.06l0.36,0.659
		l-0.06-0.06l0.42,0.66l0.42,0.6l-0.06-0.06l1.08,1.32V79.38l0.54,0.6H5.7l0.66,0.66L6.3,80.58l1.32,1.2L7.56,81.72l1.56,1.2
		l0.84,0.6L9.9,83.46L10.74,84v0.06l0.9,0.601L11.58,84.6l0.96,0.54h0.06l0.96,0.601H13.5l1.02,0.54V86.22l1.08,0.54h-0.06
		l1.08,0.48h0.06l1.08,0.54H17.7l1.14,0.479h-0.06l1.2,0.48h0.06l1.26,0.54h-0.06l1.2,0.42l2.64,0.96h-0.06l1.32,0.42V91.02
		l2.76,0.841l-0.54,1.92H28.5l-2.76-0.84l-1.32-0.421l-2.64-0.96l-1.2-0.42l-0.06-0.06l-1.26-0.54v0.06l-1.2-0.479V90.06
		l-1.14-0.479h-0.06l-1.08-0.54h0.06l-1.08-0.48H14.7l-1.08-0.54l-1.02-0.54l-0.06-0.06l-0.96-0.6v0.06l-0.96-0.54l-0.06-0.06
		c-2.295-1.461-4.348-2.952-6.24-4.92L4.26,81.3l-0.54-0.6H3.66l-1.08-1.32v-0.06L2.16,78.72L2.1,78.66L1.68,78v-0.06l-0.36-0.66
		L1.26,77.22l-0.3-0.66V76.44L0.72,75.72v0.061l-0.24-0.66L0.42,75.06c-0.223-0.687-0.308-1.498-0.36-2.22L0,72.12v-0.18
		c0.089-0.986,0.116-1.992,0.42-2.94l0.06-0.06l0.24-0.66"/>
	<path style="fill:#B3B3B3;" d="M29.1,91.86l2.88,0.84h-0.06l3,0.72l3.12,0.72h-0.06l1.62,0.301h0.06l1.62,0.359h-0.06l1.62,0.3
		l1.68,0.301l1.68,0.239l1.68,0.301l3.48,0.479H51.3l1.74,0.18l1.8,0.24l1.8,0.18L58.5,97.2h-0.06l1.8,0.12h0.06l1.86,0.18H62.1
		l1.92,0.12l1.86,0.12l1.92,0.06l1.92,0.12l1.92,0.06h-0.06h2.04l1.92,0.061h-0.06h3.96l1.98-0.061h1.92l1.98-0.06h-0.06
		l1.92-0.12h0.06l1.86-0.06h-0.06l1.92-0.12l1.86-0.12l1.86-0.18l1.86-0.12l3.6-0.36h-0.06l1.8-0.24h0.06l0.18,1.98l-1.8,0.24
		l-3.6,0.359h-0.06L94.8,99.3h0.06L93,99.479c-3.2,0.212-6.456,0.374-9.66,0.48h-1.92h0.06l-1.98,0.06
		c-3.289,0.018-6.612-0.04-9.9-0.119l-1.92-0.12h0.06l-1.92-0.061c-3.734-0.212-7.498-0.532-11.22-0.899l-1.8-0.24h0.06
		l-1.74-0.18h-0.06l-3.48-0.48l-0.06-0.06l-1.68-0.301l0.06,0.061l-1.68-0.24l-0.06-0.06l-1.68-0.301l-1.62-0.3l-1.62-0.359
		l-1.62-0.301l-3.12-0.72h-0.06l-3-0.72l-2.88-0.84"/>
	<path style="fill:#B3B3B3;" d="M101.94,96.6l1.8-0.18h-0.06l3.48-0.479h-0.06l1.68-0.301h0.06l1.68-0.239h-0.06l1.68-0.301
		l1.62-0.3l1.62-0.359l1.56-0.301l1.62-0.359h-0.06l4.5-1.08l1.5-0.42h-0.061l1.381-0.42h0.06l1.44-0.42h-0.061l1.38-0.421v0.061
		l1.32-0.42l1.32-0.48h-0.061l1.26-0.479h0.061l1.26-0.42h-0.12l1.2-0.54h0.06l1.2-0.48l1.141-0.479h-0.061l1.14-0.54h0.061
		l1.08-0.48h-0.061l1.08-0.54l-0.06,0.061l0.96-0.54l1.02-0.601l0.9-0.54l-0.06,0.061l0.899-0.601L144.24,84l0.899-0.54
		l-0.06,0.06l0.84-0.6h-0.061l0.78-0.6v0.06l1.44-1.2h-0.061l0.66-0.6l-0.06,0.06l0.6-0.66h0.061l0.6-0.6l-0.12,0.061l0.54-0.66
		v0.06l0.48-0.66v-0.06l1.56,1.26l0.06-0.06l-0.479,0.659l-0.061,0.061l-0.539,0.66l-0.66,0.66V81.3l-0.601,0.66
		c-0.932,0.939-1.918,1.748-3,2.52v0.061l-0.84,0.6h-0.06l-0.9,0.54l-0.9,0.601l-0.899,0.54l-1.021,0.6l-0.06,0.06l-0.96,0.54
		c-1.438,0.71-3.025,1.405-4.5,2.04l-0.061,0.061L135.66,90.6l0.06-0.06l-1.2,0.54l-0.12,0.06l-1.26,0.42h0.061l-1.261,0.48
		l-1.319,0.479h-0.061l-1.319,0.421l-1.381,0.42l-1.439,0.42l-1.38,0.42l-1.5,0.42h-0.061l-4.5,1.08l-1.62,0.359h-0.06
		l-1.56,0.301h0.06l-1.62,0.359h-0.06l-1.62,0.3l-1.68,0.301v0.06l-1.68,0.24V97.56l-1.68,0.301v0.06l-3.48,0.48h-0.06l-1.8,0.18"
		/>
	<path style="fill:#B3B3B3;" d="M150.78,78.12l0.479-0.601l-0.06,0.12l1.08-1.979l-0.061,0.18l0.24-0.72l0.24-0.66l-0.061,0.06
		l0.181-0.659v0.119l0.119-0.72v0.061L153,72.66v0.06V72h1.979v0.84l-0.06,0.66v0.06l-0.12,0.721l-0.06,0.12l-0.181,0.659v0.061
		l-0.239,0.66V75.72l-0.24,0.721c-0.259,0.622-0.903,1.727-1.26,2.34l-0.48,0.6"/>
	<rect x="63.96" y="107.76" width="36.24" height="0.48"/>
	<rect x="99.72" y="108" width="0.48" height="27.24"/>
	<rect x="63.72" y="134.76" width="36.24" height="0.48"/>
	<rect x="63.72" y="107.76" width="0.48" height="27.24"/>
	<path d="M73.26,112.08l-0.42,0.06h0.06l-0.36,0.12l-0.36,0.181l0.06-0.061l-0.3,0.24l-0.24,0.3l0.06-0.06l-0.18,0.359l-0.12,0.36
		v-0.061l-0.06,0.421v-0.061v11.4l0.06,0.42v-0.061l0.12,0.36v-0.06l0.18,0.359H71.7l0.24,0.3v-0.06l0.3,0.24h-0.06l0.36,0.18
		v-0.06l0.36,0.119h-0.12H91.2h-0.06l0.36-0.119l-0.06,0.06l0.36-0.18l0.3-0.24l-0.06,0.06l0.24-0.3l0.18-0.359L92.4,126
		l0.12-0.36v0.061v-12.24v0.12l-0.12-0.36h0.06l-0.18-0.359v0.06l-0.24-0.3h0.06l-0.3-0.24v0.061l-0.36-0.181h0.06l-0.36-0.12
		h0.06l-0.42-0.06H73.2v-0.48h17.64l0.42,0.061h0.06l0.36,0.12v0.06l0.36,0.18h0.06l0.3,0.24v0.061l0.24,0.3h0.06l0.18,0.359
		v0.061L93,113.4v12.42l-0.12,0.359l-0.18,0.36l-0.06,0.06L92.4,126.9l-0.3,0.239l-0.06,0.061l-0.36,0.18l-0.36,0.12h-18.6
		l-0.36-0.12H72.3l-0.36-0.18v-0.061l-0.3-0.239h-0.06l-0.24-0.301v-0.06l-0.18-0.36H71.1l-0.12-0.359v-0.061
		c-0.257-4.069,0.046-8.288,0-12.359l0.12-0.36l0.06-0.061c0.262-0.704,0.88-1.104,1.56-1.319h0.06l0.42-0.061"/>
	<polyline points="73.2,112.08 73.26,112.08 73.2,111.6 	"/>
	<rect x="63.96" y="131.16" style="fill:#1A1A1A;" width="36" height="3.84"/>
	<rect x="63.96" y="130.92" width="36.24" height="0.48"/>
	<rect x="99.72" y="131.16" width="0.48" height="4.08"/>
	<rect x="63.72" y="134.76" width="36.24" height="0.48"/>
	<rect x="63.72" y="130.92" width="0.48" height="4.08"/>
	<rect x="63.96" y="111.84" style="fill:#B3B3B3;" width="7.2" height="15.42"/>
	<rect x="63.96" y="111.6" width="7.44" height="0.48"/>
	<rect x="70.92" y="111.84" width="0.48" height="15.66"/>
	<rect x="63.72" y="127.02" width="7.44" height="0.48"/>
	<rect x="63.72" y="111.6" width="0.48" height="15.66"/>
	<rect x="92.76" y="111.84" style="fill:#B3B3B3;" width="7.2" height="15.42"/>
	<rect x="92.76" y="111.6" width="7.44" height="0.48"/>
	<rect x="99.72" y="111.84" width="0.48" height="15.66"/>
	<rect x="92.52" y="127.02" width="7.44" height="0.48"/>
	<rect x="92.52" y="111.6" width="0.48" height="15.66"/>
	<rect x="81" y="35.04" style="fill:#B3B3B3;" width="1.98" height="0.96"/>
	<rect x="81" y="36" style="fill:#B3B3B3;" width="1.98" height="9.96"/>
	<rect x="81" y="98.04" style="fill:#B3B3B3;" width="1.98" height="0.96"/>
	<rect x="81" y="99" style="fill:#B3B3B3;" width="1.98" height="9.96"/>
	<text transform="matrix(1 0 0 1 27.96 123.3604)"><tspan x="0" y="0" style="font-family:'ProductusBook'; font-size:7.98;">moni</tspan><tspan x="14.811" y="0" style="font-family:'ProductusBook'; font-size:7.98;">t</tspan><tspan x="17.157" y="0" style="font-family:'ProductusBook'; font-size:7.98;">o</tspan><tspan x="20.995" y="0" style="font-family:'ProductusBook'; font-size:7.98;">r</tspan></text>
	<rect x="153" y="71.04" style="fill:#B3B3B3;" width="0.96" height="1.979"/>
	<rect x="153.96" y="71.04" style="fill:#B3B3B3;" width="18.96" height="1.979"/>
	<text transform="matrix(1 0 0 1 181.8594 150.3604)"><tspan x="0" y="0" style="font-family:'ProductusBook'; font-size:7.98;">O</tspan><tspan x="5.339" y="0" style="font-family:'ProductusBook'; font-size:7.98;">S</tspan><tspan x="9.057" y="0" style="font-family:'ProductusBook'; font-size:7.98;">Gi</tspan><tspan x="15.385" y="0" style="font-family:'ProductusBook'; font-size:7.98;"> </tspan><tspan x="17.005" y="0" style="font-family:'ProductusBook'; font-size:7.98;">Servi</tspan><tspan x="31.257" y="0" style="font-family:'ProductusBook'; font-size:7.98;">c</tspan><tspan x="34.258" y="0" style="font-family:'ProductusBook'; font-size:7.98;">e</tspan><tspan x="37.793" y="0" style="font-family:'ProductusBook'; font-size:7.98;"> </tspan><tspan x="39.412" y="0" style="font-family:'ProductusBook'; font-size:7.98;">Plat</tspan><tspan x="49.97" y="0" style="font-family:'ProductusBook'; font-size:7.98;">f</tspan><tspan x="51.893" y="0" style="font-family:'ProductusBook'; font-size:7.98;">o</tspan><tspan x="55.731" y="0" style="font-family:'ProductusBook'; font-size:7.98;">r</tspan><tspan x="58.006" y="0" style="font-family:'ProductusBook'; font-size:7.98;">m</tspan></text>
	<text transform="matrix(1 0 0 1 201.2402 71.2793)"><tspan x="0" y="0" style="font-family:'ProductusBook'; font-size:7.98;">W</tspan><tspan x="6.112" y="0" style="font-family:'ProductusBook'; font-size:7.98;">i</tspan><tspan x="7.677" y="0" style="font-family:'ProductusBook'; font-size:7.98;">r</tspan><tspan x="9.951" y="0" style="font-family:'ProductusBook'; font-size:7.98;">e</tspan><tspan x="13.486" y="0" style="font-family:'ProductusBook'; font-size:7.98;"> </tspan><tspan x="15.05" y="0" style="font-family:'ProductusBook'; font-size:7.98;">d</tspan><tspan x="18.769" y="0" style="font-family:'ProductusBook'; font-size:7.98;">e</tspan><tspan x="22.256" y="0" style="font-family:'ProductusBook'; font-size:7.98;">f</tspan><tspan x="24.195" y="0" style="font-family:'ProductusBook'; font-size:7.98;">i</tspan><tspan x="25.815" y="0" style="font-family:'ProductusBook'; font-size:7.98;">n</tspan><tspan x="29.478" y="0" style="font-family:'ProductusBook'; font-size:7.98;">i</tspan><tspan x="31.042" y="0" style="font-family:'ProductusBook'; font-size:7.98;">n</tspan><tspan x="34.761" y="0" style="font-family:'ProductusBook'; font-size:7.98;">g</tspan></text>
	<text transform="matrix(1 0 0 1 201.2402 82.2598)"><tspan x="0" y="0" style="font-family:'ProductusBook'; font-size:7.98;">t</tspan><tspan x="2.362" y="0" style="font-family:'ProductusBook'; font-size:7.98;">h</tspan><tspan x="6.081" y="0" style="font-family:'ProductusBook'; font-size:7.98;">e</tspan><tspan x="9.567" y="0" style="font-family:'ProductusBook'; font-size:7.98;"> </tspan><tspan x="11.18" y="0" style="font-family:'ProductusBook'; font-size:7.98;">c</tspan><tspan x="14.181" y="0" style="font-family:'ProductusBook'; font-size:7.98;">o</tspan><tspan x="18.019" y="0" style="font-family:'ProductusBook'; font-size:7.98;">nn</tspan><tspan x="25.344" y="0" style="font-family:'ProductusBook'; font-size:7.98;">e</tspan><tspan x="28.879" y="0" style="font-family:'ProductusBook'; font-size:7.98;">c</tspan><tspan x="31.943" y="0" style="font-family:'ProductusBook'; font-size:7.98;">t</tspan><tspan x="34.338" y="0" style="font-family:'ProductusBook'; font-size:7.98;">i</tspan><tspan x="35.901" y="0" style="font-family:'ProductusBook'; font-size:7.98;">o</tspan><tspan x="39.668" y="0" style="font-family:'ProductusBook'; font-size:7.98;">n</tspan></text>
	<text transform="matrix(1 0 0 1 27.96 69.3594)"><tspan x="0" y="0" style="font-family:'ProductusBook'; font-size:7.98;">I</tspan><tspan x="1.564" y="0" style="font-family:'ProductusBook'; font-size:7.98;">EEE</tspan><tspan x="11.81" y="0" style="font-family:'ProductusBook'; font-size:7.98;"> </tspan><tspan x="13.374" y="0" style="font-family:'ProductusBook'; font-size:7.98;">139</tspan><tspan x="23.812" y="0" style="font-family:'ProductusBook'; font-size:7.98;">4</tspan><tspan x="27.539" y="0" style="font-family:'ProductusBook'; font-size:7.98;">B</tspan></text>
	<polyline points="95.76,97.62 98.16,98.76 98.76,99 98.34,99.54 92.04,106.74 90.9,108.06 91.2,106.32 92.7,96.84 92.82,96.18 
		93.42,96.479 93.72,97.02 92.16,106.5 91.2,106.32 91.32,106.08 97.62,98.88 98.34,99.54 97.74,99.66 95.34,98.52 	"/>
	<polyline points="93.42,96.479 95.76,97.62 95.34,98.52 93,97.38 	"/>
	<polyline style="fill-rule:evenodd;clip-rule:evenodd;" points="95.58,98.04 97.98,99.18 91.68,106.38 93.24,96.9 	"/>
	<polyline points="95.22,35.82 95.04,35.7 94.8,36.12 94.98,36.24 	"/>
	<path d="M95.22,35.82l2.7,1.68c8.092,5.058,17.178,11.674,22.979,19.32l0.96,1.319h0.061l0.9,1.38l0.84,1.32
		c2.44,4.568,3.65,8.877,2.1,13.98v0.06l-0.36,0.96c-3.18,6.808-12.905,10.003-18.899,13.26l-2.28,1.2l-2.16,1.32h0.06l-0.96,0.66
		l-0.3-0.42l0.96-0.66l2.16-1.32l2.28-1.2l4.74-2.34h0.06l2.4-1.14h-0.061l2.28-1.26l2.22-1.261l2.04-1.319l0.96-0.721l1.681-1.56
		l-0.061,0.06l0.721-0.84l0.659-0.84l0.601-0.9l0.479-0.96v0.061l0.36-0.96h-0.06l0.359-1.38v0.06l0.24-1.38l0.06-1.38v-1.38v0.06
		l-0.18-1.38l-0.3-1.44l-0.42-1.38l0.06,0.061l-0.54-1.32l-0.6-1.38l-0.72-1.38l-0.841-1.32l-0.899-1.38v0.061l-0.96-1.32
		l-2.16-2.641l-2.4-2.52l-1.319-1.26h0.06l-2.7-2.4l-2.82-2.34l-2.88-2.22l-2.88-2.101V41.7l-2.94-1.98l-2.82-1.8l-2.7-1.68"/>
	<path d="M101.16,92.28l-0.96,0.66V92.88l-0.9,0.72l-0.84,0.78l-0.72,0.78L97.08,96h0.06l-0.6,0.84v-0.06l-0.42-0.24l0.6-0.84
		c0.869-1.206,1.99-2.295,3.18-3.181l0.96-0.659"/>
	<polyline points="96.06,97.74 95.94,97.92 95.52,97.68 95.64,97.5 	"/>
	<polyline points="96.54,96.78 96.12,96.54 95.64,97.5 96.06,97.74 	"/>
</svg>
