<?xml version="1.0" encoding="utf-8"?>
<!-- Generator: Adobe Illustrator 16.0.1, SVG Export Plug-In . SVG Version: 6.00 Build 0)  -->
<!DOCTYPE svg PUBLIC "-//W3C//DTD SVG 1.1//EN" "http://www.w3.org/Graphics/SVG/1.1/DTD/svg11.dtd">
<svg version="1.1" id="Layer_1" xmlns="http://www.w3.org/2000/svg" xmlns:xlink="http://www.w3.org/1999/xlink" x="0px" y="0px"
	 width="245.279px" height="64.8px" viewBox="0 0 245.279 64.8" enable-background="new 0 0 245.279 64.8" xml:space="preserve">
<rect x="173.04" y="36" fill="#E6E6E6" width="28.8" height="28.801"/>
<rect x="36.24" fill="#E6E6E6" width="28.8" height="28.8"/>
<rect x="93.84" fill="#E6E6E6" width="43.2" height="28.8"/>
<path fill="#B3B3B3" d="M57.84,14.4l-0.061-0.72l-0.119-0.72c-1.958-8.014-13.056-7.466-14.221,0.72v1.5
	c1.151,8.184,12.285,8.716,14.221,0.72l0.119-0.72L57.84,14.4"/>
<path d="M57.6,14.46l-0.06-0.72l-0.12-0.72l-0.18-0.66v0.06L57,11.76h0.06l-0.3-0.66l-0.36-0.6v0.06l-0.42-0.54l-0.96-0.96h0.061
	l-0.54-0.42V8.7L53.94,8.34H54l-0.66-0.3L52.68,7.8l-0.66-0.18h0.061L51.36,7.5l-0.72-0.06H50.7L49.92,7.5L49.2,7.62L48.54,7.8h0.06
	l-0.66,0.24l-0.66,0.3l-0.6,0.36l0.061-0.06L46.2,9.06l-0.96,0.96l-0.421,0.54l0.061-0.06l-0.36,0.6l-0.3,0.66l-0.24,0.66v-0.06
	l-0.18,0.66l-0.12,0.72v-0.06v1.5l0.12,0.72v-0.06l0.18,0.66l0.24,0.66l0.3,0.66v-0.06l0.36,0.6H44.82l0.421,0.54v-0.06l0.96,0.96
	L45.9,20.16h-0.06l-0.96-0.96l-0.42-0.54V18.6L44.1,18l-0.3-0.66h-0.06l-0.24-0.66v-0.06l-0.181-0.66L43.2,15.24v-1.56l0.119-0.72
	V12.9l0.181-0.66l0.24-0.66h0.06l0.3-0.66v-0.06l0.36-0.6l0.42-0.54V9.66l0.96-0.96h0.06l0.54-0.42l0.601-0.36h0.06l0.66-0.3V7.56
	l0.66-0.24l0.66-0.18h0.06l0.72-0.12l0.78-0.06H50.7l0.72,0.06l0.72,0.12l0.66,0.18h0.06l0.66,0.24v0.06l0.66,0.3
	c1.022,0.48,1.955,1.418,2.58,2.34h0.06l0.36,0.6v0.06l0.3,0.66l0.24,0.66l0.18,0.66v0.06l0.12,0.72l0.061,0.72"/>
<path d="M46.2,19.8l0.54,0.42H46.68l0.6,0.36l0.66,0.3v-0.06l0.66,0.24h-0.06l0.66,0.18l0.72,0.12H49.86h1.5l0.721-0.12H52.02
	l0.66-0.18l0.66-0.24v0.06l0.66-0.3H53.94l0.601-0.36l0.54-0.42H55.02l0.96-0.96v0.06l0.42-0.54l0.36-0.6v0.06l0.3-0.66H57
	l0.24-0.66l0.18-0.66v0.06l0.12-0.72l0.06-0.78v0.06l0.48-0.06v0.06l-0.061,0.78c-0.373,2.524-1.25,3.825-3.24,5.4L54.18,21
	l-0.66,0.3c-2.045,0.847-4.46,0.744-6.42-0.3h-0.06l-0.601-0.36v-0.06l-0.54-0.42"/>
<rect x="95.82" y="14.16" width="4.681" height="0.48"/>
<polyline points="96.18,11.7 95.94,12.12 100.38,14.64 100.62,14.64 101.04,14.4 100.62,14.22 "/>
<polyline points="100.62,14.64 100.38,14.22 95.94,16.8 96.18,17.22 "/>
<rect x="57.84" y="14.16" width="37.979" height="0.48"/>
<rect x="180.24" y="43.201" fill="#B3B3B3" width="14.398" height="14.399"/>
<rect x="180.24" y="42.96" width="14.64" height="0.479"/>
<rect x="194.4" y="43.201" width="0.479" height="14.639"/>
<rect x="180" y="57.36" width="14.64" height="0.479"/>
<rect x="180" y="42.96" width="0.479" height="14.64"/>
<rect x="101.04" y="7.2" fill="#B3B3B3" width="14.399" height="14.4"/>
<rect x="101.04" y="6.96" width="14.64" height="0.48"/>
<rect x="115.2" y="7.2" width="0.479" height="14.64"/>
<rect x="100.8" y="21.36" width="14.641" height="0.48"/>
<rect x="100.8" y="6.96" width="0.479" height="14.64"/>
<path fill="#B3B3B3" d="M129.84,14.4l-0.061-0.72l-0.119-0.72c-1.958-8.014-13.056-7.466-14.221,0.72v1.5
	c1.15,8.184,12.284,8.716,14.221,0.72l0.119-0.72L129.84,14.4"/>
<path d="M129.6,14.46l-0.06-0.72l-0.12-0.72l-0.18-0.66v0.06L129,11.76h0.061l-0.301-0.66l-0.359-0.6v0.06l-0.42-0.54l-0.96-0.96
	h0.061l-0.54-0.42V8.7l-0.601-0.36H126l-0.66-0.3l-0.66-0.24l-0.659-0.18h0.061l-0.721-0.12l-0.721-0.06h0.062l-0.78,0.06
	l-0.72,0.12l-0.66,0.18h0.06l-0.659,0.24l-0.659,0.3L118.68,8.7l0.062-0.06l-0.54,0.42l-0.96,0.96l-0.421,0.54l0.061-0.06
	l-0.359,0.6l-0.301,0.66l-0.239,0.66v-0.06l-0.181,0.66l-0.12,0.72v-0.06v1.5l0.12,0.72v-0.06l0.181,0.66l0.239,0.66l0.301,0.66
	v-0.06l0.359,0.6h-0.061l0.421,0.54v-0.06l0.96,0.96l-0.301,0.36h-0.061l-0.96-0.96l-0.42-0.54V18.6L116.1,18l-0.3-0.66h-0.06
	l-0.24-0.66v-0.06l-0.181-0.66l-0.119-0.72v-1.56l0.119-0.72V12.9l0.181-0.66l0.24-0.66h0.06l0.3-0.66v-0.06l0.36-0.6l0.42-0.54
	V9.66l0.96-0.96h0.061l0.54-0.42l0.601-0.36h0.06l0.66-0.3V7.56l0.66-0.24l0.66-0.18h0.06l0.721-0.12l0.779-0.06h0.062l0.72,0.06
	l0.72,0.12l0.66,0.18h0.061l0.66,0.24v0.06l0.659,0.3c1.022,0.48,1.955,1.418,2.58,2.34h0.062l0.358,0.6v0.06l0.301,0.66l0.239,0.66
	l0.181,0.66v0.06l0.12,0.72l0.061,0.72"/>
<path d="M118.2,19.8l0.54,0.42h-0.062l0.601,0.36l0.66,0.3v-0.06l0.659,0.24h-0.06l0.66,0.18l0.72,0.12h-0.061h1.5l0.721-0.12
	h-0.061l0.659-0.18l0.66-0.24v0.06l0.66-0.3h-0.061l0.601-0.36l0.54-0.42h-0.061l0.96-0.96v0.06l0.42-0.54l0.359-0.6v0.06
	l0.301-0.66H129l0.24-0.66l0.18-0.66v0.06l0.12-0.72l0.06-0.78v0.06l0.48-0.06v0.06l-0.061,0.78c-0.372,2.524-1.25,3.825-3.24,5.4
	l-0.6,0.36l-0.659,0.3c-2.046,0.847-4.46,0.744-6.421-0.3h-0.06l-0.601-0.36v-0.06l-0.54-0.42"/>
<path fill="#FFFFFF" d="M242.88,45.36l-0.54-0.54l-0.54-0.42c-7.092-4.285-14.553,3.941-9.6,10.561l1.079,1.08
	c6.618,4.953,14.847-2.508,10.561-9.601l-0.42-0.54L242.88,45.36"/>
<polyline points="242.7,45.541 242.16,45 242.16,45.06 241.62,44.64 240.96,44.281 241.021,44.339 240.42,44.041 240.48,43.98 
	239.82,43.74 239.82,43.8 239.1,43.68 238.44,43.56 237.78,43.5 237.84,43.44 237.12,43.5 237.18,43.56 236.521,43.68 235.8,43.8 
	235.8,43.74 235.14,43.98 234.54,44.281 233.94,44.64 234,44.58 233.4,45 232.32,46.08 232.38,46.08 231.96,46.621 231.6,47.281 
	231.66,47.22 231.36,47.82 231.12,48.48 231.12,48.419 231,49.14 230.88,49.8 230.88,49.74 230.88,51.121 231,51.781 231.12,52.5 
	231.12,52.44 231.36,53.1 231.66,53.701 231.6,53.64 231.96,54.24 232.38,54.839 232.32,54.839 233.4,55.919 234,56.339 
	233.94,56.281 234.54,56.64 235.14,56.94 235.8,57.18 235.8,57.121 236.521,57.24 237.18,57.36 237.061,57.36 238.44,57.36 
	238.561,57.9 237.061,57.9 236.4,57.781 235.68,57.66 235.68,57.6 235.021,57.36 234.96,57.419 234.36,57.121 234.3,57.06 
	233.7,56.701 233.1,56.281 233.1,56.22 232.021,55.14 231.6,54.541 231.54,54.541 231.18,53.94 230.88,53.339 230.94,53.281 
	230.7,52.621 230.64,52.56 230.521,51.839 230.4,51.18 230.34,51.121 230.34,49.74 230.4,49.74 230.521,49.08 230.64,48.36 
	230.7,48.3 230.94,47.64 230.88,47.58 231.18,46.98 231.54,46.32 231.6,46.32 232.021,45.781 233.1,44.701 233.1,44.64 233.7,44.22 
	234.3,43.86 234.36,43.8 234.96,43.5 235.021,43.56 235.68,43.32 235.68,43.259 236.4,43.14 237.061,43.02 237.78,42.96 
	237.84,43.02 238.5,43.08 238.561,43.02 239.22,43.14 239.94,43.259 239.94,43.32 240.6,43.56 241.2,43.86 241.86,44.22 
	241.92,44.281 242.46,44.701 243,45.24 "/>
<path d="M238.44,57.36l0.659-0.12l0.721-0.119v0.06l0.66-0.24l-0.061-0.06l0.601-0.301l-0.061,0.061l0.66-0.359l0.54-0.421v0.06
	l1.079-1.08l0.421-0.6h-0.06l0.36-0.6l0.3-0.6v0.06l0.24-0.66v0.06l0.12-0.719l0.12-0.66l0.06-0.721v0.061l-0.06-0.66l-0.12-0.66
	l-0.12-0.721v0.061l-0.24-0.66v0.061l-0.3-0.6l-0.36-0.66h0.062l-0.42-0.541l-0.54-0.539l0.3-0.301l0.54,0.541h0.06
	c0.633,0.746,1.5,2.288,1.5,3.299l0.12,0.66l0.062,0.66c-0.086,1.08-0.232,2.674-0.9,3.54l-0.359,0.601l-0.421,0.6h-0.06
	c-1.187,1.201-1.411,1.521-2.94,2.22l-0.659,0.24v0.06l-0.721,0.121l-0.659,0.119"/>
<polyline points="232.92,45.18 232.561,45.541 242.7,55.68 243.061,55.32 "/>
<polyline points="232.561,55.32 232.92,55.68 243.061,45.541 242.7,45.18 "/>
<rect x="225.42" y="50.16" width="4.68" height="0.48"/>
<polyline points="225.78,47.701 225.54,48.121 229.98,50.64 230.22,50.64 230.64,50.4 230.22,50.22 "/>
<polyline points="230.22,50.64 229.98,50.22 225.54,52.8 225.78,53.22 "/>
<rect x="194.64" y="50.16" width="3.96" height="0.48"/>
<rect x="205.44" y="50.16" width="9.12" height="0.48"/>
<rect x="221.4" y="50.16" width="4.021" height="0.48"/>
<polyline points="4.8,8.28 4.68,7.92 4.74,7.98 4.5,7.68 4.62,7.74 4.2,7.56 3.78,7.44 3.9,7.44 3.42,7.56 3.48,7.56 3.06,7.74 
	3.12,7.68 2.88,7.98 2.94,7.86 2.88,8.22 2.88,8.16 2.94,8.58 2.88,8.46 3.12,8.76 3.06,8.7 3.48,8.88 3.42,8.82 3.9,8.88 
	3.84,8.88 4.26,8.82 4.2,8.88 4.62,8.7 4.5,8.76 4.74,8.46 4.68,8.52 4.8,8.1 5.28,8.22 5.16,8.64 5.1,8.76 4.86,9.06 4.8,9.12 
	4.38,9.3 4.32,9.3 3.9,9.36 3.84,9.36 3.36,9.3 3.3,9.3 2.88,9.12 2.76,9.06 2.52,8.76 2.46,8.64 2.4,8.22 2.4,8.16 2.46,7.8 
	2.52,7.68 2.76,7.38 2.88,7.32 3.3,7.14 3.3,7.08 3.78,6.96 3.9,6.96 4.32,7.08 4.38,7.14 4.8,7.32 4.86,7.38 5.1,7.68 5.16,7.74 
	5.28,8.1 "/>
<polyline points="4.8,8.1 4.8,8.28 5.28,8.1 5.28,8.22 "/>
<rect x="2.64" y="8.16" fill="#FFFFFF" width="2.4" height="11.52"/>
<rect x="2.64" y="7.92" width="2.64" height="0.48"/>
<rect x="4.8" y="8.16" width="0.479" height="11.76"/>
<rect x="2.4" y="19.44" width="2.641" height="0.48"/>
<rect x="2.4" y="7.92" width="0.48" height="11.76"/>
<path d="M7.44,20.16l-0.12-0.24l-0.18-0.3c-1.271-1.208-6.041-1.231-6.84,0.3l-0.06,0.24l0.06,0.3c0.831,1.501,5.513,1.474,6.84,0.3
	l0.18-0.3L7.44,20.16"/>
<path d="M7.26,20.28l-0.12-0.24l-0.18-0.3l0.06,0.12L6.66,19.62l-0.42-0.24H6.3l-0.54-0.12l-0.6-0.18h0.06l-1.38-0.12H3.9
	L2.46,19.08L1.86,19.26l-0.54,0.12H1.38l-0.42,0.24L0.6,19.86l0.12-0.12l-0.18,0.3v-0.06L0.48,20.22V20.1l0.061,0.3v-0.06l0.18,0.3
	L0.6,20.58l0.36,0.24L1.38,21v-0.06l0.54,0.18H1.86L2.46,21.3H2.4l1.44,0.06l1.38-0.06H5.16l0.6-0.18l0.54-0.18V21l0.42-0.18H6.66
	l0.359-0.24l-0.06,0.06l0.18-0.3v0.06l0.12-0.3l0.42,0.18l-0.12,0.3l-0.18,0.3L7.26,21c-0.987,0.65-2.244,0.922-3.42,0.84L2.4,21.78
	H2.34l-0.6-0.18L1.2,21.42L0.78,21.24H0.72L0.36,21L0.3,20.88l-0.18-0.3L0.06,20.52L0,20.22V20.1l0.06-0.24L0.12,19.8l0.18-0.3
	l0.06-0.06l0.36-0.24l0.42-0.24L1.2,18.9l0.54-0.12l0.6-0.18H2.4c1.408-0.259,3.709-0.147,4.86,0.84l0.12,0.06l0.18,0.3l0.12,0.24"
	/>
<polyline points="7.26,20.1 7.26,20.28 7.68,20.04 7.68,20.28 "/>
<rect x="2.64" y="14.88" width="2.4" height="4.8"/>
<rect x="2.64" y="14.64" width="2.64" height="0.48"/>
<rect x="4.8" y="14.88" width="0.479" height="5.04"/>
<rect x="2.4" y="19.44" width="2.641" height="0.48"/>
<rect x="2.4" y="14.64" width="0.48" height="5.04"/>
<rect x="2.64" y="7.92" fill="#FFFFFF" width="2.4" height="0.48"/>
<rect x="5.04" y="7.92" width="2.399" height="0.48"/>
<rect x="5.04" y="8.88" width="2.399" height="0.48"/>
<rect x="5.04" y="9.84" width="2.399" height="0.48"/>
<rect x="5.04" y="10.8" width="2.399" height="0.48"/>
<rect x="5.04" y="11.76" width="2.399" height="0.48"/>
<rect x="5.04" y="12.72" width="2.399" height="0.48"/>
<rect x="5.04" y="13.68" width="2.399" height="0.48"/>
<rect x="5.04" y="14.64" width="2.399" height="0.48"/>
<rect x="5.04" y="15.6" width="2.399" height="0.48"/>
<rect x="5.04" y="16.56" width="2.399" height="0.48"/>
<rect x="5.04" y="17.52" width="2.399" height="0.48"/>
<rect x="38.22" y="14.16" width="4.68" height="0.48"/>
<polyline points="38.58,11.7 38.34,12.12 42.78,14.64 43.02,14.64 43.44,14.4 43.02,14.22 "/>
<polyline points="43.02,14.64 42.78,14.22 38.34,16.8 38.58,17.22 "/>
<rect x="14.64" y="14.16" width="3.96" height="0.48"/>
<rect x="23.28" y="14.16" width="6.24" height="0.48"/>
<rect x="34.2" y="14.16" width="4.02" height="0.48"/>
<text transform="matrix(1 0 0 1 101.0403 35.4595)" font-family="'ProductusBook'" font-size="7.98">converter</text>
<rect x="173.04" fill="#E6E6E6" width="28.8" height="28.8"/>
<rect x="180.24" y="7.2" fill="#B3B3B3" width="14.398" height="14.4"/>
<rect x="180.24" y="6.96" width="14.64" height="0.48"/>
<rect x="194.4" y="7.2" width="0.479" height="14.64"/>
<rect x="180" y="21.36" width="14.64" height="0.48"/>
<rect x="180" y="6.96" width="0.479" height="14.64"/>
<path fill="#FFFFFF" d="M242.88,9.36l-0.54-0.54L241.8,8.4c-7.092-4.286-14.553,3.942-9.6,10.56l1.079,1.08
	c6.625,4.933,14.852-2.522,10.561-9.6l-0.42-0.54L242.88,9.36"/>
<polyline points="242.7,9.54 242.16,9 242.16,9.06 241.62,8.64 240.96,8.28 241.021,8.34 240.42,8.04 240.48,7.98 239.82,7.74 
	239.82,7.8 239.1,7.68 238.44,7.56 237.78,7.5 237.84,7.44 237.12,7.5 237.18,7.56 236.521,7.68 235.8,7.8 235.86,7.74 235.2,7.98 
	234.6,8.28 234,8.64 234,8.58 233.4,9 232.32,10.08 232.38,10.08 231.96,10.62 231.6,11.28 231.66,11.22 231.36,11.82 231.12,12.48 
	231.12,12.42 231,13.14 230.88,13.8 230.88,15.18 230.88,15.12 231,15.78 231.12,16.5 231.12,16.44 231.36,17.1 231.66,17.7 
	231.6,17.64 231.96,18.24 232.38,18.84 232.32,18.84 233.4,19.92 234,20.34 234,20.28 234.6,20.64 235.2,20.94 235.14,20.88 
	235.8,21.06 236.521,21.24 237.18,21.36 237.061,21.36 238.44,21.36 238.561,21.9 237.061,21.9 236.4,21.78 236.4,21.72 
	235.68,21.54 235.021,21.36 234.96,21.42 234.36,21.12 234.3,21.06 233.7,20.7 233.1,20.28 233.1,20.22 232.021,19.14 231.6,18.54 
	231.54,18.54 231.18,17.94 230.88,17.34 230.94,17.28 230.7,16.62 230.64,16.56 230.521,15.84 230.4,15.18 230.34,15.18 
	230.34,13.8 230.4,13.74 230.521,13.08 230.64,12.36 230.7,12.3 230.94,11.64 230.88,11.58 231.18,10.98 231.54,10.32 231.6,10.32 
	232.021,9.78 233.1,8.7 233.1,8.64 233.7,8.22 234.3,7.86 234.36,7.8 234.96,7.5 235.021,7.56 235.68,7.32 235.68,7.26 236.4,7.14 
	237.061,7.02 237.78,6.96 237.84,7.02 238.5,7.08 238.561,7.02 239.22,7.14 239.94,7.26 240,7.32 240.66,7.56 241.26,7.86 
	241.92,8.22 241.92,8.28 242.46,8.7 243,9.24 "/>
<path d="M238.44,21.36l0.659-0.12v0.06l0.721-0.18l0.66-0.18l-0.061-0.06l0.601-0.3l-0.061,0.06l0.66-0.36l0.54-0.42v0.06
	l1.079-1.08l0.421-0.6h-0.06l0.36-0.6l0.3-0.6l0.061,0.06l0.24-0.66L244.5,16.5l0.12-0.72l0.12-0.66l0.06-0.72v0.06l-0.06-0.66
	l-0.12-0.66l-0.12-0.72l0.061,0.06l-0.24-0.66l-0.061,0.06l-0.3-0.6l-0.36-0.66h0.062l-0.42-0.54l-0.54-0.54l0.3-0.3l0.54,0.54h0.06
	c0.633,0.747,1.5,2.289,1.5,3.3l0.12,0.66v0.06c0.192,0.829-0.2,3.458-0.84,4.14l-0.359,0.6l-0.421,0.6h-0.06l-1.08,1.08l-0.54,0.42
	v0.06l-0.66,0.36l-0.6,0.3l-0.062,0.06l-0.659,0.18l-0.721,0.18l-0.659,0.12"/>
<polyline points="232.92,9.18 232.561,9.54 242.7,19.68 243.061,19.32 "/>
<polyline points="232.561,19.32 232.92,19.68 243.061,9.54 242.7,9.18 "/>
<rect x="225.42" y="14.16" width="4.68" height="0.48"/>
<polyline points="225.78,11.7 225.54,12.12 229.98,14.64 230.22,14.64 230.64,14.4 230.22,14.22 "/>
<polyline points="230.22,14.64 229.98,14.22 225.54,16.8 225.78,17.22 "/>
<rect x="194.64" y="14.16" width="3.96" height="0.48"/>
<rect x="205.44" y="14.16" width="9.12" height="0.48"/>
<rect x="221.4" y="14.16" width="4.021" height="0.48"/>
<rect x="175.021" y="14.16" width="4.681" height="0.48"/>
<polyline points="175.38,11.7 175.14,12.12 179.58,14.64 179.82,14.64 180.24,14.4 179.82,14.22 "/>
<polyline points="179.82,14.64 179.58,14.22 175.14,16.8 175.38,17.22 "/>
<rect x="129.84" y="14.16" width="45.181" height="0.48"/>
<polyline points="176.1,47.22 175.86,47.58 179.7,50.339 179.94,49.98 "/>
<polyline points="177.84,45.419 177.42,45.6 179.58,50.281 179.76,50.4 180.12,50.46 180,50.1 "/>
<polyline points="179.76,50.4 179.82,49.919 174.72,49.38 174.66,49.86 "/>
<polyline points="130.021,14.22 129.72,14.64 175.86,47.64 176.16,47.22 "/>
</svg>
