<?xml version="1.0" encoding="utf-8"?>
<!-- Generator: Adobe Illustrator 16.0.0, SVG Export Plug-In . SVG Version: 6.00 Build 0)  -->
<!DOCTYPE svg PUBLIC "-//W3C//DTD SVG 1.1//EN" "http://www.w3.org/Graphics/SVG/1.1/DTD/svg11.dtd">
<svg version="1.1" id="Layer_1" xmlns="http://www.w3.org/2000/svg" xmlns:xlink="http://www.w3.org/1999/xlink" x="0px" y="0px"
	 width="276.493px" height="80.826px" viewBox="0 0 276.493 80.826" style="enable-background:new 0 0 276.493 80.826;"
	 xml:space="preserve">
	<rect x="54" y="53.16" style="fill:#808080;" width="144" height="1.98"/>
	<text transform="matrix(1 0 0 1 0 8.46)"><tspan x="0" y="0" style="font-family:'ProductusBook'; font-size:7.98;">tem</tspan><tspan x="11.683" y="0" style="font-family:'ProductusBook'; font-size:7.98;">p</tspan><tspan x="15.345" y="0" style="font-family:'ProductusBook'; font-size:7.98;">erat</tspan><tspan x="26.868" y="0" style="font-family:'ProductusBook'; font-size:7.98;">u</tspan><tspan x="30.531" y="0" style="font-family:'ProductusBook'; font-size:7.98;">r</tspan><tspan x="32.805" y="0" style="font-family:'ProductusBook'; font-size:7.98;">e</tspan></text>
	<text transform="matrix(1 0 0 1 188.9995 63.4795)" style="font-family:'ProductusBook'; font-size:7.98;">t</text>
	<rect x="53.04" y="0.12" style="fill:#808080;" width="1.98" height="72"/>
	<polyline points="199.5,62.16 199.5,60 200.16,60.18 205.379,61.68 207.12,62.16 200.16,64.08 199.5,64.26 199.5,63.6 
		199.86,63.12 205.08,61.68 205.379,62.64 205.08,62.64 199.86,61.14 200.16,60.18 200.52,60.66 200.52,62.16 	"/>
	<rect x="199.5" y="62.16" width="1.021" height="1.44"/>
	<polyline style="fill-rule:evenodd;clip-rule:evenodd;" points="199.98,62.16 199.98,60.66 205.2,62.16 199.98,63.6 	"/>
	<rect x="198" y="61.92" width="1.5" height="0.48"/>
	<polyline points="45,7.62 42.84,7.62 43.02,6.96 44.52,1.74 45,0 46.92,6.96 47.1,7.62 46.44,7.62 45.96,7.26 44.52,2.04 
		45.48,1.74 45.48,2.04 43.98,7.26 43.02,6.96 43.5,6.6 45,6.6 	"/>
	<rect x="45" y="6.6" width="1.44" height="1.02"/>
	<polyline style="fill-rule:evenodd;clip-rule:evenodd;" points="45,7.14 43.5,7.14 45,1.92 46.44,7.14 	"/>
	<rect x="44.76" y="7.62" width="0.48" height="1.5"/>
	<path d="M54.18,0.12l-0.12,3V5.7l0.12,2.28l0.18,1.92l0.3,1.68v-0.06l0.36,1.38l0.42,1.14v-0.06l0.54,0.96h-0.06l0.6,0.66v-0.06
		l0.6,0.54h-0.06l0.72,0.42l-0.06-0.06l0.72,0.18l0.78,0.18h-0.06H60c4.263-0.201,8.297-1.764,11.16,2.46h0.06l0.66,1.08v0.06
		l0.6,1.38l0.54,1.56l0.48,1.92v0.06l0.42,2.22v-0.06l0.36,1.74l0.48,1.5l0.6,1.32v-0.06l0.78,1.14h-0.06l0.36,0.48l0.42,0.48
		v-0.06l0.48,0.36l0.42,0.3H77.7l0.48,0.3l0.48,0.24l-0.06-0.06l1.02,0.24h-0.06l1.02,0.06l0.06,0.48h-0.06
		c-1.088,0-2.238-0.151-3.12-0.84l-0.42-0.3v-0.06l-0.48-0.36H76.5l-0.42-0.48l-0.36-0.48l-0.78-1.14v-0.06l-0.6-1.32l-0.06-0.06
		l-0.48-1.5l-0.36-1.74l-0.42-2.22l-0.48-1.92v0.06L72,21.96h0.06l-0.6-1.38L70.8,19.5v0.06l-0.72-0.9h0.06l-0.78-0.72V18
		l-0.78-0.48h0.06l-0.84-0.36l-0.84-0.18h0.06l-0.9-0.12l-0.84-0.06h0.06l-3.6,0.36l-1.68,0.12H59.1l-0.78-0.18l-0.72-0.18h-0.06
		l-0.72-0.42v-0.06l-0.6-0.54h-0.06l-0.6-0.66v-0.06l-0.54-0.96h-0.06l-0.42-1.14v-0.06l-0.36-1.38l-0.3-1.68L53.7,8.04V7.98
		L53.58,5.7V3.12l0.12-3"/>
	<path d="M80.58,35.46l1.08-0.18H81.6l0.54-0.18v0.06l0.54-0.24h-0.06l0.48-0.3l0.54-0.36l0.54-0.48h-0.06l0.48-0.48v0.06
		l0.48-0.54l0.48-0.6l0.9-1.44v0.06l0.84-1.74h-0.06l0.6-1.62l0.66-1.98l1.32-4.44l1.38-4.86l1.38-4.5l0.72-2.04h0.06l0.72-1.68
		V7.92c0.577-0.812,0.841-2.115,1.8-2.64l0.48-0.24h0.36l0.48,0.24h0.06l0.36,0.3v0.06l0.36,0.48h0.06l0.36,0.66v0.06l0.3,0.84
		l1.02,3l0.96,3.18l0.96,3.36l0.84,3.36l1.62,6.66l1.38,6.24l1.2,5.22l0.48,2.04l0.48,1.62l0.42,1.14v-0.06l0.18,0.36h-0.06
		l0.18,0.24l-0.06-0.06l-0.24,0.42L108,44.34l-0.18-0.24v-0.06l-0.18-0.36h-0.06l-0.42-1.14v-0.06l-0.48-1.62l-0.48-2.04L105,33.6
		l-1.38-6.24L102,20.7l-0.84-3.36l-0.96-3.36l-0.96-3.18v0.06l-1.02-3l-0.3-0.84h0.06l-0.36-0.66v0.06l-0.36-0.48h0.06l-0.36-0.3
		V5.7L96.6,5.52h0.12h-0.36h0.12L96.12,5.7l-0.36,0.24l0.12-0.06l-0.3,0.42V6.24l-0.36,0.54L94.5,8.16l-0.72,1.68l-0.72,2.04
		v-0.06l-1.38,4.5l-1.38,4.86c-1.195,3.659-2.03,8.182-4.38,11.34l-0.48,0.6l-0.48,0.54c-0.868,0.94-1.926,1.763-3.18,2.1h-0.06
		l-1.08,0.18"/>
	<polyline points="108.3,43.98 108.42,44.04 108.12,44.04 108.24,43.92 108.24,43.98 108.42,43.74 108.36,43.86 108.42,43.38 
		108.42,43.32 109.08,40.5 109.92,37.86 109.98,37.86 110.94,35.46 112.02,33.18 112.02,33.12 113.16,31.02 114.42,29.16 
		115.68,27.48 117,26.04 117,25.98 118.26,24.78 118.32,24.78 119.58,23.76 120.78,23.04 120.84,22.98 121.98,22.56 121.98,22.62 
		122.46,22.44 122.52,22.38 123,22.32 123.48,22.32 123.9,22.44 123.96,22.44 124.32,22.56 124.32,22.62 124.68,22.86 
		124.74,22.92 124.98,23.22 125.04,23.22 125.28,23.58 125.28,23.64 129.6,32.7 129.6,32.64 130.74,34.92 131.94,37.02 133.08,39 
		134.16,40.62 134.1,40.62 134.64,41.34 135.18,42 135.18,41.94 135.72,42.48 136.2,42.9 136.14,42.9 136.62,43.2 137.1,43.38 
		136.98,43.32 137.46,43.32 137.88,43.26 137.76,43.32 138.12,43.08 138.06,43.08 138.42,42.72 138.42,42.78 138.78,42.18 
		138.78,42.24 139.08,41.52 139.02,41.52 139.5,41.7 139.2,42.42 138.84,43.02 138.42,43.44 138.36,43.5 138,43.74 137.94,43.74 
		137.52,43.8 136.92,43.8 136.44,43.62 136.38,43.62 135.9,43.32 135.9,43.26 135.42,42.84 135.36,42.84 134.82,42.3 
		134.28,41.64 133.74,40.92 133.74,40.86 132.66,39.24 131.52,37.26 130.32,35.16 129.18,32.88 124.86,23.82 124.62,23.46 
		124.62,23.52 124.38,23.22 124.44,23.28 124.08,23.04 124.14,23.04 123.78,22.92 123.36,22.8 123.42,22.8 123,22.8 123.06,22.8 
		122.58,22.86 122.64,22.86 122.16,23.04 121.02,23.46 119.82,24.18 119.88,24.12 118.62,25.14 117.36,26.34 116.04,27.78 
		114.78,29.46 114.84,29.4 113.58,31.26 112.44,33.36 111.36,35.64 110.4,38.04 110.4,37.98 109.56,40.62 108.9,43.44 
		108.84,43.92 108.78,44.04 108.6,44.28 108.48,44.4 108.18,44.46 108.06,44.4 	"/>
	<path d="M139.02,41.52l0.3-0.9l0.24-1.08v0.06l0.24-1.32c0.328-3.097,0.581-5.254,1.5-8.28l0.66-1.8h0.06l0.72-1.68v-0.06
		l0.84-1.38l0.84-1.14l0.42-0.48l0.06-0.06l0.42-0.36l0.48-0.36l0.42-0.24h0.06l0.42-0.18V22.2l0.42-0.12
		c0.833-0.082,0.187-0.082,1.021,0l0.359,0.12v0.06l0.36,0.24h0.06l0.36,0.3l0.42,0.42l0.3,0.48l0.3,0.54v0.06l0.24,0.66
		l0.24,0.72l0.36,1.8v0.06l0.3,1.98v-0.06l0.42,2.04c0.814,3.365,1.766,6.707,3.12,9.9l0.78,1.68v-0.06l0.779,1.5l0.84,1.26h-0.06
		l0.84,1.02v-0.06l0.42,0.42l0.42,0.36h-0.06l-0.24,0.42v-0.06c-1.896-1.355-3.222-4.251-4.14-6.3l-0.721-1.8h-0.06l-0.66-1.92
		V37.8l-0.66-2.04l-0.54-2.04l-0.54-2.1l-0.42-2.04l-0.3-1.98l-0.36-1.8v0.06l-0.239-0.72l-0.24-0.66h0.06l-0.3-0.54l-0.3-0.48
		v0.06l-0.36-0.36h0.061l-0.36-0.3v0.06l-0.359-0.24h0.06l-0.36-0.12h0.061l-0.42-0.06h0.06l-0.42,0.06l-0.42,0.12h0.06
		l-0.42,0.18l-0.42,0.24l0.06-0.06l-0.48,0.36l-0.42,0.36l-0.42,0.48l-0.84,1.14l0.06-0.06l-0.84,1.38l-0.72,1.68l-0.66,1.8v-0.06
		l-0.54,2.04l-0.48,2.28l-0.3,2.4l-0.18,1.5l-0.24,1.32l-0.24,1.08v0.06l-0.3,0.9"/>
	<path d="M158.94,47.52l0.42,0.24l0.42,0.18l-0.06-0.06l0.42,0.12h-0.061h0.36h-0.061l0.42-0.12v0.06l0.421-0.18h-0.061l0.36-0.3
		h-0.061l0.42-0.42c0.523-0.581,1.064-0.79,1.86-0.72l0.36,0.12v0.06l0.42,0.24h0.06l0.36,0.36l0.42,0.36v0.06l0.78,1.02
		l0.779,1.08h0.061l1.56,2.34h-0.06l0.78,0.96v-0.06l0.72,0.72h-0.061l0.42,0.24v-0.06l0.36,0.12h-0.06L171,53.94h-0.12l0.36-0.12
		l-0.06,0.06l0.42-0.24h-0.061l0.36-0.36v0.06l0.36-0.54l0.359-0.72v0.06l0.36-0.9h-0.061l0.36-1.14
		c2.468-11.177,4.839-22.2,8.34-33.12l1.561-4.68h0.06l0.84-2.16l0.84-1.98l0.42,0.18l-0.84,1.98l-0.84,2.16l-1.56,4.68V17.1
		l-1.561,5.1l-1.439,5.28l-1.38,5.34l-1.261,5.22l-2.04,9.36l-0.659,2.82l-0.36,1.14v0.06l-0.36,0.9l-0.359,0.72l-0.36,0.54
		l-0.48,0.48l-0.42,0.24l-0.359,0.12h-0.12l-0.36-0.06h-0.06l-0.36-0.12h-0.06L169.68,54l-0.78-0.78l-0.78-0.96V52.2l-1.56-2.34
		v0.06l-0.78-1.08L165,47.82h0.061l-0.42-0.36h-0.061l-0.359-0.36l0.06,0.06l-0.42-0.24h0.06l-0.359-0.12h0.06h-0.42h0.061
		l-0.36,0.06h0.06l-0.42,0.24l0.061-0.06l-0.78,0.78l-0.36,0.3l-0.06,0.06l-0.42,0.18h-0.061l-0.42,0.12h-0.479l-0.42-0.12
		l-0.42-0.18h-0.061l-0.42-0.24"/>
	<path d="M184.919,8.16l0.841-1.86V6.24l0.84-1.56l0.84-1.38l0.84-1.14l0.42-0.48V1.62l0.42-0.42h0.061l0.42-0.3l0.42-0.24h0.06
		l0.42-0.18V0.42l0.42-0.12c3.629-0.357,5.24,6.718,5.88,8.82l0.721,3l-0.48,0.12l-0.72-3l-0.72-2.52l0.06,0.06l-0.78-2.04
		L194.1,3.12v0.06l-0.42-0.6V2.52l-0.36-0.6v0.06l-0.42-0.42h0.06l-0.42-0.36v0.06l-0.42-0.24h0.061l-0.42-0.18h0.06l-0.42-0.06
		h-0.42h0.06l-0.42,0.12h0.061l-0.42,0.18l-0.421,0.24h0.061l-0.42,0.3V1.56l-0.42,0.42l-0.42,0.48l-0.841,1.14l0.061-0.06
		l-0.84,1.38l-0.84,1.56l-0.841,1.86"/>
	<polyline points="197.52,12.12 197.04,12.24 197.76,15.72 198.24,15.6 	"/>
	<rect x="107.76" y="18.12" width="0.48" height="54"/>
	<rect x="134.76" y="18.12" width="0.48" height="54"/>
	<polyline points="119.22,63.12 119.22,66.36 118.56,66.18 109.62,63.6 107.94,63.12 109.62,62.64 118.56,60.06 119.22,59.88 
		119.22,60.54 118.86,61.02 109.92,63.6 109.62,62.64 109.92,62.64 118.86,65.22 118.56,66.18 118.2,65.7 118.2,63.12 	"/>
	<rect x="118.2" y="60.54" width="1.02" height="2.58"/>
	<polyline style="fill-rule:evenodd;clip-rule:evenodd;" points="118.74,63.12 118.74,65.7 109.8,63.12 118.74,60.54 	"/>
	<polyline points="123.78,63.12 123.78,59.88 124.44,60.06 133.38,62.64 135.06,63.12 133.38,63.6 124.44,66.18 123.78,66.36 
		123.78,65.7 124.14,65.22 133.08,62.64 133.38,63.6 133.08,63.6 124.14,61.02 124.44,60.06 124.8,60.54 124.8,63.12 	"/>
	<rect x="123.78" y="63.12" width="1.02" height="2.58"/>
	<polyline style="fill-rule:evenodd;clip-rule:evenodd;" points="124.26,63.12 124.26,60.54 133.2,63.12 124.26,65.7 	"/>
	<rect x="119.22" y="62.88" width="4.5" height="0.48"/>
	<text transform="matrix(1 0 0 1 109.3198 78.48)"><tspan x="0" y="0" style="font-family:'ProductusBook'; font-size:7.98;">el</tspan><tspan x="5.067" y="0" style="font-family:'ProductusBook'; font-size:7.98;">a</tspan><tspan x="8.427" y="0" style="font-family:'ProductusBook'; font-size:7.98;">p</tspan><tspan x="12.089" y="0" style="font-family:'ProductusBook'; font-size:7.98;">s</tspan><tspan x="14.906" y="0" style="font-family:'ProductusBook'; font-size:7.98;">e</tspan><tspan x="18.441" y="0" style="font-family:'ProductusBook'; font-size:7.98;">d</tspan></text>
	<text transform="matrix(1 0 0 1 106.5596 16.0195)" style="font-family:'ProductusBook'; font-size:7.98;">n</text>
	<text transform="matrix(1 0 0 1 127.2598 15.2998)"><tspan x="0" y="0" style="font-family:'ProductusBook'; font-size:7.98;">n</tspan><tspan x="3.663" y="0" style="font-family:'ProductusBook'; font-size:7.98;"> </tspan><tspan x="5.283" y="0" style="font-family:'ProductusBook'; font-size:7.98;">+</tspan><tspan x="9.185" y="0" style="font-family:'ProductusBook'; font-size:7.98;"> </tspan><tspan x="10.797" y="0" style="font-family:'ProductusBook'; font-size:7.98;">1</tspan></text>
	<rect x="161.76" y="18.12" width="0.479" height="54"/>
	<rect x="80.76" y="18.12" width="0.48" height="54"/>
	<rect x="246.959" y="29.1" width="0.48" height="18"/>
	<text transform="matrix(1 0 0 1 256.1997 35.46)"><tspan x="0" y="0" style="font-family:'ProductusBook'; font-size:7.98;">u</tspan><tspan x="3.703" y="0" style="font-family:'ProductusBook'; font-size:7.98;">p</tspan><tspan x="7.365" y="0" style="font-family:'ProductusBook'; font-size:7.98;">d</tspan><tspan x="11.084" y="0" style="font-family:'ProductusBook'; font-size:7.98;">a</tspan><tspan x="14.388" y="0" style="font-family:'ProductusBook'; font-size:7.98;">t</tspan><tspan x="16.79" y="0" style="font-family:'ProductusBook'; font-size:7.98;">e</tspan></text>
</svg>
