<?xml version="1.0" encoding="utf-8"?>
<!-- Generator: Adobe Illustrator 16.0.0, SVG Export Plug-In . SVG Version: 6.00 Build 0)  -->
<!DOCTYPE svg PUBLIC "-//W3C//DTD SVG 1.1//EN" "http://www.w3.org/Graphics/SVG/1.1/DTD/svg11.dtd">
<svg version="1.1" id="Layer_1" xmlns="http://www.w3.org/2000/svg" xmlns:xlink="http://www.w3.org/1999/xlink" x="0px" y="0px"
	 width="313.398px" height="80.748px" viewBox="0 0 313.398 80.748" style="enable-background:new 0 0 313.398 80.748;"
	 xml:space="preserve">
	<rect x="170.76" y="8.748" width="0.479" height="72"/>
	<rect x="188.76" y="8.748" width="0.479" height="72"/>
	<rect x="134.76" y="8.748" width="0.48" height="72"/>
	<rect x="171" y="17.748" style="fill:#E6E6E6;" width="18" height="24"/>
	<rect x="135" y="29.748" style="fill:#E6E6E6;" width="36" height="15"/>
	<rect x="54" y="61.788" style="fill:#808080;" width="144" height="1.98"/>
	<text transform="matrix(1 0 0 1 0 17.0874)"><tspan x="0" y="0" style="font-family:'ProductusBook'; font-size:7.98;">t</tspan><tspan x="2.402" y="0" style="font-family:'ProductusBook'; font-size:7.98;">e</tspan><tspan x="5.889" y="0" style="font-family:'ProductusBook'; font-size:7.98;">mpe</tspan><tspan x="18.912" y="0" style="font-family:'ProductusBook'; font-size:7.98;">r</tspan><tspan x="21.139" y="0" style="font-family:'ProductusBook'; font-size:7.98;">a</tspan><tspan x="24.474" y="0" style="font-family:'ProductusBook'; font-size:7.98;">t</tspan><tspan x="26.82" y="0" style="font-family:'ProductusBook'; font-size:7.98;">ur</tspan><tspan x="32.813" y="0" style="font-family:'ProductusBook'; font-size:7.98;">e</tspan></text>
	<text transform="matrix(1 0 0 1 196.1401 72.1069)" style="font-family:'ProductusBook'; font-size:7.98;">t</text>
	<rect x="53.04" y="8.748" style="fill:#808080;" width="1.98" height="72"/>
	<polyline points="206.7,70.788 206.7,68.627 207.36,68.808 212.52,70.308 214.26,70.788 212.52,71.268 207.36,72.708 
		206.7,72.887 206.7,72.228 207.06,71.748 212.22,70.308 212.52,71.268 212.22,71.268 207.06,69.768 207.36,68.808 207.72,69.288 
		207.72,70.788 	"/>
	<rect x="206.7" y="70.788" width="1.021" height="1.44"/>
	<polyline style="fill-rule:evenodd;clip-rule:evenodd;" points="207.18,70.788 207.18,69.288 212.34,70.788 207.18,72.228 	"/>
	<rect x="205.14" y="70.547" width="1.5" height="0.48"/>
	<polyline points="45,16.248 42.9,16.248 43.08,15.587 44.52,10.368 45,8.688 45.48,10.368 46.98,15.587 47.16,16.248 
		46.5,16.248 46.02,15.887 44.52,10.667 45.48,10.368 45.48,10.667 44.04,15.887 43.08,15.587 43.56,15.228 45,15.228 	"/>
	<rect x="45" y="15.228" width="1.5" height="1.02"/>
	<polyline style="fill-rule:evenodd;clip-rule:evenodd;" points="45,15.768 43.56,15.768 45,10.547 46.5,15.768 	"/>
	<rect x="44.76" y="16.248" width="0.48" height="1.5"/>
	<text transform="matrix(1 0 0 1 108.8999 6.6475)"><tspan x="0" y="0" style="font-family:'ProductusBook'; font-size:7.98;">n</tspan><tspan x="3.663" y="0" style="font-family:'ProductusBook'; font-size:7.98;"> </tspan><tspan x="5.283" y="0" style="font-family:'ProductusBook'; font-size:7.98;">+</tspan><tspan x="9.185" y="0" style="font-family:'ProductusBook'; font-size:7.98;"> </tspan><tspan x="10.805" y="0" style="font-family:'ProductusBook'; font-size:7.98;">1</tspan></text>
	<rect x="98.76" y="8.748" width="0.48" height="72"/>
	<text transform="matrix(1 0 0 1 97.02 6.6475)" style="font-family:'ProductusBook'; font-size:7.98;">n</text>
	<rect x="54" y="39.768" style="fill:#E6E6E6;" width="45" height="9.96"/>
	<rect x="116.76" y="8.748" width="0.48" height="72"/>
	<rect x="99" y="26.748" style="fill:#E6E6E6;" width="18" height="18"/>
	<rect x="117" y="14.748" style="fill:#E6E6E6;" width="18" height="24"/>
	<rect x="189" y="35.748" style="fill:#E6E6E6;" width="9" height="9"/>
	<polyline points="54.12,44.567 53.94,44.447 53.7,44.868 53.88,44.987 	"/>
	<path d="M54.12,44.567l1.2,0.78l1.14,0.6l1.14,0.54v-0.06l1.08,0.36h-0.06l1.08,0.24l1.02,0.18h-0.06l1.02,0.06h0.96l0.96-0.12
		h-0.06l0.9-0.18l0.9-0.24l0.9-0.3v0.06l1.62-0.72H67.8l1.5-0.9l1.38-0.9l1.26-0.96l2.22-1.56l0.9-0.54h0.06l0.42-0.18v-0.06
		l0.36-0.12h0.48l0.3,0.06l0.06,0.06l0.3,0.18h0.06l0.24,0.24v0.06l0.54,0.66v-0.06l0.6,0.54l0.66,0.54h-0.06l1.44,0.84l0.84,0.36
		l-0.06-0.06l0.84,0.24l0.9,0.24l1.8,0.3h-0.06l1.92,0.06l1.98-0.06h-0.06l1.86-0.36l1.86-0.479v0.06l1.68-0.72h-0.06l1.56-0.84
		l0.3,0.36l-0.06,0.06c-4.761,2.87-11.232,3.475-16.2,0.84l-0.72-0.42v-0.06l-0.66-0.54l-0.6-0.54h-0.06l-0.54-0.66l-0.24-0.24
		l0.06,0.06l-0.3-0.18h0.06l-0.3-0.06h0.06h-0.36h0.12l-0.36,0.12l-0.42,0.18l-0.9,0.54h0.06l-2.22,1.56v-0.06l-1.26,0.96
		c-5.177,3.806-10.229,4.671-15.9,1.44l-1.2-0.78"/>
	<path d="M95.52,42.408l0.66-0.48l0.66-0.6h-0.06l0.54-0.54v0.06l0.48-0.66l0.42-0.66v0.06l0.3-0.72h-0.06l0.24-0.72v0.06
		l0.12-0.78l0.06-0.84v0.06l-0.12-0.84l-0.06-0.84v-0.3l0.12-0.24l0.06-0.06l0.12-0.06h0.24l0.12,0.06l0.06,0.06l0.36,0.42h0.06
		l1.08,1.62l1.38,2.28l1.56,2.52h-0.06l0.84,1.14l0.78,0.96v-0.06l0.78,0.78l0.36,0.3h-0.06l0.36,0.24v-0.06l0.36,0.12h-0.06
		l0.3,0.06h-0.06l0.36-0.06l-0.12,0.06l0.24-0.18l0.78-0.66l0.72-0.66l-0.06,0.06l0.6-0.66l0.6-0.72l0.54-0.72l0.48-0.78
		l0.84-1.62v0.06l0.78-1.8h-0.06l0.6-1.86l1.2-4.38l0.24-0.72h0.06l0.3-0.78v-0.06l0.72-1.44l0.42,0.24l-0.72,1.44l-0.3,0.78
		l-0.24,0.72v-0.06l-1.2,4.38l-0.6,1.86v0.06l-0.78,1.8l-0.84,1.62l-0.48,0.78l-0.06,0.06l-0.54,0.72l-0.6,0.72l-0.6,0.66
		l-0.72,0.66c-0.976,0.758-1.058,1.252-2.28,0.78h-0.06l-0.36-0.24v-0.06c-2.451-1.807-4.134-5.596-5.76-8.04l-1.08-1.62v0.06
		l-0.36-0.42l0.06,0.06L99,34.728h0.24l-0.12,0.06l0.12-0.12l-0.06,0.12v-0.12v0.24c0.523,3.228-0.185,5.238-2.7,7.38l-0.66,0.48"
		/>
	<path d="M116.22,27.828l0.9-1.44c2.406-3.159,6.146-6.552,10.44-6.06l0.54,0.18v0.06l0.54,0.24
		c0.614,0.294,1.093,0.732,1.44,1.32h0.06l0.36,0.6v0.06l0.3,0.72l0.24,0.84l0.18,0.9v0.06l0.12,1.08l0.24,2.58l0.24,2.1l0.3,1.62
		v-0.06l0.36,1.2v-0.06l0.42,0.84h-0.06l0.24,0.3v-0.06l0.24,0.24l0.24,0.18h-0.06l0.3,0.12l-0.06-0.06l0.66,0.12h-0.06l0.72-0.06
		l0.9-0.12l2.1-0.36l1.26-0.06h1.44l1.56,0.24l1.74,0.42h0.06l1.62,0.54v0.06l1.32,0.54l1.14,0.6l-0.24,0.42l-1.14-0.6h0.06
		l-1.32-0.54l-1.62-0.54l-1.74-0.42h0.06l-1.56-0.24h-1.38l-1.26,0.06h0.06l-2.1,0.36l-0.9,0.12l-0.72,0.06h-0.06l-0.66-0.12
		h-0.06l-0.3-0.12l-0.06-0.06l-0.24-0.18h-0.06l-0.24-0.24l-0.24-0.3v-0.06l-0.42-0.84l-0.06-0.06l-0.36-1.2l-0.3-1.62l-0.24-2.1
		l-0.24-2.58l-0.12-1.08l-0.18-0.9l-0.24-0.84l0.06,0.06l-0.3-0.72l-0.36-0.6v0.06l-0.42-0.54h0.06l-0.48-0.42v0.06l-0.48-0.3
		h0.06l-0.54-0.24l-0.54-0.18h0.06l-0.6-0.06h-0.6h0.06l-0.66,0.06l-0.66,0.18h0.06l-1.38,0.48l-1.32,0.72l-1.38,0.9l0.06-0.06
		l-1.26,1.08l-1.2,1.26l-1.08,1.32l0.06-0.06l-0.9,1.44"/>
	<path d="M148.2,37.248l0.96,0.48l2.22,1.44l0.3,0.18l-0.18-0.06l0.18-0.06l-0.06,0.06l0.18-0.12l-0.06,0.06l0.18-0.3l-0.06,0.06
		l0.9-3.3l0.36-1.08h0.06l0.36-0.96v-0.06l0.36-0.72l0.42-0.6l0.42-0.48l0.06-0.06l0.42-0.3h0.06l0.42-0.18v-0.06l0.48-0.12
		c1.712,0.078,3.101,1.279,4.439,2.22l2.4,1.86h-0.06l1.26,0.84l0.66,0.36l0.659,0.3l-0.06-0.06l1.32,0.36h-0.061h1.38h-0.06
		l0.72-0.18v0.06l0.72-0.3h-0.06l0.72-0.42l0.721-0.54l0.54-0.48l-0.061,0.06l0.42-0.54l0.42-0.6l0.36-0.66v0.06l0.66-1.44h-0.061
		l0.54-1.56l0.42-1.62l0.36-1.68v0.06l0.48,0.06l-0.36,1.68l-0.42,1.62v0.06l-0.54,1.56l-0.66,1.44l-0.36,0.66v0.06l-0.42,0.6
		h-0.06c-2.188,2.771-5.149,3.302-8.16,1.5l-1.26-0.84v-0.06l-2.4-1.86l-1.14-0.84v0.06l-1.08-0.72h0.06l-0.54-0.24l-0.479-0.18
		l-0.48-0.12h0.061l-0.48-0.06h0.06l-0.48,0.12h0.06l-0.42,0.18h0.06l-0.42,0.3v-0.06l-0.42,0.48h0.06l-0.42,0.6v-0.06l-0.36,0.72
		l-0.36,0.96l-0.36,1.08v-0.06l-0.9,3.3v0.06l-0.18,0.3l-0.12,0.12l-0.18,0.12l-0.18,0.06h-0.24l-0.3-0.18l-2.22-1.44l-0.96-0.48"
		/>
	<path d="M174.48,27.167l0.6-3.18l0.48-2.64v-0.06l0.3-0.96l0.061-0.06l0.359-0.72l0.061-0.06l0.239-0.18l0.24-0.12l0.061-0.06
		l0.239-0.06c0.763,0.25,1.158,0.498,1.561,1.2l0.42,0.54h0.06l3.721,5.46l3.42,5.16l3.12,4.8l2.76,4.26l0.54,0.84h-0.061
		l0.54,0.72l0.54,0.6v-0.06l0.601,0.6l0.6,0.48l0.54,0.42h-0.06l1.199,0.72l1.141,0.48l-0.061-0.06l1.141,0.36
		c3.625,0.978,6.712,1.492,7.8,5.46l0.24,0.78l-0.48,0.12l-0.24-0.78v0.06l-0.239-0.72h0.06l-0.3-0.66l-0.36-0.54l-0.3-0.48v0.06
		l-0.78-0.78l0.061,0.06l-0.48-0.3l-0.899-0.48h0.06l-0.96-0.42l-1.08-0.3l-2.22-0.6l-1.141-0.36l-1.14-0.48h-0.06l-1.2-0.72
		v-0.06l-0.54-0.42l-0.601-0.48h-0.06l-0.6-0.6l-0.54-0.6l-0.54-0.72v-0.06l-0.54-0.84L189,36.467l-3.119-4.8l-3.42-5.16v0.06
		l-3.721-5.46l-0.42-0.54l-0.359-0.48h0.06l-0.36-0.3v0.06l-0.3-0.18h0.061l-0.301-0.12h0.12l-0.24,0.06h0.061l-0.24,0.12
		l0.061-0.06l-0.24,0.18l0.06-0.06l-0.359,0.72v-0.06l-0.301,0.96l-0.479,2.64l-0.6,3.18"/>
	<polyline points="207.24,53.688 207.3,53.927 206.82,54.047 206.76,53.808 	"/>
	<polyline points="206.88,51.828 206.4,51.948 206.76,53.808 207.24,53.688 	"/>
	<rect x="243" y="26.748" style="fill:#E6E6E6;" width="9" height="18"/>
	<text transform="matrix(1 0 0 1 260.1001 37.4272)"><tspan x="0" y="0" style="font-family:'ProductusBook'; font-size:7.98;">relati</tspan><tspan x="14.587" y="0" style="font-family:'ProductusBook'; font-size:7.98;">v</tspan><tspan x="17.707" y="0" style="font-family:'ProductusBook'; font-size:7.98;">e</tspan><tspan x="21.194" y="0" style="font-family:'ProductusBook'; font-size:7.98;"> </tspan><tspan x="22.807" y="0" style="font-family:'ProductusBook'; font-size:7.98;">delta</tspan><tspan x="37.258" y="0" style="font-family:'ProductusBook'; font-size:7.98;"> </tspan><tspan x="38.87" y="0" style="font-family:'ProductusBook'; font-size:7.98;">ba</tspan><tspan x="45.884" y="0" style="font-family:'ProductusBook'; font-size:7.98;">n</tspan><tspan x="49.603" y="0" style="font-family:'ProductusBook'; font-size:7.98;">d</tspan></text>
	<rect x="251.76" y="53.748" width="0.479" height="18"/>
	<text transform="matrix(1 0 0 1 260.9995 60.1074)"><tspan x="0" y="0" style="font-family:'ProductusBook'; font-size:7.98;">u</tspan><tspan x="3.703" y="0" style="font-family:'ProductusBook'; font-size:7.98;">p</tspan><tspan x="7.365" y="0" style="font-family:'ProductusBook'; font-size:7.98;">d</tspan><tspan x="11.084" y="0" style="font-family:'ProductusBook'; font-size:7.98;">a</tspan><tspan x="14.388" y="0" style="font-family:'ProductusBook'; font-size:7.98;">t</tspan><tspan x="16.79" y="0" style="font-family:'ProductusBook'; font-size:7.98;">e</tspan></text>
</svg>
