<?xml version="1.0" encoding="utf-8"?>
<!-- Generator: Adobe Illustrator 16.0.0, SVG Export Plug-In . SVG Version: 6.00 Build 0)  -->
<!DOCTYPE svg PUBLIC "-//W3C//DTD SVG 1.1//EN" "http://www.w3.org/Graphics/SVG/1.1/DTD/svg11.dtd">
<svg version="1.1" id="Layer_1" xmlns="http://www.w3.org/2000/svg" xmlns:xlink="http://www.w3.org/1999/xlink" x="0px" y="0px"
	 width="324.237px" height="144.122px" viewBox="0 0 324.237 144.122" style="enable-background:new 0 0 324.237 144.122;"
	 xml:space="preserve">
	<rect x="115.437" y="7.442" style="fill:#E6E6E6;" width="151.2" height="86.4"/>
	<rect x="43.197" y="15.122" width="0.48" height="4.68"/>
	<polyline points="40.677,19.442 41.097,19.682 43.677,15.242 43.677,15.002 43.437,14.582 43.257,15.002 	"/>
	<polyline points="43.677,15.002 43.257,15.242 45.837,19.682 46.257,19.442 	"/>
	<rect x="43.197" y="19.802" width="0.48" height="4.02"/>
	<rect x="43.197" y="30.662" width="0.48" height="9.12"/>
	<rect x="43.197" y="46.622" width="0.48" height="4.02"/>
	<polyline style="fill-rule:evenodd;clip-rule:evenodd;" points="173.038,14.642 173.038,29.042 216.237,21.842 	"/>
	<polyline points="173.277,14.642 173.277,29.042 173.097,29.282 173.038,28.802 216.237,21.602 216.237,22.082 216.297,21.602 
		216.297,22.082 173.097,29.282 172.797,29.342 172.797,14.642 	"/>
	<polyline points="216.237,22.082 173.038,14.882 172.797,14.642 172.797,14.342 173.097,14.402 216.297,21.602 	"/>
	<path style="fill-rule:evenodd;clip-rule:evenodd;fill:#FFFFFF;" d="M86.637,50.642l-0.06-1.14l-0.18-1.08l-0.24-1.08
		c-4.62-13.231-26.673-17.73-38.28-18.24l-4.44-0.06l-4.44,0.06c-11.426,0.42-35.184,5.315-38.52,19.32l-0.18,1.08l-0.06,1.14
		l0.06,1.08l0.18,1.08c2.841,12.761,23.686,18.071,34.26,18.96l4.26,0.36l4.44,0.12c12.19,0.244,37.833-4.062,42.72-18.36
		l0.24-1.08l0.18-1.08L86.637,50.642"/>
	<path d="M86.397,50.642l-0.06-1.14v0.06l-0.18-1.08l-0.24-1.08l0.06,0.06l-0.42-1.08l-0.48-1.02l-0.54-1.02v0.06l-0.72-1.02
		l-0.78-1.02l-0.84-0.9l-0.96-0.96h0.06l-1.02-0.9l-1.14-0.9v0.06l-1.2-0.84l-1.26-0.78l-1.38-0.78l-1.44-0.78h0.06l-1.5-0.72
		l-1.56-0.66l-1.62-0.66l-1.68-0.6l-3.6-1.08l-3.78-0.9h0.06l-3.96-0.72l-4.14-0.54l-4.26-0.36l-4.44-0.06l-4.44,0.06h0.06
		l-4.26,0.36l-4.14,0.54l-3.96,0.72l-3.78,0.9l-3.54,1.08h0.06l-1.74,0.6c-2.734,1.055-4.981,2.096-7.5,3.6l-1.26,0.78h0.06
		l-1.2,0.84v-0.06l-1.14,0.9l-0.3-0.36l1.14-0.9c2.592-1.872,5.442-3.364,8.4-4.56l1.62-0.66v-0.06l1.74-0.6l3.54-1.08
		c5.286-1.405,10.747-2.174,16.2-2.52l4.44-0.06l4.44,0.06c6.707,0.414,13.411,1.474,19.8,3.6h0.06l1.68,0.6v0.06l1.62,0.66
		c4.962,2.106,9.952,4.837,13.14,9.3h0.06l0.72,1.02c1.035,1.957,1.598,3.154,1.86,5.4l0.06,1.14"/>
	<path d="M6.657,39.602l-1.02,0.9l-0.96,0.96l-0.84,0.9l-0.78,1.02h0.06l-0.72,1.02v-0.06l-0.54,1.02l-0.48,1.02l-0.42,1.08v-0.06
		l-0.24,1.08l-0.18,1.08v-0.06l-0.06,1.14l0.06,1.08l0.18,1.08v-0.06l0.24,1.08l0.42,1.08l0.48,1.08v-0.06l0.54,1.02h-0.06
		l0.72,0.96l0.78,1.02l0.84,0.96v-0.06l0.96,0.9l1.02,0.9l1.14,0.9l1.2,0.84h-0.06l1.26,0.84l1.38,0.78l1.44,0.72l1.5,0.72
		l1.56,0.66l1.62,0.66v-0.06l1.74,0.6h-0.06l3.54,1.08l3.78,0.9l3.96,0.72l4.14,0.54l4.26,0.36h-0.06l4.44,0.12l4.44-0.12
		l4.26-0.36l4.14-0.54l3.96-0.72h-0.06l0.12,0.48l-3.96,0.72c-14.566,2.441-34.91,0.641-47.64-7.68l-1.2-0.84v-0.06l-1.14-0.9
		l-1.02-0.9l-0.96-0.9h-0.06l-0.84-0.96l-0.78-1.021l-0.72-0.96v-0.06l-0.54-1.02l-0.48-1.08c-0.931-1.874-1.208-4.63-0.72-6.66
		v-0.06l0.24-1.08h0.06l0.42-1.08l0.48-1.02v-0.06l0.54-1.02l0.72-1.02l0.78-1.02l0.84-0.9v-0.06l0.96-0.96h0.06l1.02-0.9"/>
	<path d="M60.177,70.262l3.78-0.9l3.6-1.08l1.68-0.6v0.06l1.62-0.66l1.56-0.66l1.5-0.72h-0.06l1.44-0.72
		c2.046-1.091,4.3-2.678,6-4.26l0.96-0.9l-0.06,0.06l0.84-0.96l0.78-1.02l0.72-0.96l0.54-1.02v0.06l0.48-1.08l0.42-1.08h-0.06
		l0.24-1.08v0.06l0.18-1.08l0.06-1.08h0.48l-0.06,1.08c-0.397,4.698-3.767,8.451-7.38,11.16v0.06l-1.2,0.84h-0.06l-1.26,0.84
		l-1.38,0.78l-1.44,0.72l-1.5,0.72l-1.56,0.66l-1.62,0.66l-1.68,0.6h-0.06l-3.6,1.08l-3.78,0.9"/>
	<rect x="45.057" y="73.502" width="0.48" height="4.68"/>
	<polyline points="42.537,77.822 42.957,78.062 45.537,73.622 45.537,73.382 45.297,72.962 45.117,73.382 	"/>
	<polyline points="45.537,73.382 45.117,73.622 47.697,78.062 48.117,77.822 	"/>
	<rect x="45.057" y="83.162" width="0.48" height="4.021"/>
	<rect x="45.057" y="78.182" width="0.48" height="4.02"/>
	<rect x="122.637" y="36.242" width="36" height="28.8"/>
	<rect x="122.637" y="36.002" width="36.24" height="0.48"/>
	<rect x="158.397" y="36.242" width="0.48" height="29.04"/>
	<rect x="122.397" y="64.802" width="36.24" height="0.48"/>
	<rect x="122.397" y="36.002" width="0.48" height="29.04"/>
	<rect x="87.117" y="50.402" width="4.74" height="0.48"/>
	<polyline points="91.497,53.342 91.737,52.922 87.237,50.402 86.997,50.402 86.577,50.642 86.997,50.822 	"/>
	<polyline points="86.997,50.402 87.237,50.822 91.737,48.242 91.497,47.822 	"/>
	<rect x="117.417" y="50.402" width="4.74" height="0.48"/>
	<polyline points="117.837,47.882 117.597,48.302 122.037,50.882 122.277,50.882 122.577,50.702 122.277,50.462 	"/>
	<polyline points="122.277,50.882 122.037,50.462 117.597,52.982 117.837,53.402 	"/>
	<rect x="91.857" y="50.402" width="3.96" height="0.48"/>
	<rect x="101.097" y="50.402" width="7.08" height="0.48"/>
	<rect x="113.457" y="50.402" width="3.96" height="0.48"/>
	<path style="fill-rule:evenodd;clip-rule:evenodd;fill:#FFFFFF;" d="M48.537,2.342l-0.54-0.48l-0.6-0.48
		c-7.077-4.263-14.533,4.011-9.54,10.56l0.48,0.54l0.54,0.54c6.706,5.027,14.917-2.692,10.56-9.54l-0.42-0.6L48.537,2.342"/>
	<path d="M48.357,2.522l-0.54-0.48l0.06,0.06l-0.6-0.48l-0.6-0.36h0.06l-0.66-0.3l-1.32-0.36h0.06l-0.66-0.12h-1.38h0.06
		l-0.72,0.12l-1.32,0.36h0.06l-0.66,0.3l-0.6,0.36l0.06-0.06l-0.6,0.48l-0.54,0.48l-0.48,0.54v-0.06l-0.42,0.6l-0.36,0.6h0.06
		l-0.3,0.6l-0.24,0.66l-0.18,0.72v-0.12l-0.06,0.66l-0.06,0.72l0.06,0.66l0.06,0.72v-0.06l0.18,0.66l0.24,0.66l0.3,0.6l-0.06-0.06
		l0.36,0.66l0.42,0.54v-0.06l0.48,0.54l0.54,0.54l0.6,0.42h-0.06l0.6,0.36l0.66,0.3l0.66,0.24l-0.06-0.06l0.66,0.12l0.72,0.12
		l-0.06,0.06l0.66,0.06v-0.06l0.72-0.06l0.06,0.48h-0.06c-3.089,0.262-5.882-1.179-7.32-3.96l-0.3-0.6h0.06l-0.24-0.66l-0.06-0.06
		l-0.18-0.66l-0.06-0.72l-0.06-0.66v-0.12l0.06-0.72l0.06-0.66l0.18-0.72h0.06l0.24-0.66l-0.06-0.06l0.3-0.6
		c2.089-4.079,7.849-5.301,11.34-2.28l0.54,0.48"/>
	<path d="M44.157,14.342l1.32-0.24l-0.06,0.06l0.66-0.24l0.66-0.3h-0.06l0.6-0.36l0.6-0.42h-0.06l0.54-0.54l0.48-0.54l0.42-0.54
		l-0.06,0.06l0.36-0.66l0.3-0.6l0.06,0.06l0.24-0.66h-0.06l0.18-0.66l0.12-0.72v0.06v-1.38v0.06l-0.12-0.66l-0.18-0.72l0.06,0.06
		l-0.24-0.66h-0.06l-0.3-0.6l-0.36-0.6l0.06,0.06l-0.42-0.6l-0.48-0.54l0.36-0.36l0.48,0.54v0.06l0.42,0.6l0.36,0.6l0.06,0.06
		l0.3,0.6l0.24,0.66l0.18,0.72h0.06l0.12,0.66l-0.06,0.06v1.38l0.06,0.06l-0.12,0.72l-0.06,0.06l-0.18,0.66l-0.24,0.66l-0.3,0.6
		h-0.06l-0.36,0.66c-1.055,1.614-2.766,2.946-4.74,3.18l-0.66,0.12"/>
	<polyline points="38.517,2.162 38.157,2.522 48.357,12.662 48.717,12.302 	"/>
	<polyline points="38.157,12.302 38.517,12.662 48.717,2.522 48.357,2.162 	"/>
	<path d="M56.817,75.782l-0.06-0.36l0.06,0.12l-0.24-0.3l0.06,0.06l-0.42-0.24h0.12l-0.48-0.06h0.06l-0.42,0.06h0.06l-0.42,0.24
		l0.06-0.06l-0.24,0.3l0.06-0.06l-0.12,0.36v-0.18l0.12,0.36l-0.06-0.06l0.24,0.3l-0.06-0.06l0.42,0.24l-0.06-0.06l0.42,0.06
		h-0.06l0.48-0.06l-0.12,0.06l0.42-0.24l-0.06,0.06l0.24-0.3l-0.06,0.12l0.06-0.36l0.48,0.06l-0.06,0.36l-0.06,0.12l-0.24,0.3
		l-0.06,0.06l-0.42,0.24h-0.06l-0.48,0.06h-0.06l-0.42-0.06h-0.12l-0.42-0.24l-0.06-0.06l-0.24-0.3l-0.06-0.06l-0.12-0.36v-0.18
		l0.12-0.36l0.06-0.06l0.24-0.3l0.06-0.06l0.42-0.24l0.12-0.06l0.42-0.06c0.408-0.045,0.784,0.156,1.08,0.42l0.24,0.3l0.06,0.12
		l0.06,0.36"/>
	<polyline points="56.817,75.722 56.817,75.782 57.297,75.722 57.297,75.782 	"/>
	<rect x="54.657" y="75.722" style="fill:#FFFFFF;" width="2.4" height="11.52"/>
	<rect x="54.657" y="75.482" width="2.64" height="0.48"/>
	<rect x="56.817" y="75.722" width="0.48" height="11.76"/>
	<rect x="54.417" y="87.002" width="2.64" height="0.48"/>
	<rect x="54.417" y="75.482" width="0.48" height="11.76"/>
	<polyline style="fill-rule:evenodd;clip-rule:evenodd;" points="59.457,87.722 59.397,87.422 59.217,87.182 58.857,86.942 
		58.437,86.702 57.897,86.522 57.297,86.402 55.857,86.282 54.477,86.402 53.877,86.522 53.337,86.702 52.917,86.942 
		52.557,87.182 52.377,87.422 52.257,87.722 52.377,88.022 52.557,88.262 52.917,88.502 53.337,88.742 53.877,88.922 
		54.477,89.042 55.857,89.162 57.297,89.042 57.897,88.922 58.437,88.742 58.857,88.502 59.217,88.262 59.397,88.022 
		59.457,87.722 	"/>
	<path d="M59.217,87.782l-0.06-0.3l0.06,0.12l-0.18-0.24l0.06,0.06l-0.36-0.24l-0.42-0.24h0.06l-0.54-0.18l-0.6-0.12h0.06
		l-1.44-0.12h0.06l-1.38,0.12l-0.6,0.12h0.06l-0.54,0.18l-0.42,0.24l-0.36,0.24l0.06-0.06l-0.18,0.24l0.06-0.06l-0.12,0.3v-0.18
		l0.12,0.3l-0.06-0.06l0.18,0.24l-0.06-0.06l0.36,0.24l0.42,0.24v-0.06l0.54,0.18h-0.06l0.6,0.12l1.38,0.12h-0.06l1.44-0.12h-0.06
		l0.6-0.12l0.54-0.18l-0.06,0.06l0.42-0.24l0.36-0.24l-0.06,0.06l0.18-0.24l-0.06,0.06l0.06-0.3l0.48,0.12l-0.06,0.3l-0.06,0.12
		c-0.956,1.578-5.862,1.515-7.14,0.3l-0.06-0.06l-0.18-0.24v-0.06l-0.12-0.3v-0.18l0.12-0.3v-0.06l0.18-0.24l0.06-0.06l0.36-0.24
		l0.42-0.24l0.06-0.06l0.54-0.18l0.6-0.12h0.06l1.38-0.12h0.06l1.44,0.12l0.6,0.12h0.06l0.54,0.18v0.06l0.42,0.24l0.36,0.24
		l0.06,0.06l0.18,0.24l0.06,0.06l0.06,0.3"/>
	<polyline points="59.217,87.662 59.217,87.782 59.697,87.662 59.697,87.782 	"/>
	<rect x="54.657" y="82.442" width="2.4" height="4.8"/>
	<rect x="54.657" y="82.202" width="2.64" height="0.48"/>
	<rect x="56.817" y="82.442" width="0.48" height="5.04"/>
	<rect x="54.417" y="87.002" width="2.64" height="0.48"/>
	<rect x="54.417" y="82.202" width="0.48" height="5.04"/>
	<rect x="54.657" y="75.482" style="fill:#FFFFFF;" width="2.4" height="0.48"/>
	<rect x="57.057" y="75.482" width="2.4" height="0.48"/>
	<rect x="57.057" y="76.442" width="2.4" height="0.48"/>
	<rect x="57.057" y="77.402" width="2.4" height="0.48"/>
	<rect x="57.057" y="78.362" width="2.4" height="0.48"/>
	<rect x="57.057" y="79.322" width="2.4" height="0.48"/>
	<rect x="57.057" y="80.282" width="2.4" height="0.48"/>
	<rect x="57.057" y="81.242" width="2.4" height="0.48"/>
	<rect x="57.057" y="82.202" width="2.4" height="0.48"/>
	<rect x="57.057" y="83.162" width="2.4" height="0.48"/>
	<rect x="57.057" y="84.122" width="2.4" height="0.48"/>
	<rect x="57.057" y="85.082" width="2.4" height="0.48"/>
	<rect x="295.437" y="7.442" style="fill:#E6E6E6;" width="28.8" height="86.4"/>
	<rect x="245.038" y="72.242" style="fill:#808080;" width="14.399" height="14.4"/>
	<rect x="245.038" y="72.002" width="14.64" height="0.48"/>
	<rect x="259.197" y="72.242" width="0.48" height="14.64"/>
	<rect x="244.797" y="86.402" width="14.64" height="0.48"/>
	<rect x="244.797" y="72.002" width="0.479" height="14.64"/>
	<path style="fill-rule:evenodd;clip-rule:evenodd;fill:#808080;" d="M259.437,21.842l-0.06-0.78l-0.061-0.72
		c-1.907-7.973-13.169-7.452-14.22,0.72l-0.06,0.78l0.06,0.72c1.064,8.186,12.292,8.703,14.22,0.72l0.061-0.72L259.437,21.842"/>
	<path d="M259.197,21.902l-0.06-0.78l-0.06-0.72l-0.181-0.66v0.06l-0.239-0.66h0.06l-0.3-0.66l-0.36-0.6v0.06l-0.42-0.54
		l-0.479-0.48h0.06l-0.54-0.48l-0.54-0.42v0.06l-0.6-0.36l-0.601-0.3h0.061l-0.66-0.24l-0.72-0.18h0.06l-0.72-0.12h-1.44h0.061
		l-0.721,0.12l-0.72,0.18h0.06l-0.659,0.24l-0.601,0.3l-0.6,0.36l0.06-0.06l-0.54,0.42l-0.54,0.48l-0.479,0.48l0.06-0.06
		l-0.359,0.6l-0.36,0.54l-0.6,1.32v-0.06l-0.12,0.66l-0.12,0.72l-0.061,0.78v-0.06l0.061,0.72l0.12,0.72l0.12,0.66v-0.06l0.6,1.32
		v-0.06l0.36,0.6l0.359,0.54l-0.06-0.06l0.479,0.48l0.54,0.48l-0.3,0.36l-0.54-0.48h-0.06c-2.236-2.366-2.891-5.874-1.2-8.76
		v-0.06l0.36-0.54c1.545-2.681,5.315-3.997,8.34-3h0.06l0.66,0.24v0.06l0.6,0.3c1.002,0.494,2.037,1.405,2.641,2.34h0.06l0.36,0.6
		v0.06l0.3,0.66l0.24,0.66l0.18,0.66v0.06l0.061,0.72l0.06,0.78"/>
	<path d="M247.857,27.182l0.54,0.42h-0.06l0.6,0.36l0.601,0.3v-0.06l0.659,0.24h-0.06l0.72,0.18l0.721,0.12l0.72,0.06h-0.061
		l0.721-0.06l0.72-0.12h-0.06l0.72-0.18l0.66-0.24l-0.061,0.06l0.601-0.3l0.6-0.36l0.54-0.42l0.54-0.48h-0.06l0.479-0.479v0.06
		l0.42-0.54l0.36-0.6v0.06l0.3-0.66h-0.06l0.239-0.66l0.181-0.66v0.06l0.06-0.72l0.06-0.72v0.06l0.48-0.06v0.06
		c0.033,5.624-6.087,9.087-10.98,6.48l-0.6-0.36v-0.06l-0.54-0.42"/>
	<path style="fill-rule:evenodd;clip-rule:evenodd;fill:#808080;" d="M317.038,79.442l-0.061-0.78l-0.06-0.72
		c-1.91-7.972-13.178-7.448-14.221,0.72l-0.06,0.78l0.06,0.72c1.064,8.186,12.292,8.703,14.221,0.72L317.038,79.442"/>
	<path d="M316.797,79.502l-0.061-0.78l-0.06-0.72l-0.18-0.66v0.06l-0.24-0.66h0.06l-0.3-0.66l-0.359-0.54v0.06l-0.421-0.6
		l-0.479-0.48h0.06l-0.54-0.48l-0.54-0.42v0.06l-0.6-0.36l-0.6-0.3h0.06l-0.66-0.24l-0.72-0.18h0.06l-0.72-0.12h-1.439h0.06
		l-0.72,0.12l-0.721,0.18h0.061l-0.66,0.24l-0.6,0.3l-0.601,0.36l0.061-0.06l-0.54,0.42l-0.54,0.48l-0.48,0.48l0.061-0.06
		l-0.36,0.6l-0.36,0.54l-0.6,1.32v-0.06l-0.12,0.66l-0.12,0.72l-0.06,0.78v-0.06l0.06,0.72l0.12,0.72l0.12,0.66v-0.06l0.6,1.32
		v-0.06l0.36,0.6l0.36,0.54l-0.061-0.06l0.48,0.48l0.54,0.48l-0.3,0.36l-0.54-0.48h-0.061c-2.236-2.364-2.89-5.876-1.2-8.76v-0.06
		l0.36-0.54c1.545-2.681,5.316-3.997,8.34-3h0.061l0.659,0.24v0.06l0.601,0.3c2.141,1.081,3.752,3.321,3.84,5.76l0.06,0.78"/>
	<path d="M305.458,84.782l0.54,0.42h-0.061l0.601,0.36l0.6,0.3v-0.06l0.66,0.24h-0.061l0.721,0.18l0.72,0.12l0.72,0.06h-0.06
		l0.72-0.06l0.72-0.12h-0.06l0.72-0.18l0.66-0.24l-0.06,0.06l0.6-0.3l0.6-0.36l0.54-0.42l0.54-0.48h-0.06l0.479-0.48v0.06
		l0.421-0.54l0.359-0.6v0.06l0.3-0.66h-0.06l0.24-0.66l0.18-0.66v0.06l0.06-0.72l0.061-0.72v0.06l0.479-0.06v0.06
		c0.033,5.624-6.087,9.087-10.979,6.48l-0.601-0.36v-0.06l-0.539-0.42"/>
	<rect x="239.817" y="21.602" width="4.74" height="0.48"/>
	<polyline points="240.237,19.082 239.998,19.502 244.437,22.082 244.677,22.082 244.977,21.902 244.677,21.662 	"/>
	<polyline points="244.677,22.082 244.437,21.662 239.998,24.182 240.237,24.602 	"/>
	<rect x="216.237" y="21.602" width="4.021" height="0.48"/>
	<rect x="224.937" y="21.602" width="6.24" height="0.48"/>
	<rect x="235.857" y="21.602" width="3.96" height="0.48"/>
	<rect x="302.637" y="14.642" style="fill:#808080;" width="14.4" height="14.4"/>
	<rect x="302.637" y="14.402" width="14.64" height="0.48"/>
	<rect x="316.797" y="14.642" width="0.479" height="14.64"/>
	<rect x="302.397" y="28.802" width="14.641" height="0.48"/>
	<rect x="302.397" y="14.402" width="0.48" height="14.64"/>
	<rect x="309.597" y="67.022" width="0.48" height="4.68"/>
	<polyline points="312.597,67.382 312.177,67.142 309.597,71.582 309.597,71.822 309.837,72.242 310.017,71.822 	"/>
	<polyline points="309.597,71.822 310.017,71.582 307.437,67.142 307.017,67.382 	"/>
	<rect x="309.597" y="29.042" width="0.48" height="3.96"/>
	<rect x="309.597" y="38.342" width="0.48" height="7.02"/>
	<rect x="309.597" y="50.642" width="0.48" height="7.08"/>
	<rect x="309.597" y="63.002" width="0.48" height="4.02"/>
	<rect x="297.477" y="21.602" width="4.681" height="0.48"/>
	<polyline points="297.837,19.082 297.597,19.502 302.038,22.082 302.277,22.082 302.578,21.902 302.277,21.662 	"/>
	<polyline points="302.277,22.082 302.038,21.662 297.597,24.182 297.837,24.602 	"/>
	<rect x="259.437" y="21.602" width="38.04" height="0.48"/>
	<rect x="259.917" y="79.202" width="4.74" height="0.48"/>
	<polyline points="264.297,82.142 264.538,81.722 260.038,79.202 259.797,79.202 259.377,79.442 259.797,79.622 	"/>
	<polyline points="259.797,79.202 260.038,79.622 264.538,77.042 264.297,76.622 	"/>
	<rect x="264.658" y="79.202" width="37.979" height="0.48"/>
	<text transform="matrix(1 0 0 1 128.1572 51.7817)"><tspan x="0" y="0" style="font-family:'ProductusBook'; font-size:7.98;">C</tspan><tspan x="4.206" y="0" style="font-family:'ProductusBook'; font-size:7.98;">o</tspan><tspan x="7.988" y="0" style="font-family:'ProductusBook'; font-size:7.98;">n</tspan><tspan x="11.707" y="0" style="font-family:'ProductusBook'; font-size:7.98;">t</tspan><tspan x="14.053" y="0" style="font-family:'ProductusBook'; font-size:7.98;">r</tspan><tspan x="16.327" y="0" style="font-family:'ProductusBook'; font-size:7.98;">ol</tspan><tspan x="21.673" y="0" style="font-family:'ProductusBook'; font-size:7.98;">l</tspan><tspan x="23.285" y="0" style="font-family:'ProductusBook'; font-size:7.98;">e</tspan><tspan x="26.772" y="0" style="font-family:'ProductusBook'; font-size:7.98;">r</tspan></text>
	<text transform="matrix(1 0 0 1 29.0371 50.0425)"><tspan x="0" y="0" style="font-family:'ProductusBook'; font-size:7.98;">C</tspan><tspan x="4.437" y="0" style="font-family:'ProductusBook'; font-size:7.98;">A</tspan><tspan x="8.522" y="0" style="font-family:'ProductusBook'; font-size:7.98;">N</tspan><tspan x="13.255" y="0" style="font-family:'ProductusBook'; font-size:7.98;"> </tspan><tspan x="14.819" y="0" style="font-family:'ProductusBook'; font-size:7.98;">bu</tspan><tspan x="22.248" y="0" style="font-family:'ProductusBook'; font-size:7.98;">s</tspan></text>
	<text transform="matrix(1 0 0 1 175.5571 23.5225)"><tspan x="0" y="0" style="font-family:'ProductusBook'; font-size:7.98;">F</tspan><tspan x="3.12" y="0" style="font-family:'ProductusBook'; font-size:7.98;">i</tspan><tspan x="4.732" y="0" style="font-family:'ProductusBook'; font-size:7.98;">l</tspan><tspan x="6.304" y="0" style="font-family:'ProductusBook'; font-size:7.98;">t</tspan><tspan x="8.65" y="0" style="font-family:'ProductusBook'; font-size:7.98;">e</tspan><tspan x="12.161" y="0" style="font-family:'ProductusBook'; font-size:7.98;">r</tspan></text>
	<rect x="167.817" y="21.602" width="4.74" height="0.48"/>
	<polyline points="168.237,19.082 167.998,19.502 172.437,22.082 172.677,22.082 172.977,21.902 172.677,21.662 	"/>
	<polyline points="172.677,22.082 172.437,21.662 167.998,24.182 168.237,24.602 	"/>
	<rect x="158.637" y="43.202" width="7.44" height="0.48"/>
	<rect x="165.597" y="39.422" width="0.48" height="4.02"/>
	<rect x="165.597" y="21.602" width="0.48" height="4.2"/>
	<rect x="165.837" y="21.602" width="1.979" height="0.48"/>
	<rect x="159.118" y="57.602" width="4.739" height="0.48"/>
	<polyline points="163.498,60.542 163.737,60.122 159.237,57.602 158.998,57.602 158.578,57.842 158.998,58.022 	"/>
	<polyline points="158.998,57.602 159.237,58.022 163.737,55.442 163.498,55.022 	"/>
	<rect x="163.857" y="57.602" width="2.221" height="0.48"/>
	<rect x="165.597" y="57.842" width="0.48" height="3.96"/>
	<rect x="165.597" y="75.422" width="0.48" height="4.26"/>
	<rect x="165.837" y="79.202" width="4.02" height="0.48"/>
	<rect x="175.437" y="79.202" width="7.5" height="0.48"/>
	<rect x="188.578" y="79.202" width="7.5" height="0.48"/>
	<rect x="201.717" y="79.202" width="7.5" height="0.48"/>
	<rect x="214.797" y="79.202" width="7.5" height="0.48"/>
	<rect x="227.937" y="79.202" width="7.5" height="0.48"/>
	<rect x="241.017" y="79.202" width="4.021" height="0.48"/>
	<rect x="187.197" y="33.122" width="0.48" height="4.68"/>
	<polyline points="184.677,37.442 185.097,37.682 187.677,33.242 187.677,33.002 187.437,32.582 187.257,33.002 	"/>
	<polyline points="187.677,33.002 187.257,33.242 189.837,37.682 190.257,37.442 	"/>
	<rect x="280.797" y="21.842" width="0.479" height="3.96"/>
	<rect x="280.797" y="39.422" width="0.479" height="4.26"/>
	<rect x="277.017" y="43.202" width="4.021" height="0.48"/>
	<rect x="263.757" y="43.202" width="7.56" height="0.48"/>
	<rect x="250.437" y="43.202" width="7.561" height="0.48"/>
	<rect x="237.118" y="43.202" width="7.56" height="0.48"/>
	<rect x="223.797" y="43.202" width="7.62" height="0.48"/>
	<rect x="210.477" y="43.202" width="7.62" height="0.48"/>
	<rect x="197.158" y="43.202" width="7.619" height="0.48"/>
	<rect x="187.197" y="43.202" width="4.261" height="0.48"/>
	<rect x="187.197" y="37.802" width="0.48" height="5.64"/>
	<text transform="matrix(1 0 0 1 52.9175 9.062)"><tspan x="0" y="0" style="font-family:'ProductusBook'; font-size:7.98;">A</tspan><tspan x="3.966" y="0" style="font-family:'ProductusBook'; font-size:7.98;">c</tspan><tspan x="7.03" y="0" style="font-family:'ProductusBook'; font-size:7.98;">t</tspan><tspan x="9.424" y="0" style="font-family:'ProductusBook'; font-size:7.98;">u</tspan><tspan x="13.143" y="0" style="font-family:'ProductusBook'; font-size:7.98;">a</tspan><tspan x="16.446" y="0" style="font-family:'ProductusBook'; font-size:7.98;">t</tspan><tspan x="18.84" y="0" style="font-family:'ProductusBook'; font-size:7.98;">or</tspan></text>
	<text transform="matrix(1 0 0 1 43.6772 94.502)"><tspan x="0" y="0" style="font-family:'ProductusBook'; font-size:7.98;">S</tspan><tspan x="3.679" y="0" style="font-family:'ProductusBook'; font-size:7.98;">e</tspan><tspan x="7.214" y="0" style="font-family:'ProductusBook'; font-size:7.98;">n</tspan><tspan x="10.869" y="0" style="font-family:'ProductusBook'; font-size:7.98;">s</tspan><tspan x="13.686" y="0" style="font-family:'ProductusBook'; font-size:7.98;">o</tspan><tspan x="17.524" y="0" style="font-family:'ProductusBook'; font-size:7.98;">r</tspan></text>
	<text transform="matrix(1 0 0 1 203.0972 40.1426)"><tspan x="0" y="0" style="font-family:'ProductusBook'; font-size:7.98;">Filter</tspan><tspan x="14.436" y="0" style="font-family:'ProductusBook'; font-size:7.98;"> </tspan><tspan x="16.048" y="0" style="font-family:'ProductusBook'; font-size:7.98;">from</tspan><tspan x="29.917" y="0" style="font-family:'ProductusBook'; font-size:7.98;"> </tspan><tspan x="31.48" y="0" style="font-family:'ProductusBook'; font-size:7.98;">w</tspan><tspan x="36.699" y="0" style="font-family:'ProductusBook'; font-size:7.98;">i</tspan><tspan x="38.264" y="0" style="font-family:'ProductusBook'; font-size:7.98;">r</tspan><tspan x="40.49" y="0" style="font-family:'ProductusBook'; font-size:7.98;">e</tspan><tspan x="44.025" y="0" style="font-family:'ProductusBook'; font-size:7.98;"> </tspan><tspan x="45.645" y="0" style="font-family:'ProductusBook'; font-size:7.98;">prope</tspan><tspan x="62.626" y="0" style="font-family:'ProductusBook'; font-size:7.98;">r</tspan><tspan x="64.853" y="0" style="font-family:'ProductusBook'; font-size:7.98;">tie</tspan><tspan x="72.321" y="0" style="font-family:'ProductusBook'; font-size:7.98;">s</tspan></text>
	<path style="fill-rule:evenodd;clip-rule:evenodd;fill:#808080;" d="M137.037,115.442l-0.06-0.78l-0.06-0.72
		c-1.91-7.972-13.177-7.448-14.22,0.72l-0.06,0.78l0.06,0.72c1.064,8.186,12.292,8.703,14.22,0.72l0.06-0.72L137.037,115.442"/>
	<path d="M136.797,115.502l-0.06-0.78l-0.06-0.72l-0.18-0.66v0.06l-0.24-0.66h0.06l-0.3-0.66l-0.36-0.54v0.06l-0.42-0.6
		l-0.48-0.48h0.06l-0.54-0.48l-0.54-0.42v0.06l-0.6-0.36l-0.6-0.3h0.06l-0.66-0.24l-0.72-0.18h0.06l-0.72-0.12h-1.44h0.06
		l-0.72,0.12l-0.72,0.18h0.06l-0.66,0.24l-0.6,0.3l-0.6,0.36l0.06-0.06l-0.54,0.42l-0.54,0.48l-0.48,0.48l0.06-0.06l-0.36,0.6
		l-0.36,0.54l-0.6,1.32v-0.06l-0.12,0.66l-0.12,0.72l-0.06,0.78v-0.06l0.06,0.72l0.12,0.72l0.12,0.66v-0.06l0.6,1.32v-0.06
		l0.36,0.6l0.36,0.54l-0.06-0.06l0.48,0.48l0.54,0.48l-0.3,0.36l-0.54-0.48h-0.06c-2.236-2.364-2.89-5.876-1.2-8.76v-0.06
		l0.36-0.54c1.545-2.681,5.316-3.997,8.34-3h0.06l0.66,0.24v0.06l0.6,0.3c2.141,1.081,3.752,3.321,3.84,5.76l0.06,0.78"/>
	<path d="M125.457,120.782l0.54,0.42h-0.06l0.6,0.36l0.6,0.3v-0.06l0.66,0.24h-0.06l0.72,0.18l0.72,0.12l0.72,0.06h-0.06
		l0.72-0.06l0.72-0.12h-0.06l0.72-0.18l0.66-0.24l-0.06,0.06l0.6-0.3l0.6-0.36l0.54-0.42l0.54-0.48h-0.06l0.48-0.48v0.06
		l0.42-0.54l0.36-0.6v0.06l0.3-0.66h-0.06l0.24-0.66l0.18-0.66v0.06l0.12-1.44v0.06l0.48-0.06v0.06
		c0.033,5.624-6.087,9.087-10.98,6.48l-0.6-0.36v-0.06l-0.54-0.42"/>
	<rect x="180.237" y="108.242" style="fill:#808080;" width="14.4" height="14.4"/>
	<rect x="180.237" y="108.002" width="14.641" height="0.48"/>
	<rect x="194.397" y="108.242" width="0.48" height="14.64"/>
	<rect x="179.998" y="122.402" width="14.64" height="0.48"/>
	<rect x="179.998" y="108.002" width="0.479" height="14.64"/>
	<rect x="237.837" y="108.242" style="fill:#E6E6E6;" width="14.399" height="14.4"/>
	<rect x="53.577" y="133.622" width="4.68" height="0.48"/>
	<polyline points="53.937,131.102 53.697,131.522 58.137,134.102 58.377,134.102 58.797,133.862 58.377,133.682 	"/>
	<polyline points="58.377,134.102 58.137,133.682 53.697,136.262 53.937,136.682 	"/>
	<rect x="44.397" y="133.622" width="9.18" height="0.48"/>
	<text transform="matrix(1 0 0 1 143.7573 116.4619)"><tspan x="0" y="0" style="font-family:'ProductusBook'; font-size:7.98;">Pro</tspan><tspan x="9.329" y="0" style="font-family:'ProductusBook'; font-size:7.98;">d</tspan><tspan x="13.047" y="0" style="font-family:'ProductusBook'; font-size:7.98;">u</tspan><tspan x="16.718" y="0" style="font-family:'ProductusBook'; font-size:7.98;">c</tspan><tspan x="19.719" y="0" style="font-family:'ProductusBook'; font-size:7.98;">e</tspan><tspan x="23.253" y="0" style="font-family:'ProductusBook'; font-size:7.98; letter-spacing:32;">r</tspan><tspan x="57.567" y="0" style="font-family:'ProductusBook'; font-size:7.98;">C</tspan><tspan x="61.709" y="0" style="font-family:'ProductusBook'; font-size:7.98;">o</tspan><tspan x="65.547" y="0" style="font-family:'ProductusBook'; font-size:7.98;">ns</tspan><tspan x="72.027" y="0" style="font-family:'ProductusBook'; font-size:7.98;">u</tspan><tspan x="75.746" y="0" style="font-family:'ProductusBook'; font-size:7.98;">m</tspan><tspan x="81.499" y="0" style="font-family:'ProductusBook'; font-size:7.98;">e</tspan><tspan x="84.994" y="0" style="font-family:'ProductusBook'; font-size:7.98; letter-spacing:27;">r</tspan><tspan x="115.167" y="0" style="font-family:'ProductusBook'; font-size:7.98;">B</tspan><tspan x="118.726" y="0" style="font-family:'ProductusBook'; font-size:7.98;">u</tspan><tspan x="122.444" y="0" style="font-family:'ProductusBook'; font-size:7.98;">n</tspan><tspan x="126.115" y="0" style="font-family:'ProductusBook'; font-size:7.98;">d</tspan><tspan x="129.834" y="0" style="font-family:'ProductusBook'; font-size:7.98;">l</tspan><tspan x="131.39" y="0" style="font-family:'ProductusBook'; font-size:7.98;">e</tspan></text>
	<text transform="matrix(1 0 0 1 65.5171 134.9419)"><tspan x="0" y="0" style="font-family:'ProductusBook'; font-size:7.98;">Wi</tspan><tspan x="7.756" y="0" style="font-family:'ProductusBook'; font-size:7.98;">r</tspan><tspan x="10.031" y="0" style="font-family:'ProductusBook'; font-size:7.98;">e</tspan><tspan x="13.518" y="0" style="font-family:'ProductusBook'; font-size:7.98;"> </tspan><tspan x="15.138" y="0" style="font-family:'ProductusBook'; font-size:7.98;">o</tspan><tspan x="18.913" y="0" style="font-family:'ProductusBook'; font-size:7.98;">b</tspan><tspan x="22.631" y="0" style="font-family:'ProductusBook'; font-size:7.98;">j</tspan><tspan x="24.187" y="0" style="font-family:'ProductusBook'; font-size:7.98;">e</tspan><tspan x="27.722" y="0" style="font-family:'ProductusBook'; font-size:7.98;">c</tspan><tspan x="30.802" y="0" style="font-family:'ProductusBook'; font-size:7.98;">t</tspan></text>
	<rect x="52.617" y="115.202" width="4.74" height="0.48"/>
	<polyline points="53.037,112.682 52.797,113.102 57.237,115.682 57.477,115.682 57.777,115.502 57.477,115.262 	"/>
	<polyline points="57.477,115.682 57.237,115.262 52.797,117.782 53.037,118.202 	"/>
	<rect x="43.437" y="115.202" width="4.02" height="0.48"/>
	<rect x="48.657" y="115.202" width="3.96" height="0.48"/>
	<text transform="matrix(1 0 0 1 64.1372 116.4619)"><tspan x="0" y="0" style="font-family:'ProductusBook'; font-size:7.98;">E</tspan><tspan x="3.368" y="0" style="font-family:'ProductusBook'; font-size:7.98;">x</tspan><tspan x="6.424" y="0" style="font-family:'ProductusBook'; font-size:7.98;">t</tspan><tspan x="8.81" y="0" style="font-family:'ProductusBook'; font-size:7.98;">e</tspan><tspan x="12.297" y="0" style="font-family:'ProductusBook'; font-size:7.98;">rnal</tspan><tspan x="23.149" y="0" style="font-family:'ProductusBook'; font-size:7.98;"> </tspan><tspan x="24.77" y="0" style="font-family:'ProductusBook'; font-size:7.98;">c</tspan><tspan x="27.77" y="0" style="font-family:'ProductusBook'; font-size:7.98;">o</tspan><tspan x="31.552" y="0" style="font-family:'ProductusBook'; font-size:7.98;">n</tspan><tspan x="35.215" y="0" style="font-family:'ProductusBook'; font-size:7.98;">n</tspan><tspan x="38.934" y="0" style="font-family:'ProductusBook'; font-size:7.98;">e</tspan><tspan x="42.421" y="0" style="font-family:'ProductusBook'; font-size:7.98;">c</tspan><tspan x="45.541" y="0" style="font-family:'ProductusBook'; font-size:7.98;">tio</tspan><tspan x="53.29" y="0" style="font-family:'ProductusBook'; font-size:7.98;">n</tspan></text>
	<rect x="180.477" y="129.482" width="14.4" height="14.4"/>
	<rect x="180.477" y="129.242" width="14.641" height="0.48"/>
	<rect x="194.637" y="129.482" width="0.48" height="14.64"/>
	<rect x="180.237" y="143.642" width="14.641" height="0.48"/>
	<rect x="180.237" y="129.242" width="0.48" height="14.64"/>
	<text transform="matrix(1 0 0 1 202.0776 137.7017)"><tspan x="0" y="0" style="font-family:'ProductusBook'; font-size:7.98;">N</tspan><tspan x="4.724" y="0" style="font-family:'ProductusBook'; font-size:7.98;">a</tspan><tspan x="8.027" y="0" style="font-family:'ProductusBook'; font-size:7.98;">ti</tspan><tspan x="12.002" y="0" style="font-family:'ProductusBook'; font-size:7.98;">v</tspan><tspan x="15.122" y="0" style="font-family:'ProductusBook'; font-size:7.98;">e</tspan><tspan x="18.609" y="0" style="font-family:'ProductusBook'; font-size:7.98;"> </tspan><tspan x="20.221" y="0" style="font-family:'ProductusBook'; font-size:7.98;">c</tspan><tspan x="23.222" y="0" style="font-family:'ProductusBook'; font-size:7.98;">o</tspan><tspan x="27.004" y="0" style="font-family:'ProductusBook'; font-size:7.98;">d</tspan><tspan x="30.715" y="0" style="font-family:'ProductusBook'; font-size:7.98;">e</tspan></text>
</svg>
