<?xml version="1.0" encoding="utf-8"?>
<!-- Generator: Adobe Illustrator 16.0.0, SVG Export Plug-In . SVG Version: 6.00 Build 0)  -->
<!DOCTYPE svg PUBLIC "-//W3C//DTD SVG 1.1//EN" "http://www.w3.org/Graphics/SVG/1.1/DTD/svg11.dtd">
<svg version="1.1" id="Layer_1" xmlns="http://www.w3.org/2000/svg" xmlns:xlink="http://www.w3.org/1999/xlink" x="0px" y="0px"
	 width="295.178px" height="93.713px" viewBox="0 0 295.178 93.713" style="enable-background:new 0 0 295.178 93.713;"
	 xml:space="preserve">
	<path style="fill-rule:evenodd;clip-rule:evenodd;fill:#E6E6E6;" d="M36.78,17.508l-0.06-0.48l-0.12-0.42
		c-2.241-4.912-16.245-4.808-17.82,0.42v0.9c1.588,5.355,15.6,5.307,17.82,0.48l0.12-0.48L36.78,17.508"/>
	<path d="M36.54,17.568l-0.06-0.48l-0.12-0.42l0.06,0.06l-0.24-0.48v0.06l-0.3-0.36l-0.36-0.42h0.06l-0.48-0.36v0.06l-0.54-0.36
		l-0.54-0.3h0.06l-1.32-0.54l-1.56-0.42h0.06l-1.68-0.3l-1.8-0.06l-1.86,0.06h0.06l-1.68,0.3l-1.5,0.42h0.06l-1.32,0.54l-0.6,0.3
		l-0.54,0.36l0.06-0.06l-0.42,0.36l-0.42,0.42l-0.3,0.36l0.06-0.06l-0.18,0.48l-0.18,0.42v-0.12v0.9v-0.06l0.18,0.48l0.18,0.42
		v-0.06l0.3,0.42l-0.06-0.06l0.42,0.42l0.42,0.36H20.4l0.54,0.3l0.6,0.36l1.32,0.54l-0.06-0.06l1.5,0.42l1.68,0.24l1.86,0.12
		h-0.06l1.8-0.12l1.68-0.24H31.2l1.56-0.42v0.06l1.32-0.54h-0.06l0.54-0.36l0.24,0.42l-0.54,0.36
		c-3.669,1.785-10.027,1.815-13.56-0.36l-0.54-0.3v-0.06l-0.42-0.36h-0.06l-0.42-0.42l-0.3-0.42v-0.06l-0.18-0.42l-0.18-0.48
		l-0.06-0.12v-0.9l0.06-0.06l0.18-0.42l0.18-0.48v-0.06l0.3-0.36v-0.06l0.42-0.42h0.06l0.42-0.36l0.54-0.36l0.6-0.3h0.06
		l1.32-0.54v-0.06l1.5-0.42h0.06l1.68-0.3l1.86-0.06l1.8,0.06h0.06l1.68,0.3l1.56,0.42l0.06,0.06l1.32,0.54l0.54,0.3l0.54,0.36
		h0.06l0.48,0.36v0.06l0.36,0.42l0.3,0.36h0.06l0.24,0.48v0.06l0.12,0.42v0.06l0.06,0.48"/>
	<polyline points="34.56,20.147 35.1,19.848 35.58,19.488 35.52,19.548 35.88,19.127 36.18,18.708 36.42,18.288 36.36,18.348 
		36.48,17.868 36.48,17.928 36.54,17.508 36.54,17.568 37.02,17.508 37.02,17.568 36.96,17.988 36.84,18.468 36.84,18.528 
		36.6,18.948 36.6,19.008 36.3,19.428 36.24,19.428 35.88,19.848 35.4,20.208 35.34,20.268 34.8,20.568 	"/>
	<path style="fill-rule:evenodd;clip-rule:evenodd;fill:#1A1A1A;" d="M36.78,53.507l-0.06-0.479l-0.12-0.42
		c-2.241-4.912-16.245-4.809-17.82,0.42v0.899c1.588,5.355,15.6,5.308,17.82,0.48l0.12-0.48L36.78,53.507"/>
	<path d="M36.54,53.568l-0.06-0.48l-0.12-0.42l0.06,0.061l-0.24-0.48v0.061l-0.3-0.36l-0.36-0.42h0.06l-0.48-0.36v0.061
		l-0.54-0.36l-0.54-0.3h0.06l-1.32-0.54l-1.56-0.42h0.06l-1.68-0.3l-1.8-0.061l-1.86,0.061h0.06l-1.68,0.3l-1.5,0.42h0.06
		l-1.32,0.54l-0.6,0.3l-0.54,0.36l0.06-0.061l-0.42,0.36l-0.42,0.42l-0.3,0.36l0.06-0.061l-0.18,0.48l-0.18,0.42v-0.12v0.899
		v-0.06l0.18,0.48l0.18,0.42v-0.061l0.3,0.42l-0.06-0.06l0.42,0.42l0.42,0.36H20.4l0.54,0.3l0.6,0.359l1.32,0.54l-0.06-0.06
		l1.5,0.42l1.68,0.24l1.86,0.12h-0.06l1.8-0.12l1.68-0.24H31.2l1.56-0.42v0.06l1.32-0.54h-0.06l0.54-0.359l0.24,0.42l-0.54,0.359
		c-3.669,1.785-10.027,1.815-13.56-0.359l-0.54-0.3v-0.061l-0.42-0.359h-0.06l-0.42-0.421l-0.3-0.42v-0.06l-0.18-0.42l-0.18-0.48
		l-0.06-0.12v-0.899l0.06-0.061l0.18-0.42l0.18-0.479v-0.061l0.3-0.359v-0.061l0.42-0.42h0.06l0.42-0.359l0.54-0.36l0.6-0.3h0.06
		l1.32-0.54v-0.061l1.5-0.42h0.06l1.68-0.3l1.86-0.06l1.8,0.06h0.06l1.68,0.3l1.56,0.42l0.06,0.061l1.32,0.54l0.54,0.3l0.54,0.36
		h0.06l0.48,0.359v0.061l0.36,0.42l0.3,0.359h0.06l0.24,0.48v0.06l0.12,0.42v0.061l0.06,0.479"/>
	<polyline points="34.56,56.148 35.1,55.848 35.58,55.488 35.52,55.547 35.88,55.127 36.18,54.708 36.42,54.288 36.36,54.348 
		36.48,53.868 36.48,53.927 36.54,53.507 36.54,53.568 37.02,53.507 37.02,53.568 36.96,53.988 36.84,54.467 36.84,54.528 
		36.6,54.948 36.6,55.007 36.3,55.427 36.24,55.427 35.88,55.848 35.4,56.208 35.34,56.268 34.8,56.568 	"/>
	<rect x="27.54" y="21.768" width="0.48" height="0.24"/>
	<rect x="27.54" y="22.008" width="0.48" height="27.24"/>
	<text transform="matrix(1 0 0 1 0 6.6475)"><tspan x="0" y="0" style="font-family:'ProductusBook'; font-size:7.98;">P</tspan><tspan x="3.184" y="0" style="font-family:'ProductusBook'; font-size:7.98;">a</tspan><tspan x="6.543" y="0" style="font-family:'ProductusBook'; font-size:7.98;">rall</tspan><tspan x="15.25" y="0" style="font-family:'ProductusBook'; font-size:7.98;">e</tspan><tspan x="18.785" y="0" style="font-family:'ProductusBook'; font-size:7.98;">l</tspan><tspan x="20.349" y="0" style="font-family:'ProductusBook'; font-size:7.98;"> </tspan><tspan x="21.913" y="0" style="font-family:'ProductusBook'; font-size:7.98;">port</tspan><tspan x="34.034" y="0" style="font-family:'ProductusBook'; font-size:7.98;"> </tspan><tspan x="35.598" y="0" style="font-family:'ProductusBook'; font-size:7.98;">s</tspan><tspan x="38.415" y="0" style="font-family:'ProductusBook'; font-size:7.98;">e</tspan><tspan x="41.95" y="0" style="font-family:'ProductusBook'; font-size:7.98;">rvi</tspan><tspan x="48.997" y="0" style="font-family:'ProductusBook'; font-size:7.98;">c</tspan><tspan x="51.997" y="0" style="font-family:'ProductusBook'; font-size:7.98;">e</tspan></text>
	<text transform="matrix(1 0 0 1 15.6597 71.0278)" style="font-family:'ProductusBook'; font-size:7.98;">Physical </text>
	<text transform="matrix(1 0 0 1 39.54 30.2876)"><tspan x="0" y="0" style="font-family:'ProductusBook'; font-size:7.98;">B</tspan><tspan x="3.583" y="0" style="font-family:'ProductusBook'; font-size:7.98;">a</tspan><tspan x="6.887" y="0" style="font-family:'ProductusBook'; font-size:7.98;">se</tspan><tspan x="13.239" y="0" style="font-family:'ProductusBook'; font-size:7.98;"> </tspan><tspan x="14.803" y="0" style="font-family:'ProductusBook'; font-size:7.98;">dri</tspan><tspan x="22.375" y="0" style="font-family:'ProductusBook'; font-size:7.98;">v</tspan><tspan x="25.496" y="0" style="font-family:'ProductusBook'; font-size:7.98;">e</tspan><tspan x="28.983" y="0" style="font-family:'ProductusBook'; font-size:7.98;">r</tspan></text>
	<path style="fill-rule:evenodd;clip-rule:evenodd;fill:#E6E6E6;" d="M252.78,17.508l-0.061-0.48l-0.12-0.42
		c-2.113-4.845-16.258-4.876-17.76,0.42l-0.06,0.48l0.06,0.42c1.345,5.308,15.625,5.328,17.76,0.48l0.12-0.48L252.78,17.508"/>
	<path d="M252.54,17.568l-0.061-0.48l-0.12-0.42l0.061,0.06l-0.24-0.48v0.06l-0.3-0.36l-0.36-0.42h0.061l-0.96-0.72v0.06
		l-0.601-0.3h0.061l-1.32-0.54l-1.56-0.42h0.06l-1.68-0.3l-1.8-0.06l-1.801,0.06h0.061l-1.74,0.3l-1.5,0.42h0.06l-1.319,0.54
		l-0.601,0.3l-0.54,0.36l0.061-0.06l-0.42,0.36l-0.36,0.42l-0.3,0.36l0.06-0.06l-0.239,0.48v-0.06l-0.12,0.42l-0.061,0.48v-0.06
		l0.061,0.42v-0.06l0.12,0.48v-0.06l0.239,0.42l0.301,0.42h-0.061l0.36,0.42v-0.06l0.42,0.36h-0.061l0.54,0.3l0.601,0.36
		l1.319,0.54l-0.06-0.06l1.5,0.42l1.74,0.24l1.8,0.12h-0.06l1.8-0.12l1.68-0.24h-0.06l1.56-0.42v0.06l1.32-0.54h-0.061l0.601-0.36
		l0.239,0.42l-0.6,0.36c-3.66,1.786-10.038,1.811-13.56-0.36l-0.54-0.3v-0.06l-0.42-0.36h-0.061l-0.359-0.42l-0.301-0.42v-0.06
		l-0.239-0.42l-0.061-0.06l-0.12-0.48l-0.06-0.42v-0.06l0.06-0.48v-0.06c0.257-1.166,1.607-2.406,2.7-2.82h0.06l1.32-0.54v-0.06
		l1.5-0.42h0.061l1.739-0.3l1.801-0.06l1.8,0.06h0.06l1.681,0.3l1.56,0.42l0.06,0.06l1.32,0.54l0.6,0.3h0.061l0.96,0.72v0.06
		l0.36,0.42l0.3,0.36h0.06l0.24,0.48v0.06l0.12,0.42v0.06l0.06,0.48"/>
	<polyline points="250.62,20.147 251.1,19.848 251.58,19.488 251.52,19.548 251.88,19.127 252.18,18.708 252.42,18.288 
		252.359,18.348 252.479,17.868 252.479,17.928 252.54,17.508 252.54,17.568 253.02,17.508 253.02,17.568 252.96,17.988 
		252.84,18.468 252.84,18.528 252.6,18.948 252.6,19.008 252.3,19.428 252.24,19.428 251.88,19.848 251.399,20.208 251.34,20.268 
		250.859,20.568 	"/>
	<rect x="243.54" y="21.768" width="0.479" height="0.24"/>
	<rect x="243.54" y="22.008" width="0.479" height="27.24"/>
	<text transform="matrix(1 0 0 1 223.5 6.6475)"><tspan x="0" y="0" style="font-family:'ProductusBook'; font-size:7.98;">Print</tspan><tspan x="13.19" y="0" style="font-family:'ProductusBook'; font-size:7.98;">e</tspan><tspan x="16.726" y="0" style="font-family:'ProductusBook'; font-size:7.98;">r</tspan><tspan x="18.952" y="0" style="font-family:'ProductusBook'; font-size:7.98;"> </tspan><tspan x="20.564" y="0" style="font-family:'ProductusBook'; font-size:7.98;">s</tspan><tspan x="23.381" y="0" style="font-family:'ProductusBook'; font-size:7.98;">e</tspan><tspan x="26.916" y="0" style="font-family:'ProductusBook'; font-size:7.98;">rvice</tspan></text>
	<text transform="matrix(1 0 0 1 221.9395 70.9683)"><tspan x="0" y="0" style="font-family:'ProductusBook'; font-size:7.98;">J</tspan><tspan x="1.612" y="0" style="font-family:'ProductusBook'; font-size:7.98;">I</tspan><tspan x="3.176" y="0" style="font-family:'ProductusBook'; font-size:7.98;">N</tspan><tspan x="7.908" y="0" style="font-family:'ProductusBook'; font-size:7.98;">I</tspan><tspan x="9.472" y="0" style="font-family:'ProductusBook'; font-size:7.98;">,</tspan><tspan x="11.092" y="0" style="font-family:'ProductusBook'; font-size:7.98;"> </tspan><tspan x="12.704" y="0" style="font-family:'ProductusBook'; font-size:7.98;">S</tspan><tspan x="16.431" y="0" style="font-family:'ProductusBook'; font-size:7.98;">a</tspan><tspan x="19.734" y="0" style="font-family:'ProductusBook'; font-size:7.98;">lu</tspan><tspan x="25.024" y="0" style="font-family:'ProductusBook'; font-size:7.98;">t</tspan><tspan x="27.371" y="0" style="font-family:'ProductusBook'; font-size:7.98;">a</tspan><tspan x="30.73" y="0" style="font-family:'ProductusBook'; font-size:7.98;">t</tspan><tspan x="33.076" y="0" style="font-family:'ProductusBook'; font-size:7.98;">i</tspan><tspan x="34.641" y="0" style="font-family:'ProductusBook'; font-size:7.98;">o</tspan><tspan x="38.447" y="0" style="font-family:'ProductusBook'; font-size:7.98;">n</tspan><tspan x="42.109" y="0" style="font-family:'ProductusBook'; font-size:7.98;">,</tspan></text>
	<text transform="matrix(1 0 0 1 252.7803 30.5879)"><tspan x="0" y="0" style="font-family:'ProductusBook'; font-size:7.98;">P</tspan><tspan x="3.248" y="0" style="font-family:'ProductusBook'; font-size:7.98;">u</tspan><tspan x="6.967" y="0" style="font-family:'ProductusBook'; font-size:7.98;">r</tspan><tspan x="9.24" y="0" style="font-family:'ProductusBook'; font-size:7.98;">e</tspan><tspan x="12.728" y="0" style="font-family:'ProductusBook'; font-size:7.98;"> </tspan><tspan x="14.34" y="0" style="font-family:'ProductusBook'; font-size:7.98;">D</tspan><tspan x="19.256" y="0" style="font-family:'ProductusBook'; font-size:7.98;">is</tspan><tspan x="23.637" y="0" style="font-family:'ProductusBook'; font-size:7.98;">c</tspan><tspan x="26.637" y="0" style="font-family:'ProductusBook'; font-size:7.98;">o</tspan><tspan x="30.3" y="0" style="font-family:'ProductusBook'; font-size:7.98;">v</tspan><tspan x="33.42" y="0" style="font-family:'ProductusBook'; font-size:7.98;">e</tspan><tspan x="36.907" y="0" style="font-family:'ProductusBook'; font-size:7.98;">r</tspan><tspan x="39.182" y="0" style="font-family:'ProductusBook'; font-size:7.98;">y</tspan></text>
	<g>
		<text transform="matrix(1 0 0 1 254.0752 81.1675)" style="font-family:'ProductusBook'; font-size:7.98;">P</text>
		<text transform="matrix(1 0 0 1 250.3887 81.1675)" style="font-family:'ProductusBook'; font-size:7.98;">n</text>
		<text transform="matrix(1 0 0 1 247.0762 81.1675)" style="font-family:'ProductusBook'; font-size:7.98;">P</text>
		<text transform="matrix(1 0 0 1 242.4404 81.1675)" style="font-family:'ProductusBook'; font-size:7.98;">U</text>
		<text transform="matrix(1 0 0 1 240.8799 81.1675)" style="font-family:'ProductusBook'; font-size:7.98;"> </text>
		<text transform="matrix(1 0 0 1 239.2598 81.1675)" style="font-family:'ProductusBook'; font-size:7.98;">,</text>
		<text transform="matrix(1 0 0 1 236.7998 81.1675)" style="font-family:'ProductusBook'; font-size:7.98;">P</text>
		<text transform="matrix(1 0 0 1 233.7393 81.1675)" style="font-family:'ProductusBook'; font-size:7.98;">L</text>
		<text transform="matrix(1 0 0 1 230.0801 81.1675)" style="font-family:'ProductusBook'; font-size:7.98;">S</text>
		<text transform="matrix(1 0 0 1 37.8999 81.1675)" style="font-family:'ProductusBook'; font-size:7.98;">e</text>
		<text transform="matrix(1 0 0 1 35.6255 81.1675)" style="font-family:'ProductusBook'; font-size:7.98;">r</text>
		<text transform="matrix(1 0 0 1 32.3062 81.1675)" style="font-family:'ProductusBook'; font-size:7.98;">a</text>
		<text transform="matrix(1 0 0 1 27.1431 81.1675)" style="font-family:'ProductusBook'; font-size:7.98;">w</text>
		<text transform="matrix(1 0 0 1 23.4404 81.1675)" style="font-family:'ProductusBook'; font-size:7.98;">d</text>
		<text transform="matrix(1 0 0 1 21.166 81.1675)" style="font-family:'ProductusBook'; font-size:7.98;">r</text>
		<text transform="matrix(1 0 0 1 17.8467 81.1675)" style="font-family:'ProductusBook'; font-size:7.98;">a</text>
		<text transform="matrix(1 0 0 1 14.1597 81.1675)" style="font-family:'ProductusBook'; font-size:7.98;">h</text>
	</g>
	<path style="fill-rule:evenodd;clip-rule:evenodd;fill:#E6E6E6;" d="M144.78,17.508l-0.06-0.48l-0.12-0.42
		c-2.113-4.845-16.258-4.876-17.76,0.42l-0.06,0.48l0.06,0.42c1.345,5.308,15.625,5.328,17.76,0.48l0.12-0.48L144.78,17.508"/>
	<path d="M144.54,17.568l-0.06-0.48l-0.12-0.42l0.06,0.06l-0.24-0.48v0.06l-0.3-0.36l-0.36-0.42h0.06l-0.96-0.72v0.06l-0.6-0.3
		h0.06l-1.32-0.54l-1.56-0.42h0.06l-1.68-0.3l-1.8-0.06l-1.8,0.06h0.06l-1.74,0.3l-1.5,0.42h0.06l-1.32,0.54l-0.6,0.3l-0.54,0.36
		l0.06-0.06l-0.42,0.36l-0.36,0.42l-0.3,0.36l0.06-0.06l-0.24,0.48v-0.06l-0.12,0.42l-0.06,0.48v-0.06l0.06,0.42v-0.06l0.12,0.48
		v-0.06l0.24,0.42l0.3,0.42h-0.06l0.36,0.42v-0.06l0.42,0.36h-0.06l0.54,0.3l0.6,0.36l1.32,0.54l-0.06-0.06l1.5,0.42l1.74,0.24
		l1.8,0.12h-0.06l1.8-0.12l1.68-0.24h-0.06l1.56-0.42v0.06l1.32-0.54h-0.06l0.6-0.36l0.24,0.42l-0.6,0.36
		c-3.66,1.786-10.038,1.811-13.56-0.36l-0.54-0.3v-0.06l-0.42-0.36h-0.06l-0.36-0.42l-0.3-0.42v-0.06l-0.24-0.42l-0.06-0.06
		l-0.12-0.48l-0.06-0.42v-0.06l0.06-0.48v-0.06c0.257-1.166,1.607-2.406,2.7-2.82h0.06l1.32-0.54v-0.06l1.5-0.42h0.06l1.74-0.3
		l1.8-0.06l1.8,0.06h0.06l1.68,0.3l1.56,0.42l0.06,0.06l1.32,0.54l0.6,0.3h0.06l0.96,0.72v0.06l0.36,0.42l0.3,0.36h0.06l0.24,0.48
		v0.06l0.12,0.42v0.06l0.06,0.48"/>
	<polyline points="142.62,20.147 143.1,19.848 143.58,19.488 143.52,19.548 143.88,19.127 144.18,18.708 144.42,18.288 
		144.36,18.348 144.48,17.868 144.48,17.928 144.54,17.508 144.54,17.568 145.02,17.508 145.02,17.568 144.96,17.988 
		144.84,18.468 144.84,18.528 144.6,18.948 144.6,19.008 144.3,19.428 144.24,19.428 143.88,19.848 143.4,20.208 143.34,20.268 
		142.86,20.568 	"/>
	<path style="fill-rule:evenodd;clip-rule:evenodd;fill:#1A1A1A;" d="M144.78,53.507l-0.06-0.479l-0.12-0.42
		c-2.113-4.846-16.258-4.876-17.76,0.42l-0.06,0.479l0.06,0.42c1.345,5.309,15.625,5.328,17.76,0.48l0.12-0.48L144.78,53.507"/>
	<path d="M144.54,53.568l-0.06-0.48l-0.12-0.42l0.06,0.061l-0.24-0.48v0.061l-0.3-0.36l-0.36-0.42h0.06l-0.96-0.72v0.06l-0.6-0.3
		h0.06l-1.32-0.54l-1.56-0.42h0.06l-1.68-0.3l-1.8-0.061l-1.8,0.061h0.06l-1.74,0.3l-1.5,0.42h0.06l-1.32,0.54l-0.6,0.3
		l-0.54,0.36l0.06-0.061l-0.42,0.36l-0.36,0.42l-0.3,0.36l0.06-0.061l-0.24,0.48v-0.061l-0.12,0.42l-0.06,0.48v-0.061l0.06,0.42
		v-0.06l0.12,0.48v-0.061l0.24,0.42l0.3,0.42h-0.06l0.36,0.42v-0.06l0.42,0.36h-0.06l0.54,0.3l0.6,0.359l1.32,0.54l-0.06-0.06
		l1.5,0.42l1.74,0.24l1.8,0.12h-0.06l1.8-0.12l1.68-0.24h-0.06l1.56-0.42v0.06l1.32-0.54h-0.06l0.6-0.359l0.24,0.42l-0.6,0.359
		c-3.66,1.786-10.038,1.812-13.56-0.359l-0.54-0.3v-0.061l-0.42-0.359h-0.06l-0.36-0.421l-0.3-0.42v-0.06l-0.24-0.42l-0.06-0.061
		l-0.12-0.479l-0.06-0.42v-0.061l0.06-0.479v-0.061c0.257-1.166,1.607-2.405,2.7-2.819h0.06l1.32-0.54v-0.061l1.5-0.42h0.06
		l1.74-0.3l1.8-0.06l1.8,0.06h0.06l1.68,0.3l1.56,0.42l0.06,0.061l1.32,0.54l0.6,0.3h0.06l0.96,0.72v0.061l0.36,0.42l0.3,0.359
		h0.06l0.24,0.48v0.06l0.12,0.42v0.061l0.06,0.479"/>
	<polyline points="142.62,56.148 143.1,55.848 143.58,55.488 143.52,55.547 143.88,55.127 144.18,54.708 144.42,54.288 
		144.36,54.348 144.48,53.868 144.48,53.927 144.54,53.507 144.54,53.568 145.02,53.507 145.02,53.568 144.96,53.988 
		144.84,54.467 144.84,54.528 144.6,54.948 144.6,55.007 144.3,55.427 144.24,55.427 143.88,55.848 143.4,56.208 143.34,56.268 
		142.86,56.568 	"/>
	<rect x="135.54" y="21.768" width="0.48" height="0.24"/>
	<rect x="135.54" y="22.008" width="0.48" height="27.24"/>
	<text transform="matrix(1 0 0 1 115.5 6.6475)"><tspan x="0" y="0" style="font-family:'ProductusBook'; font-size:7.98;">Print</tspan><tspan x="13.19" y="0" style="font-family:'ProductusBook'; font-size:7.98;">e</tspan><tspan x="16.726" y="0" style="font-family:'ProductusBook'; font-size:7.98;">r</tspan><tspan x="18.952" y="0" style="font-family:'ProductusBook'; font-size:7.98;"> </tspan><tspan x="20.564" y="0" style="font-family:'ProductusBook'; font-size:7.98;">s</tspan><tspan x="23.381" y="0" style="font-family:'ProductusBook'; font-size:7.98;">e</tspan><tspan x="26.916" y="0" style="font-family:'ProductusBook'; font-size:7.98;">r</tspan><tspan x="29.143" y="0" style="font-family:'ProductusBook'; font-size:7.98;">v</tspan><tspan x="32.382" y="0" style="font-family:'ProductusBook'; font-size:7.98;">ice</tspan></text>
	<text transform="matrix(1 0 0 1 114.3594 71.0278)"><tspan x="0" y="0" style="font-family:'ProductusBook'; font-size:7.98;">Har</tspan><tspan x="10.43" y="0" style="font-family:'ProductusBook'; font-size:7.98;">d</tspan><tspan x="14.092" y="0" style="font-family:'ProductusBook'; font-size:7.98;">w</tspan><tspan x="19.312" y="0" style="font-family:'ProductusBook'; font-size:7.98;">a</tspan><tspan x="22.615" y="0" style="font-family:'ProductusBook'; font-size:7.98;">re</tspan><tspan x="28.384" y="0" style="font-family:'ProductusBook'; font-size:7.98;"> </tspan><tspan x="29.996" y="0" style="font-family:'ProductusBook'; font-size:7.98;">with</tspan></text>
	<text transform="matrix(1 0 0 1 144.7793 30.2876)"><tspan x="0" y="0" style="font-family:'ProductusBook'; font-size:7.98;"> </tspan><tspan x="1.612" y="0" style="font-family:'ProductusBook'; font-size:7.98;">Dis</tspan><tspan x="10.925" y="0" style="font-family:'ProductusBook'; font-size:7.98;">c</tspan><tspan x="13.925" y="0" style="font-family:'ProductusBook'; font-size:7.98;">o</tspan><tspan x="17.651" y="0" style="font-family:'ProductusBook'; font-size:7.98;">v</tspan><tspan x="20.716" y="0" style="font-family:'ProductusBook'; font-size:7.98;">er</tspan><tspan x="26.501" y="0" style="font-family:'ProductusBook'; font-size:7.98;">y</tspan></text>
	<text transform="matrix(1 0 0 1 144.7793 40.4878)"><tspan x="0" y="0" style="font-family:'ProductusBook'; font-size:7.98;"> B</tspan><tspan x="5.195" y="0" style="font-family:'ProductusBook'; font-size:7.98;">a</tspan><tspan x="8.498" y="0" style="font-family:'ProductusBook'; font-size:7.98;">s</tspan><tspan x="11.331" y="0" style="font-family:'ProductusBook'; font-size:7.98;">e</tspan><tspan x="14.818" y="0" style="font-family:'ProductusBook'; font-size:7.98;"> dri</tspan><tspan x="24.004" y="0" style="font-family:'ProductusBook'; font-size:7.98;">v</tspan><tspan x="27.067" y="0" style="font-family:'ProductusBook'; font-size:7.98;">e</tspan><tspan x="30.587" y="0" style="font-family:'ProductusBook'; font-size:7.98;">r</tspan></text>
	<text transform="matrix(1 0 0 1 113.939 81.1675)"><tspan x="0" y="0" style="font-family:'ProductusBook'; font-size:7.98;">dis</tspan><tspan x="8.124" y="0" style="font-family:'ProductusBook'; font-size:7.98;">c</tspan><tspan x="11.124" y="0" style="font-family:'ProductusBook'; font-size:7.98;">o</tspan><tspan x="14.787" y="0" style="font-family:'ProductusBook'; font-size:7.98;">v</tspan><tspan x="17.915" y="0" style="font-family:'ProductusBook'; font-size:7.98;">e</tspan><tspan x="21.434" y="0" style="font-family:'ProductusBook'; font-size:7.98;">r</tspan><tspan x="23.661" y="0" style="font-family:'ProductusBook'; font-size:7.98;">y:</tspan><tspan x="28.504" y="0" style="font-family:'ProductusBook'; font-size:7.98;"> </tspan><tspan x="30.068" y="0" style="font-family:'ProductusBook'; font-size:7.98;">US</tspan><tspan x="38.431" y="0" style="font-family:'ProductusBook'; font-size:7.98;">B</tspan><tspan x="41.974" y="0" style="font-family:'ProductusBook'; font-size:7.98;">,</tspan></text>
	<text transform="matrix(1 0 0 1 119.5791 91.3677)"><tspan x="0" y="0" style="font-family:'ProductusBook'; font-size:7.98;">I</tspan><tspan x="1.564" y="0" style="font-family:'ProductusBook'; font-size:7.98;">EE</tspan><tspan x="8.395" y="0" style="font-family:'ProductusBook'; font-size:7.98;">E</tspan><tspan x="11.762" y="0" style="font-family:'ProductusBook'; font-size:7.98;"> </tspan><tspan x="13.382" y="0" style="font-family:'ProductusBook'; font-size:7.98;">139</tspan><tspan x="23.82" y="0" style="font-family:'ProductusBook'; font-size:7.98;">4</tspan><tspan x="27.546" y="0" style="font-family:'ProductusBook'; font-size:7.98;">,</tspan><tspan x="29.158" y="0" style="font-family:'ProductusBook'; font-size:7.98;"> </tspan><tspan x="30.723" y="0" style="font-family:'ProductusBook'; font-size:7.98;"> </tspan></text>
	<text transform="matrix(1 0 0 1 252.7793 41.9272)"><tspan x="0" y="0" style="font-family:'ProductusBook'; font-size:7.98;">B</tspan><tspan x="3.583" y="0" style="font-family:'ProductusBook'; font-size:7.98;">a</tspan><tspan x="6.887" y="0" style="font-family:'ProductusBook'; font-size:7.98;">se </tspan><tspan x="14.851" y="0" style="font-family:'ProductusBook'; font-size:7.98;">d</tspan><tspan x="18.514" y="0" style="font-family:'ProductusBook'; font-size:7.98;">r</tspan><tspan x="20.787" y="0" style="font-family:'ProductusBook'; font-size:7.98;">i</tspan><tspan x="22.367" y="0" style="font-family:'ProductusBook'; font-size:7.98;">v</tspan><tspan x="25.487" y="0" style="font-family:'ProductusBook'; font-size:7.98;">e</tspan><tspan x="28.975" y="0" style="font-family:'ProductusBook'; font-size:7.98;">r</tspan></text>
</svg>
