<?xml version="1.0" encoding="utf-8"?>
<!-- Generator: Adobe Illustrator 16.0.0, SVG Export Plug-In . SVG Version: 6.00 Build 0)  -->
<!DOCTYPE svg PUBLIC "-//W3C//DTD SVG 1.1//EN" "http://www.w3.org/Graphics/SVG/1.1/DTD/svg11.dtd">
<svg version="1.1" id="Layer_1" xmlns="http://www.w3.org/2000/svg" xmlns:xlink="http://www.w3.org/1999/xlink" x="0px" y="0px"
	 width="126.603px" height="93.654px" viewBox="0 0 126.603 93.654" style="enable-background:new 0 0 126.603 93.654;"
	 xml:space="preserve">
	<path style="fill-rule:evenodd;clip-rule:evenodd;fill:#E6E6E6;" d="M70.559,52.308v-0.42l-0.18-0.48
		c-1.99-4.857-16.464-4.81-17.76,0.48l-0.061,0.42l0.061,0.48c1.587,5.301,15.684,5.269,17.76,0.42l0.18-0.42V52.308"/>
	<path d="M70.32,52.308v-0.42l0.06,0.12l-0.18-0.48l-0.18-0.42v0.06l-0.301-0.42l-0.42-0.42h0.061l-0.42-0.36v0.06l-0.54-0.36
		l-0.601-0.3h0.061l-1.32-0.54l-1.5-0.42h0.06l-1.68-0.24l-1.86-0.12h0.061l-1.8,0.12l-1.681,0.24l-1.56,0.42h0.06l-1.319,0.54
		l-0.54,0.3l-0.54,0.36l0.06-0.06l-0.479,0.36l-0.36,0.42h0.061l-0.301,0.42v-0.06l-0.239,0.42v-0.06l-0.12,0.48l-0.061,0.42
		v-0.06l0.061,0.48v-0.06l0.12,0.42v-0.06l0.239,0.42l0.301,0.42h-0.061l0.36,0.42v-0.06l0.479,0.36h-0.06l0.54,0.36l0.54,0.3
		l1.319,0.54l-0.06-0.06l1.56,0.42l1.681,0.3h-0.061l1.8,0.06l1.86-0.06l1.68-0.3h-0.06l1.5-0.42v0.06l1.32-0.54h-0.061l0.601-0.3
		l0.239,0.42l-0.6,0.3c-3.956,1.886-9.668,1.786-13.5-0.3L54,55.067v-0.06l-0.479-0.36h-0.061c-0.525-0.576-1.194-1.513-1.14-2.34
		l0.06-0.42v-0.06c0.282-1.321,1.535-2.313,2.7-2.88h0.06l1.32-0.54v-0.06l1.561-0.42h0.06c3.276-0.628,6.947-0.487,9.96,1.02
		l0.6,0.3l0.54,0.36h0.061l0.42,0.36l0.479,0.48l0.301,0.42v0.06l0.18,0.42l0.18,0.48v0.48"/>
	<polyline points="68.4,55.008 68.94,54.647 69.36,54.288 69.299,54.288 69.719,53.868 69.719,53.928 70.02,53.508 70.02,53.568 
		70.379,52.728 70.32,52.788 70.32,52.308 70.799,52.308 70.799,52.908 70.44,53.748 70.44,53.808 70.139,54.228 70.08,54.228 
		69.66,54.647 69.24,55.008 69.179,55.068 68.639,55.428 	"/>
	<path style="fill-rule:evenodd;clip-rule:evenodd;fill:#E6E6E6;" d="M34.56,16.308v-0.48l-0.18-0.42
		c-1.984-4.814-16.264-4.846-17.76,0.42l-0.06,0.48l0.06,0.48c1.587,5.301,15.684,5.269,17.76,0.42l0.18-0.42V16.308"/>
	<path d="M34.319,16.308v-0.48l0.06,0.12l-0.36-0.84v0.06l-0.3-0.42l-0.42-0.42h0.06l-0.42-0.36v0.06l-0.54-0.36l-0.6-0.3h0.06
		l-1.32-0.54l-1.5-0.42h0.06l-1.68-0.24l-1.86-0.12h0.06l-1.8,0.12l-1.68,0.24l-1.56,0.42h0.06l-1.32,0.54l-0.54,0.3l-0.54,0.36
		l0.06-0.06l-0.48,0.36l-0.36,0.42h0.06l-0.3,0.42v-0.06l-0.24,0.42v-0.06l-0.12,0.42l-0.06,0.48v-0.06l0.06,0.48v-0.06l0.12,0.42
		v-0.06l0.24,0.42l0.3,0.42h-0.06l0.36,0.42v-0.06l0.48,0.36h-0.06l0.54,0.36l0.54,0.3l1.32,0.54l-0.06-0.06l1.56,0.42l1.68,0.3
		h-0.06l1.8,0.06l1.86-0.06l1.68-0.3h-0.06l1.5-0.42v0.06l1.32-0.54h-0.06l0.6-0.3l0.24,0.42l-0.6,0.3
		c-3.956,1.886-9.668,1.786-13.5-0.3L18,19.067v-0.06l-0.48-0.36h-0.06l-0.36-0.42l-0.3-0.42v-0.06l-0.24-0.42l-0.06-0.06
		l-0.12-0.42l-0.06-0.48v-0.06l0.06-0.48v-0.06c0.359-1.311,1.519-2.242,2.7-2.82h0.06l1.32-0.54v-0.06l1.56-0.42h0.06
		c3.275-0.628,6.947-0.487,9.96,1.02l0.6,0.3l0.54,0.36h0.06l0.42,0.36l0.48,0.48l0.3,0.42v0.06l0.36,0.84v0.54"/>
	<polyline points="32.399,19.008 32.939,18.647 33.359,18.288 33.299,18.288 33.72,17.868 33.72,17.928 34.02,17.508 
		34.02,17.568 34.379,16.728 34.319,16.788 34.319,16.308 34.799,16.308 34.799,16.908 34.439,17.748 34.439,17.808 34.14,18.228 
		34.08,18.228 33.66,18.647 33.24,19.008 33.18,19.068 32.64,19.428 	"/>
	<rect x="61.32" y="29.567" width="0.479" height="0.24"/>
	<rect x="61.32" y="29.808" width="0.479" height="27.24"/>
	<path style="fill-rule:evenodd;clip-rule:evenodd;fill:#1A1A1A;" d="M70.559,88.308v-0.42l-0.18-0.48
		c-1.99-4.857-16.464-4.81-17.76,0.48l-0.061,0.42l0.061,0.48c1.506,5.282,15.749,5.266,17.76,0.42l0.18-0.42V88.308"/>
	<path d="M70.32,88.308v-0.42l0.06,0.12l-0.18-0.48l-0.18-0.42v0.06l-0.301-0.42l-0.42-0.42h0.061l-0.42-0.36v0.06l-0.54-0.36
		l-0.601-0.3h0.061l-1.32-0.54l-1.5-0.42h0.06l-1.68-0.24l-1.86-0.12h0.061l-1.8,0.12l-1.681,0.24l-1.56,0.42h0.06l-1.319,0.54
		l-0.54,0.3l-0.54,0.36l0.06-0.06l-0.479,0.36l-0.36,0.42h0.061l-0.301,0.42v-0.06l-0.239,0.42v-0.06l-0.12,0.48l-0.061,0.42
		v-0.06l0.061,0.48v-0.06l0.12,0.42v-0.06l0.239,0.479h-0.06l0.3,0.36l0.36,0.42v-0.06l0.479,0.36h-0.06l0.54,0.36l0.54,0.3
		l1.319,0.54l-0.06-0.06l1.56,0.42l1.681,0.3h-0.061l1.8,0.06l1.86-0.06l1.68-0.3h-0.06l1.5-0.42v0.06l1.32-0.54h-0.061l0.601-0.3
		l0.239,0.42l-0.6,0.3c-3.956,1.886-9.668,1.786-13.5-0.3L54,91.067v-0.06l-0.479-0.36h-0.061c-0.624-0.647-1.129-1.407-1.14-2.34
		l0.06-0.42v-0.06c0.282-1.321,1.535-2.313,2.7-2.88h0.06l1.32-0.54v-0.06l1.561-0.42h0.06c3.275-0.628,6.947-0.487,9.96,1.02
		l0.6,0.3l0.54,0.36h0.061l0.42,0.36l0.42,0.42l0.06,0.06l0.301,0.42v0.06l0.18,0.42l0.18,0.48v0.48"/>
	<polyline points="68.4,91.008 68.94,90.647 69.36,90.288 69.299,90.288 69.719,89.868 69.719,89.928 70.02,89.568 70.02,89.628 
		70.2,89.147 70.379,88.728 70.32,88.788 70.32,88.308 70.799,88.308 70.799,88.908 70.62,89.328 70.44,89.808 70.379,89.868 
		70.08,90.228 69.66,90.647 69.24,91.008 69.179,91.068 68.639,91.428 	"/>
	<rect x="61.32" y="56.268" width="0.479" height="0.24"/>
	<rect x="61.32" y="56.508" width="0.479" height="27.24"/>
	<text transform="matrix(1 0 0 1 6.4795 6.6475)"><tspan x="0" y="0" style="font-family:'ProductusBook'; font-size:7.98;">A</tspan><tspan x="4.086" y="0" style="font-family:'ProductusBook'; font-size:7.98;">u</tspan><tspan x="7.804" y="0" style="font-family:'ProductusBook'; font-size:7.98;">di</tspan><tspan x="13.015" y="0" style="font-family:'ProductusBook'; font-size:7.98;">o</tspan><tspan x="16.854" y="0" style="font-family:'ProductusBook'; font-size:7.98;"> </tspan><tspan x="18.417" y="0" style="font-family:'ProductusBook'; font-size:7.98;">D</tspan><tspan x="23.333" y="0" style="font-family:'ProductusBook'; font-size:7.98;">e</tspan><tspan x="26.868" y="0" style="font-family:'ProductusBook'; font-size:7.98;">v</tspan><tspan x="30.061" y="0" style="font-family:'ProductusBook'; font-size:7.98;">i</tspan><tspan x="31.672" y="0" style="font-family:'ProductusBook'; font-size:7.98;">c</tspan><tspan x="34.672" y="0" style="font-family:'ProductusBook'; font-size:7.98;">e</tspan></text>
	<text transform="matrix(1 0 0 1 14.6997 55.3071)"><tspan x="0" y="0" style="font-family:'ProductusBook'; font-size:7.98;">US</tspan><tspan x="8.379" y="0" style="font-family:'ProductusBook'; font-size:7.98;">B</tspan><tspan x="11.922" y="0" style="font-family:'ProductusBook'; font-size:7.98;"> </tspan><tspan x="13.534" y="0" style="font-family:'ProductusBook'; font-size:7.98;">D</tspan><tspan x="18.465" y="0" style="font-family:'ProductusBook'; font-size:7.98;">e</tspan><tspan x="21.953" y="0" style="font-family:'ProductusBook'; font-size:7.98;">v</tspan><tspan x="25.185" y="0" style="font-family:'ProductusBook'; font-size:7.98;">i</tspan><tspan x="26.748" y="0" style="font-family:'ProductusBook'; font-size:7.98;">c</tspan><tspan x="29.749" y="0" style="font-family:'ProductusBook'; font-size:7.98;">e</tspan></text>
	<text transform="matrix(1 0 0 1 0 91.3076)"><tspan x="0" y="0" style="font-family:'ProductusBook'; font-size:7.98;">P</tspan><tspan x="3.304" y="0" style="font-family:'ProductusBook'; font-size:7.98;">h</tspan><tspan x="7.022" y="0" style="font-family:'ProductusBook'; font-size:7.98;">ysical</tspan><tspan x="22.583" y="0" style="font-family:'ProductusBook'; font-size:7.98;"> </tspan><tspan x="24.195" y="0" style="font-family:'ProductusBook'; font-size:7.98;">USB</tspan><tspan x="36.093" y="0" style="font-family:'ProductusBook'; font-size:7.98;"> </tspan><tspan x="37.657" y="0" style="font-family:'ProductusBook'; font-size:7.98;">b</tspan><tspan x="41.36" y="0" style="font-family:'ProductusBook'; font-size:7.98;">u</tspan><tspan x="45.079" y="0" style="font-family:'ProductusBook'; font-size:7.98;">s</tspan></text>
	<text transform="matrix(1 0 0 1 67.6802 71.9272)"><tspan x="0" y="0" style="font-family:'ProductusBook'; font-size:7.98;">B</tspan><tspan x="3.583" y="0" style="font-family:'ProductusBook'; font-size:7.98;">a</tspan><tspan x="6.887" y="0" style="font-family:'ProductusBook'; font-size:7.98;">s</tspan><tspan x="9.72" y="0" style="font-family:'ProductusBook'; font-size:7.98;">e</tspan><tspan x="13.207" y="0" style="font-family:'ProductusBook'; font-size:7.98;"> </tspan><tspan x="14.826" y="0" style="font-family:'ProductusBook'; font-size:7.98;">dri</tspan><tspan x="22.399" y="0" style="font-family:'ProductusBook'; font-size:7.98;">v</tspan><tspan x="25.464" y="0" style="font-family:'ProductusBook'; font-size:7.98;">e</tspan><tspan x="28.983" y="0" style="font-family:'ProductusBook'; font-size:7.98;">r</tspan></text>
	<text transform="matrix(1 0 0 1 67.6802 40.9673)"><tspan x="0" y="0" style="font-family:'ProductusSemibold'; font-size:7.98;">C</tspan><tspan x="4.74" y="0" style="font-family:'ProductusSemibold'; font-size:7.98;">o</tspan><tspan x="9.058" y="0" style="font-family:'ProductusSemibold'; font-size:7.98;">mposite</tspan><tspan x="36.803" y="0" style="font-family:'ProductusSemibold'; font-size:7.98;"> </tspan><tspan x="38.838" y="0" style="font-family:'ProductusSemibold'; font-size:7.98;">dri</tspan><tspan x="48.317" y="0" style="font-family:'ProductusSemibold'; font-size:7.98;">v</tspan><tspan x="52.212" y="0" style="font-family:'ProductusSemibold'; font-size:7.98;">e</tspan><tspan x="56.338" y="0" style="font-family:'ProductusSemibold'; font-size:7.98;">r</tspan></text>
	<polyline points="61.5,29.748 61.74,29.808 61.86,29.328 61.62,29.268 	"/>
	<polyline points="25.5,20.748 25.259,20.688 25.379,20.208 25.62,20.268 	"/>
	<polyline points="61.5,29.748 61.62,29.268 25.62,20.268 25.5,20.748 	"/>
	<polyline points="61.5,29.567 61.259,29.628 61.379,30.107 61.62,30.048 	"/>
	<polyline points="97.5,20.567 97.74,20.508 97.86,20.988 97.62,21.048 	"/>
	<polyline points="61.5,29.567 61.62,30.048 97.62,21.048 97.5,20.567 	"/>
	<path style="fill-rule:evenodd;clip-rule:evenodd;fill:#E6E6E6;" d="M106.559,16.308v-0.48l-0.18-0.42
		c-1.983-4.814-16.264-4.846-17.76,0.42l-0.061,0.48l0.061,0.48c1.587,5.301,15.684,5.269,17.76,0.42l0.18-0.42V16.308"/>
	<path d="M106.32,16.308v-0.48l0.06,0.12l-0.359-0.84v0.06l-0.301-0.42l-0.42-0.42h0.061l-0.42-0.36v0.06l-0.54-0.36l-0.601-0.3
		h0.061l-1.32-0.54l-1.5-0.42h0.06l-1.68-0.24l-1.86-0.12h0.061l-1.8,0.12l-1.681,0.24l-1.56,0.42h0.06l-1.319,0.54l-0.54,0.3
		l-0.54,0.36l0.06-0.06l-0.479,0.36l-0.36,0.42h0.061l-0.301,0.42v-0.06l-0.239,0.42v-0.06l-0.12,0.42l-0.061,0.48v-0.06
		l0.061,0.48v-0.06l0.12,0.42v-0.06l0.239,0.42l0.301,0.42h-0.061l0.36,0.42v-0.06l0.479,0.36h-0.06l0.54,0.36l0.54,0.3
		l1.319,0.54l-0.06-0.06l1.56,0.42l1.681,0.3h-0.061l1.8,0.06l1.86-0.06l1.68-0.3h-0.06l1.5-0.42v0.06l1.32-0.54h-0.061l0.601-0.3
		l0.239,0.42l-0.6,0.3c-3.956,1.886-9.668,1.786-13.5-0.3L90,19.067v-0.06l-0.479-0.36h-0.061l-0.36-0.42l-0.3-0.42v-0.06
		l-0.24-0.42l-0.06-0.06l-0.12-0.42l-0.06-0.48v-0.06l0.06-0.48v-0.06c0.359-1.311,1.52-2.242,2.7-2.82h0.06l1.32-0.54v-0.06
		l1.561-0.42h0.06c3.275-0.628,6.947-0.487,9.96,1.02l0.6,0.3l0.54,0.36h0.061l0.42,0.36l0.479,0.48l0.301,0.42v0.06l0.359,0.84
		v0.54"/>
	<polyline points="104.4,19.008 104.94,18.647 105.36,18.288 105.299,18.288 105.719,17.868 105.719,17.928 106.02,17.508 
		106.02,17.568 106.379,16.728 106.32,16.788 106.32,16.308 106.799,16.308 106.799,16.908 106.44,17.748 106.44,17.808 
		106.139,18.228 106.08,18.228 105.66,18.647 105.24,19.008 105.179,19.068 104.639,19.428 	"/>
	<text transform="matrix(1 0 0 1 77.1597 6.6475)"><tspan x="0" y="0" style="font-family:'ProductusBook'; font-size:7.98;">B</tspan><tspan x="3.543" y="0" style="font-family:'ProductusBook'; font-size:7.98;">u</tspan><tspan x="7.262" y="0" style="font-family:'ProductusBook'; font-size:7.98;">t</tspan><tspan x="9.615" y="0" style="font-family:'ProductusBook'; font-size:7.98;">t</tspan><tspan x="12.01" y="0" style="font-family:'ProductusBook'; font-size:7.98;">o</tspan><tspan x="15.769" y="0" style="font-family:'ProductusBook'; font-size:7.98;">n</tspan><tspan x="19.487" y="0" style="font-family:'ProductusBook'; font-size:7.98;"> </tspan><tspan x="21.051" y="0" style="font-family:'ProductusBook'; font-size:7.98;">D</tspan><tspan x="25.967" y="0" style="font-family:'ProductusBook'; font-size:7.98;">e</tspan><tspan x="29.502" y="0" style="font-family:'ProductusBook'; font-size:7.98;">v</tspan><tspan x="32.693" y="0" style="font-family:'ProductusBook'; font-size:7.98;">i</tspan><tspan x="34.313" y="0" style="font-family:'ProductusBook'; font-size:7.98;">c</tspan><tspan x="37.313" y="0" style="font-family:'ProductusBook'; font-size:7.98;">e</tspan></text>
</svg>
