<?xml version="1.0" encoding="utf-8"?>
<!-- Generator: Adobe Illustrator 16.0.1, SVG Export Plug-In . SVG Version: 6.00 Build 0)  -->
<!DOCTYPE svg PUBLIC "-//W3C//DTD SVG 1.1//EN" "http://www.w3.org/Graphics/SVG/1.1/DTD/svg11.dtd">
<svg version="1.1" id="Layer_1" xmlns="http://www.w3.org/2000/svg" xmlns:xlink="http://www.w3.org/1999/xlink" x="0px" y="0px"
	 width="240.043px" height="81.254px" viewBox="0 0 240.043 81.254" enable-background="new 0 0 240.043 81.254"
	 xml:space="preserve">
<path fill="#E6E6E6" d="M81.9,4.766l-0.06-0.48l-0.12-0.42C79.431-1.04,65.477-0.951,63.9,4.286v0.9
	c1.395,5.272,15.582,5.37,17.82,0.48l0.12-0.48L81.9,4.766"/>
<path d="M81.66,4.826l-0.06-0.48l-0.12-0.42l0.06,0.06l-0.24-0.48v0.06L81,3.206l-0.42-0.42h0.06l-0.42-0.36v0.06l-0.54-0.36
	l-0.54-0.3h0.06l-1.38-0.54l-1.5-0.42h0.06l-1.68-0.3l-1.8-0.06l-1.86,0.06h0.06l-1.68,0.3l-1.5,0.42h0.06l-1.38,0.54l-0.54,0.3
	l-0.54,0.36l0.06-0.06l-0.42,0.36l-0.42,0.42l-0.3,0.36l0.06-0.06l-0.18,0.48l-0.18,0.42v-0.12v0.9v-0.06l0.18,0.479l0.18,0.42
	v-0.06l0.3,0.42l-0.06-0.06l0.42,0.42l0.42,0.36h-0.06l0.54,0.36l0.54,0.3l1.38,0.54l-0.06-0.06l1.5,0.42l1.68,0.24l1.86,0.12H72.9
	l1.8-0.12l1.68-0.24h-0.06l1.5-0.42v0.06l1.38-0.54h-0.06l0.54-0.3l0.24,0.42l-0.54,0.3c-3.914,1.801-9.753,1.788-13.56-0.3
	l-0.54-0.36v-0.06l-0.42-0.36H64.8l-0.42-0.42l-0.3-0.42v-0.06l-0.18-0.42l-0.18-0.48l-0.06-0.12v-0.9l0.06-0.06l0.18-0.42
	l0.18-0.48v-0.06l0.3-0.36v-0.06l0.42-0.42h0.06l0.42-0.36l0.54-0.36l0.54-0.3h0.06l1.38-0.54v-0.06l1.5-0.42h0.06
	c2.612-0.617,6.015-0.506,8.58,0.42L78,0.866l1.38,0.54l0.54,0.3l0.54,0.36h0.06l0.42,0.36l0.42,0.42v0.06l0.3,0.36h0.06l0.24,0.48
	v0.06l0.12,0.42v0.06l0.06,0.48"/>
<polyline points="79.68,7.466 80.22,7.105 80.64,6.746 80.58,6.746 81,6.326 81,6.386 81.3,5.966 81.54,5.546 81.48,5.605 
	81.6,5.125 81.6,5.186 81.66,4.766 81.66,4.826 82.14,4.766 82.14,4.826 82.08,5.246 81.96,5.726 81.96,5.786 81.72,6.206 
	81.72,6.266 81.42,6.686 81.36,6.686 80.94,7.105 80.52,7.466 80.46,7.526 79.92,7.886 "/>
<path fill="#1A1A1A" d="M81.9,23.125l-0.06-0.48l-0.12-0.42c-2.289-4.906-16.243-4.817-17.82,0.42v0.9
	c1.498,5.259,15.435,5.391,17.82,0.48l0.12-0.48L81.9,23.125"/>
<path d="M81.66,23.186l-0.06-0.48l-0.12-0.42l0.06,0.06l-0.24-0.48v0.06l-0.3-0.36l-0.42-0.42h0.06l-0.42-0.36v0.06l-0.54-0.36
	l-0.54-0.3h0.06l-1.38-0.54l-1.5-0.42h0.06l-1.68-0.3l-1.8-0.06l-1.86,0.06h0.06l-1.68,0.3l-1.5,0.42h0.06l-1.38,0.54l-0.54,0.3
	l-0.54,0.36l0.06-0.06l-0.42,0.36l-0.42,0.42l-0.3,0.36l0.06-0.06l-0.18,0.48l-0.18,0.42v-0.12v0.9v-0.06l0.18,0.48l0.18,0.42v-0.06
	l0.3,0.42l-0.06-0.06l0.42,0.36l0.42,0.42h-0.06l0.54,0.3l0.54,0.36l1.38,0.54l-0.06-0.06l1.5,0.42l1.68,0.24l1.86,0.12H72.9
	l1.8-0.12l1.68-0.24h-0.06l1.5-0.42v0.06l1.38-0.54h-0.06l0.54-0.36l0.24,0.42l-0.54,0.36c-3.91,1.847-10.563,1.849-14.16-0.72
	l-0.42-0.42h0.06l-0.42-0.36h-0.06l-0.3-0.42v-0.06c-0.383-0.781-0.69-1.596-0.18-2.4l0.18-0.48v-0.06
	c0.534-0.798,1.416-1.414,2.28-1.86h0.06l1.38-0.54v-0.06l1.5-0.42h0.06c2.613-0.617,6.015-0.506,8.58,0.42l0.06,0.06l1.38,0.54
	l0.54,0.3l0.54,0.36h0.06l0.42,0.36l0.42,0.42v0.06l0.3,0.36h0.06l0.24,0.48v0.06l0.12,0.42v0.06l0.06,0.48"/>
<polyline points="79.68,25.766 80.22,25.466 80.16,25.466 80.58,25.046 80.64,25.046 81.06,24.686 81,24.746 81.3,24.326 
	81.54,23.906 81.48,23.966 81.6,23.486 81.6,23.546 81.66,23.126 81.66,23.186 82.14,23.126 82.14,23.186 82.08,23.605 
	81.96,24.086 81.96,24.146 81.72,24.566 81.72,24.626 81.42,25.046 81.36,25.046 80.94,25.406 80.46,25.886 79.92,26.186 "/>
<rect x="72.66" y="35.546" width="0.48" height="0.24"/>
<rect x="72.66" y="35.786" width="0.48" height="18.239"/>
<text transform="matrix(1 0 0 1 214.4395 7.166)" font-family="'ProductusSemibold'" font-size="7.98">bold</text>
<text transform="matrix(1 0 0 1 214.3203 27.6855)" font-family="'ProductusBook'" font-size="7.98">plain </text>
<rect x="72.6" y="59.125" width="0.48" height="0.24"/>
<rect x="72.6" y="59.366" width="0.48" height="4.02"/>
<rect x="72.6" y="73.406" width="0.48" height="0.24"/>
<rect x="72.6" y="73.646" width="0.48" height="3.959"/>
<path fill="#B3B3B3" d="M217.98,67.945l-1.141-0.42l-1.32-0.239l-1.439-0.06h-1.5c-2.275,0.101-6.422,0.691-8.279,2.1l-0.181,0.24
	l-0.12,0.18v0.18l0.12,0.18l0.181,0.181l0.301,0.18l1.02,0.24l1.5,0.239l1.021,0.181l0.84,0.24l0.66,0.36l0.479,0.42l0.301,0.479
	l0.239,0.54l0.12,0.54l0.061,0.601l-0.061,1.26l-0.12,1.199v1.021l0.062,0.479l0.18,0.36l0.359,0.42l0.42,0.42l0.601,0.36
	c1.854,1.05,4.479,1.601,6.601,1.38l0.779-0.12l0.779-0.24l0.66-0.359l0.601-0.48l0.54-0.54l0.119-0.3
	c0.211-1.631-1.688-4.018,0.541-4.32h0.66l0.899,0.12c3.59,1.019,7.468,0.937,11.039-0.12l1.261-0.42l1.141-0.54l0.899-0.6
	l0.359-0.36c0.956-0.902,1.198-2.183,0.42-3.3l-0.3-0.479l-0.479-0.541l-0.54-0.479l-0.24-0.18l-0.299-0.18l-0.781-0.181
	l-0.899-0.06h-0.96l-2.1,0.24l-1.86,0.299l-1.38,0.181l-0.359-0.06l-0.119-0.121l0.238-0.299l0.602-0.42l2.398-1.44
	c3.441-2.011,2.562-4.745-0.479-6.841L231,58.406l-1.079-0.6c-2.405-1.037-9.125-3.166-9.659,1.199l-0.062,0.84l0.181,1.74l0.18,1.5
	v0.6l-0.119,0.36l-0.18,0.12l-0.182,0.061l-0.479-0.121l-0.781-0.42l-1.799-1.199c-1.438-0.766-3.123-1.354-4.74-1.561l-1.021-0.119
	l-0.96-0.061l-0.9,0.061c-3.947,0.402-3.004,4.741,0,5.819l0.66,0.24l1.439,0.36l6.24,0.899"/>
<text transform="matrix(1 0 0 1 0.0601 7.0459)" font-family="'ProductusBook'" font-size="7.98">Device service </text>
<text transform="matrix(1 0 0 1 0.0601 27.6855)" font-family="'ProductusBook'" font-size="7.98">Hardware </text>
<text transform="matrix(1 0 0 1 0.0601 47.126)" font-family="'ProductusBook'" font-size="7.98">Driver </text>
<text transform="matrix(1 0 0 1 0 70.7061)" font-family="'ProductusBook'" font-size="7.98">Association </text>
<text transform="matrix(1 0 0 1 162 7.0469)" font-family="'ProductusBook'" font-size="7.98">Key part </text>
<text transform="matrix(1 0 0 1 162 27.6865)" font-family="'ProductusBook'" font-size="7.98">Illustrative</text>
<text transform="matrix(1 0 0 1 162 70.6465)" font-family="'ProductusBook'" font-size="7.98">Network</text>
</svg>
