<?xml version="1.0" encoding="utf-8"?>
<!-- Generator: Adobe Illustrator 16.0.0, SVG Export Plug-In . SVG Version: 6.00 Build 0)  -->
<!DOCTYPE svg PUBLIC "-//W3C//DTD SVG 1.1//EN" "http://www.w3.org/Graphics/SVG/1.1/DTD/svg11.dtd">
<svg version="1.1" id="Layer_1" xmlns="http://www.w3.org/2000/svg" xmlns:xlink="http://www.w3.org/1999/xlink" x="0px" y="0px"
	 width="191.463px" height="105.757px" viewBox="0 0 191.463 105.757" style="enable-background:new 0 0 191.463 105.757;"
	 xml:space="preserve">
	<path style="fill-rule:evenodd;clip-rule:evenodd;fill:#E6E6E6;" d="M102.24,49.771v-0.48l-0.18-0.42
		c-2.009-4.859-16.22-4.851-17.76,0.42l-0.061,0.48l0.061,0.42c1.432,5.266,15.625,5.37,17.76,0.479l0.18-0.479V49.771"/>
	<path d="M102,49.771v-0.48l0.06,0.12l-0.18-0.42l-0.181-0.48v0.06l-0.3-0.36l-0.42-0.42h0.061l-0.42-0.36v0.06l-0.54-0.36
		l-0.54-0.3h0.06l-1.38-0.54l-1.5-0.42h0.06l-1.68-0.3l-1.86-0.06l-1.8,0.06H91.5l-1.681,0.3l-1.5,0.42h0.061L87,46.831l-0.54,0.3
		l-0.54,0.36l0.06-0.06l-0.42,0.36l-0.42,0.42l-0.3,0.36l0.06-0.06l-0.24,0.48v-0.06l-0.119,0.42l-0.061,0.48v-0.06l0.061,0.42
		v-0.06l0.119,0.48v-0.06l0.24,0.42l0.3,0.42l-0.06-0.06l0.42,0.36l0.42,0.42h-0.06l0.54,0.3l0.54,0.36l1.38,0.54l-0.061-0.06
		l1.5,0.42l1.681,0.24l1.8,0.12H93.24l1.86-0.12l1.68-0.24h-0.06l1.5-0.42v0.06l1.38-0.54h-0.06l0.54-0.36l0.239,0.42l-0.54,0.36
		c-3.907,1.846-10.562,1.85-14.159-0.72l-0.421-0.42h0.061l-0.42-0.36H84.78l-0.3-0.42v-0.06l-0.24-0.42l-0.06-0.06l-0.12-0.48
		L84,49.831v-0.06l0.06-0.48v-0.06l0.12-0.42l0.06-0.06c0.392-1.034,1.575-1.852,2.521-2.34h0.06l1.38-0.54v-0.06l1.5-0.42h0.061
		c3.381-0.735,6.886-0.455,10.02,1.02l0.54,0.3l0.54,0.36h0.061l0.42,0.36l0.42,0.42v0.06l0.3,0.36l0.061,0.06l0.18,0.48
		l0.18,0.42v0.54"/>
	<polyline points="100.081,52.411 100.621,52.111 100.56,52.111 100.98,51.691 101.041,51.691 101.46,51.331 101.4,51.391 
		101.7,50.971 101.7,51.031 101.88,50.611 102.06,50.131 102,50.191 102,49.771 102.48,49.771 102.48,50.311 102.3,50.791 
		102.121,51.211 102.121,51.271 101.82,51.691 101.76,51.691 101.34,52.051 100.86,52.531 100.32,52.831 	"/>
	<path style="fill-rule:evenodd;clip-rule:evenodd;fill:#E6E6E6;" d="M66.24,85.771v-0.48l-0.18-0.42
		c-2.025-4.85-16.211-4.857-17.76,0.42l-0.06,0.48l0.06,0.42c1.47,5.332,15.702,5.307,17.76,0.479l0.18-0.479V85.771"/>
	<path d="M66,85.771v-0.48l0.06,0.12l-0.18-0.42l-0.181-0.48v0.06l-0.3-0.36l-0.42-0.42h0.061l-0.42-0.36v0.06l-0.54-0.36
		l-0.601-0.3h0.061l-1.32-0.54l-1.5-0.42h0.06l-1.68-0.3l-1.86-0.06l-1.8,0.06h0.06l-1.68,0.3l-1.5,0.42h0.06L51,82.831l-0.54,0.3
		l-0.54,0.36l0.06-0.06l-0.42,0.36l-0.42,0.42l-0.3,0.36l0.06-0.06l-0.24,0.48v-0.06l-0.12,0.42l-0.06,0.48v-0.06l0.06,0.42v-0.06
		l0.12,0.48v-0.06l0.24,0.42l0.3,0.42l-0.06-0.06l0.42,0.42l0.42,0.36h-0.06l0.54,0.3l0.54,0.36l1.38,0.54l-0.06-0.06l1.5,0.42
		l1.68,0.24l1.8,0.12h-0.06l1.86-0.12l1.68-0.24h-0.06l1.5-0.42v0.06l1.32-0.54H63.48l0.601-0.36l0.239,0.42l-0.6,0.36
		c-3.561,1.788-10.108,1.802-13.5-0.36l-0.54-0.3v-0.06l-0.42-0.36H49.2l-0.42-0.42l-0.3-0.42v-0.06l-0.24-0.42l-0.06-0.06
		l-0.12-0.48L48,85.831v-0.06l0.06-0.48v-0.06c0.317-1.321,1.55-2.221,2.7-2.82h0.06l1.38-0.54v-0.06l1.5-0.42h0.06
		c3.304-0.715,6.909-0.485,9.96,1.02l0.6,0.3l0.54,0.36h0.061l0.42,0.36l0.42,0.42v0.06l0.3,0.36l0.061,0.06l0.18,0.48l0.18,0.42
		v0.54"/>
	<polyline points="64.081,88.411 64.621,88.111 65.041,87.751 64.98,87.751 65.4,87.331 65.4,87.391 65.7,86.971 65.7,87.031 
		65.88,86.611 66.06,86.131 66,86.191 66,85.771 66.48,85.771 66.48,86.311 66.3,86.791 66.121,87.211 66.121,87.271 
		65.82,87.691 65.76,87.691 65.34,88.111 64.92,88.471 64.86,88.531 64.32,88.831 	"/>
	<rect x="57" y="54.031" width="0.48" height="0.24"/>
	<rect x="57" y="54.271" width="0.48" height="27.24"/>
	<text transform="matrix(1 0 0 1 8.6401 53.5513)"><tspan x="0" y="0" style="font-family:'ProductusBook'; font-size:7.98;"> </tspan><tspan x="1.564" y="0" style="font-family:'ProductusBook'; font-size:7.98;">US</tspan><tspan x="9.959" y="0" style="font-family:'ProductusBook'; font-size:7.98;">B</tspan><tspan x="13.502" y="0" style="font-family:'ProductusBook'; font-size:7.98;"> </tspan><tspan x="15.122" y="0" style="font-family:'ProductusBook'; font-size:7.98;">M</tspan><tspan x="21.003" y="0" style="font-family:'ProductusBook'; font-size:7.98;">o</tspan><tspan x="24.786" y="0" style="font-family:'ProductusBook'; font-size:7.98;">u</tspan><tspan x="28.496" y="0" style="font-family:'ProductusBook'; font-size:7.98;">se</tspan></text>
	<path style="fill-rule:evenodd;clip-rule:evenodd;fill:#E6E6E6;" d="M66.24,49.771v-0.48l-0.18-0.42
		c-1.988-4.818-16.237-4.837-17.76,0.42l-0.06,0.48l0.06,0.48c1.617,5.293,15.678,5.272,17.76,0.42l0.18-0.42V49.771"/>
	<path d="M66,49.771v-0.48l0.06,0.12l-0.36-0.84v0.06l-0.3-0.42l-0.42-0.42h0.061l-0.42-0.36v0.06l-0.54-0.36l-0.601-0.3h0.061
		l-1.32-0.54l-1.5-0.42h0.06l-1.68-0.24l-1.86-0.12h0.06l-1.8,0.12l-1.68,0.24l-1.5,0.42h0.06L51,46.831l-0.54,0.3l-0.54,0.36
		l0.06-0.06l-0.42,0.36l-0.42,0.42h0.06l-0.3,0.42v-0.06l-0.24,0.42v-0.06l-0.12,0.42l-0.06,0.48v-0.06l0.06,0.48v-0.06l0.12,0.42
		v-0.06l0.24,0.42l0.3,0.42l-0.06-0.06l0.42,0.42l0.42,0.36h-0.06l0.54,0.36l0.54,0.3l1.38,0.54l-0.06-0.06l1.5,0.42l1.68,0.3
		h-0.06l1.8,0.06l1.86-0.06l1.68-0.3h-0.06l1.5-0.42v0.06l1.32-0.54H63.48l0.601-0.3l0.239,0.42l-0.6,0.3
		c-4.004,1.894-9.609,1.782-13.5-0.3l-0.54-0.36v-0.06l-0.42-0.36H49.2l-0.42-0.42l-0.3-0.42v-0.06l-0.24-0.42l-0.06-0.06
		l-0.12-0.42L48,49.831v-0.06l0.06-0.48v-0.06c0.362-1.336,1.514-2.207,2.7-2.82h0.06l1.38-0.54v-0.06l1.5-0.42h0.06
		c3.275-0.628,6.947-0.487,9.96,1.02l0.6,0.3l0.54,0.36h0.061l0.42,0.36l0.42,0.42l0.06,0.06l0.301,0.42v0.06l0.359,0.84v0.54"/>
	<polyline points="64.081,52.471 64.621,52.111 65.041,51.751 64.98,51.751 65.4,51.331 65.4,51.391 65.7,50.971 65.7,51.031 
		65.88,50.611 66.06,50.191 66,50.251 66,49.771 66.48,49.771 66.48,50.371 66.121,51.211 66.121,51.271 65.82,51.691 
		65.76,51.691 65.34,52.111 64.92,52.471 64.86,52.531 64.32,52.891 	"/>
	<path style="fill-rule:evenodd;clip-rule:evenodd;fill:#E6E6E6;" d="M138.24,49.771v-0.48l-0.18-0.42
		c-2.012-4.849-16.186-4.865-17.76,0.42l-0.061,0.48l0.061,0.42c1.538,5.339,15.666,5.311,17.76,0.479l0.18-0.479V49.771"/>
	<path d="M138,49.771v-0.48l0.06,0.12l-0.18-0.42l-0.181-0.48v0.06l-0.3-0.36l-0.42-0.42h0.061l-0.42-0.36v0.06l-0.54-0.36
		l-0.54-0.3h0.06l-1.38-0.54l-1.5-0.42h0.06l-1.68-0.3l-1.86-0.06l-1.8,0.06h0.061l-1.681,0.3l-1.5,0.42h0.061l-1.38,0.54
		l-0.54,0.3l-0.54,0.36l0.06-0.06l-0.42,0.36l-0.42,0.42l-0.3,0.36l0.06-0.06l-0.18,0.48l-0.18,0.42v-0.06l-0.061,0.48v-0.06
		l0.061,0.42v-0.06l0.18,0.48l0.18,0.42v-0.06l0.3,0.42l-0.06-0.06l0.42,0.36l0.42,0.42h-0.06l0.54,0.3l0.54,0.36l1.38,0.54
		l-0.061-0.06l1.5,0.42l1.681,0.24l1.8,0.12h-0.061l1.86-0.12l1.68-0.24h-0.06l1.5-0.42v0.06l1.38-0.54h-0.06l0.54-0.36
		l0.239,0.42l-0.54,0.36c-3.907,1.846-10.562,1.85-14.159-0.72l-0.421-0.42h0.061l-0.42-0.36h-0.061l-0.3-0.42v-0.06l-0.18-0.42
		l-0.18-0.48l-0.061-0.06l-0.06-0.42v-0.06l0.06-0.48l0.061-0.06l0.18-0.42l0.18-0.48v-0.06l0.3-0.36v-0.06l0.42-0.42h0.061
		l0.42-0.36l0.54-0.36l0.54-0.3h0.06l1.38-0.54v-0.06l1.5-0.42h0.061c3.381-0.735,6.886-0.455,10.02,1.02l0.54,0.3l0.54,0.36
		h0.061l0.42,0.36l0.42,0.42v0.06l0.3,0.36l0.061,0.06l0.18,0.48l0.18,0.42v0.54"/>
	<polyline points="136.081,52.411 136.621,52.111 136.56,52.111 136.98,51.691 137.041,51.691 137.46,51.331 137.4,51.391 
		137.7,50.971 137.7,51.031 137.88,50.611 138.06,50.131 138,50.191 138,49.771 138.48,49.771 138.48,50.311 138.3,50.791 
		138.121,51.211 138.121,51.271 137.82,51.691 137.76,51.691 137.34,52.051 136.86,52.531 136.32,52.831 	"/>
	<rect x="93" y="54.031" width="0.479" height="0.24"/>
	<rect x="93" y="54.271" width="0.479" height="27.24"/>
	<path style="fill-rule:evenodd;clip-rule:evenodd;fill:#1A1A1A;" d="M138.24,85.771v-0.48l-0.18-0.42
		c-2.012-4.849-16.186-4.865-17.76,0.42l-0.061,0.48l0.061,0.42c1.552,5.355,15.665,5.31,17.76,0.479l0.18-0.479V85.771"/>
	<path d="M138,85.771v-0.48l0.06,0.12l-0.18-0.42l-0.181-0.48v0.06l-0.3-0.36l-0.42-0.42h0.061l-0.42-0.36v0.06l-0.54-0.36
		l-0.54-0.3h0.06l-1.38-0.54l-1.5-0.42h0.06l-1.68-0.3l-1.86-0.06l-1.8,0.06h0.061l-1.681,0.3l-1.5,0.42h0.061l-1.38,0.54
		l-0.54,0.3l-0.54,0.36l0.06-0.06l-0.42,0.36l-0.42,0.42l-0.3,0.36l0.06-0.06l-0.18,0.48l-0.18,0.42v-0.06l-0.061,0.48v-0.06
		l0.061,0.42v-0.06l0.18,0.48l0.18,0.42v-0.06l0.3,0.42l-0.06-0.06l0.42,0.42l0.42,0.36h-0.06l0.54,0.3l0.54,0.36l1.38,0.54
		l-0.061-0.06l1.5,0.42l1.681,0.24l1.8,0.12h-0.061l1.86-0.12l1.68-0.24h-0.06l1.5-0.42v0.06l1.38-0.54h-0.06l0.54-0.36
		l0.239,0.42l-0.54,0.36c-3.675,1.762-10.073,1.831-13.56-0.36l-0.54-0.3v-0.06l-0.42-0.36H121.2l-0.42-0.42l-0.3-0.42v-0.06
		l-0.18-0.42l-0.18-0.48l-0.061-0.06l-0.06-0.42v-0.06l0.06-0.48l0.061-0.06l0.18-0.42l0.18-0.48v-0.06l0.3-0.36v-0.06l0.42-0.42
		h0.061l0.42-0.36l0.54-0.36l0.54-0.3h0.06l1.38-0.54v-0.06l1.5-0.42h0.061c3.381-0.735,6.886-0.455,10.02,1.02l0.54,0.3
		l0.54,0.36h0.061l0.42,0.36l0.42,0.42v0.06l0.3,0.36l0.061,0.06l0.18,0.48l0.18,0.42v0.54"/>
	<polyline points="136.081,88.411 136.621,88.111 137.041,87.751 136.98,87.751 137.4,87.331 137.4,87.391 137.7,86.971 
		137.7,87.031 137.88,86.611 138.06,86.131 138,86.191 138,85.771 138.48,85.771 138.48,86.311 138.3,86.791 138.121,87.211 
		138.121,87.271 137.82,87.691 137.76,87.691 137.34,88.111 136.92,88.471 136.86,88.531 136.32,88.831 	"/>
	<path style="fill-rule:evenodd;clip-rule:evenodd;fill:#E6E6E6;" d="M102.24,4.771v-0.48l-0.18-0.42
		c-2.009-4.859-16.22-4.851-17.76,0.42l-0.061,0.48l0.061,0.42c1.432,5.266,15.625,5.37,17.76,0.479l0.18-0.479V4.771"/>
	<path d="M102,4.771v-0.48l0.06,0.12l-0.18-0.42l-0.181-0.48v0.06l-0.3-0.36l-0.42-0.42h0.061l-0.42-0.36v0.06l-0.54-0.36
		l-0.54-0.3h0.06l-1.38-0.54l-1.5-0.42h0.06l-1.68-0.3l-1.86-0.06l-1.8,0.06H91.5l-1.681,0.3l-1.5,0.42h0.061L87,1.831l-0.54,0.3
		l-0.54,0.36l0.06-0.06l-0.42,0.36l-0.42,0.42l-0.3,0.36l0.06-0.06l-0.24,0.48v-0.06l-0.119,0.42l-0.061,0.48v-0.06l0.061,0.42
		v-0.06l0.119,0.48v-0.06l0.24,0.42l0.3,0.42l-0.06-0.06l0.42,0.36l0.42,0.42h-0.06l0.54,0.3L87,7.771l1.38,0.54l-0.061-0.06
		l1.5,0.42l1.681,0.24l1.8,0.12H93.24l1.86-0.12l1.68-0.24h-0.06l1.5-0.42v0.06l1.38-0.54h-0.06l0.54-0.36l0.239,0.42l-0.54,0.36
		c-3.907,1.846-10.562,1.85-14.159-0.72L85.2,7.051h0.061l-0.42-0.36H84.78l-0.3-0.42v-0.06l-0.24-0.42l-0.06-0.06l-0.12-0.48
		L84,4.831v-0.06l0.06-0.48v-0.06l0.12-0.42l0.06-0.06c0.391-1.033,1.575-1.853,2.521-2.34h0.06l1.38-0.54v-0.06l1.5-0.42h0.061
		c3.381-0.735,6.886-0.455,10.02,1.02l0.54,0.3l0.54,0.36h0.061l0.42,0.36l0.42,0.42v0.06l0.3,0.36l0.061,0.06l0.18,0.48
		l0.18,0.42v0.54"/>
	<polyline points="100.081,7.411 100.621,7.111 100.56,7.111 100.98,6.691 101.041,6.691 101.46,6.331 101.4,6.391 101.7,5.971 
		101.7,6.031 101.88,5.611 102.06,5.131 102,5.191 102,4.771 102.48,4.771 102.48,5.311 102.3,5.791 102.121,6.211 102.121,6.271 
		101.82,6.691 101.76,6.691 101.34,7.051 100.86,7.531 100.32,7.831 	"/>
	<polyline points="56.34,45.091 56.16,45.211 56.4,45.631 56.58,45.511 	"/>
	<polyline points="92.34,27.091 92.52,26.971 92.76,27.391 92.581,27.511 	"/>
	<polyline points="56.34,45.091 56.58,45.511 92.581,27.511 92.34,27.091 	"/>
	<rect x="93" y="45.271" width="0.479" height="0.24"/>
	<rect x="93" y="9.031" width="0.479" height="36.24"/>
	<polyline points="129.121,45.511 129.3,45.631 129.541,45.211 129.36,45.091 	"/>
	<polyline points="93.121,27.511 92.94,27.391 93.18,26.971 93.36,27.091 	"/>
	<polyline points="129.121,45.511 129.36,45.091 93.36,27.091 93.121,27.511 	"/>
	<text transform="matrix(1 0 0 1 115.4399 24.5713)"><tspan x="0" y="0" style="font-family:'ProductusSemibold'; font-size:7.98;">M</tspan><tspan x="6.719" y="0" style="font-family:'ProductusSemibold'; font-size:7.98;">ul</tspan><tspan x="13.127" y="0" style="font-family:'ProductusSemibold'; font-size:7.98;">t</tspan><tspan x="16.247" y="0" style="font-family:'ProductusSemibold'; font-size:7.98;">i</tspan><tspan x="18.449" y="0" style="font-family:'ProductusSemibold'; font-size:7.98;">p</tspan><tspan x="22.702" y="0" style="font-family:'ProductusSemibold'; font-size:7.98;">le</tspan><tspan x="29.062" y="0" style="font-family:'ProductusSemibold'; font-size:7.98;">x</tspan><tspan x="32.956" y="0" style="font-family:'ProductusSemibold'; font-size:7.98;">i</tspan><tspan x="35.111" y="0" style="font-family:'ProductusSemibold'; font-size:7.98;">n</tspan><tspan x="39.412" y="0" style="font-family:'ProductusSemibold'; font-size:7.98;">g</tspan><tspan x="43.426" y="0" style="font-family:'ProductusSemibold'; font-size:7.98;"> </tspan><tspan x="45.405" y="0" style="font-family:'ProductusSemibold'; font-size:7.98;">Dr</tspan><tspan x="53.832" y="0" style="font-family:'ProductusSemibold'; font-size:7.98;">i</tspan><tspan x="55.986" y="0" style="font-family:'ProductusSemibold'; font-size:7.98;">v</tspan><tspan x="59.88" y="0" style="font-family:'ProductusSemibold'; font-size:7.98;">e</tspan><tspan x="64.038" y="0" style="font-family:'ProductusSemibold'; font-size:7.98;">r</tspan></text>
	<text transform="matrix(1 0 0 1 0 8.5513)"><tspan x="0" y="0" style="font-family:'ProductusBook'; font-size:7.98;">C</tspan><tspan x="4.245" y="0" style="font-family:'ProductusBook'; font-size:7.98;">u</tspan><tspan x="7.908" y="0" style="font-family:'ProductusBook'; font-size:7.98;">r</tspan><tspan x="10.182" y="0" style="font-family:'ProductusBook'; font-size:7.98;">so</tspan><tspan x="16.782" y="0" style="font-family:'ProductusBook'; font-size:7.98;">r</tspan><tspan x="19.056" y="0" style="font-family:'ProductusBook'; font-size:7.98;"> </tspan><tspan x="20.676" y="0" style="font-family:'ProductusBook'; font-size:7.98;">P</tspan><tspan x="23.812" y="0" style="font-family:'ProductusBook'; font-size:7.98;">os</tspan><tspan x="30.411" y="0" style="font-family:'ProductusBook'; font-size:7.98;">i</tspan><tspan x="32.023" y="0" style="font-family:'ProductusBook'; font-size:7.98;">t</tspan><tspan x="34.369" y="0" style="font-family:'ProductusBook'; font-size:7.98;">i</tspan><tspan x="35.934" y="0" style="font-family:'ProductusBook'; font-size:7.98;">o</tspan><tspan x="39.772" y="0" style="font-family:'ProductusBook'; font-size:7.98;">n</tspan></text>
	<rect x="128.22" y="54.031" width="0.479" height="0.24"/>
	<rect x="128.22" y="54.271" width="0.479" height="27.24"/>
	<text transform="matrix(1 0 0 1 95.52 62.5513)"><tspan x="0" y="0" style="font-family:'ProductusBook'; font-size:7.98;"> </tspan><tspan x="1.564" y="0" style="font-family:'ProductusBook'; font-size:7.98;">R</tspan><tspan x="4.987" y="0" style="font-family:'ProductusBook'; font-size:7.98;">e</tspan><tspan x="8.522" y="0" style="font-family:'ProductusBook'; font-size:7.98;">mo</tspan><tspan x="18.059" y="0" style="font-family:'ProductusBook'; font-size:7.98;">t</tspan><tspan x="20.404" y="0" style="font-family:'ProductusBook'; font-size:7.98;">e</tspan></text>
	<text transform="matrix(1 0 0 1 97.8003 72.751)"><tspan x="0" y="0" style="font-family:'ProductusBook'; font-size:7.98;">C</tspan><tspan x="4.205" y="0" style="font-family:'ProductusBook'; font-size:7.98;">o</tspan><tspan x="7.988" y="0" style="font-family:'ProductusBook'; font-size:7.98;">n</tspan><tspan x="11.65" y="0" style="font-family:'ProductusBook'; font-size:7.98;">t</tspan><tspan x="14.045" y="0" style="font-family:'ProductusBook'; font-size:7.98;">r</tspan><tspan x="16.319" y="0" style="font-family:'ProductusBook'; font-size:7.98;">ol</tspan></text>
	<text transform="matrix(1 0 0 1 149.8804 53.5513)"><tspan x="0" y="0" style="font-family:'ProductusBook'; font-size:7.98;">Gra</tspan><tspan x="10.318" y="0" style="font-family:'ProductusBook'; font-size:7.98;">p</tspan><tspan x="14.036" y="0" style="font-family:'ProductusBook'; font-size:7.98;">hi</tspan><tspan x="19.264" y="0" style="font-family:'ProductusBook'; font-size:7.98;">c</tspan><tspan x="22.384" y="0" style="font-family:'ProductusBook'; font-size:7.98;"> </tspan><tspan x="23.995" y="0" style="font-family:'ProductusBook'; font-size:7.98;">T</tspan><tspan x="27.123" y="0" style="font-family:'ProductusBook'; font-size:7.98;">a</tspan><tspan x="30.427" y="0" style="font-family:'ProductusBook'; font-size:7.98;">b</tspan><tspan x="34.146" y="0" style="font-family:'ProductusBook'; font-size:7.98;">l</tspan><tspan x="35.71" y="0" style="font-family:'ProductusBook'; font-size:7.98;">e</tspan><tspan x="39.205" y="0" style="font-family:'ProductusBook'; font-size:7.98;">t</tspan></text>
	<text transform="matrix(1 0 0 1 44.9399 103.4111)"><tspan x="0" y="0" style="font-family:'ProductusBook'; font-size:7.98;">USB</tspan><tspan x="11.898" y="0" style="font-family:'ProductusBook'; font-size:7.98;"> </tspan><tspan x="13.462" y="0" style="font-family:'ProductusBook'; font-size:7.98;">Net</tspan><tspan x="24.051" y="0" style="font-family:'ProductusBook'; font-size:7.98;">w</tspan><tspan x="29.095" y="0" style="font-family:'ProductusBook'; font-size:7.98;">or</tspan><tspan x="35.144" y="0" style="font-family:'ProductusBook'; font-size:7.98; letter-spacing:32;">k</tspan><tspan x="70.718" y="0" style="font-family:'ProductusBook'; font-size:7.98;">S</tspan><tspan x="74.437" y="0" style="font-family:'ProductusBook'; font-size:7.98;">erial</tspan><tspan x="86.646" y="0" style="font-family:'ProductusBook'; font-size:7.98;"> </tspan><tspan x="88.266" y="0" style="font-family:'ProductusBook'; font-size:7.98;">P</tspan><tspan x="91.45" y="0" style="font-family:'ProductusBook'; font-size:7.98;">ort</tspan></text>
</svg>
