<?xml version="1.0" encoding="utf-8"?>
<!-- Generator: Adobe Illustrator 16.0.1, SVG Export Plug-In . SVG Version: 6.00 Build 0)  -->
<!DOCTYPE svg PUBLIC "-//W3C//DTD SVG 1.1//EN" "http://www.w3.org/Graphics/SVG/1.1/DTD/svg11.dtd">
<svg version="1.1" id="Layer_1" xmlns="http://www.w3.org/2000/svg" xmlns:xlink="http://www.w3.org/1999/xlink" x="0px" y="0px"
	 width="191.463px" height="105.757px" viewBox="0 0 191.463 105.757" enable-background="new 0 0 191.463 105.757"
	 xml:space="preserve">
<path fill="#E6E6E6" d="M102.24,49.771v-0.48l-0.181-0.42c-2.009-4.859-16.22-4.851-17.76,0.42l-0.061,0.48l0.061,0.42
	c1.432,5.266,15.625,5.37,17.76,0.479l0.181-0.479V49.771"/>
<path d="M102,49.771v-0.48l0.06,0.12l-0.18-0.42l-0.181-0.48v0.06l-0.3-0.36l-0.42-0.42h0.061l-0.42-0.36v0.06l-0.54-0.36l-0.54-0.3
	h0.061l-1.381-0.54l-1.5-0.42h0.061l-1.68-0.3l-1.86-0.06l-1.8,0.06h0.06l-1.681,0.3l-1.5,0.42h0.061L87,46.831l-0.54,0.3
	l-0.54,0.36l0.06-0.06l-0.42,0.36l-0.42,0.42l-0.3,0.36l0.06-0.06l-0.24,0.48v-0.06l-0.119,0.42l-0.061,0.48v-0.06l0.061,0.42v-0.06
	l0.119,0.48v-0.06l0.24,0.42l0.3,0.42l-0.06-0.06l0.42,0.36l0.42,0.42h-0.06l0.54,0.3l0.54,0.36l1.38,0.54l-0.061-0.06l1.5,0.42
	l1.681,0.24l1.8,0.119h-0.06l1.86-0.119l1.68-0.24H96.72l1.5-0.42v0.06l1.381-0.54H99.54l0.54-0.36l0.239,0.42l-0.541,0.36
	c-3.906,1.846-10.562,1.85-14.158-0.72l-0.421-0.42h0.061l-0.42-0.36h-0.06l-0.3-0.42v-0.06l-0.24-0.42l-0.06-0.06l-0.12-0.48
	L84,49.831v-0.06l0.06-0.48v-0.06l0.12-0.42l0.06-0.06c0.392-1.034,1.575-1.852,2.521-2.34h0.06l1.38-0.54v-0.06l1.5-0.42h0.061
	c3.381-0.735,6.885-0.455,10.02,1.02l0.539,0.3l0.541,0.36h0.061l0.42,0.36l0.42,0.42v0.06l0.301,0.36l0.061,0.06l0.18,0.48
	l0.18,0.42v0.54"/>
<polyline points="100.081,52.411 100.621,52.111 100.56,52.111 100.979,51.691 101.041,51.691 101.46,51.331 101.399,51.391 
	101.7,50.971 101.7,51.031 101.88,50.611 102.06,50.131 102,50.191 102,49.771 102.479,49.771 102.479,50.311 102.3,50.791 
	102.121,51.211 102.121,51.271 101.819,51.691 101.76,51.691 101.34,52.051 100.86,52.531 100.319,52.831 "/>
<path fill="#E6E6E6" d="M66.24,85.771v-0.48l-0.18-0.42c-2.025-4.85-16.211-4.856-17.76,0.42l-0.06,0.48l0.06,0.42
	c1.47,5.332,15.702,5.307,17.76,0.479l0.18-0.479V85.771"/>
<path d="M66,85.771v-0.48l0.06,0.121l-0.18-0.42l-0.181-0.48v0.06l-0.3-0.36l-0.42-0.42h0.061l-0.42-0.359v0.061l-0.54-0.361
	l-0.601-0.299h0.061l-1.32-0.541l-1.5-0.42h0.06l-1.68-0.3l-1.86-0.06l-1.8,0.06h0.06l-1.68,0.3l-1.5,0.42h0.06L51,82.832
	l-0.54,0.299l-0.54,0.361l0.06-0.061l-0.42,0.359l-0.42,0.42l-0.3,0.36l0.06-0.06l-0.24,0.48v-0.061l-0.12,0.42l-0.06,0.48v-0.061
	l0.06,0.42V86.13l0.12,0.48V86.55l0.24,0.421l0.3,0.42l-0.06-0.06l0.42,0.42l0.42,0.359h-0.06l0.54,0.301L51,88.771l1.38,0.54
	l-0.06-0.06l1.5,0.42l1.68,0.24l1.8,0.119h-0.06l1.86-0.119l1.68-0.24h-0.06l1.5-0.42v0.06l1.32-0.54h-0.06l0.601-0.359l0.239,0.42
	l-0.6,0.359c-3.561,1.788-10.108,1.803-13.5-0.359l-0.54-0.301v-0.06l-0.42-0.36H49.2l-0.42-0.42l-0.3-0.42V87.21l-0.24-0.42
	l-0.06-0.06l-0.12-0.479L48,85.832v-0.061l0.06-0.48v-0.06c0.317-1.321,1.55-2.222,2.7-2.819h0.06l1.38-0.541v-0.06l1.5-0.42h0.06
	c3.304-0.716,6.909-0.485,9.96,1.021l0.6,0.299l0.54,0.36h0.061l0.42,0.36l0.42,0.42v0.061l0.3,0.359l0.061,0.061l0.18,0.479
	l0.18,0.42v0.54"/>
<polyline points="64.081,88.412 64.621,88.111 65.041,87.751 64.98,87.751 65.4,87.332 65.4,87.391 65.7,86.971 65.7,87.031 
	65.88,86.611 66.06,86.13 66,86.191 66,85.771 66.48,85.771 66.48,86.311 66.3,86.791 66.121,87.21 66.121,87.271 65.82,87.691 
	65.76,87.691 65.34,88.111 64.92,88.471 64.86,88.531 64.32,88.832 "/>
<rect x="57" y="54.031" width="0.48" height="0.24"/>
<rect x="57" y="54.271" width="0.48" height="27.24"/>
<text transform="matrix(1 0 0 1 8.6401 53.5503)" font-family="'ProductusBook'" font-size="7.98"> USB Mouse</text>
<path fill="#E6E6E6" d="M66.24,49.771v-0.48l-0.18-0.42c-1.988-4.818-16.237-4.837-17.76,0.42l-0.06,0.48l0.06,0.48
	c1.617,5.293,15.678,5.272,17.76,0.42l0.18-0.42V49.771"/>
<path d="M66,49.771v-0.48l0.06,0.12l-0.36-0.84v0.06l-0.3-0.42l-0.42-0.42h0.061l-0.42-0.36v0.06l-0.54-0.36l-0.601-0.3h0.061
	l-1.32-0.54l-1.5-0.42h0.06l-1.68-0.24l-1.86-0.12h0.06l-1.8,0.12l-1.68,0.24l-1.5,0.42h0.06L51,46.831l-0.54,0.3l-0.54,0.36
	l0.06-0.06l-0.42,0.36l-0.42,0.42h0.06l-0.3,0.42v-0.06l-0.24,0.42v-0.06l-0.12,0.42l-0.06,0.48v-0.06l0.06,0.48v-0.06l0.12,0.42
	v-0.06l0.24,0.42l0.3,0.42l-0.06-0.06l0.42,0.42l0.42,0.36h-0.06l0.54,0.36l0.54,0.3l1.38,0.54l-0.06-0.06l1.5,0.42l1.68,0.299
	h-0.06l1.8,0.061l1.86-0.061l1.68-0.299h-0.06l1.5-0.42v0.06l1.32-0.54h-0.06l0.601-0.3l0.239,0.42l-0.6,0.3
	c-4.004,1.895-9.609,1.782-13.5-0.3l-0.54-0.36v-0.061l-0.42-0.36H49.2l-0.42-0.42l-0.3-0.42v-0.06l-0.24-0.42l-0.06-0.06
	l-0.12-0.42L48,49.831v-0.06l0.06-0.48v-0.06c0.362-1.336,1.514-2.207,2.7-2.82h0.06l1.38-0.54v-0.06l1.5-0.42h0.06
	c3.275-0.628,6.947-0.487,9.96,1.02l0.6,0.3l0.54,0.36h0.061l0.42,0.36l0.42,0.42l0.06,0.06l0.301,0.42v0.06l0.359,0.84v0.54"/>
<polyline points="64.081,52.471 64.621,52.111 65.041,51.751 64.98,51.751 65.4,51.331 65.4,51.391 65.7,50.971 65.7,51.031 
	65.88,50.611 66.06,50.191 66,50.251 66,49.771 66.48,49.771 66.48,50.371 66.121,51.211 66.121,51.271 65.82,51.691 65.76,51.691 
	65.34,52.111 64.92,52.471 64.86,52.531 64.32,52.891 "/>
<path fill="#E6E6E6" d="M138.24,49.771v-0.48l-0.181-0.42c-2.012-4.849-16.186-4.865-17.76,0.42l-0.061,0.48l0.061,0.42
	c1.538,5.34,15.666,5.311,17.76,0.479l0.181-0.479V49.771"/>
<path d="M138,49.771v-0.48l0.06,0.12l-0.18-0.42l-0.181-0.48v0.06l-0.3-0.36l-0.42-0.42h0.061l-0.42-0.36v0.06l-0.54-0.36l-0.54-0.3
	h0.061l-1.381-0.54l-1.5-0.42h0.061l-1.68-0.3l-1.86-0.06l-1.8,0.06h0.061l-1.682,0.3l-1.5,0.42h0.062l-1.38,0.54l-0.54,0.3
	l-0.54,0.36l0.061-0.06l-0.42,0.36l-0.42,0.42l-0.301,0.36l0.061-0.06l-0.18,0.48l-0.181,0.42v-0.06l-0.062,0.48v-0.06l0.062,0.42
	v-0.06l0.181,0.48l0.18,0.42v-0.06l0.3,0.42l-0.06-0.06l0.42,0.36l0.42,0.42h-0.061l0.54,0.3l0.54,0.36l1.38,0.54l-0.062-0.06
	l1.5,0.42l1.682,0.24l1.8,0.119h-0.061l1.86-0.119l1.68-0.24h-0.061l1.5-0.42v0.06l1.381-0.54h-0.061l0.54-0.36l0.239,0.42
	l-0.541,0.36c-3.906,1.846-10.562,1.85-14.158-0.72l-0.421-0.42h0.061l-0.42-0.36h-0.062l-0.299-0.42v-0.06l-0.181-0.42l-0.18-0.48
	l-0.062-0.06l-0.06-0.42v-0.06l0.06-0.48l0.062-0.06l0.18-0.42l0.181-0.48v-0.06l0.299-0.36v-0.06l0.421-0.42h0.061l0.421-0.36
	l0.539-0.36l0.54-0.3h0.06l1.381-0.54v-0.06l1.5-0.42h0.061c3.381-0.735,6.887-0.455,10.021,1.02l0.54,0.3l0.539,0.36h0.062
	l0.42,0.36l0.421,0.42v0.06l0.299,0.36l0.062,0.06l0.181,0.48l0.18,0.42v0.54"/>
<polyline points="136.081,52.411 136.621,52.111 136.56,52.111 136.979,51.691 137.041,51.691 137.46,51.331 137.399,51.391 
	137.7,50.971 137.7,51.031 137.88,50.611 138.06,50.131 138,50.191 138,49.771 138.479,49.771 138.479,50.311 138.3,50.791 
	138.121,51.211 138.121,51.271 137.819,51.691 137.76,51.691 137.34,52.051 136.86,52.531 136.319,52.831 "/>
<rect x="93" y="54.031" width="0.479" height="0.24"/>
<rect x="93" y="54.271" width="0.479" height="27.24"/>
<path fill="#1A1A1A" d="M138.24,85.771v-0.48l-0.181-0.42c-2.012-4.849-16.186-4.865-17.76,0.42l-0.061,0.48l0.061,0.42
	c1.553,5.355,15.665,5.311,17.76,0.479l0.181-0.479V85.771"/>
<path d="M138,85.771v-0.48l0.06,0.121l-0.18-0.42l-0.181-0.48v0.06l-0.3-0.36l-0.42-0.42h0.061l-0.42-0.359v0.061l-0.54-0.361
	l-0.54-0.299h0.061l-1.381-0.541l-1.5-0.42h0.061l-1.68-0.3l-1.86-0.06l-1.8,0.06h0.061l-1.682,0.3l-1.5,0.42h0.062l-1.38,0.541
	l-0.54,0.299l-0.54,0.361l0.061-0.061l-0.42,0.359l-0.42,0.42l-0.301,0.36l0.061-0.06l-0.18,0.48l-0.181,0.42v-0.061l-0.062,0.48
	v-0.061l0.062,0.42V86.13l0.181,0.48l0.18,0.42v-0.06l0.3,0.42l-0.06-0.06l0.42,0.42l0.42,0.359h-0.061l0.54,0.301l0.54,0.359
	l1.38,0.54l-0.062-0.06l1.5,0.42l1.682,0.24l1.8,0.119h-0.061l1.86-0.119l1.68-0.24h-0.061l1.5-0.42v0.06l1.381-0.54h-0.061
	l0.54-0.359l0.239,0.42l-0.541,0.359c-3.674,1.762-10.072,1.831-13.559-0.359l-0.541-0.301v-0.06l-0.42-0.36H121.2l-0.42-0.42
	l-0.301-0.42V87.21l-0.18-0.42l-0.18-0.479l-0.061-0.06l-0.061-0.42v-0.061l0.061-0.48l0.061-0.06l0.18-0.42l0.18-0.479v-0.061
	l0.301-0.359v-0.061l0.42-0.42h0.061l0.42-0.359l0.541-0.361l0.539-0.299h0.061l1.38-0.541v-0.06l1.5-0.42h0.062
	c3.381-0.735,6.885-0.455,10.02,1.021l0.539,0.299l0.541,0.361h0.061l0.42,0.359l0.42,0.42v0.061l0.301,0.359l0.061,0.061
	l0.18,0.479l0.18,0.42v0.54"/>
<polyline points="136.081,88.412 136.621,88.111 137.041,87.751 136.979,87.751 137.399,87.332 137.399,87.391 137.7,86.971 
	137.7,87.031 137.88,86.611 138.06,86.13 138,86.191 138,85.771 138.479,85.771 138.479,86.311 138.3,86.791 138.121,87.21 
	138.121,87.271 137.819,87.691 137.76,87.691 137.34,88.111 136.92,88.471 136.86,88.531 136.319,88.832 "/>
<path fill="#E6E6E6" d="M102.24,4.771v-0.48l-0.181-0.42c-2.009-4.859-16.22-4.851-17.76,0.42l-0.061,0.48l0.061,0.42
	c1.432,5.266,15.625,5.37,17.76,0.479l0.181-0.479V4.771"/>
<path d="M102,4.771v-0.48l0.06,0.12l-0.18-0.42l-0.181-0.48v0.06l-0.3-0.36l-0.42-0.42h0.061l-0.42-0.36v0.06l-0.54-0.36l-0.54-0.3
	h0.061l-1.381-0.54l-1.5-0.42h0.061l-1.68-0.3l-1.86-0.06l-1.8,0.06h0.06l-1.681,0.3l-1.5,0.42h0.061L87,1.831l-0.54,0.3l-0.54,0.36
	l0.06-0.06l-0.42,0.36l-0.42,0.42l-0.3,0.36l0.06-0.06l-0.24,0.48v-0.06l-0.119,0.42l-0.061,0.48v-0.06l0.061,0.42v-0.06l0.119,0.48
	v-0.06l0.24,0.42l0.3,0.42l-0.06-0.06l0.42,0.36l0.42,0.42h-0.06l0.54,0.3L87,7.771l1.38,0.54l-0.061-0.06l1.5,0.42l1.681,0.24
	l1.8,0.12h-0.06l1.86-0.12l1.68-0.24H96.72l1.5-0.42v0.06l1.381-0.54H99.54l0.54-0.36l0.239,0.42l-0.541,0.36
	c-3.906,1.846-10.562,1.85-14.158-0.72l-0.42-0.42h0.061l-0.42-0.36H84.78l-0.3-0.42v-0.06l-0.24-0.42l-0.06-0.06l-0.12-0.48
	L84,4.831v-0.06l0.06-0.48v-0.06l0.12-0.42l0.06-0.06c0.391-1.033,1.575-1.853,2.521-2.34h0.06l1.38-0.54v-0.06l1.5-0.42h0.061
	c3.381-0.735,6.885-0.455,10.02,1.02l0.539,0.3l0.541,0.36h0.061l0.42,0.36l0.42,0.42v0.06l0.301,0.36l0.061,0.06l0.18,0.48
	l0.18,0.42v0.54"/>
<polyline points="100.081,7.411 100.621,7.111 100.56,7.111 100.979,6.691 101.041,6.691 101.46,6.331 101.399,6.391 101.7,5.971 
	101.7,6.031 101.88,5.611 102.06,5.131 102,5.191 102,4.771 102.479,4.771 102.479,5.311 102.3,5.791 102.121,6.211 102.121,6.271 
	101.819,6.691 101.76,6.691 101.34,7.051 100.86,7.531 100.319,7.831 "/>
<polyline points="56.34,45.091 56.16,45.211 56.4,45.631 56.58,45.511 "/>
<polyline points="92.34,27.091 92.52,26.971 92.76,27.391 92.581,27.511 "/>
<polyline points="56.34,45.091 56.58,45.511 92.581,27.511 92.34,27.091 "/>
<rect x="93" y="45.271" width="0.479" height="0.24"/>
<rect x="93" y="9.031" width="0.479" height="36.24"/>
<polyline points="129.121,45.511 129.3,45.631 129.541,45.211 129.36,45.091 "/>
<polyline points="93.121,27.511 92.94,27.391 93.18,26.971 93.36,27.091 "/>
<polyline points="129.121,45.511 129.36,45.091 93.36,27.091 93.121,27.511 "/>
<text transform="matrix(1 0 0 1 115.4404 24.5708)" font-family="'ProductusSemibold'" font-size="7.98">Multiplexing Driver</text>
<text transform="matrix(1 0 0 1 0 8.5503)" font-family="'ProductusBook'" font-size="7.98">Cursor Position</text>
<rect x="128.22" y="54.031" width="0.479" height="0.24"/>
<rect x="128.22" y="54.271" width="0.479" height="27.24"/>
<text transform="matrix(1 0 0 1 95.52 62.5503)" enable-background="new    "><tspan x="0" y="0" font-family="'ProductusBook'" font-size="7.98"> Remote</tspan><tspan x="0" y="9.576" font-family="'ProductusBook'" font-size="7.98">Control</tspan></text>
<text transform="matrix(1 0 0 1 149.8799 53.5503)" font-family="'ProductusBook'" font-size="7.98">Graphic Tablet</text>
<text transform="matrix(1 0 0 1 44.9399 103.4106)" font-family="'ProductusBook'" font-size="7.98">USB Network</text>
<text transform="matrix(1 0 0 1 115.6572 103.4106)" font-family="'ProductusBook'" font-size="7.98">Serial Port</text>
</svg>
