<?xml version="1.0" encoding="utf-8"?>
<!-- Generator: Adobe Illustrator 16.0.1, SVG Export Plug-In . SVG Version: 6.00 Build 0)  -->
<!DOCTYPE svg PUBLIC "-//W3C//DTD SVG 1.1//EN" "http://www.w3.org/Graphics/SVG/1.1/DTD/svg11.dtd">
<svg version="1.1" id="Layer_1" xmlns="http://www.w3.org/2000/svg" xmlns:xlink="http://www.w3.org/1999/xlink" x="0px" y="0px"
	 width="152.479px" height="72.463px" viewBox="0 0 152.479 72.463" enable-background="new 0 0 152.479 72.463"
	 xml:space="preserve">
<text transform="matrix(1 0 0 1 82.2 13.3198)" font-family="'ProductusSemibold'" font-size="7.98">Pure Consuming Driver</text>
<rect x="61.74" width="0.479" height="0.24"/>
<rect x="61.74" y="0.24" width="0.479" height="27.24"/>
<text transform="matrix(1 0 0 1 -2.441406e-04 33.5991)" font-family="'ProductusBook'" font-size="7.98">USB Serial Port</text>
<path fill="#E6E6E6" d="M70.979,67.74v-0.48l-0.181-0.42c-2.024-4.85-16.211-4.856-17.76,0.42l-0.061,0.48l0.061,0.42
	c1.47,5.332,15.702,5.307,17.76,0.48l0.181-0.48V67.74"/>
<path d="M70.74,67.74v-0.48l0.06,0.121l-0.18-0.42l-0.181-0.48v0.061l-0.3-0.36l-0.421-0.421h0.062L69.36,65.4v0.061l-0.54-0.36
	l-0.602-0.3h0.062l-1.32-0.541l-1.5-0.42h0.061l-1.681-0.299L61.98,63.48l-1.8,0.061h0.061l-1.681,0.299l-1.5,0.42h0.061
	l-1.38,0.541l-0.54,0.3l-0.54,0.36l0.061-0.061l-0.421,0.359l-0.42,0.421l-0.3,0.36l0.061-0.061l-0.24,0.48V66.9l-0.119,0.42
	L53.22,67.8V67.74l0.061,0.42V68.1L53.4,68.58v-0.06l0.24,0.42l0.3,0.42L53.88,69.3l0.42,0.42l0.421,0.359H54.66l0.54,0.301
	l0.54,0.359l1.38,0.541l-0.061-0.061l1.5,0.42l1.681,0.24L62.04,72h-0.061l1.859-0.119l1.681-0.24h-0.061l1.5-0.42v0.061l1.32-0.541
	H68.22l0.601-0.359l0.239,0.42L68.46,71.16c-3.562,1.787-10.107,1.803-13.5-0.359L54.42,70.5v-0.06L54,70.08h-0.061l-0.42-0.42
	l-0.3-0.42v-0.06l-0.24-0.421l-0.061-0.059l-0.12-0.48l-0.06-0.42V67.74l0.06-0.48v-0.059c0.317-1.322,1.551-2.222,2.7-2.82h0.061
	l1.38-0.541v-0.06l1.5-0.42H58.5c3.305-0.715,6.909-0.483,9.96,1.021l0.601,0.3l0.54,0.36h0.061l0.42,0.359l0.42,0.42v0.061
	l0.3,0.359l0.062,0.061l0.18,0.48l0.181,0.42v0.539"/>
<polyline points="68.82,70.38 69.36,70.08 69.78,69.72 69.72,69.72 70.14,69.3 70.14,69.36 70.439,68.94 70.439,69 70.62,68.58 
	70.8,68.1 70.74,68.16 70.74,67.74 71.22,67.74 71.22,68.281 71.04,68.759 70.86,69.18 70.86,69.24 70.56,69.66 70.5,69.66 
	70.08,70.08 69.66,70.44 69.6,70.5 69.06,70.8 "/>
<rect x="61.74" y="36" width="0.479" height="0.24"/>
<rect x="61.74" y="36.24" width="0.479" height="27.24"/>
<text transform="matrix(1 0 0 1 85.9197 52.8599)" font-family="'ProductusBook'" font-size="7.98">USB Base Driver</text>
<text transform="matrix(1 0 0 1 5.3401 69.5991)" font-family="'ProductusBook'" font-size="7.98">USB Network</text>
<path fill="#E6E6E6" d="M70.979,30.96v-0.48l-0.181-0.42c-1.987-4.818-16.236-4.837-17.76,0.42l-0.061,0.48l0.061,0.48
	c1.617,5.293,15.678,5.272,17.76,0.42l0.181-0.42V30.96"/>
<path d="M70.74,30.96v-0.48l0.06,0.12l-0.359-0.84v0.06l-0.3-0.42l-0.42-0.42h0.061l-0.42-0.36v0.06l-0.54-0.36l-0.601-0.3h0.061
	l-1.32-0.54l-1.5-0.42h0.061l-1.681-0.24l-1.859-0.12h0.061l-1.8,0.12l-1.681,0.24l-1.5,0.42h0.061l-1.38,0.54l-0.54,0.3l-0.54,0.36
	l0.061-0.06l-0.421,0.36l-0.42,0.42h0.061l-0.3,0.42v-0.06l-0.24,0.42v-0.06l-0.119,0.42l-0.061,0.48v-0.06l0.061,0.48v-0.06
	l0.119,0.42v-0.06l0.24,0.42l0.3,0.42l-0.061-0.06l0.42,0.42l0.421,0.36h-0.061l0.54,0.36l0.54,0.3l1.38,0.54l-0.061-0.06l1.5,0.42
	l1.681,0.3H60.18l1.8,0.06l1.859-0.06l1.681-0.3H65.46l1.5-0.42v0.06l1.32-0.54h-0.06l0.601-0.3l0.239,0.42l-0.601,0.3
	c-4.004,1.894-9.608,1.782-13.5-0.3l-0.54-0.36v-0.06L54,33.3h-0.061l-0.42-0.42l-0.3-0.42V32.4l-0.24-0.42l-0.061-0.06L52.8,31.5
	l-0.06-0.48v-0.06l0.06-0.48v-0.06c0.362-1.336,1.515-2.207,2.7-2.82h0.061l1.38-0.54V27l1.5-0.42h0.06
	c3.274-0.628,6.947-0.487,9.96,1.02l0.601,0.3l0.54,0.36h0.061l0.42,0.36l0.479,0.48l0.301,0.42v0.06l0.359,0.84v0.54"/>
<polyline points="68.82,33.66 69.36,33.3 69.78,32.94 69.72,32.94 70.14,32.52 70.14,32.58 70.439,32.16 70.439,32.22 70.8,31.38 
	70.74,31.44 70.74,30.96 71.22,30.96 71.22,31.56 70.86,32.4 70.86,32.46 70.56,32.88 70.5,32.88 70.08,33.3 69.66,33.66 
	69.6,33.72 69.06,34.08 "/>
</svg>
