<?xml version="1.0" encoding="utf-8"?>
<!-- Generator: Adobe Illustrator 16.0.1, SVG Export Plug-In . SVG Version: 6.00 Build 0)  -->
<!DOCTYPE svg PUBLIC "-//W3C//DTD SVG 1.1//EN" "http://www.w3.org/Graphics/SVG/1.1/DTD/svg11.dtd">
<svg version="1.1" id="Layer_1" xmlns="http://www.w3.org/2000/svg" xmlns:xlink="http://www.w3.org/1999/xlink" x="0px" y="0px"
	 width="411.48px" height="163.439px" viewBox="0 0 411.48 163.439" enable-background="new 0 0 411.48 163.439"
	 xml:space="preserve">
<rect x="108.9" y="65.34" width="54.3" height="27"/>
<rect x="108.9" y="65.1" width="54.54" height="0.48"/>
<rect x="162.96" y="65.34" width="0.48" height="27.24"/>
<rect x="108.66" y="92.1" width="54.54" height="0.48"/>
<rect x="108.66" y="65.1" width="0.48" height="27.24"/>
<rect x="106.5" y="63.54" fill="#FFFFFF" width="54.36" height="27"/>
<rect x="106.5" y="63.3" width="54.6" height="0.479"/>
<rect x="160.62" y="63.54" width="0.48" height="27.24"/>
<rect x="106.26" y="90.3" width="54.6" height="0.479"/>
<rect x="106.26" y="63.3" width="0.48" height="27.24"/>
<text transform="matrix(1 0 0 1 108.8999 70.6799)" enable-background="new    "><tspan x="0" y="0" font-family="'ProductusBook'" font-size="7.98">TR-069</tspan><tspan x="0" y="9.576" font-family="'ProductusBook'" font-size="7.98">Protocol Adapter</tspan></text>
<rect x="2.58" y="65.34" width="54.36" height="27"/>
<rect x="2.58" y="65.1" width="54.6" height="0.48"/>
<rect x="56.7" y="65.34" width="0.48" height="27.24"/>
<rect x="2.34" y="92.1" width="54.6" height="0.48"/>
<rect x="2.34" y="65.1" width="0.48" height="27.24"/>
<rect x="0.24" y="63.54" fill="#FFFFFF" width="54.3" height="27"/>
<rect x="0.24" y="63.3" width="54.54" height="0.479"/>
<rect x="54.3" y="63.54" width="0.48" height="27.24"/>
<rect y="90.3" width="54.54" height="0.479"/>
<rect y="63.3" width="0.48" height="27.24"/>
<text transform="matrix(1 0 0 1 2.5801 70.6799)" font-family="'ProductusBook'" font-size="7.98">ACS</text>
<rect x="56.7" y="77.94" width="0.24" height="0.48"/>
<rect x="56.94" y="77.94" width="3.96" height="0.48"/>
<rect x="66.06" y="77.94" width="0.24" height="0.48"/>
<rect x="66.3" y="77.94" width="6.78" height="0.48"/>
<rect x="78.24" y="77.94" width="0.24" height="0.48"/>
<rect x="78.48" y="77.94" width="6.72" height="0.48"/>
<rect x="90.36" y="77.94" width="0.24" height="0.48"/>
<rect x="90.6" y="77.94" width="6.78" height="0.48"/>
<rect x="102.54" y="77.94" width="0.24" height="0.48"/>
<rect x="102.78" y="77.94" width="3.96" height="0.48"/>
<rect x="222.3" y="65.34" width="54.3" height="27"/>
<rect x="222.3" y="65.1" width="54.54" height="0.48"/>
<rect x="276.359" y="65.34" width="0.48" height="27.24"/>
<rect x="222.061" y="92.1" width="54.539" height="0.48"/>
<rect x="222.061" y="65.1" width="0.479" height="27.24"/>
<rect x="219.9" y="63.54" fill="#FFFFFF" width="54.359" height="27"/>
<rect x="219.9" y="63.3" width="54.6" height="0.479"/>
<rect x="274.02" y="63.54" width="0.479" height="27.24"/>
<rect x="219.66" y="90.3" width="54.602" height="0.479"/>
<rect x="219.66" y="63.3" width="0.48" height="27.24"/>
<text transform="matrix(1 0 0 1 222.3008 70.6799)" font-family="'ProductusBook'" font-size="7.98">Dmt Admin</text>
<text transform="matrix(0.9504 0 0 1 222.3008 80.2561)" font-family="'ProductusOSGiBookc'" font-size="7.98">Impl</text>
<rect x="335.7" y="37.44" width="54.3" height="27"/>
<rect x="335.7" y="37.2" width="54.54" height="0.479"/>
<rect x="389.76" y="37.44" width="0.479" height="27.24"/>
<rect x="335.459" y="64.2" width="54.54" height="0.479"/>
<rect x="335.459" y="37.2" width="0.48" height="27.239"/>
<rect x="333.3" y="35.64" fill="#FFFFFF" width="54.359" height="27"/>
<rect x="333.3" y="35.4" width="54.601" height="0.48"/>
<rect x="387.42" y="35.64" width="0.479" height="27.24"/>
<rect x="333.06" y="62.4" width="54.601" height="0.48"/>
<rect x="333.06" y="35.4" width="0.479" height="27.24"/>
<text transform="matrix(1 0 0 1 335.6992 42.7795)" enable-background="new    "><tspan x="0" y="0" font-family="'ProductusBook'" font-size="7.98">TR-069 Foreign</tspan><tspan x="0" y="9.576" font-family="'ProductusBook'" font-size="7.98">Data Plugin Impl</tspan></text>
<rect x="335.7" y="93.72" width="54.3" height="27"/>
<rect x="335.7" y="93.48" width="54.54" height="0.48"/>
<rect x="389.76" y="93.72" width="0.479" height="27.24"/>
<rect x="335.459" y="120.48" width="54.54" height="0.48"/>
<rect x="335.459" y="93.48" width="0.48" height="27.24"/>
<rect x="333.3" y="91.92" fill="#FFFFFF" width="54.359" height="27"/>
<rect x="333.3" y="91.68" width="54.601" height="0.48"/>
<rect x="387.42" y="91.92" width="0.479" height="27.24"/>
<rect x="333.06" y="118.68" width="54.601" height="0.48"/>
<rect x="333.06" y="91.68" width="0.479" height="27.24"/>
<text transform="matrix(1 0 0 1 335.6992 99.0608)" enable-background="new    "><tspan x="0" y="0" font-family="'ProductusBook'" font-size="7.98">TR-069 Native</tspan><tspan x="0" y="9.576" font-family="'ProductusBook'" font-size="7.98">Data Plugin Impl</tspan></text>
<polyline fill="#FFFFFF" points="184.5,49.86 184.5,64.02 198.66,56.94 "/>
<polyline points="184.74,49.86 184.74,64.02 184.62,64.26 184.38,63.84 198.54,56.76 198.78,56.76 199.26,57 198.78,57.18 
	184.26,64.44 184.26,49.86 "/>
<polyline points="198.54,57.18 184.38,50.1 184.26,49.86 184.26,49.5 198.78,56.76 "/>
<polyline fill="#FFFFFF" points="297.9,71.1 297.9,85.26 312.06,78.18 "/>
<polyline points="298.141,71.1 298.141,85.26 298.02,85.5 297.779,85.08 311.94,78 312.18,78 312.66,78.24 312.18,78.42 
	297.66,85.68 297.66,71.1 "/>
<polyline points="311.94,78.42 297.779,71.34 297.66,71.1 297.66,70.74 312.18,78 "/>
<rect x="276.359" y="77.94" width="0.24" height="0.48"/>
<rect x="276.6" y="77.94" width="21.541" height="0.48"/>
<polyline fill="#FFFFFF" points="198.66,78.18 198.66,92.34 184.5,85.26 "/>
<polyline points="198.9,78.18 198.9,92.76 184.38,85.5 183.9,85.32 184.38,85.08 184.62,85.08 198.78,92.16 198.54,92.58 
	198.42,92.34 198.42,78.18 "/>
<polyline points="184.38,85.08 198.9,77.82 198.9,78.18 198.78,78.42 184.62,85.5 "/>
<rect x="162.96" y="70.86" width="7.62" height="0.48"/>
<rect x="170.1" y="56.7" width="0.48" height="14.399"/>
<rect x="170.34" y="56.7" width="14.4" height="0.479"/>
<rect x="198.42" y="56.7" width="14.641" height="0.479"/>
<rect x="212.58" y="56.94" width="0.48" height="14.4"/>
<rect x="212.82" y="70.86" width="7.32" height="0.48"/>
<rect x="162.96" y="85.02" width="7.38" height="0.48"/>
<rect x="170.34" y="85.02" width="14.4" height="0.48"/>
<rect x="198.42" y="85.02" width="14.4" height="0.48"/>
<rect x="212.82" y="85.02" width="7.32" height="0.48"/>
<text transform="matrix(1 0 0 1 174.54 47.0403)" font-family="'ProductusBook'" font-size="7.98">Dmt Admin</text>
<text transform="matrix(1 0 0 1 177.4199 99.7209)" enable-background="new    "><tspan x="0" y="0" font-family="'ProductusBook'" font-size="7.98">Dmt Event</tspan><tspan x="0" y="9.576" font-family="'ProductusBook'" font-size="7.98">Listener</tspan></text>
<text transform="matrix(1 0 0 1 284.9004 64.3206)" font-family="'ProductusBook'" font-size="7.98">Data Plugin</text>
<rect x="311.82" y="77.94" width="7.561" height="0.48"/>
<rect x="318.9" y="49.62" width="0.479" height="28.56"/>
<rect x="319.14" y="49.62" width="14.399" height="0.479"/>
<rect x="311.82" y="77.94" width="7.561" height="0.48"/>
<rect x="318.9" y="78.18" width="0.479" height="28.561"/>
<rect x="319.14" y="106.26" width="14.399" height="0.48"/>
<polyline fill="#FFFFFF" points="120.72,106.5 106.5,106.5 113.64,120.72 "/>
<polyline points="120.72,106.74 106.5,106.74 106.32,106.62 106.74,106.38 113.88,120.6 113.88,120.84 113.7,121.26 113.46,120.84 
	106.32,106.62 106.14,106.26 120.72,106.26 "/>
<polyline points="113.46,120.6 120.54,106.38 120.72,106.26 121.14,106.26 120.96,106.62 113.88,120.84 "/>
<rect x="113.4" y="92.1" width="0.48" height="0.24"/>
<rect x="113.4" y="92.34" width="0.48" height="14.4"/>
<rect x="52.2" y="136.2" width="54.3" height="27"/>
<rect x="52.2" y="135.96" width="54.54" height="0.479"/>
<rect x="106.26" y="136.2" width="0.48" height="27.239"/>
<rect x="51.96" y="162.96" width="54.54" height="0.479"/>
<rect x="51.96" y="135.96" width="0.48" height="27.24"/>
<rect x="49.86" y="134.4" fill="#FFFFFF" width="54.3" height="27"/>
<rect x="49.86" y="134.16" width="54.54" height="0.479"/>
<rect x="103.92" y="134.4" width="0.48" height="27.24"/>
<rect x="49.62" y="161.16" width="54.54" height="0.479"/>
<rect x="49.62" y="134.16" width="0.48" height="27.239"/>
<text transform="matrix(1 0 0 1 52.1997 141.5403)" enable-background="new    "><tspan x="0" y="0" font-family="'ProductusBook'" font-size="7.98">TR069 Connec-</tspan><tspan x="0" y="9.576" font-family="'ProductusBook'" font-size="7.98">torFactory Impl</tspan></text>
<text transform="matrix(1 0 0 1 84.894 111.3606)" enable-background="new    "><tspan x="0" y="0" font-family="'ProductusSemibold'" font-size="7.98">TR069</tspan><tspan x="-37.026" y="9.576" font-family="'ProductusSemibold'" font-size="7.98">Connector Factory</tspan></text>
<rect x="108.9" y="2.04" width="54.3" height="27"/>
<rect x="108.9" y="1.8" width="54.54" height="0.48"/>
<rect x="162.96" y="2.04" width="0.48" height="27.24"/>
<rect x="108.66" y="28.8" width="54.54" height="0.48"/>
<rect x="108.66" y="1.8" width="0.48" height="27.24"/>
<rect x="106.5" y="0.24" fill="#FFFFFF" width="54.36" height="27"/>
<rect x="106.5" y="0" width="54.6" height="0.479"/>
<rect x="160.62" y="0.24" width="0.48" height="27.239"/>
<rect x="106.26" y="27" width="54.6" height="0.479"/>
<rect x="106.26" y="0" width="0.48" height="27.24"/>
<text transform="matrix(1 0 0 1 108.8999 7.3801)" enable-background="new    "><tspan x="0" y="0" font-family="'ProductusBook'" font-size="7.98">Other object</tspan><tspan x="0" y="9.576" font-family="'ProductusBook'" font-size="7.98">model providers</tspan></text>
<rect x="134.64" y="28.32" width="0.48" height="0.24"/>
<rect x="134.64" y="28.56" width="0.48" height="1.98"/>
<rect x="134.64" y="35.1" width="0.48" height="0.24"/>
<rect x="134.64" y="35.34" width="0.48" height="4.2"/>
<rect x="134.64" y="44.1" width="0.48" height="0.24"/>
<rect x="134.64" y="44.34" width="0.48" height="4.14"/>
<rect x="134.64" y="53.04" width="0.48" height="0.24"/>
<rect x="134.64" y="53.281" width="0.48" height="4.199"/>
<rect x="134.64" y="62.04" width="0.48" height="0.24"/>
<rect x="134.64" y="62.281" width="0.48" height="1.979"/>
<rect x="113.4" y="120.48" width="0.48" height="7.561"/>
<rect x="77.94" y="127.56" width="35.7" height="0.48"/>
<rect x="77.94" y="127.8" width="0.48" height="7.32"/>
<polyline fill="#FFFFFF" points="156.12,120.72 141.96,120.72 149.04,106.5 "/>
<polyline points="156.12,120.96 141.6,120.96 141.78,120.6 148.86,106.38 149.1,105.96 149.28,106.38 149.28,106.62 142.2,120.84 
	141.78,120.6 141.96,120.48 156.12,120.48 "/>
<polyline points="149.28,106.38 156.36,120.6 156.54,120.96 156.12,120.96 155.94,120.84 148.86,106.62 "/>
<rect x="165.6" y="136.2" width="54.3" height="27"/>
<rect x="165.6" y="135.96" width="54.541" height="0.479"/>
<rect x="219.66" y="136.2" width="0.48" height="27.239"/>
<rect x="165.36" y="162.96" width="54.541" height="0.479"/>
<rect x="165.36" y="135.96" width="0.48" height="27.24"/>
<rect x="163.2" y="134.4" fill="#FFFFFF" width="54.36" height="27"/>
<rect x="163.2" y="134.16" width="54.6" height="0.479"/>
<rect x="217.32" y="134.4" width="0.479" height="27.24"/>
<rect x="162.96" y="161.16" width="54.601" height="0.479"/>
<rect x="162.96" y="134.16" width="0.48" height="27.239"/>
<text transform="matrix(1 0 0 1 165.6001 141.5403)" font-family="'ProductusBook'" font-size="7.98">Notification</text>
<text transform="matrix(0.9504 0 0 1 165.6001 151.1165)" font-family="'ProductusOSGiBookc'" font-size="7.98">Service Impl</text>
<text transform="matrix(1 0 0 1 275.5195 135.1799)" enable-background="new    "><tspan x="0" y="0" font-family="'ProductusBook'" font-size="7.98">Notification</tspan><tspan x="0" y="9.576" font-family="'ProductusBook'" font-size="7.98">Service</tspan></text>
<rect x="148.8" y="106.5" width="0.48" height="0.24"/>
<rect x="148.8" y="92.1" width="0.48" height="14.4"/>
<rect x="148.8" y="120.48" width="0.48" height="7.561"/>
<rect x="149.04" y="127.56" width="42.78" height="0.48"/>
<rect x="191.34" y="127.8" width="0.48" height="7.32"/>
<rect x="219.66" y="148.8" width="0.24" height="0.48"/>
<rect x="219.9" y="148.8" width="78.24" height="0.48"/>
<polyline fill="#FFFFFF" points="312.06,141.96 312.06,156.12 297.9,149.04 "/>
<polyline points="312.3,141.96 312.3,156.54 297.779,149.281 297.3,149.1 297.779,148.86 298.02,148.86 312.18,155.94 
	311.94,156.36 311.82,156.12 311.82,141.96 "/>
<polyline points="297.779,148.86 312.3,141.6 312.3,141.96 312.18,142.2 298.02,149.281 "/>
<text transform="matrix(1 0 0 1 124.9199 127.3206)" enable-background="new    "><tspan x="0" y="0" font-family="'ProductusBook'" font-size="7.98">Remote</tspan><tspan x="0" y="9.576" font-family="'ProductusBook'" font-size="7.98">Alert Sender</tspan></text>
<rect x="311.82" y="148.8" width="99.66" height="0.48"/>
<rect x="411" y="49.62" width="0.48" height="99.42"/>
<rect x="389.76" y="49.62" width="21.479" height="0.479"/>
<rect x="389.76" y="106.26" width="0.239" height="0.48"/>
<rect x="390" y="106.26" width="21.48" height="0.48"/>
</svg>
