<?xml version="1.0" encoding="utf-8"?>
<!-- Generator: Adobe Illustrator 16.0.0, SVG Export Plug-In . SVG Version: 6.00 Build 0)  -->
<!DOCTYPE svg PUBLIC "-//W3C//DTD SVG 1.1//EN" "http://www.w3.org/Graphics/SVG/1.1/DTD/svg11.dtd">
<svg version="1.1" id="Layer_1" xmlns="http://www.w3.org/2000/svg" xmlns:xlink="http://www.w3.org/1999/xlink" x="0px" y="0px"
	 width="411.48px" height="163.44px" viewBox="0 0 411.48 163.44" style="enable-background:new 0 0 411.48 163.44;"
	 xml:space="preserve">
<rect x="108.9" y="65.34" width="54.3" height="27"/>
<rect x="108.9" y="65.1" width="54.54" height="0.48"/>
<rect x="162.96" y="65.34" width="0.48" height="27.24"/>
<rect x="108.66" y="92.1" width="54.54" height="0.48"/>
<rect x="108.66" y="65.1" width="0.48" height="27.24"/>
<rect x="106.5" y="63.54" style="fill:#FFFFFF;" width="54.36" height="27"/>
<rect x="106.5" y="63.3" width="54.6" height="0.479"/>
<rect x="160.62" y="63.54" width="0.48" height="27.24"/>
<rect x="106.26" y="90.3" width="54.6" height="0.479"/>
<rect x="106.26" y="63.3" width="0.48" height="27.24"/>
<text transform="matrix(1 0 0 1 108.8999 70.6802)"><tspan x="0" y="0" style="font-family:'ProductusBook'; font-size:7.98;">T</tspan><tspan x="3.838" y="0" style="font-family:'ProductusBook'; font-size:7.98;">R</tspan><tspan x="7.326" y="0" style="font-family:'ProductusBook'; font-size:7.98;">-06</tspan><tspan x="17.747" y="0" style="font-family:'ProductusBook'; font-size:7.98;">9</tspan></text>
<text transform="matrix(1 0 0 1 108.8999 79.2002)"><tspan x="0" y="0" style="font-family:'ProductusBook'; font-size:7.98;">Proto</tspan><tspan x="15.513" y="0" style="font-family:'ProductusBook'; font-size:7.98;">c</tspan><tspan x="18.513" y="0" style="font-family:'ProductusBook'; font-size:7.98;">o</tspan><tspan x="22.296" y="0" style="font-family:'ProductusBook'; font-size:7.98;">l</tspan><tspan x="23.908" y="0" style="font-family:'ProductusBook'; font-size:7.98;"> </tspan><tspan x="25.472" y="0" style="font-family:'ProductusBook'; font-size:7.98;">A</tspan><tspan x="29.438" y="0" style="font-family:'ProductusBook'; font-size:7.98;">d</tspan><tspan x="33.156" y="0" style="font-family:'ProductusBook'; font-size:7.98;">apter</tspan></text>
<rect x="2.58" y="65.34" width="54.36" height="27"/>
<rect x="2.58" y="65.1" width="54.6" height="0.48"/>
<rect x="56.7" y="65.34" width="0.48" height="27.24"/>
<rect x="2.34" y="92.1" width="54.6" height="0.48"/>
<rect x="2.34" y="65.1" width="0.48" height="27.24"/>
<rect x="0.24" y="63.54" style="fill:#FFFFFF;" width="54.3" height="27"/>
<rect x="0.24" y="63.3" width="54.54" height="0.479"/>
<rect x="54.3" y="63.54" width="0.48" height="27.24"/>
<rect y="90.3" width="54.54" height="0.479"/>
<rect y="63.3" width="0.48" height="27.24"/>
<text transform="matrix(1 0 0 1 2.5801 70.6802)"><tspan x="0" y="0" style="font-family:'ProductusBook'; font-size:7.98;">A</tspan><tspan x="3.846" y="0" style="font-family:'ProductusBook'; font-size:7.98;">C</tspan><tspan x="8.283" y="0" style="font-family:'ProductusBook'; font-size:7.98;">S</tspan></text>
<rect x="56.7" y="77.94" width="0.24" height="0.48"/>
<rect x="56.94" y="77.94" width="3.96" height="0.48"/>
<rect x="66.06" y="77.94" width="0.24" height="0.48"/>
<rect x="66.3" y="77.94" width="6.78" height="0.48"/>
<rect x="78.24" y="77.94" width="0.24" height="0.48"/>
<rect x="78.48" y="77.94" width="6.72" height="0.48"/>
<rect x="90.36" y="77.94" width="0.24" height="0.48"/>
<rect x="90.6" y="77.94" width="6.78" height="0.48"/>
<rect x="102.54" y="77.94" width="0.24" height="0.48"/>
<rect x="102.78" y="77.94" width="3.96" height="0.48"/>
<rect x="222.3" y="65.34" width="54.3" height="27"/>
<rect x="222.3" y="65.1" width="54.54" height="0.48"/>
<rect x="276.36" y="65.34" width="0.48" height="27.24"/>
<rect x="222.06" y="92.1" width="54.54" height="0.48"/>
<rect x="222.06" y="65.1" width="0.479" height="27.24"/>
<rect x="219.9" y="63.54" style="fill:#FFFFFF;" width="54.36" height="27"/>
<rect x="219.9" y="63.3" width="54.6" height="0.479"/>
<rect x="274.02" y="63.54" width="0.479" height="27.24"/>
<rect x="219.66" y="90.3" width="54.601" height="0.479"/>
<rect x="219.66" y="63.3" width="0.48" height="27.24"/>
<text transform="matrix(1 0 0 1 222.3003 70.6802)"><tspan x="0" y="0" style="font-family:'ProductusBook'; font-size:7.98;">D</tspan><tspan x="4.804" y="0" style="font-family:'ProductusBook'; font-size:7.98;">m</tspan><tspan x="10.621" y="0" style="font-family:'ProductusBook'; font-size:7.98;">t</tspan><tspan x="12.967" y="0" style="font-family:'ProductusBook'; font-size:7.98;"> </tspan><tspan x="14.587" y="0" style="font-family:'ProductusBook'; font-size:7.98;">A</tspan><tspan x="18.553" y="0" style="font-family:'ProductusBook'; font-size:7.98;">d</tspan><tspan x="22.271" y="0" style="font-family:'ProductusBook'; font-size:7.98;">min</tspan></text>
<text transform="matrix(1 0 0 1.0522 222.3003 79.2002)"><tspan x="0" y="0" style="font-family:'ProductusOSGiBookc'; font-size:7.5841;">I</tspan><tspan x="1.456" y="0" style="font-family:'ProductusOSGiBookc'; font-size:7.5841;">m</tspan><tspan x="6.909" y="0" style="font-family:'ProductusOSGiBookc'; font-size:7.5841;">p</tspan><tspan x="10.375" y="0" style="font-family:'ProductusOSGiBookc'; font-size:7.5841;">l</tspan></text>
<rect x="335.7" y="37.44" width="54.3" height="27"/>
<rect x="335.7" y="37.2" width="54.54" height="0.48"/>
<rect x="389.76" y="37.44" width="0.479" height="27.24"/>
<rect x="335.459" y="64.2" width="54.54" height="0.48"/>
<rect x="335.459" y="37.2" width="0.48" height="27.24"/>
<rect x="333.3" y="35.64" style="fill:#FFFFFF;" width="54.359" height="27"/>
<rect x="333.3" y="35.4" width="54.6" height="0.48"/>
<rect x="387.42" y="35.64" width="0.479" height="27.24"/>
<rect x="333.06" y="62.4" width="54.6" height="0.48"/>
<rect x="333.06" y="35.4" width="0.479" height="27.24"/>
<text transform="matrix(1 0 0 1 335.6997 42.7798)"><tspan x="0" y="0" style="font-family:'ProductusBook'; font-size:7.98;">TR-</tspan><tspan x="10.055" y="0" style="font-family:'ProductusBook'; font-size:7.98;">0</tspan><tspan x="14.013" y="0" style="font-family:'ProductusBook'; font-size:7.98;">6</tspan><tspan x="17.739" y="0" style="font-family:'ProductusBook'; font-size:7.98;">9</tspan><tspan x="21.514" y="0" style="font-family:'ProductusBook'; font-size:7.98;"> </tspan><tspan x="23.126" y="0" style="font-family:'ProductusBook'; font-size:7.98;">F</tspan><tspan x="25.95" y="0" style="font-family:'ProductusBook'; font-size:7.98;">o</tspan><tspan x="29.732" y="0" style="font-family:'ProductusBook'; font-size:7.98;">r</tspan><tspan x="32.007" y="0" style="font-family:'ProductusBook'; font-size:7.98;">e</tspan><tspan x="35.494" y="0" style="font-family:'ProductusBook'; font-size:7.98;">i</tspan><tspan x="37.106" y="0" style="font-family:'ProductusBook'; font-size:7.98;">g</tspan><tspan x="40.586" y="0" style="font-family:'ProductusBook'; font-size:7.98;">n</tspan><tspan x="44.24" y="0" style="font-family:'ProductusBook'; font-size:7.98;"> </tspan></text>
<text transform="matrix(1 0 0 1 335.6997 51.3003)"><tspan x="0" y="0" style="font-family:'ProductusBook'; font-size:7.98;">D</tspan><tspan x="4.804" y="0" style="font-family:'ProductusBook'; font-size:7.98;">a</tspan><tspan x="8.163" y="0" style="font-family:'ProductusBook'; font-size:7.98;">t</tspan><tspan x="10.541" y="0" style="font-family:'ProductusBook'; font-size:7.98;">a</tspan><tspan x="13.9" y="0" style="font-family:'ProductusBook'; font-size:7.98;"> </tspan><tspan x="15.465" y="0" style="font-family:'ProductusBook'; font-size:7.98;">P</tspan><tspan x="18.769" y="0" style="font-family:'ProductusBook'; font-size:7.98;">l</tspan><tspan x="20.381" y="0" style="font-family:'ProductusBook'; font-size:7.98;">ugi</tspan><tspan x="29.103" y="0" style="font-family:'ProductusBook'; font-size:7.98;">n</tspan><tspan x="32.821" y="0" style="font-family:'ProductusBook'; font-size:7.98;"> </tspan><tspan x="34.385" y="0" style="font-family:'ProductusBook'; font-size:7.98;">Impl</tspan></text>
<rect x="335.7" y="93.72" width="54.3" height="27"/>
<rect x="335.7" y="93.48" width="54.54" height="0.48"/>
<rect x="389.76" y="93.72" width="0.479" height="27.24"/>
<rect x="335.459" y="120.48" width="54.54" height="0.48"/>
<rect x="335.459" y="93.48" width="0.48" height="27.24"/>
<rect x="333.3" y="91.92" style="fill:#FFFFFF;" width="54.359" height="27"/>
<rect x="333.3" y="91.68" width="54.6" height="0.48"/>
<rect x="387.42" y="91.92" width="0.479" height="27.24"/>
<rect x="333.06" y="118.68" width="54.6" height="0.48"/>
<rect x="333.06" y="91.68" width="0.479" height="27.24"/>
<text transform="matrix(1 0 0 1 335.6997 99.0601)"><tspan x="0" y="0" style="font-family:'ProductusBook'; font-size:7.98;">TR-</tspan><tspan x="10.055" y="0" style="font-family:'ProductusBook'; font-size:7.98;">0</tspan><tspan x="14.013" y="0" style="font-family:'ProductusBook'; font-size:7.98;">6</tspan><tspan x="17.739" y="0" style="font-family:'ProductusBook'; font-size:7.98;">9</tspan><tspan x="21.514" y="0" style="font-family:'ProductusBook'; font-size:7.98;"> </tspan><tspan x="23.126" y="0" style="font-family:'ProductusBook'; font-size:7.98;">N</tspan><tspan x="27.81" y="0" style="font-family:'ProductusBook'; font-size:7.98;">a</tspan><tspan x="31.169" y="0" style="font-family:'ProductusBook'; font-size:7.98;">ti</tspan><tspan x="35.063" y="0" style="font-family:'ProductusBook'; font-size:7.98;">v</tspan><tspan x="38.184" y="0" style="font-family:'ProductusBook'; font-size:7.98;">e</tspan><tspan x="41.719" y="0" style="font-family:'ProductusBook'; font-size:7.98;"> </tspan></text>
<text transform="matrix(1 0 0 1 335.6997 107.5195)"><tspan x="0" y="0" style="font-family:'ProductusBook'; font-size:7.98;">D</tspan><tspan x="4.804" y="0" style="font-family:'ProductusBook'; font-size:7.98;">a</tspan><tspan x="8.163" y="0" style="font-family:'ProductusBook'; font-size:7.98;">t</tspan><tspan x="10.541" y="0" style="font-family:'ProductusBook'; font-size:7.98;">a</tspan><tspan x="13.9" y="0" style="font-family:'ProductusBook'; font-size:7.98;"> </tspan><tspan x="15.465" y="0" style="font-family:'ProductusBook'; font-size:7.98;">P</tspan><tspan x="18.769" y="0" style="font-family:'ProductusBook'; font-size:7.98;">l</tspan><tspan x="20.381" y="0" style="font-family:'ProductusBook'; font-size:7.98;">ugi</tspan><tspan x="29.103" y="0" style="font-family:'ProductusBook'; font-size:7.98;">n</tspan><tspan x="32.821" y="0" style="font-family:'ProductusBook'; font-size:7.98;"> </tspan><tspan x="34.385" y="0" style="font-family:'ProductusBook'; font-size:7.98;">Impl</tspan></text>
<polyline style="fill-rule:evenodd;clip-rule:evenodd;fill:#FFFFFF;" points="184.5,49.86 184.5,64.02 198.66,56.94 "/>
<polyline points="184.74,49.86 184.74,64.02 184.62,64.26 184.38,63.84 198.54,56.76 198.78,56.76 199.26,57 198.78,57.18 
	184.26,64.44 184.26,49.86 "/>
<polyline points="198.54,57.18 184.38,50.1 184.26,49.86 184.26,49.5 198.78,56.76 "/>
<polyline style="fill-rule:evenodd;clip-rule:evenodd;fill:#FFFFFF;" points="297.9,71.1 297.9,85.26 312.06,78.18 "/>
<polyline points="298.14,71.1 298.14,85.26 298.02,85.5 297.78,85.08 311.94,78 312.18,78 312.66,78.24 312.18,78.42 297.66,85.68 
	297.66,71.1 "/>
<polyline points="311.94,78.42 297.78,71.34 297.66,71.1 297.66,70.74 312.18,78 "/>
<rect x="276.36" y="77.94" width="0.24" height="0.48"/>
<rect x="276.6" y="77.94" width="21.54" height="0.48"/>
<polyline style="fill-rule:evenodd;clip-rule:evenodd;fill:#FFFFFF;" points="198.66,78.18 198.66,92.34 184.5,85.26 "/>
<polyline points="198.9,78.18 198.9,92.76 184.38,85.5 183.9,85.32 184.38,85.08 184.62,85.08 198.78,92.16 198.54,92.58 
	198.42,92.34 198.42,78.18 "/>
<polyline points="184.38,85.08 198.9,77.82 198.9,78.18 198.78,78.42 184.62,85.5 "/>
<rect x="162.96" y="70.86" width="7.62" height="0.48"/>
<rect x="170.1" y="56.7" width="0.48" height="14.4"/>
<rect x="170.34" y="56.7" width="14.4" height="0.48"/>
<rect x="198.42" y="56.7" width="14.64" height="0.48"/>
<rect x="212.58" y="56.94" width="0.48" height="14.4"/>
<rect x="212.82" y="70.86" width="7.32" height="0.48"/>
<rect x="162.96" y="85.02" width="7.38" height="0.48"/>
<rect x="170.34" y="85.02" width="14.4" height="0.48"/>
<rect x="198.42" y="85.02" width="14.4" height="0.48"/>
<rect x="212.82" y="85.02" width="7.32" height="0.48"/>
<text transform="matrix(1 0 0 1 174.54 47.04)"><tspan x="0" y="0" style="font-family:'ProductusBook'; font-size:7.98;">D</tspan><tspan x="4.868" y="0" style="font-family:'ProductusBook'; font-size:7.98;">m</tspan><tspan x="10.621" y="0" style="font-family:'ProductusBook'; font-size:7.98;">t</tspan><tspan x="13.015" y="0" style="font-family:'ProductusBook'; font-size:7.98;"> </tspan><tspan x="14.579" y="0" style="font-family:'ProductusBook'; font-size:7.98;">A</tspan><tspan x="18.545" y="0" style="font-family:'ProductusBook'; font-size:7.98;">d</tspan><tspan x="22.264" y="0" style="font-family:'ProductusBook'; font-size:7.98;">min</tspan></text>
<text transform="matrix(1 0 0 1 177.4199 99.7202)"><tspan x="0" y="0" style="font-family:'ProductusBook'; font-size:7.98;">D</tspan><tspan x="4.804" y="0" style="font-family:'ProductusBook'; font-size:7.98;">m</tspan><tspan x="10.558" y="0" style="font-family:'ProductusBook'; font-size:7.98;">t</tspan><tspan x="12.951" y="0" style="font-family:'ProductusBook'; font-size:7.98;"> </tspan><tspan x="14.571" y="0" style="font-family:'ProductusBook'; font-size:7.98;">E</tspan><tspan x="17.811" y="0" style="font-family:'ProductusBook'; font-size:7.98;">v</tspan><tspan x="20.931" y="0" style="font-family:'ProductusBook'; font-size:7.98;">e</tspan><tspan x="24.418" y="0" style="font-family:'ProductusBook'; font-size:7.98;">n</tspan><tspan x="28.137" y="0" style="font-family:'ProductusBook'; font-size:7.98;">t</tspan></text>
<text transform="matrix(1 0 0 1 177.4199 109.5005)"><tspan x="0" y="0" style="font-family:'ProductusBook'; font-size:7.98;">Lis</tspan><tspan x="7.414" y="0" style="font-family:'ProductusBook'; font-size:7.98;">t</tspan><tspan x="9.807" y="0" style="font-family:'ProductusBook'; font-size:7.98;">e</tspan><tspan x="13.302" y="0" style="font-family:'ProductusBook'; font-size:7.98;">n</tspan><tspan x="17.021" y="0" style="font-family:'ProductusBook'; font-size:7.98;">e</tspan><tspan x="20.516" y="0" style="font-family:'ProductusBook'; font-size:7.98;">r</tspan></text>
<text transform="matrix(1 0 0 1 285.8999 64.3198)"><tspan x="0" y="0" style="font-family:'ProductusBook'; font-size:7.98;">D</tspan><tspan x="4.804" y="0" style="font-family:'ProductusBook'; font-size:7.98;">a</tspan><tspan x="8.163" y="0" style="font-family:'ProductusBook'; font-size:7.98;">t</tspan><tspan x="10.533" y="0" style="font-family:'ProductusBook'; font-size:7.98;">a</tspan><tspan x="13.893" y="0" style="font-family:'ProductusBook'; font-size:7.98;"> </tspan><tspan x="15.457" y="0" style="font-family:'ProductusBook'; font-size:7.98;">P</tspan><tspan x="18.753" y="0" style="font-family:'ProductusBook'; font-size:7.98;">l</tspan><tspan x="20.364" y="0" style="font-family:'ProductusBook'; font-size:7.98;">u</tspan><tspan x="24.027" y="0" style="font-family:'ProductusBook'; font-size:7.98;">g</tspan><tspan x="27.498" y="0" style="font-family:'ProductusBook'; font-size:7.98;">i</tspan><tspan x="29.047" y="0" style="font-family:'ProductusBook'; font-size:7.98;">n</tspan></text>
<rect x="311.82" y="77.94" width="7.561" height="0.48"/>
<rect x="318.9" y="49.62" width="0.48" height="28.56"/>
<rect x="319.14" y="49.62" width="14.399" height="0.48"/>
<rect x="311.82" y="77.94" width="7.561" height="0.48"/>
<rect x="318.9" y="78.18" width="0.48" height="28.56"/>
<rect x="319.14" y="106.26" width="14.399" height="0.48"/>
<polyline style="fill-rule:evenodd;clip-rule:evenodd;fill:#FFFFFF;" points="120.72,106.5 106.5,106.5 113.64,120.72 "/>
<polyline points="120.72,106.74 106.5,106.74 106.32,106.62 106.74,106.38 113.88,120.6 113.88,120.84 113.7,121.26 113.46,120.84 
	106.32,106.62 106.14,106.26 120.72,106.26 "/>
<polyline points="113.46,120.6 120.54,106.38 120.72,106.26 121.14,106.26 120.96,106.62 113.88,120.84 "/>
<rect x="113.4" y="92.1" width="0.48" height="0.24"/>
<rect x="113.4" y="92.34" width="0.48" height="14.4"/>
<rect x="52.2" y="136.2" width="54.3" height="27"/>
<rect x="52.2" y="135.96" width="54.54" height="0.48"/>
<rect x="106.26" y="136.2" width="0.48" height="27.24"/>
<rect x="51.96" y="162.96" width="54.54" height="0.48"/>
<rect x="51.96" y="135.96" width="0.48" height="27.24"/>
<rect x="49.86" y="134.4" style="fill:#FFFFFF;" width="54.3" height="27"/>
<rect x="49.86" y="134.16" width="54.54" height="0.48"/>
<rect x="103.92" y="134.4" width="0.48" height="27.24"/>
<rect x="49.62" y="161.16" width="54.54" height="0.48"/>
<rect x="49.62" y="134.16" width="0.48" height="27.24"/>
<text transform="matrix(1 0 0 1 52.1997 141.54)"><tspan x="0" y="0" style="font-family:'ProductusBook'; font-size:7.98;">TR06</tspan><tspan x="15.106" y="0" style="font-family:'ProductusBook'; font-size:7.98;">9</tspan><tspan x="18.833" y="0" style="font-family:'ProductusBook'; font-size:7.98;"> </tspan><tspan x="20.452" y="0" style="font-family:'ProductusBook'; font-size:7.98;">C</tspan><tspan x="24.658" y="0" style="font-family:'ProductusBook'; font-size:7.98;">o</tspan><tspan x="28.44" y="0" style="font-family:'ProductusBook'; font-size:7.98;">nn</tspan><tspan x="35.813" y="0" style="font-family:'ProductusBook'; font-size:7.98;">e</tspan><tspan x="39.301" y="0" style="font-family:'ProductusBook'; font-size:7.98;">c</tspan><tspan x="42.421" y="0" style="font-family:'ProductusBook'; font-size:7.98;">-</tspan></text>
<text transform="matrix(1 0 0 1 52.1997 150.0601)"><tspan x="0" y="0" style="font-family:'ProductusBook'; font-size:7.98;">tor</tspan><tspan x="8.475" y="0" style="font-family:'ProductusBook'; font-size:7.98;">F</tspan><tspan x="11.236" y="0" style="font-family:'ProductusBook'; font-size:7.98;">a</tspan><tspan x="14.563" y="0" style="font-family:'ProductusBook'; font-size:7.98;">c</tspan><tspan x="17.627" y="0" style="font-family:'ProductusBook'; font-size:7.98;">tory</tspan><tspan x="29.334" y="0" style="font-family:'ProductusBook'; font-size:7.98;"> </tspan><tspan x="30.898" y="0" style="font-family:'ProductusBook'; font-size:7.98;">Imp</tspan><tspan x="41.982" y="0" style="font-family:'ProductusBook'; font-size:7.98;">l</tspan></text>
<text transform="matrix(1 0 0 1 82.8599 111.3604)"><tspan x="0" y="0" style="font-family:'ProductusSemibold'; font-size:7.98;">TR</tspan><tspan x="8.93" y="0" style="font-family:'ProductusSemibold'; font-size:7.98;">0</tspan><tspan x="13.247" y="0" style="font-family:'ProductusSemibold'; font-size:7.98;">6</tspan><tspan x="17.62" y="0" style="font-family:'ProductusSemibold'; font-size:7.98;">9</tspan></text>
<text transform="matrix(1 0 0 1 41.4595 121.1406)"><tspan x="0" y="0" style="font-family:'ProductusSemibold'; font-size:7.98;">C</tspan><tspan x="4.676" y="0" style="font-family:'ProductusSemibold'; font-size:7.98;">o</tspan><tspan x="9.049" y="0" style="font-family:'ProductusSemibold'; font-size:7.98;">nnect</tspan><tspan x="28.488" y="0" style="font-family:'ProductusSemibold'; font-size:7.98;">o</tspan><tspan x="32.861" y="0" style="font-family:'ProductusSemibold'; font-size:7.98;">r</tspan><tspan x="35.797" y="0" style="font-family:'ProductusSemibold'; font-size:7.98;"> </tspan><tspan x="37.833" y="0" style="font-family:'ProductusSemibold'; font-size:7.98;">F</tspan><tspan x="41.312" y="0" style="font-family:'ProductusSemibold'; font-size:7.98;">a</tspan><tspan x="45.27" y="0" style="font-family:'ProductusSemibold'; font-size:7.98;">ctor</tspan><tspan x="59.354" y="0" style="font-family:'ProductusSemibold'; font-size:7.98;">y</tspan></text>
<rect x="108.9" y="2.04" width="54.3" height="27"/>
<rect x="108.9" y="1.8" width="54.54" height="0.48"/>
<rect x="162.96" y="2.04" width="0.48" height="27.24"/>
<rect x="108.66" y="28.8" width="54.54" height="0.48"/>
<rect x="108.66" y="1.8" width="0.48" height="27.24"/>
<rect x="106.5" y="0.24" style="fill:#FFFFFF;" width="54.36" height="27"/>
<rect x="106.5" width="54.6" height="0.48"/>
<rect x="160.62" y="0.24" width="0.48" height="27.24"/>
<rect x="106.26" y="27" width="54.6" height="0.48"/>
<rect x="106.26" width="0.48" height="27.24"/>
<text transform="matrix(1 0 0 1 108.8999 7.3799)"><tspan x="0" y="0" style="font-family:'ProductusBook'; font-size:7.98;">O</tspan><tspan x="5.299" y="0" style="font-family:'ProductusBook'; font-size:7.98;">t</tspan><tspan x="7.692" y="0" style="font-family:'ProductusBook'; font-size:7.98;">h</tspan><tspan x="11.411" y="0" style="font-family:'ProductusBook'; font-size:7.98;">e</tspan><tspan x="14.898" y="0" style="font-family:'ProductusBook'; font-size:7.98;">r</tspan><tspan x="17.165" y="0" style="font-family:'ProductusBook'; font-size:7.98;"> </tspan><tspan x="18.776" y="0" style="font-family:'ProductusBook'; font-size:7.98;">obje</tspan><tspan x="31.329" y="0" style="font-family:'ProductusBook'; font-size:7.98;">c</tspan><tspan x="34.449" y="0" style="font-family:'ProductusBook'; font-size:7.98;">t</tspan><tspan x="36.843" y="0" style="font-family:'ProductusBook'; font-size:7.98;"> </tspan></text>
<text transform="matrix(1 0 0 1 108.8999 15.8403)"><tspan x="0" y="0" style="font-family:'ProductusBook'; font-size:7.98;">mod</tspan><tspan x="13.279" y="0" style="font-family:'ProductusBook'; font-size:7.98;">e</tspan><tspan x="16.766" y="0" style="font-family:'ProductusBook'; font-size:7.98;">l</tspan><tspan x="18.346" y="0" style="font-family:'ProductusBook'; font-size:7.98;"> </tspan><tspan x="19.91" y="0" style="font-family:'ProductusBook'; font-size:7.98;">pr</tspan><tspan x="25.903" y="0" style="font-family:'ProductusBook'; font-size:7.98;">o</tspan><tspan x="29.565" y="0" style="font-family:'ProductusBook'; font-size:7.98;">vi</tspan><tspan x="34.377" y="0" style="font-family:'ProductusBook'; font-size:7.98;">d</tspan><tspan x="38.041" y="0" style="font-family:'ProductusBook'; font-size:7.98;">er</tspan><tspan x="43.842" y="0" style="font-family:'ProductusBook'; font-size:7.98;">s</tspan></text>
<rect x="134.64" y="28.32" width="0.48" height="0.24"/>
<rect x="134.64" y="28.56" width="0.48" height="1.98"/>
<rect x="134.64" y="35.1" width="0.48" height="0.24"/>
<rect x="134.64" y="35.34" width="0.48" height="4.2"/>
<rect x="134.64" y="44.1" width="0.48" height="0.24"/>
<rect x="134.64" y="44.34" width="0.48" height="4.14"/>
<rect x="134.64" y="53.04" width="0.48" height="0.24"/>
<rect x="134.64" y="53.28" width="0.48" height="4.2"/>
<rect x="134.64" y="62.04" width="0.48" height="0.24"/>
<rect x="134.64" y="62.28" width="0.48" height="1.98"/>
<rect x="113.4" y="120.48" width="0.48" height="7.56"/>
<rect x="77.94" y="127.56" width="35.7" height="0.48"/>
<rect x="77.94" y="127.8" width="0.48" height="7.32"/>
<polyline style="fill-rule:evenodd;clip-rule:evenodd;fill:#FFFFFF;" points="156.12,120.72 141.96,120.72 149.04,106.5 "/>
<polyline points="156.12,120.96 141.6,120.96 141.78,120.6 148.86,106.38 149.1,105.96 149.28,106.38 149.28,106.62 142.2,120.84 
	141.78,120.6 141.96,120.48 156.12,120.48 "/>
<polyline points="149.28,106.38 156.36,120.6 156.54,120.96 156.12,120.96 155.94,120.84 148.86,106.62 "/>
<rect x="165.6" y="136.2" width="54.3" height="27"/>
<rect x="165.6" y="135.96" width="54.54" height="0.48"/>
<rect x="219.66" y="136.2" width="0.48" height="27.24"/>
<rect x="165.36" y="162.96" width="54.54" height="0.48"/>
<rect x="165.36" y="135.96" width="0.48" height="27.24"/>
<rect x="163.2" y="134.4" style="fill:#FFFFFF;" width="54.36" height="27"/>
<rect x="163.2" y="134.16" width="54.6" height="0.48"/>
<rect x="217.32" y="134.4" width="0.48" height="27.24"/>
<rect x="162.96" y="161.16" width="54.6" height="0.48"/>
<rect x="162.96" y="134.16" width="0.48" height="27.24"/>
<text transform="matrix(1 0 0 1 165.6001 141.54)"><tspan x="0" y="0" style="font-family:'ProductusBook'; font-size:7.98;">N</tspan><tspan x="4.692" y="0" style="font-family:'ProductusBook'; font-size:7.98;">o</tspan><tspan x="8.531" y="0" style="font-family:'ProductusBook'; font-size:7.98;">ti</tspan><tspan x="12.44" y="0" style="font-family:'ProductusBook'; font-size:7.98;">f</tspan><tspan x="14.364" y="0" style="font-family:'ProductusBook'; font-size:7.98;">i</tspan><tspan x="15.984" y="0" style="font-family:'ProductusBook'; font-size:7.98;">ca</tspan><tspan x="22.352" y="0" style="font-family:'ProductusBook'; font-size:7.98;">t</tspan><tspan x="24.746" y="0" style="font-family:'ProductusBook'; font-size:7.98;">i</tspan><tspan x="26.31" y="0" style="font-family:'ProductusBook'; font-size:7.98;">o</tspan><tspan x="30.076" y="0" style="font-family:'ProductusBook'; font-size:7.98;">n</tspan></text>
<text transform="matrix(1 0 0 1.0522 165.6001 150.0601)"><tspan x="0" y="0" style="font-family:'ProductusOSGiBookc'; font-size:7.5841;">Servi</tspan><tspan x="13.355" y="0" style="font-family:'ProductusOSGiBookc'; font-size:7.5841;">c</tspan><tspan x="16.291" y="0" style="font-family:'ProductusOSGiBookc'; font-size:7.5841;">e</tspan><tspan x="19.589" y="0" style="font-family:'ProductusOSGiBookc'; font-size:7.5841;"> </tspan><tspan x="21.091" y="0" style="font-family:'ProductusOSGiBookc'; font-size:7.5841;">I</tspan><tspan x="22.585" y="0" style="font-family:'ProductusOSGiBookc'; font-size:7.5841;">m</tspan><tspan x="28.038" y="0" style="font-family:'ProductusOSGiBookc'; font-size:7.5841;">pl</tspan></text>
<text transform="matrix(1 0 0 1 275.52 135.1802)"><tspan x="0" y="0" style="font-family:'ProductusBook'; font-size:7.98;">Noti</tspan><tspan x="12.433" y="0" style="font-family:'ProductusBook'; font-size:7.98;">f</tspan><tspan x="14.355" y="0" style="font-family:'ProductusBook'; font-size:7.98;">i</tspan><tspan x="15.92" y="0" style="font-family:'ProductusBook'; font-size:7.98;">c</tspan><tspan x="18.984" y="0" style="font-family:'ProductusBook'; font-size:7.98;">a</tspan><tspan x="22.344" y="0" style="font-family:'ProductusBook'; font-size:7.98;">t</tspan><tspan x="24.689" y="0" style="font-family:'ProductusBook'; font-size:7.98;">i</tspan><tspan x="26.31" y="0" style="font-family:'ProductusBook'; font-size:7.98;">on</tspan></text>
<text transform="matrix(1 0 0 1 275.52 144.8999)"><tspan x="0" y="0" style="font-family:'ProductusBook'; font-size:7.98;">S</tspan><tspan x="3.711" y="0" style="font-family:'ProductusBook'; font-size:7.98;">e</tspan><tspan x="7.198" y="0" style="font-family:'ProductusBook'; font-size:7.98;">rvi</tspan><tspan x="14.268" y="0" style="font-family:'ProductusBook'; font-size:7.98;">c</tspan><tspan x="17.269" y="0" style="font-family:'ProductusBook'; font-size:7.98;">e</tspan></text>
<rect x="148.8" y="106.5" width="0.48" height="0.24"/>
<rect x="148.8" y="92.1" width="0.48" height="14.4"/>
<rect x="148.8" y="120.48" width="0.48" height="7.56"/>
<rect x="149.04" y="127.56" width="42.78" height="0.48"/>
<rect x="191.34" y="127.8" width="0.48" height="7.32"/>
<rect x="219.66" y="148.8" width="0.24" height="0.48"/>
<rect x="219.9" y="148.8" width="78.24" height="0.48"/>
<polyline style="fill-rule:evenodd;clip-rule:evenodd;fill:#FFFFFF;" points="312.06,141.96 312.06,156.12 297.9,149.04 "/>
<polyline points="312.3,141.96 312.3,156.54 297.78,149.28 297.3,149.1 297.78,148.86 298.02,148.86 312.18,155.94 311.94,156.36 
	311.82,156.12 311.82,141.96 "/>
<polyline points="297.78,148.86 312.3,141.6 312.3,141.96 312.18,142.2 298.02,149.28 "/>
<text transform="matrix(1 0 0 1 124.9199 127.3198)"><tspan x="0" y="0" style="font-family:'ProductusBook'; font-size:7.98;">R</tspan><tspan x="3.423" y="0" style="font-family:'ProductusBook'; font-size:7.98;">e</tspan><tspan x="6.911" y="0" style="font-family:'ProductusBook'; font-size:7.98;">m</tspan><tspan x="12.728" y="0" style="font-family:'ProductusBook'; font-size:7.98;">o</tspan><tspan x="16.51" y="0" style="font-family:'ProductusBook'; font-size:7.98;">t</tspan><tspan x="18.856" y="0" style="font-family:'ProductusBook'; font-size:7.98;">e</tspan></text>
<text transform="matrix(1 0 0 1 124.9199 137.0396)"><tspan x="0" y="0" style="font-family:'ProductusBook'; font-size:7.98;">A</tspan><tspan x="4.134" y="0" style="font-family:'ProductusBook'; font-size:7.98;">l</tspan><tspan x="5.698" y="0" style="font-family:'ProductusBook'; font-size:7.98;">e</tspan><tspan x="9.225" y="0" style="font-family:'ProductusBook'; font-size:7.98;">r</tspan><tspan x="11.451" y="0" style="font-family:'ProductusBook'; font-size:7.98;">t S</tspan><tspan x="19.2" y="0" style="font-family:'ProductusBook'; font-size:7.98;">e</tspan><tspan x="22.687" y="0" style="font-family:'ProductusBook'; font-size:7.98;">n</tspan><tspan x="26.39" y="0" style="font-family:'ProductusBook'; font-size:7.98;">d</tspan><tspan x="30.052" y="0" style="font-family:'ProductusBook'; font-size:7.98;">e</tspan><tspan x="33.58" y="0" style="font-family:'ProductusBook'; font-size:7.98;">r</tspan></text>
<rect x="311.82" y="148.8" width="99.66" height="0.48"/>
<rect x="411" y="49.62" width="0.48" height="99.42"/>
<rect x="389.76" y="49.62" width="21.479" height="0.48"/>
<rect x="389.76" y="106.26" width="0.239" height="0.48"/>
<rect x="390" y="106.26" width="21.48" height="0.48"/>
</svg>
