<?xml version="1.0" encoding="utf-8"?>
<!-- Generator: Adobe Illustrator 16.0.0, SVG Export Plug-In . SVG Version: 6.00 Build 0)  -->
<!DOCTYPE svg PUBLIC "-//W3C//DTD SVG 1.1//EN" "http://www.w3.org/Graphics/SVG/1.1/DTD/svg11.dtd">
<svg version="1.1" id="Layer_1" xmlns="http://www.w3.org/2000/svg" xmlns:xlink="http://www.w3.org/1999/xlink" x="0px" y="0px"
	 width="283.98px" height="94.728px" viewBox="0 0 283.98 94.728" style="enable-background:new 0 0 283.98 94.728;"
	 xml:space="preserve">
<rect x="2.64" y="3.708" width="54.3" height="27"/>
<rect x="2.64" y="3.467" width="54.54" height="0.48"/>
<rect x="56.7" y="3.708" width="0.48" height="27.24"/>
<rect x="2.4" y="30.467" width="54.54" height="0.48"/>
<rect x="2.4" y="3.467" width="0.48" height="27.24"/>
<rect x="0.24" y="1.908" style="fill:#FFFFFF;" width="54.36" height="27"/>
<rect x="0.24" y="1.667" width="54.6" height="0.48"/>
<rect x="54.36" y="1.908" width="0.48" height="27.24"/>
<rect y="28.667" width="54.6" height="0.48"/>
<rect y="1.667" width="0.48" height="27.24"/>
<text transform="matrix(1 0 0 1 2.6401 9.0474)"><tspan x="0" y="0" style="font-family:'ProductusBook'; font-size:7.98;">D</tspan><tspan x="4.875" y="0" style="font-family:'ProductusBook'; font-size:7.98;">m</tspan><tspan x="10.629" y="0" style="font-family:'ProductusBook'; font-size:7.98;">t</tspan><tspan x="12.975" y="0" style="font-family:'ProductusBook'; font-size:7.98;"> </tspan><tspan x="14.595" y="0" style="font-family:'ProductusBook'; font-size:7.98;">Da</tspan><tspan x="22.75" y="0" style="font-family:'ProductusBook'; font-size:7.98;">t</tspan><tspan x="25.145" y="0" style="font-family:'ProductusBook'; font-size:7.98;">a</tspan></text>
<rect x="229.44" y="3.708" width="54.3" height="27"/>
<rect x="229.44" y="3.467" width="54.54" height="0.48"/>
<rect x="283.5" y="3.708" width="0.479" height="27.24"/>
<rect x="229.2" y="30.467" width="54.54" height="0.48"/>
<rect x="229.2" y="3.467" width="0.48" height="27.24"/>
<rect x="227.041" y="1.908" style="fill:#FFFFFF;" width="54.359" height="27"/>
<rect x="227.041" y="1.667" width="54.6" height="0.48"/>
<rect x="281.161" y="1.908" width="0.479" height="27.24"/>
<rect x="226.8" y="28.667" width="54.6" height="0.48"/>
<rect x="226.8" y="1.667" width="0.479" height="27.24"/>
<text transform="matrix(1 0 0 1 229.4399 9.0474)"><tspan x="0" y="0" style="font-family:'ProductusBook'; font-size:7.98;">P</tspan><tspan x="3.184" y="0" style="font-family:'ProductusBook'; font-size:7.98;">a</tspan><tspan x="6.487" y="0" style="font-family:'ProductusBook'; font-size:7.98;">rameter</tspan><tspan x="29.47" y="0" style="font-family:'ProductusBook'; font-size:7.98;"> </tspan><tspan x="31.09" y="0" style="font-family:'ProductusBook'; font-size:7.98;">V</tspan><tspan x="34.696" y="0" style="font-family:'ProductusBook'; font-size:7.98;">a</tspan><tspan x="38.056" y="0" style="font-family:'ProductusBook'; font-size:7.98;">lue</tspan></text>
<rect x="2.64" y="67.488" width="54.3" height="27"/>
<rect x="2.64" y="67.248" width="54.54" height="0.48"/>
<rect x="56.7" y="67.487" width="0.48" height="27.24"/>
<rect x="2.4" y="94.248" width="54.54" height="0.48"/>
<rect x="2.4" y="67.248" width="0.48" height="27.24"/>
<rect x="0.3" y="65.688" style="fill:#FFFFFF;" width="54.3" height="27"/>
<rect x="0.3" y="65.448" width="54.54" height="0.479"/>
<rect x="54.36" y="65.688" width="0.48" height="27.24"/>
<rect x="0.06" y="92.448" width="54.54" height="0.479"/>
<rect x="0.06" y="65.448" width="0.48" height="27.24"/>
<text transform="matrix(1 0 0 1 2.6401 72.8276)"><tspan x="0" y="0" style="font-family:'ProductusBook'; font-size:7.98;">M</tspan><tspan x="5.889" y="0" style="font-family:'ProductusBook'; font-size:7.98;">e</tspan><tspan x="9.424" y="0" style="font-family:'ProductusBook'; font-size:7.98;">ta</tspan><tspan x="15.114" y="0" style="font-family:'ProductusBook'; font-size:7.98;"> </tspan><tspan x="16.678" y="0" style="font-family:'ProductusBook'; font-size:7.98;">N</tspan><tspan x="21.418" y="0" style="font-family:'ProductusBook'; font-size:7.98;">ode</tspan></text>
<rect x="28.38" y="66.167" width="0.48" height="0.24"/>
<rect x="28.38" y="62.147" width="0.48" height="4.02"/>
<rect x="28.38" y="53.567" width="0.48" height="0.24"/>
<rect x="28.38" y="43.067" width="0.48" height="10.5"/>
<rect x="28.38" y="34.488" width="0.48" height="0.24"/>
<rect x="28.38" y="30.467" width="0.48" height="4.021"/>
<rect x="56.7" y="79.607" width="61.62" height="0.48"/>
<rect x="117.84" y="15.828" width="0.479" height="64.02"/>
<polyline points="118.081,16.308 56.94,16.308 56.94,15.828 56.94,16.308 56.94,15.828 118.081,15.828 "/>
<rect x="56.94" y="15.828" width="163.26" height="0.48"/>
<rect x="127.621" y="15.828" width="0.239" height="0.48"/>
<rect x="127.86" y="15.828" width="99.42" height="0.48"/>
<text transform="matrix(1 0 0 1 64.0801 6.6475)"><tspan x="0" y="0" style="font-family:'ProductusBook'; font-size:7.98;">sour</tspan><tspan x="12.544" y="0" style="font-family:'ProductusBook'; font-size:7.98;">c</tspan><tspan x="15.545" y="0" style="font-family:'ProductusBook'; font-size:7.98;">e</tspan></text>
<text transform="matrix(1 0 0 1 229.1997 38.3271)"><tspan x="0" y="0" style="font-family:'ProductusBook'; font-size:7.98;">d</tspan><tspan x="3.694" y="0" style="font-family:'ProductusBook'; font-size:7.98;">e</tspan><tspan x="7.229" y="0" style="font-family:'ProductusBook'; font-size:7.98;">sti</tspan><tspan x="13.988" y="0" style="font-family:'ProductusBook'; font-size:7.98;">n</tspan><tspan x="17.707" y="0" style="font-family:'ProductusBook'; font-size:7.98;">ation</tspan></text>
<text transform="matrix(1 0 0 1 64.0801 91.667)"><tspan x="0" y="0" style="font-family:'ProductusBook'; font-size:7.98;">meta</tspan><tspan x="14.946" y="0" style="font-family:'ProductusBook'; font-size:7.98;"> </tspan><tspan x="16.566" y="0" style="font-family:'ProductusBook'; font-size:7.98;">node</tspan></text>
<text transform="matrix(1 0 0 1 120.7202 37.6675)"><tspan x="0" y="0" style="font-family:'ProductusBook'; font-size:7.98;">T</tspan><tspan x="3.782" y="0" style="font-family:'ProductusBook'; font-size:7.98;">R</tspan><tspan x="7.382" y="0" style="font-family:'ProductusBook'; font-size:7.98;">0</tspan><tspan x="11.34" y="0" style="font-family:'ProductusBook'; font-size:7.98;">6</tspan><tspan x="15.065" y="0" style="font-family:'ProductusBook'; font-size:7.98;">9</tspan><tspan x="18.84" y="0" style="font-family:'ProductusBook'; font-size:7.98;"> </tspan><tspan x="20.452" y="0" style="font-family:'ProductusBook'; font-size:7.98;">C</tspan><tspan x="24.594" y="0" style="font-family:'ProductusBook'; font-size:7.98;">o</tspan><tspan x="28.376" y="0" style="font-family:'ProductusBook'; font-size:7.98;">n</tspan><tspan x="32.095" y="0" style="font-family:'ProductusBook'; font-size:7.98;">n</tspan><tspan x="35.758" y="0" style="font-family:'ProductusBook'; font-size:7.98;">e</tspan><tspan x="39.293" y="0" style="font-family:'ProductusBook'; font-size:7.98;">c</tspan><tspan x="42.357" y="0" style="font-family:'ProductusBook'; font-size:7.98;">t</tspan><tspan x="44.751" y="0" style="font-family:'ProductusBook'; font-size:7.98;">or</tspan></text>
<polyline style="fill-rule:evenodd;clip-rule:evenodd;fill:#FFFFFF;" points="113.64,1.908 113.64,30.288 127.86,23.147 
	127.86,8.988 "/>
<polyline points="113.88,1.908 113.88,30.288 113.76,30.528 113.52,30.107 127.74,22.968 128.1,23.147 127.621,23.147 
	127.621,8.988 127.98,8.808 128.1,8.868 128.1,23.328 127.98,23.388 113.76,30.528 113.4,30.708 113.4,1.908 "/>
<polyline points="127.74,9.228 113.52,2.147 113.4,1.908 113.4,1.547 113.76,1.728 127.98,8.808 "/>
<text transform="matrix(1 0 0 1 157.8599 13.5474)"><tspan x="0" y="0" style="font-family:'ProductusBook'; font-size:7.98;">val</tspan><tspan x="8.14" y="0" style="font-family:'ProductusBook'; font-size:7.98;">u</tspan><tspan x="11.803" y="0" style="font-family:'ProductusBook'; font-size:7.98;">e</tspan><tspan x="15.313" y="0" style="font-family:'ProductusBook'; font-size:7.98;"> </tspan><tspan x="16.934" y="0" style="font-family:'ProductusBook'; font-size:7.98;">+</tspan><tspan x="20.836" y="0" style="font-family:'ProductusBook'; font-size:7.98;"> </tspan><tspan x="22.455" y="0" style="font-family:'ProductusBook'; font-size:7.98;">t</tspan><tspan x="24.802" y="0" style="font-family:'ProductusBook'; font-size:7.98;">y</tspan><tspan x="28.041" y="0" style="font-family:'ProductusBook'; font-size:7.98;">p</tspan><tspan x="31.744" y="0" style="font-family:'ProductusBook'; font-size:7.98;">e</tspan></text>
</svg>
