<?xml version="1.0" encoding="utf-8"?>
<!-- Generator: Adobe Illustrator 16.0.0, SVG Export Plug-In . SVG Version: 6.00 Build 0)  -->
<!DOCTYPE svg PUBLIC "-//W3C//DTD SVG 1.1//EN" "http://www.w3.org/Graphics/SVG/1.1/DTD/svg11.dtd">
<svg version="1.1" id="Layer_1" xmlns="http://www.w3.org/2000/svg" xmlns:xlink="http://www.w3.org/1999/xlink" x="0px" y="0px"
	 width="163.439px" height="37.954px" viewBox="0 0 163.439 37.954" style="enable-background:new 0 0 163.439 37.954;"
	 xml:space="preserve">
<rect x="2.58" y="8.448" width="54.36" height="27"/>
<rect x="2.58" y="8.208" width="54.6" height="0.479"/>
<rect x="56.7" y="8.448" width="0.48" height="27.239"/>
<rect x="2.34" y="35.208" width="54.6" height="0.479"/>
<rect x="2.34" y="8.208" width="0.48" height="27.24"/>
<rect x="0.24" y="6.647" style="fill:#FFFFFF;" width="54.3" height="27"/>
<rect x="0.24" y="6.408" width="54.54" height="0.479"/>
<rect x="54.3" y="6.647" width="0.48" height="27.24"/>
<rect y="33.408" width="54.54" height="0.479"/>
<rect y="6.408" width="0.48" height="27.239"/>
<text transform="matrix(1 0 0 1 2.5801 13.7881)"><tspan x="0" y="0" style="font-family:'ProductusSemibold'; font-size:7.98;">A</tspan><tspan x="4.732" y="0" style="font-family:'ProductusSemibold'; font-size:7.98;">C</tspan><tspan x="9.711" y="0" style="font-family:'ProductusSemibold'; font-size:7.98;">S</tspan></text>
<polyline points="101.34,13.728 101.34,10.788 102.06,11.208 105.78,13.308 106.56,13.788 105.84,14.208 102.12,16.368 
	101.34,16.848 101.34,15.888 101.58,15.468 105.3,13.308 105.84,14.208 105.3,14.208 101.58,12.107 102.06,11.208 102.36,11.628 
	102.36,13.728 "/>
<rect x="101.34" y="13.728" width="1.021" height="2.16"/>
<polyline style="fill-rule:evenodd;clip-rule:evenodd;" points="101.82,13.728 101.82,11.628 105.54,13.728 101.82,15.888 "/>
<rect x="56.7" y="13.488" width="0.24" height="0.479"/>
<rect x="56.94" y="13.488" width="3.96" height="0.479"/>
<rect x="67.38" y="13.488" width="0.24" height="0.479"/>
<rect x="67.62" y="13.488" width="8.28" height="0.479"/>
<rect x="82.38" y="13.488" width="0.24" height="0.479"/>
<rect x="82.62" y="13.488" width="8.28" height="0.479"/>
<rect x="97.32" y="13.488" width="0.239" height="0.479"/>
<rect x="97.56" y="13.488" width="4.021" height="0.479"/>
<polyline points="108.899,8.027 163.2,8.027 163.2,35.027 108.899,35.027 "/>
<rect x="108.899" y="7.788" width="54.54" height="0.479"/>
<rect x="162.96" y="8.027" width="0.479" height="27.24"/>
<rect x="108.66" y="34.788" width="54.54" height="0.479"/>
<rect x="108.66" y="7.788" width="0.479" height="27.239"/>
<rect x="106.56" y="6.228" style="fill:#FFFFFF;" width="54.301" height="27"/>
<rect x="106.56" y="5.988" width="54.54" height="0.479"/>
<rect x="160.62" y="6.228" width="0.479" height="27.24"/>
<rect x="106.32" y="32.988" width="54.54" height="0.479"/>
<rect x="106.32" y="5.988" width="0.479" height="27.239"/>
<text transform="matrix(1 0 0 1 108.8994 13.3076)"><tspan x="0" y="0" style="font-family:'ProductusSemibold'; font-size:7.98;">C</tspan><tspan x="4.979" y="0" style="font-family:'ProductusSemibold'; font-size:7.98;">P</tspan><tspan x="9.113" y="0" style="font-family:'ProductusSemibold'; font-size:7.98;">E</tspan></text>
<polyline points="62.1,27.888 62.1,30.948 61.32,30.468 57.6,28.308 56.82,27.888 57.66,27.408 61.38,25.308 62.1,24.888 
	62.1,25.788 61.86,26.208 58.14,28.308 57.66,27.408 58.14,27.408 61.86,29.567 61.32,30.468 61.08,30.048 61.08,27.888 "/>
<rect x="61.08" y="25.788" width="1.02" height="2.1"/>
<polyline style="fill-rule:evenodd;clip-rule:evenodd;" points="61.62,27.888 61.62,30.048 57.9,27.888 61.62,25.788 "/>
<rect x="106.56" y="27.647" width="0.24" height="0.48"/>
<rect x="102.54" y="27.647" width="4.02" height="0.48"/>
<rect x="95.82" y="27.647" width="0.239" height="0.48"/>
<rect x="87.54" y="27.647" width="8.28" height="0.48"/>
<rect x="80.82" y="27.647" width="0.24" height="0.48"/>
<rect x="72.6" y="27.647" width="8.22" height="0.48"/>
<rect x="65.88" y="27.647" width="0.24" height="0.48"/>
<rect x="61.86" y="27.647" width="4.02" height="0.48"/>
<text transform="matrix(1 0 0 1 69.6597 6.6475)"><tspan x="0" y="0" style="font-family:'ProductusSemibold'; font-size:7.98;">g</tspan><tspan x="3.894" y="0" style="font-family:'ProductusSemibold'; font-size:7.98;">e</tspan><tspan x="8.028" y="0" style="font-family:'ProductusSemibold'; font-size:7.98;">t</tspan><tspan x="11.148" y="0" style="font-family:'ProductusSemibold'; font-size:7.98;">/</tspan><tspan x="14.021" y="0" style="font-family:'ProductusSemibold'; font-size:7.98;">set</tspan><tspan x="24.61" y="0" style="font-family:'ProductusSemibold'; font-size:7.98;">/</tspan><tspan x="27.371" y="0" style="font-family:'ProductusSemibold'; font-size:7.98;">.</tspan><tspan x="29.597" y="0" style="font-family:'ProductusSemibold'; font-size:7.98;">.</tspan><tspan x="31.872" y="0" style="font-family:'ProductusSemibold'; font-size:7.98;">.</tspan></text>
<text transform="matrix(1 0 0 1 71.8799 35.5684)"><tspan x="0" y="0" style="font-family:'ProductusSemibold'; font-size:7.98;">I</tspan><tspan x="2.21" y="0" style="font-family:'ProductusSemibold'; font-size:7.98;">n</tspan><tspan x="6.527" y="0" style="font-family:'ProductusSemibold'; font-size:7.98;">f</tspan><tspan x="9.225" y="0" style="font-family:'ProductusSemibold'; font-size:7.98;">o</tspan><tspan x="13.598" y="0" style="font-family:'ProductusSemibold'; font-size:7.98;">r</tspan><tspan x="16.55" y="0" style="font-family:'ProductusSemibold'; font-size:7.98;">m</tspan></text>
<text transform="matrix(1 0 0 1 65.4004 22.8477)"><tspan x="0" y="0" style="font-family:'ProductusSemibold'; font-size:7.98;">S</tspan><tspan x="4.261" y="0" style="font-family:'ProductusSemibold'; font-size:7.98;">O</tspan><tspan x="9.775" y="0" style="font-family:'ProductusSemibold'; font-size:7.98;">A</tspan><tspan x="14.755" y="0" style="font-family:'ProductusSemibold'; font-size:7.98;">P</tspan><tspan x="18.481" y="0" style="font-family:'ProductusSemibold'; font-size:7.98;">/HTT</tspan><tspan x="36.045" y="0" style="font-family:'ProductusSemibold'; font-size:7.98;">P</tspan></text>
</svg>
