<?xml version="1.0" encoding="utf-8"?>
<!-- Generator: Adobe Illustrator 16.0.0, SVG Export Plug-In . SVG Version: 6.00 Build 0)  -->
<!DOCTYPE svg PUBLIC "-//W3C//DTD SVG 1.1//EN" "http://www.w3.org/Graphics/SVG/1.1/DTD/svg11.dtd">
<svg version="1.1" id="Layer_1" xmlns="http://www.w3.org/2000/svg" xmlns:xlink="http://www.w3.org/1999/xlink" x="0px" y="0px"
	 width="298.14px" height="100.14px" viewBox="0 0 298.14 100.14" style="enable-background:new 0 0 298.14 100.14;"
	 xml:space="preserve">
<rect x="141.72" y="28.8" width="0.48" height="0.24"/>
<rect x="141.72" y="29.04" width="0.48" height="42.779"/>
<rect x="170.1" y="14.64" width="0.24" height="0.48"/>
<rect x="170.34" y="14.64" width="85.26" height="0.48"/>
<rect x="115.98" y="72.899" width="54.36" height="27"/>
<rect x="115.98" y="72.66" width="54.6" height="0.479"/>
<rect x="170.1" y="72.899" width="0.48" height="27.24"/>
<rect x="115.74" y="99.66" width="54.6" height="0.479"/>
<rect x="115.74" y="72.66" width="0.48" height="27.239"/>
<rect x="113.64" y="71.1" style="fill:#FFFFFF;" width="54.3" height="27"/>
<rect x="113.64" y="70.859" width="54.54" height="0.48"/>
<rect x="167.7" y="71.1" width="0.479" height="27.24"/>
<rect x="113.4" y="97.859" width="54.54" height="0.48"/>
<rect x="113.4" y="70.859" width="0.48" height="27.24"/>
<text transform="matrix(1 0 0 1 115.98 78.2393)" style="font-family:'ProductusOSGiBookc'; font-size:7.98;">TR069 </text>
<text transform="matrix(1 0 0 1 115.98 86.7598)"><tspan x="0" y="0" style="font-family:'ProductusOSGiBookc'; font-size:7.98;">C</tspan><tspan x="4.142" y="0" style="font-family:'ProductusOSGiBookc'; font-size:7.98;">o</tspan><tspan x="7.917" y="0" style="font-family:'ProductusOSGiBookc'; font-size:7.98;">nnect</tspan><tspan x="24.115" y="0" style="font-family:'ProductusOSGiBookc'; font-size:7.98;">o</tspan><tspan x="27.841" y="0" style="font-family:'ProductusOSGiBookc'; font-size:7.98;">r </tspan></text>
<text transform="matrix(1 0 0 1 115.98 95.2197)"><tspan x="0" y="0" style="font-family:'ProductusOSGiBookc'; font-size:7.98;">F</tspan><tspan x="3" y="0" style="font-family:'ProductusOSGiBookc'; font-size:7.98;">a</tspan><tspan x="6.241" y="0" style="font-family:'ProductusOSGiBookc'; font-size:7.98;">c</tspan><tspan x="9.36" y="0" style="font-family:'ProductusOSGiBookc'; font-size:7.98;">t</tspan><tspan x="11.699" y="0" style="font-family:'ProductusOSGiBookc'; font-size:7.98;">o</tspan><tspan x="15.425" y="0" style="font-family:'ProductusOSGiBookc'; font-size:7.98;">r</tspan><tspan x="17.643" y="0" style="font-family:'ProductusOSGiBookc'; font-size:7.98;">y</tspan><tspan x="20.82" y="0" style="font-family:'ProductusOSGiBookc'; font-size:7.98;"> </tspan><tspan x="22.431" y="0" style="font-family:'ProductusOSGiBookc'; font-size:7.98;">i</tspan><tspan x="23.939" y="0" style="font-family:'ProductusOSGiBookc'; font-size:7.98;">m</tspan><tspan x="29.693" y="0" style="font-family:'ProductusOSGiBookc'; font-size:7.98;">pl</tspan></text>
<polyline style="fill-rule:evenodd;clip-rule:evenodd;fill:#FFFFFF;" points="212.819,14.88 198.66,7.8 198.66,21.96 "/>
<polyline points="212.7,15.12 198.54,8.04 198.42,7.8 198.899,7.8 198.899,21.96 198.78,22.2 198.42,22.38 198.42,7.439 
	212.939,14.7 "/>
<polyline points="198.54,21.78 212.7,14.7 212.939,14.7 213.42,14.939 212.939,15.12 198.78,22.2 "/>
<rect x="115.98" y="2.04" width="54.36" height="27"/>
<rect x="115.98" y="1.8" width="54.6" height="0.48"/>
<rect x="170.1" y="2.04" width="0.48" height="27.24"/>
<rect x="115.74" y="28.8" width="54.6" height="0.48"/>
<rect x="115.74" y="1.8" width="0.48" height="27.24"/>
<rect x="113.64" y="0.24" style="fill:#FFFFFF;" width="54.3" height="27"/>
<rect x="113.64" width="54.54" height="0.479"/>
<rect x="167.7" y="0.24" width="0.479" height="27.239"/>
<rect x="113.4" y="27" width="54.54" height="0.479"/>
<rect x="113.4" width="0.48" height="27.24"/>
<text transform="matrix(1 0 0 1 115.98 7.3799)"><tspan x="0" y="0" style="font-family:'ProductusOSGiBookc'; font-size:7.98;">T</tspan><tspan x="3.791" y="0" style="font-family:'ProductusOSGiBookc'; font-size:7.98;">R</tspan><tspan x="7.213" y="0" style="font-family:'ProductusOSGiBookc'; font-size:7.98;">-</tspan><tspan x="9.895" y="0" style="font-family:'ProductusOSGiBookc'; font-size:7.98;">0</tspan><tspan x="13.797" y="0" style="font-family:'ProductusOSGiBookc'; font-size:7.98;">69</tspan><tspan x="21.25" y="0" style="font-family:'ProductusOSGiBookc'; font-size:7.98;"> </tspan><tspan x="22.871" y="0" style="font-family:'ProductusOSGiBookc'; font-size:7.98;">P</tspan><tspan x="26.118" y="0" style="font-family:'ProductusOSGiBookc'; font-size:7.98;">r</tspan><tspan x="28.161" y="0" style="font-family:'ProductusOSGiBookc'; font-size:7.98;">o</tspan><tspan x="31.919" y="0" style="font-family:'ProductusOSGiBookc'; font-size:7.98;">toc</tspan><tspan x="41.096" y="0" style="font-family:'ProductusOSGiBookc'; font-size:7.98;">ol</tspan></text>
<text transform="matrix(1 0 0 1.0522 115.98 15.8398)"><tspan x="0" y="0" style="font-family:'ProductusOSGiBookc'; font-size:7.5841;">A</tspan><tspan x="3.663" y="0" style="font-family:'ProductusOSGiBookc'; font-size:7.5841;">dapte</tspan><tspan x="19.255" y="0" style="font-family:'ProductusOSGiBookc'; font-size:7.5841;">r</tspan><tspan x="21.357" y="0" style="font-family:'ProductusOSGiBookc'; font-size:7.5841;"> </tspan><tspan x="22.858" y="0" style="font-family:'ProductusOSGiBookc'; font-size:7.5841;">I</tspan><tspan x="24.352" y="0" style="font-family:'ProductusOSGiBookc'; font-size:7.5841;">m</tspan><tspan x="29.752" y="0" style="font-family:'ProductusOSGiBookc'; font-size:7.5841;">pl</tspan></text>
<text transform="matrix(1 0 0 1 110.8198 44.9395)"><tspan x="0" y="0" style="font-family:'ProductusSemibold'; font-size:7.98;">T</tspan><tspan x="4.437" y="0" style="font-family:'ProductusSemibold'; font-size:7.98;">R</tspan><tspan x="8.874" y="0" style="font-family:'ProductusSemibold'; font-size:7.98;">0</tspan><tspan x="13.247" y="0" style="font-family:'ProductusSemibold'; font-size:7.98;">6</tspan><tspan x="17.62" y="0" style="font-family:'ProductusSemibold'; font-size:7.98;">9</tspan></text>
<text transform="matrix(1 0 0 1 94.9795 55.0205)"><tspan x="0" y="0" style="font-family:'ProductusSemibold'; font-size:7.98;">C</tspan><tspan x="4.676" y="0" style="font-family:'ProductusSemibold'; font-size:7.98;">o</tspan><tspan x="8.993" y="0" style="font-family:'ProductusSemibold'; font-size:7.98;">n</tspan><tspan x="13.311" y="0" style="font-family:'ProductusSemibold'; font-size:7.98;">n</tspan><tspan x="17.563" y="0" style="font-family:'ProductusSemibold'; font-size:7.98;">e</tspan><tspan x="21.697" y="0" style="font-family:'ProductusSemibold'; font-size:7.98;">ct</tspan><tspan x="28.472" y="0" style="font-family:'ProductusSemibold'; font-size:7.98;">o</tspan><tspan x="32.789" y="0" style="font-family:'ProductusSemibold'; font-size:7.98;">r</tspan><tspan x="35.781" y="0" style="font-family:'ProductusSemibold'; font-size:7.98;"> </tspan></text>
<polyline style="fill-rule:evenodd;clip-rule:evenodd;fill:#FFFFFF;" points="141.96,57.359 149.04,43.2 134.88,43.2 "/>
<polyline points="141.78,57.24 148.859,43.08 149.04,42.96 149.04,43.439 134.88,43.439 134.7,43.319 134.52,42.96 149.46,42.96 
	142.2,57.479 "/>
<polyline points="135.12,43.08 142.2,57.24 142.2,57.479 141.96,57.899 141.78,57.479 134.7,43.319 "/>
<rect x="243.54" y="2.46" width="54.359" height="27"/>
<rect x="243.54" y="2.22" width="54.6" height="0.48"/>
<rect x="297.66" y="2.46" width="0.479" height="27.24"/>
<rect x="243.3" y="29.22" width="54.6" height="0.48"/>
<rect x="243.3" y="2.22" width="0.48" height="27.24"/>
<rect x="241.2" y="0.66" style="fill:#FFFFFF;" width="54.3" height="27"/>
<rect x="241.2" y="0.42" width="54.54" height="0.479"/>
<rect x="295.26" y="0.66" width="0.48" height="27.239"/>
<rect x="240.96" y="27.42" width="54.54" height="0.479"/>
<rect x="240.96" y="0.42" width="0.479" height="27.24"/>
<text transform="matrix(1 0 0 1 243.54 7.7998)"><tspan x="0" y="0" style="font-family:'ProductusOSGiBookc'; font-size:7.98;">D</tspan><tspan x="4.907" y="0" style="font-family:'ProductusOSGiBookc'; font-size:7.98;">m</tspan><tspan x="10.613" y="0" style="font-family:'ProductusOSGiBookc'; font-size:7.98;">t</tspan><tspan x="12.951" y="0" style="font-family:'ProductusOSGiBookc'; font-size:7.98;"> </tspan><tspan x="14.563" y="0" style="font-family:'ProductusOSGiBookc'; font-size:7.98;">A</tspan><tspan x="18.409" y="0" style="font-family:'ProductusOSGiBookc'; font-size:7.98;">d</tspan><tspan x="22.128" y="0" style="font-family:'ProductusOSGiBookc'; font-size:7.98;">m</tspan><tspan x="27.834" y="0" style="font-family:'ProductusOSGiBookc'; font-size:7.98;">i</tspan><tspan x="29.39" y="0" style="font-family:'ProductusOSGiBookc'; font-size:7.98;">n</tspan></text>
<text transform="matrix(1 0 0 1.0522 243.54 16.3193)"><tspan x="0" y="0" style="font-family:'ProductusOSGiBookc'; font-size:7.5841;">Servi</tspan><tspan x="13.355" y="0" style="font-family:'ProductusOSGiBookc'; font-size:7.5841;">c</tspan><tspan x="16.29" y="0" style="font-family:'ProductusOSGiBookc'; font-size:7.5841;">e</tspan><tspan x="19.59" y="0" style="font-family:'ProductusOSGiBookc'; font-size:7.5841;"> </tspan><tspan x="21.091" y="0" style="font-family:'ProductusOSGiBookc'; font-size:7.5841;">I</tspan><tspan x="22.585" y="0" style="font-family:'ProductusOSGiBookc'; font-size:7.5841;">m</tspan><tspan x="27.984" y="0" style="font-family:'ProductusOSGiBookc'; font-size:7.5841;">pl</tspan></text>
<text transform="matrix(1 0 0 1 207.1797 25.1396)"><tspan x="0" y="0" style="font-family:'ProductusBook'; font-size:7.98;">D</tspan><tspan x="4.804" y="0" style="font-family:'ProductusBook'; font-size:7.98;">mt</tspan></text>
<text transform="matrix(1 0 0 1 207.1797 35.2197)"><tspan x="0" y="0" style="font-family:'ProductusBook'; font-size:7.98;">A</tspan><tspan x="3.902" y="0" style="font-family:'ProductusBook'; font-size:7.98;">d</tspan><tspan x="7.621" y="0" style="font-family:'ProductusBook'; font-size:7.98;">min</tspan></text>
<rect x="2.58" y="2.04" width="54.36" height="27"/>
<rect x="2.58" y="1.8" width="54.6" height="0.48"/>
<rect x="56.7" y="2.04" width="0.48" height="27.24"/>
<rect x="2.34" y="28.8" width="54.6" height="0.48"/>
<rect x="2.34" y="1.8" width="0.48" height="27.24"/>
<rect x="0.24" y="0.24" style="fill:#FFFFFF;" width="54.3" height="27"/>
<rect x="0.24" width="54.54" height="0.479"/>
<rect x="54.3" y="0.24" width="0.48" height="27.239"/>
<rect y="27" width="54.54" height="0.479"/>
<rect width="0.48" height="27.24"/>
<text transform="matrix(1 0 0 1 2.5796 7.3799)"><tspan x="0" y="0" style="font-family:'ProductusOSGiBookc'; font-size:7.98;">R</tspan><tspan x="3.503" y="0" style="font-family:'ProductusOSGiBookc'; font-size:7.98;">e</tspan><tspan x="6.982" y="0" style="font-family:'ProductusOSGiBookc'; font-size:7.98;">m</tspan><tspan x="12.68" y="0" style="font-family:'ProductusOSGiBookc'; font-size:7.98;">o</tspan><tspan x="16.455" y="0" style="font-family:'ProductusOSGiBookc'; font-size:7.98;">te</tspan><tspan x="22.272" y="0" style="font-family:'ProductusOSGiBookc'; font-size:7.98;"> </tspan><tspan x="23.892" y="0" style="font-family:'ProductusOSGiBookc'; font-size:7.98;">M</tspan><tspan x="29.701" y="0" style="font-family:'ProductusOSGiBookc'; font-size:7.98;">a</tspan><tspan x="32.997" y="0" style="font-family:'ProductusOSGiBookc'; font-size:7.98;">n</tspan><tspan x="36.651" y="0" style="font-family:'ProductusOSGiBookc'; font-size:7.98;">a</tspan><tspan x="39.891" y="0" style="font-family:'ProductusOSGiBookc'; font-size:7.98;">g</tspan><tspan x="43.371" y="0" style="font-family:'ProductusOSGiBookc'; font-size:7.98;">e</tspan><tspan x="46.85" y="0" style="font-family:'ProductusOSGiBookc'; font-size:7.98;">r</tspan></text>
<rect x="56.7" y="14.16" width="2.22" height="0.479"/>
<rect x="63" y="14.22" width="4.02" height="0.48"/>
<rect x="71.1" y="14.28" width="0.24" height="0.479"/>
<rect x="74.88" y="14.34" width="0.24" height="0.479"/>
<polyline style="fill-rule:evenodd;clip-rule:evenodd;" points="71.34,14.28 71.34,14.76 74.88,14.819 74.88,14.34 "/>
<rect x="79.2" y="14.34" width="0.24" height="0.479"/>
<rect x="82.98" y="14.399" width="0.24" height="0.48"/>
<polyline style="fill-rule:evenodd;clip-rule:evenodd;" points="79.44,14.34 79.44,14.819 82.98,14.88 82.98,14.399 "/>
<rect x="87.3" y="14.399" width="0.24" height="0.48"/>
<rect x="91.08" y="14.46" width="0.24" height="0.479"/>
<polyline style="fill-rule:evenodd;clip-rule:evenodd;" points="87.54,14.399 87.54,14.88 91.08,14.939 91.08,14.46 "/>
<rect x="95.4" y="14.46" width="0.24" height="0.479"/>
<rect x="99.18" y="14.52" width="0.24" height="0.48"/>
<polyline style="fill-rule:evenodd;clip-rule:evenodd;" points="95.64,14.46 95.64,14.939 99.18,15 99.18,14.52 "/>
<rect x="103.5" y="14.52" width="0.24" height="0.48"/>
<rect x="107.34" y="14.58" width="0.24" height="0.479"/>
<polyline style="fill-rule:evenodd;clip-rule:evenodd;" points="103.74,14.52 103.74,15 107.34,15.06 107.34,14.58 "/>
<rect x="111.66" y="14.58" width="0.24" height="0.479"/>
<rect x="113.64" y="14.64" width="0.24" height="0.48"/>
<polyline points="111.9,14.58 111.9,15.06 113.64,15.12 113.64,14.64 "/>
<polyline points="28.86,67.68 28.98,67.5 28.56,67.26 28.44,67.439 "/>
<polyline points="21.78,81.84 21.66,82.02 21.24,81.78 21.36,81.6 "/>
<polyline points="28.86,67.68 28.44,67.439 21.36,81.6 21.78,81.84 "/>
<polyline points="28.86,67.439 28.74,67.26 28.32,67.5 28.44,67.68 "/>
<polyline points="35.94,81.6 36.06,81.78 35.64,82.02 35.52,81.84 "/>
<polyline points="28.86,67.439 28.44,67.68 35.52,81.84 35.94,81.6 "/>
<polyline points="35.94,81.84 36.06,81.66 35.64,81.42 35.52,81.6 "/>
<polyline points="28.86,96 28.74,96.18 28.32,95.939 28.44,95.76 "/>
<polyline points="35.94,81.84 35.52,81.6 28.44,95.76 28.86,96 "/>
<polyline points="35.94,81.6 35.82,81.42 35.4,81.66 35.52,81.84 "/>
<polyline points="43.02,95.76 43.14,95.939 42.72,96.18 42.6,96 "/>
<polyline points="35.94,81.6 35.52,81.84 42.6,96 43.02,95.76 "/>
<rect x="25.08" y="64.02" style="fill:#1A1A1A;" width="7.08" height="7.08"/>
<rect x="25.08" y="63.78" width="7.32" height="0.479"/>
<rect x="31.92" y="64.02" width="0.48" height="7.32"/>
<rect x="24.84" y="70.859" width="7.32" height="0.48"/>
<rect x="24.84" y="63.78" width="0.48" height="7.319"/>
<rect x="18" y="78.18" style="fill:#1A1A1A;" width="7.08" height="7.08"/>
<rect x="18" y="77.939" width="7.32" height="0.48"/>
<rect x="24.84" y="78.18" width="0.48" height="7.32"/>
<rect x="17.76" y="85.02" width="7.32" height="0.48"/>
<rect x="17.76" y="77.939" width="0.48" height="7.32"/>
<rect x="32.16" y="78.18" style="fill:#1A1A1A;" width="7.08" height="7.08"/>
<rect x="32.16" y="77.939" width="7.32" height="0.48"/>
<rect x="39" y="78.18" width="0.48" height="7.32"/>
<rect x="31.92" y="85.02" width="7.32" height="0.48"/>
<rect x="31.92" y="77.939" width="0.48" height="7.32"/>
<rect x="25.08" y="92.34" style="fill:#1A1A1A;" width="7.08" height="7.14"/>
<rect x="25.08" y="92.1" width="7.32" height="0.48"/>
<rect x="31.92" y="92.34" width="0.48" height="7.38"/>
<rect x="24.84" y="99.24" width="7.32" height="0.479"/>
<rect x="24.84" y="92.1" width="0.48" height="7.38"/>
<rect x="39.24" y="92.34" style="fill:#1A1A1A;" width="7.08" height="7.14"/>
<rect x="39.24" y="92.1" width="7.32" height="0.48"/>
<rect x="46.08" y="92.34" width="0.48" height="7.38"/>
<rect x="39" y="99.24" width="7.32" height="0.479"/>
<rect x="39" y="92.1" width="0.48" height="7.38"/>
<polyline points="269.04,67.68 269.16,67.5 268.74,67.26 268.62,67.439 "/>
<polyline points="261.96,81.84 261.84,82.02 261.42,81.78 261.54,81.6 "/>
<polyline points="269.04,67.68 268.62,67.439 261.54,81.6 261.96,81.84 "/>
<polyline points="269.04,67.439 268.92,67.26 268.5,67.5 268.62,67.68 "/>
<polyline points="276.12,81.6 276.24,81.78 275.819,82.02 275.7,81.84 "/>
<polyline points="269.04,67.439 268.62,67.68 275.7,81.84 276.12,81.6 "/>
<polyline points="276.12,81.84 276.24,81.66 275.819,81.42 275.7,81.6 "/>
<polyline points="269.04,96 268.92,96.18 268.5,95.939 268.62,95.76 "/>
<polyline points="276.12,81.84 275.7,81.6 268.62,95.76 269.04,96 "/>
<polyline points="276.12,81.6 276,81.42 275.58,81.66 275.7,81.84 "/>
<polyline points="283.2,95.76 283.319,95.939 282.899,96.18 282.78,96 "/>
<polyline points="276.12,81.6 275.7,81.84 282.78,96 283.2,95.76 "/>
<path style="fill-rule:evenodd;clip-rule:evenodd;fill:#B3B3B3;" d="M265.26,81.72L265.2,81l-0.24-0.66
	c-1.312-3.191-6.006-2.724-6.72,0.66l-0.061,0.72l0.061,0.72c0.727,3.412,5.408,3.872,6.72,0.66l0.24-0.66L265.26,81.72"/>
<path d="M265.02,81.78l-0.06-0.721v0.061l-0.24-0.66h0.061l-0.301-0.601v0.061l-0.42-0.54h0.061l-0.54-0.42v0.06l-0.601-0.3h0.061
	l-0.66-0.24h0.06l-0.72-0.06h0.061l-0.721,0.06h0.061l-0.66,0.24l-0.601,0.3l0.061-0.06l-0.54,0.42l-0.42,0.54l0.06-0.061
	l-0.359,0.601v-0.061l-0.181,0.66l-0.06,0.721V81.72l0.06,0.72v-0.06l0.181,0.66v-0.061l0.359,0.601h-0.06l0.42,0.54V84.06
	l0.54,0.42h-0.061l0.601,0.36l-0.061-0.06l0.66,0.18l0.721,0.06h-0.061l0.72-0.06h-0.06l0.66-0.18l-0.061,0.06l0.601-0.36l0.54-0.42
	l-0.061,0.061l0.42-0.54l0.301-0.601l-0.061,0.061l0.24-0.66v0.06l0.06-0.72l0.48,0.061l-0.061,0.72v0.06l-0.239,0.66l-0.301,0.6
	l-0.06,0.061l-0.42,0.54l-0.54,0.42l-0.061,0.06l-0.6,0.36h-0.06c-0.814,0.326-2.052,0.315-2.88,0h-0.061l-0.6-0.36v-0.06
	c-3.483-2.374-1.183-7.562,2.939-6.84l0.66,0.24v0.06l0.6,0.3h0.061l0.54,0.42v0.061l0.42,0.54h0.06l0.301,0.6v0.061l0.239,0.659V81
	l0.061,0.72"/>
<polyline points="265.02,81.72 265.02,81.78 265.5,81.72 265.5,81.78 "/>
<path style="fill-rule:evenodd;clip-rule:evenodd;fill:#B3B3B3;" d="M272.34,67.56l-0.06-0.72l-0.24-0.66
	c-1.312-3.19-6.006-2.724-6.721,0.66l-0.06,0.72l0.06,0.721c0.715,3.384,5.409,3.851,6.721,0.659l0.24-0.659L272.34,67.56"/>
<path d="M272.1,67.62l-0.06-0.721v0.061l-0.24-0.66h0.06l-0.3-0.6v0.06l-0.42-0.54h0.061l-0.54-0.42v0.06l-0.601-0.3h0.061
	l-0.66-0.24h0.06l-0.72-0.06h0.06l-0.72,0.06h0.061l-0.66,0.24l-0.601,0.3L267,64.8l-0.54,0.42l-0.42,0.54l0.06-0.06l-0.359,0.6
	v-0.06l-0.181,0.659l-0.06,0.721V67.56l0.06,0.721V68.22l0.181,0.66v-0.061l0.359,0.601h-0.06l0.42,0.54v-0.061l0.54,0.42h-0.061
	l0.601,0.301V70.56l0.66,0.24h-0.061l0.72,0.06h-0.06l0.72-0.06h-0.06l0.66-0.24l-0.061,0.061l0.601-0.301l0.54-0.42l-0.061,0.061
	l0.42-0.54l0.3-0.601l-0.06,0.061l0.24-0.66v0.061l0.06-0.721l0.48,0.061l-0.061,0.72v0.06l-0.239,0.66l-0.301,0.601l-0.06,0.06
	l-0.42,0.54l-0.54,0.42l-0.061,0.061l-0.6,0.3l-0.66,0.24c-0.768,0.082-1.569,0.14-2.28-0.24h-0.06l-0.6-0.3V70.68
	c-3.483-2.374-1.183-7.561,2.939-6.84l0.66,0.24v0.06l0.6,0.3h0.061l0.54,0.42v0.061l0.42,0.54h0.06l0.301,0.6v0.061l0.239,0.66
	v0.06l0.061,0.72"/>
<polyline points="272.1,67.56 272.1,67.62 272.58,67.56 272.58,67.62 "/>
<path style="fill-rule:evenodd;clip-rule:evenodd;fill:#B3B3B3;" d="M279.42,81.72L279.359,81l-0.239-0.66
	c-1.288-3.122-5.903-2.817-6.721,0.66l-0.06,0.72l0.06,0.72c0.829,3.503,5.433,3.804,6.721,0.66l0.239-0.66L279.42,81.72"/>
<path d="M279.18,81.78l-0.06-0.721v0.061l-0.24-0.66h0.06l-0.3-0.601v0.061l-0.42-0.54h0.061l-0.54-0.42v0.06l-0.601-0.3h0.061
	l-0.66-0.24h0.06l-0.72-0.06h0.06l-0.72,0.06h0.061l-0.66,0.24l-0.601,0.3l0.061-0.06l-0.54,0.42l-0.42,0.54l0.06-0.061l-0.3,0.601
	l-0.24,0.66V81.06l-0.06,0.721V81.72l0.06,0.72v-0.06l0.24,0.66v-0.061l0.3,0.601h-0.06l0.42,0.54V84.06l0.54,0.42h-0.061
	l0.601,0.36l-0.061-0.06l0.66,0.18l0.72,0.06h-0.06l0.72-0.06h-0.06l0.66-0.18l-0.061,0.06l0.601-0.36l0.54-0.42l-0.061,0.061
	l0.42-0.54l0.3-0.601l-0.06,0.061l0.24-0.66v0.06l0.06-0.72l0.48,0.061L279.6,82.5v0.06l-0.24,0.66l-0.3,0.6L279,83.88l-0.42,0.54
	l-0.54,0.42l-0.061,0.06l-0.6,0.36h-0.061c-0.813,0.326-2.051,0.315-2.88,0h-0.06l-0.6-0.36v-0.06l-0.54-0.42h-0.061l-0.42-0.54
	v-0.061l-0.3-0.6h-0.061l-0.239-0.66V82.5c-0.178-1.21-0.014-1.845,0.6-2.88l0.42-0.54l0.061-0.061
	c0.933-0.835,2.168-1.278,3.42-1.02h0.06l0.66,0.24v0.06l0.6,0.3h0.061l0.54,0.42v0.061l0.42,0.54h0.06l0.3,0.6v0.061l0.24,0.659V81
	l0.061,0.72"/>
<polyline points="279.18,81.72 279.18,81.78 279.66,81.72 279.66,81.78 "/>
<path style="fill-rule:evenodd;clip-rule:evenodd;fill:#B3B3B3;" d="M272.34,95.88l-0.06-0.66l-0.24-0.72
	c-1.352-3.2-6.092-2.652-6.721,0.72l-0.06,0.66l0.06,0.72c0.757,3.402,5.346,3.921,6.721,0.66l0.24-0.66L272.34,95.88"/>
<path d="M272.1,95.939l-0.06-0.659v0.06l-0.24-0.72h0.06l-0.3-0.601v0.061l-0.42-0.48h0.061l-0.54-0.479v0.06l-0.601-0.3h0.061
	l-0.66-0.18h0.06l-0.72-0.12h0.06l-0.72,0.12l-0.66,0.18h0.061l-0.601,0.3L267,93.12l-0.54,0.479l-0.42,0.48l0.06-0.061
	l-0.359,0.601V94.56l-0.181,0.721l-0.06,0.659v-0.06l0.06,0.72v-0.06l0.181,0.66V97.14l0.359,0.601h-0.06l0.42,0.54V98.22l0.54,0.42
	h-0.061L267.54,99l-0.061-0.061l0.66,0.181l0.72,0.12h-0.06l0.72-0.12h-0.06l0.66-0.181L270.06,99l0.601-0.36l0.54-0.42
	l-0.061,0.061l0.42-0.54l0.3-0.601L271.8,97.2l0.24-0.66v0.06l0.06-0.72l0.48,0.06l-0.061,0.721v0.06l-0.239,0.66l-0.301,0.6
	l-0.06,0.061l-0.42,0.54L270.96,99l-0.061,0.06l-0.6,0.36h-0.06c-1.312,0.426-1.625,0.354-2.881,0h-0.06l-0.6-0.36V99l-0.54-0.42
	H266.1l-0.42-0.54v-0.061l-0.36-0.6l-0.06-0.061l-0.18-0.659l-0.061-0.721v-0.06l0.061-0.66v-0.06l0.18-0.721l0.06-0.06l0.36-0.6
	l0.42-0.48l0.061-0.06l0.54-0.48c0.709-0.456,1.279-0.548,2.1-0.66h0.06l0.721,0.12c0.659,0.141,1.476,0.497,1.92,1.021v0.06
	l0.42,0.48h0.06l0.301,0.6v0.06l0.239,0.721v0.06l0.061,0.66"/>
<polyline points="272.1,95.88 272.1,95.939 272.58,95.88 272.58,95.939 "/>
<path style="fill-rule:evenodd;clip-rule:evenodd;fill:#B3B3B3;" d="M286.5,95.88l-0.061-0.66l-0.18-0.72
	c-1.528-3.159-6.021-2.719-6.78,0.72l-0.06,0.66l0.06,0.72c0.883,3.465,5.228,3.883,6.78,0.66l0.18-0.66L286.5,95.88"/>
<path d="M286.26,95.939l-0.06-0.659l-0.181-0.721l0.061,0.061l-0.36-0.601v0.061l-0.42-0.48h0.06l-0.54-0.479v0.06l-0.6-0.3h0.061
	l-0.66-0.18h0.06l-0.72-0.12h0.06l-0.72,0.12l-0.66,0.18h0.061l-0.601,0.3l0.061-0.06l-0.54,0.479l-0.42,0.48l0.06-0.061l-0.3,0.601
	l-0.24,0.72v-0.06l-0.06,0.659v-0.06l0.06,0.72v-0.06l0.24,0.66V97.14l0.3,0.601h-0.06l0.42,0.54V98.22l0.54,0.42H281.1L281.7,99
	l-0.061-0.061l0.66,0.181l0.72,0.12h-0.06l0.72-0.12h-0.06l0.66-0.181L284.22,99l0.6-0.36l0.54-0.42l-0.06,0.061l0.42-0.54
	l0.36-0.601L286.02,97.2l0.181-0.66v0.06l0.06-0.72l0.48,0.06l-0.061,0.721l-0.18,0.659v0.061l-0.36,0.6l-0.06,0.061l-0.42,0.54
	L285.12,99l-0.061,0.06l-0.6,0.36h-0.061c-1.311,0.426-1.625,0.354-2.88,0h-0.06l-0.601-0.36V99l-0.54-0.42h-0.06l-0.42-0.54v-0.061
	l-0.3-0.6h-0.061l-0.239-0.66v-0.06c-0.309-1.498,0.398-3.022,1.619-3.9l0.601-0.3l0.06-0.061l0.66-0.18h0.061l0.72-0.12h0.06
	l0.721,0.12l0.659,0.18l0.061,0.061l0.6,0.3h0.061l0.54,0.48v0.06l0.42,0.48h0.06l0.36,0.6v0.06l0.18,0.721v0.06l0.061,0.66"/>
<polyline points="286.26,95.88 286.26,95.939 286.74,95.88 286.74,95.939 "/>
<rect x="28.32" y="28.319" width="0.48" height="1.261"/>
<rect x="28.32" y="33.359" width="0.48" height="1.86"/>
<rect x="28.32" y="39" width="0.48" height="1.859"/>
<rect x="28.32" y="44.64" width="0.48" height="1.86"/>
<rect x="28.32" y="50.28" width="0.48" height="1.92"/>
<rect x="28.32" y="55.92" width="0.48" height="1.26"/>
<rect x="49.62" y="85.02" width="1.2" height="0.48"/>
<rect x="54.72" y="85.02" width="1.92" height="0.48"/>
<rect x="60.48" y="85.02" width="1.92" height="0.48"/>
<rect x="66.3" y="85.02" width="1.92" height="0.48"/>
<rect x="72.06" y="85.02" width="1.92" height="0.48"/>
<rect x="77.88" y="85.02" width="1.92" height="0.48"/>
<rect x="83.64" y="85.02" width="1.98" height="0.48"/>
<rect x="89.46" y="85.02" width="1.92" height="0.48"/>
<rect x="95.28" y="85.02" width="1.92" height="0.48"/>
<rect x="101.04" y="85.02" width="1.92" height="0.48"/>
<rect x="106.86" y="85.02" width="1.92" height="0.48"/>
<rect x="112.62" y="85.02" width="1.26" height="0.48"/>
<rect x="177.18" y="85.02" width="1.2" height="0.48"/>
<rect x="182.34" y="85.02" width="1.979" height="0.48"/>
<rect x="188.22" y="85.02" width="1.98" height="0.48"/>
<rect x="194.16" y="85.02" width="1.92" height="0.48"/>
<rect x="200.04" y="85.02" width="1.979" height="0.48"/>
<rect x="205.979" y="85.02" width="0.24" height="0.48"/>
<rect x="206.22" y="85.02" width="1.68" height="0.48"/>
<rect x="211.859" y="85.02" width="0.24" height="0.48"/>
<rect x="212.1" y="85.02" width="1.74" height="0.48"/>
<rect x="217.74" y="85.02" width="0.239" height="0.48"/>
<rect x="217.979" y="85.02" width="1.74" height="0.48"/>
<rect x="223.68" y="85.02" width="0.24" height="0.48"/>
<rect x="223.92" y="85.02" width="1.68" height="0.48"/>
<rect x="229.56" y="85.02" width="0.24" height="0.48"/>
<rect x="229.8" y="85.02" width="1.74" height="0.48"/>
<rect x="235.5" y="85.02" width="0.24" height="0.48"/>
<rect x="235.74" y="85.02" width="1.68" height="0.48"/>
<rect x="241.38" y="85.02" width="0.24" height="0.48"/>
<rect x="241.62" y="85.02" width="1.739" height="0.48"/>
<rect x="247.26" y="85.02" width="0.24" height="0.48"/>
<rect x="247.5" y="85.02" width="1.02" height="0.48"/>
<rect x="269.28" y="56.939" width="0.479" height="0.24"/>
<rect x="269.28" y="55.92" width="0.479" height="1.02"/>
<rect x="269.28" y="51.96" width="0.479" height="0.24"/>
<rect x="269.28" y="50.28" width="0.479" height="1.68"/>
<rect x="269.28" y="46.26" width="0.479" height="0.24"/>
<rect x="269.28" y="44.64" width="0.479" height="1.62"/>
<rect x="269.28" y="40.62" width="0.479" height="0.239"/>
<rect x="269.28" y="39" width="0.479" height="1.62"/>
<rect x="269.28" y="34.979" width="0.479" height="0.24"/>
<rect x="269.28" y="33.359" width="0.479" height="1.62"/>
<rect x="269.28" y="29.34" width="0.479" height="0.24"/>
<rect x="269.28" y="28.319" width="0.479" height="1.021"/>
<text transform="matrix(1 0 0 1 107.2798 65.04)"><tspan x="0" y="0" style="font-family:'ProductusSemibold'; font-size:7.98;">F</tspan><tspan x="3.479" y="0" style="font-family:'ProductusSemibold'; font-size:7.98;">a</tspan><tspan x="7.437" y="0" style="font-family:'ProductusSemibold'; font-size:7.98;">ct</tspan><tspan x="14.212" y="0" style="font-family:'ProductusSemibold'; font-size:7.98;">o</tspan><tspan x="18.529" y="0" style="font-family:'ProductusSemibold'; font-size:7.98;">r</tspan><tspan x="21.522" y="0" style="font-family:'ProductusSemibold'; font-size:7.98;">y</tspan></text>
</svg>
