<?xml version="1.0" encoding="utf-8"?>
<!-- Generator: Adobe Illustrator 16.0.0, SVG Export Plug-In . SVG Version: 6.00 Build 0)  -->
<!DOCTYPE svg PUBLIC "-//W3C//DTD SVG 1.1//EN" "http://www.w3.org/Graphics/SVG/1.1/DTD/svg11.dtd">
<svg version="1.1" id="Layer_1" xmlns="http://www.w3.org/2000/svg" xmlns:xlink="http://www.w3.org/1999/xlink" x="0px" y="0px"
	 width="291.062px" height="120.96px" viewBox="0 0 291.062 120.96" style="enable-background:new 0 0 291.062 120.96;"
	 xml:space="preserve">
<rect x="144.361" y="8.64" width="54.3" height="27"/>
<rect x="144.361" y="8.4" width="54.54" height="0.48"/>
<rect x="198.421" y="8.64" width="0.48" height="27.24"/>
<rect x="144.121" y="35.4" width="54.54" height="0.48"/>
<rect x="144.121" y="8.4" width="0.48" height="27.24"/>
<rect x="141.961" y="6.84" style="fill:#FFFFFF;" width="54.36" height="27"/>
<rect x="141.961" y="6.6" width="54.6" height="0.48"/>
<rect x="196.081" y="6.84" width="0.48" height="27.24"/>
<rect x="141.721" y="33.6" width="54.6" height="0.48"/>
<rect x="141.721" y="6.6" width="0.48" height="27.24"/>
<text transform="matrix(1 0 0 1 144.3613 13.98)"><tspan x="0" y="0" style="font-family:'ProductusSemibold'; font-size:7.98;">Objec</tspan><tspan x="20.093" y="0" style="font-family:'ProductusSemibold'; font-size:7.98;">t</tspan></text>
<rect x="144.361" y="51.18" width="54.3" height="27"/>
<rect x="144.361" y="50.94" width="54.54" height="0.48"/>
<rect x="198.421" y="51.18" width="0.48" height="27.24"/>
<rect x="144.121" y="77.94" width="54.54" height="0.48"/>
<rect x="144.121" y="50.94" width="0.48" height="27.24"/>
<rect x="141.961" y="49.38" style="fill:#FFFFFF;" width="54.36" height="27"/>
<rect x="141.961" y="49.14" width="54.6" height="0.48"/>
<rect x="196.081" y="49.38" width="0.48" height="27.24"/>
<rect x="141.721" y="76.14" width="54.6" height="0.48"/>
<rect x="141.721" y="49.14" width="0.48" height="27.24"/>
<text transform="matrix(1 0 0 1 144.3613 56.5195)"><tspan x="0" y="0" style="font-family:'ProductusSemibold'; font-size:7.98;">T</tspan><tspan x="3.782" y="0" style="font-family:'ProductusSemibold'; font-size:7.98;">a</tspan><tspan x="7.74" y="0" style="font-family:'ProductusSemibold'; font-size:7.98;">b</tspan><tspan x="12.058" y="0" style="font-family:'ProductusSemibold'; font-size:7.98;">l</tspan><tspan x="14.212" y="0" style="font-family:'ProductusSemibold'; font-size:7.98;">e</tspan></text>
<rect x="59.281" y="8.64" width="54.36" height="27"/>
<rect x="59.281" y="8.4" width="54.6" height="0.48"/>
<rect x="113.401" y="8.64" width="0.48" height="27.24"/>
<rect x="59.041" y="35.4" width="54.6" height="0.48"/>
<rect x="59.041" y="8.4" width="0.48" height="27.24"/>
<rect x="56.941" y="6.84" style="fill:#FFFFFF;" width="54.3" height="27"/>
<rect x="56.941" y="6.6" width="54.54" height="0.48"/>
<rect x="111.001" y="6.84" width="0.48" height="27.24"/>
<rect x="56.701" y="33.6" width="54.54" height="0.48"/>
<rect x="56.701" y="6.6" width="0.48" height="27.24"/>
<text transform="matrix(1 0 0 1 59.2812 13.98)"><tspan x="0" y="0" style="font-family:'ProductusSemibold'; font-size:7.98;">na</tspan><tspan x="8.219" y="0" style="font-family:'ProductusSemibold'; font-size:7.98;">m</tspan><tspan x="14.635" y="0" style="font-family:'ProductusSemibold'; font-size:7.98;">e</tspan></text>
<rect x="144.361" y="93.72" width="54.3" height="27"/>
<rect x="144.361" y="93.479" width="54.54" height="0.48"/>
<rect x="198.421" y="93.72" width="0.48" height="27.24"/>
<rect x="144.121" y="120.479" width="54.54" height="0.48"/>
<rect x="144.121" y="93.479" width="0.48" height="27.24"/>
<rect x="141.961" y="91.92" style="fill:#FFFFFF;" width="54.36" height="27"/>
<rect x="141.961" y="91.68" width="54.6" height="0.48"/>
<rect x="196.081" y="91.92" width="0.48" height="27.24"/>
<rect x="141.721" y="118.68" width="54.6" height="0.48"/>
<rect x="141.721" y="91.68" width="0.48" height="27.24"/>
<text transform="matrix(1 0 0 1 144.3613 99)"><tspan x="0" y="0" style="font-family:'ProductusSemibold'; font-size:7.98;">P</tspan><tspan x="4.078" y="0" style="font-family:'ProductusSemibold'; font-size:7.98;">aramete</tspan><tspan x="32.749" y="0" style="font-family:'ProductusSemibold'; font-size:7.98;">r</tspan></text>
<rect x="113.401" y="21.24" width="0.24" height="0.48"/>
<rect x="113.641" y="21.24" width="28.56" height="0.48"/>
<rect x="127.561" y="21.24" width="0.48" height="43.02"/>
<rect x="127.801" y="63.78" width="14.4" height="0.48"/>
<rect x="127.561" y="21.24" width="0.48" height="85.5"/>
<rect x="127.801" y="106.26" width="14.4" height="0.48"/>
<rect x="215.222" y="51.18" width="54.3" height="27"/>
<rect x="215.222" y="50.94" width="54.54" height="0.48"/>
<rect x="269.281" y="51.18" width="0.48" height="27.24"/>
<rect x="214.981" y="77.94" width="54.54" height="0.48"/>
<rect x="214.981" y="50.94" width="0.479" height="27.24"/>
<rect x="212.821" y="49.38" style="fill:#FFFFFF;" width="54.36" height="27"/>
<rect x="212.821" y="49.14" width="54.6" height="0.48"/>
<rect x="266.941" y="49.38" width="0.479" height="27.24"/>
<rect x="212.581" y="76.14" width="54.601" height="0.48"/>
<rect x="212.581" y="49.14" width="0.48" height="27.24"/>
<text transform="matrix(1 0 0 1 215.2217 56.5195)"><tspan x="0" y="0" style="font-family:'ProductusSemibold'; font-size:7.98;">instance</tspan><tspan x="28.839" y="0" style="font-family:'ProductusSemibold'; font-size:7.98;"> </tspan><tspan x="30.874" y="0" style="font-family:'ProductusSemibold'; font-size:7.98;">i</tspan><tspan x="33.036" y="0" style="font-family:'ProductusSemibold'; font-size:7.98;">d</tspan></text>
<rect x="198.421" y="63.24" width="0.24" height="0.48"/>
<rect x="198.661" y="63.24" width="14.4" height="0.48"/>
<rect x="198.421" y="21.24" width="92.641" height="0.48"/>
<rect x="290.581" width="0.48" height="21.48"/>
<rect x="42.541" width="248.28" height="0.48"/>
<rect x="42.541" y="0.24" width="0.48" height="21.48"/>
<rect x="42.781" y="21.24" width="14.4" height="0.48"/>
<rect x="269.281" y="63.78" width="21.78" height="0.48"/>
<rect x="290.581" y="21.24" width="0.48" height="42.78"/>
<text transform="matrix(1 0 0 1 45.541 19.5)"><tspan x="0" y="0" style="font-family:'ProductusOSGiBookc'; font-size:7.98;">0.</tspan><tspan x="5.466" y="0" style="font-family:'ProductusOSGiBookc'; font-size:7.98;">.</tspan><tspan x="7.086" y="0" style="font-family:'ProductusOSGiBookc'; font-size:7.98;">n</tspan></text>
<text transform="matrix(1 0 0 1 114.9609 18.2397)" style="font-family:'ProductusOSGiBookc'; font-size:7.98;">1</text>
<text transform="matrix(1 0 0 1 199.7412 26.3999)" style="font-family:'ProductusOSGiBookc'; font-size:7.98;">1</text>
<text transform="matrix(1 0 0 1 271.3809 68.7002)" style="font-family:'ProductusOSGiBookc'; font-size:7.98;">1</text>
<text transform="matrix(1 0 0 1 210.0605 68.7002)" style="font-family:'ProductusOSGiBookc'; font-size:7.98;">1</text>
<text transform="matrix(1 0 0 1 200.1016 68.7002)" style="font-family:'ProductusOSGiBookc'; font-size:7.98;">1</text>
<text transform="matrix(1 0 0 1 137.7612 103.6807)" style="font-family:'ProductusOSGiBookc'; font-size:7.98;">1</text>
<text transform="matrix(1 0 0 1 137.7612 60.7812)" style="font-family:'ProductusOSGiBookc'; font-size:7.98;">1</text>
<text transform="matrix(1 0 0 1 138.4214 18.2412)" style="font-family:'ProductusOSGiBookc'; font-size:7.98;">1</text>
<rect x="7.081" y="21.24" width="0.24" height="0.48"/>
<rect x="7.321" y="21.24" width="49.86" height="0.48"/>
<path style="fill-rule:evenodd;clip-rule:evenodd;" d="M14.401,21.48v-0.72l-0.12-0.72c-1.84-7.896-13.043-7.33-13.98,0.72
	l-0.06,0.72l0.06,0.72c0.937,8.05,12.14,8.615,13.98,0.72l0.12-0.72V21.48"/>
<path d="M14.161,21.48v-0.72v0.06l-0.12-0.72l-0.18-0.66v0.06l-0.24-0.66h0.06l-0.3-0.6l-0.36-0.6v0.06l-0.84-1.08h0.06l-1.08-0.84
	v0.06l-0.6-0.36l-0.6-0.3h0.06l-0.66-0.24l-0.66-0.18h0.06l-0.72-0.12h-1.44h0.06l-0.72,0.12l-0.66,0.18h0.06l-0.66,0.24l-0.6,0.3
	l-0.6,0.36l0.06-0.06l-0.54,0.42l-0.48,0.42l-0.48,0.54l-0.42,0.54l0.06-0.06l-0.36,0.6l-0.3,0.6l-0.24,0.66v-0.06l-0.18,0.66
	l-0.12,1.44v-0.06l0.12,1.44v-0.06l0.18,0.66l0.24,0.66v-0.06l0.3,0.6l0.36,0.6h-0.06l0.42,0.54l0.48,0.54v-0.06l0.48,0.42
	l-0.3,0.36l-0.48-0.42h-0.06l-0.48-0.54l-0.42-0.54v-0.06l-0.36-0.6l-0.3-0.6h-0.06l-0.24-0.66v-0.06
	c-0.66-2.336-0.252-4.931,1.38-6.78l0.48-0.54l0.06-0.06c1.866-1.871,4.733-2.629,7.26-1.8h0.06l0.66,0.24v0.06l0.6,0.3
	c1.385,0.769,1.676,1.066,2.58,2.34h0.06l0.36,0.6c0.445,0.809,0.738,1.839,0.84,2.76v0.72"/>
<path d="M3.001,26.76l0.54,0.42h-0.06l0.6,0.36l0.6,0.3v-0.06l0.66,0.24h-0.06l0.66,0.18l0.72,0.12h-0.06h1.44l0.72-0.12h-0.06
	l0.66-0.18l0.66-0.24l-0.06,0.06l0.6-0.3l0.6-0.36l1.08-0.84l-0.06,0.06l0.84-1.08l0.36-0.6l0.3-0.6l-0.06,0.06l0.24-0.66l0.18-0.66
	v0.06l0.12-0.72v-0.72h0.48v0.72c-0.565,5.241-6.121,8.21-10.8,5.76l-0.6-0.36v-0.06l-0.54-0.42"/>
</svg>
