<?xml version="1.0" encoding="utf-8"?>
<!-- Generator: Adobe Illustrator 16.0.1, SVG Export Plug-In . SVG Version: 6.00 Build 0)  -->
<!DOCTYPE svg PUBLIC "-//W3C//DTD SVG 1.1//EN" "http://www.w3.org/Graphics/SVG/1.1/DTD/svg11.dtd">
<svg version="1.1" id="Layer_1" xmlns="http://www.w3.org/2000/svg" xmlns:xlink="http://www.w3.org/1999/xlink" x="0px" y="0px"
	 width="291.062px" height="120.96px" viewBox="0 0 291.062 120.96" enable-background="new 0 0 291.062 120.96"
	 xml:space="preserve">
<rect x="144.361" y="8.64" width="54.3" height="27"/>
<rect x="144.361" y="8.4" width="54.54" height="0.48"/>
<rect x="198.421" y="8.64" width="0.48" height="27.24"/>
<rect x="144.121" y="35.4" width="54.54" height="0.48"/>
<rect x="144.121" y="8.4" width="0.48" height="27.24"/>
<rect x="141.961" y="6.84" fill="#FFFFFF" width="54.36" height="27"/>
<rect x="141.961" y="6.6" width="54.601" height="0.48"/>
<rect x="196.081" y="6.84" width="0.48" height="27.24"/>
<rect x="141.721" y="33.6" width="54.6" height="0.48"/>
<rect x="141.721" y="6.6" width="0.479" height="27.24"/>
<text transform="matrix(1 0 0 1 144.3611 13.98)" font-family="'ProductusSemibold'" font-size="7.98">Object</text>
<rect x="144.361" y="51.18" width="54.3" height="27"/>
<rect x="144.361" y="50.94" width="54.54" height="0.48"/>
<rect x="198.421" y="51.18" width="0.48" height="27.239"/>
<rect x="144.121" y="77.94" width="54.54" height="0.479"/>
<rect x="144.121" y="50.94" width="0.48" height="27.24"/>
<rect x="141.961" y="49.38" fill="#FFFFFF" width="54.36" height="27"/>
<rect x="141.961" y="49.14" width="54.601" height="0.48"/>
<rect x="196.081" y="49.38" width="0.48" height="27.241"/>
<rect x="141.721" y="76.14" width="54.6" height="0.48"/>
<rect x="141.721" y="49.14" width="0.479" height="27.24"/>
<text transform="matrix(1 0 0 1 144.3611 56.519)" font-family="'ProductusSemibold'" font-size="7.98">Table</text>
<rect x="59.281" y="8.64" width="54.36" height="27"/>
<rect x="59.281" y="8.4" width="54.6" height="0.48"/>
<rect x="113.401" y="8.64" width="0.479" height="27.24"/>
<rect x="59.041" y="35.4" width="54.601" height="0.48"/>
<rect x="59.041" y="8.4" width="0.48" height="27.24"/>
<rect x="56.941" y="6.84" fill="#FFFFFF" width="54.3" height="27"/>
<rect x="56.941" y="6.6" width="54.54" height="0.48"/>
<rect x="111.001" y="6.84" width="0.48" height="27.24"/>
<rect x="56.701" y="33.6" width="54.54" height="0.48"/>
<rect x="56.701" y="6.6" width="0.48" height="27.24"/>
<text transform="matrix(1 0 0 1 59.281 13.98)" font-family="'ProductusSemibold'" font-size="7.98">name</text>
<rect x="144.361" y="93.72" width="54.3" height="27"/>
<rect x="144.361" y="93.479" width="54.54" height="0.479"/>
<rect x="198.421" y="93.72" width="0.48" height="27.24"/>
<rect x="144.121" y="120.479" width="54.54" height="0.479"/>
<rect x="144.121" y="93.479" width="0.48" height="27.239"/>
<rect x="141.961" y="91.919" fill="#FFFFFF" width="54.36" height="27"/>
<rect x="141.961" y="91.68" width="54.601" height="0.479"/>
<rect x="196.081" y="91.919" width="0.48" height="27.24"/>
<rect x="141.721" y="118.68" width="54.6" height="0.479"/>
<rect x="141.721" y="91.68" width="0.479" height="27.239"/>
<text transform="matrix(1 0 0 1 144.3611 98.9995)" font-family="'ProductusSemibold'" font-size="7.98">Parameter</text>
<rect x="113.401" y="21.24" width="0.24" height="0.479"/>
<rect x="113.641" y="21.24" width="28.56" height="0.479"/>
<rect x="127.561" y="21.24" width="0.479" height="43.019"/>
<rect x="127.801" y="63.781" width="14.4" height="0.479"/>
<rect x="127.561" y="21.24" width="0.479" height="85.5"/>
<rect x="127.801" y="106.259" width="14.4" height="0.48"/>
<rect x="215.222" y="51.18" width="54.3" height="27"/>
<rect x="215.222" y="50.94" width="54.54" height="0.48"/>
<rect x="269.281" y="51.18" width="0.48" height="27.239"/>
<rect x="214.981" y="77.94" width="54.54" height="0.479"/>
<rect x="214.981" y="50.94" width="0.479" height="27.24"/>
<rect x="212.821" y="49.38" fill="#FFFFFF" width="54.36" height="27"/>
<rect x="212.821" y="49.14" width="54.6" height="0.48"/>
<rect x="266.941" y="49.38" width="0.479" height="27.241"/>
<rect x="212.581" y="76.14" width="54.602" height="0.48"/>
<rect x="212.581" y="49.14" width="0.48" height="27.24"/>
<text transform="matrix(1 0 0 1 215.2214 56.519)" font-family="'ProductusSemibold'" font-size="7.98">instance id</text>
<rect x="198.421" y="63.24" width="0.24" height="0.48"/>
<rect x="198.661" y="63.24" width="14.4" height="0.48"/>
<rect x="198.421" y="21.24" width="92.642" height="0.479"/>
<rect x="290.581" width="0.48" height="21.48"/>
<rect x="42.541" width="248.28" height="0.48"/>
<rect x="42.541" y="0.24" width="0.48" height="21.479"/>
<rect x="42.781" y="21.24" width="14.4" height="0.479"/>
<rect x="269.281" y="63.781" width="21.78" height="0.479"/>
<rect x="290.581" y="21.24" width="0.48" height="42.78"/>
<text transform="matrix(1 0 0 1 45.5408 19.4995)" font-family="'ProductusOSGiBookc'" font-size="7.98">0..n</text>
<text transform="matrix(1 0 0 1 114.9607 18.2388)" font-family="'ProductusOSGiBookc'" font-size="7.98">1</text>
<text transform="matrix(1 0 0 1 199.741 26.3999)" font-family="'ProductusOSGiBookc'" font-size="7.98">1</text>
<text transform="matrix(1 0 0 1 271.3806 68.6997)" font-family="'ProductusOSGiBookc'" font-size="7.98">1</text>
<text transform="matrix(1 0 0 1 209.0603 68.6997)" font-family="'ProductusOSGiBookc'" font-size="7.98">1</text>
<text transform="matrix(1 0 0 1 200.1013 68.6997)" font-family="'ProductusOSGiBookc'" font-size="7.98">1</text>
<text transform="matrix(1 0 0 1 137.761 103.6802)" font-family="'ProductusOSGiBookc'" font-size="7.98">1</text>
<text transform="matrix(1 0 0 1 137.761 60.7808)" font-family="'ProductusOSGiBookc'" font-size="7.98">1</text>
<text transform="matrix(1 0 0 1 138.4211 18.2407)" font-family="'ProductusOSGiBookc'" font-size="7.98">1</text>
<rect x="7.081" y="21.24" width="0.24" height="0.479"/>
<rect x="7.321" y="21.24" width="49.86" height="0.479"/>
<path d="M14.401,21.48v-0.72l-0.12-0.72c-1.84-7.896-13.043-7.33-13.98,0.72l-0.06,0.72l0.06,0.72
	c0.938,8.05,12.141,8.615,13.98,0.72l0.12-0.72V21.48"/>
<path d="M14.161,21.48v-0.72v0.06l-0.12-0.72l-0.18-0.66v0.06l-0.24-0.66h0.061l-0.301-0.6l-0.359-0.6v0.06l-0.84-1.08h0.06
	l-1.08-0.84v0.06l-0.6-0.36l-0.601-0.3h0.061l-0.66-0.24l-0.66-0.18h0.061l-0.721-0.12H6.601h0.06l-0.72,0.12l-0.66,0.18h0.06
	l-0.659,0.24l-0.601,0.3l-0.6,0.36l0.06-0.06l-0.54,0.42l-0.479,0.42l-0.48,0.54l-0.42,0.54l0.061-0.06l-0.36,0.6l-0.3,0.6
	l-0.24,0.66v-0.06l-0.18,0.66l-0.12,1.44v-0.06l0.12,1.44v-0.06l0.18,0.66l0.24,0.66v-0.06l0.3,0.6l0.36,0.6H1.621l0.42,0.54
	l0.48,0.54v-0.06l0.479,0.42l-0.3,0.36L2.221,26.7H2.161l-0.479-0.54l-0.42-0.54v-0.06l-0.36-0.6l-0.3-0.6H0.541l-0.24-0.66v-0.06
	c-0.659-2.336-0.252-4.931,1.381-6.78l0.479-0.54l0.061-0.06c1.865-1.871,4.732-2.629,7.26-1.8h0.06l0.66,0.24v0.06l0.6,0.3
	c1.386,0.769,1.677,1.066,2.58,2.34h0.061l0.359,0.6c0.445,0.809,0.738,1.839,0.841,2.76v0.72"/>
<path d="M3.001,26.76l0.54,0.42h-0.06l0.6,0.36l0.601,0.3v-0.06l0.659,0.24h-0.06l0.66,0.18l0.72,0.12h-0.06h1.439l0.721-0.12H8.701
	l0.66-0.18l0.66-0.24l-0.061,0.06l0.601-0.3l0.6-0.36l1.08-0.84l-0.06,0.06l0.84-1.08l0.359-0.6l0.301-0.6l-0.061,0.06l0.24-0.66
	l0.18-0.66v0.06l0.12-0.72v-0.72h0.48v0.72c-0.565,5.241-6.121,8.21-10.801,5.76l-0.6-0.36v-0.06l-0.54-0.42"/>
</svg>
